<?xml version="1.0" encoding="UTF-8"?>
<svg id="Capa_2" data-name="Capa 2" xmlns="http://www.w3.org/2000/svg" viewBox="0 0 1135.15 792">
  <defs>
    <style>
      .cls-1 {
        stroke-width: .39px;
      }

      .cls-1, .cls-2, .cls-3, .cls-4, .cls-5, .cls-6, .cls-7, .cls-8, .cls-9, .cls-10, .cls-11, .cls-12, .cls-13, .cls-14 {
        stroke: #000;
        stroke-miterlimit: 10;
      }

      .cls-15 {
        font-family: MyriadPro-Regular, 'Myriad Pro';
        font-size: 20px;
      }

      .cls-2 {
        stroke-width: .55px;
      }

      .cls-3 {
        stroke-width: .87px;
      }

      .cls-4 {
        stroke-width: .55px;
      }

      .cls-5 {
        stroke-width: .94px;
      }

      .cls-6 {
        stroke-width: .68px;
      }

      .cls-7 {
        stroke-width: .87px;
      }

      .cls-8 {
        stroke-width: .39px;
      }

      .cls-9 {
        stroke-width: 1.11px;
      }

      .cls-10 {
        stroke-width: .55px;
      }

      .cls-11 {
        fill: none;
        stroke-width: 2.16px;
      }

      .cls-12 {
        stroke-width: .67px;
      }

      .cls-13 {
        stroke-width: .78px;
      }

      .cls-14 {
        stroke-width: .39px;
      }

      .cls-16 {
        font-family: Helvetica-Compressed, 'Helvetica Compressed';
        font-size: 40.84px;
      }
    </style>
  </defs>
  <polyline class="cls-11" points="1064.68 685.55 152.16 685.55 152.16 78.93"/>
  <rect class="cls-7" x="223.81" y="370.68" width="35.74" height="313.25"/>
  <rect class="cls-9" x="290.71" y="174.71" width="35.74" height="509.22"/>
  <rect class="cls-8" x="351.47" y="621.69" width="35.74" height="62.23"/>
  <rect class="cls-13" x="408.7" y="433.43" width="35.74" height="250.5"/>
  <rect class="cls-8" x="472.85" y="621.69" width="35.74" height="62.23"/>
  <rect class="cls-2" x="535.06" y="558.94" width="35.74" height="124.99"/>
  <rect class="cls-1" x="595.31" y="621.69" width="35.74" height="62.49"/>
  <rect class="cls-10" x="657.51" y="558.68" width="35.74" height="125.38"/>
  <rect class="cls-12" x="719.72" y="496.19" width="35.74" height="187.87"/>
  <rect class="cls-4" x="781.92" y="558.94" width="35.74" height="127.67"/>
  <rect class="cls-3" x="844.12" y="370.68" width="35.74" height="314.53"/>
  <rect class="cls-14" x="906.33" y="621.69" width="35.74" height="63.51"/>
  <rect class="cls-5" x="968.53" y="320.85" width="35.74" height="364.35"/>
  <rect class="cls-6" x="1023.22" y="496.19" width="35.74" height="189.02"/>
  <line class="cls-11" x1="168.12" y1="76.73" x2="136.2" y2="76.73"/>
  <line class="cls-11" x1="168.12" y1="125.72" x2="136.2" y2="125.72"/>
  <line class="cls-11" x1="168.12" y1="174.71" x2="136.2" y2="174.71"/>
  <line class="cls-11" x1="168.12" y1="223.7" x2="136.2" y2="223.7"/>
  <line class="cls-11" x1="168.12" y1="272.69" x2="136.2" y2="272.69"/>
  <line class="cls-11" x1="168.12" y1="558.94" x2="136.2" y2="558.94"/>
  <line class="cls-11" x1="168.12" y1="621.69" x2="136.2" y2="621.69"/>
  <line class="cls-11" x1="215.28" y1="669.59" x2="215.28" y2="701.51"/>
  <line class="cls-11" x1="274.96" y1="669.59" x2="274.96" y2="701.51"/>
  <line class="cls-11" x1="333.27" y1="669.59" x2="333.27" y2="701.51"/>
  <line class="cls-11" x1="395.47" y1="669.59" x2="395.47" y2="701.51"/>
  <line class="cls-11" x1="457.67" y1="669.59" x2="457.67" y2="701.51"/>
  <line class="cls-11" x1="519.88" y1="669.59" x2="519.88" y2="701.51"/>
  <line class="cls-11" x1="582.08" y1="669.59" x2="582.08" y2="701.51"/>
  <line class="cls-11" x1="644.28" y1="669.59" x2="644.28" y2="701.51"/>
  <line class="cls-11" x1="706.49" y1="669.59" x2="706.49" y2="701.51"/>
  <line class="cls-11" x1="768.69" y1="669.59" x2="768.69" y2="701.51"/>
  <line class="cls-11" x1="830.89" y1="669.59" x2="830.89" y2="701.51"/>
  <line class="cls-11" x1="893.1" y1="669.59" x2="893.1" y2="701.51"/>
  <line class="cls-11" x1="955.3" y1="669.59" x2="955.3" y2="701.51"/>
  <line class="cls-11" x1="1017.51" y1="669.59" x2="1017.51" y2="701.51"/>
  <line class="cls-11" x1="1064.68" y1="670.65" x2="1064.68" y2="702.57"/>
  <line class="cls-11" x1="168.12" y1="321.69" x2="136.2" y2="321.69"/>
  <line class="cls-11" x1="168.12" y1="370.68" x2="136.2" y2="370.68"/>
  <line class="cls-11" x1="168.12" y1="433.43" x2="136.2" y2="433.43"/>
  <line class="cls-11" x1="168.12" y1="496.19" x2="136.2" y2="496.19"/>
  <text class="cls-15" transform="translate(116.43 628)"><tspan x="0" y="0">1</tspan></text>
  <text class="cls-15" transform="translate(194.55 725.28)"><tspan x="0" y="0">2010</tspan></text>
  <text class="cls-15" transform="translate(255.06 725.28)"><tspan x="0" y="0">2011</tspan></text>
  <text class="cls-15" transform="translate(315.57 725.28)"><tspan x="0" y="0">2012</tspan></text>
  <text class="cls-15" transform="translate(376.09 725.28)"><tspan x="0" y="0">2013</tspan></text>
  <text class="cls-15" transform="translate(436.6 725.28)"><tspan x="0" y="0">2014</tspan></text>
  <text class="cls-15" transform="translate(497.11 725.28)"><tspan x="0" y="0">2015</tspan></text>
  <text class="cls-15" transform="translate(557.62 725.28)"><tspan x="0" y="0">2016</tspan></text>
  <text class="cls-15" transform="translate(618.13 725.28)"><tspan x="0" y="0">2017</tspan></text>
  <text class="cls-15" transform="translate(678.64 725.28)"><tspan x="0" y="0">2018</tspan></text>
  <text class="cls-15" transform="translate(739.15 725.28)"><tspan x="0" y="0">2019</tspan></text>
  <text class="cls-15" transform="translate(799.66 725.28)"><tspan x="0" y="0">2020</tspan></text>
  <text class="cls-15" transform="translate(860.17 725.28)"><tspan x="0" y="0">2021</tspan></text>
  <text class="cls-15" transform="translate(920.68 725.28)"><tspan x="0" y="0">2022</tspan></text>
  <text class="cls-15" transform="translate(981.19 725.28)"><tspan x="0" y="0">2023</tspan></text>
  <text class="cls-15" transform="translate(116.43 562.89)"><tspan x="0" y="0">2</tspan></text>
  <text class="cls-15" transform="translate(116.43 502.38)"><tspan x="0" y="0">3</tspan></text>
  <text class="cls-15" transform="translate(116.43 441.87)"><tspan x="0" y="0">4</tspan></text>
  <text class="cls-15" transform="translate(116.42 381.36)"><tspan x="0" y="0">5</tspan></text>
  <text class="cls-15" transform="translate(116.42 320.85)"><tspan x="0" y="0">6</tspan></text>
  <text class="cls-15" transform="translate(116.42 275.15)"><tspan x="0" y="0">7</tspan></text>
  <text class="cls-15" transform="translate(116.43 223.7)"><tspan x="0" y="0">8</tspan></text>
  <text class="cls-15" transform="translate(116.43 177.62)"><tspan x="0" y="0">9</tspan></text>
  <text class="cls-15" transform="translate(110.3 131.91)"><tspan x="0" y="0">10</tspan></text>
  <text class="cls-16" transform="translate(58.17 600.94) rotate(-90)"><tspan x="0" y="0">Número aprox de O.O.C.C.</tspan></text>
  <text class="cls-16" transform="translate(479.12 777.98)"><tspan x="0" y="0">Años Revisados</tspan></text>
  <text class="cls-16" transform="translate(369.34 76.73)"><tspan x="0" y="0">Histograma de observaciones ciudadanas</tspan></text>
</svg>