<svg id="Capa_1" data-name="Capa 1" xmlns="http://www.w3.org/2000/svg" viewBox="0 0 594.09 512.18"><defs><style>.cls-1{fill:#d51312;}.cls-2{fill:none;stroke:#000;}.cls-3,.cls-4{isolation:isolate;}.cls-3{font-size:7.53px;}.cls-3,.cls-4,.cls-5,.cls-7{font-family:Swiss721BT-RomanCondensed, Swis721 Cn BT;}.cls-4{font-size:6.57px;}.cls-5,.cls-7{font-size:15.04px;}.cls-6{letter-spacing:-0.02em;}.cls-7{fill:#666;}.cls-8{letter-spacing:-0.03em;}.cls-9{letter-spacing:-0.03em;}</style></defs><rect id="undefined_-_China" data-name="undefined - China" class="cls-1" x="15.9" y="43.69" width="111.31" height="411.36"/><rect id="undefined_-_India" data-name="undefined - India" class="cls-1" x="127.96" y="433.79" width="111.31" height="21.75"/><rect id="undefined_-_Bangladesh" data-name="undefined - Bangladesh" class="cls-1" x="239.95" y="435.84" width="111.31" height="19.34"/><rect id="undefined_-_E.E.UU" data-name="undefined - E.E.UU" class="cls-1" x="351.95" y="442.99" width="111.31" height="12.05"/><rect id="undefined_-_Rest_of_the_World" data-name="undefined - Rest of the World" class="cls-1" x="463.78" y="328.01" width="111.31" height="126.58"/><g id="xAxis"><path class="cls-2" d="M121,494H682" transform="translate(-105.46 -38.6)"/></g><path class="cls-2" d="M116.09,494H121V72.3h-4.89" transform="translate(-105.46 -38.6)"/><line class="cls-2" x1="15.15" y1="455.42" x2="10.63" y2="455.42"/><text class="cls-3" transform="translate(4.19 457.83)">0</text><line class="cls-2" x1="15.15" y1="425.3" x2="10.63" y2="425.3"/><text class="cls-3" transform="translate(4.19 427.71)">5</text><line class="cls-2" x1="15.15" y1="395.18" x2="10.63" y2="395.18"/><text class="cls-3" transform="translate(0 397.59)">10</text><line class="cls-2" x1="15.15" y1="365.05" x2="10.63" y2="365.05"/><text class="cls-3" transform="translate(0 367.46)">15</text><line class="cls-2" x1="15.15" y1="334.93" x2="10.92" y2="334.93"/><text class="cls-3" transform="translate(0.97 337.34) scale(0.94 1)">20</text><line class="cls-2" x1="15.15" y1="304.81" x2="10.63" y2="304.81"/><text class="cls-3" transform="translate(0 307.22)">25</text><line class="cls-2" x1="15.15" y1="274.69" x2="10.63" y2="274.69"/><text class="cls-3" transform="translate(0 277.09)">30</text><line class="cls-2" x1="15.15" y1="244.56" x2="10.63" y2="244.56"/><text class="cls-3" transform="translate(0 246.97)">35</text><line class="cls-2" x1="15.15" y1="214.44" x2="10.63" y2="214.44"/><text class="cls-3" transform="translate(0 216.85)">40</text><line class="cls-2" x1="15.15" y1="184.32" x2="10.63" y2="184.32"/><text class="cls-3" transform="translate(0 186.73)">45</text><line class="cls-2" x1="15.15" y1="154.19" x2="10.63" y2="154.19"/><text class="cls-4" transform="translate(0 156.81) scale(1.15 1)">50</text><line class="cls-2" x1="15.15" y1="124.07" x2="10.63" y2="124.07"/><text class="cls-3" transform="translate(0 126.48)">55</text><line class="cls-2" x1="15.15" y1="93.95" x2="10.63" y2="93.95"/><text class="cls-3" transform="translate(0 96.35)">60</text><line class="cls-2" x1="15.15" y1="63.82" x2="10.63" y2="63.82"/><text class="cls-3" transform="translate(0 66.23)">65</text><line class="cls-2" x1="15.15" y1="33.7" x2="10.63" y2="33.7"/><text class="cls-3" transform="translate(0 36.11)">70</text><text class="cls-5" transform="translate(47.22 472.28)">China</text><text class="cls-5" transform="translate(472.23 473.55)"><tspan class="cls-6">R</tspan><tspan x="8.52" y="0">esto del Mundo</tspan></text><text class="cls-5" transform="translate(163.42 472.06)">India</text><text class="cls-5" transform="translate(254.28 473.55)">Bangladesh</text><text class="cls-5" transform="translate(381.51 472.49)">EE.UU</text><text class="cls-7" transform="translate(538.06 497.89)"><tspan class="cls-8">P</tspan><tspan x="7.5" y="0">aíses</tspan></text><text class="cls-7" transform="translate(0.56 13.17)"><tspan class="cls-9">P</tspan><tspan x="7.5" y="0">orcentaje</tspan></text></svg>