<svg xmlns="http://www.w3.org/2000/svg" xmlns:xlink="http://www.w3.org/1999/xlink" viewBox="0 0 431.07 474.94"><defs><style>.cls-1{fill:none;stroke:#878787;stroke-miterlimit:10;}.cls-2,.cls-3,.cls-4,.cls-5,.cls-7{opacity:0.86;}.cls-2{fill:url(#Degradado_sin_nombre_18);}.cls-3{fill:url(#Degradado_sin_nombre_18-2);}.cls-4{fill:url(#Degradado_sin_nombre_18-3);}.cls-5{fill:url(#Degradado_sin_nombre_18-4);}.cls-6,.cls-9{font-size:11px;}.cls-10,.cls-6,.cls-8,.cls-9{font-family:Swiss721BT-RomanCondensed, Swis721 Cn BT;}.cls-7{fill:url(#Degradado_sin_nombre_18-5);}.cls-8{font-size:12px;}.cls-8,.cls-9{fill:#575756;}.cls-10{font-size:18px;}.cls-11{letter-spacing:-0.02em;}</style><linearGradient id="Degradado_sin_nombre_18" x1="65.52" y1="447.47" x2="65.52" y2="262.08" gradientUnits="userSpaceOnUse"><stop offset="0" stop-color="#f9b233"/><stop offset="1" stop-color="#009fe3"/></linearGradient><linearGradient id="Degradado_sin_nombre_18-2" x1="135.55" y1="447.47" x2="135.55" y2="329.87" xlink:href="#Degradado_sin_nombre_18"/><linearGradient id="Degradado_sin_nombre_18-3" x1="204.99" y1="447.47" x2="204.99" y2="194.29" xlink:href="#Degradado_sin_nombre_18"/><linearGradient id="Degradado_sin_nombre_18-4" x1="275.18" y1="447.47" x2="275.18" y2="78.26" xlink:href="#Degradado_sin_nombre_18"/><linearGradient id="Degradado_sin_nombre_18-5" x1="345.29" y1="447.47" x2="345.29" y2="405.63" xlink:href="#Degradado_sin_nombre_18"/></defs><g id="Capa_2" data-name="Capa 2"><polyline class="cls-1" points="30.31 65.88 30.31 447.47 380.5 447.47"/><rect class="cls-2" x="30.31" y="262.08" width="70.42" height="185.39"/><rect class="cls-3" x="100.34" y="329.87" width="70.42" height="117.61"/><rect class="cls-4" x="169.78" y="194.29" width="70.42" height="253.18"/><rect class="cls-5" x="239.97" y="78.26" width="70.42" height="369.22"/><text class="cls-6" transform="translate(311.81 401.78)">29.125.939</text><text class="cls-6" transform="translate(104.73 324.08)">58.179.593</text><text class="cls-6" transform="translate(33.92 259.45)">82.350.349</text><text class="cls-6" transform="translate(170.35 189.45)">109.882.190</text><text class="cls-6" transform="translate(240.54 75.22) scale(0.95 1)">149.103.139</text><rect class="cls-7" x="310.08" y="405.63" width="70.42" height="41.84"/><line class="cls-1" x1="98.52" y1="457.1" x2="98.52" y2="446.94"/><line class="cls-1" x1="172.55" y1="457.1" x2="172.55" y2="446.94"/><line class="cls-1" x1="237.99" y1="457.06" x2="237.99" y2="446.9"/><line class="cls-1" x1="308.11" y1="457.06" x2="308.11" y2="446.9"/><line class="cls-1" x1="378.85" y1="457.06" x2="378.85" y2="446.9"/><text class="cls-6" transform="translate(49 467.93)">2019</text><text class="cls-6" transform="translate(114.51 468.44)">2020</text><text class="cls-6" transform="translate(197.62 468.36)">2021</text><text class="cls-6" transform="translate(270.13 468.86)">2022</text><text class="cls-6" transform="translate(339.32 468.86)">2023</text><text class="cls-8" transform="translate(385.08 469.22)">AÑOS</text><text class="cls-8" transform="translate(4.51 53.97)">US($)</text><text class="cls-9" transform="translate(0 199.19)">100</text><text class="cls-9" transform="translate(0.36 77.56)">150</text><text class="cls-9" transform="translate(7.09 336.42)">50</text><line class="cls-1" x1="30.31" y1="73.67" x2="22.76" y2="73.67"/><line class="cls-1" x1="30.48" y1="195.29" x2="21.54" y2="195.29"/><line class="cls-1" x1="30.31" y1="332.87" x2="22.49" y2="332.87"/><text class="cls-10" transform="translate(1.13 15.77)"><tspan class="cls-11">R</tspan><tspan x="10.2" y="0" xml:space="preserve">opa usada ingresada a Zona  </tspan><tspan class="cls-11" x="210.97" y="0">F</tspan><tspan x="218.43" y="0">ranca entre 2019-2023</tspan></text></g></svg>