<?xml version="1.0" encoding="utf-8"?>
<!-- Generator: Adobe Illustrator 22.0.1, SVG Export Plug-In . SVG Version: 6.00 Build 0)  -->
<svg version="1.1" id="Capa_1" xmlns="http://www.w3.org/2000/svg" xmlns:xlink="http://www.w3.org/1999/xlink" x="0px" y="0px"
	 viewBox="0 0 696 899.3" style="enable-background:new 0 0 696 899.3;" xml:space="preserve">
<style type="text/css">
	.st0{fill:#6D0202;}
	.st1{fill:#8D0606;}
	.st2{fill:#B00D0E;}
	.st3{fill:#D51312;}
	.st4{fill:#D55912;}
	.st5{fill:#E89514;}
	.st6{fill:#F9B53A;}
	.st7{fill:#FDD570;}
	.st8{fill:#FFFFCF;}
	.st9{fill:#FFFFFF;}
	.st10{font-family:'ArialMT';}
	.st11{font-size:18px;}
	.st12{letter-spacing:-1;}
	.st13{enable-background:new    ;}
</style>
<rect id="path0" class="st0" width="696" height="415.3"/>
<rect id="path1" y="417.3" class="st1" width="696" height="84"/>
<rect id="path2" y="503.3" class="st2" width="696" height="71"/>
<rect id="path3" y="576.3" class="st3" width="696" height="64"/>
<rect id="path4" y="642.3" class="st3" width="696" height="61"/>
<rect id="path5" y="705.3" class="st4" width="696" height="42"/>
<rect id="path6" y="749.3" class="st5" width="696" height="40"/>
<rect id="path7" y="791.3" class="st6" width="696" height="37"/>
<rect id="path8" y="829.8" class="st7" width="696" height="35"/>
<rect id="path9" y="867.3" class="st8" width="696" height="32"/>
<text transform="matrix(1 0 0 1 15.89 463.03)" class="st9 st10 st11">Bangladesh</text>
<text transform="matrix(1 0 0 1 15.89 546.3295)" class="st9 st10 st11">Vietnam</text>
<text transform="matrix(1 0 0 1 19.56 615.02)" class="st9 st10 st11">Italia</text>
<text transform="matrix(1 0 0 1 19.56 681.4818)" class="st9 st10 st11">Alemania</text>
<text transform="matrix(1 0 0 1 17.73 732.92)" class="st10 st11">India</text>
<text transform="matrix(1 0 0 1 15.89 775.83)" class="st10 st11 st12">T</text>
<text transform="matrix(1 0 0 1 23.24 775.83)" class="st10 st11">urquía</text>
<text transform="matrix(1 0 0 1 16.29 814.83)" class="st10 st11">España</text>
<text transform="matrix(1 0 0 1 14.69 853.9)" class="st13"><tspan x="0" y="0" class="st10 st11">Hong Kong</tspan><tspan x="90.1" y="0" class="st9 st10 st11"> </tspan></text>
<text transform="matrix(1 0 0 1 16.29 889.71)" class="st10 st11">Francia</text>
<text transform="matrix(1 0 0 1 17.71 35.74)" class="st9 st10 st11">China</text>
</svg>
