<svg xmlns="http://www.w3.org/2000/svg" viewBox="0 0 731.35 307.82"><defs><style>.cls-1{opacity:0.93;}.cls-2{fill:none;stroke:#1d1d1b;stroke-miterlimit:10;stroke-width:0.5px;}.cls-3{fill:#f9b233;opacity:0.77;}.cls-4{fill:#36a9e1;opacity:0.68;}.cls-5{font-size:12px;}.cls-5,.cls-7{font-family:Swiss721BT-RomanCondensed, Swis721 Cn BT;}.cls-6{letter-spacing:-0.02em;}.cls-7{font-size:18px;}.cls-8{letter-spacing:0.07em;}</style></defs><g id="Capa_1" data-name="Capa 1"><g class="cls-1"><path class="cls-2" d="M110.63,315.36q1.26-8.52,2.51-17a15.26,15.26,0,0,1,3-4.16,15.1,15.1,0,0,1,3.72-2.74A9.06,9.06,0,0,0,133,282.28a32.17,32.17,0,0,1,4.64-1.94,31.47,31.47,0,0,1,4.7-1.17l16.22,8.26q-1.94,5.4-3.88,10.78l-7.31-1.59,22,24.22-23.71,18L124.4,309q-1.16,4.27-2.29,8.53Z" transform="translate(-30.33 -150.97)"/><line class="cls-2" x1="113.53" y1="185.23" x2="137.42" y2="168.03"/><line class="cls-2" x1="80.93" y1="162.29" x2="92.2" y2="164.17"/><line class="cls-2" x1="126.47" y1="135.55" x2="122.55" y2="146.84"/></g><path class="cls-2" d="M201.64,335.64,220.79,342q18.53-51,22-50t-8.68,56.17l17.32,4.09,12.3-77.37-27.09-9.14-1,2Q218.62,301.71,201.64,335.64Z" transform="translate(-30.33 -150.97)"/><line class="cls-2" x1="233.36" y1="127.73" x2="205.25" y2="116.8"/><path class="cls-2" d="M232,274.88s7,1.47,9.25-4.89" transform="translate(-30.33 -150.97)"/><path class="cls-2" d="M257,276.12s-1.06,5.17,5,9.37" transform="translate(-30.33 -150.97)"/><line class="cls-2" x1="212.42" y1="141.01" x2="217.42" y2="121.53"/><path class="cls-2" d="M299.19,365.61l8.57-4.93q-12.64-23.4-11.16-24.33t17.72,21.47l7.14-5-24.3-29.69L285,330.05l.41,1Q292.31,348.36,299.19,365.61Z" transform="translate(-30.33 -150.97)"/><line class="cls-2" x1="268.24" y1="173.39" x2="255.09" y2="180.12"/><path class="cls-2" d="M286.85,334.7s2.83-2.08,1.23-5" transform="translate(-30.33 -150.97)"/><path class="cls-2" d="M295.45,326s1.55,2.07,5.05,1.23" transform="translate(-30.33 -150.97)"/><line class="cls-2" x1="266.28" y1="185.38" x2="260.78" y2="177.21"/><g class="cls-1"><path class="cls-2" d="M305.47,282.49l8.16.66a7.29,7.29,0,0,1,3.48,3,4.31,4.31,0,0,0,4.75,6,14.67,14.67,0,0,1,1.07,2.14,14,14,0,0,1,.7,2.19q-1.69,4-3.41,7.95l-5.24-1.5c.18-1.17.36-2.35.53-3.52l-10.8,11.21-9.26-10.68,13.48-11.05-4.12-.82Z" transform="translate(-30.33 -150.97)"/><line class="cls-2" x1="266.3" y1="147.93" x2="275.2" y2="158.73"/><line class="cls-2" x1="276.16" y1="131.75" x2="275.62" y2="137.15"/><line class="cls-2" x1="290.27" y1="152.51" x2="284.79" y2="151.01"/></g><path class="cls-2" d="M198.52,280.18l7.78-4.89q-12.59-21.27-11.25-22.2t17.24,19.3l6.45-4.91-23.65-26.7-11,6.89.42,1Q191.49,264.4,198.52,280.18Z" transform="translate(-30.33 -150.97)"/><line class="cls-2" x1="166.11" y1="90.92" x2="154.14" y2="97.64"/><path class="cls-2" d="M185.94,251.92s2.54-2,1-4.67" transform="translate(-30.33 -150.97)"/><path class="cls-2" d="M193.61,243.48s1.51,1.87,4.73,1" transform="translate(-30.33 -150.97)"/><line class="cls-2" x1="164.73" y1="102.12" x2="159.32" y2="94.73"/><g class="cls-1"><path class="cls-2" d="M56.18,369.52q1.57-5.07,3.17-10.15a9.43,9.43,0,0,1,2.2-2.25,9.55,9.55,0,0,1,2.54-1.32A5.58,5.58,0,0,0,73,351.49a19.93,19.93,0,0,1,6-1l9.11,6.6c-1.14,2.06-2.27,4.13-3.41,6.2l-4.3-1.68L91.51,378.5l-16.18,8.68L65.19,367l-2.22,5Z" transform="translate(-30.33 -150.97)"/><line class="cls-2" x1="44.12" y1="234.45" x2="60.34" y2="226.25"/><line class="cls-2" x1="26.44" y1="217.33" x2="33.13" y2="219.55"/><line class="cls-2" x1="56.78" y1="205.39" x2="53.3" y2="211.9"/></g><path class="cls-2" d="M117.12,391l11.07,5.73q16.19-29.34,18.19-28.41T135.7,401.7l10.17,4.16,14.92-46-15.64-8.17-.82,1.15Z" transform="translate(-30.33 -150.97)"/><line class="cls-2" x1="130.1" y1="211.22" x2="114.01" y2="201.86"/><path class="cls-2" d="M141.49,356.82s4.13,1.57,6.11-2.09" transform="translate(-30.33 -150.97)"/><path class="cls-2" d="M156.62,360s-1.15,3.06,2.13,6.19" transform="translate(-30.33 -150.97)"/><line class="cls-2" x1="116.06" y1="217.31" x2="120.97" y2="205.91"/><path class="cls-2" d="M183.31,410.6l5.7-2.19q-5.46-15.48-4.47-15.91t8.75,14.8l4.83-2.37-12-20.44-8.08,3.06.15.67Q180.77,399.41,183.31,410.6Z" transform="translate(-30.33 -150.97)"/><line class="cls-2" x1="156.56" y1="234.41" x2="147.9" y2="237.25"/><path class="cls-2" d="M178.75,390.56a2.42,2.42,0,0,0,1.23-2.91" transform="translate(-30.33 -150.97)"/><path class="cls-2" d="M184.84,386.06a2.92,2.92,0,0,0,2.95,1.23" transform="translate(-30.33 -150.97)"/><line class="cls-2" x1="154.21" y1="241.53" x2="151.65" y2="236.02"/><g class="cls-1"><path class="cls-2" d="M200.41,363l4.92,1.19a4.5,4.5,0,0,1,1.13,1,4.75,4.75,0,0,1,.71,1.16,2.66,2.66,0,0,0,2.32,4.1,9.81,9.81,0,0,1,.45,1.41,9.17,9.17,0,0,1,.21,1.4l-2.84,4.53-3.05-1.42.66-2.1-7.66,5.8-4.63-7.4,9.28-5.44-2.43-.9Z" transform="translate(-30.33 -150.97)"/><line class="cls-2" x1="163.11" y1="221.14" x2="167.51" y2="228.58"/><line class="cls-2" x1="170.68" y1="212.22" x2="169.83" y2="215.46"/><line class="cls-2" x1="177.3" y1="226.24" x2="174.1" y2="224.79"/></g><path class="cls-2" d="M108.6,372.08l5.22-2.23q-5.64-14.19-4.73-14.62t8.66,13.43l4.4-2.38-11.86-18.55-7.4,3.13.17.62Q105.84,361.79,108.6,372.08Z" transform="translate(-30.33 -150.97)"/><line class="cls-2" x1="80.68" y1="197.56" x2="72.73" y2="200.51"/><path class="cls-2" d="M103.64,353.64a2.25,2.25,0,0,0,1-2.75" transform="translate(-30.33 -150.97)"/><path class="cls-2" d="M109.13,349.23a2.71,2.71,0,0,0,2.79,1" transform="translate(-30.33 -150.97)"/><line class="cls-2" x1="78.76" y1="204.26" x2="76.17" y2="199.23"/><g class="cls-1"><path class="cls-2" d="M287.66,408.5l-2.61-9.36a8.82,8.82,0,0,1,.57-2.83,9.1,9.1,0,0,1,1.29-2.27,5.1,5.1,0,0,0,4.7-7.74,19,19,0,0,1,1.95-2.07,18.31,18.31,0,0,1,2.16-1.68l10.26.54c.16,2.15.31,4.3.47,6.45l-4.14.85,16.93,7.44-8.11,14.7L293.3,402.05l.78,4.92Z" transform="translate(-30.33 -150.97)"/><line class="cls-2" x1="279.26" y1="260.65" x2="287.63" y2="246.29"/><line class="cls-2" x1="257.18" y1="256.3" x2="263.42" y2="254.68"/><line class="cls-2" x1="274.52" y1="232.06" x2="275.09" y2="238.78"/></g><path class="cls-2" d="M345.08,394.65l11.34-1.1q-2.16-30.57-.16-30.85t8.41,31l9.87-1.87-11.42-42.71-16.06,1.5-.06,1.29Z" transform="translate(-30.33 -150.97)"/><line class="cls-2" x1="333.68" y1="200.08" x2="316.67" y2="200.9"/><path class="cls-2" d="M346.8,356.35s3.95-.86,3.65-4.65" transform="translate(-30.33 -150.97)"/><path class="cls-2" d="M360,351.25s.64,2.91,4.71,3.69" transform="translate(-30.33 -150.97)"/><line class="cls-2" x1="325.93" y1="211.73" x2="324.04" y2="200.54"/><path class="cls-2" d="M394.13,386l3.29-4.5q-11.88-9.16-11.33-10t14.06,7l2.53-4.22-19.34-9.73-4.68,6.37.45.44Z" transform="translate(-30.33 -150.97)"/><line class="cls-2" x1="354.02" y1="213.87" x2="348.78" y2="220.36"/><path class="cls-2" d="M380.68,372.86a2.22,2.22,0,0,0-.51-2.85" transform="translate(-30.33 -150.97)"/><path class="cls-2" d="M383.11,366.38a2.69,2.69,0,0,0,2.88-.52" transform="translate(-30.33 -150.97)"/><line class="cls-2" x1="355.76" y1="220.5" x2="351.05" y2="217.55"/><g class="cls-1"><path class="cls-2" d="M378.29,341.66l4.36-1.53a4.15,4.15,0,0,1,1.36.18,4.5,4.5,0,0,1,1.12.54,2.42,2.42,0,0,0,3.82,2,10,10,0,0,1,1,.86,7.9,7.9,0,0,1,.86,1l.07,4.89-3,.42-.54-1.93-3,8.26-7.23-3.39,4.41-8.79-2.31.53Z" transform="translate(-30.33 -150.97)"/><line class="cls-2" x1="347.17" y1="201.19" x2="354.24" y2="204.71"/><line class="cls-2" x1="348.54" y1="190.58" x2="349.51" y2="193.49"/><line class="cls-2" x1="360.59" y1="198.04" x2="357.42" y2="198.53"/></g><path class="cls-2" d="M263.34,401.08l2.9-4.31q-11.39-8.07-10.9-8.86t13.32,6l2.2-4-18.32-8.34-4.12,6.09.44.39Z" transform="translate(-30.33 -150.97)"/><line class="cls-2" x1="223.16" y1="230.84" x2="218.53" y2="237.05"/><path class="cls-2" d="M250.37,389.39a2.06,2.06,0,0,0-.58-2.62" transform="translate(-30.33 -150.97)"/><path class="cls-2" d="M252.39,383.28a2.5,2.5,0,0,0,2.66-.58" transform="translate(-30.33 -150.97)"/><line class="cls-2" x1="225.01" y1="236.93" x2="220.53" y2="234.36"/><path class="cls-3" d="M439,430.49c0-121.94-91.48-220.79-204.33-220.79S30.33,308.55,30.33,430.49Z" transform="translate(-30.33 -150.97)"/><path class="cls-4" d="M602.44,430.49c0-56.73-42.56-102.72-95.07-102.72s-95.06,46-95.06,102.72Z" transform="translate(-30.33 -150.97)"/><path class="cls-4" d="M654.58,430.49c0-18.26-13.7-33.06-30.6-33.06s-30.59,14.8-30.59,33.06Z" transform="translate(-30.33 -150.97)"/><path class="cls-4" d="M706.44,430.49c0-18.26-13.7-33.06-30.6-33.06s-30.59,14.8-30.59,33.06Z" transform="translate(-30.33 -150.97)"/><path class="cls-4" d="M759.43,430.49c0-18.26-13.7-33.06-30.6-33.06s-30.6,14.8-30.6,33.06Z" transform="translate(-30.33 -150.97)"/><text class="cls-5" transform="translate(7.53 291.35) scale(0.93 1)">China</text><text class="cls-5" transform="translate(381.11 291.35) scale(0.93 1)"><tspan class="cls-6">R</tspan><tspan x="6.8" y="0">esto del mundo</tspan></text><text class="cls-5" transform="translate(615.92 294.67) scale(0.93 1)">Bangladesh</text><text class="cls-5" transform="translate(568.04 293.94) scale(0.93 1)">India</text><text class="cls-5" transform="translate(674.84 295.16) scale(0.93 1)">EE.UU</text><text class="cls-5" transform="translate(463.31 198.18)">21.01%</text><text class="cls-5" transform="translate(192.77 74.59)">68.28%</text><text class="cls-5" transform="translate(579.58 261.43)">3.61%</text><text class="cls-5" transform="translate(629.98 261.85)">3.21%</text><text class="cls-5" transform="translate(687.03 261.13)">2,9%</text><text class="cls-7" transform="translate(247.44 15.77) scale(0.93 1)">Impo<tspan class="cls-8" x="34.65" y="0">r</tspan><tspan x="41.22" y="0">taciones textiles en Chile 2020</tspan></text></g></svg>