<svg id="Capa_1" data-name="Capa 1" xmlns="http://www.w3.org/2000/svg" xmlns:xlink="http://www.w3.org/1999/xlink" viewBox="0 0 748.04 450.9"><defs><style>.cls-1{fill:url(#Degradado_sin_nombre_37);}.cls-2{fill:url(#Degradado_sin_nombre_37-2);}.cls-3{fill:url(#Degradado_sin_nombre_37-3);}.cls-4{fill:url(#Degradado_sin_nombre_37-4);}.cls-5{fill:url(#Degradado_sin_nombre_37-5);}.cls-6{fill:url(#Degradado_sin_nombre_37-6);}.cls-7{fill:url(#Degradado_sin_nombre_37-7);}.cls-8{fill:url(#Degradado_sin_nombre_37-8);}.cls-9{fill:url(#Degradado_sin_nombre_37-9);}.cls-10{fill:url(#Degradado_sin_nombre_37-10);}.cls-11,.cls-15,.cls-20{font-size:12px;}.cls-11,.cls-16,.cls-20{font-family:Swiss721BT-RomanCondensed, Swis721 Cn BT;}.cls-12{letter-spacing:0.02em;}.cls-13{letter-spacing:-0.08em;}.cls-14{letter-spacing:-0.02em;}.cls-15{font-family:MyriadPro-Regular, Myriad Pro;}.cls-16{font-size:24px;fill:#1d1d1b;}.cls-17{letter-spacing:-0.09em;}.cls-18{letter-spacing:-0.03em;}.cls-19{letter-spacing:0.07em;}.cls-20{fill:#706f6f;}.cls-21{fill:none;}.cls-21,.cls-22{stroke:#878787;stroke-miterlimit:10;}.cls-22{fill:#878787;}</style><linearGradient id="Degradado_sin_nombre_37" x1="168.4" y1="13.77" x2="597.15" y2="13.77" gradientTransform="translate(88.55 699.1) rotate(-90)" gradientUnits="userSpaceOnUse"><stop offset="0" stop-color="#f9b233"/><stop offset="1" stop-color="#36a9e1"/></linearGradient><linearGradient id="Degradado_sin_nombre_37-2" x1="168.4" y1="78.09" x2="280.42" y2="78.09" xlink:href="#Degradado_sin_nombre_37"/><linearGradient id="Degradado_sin_nombre_37-3" x1="168.4" y1="143.37" x2="266.35" y2="143.37" xlink:href="#Degradado_sin_nombre_37"/><linearGradient id="Degradado_sin_nombre_37-4" x1="168.4" y1="213.19" x2="252.29" y2="213.19" xlink:href="#Degradado_sin_nombre_37"/><linearGradient id="Degradado_sin_nombre_37-5" x1="168.4" y1="285.92" x2="248.47" y2="285.92" xlink:href="#Degradado_sin_nombre_37"/><linearGradient id="Degradado_sin_nombre_37-6" x1="168.4" y1="354.35" x2="220.68" y2="354.35" xlink:href="#Degradado_sin_nombre_37"/><linearGradient id="Degradado_sin_nombre_37-7" x1="168.4" y1="418.17" x2="216.13" y2="418.17" xlink:href="#Degradado_sin_nombre_37"/><linearGradient id="Degradado_sin_nombre_37-8" x1="168.4" y1="481.99" x2="212.39" y2="481.99" xlink:href="#Degradado_sin_nombre_37"/><linearGradient id="Degradado_sin_nombre_37-9" x1="168.4" y1="546.31" x2="206.83" y2="546.31" xlink:href="#Degradado_sin_nombre_37"/><linearGradient id="Degradado_sin_nombre_37-10" x1="168.4" y1="610.12" x2="201.5" y2="610.12" xlink:href="#Degradado_sin_nombre_37"/></defs><path class="cls-1" d="M134.48,102V530.7H70.16Q82.22,326.9,94.27,123.08Z" transform="translate(-23.98 -79.81)"/><path class="cls-2" d="M198.8,418.68v112H134.48l26.58-102.38Z" transform="translate(-23.98 -79.81)"/><path class="cls-3" d="M267.11,432.75v98H196.72l29.61-88.36Z" transform="translate(-23.98 -79.81)"/><path class="cls-4" d="M340.93,446.81V530.7H262.55l43.31-76.48Z" transform="translate(-23.98 -79.81)"/><path class="cls-5" d="M410.74,450.63V530.7H338.2l33.6-72.47Z" transform="translate(-23.98 -79.81)"/><path class="cls-6" d="M475.06,478.42V530.7H410.74q12.7-22.62,25.4-45.25Z" transform="translate(-23.98 -79.81)"/><path class="cls-7" d="M538.88,483V530.7H474.56l25.5-40.09Z" transform="translate(-23.98 -79.81)"/><path class="cls-8" d="M602.7,486.71v44H538.38l24.31-34.59Z" transform="translate(-23.98 -79.81)"/><path class="cls-9" d="M667,492.27V530.7H602.7l26-28.82Z" transform="translate(-23.98 -79.81)"/><path class="cls-10" d="M730.83,497.6v33.1H666.51l23.13-24.42Z" transform="translate(-23.98 -79.81)"/><text class="cls-11" transform="translate(132.5 290.8)">Bangladesh</text><text class="cls-11" transform="translate(65.18 10.51)">China</text><text class="cls-11" transform="translate(203.55 312.23)">Vietnam</text><text class="cls-11" transform="translate(279.82 330.84)">Italia</text><text class="cls-11" transform="translate(335.56 338.87)">Ge<tspan class="cls-12" x="12.39" y="0">r</tspan><tspan x="16.11" y="0">mania</tspan></text><text class="cls-11" transform="translate(413.92 373.61)">India</text><text class="cls-11" transform="translate(469.75 380.17)"><tspan class="cls-13">T</tspan><tspan x="4.9" y="0">urquía</tspan></text><text class="cls-11" transform="translate(531.39 384.57)">España</text><text class="cls-11" transform="translate(594.31 379.17)">Hong <tspan class="cls-14" x="27.16" y="0">K</tspan><tspan x="33.45" y="0">ong, </tspan><tspan x="0" y="14.4">China</tspan></text><text class="cls-11" transform="translate(665.66 397.23)"><tspan class="cls-14">F</tspan><tspan x="4.97" y="0">rancia</tspan></text><text class="cls-15" transform="translate(407.81 114.38)"> <tspan class="cls-16"><tspan class="cls-17" x="0" y="28.8">T</tspan><tspan x="9.46" y="28.8">op 10 </tspan><tspan class="cls-18" x="68.33" y="28.8">P</tspan><tspan x="80.31" y="28.8">aíses </tspan><tspan x="0" y="57.6">expo</tspan><tspan class="cls-19" x="43.24" y="57.6">r</tspan><tspan x="52" y="57.6">tadores de </tspan><tspan class="cls-14" x="153.75" y="57.6">R</tspan><tspan x="167.34" y="57.6">opa (billones)</tspan></tspan></text><text class="cls-11" transform="translate(65.18 23.64)">$158 </text><text class="cls-11" transform="translate(133.3 303.11)">$33 </text><text class="cls-11" transform="translate(203.59 324.91)">$28 </text><text class="cls-11" transform="translate(277.76 342.66)">$25 </text><text class="cls-11" transform="translate(335.8 350.68)">$24 </text><text class="cls-11" transform="translate(414.73 386.25)">$17 </text><text class="cls-11" transform="translate(469.92 394.07)">$16</text><text class="cls-11" transform="translate(532.16 398)">$15 </text><text class="cls-11" transform="translate(594.93 405.36)">$14 </text><text class="cls-11" transform="translate(666.46 409.81)">$13 </text><text class="cls-20" transform="translate(1.44 373.39)">20</text><text class="cls-20" transform="translate(0 263.48)">50</text><text class="cls-20" transform="translate(0 163.78)">100</text><text class="cls-20" transform="translate(0 68.91)">150</text><line class="cls-21" x1="46.18" y1="19.74" x2="46.18" y2="450.9"/><line class="cls-22" x1="46.73" y1="367.14" x2="31.45" y2="367.14"/><line class="cls-22" x1="46.82" y1="262.03" x2="31.54" y2="262.03"/><line class="cls-22" x1="45.82" y1="161.46" x2="30.54" y2="161.46"/><line class="cls-22" x1="46.82" y1="63.95" x2="31.54" y2="63.95"/></svg>