<svg id="Capa_1" data-name="Capa 1" xmlns="http://www.w3.org/2000/svg" viewBox="0 0 571.36 479.83"><defs><style>.cls-1,.cls-10,.cls-3{fill:none;}.cls-1{stroke:#1d1d1b;}.cls-1,.cls-10,.cls-2,.cls-3,.cls-6{stroke-miterlimit:10;}.cls-12,.cls-13,.cls-2{fill:#878787;}.cls-2,.cls-3{stroke:#c6c6c6;opacity:0.74;}.cls-13,.cls-4{font-size:12px;}.cls-4,.cls-5,.cls-6{fill:#9d9d9c;}.cls-12,.cls-13,.cls-4,.cls-5,.cls-7,.cls-9{font-family:Swiss721BT-RomanCondensed, Swis721 Cn BT;}.cls-12,.cls-5,.cls-9{font-size:11px;}.cls-6{stroke:#878787;}.cls-7{font-size:18px;}.cls-8{letter-spacing:-0.02em;}.cls-10{stroke:#b00d0e;}.cls-11{fill:#d51312;}</style></defs><polyline class="cls-1" points="37.67 82.67 37.67 434.41 534.73 434.41"/><line class="cls-2" x1="37.67" y1="387.35" x2="534.73" y2="387.35"/><line class="cls-3" x1="36.33" y1="328.58" x2="531.77" y2="328.58"/><line class="cls-3" x1="37.67" y1="262.67" x2="534.73" y2="262.67"/><line class="cls-3" x1="37.67" y1="214.24" x2="531.77" y2="214.24"/><line class="cls-3" x1="37.67" y1="100" x2="534.73" y2="99.83"/><text class="cls-4" transform="translate(0 70.86)">US($)</text><text class="cls-5" transform="translate(5.85 221.46)">100</text><text class="cls-5" transform="translate(6.21 99.84)">150</text><text class="cls-5" transform="translate(12.94 351.69)">50</text><line class="cls-6" x1="36.16" y1="95.94" x2="28.61" y2="95.94"/><line class="cls-6" x1="36.33" y1="217.56" x2="27.39" y2="217.56"/><line class="cls-6" x1="36.16" y1="348.14" x2="28.34" y2="348.14"/><text class="cls-7" transform="translate(0.82 15.77)"><tspan class="cls-8">R</tspan><tspan x="10.2" y="0">opa usada ingresada a Zona </tspan><tspan class="cls-8" x="206.49" y="0">F</tspan><tspan x="213.95" y="0">ranca entre 2019-2023</tspan></text><text class="cls-9" transform="translate(498.09 374.12)">29.125.939</text><text class="cls-9" transform="translate(185.76 346.31)">58.179.593</text><text class="cls-9" transform="translate(79.89 252.13)">82.350.349</text><text class="cls-9" transform="translate(279.53 232.21)">109.882.190</text><text class="cls-9" transform="translate(385.11 90.95) scale(0.95 1)">149.103.139</text><path class="cls-10" d="M148,338.35l41.71-10.71L301.19,395q48.46-57.89,96.92-115.76l100.61-114.4Q550.8,308.55,602.87,452.32" transform="translate(-110.32 -64.97)"/><ellipse class="cls-11" cx="78.87" cy="262.67" rx="4.09" ry="4.22"/><ellipse class="cls-11" cx="189.85" cy="328.58" rx="4.09" ry="4.22"/><ellipse class="cls-11" cx="286.2" cy="214.29" rx="4.09" ry="4.22"/><ellipse class="cls-11" cx="388.4" cy="99.83" rx="4.09" ry="4.22"/><ellipse class="cls-11" cx="492.55" cy="387.35" rx="4.09" ry="4.22"/><text class="cls-12" transform="translate(71.44 450.16)">2019</text><text class="cls-12" transform="translate(179.31 450.71)">2020</text><text class="cls-12" transform="translate(279 450.16)">2021</text><text class="cls-12" transform="translate(374.84 451.59)">2022</text><text class="cls-12" transform="translate(479 453.82)">2023</text><text class="cls-13" transform="translate(506.11 474.1)">AÑOS</text></svg>