<svg id="Capa_1" data-name="Capa 1" xmlns="http://www.w3.org/2000/svg" viewBox="0 0 732.24 394.02"><defs><style>.cls-1{fill:#b0b0b0;}.cls-2{fill:#b1b1b1;}.cls-3{fill:#b3b3b3;}.cls-4{fill:#3c3c3b;}.cls-5{fill:#b6b6b6;}.cls-6{fill:#b2b2b2;}.cls-7{fill:#b5b5b5;}.cls-8{fill:#cfcfcf;}.cls-9{fill:#cacaca;}.cls-10{fill:#b7b7b7;}.cls-11{fill:#b4b4b4;}.cls-12{fill:silver;}.cls-13{fill:#b8b8b8;}.cls-14{fill:#d2d2d2;}.cls-15{fill:#bcbcbc;}.cls-16{fill:#b9b9b9;}.cls-17{fill:#d5d5d5;}.cls-18{fill:#bbb;}.cls-19{fill:#bababa;}.cls-20{fill:#bebebe;}.cls-21{fill:#c6c6c6;}.cls-22{fill:#fefefe;}.cls-23{fill:#fdfdfd;}.cls-24{fill:#f9f9f9;}.cls-25{fill:#cbcbcb;}.cls-26{fill:#fcfcfc;}.cls-27{fill:#eaeaea;}.cls-28{fill:#f5f5f5;}.cls-29{fill:#ededed;}.cls-30{fill:#fbfbfb;}.cls-31{fill:#f7f7f7;}.cls-32{fill:#dfdfdf;}.cls-33{fill:#575756;}.cls-34{fill:none;stroke:#f9b233;stroke-miterlimit:10;}.cls-35{fill:#f9b233;}</style></defs><path class="cls-1" d="M691.61,141c3.8,0,7.7-.45,11.38.24A143.14,143.14,0,0,1,728.54,148a12.26,12.26,0,0,0,4,.64c3,.16,5.91.6,8.39,2.37.77.55,3.84.64,1.07,2.78,0,0,1.14,1.65,2,2.85a17,17,0,0,1-8.35-1.94,11.51,11.51,0,0,0-6.5-1.31c-.57.07-1.89-1.28-1.69.82.09.92-1.11,1.73.44,2.74,1.82,1.17,3.65,2.29,5.56,3.29.5.27,1.05.59.92,1.27s-.84.55-1.37.53c-3.78-.19-7.23,1.64-8.28,5.34-.59,2.08-1.1,1.69-2.28.95-1.9-1.21-3.45-1.52-5.46.27-1,.92-3.23.52-5.3.76,1.56,1.37.37,4.21,2,4.73,2.64.87,3.85,3.27,6.08,4.42,1.09.55,1,.56.24,2-.65,1.3.59,1.64,1.33,2.31.91.81,3.3,2-.14,2.66-.79.16-.78.74-.49,1.3,2.1,4.1.78,8-.74,12.3-.85-7.78-7.84-10.21-11.69-15.11a18.82,18.82,0,0,1-4.09-7.61c-.09-.4-.63-.87-.07-1.12,2.88-1.33,1.71-4.23,2.39-6.35,1.2-3.79,1-3.86-1.89-7.16-1.48,1,1,1.54.22,2.78-1.57,2.46-3,3-4.9.69a4.53,4.53,0,0,0-5.42-1.34c-1.67.58-1.06,2.79-1.4,4.23-.48,2.12,2.26,1.44,3.29,3.45-3.08-.65-5.7,2.64-8.65-.78a3.79,3.79,0,0,0-4.61-.19c-1.78,1.14-4.41.9-6.58.23-3.91-1.21-5.76-.17-6.87,3.93a23.46,23.46,0,0,1-2.43,6.61c-1.46,2.24-1.35,3.13,1.35,3.46a12.11,12.11,0,0,1,2.28.81c0-1.36-1.15-1.48-2.07-1.85,1.31-1.08,2.19-1.23,2.94.52.56,1.29.37,4.19,3.37,1.54,1.44-1.27,3.42,1,5.15,1.74.84.34,1.4,1.68,2.64.63s-.77-1.69-.19-2.67c4.11,2.19,5.53,6.81,8.94,9.56a12.87,12.87,0,0,1,3.12,3.08c.55.94,3.31,1.7.57,3.68-.85.62.4,3.13,1.76,4.36s3,2,4.06,3.75c-1,.47-2-1.23-2.86.56-.49,1-1.46-.45-1.7-1.1-1.84-5.08-5.51-9.07-8-13.74-.57-1.05-1.58-2.3-2.55-1.75-1.31.74-.21,2.16.42,2.91,4.39,5.21,2.69,11,1.82,16.77-.19,1.23-.56,2.43-.76,3.66-.47,2.92-2.19,4.06-5.06,3.68-3.47-.46-5.23,1-4.26,4.16a3.58,3.58,0,0,1-1.15,4.2c-2,1.56-1.22,2.51.23,3.65,3.24,2.54,6.2,5.32,7.43,9.44.37,1.25.59,2.77-.51,3.49a8.62,8.62,0,0,1-4.9,1.88,1.15,1.15,0,0,1-1.13-1.1c.23-2.76-1.67-4.78-2.3-7.12-.51-1.92-1.14-2.38-2.69-2.54s-2.79-.8-2.6-2.48a3.38,3.38,0,0,0-2.77-4c-1.87-.44-3.43.59-4.43,2.33-.2.36-.61.61-1.27,1.24-.29-1.8-1.66-2.95-.7-4.74.46-.86-.28-1.45-1.05-1.85-1-.54-1.28.34-1.88.84-1.71,1.41-1.74,4.18-4.58,4.88-1.23.31.21,1.81,1.07,1.93,1.62.22,2.77.67,3.28,2.39.29,1,1.12,1.14,1.81.29a2.23,2.23,0,0,1,3.29-.59c1.1.75,3.12-.23,3.49,1.5.42,2-2,.91-2.61,2-.8,1.36-2,2.59-2.45,4-.58,2,1.75,2,2.65,3,2.24,2.51,3.65,5.69,6.42,7.82a1.49,1.49,0,0,1-.2,2.15c-.47.43-.79,1.15,0,1.27,4.74.7,2,4.12,1.56,5.7a55.1,55.1,0,0,1-2.33,7.75c-1.54,3.59-4.19,7.7-8.65,8.16-4,.42-6.48,3.91-10.45,4.14-1.25.07-1.2,2.2-.43,2.83,1.84,1.51.52,2.89.21,4.3a2,2,0,0,1-2.32,1.55c-.94-.06-1.85-.27-2.2-1.29a2.14,2.14,0,0,1,.72-2.76,2.6,2.6,0,0,0,.61-4.43c-1.41-1.24-3.13-1.43-5.26.46-5.26,4.66-3.56,7.22,3.05,13.25a14.23,14.23,0,0,1,4.83,13,2.7,2.7,0,0,1-1.3,2.27c-3,1.58-5.16,4.14-7.59,6.38-.41.37-.78,1-1.42.75-.85-.3-.69-1.16-.57-1.75.39-1.94.38-3-2.29-3.07-2.36-.09-2.74-3.17-4.1-4.77s-4.15-1.24-4.58-4c-.12-.76-1.37.05-1.35,1,.06,2.44-.81,4.67-1.41,7-.48,1.87,1.56,2.8,1.69,3.76.66,4.86,4.33,7,7.48,9.75,1.4,1.21,2.59,2.62,2.36,4.68a7.91,7.91,0,0,0,1.26,5.17c.74,1.19,1.16,2.49.15,3.8l0,0c-5.57-2.65-9-6.8-10-13.08-.38-2.36-1.91-5-4-6s-1.82-1.91-1.67-3.27c.82-7.35-1.2-14.19-3.53-21-.58-1.69-1.39-1.5-2.48-.58-.61.51-1.27.95-1.85,1.49a2.19,2.19,0,0,1-2.8.26,1.81,1.81,0,0,1-1-2.29c1.36-4.37-2.16-6.61-4.23-9.31-1.22-1.59-3.2-2.9-3.63-4.8-.6-2.62-1.84-1.88-3.33-1.3a14.34,14.34,0,0,1-2.23.84c-2.87.6-6.89-.6-6.81,4.48-3.12,1.63-4.78,4.73-7.23,7.05-2.1,2-3.65,4.58-6.41,5.88a1.51,1.51,0,0,0-.89,2c2.19,4.05-.65,8.17.29,12.23.15.65-4.82,7.16-5.48,7.26a2.66,2.66,0,0,1-3-2.23c-1.12-4.82-3.94-8.87-5.74-13.38-2.14-5.35-4.79-10.46-5.85-16.23-.38-2,.63-4.4-1.19-6.16-3.85,3.19-4.33,3.08-8.88-2.15.34-1.13,2-.38,2.3-1.52-3.31-.5-5.47-2.72-7.46-5.13-1.51-1.83-2.86-2.81-5.68-2.25-5.56,1.12-11.24.35-16.82-.62-.75-.13-2-.55-2.06-1-.74-4.2-3.5-2.08-5.76-2.14-5.41-.14-9.23-3.16-11.84-7.65-.79-1.35-1.49-2.13-3.06-2.13-2.58,0-3.47,1.15-2.07,3.26,2.13,3.21,3.6,7.07,8.06,8.17,1.33.33,1,2.16.82,3.36-.41,2,.4,2,2.18,2.09,4.74.25,6.59-3.29,8.83-6.27,1.63.87.53,2.15.85,3.12a5.48,5.48,0,0,0,3.87,4,5.11,5.11,0,0,1,2.72,1.22c2.93,3,2.37,6.25-1,9.29-1.42,1.27-1.42,3.8-3.41,5.13-2.38,1.58-3.88,4.34-7.17,4.71-1.47.17-3.17.55-3.54,2.63a2.39,2.39,0,0,1-1.38,1.39c-6,2.43-11.71,5.68-18,7.61a12.28,12.28,0,0,1-2.36.28,17.6,17.6,0,0,1-3.09-9.55,6.57,6.57,0,0,0-1.54-4.05c-2.27-2.81-3.52-6.39-6.47-8.7a2.84,2.84,0,0,1-1-1.75c-.95-6.64-6.25-10.86-9.09-16.45-.67-1.32-1.58-2.56-3.61-2.36a13.09,13.09,0,0,0,2.15,4.88c2.46,3.41,3.13,7.8,6.12,10.9a.49.49,0,0,1,.13.31c.24,5.2,3.22,9.16,5.67,13.45a20.83,20.83,0,0,0,4.1,5.65,33.28,33.28,0,0,1,6.68,7.64c-.39,1.61-.86,2.9.92,4.45s2.86,1.11,4.73.52c4.05-1.26,8.5-1,12.36-3.23,1.1-.63,1.6.28,1.71,1.34a12.2,12.2,0,0,1-1,6.32c-3.91,8.4-7,17.34-15.57,22.66a18,18,0,0,0-5.21,5.81c-2.41,3.75-6.25,6.59-7.47,11.07-.37,1.36-3.17,2.88.06,4.68.71.4.06,3.55,0,5.41-.11,2.28.16,4.27,1.67,6a3,3,0,0,1,.67,2.79,23,23,0,0,0,.13,7.41,8.5,8.5,0,0,1-4.63,9.38c-3.89,1.74-6.41,5-9.64,7.47a2.32,2.32,0,0,0-.73,3.25,18.24,18.24,0,0,1,1.26,4.23c.73,4.17-.59,6.68-4.37,8.29-1.81.77-2.46,1.56-2.56,3.91a10.86,10.86,0,0,1-3.46,7.73c-2.73,2.54-4.5,6.15-7.28,8.9-3.59,3.56-7.63,5.42-12.73,5-2.63-.23-5,1-7.52,1.55-3.37.71-6.79-1.43-6.13-4.74,1-4.81-1.56-8.72-3.79-11.78-3.15-4.33-4.05-9.07-4.25-13.68-.25-5.63-3.15-9.95-5.38-14.49a12.58,12.58,0,0,1-1.48-8c.71-3.66.91-7.73,3.93-10.64,1-.92,1.73-2.37,1.19-3.38-2.19-4-1.44-8.64-2.84-12.92-1.62-5-4.35-8.73-7.61-12.49a5.81,5.81,0,0,1-1.1-6.76c1.13-2.5,1.35-5.46,1.69-8.24.28-2.29-2.93-5-5.22-4.59-3.09.6-5.67.92-6.8-3.19-.69-2.47-6.46-3.07-9.34-1.54-2.48,1.32-5.07,2.43-7.62,3.59a1.75,1.75,0,0,1-1.27.14c-4.6-2.32-8.85-.43-13.15,1-1.09-3.88-3.91-7.46-1.76-11.87.71-1.45-1.23-3.77.75-4.64a8.08,8.08,0,0,1,4.55-.46c2.14.4,1.21-2,1.52-2.22-.28.31.54,2.44-2.13,2-2.24-.34-5,1.5-5.93-2.22-.45-1.78-1.4-2.67-3.42-2.4-1.27.17-2.83.36-3.44-1.37-.08-.26,0-.5-.13-.43-3.28,2.57-7-.59-10.41.81-1.06.43-2.8.67-3-1.09-.18-1.46,1.44-1.46,2.47-1.82.75-.27,1.56-.28,2.44-.5-1.61-.44-3.31,1-4.7-.48-3.11-3.13.36-5.73,1.07-8.27a19.41,19.41,0,0,0-.74-12.19,3.66,3.66,0,0,1,.23-3.57c3.25-4.53,5.07-9.92,8.82-14.18a13.46,13.46,0,0,1,4.05-3.34c3-1.57,5.68-3.33,5.59-7.62-.05-2.87,2.15-5.16,4.66-6.7a9.66,9.66,0,0,0,4.57-5.25c.58-1.76,1.22-2.32,3.47-1.2a9.87,9.87,0,0,0,11-1.4,10.56,10.56,0,0,1,8-2.42c4.13.47,7.88-2,12.17-.79,1.45.4,3.7-1.88,5.72.06.13.12,1.18-.15,1,.06-2.14,2.18.65,4.39-.14,6.55-.36,1-2.46,1.67-1.27,2.65,1.7,1.41,3,3.83,5.72,3.6s4.62,1.13,6.63,2.71c2.4,1.88,5.74,1.79,8.34,3.6.95.66,2.23-.72,2.29-2.45.12-3.47,4.27-5.6,6.8-3.37,1.43,1.27,2.81,1.46,4.48,1.81,2.52.54,5.15.51,7.6,1.66,1.78.84,3.75,1.19,5.69-.41,1.49-1.24,3.37-.92,5.13,0,2.43,1.31,4.58.74,5.67-1.77a20.09,20.09,0,0,0,1.9-10.92c-.34-2.44-1.76-3.25-3.81-2s-3.94,1.39-5.93-.17c-.86-.67-1.81-1.22-2.9.12a2.16,2.16,0,0,1-3.55.08c-1.68-1.75-1.88.23-2.53,1.11-.27-2.19-3-2.8-3-5-1.59-1.4-1.93-3.5-2.63-5.3a2.88,2.88,0,0,1,2.3-4.12c3.34-.26,5.91-2.63,9.18-2.81,4.49-3,9.13-3.28,13.76-.47,2.36,1.44,4.79,1.12,7.27.89.93-.09,1.86-.35,2.19-1.35a2.08,2.08,0,0,0-1.27-2.52c-2-1.09-3.58-2.79-5.55-3.94-5.47-3.18-5.6-2.88-1.75-9.65,1.24-.73,1.69-2.12,2.42-3.21a3.34,3.34,0,0,0-1.84-5.18c-1.91-.66-3.72-1.61-5.81-1.83A6.79,6.79,0,0,1,453,194c-.84-1.63-1.74-2.14-3.47-1.71-2,.49-2.74-.25-2.33-2.35.36-1.85-2.86-7.55-4.55-8.37-6-2.94-7-4.55-6.39-11,.41-2,0-3.06-2.34-2.2a26.88,26.88,0,0,1-5.23,1.31c-2.88.41-5.15-.36-6.16-3.39-1.86-4.69-.26-8.07,3.93-10.52a3.36,3.36,0,0,0,1.37-1.49c-2.47-1-3.18-1-3.94,1a10.43,10.43,0,0,1-4.49,4.92c-3.53,2.31-3.74,3.71-1.21,7,1.54,2,1.38,3.87-.55,5.35a4,4,0,0,0-1.84,4,3.41,3.41,0,0,1-2.27,3.81c-3.18,1.23-5.7,3.61-8.12,4.51a2.55,2.55,0,0,1,2.08.17c3.08,1.95,2.95,5.18,3.16,8.2a3.55,3.55,0,0,1-2.45,3.41c-2.15,1-2.66,2.07-1.14,4.16s.81,3.94-1.62,5.2c-2,1.06-4.23.81-6.37.49-2.31-.34-4.16-1.27-4-4.12,0-.41.23,0-.1-.29-6.12-4.88-1.67-9.8-.08-14.7,2.09-.06,3.39-.69,2.3-3.12a4.65,4.65,0,0,1-.17-1c-1.25-5.31-1.12-5.53,4.9-7.84-1.43,2.05,1.48,4.35-1.85,6.1,5.2-.63,5.88-1.76,4-5.56a13.28,13.28,0,0,1-.6-1.59c-1.33-4-1.58-4-5.1-1.16s-6.85,1.44-7.6-2.84c-.24-1.32-.43-2.66-.57-4-.53-5.18,4.17-6.09,7.17-7.61a17.64,17.64,0,0,0,4.69-3.22c2.8-2.86,4.81-6.4,7.85-9-1.4-1.5-2.5.26-3.8-.7,5.07-2.18,9.73-4.53,15-6A33.63,33.63,0,0,1,436,138.83c2.19.35,2.7,1.17,1.22,3.27,4.69-1.52,8.44.83,12.39,1.59,2.16.41,4.12,1.78,6.36,2.3,1.69.39,3.45,1.36,3.09,3.46s-2.23,2.43-4,2.4a39.44,39.44,0,0,1-9.66-1.67c3.06,2.58,3.29,7.73,8.45,7,0-.91-.91-.76-1.36-1.12s-1.16-.91-.65-1.65c.35-.51,1-.4,1.57-.19a13.19,13.19,0,0,0,2.55.91c.86.12,2.56,1,1.47-1.44-.57-1.29,3.7-3.66,5.55-3.21.62.15,1.31.85,1.88.27.74-.75,0-1.41-.45-2.06-.72-1.07-1.24-2.65-.42-3.39s2.57-.46,3.81.32a1.05,1.05,0,0,1,.55,1.37c-.15.59-2.52.71-.48,1.71,1.18.58,2.52,1,3.56-.56,2.08-3.2,6.09-2.57,8.91-4.33,3.72,3.24,7.94-1.57,11.75.71a1.13,1.13,0,0,0,1.46-.55c.38-.72-.4-.9-.78-1.26a4.5,4.5,0,0,0-2.75-1.19c-.71-.09-1.45-.54-1.18-1.33s1.08-.52,1.71-.23c5.76,2.67,12.5,1.59,18.08,5.05-1.07-2.69-4.65-2.52-5.29-5.71-.19-1-.91-1.48.24-2.25s.56-1.87.79-2.83c.52-2.08,1-2.22,2.68-.89.21.17.64.12,1,.11,2.3-.1,4.11.21,3.83,3.26-.1,1.11,1.1,1.29,2,1.51,2.24,1.86,2.35,5.25,5.18,6.87,1,.59.08,2.55-.53,3.83,2.81-.95.08-3.75,1.72-5.1.06,0,.18-.08-.1,0-4.49,1.22-3.67-3.31-5.46-5a5.45,5.45,0,0,0-.84-.58c-.13-.54-.54-1.38-.34-1.57,1.57-1.46,2.45-2.71-1.41-3.63,3.8,0,5.28,1.49,5.61,5,1.48-5,6.66-7.38,13.44-7,.24-1.38-1.05-1.49-1.78-2.07,3.71-2,7.93-2.3,11.8-3.72.52-.19,1.23-.07,1.61-.38.63-.52,2.34-1.12,3.21-.66,2.32,1.23,3.84,1.25,5.42-1.49,1.18-2,4.35-1.51,6-.73,4.76,2.23,9.89,1.43,14.72,2.6,1.94.47,3.72.91,4.37,3.55a4.72,4.72,0,0,0,4.28,3.12c4.94-.42,9.58,1.26,14.4,1.52,2.36.13,4.11-1.66,6.72-1.56,4.43.18,7.77,1.89,11,4.54,1.7,1.39,3.27,4.58,6.12.76.81-1.1,3.51,1,5.47.24,1.81-.68,5,1.39,5.13-2.73,0-.22,1.84-.64,2.79-.56,4.62.39,9.23,1,13.85,1.38,2.68.24,4.78,2,7.27,2.74,4.32,1.38,8.55-.21,12.8.53,2.58.45,5.19.39,7,2.7.88,1.08,2.31.84,3.54.84,4.88,0,9.78.37,14.61-.7.45.88.83,1.84,2.13,1.72C692.54,142.63,692.07,141.8,691.61,141Z" transform="translate(-29.88 -108.99)"/><path class="cls-1" d="M57.1,176.36c-7,4.14-21.51,8.27-27.22,8.64,8.61-4.2,18.67-5.25,26.68-11.45-2.73-1.6-5.14-.91-7.88-.37l2.78-3.51c-1-1.21-3.13.94-3.2-1.06a6.09,6.09,0,0,1,2.93-5.16A28.44,28.44,0,0,1,65,158.73,3.41,3.41,0,0,0,68.6,156c-2,0-3.86.06-5.71,0-.76,0-2.2.51-2-.94.11-1-.48-2.52,1.37-2.94,2.63-.61,5.22-1.44,7.83-2.14.43-.11,1.16-.21,1.31,0,.78,1.06,1.65,2.05,2.87.88s.65-3.13,0-3.93c-1.42-1.77-.34-2.06.91-2.39,8.68-2.31,17-6,26.09-6.73a16.52,16.52,0,0,1,5.67.62c4.86,1.36,9.85,1.65,14.76,2.43,2.49.39,6-.2,8,2.53.46.6,1.51.51,2.26.15,5.16-2.41,10.73-2.27,16.22-2.67a2.85,2.85,0,0,0,1.56-.52c3-2.55,1.94.36,2.05,1.88,7-2.54,13,1.78,19.57,2.14.63.68.1,1.24-.17,1.81,2.15-.06,4.27-.57,6.45-.53-2.16-.16-4.57.9-6.33-1.24a5.44,5.44,0,0,1-.39-.55c-.52-1-2.51-.62-2.21-2.2s2-1.05,3.5-1.65c-3.44-.34-.91-2.9-2.08-4.35-1.72,1.35-3.89,1.57-5.76,2.39-2.46,1.07-2.78-.95-3.78-1.92-.58-.56-.32-.61,2.1-2.12,2.07-1.3,4.53-1.95,6.23-3.94,1.26-1.48,3.52-1.15,4.82-.78,3,.86,6.47-.72,9.17,2.42,1.21,1.4,4.22,1.35,6.37,1.85,4.05.93,6.27-2.53,9.67-2.37a3,3,0,0,1,2.35.73c-1.68,1.53-3.95,2.4-4.81,4.82-.52,1.44-1.08,2.32.83,2.92.72.23,1.6.76,1.12,1.74-.29.6-.71,1.54-1.79.89a2.15,2.15,0,0,0-.8-.23c-2.34,5.31-5.75,1.8-8.81,1.09a1.65,1.65,0,0,0-.64.12c2.34,4.05,8,4.71,13.74,1.58-.54-.38-1.06-.73-1.57-1.11-.06,0,0-.21-.07-.57,2.6.34,4.5-1.68,7.26-1.76,1.63-.05,3.16-3.1,4.74-4.8.43-1.24,1.27.24,1.81-.27.81-.6,2.07-1,2.36-1.82,1.18-3.15,3.83-3.93,6.6-4.62-2.36-3.41-6.29-.63-9.17-2.32-1.09-.65-3.21-.46-2.91-2.14.36-2,2-.75,3.26-.6,1.87.22,3.71-.66,5.59-.94,2.64-.39,2.29,2.46,4.09,2.71,2.91.4.53-3.11,2.56-3.29a8,8,0,0,1,3.35.36,6.21,6.21,0,0,0,3.27.44c2.27-.45,4.08-3.64,7-1,.83.75,1.45-1.34,2.91-2.46a42.21,42.21,0,0,1-4.54.41c-2.12-.07-3.31-1.52-3.81-3.36-.61-2.24,1.51-2.18,2.75-2.64,3.43-1.26,6.92-2.35,10.47.66-.6-1.9-1-3.29,1.52-3.42,11.06-.58,22-2.38,33.16-2A41.31,41.31,0,0,1,292.87,112c2.3.78,4.49-.32,6.72-.26,11.82.35,23.43-2.12,35.18-2.68a40.74,40.74,0,0,1,13.75,1.55,23,23,0,0,0,4,.47c.18.78-1.25,1.22-.69,1.79,5,.7,9.75-1.73,15.06.63-3,.85-5.9,1-7.79,2.48-1.42,1.12-6.13-.47-4.2,4.2-.56-.06-1.29.08-1.59-.21-.75-.74-1.73-1.26-2.33-.45-.84,1.12.69,1.25,1.22,1.83.67.74,2.18,1.13,1.27,2.68-1.05,1.8-2-.44-3.32,0,.34,1.59.28,3.31,2.72,3.63-2.69,0-2.92,2.95-5,3.68-3.2,1.1-4.88,3.27-4.27,7,.22,1.38-2.82,2-4.42.89-.61-.43-.81-1.47-1.82-1.25-.21,0-.49.52-.48.78.07,1.13,1,1.4,1.88,1.67s1.49.5,2.35.78a41.29,41.29,0,0,1-17.43,5.19,7.85,7.85,0,0,0-4.81,2.25,16.38,16.38,0,0,1-10.67,4.4,5.68,5.68,0,0,0-5.28,3.53,4.45,4.45,0,0,1-1.28,2c-3.42,2.26-5.23,5.85-7.61,9-.53.71-1.51,1.91-1.88,1.78-3.07-1.14-6.82-1.82-8.82-4-2.18-2.41-3.07-6.25-2.66-9.87.22-2-1.58-3.57-.34-5.86,1.38-2.56,2.23-5.17,5.83-4.91,1.51.11,1.84-1,2.07-2.17-.94-.87-1.32.45-2,.44-1.21,0-2.69.72-3.53-.45s.27-2.21,1.22-3a2.78,2.78,0,0,0,.71-1c-2.82-2.68.63-4.92.66-7.44,0-2.85-.9-4.22-3.25-5-3.34-1.15-6.72-.39-10.08,0-3.71.39-4.66-.57-5.27-4.3-.46-2.86,1.63-2.16,2.81-2.28a89.6,89.6,0,0,0,12.09-1.74c-2.48-2.61-4.89-2.48-7.37-1.1a9.6,9.6,0,0,1-4.21,1.08c-1,.07-2.32-.11-3,.45-3.33,2.86-7.6,3.26-11.5,4.48-1.45.46-.62,1.94-2.16,2.44-2.19.72-4,.1-6,.12-3.71,0-7.44.12-11.15.18-.66,0-1.64-.14-1.68.7-.06,1.2,1.09.62,1.69.89,1.46.65,2.7,0,3.94-.34a21.16,21.16,0,0,1,5.06-.51c1.26,0,2.93,0,3.14,1.36.25,1.59-1.67,1.9-2.7,1.93a151.94,151.94,0,0,1-17.73-.09c-3.68-.34.59-2.1-.33-3.55-3.75-1.44-2.26,3.76-4.71,4,.94,1.42,2.49.79,3.75,1.83-2.63.75-4.18,3.1-7.14,3-1.21,0-3.5.62-3.17,2.53.35,2.08-2.43,5.35,2.08,6.16,2.47.44,1.64,1.71.28,2.69-.84.6-1.6,1.24-.64,2.1.74.66,1.51,0,1.8-.83.72-2,2.85-1.47,4.2-2.36a3.41,3.41,0,0,0,1.75-2.64c.14-1.43-1.32-.84-2.05-1.17-2.53-1.13-3.15-3.2-.87-5,3.83-3,7.54-6,13.38-4.34,2.86.82,6.48-.1,9.77,0,.89,0,2.27-.34,2.58.43,1.89,4.62,6.71,5.08,10.17,7.45,2,1.35,1.44,3-1.94,5.08a51.06,51.06,0,0,1,7.41,4c1.57,1,1.84,1.58.14,2.91-1.49,1.16-3.27,1.78-4.69,3.12s-2.4-.26-3.17-1.4-1.19-2.61-2.72-1.07c-1.13,1.15-.54,1.9.66,3,1.37,1.21,2.45,3.06,0,4.69-.59.39-.81,1.32-1.28,2.14-1.45-.51-2.35-2.13-4.07-2.07-.6.76.14,1.21.43,1.75.9,1.64.18,2.3-1.35,1.74-3.37-1.24-7.93-.83-8.67-6a1.16,1.16,0,0,0-1.58-.92c-2.36,1-6.28-1.88-7.21,2.86a2.82,2.82,0,0,1-3.4.14,3.22,3.22,0,0,0,2.77-2.67c.49-2.34,2.49-3.34,4.84-3.36s4.63.69,5.88-2.37c.38-.93,2.33-1.19,3.52-1.83,1.79-1,2.14-2.2.27-4.08,0,1.31.85,3.2-1.46,2.36-1.6-.59-2.37,1.68-4,1.2-.61-.18-1.46.18-1.78-.6a1.24,1.24,0,0,1,.86-1.63c3.48-.7,1.85-3.47,2.42-5.42a23.13,23.13,0,0,1-5,4.79,2.83,2.83,0,0,1,1.76-3,25,25,0,0,0-3.07-.87c-.91-.14-2.3-.66-1.68,1.33.38,1.18-.52,1.61-1.41,1.91-.66.22-1.51.42-1.52,1.17,0,5-5.9,3.1-7.53,6.42-.34.68-1.57-2-3.27-1.71.59,2.49,2.83,3.48,4.35,5.1.52.57,1.88.94,1.2,2.12a1.82,1.82,0,0,1-2.44.56c-2.36-1.61-4.28-.37-6.22.68s-3-.37-4.41-1.19c1.37-1.57,3.52-2.27,4.37-4.54-7.77,4.84-16.8,6.76-23.81,12.54a11.57,11.57,0,0,0-3.29,3.4c-.43.84-2.9,2.05.3,3,1.06.33-.15,2.59-.26,4.39,4.58-1.6,6.9,2.22,10,4.11a8.63,8.63,0,0,0,4.69,1.5c1.93,0,2.94.61,1.46,2.63-1.14,1.56-1.72,3.15,1,4.34-1.56.69-3.66.62-2.35,2.83.89,1.5,1.32,1.18,3.11.57,3.84-1.33,2.59-4.56,3.57-6.77.6-1.38,1-2.19,2.38-2.69,2.45-.88,4.91-1.76,6.67-3.91,1.54-1.88,2.81-3.7.84-6-.69-.8-.61-1.4.22-2,3.23-2.18,4.4-5.69,5.93-9a2.54,2.54,0,0,1,.89-1c1.14-.72,9.63.61,10.48,1.73,1,1.32,1.73,2.88,4.37,2-.78,1.19-1.1,1.62-1.36,2.09-.93,1.65-2.4,3.28-.17,5.06,2.08,1.66,3.76,0,5.13-1,1.61-1.18,2.72-3,4.68-5.31.74,4.87,2.57,8.37,1.78,12.33-.35,1.75.41,3.46,1.82,3.89,2.75.84,3.63,3.29,5.31,5a1.32,1.32,0,0,1,.32,1.55c-1.19,2.44-.69,5.46-3.09,7.53-1.75,1.52.33,3.17,1.17,3.15,2.25-.06,2.63.41,2.49,2.65a13.45,13.45,0,0,0,.53,3.47,3,3,0,0,1-1.39,2.93c-1.12.83-1.8-.14-2.42-1-1-1.4-1.72.05-2.58.27s-2.36,1.33-1.44-1.07c.33-.85-.69-.51-1.12-.59-1.84-.34-4.75,1-5.3-.75-.63-1.94,2.12-3.31,3.52-4.85,1.67-1.83,3.15-3.82,5-6.09-1.52.22-2.81-.09-3.86.9-4.16,4-9.31,2.6-14.1,2.32a7.07,7.07,0,0,0-6.6,2.92c2.2.22,4.92-1.55,5.77.89.59,1.7-1.36,3.55-2.55,5.13a7,7,0,0,0-.48.9c2.55,3.72,3.49,3.91,7.47,1.49.88-.07,1.44-2.23,2.3-.76.43.73.9,2.72-.74,3.55s-3.24,1.54-4.9,2.22c-2.72,1.11-5.54,2-8,3.69-.54.38-1.34,1.2-2.08.27a1.84,1.84,0,0,1,.29-2.48,7.39,7.39,0,0,1,3.21-2.38c-4.82.87-8.92,3.43-13.25,5.37a3.31,3.31,0,0,0-1.53,4.38c.61,1.47-.81,2.76-1.07,2.61-2.37-1.42-3.35,1.14-5,1.47-5.1,1-7.37,4.75-9.23,9-.13.3-.36.69-.63.78-2.88.93-2.74,3.12-2.56,5.53s-2.45,3.27-3.69,3.82c-4.76,2.09-7.93,6.28-12.54,8.59-2.22,1.12-2.28,4.27-1.83,7,.53,3.29,1.42,6.67-.13,10-.33.7-.31,1.71-1.31,1.77-.85.05-1.31-.58-1.78-1.33-1.66-2.64-3-5.2-2-8.57.69-2.31-1.09-3.66-3.61-3.53s-4.46-1.94-7.1-1.29c-1.88.47-4.88-1-4.18,3.16.07.43-3.27.64-4.29,0-6.34-3.89-10.62.8-15.41,3.33a3.3,3.3,0,0,0-1.18,1.62c-3.05,7.26-6.28,14.5-2.15,22.47,1.36,2.61,3.4,3.52,6.28,3.2,4.32-.48,7.91-1.59,9-6.63.41-1.93,7-3.5,8.52-2.19,1.09,1,.79,2.35.08,3.41a34.59,34.59,0,0,0-5,10.22c-.71,2.63.29,2.56,2.13,2.51,2-.05,4-.52,6.08-.16,2.82.48,4.55,2.35,3.63,4.93-.7,2-.54,4.05-1.41,5.92-1.86,3.95,1.59,7.51,4.35,9,1.6.86,2.73-.3,3.67-1a3.55,3.55,0,0,1,5,.25c2.82,3.48,4.25.94,6-.93a8.74,8.74,0,0,0,.71-1.14c1.88,1.45,1.46,3.07.4,4.79a18.41,18.41,0,0,0-3,12.62,3.84,3.84,0,0,1-.14,2.36c-1.77,3.07-.16,4.24,2.58,4.94a8.18,8.18,0,0,1,6.09,5.43,13.48,13.48,0,0,0,1.4,2.72c.79,1.22,2.09.83,3.12.6,1.25-.28.4-1.26.34-2-.22-2.24-.12-4.49-.53-6.74-.38-2.09.69-3.64,2.49-4.84,2.64-1.77,2.33-3.49.76-6.19-2.1-3.64-6.16-4.5-8.81-7.28-1.28-1.35-2.78-2.36-2.65-4.46.09-1.46-1.26-1.75-2-2.51a2.81,2.81,0,0,1,2.24-2.68,16.72,16.72,0,0,0,7.25-3.37c.49-.43,1.22-.77,1.79,0a.83.83,0,0,1-.21,1.19c-.65.56-1.9,1-.92,2.06s1.74-.51,2.69-.67c1.16-.19.57-1.59,1.45-2.4,2.82,3.89,7.32,4.51,11.51,5.74.48.14,1.47,0,1.57-.27,1-2.64,3.17-1.28,4.85-1.48.7-.09,2-.57,1.19,1.28-.41.94.81.61,1.33.35.83-.4.69-2.11,2.51-1.53-1.81,3.37-.67,5.6,2.81,6.91a4,4,0,0,1,2.26,2.43c-1.37,2.19-3.17,4.08-4.41,6.37a8.51,8.51,0,0,1-7.82,4.26c-.45-.06-.07.67-.12.22,0-.17.07-.23.27-.21a4.73,4.73,0,0,1,2.22.68c1.88,3.29,1.66,5.17-.94,7.46a43.09,43.09,0,0,1-3.73,3c-3.55,2.47-8.39.79-9.57-2.8-.31,3.73-.16,7.92-1.32,12.31-1.06,4-1.86,6.43-6.48,6.5-1.54,0-2.39,2.25-3.21,3.76-.62,1.13.08,1.61.84,2.21,1.42,1.13,3.11,1.22,4.79,1.54,2.91.55,3.48,1.91,2,4.53a8.29,8.29,0,0,0,5.08-2.19c2.14-1.79,4.63-2.93,7.16-1.2,2.28,1.56,2.77,4,1.76,6.69-.55,1.43-.1,1.81,1.41,1.62,7-.87,11.88,3.15,12.09,10.09.1,3,2.92,3.23,4.53,4.21,3,1.84,4.17,2.91,3.81,6.43-.12,1.13-.48,2.23-.55,3.36s-.85,2.11-.65,3.43c5.5-1.13,7.65,3.29,10.52,6.45a3.21,3.21,0,0,1,.57,3.24c-.17.47-.77.67.15,1.44,3.52,2.92,3.22,6.68-.47,9.71-.9.74-2.54,1.13-2,2.78a5.51,5.51,0,0,0,3.39,3.16c.54.22,1.28.3,1.6-.19,1.34-2.15,3.72-3.35,5-5.49a4.94,4.94,0,0,0,.16-4.57c-1.31-3.53-.53-6.12,2.52-8.35,3.32-2.41,7.22-3.8,10.76-5.86,2.23-1.3,3.81.38,5.07,2.15a59.74,59.74,0,0,0-8.91,3.22c-4.4,2-6.35,4.55-5.5,9.27.41,2.28-.95,4-1.61,5.91-1.56,4.72-4.68,8.47-6.82,12.8-2,4-3.66,4.51-7.88,3-.84-.3-1.62-.86-2.85-.46.66,1.15,2.8,1.35,2.18,3.18a5.24,5.24,0,0,1-7.16-4.34c-.31-3.15-2.42-6.5.56-9.73.94-1-.16-3.22.17-4.95.45-2.43-2-1.9-3.25-2.61-1.44-.83-2.31-2.17-1.9-3.69a4.4,4.4,0,0,0-2.6-5.35c-2.94-1.33-5.82-3.3-9.29-3a2.82,2.82,0,0,1-2.94-1.39c-1.6,2.79-2.86,5.56-1.6,8.85a3,3,0,0,1-.24,2.66c-2.29,3-1.93,6.38-1.89,9.78a5.93,5.93,0,0,0,.73,3.27,6.67,6.67,0,0,1,.59,5.56c-.85,3.58,1,6.86,1.7,10.23a21,21,0,0,1,.71,6.32c-.23,3.07,0,5.94,2.15,8.8a25.69,25.69,0,0,1,5.07,17.37c-.16,2.37,2.4,3.39,2.66,5.64.08.68,1.21-.06,1.39-.69.88-3,2.33-6-.2-9a10.53,10.53,0,0,1-2.09-5c-.2-1-.38-2.4.46-2.9,3.41-2,1.78-4.58,1-7.08-.84-2.66-.77-5,2.32-6.18,1.38-.5,1.58-1.34,1.39-2.64-.25-1.77.39-3.62,2.24-3.58,4.51.09,8.27-1.83,12.13-3.65.1,4.48-1.88,6.4-7.82,6.82-2.26.16-3,1.15-2.44,2.91,1.16,3.67-1,3.46-3.37,3.19a15.22,15.22,0,0,1-1.93-.53c.18,1.9.48,3.16,2.56,3.39,1.86.21,2.69,1,.65,2.41-.36.26-.9.64-.91,1,0,2.61-.45,4.63-2.89,6.54-1.45,1.14,1.06,3.08,2.59,3.43,3.65.85,3.21,2.56,1.33,4.71-1.42,1.62-.14,4.37-2.49,5.61-.38.2.25,1,.58,1.43,3.31,4.56,6.75,8.92,13.62,9.46-8.23,5-14.44.95-20.4-2.82-4.53-2.86-7.68-7.26-10.22-12-.75-1.39-1.77-2.69-.2-4.27a1.15,1.15,0,0,0-.74-2c-1.23,0-1.55-.32-1.76-.62-.5-.73,1.93-2.19,2.48-4.78.25-1.22-.14-2.59-.93-5.31a36.2,36.2,0,0,0-1.26-3.61c-1.5,1-2.17,1-2.5.76-1-.62.26-3.13-.17-6.29a11,11,0,0,0-2.22-5.15c.45-.15,1.17-.19,1.13-.57-.31-3.43,2.26-6.52,1.46-10,.12,2.84.1,2.87-2.51,3,.27-4.4.21-8.76-1.41-12.95.12-1.36,1.6-2.78-.14-4.08-.63-.62-1.56-1.17-.55-2.2,1.53.06,2.36-.59,2.19-2.19-.13-1.12.11-2.23,0-3.44-1.42,1.43.53,4.14-2,5l-.09-12.26c3.76-1.87,3.75-4.47,0-8.14-1.56-1.59-.24-3.75-1.21-5.65-.84-1.65-1.47-3.35-2.85-4.65.47-1.84.61-3.9,3-4.44,2,.71,1.4-1.33,2.09-2,2.82-1.08,4.8,0,4.31,2.74-.45,2.53-.37,4.69,1.27,6.71a.9.9,0,0,1,.21.64c-.74,5.47,3.13,5.62,6.84,5.89,1.11.08,2.1.94,3.44.44.17-1.49-.76-2.93-.13-4.57.94-2.42,2.08-4.2,4.94-4.49,1.36-.14,3.08-.22,3.3-2.25-.69-.9-1.2,0-1.73.17-2.26.82-3.48-.31-4.19-2.25a8.59,8.59,0,0,1-.28-3.39c.09-1.9-.12-2.86-2.64-3.14s-4.84-1.72-7.26-2.67c-1.55-.61-3-2-2.8-3.92s-.94-1.93-2.21-1.81c-2,.18-1.33,1.39-.92,2.48.24.64.52,1.26.7,1.92,1,3.67.42,5.17-3.07,7.71-2.06-1.13-1.55,1.06-2.23,1.72-3,.31-4.49-.82-3.36-3.07,3-6-.58-8.53-4.81-11.17a16.36,16.36,0,0,1-5.87-6c-1.49-2.7-2.39-5.12-.14-7.8.68-.82.51-1.94.72-2.93.53-2.47,1.65-4.48,4.31-5.19a6.38,6.38,0,0,0-1.88-.45c-1.33-.33-2-2.74-3.31-1.83-2.1,1.43-4.63,2.61-5.82,5-.78,1.58-1.54,3-3.23,3.76-1.06.45-1.15,1.11-.84,2.18.4,1.4.31,2.75-1.75,2.67-1.39-2.53-4.93-3.63-4.77-7.2,0-.52-.46-1.39-.26-1.55,3.26-2.64,1.49-5.76,1-8.79a3.77,3.77,0,0,1,1.43-3.61c3.93.75,1.77,4,2.5,6.35,1.81-.8,3.07-2.29,5.07-3-1.85-2.33-5.75-3.16-4.26-7,.43-1.83.86-3.5,2.58-4.84,2-1.55,2.34-9.94.73-12.38-.63-.95-.9-2.11-1.64-2.88s-.19-2.41-1.75-2a3.54,3.54,0,0,0-2.32,2.32c-.27.78.85,2.35-.94,2.15-1.11-.13-2.78.31-3.38-1.34-.38-1.05-1.22-1.22-2.15-1.36-1.08-.15-2.34,0-2.25-1.78.05-1.08-1.15-1.37-1.94-1.65-2-.73-3.06-1.56-3.42-4.17a8.53,8.53,0,0,0-5.5-6.4c-4.53-1.67-9.35-2.6-12.17-7.25-.86-1.4-2.69-1.61-4.32-.7a5.65,5.65,0,0,1-5.56.11c-5.57-2.82-11.55-4.9-16.28-9.23-1.29-1.18-2.39-2.48-1.54-4.1,2-3.73.27-7-2-9.3-4.09-4.21-4.87-10.34-9.11-14.4-.73-.7-.15-2.76-.17-4.18,0-1.26.12-2.59-1.47-3.08-.66-.21-1.6-.31-1.76.44-.28,1.27-1.25,2.65-.31,3.92,2.92,3.93,3,8.8,4.48,13.21.41,1.25.09,2.7,1.68,3.51.37.19,1.34,1.79.08,2.65-1.44,1-1.24-.73-1.78-1.2-.85-.75-1.63-1.57-2.53-2.24-.69-.51-1.48-1.13-1.11-1.9,1.56-3.28-.57-4.35-2.9-5.65-.68-.37-3.28-1.7-.17-2.95a1.62,1.62,0,0,0,.33-2.85c-2.63-2.25-2.1-5.4-2.48-8.2-.42-3.15-.29-6.29-4.84-6-.89.06-.62-.92-.66-1.3-.6-5.79-2.46-11.59-.91-17.41a34.09,34.09,0,0,1,4.82-10.66c3.21-4.66,6.56-9.14,8.38-14.7.93-2.84-1.7-3.21-2-5.08-.27-1.51-1.65-2.37.69-3.64,1.83-1,1.3-3.49,1-5.37s-.32-3.57,1.35-4.93c-1.56-.5-4.05-.74-4.2-1.47a16.51,16.51,0,0,1,.13-6.89c1.15-5-.61-7.88-5.69-8.19-2.49-.16-5,.11-6.75-2.24-.53-.69-1.4-.19-1.46.57a2.14,2.14,0,0,1-2.36,1.93c-3.82-.73-6.93,1.66-10.53,2.27-.23-1.66,1.84-1.44,1.66-3l-2.78,1.12c-1.36.74-2.92,0-4.25.63-.39-.35-.47.57-.31.14,0-.06.07,0,.2.06,1.93.75,1.53,1.91.19,2.63-2.13,1.15-4.16,2.89-6.89,2.25C58.13,175.17,57.68,175.85,57.1,176.36Z" transform="translate(-29.88 -108.99)"/><path class="cls-1" d="M705.13,444.22c0-1.41,1.44-2,2.21-3.72a25.7,25.7,0,0,0-5.72,4.29c-.94,1-1.85,1.14-2.11-.44-1.11-6.81-3.64-9.36-10-8.08-4.34.87-9.24.93-12.91,3.67s-7.24,3.23-11.37,2.92c-2.22-.17-3.73,1.5-5.55,2.36a7.17,7.17,0,0,1-4.25.91,5.14,5.14,0,0,1-3.76-2.7c-.8-1.49,1.29-1.53,1.74-2.39.78-1.49,1.88-3.17,1.77-4.69-.34-4.68.59-9.44-.94-14-.53-1.6-.43-1.63,1.29-2.62.42-.24.42-.24.13-1.59-1-4.73,1-8.22,5-10.91s8.55-3.22,12.88-4.65c3.37-1.11,5.68-3.18,6.38-6.68.21-1.08.82-2,1.51-2,3.58-.14,4.7-3.23,6.71-5.25,3.78-3.81,3.74-3.74,8.52-1.21,1,.54,2.62,1.67,3.21-1.05.36-1.65,1.81-3.08,2.84-4.56.63-.89,2.34-1.54.14-2.65-.54-.28-.06-1.14.61-1.1s2.35-.83,2.26.32c-.14,1.81.09,3,1.9,2,2.22-1.15-1.43-1.53-.61-2.79,1.73-.7,3,.74,4.3,1.38a8.1,8.1,0,0,0,5.78.72c.9-.23,1.32-.38,1.9.33.71.87.1,1.46-.33,2.12-.77,1.22-1.64,2.37-2.44,3.55-1.48,2.2-.73,3.41,1,4.67a60.24,60.24,0,0,1,6.5,4.88c1.26,1.19,2.44.66,3.4-.72a13.36,13.36,0,0,0,2.56-6.6c.28-3.71,1.63-7,2.9-10.42.19-.51.1-1.24.87-1.23s.94.57,1.07,1.14c.28,1.21.5,2.44.78,3.65.53,2.4.85,4.58,3.06,6.57s1.25,5.72,1.51,8.67c.19,2.06.28,3.64,2.24,4.81a6.7,6.7,0,0,1,3.59,5.14c.33,2.67,2.13,5.08,3.66,7,3.86,4.84,2.69,10,1,14.47-1.86,4.75-4.42,9.53-9.21,12.75-3.91,2.62-6.18,7.12-9.24,10.74-.72.86-1.1,2.25-2.31,2.32-3.42.19-6.31,1.64-9.12,3.37-.94.58-1.43-.13-2.08-.55s-1.67-1.21-2.49-.59c-2.63,2-4.76-.23-7-.78-2-.47-2-2.3-1.46-3.93s.64-2.91-1.48-3.29C704.17,446.9,706.29,445.18,705.13,444.22Z" transform="translate(-29.88 -108.99)"/><path class="cls-1" d="M271.77,410.79c-3.45-2.91-6.23-1.14-9,1.19-1.65,1.36-4,1.37-5.76,2.74-3.58,2.75-4.1,4.59-2.37,8.63,1.07,2.5,0,4.73-2.08,6.45-.94.78-2.35,1.11-2.69,2.49-.88,3.58-3,2.1-4.82,1.1a8.83,8.83,0,0,1-2.21-2.11c-1.49-1.72-1.71-3.17.85-4.17a5.63,5.63,0,0,0,3.47-3.53c1-3.31-.59-5.42-4.33-5.81,2.71-2.11,3.32-3.47.85-5.5-2.63-2.17-4.16-7.24-9.54-4.7-1.6.75-1.19-1.18-.82-2.2,1.13-3.07,2.26-6.15,1.07-9.47a14.1,14.1,0,0,0-.91-1.77c-3.35,2.17-3.7-3.64-6.74-2.53-.68.24-1.13-.32-.93-1.28,1.29-6.37.83-7.16-5.37-9.53-1.86-.71-3.49-3.31-5.82-.45-.56.69-1.49-.65-2.11-1.25s-.8-1.08-.09-1.73c2.48-2.25.93-4.6-.56-6.11-1.72-1.74-4.27-1-5.83.65-1.88,2-4.15,2.6-6.59,3.13-.47.1-1,.87-1.3-.07a1.22,1.22,0,0,1,.47-1.51c.8-.48,2.27-.41,1.54-2a2.65,2.65,0,0,0-2.85-1.42c-2.94,1-4.18-1.79-6.32-2.44-.58-.18-1.39-1-.62-1.53,2-1.47,2.4-4.28,4.81-5.4.73-.34,1.2-1,2.05-.27s1.88.5,2.7-.34a2.28,2.28,0,0,0,.47-3.08c-.85-1.21-1-1.94.65-2.44a1.69,1.69,0,0,0,1-1.25c-.35-3.9,1.33-7.78-.14-12.27,3,3.26,5.57,7.08,10,4.24,3.26-2.09,8.06-3.94,5.3-9.6.28-1.19,3.82-3.71,5.15-3.47,2.05.37,2.27,1.88,2,3.64a6.66,6.66,0,0,0,.31,3.69c.67,1.49,1.67,2.09,3.26,1.36s3.32-.52,4.49-1.12c2.44-1.23,4.72-1,7.14-.64-1.81-.37-1.51-1.57-1.12-3.2-.47,1.61-.34,3.31-2.46,2.63a1.72,1.72,0,0,0-1,.07c-1.34.39-2.76,2.42-4,.13s-3-4.41-1.73-7.28c1-2.24,2.59-3.37,5.11-3,1.32.21,2.71-.38,4,.37,4.37,1.12,7.37,3.55,8.34,8.2.51,2.49,2.81,4.22,2.53,7.33-.15,1.56,3.1,2.35,4.92,2.87,3.34.95,6.45,1.58,9.17,4.34,1.55,1.58,5,1.88,7.5,1.8a9.27,9.27,0,0,1,7.27,3c1.92,1.92,3.74,4,6.88,3.86,1.11-.05,1.41,1,1.72,1.87,1.72,4.77,1,8.9-2.36,13-3.69,4.51-7.13,9.11-6.33,15.84.7,5.92-1.75,11.64-3.66,17.24C273.92,409.2,272.63,409.92,271.77,410.79Z" transform="translate(-29.88 -108.99)"/><path class="cls-1" d="M242.49,450.33a12.51,12.51,0,0,1-10.7,4.24c-2.8-.17-3.8,1.33-2.6,3.86.77,1.62.87,2.08-1.09,2.29-3,.32-4.16,2-3,5,.46,1.16.71,2.4,1.18,3.55.63,1.57.9,2.5-1.15,3.62-3.36,1.84-1.46,5.1,0,6.71,3.35,3.78,2.07,7.43,1,11.37-.38,1.43-1,1.94-2.33,1.75s-2-.91-1.44-2.38c.16-.45.08-1.37-.21-1.56-4.1-2.6-1.34-6.81-2.31-10.16-.6-2.1,0-4.54-2.49-5.72-.94-.44-.82-1.26-1-2a9.51,9.51,0,0,0-.75-2.61c-2.49-4-2.38-5.69-2.42-11,0-3.79-1.63-7.57-2.58-11.33-.13-.51-.93-1.18-.81-1.37,3.33-5.2-1.76-9.91-.82-15,.3-1.58.46-3.19,1.6-4.36a3.43,3.43,0,0,0,1-3.75,7.57,7.57,0,0,1,1.11-8.15c.78-1-.1-2.5.85-3.56,1.37.3.68,1.47,1,2.2.5,1.32,1.54,2.06,2.57,1,1.77-1.78,2.56-.88,3.5.72.25.44,1,1,1.32.94,3.7-1.06,5.13,2.4,7.64,3.68,1.47.75.64,1.62.36,2.55-1,3.25-.25,4.4,3,4.51a2.13,2.13,0,0,1,1.44.55c2.07,1.69.24,3.3,0,4.93-.21,1.31,3.07,2.86-.29,4-.38.13-.93.65-.9.92.37,2.94.44,6,1.43,8.74a4.94,4.94,0,0,0,5.82,3.12C240.6,449,242.41,449,242.49,450.33Z" transform="translate(-29.88 -108.99)"/><path class="cls-1" d="M381.88,195.65a3.69,3.69,0,0,1,2.7.58,36.94,36.94,0,0,0,9.18,4.82c2.57.91,1.74,3.27.95,4.15-3.1,3.44-.9,7.12-.9,10.66,0,1.41.24,2.67-1,3.67-1.33,1.65-2.69.06-4,0-2.09,0-4.59-.83-4,3,.31,1.91-1.55,2.84-3.08,3.63-2.91,1.52-5.86,2.85-4.5,7.2.53,1.67-5.19,6.66-7.36,6.65-1.84,0-3.63,0-5.12,1.29-.24.22-.76.51-.89.42-2.43-1.83-4.93-3.43-8.19-2.89,1.28-2.5-1.76-4.86-.38-7.23,1.77-3,1.76-6.43,1.56-9.58-.22-3.38,1.71-3.9,3.87-3.89a57.12,57.12,0,0,1,9.74,1c2.46.45,3.62-.22,3.95-2.72.86-6.43.41-7.38-5.78-10.91A1.7,1.7,0,0,1,367.6,204a1.44,1.44,0,0,1,1.27-1.39,25.17,25.17,0,0,1,3-.29c.44,0,1.25.24,1.29.14,1.41-3.49,5.52-1.61,7.58-3.85a3.73,3.73,0,0,0,1.17-3Z" transform="translate(-29.88 -108.99)"/><path class="cls-2" d="M392.83,219.53c0-3.06.78-6.26-1.35-9-.48-.61-.1-1.1.14-1.52.57-1,1.24-1.88,1.88-2.81,2-3,1.75-3.88-1.51-5.07-2.85-1-5.85-1.89-7.41-4.9.33-2.06,2.26-2.73,3.46-4,2.34,1.61,3.56.52,4.31-1.77a5,5,0,0,1,1.17-2.33l1.37-.64a12,12,0,0,1-1.07,5.27c-1.73,4.34-1.54,5.54,1.94,8.45.46.38,1,.76.64,1.34-1.74,2.59.66,2.49,2,3a11.34,11.34,0,0,0,5.72.26c2.68-.38,3.37-2.66,2-4.88-.74-1.2-3-2.75.14-4.16,4.16-1.87,4.93-5.86,2.11-9.86l-1.17-1.65c2.13-2,2.23.73,3.24,1.37a6.54,6.54,0,0,1,.72,1.89c1.73,7.31,7.28,11.26,14.69,10.45,2.18-.23,3.5-1.88,2.91-4a11.24,11.24,0,0,1-.49-5.31c.31-1.64-.83-2.46-2.4-2.65s-3.19.2-4.7-.51c-.89-1.28,0-2.3.49-3.39,1.88.2,1-2.41,2.57-2.52,1.82,1.31,4.08,1.92,5.67,3.61a1.42,1.42,0,0,0,2.12.1,1.82,1.82,0,0,0,.81-1.75c-.19-1-1-1.08-1.8-1.22-2.21-.39-4.46-.34-6.68-.64-.57-.37-1.07-.77-.77-1.56,3-2.61,6.24-.41,9.38-.37.95,0,1.81,1,2.88.37-1.42-2.55-2.36-2.84-6.24-1.93-.74-1-1.06-2.66-3-2.1-.94.28-1.88.33-2-.95-.14-1-.14-2.17.94-2.69,3.76-1.83,7.54-4,11.76-1.12a13.58,13.58,0,0,0,.13,5.64c.59,2.45,1.86,4.19,4.45,4.45a3.75,3.75,0,0,1,3.59,3c.16.53.31,1.24.71,1.5,2.64,1.74,3.5,3.84.57,7.5,4.36-2.13,6-1.21,7.72,2.18,1.58,3.1,6.06,2.62,9.23,3.77,4.26,1.54,5.14,4,2.27,7.68-.66.84.13,2.74-1.87,2.6a2.54,2.54,0,0,1-1.21-1.6,2.75,2.75,0,0,1,.39-1.62c2.13-3.88,2.1-4.47-2.25-5.49-3.84-.9-7-2.39-9.35-5.6-1.32-1.79-3.38-1.12-4.61-.14-2.63,2.1-5.28,1.64-8.09.9a16.22,16.22,0,0,0-3-.55c-2-.12-4-.4-3.73,2.7.08,1-1.15,1.64-1.68,2.5-1.31,2.13-.75,3.36,1.68,3.92,1.68.38,3.11-.28,4.63-.78,3.44-1.14,5.68-.07,7,3.19-.65,1.22-1.46.34-2.36.12.67.77,1,2.46,2,.34,2.1-.09,3,1.58,4.26,2.78-.31,1.87-1.67,3.09-2.76,4.48-3.11,1.06-4.14.58-5-2.4a14.16,14.16,0,0,0-.76-2.61,5.8,5.8,0,0,0-1.34-2c-2.81-2.27-10.34.41-11.15,3.93a2,2,0,0,0,.56,2.18c2.83,2.18,5.45,4.84,9.66,3.31,2.22-.8,4.51-.7,6.19,1.43.35,1.4,0,2.4-1.52,2.75-1.53-1.57-3.18-2.34-5.35-1.08a4.91,4.91,0,0,1-3,.22c-.88-.1-1.91-.42-2.17.89a2.29,2.29,0,0,0,1.35,2.79c1.36.61,3.81.51,3.55,2.43-.32,2.28-2.66.51-4,1-2,.75-4.08,1.31-5.58,3-.55.63-.87,1.68-2.05,1.43-1.53.17-1.45-1.21-1.94-2,.3-.33.72-.53,1-.87.48-.58.27-1.28.24-1.94-.52.13-.59,1.11-1.38.75,0-3.15-1.24-5-4.6-5.92-3.83-1.1-6.25-4.54-8.88-7.42a3.25,3.25,0,0,0-1.53-1.22c-2.05-3.07-2.66-3.25-5.75-1.66a24.76,24.76,0,0,1-3.11,1.39c-3.9,1.38-3.95,1.49-2.24,5.25C395.12,218.28,394.27,219.38,392.83,219.53Z" transform="translate(-29.88 -108.99)"/><path class="cls-2" d="M718.13,350.18c8.3-.69,14.93,3.53,22,6.18,3.26,1.23,4,5.67,7.76,6.61.23.06.49,1.09.4,1.15-4.08,2.72.59,4.15,1.18,5.87.65,1.89,3.07,3.16,4.9,4.88.67-1.48-.81-1.72-.82-2.53.37-.47.79-.25,1.16,0,1,.61,2,1.3,1,2.64a2,2,0,0,1-2,1c-3.38-1-7-1.09-9.23-4.76-2.65-4.46-4.68-4.42-7.61-.4-1.31,1.79-5,2.22-7,.43-1.64-1.45-3-2.62-5.34-1.55-.54.24-1.67.43-2-.6a1.56,1.56,0,0,1,.71-1.79c3.3-2.19,1.36-4.47-.26-6.11-2.5-2.55-6.55-2.37-9.36-4.56-3,2.5-3.49-1.06-3.36-2,.44-3.25-1.53-3.93-3.81-4.71a1.75,1.75,0,0,1-.86-1.34c0-.79.82-.52,1.31-.69s1.23-.55,1.85-.82c3.1-1.32,5.92.29,6.12,3.62A4.79,4.79,0,0,0,717,354.6c1,.61,1.58-.88,2.27-1.59C720.91,351.3,718.42,351.21,718.13,350.18Z" transform="translate(-29.88 -108.99)"/><path class="cls-1" d="M201.48,392.33c-2.75,0-1.19,3.69-3.47,4.12-3.2-2.95-7.72-3.89-10.83-6.86-4.3-4.09-5.59-10.07-8.79-14.9a62.37,62.37,0,0,1-3.72-7.56c2.83-1.5.67-2.91-.26-4.52a8.26,8.26,0,0,0,5.58-5.16c.93-2.36,4.23-3.81,6.53-5.59a1.3,1.3,0,0,1,1.19.29c1,3.4,4.1,2.39,6.45,2.89-.12,1.58-1.42.92-2.07,1.35-.84.54-2,.38-2.68,1.35-1.92,2.94-2.25,6.51-3.4,9.71-.78,2.16,1.53,5.37,3.81,7.05,2.8,2.07,5.18,4.67,8.7,5.9,1.81.63.78,3.25.71,5,0,1-.75,1.87-1.11,2.83-.92,2.46-.18,3.73,2.58,3.49C201.34,391.44,201.53,391.74,201.48,392.33Z" transform="translate(-29.88 -108.99)"/><path class="cls-2" d="M677.07,331c-4.44,2.42-5.87,6.19-1.14,11.49-4.28,2.85-5.52,7.37-6.54,12-.2.9.53,2.33-1.26,2-1.31-.24-2.54,2.52-4-.15-.76-1.41-2.58-1.42-4.22-.92a4.18,4.18,0,0,1-2.79-.48c-5-1.86-5.16-6.38-6.4-10.22-1.11-3.42.24-4.65,3.81-4,.79.15,1.45.29,1.44-.68,0-2.27,1.37-2.86,3.24-3.1a1.77,1.77,0,0,0,1.17-.6c2.24-4.13,7.56-5.55,9.06-10.36.32-1,1.1-1.55,1.83-.13C672.46,328.15,674.61,329.43,677.07,331Z" transform="translate(-29.88 -108.99)"/><path class="cls-1" d="M185,316.54c2.32-.31,3.77.14,2.82,3-.2.62-.08,1.58.54,1.85,2.92,1.25,4.08,5.49,8.13,4.75a1,1,0,0,1,.66.1c.25.19.63.53.58.72-.76,3.55,4.68,4.9,3.06,8.82-.44,1.08-1.21,1.21-2,1.58-1.48.71-3,1.5-2.8,3.44a74.55,74.55,0,0,0,1,8.46c.35,1.72.25,1.75-1.61,2.35-4.06,1.29-4.48-1.78-5.11-3.76-1.24-3.9-4.3-5.07-7.55-5.89-2.83-.71-3.56-1.75-1.65-4.11a3.45,3.45,0,0,0,.49-2.94c-1-5.23.43-9.84,3.53-14,1.09-1.46-.12-2.58-.15-3.86A1.14,1.14,0,0,1,185,316.54Z" transform="translate(-29.88 -108.99)"/><path class="cls-1" d="M499,380.07c2.75,3,3.85,7.66,2.62,9.53-2.57,3.92-2.42,8.34-4.18,12.28-1.94,4.34-3.2,9-4.82,13.46a5.15,5.15,0,0,1-5.68,3.35c-2.52-.25-3.44-2.39-3.86-4.92-.59-3.5-.51-6.65,1.86-9.54,1.16-1.43.95-3.15.57-4.89-1.06-4.85,0-6.47,4.51-8.58,1.91-.89,4-2.05,4.75-4.17C495.66,384.08,497.89,382.63,499,380.07Z" transform="translate(-29.88 -108.99)"/><path class="cls-3" d="M642.38,362.28c-3.88,1.17-5.66-2.07-7.71-4.08a26.09,26.09,0,0,1-4.94-7.19c-3.05-6.21-6.31-12.37-11.8-16.95-1.35-1.12-2.83-2.42-2.13-4.7,3.54.63,6.7,1.41,9,4.76,2.56,3.78,7,5.5,10.61,8.21.75.57,1.87,1.65,2.91.14l0,0c.44,0,1-.07,1.31.16.58.45,0,.68-.36.93-2.18,1.77-2.19,3.12-.3,5.16a12,12,0,0,1,1.44,2.94c1.61-2,3-2.55,4,.48.37,1.13,1.73,1.66,3.15.84a1,1,0,0,1,1.51.85c.09.7-.53.82-1.16.84-4.68.13-4.7.14-4.87,4.66a6.94,6.94,0,0,1-.61,2.95Z" transform="translate(-29.88 -108.99)"/><path class="cls-4" d="M686.47,253.33c-.25-1.5,2.61-2.16.16-3.58-.64-.37.51-.76,1-.72a2.36,2.36,0,0,0,2.49-1.37c1.75-3.36,4.77-4.26,8.21-4.22,1.59,0,1.2-1.25,1.69-2,.75-1.19-.45-2.47.37-3.56,1.17-.41.69,2.24,2.17,1.11,1-.79,2.1-1.58.1-2.52,0,0,.18-.75.32-.76,4.35-.41,1.34-3,1.19-4.53-.07-.69-.8-1.52-1.15-2.35-.57-1.32-.53-2.64.53-3.41,1.51-1.1,1.75.77,2.45,1.45,2.49,2.44,4.29,5,3.35,8.92-.36,1.5.87,3.73,1.6,5.29,1.81,3.83-.07,4.83-3.1,5.46-2.11.43-4.32.57-4.86,3.33-.11.57-.82,1.07-1.28.49-1.41-1.75-2.11.25-3.1.35-1.52.15-1.64,3.37-3.88,1.57-.32-.25-.46.86-.46,1.35,0,1.33-.17,2.82-1.56,3.05s-2.48-1.21-2.95-2.39C689,252.43,688.07,252.05,686.47,253.33Z" transform="translate(-29.88 -108.99)"/><path class="cls-1" d="M355.24,332.94c-3.6-1.14-5.81-4.16-8.55-6.43-1.75-1.45-4.78-2.27-4.78-4.82,0-4.12-3.64-5.34-5.4-8-.65-1-2.91-.53-2.46-2.62,2.55-2.24,5.09-2.24,6.26,0,.12-.09-.07.77.1.08.6-2.48,2.28-1.29,3.52-1,2.42.48,4.8,1.18,7.3.71.76-.14,1.55-.05,1.78.6,1.29,3.53,3.06,7,1.95,11a2.42,2.42,0,0,1-2.06,1.94c-1.38.25-1.35-.83-1.45-1.74-.18-1.65-2.21-.86-2.44-1.84,3,1.8,4.85,5.09,6.95,8.13C356.81,330.11,356.37,331.73,355.24,332.94Z" transform="translate(-29.88 -108.99)"/><path class="cls-2" d="M366.87,182.68c-.06-.74-1.37-.71-.78-2.17.47-1.16,1-3.29-.55-4.65-.77-.67-.81-1.33-.07-2,.41-.37.95-.76,1.52-.46,1,.51-.64,1.46.47,2.16,1.29-2.93,5.36-1.83,6.62-5.7,1.08,3-1.22,3.68-1.55,5.24.81,1.3,2.4.06,3.48,1.16-1.29,1.92-2.27,3.7.08,6s2.8,5.87,6,7.53a1.46,1.46,0,0,1,.15,2.38c-1.22,1.13-.54,2.26-.33,3.42l0,0c-3.83,1.37-8,1-11.88,2a16.65,16.65,0,0,1-3.55,1,7,7,0,0,1,5.18-3.89l-4.19-1.53c.91-1.19,3.36-1.52,1.79-3.67-.34-.46.61-.72,1.18-.75,2.37-.15,2.26-1.6,1.33-3a5.84,5.84,0,0,0-4.94-3.1Z" transform="translate(-29.88 -108.99)"/><path class="cls-1" d="M396.15,217.47a2.88,2.88,0,0,1-2.13-3.35,3.1,3.1,0,0,1,2.86-2.49c2.27-.17,4-1.33,5.71-2.46,2-1.29,3.17.5,4.61,1,1.18.43.44,1.51.05,2.3-1.72,1.44-2,3.09-.43,4.75,3.66,3.9,7.23,7.92,12.12,10.42,1,.49,1.61,1.29,1,2.48-.88.33-1.23-.39-1.72-.8s-1.08-.94-1.71-.17c-.4.49-.54,1.2-.09,1.56,1.82,1.44.27,2.45-.24,3.74-.79,2-4.09,2.23-3.39,5.26.1.47-1.34.42-2.07,0-1.08-.61-2.15-1.25-3.26-1.81-.73-.37-1.56-.68-1.18-1.7s1.21-1,2-.87c.55.09,1.16.62,1.59.49,1.53-.47,3.54,0,4.39-1.93s-.13-3-1.49-4.08c-2.65-2.07-5.28-4.18-8-6.22-1.71-1.29-3.23-2.48-3.87-4.84S398.3,215.88,396.15,217.47Z" transform="translate(-29.88 -108.99)"/><path class="cls-1" d="M424.33,231.13c2.56-4.24,6.26-6.07,11.37-5-.7-1.74-2-1.62-3.19-1.81-1.76-.28-2.74-1.08-2.56-3.19s.35-3.67,3.19-2.42c1.31.58,2.75.06,4.18-.67,2.16-1.12,4-.8,4.08,2.29,1.05,1.79,1.93,3.67,2.94,5.48-1.51,2.35-4,2.29-6.31,2.34-1.79,0-3.56-.64-4.38,1.8-.23.68-1.41.4-2.25.52a7.45,7.45,0,0,0,2.61,3.64c1.73,1.25,1.87,2.57-.05,3.68-1.22.7-1.42,2-2.16,3a1.6,1.6,0,0,0-.07.57c-.86.5-1.36-.25-2-.58-2.2-.24-1.74-3.07-3.6-3.61.92-1.86,2.6-.19,4.35-1C427.4,235.23,424.76,234.38,424.33,231.13Z" transform="translate(-29.88 -108.99)"/><path class="cls-3" d="M695.68,370.5c-4.1,1.2-7.07,4.48-11.11,5.95,1.15-1.47,1.51-3.54,3.46-4.26.92-.34,1.41-1,1.14-1.73-.34-.94-1.45-.68-2.1-.42-5.3,2.14-11.05,1.33-16.36,1.28a58.74,58.74,0,0,1-17.42-2.61c-2.74-.89-5.69-.47-8.27-1.69-1.91-.9-4.57-1.61-2.64-4.74l0,0c2.77.27,5.52.49,7.81,2.44a2.62,2.62,0,0,0,2.29.21c3.44-1.71,6.66,1,10.05,0,.18,1.9-1.63,1.06-2.06,1.93,6,2.68,12.29,2,18.45,2.51,4.11.36,8-1.46,12-.28C692.47,369.64,694.78,367.66,695.68,370.5Z" transform="translate(-29.88 -108.99)"/><path class="cls-3" d="M691.84,340.53c-.63,3.58-2.68,4.5-5.71,4.09-1.68-.22-3.41,0-5.12-.1a1.74,1.74,0,0,0-2,1.44,2.87,2.87,0,0,0,1.24,2.65c1.13,1,1.68-.13,2.14-.75,1.44-1.93,3.08-.25,4.58-.25.65,0,.54,1.4.44,2.14-.16,1.1-.93.75-1.49.33-1.14-.85-1.63.27-2.3.72-1,.68-.4,1.42.13,2,1.21,1.29.49,3.47,2.48,4.57.91.51.17,2.33-.21,3.51-.21.69-.76.52-1.37.5a2.24,2.24,0,0,1-2.37-2.2c-.18-2-2.26-3.31-1.55-5.59-1.47,2.11-1.38,4.39-1.45,6.62,0,.95.15,1.83-1.29,1.73s-1.57-1-1.24-2.12c.45-1.53,1.09-3-1-4-.95-.5-.65-1.87-.21-2.82a32.18,32.18,0,0,0,2.5-8c.4-2.28,2.06-3.55,4.11-3C685.68,343.05,688.93,343.93,691.84,340.53Z" transform="translate(-29.88 -108.99)"/><path class="cls-5" d="M687.47,311.08c0-1.58,1-1.63,2.06-1.27a2.81,2.81,0,0,1,1.58,3.36c-1.31,1.91.15,2.54,1,3.61,2.59,3.26,3,8.32.93,11.1-.43.57-.26,2.16-1.57,1.46s-2.93-.63-3.38-2.49c-.21-.88,1.07-2.67-1.44-2.5-2,.13-3,.76-2.81,3.76-1.67-2.46-1.22-4.16-.16-5.26.87-.91,1.59-3,3.79-1.68,1,.57,3.75-2.27,3.26-3.24-.62-1.23-1.2-.92-2.29-.13s-2.94,3.53-4.31.86c-1-2-2.87-4-2.1-6.86a5.5,5.5,0,0,1,3.48,1.55c.66.75,1.39.39,2-.32s1.4-1.34,0-2Z" transform="translate(-29.88 -108.99)"/><path class="cls-6" d="M479.68,127.47c5.88-3.41,12.32-3.37,18.78-3.41-2.32,2.22-5.28,2.61-8,3.1-4,.72-6.18,3.54-8.55,6.2-1.16,1.31,0,2.43.85,3.53s2.25,1.38,3.44,2.07c-4,1.32-7.59,0-11.06-1.71-.8-.4-.64-1-.23-1.92a45.29,45.29,0,0,1,3.54-5.93C478.7,128.66,478.63,127.7,479.68,127.47Z" transform="translate(-29.88 -108.99)"/><path class="cls-2" d="M335.16,155l2.68-.69c-.37-1.67-1.94-.34-2.48-1.38.34-1.57,3.45-2.76,4.89-1.49,1.06.93,1.58.82,2.79.34,2.56-1,5.43-.29,8.16-1.43,1.71-.72,3.11,1.51,3.86,3,.83,1.72-1,2.49-2.09,2.91-4.31,1.62-8.5,4.38-13.45,1.88-.91-.45-2.74.56-1.64-1.92C338.33,155.21,336.25,155.64,335.16,155Z" transform="translate(-29.88 -108.99)"/><path class="cls-1" d="M192.5,124.48c1.84-1.46,2.43.27,3.25,1.24,1.48,1.76,2.52,2.5,3.84-.31.91-1.93,5.23-1.5,6.26.39a1,1,0,0,1-.58,1.37,9.57,9.57,0,0,1-3.48,1.28,53.38,53.38,0,0,0-12.07,1.49c-1.95.47-3.22-2-5.44-2.24-2-.26-4.05-1.56-6.3-2.21,5-1.16,9.69-3.06,14.78-3.46a1,1,0,0,1,.82.38C194,123.46,192.4,123.28,192.5,124.48Z" transform="translate(-29.88 -108.99)"/><path class="cls-7" d="M687.47,311.07c-2.22,2-3.76-1.54-5.88-.53.81-1.21,1.83-.53,2.73-.52a1.74,1.74,0,0,0-.46-2.17,2.14,2.14,0,0,0-3.1.67c-.41.6.2,2.25-1.38,1.53-1-.45-2-1.58-1.71-2.67.23-.87.35-1.47-.23-2-3.41-3.3-1.73-7.35-1.77-11.17,0-1.91,2.53-2.06,2.49-4.08-.27,2.27,2.23,2.68,2.6,4.6s1,3.48-.52,5.33c-1.3,1.6.19,4.11,2.21,4.49,1.2.23,2.32.87,3.52,1.06s1.12.4.9,1.65c-.17,1-1.34,2.9.6,3.86Z" transform="translate(-29.88 -108.99)"/><path class="cls-8" d="M355.24,332.94c.5-1.95.92-3.42-1-5.41-1-1-3.22-2.32-3.19-4.55a1.19,1.19,0,0,0-.55-.77c-2.27-1.38-2.27-1.37-2.36-3.82.6,2.16,3.38,2.25,4,4.78.32,1.35,1.81.3,2.35-.73.92-1.75-.16-10.11-1.81-10.55a50.4,50.4,0,0,0-11.26-1.33c-.6,0-.91,2.47-2.84,2.31.34-1,2.06-1.59,1.14-2.76-.69-.87-1.92-.49-2.82-.06s-2.12,0-2.8,1c-2.22-1.33-1.38-3.07-.66-4.8,2.37.18,4.89-1.56,7.34.73-2.21,1.29-5.08.23-7.09,2.07,1.52,1.4,3,.22,4.15-.15,3-1,6.12,2.58,8.83-.56,1,4.2,8.8-.79,8,5.9-.06.55.38.95,1,1.23,1.54.71,2.73-1,4.07-.62,2.84.81,1.54-1.55,1.94-2.49.2-.46,0-1.25.73-1.18,1.2.12.53,1,.38,1.52-.41,1.29-.91,2.53.07,4a15.57,15.57,0,0,0-3-.32c-2.18.23-5.61-.8-3.95,3.71.26.7-.24,1.76-.54,2.59-.69,1.89-1.1,3.56.66,5.26,1.35,1.3.44,3.26.65,4.92Z" transform="translate(-29.88 -108.99)"/><path class="cls-1" d="M222.61,330.17c.68-2.7,2-4.92,4.68-6.1l3.55,4.07c0,.23,0,.5-.07.67a7.45,7.45,0,0,0,0,9.35c1,1.46-.37,2.11-1.4,2.39-1.44.39-2.84,2.49-4.48.39-.77-1-1.67-2.17-1.22-3.39C224.71,334.82,223.71,332.52,222.61,330.17Z" transform="translate(-29.88 -108.99)"/><path class="cls-3" d="M366.83,182.64c1.58,5.14-3.24,11.7-8.49,11.6a2.09,2.09,0,0,1-2-1c-.51-.92.08-1.39.75-1.94.88-.71,1.43-1.32.61-2.78-.6-1.06-.82-3.35,1.93-3,.3,0,.86,0,.88-.13.91-3.83,4.12-2.21,6.4-2.73Z" transform="translate(-29.88 -108.99)"/><path class="cls-6" d="M541,117.84c-4.71.18-8.17-2.69-12.19-3.83-1.45-.41-.88-2.28.24-3.38,2.58-2.51,5.15-1.33,7.53.24,1.3.86,2.3,1.71,4.11,1.76,2.13.07,3.3,2.58,3.44,4.08C544.35,118.85,541.89,117.31,541,117.84Z" transform="translate(-29.88 -108.99)"/><path class="cls-3" d="M191.74,287.72c-3,1.79-5.85.31-8.4,1.29-.13.05-.57-.3-.66-.55-1.29-3.52-3.32-4.67-7.21-6.09a10.73,10.73,0,0,0-9.05.71c1.53-3.62,4.78-4.07,7.76-3.91A18,18,0,0,1,184,283C186.34,284.68,188.93,286,191.74,287.72Z" transform="translate(-29.88 -108.99)"/><path class="cls-9" d="M222.61,330.17c2.49,1.55,2.37,3.86,1.67,6.2a4.23,4.23,0,0,0,1.35,4.61c1.29,1.21,2.16-.62,3.34-.75,1.6-.17,2.17-1.6,1.12-2.71-3.29-3.51-1.28-6.4.75-9.38,2.47.43,5.1-.83,7.46.72-1.37,0-2.74,0-4.1,0-3.8.09-5.62,3.23-3.91,6.7.35.7.58,1.47.91,2.18.48,1,.89,2.27,2.33.82a2,2,0,0,1,1.58-.51c2.47.44,2.78-.91,2.56-2.84a13.24,13.24,0,0,1,.09-1.87c2.29,1.61-.61,5.7,3.58,6.18a24.84,24.84,0,0,0-14.19,2.73c-1.15.57-2-.16-2.63-1a6.72,6.72,0,0,1-1.27-4.13c-.08-1.43,1.64-3.67-.54-4.15a5.34,5.34,0,0,0-5.57,2.68l-3.84-1.12A13.73,13.73,0,0,0,222.61,330.17Z" transform="translate(-29.88 -108.99)"/><path class="cls-10" d="M193.74,292.64c.48-1.46-1-3.53.2-3.89a12.2,12.2,0,0,1,6.26.1c1.68.43,3.13,1.76,4.63,2.78a1.36,1.36,0,0,1,.44,1.16,1,1,0,0,1-1.29.78,12.4,12.4,0,0,0-6.34.93c-1.61.55-4.67-.62-7.09-1-.19,0-.43-.54-.42-.82,0-.6.54-.66,1-.59C192,292.26,192.88,292.46,193.74,292.64Z" transform="translate(-29.88 -108.99)"/><path class="cls-11" d="M212.32,136.36c-.47,1-1.25-.08-1.81.27-2.58,1-5.12,1.84-7.1-1.18-.4-.61-1.43-.91-.81-1.87a1.37,1.37,0,0,1,2.06-.5c1.24,1,1.49,1.08,2-.77s2.75-1.63,4.38-1.47c1.29.13,2.93-1.68,3.63-.08.56,1.28-.72,2.83-1.78,4C212.49,135.19,211.61,135.51,212.32,136.36Z" transform="translate(-29.88 -108.99)"/><path class="cls-1" d="M175.37,342.3c.15,3.7,3,5,5.88,6.36-1.59,2.32-4.77,2.44-6,4.91a.84.84,0,0,1-1.19.28c-.89-.49-.65-1.39-.62-2.13.08-2.05,1.1-4.3-1.36-5.74C172.61,344.26,172.8,342.2,175.37,342.3Z" transform="translate(-29.88 -108.99)"/><path class="cls-9" d="M57.1,176.36c-.05-.94-.55-2.4,1.24-1.83,3.47,1.12,5.44-1.66,8.24-2.5-.91-1.66-2.28-.35-3.54-1.2,2.31-2.07,4.64-2,7.13-1.14-.09,1.11-4.11.66-1.26,3.21.26.24-2.33,2.59-3.84,3.34a31.16,31.16,0,0,1-8.25,3.26c.32-1.43,2.49-1.55,1.89-3.2C58.65,176.15,57.66,176.33,57.1,176.36Z" transform="translate(-29.88 -108.99)"/><path class="cls-6" d="M576.4,317a14.1,14.1,0,0,1,5.57,7.73c.75,2.13-.88,3.47-2.72,4-2.08.56-2.08-1.31-2.66-2.65C575.33,323.09,577.12,320.36,576.4,317Z" transform="translate(-29.88 -108.99)"/><path class="cls-1" d="M185,274.19c1.35-2.65,1.35-4.61-3-4.41,4.25-2.17,4.4-2.16,4.77,1.39.13,1.2,1,1.56,1.61,1.93,3.18,1.92,1.6,7.46,6.3,8.17.26,0,.2.43-.18.66-2.29,1.4,0,.94.48,1.09,1,.32,2.09-1.11,3.52.52-2.76-.46-3.54,2.06-5.53,2.79.88-4.34-2.22-6.1-4.8-8,0-1.1,2.88-.21,1.22-2.16-1.18-1.39-1.92-3.65-4.45-2Z" transform="translate(-29.88 -108.99)"/><path class="cls-12" d="M689.82,350.69c.22-.59.66-.46,1.09-.36,1.89.46,4.51,1.23,5.49-.05,1.12-1.45,1.08-4,1-6.13-.18-3.27-.21-3.67,3-6.27-.46,1.71-.53,2.86.4,4.33,1,1.64-1.06,3.57-1.5,5.5C698.3,352,695.31,352.76,689.82,350.69Z" transform="translate(-29.88 -108.99)"/><path class="cls-2" d="M760.43,357.88c-.14-1.91-1.84-2.15-2.2-3.54,2.79-1,2.53,1.81,3.49,2.86.67.75.59,2-.91,2.3a1.53,1.53,0,0,0-.88.46c-3.18,4.58-7.1,4.38-11.73,1.57,2.53-.23,4.75-.51,7-.62a2.66,2.66,0,0,0,2.41-1.62C758.16,357.9,758.67,356.88,760.43,357.88Z" transform="translate(-29.88 -108.99)"/><path class="cls-6" d="M545.8,118.07c-.09-1.71.4-2.73,2.53-2.26,1.82.4,3.76.36,5.3,1.57a2.59,2.59,0,0,1,1,1.71c0,1-.9.72-1.53.82a19.46,19.46,0,0,0-4.3.79C545.8,122,545.87,120,545.8,118.07Z" transform="translate(-29.88 -108.99)"/><path class="cls-13" d="M400.25,220.39c-2.19,3.87.48,7-.45,10.32-.38,1.36-.66,2.53-2.21,2.46-1.79-.08-1.23-1.62-1.24-2.63,0-1.39-.57-2.94,1.13-4,1-.59.16-1.41-.15-2.08C396.38,222.43,397.29,221.33,400.25,220.39Z" transform="translate(-29.88 -108.99)"/><path class="cls-1" d="M204.13,447c4.63-1.08-.19-3.91,1.19-5.86,1.65,2.48,4.5,4.42,1.57,7.82a3.2,3.2,0,0,0-.58,3.25c1.37,3-.58,2.46-2.26,2.33-.9-1-1.52-1.9-.5-3.25S203.86,448.43,204.13,447Z" transform="translate(-29.88 -108.99)"/><path class="cls-1" d="M202.07,406.75c.77-1,1.35-.47,1.86.25a10.71,10.71,0,0,1,2,5.7c.07,2.4-1.88,2.62-3.84,2.19C201.1,412.18,202.21,409.46,202.07,406.75Z" transform="translate(-29.88 -108.99)"/><path class="cls-3" d="M675.83,276.58c0,.93,0,1.51,0,2.07-.16,1.3-.28,3.42-1.47,3.33-1.58-.11-2.06-2.18-2.34-3.75-.1-.5.29-1.08.37-1.63.2-1.44.76-3,2.26-2.92C676.66,273.81,675.65,275.75,675.83,276.58Z" transform="translate(-29.88 -108.99)"/><path class="cls-7" d="M223.36,120.64a6.84,6.84,0,0,1-6.87.29c-.63-.3-1.65-.53-1.06-1.68a2.15,2.15,0,0,1,1.71-1.44,10.4,10.4,0,0,1,6.15,1.37A1.09,1.09,0,0,1,223.36,120.64Z" transform="translate(-29.88 -108.99)"/><path class="cls-12" d="M705.74,356.62a12.19,12.19,0,0,0-9.78,0,1.59,1.59,0,0,1-1.82-.49,1.18,1.18,0,0,1-.27-1.53,1.42,1.42,0,0,1,1.84-.38c1.33.75,2.31,0,3.45-.45C702.53,352.58,705,353.59,705.74,356.62Z" transform="translate(-29.88 -108.99)"/><path class="cls-1" d="M393.52,188.11c.42,2.61-1.49,4.3-2.49,6.51-.89-1.06-2.8-.59-3-2.41C388.8,189.42,390,187.22,393.52,188.11Z" transform="translate(-29.88 -108.99)"/><path class="cls-14" d="M240.41,209.35a3.34,3.34,0,0,1-4.41,2.44c-1.85-.47-3.74-1.32-3.06-3.93.34,0,.81-.22,1-.06,2.85,2.39,4.95,2.13,6.1-2.5C240.79,207.17,238.69,208.45,240.41,209.35Z" transform="translate(-29.88 -108.99)"/><path class="cls-15" d="M223.36,120.64c0-.49,0-1-.07-1.46.82.28,1.55,1,2.54.42a5.37,5.37,0,0,1,1.24-.5c2-.6,3.16.65,4.36,1.84.36.35.46,1,0,1.17a5.82,5.82,0,0,1-4.61.12C225.66,121.8,225.07,120,223.36,120.64Z" transform="translate(-29.88 -108.99)"/><path class="cls-1" d="M202.2,427.15c1-1,.52-2.35.57-3.54,0-1.37,0-2.73,1.67-3.51,1.52,2.29.48,4.92.7,7.29.13,1.3-1.84,1.65-3.11.38A1.23,1.23,0,0,1,202.2,427.15Z" transform="translate(-29.88 -108.99)"/><path class="cls-16" d="M198.45,122.15c3.12-2.47,6-3.36,9.41-2.5C205.15,121.29,202.59,123.41,198.45,122.15Z" transform="translate(-29.88 -108.99)"/><path class="cls-17" d="M705.13,444.22c3.93.32,0,2.47.81,3.5a5.61,5.61,0,0,1-4.6,1.12C702.12,446.74,703,445,705.13,444.22Z" transform="translate(-29.88 -108.99)"/><path class="cls-7" d="M675.73,312.83c1.28,3.37,1.19,3.53-5.57,9.81C671.41,318.48,675.57,316.82,675.73,312.83Z" transform="translate(-29.88 -108.99)"/><path class="cls-13" d="M95.42,192.77c-1.38-5.65-.71-6.81,3.31-6.35C97.05,188.05,96.44,190.1,95.42,192.77Z" transform="translate(-29.88 -108.99)"/><path class="cls-1" d="M422.26,227.05c1.25-1,.13-2.64,1.34-4a10.17,10.17,0,0,1,1,5.63c-.15,1.26-1.47.35-2.27.38Z" transform="translate(-29.88 -108.99)"/><path class="cls-16" d="M458.67,243.73c-1.2,1.32-1.58,3.64-4.06,3.21-.6-.11-1.12-.71-.88-1.22C454.73,243.57,457,244.53,458.67,243.73Z" transform="translate(-29.88 -108.99)"/><path class="cls-3" d="M674.57,373c3.72-1.15,4.46-.65,4.36,2.61Z" transform="translate(-29.88 -108.99)"/><path class="cls-18" d="M220,160.3c0,.89-.58,1.12-1.08,1.32-1.09.44-2,1.51-3.38.9-.15-.07-.24-.64-.12-.84a3.28,3.28,0,0,1,3.43-1.58A8.63,8.63,0,0,1,220,160.3Z" transform="translate(-29.88 -108.99)"/><path class="cls-19" d="M185.3,294.25c-.29.18-.46.37-.64.38-1.42.07-2.94.56-4-.86a.61.61,0,0,1,.39-1C182.68,292.49,184.34,292.35,185.3,294.25Z" transform="translate(-29.88 -108.99)"/><path class="cls-1" d="M472.72,142.31c.74.11,1.83-.1,1.82,1,0,.91-.92,1.17-1.78,1.14s-1.76.11-1.78-1S471.92,142.35,472.72,142.31Z" transform="translate(-29.88 -108.99)"/><path class="cls-20" d="M212.5,293.25c-1.6,1-2.73,1.87-4.26.91-.43-.27-.56-1-.23-1.15A4.7,4.7,0,0,1,212.5,293.25Z" transform="translate(-29.88 -108.99)"/><path class="cls-1" d="M241.57,201.19c-1.78.22-3.34,0-4.2-1.95C239.43,198.65,240.59,199.72,241.57,201.19Z" transform="translate(-29.88 -108.99)"/><path class="cls-1" d="M185,274.19c-1.07,1,.4,2.6-.87,4-.85-1.41-2.09-2.35-1.15-4,.63-1.09,1.35-.24,2,0Z" transform="translate(-29.88 -108.99)"/><path class="cls-21" d="M213.23,181.22c-.86.06-1.53-.18-1.29-.8a4,4,0,0,1,1.53-2c.47-.27,1.29.5,1.29,1.17C214.75,180.57,213.76,180.85,213.23,181.22Z" transform="translate(-29.88 -108.99)"/><path class="cls-1" d="M202.58,430c2.33,1.28,2.13,2.65.14,4.08C201.4,432.74,203.18,431.31,202.58,430Z" transform="translate(-29.88 -108.99)"/><path class="cls-1" d="M46.92,168a4.57,4.57,0,0,1-5.13.92C43.88,168.1,45,167.23,46.92,168Z" transform="translate(-29.88 -108.99)"/><path class="cls-4" d="M698.63,212.81c1.38,2.76,3.18,5.17,1,8.05-.06.08,0,.23-.06.34-.92,2.19,1.28,3.13,2.23,3.49,1.62.61.67-1.27,1-2,.69-1.45,1.52-.55,2.46-.08s1.52,1.13,3.12-.31c2.13-1.9,2.16-4,3-6.12C706.25,218.8,702.81,214.52,698.63,212.81Z" transform="translate(-29.88 -108.99)"/><path class="cls-4" d="M711.34,216.18l.07,0,0,0Z" transform="translate(-29.88 -108.99)"/><path class="cls-4" d="M711.45,216.09c1.72-.3,1.89-2.06,3.22-3.12C711.76,212.6,712.24,214.92,711.45,216.09Z" transform="translate(-29.88 -108.99)"/><path class="cls-4" d="M711.41,216.15a.21.21,0,0,1,0-.06l-.08,0Z" transform="translate(-29.88 -108.99)"/><path class="cls-13" d="M221.43,164c-.07-1.44.82-1.94,1.94-2.34C223.25,163.26,223.25,163.26,221.43,164Z" transform="translate(-29.88 -108.99)"/><path class="cls-22" d="M501.09,213.76c-.6.45-1,.72-1.63.35-1.63-1-3.93-1.52-4.8.1a4.32,4.32,0,0,0,1.72,5.72c1.11.69,2.67.81,2.56,2.69,0,.63.53.57,1,.38,3.16-1.35,2.95,2,4,3.19.74.9-.79,1.51-1.91,1.38-.62-.08-1.34-.68-1.62.41a1.29,1.29,0,0,0,.58,1.49c3.67,1.95,2.75,5.87,3.88,8.91.31.85-.13,1.33-1.1,1.69-3.32,1.2-8.94-.14-11.09-3a4.6,4.6,0,0,1-.53-4.57c1.47-3.42.15-5.91-2.37-7.94-2.87-2.32-3.21-6.11-5.42-8.85-.54-.67.29-3.32,2-4.34,1.54-.91,3.05-1.88,4.55-2.85,3.4-2.19,6.61-1.09,7.22,2.82C498.42,213.49,500.63,212.1,501.09,213.76Z" transform="translate(-29.88 -108.99)"/><path class="cls-22" d="M449.68,225.78l-5.54-.11a5.11,5.11,0,0,1-2.74-5.37,2.37,2.37,0,0,0,1.37-2.8c-.38-1.84.89-2.92,1.93-4.1a9.85,9.85,0,0,1,3-4c2.35-.7,3.81.56,5,2.33,2,3.06,2,3.08,5.22,2.2.43.14-.2-.71-.06-.27.05.17,0,.16-.31.12a5.49,5.49,0,0,1-2.39-1.21c-.73-.55-1.6-1.19-1.43-2.15.21-1.19,1.37-.9,2.23-.91,2.69,0,4.77-1.94,7.35-2.3a1.58,1.58,0,0,1,.81,1.46c-3.3,4.51-3.14,5.79,1.35,8,2.44,1.22,4,3.57,6.68,4.52a2.56,2.56,0,0,1,1.35,3.19,2.83,2.83,0,0,1-2.81,2.06c-3.22.11-6.32.39-9.4-1.53A9.21,9.21,0,0,0,449.68,225.78Z" transform="translate(-29.88 -108.99)"/><path class="cls-23" d="M484.46,309.7c-3.52-3-6.24-6.83-10.14-9.43-.52-.35-.47-1.47-.85-2.15-2.82-5.11-4.86-10.54-7.13-15.88a95.45,95.45,0,0,0-7-13.54c-.24-.37-2-1.58.18-2.48,1.52-.63,2.32-1,3.22.72,1.48,2.78,3.92,5,4.8,8.17a2.44,2.44,0,0,0,1.07,1.26c2.51,1.48,3.29,3.82,3.65,6.54.28,2.14,1.82,3.63,3,5.39,2.72,4,7,7.27,6.83,13.07-.07,2.76,1.48,5.57,2.3,8.36Z" transform="translate(-29.88 -108.99)"/><path class="cls-23" d="M409.93,186.84c-1.24,0-1-2.62-2.78-1.61l-4.14.92c3.4-2.85,6.34-5,9.82-6.15,1.86-.64,2.57-1.78,2.11-3.59-.52-2-.38-3.31,1.9-4.29a2.63,2.63,0,0,0,.34-4.85c-3.48-1.75-1.74-3.85-.72-5.86a6.08,6.08,0,0,1,3.2-2.46c1.78-.78,3.11-1.87,3.18-4a2.25,2.25,0,0,1,2.19-2.21c1.46-.24,3.35-.56,4.07.82.5,1-1,2-2,2.83a12.15,12.15,0,0,1-2.07,1.77c-2.71,1.27-3.32,3.19-2,5.79a2.46,2.46,0,0,1-.13,2.27c-.67,4.76-.27,9.56-.42,14.33a4.4,4.4,0,0,1-.95,2.83c1.06,1.27.31,2-.79,2.63-3-.9-5.81-1-8.55.79A2.41,2.41,0,0,1,409.93,186.84Z" transform="translate(-29.88 -108.99)"/><path class="cls-24" d="M421.56,183.39c-.3-4.69.63-9.44-.54-14.06-.49-1.92,2.18-1.53,1.91-3.1,1.72,2.86,4.13,3.56,7.23,2.39,1.25-.47,2.65-.56,3.9-1s2.46-.82,3.74.29c1.55,1.34-2.1,1.26-.56,2.44a14.52,14.52,0,0,0-10.91,1.42c-1.46.82-1.06,1.8-1.33,3,4.16-1.8,4.83-1.41,4.69,2.48a1.48,1.48,0,0,1-1.81.38c-2.12-1.12-3.26.05-4.25,1.67l.58,1.32v0C423.2,181.35,424.35,184.19,421.56,183.39Z" transform="translate(-29.88 -108.99)"/><path class="cls-25" d="M575.54,204.2c-1.07.18-1.7-.53-2.45-1s-1.1-1.79-2.09-.34c-.67,1-2.54,1.4-1.22,3.26s0,2.42-1.6,2.38c-4.41-.12-4.63.2-2.75,4.47.08.18,0,.43,0,.65-1.16,1.31-5.49-1.31-3.91,3.35-2.68-2.6-2.71-2.66.35-3.74,1.6-.56,2-1.61,1.92-3.15,0-1-.33-3,1.11-2.7,4.9,1.13,3.65-3.3,4.73-5.21s-1.4-1.56-2.73-2c1-.57,2.09-1.5,2.87-.73,2.55,2.49,4.13.26,5.92-1,2.67-1.83,5.28-3.85,8.86-1.61-1.34,1.27-2.61-.12-3.88.06-2.86.41-4.52,2.8-6.85,4.07C572.07,202,575.32,202.8,575.54,204.2Z" transform="translate(-29.88 -108.99)"/><path class="cls-26" d="M455.14,350.41c0-2.74.45-4.79,3.48-5.84,2.08-.73,2.6.86,3.68,1.47,1.25.71-.42,1.3-.57,2-.22,1.08-1,2-1.2,3.12-.35,1.64-.87,2.5-2.85,2.13S454.47,352.56,455.14,350.41Z" transform="translate(-29.88 -108.99)"/><path class="cls-24" d="M604,193.77c5.88-2.79,5.59-7.74,5.92-12.64,1.75,2.25,3.54,4.62,2.54,7.59S607,194.3,604,193.77Z" transform="translate(-29.88 -108.99)"/><path class="cls-27" d="M518.55,217.88a4.65,4.65,0,0,0-4.45-1.17,3.63,3.63,0,0,1-4.35-3.87c.08-1.09,3.7-4.35,4.72-4.16.69.12,1.55.75,1.23,1.31C513.82,213.31,516.9,214.87,518.55,217.88Z" transform="translate(-29.88 -108.99)"/><path class="cls-28" d="M449.08,355.3c.35,1.5,1.45,2.69,1.36,4.49-.17,3.3,2.28,5.88,3,9,.16.66,1.24,1.5,0,1.94-.83.29-1.34-.61-1.69-1.32C448.58,363,448.41,362.21,449.08,355.3Z" transform="translate(-29.88 -108.99)"/><path class="cls-23" d="M513.81,138.28a2.34,2.34,0,0,1,2.52,1.85c.54,3.47,2.3,4.46,5.81,2.84-1.46,1.13-2.55,1.61-1.33,3.72s-1.53,3.17-3,4.11c-.79.51-1.25-.73-.64-1.49,1.93-2.41,1.68-4-1-5.95-1.33-.94-1.61-3.36-2.37-5.11Z" transform="translate(-29.88 -108.99)"/><path class="cls-29" d="M546.24,214.06c-2-.78-2.87-1.89-2.14-3.55.63-1.43,1.53-2.77,3.56-2.51,2.5.32,5,1.53,7.56.25.42-.2.88.12.9.69s-.46,1-1,1.2c-1.58.64-3.09-.23-4.65-.25C547.62,209.84,545.31,210.08,546.24,214.06Z" transform="translate(-29.88 -108.99)"/><path class="cls-28" d="M460.6,372.22c4.15,4.59.91,10.12,4,14.26C461.71,385.9,461.71,385.9,460.6,372.22Z" transform="translate(-29.88 -108.99)"/><path class="cls-23" d="M691.61,141l4.55,2.58c-1.52-.89-4.87,1.19-4.62-2.52Z" transform="translate(-29.88 -108.99)"/><path class="cls-1" d="M202.81,390.18c3.36-3.07,3.39-6.39,1.14-10.21-1-1.65-.9-3.64,2.07-2.76,1.36.4,2.63-.48,4-.15-1.73,4.33-.85,5.6,4.1,6.53a9.83,9.83,0,0,1,3,1.61c.66.4,1.32,1.3,2.09.85,4.05-2.37,2.56,1.11,2.76,2.61.18,1.34-.22,2.81.16,4.07.51,1.71,1.56,3.36,3.64,1.47.7-.64,1.21-1.37,2.27-1a1,1,0,0,1,.59,1.38c-.61,1,.05,2.67-1.56,3.14-.76.21-1.56.26-2.33.44-4.48,1-5.5,2.88-4.26,7.3.42,1.5,0,3.23-1.9,2.37-2.6-1.16-5.23-1.2-7.93-1.46-1.23-.11-2.59-1.58-2.42-2.4.59-2.73-.45-4.71-1.87-6.82-.58-.87-.33-2.08.08-3.25,1.11-3.11-.08-4.28-3.45-3.63Z" transform="translate(-29.88 -108.99)"/><path class="cls-1" d="M208.83,340c-2-3.09-2.1-6.55-2.79-9.88-.56-2.66-1.5-5-4.68-6-1.61-.49-2.56-.7-4,.33a1.74,1.74,0,0,1-2.81-.77c-.67-1.62.38-2.07,1.56-2.26,2.39-.39,2.77-1.66,1.78-3.63-.44-.88-.73-1.75.39-2.31a1.81,1.81,0,0,1,2.43.49c.33.41,1.15,1,1.23,1,2.58-2.22,3.87.67,5.73,1.35,2.21.8,4.39,1.75,6.79.11.92-.63,2.4-.43,3.62-.65s1.8.3,1.41,1.47c-.67,2,.14,4.35-1.54,6.15a2.7,2.7,0,0,0-.68,2.21c1.33,3.9-1.69,3.61-3.81,4-3.66.6-4.32,1.31-3.49,4.85C210.37,337.86,210.36,339,208.83,340Z" transform="translate(-29.88 -108.99)"/><path class="cls-30" d="M189.84,220.5c-.43-1.81.94-4.46-2.3-3.26.45-1.55,2.82-2.08,1.7-3.88-.49-.79-2.07-1.33-2.71-.79-2.38,2-6.08,2.8-6.45,6.8a7.29,7.29,0,0,1-1.84,4c-.51.6-1.12,1.2-2,.67-.71-.41-.7-1.1-.65-1.8.47-6,7.13-11.66,13-11,0-.19.12-.53.11-.53-3.85-.95-7.35-4.07-11.71-1.87-1,.53-2.29,1.1-3-.22-.88-1.64,1.12-1.19,1.66-1.84,1.72-2.05,4.19-3,6.5-4.16,2.89-1.42,7,.89,6.89,4-.13,2.77.86,3.56,3.45,3.61,2.28,0,4.21,1,4.14,3.82a1.69,1.69,0,0,1-1.17,1.84C192,217,192,217,189.84,220.5Z" transform="translate(-29.88 -108.99)"/><path class="cls-1" d="M225.63,403.68a20.14,20.14,0,0,0,3.43.88c2.46.13,3.08,1.07,1.73,3.21-1.51,2.39-.16,3.47,2,3.62a3.37,3.37,0,0,1,3.29,2.43,3.89,3.89,0,0,0,3.07,2.83c2,.35,2.08,1.78,1.86,3.34-.13,1-.76,2.06-1.6,1.93a2.91,2.91,0,0,1-2.55-2.75c-.25-2.2-1.89-3.08-3.65-4.31-3.24-2.28-7.54-3.33-9.47-7.26-.32-.66-2.25-.87-.89-1.92C223.78,405,224.2,403,225.63,403.68Z" transform="translate(-29.88 -108.99)"/><path class="cls-31" d="M147.77,152l-3.22-.15c.14-.26.18-.49.29-.54,3.45-1.5,7.19-1.72,10.82-2.47a3,3,0,0,1,3.08,1.6c.58.92-.85,1.7-1.56,1.73-3.24.13-5.67,2.56-8.76,2.9-1.07.11-2.83.8-3.26-.7C144.84,153.2,146.62,153,147.77,152Z" transform="translate(-29.88 -108.99)"/><path class="cls-24" d="M204.62,216.14c-1.1,2.88-2.56,4.36-5.47,3.62-.89-.23-1.84-.46-2.4.6-1.56,3-4.87,3.08-7.4,4.47a1.39,1.39,0,0,1-1.87-.21c-.45-.69.3-1.22.69-1.76a.66.66,0,0,1,.23-.24c3.79-1.75,7.5-3.72,11.43-5.1C201.18,217.05,202.76,216.64,204.62,216.14Z" transform="translate(-29.88 -108.99)"/><path class="cls-31" d="M166.3,161c-6.78.79-12.14,7.06-20.4,5.06,2.25-1,4.46-1.28,5.31-2.5,1.81-2.58,3.35-1.58,5.55-.9,1.64.51,3.52-.64,5-1.69A3.57,3.57,0,0,1,166.3,161Z" transform="translate(-29.88 -108.99)"/><path class="cls-1" d="M246.2,437.41c-.36,1.27-.88,2.15-.76,2.92.2,1.27.76,2.52-.91,3.11s-2.61-.95-3.79-1.72c-1.36-.88-1.28-2.35-1.33-3.61,0-.82,1.06-.77,1.64-.53A6,6,0,0,0,246.2,437.41Z" transform="translate(-29.88 -108.99)"/><path class="cls-24" d="M166.66,197.17a5.68,5.68,0,0,0-.21-5.92c-1.1-1.88.1-3.25,1.64-4.2a1.45,1.45,0,0,1,2.26.7C170.89,189,168.24,196.31,166.66,197.17Z" transform="translate(-29.88 -108.99)"/><path class="cls-23" d="M171.32,144.43c2.28.88,4.66.74,7,.7.72,0,1.8-.33,1.59,1a1,1,0,0,1-1.56.78c-1.78-1.26-3.42-.24-5.15,0-2,.28-3.39-.11-1.87-2.53Z" transform="translate(-29.88 -108.99)"/><path class="cls-9" d="M205.94,343c6.12-.71,6.9-1.68,7-7.59-.05,1.79,3.11,3,1,5.06C212,342.39,210.11,344.85,205.94,343Z" transform="translate(-29.88 -108.99)"/><path class="cls-32" d="M201.48,392.33l-.78-.65a4,4,0,0,0-.29-.59,1.67,1.67,0,0,1,1-2.63c1.35-.48.25,1.68,1.41,1.72l.1.1c.15.92,1.72,1.53.79,2.63S202.38,392,201.48,392.33Z" transform="translate(-29.88 -108.99)"/><path class="cls-23" d="M162.91,314.37c-2.2-.09-3.4-.7-3.63-2.48,0-.22.35-.7.53-.7C161.7,311.23,161.87,313,162.91,314.37Z" transform="translate(-29.88 -108.99)"/><path class="cls-23" d="M208.68,142.62c-1,1.67-1.42,3.69-4.25,2.92C206.05,144.73,206.27,142.41,208.68,142.62Z" transform="translate(-29.88 -108.99)"/><path class="cls-29" d="M195.07,316.31a1.69,1.69,0,0,1,.86,1.93c-.05.46-.3.93-.8.81a1.44,1.44,0,0,1-1.12-1.72A1.07,1.07,0,0,1,195.07,316.31Z" transform="translate(-29.88 -108.99)"/><path class="cls-1" d="M213.83,480c.06-1.83,1.31-1.54,2.19-1.76,0,0,.36.62.26.81C215.73,480.09,214.79,479.87,213.83,480Z" transform="translate(-29.88 -108.99)"/><path class="cls-1" d="M463.23,207.18c-2.59,2.2-5.45,3.6-9.43,2.9,1.87,2.31,3.69,3.55,6.49,3.3a38.32,38.32,0,0,1-5,2.57c-2.3.79-1.29-2.7-3.14-2.72,0-3-2.72-2.87-4.47-3.86-2-.05-2.64-2.13-4.22-2.79l0,0c-1.52-3.27-3.59-4.12-6.73-2.76-1.42.62-2.69,1.65-4.46.82-1.26-.59-3.49-.18-3.57-1.84-.06-1.43-.07-3.49,1.84-4.43.74-.37,1.55-1,1.17-1.84-1.62-3.42.95-2.76,2.71-2.9a4.36,4.36,0,0,1,1.69,0c4.32,1.47,8.47,1.47,12.55-.9,1.82-1.05,2.94-.4,4.29,1.56s3.05,4.3,6.37,4.22a12,12,0,0,1,5.66,1.86c2.2,1.25.57,3,0,4.43C464.52,205.61,463.22,206,463.23,207.18Z" transform="translate(-29.88 -108.99)"/><path class="cls-1" d="M409.93,186.84c1.77-1,3.78-1.33,5.51-2.48,2.27-1.52,3.59.93,5.33,1.66,1.81,0,3.64,0,5.45.08,2.18.11,3.95,2.31,2.94,4.09-.86,1.54-.24,2.63.17,3.81,1.23,3.53-.55,5.31-4.29,5.87-4.79.72-8.13-2.11-11.88-3.81-2.44-1.1-2.14-4.28-2.73-6.61A8.64,8.64,0,0,1,409.93,186.84Z" transform="translate(-29.88 -108.99)"/><path class="cls-1" d="M444.7,213.4c0,1.66-1.4,2.68-1.93,4.1a10,10,0,0,0-6.88-.2c-3.52,1-8.46-1.62-10.22-4.88-1.35-2.5,1.45-3.43,2-5.22.48-1.5,2.44-2.36,4.34-1.77a5.29,5.29,0,0,0,2.5.62c1.19-.14,2.14-2.2,3.24-.86,1.33,1.59,3,3.16,2.93,5.57C440.67,213.61,442.19,214.3,444.7,213.4Z" transform="translate(-29.88 -108.99)"/><path class="cls-1" d="M430.91,189.54c-1-1.49.44-2.1,1.82-2.7s1.74-2,2.46-3.09c1-1.49,1.83-3.34,4.12-2.76,2.09.53,4.48.46,5,3.62.28,1.72,2.27,3,1.87,5.2s-1.49,3.44-3.68,3.77c-3.84.56-7.33-2.11-11.35-1.12C430,192.75,431.11,190.87,430.91,189.54Z" transform="translate(-29.88 -108.99)"/><path class="cls-1" d="M417.84,206.39c1.1.33,1.73-.35,2.45-.91a5.7,5.7,0,0,1,2.28-1.36c1.68-.26,3.64-1.15,4.93.64.62.87-2.65,5.1-4,5.16a10,10,0,0,0-3.88,1c-1.62.75-2.42-.6-3.4-1.49a2,2,0,0,1-.58-2.42C416.12,205.9,417,206,417.84,206.39Z" transform="translate(-29.88 -108.99)"/><path class="cls-1" d="M422.2,214.19c0-1.08-.86-2.17.48-2.57,1-.3,1.7.66,2.13,1.36,1.32,2.21,4.12,3.6,3.85,6.69-.11,1.21-.16,2.39-1.9,2.68-1.51.26-2.24.06-2.64-1.55C423.55,218.49,421.45,216.61,422.2,214.19Z" transform="translate(-29.88 -108.99)"/><path class="cls-1" d="M410,209.14c-1.22-.77-4.05.07-4.12-2.1a3.79,3.79,0,0,1,4-3.22.56.56,0,0,0,.34,0c1.65-.78,3.33-1.42,4.95,0,.59.51.26,1.07-.11,1.75C414,207.49,412.76,209.11,410,209.14Z" transform="translate(-29.88 -108.99)"/><path class="cls-1" d="M423.63,179.24c.4-3.66,1.11-4.06,4.18-2.51a8.76,8.76,0,0,0,1.88.46c1-.46.77-2.7,2.67-1.74s4.76,1,5,3.73c.16,2.29-1.74,1.37-2.89,1C430.89,179,427.35,178.11,423.63,179.24Z" transform="translate(-29.88 -108.99)"/><path class="cls-1" d="M413.49,201.7c-1.23-1.11-2.6.8-3.75.42-1.31-.43-3.18-1.44-2.63-3.35a3.29,3.29,0,0,1,4.36-2.22,24.3,24.3,0,0,1,4.79,2.44c.41.23,1.12.77.47,1.32C415.9,201,415.09,201.94,413.49,201.7Z" transform="translate(-29.88 -108.99)"/><path class="cls-1" d="M424.21,180.56c2.64-1.5,5.3.1,8,0,.94,0,2.26,1,2,1.94a4.79,4.79,0,0,1-2.27,3.17c-1.1.54-2.23.43-2.59-.69-.83-2.57-4.79-1.41-5.07-4.46Z" transform="translate(-29.88 -108.99)"/><path class="cls-1" d="M417.71,214.08c1.78.13,3.29.58,3.16,2.94-.08,1.49-.78,3.28-2.09,2.82a6.51,6.51,0,0,1-3.7-4.42C414.73,214.06,416.54,214.15,417.71,214.08Z" transform="translate(-29.88 -108.99)"/><path class="cls-1" d="M425.92,201.79a18.94,18.94,0,0,0-6.21,2.81,1.6,1.6,0,0,1-2.42,0,2.46,2.46,0,0,1-.89-2.12,1.84,1.84,0,0,1,1.87-1.22C420.81,201.09,423.38,200.85,425.92,201.79Z" transform="translate(-29.88 -108.99)"/><path class="cls-1" d="M399.81,209c-1.33,1.16-3.31.07-4.67,1.43-.48.48-1.22-.31-1.65-.84-.63-.77,0-1.23.5-1.69C396,205.85,398.22,206.27,399.81,209Z" transform="translate(-29.88 -108.99)"/><path class="cls-1" d="M391.26,197.64c-.11.79-.6,1.38-1.33,1.17-1.39-.42-2.91-.94-3-2.71a1.18,1.18,0,0,1,1.49-1.32A3.26,3.26,0,0,1,391.26,197.64Z" transform="translate(-29.88 -108.99)"/><path class="cls-1" d="M443.44,206.58l.82,2.4a1.79,1.79,0,0,1-1.87-.61c-1-1-3.49-2-2.47-3.36s2.15,1.22,3.49,1.54Z" transform="translate(-29.88 -108.99)"/><path class="cls-1" d="M430.37,224.91c-1.67.73-2.82,1.78-4.3,1a1.12,1.12,0,0,1-.07-1.75C427.35,223.12,428.67,223.67,430.37,224.91Z" transform="translate(-29.88 -108.99)"/><path class="cls-1" d="M418.5,212.91c-1.46.06-3,.62-4-.91a.93.93,0,0,1,.27-.84C416.52,210.58,417.26,212.24,418.5,212.91Z" transform="translate(-29.88 -108.99)"/><path class="cls-1" d="M511.82,215.59c-.77-1.44-1.16-2.49-.72-3.67.06-.16.72-.3.79-.21C512.78,212.85,512.65,214,511.82,215.59Z" transform="translate(-29.88 -108.99)"/><path class="cls-33" d="M206.62,417.34c1,.75.57,1.83.66,2.8-.47,2.16-2.41,4.08-2.29,6.06.21,3.21-.63,6.42.15,9.59l0,0c3.22,4.22,3.76,8.87,2.45,13.88-.44,1.67.52,3.13,1.19,4.6,1.06.4,1.3,1.08.69,2-1.25,5.76.85,11,4,15.29,2.79,3.75,3.43,7.59,3.87,11.78l0,0c.26,2.76,2.24,6.51,4,9a5.24,5.24,0,0,0,4.67,2.46,5.52,5.52,0,0,1,3.67.8,2,2,0,0,1-.51,1.85c-1.67.7.18,2.12-.6,3-.86,1.55-2.08,1.19-3.34.62-2.84-1.06-4.64-3.41-6.89-5.17-3-2.35-5.07-5.23-7.31-8.09a7.34,7.34,0,0,1-1.42-2.83c-.42-1.93,2.73-5.24-2.24-5.31l.59-2.72c.71-1.41,2.71-2.21,2.11-4.25-1.42-2,0-5-2.07-6.83-1,.6-.22,1.26-.19,1.87,0,.8.42,1.81-.8,2s-1-.95-1.27-1.69c-1.62-5-.79-10.56-3.87-15.2-.75-1.13.84-1.86.86-2.89.07-4,1.15-8.38-.08-12-2.49-7.2-1.39-14.43-1.87-21.65-.41-6,.17-12.16-1.49-18.09-.61-1.53-.34-3,1.24-3.51,1.76-.62,2.09,1.12,2.6,2.2,1.28,2.75,1.56,5.85,3.07,8.53.63,1.11.84,2.41,1.89,3.33,1.46,1.28,1.39,2.9-.16,3.85C205.87,413.91,206,415.47,206.62,417.34Z" transform="translate(-29.88 -108.99)"/><path class="cls-33" d="M192.07,220.37c-.16.41-.77.84,0,1.23.26,1.25-1.13,1.55-1.52,2.74,3.45-.46,5.94-2.33,8.28-4.51,3.11.23,5.92-.34,8-2.89a7.43,7.43,0,0,1,6.15-2.15c4.88.53,9-.59,11-5.67.2-.51.81-.76,1.27-1.09h0c4.08-.52,4.27-.45,2.92,2.93-.66,1.65,0,3.06-.14,4.57-1.62,1.73-4,1.9-6,2.8-2.61,1.17-4.25,2.59-3.71,5.78.3,1.79-.35,3.2-2.63,2.14a1.61,1.61,0,0,0-2.31.47,3,3,0,0,1-1.6,1.15c-5.11.83-7.24,4.75-9.29,8.77-.51,1-1.46,1.33-2.31,1.85a3.32,3.32,0,0,1-1-2.27,2.33,2.33,0,0,1-1,2.38c.86,5.67.85,5.65-4.78,9.1-3.88,2.39-7.32,5.39-11.39,7.58-2.25,1.21-2.39,4.22-1.91,6.93.73,4.07,1.43,8.2-1,12-.86.5-1.43,0-2-.6-1.35-3.23-3.4-6.17-2.18-10.14.38-1.24-.47-3.84-3.53-2.9-2.7.83-5-2.06-8-1.24-1.82.5-4.55-.7-3.71,3,.16.71-.6.35-1.13.36-2.31,0-4.42-.78-6.61-1.16-6.73-1.14-11.49,2.5-15.55,7.35-.45,1.33-.52,3.18-2.79,2.11-1.5-.67-1.91-2.05-2.27-3.46-.11-.28-.19-.57-.27-.85a14.41,14.41,0,0,0-1.22-3.18,3.74,3.74,0,0,0-1.77-2.17c-1-.51-1.65.16-2.43.58-2.8,1.52-4.66.8-5.53-2.3a7.09,7.09,0,0,0-2.44-3.84,4.44,4.44,0,0,0-4.25.6,4.65,4.65,0,0,1-1,.37c-4.16.79-8-.58-11.93-1.65-1.93-.53-3.8-1.36-5.92-1s-2.53-1.29-3-2.79c-1.37-1-2.22-2.6-4.27-3-1.85-.33-1.17-2.53-1.29-3.81-.39-4.5-1.76-9-.59-13.55a35.16,35.16,0,0,1,8.21-15.42,21,21,0,0,0,5.54-10.9,27.76,27.76,0,0,0,6.46-2c20.76-.19,41.51.09,62.26-.16a1.71,1.71,0,0,1,1.69.78h0c1.23,1.25,3.06.05,4.35,1.06.91.34,1.7.93,2.8.75,1.25-.21,1.5.59,1.3,1.64-.32.82-1.15,1.26-1.85,2.27,2.13-.14,3.61-1.39,5.39-1.39a1.58,1.58,0,0,1,1.16.67c.76,1.25,2,1.1,3.18,1a6.76,6.76,0,0,1,3.5.43c.54.67,1.55,1.22,1.13,2.21s-1.32.43-2.08.46c-5.4.24-9.3,4.13-10.73,10.86,1.91-.75,2.05-2.38,2.53-3.76a10,10,0,0,1,9.33-6.73c1.8.44,2.55,1.43,1.68,3.25-.32.71-1.27.83-1.54,1.6-.39.24.29.71.06.32a.43.43,0,0,1,.15-.56,1.14,1.14,0,0,1,1.7.28C192.36,218.52,191.5,219.53,192.07,220.37Z" transform="translate(-29.88 -108.99)"/><path class="cls-4" d="M604.9,284.72l-.6,1.75c-1.38-4-4-4.3-7.43-2.54-.15.08-.39,0-.59,0,0-.62.08-1.27-.57-1.67-1.11-2.78-1.47-5.78-2.56-8.57-.53-1.35.54-2.06,1.27-1.46,2.3,1.88,5,2.44,7.7,3.06.71.17.26,1-.07,1.54s-1.19,1.1-1.21,2c0,.41.15,1,.49,1,2.08-.38,2.82.89,3.35,2.5C605.05,283.07,604.17,284,604.9,284.72Z" transform="translate(-29.88 -108.99)"/><path class="cls-4" d="M653.75,193.14l.64.63a5.9,5.9,0,0,0,2.12,2.09h0c1.67,2.18,3.31,4,6.6,4,2.72,0,4.95,2.07,6.8,4.17,1.6,2,3.3,1.85,5.33.49,3-2,4.41-1.3,4.87,2.32.12,1,.49,2,.54,3,.07,1.63.58,3.51-2.31,3.39-1.25-.05-2.44.79-1.55,2.49.85.87,2.07,1.3,2.58,2.57.34.85.46,1.74-.39,2-2.22.68-3.13,2.82-4.87,4-2.11.11-3.22,1.49-4.27,3.12a11.43,11.43,0,0,1-2.31,2.84,5.7,5.7,0,0,0-3,1.53c-.71.86-1,2.15-2.52,2,.52-1.54-1.84-2.39-1-4,.64-1.19.13-2-1-2.45-1.32-.53-1.34.85-2,1.32-1.69,1.21-1.53,4.22-4.29,4.32-.44,0-.59.29-.55.67a1.55,1.55,0,0,0,1.3,1.44c1.77.15,3,.73,3.59,2.58a.89.89,0,0,0,1.63.27c2.33-2.83,4.67-.1,7,0a1,1,0,0,1,.11,1.89c-2.63.4-2.93,2.66-4.09,4.25a1.43,1.43,0,0,0,0,2.23c4.12,2,4.9,7.18,8.83,9.24,2.3,1.2-2.82,3.24.72,4.06,3.25.75.83,3,.73,4.36a17.23,17.23,0,0,1-2.13,5.92c-.76,1.52.49,3.47-1.19,4.69-.74,1.74-1.37,3.56-3.46,4.19a112.67,112.67,0,0,1-16,6.14c-1.62.24-.1,2.8-2.06,2.79-.39-2.8-2.81-2.75-4.75-3.38-3.48,1.15-4.77-1.91-6.8-3.53a2.35,2.35,0,0,0-3.44.29,4,4,0,0,1-.88.37c-2.67.58-6.06-.69-7.57,2.92a2.79,2.79,0,0,1-2.53.39,5.13,5.13,0,0,1-2.08-1.55c-1.45-2.48-2.35-5.17-5.63-6.38-2.46-.91-.46-2.79.32-4.18.13-.28.28-.56.41-.84.88-2.6-.11-4.47-2.33-5.78-2-1.18-4.22-1.83-6.17-3.27-1-.76-3.36-.2-4.69,1.21-2.61,2-5.3,3.61-8.73,1.78a2.92,2.92,0,0,0-2,0A20.44,20.44,0,0,1,575.59,263c-1.65-1-3.3-2-5-2.9-1.21-.64-2.59-.38-3.87-.68a5.2,5.2,0,0,1-1.79-.86c-1-.81-2-1.45-3-2.26a1.87,1.87,0,0,1-.87-1.71A10.92,10.92,0,0,0,554.39,244a9.63,9.63,0,0,1-3.77-2.28c-.22-.23-.42-.47-.62-.72a24.4,24.4,0,0,1-3.27-4.53c-.23-2-2.64-1.88-3.31-3.44-.15-3.06,1.05-4.44,4.27-5.39,2.84-.84,6.06-2,8.19-4.52l.45-.82c.93-1.87.42-3.55-.58-5.23-1.13-1.9-1.29-3.52,1.49-4,.64-.12,1.22-.12,1.3-1.16.4-4.75.46-4.74,5.08-4.88-.83-2.36,0-4.2,1.9-5.63a1.42,1.42,0,0,1,.92-.22,88.87,88.87,0,0,1,9.91,5.07,6.4,6.4,0,0,1,.66.72,3.44,3.44,0,0,1,.86,1.46c.57,4.87,4.08,5.32,7.91,5.31a7,7,0,0,1,1.7.21c2.58,1.32,5.34,2.39,7,5,.7,1.53,2.07,1.62,3.49,1.63a17.78,17.78,0,0,1,3.78.27c5.81-.56,10.85,3.29,16.63,2.89l.92-.32c2.74-1.42,5.81-1.73,8.72-2.57l1.19-.74c2-1,3.34-2,.92-4a1.74,1.74,0,0,1-.34-1.88,1.35,1.35,0,0,1,.66-.65c4.74.56,7.41-.49,8.93-3.51a2.22,2.22,0,0,1,.64-.69c1.68-.84,3.64-.76,5.42-1.39-.37-.65-1-.77-1.42-1.06a9,9,0,0,1-.85-.5c-1.46-1.24-3.09-1.14-4.85-.79-2.39.49-4.07-.41-4.51-2.94-.26-1.58-.25-3.06,2-3a2.7,2.7,0,0,0,3-2.54c-.63-2.4.73-5.12-1.63-7.32-1-.89.91-1.15,1.43-1.76,3.72-1.26,7,.81,10.52,1.32C651,190.27,652,192.11,653.75,193.14Z" transform="translate(-29.88 -108.99)"/><path class="cls-4" d="M386.41,221.66c.5,2.79-1.7,3.37-3.52,4.24a10.83,10.83,0,0,0-5.41,5.06c-.57,1.21,1.49,2,.16,3.46-2.61,2.81-4.45,6.65-9.36,5.65-1.29-.26-2.11.79-3,1.45-2.81,1.76-3.4-1.26-4.92-2.27-.91-.43-2.24-.63-1.7-2.1,1.29-3.53.49-7.5,2.36-10.9.85-1.55.54-2.4-1.36-2.46a3.21,3.21,0,0,1-3.44-2.83c-.57-3.57,2.42-3.37,4.26-3.43a93.56,93.56,0,0,1,10.4.74c4,.31,7.4,2.84,11.55,2.86C383.6,221.14,385.06,221.5,386.41,221.66Z" transform="translate(-29.88 -108.99)"/><path class="cls-34" d="M598.08,279,371.29,226.78l256.79,19.5L143,245.17l60.18,165.35" transform="translate(-29.88 -108.99)"/><circle class="cls-35" cx="113.4" cy="136.18" r="4.7"/><circle class="cls-35" cx="339.41" cy="117.13" r="3.67"/><circle class="cls-35" cx="597.99" cy="138" r="4.7"/><circle class="cls-35" cx="569.07" cy="168.84" r="4.7"/><circle class="cls-35" cx="675.86" cy="133.3" r="4.7"/><circle class="cls-35" cx="173.93" cy="302.86" r="4.7"/><path class="cls-34" d="M371.29,226.78,202.11,414.89l427-167.4,75.9-5.43" transform="translate(-29.88 -108.99)"/></svg>