<svg id="Capa_2" data-name="Capa 2" xmlns="http://www.w3.org/2000/svg" viewBox="0 0 300.55 159.51"><defs><style>.cls-1,.cls-2,.cls-3,.cls-4,.cls-5{stroke:#000;stroke-width:2px;}.cls-1,.cls-2,.cls-3,.cls-5{stroke-miterlimit:10;}.cls-2,.cls-6{fill:#fff;}.cls-3,.cls-4,.cls-5{fill:none;}.cls-4,.cls-5{stroke-linecap:round;}.cls-4{stroke-linejoin:round;}</style></defs><path class="cls-1" d="M366.28,312.38l35.24-17.6a3.17,3.17,0,0,1,4.25,1.45L424,331.94a3.46,3.46,0,0,1-1.12,4.44l-70.76,46.74a3.25,3.25,0,0,1-4.91-3.43q2.81-16.5,5.62-33a3.4,3.4,0,0,1,1.2-2.07l7.1-5.76a3.38,3.38,0,0,0,1.23-2.32q1-10.74,2.06-21.47A3.34,3.34,0,0,1,366.28,312.38Z" transform="translate(-237.04 -230.11)"/><path class="cls-1" d="M262.82,383c.3-4.79,3.49-35.24,35.13-32.81a.57.57,0,0,0,.51-.22c1.69-2.15,14.75-17.82,32.8-11.86a.59.59,0,0,0,.67-.23,38,38,0,0,1,7.57-8.42,39.31,39.31,0,0,1,19.32-8.39.59.59,0,0,1,.68.63l-.75,10.93a.6.6,0,0,1-.32.48,22.94,22.94,0,0,0-5.58,4.1c-4.81,4.84-6.08,10.65-8,22.9-1.34,8.55-2.36,16.13-3.13,22.51a.58.58,0,0,1-.58.51l-77.72.5A.59.59,0,0,1,262.82,383Z" transform="translate(-237.04 -230.11)"/><path class="cls-2" d="M467.4,312.73a1.24,1.24,0,0,0-.64-.18H429.13a1.57,1.57,0,0,0-1.53,1.6q.4,17.16.8,34.32a1.24,1.24,0,0,1-1.2,1.26L410,350.1a1.29,1.29,0,0,0-.68.23l-18.17,12.93a1.61,1.61,0,0,0,.29,2.86,12.41,12.41,0,0,1,5.74,4.26,1.56,1.56,0,0,0,1.24.64l4.1,0a1.52,1.52,0,0,0,1.21-.64,12.06,12.06,0,0,1,19.36-.13,1.54,1.54,0,0,0,1.22.63l35.79-.24a1.49,1.49,0,0,0,1.21-.69,12.08,12.08,0,0,1,20.14-.16,1.56,1.56,0,0,0,1.27.7l3,0a1.57,1.57,0,0,0,1.52-1.54c0-.32-.17-2.74-.39-6.25-.57-9.06.27-23.41-3.78-33.28C481.31,325.19,477.44,318.66,467.4,312.73Z" transform="translate(-237.04 -230.11)"/><circle class="cls-2" cx="180.9" cy="143.79" r="13.47"/><circle class="cls-2" cx="180.9" cy="143.79" r="5.89"/><circle class="cls-2" cx="153.08" cy="143.79" r="13.47"/><circle class="cls-2" cx="153.08" cy="143.79" r="5.89"/><path class="cls-3" d="M436.32,320.88,436,336.74c0,1.16.6,2.11,1.38,2.11l36.66.26a26,26,0,0,0,0-2.62,27.45,27.45,0,0,0-3.13-11.26c-1.32-2.49-2.61-4.84-5.27-5.87a7.87,7.87,0,0,0-1.64-.42l-26.44.19C436.88,319.13,436.34,319.91,436.32,320.88Z" transform="translate(-237.04 -230.11)"/><circle class="cls-2" cx="234.46" cy="145.03" r="13.47"/><circle class="cls-2" cx="234.46" cy="145.03" r="5.89"/><path class="cls-4" d="M399.37,270.37a102.51,102.51,0,0,1,22.6-24c9.62-7.35,20.44-15.61,33.2-15.26,11.09.32,20.2,7.06,34.33,22.72a320.54,320.54,0,0,1,47.1,68.84" transform="translate(-237.04 -230.11)"/><path class="cls-4" d="M428.55,312.67c-2.48-5.16-32.44-65.84-72.84-63.42C343.9,250,333,256,312.13,276.92c-20.62,20.67-48.89,53.77-74.09,103" transform="translate(-237.04 -230.11)"/><path class="cls-2" d="M490.76,363.21l.19,5.7a1,1,0,0,1-.94,1h-1.93a.94.94,0,0,1-.94-.89l-.29-5.69a.94.94,0,0,1,.94-1h2A.93.93,0,0,1,490.76,363.21Z" transform="translate(-237.04 -230.11)"/><path class="cls-2" d="M429.13,298.77" transform="translate(-237.04 -230.11)"/><line class="cls-5" x1="198.96" y1="115.89" x2="205.6" y2="115.89"/><path class="cls-6" d="M274.15,368.66l3.33.76a.08.08,0,0,0,.1-.05l.73-1.9a.08.08,0,0,1,.15,0l5.53,9.76a.09.09,0,0,0,.12,0l9.55-5.41a.1.1,0,0,0,0-.12l-5.5-9.7a.09.09,0,0,1,.09-.13l1.83.37a.08.08,0,0,0,.1-.06l1.11-3.49a.08.08,0,0,0-.05-.1l-5.1-2.1h-.07l-3.24,1.24a.1.1,0,0,0-.06.08,3,3,0,0,1-4.64,2.63.09.09,0,0,0-.1,0l-2.73,2.15a.05.05,0,0,0,0,.05l-1.23,5.89A.09.09,0,0,0,274.15,368.66Z" transform="translate(-237.04 -230.11)"/><path class="cls-6" d="M322.55,353.82l10.11,8.09a.16.16,0,0,1,0,.23l-2.51,3.65-10,14.5a.18.18,0,0,1-.23.06l-3.87-2.18a.18.18,0,0,1-.07-.23l6.87-13.4a.17.17,0,0,0-.27-.21l-11.17,10.06a.18.18,0,0,1-.24,0l-3.62-3.64a.17.17,0,0,1,0-.24l14.78-16.67A.16.16,0,0,1,322.55,353.82Z" transform="translate(-237.04 -230.11)"/></svg>