<svg id="Layer_1" data-name="Layer 1" xmlns="http://www.w3.org/2000/svg" viewBox="0 0 1080 1080"><defs><style>.cls-1,.cls-2{stroke:#000;stroke-miterlimit:10;}.cls-2{fill:none;stroke-width:16px;}</style></defs><title>pictograma-alto-maipo</title><path class="cls-1" d="M713.29,655.79H767.5a0,0,0,0,1,0,0v120.5a23.5,23.5,0,0,1-23.5,23.5h-7.21a23.5,23.5,0,0,1-23.5-23.5V655.79A0,0,0,0,1,713.29,655.79Z"/><path class="cls-1" d="M651,655.79h54.21a0,0,0,0,1,0,0v120.5a23.5,23.5,0,0,1-23.5,23.5H674.5a23.5,23.5,0,0,1-23.5-23.5V655.79A0,0,0,0,1,651,655.79Z"/><path class="cls-1" d="M547.29,655.79H601.5a0,0,0,0,1,0,0v120.5a23.5,23.5,0,0,1-23.5,23.5h-7.21a23.5,23.5,0,0,1-23.5-23.5V655.79A0,0,0,0,1,547.29,655.79Z"/><path class="cls-1" d="M485,655.79h54.21a0,0,0,0,1,0,0v120.5a23.5,23.5,0,0,1-23.5,23.5H508.5a23.5,23.5,0,0,1-23.5-23.5V655.79A0,0,0,0,1,485,655.79Z"/><path class="cls-1" d="M373.29,655.79H427.5a0,0,0,0,1,0,0v120.5a23.5,23.5,0,0,1-23.5,23.5h-7.21a23.5,23.5,0,0,1-23.5-23.5V655.79a0,0,0,0,1,0,0Z"/><path class="cls-1" d="M311,655.79h54.21a0,0,0,0,1,0,0v120.5a23.5,23.5,0,0,1-23.5,23.5H334.5a23.5,23.5,0,0,1-23.5-23.5V655.79A0,0,0,0,1,311,655.79Z"/><path class="cls-1" d="M215.29,654H269.5a0,0,0,0,1,0,0V774.5A23.5,23.5,0,0,1,246,798h-7.21a23.5,23.5,0,0,1-23.5-23.5V654A0,0,0,0,1,215.29,654Z"/><path class="cls-1" d="M153,654h54.21a0,0,0,0,1,0,0V774.5a23.5,23.5,0,0,1-23.5,23.5H176.5A23.5,23.5,0,0,1,153,774.5V654a0,0,0,0,1,0,0Z"/><path class="cls-1" d="M863.29,655.79H917.5a0,0,0,0,1,0,0v120.5a23.5,23.5,0,0,1-23.5,23.5h-7.21a23.5,23.5,0,0,1-23.5-23.5V655.79A0,0,0,0,1,863.29,655.79Z"/><path class="cls-1" d="M801,655.79h54.21a0,0,0,0,1,0,0v120.5a23.5,23.5,0,0,1-23.5,23.5H824.5a23.5,23.5,0,0,1-23.5-23.5V655.79A0,0,0,0,1,801,655.79Z"/><circle cx="219.5" cy="296.5" r="44"/><path d="M219.5,253A43.5,43.5,0,1,1,176,296.5,43.54,43.54,0,0,1,219.5,253m0-1A44.5,44.5,0,1,0,264,296.5,44.5,44.5,0,0,0,219.5,252Z"/><circle cx="381.5" cy="302.5" r="44"/><path d="M381.5,259A43.5,43.5,0,1,1,338,302.5,43.54,43.54,0,0,1,381.5,259m0-1A44.5,44.5,0,1,0,426,302.5,44.5,44.5,0,0,0,381.5,258Z"/><circle cx="548.5" cy="307.5" r="44"/><path d="M548.5,264A43.5,43.5,0,1,1,505,307.5,43.54,43.54,0,0,1,548.5,264m0-1A44.5,44.5,0,1,0,593,307.5,44.5,44.5,0,0,0,548.5,263Z"/><circle cx="695.5" cy="304.5" r="44"/><path d="M695.5,261A43.5,43.5,0,1,1,652,304.5,43.54,43.54,0,0,1,695.5,261m0-1A44.5,44.5,0,1,0,740,304.5,44.5,44.5,0,0,0,695.5,260Z"/><circle cx="850.5" cy="293.5" r="44"/><path d="M850.5,250A43.5,43.5,0,1,1,807,293.5,43.54,43.54,0,0,1,850.5,250m0-1A44.5,44.5,0,1,0,895,293.5,44.5,44.5,0,0,0,850.5,249Z"/><path class="cls-1" d="M220.5,354.5s-98.69-27.93-102,86a23.2,23.2,0,0,0,10.3,20c30.22,20.15,117.35,75.82,129.72,56,15-24-102-88-102-88l133,1S300.5,355.5,220.5,354.5Z"/><path class="cls-1" d="M854.9,355.5s98.68-27.93,102,86a23.18,23.18,0,0,1-10.31,20c-30.21,20.16-117.34,75.82-129.71,56-15-24,102-88,102-88l-133,1S774.9,356.5,854.9,355.5Z"/><path class="cls-1" d="M292.5,429.5s-2-70,83-68,73,68,73,68Z"/><path class="cls-1" d="M461.5,429.5s-2-70,83-68,73,68,73,68Z"/><path class="cls-1" d="M626.5,429.5s-2-70,83-68,73,68,73,68Z"/><circle class="cls-2" cx="547" cy="543" r="85"/><polygon class="cls-1" points="493.96 480.92 535.67 539.94 544.69 522.65 586.55 578.6 592.65 575.55 595.71 605.06 571.29 590.81 577.39 585.73 546.15 545.05 537.71 562.32 486.81 490.38 493.96 480.92"/><rect class="cls-2" x="149" y="432" width="773" height="220"/></svg>