<?xml version="1.0" encoding="utf-8"?>
<!-- Generator: Adobe Illustrator 27.5.0, SVG Export Plug-In . SVG Version: 6.00 Build 0)  -->
<svg version="1.1" id="Capa_1" xmlns="http://www.w3.org/2000/svg" xmlns:xlink="http://www.w3.org/1999/xlink" x="0px" y="0px"
	 viewBox="0 0 800 400" style="enable-background:new 0 0 800 400;" xml:space="preserve">
<style type="text/css">
	.st0{fill:#3333CC;}
	.st1{fill:none;stroke:#000000;stroke-width:3;stroke-miterlimit:10;}
	.st2{fill:none;stroke:#000000;stroke-width:2;stroke-miterlimit:10;}
	.st3{opacity:0.51;fill:none;stroke:#000000;stroke-miterlimit:10;enable-background:new    ;}
</style>
<path class="st0" d="M155.55,172H102v-55h55.69c4.59,0,8.31,3.72,8.31,8.31v36.25C166,167.32,161.32,172,155.55,172z"/>
<path class="st0" d="M698.78,296.34H102.32V241.1h596.46c6.08,0,11.01,4.93,11.01,11.01v33.21
	C709.8,291.41,704.86,296.34,698.78,296.34z"/>
<g id="Capa_2_00000034091391485199828070000001877738773296382088_">
	<g>
		<path d="M44.42,286.36h6.05V287h-6.76v-9.8h6.55v0.64h-5.84V286.36z M44.34,281.71h5.31v0.63h-5.31V281.71z"/>
		<path d="M55.65,287.07c-0.73,0-1.42-0.12-2.06-0.37c-0.65-0.25-1.15-0.57-1.51-0.96l0.32-0.53c0.34,0.34,0.8,0.64,1.38,0.88
			s1.2,0.36,1.85,0.36s1.19-0.09,1.6-0.26c0.42-0.17,0.72-0.4,0.92-0.69s0.3-0.61,0.3-0.97c0-0.42-0.11-0.76-0.34-1.01
			c-0.22-0.25-0.52-0.45-0.88-0.6s-0.76-0.28-1.19-0.38s-0.86-0.21-1.3-0.33s-0.84-0.27-1.2-0.46s-0.66-0.44-0.88-0.76
			s-0.33-0.74-0.33-1.25c0-0.47,0.12-0.9,0.36-1.29s0.62-0.71,1.13-0.95c0.51-0.24,1.17-0.36,1.97-0.36c0.54,0,1.08,0.08,1.6,0.24
			c0.53,0.16,0.98,0.37,1.35,0.64l-0.27,0.57c-0.41-0.28-0.85-0.49-1.32-0.62s-0.93-0.2-1.36-0.2c-0.63,0-1.14,0.09-1.55,0.27
			s-0.71,0.41-0.91,0.71c-0.2,0.29-0.29,0.62-0.29,0.99c0,0.42,0.11,0.76,0.33,1.01s0.51,0.45,0.88,0.6
			c0.36,0.15,0.77,0.28,1.2,0.38c0.44,0.1,0.87,0.21,1.3,0.33s0.83,0.27,1.19,0.46c0.36,0.19,0.66,0.44,0.88,0.76
			s0.34,0.73,0.34,1.23c0,0.46-0.13,0.88-0.38,1.28s-0.64,0.71-1.16,0.95C57.13,286.95,56.46,287.07,55.65,287.07z"/>
		<path d="M64.34,287l-4.37-9.8h0.78l4.17,9.37H64.5l4.19-9.37h0.74l-4.37,9.8H64.34z"/>
		<path d="M69.08,287l4.51-9.8h0.71l4.51,9.8h-0.77l-4.26-9.35h0.31L69.85,287H69.08z M70.73,284.24l0.24-0.6h5.87l0.24,0.6H70.73z"
			/>
		<path d="M80.58,287v-9.8h0.71v9.16h5.64V287H80.58z"/>
	</g>
	<g>
		<path d="M48.07,147l4.51-9.8h0.71l4.51,9.8h-0.77l-4.26-9.35h0.31L48.84,147H48.07z M49.72,144.24l0.24-0.6h5.87l0.24,0.6H49.72z"
			/>
		<path d="M59.58,147v-9.8h3.51c0.82,0,1.53,0.13,2.11,0.39c0.59,0.26,1.04,0.64,1.36,1.13s0.48,1.08,0.48,1.78
			c0,0.68-0.16,1.27-0.48,1.76s-0.77,0.87-1.36,1.13c-0.59,0.26-1.29,0.39-2.11,0.39h-3.12l0.32-0.34V147H59.58z M60.29,143.5
			l-0.32-0.35h3.12c1.05,0,1.85-0.23,2.4-0.69s0.82-1.11,0.82-1.95c0-0.85-0.27-1.5-0.82-1.97s-1.35-0.69-2.4-0.69h-3.12l0.32-0.35
			C60.29,137.5,60.29,143.5,60.29,143.5z"/>
		<path d="M69.45,147v-9.8h3.51c0.82,0,1.53,0.13,2.11,0.39c0.59,0.26,1.04,0.64,1.36,1.13s0.48,1.08,0.48,1.78
			c0,0.68-0.16,1.27-0.48,1.76c-0.32,0.49-0.77,0.87-1.36,1.13s-1.29,0.4-2.11,0.4h-3.12l0.32-0.34V147H69.45z M70.16,143.5
			l-0.32-0.34h3.12c1.05,0,1.85-0.23,2.4-0.7s0.82-1.12,0.82-1.96c0-0.85-0.27-1.5-0.82-1.97s-1.35-0.69-2.4-0.69h-3.12l0.32-0.35
			V143.5z M76.25,147l-2.55-3.56h0.81l2.55,3.56H76.25z"/>
	</g>
	<path d="M749,307.6"/>
	<polyline class="st1" points="731.6,308.81 101,307.6 101,93 	"/>
	<line class="st2" x1="294.5" y1="113.5" x2="294.5" y2="321"/>
	<line class="st2" x1="680" y1="113.25" x2="680" y2="320.75"/>
	<line class="st2" x1="488" y1="113.25" x2="488" y2="320.75"/>
	<line class="st3" x1="410" y1="113.25" x2="410" y2="320.75"/>
	<line class="st3" x1="449" y1="113.25" x2="449" y2="320.75"/>
	<line class="st3" x1="372" y1="113.25" x2="372" y2="320.75"/>
	<line class="st3" x1="333" y1="113.25" x2="333" y2="320.75"/>
	<line class="st3" x1="599" y1="113.25" x2="599" y2="320.75"/>
	<line class="st3" x1="638" y1="113.25" x2="638" y2="320.75"/>
	<line class="st3" x1="561" y1="113.25" x2="561" y2="320.75"/>
	<line class="st3" x1="522" y1="113.25" x2="522" y2="320.75"/>
	<line class="st3" x1="217" y1="113.25" x2="217" y2="320.75"/>
	<line class="st3" x1="256" y1="113.25" x2="256" y2="320.75"/>
	<line class="st3" x1="179" y1="113.25" x2="179" y2="320.75"/>
	<line class="st3" x1="140" y1="113.25" x2="140" y2="320.75"/>
	<g>
		<path d="M121.4,44v-9.8h3.51c0.82,0,1.53,0.13,2.11,0.39c0.59,0.26,1.04,0.64,1.36,1.13s0.48,1.08,0.48,1.79
			c0,0.68-0.16,1.27-0.48,1.76c-0.32,0.5-0.77,0.87-1.36,1.13c-0.59,0.26-1.29,0.39-2.11,0.39h-3.12l0.32-0.34V44H121.4z
			 M122.11,40.5l-0.32-0.35h3.12c1.05,0,1.85-0.23,2.4-0.69s0.82-1.11,0.82-1.95c0-0.85-0.27-1.5-0.82-1.97s-1.35-0.69-2.4-0.69
			h-3.12l0.32-0.35V40.5z"/>
		<path d="M133.86,44.06c-0.7,0-1.32-0.16-1.87-0.48c-0.55-0.32-0.98-0.76-1.3-1.32c-0.32-0.56-0.48-1.2-0.48-1.92
			c0-0.73,0.16-1.37,0.48-1.92c0.32-0.55,0.76-0.99,1.3-1.31c0.55-0.32,1.17-0.48,1.87-0.48s1.33,0.16,1.88,0.48s0.98,0.75,1.3,1.31
			s0.48,1.2,0.48,1.92s-0.16,1.36-0.48,1.92c-0.32,0.56-0.75,1-1.3,1.32S134.56,44.06,133.86,44.06z M133.86,43.43
			c0.56,0,1.06-0.13,1.51-0.38c0.45-0.26,0.8-0.62,1.05-1.08s0.38-1,0.38-1.61c0-0.62-0.13-1.15-0.38-1.62
			c-0.25-0.46-0.6-0.82-1.05-1.08s-0.95-0.39-1.51-0.39s-1.06,0.13-1.5,0.39s-0.79,0.62-1.05,1.08c-0.26,0.46-0.39,1-0.39,1.62
			c0,0.61,0.13,1.14,0.39,1.61s0.61,0.83,1.05,1.08S133.3,43.43,133.86,43.43z"/>
		<path d="M139.68,44V33.61h0.7v5.45l-0.14,1.27l0.11,1.27V44H139.68z M143.35,44.06c-0.64,0-1.23-0.15-1.74-0.45
			c-0.52-0.3-0.93-0.73-1.23-1.29s-0.45-1.22-0.45-1.97c0-0.77,0.15-1.44,0.45-1.99s0.71-0.98,1.23-1.27
			c0.52-0.3,1.1-0.45,1.74-0.45c0.69,0,1.31,0.16,1.85,0.47c0.55,0.31,0.98,0.75,1.29,1.3s0.47,1.2,0.47,1.94
			c0,0.73-0.16,1.37-0.47,1.93s-0.74,1-1.29,1.31C144.66,43.9,144.04,44.06,143.35,44.06z M143.31,43.43c0.56,0,1.06-0.13,1.51-0.38
			c0.45-0.26,0.8-0.62,1.06-1.08c0.26-0.47,0.38-1,0.38-1.61c0-0.62-0.13-1.15-0.38-1.62c-0.26-0.46-0.61-0.82-1.06-1.08
			s-0.95-0.39-1.51-0.39s-1.06,0.13-1.5,0.39s-0.79,0.62-1.05,1.08c-0.26,0.46-0.39,1-0.39,1.62c0,0.61,0.13,1.14,0.39,1.61
			s0.61,0.83,1.05,1.08S142.75,43.43,143.31,43.43z"/>
		<path d="M149.13,44V33.61h0.7V44H149.13z"/>
		<path d="M154.76,44.06c-0.54,0-1.01-0.09-1.41-0.26c-0.4-0.17-0.7-0.42-0.91-0.74s-0.31-0.68-0.31-1.09
			c0-0.37,0.09-0.71,0.26-1.01s0.46-0.55,0.86-0.74s0.94-0.29,1.61-0.29h2.69v0.55h-2.67c-0.76,0-1.29,0.14-1.59,0.42
			s-0.46,0.63-0.46,1.05c0,0.47,0.18,0.84,0.53,1.12s0.85,0.42,1.5,0.42c0.62,0,1.14-0.14,1.56-0.42s0.74-0.69,0.94-1.22l0.2,0.48
			c-0.2,0.53-0.53,0.95-1,1.27S155.49,44.06,154.76,44.06z M157.39,44v-1.67l-0.03-0.25v-2.74c0-0.68-0.18-1.2-0.55-1.55
			s-0.91-0.53-1.62-0.53c-0.5,0-0.97,0.09-1.41,0.26c-0.43,0.17-0.8,0.39-1.11,0.67l-0.35-0.5c0.36-0.33,0.8-0.58,1.32-0.76
			c0.51-0.18,1.05-0.27,1.61-0.27c0.9,0,1.6,0.23,2.09,0.69c0.48,0.46,0.73,1.14,0.73,2.04V44H157.39z"/>
		<path d="M163.84,44.06c-0.71,0-1.34-0.16-1.9-0.48s-0.99-0.76-1.32-1.32c-0.32-0.56-0.48-1.2-0.48-1.92
			c0-0.73,0.16-1.37,0.48-1.93c0.32-0.56,0.76-1,1.32-1.31c0.56-0.31,1.19-0.47,1.9-0.47c0.59,0,1.12,0.11,1.6,0.34
			c0.48,0.22,0.87,0.56,1.17,1.01l-0.52,0.38c-0.26-0.37-0.59-0.65-0.98-0.83c-0.39-0.18-0.82-0.27-1.27-0.27
			c-0.57,0-1.08,0.13-1.53,0.39s-0.81,0.62-1.06,1.08c-0.26,0.46-0.39,1-0.39,1.62s0.13,1.16,0.39,1.62
			c0.26,0.46,0.61,0.82,1.06,1.08s0.96,0.38,1.53,0.38c0.46,0,0.88-0.09,1.27-0.27c0.39-0.18,0.72-0.45,0.98-0.83l0.52,0.38
			c-0.3,0.45-0.69,0.78-1.17,1.01C164.97,43.94,164.43,44.06,163.84,44.06z"/>
		<path d="M168.94,34.91c-0.16,0-0.29-0.06-0.41-0.17c-0.11-0.11-0.17-0.24-0.17-0.39c0-0.16,0.06-0.29,0.17-0.41
			c0.11-0.11,0.25-0.17,0.41-0.17c0.17,0,0.31,0.05,0.41,0.16c0.11,0.11,0.16,0.24,0.16,0.4c0,0.16-0.05,0.29-0.16,0.41
			C169.25,34.86,169.11,34.91,168.94,34.91z M168.59,44v-7.31h0.7V44H168.59z"/>
		<path d="M175.1,44.06c-0.7,0-1.32-0.16-1.87-0.48c-0.55-0.32-0.98-0.76-1.3-1.32c-0.32-0.56-0.48-1.2-0.48-1.92
			c0-0.73,0.16-1.37,0.48-1.92c0.32-0.55,0.76-0.99,1.3-1.31c0.55-0.32,1.17-0.48,1.87-0.48s1.33,0.16,1.88,0.48s0.98,0.75,1.3,1.31
			s0.48,1.2,0.48,1.92s-0.16,1.36-0.48,1.92c-0.32,0.56-0.75,1-1.3,1.32S175.8,44.06,175.1,44.06z M175.1,43.43
			c0.56,0,1.06-0.13,1.51-0.38c0.45-0.26,0.8-0.62,1.05-1.08s0.38-1,0.38-1.61c0-0.62-0.13-1.15-0.38-1.62
			c-0.25-0.46-0.6-0.82-1.05-1.08s-0.95-0.39-1.51-0.39s-1.06,0.13-1.5,0.39s-0.79,0.62-1.05,1.08c-0.26,0.46-0.39,1-0.39,1.62
			c0,0.61,0.13,1.14,0.39,1.61s0.61,0.83,1.05,1.08S174.54,43.43,175.1,43.43z M174.3,35.5l1.95-1.65h1.01l-2.2,1.65H174.3z"/>
		<path d="M184.5,36.64c0.6,0,1.12,0.11,1.56,0.34s0.79,0.57,1.04,1.04s0.37,1.03,0.37,1.72V44h-0.7v-4.21
			c0-0.82-0.21-1.45-0.62-1.88c-0.42-0.43-1-0.64-1.74-0.64c-0.57,0-1.06,0.12-1.48,0.35c-0.42,0.23-0.74,0.56-0.96,0.98
			s-0.33,0.92-0.33,1.51V44h-0.7v-7.31h0.67v2.03l-0.1-0.22c0.22-0.58,0.59-1.03,1.11-1.37C183.12,36.8,183.75,36.64,184.5,36.64z"
			/>
		<path d="M196.76,44.06c-0.68,0-1.29-0.16-1.84-0.47s-0.98-0.75-1.29-1.31c-0.32-0.56-0.48-1.2-0.48-1.93
			c0-0.74,0.16-1.38,0.48-1.94c0.32-0.56,0.75-0.99,1.29-1.3c0.55-0.31,1.16-0.47,1.84-0.47c0.64,0,1.23,0.15,1.74,0.45
			s0.93,0.72,1.23,1.27s0.46,1.21,0.46,1.99c0,0.76-0.15,1.41-0.45,1.97s-0.71,0.99-1.22,1.29S197.41,44.06,196.76,44.06z
			 M196.8,43.43c0.56,0,1.06-0.13,1.51-0.38c0.44-0.26,0.79-0.62,1.05-1.08c0.26-0.47,0.38-1,0.38-1.61c0-0.62-0.13-1.15-0.38-1.62
			c-0.26-0.46-0.61-0.82-1.05-1.08s-0.95-0.39-1.51-0.39s-1.06,0.13-1.5,0.39s-0.79,0.62-1.05,1.08c-0.26,0.46-0.39,1-0.39,1.62
			c0,0.61,0.13,1.14,0.39,1.61s0.61,0.83,1.05,1.08S196.24,43.43,196.8,43.43z M199.75,44v-2.39l0.13-1.27l-0.14-1.27v-5.45h0.7V44
			H199.75z"/>
		<path d="M206.36,44.06c-0.74,0-1.39-0.16-1.95-0.48c-0.56-0.32-1.01-0.76-1.33-1.32c-0.32-0.56-0.48-1.2-0.48-1.92
			c0-0.73,0.15-1.37,0.46-1.92c0.3-0.55,0.72-0.99,1.25-1.31c0.53-0.32,1.13-0.48,1.79-0.48c0.66,0,1.26,0.15,1.79,0.46
			c0.53,0.31,0.94,0.74,1.25,1.29c0.3,0.56,0.46,1.2,0.46,1.93c0,0.03,0,0.06-0.01,0.09c0,0.03-0.01,0.07-0.01,0.1h-6.45v-0.55h6.08
			l-0.28,0.27c0.01-0.57-0.11-1.08-0.36-1.53s-0.58-0.81-1-1.06c-0.42-0.26-0.91-0.38-1.46-0.38c-0.54,0-1.02,0.13-1.45,0.38
			c-0.42,0.26-0.76,0.61-1,1.06s-0.36,0.97-0.36,1.55v0.13c0,0.6,0.13,1.13,0.4,1.59s0.63,0.82,1.1,1.08s1,0.38,1.6,0.38
			c0.47,0,0.9-0.08,1.31-0.25s0.75-0.42,1.03-0.77l0.41,0.46c-0.32,0.39-0.72,0.69-1.2,0.89C207.44,43.96,206.92,44.06,206.36,44.06
			z"/>
		<path d="M211.75,46.72V36.7h0.67v2.39l-0.11,1.27l0.14,1.27v5.08L211.75,46.72L211.75,46.72z M215.42,44.06
			c-0.64,0-1.23-0.15-1.74-0.45c-0.52-0.3-0.93-0.73-1.23-1.28S212,41.11,212,40.35s0.15-1.43,0.45-1.98
			c0.3-0.56,0.71-0.98,1.23-1.28c0.52-0.3,1.1-0.45,1.74-0.45c0.69,0,1.31,0.16,1.85,0.47c0.55,0.31,0.98,0.75,1.29,1.31
			s0.47,1.2,0.47,1.93s-0.16,1.37-0.47,1.93s-0.74,1-1.29,1.31C216.73,43.9,216.11,44.06,215.42,44.06z M215.38,43.43
			c0.56,0,1.06-0.13,1.51-0.38c0.45-0.26,0.8-0.62,1.06-1.08c0.26-0.47,0.38-1,0.38-1.61c0-0.62-0.13-1.15-0.38-1.62
			c-0.26-0.46-0.61-0.82-1.06-1.08s-0.95-0.39-1.51-0.39s-1.06,0.13-1.5,0.39s-0.79,0.62-1.05,1.08c-0.26,0.46-0.39,1-0.39,1.62
			c0,0.61,0.13,1.14,0.39,1.61s0.61,0.83,1.05,1.08S214.82,43.43,215.38,43.43z"/>
		<path d="M224.17,44.06c-0.74,0-1.39-0.16-1.95-0.48c-0.56-0.32-1.01-0.76-1.33-1.32c-0.32-0.56-0.48-1.2-0.48-1.92
			c0-0.73,0.15-1.37,0.46-1.92c0.3-0.55,0.72-0.99,1.25-1.31c0.53-0.32,1.13-0.48,1.79-0.48c0.66,0,1.26,0.15,1.79,0.46
			c0.53,0.31,0.94,0.74,1.25,1.29c0.3,0.56,0.46,1.2,0.46,1.93c0,0.03,0,0.06-0.01,0.09c0,0.03-0.01,0.07-0.01,0.1h-6.45v-0.55H227
			l-0.28,0.27c0.01-0.57-0.11-1.08-0.36-1.53s-0.58-0.81-1-1.06c-0.42-0.26-0.91-0.38-1.46-0.38c-0.54,0-1.02,0.13-1.45,0.38
			c-0.42,0.26-0.76,0.61-1,1.06s-0.36,0.97-0.36,1.55v0.13c0,0.6,0.13,1.13,0.4,1.59s0.63,0.82,1.1,1.08s1,0.38,1.6,0.38
			c0.47,0,0.9-0.08,1.31-0.25s0.75-0.42,1.03-0.77l0.41,0.46c-0.32,0.39-0.72,0.69-1.2,0.89C225.25,43.96,224.73,44.06,224.17,44.06
			z"/>
		<path d="M233.13,36.64c0.6,0,1.12,0.11,1.56,0.34s0.79,0.57,1.04,1.04s0.37,1.03,0.37,1.72V44h-0.7v-4.21
			c0-0.82-0.21-1.45-0.62-1.88c-0.42-0.43-1-0.64-1.74-0.64c-0.57,0-1.06,0.12-1.48,0.35c-0.42,0.23-0.74,0.56-0.96,0.98
			s-0.33,0.92-0.33,1.51V44h-0.7v-7.31h0.67v2.03l-0.1-0.22c0.22-0.58,0.59-1.03,1.11-1.37C231.75,36.8,232.38,36.64,233.13,36.64z"
			/>
		<path d="M241.8,44.06c-0.68,0-1.29-0.16-1.84-0.47s-0.98-0.75-1.29-1.31c-0.32-0.56-0.48-1.2-0.48-1.93
			c0-0.74,0.16-1.38,0.48-1.94c0.32-0.56,0.75-0.99,1.29-1.3c0.55-0.31,1.16-0.47,1.84-0.47c0.64,0,1.23,0.15,1.74,0.45
			s0.93,0.72,1.23,1.27s0.46,1.21,0.46,1.99c0,0.76-0.15,1.41-0.45,1.97s-0.71,0.99-1.22,1.29S242.45,44.06,241.8,44.06z
			 M241.84,43.43c0.56,0,1.06-0.13,1.51-0.38c0.44-0.26,0.79-0.62,1.05-1.08c0.26-0.47,0.38-1,0.38-1.61c0-0.62-0.13-1.15-0.38-1.62
			c-0.26-0.46-0.61-0.82-1.05-1.08s-0.95-0.39-1.51-0.39s-1.06,0.13-1.5,0.39s-0.79,0.62-1.05,1.08c-0.26,0.46-0.39,1-0.39,1.62
			c0,0.61,0.13,1.14,0.39,1.61s0.61,0.83,1.05,1.08S241.28,43.43,241.84,43.43z M244.79,44v-2.39l0.13-1.27l-0.14-1.27v-5.45h0.7V44
			H244.79z"/>
		<path d="M248.78,34.91c-0.16,0-0.29-0.06-0.41-0.17c-0.11-0.11-0.17-0.24-0.17-0.39c0-0.16,0.06-0.29,0.17-0.41
			c0.11-0.11,0.25-0.17,0.41-0.17c0.17,0,0.31,0.05,0.41,0.16c0.11,0.11,0.16,0.24,0.16,0.4c0,0.16-0.05,0.29-0.16,0.41
			C249.09,34.86,248.95,34.91,248.78,34.91z M248.43,44v-7.31h0.7V44H248.43z"/>
		<path d="M255.05,44.06c-0.74,0-1.39-0.16-1.95-0.48c-0.56-0.32-1.01-0.76-1.33-1.32c-0.32-0.56-0.48-1.2-0.48-1.92
			c0-0.73,0.15-1.37,0.46-1.92c0.3-0.55,0.72-0.99,1.25-1.31c0.53-0.32,1.13-0.48,1.79-0.48c0.66,0,1.26,0.15,1.79,0.46
			c0.53,0.31,0.94,0.74,1.25,1.29c0.3,0.56,0.46,1.2,0.46,1.93c0,0.03,0,0.06-0.01,0.09c0,0.03-0.01,0.07-0.01,0.1h-6.45v-0.55h6.08
			l-0.28,0.27c0.01-0.57-0.11-1.08-0.36-1.53s-0.58-0.81-1-1.06c-0.42-0.26-0.91-0.38-1.46-0.38c-0.54,0-1.02,0.13-1.45,0.38
			c-0.42,0.26-0.76,0.61-1,1.06s-0.36,0.97-0.36,1.55v0.13c0,0.6,0.13,1.13,0.4,1.59s0.63,0.82,1.1,1.08s1,0.38,1.6,0.38
			c0.47,0,0.9-0.08,1.31-0.25c0.41-0.17,0.75-0.42,1.03-0.77l0.41,0.46c-0.32,0.39-0.72,0.69-1.2,0.89
			C256.13,43.96,255.61,44.06,255.05,44.06z"/>
		<path d="M264.01,36.64c0.6,0,1.12,0.11,1.56,0.34s0.79,0.57,1.04,1.04s0.37,1.03,0.37,1.72V44h-0.7v-4.21
			c0-0.82-0.21-1.45-0.62-1.88c-0.42-0.43-1-0.64-1.74-0.64c-0.57,0-1.06,0.12-1.48,0.35c-0.42,0.23-0.74,0.56-0.96,0.98
			s-0.33,0.92-0.33,1.51V44h-0.7v-7.31h0.67v2.03l-0.1-0.22c0.22-0.58,0.59-1.03,1.11-1.37C262.64,36.8,263.27,36.64,264.01,36.64z"
			/>
		<path d="M268.66,37.29v-0.6h4.37v0.6H268.66z M271.99,44.06c-0.64,0-1.14-0.18-1.48-0.53c-0.34-0.36-0.51-0.84-0.51-1.46V35.1h0.7
			V42c0,0.47,0.12,0.83,0.35,1.08s0.57,0.38,1.01,0.38c0.46,0,0.83-0.14,1.13-0.41l0.29,0.49c-0.19,0.18-0.41,0.31-0.68,0.39
			C272.55,44.01,272.27,44.06,271.99,44.06z"/>
		<path d="M278.14,44.06c-0.74,0-1.39-0.16-1.95-0.48c-0.56-0.32-1.01-0.76-1.33-1.32c-0.32-0.56-0.48-1.2-0.48-1.92
			c0-0.73,0.15-1.37,0.46-1.92c0.3-0.55,0.72-0.99,1.25-1.31c0.53-0.32,1.13-0.48,1.79-0.48s1.26,0.15,1.79,0.46
			c0.53,0.31,0.94,0.74,1.25,1.29c0.3,0.56,0.46,1.2,0.46,1.93c0,0.03,0,0.06-0.01,0.09c0,0.03-0.01,0.07-0.01,0.1h-6.45v-0.55h6.08
			l-0.28,0.27c0.01-0.57-0.11-1.08-0.36-1.53s-0.58-0.81-1-1.06c-0.42-0.26-0.91-0.38-1.46-0.38c-0.54,0-1.02,0.13-1.45,0.38
			c-0.42,0.26-0.76,0.61-1,1.06s-0.36,0.97-0.36,1.55v0.13c0,0.6,0.13,1.13,0.4,1.59s0.63,0.82,1.1,1.08s1,0.38,1.6,0.38
			c0.47,0,0.9-0.08,1.31-0.25s0.75-0.42,1.03-0.77l0.41,0.46c-0.32,0.39-0.72,0.69-1.2,0.89C279.22,43.96,278.7,44.06,278.14,44.06z
			"/>
		<path d="M289.94,44.06c-0.68,0-1.29-0.16-1.84-0.47s-0.98-0.75-1.29-1.31c-0.32-0.56-0.48-1.2-0.48-1.93
			c0-0.74,0.16-1.38,0.48-1.94s0.75-0.99,1.29-1.3c0.55-0.31,1.16-0.47,1.84-0.47c0.64,0,1.23,0.15,1.74,0.45s0.93,0.72,1.23,1.27
			s0.46,1.21,0.46,1.99c0,0.76-0.15,1.41-0.45,1.97c-0.3,0.56-0.71,0.99-1.22,1.29S290.59,44.06,289.94,44.06z M289.98,43.43
			c0.56,0,1.06-0.13,1.51-0.38c0.44-0.26,0.79-0.62,1.05-1.08c0.26-0.47,0.38-1,0.38-1.61c0-0.62-0.13-1.15-0.38-1.62
			c-0.26-0.46-0.61-0.82-1.05-1.08s-0.95-0.39-1.51-0.39s-1.06,0.13-1.5,0.39s-0.79,0.62-1.05,1.08c-0.26,0.46-0.39,1-0.39,1.62
			c0,0.61,0.13,1.14,0.39,1.61s0.61,0.83,1.05,1.08S289.42,43.43,289.98,43.43z M292.94,44v-2.39l0.13-1.27l-0.14-1.27v-5.45h0.7V44
			H292.94z"/>
		<path d="M299.54,44.06c-0.74,0-1.39-0.16-1.95-0.48c-0.56-0.32-1.01-0.76-1.33-1.32c-0.32-0.56-0.48-1.2-0.48-1.92
			c0-0.73,0.15-1.37,0.46-1.92c0.3-0.55,0.72-0.99,1.25-1.31c0.53-0.32,1.13-0.48,1.79-0.48s1.26,0.15,1.79,0.46
			c0.53,0.31,0.94,0.74,1.25,1.29c0.3,0.56,0.46,1.2,0.46,1.93c0,0.03,0,0.06-0.01,0.09c0,0.03-0.01,0.07-0.01,0.1h-6.45v-0.55h6.08
			l-0.28,0.27c0.01-0.57-0.11-1.08-0.36-1.53s-0.58-0.81-1-1.06c-0.42-0.26-0.91-0.38-1.46-0.38c-0.54,0-1.02,0.13-1.45,0.38
			c-0.42,0.26-0.76,0.61-1,1.06s-0.36,0.97-0.36,1.55v0.13c0,0.6,0.13,1.13,0.4,1.59s0.63,0.82,1.1,1.08s1,0.38,1.6,0.38
			c0.47,0,0.9-0.08,1.31-0.25s0.75-0.42,1.03-0.77l0.41,0.46c-0.32,0.39-0.72,0.69-1.2,0.89C300.62,43.96,300.1,44.06,299.54,44.06z
			"/>
		<path d="M308.53,44V33.61h0.7V44H308.53z"/>
		<path d="M315.04,44.06c-0.7,0-1.32-0.16-1.87-0.48c-0.55-0.32-0.98-0.76-1.3-1.32c-0.32-0.56-0.48-1.2-0.48-1.92
			c0-0.73,0.16-1.37,0.48-1.92s0.76-0.99,1.3-1.31c0.55-0.32,1.17-0.48,1.87-0.48c0.7,0,1.33,0.16,1.88,0.48s0.98,0.75,1.3,1.31
			c0.32,0.56,0.48,1.2,0.48,1.92s-0.16,1.36-0.48,1.92s-0.75,1-1.3,1.32S315.74,44.06,315.04,44.06z M315.04,43.43
			c0.56,0,1.06-0.13,1.51-0.38c0.45-0.26,0.8-0.62,1.05-1.08s0.38-1,0.38-1.61c0-0.62-0.13-1.15-0.38-1.62
			c-0.25-0.46-0.6-0.82-1.05-1.08c-0.45-0.26-0.95-0.39-1.51-0.39s-1.06,0.13-1.5,0.39s-0.79,0.62-1.05,1.08
			c-0.26,0.46-0.39,1-0.39,1.62c0,0.61,0.13,1.14,0.39,1.61s0.61,0.83,1.05,1.08S314.48,43.43,315.04,43.43z"/>
		<path d="M322.71,44.06c-0.61,0-1.17-0.09-1.7-0.27c-0.53-0.18-0.94-0.4-1.23-0.67l0.32-0.56c0.28,0.24,0.65,0.45,1.12,0.62
			s0.97,0.26,1.51,0.26c0.77,0,1.32-0.13,1.65-0.38c0.34-0.25,0.5-0.58,0.5-0.99c0-0.3-0.09-0.53-0.26-0.71s-0.4-0.31-0.69-0.4
			s-0.61-0.17-0.95-0.23c-0.35-0.06-0.69-0.13-1.04-0.2c-0.35-0.08-0.66-0.18-0.95-0.32c-0.29-0.14-0.52-0.33-0.69-0.58
			s-0.26-0.58-0.26-0.99c0-0.37,0.1-0.71,0.31-1.01c0.21-0.3,0.51-0.54,0.92-0.72c0.41-0.18,0.92-0.27,1.54-0.27
			c0.46,0,0.92,0.07,1.38,0.2c0.46,0.13,0.84,0.3,1.13,0.52L325,37.92c-0.31-0.23-0.65-0.4-1.04-0.5s-0.77-0.15-1.16-0.15
			c-0.71,0-1.23,0.13-1.56,0.39s-0.5,0.59-0.5,0.98c0,0.31,0.09,0.55,0.26,0.74c0.17,0.18,0.4,0.32,0.69,0.42
			c0.29,0.1,0.61,0.18,0.95,0.24c0.35,0.06,0.69,0.13,1.04,0.2c0.35,0.08,0.66,0.18,0.95,0.32c0.29,0.13,0.52,0.32,0.69,0.56
			c0.17,0.24,0.26,0.56,0.26,0.96s-0.11,0.75-0.33,1.05s-0.54,0.53-0.97,0.7C323.87,43.97,323.34,44.06,322.71,44.06z"/>
		<path d="M333.97,44.06c-0.68,0-1.29-0.16-1.84-0.47s-0.98-0.75-1.29-1.31c-0.32-0.56-0.48-1.2-0.48-1.93
			c0-0.74,0.16-1.38,0.48-1.94s0.75-0.99,1.29-1.3c0.55-0.31,1.16-0.47,1.84-0.47c0.64,0,1.23,0.15,1.74,0.45s0.93,0.72,1.23,1.27
			s0.46,1.21,0.46,1.99c0,0.76-0.15,1.41-0.45,1.97c-0.3,0.56-0.71,0.99-1.22,1.29S334.62,44.06,333.97,44.06z M334.01,43.43
			c0.56,0,1.06-0.13,1.51-0.38c0.44-0.26,0.79-0.62,1.05-1.08c0.26-0.47,0.38-1,0.38-1.61c0-0.62-0.13-1.15-0.38-1.62
			c-0.26-0.46-0.61-0.82-1.05-1.08s-0.95-0.39-1.51-0.39s-1.06,0.13-1.5,0.39s-0.79,0.62-1.05,1.08c-0.26,0.46-0.39,1-0.39,1.62
			c0,0.61,0.13,1.14,0.39,1.61s0.61,0.83,1.05,1.08S333.45,43.43,334.01,43.43z M336.97,44v-2.39l0.13-1.27l-0.14-1.27v-5.45h0.7V44
			H336.97z"/>
		<path d="M340.96,34.91c-0.16,0-0.29-0.06-0.41-0.17c-0.11-0.11-0.17-0.24-0.17-0.39c0-0.16,0.06-0.29,0.17-0.41
			c0.11-0.11,0.25-0.17,0.41-0.17c0.17,0,0.31,0.05,0.41,0.16c0.11,0.11,0.16,0.24,0.16,0.4c0,0.16-0.05,0.29-0.16,0.41
			C341.26,34.86,341.12,34.91,340.96,34.91z M340.6,44v-7.31h0.7V44H340.6z"/>
		<path d="M346.11,44.06c-0.61,0-1.17-0.09-1.7-0.27c-0.53-0.18-0.94-0.4-1.23-0.67l0.32-0.56c0.28,0.24,0.65,0.45,1.12,0.62
			s0.97,0.26,1.51,0.26c0.77,0,1.32-0.13,1.65-0.38c0.34-0.25,0.5-0.58,0.5-0.99c0-0.3-0.09-0.53-0.26-0.71s-0.4-0.31-0.69-0.4
			s-0.61-0.17-0.95-0.23c-0.35-0.06-0.69-0.13-1.04-0.2c-0.35-0.08-0.66-0.18-0.95-0.32c-0.29-0.14-0.52-0.33-0.69-0.58
			s-0.26-0.58-0.26-0.99c0-0.37,0.1-0.71,0.31-1.01c0.21-0.3,0.51-0.54,0.92-0.72c0.41-0.18,0.92-0.27,1.54-0.27
			c0.46,0,0.92,0.07,1.38,0.2c0.46,0.13,0.84,0.3,1.13,0.52l-0.32,0.56c-0.31-0.23-0.65-0.4-1.04-0.5s-0.77-0.15-1.16-0.15
			c-0.71,0-1.23,0.13-1.56,0.39s-0.5,0.59-0.5,0.98c0,0.31,0.09,0.55,0.26,0.74c0.17,0.18,0.4,0.32,0.69,0.42
			c0.29,0.1,0.61,0.18,0.95,0.24c0.35,0.06,0.69,0.13,1.04,0.2c0.35,0.08,0.66,0.18,0.95,0.32c0.29,0.13,0.52,0.32,0.69,0.56
			c0.17,0.24,0.26,0.56,0.26,0.96s-0.11,0.75-0.33,1.05s-0.54,0.53-0.97,0.7C347.26,43.97,346.73,44.06,346.11,44.06z"/>
		<path d="M349.75,37.29v-0.6h4.37v0.6H349.75z M353.08,44.06c-0.64,0-1.14-0.18-1.48-0.53c-0.34-0.36-0.51-0.84-0.51-1.46V35.1h0.7
			V42c0,0.47,0.12,0.83,0.35,1.08s0.57,0.38,1.01,0.38c0.46,0,0.83-0.14,1.13-0.41l0.29,0.49c-0.19,0.18-0.41,0.31-0.68,0.39
			C353.63,44.01,353.36,44.06,353.08,44.06z"/>
		<path d="M356.87,34.91c-0.16,0-0.29-0.06-0.41-0.17c-0.11-0.11-0.17-0.24-0.17-0.39c0-0.16,0.06-0.29,0.17-0.41
			c0.11-0.11,0.25-0.17,0.41-0.17c0.17,0,0.31,0.05,0.41,0.16c0.11,0.11,0.16,0.24,0.16,0.4c0,0.16-0.05,0.29-0.16,0.41
			C357.18,34.86,357.04,34.91,356.87,34.91z M356.52,44v-7.31h0.7V44H356.52z"/>
		<path d="M363.75,36.64c0.6,0,1.12,0.11,1.56,0.34s0.79,0.57,1.04,1.04s0.37,1.03,0.37,1.72V44h-0.7v-4.21
			c0-0.82-0.21-1.45-0.62-1.88c-0.42-0.43-1-0.64-1.74-0.64c-0.57,0-1.06,0.12-1.48,0.35c-0.42,0.23-0.74,0.56-0.96,0.98
			s-0.33,0.92-0.33,1.51V44h-0.7v-7.31h0.67v2.03l-0.1-0.22c0.22-0.58,0.59-1.03,1.11-1.37C362.37,36.8,363,36.64,363.75,36.64z"/>
		<path d="M368.39,37.29v-0.6h4.37v0.6H368.39z M371.73,44.06c-0.64,0-1.14-0.18-1.48-0.53c-0.34-0.36-0.51-0.84-0.51-1.46V35.1h0.7
			V42c0,0.47,0.12,0.83,0.35,1.08s0.57,0.38,1.01,0.38c0.46,0,0.83-0.14,1.13-0.41l0.29,0.49c-0.19,0.18-0.41,0.31-0.68,0.39
			C372.28,44.01,372.01,44.06,371.73,44.06z"/>
		<path d="M377.76,44.06c-0.7,0-1.32-0.16-1.87-0.48c-0.55-0.32-0.98-0.76-1.3-1.32c-0.32-0.56-0.48-1.2-0.48-1.92
			c0-0.73,0.16-1.37,0.48-1.92s0.76-0.99,1.3-1.31c0.55-0.32,1.17-0.48,1.87-0.48c0.7,0,1.33,0.16,1.88,0.48s0.98,0.75,1.3,1.31
			c0.32,0.56,0.48,1.2,0.48,1.92s-0.16,1.36-0.48,1.92s-0.75,1-1.3,1.32S378.46,44.06,377.76,44.06z M377.76,43.43
			c0.56,0,1.06-0.13,1.51-0.38c0.45-0.26,0.8-0.62,1.05-1.08s0.38-1,0.38-1.61c0-0.62-0.13-1.15-0.38-1.62
			c-0.25-0.46-0.6-0.82-1.05-1.08c-0.45-0.26-0.95-0.39-1.51-0.39s-1.06,0.13-1.5,0.39s-0.79,0.62-1.05,1.08
			c-0.26,0.46-0.39,1-0.39,1.62c0,0.61,0.13,1.14,0.39,1.61s0.61,0.83,1.05,1.08S377.2,43.43,377.76,43.43z"/>
		<path d="M385.43,44.06c-0.61,0-1.17-0.09-1.7-0.27c-0.53-0.18-0.94-0.4-1.23-0.67l0.32-0.56c0.28,0.24,0.65,0.45,1.12,0.62
			s0.97,0.26,1.51,0.26c0.77,0,1.32-0.13,1.65-0.38c0.34-0.25,0.5-0.58,0.5-0.99c0-0.3-0.09-0.53-0.26-0.71s-0.4-0.31-0.69-0.4
			s-0.61-0.17-0.95-0.23c-0.35-0.06-0.69-0.13-1.04-0.2c-0.35-0.08-0.66-0.18-0.95-0.32c-0.29-0.14-0.52-0.33-0.69-0.58
			s-0.26-0.58-0.26-0.99c0-0.37,0.1-0.71,0.31-1.01c0.21-0.3,0.51-0.54,0.92-0.72c0.41-0.18,0.92-0.27,1.54-0.27
			c0.46,0,0.92,0.07,1.38,0.2c0.46,0.13,0.84,0.3,1.13,0.52l-0.32,0.56c-0.31-0.23-0.65-0.4-1.04-0.5s-0.77-0.15-1.16-0.15
			c-0.71,0-1.23,0.13-1.56,0.39s-0.5,0.59-0.5,0.98c0,0.31,0.09,0.55,0.26,0.74c0.17,0.18,0.4,0.32,0.69,0.42
			c0.29,0.1,0.61,0.18,0.95,0.24c0.35,0.06,0.69,0.13,1.04,0.2c0.35,0.08,0.66,0.18,0.95,0.32c0.29,0.13,0.52,0.32,0.69,0.56
			c0.17,0.24,0.26,0.56,0.26,0.96s-0.11,0.75-0.33,1.05s-0.54,0.53-0.97,0.7C386.58,43.97,386.06,44.06,385.43,44.06z"/>
		<path d="M395.72,44.06c-0.61,0-1.17-0.09-1.7-0.27c-0.53-0.18-0.94-0.4-1.23-0.67l0.32-0.56c0.28,0.24,0.65,0.45,1.12,0.62
			s0.97,0.26,1.51,0.26c0.77,0,1.32-0.13,1.65-0.38c0.34-0.25,0.5-0.58,0.5-0.99c0-0.3-0.09-0.53-0.26-0.71s-0.4-0.31-0.69-0.4
			s-0.61-0.17-0.95-0.23c-0.35-0.06-0.69-0.13-1.04-0.2c-0.35-0.08-0.66-0.18-0.95-0.32c-0.29-0.14-0.52-0.33-0.69-0.58
			s-0.26-0.58-0.26-0.99c0-0.37,0.1-0.71,0.31-1.01c0.21-0.3,0.51-0.54,0.92-0.72c0.41-0.18,0.92-0.27,1.54-0.27
			c0.46,0,0.92,0.07,1.38,0.2c0.46,0.13,0.84,0.3,1.13,0.52l-0.32,0.56c-0.31-0.23-0.65-0.4-1.04-0.5s-0.77-0.15-1.16-0.15
			c-0.71,0-1.23,0.13-1.56,0.39s-0.5,0.59-0.5,0.98c0,0.31,0.09,0.55,0.26,0.74c0.17,0.18,0.4,0.32,0.69,0.42
			c0.29,0.1,0.61,0.18,0.95,0.24c0.35,0.06,0.69,0.13,1.04,0.2c0.35,0.08,0.66,0.18,0.95,0.32c0.29,0.13,0.52,0.32,0.69,0.56
			c0.17,0.24,0.26,0.56,0.26,0.96s-0.11,0.75-0.33,1.05s-0.54,0.53-0.97,0.7C396.88,43.97,396.35,44.06,395.72,44.06z"/>
		<path d="M400.92,34.91c-0.16,0-0.29-0.06-0.41-0.17c-0.11-0.11-0.17-0.24-0.17-0.39c0-0.16,0.06-0.29,0.17-0.41
			c0.11-0.11,0.25-0.17,0.41-0.17c0.17,0,0.31,0.05,0.41,0.16c0.11,0.11,0.16,0.24,0.16,0.4c0,0.16-0.05,0.29-0.16,0.41
			C401.22,34.86,401.08,34.91,400.92,34.91z M400.57,44v-7.31h0.7V44H400.57z"/>
		<path d="M406.07,44.06c-0.61,0-1.17-0.09-1.7-0.27c-0.53-0.18-0.94-0.4-1.22-0.67l0.32-0.56c0.28,0.24,0.65,0.45,1.12,0.62
			s0.97,0.26,1.51,0.26c0.77,0,1.32-0.13,1.65-0.38c0.34-0.25,0.5-0.58,0.5-0.99c0-0.3-0.09-0.53-0.26-0.71s-0.4-0.31-0.69-0.4
			s-0.61-0.17-0.95-0.23c-0.34-0.06-0.69-0.13-1.04-0.2c-0.35-0.08-0.66-0.18-0.95-0.32c-0.29-0.14-0.52-0.33-0.69-0.58
			s-0.26-0.58-0.26-0.99c0-0.37,0.1-0.71,0.31-1.01c0.21-0.3,0.51-0.54,0.92-0.72c0.41-0.18,0.92-0.27,1.54-0.27
			c0.46,0,0.92,0.07,1.38,0.2s0.84,0.3,1.13,0.52l-0.32,0.56c-0.31-0.23-0.65-0.4-1.04-0.5s-0.77-0.15-1.16-0.15
			c-0.71,0-1.23,0.13-1.56,0.39s-0.5,0.59-0.5,0.98c0,0.31,0.09,0.55,0.26,0.74c0.17,0.18,0.4,0.32,0.69,0.42
			c0.29,0.1,0.61,0.18,0.95,0.24c0.35,0.06,0.69,0.13,1.04,0.2c0.34,0.08,0.66,0.18,0.95,0.32c0.29,0.13,0.52,0.32,0.69,0.56
			c0.17,0.24,0.26,0.56,0.26,0.96s-0.11,0.75-0.33,1.05s-0.54,0.53-0.97,0.7S406.69,44.06,406.07,44.06z"/>
		<path d="M409.71,37.29v-0.6h4.37v0.6H409.71z M413.04,44.06c-0.64,0-1.14-0.18-1.48-0.53c-0.34-0.36-0.51-0.84-0.51-1.46V35.1h0.7
			V42c0,0.47,0.12,0.83,0.35,1.08s0.57,0.38,1.01,0.38c0.46,0,0.83-0.14,1.13-0.41l0.29,0.49c-0.19,0.18-0.41,0.31-0.68,0.39
			S413.32,44.06,413.04,44.06z"/>
		<path d="M419.19,44.06c-0.74,0-1.39-0.16-1.95-0.48s-1.01-0.76-1.33-1.32c-0.32-0.56-0.48-1.2-0.48-1.92
			c0-0.73,0.15-1.37,0.46-1.92c0.3-0.55,0.72-0.99,1.25-1.31s1.13-0.48,1.79-0.48s1.26,0.15,1.79,0.46
			c0.53,0.31,0.94,0.74,1.25,1.29c0.3,0.56,0.46,1.2,0.46,1.93c0,0.03,0,0.06-0.01,0.09c0,0.03-0.01,0.07-0.01,0.1h-6.46v-0.55h6.08
			l-0.28,0.27c0.01-0.57-0.11-1.08-0.36-1.53s-0.58-0.81-1-1.06c-0.42-0.26-0.91-0.38-1.46-0.38c-0.54,0-1.02,0.13-1.45,0.38
			c-0.42,0.26-0.76,0.61-1,1.06s-0.36,0.97-0.36,1.55v0.13c0,0.6,0.13,1.13,0.4,1.59s0.63,0.82,1.1,1.08s1,0.38,1.6,0.38
			c0.47,0,0.9-0.08,1.31-0.25s0.75-0.42,1.03-0.77l0.41,0.46c-0.32,0.39-0.72,0.69-1.2,0.89C420.27,43.96,419.75,44.06,419.19,44.06
			z"/>
		<path d="M433.68,36.64c0.59,0,1.1,0.11,1.53,0.34s0.77,0.57,1.01,1.04s0.36,1.03,0.36,1.72V44h-0.7v-4.21
			c0-0.82-0.2-1.45-0.6-1.88c-0.4-0.43-0.96-0.64-1.68-0.64c-0.55,0-1.03,0.12-1.43,0.35s-0.71,0.56-0.92,0.98s-0.32,0.92-0.32,1.51
			V44h-0.7v-4.21c0-0.82-0.2-1.45-0.6-1.88s-0.96-0.64-1.68-0.64c-0.55,0-1.03,0.12-1.43,0.35c-0.4,0.23-0.71,0.56-0.92,0.98
			s-0.32,0.92-0.32,1.51V44h-0.7v-7.31h0.67v2.02l-0.1-0.22c0.21-0.57,0.57-1.02,1.08-1.35c0.5-0.33,1.11-0.5,1.82-0.5
			c0.73,0,1.34,0.18,1.84,0.55c0.5,0.37,0.81,0.92,0.95,1.64l-0.24-0.1c0.2-0.63,0.56-1.13,1.11-1.52
			C432.24,36.83,432.9,36.64,433.68,36.64z"/>
		<path d="M441.45,44.06c-0.54,0-1.01-0.09-1.41-0.26s-0.7-0.42-0.91-0.74s-0.31-0.68-0.31-1.09c0-0.37,0.09-0.71,0.26-1.01
			c0.17-0.3,0.46-0.55,0.86-0.74s0.94-0.29,1.61-0.29h2.69v0.55h-2.67c-0.76,0-1.29,0.14-1.59,0.42s-0.46,0.63-0.46,1.05
			c0,0.47,0.18,0.84,0.53,1.12s0.85,0.42,1.5,0.42c0.62,0,1.14-0.14,1.56-0.42c0.42-0.28,0.74-0.69,0.94-1.22l0.2,0.48
			c-0.2,0.53-0.53,0.95-1,1.27C442.77,43.9,442.17,44.06,441.45,44.06z M444.08,44v-1.67l-0.03-0.25v-2.74
			c0-0.68-0.18-1.2-0.55-1.55s-0.91-0.53-1.62-0.53c-0.5,0-0.97,0.09-1.41,0.26c-0.43,0.17-0.8,0.39-1.11,0.67l-0.35-0.5
			c0.36-0.33,0.8-0.58,1.32-0.76c0.51-0.18,1.05-0.27,1.61-0.27c0.91,0,1.6,0.23,2.09,0.69s0.73,1.14,0.73,2.04V44H444.08z"/>
		<path d="M449.48,44.06c-0.61,0-1.17-0.09-1.7-0.27c-0.53-0.18-0.94-0.4-1.23-0.67l0.32-0.56c0.28,0.24,0.65,0.45,1.12,0.62
			s0.97,0.26,1.51,0.26c0.77,0,1.32-0.13,1.65-0.38c0.34-0.25,0.5-0.58,0.5-0.99c0-0.3-0.09-0.53-0.26-0.71
			c-0.17-0.17-0.4-0.31-0.69-0.4s-0.61-0.17-0.95-0.23c-0.35-0.06-0.69-0.13-1.04-0.2c-0.35-0.08-0.66-0.18-0.95-0.32
			s-0.52-0.33-0.69-0.58s-0.26-0.58-0.26-0.99c0-0.37,0.1-0.71,0.31-1.01c0.21-0.3,0.51-0.54,0.92-0.72
			c0.41-0.18,0.92-0.27,1.54-0.27c0.46,0,0.92,0.07,1.38,0.2c0.46,0.13,0.84,0.3,1.13,0.52l-0.32,0.56c-0.31-0.23-0.65-0.4-1.04-0.5
			s-0.77-0.15-1.16-0.15c-0.71,0-1.23,0.13-1.56,0.39s-0.5,0.59-0.5,0.98c0,0.31,0.09,0.55,0.26,0.74c0.17,0.18,0.4,0.32,0.69,0.42
			c0.29,0.1,0.61,0.18,0.95,0.24c0.35,0.06,0.69,0.13,1.04,0.2c0.34,0.08,0.66,0.18,0.95,0.32c0.29,0.13,0.52,0.32,0.69,0.56
			c0.17,0.24,0.26,0.56,0.26,0.96s-0.11,0.75-0.33,1.05s-0.54,0.53-0.97,0.7C450.63,43.97,450.11,44.06,449.48,44.06z"/>
		<path d="M460.74,44.06c-0.68,0-1.29-0.16-1.84-0.47s-0.98-0.75-1.29-1.31c-0.32-0.56-0.48-1.2-0.48-1.93
			c0-0.74,0.16-1.38,0.48-1.94s0.75-0.99,1.29-1.3c0.55-0.31,1.16-0.47,1.84-0.47c0.64,0,1.23,0.15,1.74,0.45s0.93,0.72,1.23,1.27
			c0.3,0.55,0.46,1.21,0.46,1.99c0,0.76-0.15,1.41-0.45,1.97c-0.3,0.56-0.71,0.99-1.22,1.29C461.98,43.91,461.39,44.06,460.74,44.06
			z M460.78,43.43c0.56,0,1.06-0.13,1.51-0.38c0.44-0.26,0.79-0.62,1.05-1.08c0.26-0.47,0.38-1,0.38-1.61
			c0-0.62-0.13-1.15-0.38-1.62c-0.26-0.46-0.61-0.82-1.05-1.08s-0.95-0.39-1.51-0.39s-1.06,0.13-1.5,0.39s-0.79,0.62-1.05,1.08
			c-0.26,0.46-0.38,1-0.38,1.62c0,0.61,0.13,1.14,0.38,1.61c0.26,0.47,0.61,0.83,1.05,1.08S460.22,43.43,460.78,43.43z M463.73,44
			v-2.39l0.13-1.27l-0.14-1.27v-5.45h0.7V44H463.73z"/>
		<path d="M470.34,44.06c-0.74,0-1.39-0.16-1.95-0.48c-0.57-0.32-1.01-0.76-1.33-1.32c-0.32-0.56-0.48-1.2-0.48-1.92
			c0-0.73,0.15-1.37,0.46-1.92c0.3-0.55,0.72-0.99,1.25-1.31c0.53-0.32,1.13-0.48,1.79-0.48s1.26,0.15,1.79,0.46
			c0.53,0.31,0.94,0.74,1.25,1.29c0.3,0.56,0.46,1.2,0.46,1.93c0,0.03,0,0.06-0.01,0.09s-0.01,0.07-0.01,0.1h-6.45v-0.55h6.08
			l-0.28,0.27c0.01-0.57-0.11-1.08-0.36-1.53s-0.58-0.81-1-1.06c-0.42-0.26-0.91-0.38-1.46-0.38c-0.54,0-1.02,0.13-1.45,0.38
			c-0.42,0.26-0.76,0.61-1,1.06s-0.36,0.97-0.36,1.55v0.13c0,0.6,0.13,1.13,0.4,1.59s0.63,0.82,1.1,1.08s1,0.38,1.6,0.38
			c0.47,0,0.9-0.08,1.31-0.25s0.75-0.42,1.03-0.77l0.41,0.46c-0.32,0.39-0.72,0.69-1.2,0.89C471.42,43.96,470.9,44.06,470.34,44.06z
			"/>
		<path d="M482.14,44.06c-0.68,0-1.29-0.16-1.84-0.47s-0.98-0.75-1.29-1.31c-0.32-0.56-0.48-1.2-0.48-1.93
			c0-0.74,0.16-1.38,0.48-1.94s0.75-0.99,1.29-1.3c0.55-0.31,1.16-0.47,1.84-0.47c0.64,0,1.22,0.15,1.74,0.45s0.93,0.72,1.23,1.27
			c0.3,0.55,0.46,1.21,0.46,1.99c0,0.76-0.15,1.41-0.45,1.97c-0.3,0.56-0.71,0.99-1.22,1.29C483.38,43.91,482.8,44.06,482.14,44.06z
			 M482.18,43.43c0.56,0,1.06-0.13,1.5-0.38s0.79-0.62,1.05-1.08c0.26-0.47,0.38-1,0.38-1.61c0-0.62-0.13-1.15-0.38-1.62
			c-0.26-0.46-0.61-0.82-1.05-1.08s-0.95-0.39-1.5-0.39s-1.06,0.13-1.5,0.39s-0.79,0.62-1.05,1.08c-0.26,0.46-0.39,1-0.39,1.62
			c0,0.61,0.13,1.14,0.39,1.61s0.61,0.83,1.05,1.08S481.62,43.43,482.18,43.43z M485.14,44v-2.39l0.13-1.27l-0.14-1.27v-5.45h0.7V44
			H485.14z"/>
		<path d="M489.13,34.91c-0.16,0-0.29-0.06-0.41-0.17c-0.11-0.11-0.17-0.24-0.17-0.39c0-0.16,0.06-0.29,0.17-0.41
			c0.11-0.11,0.25-0.17,0.41-0.17c0.17,0,0.31,0.05,0.41,0.16c0.11,0.11,0.16,0.24,0.16,0.4c0,0.16-0.05,0.29-0.16,0.41
			C489.43,34.86,489.3,34.91,489.13,34.91z M488.78,44v-7.31h0.7V44H488.78z"/>
		<path d="M494.28,44.06c-0.61,0-1.17-0.09-1.7-0.27c-0.53-0.18-0.94-0.4-1.23-0.67l0.32-0.56c0.28,0.24,0.65,0.45,1.12,0.62
			s0.97,0.26,1.51,0.26c0.77,0,1.32-0.13,1.65-0.38c0.34-0.25,0.5-0.58,0.5-0.99c0-0.3-0.09-0.53-0.26-0.71
			c-0.17-0.17-0.4-0.31-0.69-0.4s-0.61-0.17-0.95-0.23c-0.35-0.06-0.69-0.13-1.04-0.2c-0.35-0.08-0.66-0.18-0.95-0.32
			s-0.52-0.33-0.69-0.58s-0.26-0.58-0.26-0.99c0-0.37,0.1-0.71,0.31-1.01c0.21-0.3,0.51-0.54,0.92-0.72
			c0.41-0.18,0.92-0.27,1.54-0.27c0.46,0,0.92,0.07,1.38,0.2c0.46,0.13,0.84,0.3,1.13,0.52l-0.32,0.56c-0.31-0.23-0.65-0.4-1.04-0.5
			s-0.77-0.15-1.16-0.15c-0.71,0-1.23,0.13-1.56,0.39s-0.5,0.59-0.5,0.98c0,0.31,0.09,0.55,0.26,0.74c0.17,0.18,0.4,0.32,0.69,0.42
			c0.29,0.1,0.61,0.18,0.95,0.24c0.35,0.06,0.69,0.13,1.04,0.2c0.34,0.08,0.66,0.18,0.95,0.32c0.29,0.13,0.52,0.32,0.69,0.56
			c0.17,0.24,0.26,0.56,0.26,0.96s-0.11,0.75-0.33,1.05s-0.54,0.53-0.97,0.7C495.43,43.97,494.91,44.06,494.28,44.06z"/>
		<path d="M497.92,37.29v-0.6h4.37v0.6H497.92z M501.25,44.06c-0.64,0-1.14-0.18-1.48-0.53c-0.34-0.36-0.51-0.84-0.51-1.46V35.1h0.7
			V42c0,0.47,0.12,0.83,0.35,1.08s0.57,0.38,1.01,0.38c0.46,0,0.84-0.14,1.13-0.41l0.29,0.49c-0.19,0.18-0.41,0.31-0.68,0.39
			C501.81,44.01,501.53,44.06,501.25,44.06z"/>
		<path d="M504.7,44v-7.31h0.67v2l-0.07-0.22c0.21-0.59,0.55-1.04,1.04-1.36c0.49-0.32,1.09-0.48,1.82-0.48v0.69
			c-0.03,0-0.06,0-0.08-0.01c-0.03,0-0.06-0.01-0.08-0.01c-0.81,0-1.45,0.25-1.9,0.76s-0.69,1.22-0.69,2.12V44H504.7z"/>
		<path d="M510.44,34.91c-0.16,0-0.29-0.06-0.41-0.17c-0.11-0.11-0.17-0.24-0.17-0.39c0-0.16,0.06-0.29,0.17-0.41
			c0.11-0.11,0.25-0.17,0.41-0.17c0.17,0,0.31,0.05,0.41,0.16s0.16,0.24,0.16,0.4c0,0.16-0.05,0.29-0.16,0.41
			S510.6,34.91,510.44,34.91z M510.09,44v-7.31h0.7V44H510.09z"/>
		<path d="M513.74,44V33.61h0.7v5.45l-0.14,1.27l0.11,1.27V44H513.74z M517.41,44.06c-0.64,0-1.22-0.15-1.74-0.45
			s-0.93-0.73-1.23-1.29s-0.46-1.22-0.46-1.97c0-0.77,0.15-1.44,0.46-1.99c0.3-0.55,0.71-0.98,1.23-1.27
			c0.52-0.3,1.1-0.45,1.74-0.45c0.69,0,1.31,0.16,1.86,0.47s0.97,0.75,1.29,1.3s0.47,1.2,0.47,1.94c0,0.73-0.16,1.37-0.47,1.93
			s-0.74,1-1.29,1.31S518.1,44.06,517.41,44.06z M517.37,43.43c0.56,0,1.06-0.13,1.51-0.38c0.45-0.26,0.8-0.62,1.06-1.08
			c0.26-0.47,0.38-1,0.38-1.61c0-0.62-0.13-1.15-0.38-1.62c-0.26-0.46-0.61-0.82-1.06-1.08s-0.95-0.39-1.51-0.39
			s-1.06,0.13-1.5,0.39s-0.79,0.62-1.05,1.08s-0.39,1-0.39,1.62c0,0.61,0.13,1.14,0.39,1.61s0.61,0.83,1.05,1.08
			S516.81,43.43,517.37,43.43z"/>
		<path d="M526.16,44.06c-0.62,0-1.17-0.11-1.62-0.34c-0.46-0.23-0.81-0.57-1.06-1.04c-0.25-0.46-0.37-1.03-0.37-1.71V36.7h0.7v4.21
			c0,0.82,0.21,1.45,0.63,1.88c0.42,0.43,1.01,0.64,1.78,0.64c0.55,0,1.03-0.12,1.43-0.35c0.4-0.23,0.71-0.56,0.92-0.99
			s0.32-0.93,0.32-1.5V36.7h0.7V44h-0.67v-2.03l0.1,0.24c-0.21,0.57-0.57,1.02-1.07,1.35C527.44,43.89,526.85,44.06,526.16,44.06z"
			/>
		<path d="M535.45,44.06c-0.71,0-1.34-0.16-1.9-0.48c-0.55-0.32-0.99-0.76-1.32-1.32c-0.32-0.56-0.48-1.2-0.48-1.92
			c0-0.73,0.16-1.37,0.48-1.93s0.76-1,1.32-1.31s1.19-0.47,1.9-0.47c0.59,0,1.12,0.11,1.6,0.34c0.48,0.22,0.87,0.56,1.17,1.01
			l-0.52,0.38c-0.26-0.37-0.59-0.65-0.98-0.83c-0.39-0.18-0.82-0.27-1.27-0.27c-0.57,0-1.08,0.13-1.53,0.39s-0.81,0.62-1.06,1.08
			c-0.26,0.46-0.38,1-0.38,1.62s0.13,1.16,0.38,1.62c0.26,0.46,0.61,0.82,1.06,1.08s0.96,0.38,1.53,0.38c0.46,0,0.88-0.09,1.27-0.27
			c0.39-0.18,0.72-0.45,0.98-0.83l0.52,0.38c-0.3,0.45-0.69,0.78-1.17,1.01C536.58,43.94,536.04,44.06,535.45,44.06z"/>
		<path d="M540.55,34.91c-0.16,0-0.29-0.06-0.41-0.17c-0.11-0.11-0.17-0.24-0.17-0.39c0-0.16,0.06-0.29,0.17-0.41
			c0.11-0.11,0.25-0.17,0.41-0.17c0.17,0,0.3,0.05,0.41,0.16s0.16,0.24,0.16,0.4c0,0.16-0.05,0.29-0.16,0.41
			S540.72,34.91,540.55,34.91z M540.2,44v-7.31h0.7V44H540.2z"/>
		<path d="M546.71,44.06c-0.7,0-1.32-0.16-1.87-0.48c-0.55-0.32-0.98-0.76-1.3-1.32c-0.32-0.56-0.48-1.2-0.48-1.92
			c0-0.73,0.16-1.37,0.48-1.92s0.76-0.99,1.3-1.31c0.54-0.32,1.17-0.48,1.87-0.48s1.33,0.16,1.88,0.48s0.98,0.75,1.3,1.31
			s0.48,1.2,0.48,1.92s-0.16,1.36-0.48,1.92s-0.75,1-1.3,1.32S547.41,44.06,546.71,44.06z M546.71,43.43c0.56,0,1.06-0.13,1.51-0.38
			c0.45-0.26,0.8-0.62,1.05-1.08s0.38-1,0.38-1.61c0-0.62-0.13-1.15-0.38-1.62c-0.25-0.46-0.6-0.82-1.05-1.08s-0.95-0.39-1.51-0.39
			s-1.06,0.13-1.5,0.39s-0.79,0.62-1.05,1.08s-0.39,1-0.39,1.62c0,0.61,0.13,1.14,0.39,1.61s0.61,0.83,1.05,1.08
			S546.15,43.43,546.71,43.43z M545.91,35.5l1.95-1.65h1.01l-2.2,1.65H545.91z"/>
		<path d="M556.1,36.64c0.6,0,1.12,0.11,1.56,0.34s0.79,0.57,1.04,1.04c0.25,0.46,0.37,1.03,0.37,1.72V44h-0.7v-4.21
			c0-0.82-0.21-1.45-0.62-1.88s-1-0.64-1.74-0.64c-0.57,0-1.06,0.12-1.48,0.35s-0.74,0.56-0.96,0.98c-0.22,0.42-0.33,0.92-0.33,1.51
			V44h-0.7v-7.31h0.67v2.03l-0.1-0.22c0.22-0.58,0.59-1.03,1.11-1.37C554.73,36.8,555.36,36.64,556.1,36.64z"/>
		<path d="M568.37,44.06c-0.68,0-1.29-0.16-1.84-0.47c-0.55-0.31-0.98-0.75-1.29-1.31c-0.32-0.56-0.48-1.2-0.48-1.93
			c0-0.74,0.16-1.38,0.48-1.94s0.75-0.99,1.29-1.3s1.16-0.47,1.84-0.47c0.64,0,1.23,0.15,1.74,0.45c0.52,0.3,0.93,0.72,1.23,1.27
			s0.46,1.21,0.46,1.99c0,0.76-0.15,1.41-0.45,1.97s-0.71,0.99-1.22,1.29S569.02,44.06,568.37,44.06z M568.41,43.43
			c0.56,0,1.06-0.13,1.5-0.38c0.44-0.26,0.79-0.62,1.05-1.08c0.26-0.47,0.38-1,0.38-1.61c0-0.62-0.13-1.15-0.38-1.62
			c-0.26-0.46-0.61-0.82-1.05-1.08s-0.95-0.39-1.5-0.39c-0.56,0-1.06,0.13-1.51,0.39s-0.79,0.62-1.05,1.08s-0.39,1-0.39,1.62
			c0,0.61,0.13,1.14,0.39,1.61s0.61,0.83,1.05,1.08S567.85,43.43,568.41,43.43z M571.36,44v-2.39l0.13-1.27l-0.14-1.27v-5.45h0.7V44
			H571.36z"/>
		<path d="M577.97,44.06c-0.74,0-1.39-0.16-1.95-0.48c-0.57-0.32-1.01-0.76-1.33-1.32c-0.32-0.56-0.48-1.2-0.48-1.92
			c0-0.73,0.15-1.37,0.46-1.92c0.3-0.55,0.72-0.99,1.25-1.31c0.53-0.32,1.13-0.48,1.79-0.48s1.26,0.15,1.79,0.46
			c0.53,0.31,0.94,0.74,1.25,1.29c0.3,0.56,0.46,1.2,0.46,1.93c0,0.03,0,0.06-0.01,0.09c0,0.03-0.01,0.07-0.01,0.1h-6.45v-0.55h6.08
			l-0.28,0.27c0.01-0.57-0.11-1.08-0.36-1.53s-0.58-0.81-1-1.06c-0.42-0.26-0.91-0.38-1.46-0.38c-0.54,0-1.02,0.13-1.45,0.38
			c-0.42,0.26-0.76,0.61-1,1.06s-0.36,0.97-0.36,1.55v0.13c0,0.6,0.13,1.13,0.4,1.59c0.27,0.46,0.63,0.82,1.1,1.08s1,0.38,1.6,0.38
			c0.47,0,0.9-0.08,1.31-0.25s0.75-0.42,1.03-0.77l0.41,0.46c-0.32,0.39-0.72,0.69-1.2,0.89C579.05,43.96,578.53,44.06,577.97,44.06
			z"/>
		<path d="M588.93,44.06c-0.54,0-1.01-0.09-1.41-0.26c-0.4-0.17-0.7-0.42-0.91-0.74c-0.21-0.32-0.32-0.68-0.32-1.09
			c0-0.37,0.09-0.71,0.26-1.01c0.17-0.3,0.46-0.55,0.86-0.74s0.94-0.29,1.61-0.29h2.69v0.55h-2.67c-0.76,0-1.29,0.14-1.59,0.42
			c-0.3,0.28-0.46,0.63-0.46,1.05c0,0.47,0.18,0.84,0.53,1.12c0.35,0.28,0.85,0.42,1.5,0.42c0.62,0,1.14-0.14,1.56-0.42
			s0.74-0.69,0.95-1.22l0.2,0.48c-0.2,0.53-0.53,0.95-1,1.27C590.26,43.9,589.66,44.06,588.93,44.06z M591.56,44v-1.67l-0.03-0.25
			v-2.74c0-0.68-0.18-1.2-0.55-1.55s-0.91-0.53-1.62-0.53c-0.5,0-0.97,0.09-1.41,0.26c-0.43,0.17-0.8,0.39-1.11,0.67l-0.35-0.5
			c0.36-0.33,0.8-0.58,1.32-0.76c0.51-0.18,1.05-0.27,1.61-0.27c0.9,0,1.6,0.23,2.09,0.69c0.48,0.46,0.73,1.14,0.73,2.04V44H591.56z
			"/>
		<path d="M597.96,43.73c-0.69,0-1.31-0.15-1.86-0.46c-0.55-0.3-0.98-0.72-1.3-1.26s-0.48-1.15-0.48-1.84c0-0.7,0.16-1.32,0.48-1.85
			s0.76-0.95,1.3-1.25c0.55-0.3,1.16-0.45,1.86-0.45c0.66,0,1.26,0.14,1.79,0.43c0.53,0.28,0.95,0.69,1.25,1.22
			c0.31,0.53,0.46,1.16,0.46,1.9c0,0.73-0.15,1.36-0.46,1.89s-0.72,0.94-1.25,1.23C599.22,43.59,598.62,43.73,597.96,43.73z
			 M598.16,46.77c-0.66,0-1.29-0.1-1.89-0.31s-1.08-0.49-1.46-0.85l0.38-0.53c0.36,0.34,0.8,0.6,1.31,0.78
			c0.51,0.19,1.06,0.28,1.64,0.28c0.98,0,1.7-0.23,2.16-0.69s0.69-1.18,0.69-2.16v-2.03l0.14-1.09l-0.11-1.09v-2.39h0.67v6.52
			c0,1.22-0.3,2.12-0.89,2.7S599.33,46.77,598.16,46.77z M598.02,43.1c0.59,0,1.11-0.12,1.55-0.37c0.45-0.25,0.8-0.59,1.06-1.04
			s0.38-0.95,0.38-1.52c0-0.58-0.13-1.09-0.38-1.53s-0.61-0.78-1.06-1.02s-0.96-0.36-1.55-0.36c-0.57,0-1.08,0.12-1.53,0.36
			s-0.81,0.58-1.06,1.02c-0.26,0.44-0.38,0.95-0.38,1.53c0,0.57,0.13,1.08,0.38,1.52c0.26,0.44,0.61,0.79,1.06,1.04
			C596.94,42.98,597.45,43.1,598.02,43.1z"/>
		<path d="M607.64,44.06c-0.62,0-1.17-0.11-1.62-0.34c-0.46-0.23-0.81-0.57-1.06-1.04s-0.37-1.03-0.37-1.71V36.7h0.7v4.21
			c0,0.82,0.21,1.45,0.63,1.88c0.42,0.43,1.01,0.64,1.78,0.64c0.55,0,1.03-0.12,1.43-0.35s0.71-0.56,0.92-0.99s0.32-0.93,0.32-1.5
			V36.7h0.7V44h-0.67v-2.03l0.1,0.24c-0.21,0.57-0.57,1.02-1.07,1.35C608.92,43.89,608.33,44.06,607.64,44.06z"/>
		<path d="M616.01,44.06c-0.54,0-1.01-0.09-1.41-0.26s-0.7-0.42-0.91-0.74c-0.21-0.32-0.31-0.68-0.31-1.09
			c0-0.37,0.09-0.71,0.26-1.01s0.46-0.55,0.86-0.74c0.4-0.19,0.94-0.29,1.61-0.29h2.69v0.55h-2.67c-0.76,0-1.29,0.14-1.59,0.42
			c-0.3,0.28-0.46,0.63-0.46,1.05c0,0.47,0.18,0.84,0.53,1.12c0.35,0.28,0.85,0.42,1.5,0.42c0.62,0,1.14-0.14,1.56-0.42
			s0.74-0.69,0.95-1.22l0.2,0.48c-0.2,0.53-0.53,0.95-1,1.27S616.74,44.06,616.01,44.06z M618.64,44v-1.67l-0.03-0.25v-2.74
			c0-0.68-0.19-1.2-0.55-1.55s-0.91-0.53-1.62-0.53c-0.5,0-0.97,0.09-1.41,0.26c-0.43,0.17-0.8,0.39-1.11,0.67l-0.35-0.5
			c0.37-0.33,0.8-0.58,1.32-0.76c0.51-0.18,1.05-0.27,1.61-0.27c0.91,0,1.6,0.23,2.09,0.69s0.73,1.14,0.73,2.04V44H618.64z"/>
		<path d="M285.54,60.86c-0.74,0-1.39-0.16-1.95-0.48s-1.01-0.76-1.33-1.32c-0.32-0.56-0.48-1.2-0.48-1.92
			c0-0.73,0.15-1.37,0.46-1.92c0.3-0.55,0.72-0.99,1.25-1.31c0.53-0.32,1.13-0.48,1.79-0.48s1.26,0.15,1.79,0.46
			c0.53,0.31,0.94,0.74,1.25,1.29c0.3,0.56,0.46,1.2,0.46,1.93c0,0.03,0,0.06-0.01,0.09c0,0.03-0.01,0.07-0.01,0.1h-6.45v-0.55h6.08
			l-0.28,0.27c0.01-0.57-0.11-1.08-0.36-1.53s-0.58-0.81-1-1.06c-0.42-0.26-0.91-0.38-1.46-0.38c-0.54,0-1.02,0.13-1.45,0.38
			c-0.42,0.26-0.76,0.61-1,1.06s-0.36,0.97-0.36,1.55v0.13c0,0.6,0.13,1.13,0.4,1.59s0.63,0.82,1.1,1.08c0.47,0.26,1,0.38,1.6,0.38
			c0.47,0,0.9-0.08,1.31-0.25s0.75-0.42,1.03-0.77l0.41,0.46c-0.32,0.39-0.72,0.69-1.2,0.89C286.62,60.76,286.1,60.86,285.54,60.86z
			"/>
		<path d="M294.5,53.44c0.6,0,1.12,0.11,1.56,0.34s0.79,0.57,1.04,1.04s0.37,1.03,0.37,1.72v4.27h-0.7V56.6
			c0-0.82-0.21-1.45-0.62-1.88c-0.42-0.43-1-0.64-1.74-0.64c-0.57,0-1.06,0.12-1.48,0.35c-0.42,0.23-0.74,0.56-0.96,0.98
			s-0.33,0.92-0.33,1.51v3.89h-0.7V53.5h0.67v2.03l-0.1-0.22c0.22-0.58,0.59-1.03,1.11-1.37C293.13,53.6,293.76,53.44,294.5,53.44z"
			/>
		<path d="M303.95,60.8V50.41h0.7V60.8H303.95z"/>
		<path d="M309.58,60.86c-0.54,0-1.01-0.09-1.41-0.26s-0.7-0.42-0.91-0.74c-0.21-0.32-0.31-0.68-0.31-1.09
			c0-0.37,0.09-0.71,0.26-1.01s0.46-0.55,0.86-0.74s0.94-0.29,1.61-0.29h2.69v0.55h-2.67c-0.76,0-1.29,0.14-1.59,0.42
			s-0.46,0.63-0.46,1.05c0,0.47,0.18,0.84,0.53,1.12s0.85,0.42,1.5,0.42c0.62,0,1.14-0.14,1.56-0.42c0.42-0.28,0.74-0.69,0.94-1.22
			l0.2,0.48c-0.2,0.53-0.53,0.95-1,1.27S310.31,60.86,309.58,60.86z M312.21,60.8v-1.67l-0.03-0.25v-2.74c0-0.68-0.18-1.2-0.55-1.55
			s-0.91-0.53-1.62-0.53c-0.5,0-0.97,0.09-1.41,0.26c-0.43,0.17-0.8,0.39-1.11,0.67l-0.35-0.5c0.36-0.33,0.8-0.58,1.32-0.76
			c0.51-0.18,1.05-0.27,1.61-0.27c0.9,0,1.6,0.23,2.09,0.69c0.48,0.46,0.73,1.14,0.73,2.04v4.63h-0.68V60.8z"/>
		<path d="M319.59,60.8V51h3.51c0.82,0,1.53,0.13,2.11,0.39c0.59,0.26,1.04,0.64,1.36,1.13s0.48,1.08,0.48,1.79
			c0,0.68-0.16,1.27-0.48,1.76c-0.32,0.49-0.77,0.87-1.36,1.13c-0.59,0.27-1.29,0.4-2.11,0.4h-3.12l0.32-0.34v3.54L319.59,60.8
			L319.59,60.8z M320.31,57.3l-0.32-0.34h3.12c1.05,0,1.85-0.23,2.4-0.7s0.82-1.12,0.82-1.96c0-0.85-0.27-1.5-0.82-1.97
			s-1.35-0.69-2.4-0.69h-3.12l0.32-0.35V57.3z M326.4,60.8l-2.55-3.56h0.81l2.55,3.56H326.4z"/>
		<path d="M332.42,60.86c-0.74,0-1.39-0.16-1.95-0.48s-1.01-0.76-1.33-1.32c-0.32-0.56-0.48-1.2-0.48-1.92
			c0-0.73,0.15-1.37,0.46-1.92c0.3-0.55,0.72-0.99,1.25-1.31c0.53-0.32,1.13-0.48,1.79-0.48s1.26,0.15,1.79,0.46
			c0.53,0.31,0.94,0.74,1.25,1.29c0.3,0.56,0.46,1.2,0.46,1.93c0,0.03,0,0.06-0.01,0.09c0,0.03-0.01,0.07-0.01,0.1h-6.45v-0.55h6.08
			l-0.28,0.27c0.01-0.57-0.11-1.08-0.36-1.53s-0.58-0.81-1-1.06c-0.42-0.26-0.91-0.38-1.46-0.38c-0.54,0-1.02,0.13-1.45,0.38
			c-0.42,0.26-0.76,0.61-1,1.06s-0.36,0.97-0.36,1.55v0.13c0,0.6,0.13,1.13,0.4,1.59s0.63,0.82,1.1,1.08c0.47,0.26,1,0.38,1.6,0.38
			c0.47,0,0.9-0.08,1.31-0.25s0.75-0.42,1.03-0.77l0.41,0.46c-0.32,0.39-0.72,0.69-1.2,0.89C333.5,60.76,332.98,60.86,332.42,60.86z
			"/>
		<path d="M340.65,60.53c-0.69,0-1.31-0.15-1.85-0.46c-0.55-0.3-0.98-0.72-1.3-1.26c-0.32-0.54-0.48-1.15-0.48-1.84
			c0-0.7,0.16-1.32,0.48-1.85s0.76-0.95,1.3-1.25c0.55-0.3,1.16-0.45,1.85-0.45c0.66,0,1.26,0.14,1.78,0.43
			c0.53,0.28,0.95,0.69,1.25,1.22c0.31,0.53,0.46,1.16,0.46,1.9c0,0.73-0.15,1.36-0.46,1.89c-0.31,0.53-0.73,0.94-1.25,1.23
			C341.9,60.39,341.31,60.53,340.65,60.53z M340.84,63.57c-0.66,0-1.29-0.1-1.89-0.31s-1.08-0.49-1.46-0.85l0.38-0.53
			c0.36,0.34,0.8,0.6,1.31,0.78c0.51,0.19,1.06,0.28,1.65,0.28c0.98,0,1.7-0.23,2.16-0.69s0.69-1.18,0.69-2.16v-2.03l0.14-1.09
			l-0.11-1.09v-2.39h0.67v6.52c0,1.22-0.3,2.12-0.89,2.7S342.02,63.57,340.84,63.57z M340.7,59.9c0.59,0,1.11-0.12,1.55-0.37
			c0.45-0.25,0.8-0.59,1.06-1.04c0.26-0.44,0.38-0.95,0.38-1.52c0-0.58-0.13-1.09-0.38-1.53c-0.26-0.44-0.61-0.78-1.06-1.02
			s-0.97-0.36-1.55-0.36c-0.57,0-1.08,0.12-1.53,0.36s-0.81,0.58-1.06,1.02c-0.26,0.44-0.39,0.95-0.39,1.53
			c0,0.57,0.13,1.08,0.39,1.52s0.61,0.79,1.06,1.04C339.62,59.78,340.13,59.9,340.7,59.9z"/>
		<path d="M347.7,51.71c-0.16,0-0.29-0.06-0.41-0.17c-0.11-0.11-0.17-0.24-0.17-0.39c0-0.16,0.06-0.29,0.17-0.41
			c0.11-0.11,0.25-0.17,0.41-0.17c0.17,0,0.31,0.05,0.41,0.16c0.11,0.11,0.16,0.24,0.16,0.4c0,0.16-0.05,0.29-0.16,0.41
			C348.01,51.66,347.87,51.71,347.7,51.71z M347.35,60.8v-7.31h0.7v7.31H347.35z"/>
		<path d="M353.86,60.86c-0.7,0-1.32-0.16-1.87-0.48s-0.98-0.76-1.3-1.32c-0.32-0.56-0.48-1.2-0.48-1.92c0-0.73,0.16-1.37,0.48-1.92
			s0.76-0.99,1.3-1.31c0.55-0.32,1.17-0.48,1.87-0.48c0.7,0,1.33,0.16,1.88,0.48s0.98,0.75,1.3,1.31c0.32,0.56,0.48,1.2,0.48,1.92
			s-0.16,1.36-0.48,1.92c-0.32,0.56-0.75,1-1.3,1.32S354.56,60.86,353.86,60.86z M353.86,60.23c0.56,0,1.06-0.13,1.51-0.38
			c0.45-0.26,0.8-0.62,1.05-1.08s0.38-1,0.38-1.61c0-0.62-0.13-1.15-0.38-1.62c-0.25-0.46-0.6-0.82-1.05-1.08
			c-0.45-0.26-0.95-0.39-1.51-0.39s-1.06,0.13-1.5,0.39s-0.79,0.62-1.05,1.08c-0.26,0.46-0.39,1-0.39,1.62
			c0,0.61,0.13,1.14,0.39,1.61c0.26,0.47,0.61,0.83,1.05,1.08S353.3,60.23,353.86,60.23z M353.06,52.3l1.95-1.65h1.01l-2.2,1.65
			H353.06z"/>
		<path d="M363.26,53.44c0.6,0,1.12,0.11,1.56,0.34s0.79,0.57,1.04,1.04s0.37,1.03,0.37,1.72v4.27h-0.7V56.6
			c0-0.82-0.21-1.45-0.62-1.88c-0.42-0.43-1-0.64-1.74-0.64c-0.57,0-1.06,0.12-1.48,0.35c-0.42,0.23-0.74,0.56-0.96,0.98
			s-0.33,0.92-0.33,1.51v3.89h-0.7V53.5h0.67v2.03l-0.1-0.22c0.22-0.58,0.59-1.03,1.11-1.37C361.88,53.6,362.51,53.44,363.26,53.44z
			"/>
		<path d="M375.52,60.86c-0.68,0-1.29-0.16-1.84-0.47s-0.98-0.75-1.29-1.31c-0.32-0.56-0.48-1.2-0.48-1.93
			c0-0.74,0.16-1.38,0.48-1.94s0.75-0.99,1.29-1.3c0.55-0.31,1.16-0.47,1.84-0.47c0.64,0,1.23,0.15,1.74,0.45s0.93,0.72,1.23,1.27
			s0.46,1.21,0.46,1.99c0,0.76-0.15,1.41-0.45,1.97c-0.3,0.56-0.71,0.99-1.22,1.29S376.17,60.86,375.52,60.86z M375.56,60.23
			c0.56,0,1.06-0.13,1.51-0.38c0.44-0.26,0.79-0.62,1.05-1.08c0.26-0.47,0.38-1,0.38-1.61c0-0.62-0.13-1.15-0.38-1.62
			c-0.26-0.46-0.61-0.82-1.05-1.08s-0.95-0.39-1.51-0.39s-1.06,0.13-1.5,0.39s-0.79,0.62-1.05,1.08c-0.26,0.46-0.39,1-0.39,1.62
			c0,0.61,0.13,1.14,0.39,1.61c0.26,0.47,0.61,0.83,1.05,1.08S375,60.23,375.56,60.23z M378.52,60.8v-2.39l0.13-1.27l-0.14-1.27
			v-5.45h0.7v10.39h-0.69V60.8z"/>
		<path d="M385.12,60.86c-0.74,0-1.39-0.16-1.95-0.48s-1.01-0.76-1.33-1.32c-0.32-0.56-0.48-1.2-0.48-1.92
			c0-0.73,0.15-1.37,0.46-1.92c0.3-0.55,0.72-0.99,1.25-1.31c0.53-0.32,1.13-0.48,1.79-0.48s1.26,0.15,1.79,0.46
			c0.53,0.31,0.94,0.74,1.25,1.29c0.3,0.56,0.46,1.2,0.46,1.93c0,0.03,0,0.06-0.01,0.09c0,0.03-0.01,0.07-0.01,0.1h-6.45v-0.55h6.08
			l-0.28,0.27c0.01-0.57-0.11-1.08-0.36-1.53s-0.58-0.81-1-1.06c-0.42-0.26-0.91-0.38-1.46-0.38c-0.54,0-1.02,0.13-1.45,0.38
			c-0.42,0.26-0.76,0.61-1,1.06s-0.36,0.97-0.36,1.55v0.13c0,0.6,0.13,1.13,0.4,1.59s0.63,0.82,1.1,1.08c0.47,0.26,1,0.38,1.6,0.38
			c0.47,0,0.9-0.08,1.31-0.25s0.75-0.42,1.03-0.77l0.41,0.46c-0.32,0.39-0.72,0.69-1.2,0.89C386.2,60.76,385.68,60.86,385.12,60.86z
			"/>
		<path d="M397.08,60.8l-4.37-9.8h0.78l4.17,9.37h-0.43l4.19-9.37h0.74l-4.37,9.8H397.08z"/>
		<path d="M404.93,60.86c-0.54,0-1.01-0.09-1.41-0.26s-0.7-0.42-0.91-0.74c-0.21-0.32-0.31-0.68-0.31-1.09
			c0-0.37,0.09-0.71,0.26-1.01c0.17-0.3,0.46-0.55,0.86-0.74s0.94-0.29,1.61-0.29h2.69v0.55h-2.67c-0.76,0-1.29,0.14-1.59,0.42
			S403,58.33,403,58.75c0,0.47,0.18,0.84,0.53,1.12s0.85,0.42,1.5,0.42c0.62,0,1.14-0.14,1.56-0.42c0.42-0.28,0.74-0.69,0.94-1.22
			l0.2,0.48c-0.2,0.53-0.53,0.95-1,1.27C406.26,60.7,405.66,60.86,404.93,60.86z M407.57,60.8v-1.67l-0.03-0.25v-2.74
			c0-0.68-0.18-1.2-0.55-1.55s-0.91-0.53-1.62-0.53c-0.5,0-0.97,0.09-1.41,0.26c-0.43,0.17-0.8,0.39-1.11,0.67l-0.35-0.5
			c0.36-0.33,0.8-0.58,1.32-0.76c0.51-0.18,1.05-0.27,1.61-0.27c0.91,0,1.6,0.23,2.09,0.69s0.73,1.14,0.73,2.04v4.63h-0.68V60.8z"/>
		<path d="M411.12,60.8V50.41h0.7V60.8H411.12z"/>
		<path d="M414.78,63.52V53.5h0.67v2.39l-0.11,1.27l0.14,1.27v5.08h-0.7V63.52z M418.44,60.86c-0.64,0-1.22-0.15-1.74-0.45
			s-0.93-0.73-1.23-1.28s-0.46-1.22-0.46-1.98s0.15-1.43,0.46-1.98c0.3-0.56,0.71-0.98,1.23-1.28s1.1-0.45,1.74-0.45
			c0.69,0,1.31,0.16,1.86,0.47s0.98,0.75,1.29,1.31s0.47,1.2,0.47,1.93c0,0.73-0.16,1.37-0.47,1.93s-0.74,1-1.29,1.31
			C419.75,60.7,419.13,60.86,418.44,60.86z M418.4,60.23c0.56,0,1.06-0.13,1.51-0.38c0.45-0.26,0.8-0.62,1.06-1.08
			c0.26-0.47,0.38-1,0.38-1.61c0-0.62-0.13-1.15-0.38-1.62c-0.26-0.46-0.61-0.82-1.06-1.08s-0.95-0.39-1.51-0.39
			s-1.06,0.13-1.51,0.39s-0.79,0.62-1.05,1.08c-0.26,0.46-0.39,1-0.39,1.62c0,0.61,0.13,1.14,0.39,1.61
			c0.26,0.47,0.61,0.83,1.05,1.08S417.84,60.23,418.4,60.23z"/>
		<path d="M426.17,60.86c-0.54,0-1.01-0.09-1.41-0.26s-0.7-0.42-0.91-0.74c-0.21-0.32-0.32-0.68-0.32-1.09
			c0-0.37,0.09-0.71,0.26-1.01s0.46-0.55,0.86-0.74s0.94-0.29,1.61-0.29h2.69v0.55h-2.67c-0.76,0-1.29,0.14-1.59,0.42
			s-0.46,0.63-0.46,1.05c0,0.47,0.18,0.84,0.53,1.12c0.36,0.28,0.85,0.42,1.5,0.42c0.62,0,1.14-0.14,1.56-0.42
			c0.42-0.28,0.74-0.69,0.94-1.22l0.2,0.48c-0.2,0.53-0.53,0.95-1,1.27S426.9,60.86,426.17,60.86z M428.8,60.8v-1.67l-0.03-0.25
			v-2.74c0-0.68-0.18-1.2-0.55-1.55s-0.91-0.53-1.62-0.53c-0.5,0-0.97,0.09-1.41,0.26c-0.43,0.17-0.8,0.39-1.11,0.67l-0.35-0.5
			c0.36-0.33,0.8-0.58,1.32-0.76c0.51-0.18,1.05-0.27,1.61-0.27c0.9,0,1.6,0.23,2.09,0.69c0.48,0.46,0.73,1.14,0.73,2.04v4.63h-0.68
			V60.8z"/>
		<path d="M432.36,60.8v-7.31h0.67v2l-0.07-0.22c0.21-0.59,0.55-1.04,1.04-1.36c0.48-0.32,1.09-0.48,1.82-0.48v0.69
			c-0.03,0-0.06,0-0.08-0.01c-0.03,0-0.06-0.01-0.08-0.01c-0.81,0-1.45,0.25-1.9,0.76c-0.46,0.51-0.69,1.22-0.69,2.12v3.81
			L432.36,60.8L432.36,60.8z"/>
		<path d="M439.18,60.86c-0.54,0-1.01-0.09-1.41-0.26s-0.7-0.42-0.91-0.74c-0.21-0.32-0.32-0.68-0.32-1.09
			c0-0.37,0.09-0.71,0.26-1.01s0.46-0.55,0.86-0.74s0.94-0.29,1.61-0.29h2.69v0.55h-2.67c-0.76,0-1.29,0.14-1.59,0.42
			s-0.46,0.63-0.46,1.05c0,0.47,0.18,0.84,0.53,1.12c0.36,0.28,0.85,0.42,1.5,0.42c0.62,0,1.14-0.14,1.56-0.42
			c0.42-0.28,0.74-0.69,0.94-1.22l0.2,0.48c-0.2,0.53-0.53,0.95-1,1.27S439.91,60.86,439.18,60.86z M441.81,60.8v-1.67l-0.03-0.25
			v-2.74c0-0.68-0.18-1.2-0.55-1.55s-0.91-0.53-1.62-0.53c-0.5,0-0.97,0.09-1.41,0.26c-0.43,0.17-0.8,0.39-1.11,0.67l-0.35-0.5
			c0.36-0.33,0.8-0.58,1.32-0.76c0.51-0.18,1.05-0.27,1.61-0.27c0.9,0,1.6,0.23,2.09,0.69c0.48,0.46,0.73,1.14,0.73,2.04v4.63h-0.68
			V60.8z"/>
		<path d="M444.92,52.3l1.95-1.65h1.01l-2.2,1.65H444.92z M445.37,60.8v-7.31h0.7v7.31H445.37z"/>
		<path d="M450.87,60.86c-0.61,0-1.17-0.09-1.7-0.27s-0.94-0.4-1.22-0.67l0.32-0.56c0.28,0.24,0.65,0.45,1.12,0.62
			c0.47,0.17,0.97,0.26,1.51,0.26c0.76,0,1.32-0.13,1.65-0.38c0.34-0.25,0.5-0.58,0.5-0.99c0-0.3-0.09-0.53-0.26-0.71
			c-0.17-0.17-0.4-0.31-0.69-0.4s-0.61-0.17-0.95-0.23c-0.34-0.06-0.69-0.13-1.04-0.2c-0.35-0.08-0.66-0.18-0.95-0.32
			s-0.52-0.33-0.69-0.58s-0.26-0.58-0.26-0.99c0-0.37,0.1-0.71,0.31-1.01s0.51-0.54,0.92-0.72c0.41-0.18,0.92-0.27,1.54-0.27
			c0.46,0,0.92,0.07,1.38,0.2c0.46,0.13,0.84,0.3,1.13,0.52l-0.32,0.56c-0.31-0.23-0.65-0.4-1.04-0.5s-0.77-0.15-1.16-0.15
			c-0.71,0-1.23,0.13-1.56,0.39s-0.5,0.59-0.5,0.98c0,0.31,0.09,0.55,0.26,0.74c0.17,0.18,0.4,0.32,0.69,0.42s0.61,0.18,0.95,0.24
			c0.34,0.06,0.69,0.13,1.04,0.2c0.35,0.08,0.66,0.18,0.95,0.32c0.29,0.13,0.52,0.32,0.69,0.56s0.26,0.56,0.26,0.96
			s-0.11,0.75-0.33,1.05s-0.54,0.53-0.97,0.7S451.49,60.86,450.87,60.86z"/>
		<path d="M458.57,60.86c-0.7,0-1.32-0.16-1.87-0.48s-0.98-0.76-1.3-1.32c-0.32-0.56-0.48-1.2-0.48-1.92c0-0.73,0.16-1.37,0.48-1.92
			s0.76-0.99,1.3-1.31c0.54-0.32,1.17-0.48,1.87-0.48s1.33,0.16,1.88,0.48s0.98,0.75,1.3,1.31c0.32,0.56,0.48,1.2,0.48,1.92
			s-0.16,1.36-0.48,1.92c-0.32,0.56-0.75,1-1.3,1.32S459.27,60.86,458.57,60.86z M458.57,60.23c0.56,0,1.06-0.13,1.51-0.38
			c0.45-0.26,0.8-0.62,1.05-1.08s0.38-1,0.38-1.61c0-0.62-0.13-1.15-0.38-1.62c-0.25-0.46-0.6-0.82-1.05-1.08
			c-0.45-0.26-0.95-0.39-1.51-0.39s-1.06,0.13-1.5,0.39s-0.79,0.62-1.05,1.08c-0.26,0.46-0.39,1-0.39,1.62
			c0,0.61,0.13,1.14,0.39,1.61s0.61,0.83,1.05,1.08S458.01,60.23,458.57,60.23z"/>
	</g>
	<g>
		<path d="M650.67,343.12v-9.49l0.32,0.34h-2.72v-0.64h3.11v9.8h-0.71V343.12z"/>
		<path d="M654.49,343.18c-0.16,0-0.3-0.06-0.41-0.18c-0.12-0.12-0.17-0.26-0.17-0.43s0.06-0.31,0.17-0.42s0.25-0.17,0.41-0.17
			s0.3,0.06,0.41,0.17s0.17,0.25,0.17,0.42s-0.06,0.31-0.17,0.43S654.65,343.18,654.49,343.18z"/>
		<path d="M659.7,343.19c-0.71,0-1.38-0.12-2-0.36s-1.1-0.56-1.45-0.95l0.36-0.55c0.3,0.34,0.72,0.63,1.26,0.86
			c0.54,0.23,1.14,0.34,1.81,0.34c0.9,0,1.59-0.21,2.04-0.62c0.46-0.41,0.69-0.94,0.69-1.6c0-0.47-0.11-0.87-0.32-1.2
			c-0.21-0.34-0.58-0.6-1.09-0.78s-1.21-0.27-2.1-0.27h-1.99l0.52-4.75h5.19v0.64h-4.9l0.35-0.34l-0.46,4.16l-0.34-0.36h1.78
			c1,0,1.79,0.12,2.39,0.36c0.59,0.24,1.02,0.57,1.29,1s0.4,0.93,0.4,1.51c0,0.54-0.13,1.03-0.38,1.47
			c-0.25,0.44-0.63,0.79-1.14,1.04C661.1,343.06,660.46,343.19,659.7,343.19z"/>
		<path d="M668.31,343.19c-0.75,0-1.41-0.2-1.99-0.6s-1.03-0.97-1.36-1.71c-0.33-0.74-0.49-1.63-0.49-2.65
			c0-1.03,0.16-1.91,0.49-2.65s0.78-1.31,1.36-1.71c0.58-0.4,1.24-0.6,1.99-0.6c0.76,0,1.42,0.2,2,0.6c0.57,0.4,1.02,0.97,1.35,1.71
			s0.49,1.63,0.49,2.65c0,1.03-0.16,1.91-0.49,2.65c-0.33,0.74-0.78,1.31-1.35,1.71C669.73,342.99,669.06,343.19,668.31,343.19z
			 M668.31,342.54c0.62,0,1.17-0.17,1.64-0.51c0.47-0.34,0.83-0.83,1.09-1.48s0.39-1.42,0.39-2.32c0-0.91-0.13-1.69-0.39-2.33
			s-0.62-1.13-1.09-1.47c-0.47-0.34-1.01-0.51-1.64-0.51c-0.62,0-1.16,0.17-1.63,0.51c-0.47,0.34-0.84,0.83-1.1,1.47
			c-0.26,0.64-0.39,1.42-0.39,2.33c0,0.91,0.13,1.68,0.39,2.32s0.63,1.14,1.1,1.48C667.15,342.37,667.69,342.54,668.31,342.54z"/>
		<path d="M677.52,343.19c-0.75,0-1.41-0.2-1.99-0.6c-0.58-0.4-1.03-0.97-1.36-1.71c-0.33-0.74-0.49-1.63-0.49-2.65
			c0-1.03,0.16-1.91,0.49-2.65s0.78-1.31,1.36-1.71c0.58-0.4,1.24-0.6,1.99-0.6c0.76,0,1.42,0.2,1.99,0.6
			c0.57,0.4,1.02,0.97,1.35,1.71c0.33,0.74,0.49,1.63,0.49,2.65c0,1.03-0.16,1.91-0.49,2.65c-0.33,0.74-0.78,1.31-1.35,1.71
			S678.28,343.19,677.52,343.19z M677.52,342.54c0.62,0,1.17-0.17,1.64-0.51c0.47-0.34,0.83-0.83,1.09-1.48s0.39-1.42,0.39-2.32
			c0-0.91-0.13-1.69-0.39-2.33s-0.63-1.13-1.09-1.47c-0.47-0.34-1.01-0.51-1.64-0.51c-0.62,0-1.16,0.17-1.63,0.51
			c-0.47,0.34-0.84,0.83-1.1,1.47c-0.26,0.64-0.39,1.42-0.39,2.33c0,0.91,0.13,1.68,0.39,2.32s0.63,1.14,1.1,1.48
			C676.36,342.37,676.91,342.54,677.52,342.54z"/>
		<path d="M683.37,343.18c-0.16,0-0.3-0.06-0.41-0.18c-0.12-0.12-0.17-0.26-0.17-0.43s0.06-0.31,0.17-0.42s0.25-0.17,0.41-0.17
			s0.3,0.06,0.41,0.17s0.17,0.25,0.17,0.42s-0.06,0.31-0.17,0.43S683.53,343.18,683.37,343.18z"/>
		<path d="M689.22,343.19c-0.75,0-1.41-0.2-1.99-0.6s-1.03-0.97-1.36-1.71c-0.33-0.74-0.49-1.63-0.49-2.65
			c0-1.03,0.16-1.91,0.49-2.65s0.78-1.31,1.36-1.71c0.58-0.4,1.24-0.6,1.99-0.6c0.76,0,1.42,0.2,2,0.6c0.57,0.4,1.02,0.97,1.35,1.71
			s0.49,1.63,0.49,2.65c0,1.03-0.16,1.91-0.49,2.65c-0.33,0.74-0.78,1.31-1.35,1.71C690.65,342.99,689.98,343.19,689.22,343.19z
			 M689.22,342.54c0.62,0,1.17-0.17,1.64-0.51c0.47-0.34,0.83-0.83,1.09-1.48s0.39-1.42,0.39-2.32c0-0.91-0.13-1.69-0.39-2.33
			s-0.62-1.13-1.09-1.47c-0.47-0.34-1.01-0.51-1.64-0.51c-0.62,0-1.16,0.17-1.63,0.51c-0.47,0.34-0.84,0.83-1.1,1.47
			c-0.26,0.64-0.39,1.42-0.39,2.33c0,0.91,0.13,1.68,0.39,2.32s0.63,1.14,1.1,1.48C688.07,342.37,688.61,342.54,689.22,342.54z"/>
		<path d="M698.44,343.19c-0.75,0-1.41-0.2-1.99-0.6c-0.58-0.4-1.03-0.97-1.36-1.71c-0.33-0.74-0.49-1.63-0.49-2.65
			c0-1.03,0.16-1.91,0.49-2.65s0.78-1.31,1.36-1.71c0.58-0.4,1.24-0.6,1.99-0.6c0.76,0,1.42,0.2,1.99,0.6
			c0.57,0.4,1.02,0.97,1.35,1.71c0.33,0.74,0.49,1.63,0.49,2.65c0,1.03-0.16,1.91-0.49,2.65c-0.33,0.74-0.78,1.31-1.35,1.71
			S699.19,343.19,698.44,343.19z M698.44,342.54c0.62,0,1.17-0.17,1.64-0.51c0.47-0.34,0.83-0.83,1.09-1.48s0.39-1.42,0.39-2.32
			c0-0.91-0.13-1.69-0.39-2.33s-0.63-1.13-1.09-1.47c-0.47-0.34-1.01-0.51-1.64-0.51c-0.62,0-1.16,0.17-1.63,0.51
			c-0.47,0.34-0.84,0.83-1.1,1.47c-0.26,0.64-0.39,1.42-0.39,2.33c0,0.91,0.13,1.68,0.39,2.32s0.63,1.14,1.1,1.48
			C697.28,342.37,697.82,342.54,698.44,342.54z"/>
		<path d="M707.65,343.19c-0.75,0-1.41-0.2-1.99-0.6s-1.03-0.97-1.36-1.71c-0.33-0.74-0.49-1.63-0.49-2.65
			c0-1.03,0.16-1.91,0.49-2.65s0.78-1.31,1.36-1.71c0.58-0.4,1.24-0.6,1.99-0.6c0.76,0,1.42,0.2,2,0.6c0.57,0.4,1.02,0.97,1.35,1.71
			s0.49,1.63,0.49,2.65c0,1.03-0.16,1.91-0.49,2.65c-0.33,0.74-0.78,1.31-1.35,1.71C709.07,342.99,708.4,343.19,707.65,343.19z
			 M707.65,342.54c0.62,0,1.17-0.17,1.64-0.51c0.47-0.34,0.83-0.83,1.09-1.48s0.39-1.42,0.39-2.32c0-0.91-0.13-1.69-0.39-2.33
			s-0.62-1.13-1.09-1.47c-0.47-0.34-1.01-0.51-1.64-0.51c-0.62,0-1.16,0.17-1.63,0.51c-0.47,0.34-0.84,0.83-1.1,1.47
			c-0.26,0.64-0.39,1.42-0.39,2.33c0,0.91,0.13,1.68,0.39,2.32s0.63,1.14,1.1,1.48C706.49,342.37,707.03,342.54,707.65,342.54z"/>
	</g>
	<g>
		<path d="M459.67,343.12v-9.49l0.32,0.34h-2.72v-0.64h3.11v9.8h-0.71V343.12z"/>
		<path d="M463.49,343.18c-0.16,0-0.3-0.06-0.41-0.18c-0.12-0.12-0.17-0.26-0.17-0.43s0.06-0.31,0.17-0.42s0.25-0.17,0.41-0.17
			s0.3,0.06,0.41,0.17s0.17,0.25,0.17,0.42s-0.06,0.31-0.17,0.43C463.79,343.12,463.65,343.18,463.49,343.18z"/>
		<path d="M469.34,343.19c-0.75,0-1.41-0.2-1.99-0.6c-0.58-0.4-1.03-0.97-1.36-1.71c-0.33-0.74-0.49-1.63-0.49-2.65
			c0-1.03,0.16-1.91,0.49-2.65s0.78-1.31,1.36-1.71s1.24-0.6,1.99-0.6c0.76,0,1.42,0.2,1.99,0.6c0.57,0.4,1.02,0.97,1.35,1.71
			c0.33,0.74,0.49,1.63,0.49,2.65c0,1.03-0.16,1.91-0.49,2.65c-0.33,0.74-0.78,1.31-1.35,1.71S470.1,343.19,469.34,343.19z
			 M469.34,342.54c0.62,0,1.17-0.17,1.64-0.51s0.83-0.83,1.09-1.48s0.39-1.42,0.39-2.32c0-0.91-0.13-1.69-0.39-2.33
			s-0.63-1.13-1.09-1.47c-0.47-0.34-1.01-0.51-1.64-0.51c-0.62,0-1.16,0.17-1.63,0.51s-0.84,0.83-1.1,1.47
			c-0.26,0.64-0.39,1.42-0.39,2.33c0,0.91,0.13,1.68,0.39,2.32s0.63,1.14,1.1,1.48C468.18,342.37,468.73,342.54,469.34,342.54z"/>
		<path d="M478.55,343.19c-0.75,0-1.41-0.2-1.99-0.6s-1.03-0.97-1.36-1.71c-0.33-0.74-0.49-1.63-0.49-2.65
			c0-1.03,0.16-1.91,0.49-2.65s0.78-1.31,1.36-1.71s1.24-0.6,1.99-0.6c0.76,0,1.42,0.2,2,0.6c0.57,0.4,1.02,0.97,1.35,1.71
			s0.49,1.63,0.49,2.65c0,1.03-0.16,1.91-0.49,2.65c-0.33,0.74-0.78,1.31-1.35,1.71C479.98,342.99,479.31,343.19,478.55,343.19z
			 M478.55,342.54c0.62,0,1.17-0.17,1.64-0.51s0.83-0.83,1.09-1.48s0.39-1.42,0.39-2.32c0-0.91-0.13-1.69-0.39-2.33
			s-0.62-1.13-1.09-1.47c-0.47-0.34-1.01-0.51-1.64-0.51c-0.62,0-1.16,0.17-1.63,0.51s-0.84,0.83-1.1,1.47
			c-0.26,0.64-0.39,1.42-0.39,2.33c0,0.91,0.13,1.68,0.39,2.32s0.63,1.14,1.1,1.48C477.4,342.37,477.94,342.54,478.55,342.54z"/>
		<path d="M487.77,343.19c-0.75,0-1.41-0.2-1.99-0.6c-0.58-0.4-1.03-0.97-1.36-1.71c-0.33-0.74-0.49-1.63-0.49-2.65
			c0-1.03,0.16-1.91,0.49-2.65s0.78-1.31,1.36-1.71s1.24-0.6,1.99-0.6c0.76,0,1.42,0.2,1.99,0.6c0.57,0.4,1.02,0.97,1.35,1.71
			c0.33,0.74,0.49,1.63,0.49,2.65c0,1.03-0.16,1.91-0.49,2.65c-0.33,0.74-0.78,1.31-1.35,1.71S488.52,343.19,487.77,343.19z
			 M487.77,342.54c0.62,0,1.17-0.17,1.64-0.51s0.83-0.83,1.09-1.48s0.39-1.42,0.39-2.32c0-0.91-0.13-1.69-0.39-2.33
			s-0.63-1.13-1.09-1.47c-0.47-0.34-1.01-0.51-1.64-0.51c-0.62,0-1.16,0.17-1.63,0.51s-0.84,0.83-1.1,1.47
			c-0.26,0.64-0.39,1.42-0.39,2.33c0,0.91,0.13,1.68,0.39,2.32s0.63,1.14,1.1,1.48C486.61,342.37,487.15,342.54,487.77,342.54z"/>
		<path d="M493.62,343.18c-0.16,0-0.3-0.06-0.41-0.18c-0.12-0.12-0.17-0.26-0.17-0.43s0.06-0.31,0.17-0.42s0.25-0.17,0.41-0.17
			s0.3,0.06,0.41,0.17s0.17,0.25,0.17,0.42s-0.06,0.31-0.17,0.43C493.92,343.12,493.78,343.18,493.62,343.18z"/>
		<path d="M499.47,343.19c-0.75,0-1.41-0.2-1.99-0.6s-1.03-0.97-1.36-1.71c-0.33-0.74-0.49-1.63-0.49-2.65
			c0-1.03,0.16-1.91,0.49-2.65s0.78-1.31,1.36-1.71s1.24-0.6,1.99-0.6c0.76,0,1.42,0.2,2,0.6c0.57,0.4,1.02,0.97,1.35,1.71
			s0.49,1.63,0.49,2.65c0,1.03-0.16,1.91-0.49,2.65c-0.33,0.74-0.78,1.31-1.35,1.71C500.89,342.99,500.23,343.19,499.47,343.19z
			 M499.47,342.54c0.62,0,1.17-0.17,1.64-0.51s0.83-0.83,1.09-1.48s0.39-1.42,0.39-2.32c0-0.91-0.13-1.69-0.39-2.33
			s-0.62-1.13-1.09-1.47c-0.47-0.34-1.01-0.51-1.64-0.51c-0.62,0-1.16,0.17-1.63,0.51s-0.84,0.83-1.1,1.47
			c-0.26,0.64-0.39,1.42-0.39,2.33c0,0.91,0.13,1.68,0.39,2.32s0.63,1.14,1.1,1.48C498.31,342.37,498.86,342.54,499.47,342.54z"/>
		<path d="M508.68,343.19c-0.75,0-1.41-0.2-1.99-0.6c-0.58-0.4-1.03-0.97-1.36-1.71c-0.33-0.74-0.49-1.63-0.49-2.65
			c0-1.03,0.16-1.91,0.49-2.65s0.78-1.31,1.36-1.71s1.24-0.6,1.99-0.6c0.76,0,1.42,0.2,1.99,0.6c0.57,0.4,1.02,0.97,1.35,1.71
			c0.33,0.74,0.49,1.63,0.49,2.65c0,1.03-0.16,1.91-0.49,2.65c-0.33,0.74-0.78,1.31-1.35,1.71S509.44,343.19,508.68,343.19z
			 M508.68,342.54c0.62,0,1.17-0.17,1.64-0.51s0.83-0.83,1.09-1.48s0.39-1.42,0.39-2.32c0-0.91-0.13-1.69-0.39-2.33
			s-0.63-1.13-1.09-1.47c-0.47-0.34-1.01-0.51-1.64-0.51c-0.62,0-1.16,0.17-1.63,0.51s-0.84,0.83-1.1,1.47
			c-0.26,0.64-0.39,1.42-0.39,2.33c0,0.91,0.13,1.68,0.39,2.32s0.63,1.14,1.1,1.48C507.52,342.37,508.07,342.54,508.68,342.54z"/>
		<path d="M517.89,343.19c-0.75,0-1.41-0.2-1.99-0.6s-1.03-0.97-1.36-1.71c-0.33-0.74-0.49-1.63-0.49-2.65
			c0-1.03,0.16-1.91,0.49-2.65s0.78-1.31,1.36-1.71c0.58-0.4,1.24-0.6,1.99-0.6c0.76,0,1.42,0.2,2,0.6c0.57,0.4,1.02,0.97,1.35,1.71
			s0.49,1.63,0.49,2.65c0,1.03-0.16,1.91-0.49,2.65c-0.33,0.74-0.78,1.31-1.35,1.71C519.32,342.99,518.65,343.19,517.89,343.19z
			 M517.89,342.54c0.62,0,1.17-0.17,1.64-0.51c0.47-0.34,0.83-0.83,1.09-1.48s0.39-1.42,0.39-2.32c0-0.91-0.13-1.69-0.39-2.33
			s-0.62-1.13-1.09-1.47c-0.47-0.34-1.01-0.51-1.64-0.51c-0.62,0-1.16,0.17-1.63,0.51c-0.47,0.34-0.84,0.83-1.1,1.47
			c-0.26,0.64-0.39,1.42-0.39,2.33c0,0.91,0.13,1.68,0.39,2.32s0.63,1.14,1.1,1.48C516.74,342.37,517.28,342.54,517.89,342.54z"/>
	</g>
	<g>
		<path d="M268.96,343.19c-0.71,0-1.37-0.12-2-0.36s-1.1-0.56-1.45-0.95l0.36-0.55c0.3,0.34,0.72,0.63,1.26,0.86
			s1.14,0.34,1.81,0.34c0.91,0,1.59-0.21,2.04-0.62s0.69-0.94,0.69-1.6c0-0.47-0.11-0.87-0.32-1.2c-0.21-0.34-0.58-0.6-1.09-0.78
			s-1.21-0.27-2.1-0.27h-1.99l0.52-4.75h5.19v0.64h-4.9l0.35-0.34l-0.46,4.16l-0.34-0.36h1.78c1,0,1.79,0.12,2.39,0.36
			c0.59,0.24,1.02,0.57,1.29,1c0.27,0.43,0.4,0.93,0.4,1.51c0,0.54-0.13,1.03-0.38,1.47c-0.25,0.44-0.63,0.79-1.14,1.04
			C270.36,343.06,269.72,343.19,268.96,343.19z"/>
		<path d="M277.57,343.19c-0.75,0-1.41-0.2-1.99-0.6c-0.58-0.4-1.03-0.97-1.36-1.71c-0.33-0.74-0.49-1.63-0.49-2.65
			c0-1.03,0.16-1.91,0.49-2.65s0.78-1.31,1.36-1.71s1.24-0.6,1.99-0.6c0.76,0,1.42,0.2,2,0.6c0.57,0.4,1.02,0.97,1.35,1.71
			c0.33,0.74,0.49,1.63,0.49,2.65c0,1.03-0.16,1.91-0.49,2.65c-0.33,0.74-0.78,1.31-1.35,1.71
			C278.99,342.99,278.32,343.19,277.57,343.19z M277.57,342.54c0.62,0,1.17-0.17,1.64-0.51s0.83-0.83,1.09-1.48s0.39-1.42,0.39-2.32
			c0-0.91-0.13-1.69-0.39-2.33s-0.63-1.13-1.09-1.47c-0.47-0.34-1.01-0.51-1.64-0.51c-0.62,0-1.16,0.17-1.63,0.51
			s-0.84,0.83-1.1,1.47c-0.26,0.64-0.39,1.42-0.39,2.33c0,0.91,0.13,1.68,0.39,2.32s0.63,1.14,1.1,1.48
			C276.41,342.37,276.95,342.54,277.57,342.54z"/>
		<path d="M286.78,343.19c-0.75,0-1.41-0.2-1.99-0.6c-0.58-0.4-1.03-0.97-1.36-1.71c-0.33-0.74-0.49-1.63-0.49-2.65
			c0-1.03,0.16-1.91,0.49-2.65s0.78-1.31,1.36-1.71s1.24-0.6,1.99-0.6c0.76,0,1.42,0.2,2,0.6c0.57,0.4,1.02,0.97,1.35,1.71
			c0.33,0.74,0.49,1.63,0.49,2.65c0,1.03-0.16,1.91-0.49,2.65c-0.33,0.74-0.78,1.31-1.35,1.71
			C288.2,342.99,287.54,343.19,286.78,343.19z M286.78,342.54c0.62,0,1.17-0.17,1.64-0.51s0.83-0.83,1.09-1.48s0.39-1.42,0.39-2.32
			c0-0.91-0.13-1.69-0.39-2.33s-0.63-1.13-1.09-1.47c-0.47-0.34-1.01-0.51-1.64-0.51c-0.62,0-1.16,0.17-1.63,0.51
			s-0.84,0.83-1.1,1.47c-0.26,0.64-0.39,1.42-0.39,2.33c0,0.91,0.13,1.68,0.39,2.32s0.63,1.14,1.1,1.48
			C285.62,342.37,286.16,342.54,286.78,342.54z"/>
		<path d="M292.63,343.18c-0.16,0-0.3-0.06-0.41-0.18c-0.12-0.12-0.17-0.26-0.17-0.43s0.06-0.31,0.17-0.42s0.25-0.17,0.41-0.17
			s0.3,0.06,0.41,0.17s0.17,0.25,0.17,0.42s-0.06,0.31-0.17,0.43S292.79,343.18,292.63,343.18z"/>
		<path d="M298.48,343.19c-0.75,0-1.41-0.2-1.99-0.6c-0.58-0.4-1.03-0.97-1.36-1.71c-0.33-0.74-0.49-1.63-0.49-2.65
			c0-1.03,0.16-1.91,0.49-2.65s0.78-1.31,1.36-1.71s1.24-0.6,1.99-0.6c0.76,0,1.42,0.2,2,0.6c0.57,0.4,1.02,0.97,1.35,1.71
			c0.33,0.74,0.49,1.63,0.49,2.65c0,1.03-0.16,1.91-0.49,2.65c-0.33,0.74-0.78,1.31-1.35,1.71
			C299.9,342.99,299.24,343.19,298.48,343.19z M298.48,342.54c0.62,0,1.17-0.17,1.64-0.51s0.83-0.83,1.09-1.48s0.39-1.42,0.39-2.32
			c0-0.91-0.13-1.69-0.39-2.33s-0.63-1.13-1.09-1.47c-0.47-0.34-1.01-0.51-1.64-0.51c-0.62,0-1.16,0.17-1.63,0.51
			s-0.84,0.83-1.1,1.47c-0.26,0.64-0.39,1.42-0.39,2.33c0,0.91,0.13,1.68,0.39,2.32s0.63,1.14,1.1,1.48
			C297.32,342.37,297.87,342.54,298.48,342.54z"/>
		<path d="M307.7,343.19c-0.75,0-1.41-0.2-1.99-0.6c-0.58-0.4-1.03-0.97-1.36-1.71c-0.33-0.74-0.49-1.63-0.49-2.65
			c0-1.03,0.16-1.91,0.49-2.65s0.78-1.31,1.36-1.71s1.24-0.6,1.99-0.6c0.76,0,1.42,0.2,2,0.6c0.57,0.4,1.02,0.97,1.35,1.71
			c0.33,0.74,0.49,1.63,0.49,2.65c0,1.03-0.16,1.91-0.49,2.65c-0.33,0.74-0.78,1.31-1.35,1.71
			C309.12,342.99,308.45,343.19,307.7,343.19z M307.7,342.54c0.62,0,1.17-0.17,1.64-0.51s0.83-0.83,1.09-1.48s0.39-1.42,0.39-2.32
			c0-0.91-0.13-1.69-0.39-2.33s-0.63-1.13-1.09-1.47c-0.47-0.34-1.01-0.51-1.64-0.51c-0.62,0-1.16,0.17-1.63,0.51
			s-0.84,0.83-1.1,1.47c-0.26,0.64-0.39,1.42-0.39,2.33c0,0.91,0.13,1.68,0.39,2.32s0.63,1.14,1.1,1.48
			C306.54,342.37,307.08,342.54,307.7,342.54z"/>
		<path d="M316.91,343.19c-0.75,0-1.41-0.2-1.99-0.6c-0.58-0.4-1.03-0.97-1.36-1.71c-0.33-0.74-0.49-1.63-0.49-2.65
			c0-1.03,0.16-1.91,0.49-2.65s0.78-1.31,1.36-1.71s1.24-0.6,1.99-0.6c0.76,0,1.42,0.2,2,0.6c0.57,0.4,1.02,0.97,1.35,1.71
			c0.33,0.74,0.49,1.63,0.49,2.65c0,1.03-0.16,1.91-0.49,2.65c-0.33,0.74-0.78,1.31-1.35,1.71
			C318.33,342.99,317.66,343.19,316.91,343.19z M316.91,342.54c0.62,0,1.17-0.17,1.64-0.51s0.83-0.83,1.09-1.48s0.39-1.42,0.39-2.32
			c0-0.91-0.13-1.69-0.39-2.33s-0.63-1.13-1.09-1.47c-0.47-0.34-1.01-0.51-1.64-0.51c-0.62,0-1.16,0.17-1.63,0.51
			s-0.84,0.83-1.1,1.47c-0.26,0.64-0.39,1.42-0.39,2.33c0,0.91,0.13,1.68,0.39,2.32s0.63,1.14,1.1,1.48
			C315.75,342.37,316.29,342.54,316.91,342.54z"/>
	</g>
	<g>
		<path d="M100.76,343.19c-0.75,0-1.41-0.2-1.99-0.6c-0.58-0.4-1.03-0.97-1.36-1.71c-0.33-0.74-0.49-1.63-0.49-2.65
			c0-1.03,0.16-1.91,0.49-2.65s0.78-1.31,1.36-1.71s1.24-0.6,1.99-0.6c0.76,0,1.42,0.2,2,0.6c0.57,0.4,1.02,0.97,1.35,1.71
			c0.33,0.74,0.49,1.63,0.49,2.65c0,1.03-0.16,1.91-0.49,2.65c-0.33,0.74-0.78,1.31-1.35,1.71
			C102.18,342.99,101.51,343.19,100.76,343.19z M100.76,342.54c0.62,0,1.17-0.17,1.64-0.51s0.83-0.83,1.09-1.48s0.39-1.42,0.39-2.32
			c0-0.91-0.13-1.69-0.39-2.33s-0.63-1.13-1.09-1.47c-0.47-0.34-1.01-0.51-1.64-0.51c-0.62,0-1.16,0.17-1.63,0.51
			c-0.47,0.34-0.84,0.83-1.1,1.47c-0.26,0.64-0.39,1.42-0.39,2.33c0,0.91,0.13,1.68,0.39,2.32s0.63,1.14,1.1,1.48
			C99.6,342.37,100.14,342.54,100.76,342.54z"/>
	</g>
</g>
</svg>
