<?xml version="1.0" encoding="utf-8"?>
<!-- Generator: Adobe Illustrator 27.5.0, SVG Export Plug-In . SVG Version: 6.00 Build 0)  -->
<svg version="1.1" id="Capa_2" xmlns="http://www.w3.org/2000/svg" xmlns:xlink="http://www.w3.org/1999/xlink" x="0px" y="0px"
	 viewBox="0 0 1100 700" style="enable-background:new 0 0 1100 700;" xml:space="preserve">
<style type="text/css">
	.st0{fill:none;stroke:#000000;stroke-width:2.1588;stroke-miterlimit:10;}
</style>
<line class="st0" x1="8.21" y1="81.17" x2="765.72" y2="188.24"/>
<line class="st0" x1="8.94" y1="125.6" x2="766.45" y2="218.1"/>
<line class="st0" x1="7.48" y1="277.83" x2="823.26" y2="314.25"/>
<g>
	<g>
		<path d="M810.15,246.13c1.39,0,1.39-2.16,0-2.16C808.76,243.97,808.76,246.13,810.15,246.13L810.15,246.13z"/>
	</g>
</g>
<g>
	<g>
		<path d="M768.73,192.31c1.39,0,1.39-2.16,0-2.16C767.34,190.15,767.34,192.31,768.73,192.31L768.73,192.31z"/>
	</g>
</g>
<g>
	<g>
		<path d="M768.23,188.15c0.13,5.16,0.11,10.32-0.06,15.48c-0.08,2.54-0.2,5.09-0.36,7.63c-0.15,2.4-0.4,4.79-1.22,7.07
			c-0.47,1.31,1.62,1.87,2.08,0.57c0.84-2.34,1.11-4.83,1.28-7.3c0.17-2.57,0.29-5.15,0.37-7.73c0.18-5.24,0.2-10.48,0.06-15.72
			C770.35,186.76,768.19,186.76,768.23,188.15L768.23,188.15z"/>
	</g>
</g>
<g>
	<g>
		<path d="M770.92,212.78c7.06,5.54,14.17,11.04,21.08,16.76c6.43,5.32,12.66,10.95,18.01,17.39c4.9,5.9,8.91,12.54,11.9,19.6
			c2.95,6.95,4.93,14.35,5.86,21.83c0.93,7.52,0.84,15.19-0.38,22.66c-0.15,0.94-0.33,1.88-0.51,2.81
			c-0.27,1.36,1.81,1.94,2.08,0.57c1.53-7.59,1.96-15.39,1.28-23.11c-0.67-7.72-2.39-15.34-5.14-22.58
			c-2.76-7.27-6.5-14.16-11.21-20.35c-5.13-6.75-11.26-12.64-17.7-18.13c-6.83-5.82-13.95-11.3-21.01-16.84
			c-0.91-0.72-1.83-1.44-2.74-2.15c-0.46-0.36-1.08-0.45-1.53,0C770.55,211.63,770.46,212.42,770.92,212.78L770.92,212.78z"/>
	</g>
</g>
<g>
	<g>
		<path d="M825.11,315.55c1.24,0.17,2.47,0.33,3.71,0.5c0.3,0.04,0.56,0.05,0.83-0.11c0.22-0.13,0.44-0.39,0.5-0.65
			c0.06-0.28,0.05-0.59-0.11-0.83c-0.14-0.22-0.38-0.46-0.65-0.5c-1.24-0.17-2.47-0.33-3.71-0.5c-0.3-0.04-0.56-0.05-0.83,0.11
			c-0.22,0.13-0.44,0.39-0.5,0.65c-0.06,0.28-0.05,0.59,0.11,0.83C824.6,315.27,824.84,315.52,825.11,315.55L825.11,315.55z"/>
	</g>
</g>
<g>
	<g>
		<path d="M786.05,364.67c7.75-2.98,14.66-7.76,20.55-13.57c6.22-6.14,11.28-13.37,15.55-20.97c2.49-4.43,4.73-9,6.84-13.62
			c0.24-0.53,0.15-1.16-0.39-1.48c-0.46-0.27-1.23-0.15-1.48,0.39c-3.67,8.03-7.73,15.93-12.82,23.17
			c-4.7,6.69-10.35,12.83-17.03,17.59c-3.65,2.6-7.61,4.81-11.8,6.42c-0.54,0.21-0.92,0.73-0.75,1.33
			C784.86,364.43,785.5,364.88,786.05,364.67L786.05,364.67z"/>
	</g>
</g>
<g>
	<g>
		<path d="M824.79,315.52c0.72-0.08,1.44-0.07,2.15,0.02c-0.1-0.01-0.19-0.03-0.29-0.04c0.42,0.06,0.83,0.15,1.24,0.26
			c0.54,0.15,1.2-0.19,1.33-0.75c0.13-0.57-0.17-1.16-0.75-1.33c-1.19-0.34-2.45-0.46-3.68-0.32c-0.29,0.03-0.55,0.1-0.76,0.32
			c-0.19,0.19-0.33,0.49-0.32,0.76c0.01,0.28,0.1,0.57,0.32,0.76C824.23,315.39,824.51,315.55,824.79,315.52L824.79,315.52z"/>
	</g>
</g>
<g>
	<g>
		<path d="M824.48,315.82c1.39,0,1.39-2.16,0-2.16C823.09,313.66,823.09,315.82,824.48,315.82L824.48,315.82z"/>
	</g>
</g>
<g>
	<g>
		<path d="M825.56,314.43c0-0.1,0-0.21,0-0.31c0.01-0.15-0.03-0.29-0.09-0.42c-0.04-0.13-0.12-0.25-0.22-0.35
			c-0.1-0.11-0.21-0.18-0.35-0.22c-0.13-0.07-0.27-0.1-0.42-0.09c-0.1,0.01-0.19,0.03-0.29,0.04c-0.18,0.05-0.34,0.14-0.48,0.28
			c-0.06,0.07-0.11,0.15-0.17,0.22c-0.1,0.17-0.15,0.35-0.15,0.54c0,0.1,0,0.21,0,0.31c-0.01,0.15,0.03,0.29,0.09,0.42
			c0.04,0.13,0.12,0.25,0.22,0.35c0.1,0.11,0.21,0.18,0.35,0.22c0.13,0.07,0.27,0.1,0.42,0.09c0.1-0.01,0.19-0.03,0.29-0.04
			c0.18-0.05,0.34-0.14,0.48-0.28c0.06-0.07,0.11-0.15,0.17-0.22C825.51,314.81,825.56,314.63,825.56,314.43L825.56,314.43z"/>
	</g>
</g>
<line class="st0" x1="653.34" y1="360.37" x2="785.53" y2="365.17"/>
<line class="st0" x1="6.83" y1="383.8" x2="604.07" y2="379.59"/>
<line class="st0" x1="647.94" y1="380.8" x2="776.52" y2="380.8"/>
<line class="st0" x1="13.44" y1="429.46" x2="404.89" y2="421.81"/>
<line class="st0" x1="546.6" y1="421.05" x2="577.82" y2="421.81"/>
<line class="st0" x1="658.75" y1="413.84" x2="754.89" y2="409.64"/>
<line class="st0" x1="12.24" y1="494.96" x2="362.53" y2="473.33"/>
<g>
	<g>
		<path d="M759.96,383.18c-0.66,4.58-1.25,9.19-2.07,13.75c-0.78,4.37-1.84,8.73-3.66,12.79c-0.24,0.53-0.15,1.16,0.39,1.48
			c0.46,0.27,1.24,0.15,1.48-0.39c3.82-8.48,4.64-17.95,5.95-27.06c0.08-0.58-0.14-1.16-0.75-1.33
			C760.78,382.28,760.04,382.59,759.96,383.18L759.96,383.18z"/>
	</g>
</g>
<g>
	<g>
		<path d="M784.98,364.74c-3.55,5.04-6.42,10.53-8.57,16.31c-0.2,0.55,0.23,1.18,0.75,1.33c0.6,0.17,1.12-0.21,1.33-0.75
			c2.09-5.6,4.91-10.91,8.35-15.79c0.34-0.48,0.09-1.2-0.39-1.48C785.91,364.04,785.31,364.26,784.98,364.74L784.98,364.74z"/>
	</g>
</g>
<g>
	<g>
		<path d="M252.03,485.05c0.31,11.86,0.71,23.81,3.04,35.48c1.15,5.73,2.8,11.36,5.13,16.72c2.44,5.62,5.72,10.73,9.57,15.48
			c4.05,4.99,8.46,9.8,13.4,13.93c4.53,3.78,9.53,6.97,14.83,9.54c10.84,5.24,22.77,7.95,34.77,8.5c13.25,0.6,26.55-1.36,39.33-4.79
			c1.61-0.43,3.21-0.89,4.81-1.37c1.33-0.4,0.76-2.48-0.57-2.08c-12.52,3.74-25.49,6.16-38.58,6.19
			c-11.93,0.02-23.86-2.02-34.9-6.61c-5.3-2.2-10.36-5.03-14.99-8.42c-5.02-3.67-9.4-8.12-13.49-12.78
			c-4.04-4.6-7.73-9.46-10.54-14.92c-2.61-5.09-4.48-10.53-5.83-16.08c-2.74-11.3-3.36-22.99-3.7-34.57
			c-0.04-1.4-0.08-2.81-0.12-4.22C254.16,483.66,252,483.66,252.03,485.05L252.03,485.05z"/>
	</g>
</g>
<g>
	<g>
		<path d="M229.45,484.94c1.34,9.59,3.54,19.06,6.57,28.26c3.03,9.22,6.87,18.18,11.46,26.73c2.29,4.27,4.78,8.43,7.44,12.47
			c2.76,4.18,5.73,8.27,9.3,11.8c6.55,6.49,14.75,11.11,23.4,14.18c9.75,3.47,20.11,4.93,30.4,5.58c1.26,0.08,2.53,0.15,3.8,0.21
			c1.39,0.06,1.39-2.1,0-2.16c-10.25-0.47-20.53-1.61-30.38-4.64c-8.57-2.63-16.82-6.75-23.57-12.72
			c-3.61-3.19-6.67-6.91-9.41-10.86c-2.74-3.96-5.27-8.06-7.63-12.25c-4.67-8.3-8.6-17-11.74-25.99c-3.15-9-5.51-18.28-7.03-27.7
			c-0.19-1.16-0.36-2.32-0.52-3.48c-0.08-0.58-0.82-0.89-1.33-0.75C229.58,483.78,229.36,484.36,229.45,484.94L229.45,484.94z"/>
	</g>
</g>
<g>
	<g>
		<path d="M209.92,484.92c0.64,11.09,1.34,22.25,3.67,33.14c1.15,5.38,2.73,10.67,4.87,15.75c2.16,5.12,4.94,9.93,8.16,14.46
			c6.39,8.99,13.97,17.32,23.44,23.11c8.98,5.5,19.14,8.92,29.44,10.92c11.89,2.31,24.02,2.85,36.09,3.18
			c1.46,0.04,2.92,0.08,4.38,0.11c1.39,0.04,1.39-2.12,0-2.16c-11.88-0.3-23.83-0.59-35.59-2.46c-10.32-1.64-20.54-4.52-29.78-9.48
			c-4.5-2.42-8.75-5.31-12.55-8.74c-4.17-3.76-7.89-8.08-11.31-12.52c-3.31-4.3-6.3-8.87-8.7-13.75c-2.39-4.85-4.16-9.98-5.49-15.22
			c-2.68-10.57-3.57-21.48-4.23-32.33c-0.08-1.34-0.16-2.67-0.24-4.01C211.99,483.54,209.83,483.53,209.92,484.92L209.92,484.92z"/>
	</g>
</g>
<g>
	<g>
		<path d="M290.27,480.54c-0.02,7.58,1.15,15.16,3.44,22.38c2.29,7.22,5.67,14.1,10.03,20.29c4.3,6.08,9.51,11.96,16.29,15.29
			c5.81,2.86,12.43,3.98,18.87,3.37c6.47-0.62,12.75-2.91,17.91-6.9c0.65-0.5,1.27-1.02,1.88-1.57c1.03-0.93-0.5-2.46-1.53-1.53
			c-4.57,4.13-10.37,6.66-16.43,7.61c-6.03,0.95-12.38,0.24-18.02-2.11c-6.57-2.74-11.66-7.94-15.88-13.55
			c-4.37-5.82-7.86-12.32-10.28-19.18c-2.43-6.87-3.84-14.08-4.09-21.36c-0.03-0.91-0.04-1.82-0.04-2.73
			C292.44,479.15,290.28,479.15,290.27,480.54L290.27,480.54z"/>
	</g>
</g>
<ellipse class="st0" cx="505.98" cy="515.21" rx="48.15" ry="50.02"/>
<ellipse class="st0" cx="501.89" cy="521.19" rx="84.51" ry="89.63"/>
<g>
	<g>
		<path d="M444.86,545.83c1.39,0,1.39-2.16,0-2.16C443.47,543.67,443.47,545.83,444.86,545.83L444.86,545.83z"/>
	</g>
</g>
<path class="st0" d="M587.97,518.42c0,0,16.81-51.78-37.61-91.88c-16.26-11.98-35.99-18.46-56.19-18.42
	c-29.12,0.06-72.16,8.28-93.77,51.95c-14.04,28.37-15.3,61.68-3.31,90.97c11.59,28.32,38.01,59.9,98.12,62.94
	c0,0,39.56,0,55.31-18.9"/>
<path class="st0" d="M486.46,408.15c0,0-65.45,1.69-88.91,17.85c-22.93,15.79-54.31,49.69-36.06,122.17
	c17.47,69.34,130.11,73.67,137.92,66.86"/>
<polyline class="st0" points="715.94,412.69 717.63,449.01 658.51,454.08 "/>
<path class="st0" d="M686.59,563.25c0.01-3.33,20.23-6.4,35.87-6.89c25.41-0.79,51.5,4.85,51.33,8.64
	c-0.16,3.6-23.94,5.55-39.11,5.64C712.31,570.78,686.58,567.02,686.59,563.25z"/>
<path class="st0" d="M766.46,560.31c21.94,7.31,14.46,10.31,14.46,10.31c-11.63,7.31-53.01,5.98-53.01,5.98
	c-1.23,0.61-43-1.13-47.41-7.31c0,0-6.82-3.62,7.08-7.92"/>
<path class="st0" d="M777.43,574.6l-3.99,39.22c0,0-28.58,15.29-87.08,0.33l-4.43-42.84"/>
<g>
	<g>
		<path d="M634.68,378.43c-0.57,1.35-0.4,2.98,0.31,4.25c0.28,0.49,0.99,0.7,1.48,0.39c0.5-0.32,0.69-0.95,0.39-1.48
			c-0.07-0.13-0.14-0.26-0.2-0.4c0.04,0.09,0.07,0.17,0.11,0.26c-0.13-0.31-0.22-0.64-0.27-0.97c0.01,0.1,0.03,0.19,0.04,0.29
			c-0.05-0.35-0.05-0.71,0-1.07c-0.01,0.1-0.03,0.19-0.04,0.29c0.05-0.34,0.14-0.66,0.27-0.97c0.1-0.24,0.02-0.62-0.11-0.83
			c-0.13-0.22-0.39-0.44-0.65-0.5c-0.28-0.06-0.59-0.05-0.83,0.11C634.92,377.95,634.79,378.15,634.68,378.43L634.68,378.43z"/>
	</g>
</g>
<g>
	<g>
		<path d="M614.47,378.88c1.22,1.7,2.41,3.42,3.67,5.09c1.14,1.52,2.36,2.95,3.91,4.07c3.16,2.27,7.43,2.36,10.96,0.95
			c2.06-0.83,3.9-2.05,5.56-3.52c1.04-0.92-0.49-2.44-1.53-1.53c-3.15,2.78-7.47,4.76-11.69,3.38c-2-0.66-3.53-2.16-4.82-3.76
			c-1.49-1.85-2.81-3.84-4.19-5.77c-0.34-0.47-0.94-0.7-1.48-0.39C614.39,377.68,614.13,378.41,614.47,378.88L614.47,378.88z"/>
	</g>
</g>
<g>
	<g>
		<path d="M637.62,384.36c3.73-0.26,7.46,0.49,10.77,2.24c1.23,0.65,2.32-1.21,1.09-1.86c-3.63-1.92-7.75-2.82-11.86-2.54
			c-0.58,0.04-1.08,0.47-1.08,1.08C636.54,383.83,637.04,384.4,637.62,384.36L637.62,384.36z"/>
	</g>
</g>
<g>
	<g>
		<path d="M613.66,376.19c-4.89,5.92-12.69,8.02-18.7,12.49c-6.21,4.62-10.24,11.39-12.71,18.63c-1.4,4.1-2.3,8.36-2.9,12.65
			c-0.08,0.58,0.14,1.16,0.75,1.33c0.5,0.14,1.25-0.17,1.33-0.75c1.02-7.42,2.98-14.9,6.91-21.34c1.91-3.13,4.3-5.95,7.16-8.23
			c2.93-2.34,6.36-4,9.64-5.78c3.67-1.99,7.34-4.21,10.04-7.47c0.37-0.45,0.44-1.09,0-1.53
			C614.8,375.81,614.03,375.74,613.66,376.19L613.66,376.19z"/>
	</g>
</g>
<g>
	<g>
		<path d="M580.81,421.78c1.39,0,1.39-2.16,0-2.16C579.42,419.63,579.42,421.78,580.81,421.78L580.81,421.78z"/>
	</g>
</g>
<g>
	<g>
		<path d="M581.57,419.48c-0.08-0.08-0.15-0.15-0.23-0.23c-0.1-0.11-0.21-0.18-0.35-0.22c-0.13-0.07-0.27-0.1-0.42-0.09
			c-0.15-0.01-0.29,0.03-0.42,0.09c-0.13,0.04-0.25,0.12-0.35,0.22c-0.06,0.07-0.11,0.15-0.17,0.22c-0.1,0.17-0.15,0.35-0.15,0.54
			c0.01,0.1,0.03,0.19,0.04,0.29c0.05,0.18,0.14,0.34,0.28,0.48c0.08,0.08,0.15,0.15,0.23,0.23c0.1,0.11,0.21,0.18,0.35,0.22
			c0.13,0.07,0.27,0.1,0.42,0.09c0.15,0.01,0.29-0.03,0.42-0.09c0.13-0.04,0.25-0.12,0.35-0.22c0.06-0.07,0.11-0.15,0.17-0.22
			c0.1-0.17,0.15-0.35,0.15-0.54c-0.01-0.1-0.03-0.19-0.04-0.29C581.8,419.77,581.71,419.61,581.57,419.48L581.57,419.48z"/>
	</g>
</g>
<g>
	<g>
		<path d="M579.1,419.63c-2.04,9.21-2.48,18.66-2.53,28.06c-0.01,2.65,0,5.31,0.01,7.96c0.01,1.39,2.17,1.39,2.16,0
			c-0.05-9.23-0.1-18.51,1.08-27.68c0.34-2.61,0.79-5.2,1.36-7.77C581.48,418.85,579.4,418.27,579.1,419.63L579.1,419.63z"/>
	</g>
</g>
<g>
	<g>
		<path d="M602.72,418.86c-1.88,8.42-3.13,16.98-3.72,25.58c-0.59,8.59-0.53,17.22,0.19,25.8c0.41,4.86,1.03,9.71,1.85,14.51
			c0.1,0.58,0.81,0.9,1.33,0.75c0.61-0.17,0.85-0.75,0.75-1.33c-1.42-8.35-2.2-16.81-2.34-25.28c-0.14-8.47,0.34-16.96,1.48-25.35
			c0.64-4.74,1.49-9.45,2.54-14.12C605.1,418.08,603.02,417.5,602.72,418.86L602.72,418.86z"/>
	</g>
</g>
<g>
	<g>
		<path d="M601.31,484.94c-4.07,1.65-8.39,2.55-12.78,2.63c-1.39,0.02-1.39,2.18,0,2.16c4.57-0.08,9.11-0.99,13.35-2.71
			c0.54-0.22,0.92-0.72,0.75-1.33C602.49,485.18,601.85,484.72,601.31,484.94L601.31,484.94z"/>
	</g>
</g>
<g>
	<g>
		<path d="M599.49,488.21c0.11,1.37,0.23,2.74,0.34,4.11c0.02,0.29,0.1,0.55,0.32,0.76c0.19,0.19,0.49,0.33,0.76,0.32
			c0.54-0.02,1.13-0.48,1.08-1.08c-0.11-1.37-0.23-2.74-0.34-4.11c-0.02-0.29-0.1-0.55-0.32-0.76c-0.19-0.19-0.49-0.33-0.76-0.32
			C600.02,487.15,599.44,487.61,599.49,488.21L599.49,488.21z"/>
	</g>
</g>
<g>
	<g>
		<path d="M649.61,387.54c4.33,2.8,5.66,8.37,6.35,13.15c0.94,6.52,1.12,13.15,1.02,19.72c-0.22,13.3-1.75,26.55-1.64,39.86
			c0.06,7.44,0.65,14.9,2.24,22.19c0.29,1.36,2.38,0.78,2.08-0.57c-2.86-13.15-2.32-26.7-1.54-40.04
			c0.78-13.43,1.86-26.98,0.12-40.39c-0.76-5.83-2.24-12.37-7.52-15.78C649.53,384.92,648.45,386.78,649.61,387.54L649.61,387.54z"
			/>
	</g>
</g>
<g>
	<g>
		<path d="M651.13,406.79c0.86,10.14,0.09,20.31-1.09,30.39c-1.18,10.09-2.77,20.14-3.53,30.27c-0.43,5.71-0.59,11.45-0.28,17.18
			c0.08,1.38,2.23,1.39,2.16,0c-0.55-10.17,0.41-20.34,1.66-30.43c1.25-10.07,2.78-20.12,3.37-30.26
			c0.33-5.71,0.36-11.44-0.13-17.15C653.17,405.41,651.01,405.4,651.13,406.79L651.13,406.79z"/>
	</g>
</g>
<g>
	<g>
		<path d="M602.75,495.07c7.74,0.14,15.51,0.2,23.25-0.07c1.81-0.06,3.62-0.2,5.39-0.58c1.74-0.38,3.36-1.08,5.02-1.69
			c1.57-0.58,3.11-0.95,4.77-1.12c1.54-0.16,3.1-0.32,4.5-1.03c2.94-1.48,3.98-5.55,2.05-8.24c-0.34-0.47-0.94-0.7-1.48-0.39
			c-0.47,0.27-0.73,1-0.39,1.48c1.39,1.95,0.54,4.67-1.72,5.47c-1.33,0.47-2.77,0.5-4.15,0.68c-1.59,0.21-3.09,0.66-4.58,1.23
			c-1.51,0.58-3.01,1.19-4.6,1.53c-1.66,0.36-3.36,0.46-5.05,0.51c-3.61,0.11-7.23,0.13-10.85,0.15c-4.06,0.01-8.12-0.02-12.17-0.09
			C601.36,492.88,601.36,495.04,602.75,495.07L602.75,495.07z"/>
	</g>
</g>
<g>
	<g>
		<path d="M649.69,486.06c3.34-0.73,6.67-1.45,10.01-2.18c0.57-0.12,0.9-0.79,0.75-1.33c-0.16-0.59-0.76-0.88-1.33-0.75
			c-3.34,0.73-6.67,1.45-10.01,2.18c-0.57,0.12-0.9,0.79-0.75,1.33C648.53,485.9,649.12,486.19,649.69,486.06L649.69,486.06z"/>
	</g>
</g>
<g>
	<g>
		<path d="M645.99,488.81c0.2,13.81-2.26,27.44-4.97,40.92c-2.72,13.5-5.74,27.02-6.73,40.79c-0.55,7.67-0.4,15.37,0.74,22.98
			c0.09,0.58,0.81,0.9,1.33,0.75c0.62-0.17,0.84-0.75,0.75-1.33c-2.01-13.46-0.65-27.14,1.65-40.47
			c2.35-13.57,5.65-26.95,7.65-40.58c1.12-7.64,1.84-15.34,1.73-23.07C648.13,487.43,645.97,487.42,645.99,488.81L645.99,488.81z"/>
	</g>
</g>
<g>
	<g>
		<path d="M623.19,496.13c-0.91,6.76-2.28,13.45-4.1,20.02c-1.82,6.55-4.23,12.88-6.62,19.24c-2.41,6.41-4.48,12.86-5.63,19.62
			c-1.17,6.92-1.87,13.94-2.5,20.92c-0.72,7.95-1.22,15.93-1.5,23.91c-0.05,1.39,2.11,1.39,2.16,0c0.25-7.11,0.67-14.22,1.27-21.31
			c0.59-6.94,1.27-13.9,2.31-20.79c0.52-3.43,1.17-6.83,2.08-10.18c0.88-3.22,1.96-6.37,3.11-9.5c2.33-6.33,4.84-12.58,6.75-19.05
			c2.16-7.3,3.74-14.76,4.76-22.31c0.08-0.58-0.14-1.16-0.75-1.33C624.02,495.24,623.27,495.55,623.19,496.13L623.19,496.13z"/>
	</g>
</g>
<g>
	<g>
		<path d="M592.63,510.2c1.39,0,1.39-2.16,0-2.16C591.24,508.04,591.24,510.2,592.63,510.2L592.63,510.2z"/>
	</g>
</g>
<g>
	<g>
		<path d="M591.58,508.37c-0.23,6.12-0.45,12.25-0.7,18.38c-0.12,3-0.28,6-0.65,8.97c-0.36,2.95-1.04,5.84-1.75,8.73
			c-0.7,2.84-1.43,5.67-1.84,8.57c-0.43,3.02-0.56,6.05-0.65,9.09c-0.19,6.14-0.38,12.28-0.56,18.42
			c-0.21,6.93-0.42,13.86-0.64,20.8c-0.04,1.39,2.12,1.39,2.16,0c0.38-12.33,0.76-24.66,1.13-36.98c0.09-3.03,0.15-6.07,0.45-9.09
			c0.29-2.92,0.93-5.78,1.63-8.62c0.7-2.84,1.44-5.68,1.9-8.58c0.47-2.98,0.72-5.99,0.87-9c0.35-6.89,0.54-13.79,0.8-20.69
			C593.79,506.98,591.63,506.98,591.58,508.37L591.58,508.37z"/>
	</g>
</g>
<g>
	<g>
		<path d="M587.4,603.51c5.5,1.77,10.41-2.26,15.73-2.83c0.58-0.06,1.08-0.45,1.08-1.08c0-0.54-0.5-1.14-1.08-1.08
			c-2.73,0.29-5.24,1.32-7.81,2.2c-2.37,0.81-4.87,1.5-7.34,0.7C586.65,601.01,586.08,603.09,587.4,603.51L587.4,603.51z"/>
	</g>
</g>
<g>
	<g>
		<path d="M616.82,524.11c1.98,13.36,2.93,26.87,2.86,40.38c-0.04,6.76-0.33,13.52-0.88,20.26c-0.27,3.33-0.6,6.65-1,9.97
			c-0.2,1.67-0.46,3.33-0.64,5.01c-0.14,1.32,0.24,2.8,1.69,3.17c0.75,0.19,1.56-0.04,2.28-0.21c0.82-0.2,1.64-0.42,2.45-0.67
			c1.57-0.49,3.11-1.09,4.6-1.77c3.04-1.39,5.86-3.2,8.44-5.33c0.45-0.37,0.38-1.14,0-1.53c-0.44-0.44-1.08-0.37-1.53,0
			c-4.32,3.57-9.48,6.09-14.95,7.32c-0.29,0.06-0.7,0.26-0.84-0.04c-0.21-0.44,0.06-1.32,0.12-1.77c0.22-1.63,0.43-3.26,0.62-4.89
			c0.38-3.24,0.7-6.48,0.95-9.73c1.03-12.91,1.11-25.9,0.26-38.82c-0.48-7.33-1.28-14.64-2.36-21.91c-0.09-0.58-0.81-0.89-1.33-0.75
			C616.95,522.95,616.73,523.53,616.82,524.11L616.82,524.11z"/>
	</g>
</g>
<g>
	<g>
		<path d="M586.2,605.12c-0.85,5.22-3.3,11.41,0.36,16.15c0.36,0.46,0.93,0.71,1.48,0.39c0.45-0.27,0.75-1.01,0.39-1.48
			c-3.26-4.22-0.9-9.84-0.14-14.48c0.09-0.57-0.15-1.16-0.75-1.33C587.01,604.22,586.29,604.54,586.2,605.12L586.2,605.12z"/>
	</g>
</g>
<g>
	<g>
		<path d="M604.33,601.7c0.56,3.06,1.79,6.01,3.62,8.54c1.74,2.41,4.26,4.5,5.22,7.39c0.43,1.3,0.58,2.78-0.09,4.03
			c-0.59,1.11-1.61,1.86-2.69,2.45c-2.62,1.41-5.75,2.24-8.72,1.74c-3.58-0.61-6.77-2.49-9.84-4.32c-1.2-0.71-2.28,1.15-1.09,1.86
			c2.98,1.78,6.09,3.58,9.51,4.36c1.67,0.38,3.39,0.51,5.1,0.27c1.71-0.24,3.35-0.8,4.94-1.48c2.88-1.24,5.39-3.45,5.42-6.81
			c0.02-3.42-2.19-6.15-4.29-8.62c-1.21-1.42-2.31-2.88-3.17-4.54c-0.88-1.71-1.47-3.55-1.82-5.45c-0.1-0.57-0.8-0.9-1.33-0.75
			C604.48,600.53,604.23,601.12,604.33,601.7L604.33,601.7z"/>
	</g>
</g>
<g>
	<g>
		<path d="M619.84,603.93c-0.3,2.85-0.59,5.71-0.89,8.56c-0.04,0.42,0.36,0.98,0.79,1.04c2.4,0.35,4.83,0.45,7.26,0.59
			c2.44,0.14,4.88,0.28,7.32,0.42c4.71,0.27,9.47,0.76,14.2,0.63c2.12-0.06,4.37-0.22,6.39-0.89c1.64-0.55,3.3-1.52,4.01-3.19
			c0.79-1.88-0.01-3.96-1.48-5.27c-1.61-1.44-3.76-1.9-5.71-2.68c-3.99-1.58-7.45-4.49-9.77-8.08c-0.75-1.16-2.62-0.08-1.86,1.09
			c2.02,3.11,4.75,5.74,7.97,7.59c1.65,0.95,3.41,1.6,5.2,2.24c1.52,0.54,3.58,1.44,3.82,3.29c0.19,1.41-1.19,2.33-2.33,2.79
			c-1.79,0.72-3.84,0.87-5.75,0.95c-4.42,0.18-8.89-0.28-13.31-0.54c-2.56-0.15-5.13-0.29-7.69-0.44c-2.55-0.15-5.14-0.2-7.67-0.57
			c0.26,0.35,0.53,0.69,0.79,1.04c0.3-2.85,0.59-5.71,0.89-8.56c0.06-0.58-0.54-1.08-1.08-1.08
			C620.29,602.85,619.9,603.35,619.84,603.93L619.84,603.93z"/>
	</g>
</g>
<g>
	<g>
		<path d="M597.47,488.54c-1.31,1.83-0.46,4.16,0.55,5.91c0.5,0.86,1.11,1.74,1.28,2.74c0.14,0.87-0.2,1.66-0.77,2.3
			c-1.33,1.5-3.46,2.12-4.21,4.12c-0.34,0.92-0.52,1.85-1.02,2.71c-0.5,0.86-1.18,1.63-1.99,2.21c-0.47,0.34-0.7,0.94-0.39,1.48
			c0.27,0.47,1,0.73,1.48,0.39c1.8-1.31,3.1-3.1,3.72-5.25c0.13-0.45,0.21-0.95,0.5-1.33c0.28-0.38,0.72-0.63,1.11-0.88
			c0.83-0.56,1.67-1.16,2.34-1.92c0.67-0.75,1.2-1.64,1.36-2.64c0.19-1.19-0.11-2.3-0.62-3.36c-0.71-1.5-2.69-3.68-1.47-5.38
			c0.34-0.47,0.08-1.2-0.39-1.48C598.41,487.84,597.81,488.07,597.47,488.54L597.47,488.54z"/>
	</g>
</g>
<g>
	<g>
		<path d="M655.63,484.16c-1.32,6.56-4.74,12.54-9.72,17c-1.04,0.93,0.49,2.45,1.53,1.53c5.24-4.68,8.89-11.07,10.28-17.95
			C657.98,483.38,655.9,482.8,655.63,484.16L655.63,484.16z"/>
	</g>
</g>
<g>
	<g>
		<path d="M620.52,371.55c4.74,3.77,10.54,6.71,16.75,6.31c1.38-0.09,1.39-2.25,0-2.16c-5.62,0.37-10.92-2.25-15.23-5.67
			c-0.46-0.36-1.08-0.45-1.53,0C620.14,370.4,620.06,371.18,620.52,371.55L620.52,371.55z"/>
	</g>
</g>
<g>
	<g>
		<path d="M626.94,338.88c2.93-0.22,5.92,0.71,8.11,2.69c2.13,1.93,3.34,4.59,4.11,7.31c0.88,3.13,1.31,6.4,1.67,9.63
			c0.39,3.48,0.75,7.08,0.58,10.59c-0.14,2.84-1.45,6.78-4.92,6.77c-1.39,0-1.39,2.15,0,2.16c3.47,0.01,5.97-2.99,6.72-6.15
			c0.42-1.78,0.42-3.62,0.36-5.43c-0.07-2.04-0.2-4.08-0.39-6.11c-0.34-3.7-0.79-7.45-1.68-11.06c-0.78-3.16-2.06-6.3-4.34-8.68
			c-2.61-2.71-6.45-4.16-10.2-3.88C625.56,336.83,625.55,338.99,626.94,338.88L626.94,338.88z"/>
	</g>
</g>
<g>
	<g>
		<path d="M616.1,378c1.01-3.33,1.5-6.81,1.45-10.29c-0.02-1.39-2.18-1.39-2.16,0c0.05,3.3-0.42,6.56-1.37,9.72
			C613.61,378.76,615.69,379.33,616.1,378L616.1,378z"/>
	</g>
</g>
<g>
	<g>
		<path d="M627.83,335.77c-3.27-0.89-6.78-0.11-9.64,1.63c-2.91,1.77-5.14,4.42-7.04,7.21c-2.01,2.95-3.63,6.13-4.6,9.59
			c-0.93,3.35-1.31,6.85-1.38,10.32c-0.09,3.95,0.21,7.9,0.53,11.84c0.11,1.38,2.27,1.39,2.16,0c-0.52-6.52-1.07-13.22,0.31-19.67
			c0.7-3.26,1.93-6.31,3.67-9.16c1.64-2.68,3.55-5.32,6.04-7.28c2.62-2.06,6.08-3.28,9.39-2.39
			C628.6,338.21,629.17,336.13,627.83,335.77L627.83,335.77z"/>
	</g>
</g>
<g>
	<g>
		<path d="M605.9,364.29c-1.85,5.4-0.37,11.09-0.23,16.61c0.03,1.39,2.19,1.39,2.16,0c-0.13-5.31-1.63-10.85,0.15-16.04
			C608.43,363.54,606.35,362.98,605.9,364.29L605.9,364.29z"/>
	</g>
</g>
<g>
	<g>
		<path d="M622.2,353.76c-0.73-1.2-1.69-2.47-3.18-2.67c-1.42-0.19-2.61,0.69-3.26,1.9c-0.7,1.3-0.96,2.82-1.12,4.27
			c-0.18,1.58-0.01,3.32,0.94,4.64c1.02,1.42,2.59,2.25,4.35,1.94c0.57-0.1,0.9-0.8,0.75-1.33c-0.17-0.61-0.75-0.85-1.33-0.75
			c-1,0.18-1.95-0.77-2.31-1.62c-0.59-1.35-0.28-2.97,0.01-4.36c0.18-0.84,0.5-2.16,1.27-2.51c0.09-0.04,0.19-0.09,0.4-0.06
			c0.19,0.03,0.37,0.14,0.53,0.26c0.46,0.36,0.78,0.89,1.07,1.38C621.05,356.04,622.92,354.96,622.2,353.76L622.2,353.76z"/>
	</g>
</g>
<g>
	<g>
		<path d="M616.52,363.47c-0.92,2.67,0.25,5.78,2.6,7.29c0.48,0.31,1.21,0.11,1.48-0.39c0.28-0.54,0.12-1.15-0.39-1.48
			c-0.06-0.04-0.12-0.08-0.18-0.12c-0.04-0.03-0.2-0.16-0.02-0.01c-0.1-0.08-0.19-0.16-0.29-0.25c-0.1-0.1-0.2-0.2-0.29-0.3
			c-0.06-0.06-0.26-0.33-0.13-0.14c-0.17-0.23-0.32-0.46-0.45-0.71c-0.06-0.11-0.11-0.23-0.17-0.34c-0.06-0.12,0.06,0.18,0-0.02
			c-0.02-0.07-0.05-0.13-0.07-0.2c-0.09-0.25-0.15-0.51-0.2-0.78c-0.01-0.06-0.02-0.11-0.03-0.17c0.05,0.26,0.01,0.05,0-0.01
			c-0.01-0.14-0.02-0.28-0.02-0.42c0-0.13,0-0.25,0.01-0.38c0-0.07,0.01-0.14,0.02-0.21c0.01-0.14-0.04,0.2,0,0
			c0.05-0.28,0.12-0.55,0.21-0.82c0.18-0.53-0.21-1.2-0.75-1.33C617.25,362.58,616.72,362.9,616.52,363.47L616.52,363.47z"/>
	</g>
</g>
<g>
	<g>
		<path d="M629.17,337.33c3.09-0.21,6.07,0.98,8.42,2.96c2.56,2.16,4.28,5.08,5.41,8.2c1.23,3.4,1.89,7.01,2.37,10.58
			c0.52,3.9,0.74,7.84,0.67,11.76c-0.07,4.4-0.51,8.78-1.31,13.11c-0.11,0.57,0.16,1.16,0.75,1.33c0.53,0.14,1.22-0.18,1.33-0.75
			c1.52-8.19,1.81-16.58,0.79-24.85c-0.89-7.18-2.39-15.33-7.98-20.46c-2.82-2.59-6.56-4.31-10.45-4.04
			C627.79,335.27,627.78,337.43,629.17,337.33L629.17,337.33z"/>
	</g>
</g>
<g>
	<g>
		<path d="M628.31,336.76c0.26,0.09,0.53,0.17,0.79,0.26c0.14,0.04,0.29,0.05,0.43,0.02c0.14-0.01,0.28-0.05,0.4-0.13
			c0.13-0.07,0.23-0.16,0.3-0.28c0.1-0.1,0.16-0.23,0.19-0.37c0.01-0.1,0.03-0.19,0.04-0.29c0-0.19-0.05-0.38-0.15-0.54
			c-0.06-0.07-0.11-0.15-0.17-0.22c-0.13-0.13-0.29-0.23-0.48-0.28c-0.26-0.09-0.53-0.17-0.79-0.26c-0.14-0.04-0.29-0.05-0.43-0.02
			c-0.14,0.01-0.28,0.05-0.4,0.13c-0.13,0.07-0.23,0.16-0.3,0.28c-0.1,0.1-0.16,0.23-0.19,0.37c-0.01,0.1-0.03,0.19-0.04,0.29
			c0,0.19,0.05,0.38,0.15,0.54c0.06,0.07,0.11,0.15,0.17,0.22C627.97,336.61,628.13,336.71,628.31,336.76L628.31,336.76z"/>
	</g>
</g>
<g>
	<g>
		<path d="M619.8,509.63c1.39,0,1.39-2.16,0-2.16C618.41,507.47,618.41,509.63,619.8,509.63L619.8,509.63z"/>
	</g>
</g>
<g>
	<g>
		<path d="M663.23,448.14c1.39,0,1.39-2.16,0-2.16C661.85,445.98,661.84,448.14,663.23,448.14L663.23,448.14z"/>
	</g>
</g>
<g>
	<g>
		<path d="M746.26,436.18c-4.6,5.76-7.42,12.76-8.16,20.09c-0.37,3.68-0.16,7.39,0.55,11.01c0.78,3.94,2.12,7.74,3.56,11.47
			c1.46,3.77,3.01,7.49,4.28,11.33c1.27,3.85,2.31,7.78,3.12,11.75c1.63,7.92,2.4,15.98,2.63,24.06c0.23,8.19-0.09,16.38-0.66,24.54
			c-0.07,1-0.15,2-0.22,2.99c-0.11,1.39,2.05,1.38,2.16,0c0.63-8.04,1.04-16.11,0.95-24.18c-0.08-8.05-0.67-16.1-2.03-24.04
			c-0.67-3.96-1.55-7.88-2.65-11.74c-1.1-3.86-2.48-7.62-3.95-11.35c-2.83-7.16-5.79-14.43-5.77-22.26
			c0.02-7.11,2.19-14.17,6.18-20.06c0.49-0.72,1-1.42,1.54-2.09c0.36-0.46,0.44-1.08,0-1.53
			C747.41,435.8,746.62,435.72,746.26,436.18L746.26,436.18z"/>
	</g>
</g>
<g>
	<g>
		<path d="M764.73,485.42c0.13,6,2.81,11.46,5.73,16.57c3.02,5.29,6.04,10.54,8.61,16.07c5.15,11.08,8.9,22.87,10.66,34.97
			c0.98,6.75,1.29,13.6,0.91,20.41c-0.08,1.39,2.08,1.38,2.16,0c0.7-12.22-0.93-24.51-4.28-36.26
			c-3.37-11.82-8.48-23.04-14.66-33.64c-3.25-5.57-6.82-11.46-6.96-18.11C766.86,484.03,764.7,484.03,764.73,485.42L764.73,485.42z"
			/>
	</g>
</g>
<g>
	<g>
		<path d="M776.03,516.14c-0.76,11.59-3.88,22.82-5.83,34.22c-0.56,3.25-1.02,6.52-1.32,9.81c-0.05,0.58,0.53,1.08,1.08,1.08
			c0.63,0,1.03-0.5,1.08-1.08c1.05-11.56,4.24-22.77,6.02-34.21c0.51-3.26,0.91-6.53,1.13-9.83
			C778.28,514.75,776.12,514.76,776.03,516.14L776.03,516.14z"/>
	</g>
</g>
<g>
	<g>
		<path d="M791.77,468.8c-1.72,12.85,6.64,24.15,10.78,35.69c4.43,12.37,5.46,25.6,5.29,38.64c-0.1,7.45-0.59,14.89-1.09,22.33
			c-0.09,1.39,2.06,1.38,2.16,0c0.9-13.23,1.77-26.56,0.42-39.79c-0.66-6.5-1.84-12.96-3.83-19.2c-1.95-6.13-4.87-11.83-7.45-17.71
			c-2.76-6.29-5.05-13.01-4.12-19.97c0.08-0.58-0.55-1.08-1.08-1.08C792.21,467.72,791.85,468.22,791.77,468.8L791.77,468.8z"/>
	</g>
</g>
<g>
	<g>
		<path d="M791.39,573.44c-0.84,2.55-0.95,5.3-0.38,7.92c0.28,1.3,0.75,2.57,1.38,3.75c0.65,1.23,1.5,2.27,2.88,2.68
			c1.34,0.4,2.87,0.32,4.25,0.39c1.57,0.08,3.14,0.14,4.71,0.19c3.14,0.1,6.28,0.15,9.42,0.15c3.55,0,7.1-0.07,10.65-0.19
			c1.39-0.05,1.39-2.21,0-2.16c-5.82,0.21-11.65,0.25-17.47,0.11c-2.93-0.07-5.86-0.18-8.79-0.33c-1.05-0.06-2.36,0.04-3.11-0.85
			c-0.72-0.86-1.18-2.05-1.51-3.11c-0.81-2.61-0.78-5.38,0.07-7.97C793.91,572.69,791.83,572.12,791.39,573.44L791.39,573.44z"/>
	</g>
</g>
<g>
	<g>
		<path d="M808.01,567.13c1.89,2.25,4.62,3.53,7.17,4.88c2.98,1.57,5.96,3.14,8.93,4.71c1.23,0.65,2.32-1.22,1.09-1.86
			c-2.91-1.53-5.81-3.06-8.72-4.59c-2.46-1.3-5.13-2.48-6.95-4.65c-0.37-0.45-1.14-0.39-1.53,0
			C807.57,566.05,807.64,566.68,808.01,567.13L808.01,567.13z"/>
	</g>
</g>
<g>
	<g>
		<path d="M806.03,565.2c-1.32,2.19-2.71,4.55-4.97,5.89c-1.21,0.72-2.58,1.08-3.92,1.46c-1.57,0.44-3.14,0.89-4.71,1.33
			c-1.33,0.38-0.77,2.46,0.57,2.08c1.64-0.46,3.28-0.93,4.93-1.39c1.51-0.43,3.04-0.89,4.39-1.72c2.5-1.55,4.1-4.1,5.58-6.56
			C808.61,565.1,806.74,564.01,806.03,565.2L806.03,565.2z"/>
	</g>
</g>
<g>
	<g>
		<path d="M828.38,533.16c10.56,2.72,21.63,4.39,32.53,3.16c3.11-0.35,6.18-0.93,9.19-1.77c1.34-0.37,0.77-2.46-0.57-2.08
			c-10.3,2.88-21.19,2.5-31.63,0.6c-3.01-0.55-5.99-1.22-8.95-1.99C827.61,530.73,827.03,532.82,828.38,533.16L828.38,533.16z"/>
	</g>
</g>
<g>
	<g>
		<path d="M829.27,531.14c0.19-0.88,1.11-1.21,1.89-1.43c1.23-0.34,2.53-0.48,3.8-0.64c2.83-0.35,5.68-0.53,8.53-0.52
			c5.68,0.01,11.35,0.75,16.85,2.19c3.1,0.81,6.15,1.84,9.1,3.1c-0.17-0.41-0.33-0.81-0.5-1.22c-0.03,0.14-0.13,0.41-0.34,0.37
			c-0.58-0.09-1.16,0.15-1.33,0.75c-0.14,0.51,0.17,1.24,0.75,1.33c1.34,0.21,2.68-0.5,2.99-1.88c0.1-0.42-0.05-1.03-0.5-1.22
			c-11.3-4.82-23.82-6.62-36-5.01c-2.47,0.33-6.66,0.52-7.33,3.6C826.89,531.92,828.97,532.5,829.27,531.14L829.27,531.14z"/>
	</g>
</g>
<g>
	<g>
		<path d="M827.01,532.16c-2.2,6.87-1.89,14.22-1.88,21.34c0,7.48,0,14.95,0,22.43c0,4.24,0,8.47,0,12.71c0,1.39,2.16,1.39,2.16,0
			c0-7.48,0-14.95,0-22.43c0-3.74,0-7.48,0-11.22c0-3.53-0.05-7.07,0.06-10.61c0.13-3.95,0.53-7.88,1.75-11.66
			C829.52,531.41,827.43,530.84,827.01,532.16L827.01,532.16z"/>
	</g>
</g>
<g>
	<g>
		<path d="M869.67,534.47c2.39,13.89,2.56,28.2,0.48,42.14c-0.59,3.93-1.35,7.83-2.28,11.69c-0.33,1.35,1.76,1.93,2.08,0.57
			c3.37-14,4.52-28.53,3.34-42.88c-0.33-4.06-0.85-8.1-1.54-12.1c-0.1-0.57-0.81-0.9-1.33-0.75
			C869.82,533.31,869.57,533.9,869.67,534.47L869.67,534.47z"/>
	</g>
</g>
<g>
	<g>
		<path d="M825.73,590.55c3.61,4.03,9.36,4.66,14.45,4.85c3.32,0.12,6.64,0.19,9.96,0.28c3.42,0.09,6.9,0.34,10.27-0.38
			c3.27-0.7,6.31-2.33,8.77-4.59c1.02-0.94-0.5-2.47-1.53-1.53c-2.01,1.85-4.46,3.19-7.11,3.87c-3.07,0.79-6.28,0.59-9.42,0.5
			c-3.2-0.09-6.4-0.17-9.59-0.26c-2.48-0.07-4.97-0.16-7.4-0.67c-2.61-0.54-5.07-1.58-6.88-3.59
			C826.33,587.99,824.81,589.52,825.73,590.55L825.73,590.55z"/>
	</g>
</g>
<g>
	<g>
		<path d="M836.38,526.33c0.77-3.08,2.4-5.85,4.73-8.01c1.02-0.95-0.51-2.47-1.53-1.53c-2.58,2.4-4.44,5.55-5.29,8.96
			C833.96,527.11,836.04,527.68,836.38,526.33L836.38,526.33z"/>
	</g>
</g>
<g>
	<g>
		<path d="M842.01,519.29c9.41,2.85,19.36,2.71,29.07,2.13c2.58-0.15,5.35-0.12,7.66-1.43c1.21-0.68,0.12-2.55-1.09-1.86
			c-1.86,1.05-4.16,0.98-6.22,1.11c-2.36,0.14-4.71,0.26-7.07,0.32c-4.67,0.12-9.38,0.03-14.02-0.64c-2.63-0.38-5.22-0.94-7.76-1.71
			C841.25,516.8,840.68,518.89,842.01,519.29L842.01,519.29z"/>
	</g>
</g>
<g>
	<g>
		<path d="M841.65,518.32c8.82-4.81,19.27-4.1,28.79-2.19c2.24,0.45,5.06,0.72,6.73,2.45c0.97,1,2.49-0.53,1.53-1.53
			c-1.66-1.71-4.01-2.23-6.26-2.71c-2.71-0.58-5.44-1.07-8.19-1.41c-5.2-0.64-10.51-0.65-15.65,0.51c-2.8,0.63-5.52,1.63-8.05,3.01
			C839.34,517.12,840.43,518.98,841.65,518.32L841.65,518.32z"/>
	</g>
</g>
<g>
	<g>
		<path d="M879.2,519.05c4.82,4.73,5.61,11.92,5.8,18.33c0.26,8.57-0.01,17.18-0.55,25.74c-0.31,4.95-0.75,9.89-1.3,14.81
			c-0.06,0.58,0.54,1.08,1.08,1.08c0.64,0,1.01-0.5,1.08-1.08c1-8.91,1.61-17.86,1.83-26.82c0.11-4.35,0.14-8.71,0.04-13.06
			c-0.08-3.51-0.32-7.06-1.14-10.49c-0.89-3.74-2.55-7.31-5.32-10.03C879.73,516.55,878.2,518.07,879.2,519.05L879.2,519.05z"/>
	</g>
</g>
<g>
	<g>
		<path d="M871.48,583.97c3.08,0.43,6.29,0.66,9.21-0.64c2.31-1.03,4.32-3.13,4.7-5.7c0.08-0.58-0.14-1.16-0.75-1.33
			c-0.51-0.14-1.24,0.17-1.33,0.75c-0.3,2.04-1.81,3.59-3.66,4.39c-2.36,1.02-5.11,0.79-7.59,0.44c-0.58-0.08-1.16,0.14-1.33,0.75
			C870.59,583.15,870.9,583.89,871.48,583.97L871.48,583.97z"/>
	</g>
</g>
<g>
	<g>
		<path d="M793.26,468.49c-0.08-4.34,1.39-8.28,3.77-11.85c2.41-3.62,5.33-6.92,8.05-10.3c1.67-2.07,3.33-4.13,5-6.2
			c0.37-0.45,0.44-1.08,0-1.53c-0.38-0.38-1.16-0.46-1.53,0c-3.07,3.81-6.14,7.61-9.21,11.42c-2.68,3.32-5.37,6.7-6.91,10.72
			c-0.94,2.45-1.37,5.1-1.33,7.73C791.13,469.88,793.29,469.89,793.26,468.49L793.26,468.49z"/>
	</g>
</g>
<g>
	<g>
		<path d="M682.41,584.93c1.39,0,1.39-2.16,0-2.16C681.03,582.78,681.02,584.93,682.41,584.93L682.41,584.93z"/>
	</g>
</g>
<g>
	<g>
		<path d="M741.27,450.78c2.12,2.53,5.04,4.18,7.95,5.64c3.2,1.61,6.48,3.08,9.81,4.4c6.63,2.63,13.5,4.66,20.5,6.05
			c3.97,0.79,7.97,1.37,12,1.76c0.58,0.06,1.08-0.54,1.08-1.08c0-0.63-0.5-1.02-1.08-1.08c-13.78-1.34-27.34-5.15-39.79-11.21
			c-3.23-1.57-6.6-3.21-8.94-6.01c-0.37-0.45-1.14-0.39-1.53,0C740.83,449.7,740.89,450.33,741.27,450.78L741.27,450.78z"/>
	</g>
</g>
<g>
	<g>
		<path d="M812.37,441.34c4.07,5.87,8.14,11.77,11.56,18.06c1.68,3.1,3.21,6.3,4.45,9.6c1.22,3.26,2.05,6.61,2.93,9.97
			c0.96,3.67,2.11,7.37,4.31,10.51c0.33,0.48,0.94,0.7,1.48,0.39c0.47-0.28,0.72-1,0.39-1.48c-1.93-2.76-3-5.94-3.87-9.17
			c-0.9-3.34-1.67-6.7-2.84-9.96c-2.42-6.73-5.92-13-9.77-19c-2.18-3.39-4.46-6.7-6.76-10.01
			C813.45,439.12,811.58,440.2,812.37,441.34L812.37,441.34z"/>
	</g>
</g>
<g>
	<g>
		<path d="M827.04,411.53c0.34,4.51,2.92,8.16,5.78,11.48c2.96,3.43,6.2,6.66,8,10.9c2.05,4.83,2.46,10.17,2.83,15.34
			c0.41,5.7,0.81,11.4,1.56,17.06c0.85,6.33,2.15,12.62,4.44,18.6c0.21,0.54,0.73,0.92,1.33,0.75c0.52-0.14,0.96-0.78,0.75-1.33
			c-4.06-10.61-4.98-22.01-5.79-33.24c-0.38-5.26-0.65-10.65-2.29-15.7c-0.78-2.41-1.87-4.7-3.33-6.77
			c-1.29-1.82-2.76-3.5-4.24-5.17c-3.03-3.41-6.53-7.14-6.88-11.92C829.1,410.15,826.94,410.14,827.04,411.53L827.04,411.53z"/>
	</g>
</g>
<g>
	<g>
		<path d="M849.82,488.75c-0.35,1.6-1.33,2.99-2.64,3.89c-0.76,0.52-1.37,0.8-2.22,1.03c-0.21,0.05-0.41,0.1-0.62,0.13
			c-0.06,0.01-0.11,0.02-0.17,0.03c0.08-0.01,0.08-0.01,0,0c-0.1,0.01-0.19,0.02-0.29,0.02c-0.23,0.01-0.46,0.02-0.7,0.01
			c-0.12,0-0.23-0.02-0.35-0.02c-0.21-0.01,0.05,0.01-0.18-0.02c-0.58-0.09-1.16,0.15-1.33,0.75c-0.14,0.51,0.17,1.24,0.75,1.33
			c4.33,0.68,8.88-2.21,9.83-6.56c0.12-0.57-0.17-1.17-0.75-1.33C850.61,487.85,849.95,488.18,849.82,488.75L849.82,488.75z"/>
	</g>
</g>
<g>
	<g>
		<path d="M836.26,489.93c0.37,2.18,1.57,4.24,3.27,5.65c0.43,0.36,1.11,0.46,1.53,0c0.37-0.4,0.46-1.14,0-1.53
			c-0.38-0.32-0.74-0.66-1.06-1.04c-0.04-0.04-0.07-0.08-0.11-0.13c-0.02-0.02-0.16-0.21-0.07-0.08c0.09,0.11-0.02-0.03-0.04-0.06
			c-0.04-0.06-0.08-0.11-0.12-0.17c-0.14-0.2-0.27-0.41-0.4-0.63c-0.12-0.2-0.23-0.41-0.33-0.62c-0.03-0.06-0.06-0.12-0.09-0.19
			c-0.06-0.13-0.03-0.02,0.01,0.03c-0.07-0.08-0.1-0.25-0.13-0.35c-0.17-0.48-0.3-0.97-0.39-1.47c-0.1-0.56-0.81-0.92-1.33-0.75
			C836.42,488.8,836.16,489.33,836.26,489.93L836.26,489.93z"/>
	</g>
</g>
<g>
	<g>
		<path d="M852.78,492.2c0.32,2.06,1.07,4.07,2.2,5.83c1.15,1.8,2.72,3.23,4.16,4.79c2.75,2.96,4.24,6.74,4.06,10.79
			c-0.06,1.39,2.1,1.39,2.16,0c0.18-4.18-1.26-8.3-3.95-11.49c-1.37-1.62-3.04-2.99-4.26-4.74c-1.21-1.73-1.96-3.68-2.28-5.76
			c-0.09-0.58-0.81-0.9-1.33-0.75C852.92,491.04,852.69,491.62,852.78,492.2L852.78,492.2z"/>
	</g>
</g>
<g>
	<g>
		<path d="M847.59,496.69c0.48,0.98,0.53,2.08,0.56,3.15c0.04,1.19,0.09,2.37,0.32,3.55c0.48,2.38,1.57,4.61,2.62,6.78
			c0.61,1.25,2.47,0.16,1.86-1.09c-1.04-2.14-2.1-4.33-2.49-6.7c-0.37-2.29,0.05-4.61-1.02-6.77
			C848.84,494.35,846.97,495.45,847.59,496.69L847.59,496.69z"/>
	</g>
</g>
<g>
	<g>
		<path d="M849.59,484.67c0.87,3.55,2.25,6.93,3.62,10.31c0.22,0.54,0.72,0.92,1.33,0.75c0.51-0.14,0.98-0.78,0.75-1.33
			c-1.38-3.37-2.75-6.76-3.62-10.31C851.34,482.75,849.25,483.32,849.59,484.67L849.59,484.67z"/>
	</g>
</g>
<g>
	<g>
		<path d="M850.95,511.29c0.02,0.04,0.04,0.09,0.06,0.14c-0.04-0.09-0.07-0.17-0.11-0.26c0.16,0.4,0.27,0.81,0.33,1.23
			c-0.01-0.1-0.03-0.19-0.04-0.29c0.05,0.42,0.06,0.85,0,1.27c0.01-0.1,0.03-0.19,0.04-0.29c0,0.03-0.01,0.06-0.01,0.1
			c-0.04,0.3-0.05,0.56,0.11,0.83c0.13,0.22,0.39,0.44,0.65,0.5c0.28,0.06,0.59,0.05,0.83-0.11c0.22-0.14,0.46-0.37,0.5-0.65
			c0.05-0.32,0.09-0.65,0.09-0.97c0-0.33-0.04-0.65-0.08-0.97c-0.08-0.57-0.26-1.1-0.5-1.62c-0.1-0.23-0.41-0.43-0.65-0.5
			c-0.26-0.07-0.6-0.04-0.83,0.11c-0.23,0.15-0.43,0.37-0.5,0.65c-0.01,0.1-0.03,0.19-0.04,0.29
			C850.8,510.94,850.85,511.12,850.95,511.29L850.95,511.29z"/>
	</g>
</g>
<g>
	<g>
		<path d="M855.36,509.62c0.16,0.41,0.27,0.84,0.33,1.28c-0.01-0.1-0.03-0.19-0.04-0.29c0.06,0.51,0.06,1.01,0,1.52
			c0.01-0.1,0.03-0.19,0.04-0.29c-0.04,0.31-0.11,0.61-0.2,0.9c-0.17,0.54,0.2,1.2,0.75,1.33c0.58,0.13,1.15-0.18,1.33-0.75
			c0.42-1.38,0.39-2.93-0.13-4.27c-0.1-0.27-0.24-0.49-0.5-0.65c-0.23-0.14-0.57-0.19-0.83-0.11
			C855.61,508.46,855.15,509.05,855.36,509.62L855.36,509.62z"/>
	</g>
</g>
<g>
	<g>
		<path d="M851.84,511.66c1.39,0,1.39-2.16,0-2.16C850.45,509.5,850.45,511.66,851.84,511.66L851.84,511.66z"/>
	</g>
</g>
<g>
	<g>
		<path d="M845.91,393.82c5.09,3.69,6.52,10.78,3.42,16.21c-0.69,1.21,1.18,2.3,1.86,1.09c1.85-3.25,2.44-7.15,1.54-10.79
			c-0.84-3.39-2.92-6.33-5.74-8.37c-0.47-0.34-1.2-0.08-1.48,0.39C845.2,392.89,845.44,393.48,845.91,393.82L845.91,393.82z"/>
	</g>
</g>
<g>
	<g>
		<path d="M849.94,408.52c-1.25,1.53-1.85,3.3-1.89,5.27c-0.01,0.46-0.02,0.79-0.13,1.18c-0.01,0.04-0.03,0.08-0.04,0.12
			c0.03-0.07,0.03-0.07,0-0.01c-0.04,0.07-0.08,0.14-0.12,0.2c0.12-0.18-0.05,0.04-0.07,0.07c-0.02,0.02-0.21,0.18-0.11,0.1
			c0.11-0.08-0.1,0.06-0.13,0.08c-0.02,0.01-0.3,0.14-0.08,0.06c-0.15,0.06-0.3,0.1-0.46,0.13c0.15-0.03,0.06,0-0.04,0
			c-0.08,0-0.16-0.01-0.24,0c0.21-0.01-0.01,0-0.08-0.02c-0.05-0.01-0.3-0.11-0.1-0.02c-0.53-0.24-1.16-0.15-1.48,0.39
			c-0.27,0.46-0.15,1.24,0.39,1.48c0.96,0.43,1.96,0.43,2.93-0.01c0.88-0.41,1.54-1.22,1.77-2.16c0.13-0.53,0.15-1.09,0.16-1.63
			c0.01-0.54,0.03-0.86,0.14-1.32c0.1-0.45,0.26-0.91,0.42-1.24c0.1-0.2,0.21-0.4,0.33-0.59c0.13-0.2,0.27-0.4,0.37-0.53
			c0.37-0.45,0.44-1.09,0-1.53C851.09,408.14,850.31,408.07,849.94,408.52L849.94,408.52z"/>
	</g>
</g>
<g>
	<g>
		<path d="M833.23,419.97c0.5-0.71,1.65-0.64,2.39-0.54c1.19,0.15,2.33,0.39,3.53,0.31c2.29-0.15,4.39-1,6.19-2.42
			c0.46-0.36,0.38-1.15,0-1.53c-0.45-0.45-1.07-0.36-1.53,0c-1.7,1.34-3.92,1.95-6.07,1.78c-1.2-0.1-2.36-0.45-3.57-0.3
			c-1.16,0.14-2.14,0.66-2.82,1.62c-0.34,0.48-0.09,1.2,0.39,1.48C832.29,420.67,832.89,420.45,833.23,419.97L833.23,419.97z"/>
	</g>
</g>
<g>
	<g>
		<path d="M851.12,404.28c-1.6-2-3.77-3.49-6.17-4.36c-2.63-0.95-5.47-0.96-8.19-0.38c-2.87,0.6-5.58,1.81-8.25,2.98
			c-2.8,1.22-5.62,2.37-8.48,3.46c-2.72,1.03-5.56,2.02-8.49,2.17c-2.53,0.12-4.99-0.42-7.39-1.19c-4.88-1.56-9.57-4.04-14.78-4.23
			c-2.76-0.1-5.73,0.51-6.97,3.26c-1.05,2.32-0.7,4.95-1.5,7.34c-0.45,1.32,1.64,1.88,2.08,0.57c0.69-2.02,0.52-4.2,1.1-6.25
			c0.24-0.84,0.65-1.63,1.41-2.1c1.02-0.64,2.32-0.69,3.49-0.67c4.85,0.06,9.34,2.38,13.84,3.91c2.34,0.8,4.76,1.42,7.24,1.52
			c2.82,0.12,5.61-0.53,8.27-1.42c2.73-0.92,5.4-2.02,8.06-3.13c2.62-1.09,5.2-2.33,7.88-3.26c2.79-0.97,5.79-1.59,8.72-0.9
			c2.63,0.62,4.93,2.11,6.62,4.22c0.37,0.46,1.15,0.38,1.53,0C851.57,405.35,851.49,404.73,851.12,404.28L851.12,404.28z"/>
	</g>
</g>
<g>
	<g>
		<path d="M781.64,414.9c1.39,0,1.39-2.16,0-2.16C780.25,412.75,780.25,414.9,781.64,414.9L781.64,414.9z"/>
	</g>
</g>
<g>
	<g>
		<path d="M847.36,390.98c-4.89-3.27-10.68-6.75-16.77-4.95c-1.42,0.42-2.75,1.06-4.11,1.62c-1.34,0.56-2.74,0.95-4.11,1.43
			c-1.44,0.5-2.75,1.14-3.96,2.05c-1.23,0.93-2.4,1.54-3.91,1.92c-3.09,0.76-6.21,1.34-9.4,1.47c-3.28,0.13-6.46,0.33-9.66,1.11
			c-3.19,0.77-6.31,1.81-9.45,2.76c-2.67,0.81-5.52,1.45-8.01,2.74c-2.59,1.34-4.36,3.78-3.74,6.8c0.69,3.37,3.77,5.3,6.55,6.86
			c1.21,0.68,2.3-1.18,1.09-1.86c-2.2-1.24-4.8-2.65-5.49-5.28c-0.6-2.28,1.03-3.84,2.91-4.77c0.98-0.48,2.02-0.81,3.05-1.12
			c1.48-0.45,2.96-0.9,4.44-1.35c2.95-0.9,5.88-1.86,8.87-2.61c1.47-0.37,2.97-0.68,4.48-0.85c1.53-0.17,3.06-0.2,4.59-0.25
			c3.07-0.11,6.04-0.6,9.04-1.26c1.37-0.3,2.76-0.61,4.01-1.27c1.25-0.66,2.26-1.69,3.52-2.32c1.2-0.61,2.52-0.95,3.8-1.37
			c1.36-0.45,2.66-1.04,3.99-1.59c1.39-0.58,2.83-1.09,4.35-1.17c1.51-0.08,2.99,0.17,4.43,0.63c3.04,0.96,5.77,2.75,8.41,4.52
			C847.43,393.62,848.51,391.75,847.36,390.98L847.36,390.98z"/>
	</g>
</g>
<g>
	<g>
		<path d="M825.65,409.12c0.45,1.28,0.9,2.56,1.34,3.83c0.19,0.53,0.75,0.94,1.33,0.75c0.53-0.17,0.95-0.76,0.75-1.33
			c-0.45-1.28-0.9-2.56-1.34-3.83c-0.19-0.53-0.75-0.94-1.33-0.75C825.88,407.97,825.45,408.55,825.65,409.12L825.65,409.12z"/>
	</g>
</g>
<g>
	<g>
		<path d="M773.81,408.1c-5,2.79-9.39,6.53-13.41,10.58c-1.97,1.98-3.86,4.05-5.72,6.13c-2.01,2.25-4.1,4.47-5.86,6.92
			c-1.99,2.78-3.35,5.93-4.69,9.06c-0.23,0.54-0.16,1.16,0.39,1.48c0.45,0.27,1.25,0.15,1.48-0.39c1.16-2.71,2.33-5.43,3.92-7.92
			c1.59-2.48,3.63-4.63,5.58-6.82c3.7-4.17,7.49-8.29,11.77-11.87c2.38-1.99,4.93-3.79,7.64-5.3
			C776.11,409.29,775.02,407.42,773.81,408.1L773.81,408.1z"/>
	</g>
</g>
<g>
	<g>
		<path d="M881.16,523.84c1.39,0,1.39-2.16,0-2.16C879.77,521.68,879.77,523.84,881.16,523.84L881.16,523.84z"/>
	</g>
</g>
<g>
	<g>
		<path d="M835.85,503.26c1.39,0,1.39-2.16,0-2.16C834.46,501.1,834.46,503.26,835.85,503.26L835.85,503.26z"/>
	</g>
</g>
<g>
	<g>
		<path d="M847.13,471.18c7.51,5.89,17.31,6.87,26.53,7.18c5.16,0.18,10.34,0.11,15.44-0.69c5.08-0.8,9.91-2.46,14.36-5.05
			c2.49-1.45,4.84-3.12,7.15-4.84c2.37-1.77,4.8-3.52,6.99-5.52c1.03-0.94-0.5-2.46-1.53-1.53c-1.86,1.7-3.91,3.2-5.92,4.71
			c-1.97,1.48-3.97,2.94-6.06,4.26c-4.16,2.64-8.62,4.52-13.46,5.5c-4.83,0.98-9.79,1.15-14.71,1.05c-4.58-0.09-9.2-0.29-13.72-1.09
			c-4.83-0.86-9.65-2.45-13.55-5.52c-0.46-0.36-1.08-0.45-1.53,0C846.76,470.02,846.67,470.81,847.13,471.18L847.13,471.18z"/>
	</g>
</g>
<g>
	<g>
		<path d="M850.17,481.21c2.84,0.99,5.69,1.97,8.53,2.96c2.75,0.96,5.51,1.93,8.34,2.63c5.44,1.33,11.11,1.59,16.68,1.06
			c5.61-0.54,11.13-1.8,16.5-3.49c2.72-0.85,5.41-1.81,8.07-2.84c2.65-1.03,5.32-2.09,7.79-3.52c2.66-1.54,5.05-3.51,7.33-5.56
			c2.32-2.1,4.7-4.21,6.74-6.59c0.9-1.05-0.62-2.58-1.53-1.53c-1.78,2.08-3.82,3.92-5.83,5.76c-1.96,1.8-3.96,3.56-6.18,5.04
			c-2.3,1.54-4.82,2.69-7.38,3.72c-2.58,1.03-5.18,1.99-7.82,2.87c-10.25,3.4-21.37,5.56-32.11,3.38c-3.11-0.63-6.11-1.65-9.1-2.69
			c-3.15-1.09-6.3-2.18-9.45-3.28C849.43,478.68,848.86,480.76,850.17,481.21L850.17,481.21z"/>
	</g>
</g>
<g>
	<g>
		<path d="M918.17,464.77c1.8,2.24,4.05,4.13,6.57,5.51c0.49,0.27,1.2,0.14,1.48-0.39c0.27-0.51,0.14-1.19-0.39-1.48
			c-0.59-0.33-1.17-0.68-1.74-1.06c-0.3-0.2-0.58-0.41-0.87-0.63c-0.04-0.03-0.13-0.1-0.04-0.03c-0.07-0.05-0.14-0.11-0.21-0.17
			c-0.14-0.11-0.28-0.23-0.41-0.34c-1.05-0.89-2.01-1.88-2.87-2.95c-0.35-0.44-1.16-0.4-1.53,0
			C917.73,463.71,917.79,464.29,918.17,464.77L918.17,464.77z"/>
	</g>
</g>
<g>
	<g>
		<path d="M912.61,469.22c1.49,1.72,3.3,3.18,5.3,4.27c0.49,0.27,1.2,0.14,1.48-0.39c0.27-0.51,0.14-1.19-0.39-1.48
			c-0.47-0.26-0.94-0.54-1.38-0.84c-0.22-0.15-0.43-0.3-0.65-0.45c-0.11-0.08-0.21-0.16-0.32-0.24c0.18,0.14,0.01,0.01-0.02-0.02
			c-0.06-0.05-0.11-0.09-0.17-0.14c-0.84-0.68-1.61-1.44-2.32-2.25c-0.37-0.43-1.15-0.41-1.53,0
			C912.19,468.15,912.21,468.76,912.61,469.22L912.61,469.22z"/>
	</g>
</g>
<g>
	<g>
		<path d="M903.53,472.16c1.2,2.2,2.91,4.07,4.95,5.52c0.46,0.33,1.22,0.1,1.48-0.39c0.29-0.56,0.11-1.13-0.39-1.48
			c-0.12-0.08-0.23-0.17-0.35-0.25c-0.17-0.12,0.08,0.07-0.02-0.01c-0.06-0.04-0.11-0.09-0.17-0.13c-0.22-0.18-0.44-0.36-0.65-0.55
			c-0.41-0.37-0.8-0.77-1.17-1.18c-0.18-0.2-0.35-0.41-0.52-0.62c0,0-0.17-0.21-0.07-0.09c0.09,0.12-0.05-0.07-0.07-0.09
			c-0.09-0.11-0.17-0.23-0.25-0.35c-0.33-0.47-0.63-0.95-0.9-1.45c-0.27-0.5-1-0.7-1.48-0.39
			C903.42,471,903.24,471.63,903.53,472.16L903.53,472.16z"/>
	</g>
</g>
<g>
	<g>
		<path d="M899.98,474.77c0.34,1.74,1.16,3.34,2.3,4.68c0.37,0.43,1.15,0.41,1.53,0c0.42-0.46,0.39-1.07,0-1.53
			c-0.06-0.07-0.12-0.14-0.18-0.22c-0.09-0.11,0.01,0.01,0.04,0.05c-0.03-0.04-0.06-0.07-0.08-0.11c-0.11-0.15-0.22-0.3-0.32-0.46
			c-0.21-0.32-0.4-0.66-0.57-1.01c-0.04-0.08-0.08-0.17-0.12-0.26c-0.01-0.03-0.08-0.18-0.02-0.03c0.06,0.15,0,0-0.01-0.03
			c-0.07-0.17-0.13-0.35-0.19-0.53c-0.12-0.37-0.22-0.74-0.29-1.12c-0.11-0.56-0.8-0.92-1.33-0.75
			C900.14,473.63,899.86,474.18,899.98,474.77L899.98,474.77z"/>
	</g>
</g>
<g>
	<g>
		<path d="M908.56,471.9c1.25,2.45,2.88,4.71,4.8,6.68c0.39,0.41,1.14,0.43,1.53,0c0.4-0.44,0.42-1.09,0-1.53
			c-0.45-0.46-0.89-0.94-1.3-1.44c-0.46-0.55-0.72-0.88-1.12-1.45c-0.76-1.07-1.44-2.19-2.04-3.36c-0.26-0.5-1.01-0.69-1.48-0.39
			C908.43,470.75,908.29,471.36,908.56,471.9L908.56,471.9z"/>
	</g>
</g>
<g>
	<g>
		<path d="M896.1,476.3c0.7,2.59,2.05,4.97,3.91,6.91c0.39,0.41,1.14,0.42,1.53,0c0.4-0.44,0.42-1.09,0-1.53
			c-0.21-0.22-0.41-0.44-0.61-0.67c-0.09-0.11-0.18-0.22-0.27-0.33c-0.02-0.02-0.16-0.21-0.06-0.08c-0.04-0.06-0.09-0.11-0.13-0.17
			c-0.36-0.49-0.69-0.99-0.98-1.52c-0.14-0.25-0.27-0.5-0.4-0.75c-0.07-0.14-0.14-0.29-0.2-0.43c-0.03-0.06-0.06-0.13-0.09-0.2
			c-0.07-0.16,0.05,0.13-0.02-0.04c-0.23-0.58-0.43-1.17-0.59-1.77c-0.15-0.54-0.77-0.93-1.33-0.75
			C896.3,475.16,895.94,475.72,896.1,476.3L896.1,476.3z"/>
	</g>
</g>
<g>
	<g>
		<path d="M889.61,477.01c-1.03,0.94-1.21,2.48-0.84,3.76c0.39,1.35,1.23,2.58,1.91,3.8c0.28,0.49,0.99,0.7,1.48,0.39
			c0.5-0.32,0.68-0.95,0.39-1.48c-0.3-0.53-0.6-1.07-0.89-1.6c-0.15-0.27-0.3-0.53-0.44-0.8c-0.05-0.1-0.1-0.2-0.15-0.3
			c-0.03-0.07-0.06-0.14-0.09-0.21c0.04,0.08,0.03,0.07-0.02-0.06c-0.08-0.25-0.16-0.5-0.21-0.76c0.05,0.26,0-0.12-0.01-0.17
			c0-0.12,0-0.25,0.02-0.37c-0.02,0.25,0.01-0.02,0.02-0.08c0.01-0.05,0.15-0.4,0.04-0.17c0.05-0.11,0.11-0.21,0.18-0.31
			c-0.13,0.2,0.09-0.08,0.13-0.12c0.42-0.38,0.42-1.14,0-1.53C890.69,476.6,890.06,476.6,889.61,477.01L889.61,477.01z"/>
	</g>
</g>
<g>
	<g>
		<path d="M881.86,480.49c0.37,1.9,1.1,3.74,2.12,5.38c0.3,0.48,0.98,0.71,1.48,0.39c0.48-0.31,0.71-0.96,0.39-1.48
			c-0.24-0.38-0.46-0.78-0.67-1.18c-0.11-0.22-0.21-0.43-0.31-0.65c-0.02-0.05-0.13-0.3-0.03-0.08c-0.05-0.11-0.09-0.22-0.14-0.34
			c-0.33-0.85-0.58-1.72-0.75-2.61c-0.11-0.56-0.8-0.92-1.33-0.75C882.02,479.35,881.74,479.89,881.86,480.49L881.86,480.49z"/>
	</g>
</g>
<g>
	<g>
		<path d="M874.51,479.85c0.2,1.96,0.63,3.88,1.33,5.73c0.2,0.53,0.74,0.95,1.33,0.75c0.51-0.17,0.97-0.76,0.75-1.33
			c-0.33-0.86-0.6-1.74-0.81-2.63c-0.1-0.43-0.19-0.86-0.27-1.3c-0.04-0.23-0.08-0.47-0.11-0.71c0.03,0.23-0.01-0.1-0.01-0.12
			c-0.02-0.14-0.03-0.27-0.04-0.41c-0.06-0.56-0.46-1.11-1.08-1.08C875.05,478.79,874.45,479.24,874.51,479.85L874.51,479.85z"/>
	</g>
</g>
<g>
	<g>
		<path d="M866.72,478.63c-0.24,2.78,0.06,5.61,0.86,8.28c0.17,0.56,0.76,0.91,1.33,0.75c0.55-0.15,0.92-0.77,0.75-1.33
			c-0.75-2.51-1-5.1-0.78-7.71c0.05-0.58-0.53-1.08-1.08-1.08C867.17,477.55,866.77,478.04,866.72,478.63L866.72,478.63z"/>
	</g>
</g>
<g>
	<g>
		<path d="M857.43,477.33c0.03,2.33,0.14,4.65,0.35,6.97c0.05,0.56,0.46,1.11,1.08,1.08c0.54-0.02,1.13-0.48,1.08-1.08
			c-0.21-2.32-0.32-4.64-0.35-6.97c-0.01-0.56-0.49-1.11-1.08-1.08C857.93,476.28,857.42,476.73,857.43,477.33L857.43,477.33z"/>
	</g>
</g>
<g>
	<g>
		<path d="M851.94,475.09c0.01,1.68,0.17,3.36,0.43,5.03c0.09,0.56,0.82,0.92,1.33,0.75c0.61-0.2,0.85-0.73,0.75-1.33
			c-0.03-0.2-0.06-0.4-0.09-0.6c-0.01-0.08-0.01-0.06,0.01,0.06c-0.01-0.05-0.01-0.09-0.02-0.14c-0.01-0.09-0.02-0.19-0.03-0.28
			c-0.05-0.39-0.08-0.77-0.12-1.16c-0.06-0.78-0.1-1.55-0.1-2.33c0-0.56-0.49-1.11-1.08-1.08
			C852.44,474.04,851.94,474.49,851.94,475.09L851.94,475.09z"/>
	</g>
</g>
<g>
	<g>
		<path d="M862.69,478.54c-0.15,2.04,0.12,4.11,0.77,6.05c0.18,0.53,0.75,0.94,1.33,0.75c0.53-0.17,0.95-0.75,0.75-1.33
			c-0.15-0.44-0.28-0.9-0.39-1.35c-0.06-0.25-0.11-0.49-0.15-0.74c-0.02-0.11-0.04-0.21-0.05-0.32c-0.01-0.07-0.02-0.14-0.03-0.21
			c0.01,0.09,0.01,0.1,0,0.02c-0.1-0.96-0.14-1.9-0.07-2.86c0.04-0.56-0.53-1.1-1.08-1.08
			C863.15,477.49,862.74,477.94,862.69,478.54L862.69,478.54z"/>
	</g>
</g>
<g>
	<g>
		<path d="M871.8,478.95c-0.12,2.49,0.19,5.01,0.92,7.39c0.17,0.56,0.76,0.91,1.33,0.75c0.55-0.15,0.92-0.77,0.75-1.33
			c-0.68-2.25-0.95-4.46-0.84-6.82c0.03-0.56-0.52-1.1-1.08-1.08C872.27,477.9,871.83,478.35,871.8,478.95L871.8,478.95z"/>
	</g>
</g>
<g>
	<g>
		<path d="M881.43,516.19c-0.34-3.3-0.37-7.59,2.77-9.65c1.16-0.76,0.08-2.63-1.09-1.86c-3.85,2.52-4.26,7.33-3.84,11.52
			c0.06,0.58,0.45,1.08,1.08,1.08C880.89,517.27,881.49,516.78,881.43,516.19L881.43,516.19z"/>
	</g>
</g>
<g>
	<g>
		<path d="M885.77,574.39c1.3,1.74,3.2,2.65,5.25,3.26c2.28,0.67,4.63,1.11,6.99,1.4c4.77,0.58,9.63,0.38,14.34-0.54
			c2.64-0.52,5.23-1.28,7.73-2.26c0.54-0.21,0.92-0.72,0.75-1.33c-0.14-0.52-0.78-0.97-1.33-0.75c-8.32,3.27-17.59,3.96-26.29,1.84
			c-1.93-0.47-4.33-1.01-5.59-2.7c-0.35-0.47-0.93-0.71-1.48-0.39C885.7,573.18,885.42,573.92,885.77,574.39L885.77,574.39z"/>
	</g>
</g>
<g>
	<g>
		<path d="M922.19,506.36c4.2,7.79,4.19,16.95,3.82,25.56c-0.43,9.95-1.16,19.89-2.11,29.81c-0.27,2.77-0.53,5.55-0.86,8.31
			c-0.24,2.03-0.86,4.71-3.27,5.04c-0.58,0.08-0.89,0.82-0.75,1.33c0.17,0.62,0.75,0.83,1.33,0.75c2.23-0.3,3.72-2.29,4.34-4.31
			c0.36-1.17,0.47-2.4,0.6-3.61c0.14-1.31,0.28-2.63,0.41-3.94c0.53-5.17,0.99-10.35,1.38-15.53c0.4-5.26,0.73-10.54,0.99-15.81
			c0.23-4.63,0.4-9.27,0.02-13.9c-0.43-5.14-1.57-10.22-4.03-14.79C923.39,504.04,921.53,505.13,922.19,506.36L922.19,506.36z"/>
	</g>
</g>
<g>
	<g>
		<path d="M827.94,463.55c-7.25-2.83-13.89-7.2-19.39-12.69c-1.57-1.57-3.05-3.23-4.44-4.97c-0.36-0.46-1.15-0.38-1.53,0
			c-0.45,0.45-0.36,1.07,0,1.53c5.01,6.3,11.35,11.56,18.47,15.33c2.05,1.09,4.16,2.04,6.31,2.88c0.54,0.21,1.18-0.23,1.33-0.75
			C828.86,464.26,828.49,463.76,827.94,463.55L827.94,463.55z"/>
	</g>
</g>
<g>
	<g>
		<path d="M795.76,457.21c2.82,4.66,7.87,7.56,12.44,10.26c4.99,2.94,10.2,5.51,15.56,7.7c3.02,1.24,6.1,2.35,9.22,3.34
			c1.33,0.42,1.9-1.66,0.57-2.08c-10.52-3.33-20.78-8.09-29.88-14.36c-2.34-1.61-4.56-3.49-6.05-5.94
			C796.9,454.93,795.03,456.01,795.76,457.21L795.76,457.21z"/>
	</g>
</g>
<g>
	<g>
		<path d="M824.93,465.1c-0.31,3.06-0.28,6.13,0.07,9.18c0.07,0.58,0.45,1.08,1.08,1.08c0.53,0,1.15-0.5,1.08-1.08
			c-0.35-3.05-0.37-6.13-0.07-9.18c0.06-0.58-0.54-1.08-1.08-1.08C825.37,464.02,824.99,464.52,824.93,465.1L824.93,465.1z"/>
	</g>
</g>
<g>
	<g>
		<path d="M822.33,464.65c-1.44,3.47-1.63,7.41-0.58,11.01c0.39,1.33,2.47,0.77,2.08-0.57c-0.95-3.27-0.72-6.72,0.58-9.86
			c0.22-0.54-0.24-1.19-0.75-1.33C823.04,463.72,822.56,464.11,822.33,464.65L822.33,464.65z"/>
	</g>
</g>
<g>
	<g>
		<path d="M817.67,462.51c-0.77,2.53-0.92,5.17-0.53,7.77c0.09,0.58,0.81,0.89,1.33,0.75c0.62-0.17,0.84-0.75,0.75-1.33
			c-0.32-2.18-0.12-4.48,0.53-6.63c0.16-0.54-0.2-1.2-0.75-1.33C818.41,461.63,817.84,461.93,817.67,462.51L817.67,462.51z"/>
	</g>
</g>
<g>
	<g>
		<path d="M812.89,459.37c-1.03,2.99-1.5,6.17-1.4,9.33c0.05,1.39,2.2,1.39,2.16,0c-0.1-2.99,0.35-5.93,1.32-8.75
			c0.19-0.55-0.22-1.18-0.75-1.33C813.63,458.45,813.08,458.81,812.89,459.37L812.89,459.37z"/>
	</g>
</g>
<g>
	<g>
		<path d="M807.52,455.47c-1.35,3.32-1.9,6.95-1.61,10.53c0.05,0.58,0.46,1.08,1.08,1.08c0.55,0,1.13-0.5,1.08-1.08
			c-0.28-3.41,0.25-6.79,1.54-9.95c0.22-0.54-0.24-1.19-0.75-1.33C808.23,454.55,807.74,454.93,807.52,455.47L807.52,455.47z"/>
	</g>
</g>
<g>
	<g>
		<path d="M804.13,452.24c-1.58,2.81-3.14,5.75-3.26,9.04c-0.02,0.58,0.51,1.08,1.08,1.08c0.6,0,1.06-0.49,1.08-1.08
			c0.11-2.89,1.58-5.49,2.97-7.95C806.67,452.11,804.81,451.02,804.13,452.24L804.13,452.24z"/>
	</g>
</g>
<g>
	<g>
		<path d="M771.52,407.09c-1.35-2.46-3.22-4.58-5.47-6.27c-1.1-0.83-2.3-1.51-3.55-2.1c-1.3-0.61-2.69-1.16-3.8-2.1
			c-0.45-0.37-1.09-0.44-1.53,0c-0.38,0.38-0.45,1.15,0,1.53c2.18,1.82,5,2.55,7.31,4.18c2.15,1.51,3.91,3.54,5.17,5.84
			C770.33,409.4,772.19,408.31,771.52,407.09L771.52,407.09z"/>
	</g>
</g>
<g>
	<g>
		<path d="M755.56,409.63c2.24,2.35,4.02,5.08,5.31,8.07c0.23,0.54,1.02,0.66,1.48,0.39c0.55-0.32,0.62-0.94,0.39-1.48
			c-1.36-3.14-3.29-6.02-5.65-8.5C756.13,407.09,754.6,408.62,755.56,409.63L755.56,409.63z"/>
	</g>
</g>
<g>
	<g>
		<path d="M763.35,400.98c2.59,2.87,5.04,5.87,7.33,8.99c0.34,0.47,0.94,0.7,1.48,0.39c0.46-0.27,0.73-1,0.39-1.48
			c-2.39-3.27-4.95-6.42-7.67-9.43c-0.39-0.43-1.13-0.4-1.53,0C762.91,399.89,762.95,400.55,763.35,400.98L763.35,400.98z"/>
	</g>
</g>
<g>
	<g>
		<path d="M766.47,406.71c-3.1,2.15-5.41,5.24-6.58,8.83c-0.18,0.55,0.21,1.18,0.75,1.33c0.59,0.16,1.15-0.2,1.33-0.75
			c0.98-3,2.99-5.73,5.59-7.54c0.48-0.33,0.7-0.95,0.39-1.48C767.67,406.63,766.95,406.38,766.47,406.71L766.47,406.71z"/>
	</g>
</g>
<g>
	<g>
		<path d="M760.8,405.76c-0.8,1.24-1.61,2.48-2.41,3.73c-0.31,0.47-0.11,1.21,0.39,1.48c0.54,0.28,1.15,0.12,1.48-0.39
			c0.8-1.24,1.61-2.48,2.41-3.73c0.31-0.47,0.11-1.21-0.39-1.48C761.74,405.09,761.13,405.26,760.8,405.76L760.8,405.76z"/>
	</g>
</g>
<g>
	<g>
		<path d="M903.64,499.28c-1.28-0.55-2.59-1.04-3.92-1.45c-0.65-0.2-1.3-0.38-1.96-0.54c-0.69-0.17-1.42-0.36-2.13-0.33
			c-1.36,0.05-2.73,0.96-2.74,2.44c-0.02,1.62,1.43,2.44,2.73,2.97c0.54,0.22,1.19-0.24,1.33-0.75c0.17-0.62-0.21-1.1-0.75-1.33
			c-0.34-0.14-0.75-0.29-0.99-0.57c-0.06-0.07-0.12-0.18-0.15-0.26c-0.02-0.06,0.04-0.17-0.02-0.06c0.11-0.19,0.32-0.25,0.6-0.27
			c0.44-0.03,0.89,0.1,1.31,0.2c1.92,0.46,3.81,1.06,5.62,1.84c0.54,0.23,1.16,0.16,1.48-0.39
			C904.3,500.3,904.18,499.51,903.64,499.28L903.64,499.28z"/>
	</g>
</g>
<g>
	<g>
		<path d="M894.31,500.76c-1.63-0.16-3.26-0.24-4.89-0.24c-1.29,0-3-0.19-4.12,0.61c-1.38,0.98-1.02,2.92,0.36,3.72
			c0.66,0.38,1.44,0.43,2.19,0.46c0.76,0.03,1.53,0.05,2.29,0.08c-0.18-0.67-0.36-1.34-0.54-2.01c-1.18,0.6-2.36,1.2-3.54,1.8
			c-1.02,0.52-2.27,1.12-2.33,2.43c-0.06,1.37,1.32,2.21,2.56,2.1c0.66-0.06,1.31-0.25,1.96-0.41c0.68-0.17,1.35-0.33,2.03-0.5
			c1.35-0.33,0.78-2.41-0.57-2.08c-0.98,0.24-1.96,0.49-2.95,0.72c-0.18,0.04-0.36,0.09-0.55,0.12c-0.02,0-0.36-0.01-0.35-0.02
			c0.01-0.01,0.01,0.04,0.01,0.04c0.03,0.09,0.03,0.16-0.02,0.23c-0.06,0.04-0.04,0.02,0.06-0.08c0.57-0.47,1.4-0.78,2.08-1.12
			c0.9-0.46,1.8-0.91,2.7-1.37c1-0.51,0.47-1.98-0.54-2.01c-0.59-0.02-1.18-0.04-1.76-0.06c-0.47-0.02-1.01,0.03-1.46-0.12
			c-0.16-0.06-0.26-0.1-0.35-0.22c0.04,0.06-0.01-0.03,0-0.03c-0.16-0.04,0.1-0.07,0,0.01c0,0-0.05,0.13-0.06,0.11
			c0.01,0.02,0.11-0.07,0.03-0.04c0.1-0.04,0.2-0.06,0.29-0.09c0.02-0.01,0.25-0.05,0.15-0.04c1.12-0.17,2.35-0.08,3.48-0.06
			c1.29,0.03,2.57,0.11,3.86,0.23c0.58,0.06,1.08-0.54,1.08-1.08C895.39,501.21,894.89,500.82,894.31,500.76L894.31,500.76z"/>
	</g>
</g>
<g>
	<g>
		<path d="M889.87,507.6c-0.92,0.73-1.58,1.76-1.93,2.87c-0.17,0.54-0.28,1.16-0.25,1.72c0.06,0.97,0.86,1.47,1.77,1.33
			c0.95-0.14,1.84-0.59,2.63-1.12c0.45-0.3,0.87-0.63,1.3-0.96c0.17-0.13,0.34-0.27,0.51-0.4c0.04-0.03,0.09-0.07,0.13-0.1
			c-0.02,0.01-0.1,0.08,0,0c0.11-0.09,0.23-0.17,0.34-0.26c0.41-0.3,0.84-0.59,1.29-0.82c0.11-0.06,0.22-0.11,0.33-0.16
			c0.11-0.05,0,0-0.02,0.01c0.06-0.02,0.13-0.05,0.19-0.07c0.26-0.09,0.53-0.16,0.81-0.2c0.58-0.09,0.9-0.81,0.75-1.33
			c-0.17-0.61-0.75-0.85-1.33-0.75c-1.58,0.26-2.88,1.26-4.1,2.22c-0.14,0.11-0.28,0.22-0.43,0.33c-0.06,0.05-0.06,0.04,0,0
			c-0.03,0.02-0.06,0.04-0.09,0.07c-0.07,0.05-0.14,0.11-0.22,0.16c-0.3,0.22-0.6,0.44-0.92,0.63c-0.15,0.09-0.3,0.18-0.46,0.26
			c-0.08,0.04-0.16,0.08-0.23,0.11c-0.06,0.03-0.22,0.09-0.08,0.03c-0.18,0.07-0.36,0.13-0.54,0.18c-0.08,0.02-0.17,0.04-0.26,0.06
			c-0.22,0.05,0.04-0.03,0.11-0.01c0.16,0.09,0.32,0.19,0.48,0.28c0.06,0.14,0.12,0.27,0.18,0.41c0-0.04,0-0.08,0-0.12
			c0.01-0.08,0.01-0.17,0.02-0.25c-0.01,0.11,0.01-0.06,0.01-0.08c0.01-0.08,0.03-0.16,0.05-0.24c0.07-0.32,0.18-0.63,0.29-0.84
			c0.3-0.6,0.64-1,1.18-1.44c0.46-0.36,0.38-1.15,0-1.53C890.94,507.15,890.33,507.24,889.87,507.6L889.87,507.6z"/>
	</g>
</g>
<g>
	<g>
		<path d="M894.52,509.89c-1.54,1.26-3.8,5.08-1.08,6.32c2.52,1.15,4.96-1.05,6.2-3.03c0.63-1.01,1.13-2.13,1.95-3
			c0.8-0.86,1.86-1.39,2.95-1.78c2.58-0.94,5.3-1.68,7.98-2.27c3.11-0.68,6.34-1,9.49-0.33c1.35,0.29,1.93-1.79,0.57-2.08
			c-5.23-1.11-10.48,0.13-15.5,1.62c-2.23,0.66-4.6,1.25-6.43,2.76c-1.76,1.46-2.31,3.81-3.95,5.34c-0.39,0.36-0.84,0.68-1.36,0.82
			c-0.22,0.06-0.45,0.1-0.68,0.07c-0.16-0.02-0.41-0.17-0.33,0.02c-0.14-0.36,0.31-1.2,0.48-1.51c0.31-0.57,0.73-1.02,1.22-1.43
			c0.45-0.37,0.38-1.14,0-1.53C895.6,509.44,894.97,509.52,894.52,509.89L894.52,509.89z"/>
	</g>
</g>
<g>
	<g>
		<path d="M903.04,500.55c3-0.88,6.06-1.57,9.15-2.05c1.49-0.23,2.99-0.41,4.49-0.54c1.51-0.13,3.02-0.11,4.43-0.71
			c0.54-0.23,0.66-1.02,0.39-1.48c-0.32-0.55-0.94-0.62-1.48-0.39c-0.56,0.24-1.2,0.26-1.8,0.3c-0.75,0.05-1.51,0.11-2.26,0.18
			c-1.53,0.15-3.06,0.35-4.58,0.59c-3.01,0.48-5.98,1.15-8.91,2.01C901.14,498.86,901.7,500.94,903.04,500.55L903.04,500.55z"/>
	</g>
</g>
<g>
	<g>
		<path d="M920.34,496.71c-1.09,3.38-0.7,7.13,1,10.23c0.67,1.22,2.53,0.13,1.86-1.09c-1.44-2.62-1.7-5.73-0.78-8.57
			c0.18-0.55-0.21-1.18-0.75-1.33C921.08,495.79,920.52,496.15,920.34,496.71L920.34,496.71z"/>
	</g>
</g>
<g>
	<g>
		<path d="M922.86,497.6c2.82-0.09,5.61,0.28,8.31,1.1c1.33,0.4,1.9-1.68,0.57-2.08c-2.87-0.87-5.88-1.27-8.88-1.18
			C921.47,495.48,921.46,497.64,922.86,497.6L922.86,497.6z"/>
	</g>
</g>
<g>
	<g>
		<path d="M922.56,507.04c3.56,2.03,7.52,3.14,11.52,3.88c2.05,0.38,4.16,0.79,6.25,0.81c2.14,0.02,4.23-0.53,6.11-1.53
			c1.23-0.65,0.14-2.52-1.09-1.86c-1.67,0.89-3.5,1.29-5.38,1.23c-1.93-0.06-3.87-0.45-5.76-0.81c-3.67-0.7-7.31-1.72-10.57-3.58
			C922.44,504.49,921.35,506.35,922.56,507.04L922.56,507.04z"/>
	</g>
</g>
<g>
	<g>
		<path d="M933.43,499.65c-0.75-8.4-1.65-16.78-2.71-25.14c-0.3-2.39-0.62-4.78-0.95-7.17c-0.08-0.58-0.82-0.89-1.33-0.75
			c-0.62,0.17-0.83,0.75-0.75,1.33c1.13,8.22,2.1,16.45,2.91,24.7c0.23,2.34,0.45,4.69,0.66,7.04c0.05,0.58,0.46,1.08,1.08,1.08
			C932.89,500.73,933.48,500.23,933.43,499.65L933.43,499.65z"/>
	</g>
</g>
<g>
	<g>
		<path d="M943.07,481.36c1.2,8.91,2.11,17.85,2.75,26.82c0.1,1.38,2.26,1.39,2.16,0c-0.65-9.16-1.6-18.29-2.83-27.39
			c-0.08-0.58-0.82-0.89-1.33-0.75C943.2,480.2,942.99,480.78,943.07,481.36L943.07,481.36z"/>
	</g>
</g>
<g>
	<g>
		<path d="M867.92,605.74c1.39,0,1.39-2.16,0-2.16C866.53,603.58,866.53,605.74,867.92,605.74L867.92,605.74z"/>
	</g>
</g>
<g>
	<g>
		<path d="M945.55,480.47c1.39,0,1.39-2.16,0-2.16C944.16,478.31,944.16,480.47,945.55,480.47L945.55,480.47z"/>
	</g>
</g>
<g>
	<g>
		<path d="M945.16,479.76c4.85,5.55,10.85,10.12,17.5,13.31c1.9,0.91,3.86,1.72,5.86,2.41c1.32,0.46,1.88-1.63,0.57-2.08
			c-6.71-2.33-12.94-6.04-18.18-10.83c-1.49-1.36-2.9-2.81-4.23-4.33C945.77,477.18,944.25,478.71,945.16,479.76L945.16,479.76z"/>
	</g>
</g>
<g>
	<g>
		<path d="M930.6,463.74c-0.78-2.01,0.45-3.86,1.62-5.43c1.38-1.87,2.84-3.59,3.92-5.66c1.09-2.07,1.98-4.26,3.32-6.19
			c1.22-1.76,2.88-3.12,4.76-4.12c3.93-2.11,8.58-2.77,12.97-3.04c4.92-0.3,9.88,0.05,14.71,1.05c5.48,1.14,10.77,3.08,15.67,5.79
			c1.22,0.67,2.31-1.19,1.09-1.86c-9.16-5.07-19.69-7.59-30.16-7.2c-4.86,0.18-9.9,0.83-14.35,2.89c-2.05,0.95-3.97,2.27-5.45,3.99
			c-1.65,1.9-2.7,4.17-3.81,6.41c-0.61,1.24-1.25,2.47-2.03,3.6c-0.76,1.1-1.64,2.11-2.43,3.18c-1.52,2.05-2.9,4.6-1.89,7.18
			c0.21,0.54,0.72,0.92,1.33,0.75C930.36,464.92,930.81,464.28,930.6,463.74L930.6,463.74z"/>
	</g>
</g>
<g>
	<g>
		<path d="M988.72,445.66c7.61,5.4,14,12.49,18.62,20.59c1.29,2.26,2.45,4.6,3.45,7.01c0.22,0.54,0.72,0.92,1.33,0.75
			c0.51-0.14,0.98-0.79,0.75-1.33c-3.74-9-9.42-17.14-16.62-23.71c-2.04-1.86-4.19-3.58-6.44-5.18c-0.48-0.34-1.2-0.08-1.48,0.39
			C988.02,444.72,988.24,445.32,988.72,445.66L988.72,445.66z"/>
	</g>
</g>
<g>
	<g>
		<path d="M969.2,497.89c-0.95,3.66-1.93,7.36-4.11,10.51c-1.11,1.6-2.23,3.09-2.88,4.95c-0.67,1.93-1,4.01-1.32,6.03
			c-0.38,2.38-0.64,4.78-0.77,7.19c-0.08,1.39,2.08,1.38,2.16,0c0.12-2.05,0.31-4.1,0.62-6.14c0.3-2,0.63-4.03,1.22-5.96
			c0.56-1.86,1.68-3.32,2.77-4.89c1.08-1.55,1.91-3.24,2.57-5.01c0.75-1.99,1.29-4.05,1.82-6.11
			C971.62,497.11,969.54,496.54,969.2,497.89L969.2,497.89z"/>
	</g>
</g>
<g>
	<g>
		<path d="M960.92,535.79c0.33,2.38,1.25,4.62,2.31,6.76c1.16,2.32,2.44,4.59,3.67,6.87c2.53,4.69,5.06,9.39,7.59,14.08
			c1.44,2.68,2.89,5.35,4.33,8.03c0.66,1.22,2.52,0.13,1.86-1.09c-4.99-9.26-10.08-18.47-14.98-27.78
			c-1.24-2.36-2.34-4.79-2.71-7.45c-0.08-0.58-0.82-0.89-1.33-0.75C961.05,534.63,960.84,535.21,960.92,535.79L960.92,535.79z"/>
	</g>
</g>
<g>
	<g>
		<path d="M985.99,506.27c-0.15,2.37-0.29,4.76-0.83,7.08c-0.53,2.28-1.54,4.36-2.52,6.47c-1.04,2.22-2.08,4.43-3.11,6.65
			c-0.94,2-1.82,4.12-3.27,5.82c-0.9,1.05,0.62,2.58,1.53,1.53c1.54-1.79,2.51-3.91,3.51-6.03c1.11-2.36,2.21-4.73,3.32-7.09
			c1.06-2.27,2.14-4.53,2.69-6.99c0.54-2.44,0.71-4.94,0.86-7.42C988.23,504.88,986.07,504.89,985.99,506.27L985.99,506.27z"/>
	</g>
</g>
<g>
	<g>
		<path d="M976.47,538.1c2.53,3.98,5.07,7.96,7.6,11.94c2.37,3.73,4.73,7.48,6.8,11.39c1.18,2.22,2.26,4.5,3.18,6.84
			c0.21,0.54,0.72,0.92,1.33,0.75c0.52-0.14,0.97-0.78,0.75-1.33c-3.36-8.5-8.52-16.11-13.41-23.79c-1.46-2.3-2.92-4.59-4.39-6.89
			C977.59,535.84,975.72,536.93,976.47,538.1L976.47,538.1z"/>
	</g>
</g>
<g>
	<g>
		<path d="M982.83,572.62c2.55,0.31,5.01-0.78,7.44-1.38c2.44-0.59,4.92-0.95,7.42-1.08c1.38-0.07,1.39-2.23,0-2.16
			c-2.53,0.13-5.06,0.47-7.54,1.05c-2.39,0.55-4.83,1.71-7.33,1.41c-0.58-0.07-1.08,0.55-1.08,1.08
			C981.75,572.19,982.25,572.55,982.83,572.62L982.83,572.62z"/>
	</g>
</g>
<g>
	<g>
		<path d="M995.39,571.45c0.11,3.27-0.19,6.52-0.92,9.71c-0.31,1.35,1.77,1.93,2.08,0.57c0.77-3.37,1.11-6.83,1-10.28
			C997.5,570.07,995.34,570.06,995.39,571.45L995.39,571.45z"/>
	</g>
</g>
<g>
	<g>
		<path d="M991.68,583.95c-1.73,1.12-3.5,2.28-5.54,2.71c-2.22,0.47-4.66-0.11-6.87-0.38c-4.78-0.58-9.55-1.16-14.33-1.74
			c-0.58-0.07-1.08,0.55-1.08,1.08c0,0.64,0.5,1.01,1.08,1.08c4.94,0.6,9.88,1.2,14.83,1.8c2.37,0.29,4.79,0.75,7.16,0.19
			c2.13-0.5,4.03-1.7,5.85-2.88C993.93,585.06,992.85,583.19,991.68,583.95L991.68,583.95z"/>
	</g>
</g>
<g>
	<g>
		<path d="M979.51,573.22c-0.87,1.4-1.77,2.89-3.1,3.91c-1.5,1.16-3.45,1.15-5.2,1.65c-1.83,0.52-3.6,1.32-5.18,2.38
			c-1.37,0.92-3.21,2.73-1.97,4.49c0.33,0.48,0.94,0.7,1.48,0.39c0.47-0.28,0.72-1,0.39-1.48c-0.58-0.83,2.45-2.32,2.98-2.59
			c1.61-0.82,3.3-1.27,5.07-1.6c1.72-0.32,3.19-0.95,4.47-2.16c1.19-1.12,2.08-2.53,2.93-3.91
			C982.11,573.12,980.24,572.04,979.51,573.22L979.51,573.22z"/>
	</g>
</g>
<g>
	<g>
		<path d="M1008.66,472.05c2.9,4.72,5.08,10.06,5.53,15.63c0.22,2.7,0.04,5.41-0.7,8.02c-0.76,2.72-2.13,5.19-3.8,7.45
			c-1.88,2.55-4.15,4.79-6.41,6.99c-1,0.97,0.53,2.49,1.53,1.53c4.26-4.12,8.49-8.59,10.43-14.31c1.9-5.59,1.37-11.76-0.45-17.3
			c-1.05-3.19-2.51-6.24-4.27-9.1C1009.8,469.78,1007.93,470.86,1008.66,472.05L1008.66,472.05z"/>
	</g>
</g>
<g>
	<g>
		<path d="M1006.08,509.23c-4.74,6.88-9.5,13.88-12.18,21.87c-0.44,1.32,1.64,1.89,2.08,0.57c2.62-7.8,7.33-14.64,11.96-21.35
			C1008.73,509.17,1006.86,508.09,1006.08,509.23L1006.08,509.23z"/>
	</g>
</g>
<g>
	<g>
		<path d="M996.85,533.03c2.09,9.45,4.51,18.82,7.29,28.09c0.79,2.65,1.61,5.29,2.46,7.92c0.42,1.32,2.51,0.75,2.08-0.57
			c-2.96-9.21-5.6-18.53-7.88-27.93c-0.65-2.69-1.27-5.38-1.87-8.08C998.64,531.1,996.55,531.67,996.85,533.03L996.85,533.03z"/>
	</g>
</g>
<g>
	<g>
		<path d="M1004.92,568.44c-0.99,0.31-2,0.54-3.03,0.7c-0.04,0.01-0.39,0.05-0.24,0.03c-0.12,0.01-0.23,0.03-0.35,0.04
			c-0.25,0.03-0.51,0.05-0.76,0.07c-0.53,0.04-1.06,0.05-1.58,0.05c-0.56,0-1.11,0.5-1.08,1.08c0.03,0.59,0.47,1.08,1.08,1.08
			c2.21,0.01,4.42-0.32,6.53-0.98c0.54-0.17,0.94-0.76,0.75-1.33C1006.07,568.66,1005.49,568.26,1004.92,568.44L1004.92,568.44z"/>
	</g>
</g>
<g>
	<g>
		<path d="M1005.7,571.21c0.09,2.18,0.43,4.35,1.05,6.44c0.14,0.48,0.32,0.95,0.47,1.43c0.09,0.3,0.17,0.54,0,0.81
			c-0.33,0.54-1.1,0.85-1.63,1.16c-0.77,0.44-1.46,1.1-2.29,1.43c-0.92,0.37-2.01,0.27-2.98,0.3c-2.31,0.07-4.62,0.13-6.92,0.2
			c-1.39,0.04-1.39,2.2,0,2.16c2.56-0.07,5.11-0.14,7.67-0.22c1.17-0.03,2.33-0.08,3.4-0.6c0.88-0.43,1.65-1.08,2.5-1.56
			c0.76-0.44,1.52-0.92,2.03-1.65c0.64-0.91,0.53-1.93,0.19-2.93c-0.77-2.26-1.24-4.57-1.34-6.96
			C1007.8,569.83,1005.65,569.82,1005.7,571.21L1005.7,571.21z"/>
	</g>
</g>
<g>
	<g>
		<path d="M902.14,445.97c-0.89,0.15-1.76-0.5-2.25-1.19c-0.68-0.96-0.82-2.21-0.86-3.36c-0.09-2.39-0.15-5.08,0.83-7.32
			c1.64-3.78,5.87-5.6,9.5-6.92c2.48-0.9,5.03-1.8,7.65-2.13c1.28-0.16,2.6-0.18,3.88,0.02c1.32,0.21,2.61,0.6,3.89,0.95
			c2.57,0.7,5.18,0.99,7.84,1.03c2.67,0.04,5.34-0.1,8,0.05c2.65,0.15,5.51,0.6,7.75,2.11c1.69,1.14,3.15,3.78,1.57,5.62
			c-0.9,1.05,0.62,2.58,1.53,1.53c1.69-1.96,1.62-4.88,0.15-6.96c-1.6-2.25-4.28-3.37-6.9-3.93c-5.83-1.26-11.87,0.15-17.69-1.12
			c-2.97-0.65-5.77-1.72-8.86-1.56c-3.06,0.16-6.01,1.11-8.88,2.12c-4.3,1.52-9.23,3.6-11.27,8.01c-0.69,1.5-0.99,3.1-1.1,4.74
			c-0.11,1.59-0.16,3.25,0.02,4.83c0.18,1.56,0.64,3.1,1.78,4.23c1.08,1.07,2.49,1.57,3.99,1.32c0.57-0.1,0.9-0.81,0.75-1.33
			C903.3,446.12,902.71,445.87,902.14,445.97L902.14,445.97z"/>
	</g>
</g>
<g>
	<g>
		<path d="M902.69,447.14c2.1,0.35,3.89,1.97,4.23,4.11c0.21,1.33,0.14,2.58,1.05,3.68c0.65,0.79,1.63,1.22,2.59,1.5
			c0.98,0.29,1.99,0.43,2.95,0.77c0.84,0.3,1.49,0.85,2.07,1.52c1.26,1.47,2.02,3.31,3.38,4.71c0.82,0.84,1.84,1.48,3,1.73
			c1.51,0.33,3.12,0.03,4.58,0.59c0.54,0.21,1.18-0.23,1.33-0.75c0.17-0.61-0.21-1.12-0.75-1.33c-2.17-0.83-4.73,0.11-6.52-1.67
			c-1.37-1.36-2.16-3.21-3.39-4.7c-0.62-0.75-1.39-1.43-2.28-1.85c-0.96-0.46-1.99-0.67-3.02-0.91c-0.78-0.19-1.77-0.38-2.31-1.04
			c-0.3-0.37-0.37-0.84-0.42-1.29c-0.07-0.69-0.1-1.38-0.28-2.06c-0.71-2.57-2.98-4.67-5.62-5.11c-0.57-0.09-1.16,0.15-1.33,0.75
			C901.8,446.33,902.11,447.04,902.69,447.14L902.69,447.14z"/>
	</g>
</g>
<g>
	<g>
		<path d="M951,436.09c1.39,0,1.39-2.16,0-2.16C949.61,433.94,949.61,436.09,951,436.09L951,436.09z"/>
	</g>
</g>
<g>
	<g>
		<path d="M758.28,596.55c1.39,0,1.39-2.16,0-2.16C756.9,594.39,756.89,596.55,758.28,596.55L758.28,596.55z"/>
	</g>
</g>
<g>
	<g>
		<path d="M930.85,512.88c0.01,12.18,0.02,24.37,0.03,36.55c0,2.43,0.25,5.24,2.8,6.3c0.54,0.22,1.19-0.24,1.33-0.75
			c0.17-0.62-0.21-1.1-0.75-1.33c-0.68-0.28-0.92-1.16-1.06-1.8c-0.22-1.03-0.16-2.11-0.16-3.16c0-2.9-0.01-5.8-0.01-8.7
			c-0.01-5.76-0.01-11.52-0.02-17.28c0-3.27-0.01-6.55-0.01-9.82C933.01,511.49,930.85,511.49,930.85,512.88L930.85,512.88z"/>
	</g>
</g>
<g>
	<g>
		<path d="M952.81,492.68c1.39,0,1.39-2.16,0-2.16C951.42,490.52,951.42,492.68,952.81,492.68L952.81,492.68z"/>
	</g>
</g>
<g>
	<g>
		<path d="M950.67,491c-1.95,11.51-2.65,23.21-2.05,34.86c0.17,3.28,0.45,6.56,0.82,9.83c0.07,0.58,0.45,1.08,1.08,1.08
			c0.53,0,1.15-0.5,1.08-1.08c-1.31-11.46-1.37-23.05-0.17-34.51c0.34-3.21,0.78-6.42,1.32-9.6c0.1-0.57-0.15-1.16-0.75-1.33
			C951.48,490.1,950.77,490.42,950.67,491L950.67,491z"/>
	</g>
</g>
<g>
	<g>
		<path d="M949.45,538.84c0.67,3.74,0.41,7.6-0.68,11.23c-0.4,1.33,1.68,1.9,2.08,0.57c1.21-4.02,1.42-8.25,0.68-12.38
			c-0.1-0.57-0.8-0.9-1.33-0.75C949.6,537.68,949.35,538.27,949.45,538.84L949.45,538.84z"/>
	</g>
</g>
<g>
	<g>
		<path d="M949.8,536.61c-0.38,2.48,0.14,4.86,0.37,7.32c0.16,1.73,0.09,3.55-0.79,5.1c-0.37,0.65-0.86,1.22-1.54,1.56
			c-0.95,0.47-2.11,0.36-3.14,0.55c-2.17,0.4-4.01,1.69-6.09,2.36c-1.66,0.54-3.77,0.66-4.95-0.85c-0.36-0.46-1.15-0.38-1.53,0
			c-0.45,0.45-0.36,1.06,0,1.53c1.3,1.67,3.56,2.03,5.54,1.75c2.32-0.33,4.26-1.7,6.45-2.41c1.24-0.4,2.55-0.31,3.79-0.66
			c0.94-0.26,1.8-0.81,2.45-1.54c1.33-1.48,1.92-3.5,2.01-5.46c0.14-2.9-0.96-5.77-0.52-8.68c0.09-0.58-0.15-1.16-0.75-1.33
			C950.62,535.71,949.89,536.03,949.8,536.61L949.8,536.61z"/>
	</g>
</g>
<g>
	<g>
		<path d="M951.07,551.25c1.39,0,1.39-2.16,0-2.16C949.68,549.09,949.68,551.25,951.07,551.25L951.07,551.25z"/>
	</g>
</g>
<g>
	<g>
		<path d="M953.52,550.81c4.31,1.7,9.02,2.11,13.57,1.27c0.57-0.1,0.9-0.8,0.75-1.33c-0.17-0.6-0.75-0.86-1.33-0.75
			c-4.18,0.76-8.48,0.28-12.42-1.27c-0.54-0.21-1.19,0.23-1.33,0.75C952.6,550.09,952.97,550.59,953.52,550.81L953.52,550.81z"/>
	</g>
</g>
<g>
	<g>
		<path d="M951.78,553.7c0.01,1.72,0.43,3.39,1.2,4.92c0.25,0.51,1.01,0.69,1.48,0.39c0.52-0.33,0.66-0.94,0.39-1.48
			c-0.08-0.16-0.16-0.33-0.23-0.5c-0.05-0.11-0.04-0.1,0.02,0.04c-0.02-0.05-0.04-0.1-0.06-0.15c-0.03-0.07-0.06-0.15-0.08-0.22
			c-0.13-0.34-0.23-0.69-0.32-1.05c-0.04-0.18-0.08-0.36-0.11-0.54c-0.01-0.08-0.03-0.15-0.04-0.23c-0.01-0.05-0.02-0.1-0.02-0.15
			c0.02,0.16,0.02,0.18,0.01,0.05c-0.04-0.36-0.06-0.73-0.06-1.09c0-0.56-0.49-1.11-1.08-1.08
			C952.28,552.65,951.78,553.1,951.78,553.7L951.78,553.7z"/>
	</g>
</g>
<g>
	<g>
		<path d="M933.14,557.4c0.2,1.18,0.39,2.36,0.59,3.54c0.17,1.03,0.2,2.29,0.82,3.17c0.63,0.91,1.68,1.15,2.71,1.3
			c1.24,0.19,2.49,0.38,3.73,0.57c2.38,0.36,4.84,0.93,7.26,0.93c1.17,0,2.29-0.25,3.42-0.55c0.91-0.25,2.03-0.63,2.95-0.23
			c0.53,0.24,1.16,0.15,1.48-0.39c0.27-0.46,0.15-1.24-0.39-1.48c-2.15-0.95-4.04,0.04-6.19,0.39c-2.2,0.37-4.57-0.25-6.75-0.59
			c-1.16-0.18-2.33-0.35-3.49-0.53c-0.56-0.09-1.12-0.17-1.69-0.26c-0.35-0.06-0.86-0.08-1.16-0.31c-0.27-0.21-0.29-0.66-0.34-0.97
			c-0.1-0.55-0.18-1.1-0.27-1.65c-0.2-1.18-0.39-2.36-0.59-3.54c-0.1-0.58-0.81-0.9-1.33-0.75
			C933.29,556.24,933.05,556.82,933.14,557.4L933.14,557.4z"/>
	</g>
</g>
<g>
	<g>
		<path d="M951.26,551.55c1.14,1.56,1.26,3.49,1.41,5.35c0.16,2.02,0.34,4.16,1.44,5.92c1.14,1.83,3.09,3,5.15,3.53
			c2.49,0.63,5.07,0.35,7.59,0.05c2.92-0.34,5.83-0.68,8.75-1.02c0.58-0.07,1.08-0.45,1.08-1.08c0-0.53-0.5-1.15-1.08-1.08
			c-2.43,0.28-4.86,0.57-7.29,0.85c-2.43,0.28-4.96,0.73-7.42,0.4c-1.83-0.25-3.82-1.05-4.86-2.66c-0.97-1.5-1.07-3.36-1.21-5.1
			c-0.17-2.17-0.37-4.44-1.69-6.26c-0.34-0.47-0.94-0.7-1.48-0.39C951.18,550.35,950.92,551.08,951.26,551.55L951.26,551.55z"/>
	</g>
</g>
<g>
	<g>
		<path d="M934.64,374.91c-9.34,10.17-7.6,24.9-6.41,37.51c0.38,4.06,0.77,8.12,1.15,12.17c0.05,0.58,0.46,1.08,1.08,1.08
			c0.54,0,1.13-0.5,1.08-1.08c-0.66-7-1.45-14-1.94-21.01c-0.44-6.33-0.38-12.8,1.72-18.86c1.06-3.04,2.66-5.91,4.84-8.29
			C937.1,375.42,935.58,373.89,934.64,374.91L934.64,374.91z"/>
	</g>
</g>
<g>
	<g>
		<path d="M957.57,355.5c-9.69,1.52-18.75,6.65-25.22,14c-3.39,3.85-6.01,8.25-7.81,13.05c-2.03,5.39-2.98,11.13-3.38,16.87
			c-0.46,6.55-0.18,13.12,0.13,19.66c0.06,1.38,2.22,1.39,2.16,0c-0.52-11.19-1.05-22.76,2.36-33.58
			c2.95-9.36,9.19-17.33,17.56-22.45c4.52-2.77,9.54-4.64,14.78-5.46c0.58-0.09,0.9-0.81,0.75-1.33
			C958.73,355.64,958.15,355.41,957.57,355.5L957.57,355.5z"/>
	</g>
</g>
<g>
	<g>
		<path d="M954.11,395.45c1.31,4.23,0.9,8.68,0.72,13.04c-0.18,4.24-0.06,8.52,1.6,12.49c3.12,7.46,9.94,12.47,17.19,15.53
			c4.61,1.94,9.44,3.23,14.27,4.5c1.34,0.35,1.92-1.73,0.57-2.08c-7.92-2.08-16.29-4.23-22.79-9.48c-2.82-2.28-5.25-5.07-6.84-8.35
			c-1.78-3.67-2.01-7.69-1.87-11.7c0.16-4.85,0.7-9.8-0.76-14.52C955.78,393.56,953.69,394.12,954.11,395.45L954.11,395.45z"/>
	</g>
</g>
<g>
	<g>
		<path d="M966.69,371.3c2.92,3.04,5.06,6.77,6.2,10.82c1.31,4.64,0.99,9.44,0.9,14.2c-0.08,4.5,0.26,8.94,1.85,13.19
			c1.42,3.81,3.54,7.28,6.09,10.43c2.92,3.62,6.38,6.75,10.09,9.54c0.47,0.35,1.21,0.07,1.48-0.39c0.32-0.55,0.08-1.12-0.39-1.48
			c-6.27-4.73-12.11-10.81-15.01-18.23c-0.72-1.83-1.25-3.74-1.57-5.68c-0.4-2.39-0.41-4.84-0.37-7.26
			c0.08-4.79,0.39-9.61-0.82-14.3c-1.19-4.63-3.61-8.92-6.92-12.37C967.25,368.77,965.73,370.3,966.69,371.3L966.69,371.3z"/>
	</g>
</g>
<g>
	<g>
		<path d="M953.61,429.13c0.15-0.18,0.31-0.35,0.49-0.5c0.06-0.05,0.2-0.23,0.28-0.24c-0.05,0.01-0.14,0.11-0.02,0.02
			c0.04-0.03,0.09-0.06,0.13-0.1c0.19-0.13,0.39-0.26,0.6-0.37c0.11-0.06,0.22-0.11,0.33-0.17c0.04-0.02,0.1-0.06,0.15-0.07
			c-0.13,0.02-0.12,0.05,0.01,0c0.22-0.08,0.44-0.15,0.67-0.21c0.11-0.03,0.21-0.05,0.32-0.07c0.05-0.01,0.11-0.02,0.16-0.03
			c0.01,0,0.27-0.03,0.1-0.02c-0.15,0.01,0.03,0,0.06,0c0.05-0.01,0.11-0.01,0.16-0.01c0.12-0.01,0.25-0.01,0.37-0.01
			c0.11,0,0.22,0,0.33,0.01c0.07,0,0.14,0.01,0.21,0.02c0.06,0.01,0.27,0.03,0-0.01c0.3,0.04,0.56,0.05,0.83-0.11
			c0.22-0.13,0.44-0.39,0.5-0.65c0.12-0.51-0.16-1.25-0.75-1.33c-1.19-0.16-2.4-0.09-3.54,0.34c-1.12,0.42-2.14,1.07-2.92,1.98
			c-0.37,0.43-0.45,1.11,0,1.53C952.49,429.51,953.22,429.59,953.61,429.13L953.61,429.13z"/>
	</g>
</g>
<g>
	<g>
		<path d="M958.01,438.08c3.09-1.54,6.35-2.7,9.7-3.49c1.35-0.32,0.78-2.4-0.57-2.08c-3.54,0.84-6.96,2.09-10.22,3.71
			c-0.52,0.26-0.67,1-0.39,1.48C956.85,438.22,957.49,438.34,958.01,438.08L958.01,438.08z"/>
	</g>
</g>
<g>
	<g>
		<path d="M957,427.95c0.03,3.79,3.15,6.41,5.93,8.5c0.47,0.35,1.21,0.08,1.48-0.39c0.32-0.55,0.08-1.13-0.39-1.48
			c-0.15-0.11-0.3-0.23-0.45-0.34c-0.3-0.23,0.15,0.12-0.14-0.11c-0.06-0.05-0.12-0.1-0.18-0.14c-0.32-0.25-0.63-0.51-0.94-0.78
			c-0.59-0.52-1.16-1.07-1.67-1.67c-0.37-0.44-0.78-1.07-1.09-1.72c-0.14-0.3,0.05,0.17-0.06-0.14c-0.02-0.07-0.05-0.13-0.07-0.2
			c-0.06-0.19-0.12-0.38-0.16-0.57c-0.02-0.09-0.04-0.18-0.05-0.26c-0.04-0.19,0,0.03-0.02-0.09c-0.02-0.2-0.03-0.4-0.03-0.61
			c0-0.58-0.49-1.08-1.08-1.08C957.5,426.87,957,427.36,957,427.95L957,427.95z"/>
	</g>
</g>
<g>
	<g>
		<path d="M954.43,430.14c-0.37,3.09,0.8,6.3,3,8.49c0.98,0.98,2.51-0.54,1.53-1.53c-1.84-1.83-2.67-4.36-2.36-6.97
			c0.07-0.58-0.55-1.08-1.08-1.08C954.87,429.06,954.5,429.56,954.43,430.14L954.43,430.14z"/>
	</g>
</g>
<g>
	<g>
		<path d="M952.56,430.29c-0.57,2.48-0.3,5.02,0.73,7.34c0.23,0.52,1.02,0.68,1.48,0.39c0.54-0.35,0.63-0.92,0.39-1.48
			c-0.05-0.12-0.06-0.14-0.03-0.06c-0.03-0.07-0.06-0.14-0.08-0.21c-0.04-0.11-0.08-0.22-0.12-0.32c-0.09-0.25-0.16-0.51-0.23-0.77
			c-0.07-0.26-0.12-0.52-0.17-0.79c-0.02-0.11-0.04-0.23-0.05-0.34c0.02,0.17-0.02-0.19-0.02-0.23c-0.05-0.51-0.05-1.03-0.02-1.55
			c0.01-0.11,0.02-0.23,0.03-0.34c0.01-0.08,0.02-0.15,0.02-0.23c-0.01,0.1-0.01,0.08,0.01-0.05c0.04-0.26,0.09-0.53,0.15-0.79
			c0.13-0.55-0.17-1.19-0.75-1.33C953.33,429.41,952.69,429.7,952.56,430.29L952.56,430.29z"/>
	</g>
</g>
<g>
	<g>
		<path d="M992.15,430.13c1,3.78,0.9,7.73-0.26,11.46c0.35-0.26,0.69-0.53,1.04-0.79c-1.39,0.07-2.74-0.09-4.08-0.49
			c-1.33-0.4-1.9,1.68-0.57,2.08c1.51,0.45,3.08,0.65,4.65,0.57c0.49-0.02,0.89-0.32,1.04-0.79c1.27-4.08,1.35-8.47,0.26-12.61
			C993.88,428.21,991.79,428.78,992.15,430.13L992.15,430.13z"/>
	</g>
</g>
<g>
	<g>
		<path d="M976.02,353.92c-0.58-1.89-2.81-3-4.69-2.37c-2.36,0.79-2.77,3.5-2.33,5.64c0.28,1.33,0.88,2.61,0.89,3.98
			c0.01,1.39,2.17,1.39,2.16,0c-0.01-1.39-0.49-2.68-0.84-4.01c-0.16-0.6-0.23-0.92-0.23-1.52c0-0.25,0.01-0.49,0.03-0.61
			c0.03-0.13,0.06-0.27,0.09-0.4c0.01-0.04,0.13-0.35,0.07-0.23c0.13-0.27,0.19-0.37,0.36-0.53c0.04-0.04,0.28-0.21,0.09-0.09
			c0.08-0.05,0.16-0.09,0.24-0.14c0.11-0.05,0.11-0.05-0.01,0c0.06-0.02,0.12-0.04,0.17-0.06c0.09-0.02,0.18-0.04,0.27-0.06
			c-0.25,0.04,0.02,0.01,0.08,0.01c0.05,0,0.44,0.03,0.18-0.01c0.19,0.03,0.37,0.08,0.55,0.14c0.12,0.04,0.12,0.04,0,0
			c0.06,0.03,0.11,0.05,0.17,0.08c0.08,0.05,0.16,0.1,0.24,0.15c-0.19-0.12,0.06,0.06,0.1,0.09c0.04,0.04,0.24,0.28,0.1,0.09
			c0.05,0.08,0.1,0.16,0.15,0.23c0.05,0.11,0.06,0.11,0.01-0.01c0.02,0.06,0.04,0.12,0.06,0.18c0.17,0.56,0.75,0.91,1.33,0.75
			C975.81,355.1,976.19,354.48,976.02,353.92L976.02,353.92z"/>
	</g>
</g>
<g>
	<g>
		<path d="M981.66,358.28c-0.47,1.46-0.58,2.99-0.35,4.51c0.1,0.66,0.47,1.37,0.48,2.03c0.01,0.63-0.88,1.18-1.29,1.58
			c-1.18,1.14-2.36,2.28-3.55,3.42c-0.55,0.53-1.09,1.08-1.66,1.58c-0.45,0.39-0.94,0.73-1.55,0.71c-1.39-0.04-1.39,2.12,0,2.16
			c1.73,0.05,2.96-1.22,4.12-2.33c1.33-1.28,2.66-2.57,3.99-3.85c0.59-0.57,1.32-1.13,1.74-1.85c0.47-0.8,0.39-1.68,0.15-2.54
			c-0.46-1.65-0.54-3.2-0.01-4.85C984.17,357.53,982.09,356.96,981.66,358.28L981.66,358.28z"/>
	</g>
</g>
<g>
	<g>
		<path d="M957.73,358.55c2.25,5.1,6.12,9.41,10.91,12.25c1.2,0.71,2.29-1.16,1.09-1.86c-4.5-2.66-8.03-6.7-10.13-11.48
			c-0.24-0.53-1.01-0.66-1.48-0.39C957.57,357.39,957.5,358.01,957.73,358.55L957.73,358.55z"/>
	</g>
</g>
<g>
	<g>
		<path d="M959.88,357.87c0.62-3,1.51-5.98,3.1-8.61c1.64-2.71,4.08-4.6,6.62-6.43c1.25-0.9,2.56-1.77,4.12-2.01
			c0.83-0.13,1.69-0.1,2.53-0.07c0.79,0.03,1.59,0.04,2.37,0.16c1.48,0.23,2.61,0.91,3.46,2.15c0.82,1.21,1.4,2.59,1.78,4.01
			c0.88,3.26,0.67,6.85-0.7,9.95c-0.23,0.53-0.16,1.16,0.39,1.48c0.46,0.27,1.24,0.15,1.48-0.39c1.44-3.28,1.86-6.87,1.19-10.4
			c-0.57-3.05-2.07-6.89-5.08-8.29c-1.66-0.77-3.56-0.8-5.36-0.84c-1.96-0.04-3.78,0.26-5.5,1.23c-1.51,0.85-2.9,1.96-4.27,3.03
			c-1.44,1.12-2.76,2.36-3.86,3.82c-2.33,3.1-3.57,6.89-4.35,10.64C957.52,358.65,959.6,359.23,959.88,357.87L959.88,357.87z"/>
	</g>
</g>
<g>
	<g>
		<path d="M1000.46,449.64c5.36,3.24,10.11,7.4,14.04,12.27c0.37,0.45,1.15,0.38,1.53,0c0.45-0.45,0.37-1.07,0-1.53
			c-4.04-5.01-8.97-9.28-14.48-12.61C1000.36,447.06,999.27,448.93,1000.46,449.64L1000.46,449.64z"/>
	</g>
</g>
<g>
	<g>
		<path d="M1006.68,439.38c2.37,1.13,4.74,2.26,7.11,3.39c2.04,0.97,4.34,1.83,6.08,3.31c1.81,1.54,3.19,3.65,4.65,5.51
			c1.63,2.07,3.26,4.14,4.89,6.21c0.36,0.46,1.15,0.38,1.53,0c0.45-0.45,0.36-1.07,0-1.53c-1.63-2.07-3.26-4.14-4.89-6.21
			c-1.51-1.91-2.92-4.1-4.82-5.65c-1.88-1.54-4.17-2.47-6.35-3.51c-2.37-1.13-4.74-2.26-7.11-3.39c-0.53-0.25-1.17-0.15-1.48,0.39
			C1006.02,438.38,1006.16,439.13,1006.68,439.38L1006.68,439.38z"/>
	</g>
</g>
<g>
	<g>
		<path d="M1028.56,456.01c-2.42,1.48-4.81,3.14-7.38,4.36c-2.11,0.99-4.68,1.42-6.67-0.04c-0.47-0.34-1.2-0.08-1.48,0.39
			c-0.32,0.55-0.08,1.13,0.39,1.48c2.32,1.7,5.45,1.47,7.98,0.42c2.91-1.21,5.57-3.1,8.25-4.74
			C1030.83,457.15,1029.75,455.28,1028.56,456.01L1028.56,456.01z"/>
	</g>
</g>
<g>
	<g>
		<path d="M1015.64,459.78c4.03,0.02,8-1.73,10.68-4.75c0.92-1.04-0.6-2.57-1.53-1.53c-2.31,2.61-5.65,4.14-9.15,4.12
			C1014.25,457.61,1014.24,459.77,1015.64,459.78L1015.64,459.78z"/>
	</g>
</g>
<g>
	<g>
		<path d="M1012.08,456.2c2.08-0.56,4.27-1.15,6.04-2.44c1.72-1.26,2.94-2.97,3.21-5.1c0.07-0.58-0.55-1.08-1.08-1.08
			c-0.64,0-1.01,0.5-1.08,1.08c-0.02,0.19-0.17,0.7-0.27,0.94c-0.13,0.31-0.35,0.68-0.57,0.99c-0.4,0.57-1.03,1.14-1.63,1.53
			c-1.57,1.04-3.41,1.52-5.2,2C1010.16,454.48,1010.73,456.56,1012.08,456.2L1012.08,456.2z"/>
	</g>
</g>
<g>
	<g>
		<path d="M1008.59,451.86c4.07-1.7,7.5-4.73,9.56-8.64c0.27-0.52,0.13-1.17-0.39-1.48c-0.49-0.28-1.2-0.13-1.48,0.39
			c-1.79,3.39-4.73,6.18-8.27,7.65c-0.54,0.22-0.92,0.71-0.75,1.33C1007.4,451.62,1008.05,452.09,1008.59,451.86L1008.59,451.86z"/>
	</g>
</g>
<g>
	<g>
		<path d="M1004.92,448.21c1.46-1.32,2.92-2.64,4.38-3.96c0.67-0.61,1.4-1.17,1.91-1.93c0.59-0.88,0.63-1.92-0.07-2.75
			c-0.38-0.44-1.14-0.39-1.53,0c-0.44,0.44-0.38,1.08,0,1.53c-0.06-0.07-0.06-0.14-0.09-0.22c-0.06-0.16,0.01,0.14,0.01-0.02
			c0-0.13-0.03,0.1-0.04,0.13c0.03-0.1,0.03-0.06-0.01,0.02c-0.19,0.33-0.21,0.35-0.48,0.62c-0.6,0.57-1.23,1.11-1.85,1.67
			c-1.25,1.13-2.5,2.26-3.76,3.39c-0.43,0.39-0.4,1.13,0,1.53C1003.83,448.64,1004.49,448.6,1004.92,448.21L1004.92,448.21z"/>
	</g>
</g>
<g>
	<g>
		<path d="M994.29,434.39c1.93,1.37,4.39,1.21,6.63,1.03c1.85-0.15,4.12-0.28,5.44,1.26c-0.06-0.44-0.11-0.87-0.17-1.31
			c-0.27,0.45-0.54,0.91-0.81,1.36c-0.71,1.2,1.15,2.28,1.86,1.09c0.27-0.45,0.54-0.91,0.81-1.36c0.26-0.44,0.14-0.94-0.17-1.31
			c-1.49-1.74-3.91-2.06-6.07-1.96c-2.14,0.1-4.56,0.66-6.44-0.67c-0.48-0.34-1.2-0.08-1.48,0.39
			C993.59,433.45,993.82,434.05,994.29,434.39L994.29,434.39z"/>
	</g>
</g>
<g>
	<g>
		<path d="M993.49,443.16c1.66-0.54,2.36,2.79,2.94,3.72c1.06,1.7,3.08,2.78,5.1,2.57c1.03-0.11,1.95-0.56,2.53-1.45
			c0.47-0.73,0.58-1.6,0.88-2.39c0.28-0.74,0.9-1.06,1.53-1.46c0.81-0.5,1.56-1.1,1.96-1.99c0.96-2.11-0.22-4.46-1.38-6.23
			c-0.76-1.16-2.63-0.08-1.86,1.09c0.72,1.1,1.95,2.92,1.26,4.29c-0.31,0.62-1.03,0.94-1.59,1.29c-0.71,0.46-1.36,1-1.74,1.78
			c-0.34,0.71-0.44,1.49-0.75,2.2c-0.3,0.67-0.92,0.79-1.61,0.72c-0.73-0.07-1.44-0.4-1.96-0.91c-0.66-0.63-0.96-1.51-1.31-2.33
			c-0.76-1.78-2.4-3.7-4.57-2.99C991.6,441.51,992.17,443.6,993.49,443.16L993.49,443.16z"/>
	</g>
</g>
<g>
	<g>
		<path d="M1012.67,467.74c-1.17,0.5-2.24,1.31-3.03,2.3c-0.19,0.23-0.32,0.45-0.32,0.76c0,0.26,0.12,0.58,0.32,0.76
			c0.21,0.19,0.48,0.33,0.76,0.32c0.27-0.01,0.59-0.1,0.76-0.32c0.36-0.45,0.77-0.85,1.22-1.2c-0.07,0.06-0.15,0.11-0.22,0.17
			c0.49-0.38,1.03-0.69,1.6-0.93c0.23-0.1,0.43-0.42,0.5-0.65c0.07-0.26,0.04-0.6-0.11-0.83c-0.15-0.23-0.37-0.43-0.65-0.5
			c-0.1-0.01-0.19-0.03-0.29-0.04C1013.02,467.6,1012.84,467.64,1012.67,467.74L1012.67,467.74z"/>
	</g>
</g>
<g>
	<g>
		<path d="M1014.67,479.7c5.66,1.89,11.65,2.48,17.59,2.63c5.74,0.14,11.5,0.04,17.23-0.13c11.24-0.34,22.7-1.49,33.06-6.18
			c2.42-1.1,4.93-2.36,6.74-4.37c1.72-1.92,2.71-4.56,2.12-7.13c-1.22-5.36-8.02-5.51-12.36-5.84c-12.05-0.93-24.19-0.53-36.16,1.12
			c-6.01,0.83-11.98,1.98-17.87,3.46c-2.91,0.73-5.79,1.53-8.66,2.42c-2.23,0.69-4.5,1.5-6.27,3.07c-0.88,0.78-1.51,1.73-1.95,2.82
			c-0.22,0.54,0.24,1.19,0.75,1.33c0.61,0.17,1.11-0.21,1.33-0.75c0.76-1.9,2.81-2.97,4.61-3.67c2.45-0.94,5.02-1.6,7.55-2.29
			c5.55-1.51,11.19-2.73,16.87-3.66c11.34-1.86,22.88-2.52,34.36-2.01c2.86,0.13,5.73,0.32,8.58,0.6c1.94,0.19,4.22,0.49,5.76,1.79
			c1.7,1.42,1.79,3.78,0.85,5.68c-1.1,2.2-3.28,3.57-5.4,4.65c-9.54,4.87-20.45,6.24-31.02,6.71c-5.46,0.24-10.94,0.29-16.41,0.28
			c-5.61-0.01-11.26-0.21-16.74-1.47c-1.35-0.31-2.68-0.69-4-1.12C1013.93,477.17,1013.36,479.26,1014.67,479.7L1014.67,479.7z"/>
	</g>
</g>
<g>
	<g>
		<path d="M1088.57,465.79c0.54,1.64,0.58,3.33,0.62,5.04c0.04,1.69,0.05,3.37,0.04,5.06c-0.02,3.37-0.13,6.74-0.31,10.11
			c-0.36,6.83-0.99,13.65-1.69,20.45c-1.4,13.59-3.09,27.17-3.51,40.84c-0.23,7.68-0.05,15.37,0.8,23.01
			c0.06,0.58,0.45,1.08,1.08,1.08c0.53,0,1.14-0.5,1.08-1.08c-1.52-13.63-0.88-27.38,0.36-41.01c1.25-13.71,3.08-27.37,3.91-41.12
			c0.23-3.85,0.39-7.7,0.43-11.56c0.02-1.93,0.01-3.85-0.03-5.78c-0.04-1.89-0.1-3.81-0.7-5.62
			C1090.21,463.9,1088.13,464.47,1088.57,465.79L1088.57,465.79z"/>
	</g>
</g>
<g>
	<g>
		<path d="M1012.53,581.49c8.59,3.89,18.01,5.47,27.41,5.41c9.83-0.06,19.58-1.92,29.04-4.47c5.48-1.48,10.9-3.2,16.29-4.96
			c1.31-0.43,0.75-2.51-0.57-2.08c-9.37,3.06-18.82,6-28.54,7.76c-9.13,1.65-18.57,2.23-27.76,0.78c-5.08-0.8-10.08-2.19-14.77-4.31
			c-0.53-0.24-1.16-0.15-1.48,0.39C1011.88,580.48,1012,581.25,1012.53,581.49L1012.53,581.49z"/>
	</g>
</g>
<g>
	<g>
		<path d="M1009.51,508.67c1.4,8.87,1.56,17.88,1.35,26.84c-0.21,9.03-0.8,18.04-0.92,27.08c-0.07,5.09,0.02,10.19,0.4,15.27
			c0.1,1.38,2.26,1.39,2.16,0c-0.68-9.08-0.41-18.2-0.04-27.29c0.37-9.04,0.84-18.1,0.54-27.15c-0.17-5.13-0.6-10.25-1.4-15.32
			c-0.09-0.58-0.81-0.9-1.33-0.75C1009.65,507.51,1009.42,508.09,1009.51,508.67L1009.51,508.67z"/>
	</g>
</g>
<g>
	<g>
		<path d="M1028.94,459.81c2.08,5.39,6.58,9.63,12.12,11.32c1.33,0.4,1.9-1.68,0.57-2.08c-4.77-1.45-8.82-5.15-10.62-9.81
			c-0.21-0.54-0.73-0.92-1.33-0.75C1029.18,458.63,1028.73,459.27,1028.94,459.81L1028.94,459.81z"/>
	</g>
</g>
<g>
	<g>
		<path d="M1016.03,463.73c1.84,2.1,3.11,4.59,3.83,7.29c0.63,2.34,1.21,4.82,3.36,6.24c1.16,0.77,2.25-1.1,1.09-1.86
			c-1.84-1.21-2.03-3.95-2.63-5.87c-0.84-2.71-2.26-5.19-4.13-7.32C1016.63,461.16,1015.11,462.69,1016.03,463.73L1016.03,463.73z"
			/>
	</g>
</g>
<g>
	<g>
		<path d="M1042.91,472.67c0.59,0.29,1.16,0.63,1.7,1.01c0.12,0.09,0.24,0.17,0.36,0.26c0.24,0.18-0.17-0.14,0.07,0.05
			c0.06,0.05,0.12,0.09,0.17,0.14c0.25,0.21,0.5,0.43,0.74,0.66c0.23,0.22,0.45,0.44,0.66,0.68c0.11,0.12,0.22,0.25,0.32,0.37
			c0.05,0.06,0.1,0.12,0.14,0.17c0.02,0.02,0.2,0.26,0.05,0.06c0.4,0.53,0.76,1.08,1.08,1.66c0.27,0.5,1,0.7,1.48,0.39
			c0.5-0.32,0.68-0.95,0.39-1.48c-1.37-2.5-3.52-4.57-6.07-5.84c-0.51-0.25-1.19-0.15-1.48,0.39
			C1042.27,471.69,1042.37,472.41,1042.91,472.67L1042.91,472.67z"/>
	</g>
</g>
<g>
	<g>
		<path d="M1024.41,478.27c0.69,0.73,1.39,1.46,2.08,2.18c0.19,0.2,0.49,0.32,0.76,0.32c0.26,0,0.58-0.12,0.76-0.32
			c0.19-0.21,0.33-0.48,0.32-0.76c-0.01-0.29-0.11-0.55-0.32-0.76c-0.69-0.73-1.39-1.46-2.08-2.18c-0.19-0.2-0.49-0.32-0.76-0.32
			c-0.26,0-0.58,0.12-0.76,0.32c-0.19,0.21-0.33,0.48-0.32,0.76C1024.11,477.8,1024.21,478.06,1024.41,478.27L1024.41,478.27z"/>
	</g>
</g>
<path class="st0" d="M627.54,338.76c0.02,0.23,0.39-0.1,0.2-0.23c-0.19-0.12-0.43,0.05-0.59,0.2c-1.54,1.51-3.11,3.05-4.16,4.94
	c-1.58,2.82-1.88,6.16-2.14,9.38"/>
<path class="st0" d="M906.83,445.36c0.15,0.06-0.08,0.29-0.2,0.18s-0.07-0.3-0.02-0.44c0.63-1.8,1.41-3.77,3.11-4.64
	c1.75-0.89,3.85-0.31,5.72,0.28c2.13,0.68,4.32,1.39,6.01,2.85c2.72,2.35,3.61,6.15,3.99,9.72c0.2,1.88,0.28,3.84-0.35,5.62
	c-0.64,1.78-2.16,3.37-4.04,3.56"/>
</svg>
