<?xml version="1.0" encoding="utf-8"?>
<!-- Generator: Adobe Illustrator 27.5.0, SVG Export Plug-In . SVG Version: 6.00 Build 0)  -->
<svg version="1.1" id="Capa_2" xmlns="http://www.w3.org/2000/svg" xmlns:xlink="http://www.w3.org/1999/xlink" x="0px" y="0px"
	 viewBox="0 0 1000 1000" style="enable-background:new 0 0 1000 1000;" xml:space="preserve">
<style type="text/css">
	.st0{fill:none;stroke:#000000;stroke-width:2.1958;stroke-miterlimit:10;}
</style>
<g>
	<g>
		<path d="M547.55,409.43c7.6,7.61,12.55,17.76,13.98,28.42c0.41,3.03,0.51,6.09,0.34,9.14c-0.08,1.41,2.12,1.41,2.2,0
			c0.61-11.18-2.62-22.52-8.91-31.77c-1.79-2.63-3.82-5.09-6.06-7.34C548.11,406.88,546.55,408.43,547.55,409.43L547.55,409.43z"/>
	</g>
</g>
<g>
	<g>
		<path d="M595.24,420.88c2.05,0.46,4.08,0.09,6.09-0.35c1.88-0.41,3.79-0.84,5.7-0.31c1.72,0.48,3.21,1.55,4.53,2.72
			c1.58,1.4,3.02,2.95,4.5,4.45c2.96,3.01,6.13,5.92,8.76,9.24c1.14,1.43,2.18,3.02,2.83,4.74c0.76,2.01,0.93,4.08,0.79,6.21
			c-0.15,2.27-0.51,4.53-0.81,6.79c-0.28,2.16-0.52,4.34-0.89,6.49c-0.61,3.52-1.88,7.42-5.47,8.91c-1.45,0.6-3.07,0.61-4.42-0.24
			c-1.43-0.9-2.28-2.53-2.68-4.13c-0.51-2.08-0.36-4.25-0.25-6.37c0.12-2.33,0.23-4.67,0.35-7c0.19-3.88,0.81-8.29-1.88-11.5
			c-2.04-2.44-5.25-3.29-7.61-5.3c-0.54-0.46-1.02-0.97-1.4-1.57c-0.75-1.19-2.65-0.09-1.9,1.11c1.87,2.96,5.24,4,7.93,5.98
			c1.36,1,2.27,2.3,2.63,3.97c0.45,2.06,0.19,4.25,0.09,6.34c-0.12,2.41-0.24,4.83-0.36,7.24c-0.12,2.34-0.28,4.7,0.15,7.02
			c0.69,3.76,3.62,7.44,7.79,7.07c4.11-0.37,6.98-3.64,8.28-7.34c0.71-2.04,1.01-4.19,1.29-6.31c0.32-2.43,0.64-4.87,0.96-7.3
			c0.31-2.34,0.64-4.71,0.38-7.08c-0.23-2.12-0.91-4.12-1.95-5.98c-2.06-3.67-5.22-6.62-8.14-9.59c-1.74-1.77-3.48-3.54-5.22-5.31
			c-1.4-1.42-2.85-2.81-4.52-3.9c-1.71-1.11-3.67-1.82-5.73-1.8c-2.14,0.02-4.18,0.71-6.27,1.03c-0.97,0.15-1.98,0.18-2.94-0.04
			C594.45,418.45,593.86,420.57,595.24,420.88L595.24,420.88z"/>
	</g>
</g>
<g>
	<g>
		<path d="M619.6,426.35c-0.96,0.42-1.13,1.57-0.79,2.46c0.39,1.02,1.22,1.66,2.04,2.32c1.78,1.43,3.69,2.69,5.67,3.84
			c3.9,2.27,8.02,4.12,11.91,6.4c3.48,2.03,6.78,4.47,9.34,7.6c1.21,1.48,2.25,3.17,2.92,4.97c0.83,2.21,1.1,4.51,1.05,6.86
			c-0.05,2.59-0.41,5.16-0.74,7.72c-0.33,2.55-0.7,5.09-1.12,7.63c-0.42,2.59-0.89,5.17-1.4,7.74c-0.35,1.76-0.78,3.63-2.38,4.66
			c-2.48,1.59-6.14,0.96-8.24-1c-2.93-2.73-3.43-7.15-3.11-10.93c0.41-4.9,2.24-9.57,2.62-14.48c0.3-3.89-0.47-8.05-2.93-11.16
			c-0.61-0.77-1.34-1.42-2.13-2c-0.48-0.35-1.22-0.08-1.5,0.39c-0.32,0.56-0.09,1.15,0.39,1.5c3.08,2.24,4.08,6.36,4.03,9.97
			c-0.06,4.97-1.92,9.73-2.56,14.63c-0.52,4.03-0.18,8.58,2.24,11.99c2.14,3.01,5.71,4.58,9.38,4.04c1.63-0.24,3.23-1.01,4.32-2.26
			c1.5-1.73,1.84-4.03,2.26-6.21c1-5.22,1.82-10.47,2.47-15.74c0.6-4.87,1.16-9.9-0.78-14.55c-1.59-3.84-4.4-7.02-7.62-9.59
			c-7.02-5.59-15.95-8.14-22.87-13.85c-0.35-0.28-0.77-0.57-1.03-0.93c-0.07-0.1-0.11-0.29-0.19-0.36
			c-0.18-0.17,0.06-0.03-0.03-0.03c0.04,0-0.49,0.43-0.11,0.26c0.54-0.24,0.67-1.03,0.39-1.5
			C620.78,426.18,620.15,426.11,619.6,426.35L619.6,426.35z"/>
	</g>
</g>
<g>
	<g>
		<path d="M650.9,451.26c-0.21,2.19,1.39,3.94,3.07,5.1c0.88,0.6,1.85,1.09,2.66,1.79c0.69,0.59,1.24,1.28,1.67,2.07
			c1.84,3.37,1.5,7.67,1.54,11.37c0.05,4.97,0.11,9.94,0.14,14.91c0.03,3.63-0.14,8.61-4.15,10.19c-1.83,0.72-3.64,0-4.66-1.66
			c-1.3-2.14-0.94-4.76-0.42-7.08c0.31-1.38-1.81-1.96-2.12-0.58c-0.55,2.42-0.91,5.08,0.01,7.46c0.75,1.95,2.27,3.69,4.36,4.2
			c2.1,0.51,4.21-0.29,5.81-1.65c1.7-1.44,2.64-3.55,3.03-5.71c0.44-2.46,0.33-4.97,0.31-7.46c-0.03-2.68-0.05-5.36-0.08-8.04
			c-0.03-2.64-0.03-5.28-0.08-7.91c-0.04-2.08-0.16-4.19-0.67-6.21c-0.58-2.28-1.73-4.38-3.62-5.82c-1.64-1.25-4.85-2.41-4.61-4.95
			c0.06-0.59-0.54-1.1-1.1-1.1C651.35,450.16,650.95,450.67,650.9,451.26L650.9,451.26z"/>
	</g>
</g>
<g>
	<g>
		<path d="M603.07,432.71c0.06-0.05,0.04-0.04-0.07,0.03c0.09-0.04,0.07-0.04-0.06,0c0.25,0.05-0.33-0.06-0.11-0.02
			c-0.33-0.06-0.54-0.16-0.83-0.32c-0.63-0.34-1.21-0.75-1.84-1.07c-1.42-0.73-2.94-1.27-4.51-1.57c-0.52-0.1-0.94,0.08-1.24,0.5
			c-1.19,1.66-0.87,4.21,0.68,5.54c0.45,0.39,1.11,0.44,1.55,0c0.4-0.4,0.45-1.16,0-1.55c-0.31-0.27-0.32-0.31-0.53-0.65
			c-0.02-0.04-0.08-0.15-0.03-0.05c-0.04-0.09-0.07-0.18-0.09-0.27c-0.02-0.07-0.04-0.15-0.06-0.22c-0.01-0.03-0.05-0.27-0.03-0.1
			c-0.02-0.15-0.02-0.3-0.02-0.45c0,0,0.03-0.29,0.01-0.19c-0.01,0.09,0.03-0.11,0.03-0.13c0.09-0.37,0.13-0.46,0.38-0.81
			c-0.41,0.17-0.83,0.34-1.24,0.5c1.69,0.32,3.29,0.91,4.77,1.79c1.48,0.88,3.22,1.93,4.78,0.6c0.45-0.38,0.4-1.16,0-1.55
			C604.18,432.26,603.53,432.32,603.07,432.71L603.07,432.71z"/>
	</g>
</g>
<g>
	<g>
		<path d="M564.15,437.89c-0.66,2.13-1.14,4.57,0.46,6.41c1.49,1.71,3.68,1.23,5.5,0.43c0.85-0.37,1.71-0.84,2.64-0.94
			c1.15-0.12,2.29,0.24,3.36,0.61c2.22,0.77,4.33,1.82,6.49,2.72c4.1,1.71,9.03,2.96,13.2,0.74c3.51-1.87,5.51-5.9,3.93-9.71
			c-0.9-2.16-2.56-3.86-4.24-5.43c-1.62-1.51-3.42-3.07-4.22-5.19c-0.21-0.55-0.74-0.93-1.35-0.77c-0.53,0.15-0.98,0.79-0.77,1.35
			c1.38,3.68,4.76,5.68,7.16,8.6c1.07,1.3,1.91,2.89,1.8,4.61c-0.1,1.54-1.07,2.91-2.23,3.86c-3.11,2.54-7.52,1.76-10.98,0.49
			c-1.99-0.72-3.89-1.66-5.84-2.48c-1.93-0.81-4.08-1.76-6.23-1.62c-1.11,0.07-2.11,0.48-3.12,0.93c-0.78,0.35-1.7,0.88-2.59,0.78
			c-0.77-0.09-1.2-0.77-1.36-1.47c-0.25-1.12,0.18-2.3,0.51-3.36C566.69,437.12,564.57,436.54,564.15,437.89L564.15,437.89z"/>
	</g>
</g>
<g>
	<g>
		<path d="M592.56,395.3c-1.05,1.66-0.09,3.52,0.63,5.1c0.9,1.97,1.79,3.93,2.69,5.9c0.86,1.88,1.71,3.76,2.58,5.64
			c0.71,1.54,1.45,3.07,2.36,4.49c1.08,1.68,2.39,3.16,4.04,4.29c1.17,0.8,2.27-1.1,1.11-1.9c-3.33-2.28-4.88-6.37-6.49-9.9
			c-1.04-2.27-2.07-4.54-3.11-6.8c-0.52-1.13-1.04-2.27-1.55-3.4c-0.31-0.68-0.81-1.61-0.37-2.31
			C595.21,395.21,593.31,394.1,592.56,395.3L592.56,395.3z"/>
	</g>
</g>
<g>
	<g>
		<path d="M654.07,498.97c0.56,3.27,1.12,6.55,1.67,9.82c0.1,0.58,0.82,0.91,1.35,0.77c0.62-0.17,0.87-0.76,0.77-1.35
			c-0.56-3.27-1.12-6.55-1.67-9.82c-0.1-0.58-0.82-0.91-1.35-0.77C654.21,497.79,653.97,498.38,654.07,498.97L654.07,498.97z"/>
	</g>
</g>
<g>
	<g>
		<path d="M645.76,521.36c0.88-2.05,1.91-4.04,3.1-5.93c1.05-1.68,2.22-3.47,3.86-4.63c1.43-1.01,3.39-1.6,5.02-0.71
			c1.28,0.69,2.02,2.03,2.46,3.36c0.54,1.64,0.7,3.35,0.78,5.06c0.11,2.35,0.09,4.71-0.04,7.06c-0.23,4.11-0.71,8.32-2.18,12.19
			c-1.33,3.49-4.44,8.29-8.76,7.8c-0.59-0.07-1.1,0.55-1.1,1.1c0,0.65,0.51,1.03,1.1,1.1c4.52,0.51,8.2-3.7,10-7.37
			c2-4.07,2.66-8.65,3.02-13.12c0.21-2.63,0.28-5.27,0.19-7.91c-0.07-2.05-0.19-4.12-0.77-6.1c-0.51-1.74-1.37-3.45-2.84-4.57
			c-1.74-1.34-4.06-1.55-6.09-0.78c-2.45,0.92-4.17,2.9-5.62,5.01c-1.58,2.3-2.92,4.76-4.03,7.33c-0.23,0.54-0.16,1.18,0.39,1.5
			C644.72,522.03,645.53,521.91,645.76,521.36L645.76,521.36z"/>
	</g>
</g>
<g>
	<g>
		<path d="M651.93,525.15c-0.03-0.57-0.06-1.34,0.39-1.78c0.32-0.31,0.63-0.25,0.8,0.13c0.28,0.62,0.28,1.42,0.32,2.09
			c0.04,0.8,0.04,1.61-0.02,2.41c-0.23,3.17-1.35,6.24-3.15,8.86c-0.8,1.17,1.1,2.27,1.9,1.11c2.4-3.51,3.65-7.81,3.48-12.07
			c-0.07-1.8-0.23-4.53-2.47-4.9c-1.05-0.17-2.1,0.34-2.72,1.18c-0.63,0.85-0.78,1.92-0.72,2.96
			C649.8,526.55,652,526.56,651.93,525.15L651.93,525.15z"/>
	</g>
</g>
<g>
	<g>
		<path d="M541.12,528.73c-1.03-5.06-1.2-10.31-0.5-15.43c0.35-2.54,0.91-5.06,1.68-7.51c0.75-2.42,1.69-4.79,3.05-6.94
			c2.4-3.8,6.09-6.55,10.02-8.6c4.23-2.21,8.84-3.73,13.49-4.77c9.66-2.16,19.82-1.98,29.43,0.33c8.89,2.14,17.24,6.15,24.6,11.57
			c7.07,5.21,13.19,11.74,18.01,19.07c0.61,0.93,1.2,1.88,1.77,2.83c0.72,1.21,2.62,0.11,1.9-1.11
			c-4.72-7.9-10.83-14.98-18.01-20.73c-7.31-5.85-15.69-10.36-24.69-12.97c-9.93-2.87-20.49-3.48-30.67-1.7
			c-4.98,0.87-9.86,2.33-14.47,4.39c-4.22,1.88-8.32,4.42-11.34,7.97c-3.39,3.99-5.18,9.12-6.27,14.18
			c-1.13,5.27-1.4,10.72-0.73,16.07c0.16,1.32,0.37,2.62,0.64,3.92C539.28,530.7,541.4,530.11,541.12,528.73L541.12,528.73z"/>
	</g>
</g>
<g>
	<g>
		<path d="M563.39,444.84c-2.23,2.22-4.8,4.03-7.23,6.01c-2.18,1.78-4.2,3.74-6.04,5.86c-3.64,4.18-6.63,8.9-8.95,13.92
			c-5.16,11.19-6.96,23.57-6.46,35.82c0.31,7.55,1.44,15.06,3.07,22.44c0.3,1.38,2.42,0.8,2.12-0.58
			c-2.8-12.74-4.15-26.04-2.08-39.01c1.73-10.76,5.88-21.34,12.83-29.82c1.93-2.36,4.07-4.55,6.4-6.52c2.62-2.21,5.47-4.14,7.9-6.57
			C565.95,445.39,564.4,443.84,563.39,444.84L563.39,444.84z"/>
	</g>
</g>
<g>
	<g>
		<path d="M577.23,550.08c0.55,4.84,0.53,9.76-0.15,14.59c-0.17,1.19-0.37,2.38-0.61,3.56c-0.23,1.13-0.55,2.29-0.5,3.46
			c0.11,2.21,1.79,4.32,4.18,3.84c1.38-0.28,0.8-2.4-0.58-2.12c-0.63,0.13-1.16-0.61-1.31-1.13c-0.26-0.9-0.01-1.89,0.18-2.77
			c0.45-2.13,0.8-4.28,1.04-6.45c0.46-4.31,0.44-8.66-0.05-12.97c-0.07-0.59-0.46-1.1-1.1-1.1
			C577.79,548.99,577.17,549.49,577.23,550.08L577.23,550.08z"/>
	</g>
</g>
<g>
	<g>
		<path d="M589.17,563.62c0.7,2.91,3.62,3.87,5.9,5.23c0.92,0.55,1.99,1.39,2.12,2.55c0.05,0.42-0.08,0.81-0.37,1.13
			c-0.31,0.33-0.61,0.43-0.97,0.31c-1.35-0.43-1.93,1.69-0.58,2.12c1.51,0.48,3.12-0.44,3.78-1.83c0.76-1.6,0.18-3.32-0.91-4.6
			c-1.08-1.28-2.64-1.93-4.08-2.7c-1.17-0.62-2.43-1.41-2.76-2.79C590.96,561.66,588.84,562.24,589.17,563.62L589.17,563.62z"/>
	</g>
</g>
<g>
	<g>
		<path d="M590.89,573.2c0.11-0.03,0.22-0.05,0.33-0.07c-0.1,0.01-0.19,0.03-0.29,0.04c0.19-0.02,0.39-0.02,0.58,0
			c-0.1-0.01-0.19-0.03-0.29-0.04c0.19,0.03,0.38,0.08,0.56,0.15c-0.09-0.04-0.17-0.07-0.26-0.11c0.15,0.06,0.29,0.14,0.43,0.24
			c0.13,0.08,0.26,0.12,0.41,0.13c0.15,0.03,0.29,0.03,0.44-0.02c0.25-0.07,0.53-0.27,0.66-0.5c0.13-0.25,0.2-0.56,0.11-0.85
			c-0.04-0.09-0.07-0.17-0.11-0.26c-0.1-0.16-0.23-0.3-0.39-0.39c-0.21-0.15-0.45-0.25-0.69-0.35c-0.16-0.07-0.33-0.11-0.5-0.14
			c-0.25-0.04-0.51-0.08-0.77-0.07c-0.26,0.01-0.54,0.05-0.79,0.12c-0.27,0.08-0.52,0.26-0.66,0.5c-0.14,0.24-0.2,0.58-0.11,0.85
			c0.09,0.27,0.25,0.52,0.5,0.66C590.3,573.22,590.6,573.28,590.89,573.2L590.89,573.2z"/>
	</g>
</g>
<g>
	<g>
		<path d="M586.65,571.6c-0.77,0.34-1.55,0.68-2.32,1.02c-0.24,0.1-0.44,0.42-0.5,0.66c-0.07,0.26-0.04,0.61,0.11,0.85
			c0.15,0.23,0.38,0.44,0.66,0.5c0.1,0.01,0.19,0.03,0.29,0.04c0.2,0,0.38-0.05,0.55-0.15c0.77-0.34,1.55-0.68,2.32-1.02
			c0.24-0.1,0.44-0.42,0.5-0.66c0.07-0.26,0.04-0.61-0.11-0.85c-0.15-0.23-0.38-0.44-0.66-0.5c-0.1-0.01-0.19-0.03-0.29-0.04
			C587.01,571.45,586.83,571.5,586.65,571.6L586.65,571.6z"/>
	</g>
</g>
<g>
	<g>
		<path d="M594.74,546.56c1.96,0.84,4.06,1.26,6.19,1.12c2.22-0.15,4.19-0.89,6.16-1.89c1.96-1,3.95-1.76,6.09-2.27
			c2.14-0.51,4.32-0.83,6.49-1.15c0.59-0.09,0.91-0.83,0.77-1.35c-0.17-0.63-0.76-0.85-1.35-0.77c-4.14,0.6-8.29,1.27-12.08,3.12
			c-1.77,0.87-3.45,1.79-5.44,2.05c-1.92,0.25-3.94,0-5.72-0.76c-0.54-0.23-1.18-0.16-1.5,0.39
			C594.08,545.52,594.19,546.32,594.74,546.56L594.74,546.56z"/>
	</g>
</g>
<g>
	<g>
		<path d="M569.61,549.99c-3.18,3.19-7.99,4.49-12.34,3.33c-1.37-0.37-1.95,1.75-0.58,2.12c5.1,1.36,10.75-0.15,14.48-3.89
			C572.16,550.54,570.61,548.99,569.61,549.99L569.61,549.99z"/>
	</g>
</g>
<g>
	<g>
		<path d="M591.03,590.3c3.82,1.18,7.99,0.29,11.09-2.17c0.46-0.37,0.39-1.17,0-1.55c-0.46-0.46-1.09-0.37-1.55,0
			c-2.49,1.98-5.95,2.54-8.96,1.61C590.26,587.77,589.68,589.89,591.03,590.3L591.03,590.3z"/>
	</g>
</g>
<g>
	<g>
		<path d="M538.46,527.23c4.51,13.5,8.98,27.02,13.54,40.49c1.04,3.07,2.15,6.12,3.61,9.02c1.27,2.52,2.85,4.87,4.69,7.02
			c3.48,4.07,7.85,7.3,12.48,9.95c4.78,2.73,9.89,4.87,15.03,6.83c2.71,1.03,5.44,2.06,8.19,2.98c3.17,1.06,6.51,1.9,9.88,1.73
			c5.68-0.29,10.47-3.48,14.49-7.28c2.02-1.91,3.89-3.98,5.76-6.04c2.11-2.32,4.28-4.58,6.45-6.84
			c8.52-8.84,17.72-19.11,17.77-32.16c0.01-1.52-0.14-3.04-0.41-4.53c-0.1-0.58-0.82-0.91-1.35-0.77c-0.62,0.17-0.87,0.76-0.77,1.35
			c1.05,5.88-0.49,11.92-3.15,17.17c-2.78,5.48-6.81,10.17-11,14.62c-2.16,2.29-4.38,4.54-6.54,6.83c-1.88,2-3.69,4.07-5.58,6.06
			c-3.53,3.74-7.55,7.53-12.65,8.9c-6.02,1.61-12.1-1.02-17.67-3.07c-4.93-1.82-9.84-3.75-14.52-6.15
			c-4.59-2.35-8.98-5.17-12.67-8.79c-1.8-1.77-3.42-3.71-4.79-5.84c-1.68-2.61-2.93-5.45-4.01-8.35
			c-2.33-6.31-4.32-12.76-6.46-19.13c-2.2-6.58-4.4-13.16-6.6-19.74c-0.54-1.62-1.08-3.23-1.62-4.85
			C540.13,525.31,538.01,525.89,538.46,527.23L538.46,527.23z"/>
	</g>
</g>
<g>
	<g>
		<path d="M650.1,550.18c4.41,1.42,8.92,1.97,13.55,1.86c4.61-0.11,9.19-0.74,13.76-1.24c4.57-0.5,9.19-0.88,13.78-0.49
			c4.29,0.37,8.5,1.45,12.51,2.98c8.24,3.13,15.63,8.17,22.53,13.57c7.39,5.78,14.41,12.04,22.13,17.38
			c7.74,5.35,16.08,9.73,24.45,13.99c1.05,0.53,2.1,1.07,3.16,1.6c1.26,0.64,2.37-1.26,1.11-1.9c-8.42-4.26-16.85-8.53-24.77-13.68
			c-7.89-5.14-14.99-11.32-22.33-17.2c-6.99-5.6-14.3-10.93-22.53-14.57c-4.02-1.77-8.21-3.16-12.54-3.89
			c-4.51-0.76-9.05-0.74-13.6-0.37c-9.01,0.74-18.29,2.83-27.28,0.8c-1.14-0.26-2.26-0.6-3.37-0.96
			C649.34,547.63,648.76,549.75,650.1,550.18L650.1,550.18z"/>
	</g>
</g>
<g>
	<g>
		<path d="M697.04,585.45c2.55,6.57,7.92,11.27,13.28,15.57c5.84,4.69,11.92,9.09,18.29,13.05c6.43,3.99,13.15,7.35,20.04,10.46
			c3.36,1.51,6.72,3.05,9.9,4.92c3.19,1.87,6.01,4.23,9.07,6.29c3.48,2.34,7.25,3.75,11.39,4.41c4.1,0.65,8.26,0.75,12.34,1.46
			c0.58,0.1,1.18-0.16,1.35-0.77c0.15-0.53-0.18-1.25-0.77-1.35c-7.02-1.22-14.58-0.66-20.98-4.27c-3.12-1.76-5.84-4.12-8.81-6.11
			c-3.06-2.06-6.37-3.72-9.71-5.26c-3.35-1.55-6.75-3-10.07-4.63c-3.32-1.63-6.57-3.4-9.75-5.28c-6.35-3.76-12.44-7.96-18.26-12.5
			c-3.08-2.4-6.17-4.83-8.93-7.58c-2.6-2.59-4.93-5.54-6.27-8.98c-0.21-0.55-0.74-0.94-1.35-0.77
			C697.28,584.25,696.82,584.89,697.04,585.45L697.04,585.45z"/>
	</g>
</g>
<g>
	<g>
		<path d="M790.9,641.2c10,0.7,19.98-1.23,29.82-2.73c2.86-0.43,5.71-0.87,8.57-1.3c0.59-0.09,0.91-0.83,0.77-1.35
			c-0.17-0.63-0.76-0.86-1.35-0.77c-4.94,0.75-9.87,1.5-14.81,2.25c-4.87,0.74-9.76,1.46-14.69,1.73c-2.77,0.15-5.54,0.16-8.31-0.03
			C789.49,638.91,789.5,641.1,790.9,641.2L790.9,641.2z"/>
	</g>
</g>
<g>
	<g>
		<path d="M814.57,630.19c5.53,1.36,10.26,4.74,14.7,8.16c4.19,3.23,8.3,6.92,10.1,12.04c0.42,1.18,0.79,2.38,1.34,3.51
			c0.62,1.27,1.49,2.4,2.51,3.37c1.02,0.97,2.58-0.58,1.55-1.55c-0.9-0.86-1.62-1.81-2.17-2.92c-0.46-0.96-0.76-1.98-1.12-2.98
			c-0.92-2.62-2.3-4.91-4.11-7.01c-1.81-2.11-3.92-3.93-6.1-5.64c-2.3-1.8-4.65-3.57-7.14-5.11c-2.79-1.74-5.79-3.18-8.99-3.96
			C813.79,627.73,813.2,629.85,814.57,630.19L814.57,630.19z"/>
	</g>
</g>
<g>
	<g>
		<path d="M846.15,639.22c1.19,1.59,2.5,3.15,3.45,4.91c0.87,1.62,1.31,3.57,1.62,5.5c0.1,0.59,0.82,0.91,1.35,0.77
			c0.62-0.17,0.86-0.76,0.77-1.35c-0.33-2.05-0.81-4.08-1.79-5.93c-0.95-1.8-2.29-3.39-3.5-5.01c-0.35-0.47-0.95-0.72-1.5-0.39
			C846.08,637.99,845.79,638.74,846.15,639.22L846.15,639.22z"/>
	</g>
</g>
<g>
	<g>
		<path d="M849.28,639.86c7.28-0.2,14.74-0.4,21.81,1.6c1.99,0.56,3.91,1.3,5.75,2.25c1.25,0.65,2.37-1.25,1.11-1.9
			c-6.84-3.53-14.61-4.25-22.2-4.26c-2.16,0-4.31,0.05-6.47,0.11C847.87,637.71,847.87,639.9,849.28,639.86L849.28,639.86z"/>
	</g>
</g>
<g>
	<g>
		<path d="M879.7,650.5c-0.68,0.45-1.16,1.09-1.41,1.86c-0.26,0.77-0.19,1.58,0.13,2.32c0.3,0.67,0.91,1.17,1.61,1.38
			c0.7,0.21,1.43,0.1,2.09-0.18c0.66-0.29,1.24-0.94,1.34-1.67c0.05-0.3,0.05-0.57-0.11-0.85c-0.13-0.23-0.39-0.44-0.66-0.5
			c-0.28-0.06-0.6-0.05-0.85,0.11c-0.22,0.14-0.46,0.38-0.5,0.66c-0.01,0.1-0.04,0.19-0.08,0.28c0.04-0.09,0.07-0.17,0.11-0.26
			c-0.04,0.1-0.09,0.19-0.16,0.27c0.06-0.07,0.11-0.15,0.17-0.22c-0.07,0.09-0.15,0.17-0.24,0.24c0.07-0.06,0.15-0.11,0.22-0.17
			c-0.11,0.09-0.23,0.15-0.36,0.21c0.09-0.04,0.17-0.07,0.26-0.11c-0.15,0.06-0.31,0.11-0.48,0.13c0.1-0.01,0.19-0.03,0.29-0.04
			c-0.17,0.02-0.33,0.02-0.5,0c0.1,0.01,0.19,0.03,0.29,0.04c-0.14-0.02-0.28-0.06-0.42-0.11c0.09,0.04,0.17,0.07,0.26,0.11
			c-0.12-0.05-0.24-0.12-0.34-0.2c0.07,0.06,0.15,0.11,0.22,0.17c-0.09-0.07-0.17-0.16-0.24-0.25c0.06,0.07,0.11,0.15,0.17,0.22
			c-0.09-0.12-0.16-0.24-0.22-0.37c0.04,0.09,0.07,0.17,0.11,0.26c-0.06-0.15-0.1-0.29-0.12-0.45c0.01,0.1,0.03,0.19,0.04,0.29
			c-0.03-0.2-0.02-0.39,0-0.59c-0.01,0.1-0.03,0.19-0.04,0.29c0.03-0.21,0.09-0.42,0.17-0.62c-0.04,0.09-0.07,0.17-0.11,0.26
			c0.08-0.19,0.18-0.36,0.31-0.52c-0.06,0.07-0.11,0.15-0.17,0.22c0.12-0.15,0.25-0.28,0.4-0.4c-0.07,0.06-0.15,0.11-0.22,0.17
			c0.04-0.03,0.09-0.06,0.13-0.09c0.24-0.16,0.43-0.37,0.5-0.66c0.07-0.26,0.04-0.61-0.11-0.85
			C880.9,650.41,880.21,650.16,879.7,650.5L879.7,650.5z"/>
	</g>
</g>
<g>
	<g>
		<path d="M871.06,627.07c-0.4,0.95,0.35,1.88,1.17,2.26c0.98,0.45,2.15,0.56,3.19,0.79c2.22,0.47,4.44,0.95,6.66,1.42
			c0.58,0.12,1.19-0.17,1.35-0.77c0.15-0.55-0.18-1.23-0.77-1.35c-1.82-0.39-3.64-0.78-5.47-1.17c-0.89-0.19-1.79-0.38-2.68-0.57
			c-0.4-0.09-0.86-0.13-1.25-0.28c0,0-0.22-0.13-0.23-0.13c0.17-0.02-0.03,0.77,0.14,0.38c0.23-0.55-0.25-1.21-0.77-1.35
			C871.77,626.13,871.29,626.52,871.06,627.07L871.06,627.07z"/>
	</g>
</g>
<g>
	<g>
		<path d="M882.82,633.96c1.65,3.26,2.24,6.92,2.5,10.54c0.13,1.83,0.28,3.69,0.23,5.52c-0.04,1.64-1.4,2.19-2.78,2.63
			c-1.34,0.42-0.77,2.54,0.58,2.12c1.73-0.55,3.57-1.39,4.17-3.25c0.33-1.01,0.22-2.12,0.18-3.16c-0.04-1.07-0.08-2.13-0.15-3.2
			c-0.27-4.24-0.92-8.48-2.85-12.31C884.08,631.59,882.18,632.7,882.82,633.96L882.82,633.96z"/>
	</g>
</g>
<g>
	<g>
		<path d="M878.47,625.57c3.99,3.31,8.94,5.17,12.96,8.42c0.46,0.37,1.1,0.45,1.55,0c0.38-0.39,0.46-1.18,0-1.55
			c-4.03-3.25-8.98-5.11-12.96-8.42c-0.46-0.38-1.11-0.45-1.55,0C878.08,624.41,878.01,625.19,878.47,625.57L878.47,625.57z"/>
	</g>
</g>
<g>
	<g>
		<path d="M891.99,635.21c1.92,4.57-2.91,8.62-4.89,12.24c-0.68,1.24,1.22,2.35,1.9,1.11c1.26-2.3,3.1-4.22,4.31-6.55
			c1.16-2.23,1.81-4.97,0.8-7.38c-0.23-0.55-0.73-0.94-1.35-0.77C892.24,634,891.76,634.66,891.99,635.21L891.99,635.21z"/>
	</g>
</g>
<g>
	<g>
		<path d="M776.86,599.17c4.5,1.51,9.25,1.94,13.94,2.44c2.29,0.24,4.57,0.5,6.83,0.94c2.35,0.45,4.63,1.13,6.89,1.93
			c2.23,0.79,4.45,1.66,6.72,2.34c2.12,0.64,4.28,1.08,6.46,1.4c4.32,0.63,8.68,0.83,13.02,1.3c4.7,0.51,9.44,1.42,13.64,3.7
			c1.24,0.68,2.35-1.22,1.11-1.9c-7.78-4.23-16.83-3.99-25.38-4.99c-2.13-0.25-4.25-0.59-6.33-1.1c-2.31-0.57-4.55-1.38-6.78-2.2
			c-2.26-0.82-4.52-1.64-6.86-2.2c-2.31-0.55-4.67-0.89-7.03-1.17c-5.25-0.62-10.58-0.92-15.63-2.61
			C776.1,596.6,775.53,598.72,776.86,599.17L776.86,599.17z"/>
	</g>
</g>
<g>
	<g>
		<path d="M845.6,613.66c11.55,4.71,24.9,2.38,36.07,8.29c2.67,1.42,5.13,3.3,6.94,5.74c0.35,0.47,0.95,0.72,1.5,0.39
			c0.47-0.27,0.75-1.02,0.39-1.5c-3.51-4.71-8.74-7.51-14.29-9.15c-6.15-1.82-12.59-2.13-18.91-3.07c-3.8-0.56-7.57-1.37-11.13-2.83
			c-0.55-0.22-1.21,0.24-1.35,0.77C844.66,612.93,845.05,613.43,845.6,613.66L845.6,613.66z"/>
	</g>
</g>
<g>
	<g>
		<path d="M888.82,626.21c0.2,1.46,0.69,2.87,1.4,4.17c0.28,0.5,1.01,0.71,1.5,0.39c0.51-0.33,0.69-0.96,0.39-1.5
			c-0.08-0.15-0.17-0.31-0.24-0.47c-0.04-0.07-0.07-0.15-0.11-0.22c-0.02-0.05-0.07-0.23-0.11-0.26c0.06,0.14,0.07,0.18,0.04,0.1
			c-0.01-0.03-0.03-0.06-0.04-0.1c-0.03-0.09-0.07-0.17-0.1-0.26c-0.06-0.15-0.11-0.31-0.16-0.46c-0.21-0.64-0.36-1.31-0.45-1.98
			c-0.03-0.25-0.3-0.53-0.5-0.66c-0.24-0.14-0.58-0.2-0.85-0.11c-0.27,0.09-0.52,0.25-0.66,0.5
			C888.79,625.64,888.78,625.9,888.82,626.21L888.82,626.21z"/>
	</g>
</g>
<g>
	<g>
		<path d="M888.14,637.21c0.8,2.44,1.09,4.98,0.86,7.54c-0.05,0.59,0.54,1.1,1.1,1.1c0.64,0,1.05-0.5,1.1-1.1
			c0.24-2.73-0.09-5.52-0.94-8.13c-0.19-0.56-0.76-0.93-1.35-0.77C888.35,636.01,887.95,636.64,888.14,637.21L888.14,637.21z"/>
	</g>
</g>
<g>
	<g>
		<path d="M890,634.9c-1.21-1.4-2.42-2.79-3.63-4.19c-0.38-0.44-1.17-0.42-1.55,0c-0.43,0.46-0.4,1.09,0,1.55
			c1.21,1.4,2.42,2.79,3.63,4.19c0.38,0.44,1.17,0.42,1.55,0C890.42,635.99,890.4,635.37,890,634.9L890,634.9z"/>
	</g>
</g>
<g>
	<g>
		<path d="M881.82,631.14c0.82,0.32,1.64,0.64,2.45,0.96c0.25,0.1,0.62,0.02,0.85-0.11c0.23-0.13,0.44-0.39,0.5-0.66
			c0.06-0.28,0.05-0.6-0.11-0.85c-0.06-0.07-0.11-0.15-0.17-0.22c-0.14-0.14-0.3-0.23-0.48-0.28c-0.82-0.32-1.64-0.64-2.45-0.96
			c-0.25-0.1-0.62-0.02-0.85,0.11c-0.23,0.13-0.44,0.39-0.5,0.66c-0.06,0.28-0.05,0.6,0.11,0.85c0.06,0.07,0.11,0.15,0.17,0.22
			C881.47,631,881.63,631.09,881.82,631.14L881.82,631.14z"/>
	</g>
</g>
<g>
	<g>
		<path d="M885.83,632.22c-0.57-0.57-1.14-1.14-1.71-1.71c-0.2-0.2-0.49-0.32-0.78-0.32c-0.27,0-0.59,0.12-0.78,0.32
			c-0.19,0.21-0.33,0.48-0.32,0.78c0.01,0.29,0.11,0.57,0.32,0.78c0.57,0.57,1.14,1.14,1.71,1.71c0.2,0.2,0.49,0.32,0.78,0.32
			c0.27,0,0.59-0.12,0.78-0.32c0.19-0.21,0.33-0.48,0.32-0.78C886.14,632.71,886.04,632.43,885.83,632.22L885.83,632.22z"/>
	</g>
</g>
<g>
	<g>
		<path d="M891.13,629.04c-0.93,0.59-1.28,1.78-0.96,2.81c0.32,1.02,1.15,1.67,1.99,2.28c0.22,0.16,0.6,0.18,0.85,0.11
			c0.25-0.07,0.53-0.27,0.66-0.5c0.13-0.25,0.2-0.56,0.11-0.85c-0.09-0.29-0.26-0.48-0.5-0.66c-0.14-0.1-0.28-0.2-0.42-0.31
			c0.07,0.06,0.15,0.11,0.22,0.17c-0.27-0.21-0.53-0.44-0.74-0.71c0.06,0.07,0.11,0.15,0.17,0.22c-0.11-0.14-0.2-0.3-0.28-0.46
			c0.04,0.09,0.07,0.17,0.11,0.26c-0.05-0.13-0.09-0.27-0.11-0.41c0.01,0.1,0.03,0.19,0.04,0.29c-0.02-0.16-0.02-0.31,0-0.46
			c-0.01,0.1-0.03,0.19-0.04,0.29c0.02-0.12,0.05-0.24,0.1-0.36c-0.04,0.09-0.07,0.17-0.11,0.26c0.04-0.09,0.09-0.17,0.14-0.24
			c-0.06,0.07-0.11,0.15-0.17,0.22c0.05-0.06,0.11-0.12,0.17-0.17c-0.07,0.06-0.15,0.11-0.22,0.17c0.03-0.03,0.07-0.05,0.1-0.07
			c0.48-0.31,0.72-0.99,0.39-1.5C892.32,628.95,891.65,628.71,891.13,629.04L891.13,629.04z"/>
	</g>
</g>
<g>
	<g>
		<path d="M705.17,598.28c3.71,13.61,6.14,27.56,7.23,41.63c0.54,7,0.76,14.03,0.65,21.05c-0.11,7.03-0.74,14.02-1.12,21.04
			c-0.42,7.65-0.34,15.46,1.93,22.85c0.41,1.35,2.53,0.77,2.12-0.58c-2.03-6.6-2.24-13.54-1.94-20.39
			c0.3-6.93,0.99-13.82,1.16-20.76c0.36-14.14-0.62-28.31-2.89-42.27c-1.27-7.8-2.95-15.53-5.02-23.15
			C706.92,596.34,704.8,596.92,705.17,598.28L705.17,598.28z"/>
	</g>
</g>
<g>
	<g>
		<path d="M567.45,610.85c1.67,7.81,4.58,15.26,7.59,22.63c3.09,7.57,6.12,15.14,8.73,22.89c1.48,4.39,2.86,8.8,4.14,13.25
			c0.39,1.36,2.51,0.78,2.12-0.58c-2.27-7.89-4.85-15.69-7.76-23.37c-2.86-7.55-6.17-14.92-8.91-22.51
			c-1.53-4.22-2.85-8.51-3.79-12.9C569.27,608.88,567.15,609.47,567.45,610.85L567.45,610.85z"/>
	</g>
</g>
<g>
	<g>
		<path d="M566.48,613.08c1.75,7.75,4.56,15.19,7.29,22.63c2.69,7.33,5.36,14.73,6.8,22.43c0.8,4.28,1.16,8.64,0.94,13
			c-0.07,1.41,2.13,1.41,2.2,0c0.39-7.86-1.14-15.65-3.4-23.15c-2.3-7.63-5.32-15.02-7.92-22.55c-1.47-4.25-2.8-8.55-3.79-12.94
			C568.29,611.12,566.17,611.71,566.48,613.08L566.48,613.08z"/>
	</g>
</g>
<g>
	<g>
		<path d="M557.67,577.56c-6.96,3.24-12.4,9.52-14.67,16.85c-1.4,4.51-1.52,9.32-1.17,13.99c0.36,4.84,1.13,9.64,1.67,14.47
			c1.11,9.93,1.84,19.91,2.2,29.9c0.36,9.95,0.35,19.91-0.01,29.85c-0.18,4.93-0.55,9.85-0.77,14.78c-0.1,2.41,0,4.84,0.67,7.17
			c0.62,2.13,1.61,4.14,2.71,6.05c0.55,0.96,1.13,1.9,1.72,2.84c0.74,1.2,2.64,0.1,1.9-1.11c-2.3-3.71-4.58-7.51-4.81-11.98
			c-0.13-2.43,0.12-4.86,0.27-7.28c0.15-2.43,0.27-4.86,0.38-7.29c0.42-9.72,0.51-19.46,0.26-29.19
			c-0.26-9.77-0.87-19.53-1.84-29.26c-0.48-4.79-1.11-9.56-1.68-14.35c-0.55-4.61-0.98-9.34-0.28-13.96
			c1.13-7.53,5.54-14.31,12.08-18.27c0.81-0.49,1.64-0.93,2.5-1.33c0.54-0.25,0.67-1.02,0.39-1.5
			C558.85,577.4,558.21,577.3,557.67,577.56L557.67,577.56z"/>
	</g>
</g>
<g>
	<g>
		<path d="M550.3,714.07c1.41,0,1.42-2.2,0-2.2C548.88,711.88,548.88,714.07,550.3,714.07L550.3,714.07z"/>
	</g>
</g>
<g>
	<g>
		<path d="M552.5,714.21c-0.22-0.29-0.42-0.59-0.6-0.91c-0.08-0.14-0.15-0.28-0.22-0.42c-0.04-0.08-0.08-0.16-0.11-0.25
			c-0.05-0.11-0.04-0.08,0.03,0.07c-0.02-0.04-0.03-0.08-0.05-0.13c-0.12-0.32-0.23-0.64-0.31-0.97c-0.04-0.18-0.08-0.35-0.11-0.53
			c-0.02-0.09-0.02-0.18-0.04-0.27c0.08,0.33,0.01,0.04,0-0.05c-0.03-0.3-0.1-0.56-0.32-0.78c-0.19-0.19-0.5-0.33-0.78-0.32
			c-0.55,0.02-1.16,0.49-1.1,1.1c0.16,1.65,0.72,3.24,1.72,4.57c0.18,0.24,0.36,0.42,0.66,0.5c0.26,0.07,0.61,0.04,0.85-0.11
			C552.55,715.42,552.87,714.7,552.5,714.21L552.5,714.21z"/>
	</g>
</g>
<g>
	<g>
		<path d="M571.33,715.61c2.63-4.75,5.59-9.46,9.1-13.62c1.53-1.81,3.25-3.5,5.38-4.59c2.37-1.21,5.07-1.34,7.69-1.38
			c3.37-0.06,6.73-0.09,10.1-0.13c1.41-0.02,1.42-2.21,0-2.2c-3.14,0.04-6.28,0.08-9.42,0.12c-2.8,0.04-5.69,0.1-8.32,1.16
			c-4.97,2.02-8.24,6.79-11.18,11.04c-1.89,2.74-3.64,5.57-5.26,8.48C568.74,715.74,570.64,716.85,571.33,715.61L571.33,715.61z"/>
	</g>
</g>
<g>
	<g>
		<path d="M604.95,696.45c8.21,0.42,14.48-5.69,21.53-8.82c0.54-0.24,0.67-1.03,0.39-1.5c-0.33-0.56-0.96-0.63-1.5-0.39
			c-6.66,2.95-12.69,8.92-20.43,8.52C603.54,694.18,603.54,696.38,604.95,696.45L604.95,696.45z"/>
	</g>
</g>
<g>
	<g>
		<path d="M625.34,688.11c11.69,4.33,19.11,14.8,27.52,23.35c2.5,2.54,5.24,4.91,8.4,6.59c1.25,0.66,2.36-1.23,1.11-1.9
			c-5.61-2.99-9.7-8.09-13.92-12.71c-4.14-4.54-8.43-9-13.44-12.59c-2.81-2.01-5.84-3.67-9.09-4.87c-0.56-0.21-1.2,0.23-1.35,0.77
			C624.4,687.37,624.78,687.9,625.34,688.11L625.34,688.11z"/>
	</g>
</g>
<g>
	<g>
		<path d="M656.53,699.69c2.19,2.46,4.3,4.98,6.33,7.58c0.98,1.25,1.95,2.51,2.86,3.8c0.82,1.16,1.61,2.41,1.55,3.87
			c-0.05,1.41,2.14,1.41,2.2,0c0.06-1.62-0.61-3.12-1.48-4.45c-0.96-1.46-2.06-2.83-3.13-4.21c-2.16-2.79-4.42-5.5-6.77-8.14
			C657.14,697.08,655.59,698.64,656.53,699.69L656.53,699.69z"/>
	</g>
</g>
<g>
	<g>
		<path d="M658.16,700.14c1.89,2.65,4.74,4.17,7.12,6.3c1.34,1.2,2.52,2.58,3.73,3.9c1.33,1.45,2.66,2.91,4,4.36
			c0.96,1.04,2.51-0.51,1.55-1.55c-1.28-1.39-2.55-2.79-3.83-4.18c-1.22-1.33-2.4-2.71-3.73-3.93c-2.24-2.06-5.15-3.5-6.95-6.01
			c-0.34-0.48-0.96-0.71-1.5-0.39C658.08,698.91,657.81,699.65,658.16,700.14L658.16,700.14z"/>
	</g>
</g>
<g>
	<g>
		<path d="M686.62,710.04c-5.88-4.92-10.61-11.06-13.88-17.99c-0.41,0.54-0.83,1.08-1.24,1.61c1.85,0.52,3.35,1.73,4.7,3.06
			c1.54,1.53,2.97,3.18,4.44,4.78c3.2,3.49,6.4,6.98,9.59,10.47c0.96,1.04,2.51-0.51,1.55-1.55c-3.31-3.61-6.62-7.23-9.93-10.84
			c-2.79-3.05-5.61-6.87-9.77-8.04c-0.99-0.28-1.63,0.78-1.24,1.61c3.33,7.08,8.22,13.41,14.22,18.44c0.45,0.38,1.11,0.45,1.55,0
			C687.01,711.21,687.08,710.43,686.62,710.04L686.62,710.04z"/>
	</g>
</g>
<g>
	<g>
		<path d="M685.07,687.01c1.41,0,1.42-2.2,0-2.2C683.66,684.81,683.66,687.01,685.07,687.01L685.07,687.01z"/>
	</g>
</g>
<g>
	<g>
		<path d="M686.02,684.96c-1.02-1.1-2.32-1.9-3.75-2.35c-1.19-0.38-3.14-0.75-4.27-0.02c-1.4,0.9-0.85,2.61,0.02,3.66
			c0.49,0.6,1.14,1.1,1.72,1.62c0.67,0.61,1.33,1.22,2,1.83c2.58,2.36,5.16,4.72,7.74,7.08c2.33,2.13,4.7,4.23,6.9,6.51
			c2.33,2.4,4.41,5.02,5.88,8.04c0.62,1.27,2.51,0.16,1.9-1.11c-2.39-4.92-6.37-8.79-10.34-12.45c-4.59-4.22-9.23-8.38-13.79-12.62
			c-0.22-0.2-0.43-0.4-0.57-0.67c0.08,0.14-0.09-0.19-0.1-0.2c-0.08-0.1-0.09-0.16-0.03-0.15c-0.04,0.09-0.07,0.18-0.11,0.28
			c0.02,0.04,1.43,0.06,1.71,0.12c1.38,0.28,2.58,0.96,3.54,1.99C685.43,687.54,686.98,685.99,686.02,684.96L686.02,684.96z"/>
	</g>
</g>
<g>
	<g>
		<path d="M683.23,686.33c3.06,3.18,6.2,6.28,9.45,9.27c1.61,1.48,3.24,2.95,4.93,4.35c1.54,1.28,3.24,2.52,5.23,2.95
			c2.06,0.44,4.27,0.07,5.83-1.42c1.02-0.98-0.53-2.53-1.55-1.55c-1.05,1-2.61,1.14-3.96,0.79c-1.76-0.45-3.23-1.65-4.58-2.81
			c-3.07-2.63-6.05-5.38-8.94-8.21c-1.65-1.61-3.26-3.26-4.86-4.92C683.8,683.76,682.24,685.31,683.23,686.33L683.23,686.33z"/>
	</g>
</g>
<g>
	<g>
		<path d="M584.11,672.29c9.54-0.03,19.03-1.91,27.85-5.55c4.37-1.8,8.63-3.83,13.24-4.98c4.27-1.07,8.66-1.52,13.06-1.45
			c8.94,0.13,17.83,2.37,25.98,6c8.09,3.6,15.58,8.47,22.55,13.9c3.5,2.73,6.89,5.59,10.21,8.53c3.17,2.8,6.59,5.61,8.92,9.19
			c0.57,0.87,1.06,1.78,1.48,2.74c0.24,0.54,1.03,0.67,1.5,0.39c0.56-0.33,0.63-0.96,0.39-1.5c-1.73-3.99-4.89-7.1-8.06-9.97
			c-3.33-3.02-6.73-5.98-10.22-8.81c-7.02-5.69-14.47-10.91-22.59-14.92c-8.18-4.03-16.99-6.77-26.1-7.54
			c-4.51-0.38-9.05-0.24-13.53,0.47c-4.64,0.74-9,2.24-13.31,4.08c-4.45,1.9-8.88,3.71-13.57,4.93c-4.68,1.22-9.46,1.96-14.29,2.21
			c-1.17,0.06-2.34,0.09-3.52,0.09C582.69,670.1,582.69,672.29,584.11,672.29L584.11,672.29z"/>
	</g>
</g>
<g>
	<g>
		<path d="M572.86,717.07c1.43-2.2,2.86-4.41,4.3-6.61c1.34-2.07,2.64-4.17,4.07-6.17c1.33-1.84,2.89-3.48,4.87-4.62
			c1.94-1.12,4.11-1.82,6.29-2.29c8.49-1.84,17.73,0.51,23.77,6.89c3.09,3.27,5.19,7.38,5.91,11.83c0.1,0.59,0.82,0.91,1.35,0.77
			c0.62-0.17,0.86-0.76,0.77-1.35c-1.42-8.76-7.93-16.08-16.14-19.18c-4.53-1.71-9.48-2.12-14.25-1.43
			c-4.79,0.69-9.58,2.49-12.83,6.21c-1.85,2.11-3.3,4.55-4.82,6.9c-1.72,2.65-3.45,5.3-5.17,7.95
			C570.19,717.15,572.09,718.25,572.86,717.07L572.86,717.07z"/>
	</g>
</g>
<g>
	<g>
		<path d="M621.16,713.84c0.22,1.11,0.44,2.22,0.67,3.33c0.11,0.56,0.81,0.94,1.35,0.77c0.6-0.19,0.89-0.75,0.77-1.35
			c-0.22-1.11-0.44-2.22-0.67-3.33c-0.11-0.56-0.81-0.94-1.35-0.77C621.33,712.68,621.04,713.24,621.16,713.84L621.16,713.84z"/>
	</g>
</g>
<g>
	<g>
		<path d="M633.17,744.77c1.41,0,1.42-2.2,0-2.2C631.76,742.57,631.75,744.77,633.17,744.77L633.17,744.77z"/>
	</g>
</g>
<path class="st0" d="M544.52,591.01c-24.24,7.41-126.32,39.52-123.73,72.22c1.77,22.31,50.28,35.57,77.53,43.01
	c101.73,27.79,189.98,3.69,226.75-0.53c36.48-4.19,99.28-20.97,135.41-66.38"/>
<path class="st0" d="M750.56,584.1c0,0,56.82,4.25,85.5,23.9"/>
<g>
	<g>
		<path d="M549.01,580.92c-13.15,2.58-26.19,5.86-39.11,9.39c-24.73,6.75-49.49,14.68-72.5,26.09
			c-10.17,5.04-20.25,10.86-28.66,18.57c-6.28,5.76-11.93,13.1-12.86,21.83c-1.01,9.39,4.13,17.86,10.27,24.51
			c8.44,9.14,19.5,15.65,30.71,20.79c27.59,12.64,58.2,18.57,88.09,22.73c24.04,3.34,48.28,5.33,72.53,6.14
			c3.92,0.13,7.9,0.4,11.82,0.26c4.24-0.15,8.51-0.72,12.74-1.11c25.44-2.37,50.83-5.35,76.11-9.02
			c31.49-4.57,63.17-9.92,93.74-18.94c11.68-3.45,23.49-7.41,34.15-13.4c2.1-1.18,4.13-2.46,6.09-3.85
			c4.79-3.4,9.72-6.49,14.72-9.57c8.51-5.24,16.87-11.15,23.83-18.37c3.21-3.33,6.21-7.03,8.23-11.21c0.17-0.35,1.18-2.14,1.03-2.42
			c-0.48,0.01-0.95,0.01-1.43,0.02c0.06,0.2,0.12,0.41,0.16,0.62c-0.05,0.34,0.17,0.92,0.22,1.26c0.26,1.77,0.37,3.57,0.51,5.36
			c0.11,1.4,2.31,1.41,2.2,0c-0.14-1.73-0.27-3.45-0.48-5.17c-0.13-1-0.14-2.89-1.04-3.62c-0.89-0.73-1.65-0.13-2.14,0.68
			c-1.15,1.88-1.83,4.03-3.07,5.91c-5.81,8.81-14.77,15.58-23.44,21.39c-4.1,2.75-8.41,5.17-12.56,7.84
			c-3.65,2.34-7.07,5.02-10.73,7.33c-4.51,2.85-9.35,5.18-14.27,7.23c-12.61,5.28-25.87,9.03-39.12,12.31
			c-15.62,3.87-31.42,6.99-47.27,9.73c-29.07,5.04-58.35,8.84-87.69,11.92c-8.46,0.89-16.93,1.72-25.41,2.45
			c-2.27,0.2-4.51,0.44-6.78,0.41c-18.37-0.24-36.74-1.41-55.02-3.16c-30.06-2.88-60.3-7.38-89.24-16.21
			c-13.39-4.09-26.66-9.15-38.66-16.42c-9.5-5.75-19.09-13.36-24.14-23.51c-9.23-18.57,8.71-34.08,22.9-43.05
			c21.59-13.64,46.45-22.21,70.77-29.57c17.31-5.25,34.88-9.78,52.59-13.49c0.92-0.19,1.85-0.39,2.78-0.57
			C550.98,582.77,550.39,580.65,549.01,580.92L549.01,580.92z"/>
	</g>
</g>
<path class="st0" d="M741.54,576.67c0,0,107.03-1.01,130.93,40.47"/>
<path class="st0" d="M395.3,661.1l2.12,18.59c0,0,4.78,46.2,154,58.41c115.6,9.46,209.85-14.86,246.45-26.3
	c10.72-3.35,20.96-7.96,30.59-13.73c18.78-11.25,49.7-31.48,51.16-43.52"/>
<path class="st0" d="M425.57,709.96l38.23,133.82c0,0,12.74,81.25,198.61,79.12c118.53-1.35,166.75-92.4,166.75-92.4l27.88-150.93"
	/>
<ellipse transform="matrix(0.9775 -0.2109 0.2109 0.9775 -168.3472 74.6534)" class="st0" cx="265.85" cy="826.64" rx="104.41" ry="49.53"/>
<ellipse transform="matrix(0.9775 -0.2109 0.2109 0.9775 -168.3593 74.8269)" class="st0" cx="266.65" cy="826.78" rx="111.57" ry="54.65"/>
<path class="st0" d="M166.42,868.21l30.27,68.5c0,0,32.39,38.23,92.4,15.4c0,0,62.13-23.37,73.28-70.1l6.37-52.04"/>
<path class="st0" d="M297.06,623.93c0,0-87.62,24.43-57.88,41.42s124.26,13.81,124.26,13.81s22.3-0.53,32.39-3.72"/>
<path class="st0" d="M360.78,620.75c0,0,48.32,0,62.13,3.72"/>
<path class="st0" d="M296.53,618.09c0,0-88.68,20.71-75.41,40.36c13.28,19.65,57.35,32.92,108.33,30.27
	c50.98-2.66,69.03-6.9,69.03-6.9"/>
<path class="st0" d="M353.88,611.72c0,0,71.16,1.59,77.53,5.84"/>
<path class="st0" d="M220.59,654.2c0,0-1.06,18.06,3.19,19.12s33.46,38.77,173.65,14.34"/>
<line class="st0" x1="242.36" y1="686.06" x2="266.26" y2="768.91"/>
<path class="st0" d="M374.06,823.07c0,0,52.04-3.19,67.44-53.1"/>
<g>
	<g>
		<path d="M243.93,878.21c-0.65-0.42-0.19-1.71,0.07-2.27c0.54-1.19,1.35-2.33,2.16-3.34c1.67-2.1,3.69-3.91,5.86-5.47
			c4.75-3.41,10.18-5.98,15.56-8.22c5.76-2.39,11.71-4.32,17.8-5.69c3.09-0.7,6.21-1.26,9.36-1.65c2.83-0.35,5.78-0.72,8.63-0.33
			c2.82,0.38,5.4,1.68,6.84,4.2c1.24,2.17,1.56,4.99,0.55,7.31c-0.24,0.54-0.16,1.18,0.39,1.5c0.46,0.27,1.27,0.15,1.5-0.39
			c2.24-5.17-0.08-11.53-5.31-13.79c-2.92-1.26-6.17-1.31-9.29-1.05c-3.4,0.28-6.79,0.78-10.14,1.43
			c-6.64,1.28-13.16,3.23-19.44,5.74c-5.96,2.38-11.98,5.1-17.24,8.81c-2.75,1.94-5.26,4.19-7.28,6.89
			c-1.53,2.05-4.23,6.25-1.13,8.22C244.02,880.87,245.12,878.97,243.93,878.21L243.93,878.21z"/>
	</g>
</g>
<g>
	<g>
		<path d="M269.15,870.28c5.99-2.64,12.3-5.36,19-4.9c-0.32-0.55-0.63-1.1-0.95-1.65c-0.79,1.35-1.9,2.4-3.27,3.14
			c-1.24,0.67-0.14,2.57,1.11,1.9c1.69-0.91,3.09-2.27,4.06-3.93c0.44-0.76-0.14-1.6-0.95-1.65c-7.09-0.49-13.77,2.4-20.11,5.2
			c-0.54,0.24-0.67,1.03-0.39,1.5C267.97,870.45,268.6,870.52,269.15,870.28L269.15,870.28z"/>
	</g>
</g>
<g>
	<g>
		<path d="M293.96,812.65c1.1,0.61,1.31,1.91,0.6,2.9c-0.74,1.03-1.94,1.69-2.87,2.53c-2.43,2.18-2.82,5.73-0.75,8.3
			c0.37,0.46,1.17,0.39,1.55,0c0.46-0.46,0.37-1.09,0-1.55c-0.83-1.03-0.96-2.61-0.4-3.8c0.57-1.19,1.82-1.94,2.81-2.75
			c1.05-0.86,2.01-1.93,2.23-3.32c0.27-1.68-0.58-3.38-2.06-4.21C293.83,810.06,292.73,811.96,293.96,812.65L293.96,812.65z"/>
	</g>
</g>
<g>
	<g>
		<path d="M343.23,814.32c-2.94,0.1-4.78,3.62-3.05,6.05c0.45,0.63,1.03,1.14,1.55,1.71c0.35,0.38,0.77,0.9,0.65,1.44
			c-0.07,0.32-0.42,0.57-0.85,0.78c-0.49,0.24-1.09,0.37-1.65,0.48c-0.58,0.11-0.92,0.81-0.77,1.35c0.17,0.61,0.77,0.88,1.35,0.77
			c1.2-0.23,2.55-0.64,3.38-1.6c1.07-1.25,0.88-2.9-0.06-4.16c-0.45-0.6-1.01-1.09-1.51-1.65c-0.38-0.42-0.63-0.87-0.6-1.34
			c0.04-0.79,0.78-1.61,1.55-1.64C344.64,816.47,344.65,814.27,343.23,814.32L343.23,814.32z"/>
	</g>
</g>
<g>
	<g>
		<path d="M294.36,827.11c11.59,0.12,23.18,0.25,34.77,0.37c3.28,0.04,6.56,0.07,9.85,0.11c1.41,0.02,1.41-2.18,0-2.2
			c-11.59-0.12-23.18-0.25-34.77-0.37c-3.28-0.04-6.56-0.07-9.85-0.11C292.95,824.9,292.95,827.1,294.36,827.11L294.36,827.11z"/>
	</g>
</g>
<g>
	<g>
		<path d="M297.19,812.4c11.62,1.07,23.26,1.97,34.92,2.67c3.31,0.2,6.61,0.39,9.92,0.56c1.41,0.07,1.41-2.12,0-2.2
			c-11.66-0.6-23.31-1.39-34.94-2.36c-3.3-0.28-6.6-0.57-9.9-0.87c-0.59-0.05-1.1,0.54-1.1,1.1
			C296.09,811.94,296.6,812.35,297.19,812.4L297.19,812.4z"/>
	</g>
</g>
<g>
	<g>
		<path d="M296.95,810.95c0.81-0.86,1.99-1.03,3.12-1.05c1.52-0.04,3.05,0.1,4.56,0.18c3.43,0.18,6.86,0.38,10.28,0.61
			c6.77,0.45,13.53,1,20.29,1.66c1.89,0.18,3.79,0.37,5.68,0.57c0.9,0.1,1.83,0.15,2.72,0.3c0.24,0.04,0.46,0.17,0.68,0.21
			c-0.01,0-0.01-0.05-0.01-0.05c0.03-0.07,0.03-0.03-0.02,0.1c0.07-0.2,0.21-0.3,0.44-0.3c-0.59,0.06-1.1,0.46-1.1,1.1
			c0,0.55,0.5,1.16,1.1,1.1c1.64-0.17,2.34-2.15,1.23-3.38c-0.49-0.55-1.21-0.81-1.92-0.92c-0.99-0.15-2-0.23-3-0.34
			c-3.91-0.41-7.82-0.79-11.74-1.14c-7.75-0.68-15.51-1.23-23.28-1.65c-1.97-0.11-3.96-0.3-5.92-0.25c-1.71,0.04-3.45,0.42-4.68,1.7
			C294.43,810.42,295.98,811.98,296.95,810.95L296.95,810.95z"/>
	</g>
</g>
<g>
	<g>
		<path d="M291.09,828.03c0.52,7.06,1.66,14.07,3.43,20.93c0.35,1.37,2.47,0.79,2.12-0.58c-1.72-6.67-2.84-13.48-3.35-20.35
			C293.18,826.63,290.99,826.62,291.09,828.03L291.09,828.03z"/>
	</g>
</g>
<g>
	<g>
		<path d="M338.4,828.86c0.36,5.81,0.62,11.62,0.75,17.44c0.03,1.41,2.23,1.42,2.2,0c-0.14-5.82-0.39-11.63-0.75-17.44
			C340.51,827.45,338.31,827.44,338.4,828.86L338.4,828.86z"/>
	</g>
</g>
<g>
	<g>
		<path d="M343.33,815.48c0.62,9.73,1.23,19.45,1.85,29.18c0.09,1.4,2.29,1.41,2.2,0c-0.61-9.73-1.23-19.45-1.85-29.18
			C345.43,814.08,343.24,814.07,343.33,815.48L343.33,815.48z"/>
	</g>
</g>
<g>
	<g>
		<path d="M345.03,814.33c1.72,9.6,2.36,19.37,1.95,29.11c-0.06,1.41,2.14,1.41,2.2,0c0.42-9.94-0.28-19.9-2.03-29.69
			c-0.1-0.58-0.82-0.91-1.35-0.77C345.19,813.15,344.93,813.75,345.03,814.33L345.03,814.33z"/>
	</g>
</g>
<g>
	<g>
		<path d="M339.08,828.24c-0.41,6.69-0.25,13.41,0.46,20.08c0.06,0.59,0.46,1.1,1.1,1.1c0.54,0,1.16-0.5,1.1-1.1
			c-0.71-6.67-0.87-13.38-0.46-20.08C341.36,826.83,339.16,826.83,339.08,828.24L339.08,828.24z"/>
	</g>
</g>
<g>
	<g>
		<path d="M293.35,828.12c1.41,0,1.42-2.2,0-2.2C291.93,825.93,291.93,828.12,293.35,828.12L293.35,828.12z"/>
	</g>
</g>
<g>
	<g>
		<path d="M298.01,810.48c1.41,0,1.42-2.2,0-2.2C296.6,808.28,296.6,810.48,298.01,810.48L298.01,810.48z"/>
	</g>
</g>
<g>
	<g>
		<path d="M299.82,811.25c11.75,1.09,23.52,2.07,35.29,2.94c3.32,0.24,6.63,0.48,9.95,0.7c1.41,0.1,1.4-2.1,0-2.2
			c-11.78-0.8-23.55-1.72-35.31-2.74c-3.31-0.29-6.62-0.59-9.94-0.9c-0.59-0.05-1.1,0.54-1.1,1.1
			C298.72,810.8,299.23,811.2,299.82,811.25L299.82,811.25z"/>
	</g>
</g>
<g>
	<g>
		<path d="M344.86,815.55c1.41,0,1.42-2.2,0-2.2C343.45,813.35,343.44,815.55,344.86,815.55L344.86,815.55z"/>
	</g>
</g>
<g>
	<g>
		<path d="M343.93,814.66c1.67,8.64,0.66,17.5,1.49,26.22c0.06,0.59,0.46,1.1,1.1,1.1c0.55,0,1.15-0.5,1.1-1.1
			c-0.85-8.92,0.14-17.96-1.57-26.81C345.78,812.69,343.66,813.27,343.93,814.66L343.93,814.66z"/>
	</g>
</g>
<g>
	<g>
		<path d="M293.35,826.5c1.41,0,1.42-2.2,0-2.2C291.93,824.3,291.93,826.5,293.35,826.5L293.35,826.5z"/>
	</g>
</g>
<g>
	<g>
		<path d="M310.4,853.99c2.41,1.49,3.83,4.27,3.67,7.1c-0.03,0.59,0.53,1.1,1.1,1.1c0.62,0,1.07-0.5,1.1-1.1
			c0.19-3.59-1.71-7.12-4.76-9c-0.51-0.31-1.21-0.11-1.5,0.39C309.7,853.01,309.89,853.68,310.4,853.99L310.4,853.99z"/>
	</g>
</g>
<g>
	<g>
		<path d="M311.4,854.29c1.41,0,1.42-2.2,0-2.2C309.98,852.09,309.98,854.29,311.4,854.29L311.4,854.29z"/>
	</g>
</g>
<g>
	<g>
		<path d="M306.22,851.66c0.51,0.14,1,0.31,1.49,0.51c0.06,0.02,0.12,0.05,0.18,0.07c-0.1-0.04-0.08-0.03,0.01,0.01
			c0.12,0.05,0.24,0.11,0.36,0.16c0.25,0.12,0.5,0.24,0.75,0.38c0.46,0.25,0.91,0.52,1.35,0.81c0.22,0.15,0.43,0.3,0.64,0.46
			c0.14,0.1-0.12-0.1,0.01,0.01c0.05,0.04,0.1,0.08,0.15,0.12c0.12,0.09,0.23,0.19,0.34,0.28c0.44,0.37,1.13,0.46,1.55,0
			c0.38-0.41,0.47-1.16,0-1.55c-1.83-1.55-3.95-2.71-6.26-3.37c-0.55-0.16-1.22,0.19-1.35,0.77
			C305.32,850.9,305.63,851.49,306.22,851.66L306.22,851.66z"/>
	</g>
</g>
<g>
	<g>
		<path d="M201.34,589.81c-0.39,10.83-0.18,21.67-0.05,32.51c0.13,10.81,0.19,21.63-0.51,32.43c-0.69,10.63-2.16,21.24-5.07,31.51
			c-1.48,5.22-3.39,10.27-5.5,15.27c-2.13,5.05-4.35,10.08-5.94,15.33c-2.75,9.06-3.19,19.07-8.03,27.41
			c-0.59,1.02-1.25,1.99-1.96,2.93c-0.36,0.47-0.07,1.22,0.39,1.5c0.56,0.34,1.14,0.08,1.5-0.39c5.93-7.77,6.91-17.82,9.17-27.02
			c2.59-10.57,7.95-20.15,11.28-30.47c3.31-10.24,5.09-20.92,6.01-31.62c0.93-10.8,0.99-21.66,0.9-32.5
			c-0.1-10.94-0.37-21.89-0.12-32.83c0.03-1.35,0.07-2.69,0.12-4.04C203.58,588.4,201.39,588.4,201.34,589.81L201.34,589.81z"/>
	</g>
</g>
<g>
	<g>
		<path d="M274.48,575.64c-4.26,13.8-8.51,27.61-12.77,41.41c-1.21,3.92-2.42,7.84-3.62,11.76c-0.42,1.35,1.7,1.93,2.12,0.58
			c4.26-13.81,8.52-27.62,12.77-41.44c1.21-3.91,2.41-7.82,3.62-11.73C277.02,574.87,274.9,574.29,274.48,575.64L274.48,575.64z"/>
	</g>
</g>
<g>
	<g>
		<path d="M241.52,687.2c1.88,11.55,1.13,23.36-0.6,34.88c-1.77,11.78-4.49,23.39-6.56,35.11c-1.16,6.57-2.12,13.18-2.59,19.84
			c-0.1,1.41,2.1,1.4,2.2,0c0.85-11.9,3.28-23.61,5.61-35.29c2.32-11.63,4.6-23.34,5.13-35.22c0.3-6.65,0.01-13.32-1.06-19.9
			c-0.1-0.59-0.82-0.91-1.35-0.77C241.67,686.02,241.43,686.62,241.52,687.2L241.52,687.2z"/>
	</g>
</g>
<g>
	<g>
		<path d="M204.58,771.74c0.8,8.64-4.4,16.09-9.33,22.66c-0.36,0.47-0.08,1.23,0.39,1.5c0.56,0.33,1.14,0.08,1.5-0.39
			c5.16-6.87,10.47-14.74,9.63-23.77c-0.05-0.59-0.47-1.1-1.1-1.1C205.12,770.64,204.52,771.15,204.58,771.74L204.58,771.74z"/>
	</g>
</g>
<g>
	<g>
		<path d="M198,771.83c0.21,5.07,0.45,10.13,0.53,15.21c0.02,1.41,2.22,1.42,2.2,0c-0.08-5.07-0.32-10.14-0.53-15.21
			C200.14,770.42,197.94,770.41,198,771.83L198,771.83z"/>
	</g>
</g>
<g>
	<g>
		<path d="M202.73,770.28c-0.37,3.79,0.18,7.6-0.18,11.4c-0.06,0.59,0.54,1.1,1.1,1.1c0.64,0,1.04-0.51,1.1-1.1
			c0.36-3.79-0.19-7.6,0.18-11.4c0.06-0.59-0.55-1.1-1.1-1.1C203.19,769.19,202.79,769.69,202.73,770.28L202.73,770.28z"/>
	</g>
</g>
<g>
	<g>
		<path d="M168.12,761.3c4.35-0.08,8.5,1.41,12.44,3.11c4.15,1.79,8.24,3.73,12.25,5.83c1.99,1.04,3.94,2.19,5.44,3.89
			c0.94,1.06,2.49-0.5,1.55-1.55c-1.38-1.56-3.14-2.73-4.96-3.73c-2.01-1.11-4.08-2.11-6.15-3.11c-4.21-2.03-8.51-4.13-12.99-5.48
			c-2.46-0.74-5.01-1.19-7.58-1.15C166.71,759.13,166.7,761.32,168.12,761.3L168.12,761.3z"/>
	</g>
</g>
<g>
	<g>
		<path d="M172.34,753.81c7.93,0.73,15.71,3.06,22.74,6.79c2.02,1.07,3.97,2.26,5.86,3.54c1.17,0.8,2.27-1.1,1.11-1.9
			c-6.81-4.65-14.57-7.93-22.64-9.59c-2.33-0.48-4.69-0.82-7.07-1.04c-0.59-0.05-1.1,0.54-1.1,1.1
			C171.24,753.35,171.75,753.75,172.34,753.81L172.34,753.81z"/>
	</g>
</g>
<g>
	<g>
		<path d="M235.03,759.95c-8.88-4.5-19.91,0.04-26.71,6.3c-1.96,1.8-3.67,3.87-5.12,6.1c-0.77,1.19,1.13,2.29,1.9,1.11
			c4.61-7.11,12.81-12.73,21.45-13.08c2.54-0.1,5.09,0.31,7.37,1.46C235.18,762.48,236.29,760.59,235.03,759.95L235.03,759.95z"/>
	</g>
</g>
<g>
	<g>
		<path d="M203.29,764.34c6.96-5.16,15.08-8.64,23.63-10.07c2.57-0.43,5.24-0.69,7.81-0.19c1.38,0.27,1.97-1.85,0.58-2.12
			c-4.69-0.91-9.68,0.1-14.23,1.33c-4.34,1.17-8.55,2.87-12.49,5.03c-2.23,1.22-4.37,2.6-6.42,4.11c-0.48,0.35-0.72,0.95-0.39,1.5
			C202.06,764.41,202.81,764.69,203.29,764.34L203.29,764.34z"/>
	</g>
</g>
<g>
	<g>
		<path d="M173.58,748.32c-0.7,1.73-1.76,3.29-2.78,4.84c-1.17,1.77-2.33,3.54-3.5,5.32c-2.31,3.51-4.61,7.02-6.92,10.53
			c-0.78,1.18,1.12,2.29,1.9,1.11c2.35-3.58,4.71-7.16,7.06-10.74c1.17-1.77,2.33-3.54,3.5-5.32c1.09-1.65,2.12-3.31,2.86-5.15
			c0.22-0.55-0.24-1.21-0.77-1.35C174.3,747.38,173.8,747.77,173.58,748.32L173.58,748.32z"/>
	</g>
</g>
<g>
	<g>
		<path d="M171.77,775.17c-2.92,2.85-5.59,5.99-7.72,9.48c-1.06,1.73-2.13,3.61-2.53,5.63c-0.2,1-0.28,2.06-0.03,3.06
			c0.25,0.99,0.89,1.68,1.71,2.25c1.87,1.31,4.14,1.99,6.4,2.09c1.41,0.07,1.41-2.13,0-2.2c-1.11-0.05-2.19-0.28-3.23-0.68
			c-0.82-0.32-1.9-0.78-2.48-1.47c-0.6-0.71-0.39-1.97-0.19-2.79c0.26-1.09,0.73-2.1,1.26-3.08c2.17-4.03,5.1-7.56,8.36-10.75
			C174.33,775.73,172.78,774.18,171.77,775.17L171.77,775.17z"/>
	</g>
</g>
<g>
	<g>
		<path d="M173.18,773.55c-0.31,0.4-0.62,0.79-0.92,1.19c-0.11,0.1-0.18,0.22-0.23,0.35c-0.07,0.13-0.1,0.27-0.09,0.42
			c-0.01,0.15,0.03,0.29,0.09,0.42c0.04,0.14,0.12,0.25,0.23,0.35c0.21,0.19,0.48,0.33,0.78,0.32c0.1-0.01,0.19-0.03,0.29-0.04
			c0.19-0.05,0.35-0.15,0.48-0.28c0.31-0.4,0.62-0.79,0.92-1.19c0.11-0.1,0.18-0.22,0.23-0.35c0.07-0.13,0.1-0.27,0.09-0.42
			c0.01-0.15-0.03-0.29-0.09-0.42c-0.04-0.14-0.12-0.25-0.23-0.35c-0.21-0.19-0.48-0.33-0.78-0.32c-0.1,0.01-0.19,0.03-0.29,0.04
			C173.48,773.32,173.32,773.41,173.18,773.55L173.18,773.55z"/>
	</g>
</g>
<g>
	<g>
		<path d="M184.2,776.21c-2.21,3.56-4.55,7.04-7.01,10.44c-1.22,1.68-2.47,3.34-3.75,4.98c-1.1,1.42-1.97,3.08-1.29,4.9
			c1.23,3.28,5.49,4.79,8.68,5.12c1.75,0.18,3.57-0.1,5.12-0.95c1.64-0.91,2.77-2.44,3.82-3.95c2.7-3.87,5.17-7.9,7.4-12.05
			c0.67-1.24-1.23-2.35-1.9-1.11c-1.82,3.39-3.8,6.69-5.93,9.89c-0.97,1.46-1.91,3.03-3.15,4.28c-1.06,1.07-2.41,1.66-3.91,1.74
			c-1.56,0.08-3.1-0.27-4.54-0.85c-1.24-0.49-2.63-1.23-3.33-2.42c-0.82-1.38,0.24-2.61,1.08-3.68c1.17-1.51,2.32-3.04,3.45-4.59
			c2.51-3.46,4.89-7.01,7.15-10.63C186.84,776.12,184.94,775.01,184.2,776.21L184.2,776.21z"/>
	</g>
</g>
<g>
	<g>
		<path d="M170.27,797.98c0.2-0.02,0.41-0.04,0.61-0.1c0.2-0.05,0.38-0.13,0.57-0.22c0.29-0.13,0.55-0.32,0.79-0.53
			c0.11-0.1,0.18-0.22,0.23-0.35c0.07-0.13,0.1-0.27,0.09-0.42c0.01-0.15-0.03-0.29-0.09-0.42c-0.04-0.14-0.12-0.25-0.23-0.35
			c-0.21-0.19-0.48-0.33-0.78-0.32c-0.1,0.01-0.19,0.03-0.29,0.04c-0.19,0.05-0.35,0.15-0.48,0.28c-0.03,0.03-0.06,0.05-0.09,0.08
			c0.07-0.06,0.15-0.11,0.22-0.17c-0.15,0.11-0.31,0.21-0.48,0.28c0.09-0.04,0.17-0.07,0.26-0.11c-0.18,0.07-0.36,0.13-0.55,0.15
			c0.1-0.01,0.19-0.03,0.29-0.04c-0.03,0-0.05,0.01-0.08,0.01c-0.15-0.01-0.29,0.03-0.42,0.09c-0.14,0.04-0.25,0.12-0.35,0.23
			c-0.11,0.1-0.18,0.22-0.23,0.35c-0.07,0.13-0.1,0.27-0.09,0.42c0.01,0.1,0.03,0.19,0.04,0.29c0.05,0.19,0.15,0.35,0.28,0.48
			c0.07,0.06,0.15,0.11,0.22,0.17C169.88,797.93,170.07,797.98,170.27,797.98L170.27,797.98z"/>
	</g>
</g>
<g>
	<g>
		<path d="M166.19,770.38c-1.17,1.44-2.34,2.87-3.51,4.31c-1.05,1.28-2.13,2.56-3,3.98c-1.66,2.69-2.45,6.12-0.83,9.02
			c0.69,1.23,2.59,0.13,1.9-1.11c-1.35-2.42-0.23-5.24,1.18-7.34c0.79-1.18,1.72-2.27,2.62-3.37c1.07-1.31,2.13-2.62,3.2-3.93
			c0.37-0.46,0.45-1.1,0-1.55C167.36,769.99,166.57,769.92,166.19,770.38L166.19,770.38z"/>
	</g>
</g>
<g>
	<g>
		<path d="M160.35,788.72c0.66,0.44,1.32,0.88,1.98,1.32c0.23,0.15,0.59,0.18,0.85,0.11c0.25-0.07,0.53-0.27,0.66-0.5
			c0.13-0.25,0.2-0.56,0.11-0.85c-0.09-0.28-0.26-0.49-0.5-0.66c-0.66-0.44-1.32-0.88-1.98-1.32c-0.23-0.15-0.59-0.18-0.85-0.11
			c-0.25,0.07-0.53,0.27-0.66,0.5c-0.13,0.25-0.2,0.56-0.11,0.85C159.94,788.35,160.1,788.56,160.35,788.72L160.35,788.72z"/>
	</g>
</g>
<g>
	<g>
		<path d="M161.73,766.7c-1.56,2.08-2.91,4.32-4.02,6.67c-0.55,1.16-1.21,2.41-1.05,3.74c0.16,1.28,1.02,2.24,1.92,3.08
			c1.03,0.97,2.58-0.58,1.55-1.55c-0.62-0.59-1.44-1.27-1.29-2.22c0.16-1,0.79-2.02,1.24-2.91c1.01-2,2.2-3.9,3.55-5.7
			c0.36-0.48,0.08-1.23-0.39-1.5C162.67,765.97,162.08,766.22,161.73,766.7L161.73,766.7z"/>
	</g>
</g>
<g>
	<g>
		<path d="M164.14,763.08c-5.85,6.09-11.83,12.63-13.2,21.28c-0.7,4.44-0.7,9.27,1.64,13.25c2.11,3.6,5.58,6.34,9.02,8.59
			c4.06,2.66,8.58,4.63,13.28,5.83c1.37,0.35,1.95-1.77,0.58-2.12c-3.94-1.01-7.7-2.56-11.19-4.64c-3.29-1.96-6.68-4.38-8.96-7.51
			c-1.17-1.61-1.97-3.38-2.32-5.34c-0.38-2.09-0.3-4.29-0.07-6.4c0.44-4.08,1.96-7.86,4.19-11.27c2.43-3.72,5.52-6.94,8.59-10.14
			C166.68,763.62,165.13,762.06,164.14,763.08L164.14,763.08z"/>
	</g>
</g>
<g>
	<g>
		<path d="M152.06,781.62c-1.3,5.98-1.78,12.31-0.96,18.39c0.38,2.81,1.29,5.39,3.07,7.63c1.55,1.95,3.56,3.49,5.63,4.84
			c2.7,1.76,5.55,3.31,8.35,4.9c1.23,0.7,2.34-1.2,1.11-1.9c-2.44-1.38-4.89-2.75-7.27-4.22c-1.97-1.21-3.88-2.54-5.46-4.24
			c-1.73-1.85-2.71-4.06-3.15-6.55c-0.49-2.77-0.51-5.67-0.42-8.48c0.11-3.3,0.52-6.57,1.22-9.8
			C154.48,780.82,152.36,780.23,152.06,781.62L152.06,781.62z"/>
	</g>
</g>
<g>
	<g>
		<path d="M466.37,531.39c2.54,8.85,5.09,17.69,7.63,26.54c1.24,4.32,2.48,8.65,3.49,13.03c1.01,4.37,1.58,8.83,2.74,13.16
			c1.21,4.52,3.49,8.84,3.83,13.56c0.1,1.4,2.3,1.41,2.2,0c-0.3-4.29-2.05-8.19-3.35-12.24c-1.36-4.25-1.93-8.68-2.85-13.03
			c-1.9-8.96-4.71-17.74-7.24-26.54c-1.44-5.02-2.89-10.04-4.33-15.07C468.1,529.45,465.98,530.03,466.37,531.39L466.37,531.39z"/>
	</g>
</g>
<g>
	<g>
		<path d="M530.89,538.3c1.29,12.07,2.85,24.14,3.39,36.27c0.16,3.47,0.21,6.95,0.14,10.42c-0.03,1.41,2.17,1.41,2.2,0
			c0.25-12.17-1.14-24.29-2.43-36.38c-0.37-3.44-0.74-6.88-1.11-10.31c-0.06-0.59-0.46-1.1-1.1-1.1
			C531.44,537.2,530.82,537.7,530.89,538.3L530.89,538.3z"/>
	</g>
</g>
<g>
	<g>
		<path d="M275.5,570.44c-0.06,2.58-0.54,5.1-1.41,7.53c-0.2,0.56,0.23,1.2,0.77,1.35c0.61,0.17,1.15-0.21,1.35-0.77
			c0.93-2.6,1.42-5.35,1.48-8.12c0.01-0.59-0.51-1.1-1.1-1.1C275.99,569.34,275.52,569.84,275.5,570.44L275.5,570.44z"/>
	</g>
</g>
<g>
	<g>
		<path d="M510.36,531.42c6.13,1.32,12.25,2.82,18.14,4.98c2.62,0.96,5.28,2.14,7.34,4.08c1.74,1.64,3.12,3.87,3.17,6.32
			c0.05,2.4-1.34,4.96-3.72,5.69c-1.35,0.41-0.77,2.53,0.58,2.12c2.62-0.81,4.52-3.13,5.12-5.77c0.62-2.78-0.22-5.67-1.87-7.93
			c-1.83-2.51-4.42-4.25-7.24-5.5c-3.07-1.37-6.32-2.38-9.54-3.3c-3.76-1.08-7.57-1.97-11.39-2.8
			C509.57,529.01,508.98,531.12,510.36,531.42L510.36,531.42z"/>
	</g>
</g>
<g>
	<g>
		<path d="M209.89,278.63c10.34,30.84,15.24,63.42,14.39,95.93c-0.4,15.46-1.85,30.98-5.78,45.97
			c-3.11,11.87-7.74,23.23-11.83,34.78c-4.44,12.54-7.73,25.36-9.11,38.61c-0.88,8.44-1.64,16.88-2.65,25.31
			c-1.02,8.51-2.1,17-3.04,25.52c-0.94,8.53-1.81,17.07-2.31,25.63c-0.29,4.93-1.2,10.95,0.82,15.66c1.99,4.62,6.93,5.64,11.49,5.88
			c7.79,0.4,15.65,0.72,23.41-0.26c7.31-0.92,14.13-3.18,20.54-6.8c5.91-3.33,11.37-7.39,17.17-10.89c2.88-1.74,5.84-3.36,8.97-4.61
			c1.49-0.6,3.01-1.11,4.56-1.53c1.91-0.52,4.17-1.15,6.1-0.41c2.46,0.94,3.17,3.85,2.83,6.23c-0.43,2.98-2.4,5.06-5.02,6.39
			c-3.03,1.54-6.54,1.98-9.88,2.37c-1.39,0.16-1.4,2.36,0,2.2c5.77-0.69,13.42-1.74,16.18-7.71c1.92-4.15,1.06-10.47-4.05-11.75
			c-3.23-0.81-6.95,0.48-9.97,1.58c-3.11,1.13-6.09,2.59-8.95,4.24c-5.95,3.41-11.46,7.53-17.36,11.02
			c-6.65,3.95-13.7,6.56-21.4,7.51c-7.97,0.99-16.17,0.72-24.16,0.17c-2.4-0.17-5.11-0.62-6.94-2.32c-1.46-1.36-2.04-3.34-2.28-5.27
			c-0.33-2.65-0.16-5.37-0.04-8.03c0.19-4.28,0.5-8.55,0.86-12.82c1.5-17.43,3.95-34.76,5.85-52.15c0.89-8.16,1.38-16.37,2.75-24.47
			c1.12-6.61,2.72-13.12,4.7-19.52c3.65-11.84,8.54-23.24,12.29-35.05c4.45-13.99,6.8-28.31,7.85-42.94
			c2.34-32.7-1.15-65.84-10.21-97.35c-1.13-3.93-2.35-7.83-3.65-11.7C211.56,276.71,209.44,277.28,209.89,278.63L209.89,278.63z"/>
	</g>
</g>
<g>
	<g>
		<path d="M498.91,311.37c0.15,15.75,2.24,31.41,5.28,46.85c3.06,15.59,7.06,30.97,10.94,46.37c3.88,15.41,7.67,30.86,10.31,46.54
			c1.34,7.96,2.35,15.96,2.97,24.01c0.63,8.22,0.99,16.48,2.06,24.66c0.52,4.02,1.2,8.02,2.16,11.96c0.93,3.79,2.15,7.5,3.34,11.22
			c2.29,7.2,4.79,14.93,3.66,22.58c-0.27,1.83-0.77,3.61-1.45,5.33c-0.52,1.31,1.6,1.88,2.12,0.58c2.79-7.06,1.84-14.69-0.05-21.84
			c-2.03-7.69-4.95-15.09-6.46-22.92c-1.59-8.22-2.13-16.6-2.7-24.94c-0.55-8.06-1.25-16.09-2.4-24.08
			c-2.26-15.72-5.84-31.22-9.66-46.63c-3.85-15.5-7.96-30.94-11.3-46.56c-3.32-15.55-5.85-31.31-6.46-47.22
			c-0.08-1.97-0.12-3.94-0.14-5.91C501.09,309.96,498.89,309.95,498.91,311.37L498.91,311.37z"/>
	</g>
</g>
<g>
	<g>
		<path d="M546.02,409.36c-6.41,6.84-14.56,13.12-16.52,22.81c-0.87,4.32-0.45,9.13,2.25,12.76c0.69,0.92,1.51,1.78,2.56,2.29
			c1.2,0.58,2.53,0.72,3.84,0.75c2.48,0.07,4.97-0.26,7.37-0.88c5.44-1.39,10.43-4.18,15.12-7.19c1.19-0.76,0.09-2.66-1.11-1.9
			c-3.91,2.5-7.98,4.86-12.4,6.32c-2.13,0.71-4.34,1.22-6.59,1.39c-2.1,0.15-4.69,0.35-6.31-1.24c-2.81-2.77-3.37-7.34-2.75-11.05
			c0.71-4.26,2.78-8.06,5.47-11.39c3.23-4,7.11-7.4,10.61-11.14C548.54,409.88,546.99,408.33,546.02,409.36L546.02,409.36z"/>
	</g>
</g>
<g>
	<g>
		<path d="M547.73,410.86c4.31-6.4,10.67-11.45,17.91-14.14c8.27-3.08,17.56-3.13,25.86-0.12c1.91,0.69,3.95,1.64,5.19,3.31
			c1.02,1.38,1.54,3.64,0.37,5.1c-0.37,0.46-0.45,1.1,0,1.55c0.38,0.38,1.18,0.47,1.55,0c1.33-1.66,1.61-3.82,0.94-5.82
			c-0.69-2.05-2.22-3.61-4.05-4.7c-1.96-1.17-4.21-1.9-6.4-2.49c-2.34-0.63-4.74-1.03-7.15-1.23c-9.18-0.76-18.5,1.77-26.01,7.1
			c-3.97,2.82-7.39,6.31-10.11,10.35C545.04,410.93,546.94,412.03,547.73,410.86L547.73,410.86z"/>
	</g>
</g>
<g>
	<g>
		<path d="M562.45,438.6c1.41,0,1.42-2.2,0-2.2C561.04,436.4,561.04,438.6,562.45,438.6L562.45,438.6z"/>
	</g>
</g>
<g>
	<g>
		<path d="M532.5,444.1c-6.57-5.72-5.46-15.39-5.47-23.19c-0.01-9.32-0.96-18.6-1.84-27.87c-0.84-8.83-1.75-17.67-3.32-26.4
			c-1.57-8.72-3.88-17.27-7.28-25.46c-3.36-8.11-7.52-15.85-11.78-23.52c-0.53-0.95-1.06-1.91-1.59-2.86
			c-0.69-1.23-2.59-0.13-1.9,1.11c4.28,7.69,8.57,15.39,12.12,23.45c3.56,8.1,6.1,16.55,7.81,25.23c1.72,8.71,2.68,17.55,3.54,26.38
			c0.9,9.27,1.88,18.56,2.02,27.88c0.13,8.28-1.23,17.75,4.21,24.77c0.58,0.74,1.21,1.42,1.92,2.04
			C532.01,446.58,533.57,445.03,532.5,444.1L532.5,444.1z"/>
	</g>
</g>
<g>
	<g>
		<path d="M575.65,248.47c0.62,9.95,3.61,19.49,7.47,28.62c3.94,9.29,8.76,18.17,13.19,27.23c4.29,8.78,8.27,17.83,10.37,27.42
			c1.03,4.73,1.57,9.57,1.45,14.42c-0.14,5.74-1.26,11.38-2.68,16.92c-2.9,11.27-7.15,22.44-7.26,34.21
			c-0.01,1.41,0.04,2.82,0.16,4.23c0.11,1.4,2.31,1.41,2.2,0c-0.96-11.76,2.96-23.06,6.05-34.23c1.56-5.63,2.94-11.34,3.5-17.17
			c0.48-5.03,0.24-10.09-0.55-15.07c-1.54-9.68-5.21-18.87-9.34-27.7c-4.28-9.14-9.14-17.99-13.33-27.18
			c-4.06-8.92-7.54-18.31-8.7-28.1c-0.14-1.19-0.25-2.39-0.32-3.59C577.76,247.07,575.56,247.06,575.65,248.47L575.65,248.47z"/>
	</g>
</g>
<g>
	<g>
		<path d="M532.02,133.43c1.4,7.49,5.84,13.8,10.76,19.43c5.04,5.76,10.73,11.01,15.15,17.29c2.51,3.57,4.43,7.43,5.78,11.58
			c1.52,4.71,2.41,9.6,3.18,14.48c1.57,9.87,2.53,19.82,3.98,29.7c1.44,9.8,3.36,19.58,6.81,28.88c0.42,1.14,0.87,2.27,1.33,3.38
			c0.23,0.55,0.73,0.94,1.35,0.77c0.52-0.14,1-0.8,0.77-1.35c-3.81-9.17-6.02-18.89-7.58-28.66c-1.58-9.86-2.55-19.81-3.99-29.7
			c-1.38-9.48-2.95-19.27-8.01-27.59c-4.03-6.62-9.65-12.07-14.86-17.74c-4.95-5.38-9.85-11.24-11.92-18.4
			c-0.25-0.88-0.46-1.77-0.63-2.67c-0.11-0.58-0.81-0.91-1.35-0.77C532.17,132.25,531.91,132.85,532.02,133.43L532.02,133.43z"/>
	</g>
</g>
<g>
	<g>
		<path d="M442.78,352.96c5.52-1.35,11.22-2.76,16-5.96c4.12-2.76,7.28-6.59,10.07-10.64c2.81-4.08,5.26-8.4,8.23-12.37
			c3.15-4.21,7.04-7.82,11.32-10.86c5-3.55,10.45-6.4,16-8.98c0.54-0.25,0.67-1.02,0.39-1.5c-0.32-0.55-0.96-0.64-1.5-0.39
			c-9.75,4.53-19.47,10.05-26.41,18.46c-6.17,7.47-9.93,17.05-17.61,23.23c-4.89,3.93-11.1,5.45-17.07,6.91
			C440.82,351.17,441.4,353.29,442.78,352.96L442.78,352.96z"/>
	</g>
</g>
<g>
	<g>
		<path d="M500.36,314.92c1.78-3.49,3.55-6.99,5.35-10.46c1.52-2.94,3.18-5.91,5.71-8.11c1.38-1.2,3.02-2.06,4.54-3.07
			c1.53-1.02,2.9-2.23,4.17-3.55c2.76-2.85,5.38-5.85,8.05-8.78c3.06-3.35,6.12-6.7,9.18-10.05c0.95-1.04-0.6-2.6-1.55-1.55
			c-5.48,6-10.92,12.05-16.45,18c-1.27,1.37-2.6,2.71-4.14,3.78c-1.47,1.02-3.06,1.86-4.48,2.96c-2.73,2.09-4.63,4.99-6.25,7.98
			c-2.09,3.87-4.02,7.83-6.02,11.74C497.83,315.07,499.72,316.18,500.36,314.92L500.36,314.92z"/>
	</g>
</g>
<g>
	<g>
		<path d="M349.46,144.68c-1.48,6.85-2.51,13.79-3.07,20.78c-0.55,6.89-0.82,13.93-0.17,20.83c0.32,3.36,0.9,6.69,1.94,9.9
			c0.95,2.94,2.23,5.78,3.71,8.49c3,5.47,6.82,10.44,10.67,15.32c7.07,8.96,14.25,17.96,22.71,25.67
			c8.28,7.55,17.97,13.84,28.98,16.47c11.78,2.81,24.48,1.34,35.35-3.99c1.32-0.65,2.6-1.35,3.86-2.11c1.21-0.73,0.11-2.63-1.11-1.9
			c-10,6.04-22.16,8.44-33.72,6.62c-10.98-1.72-20.84-7.25-29.23-14.38c-8.51-7.23-15.68-15.87-22.62-24.58
			c-7.44-9.33-15.44-19.03-17.74-31.08c-1.26-6.6-1.1-13.49-0.78-20.17c0.32-6.8,1.09-13.58,2.31-20.28c0.31-1.68,0.64-3.35,1-5.02
			C351.88,143.88,349.76,143.3,349.46,144.68L349.46,144.68z"/>
	</g>
</g>
<g>
	<g>
		<path d="M253.03,148.9c4.38,7.4,6,16.38,4.53,24.85c-0.42,2.43-1.09,4.8-1.98,7.09c-0.22,0.55,0.24,1.21,0.77,1.35
			c0.62,0.17,1.13-0.21,1.35-0.77c3.31-8.46,3.41-18.12,0.44-26.69c-0.84-2.41-1.91-4.75-3.21-6.95
			C254.2,146.58,252.3,147.68,253.03,148.9L253.03,148.9z"/>
	</g>
</g>
<g>
	<g>
		<path d="M263.15,168.17c-11.13,15.2-14.98,34.04-16.39,52.48c-0.75,9.83-0.85,19.69-0.98,29.54c-0.15,11.44-0.22,22.88,0.29,34.31
			c1,22.48,4.01,44.8,5.99,67.2c1.98,22.37,2.98,45.05-0.31,67.35c-3.2,21.69-10.8,42.32-19.06,62.52
			c-1.03,2.51-2.07,5.02-3.11,7.52c-0.54,1.3,1.58,1.87,2.12,0.58c8.34-20.09,16.56-40.44,20.76-61.87
			c4.26-21.7,4.18-43.94,2.61-65.91c-1.6-22.44-4.68-44.74-6.22-67.18c-0.77-11.26-1.03-22.52-0.97-33.8
			c0.05-10.33,0.12-20.68,0.55-31.01c0.78-18.75,3.08-38.33,12.78-54.8c1.18-2,2.47-3.94,3.84-5.82
			C265.88,168.14,263.98,167.04,263.15,168.17L263.15,168.17z"/>
	</g>
</g>
<g>
	<g>
		<path d="M320.08,277.13c5.14,12.41,9.47,25.16,12.75,38.18c3.27,12.96,5.51,26.19,6.45,39.53c0.97,13.7,0.18,27.36-0.4,41.05
			c-0.58,13.68-0.73,27.52,2.2,40.97c2.81,12.93,8.5,24.99,14.41,36.75c0.75,1.49,1.5,2.98,2.26,4.47c0.64,1.26,2.53,0.15,1.9-1.11
			c-5.98-11.79-12.01-23.69-15.44-36.52c-3.54-13.27-3.75-27.06-3.28-40.7c0.47-13.67,1.5-27.31,0.79-40.99
			c-0.69-13.3-2.66-26.52-5.67-39.48c-3.01-12.96-7.07-25.67-11.95-38.05c-0.62-1.57-1.25-3.13-1.9-4.69
			C321.66,275.25,319.54,275.82,320.08,277.13L320.08,277.13z"/>
	</g>
</g>
<g>
	<g>
		<path d="M231.69,491.53c6.96,6.05,16.01,8.55,24.86,10.34c10.39,2.1,20.88,4.03,31.44,5.01c10.34,0.96,20.93,0.89,31.09-1.44
			c8.05-1.85,15.86-5.17,22.6-9.97c6.62-4.71,12.28-10.9,15.68-18.34c0.43-0.95,0.83-1.91,1.19-2.88c0.21-0.56-0.23-1.2-0.77-1.35
			c-0.62-0.17-1.14,0.21-1.35,0.77c-2.76,7.37-7.82,13.64-13.96,18.48c-6.27,4.94-13.69,8.42-21.37,10.52
			c-9.49,2.59-19.46,2.97-29.23,2.33c-10.54-0.69-20.95-2.61-31.32-4.57c-8.57-1.63-17.52-3.44-24.82-8.51
			c-0.86-0.6-1.69-1.25-2.48-1.93C232.18,489.06,230.62,490.61,231.69,491.53L231.69,491.53z"/>
	</g>
</g>
<g>
	<g>
		<path d="M207.55,183.42c-0.36,9.99-2.39,19.88-5.99,29.2c-1.77,4.59-4.07,8.91-6.19,13.34c-2.07,4.34-3.86,8.85-4.29,13.67
			c-0.86,9.6,3.78,18.66,8.89,26.45c2.58,3.93,5.34,7.74,8.13,11.52c2.78,3.76,5.64,7.46,8.67,11.03c6,7.09,12.67,13.67,20.33,18.96
			c0.93,0.64,1.87,1.26,2.83,1.86c1.2,0.75,2.3-1.14,1.11-1.9c-7.75-4.88-14.5-11.15-20.56-17.99
			c-6.06-6.85-11.51-14.26-16.71-21.78c-5.2-7.52-10.46-16.06-10.6-25.49c-0.15-9.64,5.82-17.87,9.42-26.42
			c3.85-9.15,6.2-18.91,6.95-28.81c0.09-1.22,0.16-2.44,0.2-3.66C209.8,182.01,207.6,182.01,207.55,183.42L207.55,183.42z"/>
	</g>
</g>
<g>
	<g>
		<path d="M242.58,309.36c1.41,0,1.42-2.2,0-2.2C241.17,307.17,241.17,309.36,242.58,309.36L242.58,309.36z"/>
	</g>
</g>
<g>
	<g>
		<path d="M210.67,185.39c-1.81-13.1-0.18-26.47,3.84-39.02c4.09-12.78,10.59-24.74,18.54-35.52c7.91-10.74,17.37-20.51,27.95-28.65
			c10.7-8.23,22.74-14.81,35.72-18.63c13.63-4,28.26-5.04,42.21-2.07c1.72,0.37,3.43,0.8,5.13,1.28c1.36,0.39,1.94-1.73,0.58-2.12
			c-14.02-4.01-28.98-3.91-43.13-0.62c-13.63,3.16-26.43,9.35-37.8,17.44c-11.12,7.9-21.04,17.55-29.49,28.25
			c-8.5,10.76-15.54,22.71-20.29,35.59c-4.65,12.63-7,26.21-5.92,39.67c0.13,1.66,0.32,3.32,0.55,4.97
			c0.08,0.59,0.83,0.91,1.35,0.77C210.54,186.57,210.75,185.98,210.67,185.39L210.67,185.39z"/>
	</g>
</g>
<g>
	<g>
		<path d="M240.13,308.99c3.99,2.35,6.87,6.28,7.95,10.78c0.33,1.37,2.45,0.79,2.12-0.58c-1.21-5.04-4.5-9.46-8.96-12.09
			C240.02,306.38,238.91,308.27,240.13,308.99L240.13,308.99z"/>
	</g>
</g>
<g>
	<g>
		<path d="M343.02,351.36c1.99,2.89,5.03,4.6,8.26,5.79c3.48,1.28,7.14,2.16,10.74,2.98c7.5,1.7,15.14,2.76,22.82,3.2
			c7.69,0.44,15.41,0.24,23.07-0.58c7.68-0.83,15.3-2.26,22.75-4.32c7.44-2.06,14.71-4.75,21.7-8.03c0.85-0.4,1.7-0.81,2.54-1.22
			c1.27-0.63,0.16-2.52-1.11-1.9c-6.72,3.32-13.72,6.06-20.9,8.22c-7.17,2.15-14.53,3.74-21.96,4.7c-7.46,0.97-14.99,1.33-22.51,1.1
			c-7.49-0.24-14.96-1.07-22.31-2.53c-3.69-0.73-7.35-1.62-10.96-2.66c-3.05-0.88-6.29-1.93-8.7-4.1c-0.58-0.52-1.1-1.1-1.54-1.74
			C344.12,349.09,342.21,350.19,343.02,351.36L343.02,351.36z"/>
	</g>
</g>
<g>
	<g>
		<path d="M458.44,224.94c-3.31-1.07-6.6,0.7-7.89,3.83c-1.12,2.71-0.65,5.82,1,8.21c1.92,2.78,4.91,4.54,8.01,5.71
			c3.5,1.33,7.31,1.81,11.02,1.25c3.74-0.57,7.31-2.34,9.94-5.07c0.98-1.02-0.57-2.57-1.55-1.55c-4.28,4.46-10.83,5.54-16.65,3.96
			c-4.54-1.23-10.91-4.58-10.14-10.22c0.16-1.17,0.66-2.33,1.51-3.16c1.11-1.07,2.71-1.31,4.15-0.84
			C459.2,227.5,459.78,225.38,458.44,224.94L458.44,224.94z"/>
	</g>
</g>
<g>
	<g>
		<path d="M487.98,200.06c2.03-1.98,4.25-4.11,7.09-4.82c2.1-0.53,4.8-0.12,6.1,1.78c0.79,1.16,2.7,0.06,1.9-1.11
			c-1.79-2.62-5.06-3.45-8.07-2.9c-3.42,0.63-6.16,3.15-8.56,5.5C485.41,199.49,486.96,201.05,487.98,200.06L487.98,200.06z"/>
	</g>
</g>
<g>
	<g>
		<path d="M418.46,198c4.43-0.07,8.87-0.19,13.3-0.21c2.2-0.01,4.37,0.1,6.53,0.5c2.12,0.4,4.26,0.9,6.33,1.52
			c2.03,0.61,3.76,1.74,4.92,3.54c0.76,1.19,2.66,0.09,1.9-1.11c-1.06-1.65-2.54-3.02-4.33-3.84c-2.06-0.94-4.37-1.39-6.57-1.89
			c-2.33-0.52-4.68-0.86-7.07-0.92c-2.34-0.06-4.68,0.02-7.01,0.06c-2.67,0.04-5.34,0.09-8.01,0.13
			C417.05,195.83,417.05,198.03,418.46,198L418.46,198z"/>
	</g>
</g>
<g>
	<g>
		<path d="M425.45,202.69c3.17,0.4,6.31,1.19,9.3,2.3c1.31,0.49,2.63,1.02,3.84,1.73c0.99,0.58,1.99,1.37,2.44,2.46
			c0.22,0.55,0.73,0.94,1.35,0.77c0.52-0.14,0.99-0.8,0.77-1.35c-1.23-3.03-4.3-4.36-7.16-5.48c-3.39-1.33-6.93-2.18-10.54-2.63
			c-0.59-0.07-1.1,0.56-1.1,1.1C424.36,202.25,424.86,202.62,425.45,202.69L425.45,202.69z"/>
	</g>
</g>
<g>
	<g>
		<path d="M443.3,244.23c6.2,4.13,13.79,6.08,21.21,5.44c0.59-0.05,1.1-0.47,1.1-1.1c0-0.55-0.5-1.15-1.1-1.1
			c-7.08,0.62-14.19-1.2-20.11-5.14C443.23,241.55,442.13,243.45,443.3,244.23L443.3,244.23z"/>
	</g>
</g>
<g>
	<g>
		<path d="M385.59,197.94c3.66,5.89,7.29,11.8,11.02,17.64c3.48,5.45,7.12,10.81,11.16,15.86c7.8,9.73,17.38,18.16,29.13,22.7
			c6.36,2.46,13.27,3.63,20.08,2.95c0.59-0.06,1.1-0.46,1.1-1.1c0-0.55-0.5-1.16-1.1-1.1c-12.02,1.2-23.73-3.49-33.22-10.62
			c-9.97-7.48-17.47-17.77-24.18-28.14c-4.13-6.37-8.08-12.86-12.09-19.31C386.74,195.63,384.84,196.73,385.59,197.94L385.59,197.94
			z"/>
	</g>
</g>
<g>
	<g>
		<path d="M455.38,256.58c1.64,1.02,3.53,0.19,5.14-0.46c1.71-0.69,3.38-1.46,5.01-2.31c3.21-1.67,6.24-3.67,9.08-5.92
			c2.79-2.21,5.37-4.68,7.69-7.38c2.6-3.03,4.74-6.37,6.96-9.67c2.32-3.43,4.97-6.52,7.82-9.52c2.82-2.97,5.63-5.92,8.13-9.16
			c4.91-6.34,9.02-13.44,11.27-21.18c2.2-7.58,2.5-15.88-0.02-23.42c-0.32-0.97-0.7-1.91-1.11-2.85c-0.24-0.54-1.03-0.67-1.5-0.39
			c-0.56,0.33-0.63,0.96-0.39,1.5c3.01,6.95,3.23,14.9,1.52,22.22c-1.74,7.43-5.34,14.28-9.76,20.46c-2.31,3.23-4.91,6.22-7.64,9.1
			c-2.73,2.88-5.5,5.71-7.91,8.87c-2.43,3.19-4.44,6.67-6.84,9.88c-2.06,2.74-4.4,5.28-6.94,7.58c-5.01,4.54-10.98,8.32-17.37,10.61
			c-0.64,0.23-1.42,0.53-2.05,0.14C455.29,253.94,454.18,255.84,455.38,256.58L455.38,256.58z"/>
	</g>
</g>
<g>
	<g>
		<path d="M375.26,146.56c-2.38-5.4-6-10.27-10.5-14.09c-2.28-1.93-5.02-4.13-8.17-4.08c-2.96,0.05-5.42,2.2-6.66,4.77
			c-1.26,2.62-1.43,5.58-1.1,8.43c0.36,3.11,1.16,6.17,2.08,9.16c0.97,3.17,2.15,6.28,3.51,9.3c1.19,2.65,2.51,5.25,4.14,7.67
			c3.37,5.02,8.12,9.44,14.39,10.05c0.59,0.06,1.1-0.55,1.1-1.1c0-0.64-0.51-1.04-1.1-1.1c-4.81-0.46-8.72-3.83-11.51-7.56
			c-3.34-4.47-5.65-9.75-7.48-15c-1-2.85-1.84-5.77-2.47-8.73c-0.53-2.51-0.88-5.19-0.38-7.73c0.46-2.31,1.74-4.79,4.06-5.68
			c2.6-1,5.24,0.89,7.18,2.44c4.78,3.82,8.55,8.76,11.02,14.36c0.24,0.54,1.03,0.67,1.5,0.39
			C375.43,147.74,375.5,147.11,375.26,146.56L375.26,146.56z"/>
	</g>
</g>
<g>
	<g>
		<path d="M377.51,169.02c0.6,1.81,0.41,3.79-0.61,5.42c-0.94,1.5-2.51,2.48-4.23,2.82c-0.58,0.11-0.92,0.81-0.77,1.35
			c0.17,0.61,0.77,0.88,1.35,0.77c2.27-0.44,4.31-1.87,5.54-3.83c1.31-2.09,1.6-4.78,0.83-7.11c-0.19-0.56-0.76-0.93-1.35-0.77
			C377.72,167.82,377.32,168.45,377.51,169.02L377.51,169.02z"/>
	</g>
</g>
<g>
	<g>
		<path d="M378.93,178.34c1.81,7.63,4.54,15.02,8.1,22c0.64,1.26,2.54,0.15,1.9-1.11c-3.48-6.81-6.12-14.03-7.88-21.47
			C380.72,176.38,378.6,176.96,378.93,178.34L378.93,178.34z"/>
	</g>
</g>
<g>
	<g>
		<path d="M368.59,149.46c-1.33-2.31-2.99-4.45-4.91-6.31c-0.89-0.86-2.04-2.1-3.42-1.59c-1.3,0.48-1.48,2.31-1.53,3.49
			c-0.11,2.74,1.02,5.42,2.1,7.87c1.04,2.37,2.3,4.64,3.74,6.78c1.68,2.49,3.6,4.81,5.73,6.92c1.01,0.99,2.56-0.56,1.55-1.55
			c-3.19-3.15-5.87-6.78-7.93-10.76c-1.03-1.99-1.97-4.07-2.58-6.23c-0.31-1.12-0.52-2.3-0.39-3.47c0.03-0.27,0.09-0.54,0.16-0.8
			c0.01-0.05,0.13-0.34,0.11-0.37c-0.01,0.01-0.01,0.02-0.02,0.03c-0.06,0.11-0.17,0.16-0.32,0.16c0,0.03,0.33,0.24,0.37,0.27
			c0.25,0.21,0.48,0.43,0.71,0.65c1.86,1.77,3.43,3.79,4.72,6.01C367.4,151.79,369.3,150.69,368.59,149.46L368.59,149.46z"/>
	</g>
</g>
<g>
	<g>
		<path d="M375.85,148.49c0.72,2.06,2.23,3.54,3.99,4.75c1.9,1.31,3.98,2.38,6,3.47c4.24,2.29,8.57,4.39,12.99,6.3
			c8.82,3.81,17.95,6.88,27.28,9.16c9.37,2.28,18.94,3.78,28.57,4.47c9.56,0.68,19.19,0.56,28.73-0.4
			c4.86-0.49,9.72-1.16,14.51-2.12c4.89-0.98,9.71-2.36,14.23-4.49c1.11-0.53,2.2-1.1,3.26-1.73c1.22-0.71,0.11-2.61-1.11-1.9
			c-8.31,4.87-18.14,6.53-27.57,7.67c-9.32,1.13-18.74,1.46-28.12,1c-9.36-0.45-18.68-1.69-27.84-3.68c-9.17-2-18.19-4.76-26.9-8.24
			c-4.38-1.75-8.68-3.7-12.9-5.83c-2.1-1.06-4.17-2.16-6.22-3.31c-1.81-1.02-3.76-1.99-5.27-3.45c-0.66-0.64-1.21-1.38-1.52-2.26
			C377.5,146.58,375.38,147.15,375.85,148.49L375.85,148.49z"/>
	</g>
</g>
<g>
	<g>
		<path d="M376.59,144.75c-3.02-3.75-6.01-7.53-9.08-11.24c-1.41-1.71-2.9-3.38-4.6-4.82c-1.78-1.5-3.75-2.75-5.57-4.19
			c-5.8-4.59-9.74-11.27-11.28-18.48c-0.85-4.01-0.93-8.21-0.15-12.24c0.27-1.38-1.85-1.97-2.12-0.58
			c-1.48,7.62-0.17,15.6,3.44,22.45c1.78,3.38,4.15,6.5,6.98,9.07c1.64,1.49,3.46,2.75,5.25,4.06c1.87,1.37,3.55,2.91,5.09,4.65
			c1.79,2.02,3.45,4.17,5.14,6.27c1.78,2.2,3.55,4.4,5.33,6.61c0.37,0.46,1.16,0.39,1.55,0
			C377.04,145.85,376.96,145.21,376.59,144.75L376.59,144.75z"/>
	</g>
</g>
<g>
	<g>
		<path d="M347.49,92.6c1.09-7.04,4.87-13.62,10.56-17.95c0.47-0.36,0.72-0.95,0.39-1.5c-0.27-0.46-1.03-0.76-1.5-0.39
			c-6.13,4.67-10.39,11.62-11.57,19.26c-0.09,0.59,0.15,1.18,0.77,1.35C346.65,93.51,347.39,93.19,347.49,92.6L347.49,92.6z"/>
	</g>
</g>
<g>
	<g>
		<path d="M355.45,71.06c-3.42-5.32-6.65-10.77-9.67-16.33c-0.68-1.24-2.57-0.13-1.9,1.11c3.02,5.56,6.25,11.01,9.67,16.33
			C354.32,73.35,356.22,72.25,355.45,71.06L355.45,71.06z"/>
	</g>
</g>
<g>
	<g>
		<path d="M432.62,34.58c6.18-1.42,12.55-1.54,18.85-1.1c5.8,0.4,11.63,1.16,17.35,2.25c5.18,0.99,10.36,2.37,15.1,4.74
			c4.82,2.41,8.92,5.84,12.09,10.21c3.62,4.99,6.12,10.67,8.57,16.29c0.24,0.54,1.03,0.67,1.5,0.39c0.56-0.33,0.63-0.96,0.39-1.5
			c-2.26-5.19-4.56-10.41-7.75-15.11c-3.12-4.61-7.09-8.49-11.95-11.24c-4.76-2.7-10.05-4.35-15.37-5.49
			c-5.81-1.24-11.75-2.03-17.67-2.56c-7.24-0.65-14.59-0.63-21.7,1C430.66,32.78,431.25,34.9,432.62,34.58L432.62,34.58z"/>
	</g>
</g>
<g>
	<g>
		<path d="M500.13,55.64c9.46,3.58,18.02,9.42,24.97,16.75c3.48,3.67,6.55,7.71,9.14,12.06c2.69,4.52,5.07,9.46,6.38,14.57
			c0.85,3.32,0.87,6.61-0.4,9.82c-1.19,3-3.21,5.63-5.2,8.13c-0.37,0.46-0.45,1.1,0,1.55c0.38,0.38,1.18,0.47,1.55,0
			c3.82-4.8,7.46-10.09,6.81-16.54c-0.32-3.16-1.36-6.18-2.53-9.11c-1-2.48-2.13-4.9-3.4-7.24c-5.08-9.33-12.32-17.43-20.93-23.63
			c-4.87-3.51-10.19-6.35-15.8-8.48c-0.55-0.21-1.2,0.23-1.35,0.77C499.19,54.91,499.57,55.43,500.13,55.64L500.13,55.64z"/>
	</g>
</g>
<g>
	<g>
		<path d="M535.85,117.09c-1.25,6.82-3.33,13.49-6.21,19.8c-1.46,3.2-3.12,6.3-4.96,9.29c-1.79,2.91-3.81,5.65-5.87,8.38
			c-2.24,2.96-4.44,6.3-4.29,10.17c0.06,1.41,2.25,1.42,2.2,0c-0.13-3.29,1.79-6.12,3.68-8.65c2.06-2.76,4.13-5.5,5.95-8.43
			c3.65-5.86,6.59-12.17,8.75-18.73c1.21-3.68,2.17-7.44,2.87-11.25c0.11-0.58-0.16-1.18-0.77-1.35
			C536.67,116.18,535.96,116.51,535.85,117.09L535.85,117.09z"/>
	</g>
</g>
<g>
	<g>
		<path d="M348.86,52.82c1.26-6.19,6.98-10.01,12.32-12.54c6.99-3.31,14.61-5.49,22.24-6.72c4.41-0.71,8.87-1.05,13.33-1.07
			c1.41,0,1.42-2.2,0-2.2c-8.25,0.03-16.51,1.21-24.44,3.51c-3.89,1.13-7.72,2.52-11.42,4.19c-3.03,1.37-5.96,3.04-8.49,5.21
			c-2.75,2.36-4.94,5.43-5.67,9.03C346.46,53.62,348.58,54.21,348.86,52.82L348.86,52.82z"/>
	</g>
</g>
<g>
	<g>
		<path d="M396.84,28.31c9.53,1.33,18.43,5.72,28.13,6.08c2.73,0.1,5.48-0.15,8.12-0.84c1.37-0.36,0.79-2.48-0.58-2.12
			c-9.18,2.41-18.44-1.2-27.23-3.56c-2.59-0.7-5.2-1.3-7.85-1.67c-0.59-0.08-1.18,0.14-1.35,0.77
			C395.93,27.47,396.25,28.22,396.84,28.31L396.84,28.31z"/>
	</g>
</g>
<g>
	<g>
		<path d="M344.44,62.53c1,0.63,1.99,1.26,2.99,1.89c0.49,0.31,1.23,0.12,1.5-0.39c0.29-0.54,0.12-1.17-0.39-1.5
			c-1-0.63-1.99-1.26-2.99-1.89c-0.49-0.31-1.23-0.12-1.5,0.39C343.76,61.57,343.92,62.2,344.44,62.53L344.44,62.53z"/>
	</g>
</g>
<g>
	<g>
		<path d="M702.2,255.16c0.64,0,0.64-1,0-1C701.56,254.16,701.56,255.16,702.2,255.16L702.2,255.16z"/>
	</g>
</g>
<g>
	<g>
		<path d="M394.41,670.16c1.41,0,1.42-2.2,0-2.2C393,667.96,393,670.16,394.41,670.16L394.41,670.16z"/>
	</g>
</g>
<g>
	<g>
		<path d="M336.77,679.68c1.41,0,1.42-2.2,0-2.2C335.36,677.48,335.35,679.68,336.77,679.68L336.77,679.68z"/>
	</g>
</g>
<g>
	<g>
		<path d="M301.07,648.75c-2.01-5.01-1.47-10.47-1.39-15.73c0.09-5.71-0.44-11.42-1.4-17.05c-0.55-3.21-1.25-6.39-2.06-9.54
			c-0.35-1.37-2.47-0.79-2.12,0.58c1.43,5.54,2.51,11.18,3.03,16.89c0.26,2.84,0.38,5.69,0.36,8.54c-0.02,2.67-0.18,5.34-0.12,8.02
			c0.07,3.02,0.45,6.06,1.58,8.88c0.22,0.55,0.73,0.94,1.35,0.77C300.83,649.96,301.29,649.31,301.07,648.75L301.07,648.75z"/>
	</g>
</g>
<g>
	<g>
		<path d="M396.21,654.68c-4.79-2.04-9.13-4.97-13.19-8.19c-2.03-1.61-4-3.28-5.97-4.96c-2.09-1.78-4.16-3.58-6.03-5.58
			c-6.2-6.63-10.06-14.99-14.9-22.58c-2.75-4.31-5.85-8.45-9.73-11.81c-1.06-0.92-2.62,0.63-1.55,1.55
			c6.94,6.01,11.14,14.31,15.78,22.07c2.37,3.96,4.89,7.85,7.95,11.32c3.46,3.93,7.64,7.27,11.7,10.56c4.57,3.71,9.4,7.19,14.85,9.5
			c0.55,0.23,1.18,0.16,1.5-0.39C396.87,655.72,396.76,654.91,396.21,654.68L396.21,654.68z"/>
	</g>
</g>
<g>
	<g>
		<path d="M361.91,647.52c0.74,0.94,1.78,1.66,2.74,2.35c1.27,0.92,2.59,1.76,3.91,2.59c2.33,1.46,4.79,2.78,7,4.43
			c0.48,0.36,1.23,0.08,1.5-0.39c0.33-0.56,0.08-1.15-0.39-1.5c-2.16-1.62-4.58-2.91-6.86-4.34c-1.33-0.83-2.66-1.68-3.94-2.6
			c-0.86-0.61-1.72-1.21-2.41-2.09c-0.37-0.46-1.17-0.39-1.55,0C361.45,646.43,361.54,647.06,361.91,647.52L361.91,647.52z"/>
	</g>
</g>
<g>
	<g>
		<path d="M352.76,653.72c3.46,4.52,7.57,8.47,12.24,11.73c0.49,0.34,1.22,0.09,1.5-0.39c0.32-0.55,0.09-1.16-0.39-1.5
			c-4.34-3.03-8.23-6.74-11.45-10.95c-0.36-0.47-0.95-0.72-1.5-0.39C352.69,652.49,352.4,653.24,352.76,653.72L352.76,653.72z"/>
	</g>
</g>
<g>
	<g>
		<path d="M322.89,668.93c-6.81-2.41-12.89-6.97-17.12-12.83c-1.23-1.7-2.32-3.51-3.24-5.4c-0.62-1.27-2.51-0.16-1.9,1.11
			c3.39,6.93,8.96,12.76,15.67,16.53c1.92,1.08,3.93,1.98,6,2.71C323.64,671.52,324.21,669.4,322.89,668.93L322.89,668.93z"/>
	</g>
</g>
<g>
	<g>
		<path d="M337.58,666.41c0.86,0.84,1.2,2,1.44,3.14c0.12,0.56,0.32,1.24,0.11,1.8c-0.13,0.34-0.46,0.61-0.83,0.79
			c-1.06,0.51-2.39,0.05-3.48-0.37c-1.46-0.57-2.9-1.2-4.34-1.8c-0.55-0.23-1.21,0.25-1.35,0.77c-0.17,0.63,0.22,1.12,0.77,1.35
			c1.72,0.72,3.44,1.56,5.22,2.12c1.56,0.49,3.37,0.55,4.76-0.45c0.64-0.46,1.13-1.06,1.37-1.81c0.3-0.91,0.11-1.9-0.07-2.81
			c-0.32-1.57-0.86-3.13-2.04-4.27C338.11,663.88,336.56,665.43,337.58,666.41L337.58,666.41z"/>
	</g>
</g>
<g>
	<g>
		<path d="M329.11,669.56c-2.19-0.81-4.54-0.98-6.84-0.61c-0.57,0.09-0.94,0.83-0.77,1.35c0.2,0.62,0.74,0.87,1.35,0.77
			c0.07-0.01,0.15-0.02,0.22-0.04c-0.1,0.01-0.09,0.01,0.05-0.01c0.11-0.01,0.23-0.02,0.34-0.03c0.26-0.02,0.53-0.04,0.79-0.04
			c0.49-0.01,0.98,0.01,1.47,0.05c0.11,0.01,0.23,0.02,0.34,0.04c-0.19-0.02,0.17,0.03,0.21,0.03c0.24,0.04,0.48,0.09,0.72,0.14
			c0.52,0.12,1.02,0.27,1.52,0.46c0.54,0.2,1.23-0.22,1.35-0.77C330.02,670.29,329.69,669.77,329.11,669.56L329.11,669.56z"/>
	</g>
</g>
<g>
	<g>
		<path d="M339.25,664.74c-1.39-2.42-3.55-4.4-6.12-5.52c-1.42-0.62-2.88-0.95-4.42-1.13c-1.66-0.19-3.33-0.23-4.95-0.65
			c-1.37-0.35-1.95,1.77-0.58,2.12c2.89,0.74,5.97,0.38,8.77,1.52c2.28,0.93,4.19,2.64,5.41,4.77
			C338.06,667.08,339.95,665.97,339.25,664.74L339.25,664.74z"/>
	</g>
</g>
<g>
	<g>
		<path d="M323.25,657.03c-1.91-3.36-4.06-6.56-6.43-9.61c-0.36-0.47-1.17-0.38-1.55,0c-0.46,0.46-0.37,1.08,0,1.55
			c2.25,2.9,4.28,5.97,6.09,9.17C322.05,659.36,323.95,658.26,323.25,657.03L323.25,657.03z"/>
	</g>
</g>
<g>
	<g>
		<path d="M325.71,623.3c0.64,4.4,0.53,8.83-1.6,12.82c-1.94,3.62-4.89,6.55-7.78,9.41c-1.01,1,0.55,2.55,1.55,1.55
			c3.11-3.08,6.31-6.28,8.32-10.22c2.28-4.46,2.35-9.29,1.64-14.15c-0.09-0.59-0.83-0.91-1.35-0.77
			C325.85,622.13,325.63,622.72,325.71,623.3L325.71,623.3z"/>
	</g>
</g>
<g>
	<g>
		<path d="M337.71,497.81c0.65,7.44,0.33,14.92-0.09,22.36c-0.42,7.47-0.86,14.94-1.29,22.41c-0.43,7.52-0.87,15.04-1.3,22.55
			c-0.42,7.33-0.94,14.73,0.27,22.02c1.12,6.72,3.94,13.41,9.04,18.08c1.04,0.95,2.6-0.6,1.55-1.55
			c-10.13-9.29-9.49-24.25-8.77-36.8c0.85-14.79,1.7-29.57,2.56-44.36c0.47-8.23,0.94-16.48,0.22-24.71c-0.05-0.59-0.47-1.1-1.1-1.1
			C338.26,496.71,337.66,497.21,337.71,497.81L337.71,497.81z"/>
	</g>
</g>
<g>
	<g>
		<path d="M274.67,506.11c2.86,13.28,7.21,26.17,10.5,39.33c3.3,13.2,5.02,26.64,5.97,40.19c0.53,7.69,0.86,15.39,1.18,23.08
			c0.06,1.41,2.25,1.42,2.2,0c-0.57-13.72-1.14-27.47-2.93-41.1c-0.89-6.79-2.08-13.53-3.67-20.19c-1.58-6.64-3.47-13.2-5.35-19.77
			c-2.1-7.33-4.17-14.68-5.78-22.14C276.49,504.14,274.37,504.73,274.67,506.11L274.67,506.11z"/>
	</g>
</g>
<g>
	<g>
		<path d="M475.76,565.54c-5.01,0.26-9.85-1.3-14.36-3.35c-4.23-1.92-8.38-4.1-12.39-6.44c-3.79-2.2-7.47-4.64-10.74-7.56
			c-3.17-2.83-6.12-6.16-7.99-10.01c-1.57-3.22-2.53-8.03,0.77-10.55c1.51-1.15,3.49-1.48,5.34-1.52c2.3-0.06,4.59,0.27,6.86,0.58
			c10.78,1.45,21.42,3.76,32.26,4.86c10.8,1.1,21.7,1.3,32.54,0.59c1.35-0.09,2.7-0.19,4.05-0.3c1.4-0.12,1.41-2.32,0-2.2
			c-11.27,0.96-22.62,0.95-33.89-0.03c-11.15-0.98-22.08-3.3-33.15-4.87c-4.45-0.63-9.61-1.72-13.87,0.27
			c-1.95,0.91-3.43,2.61-4.1,4.66c-0.67,2.04-0.48,4.31,0.07,6.36c1.16,4.29,4.02,8.09,7.04,11.27c3.16,3.32,6.86,6.1,10.72,8.54
			c3.92,2.48,8.04,4.66,12.2,6.73c4.7,2.34,9.59,4.47,14.85,5.07c1.27,0.14,2.54,0.18,3.81,0.11
			C477.16,567.66,477.17,565.47,475.76,565.54L475.76,565.54z"/>
	</g>
</g>
<g>
	<g>
		<path d="M413.79,383.27c3.23,19.4,6.64,38.78,9.35,58.26c2.68,19.24,4.58,38.65,4.41,58.1c-0.09,10.9-0.84,21.79-2.46,32.57
			c-0.09,0.59,0.15,1.17,0.77,1.35c0.52,0.15,1.26-0.18,1.35-0.77c1.46-9.68,2.25-19.44,2.48-29.22c0.23-9.79-0.09-19.58-0.79-29.34
			c-0.7-9.81-1.79-19.6-3.1-29.35c-1.31-9.77-2.83-19.51-4.42-29.24c-1.6-9.77-3.24-19.53-4.86-29.3c-0.2-1.22-0.41-2.44-0.61-3.66
			C415.68,381.29,413.56,381.88,413.79,383.27L413.79,383.27z"/>
	</g>
</g>
<g>
	<g>
		<path d="M415.69,384.28c-0.5-3.59-4.47-6.07-7.92-5.22c-0.56,0.14-0.95,0.8-0.77,1.35c0.19,0.58,0.75,0.91,1.35,0.77
			c0.09-0.02,0.17-0.04,0.26-0.06c0.11-0.02,0.24-0.03,0.05-0.01c0.17-0.02,0.35-0.03,0.52-0.03c0.17,0,0.35,0.01,0.52,0.02
			c0.29,0.02-0.23-0.05,0.05,0.01c0.09,0.02,0.17,0.03,0.26,0.05c0.17,0.04,0.34,0.08,0.5,0.14c0.08,0.03,0.17,0.06,0.25,0.09
			c0.04,0.02,0.3,0.14,0.06,0.02c0.32,0.15,0.62,0.31,0.92,0.51c0.07,0.05,0.14,0.1,0.21,0.15c-0.15-0.11-0.02-0.02,0.05,0.05
			c0.13,0.11,0.26,0.23,0.39,0.36c0.12,0.12,0.24,0.26,0.35,0.39c0.15,0.17-0.1-0.15,0.04,0.05c0.05,0.07,0.1,0.14,0.15,0.21
			c0.09,0.15,0.18,0.3,0.26,0.45c0.03,0.06,0.06,0.13,0.1,0.19c0.03,0.07,0.03,0.05-0.02-0.06c0.02,0.04,0.03,0.08,0.05,0.12
			c0.12,0.35,0.22,0.69,0.27,1.05c0.08,0.57,0.84,0.93,1.35,0.77C415.55,385.42,415.77,384.89,415.69,384.28L415.69,384.28z"/>
	</g>
</g>
<g>
	<g>
		<path d="M189.74,587c3.08,4.97,9.15,6.89,14.74,6.63c3.46-0.16,6.85-1,10.18-1.93c3.3-0.93,6.57-1.92,9.83-2.97
			c6.52-2.1,12.95-4.43,19.3-7c6.25-2.53,12.31-5.51,18.59-7.95c6.73-2.62,14.08-4.58,21.28-2.82c1.37,0.34,1.96-1.78,0.58-2.12
			c-6.34-1.55-12.86-0.49-18.96,1.55c-6.3,2.1-12.27,5.11-18.38,7.69c-6.22,2.63-12.53,5.02-18.93,7.19
			c-3.17,1.07-6.35,2.09-9.55,3.05c-3.25,0.97-6.52,1.97-9.86,2.61c-5.91,1.13-13.43,0.63-16.95-5.04
			C190.89,584.69,188.99,585.79,189.74,587L189.74,587z"/>
	</g>
</g>
<g>
	<g>
		<path d="M274.84,580.55c1.41,0,1.42-2.2,0-2.2C273.42,578.36,273.42,580.55,274.84,580.55L274.84,580.55z"/>
	</g>
</g>
<g>
	<g>
		<path d="M275.5,582.4c4.29,0.62,9,1.1,12.52-1.95c1.46-1.27,2.39-3.1,2.4-5.05c0.01-1.92-0.82-3.89-2.25-5.18
			c-1.77-1.59-4.11-2.16-6.43-1.82c-0.59,0.09-0.91,0.83-0.77,1.35c0.17,0.63,0.76,0.85,1.35,0.77c1.78-0.26,3.76,0.44,4.88,1.87
			c1.13,1.43,1.37,3.49,0.47,5.08c-2.28,4-7.78,3.36-11.59,2.82c-0.59-0.08-1.18,0.14-1.35,0.77
			C274.6,581.57,274.91,582.32,275.5,582.4L275.5,582.4z"/>
	</g>
</g>
<g>
	<g>
		<path d="M404.34,379.81c-4.97-1.34-9.38,2.12-13.3,4.66c-1.18,0.76-0.08,2.67,1.11,1.9c3.32-2.15,7.35-5.59,11.61-4.44
			C405.12,382.3,405.7,380.18,404.34,379.81L404.34,379.81z"/>
	</g>
</g>
<g>
	<g>
		<path d="M470.85,198.73c0.01,5.71,0.84,11.4,2.17,16.94c0.67,2.78,1.47,5.52,2.35,8.24c0.86,2.63,1.86,5.21,2.76,7.82
			c0.71,2.06,1.6,4.97,0.05,6.89c-0.37,0.46-0.45,1.1,0,1.55c0.39,0.39,1.18,0.46,1.55,0c1.64-2.02,1.68-4.53,1.11-6.97
			c-0.6-2.58-1.72-5.04-2.58-7.53c-1.92-5.58-3.52-11.28-4.44-17.11c-0.51-3.25-0.78-6.54-0.78-9.82
			C473.04,197.32,470.85,197.32,470.85,198.73L470.85,198.73z"/>
	</g>
</g>
<g>
	<g>
		<path d="M481.95,195.52c3.01-2.49,6.16-4.88,9.7-6.57c3.75-1.79,7.82-2.39,11.94-2.42c2.43-0.02,4.85,0.14,7.28,0.3
			c1.41,0.09,1.41-2.1,0-2.2c-4.46-0.29-8.95-0.55-13.38,0.2c-4.15,0.7-7.96,2.48-11.42,4.82c-1.97,1.33-3.83,2.81-5.66,4.32
			c-0.46,0.38-0.39,1.16,0,1.55C480.85,195.97,481.49,195.9,481.95,195.52L481.95,195.52z"/>
	</g>
</g>
<g>
	<g>
		<path d="M100.28,374.69c1.41,0,1.42-2.2,0-2.2C98.87,372.49,98.87,374.69,100.28,374.69L100.28,374.69z"/>
	</g>
</g>
<g>
	<g>
		<path d="M390.39,385.85c-8.75,6.7-16.73,14.3-23.44,23.07c-6.29,8.23-11.4,17.32-15.22,26.95c-2.14,5.4-3.86,10.97-5.13,16.64
			c-0.31,1.38,1.81,1.96,2.12,0.58c2.22-9.89,5.79-19.44,10.61-28.36c4.87-9.01,10.98-17.31,18.14-24.63
			c4.36-4.46,9.07-8.56,14.02-12.35c0.47-0.36,0.72-0.95,0.39-1.5C391.62,385.78,390.86,385.49,390.39,385.85L390.39,385.85z"/>
	</g>
</g>
<g>
	<g>
		<path d="M253.64,670.71c7.92-4.95,18.01-4.97,26.99-3.96c5.06,0.57,10,1.74,14.88,3.17c4.69,1.38,9.34,2.93,14.12,4.03
			c4.89,1.12,9.84,1.66,14.85,1.33c5.21-0.35,10.33-1.4,15.43-2.47c4.88-1.02,9.8-2.05,14.47-3.85c3.84-1.49,7.35-3.51,10.91-5.56
			c7.59-4.37,15.86-9.37,24.97-8.69c1.14,0.09,2.27,0.29,3.38,0.57c1.37,0.36,1.95-1.76,0.58-2.12c-9.36-2.43-18.49,1.85-26.49,6.32
			c-3.31,1.85-6.54,3.91-9.94,5.59c-4.58,2.27-9.47,3.65-14.44,4.75c-5.06,1.12-10.16,2.27-15.31,2.91
			c-5.08,0.63-10.14,0.59-15.18-0.35c-4.85-0.91-9.56-2.41-14.27-3.84c-4.87-1.48-9.77-2.83-14.82-3.59
			c-9.27-1.39-19.6-1.74-28.32,2.26c-1.01,0.46-1.98,0.99-2.92,1.58C251.33,669.56,252.43,671.46,253.64,670.71L253.64,670.71z"/>
	</g>
</g>
<line class="st0" x1="346.47" y1="664.29" x2="351.07" y2="668.47"/>
<g>
	<g>
		<path d="M-1.09,709.27c10.83-5.63,22.51-9.36,34.41-11.93c12-2.6,24.21-4.08,36.4-5.43c12.17-1.35,24.36-2.57,36.44-4.58
			c6.15-1.02,12.27-2.27,18.32-3.81c6.59-1.68,13.12-3.62,19.77-5.05c11.93-2.56,25.14-3.41,36.37,2.25
			c1.28,0.64,2.51,1.37,3.69,2.17c0.54,0.36,1.04-0.51,0.5-0.86c-10.05-6.75-22.75-7.46-34.39-5.7c-6.78,1.02-13.42,2.83-20.03,4.6
			c-6.28,1.69-12.58,3.25-18.97,4.46c-12.36,2.33-24.88,3.67-37.38,5.04c-12.26,1.34-24.54,2.7-36.65,5.05
			c-11.98,2.33-23.8,5.68-34.86,10.87c-1.39,0.65-2.77,1.34-4.14,2.05C-2.17,708.7-1.67,709.56-1.09,709.27L-1.09,709.27z"/>
	</g>
</g>
<g>
	<g>
		<path d="M187.61,684.47c2.66-2.84,5.33-5.68,7.99-8.51c0.44-0.47-0.27-1.18-0.71-0.71c-2.66,2.84-5.33,5.68-7.99,8.51
			C186.47,684.23,187.17,684.94,187.61,684.47L187.61,684.47z"/>
	</g>
</g>
<g>
	<g>
		<path d="M856.18,684.05c1-4.03,4.15-6.96,7.58-9.05c3.91-2.38,8.33-3.97,12.73-5.17c9.45-2.59,19.32-3.33,29.04-4.19
			c10.44-0.92,20.91-1.65,31.38-2.18c10.47-0.54,20.95-0.89,31.44-1.06c10.44-0.17,20.88-0.17,31.31,0.01
			c1.32,0.02,2.65,0.05,3.97,0.07c0.64,0.01,0.64-0.99,0-1c-10.68-0.22-21.36-0.26-32.05-0.13c-10.68,0.14-21.36,0.46-32.03,0.97
			c-10.62,0.51-21.23,1.22-31.83,2.12c-9.88,0.85-19.92,1.54-29.57,3.91c-4.55,1.12-9.07,2.64-13.23,4.83
			c-3.47,1.83-6.88,4.36-8.71,7.92c-0.44,0.85-0.77,1.75-1,2.68C855.06,684.41,856.03,684.68,856.18,684.05L856.18,684.05z"/>
	</g>
</g>
</svg>
