<?xml version="1.0" encoding="utf-8"?>
<!-- Generator: Adobe Illustrator 27.5.0, SVG Export Plug-In . SVG Version: 6.00 Build 0)  -->
<svg version="1.1"
	 id="svg1905" xmlns:dc="http://purl.org/dc/elements/1.1/" xmlns:cc="http://web.resource.org/cc/" xmlns:inkscape="http://www.inkscape.org/namespaces/inkscape" xmlns:sodipodi="http://sodipodi.sourceforge.net/DTD/sodipodi-0.dtd" xmlns:svg="http://www.w3.org/2000/svg" xmlns:rdf="http://www.w3.org/1999/02/22-rdf-syntax-ns#"
	 xmlns="http://www.w3.org/2000/svg" xmlns:xlink="http://www.w3.org/1999/xlink" x="0px" y="0px" viewBox="0 0 481 596"
	 style="enable-background:new 0 0 481 596;" xml:space="preserve">
<style type="text/css">
	.st0{fill-rule:evenodd;clip-rule:evenodd;fill:#FFFFFF;stroke:#1D1D1B;}
	.st1{fill-rule:evenodd;clip-rule:evenodd;fill:#1D1D1B;stroke:#FFFFFF;}
	.st2{fill-rule:evenodd;clip-rule:evenodd;fill:#1D1D1B;stroke:#FFFFFF;stroke-width:0.8564;}
</style>
<sodipodi:namedview  bordercolor="#666666" borderopacity="1.0" gridtolerance="10.0" guidetolerance="10.0" id="base" inkscape:current-layer="svg1905" inkscape:cx="240.5" inkscape:cy="298" inkscape:pageopacity="0.0" inkscape:pageshadow="2" inkscape:window-height="712" inkscape:window-width="1024" inkscape:window-x="-8" inkscape:window-y="-6" inkscape:zoom="0.8942953" objecttolerance="10.0" pagecolor="#ffffff">
	</sodipodi:namedview>
<g id="g2340" transform="translate(10.06379,8.945591)">
	<path id="Santo_Domingo" sodipodi:nodetypes="csssssssccssssscccccccccccccccccc" class="st0" d="M50.6,576.7
		c-4.4-0.4-3.8,1.3-5.6,2.1c-1.6,0.7,0.3-2.9-1.3-4.9c-1.6-2-1.6,1-5.9,0.6c-1.1-0.1,1.5-5.6,0.7-5.8c-2.7-0.4-4.7,8.4-6.9,2.6
		c-1-2.7-4.5-2.1-6.2-4.5c-0.9-1.3-1.1-3-5.2,1.8c-1.3,1.5-2.2-0.7-3.4-1.5c1.3-2,4.3-3.3,2.2-7c0.5-0.3,0-4.4,0-6.9
		s0.7-6.1,1.5-8.1s1.5-4.8,1.5-6.2s0.7-3.7,1.6-5c0.9-1.3,2.2-4.2,2.9-6.5c0.9-3.2,1.9-4.3,4.1-5c25-9,34.1-15.8,33.2-42.8l2.8-0.4
		c1.3,2.1,4.1,1.8,5.7,3.5c1,1.5,3.6,1.2,3.9,3.2c0.4,4.2,1,8.2,2.9,10c1.8,1.3,0.1,4.2,1.3,5.8c0.8,1.4,2.1,2.1,2.5,3.5
		c1.2,1.4,0.8,5.8,0,7.6c0.4,1.8,3.9,2.8,5.5,3.1l0.3,7.2c-1.1,0.2-2.1,1-3.1,2.9l-0.5,28.8l-3.4,0.2c-0.8,0.8-1-1-2.5-2.3
		c-5.7,4.3-11.4,8.6-17.1,12.8c-2.2,1.8-4.7,3.2-6.6,5.2C53.2,571.7,48.2,573.8,50.6,576.7z"/>
	<path id="San_Antonio" sodipodi:nodetypes="cccccccccccccccccccccccccccccccccccccccccc" class="st1" d="M68.7,461.5
		c-3.7-5.4,0.1,0.7,3.5,0.8s7.2-0.2,10.4,1c2.9,2,7.2-0.5,9.8,2.7c3.1,3.7,8.3,0.7,12,3.3c2.3,1.3,4.6,2.6,7.2,3.3
		c2.8,1.2,6.4,5.8,9.1,1.8c1.4-3.8,7.4-0.9,8.3-5.4c2.1-1.1,4.8-2.5,7.2-2.2c2.4,0.2,4.1-3.4,3.2-1.6c-0.9,1.8-0.5,3.6,0.5,5.4
		l-1.4,1.9c-0.6,3.3-1.3,6.1-3.1,5.6l-3.1,2.8c-3.6-0.1-8.3-1.4-5.9,4.5c-4.8,1.7-2.9,5.2-3.8,8l-3.5-3.1l-3.5,2.8l0.2,1.2
		c-5.1,6.9-0.5,6.2,2.1,7.1c-0.2,2-2.7,2.8,1.7,7.1l4.2,2.8c1.3,5.9,3.4,2.8,7.8,7.1l-0.2,4.2c0,1.9-0.8,3.8-2.6,5.7
		c-3.5,0.7-7.8-0.9-10.1,2.6c-2.6-2.2-7.1-1.9-7.1-1.9h-5.7l-4.7-3.5h-5l-1.9,1.4c-2-2.3-3.9-3.9-5.6-3.7l-0.3-7.2
		c-1.7-0.4-5.1-1.3-5.5-3.1c0.8-1.9,1.2-6.3,0-7.6c-0.4-1.4-1.7-2.1-2.5-3.5c-1.2-1.6,0.5-4.5-1.3-5.8c-1.9-1.7-2.6-5.7-2.9-10
		c-0.3-2-2.9-1.7-3.9-3.2c-1.6-1.7-4.5-1.4-5.7-3.5l-2.8,0.4C68.1,474.5,72.5,466.9,68.7,461.5z"/>
	<path id="Cartagena" sodipodi:nodetypes="cccccccccccsccccccccc" class="st1" d="M70,451c5-1,8.6,3.6,13.1,1.4
		c1.6-4.6,7.5-1.6,11.2-2.2c1.3-4.5,4.5-9,6.6-12.7c2.8,2.3,10,7.2,11.5,1.3c4.7-1.7,6.5-8.3,12.6-6.4c2.7-1.3,11.5-4.8,11.6-3.5
		c0,3.9-1.8,8.2-0.2,9.7c-3.7,3.5-4.3,6.9-1.7,10.4c0.6,2.2-3.3,6.4,2.3,6.4c1.1,1.7,1.9,4.5,2.4,9.9c0.9-1.8-0.8,1.8-3.2,1.6
		c-2.4-0.2-5.1,1.2-7.2,2.2c-1,4.5-6.9,1.6-8.3,5.4c-2.6,4.1-6.2-0.5-9.1-1.8c-2.6-0.7-4.9-2-7.2-3.3c-3.7-2.6-8.9,0.4-12-3.3
		c-2.6-3.2-6.9-0.7-9.8-2.7c-3.2-1.2-7-0.3-10.4-1l-3.5-0.8C71.1,459.1,73.4,456.7,70,451z"/>
	<path id="El_Tabo" sodipodi:nodetypes="cccccccccccccc" class="st1" d="M52.6,430.2c-2.3-1.6,4.9,0.1,6.8-1.6
		c2.8-2.8,5.8-3.4,8.4-0.5c1.6,1.8,3.2,3.7,5.5,4.7c2.5,1.2,5.3,0.7,7.9,0.4c2.3-0.9,4.8-1,7.1,0c2.9,1.5,7.1,6.6,9.3,3.8
		c-1.2,1.1,3.3-0.8,3.4,0.5c-2,3.8-5.3,8.3-6.6,12.7c-3.7,0.6-9.7-2.4-11.2,2.2c-4.5,2.2-8.1-2.4-13.1-1.5c-1.6-3.3-5.1-5.9-9-7.1
		c0-1.3-0.2-3.3-1.5-4.9C57.9,432.9,54.9,431.8,52.6,430.2z"/>
	<path id="El_Quisco" sodipodi:nodetypes="ccccccsssscccsc" class="st1" d="M52.6,430.2c-2.3-1.6,4.9,0.1,6.8-1.6
		c2.3-3,6.3-3.2,8.4-0.6c2.8,0.4,4.5-2.7,5.8-4.7c1.8-2.1,0.9-4.5-0.1-6.6c-1-2.1-2.1,0.5-4.1-1.6c-2.1-2.1-1.5,0.9-2.8,0.9
		c-2.4,0-2.2,0.7-3.3,1.2c-0.1,0.1-4.2,1.1-4.6,0.3c0-0.1-0.4-1.7-1.7-2.4c-1.2-0.7-1.7-2.7-4.8-3.4c-0.5-0.1-3-2-3.6-3.4
		c0.8,3.5-0.7,9-4,14.4c0.6,0.9,1.7,2.1,3.8,4C50.4,428.6,52.6,429.7,52.6,430.2z"/>
	<path id="Algarrobo" sodipodi:nodetypes="cssssscscccccccccccccccc" class="st1" d="M73.5,416.7c-1-2.1-2.1,0.5-4.1-1.6
		c-2.1-2.1-1.5,0.9-2.8,0.9c-2.4,0-2.2,0.7-3.3,1.2c-0.1,0.1-4.2,1.1-4.6,0.3c0-0.1-0.4-1.7-1.7-2.4c-1.2-0.7-1.7-2.7-4.8-3.4
		c-0.5-0.1-3-2-3.6-3.4c-0.6-1.4,9.7-1.5,10.8-7.9c-1.2-5.3,0.9-11.4-2.1-16.1c-0.5-0.4-1.7-1.3-2.8-2.3c-1.1-1,4.7,0.4,2.1-2
		c1.9-2,5-3,7.6-2.1c2,2,1.9-1.7,3.7-1.6c1.9-1.8,5.4-2.7,6.7,0.2c2.4,2.2,3.8-1.2,6.1-1.4c2.1-0.3,6-1.2,6.8,1.5
		c0.1,2.5,0,5-0.6,7.4c-0.1,2.9,3.8,4.2,3.7,7.2c-0.1,3.3-3,5.5-3.7,8.6c-0.3,2.7-2.8,4.2-3.9,6.5c-1.7,2.7,2.1,5,1.4,7.5
		c-2,1.6-5.2,0.8-6.8-0.9C75.2,410.6,73.8,415,73.5,416.7z"/>
</g>
<g id="g2358" transform="translate(10.06379,8.945591)">
	<path id="Limache" sodipodi:nodetypes="cccccccccscccccccccccccccscccccccccccccccccccccccccccc" class="st1" d="M109.5,276.3
		c1.6,2.2-2.7,1.1-3.1,1.7c1.2,1.6,1.3,5.9,4.3,4c1.3,0.9,1.2,2.6,1.6,3.9c0.8,1.6,3.2,2,4.2,0.4c0.8-0.9,2.8-1.2,2.7,0.4
		c-0.6,1.9,1.9,2.8,1.7,4.5c-0.3,1.4-1.5,3.1-3.1,2.7c-1.9-0.2-4-0.7-5.8,0.1c-0.9,0.5-2.7,3.2-3.3,3.9c-0.7,0.7,2.1,2.8,0.4,2.7
		l3.4,1.6l4.4,1.5c1-0.4,2.1-0.5,3.1-0.1c2.5,0.4,4.3,2.3,6.1,4c0.9,1.5,2.7,1.5,4.1,2.2c1.4,1.2,3.4,2.2,5.1,1
		c1.8-0.4,2.2-2.1,2.5-3.6c2.1-1.3,2.1-4.7,7.1-3.1c0.1,1.7,1.3,3.4,0.6,5.2c-0.4,1.9-1.5,3.8-1,5.8c1.4,1,2.2,2.5,2.3,4.3
		c0.1,1.9,1.7,3.1,2.5,4.6c0.7,1.4,3.1,2.4,2.4,4.2c-0.3,1.5-1.4,3.2-0.3,4.6c0.6-1.1,0.4,3.2,1.7,3.2c1.3,0,3.7,0.4,2.5,2.2
		c0.4,2,3.3,1.5,3.5,3.5c0.9-1.2,0.7-3.5,3-2.8c2,0.3,4.2,1.3,4.8,3.5c0.4,1,1.4,5.1,2.5,2.7c0.1-1.9,1.3-3.3,3.3-2.9
		c0.3-0.9-2-3.5,0.7-3.1c2-0.5,3.7,1.1,5.6,0.8c1.1-1.7,3.9-0.7,4.8-1.6c-2-1.5-0.2-3.7,0.7-5.3c0.9-1.6-3.3,0.7-3.3,0.7l-0.1-2.7
		c1.3-1.7-5.9-3-2.2-4.9c-0.7-0.4-3.2-1.5-3.8-3.1c-2.6-0.5-3.2-2.3-3.7-4.5c3.4-1.3-2.1-2.2-0.6-3.9c2-3.8-2.4-5.3-4-8.1
		c1.8-1,0-0.7-0.9-1.1c-3.7,0.1-1-4-3.6-4.9c1.2-0.6-1.2-2.4-0.7-4c1.9-1.1-1.1-3.4,0.6-4.9c-1-1.2-5.1-0.6-7.2-0.7
		c-3.5,1.2-5.3-2.7-8.2-3.2c-3.2,1.5-5.9-0.4-8-2.7c-2.9,0-7-0.5-8.2-3.3c1.8-3.3-4.6-2.4-5.3-5.5c-2.3-3.4-3.6,3.1-6.3,0.7
		C116.1,275.4,112.5,276.8,109.5,276.3z"/>
	<path id="Quillota" inkscape:label="#path1949" sodipodi:nodetypes="cccccccccccccsccccccssscccccsccccccccc" class="st1" d="
		M106.4,278.1l0.4-5.2c-1.4-1.1-5.2-3.2-3.5-4.9c2-0.4,4.5,0.6,5.7-1.7c1.7-1,2.6-3,4.6-3.4c2.3,0.8,3-1.1,3.2-3
		c0.6-0.6,1.4-1.2,2.2-1.6l1.9,1.2c1.2-0.6,3.3,0.6,3.8-1.4c0.7-1.5,2.7-2.5,3.6-3.8c0.2-0.6,0.3-1.6-0.1-2.1l4.9,0.1v-1.3
		c2,0.1,12-0.9,14.7-0.1c1.4,0.4,2.8,1.2,3.9,2.5c3.4-1.7,3,3.5,4.9,4.5c4,0.4,8.2-0.6,11.3,2.9c2.2,0.4,5.6-2.4,7.6-1l3.4,2.3
		c0.6,3.3,0.5,7-0.8,10.3c-0.6,1.8,1.1,4.7-1,5.4c-2.5,0.9,2.5,4.8,6,5.1s1.5,4.1,1.6,2.6s-0.1,1.8-1,1.7c-1.7,0.3-1.8,0.8-2.6,2.1
		c-1.7-0.1-2.6,1.5-4.3,1.5c-1.5,0-3.4,0.2-4.4-1.3c-0.9,1-2.3,1.6-3.7,1.3c-1.6,0.2-3.4-0.3-4.9,0.4s-0.5-0.6-2.2,0.9
		c-1-1.2-5.1-0.6-7.2-0.7c-3.5,1.2-5.3-2.7-8.2-3.2c-3.2,1.5-5.9-0.4-8-2.7c-2.9,0-7-0.5-8.2-3.3c1.8-3.3-4.6-2.4-5.3-5.5
		c-2.3-3.4-3.6,3.1-6.3,0.7c-2.6-1.6-6.2-0.3-9.1-0.7C111.1,278.6,106.9,277.4,106.4,278.1z"/>
	
		<path id="Hijuelas" inkscape:label="#path1937" sodipodi:nodetypes="ccsssssssssccssssssssssssssscccsccccccssccccccscccc" class="st1" d="
		M197.9,221.8l1.9,1.6c0.3-0.7,2.5,2.8,2.7,3.4c0.3,1.2,0.7,1.7,1.7,2.4c0.6,0.4,1.1,2.4,1.2,2.7c0.3,0.7,1.2,0.9,1.7,1.5
		c0.7,0.7-0.3,1.4,1.7,1.9c1,0.3,1.5,1.5,2.2,2.2c0.7,0.7-0.7,2.1-0.7,2.2c-0.5,1.1-0.5,0.9-0.7,1.7c-0.1,0.2,0.9,2.4,1.2,2.7
		c0.6,0.6,1.2,1.3,1.9,1.7v2.9c-0.2,1-1,1.9-1.5,2.9c-0.4,0.8-0.8,1.9-2.4,1.2c-2.1-0.9-1.3-1.9-2.2-1.9c-1,0-3.3-0.6-2.9,1
		c0.4,1.6,0.7,2.1,1.7,3.2c0.8,0.8,2.4,1.4,2.2,2.2c-0.2,0.8-0.8,2.3-1,3.7c-0.1,0.7-1.1,3.5-0.5,4.1c1.7,1.7,0.5,1.8,0.5,3.4
		c0,2.1-0.6,1.6-0.2,2.9c0.3,1.3-0.2,2,0.2,3.2c0.7,1.7,1.8,2.3,2.4,3.7c0.7,1.4,0.3,2.1,1.9,2.9c1.2,0.6,3.8,0.9,3.4,1.7
		c-0.5,0.9-0.2,2.9-1.2,2.9c-2.3,0-1.2,1.1-1,2.2l-1.1,3.3c-0.1,1.8-1,2.9-1.6,4.3c-1.2-1.2-2.3,0.3-3.4,0.3c-1.1,0-2.1-0.7-3-1.2
		c-1.3-1-2.8-0.4-4.3-0.4c-1.8,0.6-2.9-0.8-4.3-1.4c-1.9,0.2-3.5-0.7-5-1.7c-1.6-0.3-0.8-1.6-1.8-2.5c-0.8-1.1-2.8-1.6-2.7-3.2
		c-0.1,1.5,1.8-2.2-1.6-2.6s-8.4-4.2-6-5.1c2.1-0.8,0.4-3.6,1-5.4c1.3-3.3,1.3-7,0.8-10.3l-0.7-3c1.1-1.2,1.8-5,4.8-3.9l-14.4-15.3
		l5-4.3c1.1,1.2,3.8,1,6.1,2.2c3.2,1.8,5.8,5.9,8.4,1c1.3-2.3,3.2-4.2,4.5-6.4c1.5-2.1-0.3-3.6-1.5-5.1
		C190.9,225,197,223.7,197.9,221.8z"/>
	<path id="Olmue" sodipodi:nodetypes="ccccccscccccccccccscccccccccccccccccc" class="st0" d="M210.4,323.2c0.1-2.3,0-2.7,2.9-4.3
		c0.8-3.9,1.8-4.2,2.3-6.5c0.9-2-1.8-1.2-2-5.6c-1.9-3.8-2.1-6.4-4-7.5c1-1.2,1-2.6-0.2-3.8c-1.2-1.2-2.3,0.3-3.4,0.3
		c-1.1,0-2.1-0.7-3-1.2c-1.3-1-2.8-0.4-4.3-0.4c-1.8,0.6-2.9-0.8-4.3-1.4c-1.9,0.2-3.5-0.7-5-1.7c-1.6-0.3-0.8-1.6-1.8-2.5
		c-0.8-1.1-2.8-1.6-2.7-3.2c0.1-1.5-0.1,1.8-1,1.7c-1.7,0.3-1.8,0.8-2.6,2.1c-1.7-0.1-2.6,1.5-4.3,1.5c-1.5,0-3.4,0.2-4.4-1.3
		c-0.9,1-2.3,1.6-3.7,1.3c-1.6,0.2-3.4-0.3-4.9,0.4s-0.5-0.6-2.2,0.9s1.3,3.7-0.6,4.9c-0.4,1.5,1.9,3.3,0.7,4c2.5,0.8-0.1,5,3.6,4.9
		c1,0.4,2.8,0.2,0.9,1.1c1.6,2.7,6.1,4.3,4,8.1c-1.5,1.7,4,2.5,0.6,3.9c0.4,2.3,1.1,4,3.7,4.5c0.6,1.7,3.1,2.7,3.8,3.1
		c-3.7,1.9,3.5,3.2,2.2,4.9l0.1,2.7c0,0,4.2-2.3,3.3-0.7c1-1.5,2.6-3.3,3.9-1c1.8,0.4,3.9-2.3,5.9-2.4c2.4-0.7,0.8-2.4,3.3-3.2
		c2.4-1.8,2.9,2.1,5.1,1.7c1.3-0.6,4.5-1.5,4.7-1.9L210.4,323.2z"/>
	<path id="La_Cruz" inkscape:label="#path1949" sodipodi:nodetypes="csccccsccccccccc" class="st1" d="M133.1,250.9
		c2,0.1,12-0.9,14.7-0.1c1.4,0.4,2.8,1.2,3.9,2.5c3.4-1.7,3,3.5,4.9,4.5c4,0.4,8.2-0.6,11.3,2.9c2.2,0.4,5.6-2.4,7.6-1
		c-0.8-3.5-2.1-6-2.3-8.1c-0.3-2.8-4.4-3.7-6.5-5.8c-2.1,0.1-3.3-3.6-9.9-6.7l-3.4,3.7c-2.1,1.6-3.4-1.7-4.5-5.7
		c-0.9-1.1-1.9-2-3.4-1.8l-3.9,1.1c-2.5,1.4-2.7,2.8-1.5,4.2l-7.2,6.2L133.1,250.9z"/>
	<path id="Calera" inkscape:label="#path2030" sodipodi:nodetypes="ccsccccccscccccccccccc" class="st1" d="M157,239
		c6.7,3.1,7.8,6.8,9.9,6.7c2.1,2.1,6.2,3.1,6.5,5.8c0.2,2.2,1.5,4.6,2.3,8.1l3.4,2.3l-0.7-3c1.1-1.2,1.8-5,4.8-3.9l-14.4-15.3l5-4.3
		c1.1,1.2,3.8,1,6.1,2.2c3.2,1.8,5.8,5.9,8.4,1c1.3-2.3,3.2-4.2,4.5-6.4c1.5-2.1-0.3-3.6-1.5-5.1l-6.8,0l-0.2,2.2
		c-3.6,1.8-2.3,3.7-5,3.3l-1.6-1.7l-2.5-0.2l-0.7-1.1l-1.2,1.8l-7.9-0.1L157,239z"/>
	<path id="Nogales" sodipodi:nodetypes="ccscccccccccccccccccccccccccccccccccccccccccccccccccccc" class="st1" d="M199.8,223.4
		l0.4-1c0.6-0.5,1.3-1.7,1.7-2.1c0.3-0.3-0.3-2.2-0.4-2.4c0.6-1.6,0.4-2.9,0.4-4.7c1.4-1.6,0.6-3.5,1.1-5.4c0.1-0.3,1.3-2.6,1.5-3.4
		c0.7-2.1-0.6-1.9-2.1-3.4c-0.2-0.7,1.1-2.4-1.9-3.2c-2.2-1-0.2-3.8,0.6-5.6c0.6-1.1-1-1.6-1.9-2.4c-0.9-1.3-1.1-3-1.1-4.1
		s0.9-2.4,0.9-2.4l-1.9-3h-2.4l-1.5,1.1c-0.4,1.3-1,2.6,0.6,3.9l-1.7,3.2h-6.5c-2.5-0.9,1-1-7.8-2.8l-0.2-2.4l-3.7-0.4v-2.2H171
		l-6.2,4.9l-1.9-1.1l-8.2-0.2l-2.1,7.3l-4.1,1.7c-4.1-0.4-5.7,1.2-4.3,5.2c-2.1,0.2-4.3,0.2-3.5,3.7l-5.4,2.6l0.2,4.1l5.8-0.2
		c-0.6,1.7,1.4,2.3,3.2,3l0.4,5l-8.2,6l-0.2,4.7l3.9,0.6l1.3,8.4l3.9-1.1c1.5-0.2,2.5,0.6,3.4,1.8c1.1,4,2.4,7.3,4.5,5.7l3.4-3.7
		l8.3-7.7l7.9,0.1l1.2-1.8l0.7,1.1l2.5,0.2l1.6,1.7c2.7,0.3,1.5-1.5,5-3.3l0.2-2.2l6.8,0c-0.3-2.1,5.8-3.5,6.6-5.3L199.8,223.4z"/>
</g>
<g id="g2380" transform="translate(10.06379,8.945591)">
	<path id="Catemu" sodipodi:nodetypes="cccsssssssssccscccccccccscccccccccccccccccccccccccccc" class="st1" d="M257.3,195.5
		l-0.5-6.5c2.3,3.9-2.9-0.7-4.8,1.4c-2.5-2.6-6.1-3-9.5-3.8c-2.7-4.2-5.3-1-8,1.5c-4.6-2-7.2,3.3-11.6,3.1c-2.9,0.9-7.7,2-8.1-0.5
		c-0.3-2.2-3.7-3.5-7.2-3.5c-0.3,2.5-1.2,6.7-4.4,4l-2.1,1.1c-0.8,1.8-2.8,4.6-0.6,5.6c3,0.8,1.7,2.5,1.9,3.2
		c1.4,1.5,2.8,1.3,2.1,3.4c-0.2,0.7-1.4,3.1-1.5,3.4c-0.5,1.9,0.3,3.8-1.1,5.4c0,1.8,0.2,3.1-0.4,4.7c0.1,0.2,0.7,2.1,0.4,2.4
		c-0.4,0.4-1.1,1.5-1.7,2.1l-0.4,1c0.3-0.7,2.5,2.8,2.7,3.4c0.3,1.2,0.7,1.7,1.7,2.4c0.6,0.4,1.1,2.4,1.2,2.7
		c0.3,0.7,1.2,0.9,1.7,1.5c0.7,0.7-0.3,1.4,1.7,1.9c1,0.3,1.5,1.5,2.2,2.2c0.7,0.7-0.7,2.1-0.7,2.2c-0.5,1.1-0.5,0.9-0.7,1.7
		c-0.1,0.2,0.9,2.4,1.2,2.7c0.6,0.6,1.2,1.3,1.9,1.7v2.9l2.1-1.5l0.5-2.7l1.2-1.8h2.5l1.3-2.5l3.2,0.7l-0.7,3.7l-2.5-0.2l3.5,2.5
		h3.4l0.7-3.4l-1.3-1.8l3-0.2l10.1-4.9l3.5-0.2l6.4-4.9l-1.2-8.7l-1.5-0.2l-1.3-1.8l0.2-1.8l9.2-16.6l0.2-7L257.3,195.5z"/>
	<path id="Llaillay" sodipodi:nodetypes="cccccccccccssssssssssssssscccccccccccccccc" class="st1" d="M227.2,246.9h-3.4l-3.5-2.5
		l2.5,0.2l0.7-3.7l-3.2-0.7l-1.3,2.5h-2.5l-1.2,1.8l-0.5,2.7l-2.1,1.5c-0.2,1-1,1.9-1.5,2.9c-0.4,0.8-0.8,1.9-2.4,1.2
		c-2.1-0.9-1.3-1.9-2.2-1.9c-1,0-3.3-0.6-2.9,1c0.4,1.6,0.7,2.1,1.7,3.2c0.8,0.8,2.4,1.4,2.2,2.2c-0.2,0.8-0.8,2.3-1,3.7
		c-0.1,0.7-1.1,3.5-0.5,4.1c1.7,1.7,0.5,1.8,0.5,3.4c0,2.1-0.6,1.6-0.2,2.9c0.3,1.3-0.2,2,0.2,3.2c0.7,1.7,1.8,2.3,2.4,3.7
		c0.7,1.4,0.3,2.1,1.9,2.9c1.2,0.6,3.8,0.9,3.4,1.7c-0.5,0.9-0.2,2.9-1.2,2.9c-2.3,0-1.2,1.1-1,2.2l-1.1,3.3
		c1.5-0.7,3.7-0.4,5.4-0.4c1.9,0.2,3.8,0.2,5.8,0.2c1.9-0.1,3.4-1.4,5-2.3c1.5-1.1,2.9,0.5,4.7,0.9c2.6,0.7,2.6-2,3.4-3.8
		c0.5-1.9,1.8-2.5,2.3-4.3c1.7-3.6,2.6-2.7,4.7-2.2c1.6,0,3.2,0.4,3.8-0.9c1.8-0.1-1.7-1.6,5.8-1.3c0.4,0,1.7-0.7,2.3-1.1
		c1.9-0.2,3.8,0.7,5.8,0.7c1.5,0,1.8-0.6,3.1-0.9c3.3-1.3,5.7,0.5,8.3,0.9c1.3,3.3,0.6-0.1,6.5-1.8l0.4-11.1l-1-1.8h-2.9l0.2-5.1
		l-3.9-10.1l-3.1,1.4h-12.3l-1.4-1l-1.4,1.4l-2.5-1.6l-3.1,2.1l-3.9-1.8l-2.5,2.3l-6-0.2l-0.8-0.8l-4.9-0.4L227.2,246.9z"/>
	<path id="Panquehue" sodipodi:nodetypes="ccccccccccccccccccccccccccccccc" class="st0" d="M227.2,246.9l1.4,1.6l4.9,0.4l0.8,0.8
		l6,0.2l2.5-2.3l3.9,1.8l3.1-2.1l2.5,1.6l1.4-1.4l1.4,1h12.3l3.1-1.4l4.5-4.5c-2.1-0.8-2.9-3.9-3.5-7.2c0.4-2.4,0-5.7,2.3-5.7
		l1.6-0.2l1.8-1.2v-2.1l-5.1-7.2l-3.9,0.2l-2,2.5l-3.9-0.2l-4.9,5.3l-8,5l-6.4,4.9l-3.5,0.2l-10.1,4.9l-3,0.2l1.3,1.8L227.2,246.9z"
		/>
	
		<path id="San_Felipe" inkscape:label="#path2202" sodipodi:nodetypes="cccccccccccccccccccccccccccccccccccccccccccccccc" class="st1" d="
		M295.5,217.1c-1.8,1-1.1,3.8-4.2,5.2l0.3,10.6l5.9,1.7c2.4,0.3,4.1,3.1,6.1,5l-2.4,0.2l-0.5,2.6l-1.7-0.2l-1.2,1.4l-0.5,2.1l-4-2.1
		h-9.1l0.2-7.7h-1.6l-2.6,3.8H277l-1.9,2.6c-2.1-0.8-2.9-3.9-3.5-7.2c0.4-2.4,0-5.7,2.3-5.7l1.6-0.2l1.8-1.2v-2.1l-5.1-7.2l-3.9,0.2
		l-2,2.5l-3.9-0.2l-4.9,5.3l-8,5l-1.2-8.7l-1.5-0.2l-1.3-1.8l0.2-1.8l9.2-16.6l0.2-7l2.2,0.2c4.4-0.5,0.3,2.5,5.5,5l5.2,0.2v3
		l2.6,2.8h3.5l3,4.4l-1.4,3.7l5-3.8c1-0.9,0.7-1.5,9.1-1.4l3.7-2.1l3.5,0.2c-0.2,1.4,0.2,3.1-1.2,3.7L295.5,217.1z"/>
	
		<path id="Putaendo" inkscape:label="#path2204" sodipodi:nodetypes="cccccccccccccscccsccccccccccccccccccccccsccscccccccccccccccccscscssssssc" class="st1" d="
		M352.3,87.6c-0.2-0.1-0.4-0.2-0.7-0.3c1.8-0.4,9.8-4.4,12-4.9c3.2-0.7,5.4-1.9,6.3-3c0.8,2,4.6,6,5.8,5.7c2.3-0.6,7.7,0.1,8.9,2.1
		c0.5,0.8,3.2,3.1,6.1,5.2c2.9,2.1,5.3,4.2,5.4,4.7s0.2,5.1,0.4,10.2c0.2,6.8-0.2,10.1-1.4,12.5c-1.5,3-1.5,3.5,0.2,6.5
		c1.7,0.9-0.6,6.7-0.5,10.2c0.1,3.3-0.4,4.9-5.3,6.1c2.2,6.3-4.9-2.3-5.2,2.4c-2.4-0.1-4.4,0-3.8,3.1c0.4,4-1.7,4.9-3.2,8.5
		c-2,2.2-1,4.3-2.3,5.3c0.5,3.7-2.4,7.3-4.3,10.1c1,4.9-3.8,1.4-5.1,4.8c-2.5,0.5-3.7,6.9-4.2,3.2c-4-4.6-5.2-6.9-7.4-2.2
		c-6.3,5.9-7.2,0.6-9.1,0.6c-2.2,1.8-4.6,1.6-6.9-0.4c-1.4,2.5-3.7,2.4-6.1,1.7c-1.7-0.5-3.3-1.3-4.7-1.7c0.6-2.5-4.6-3.3-2.5-4.5
		c-1.7-2.4-11-3.5-9.5,1.2c0.1,1.7,0.3,3.8-0.7,3.8c-3.8,0.3-4,2.1-6.4,2c-3.7,5.2-1.2,7-2.7,10.5c-0.5,3.3-2.5,6.3-4.3,9.2
		c-2.5,0.9-5.4,2.1-6.2,5.3l-1.5,1.6l-3.7,2.1c-8.4-0.1-8.1,0.5-9.1,1.4l-5,3.8l1.4-3.7l-3-4.4h-3.5l-2.6-2.8v-3l-5.2-0.2
		c-5.2-2.5-1.1-5.5-5.5-5l-0.5-6.5c-0.1-4.3,8-1.9,5-6c-3.3-1.4-4.5-7,0.3-6.9c3.2-2.7,6.6-7.8,1.9-10.9c-2.9-2.7-9.8,0.4-10.7-5.6
		c-0.1-2.5-1.7-5.1-2.8-6.5c4-2.4,1.9-8.4,6.2-9.5c3.6-1.9,3.6-5.1,3.6-6.8c0-1.2,2.2-0.9,3.9-0.3c5.5,1.4-2.2-5.8,3.3-3.9
		c2.5,0.1,4.6,2.8,7,2.1c1-0.3,1.2-1.4,5.6,3.2c3,3.3,4.8-5.9,7.3-0.4c2.5,1.5,9.5,8,8.8,1.9c3.8,1.5,5.2-0.5,5.2-4.5
		c-1.5-3,7.4-7,2.7-10.7c4.1-1.5-1.2-4.7,1.1-7.8c0-2.8-0.1-5.1,3.5-3.8c1.9,2.3,5.4,5.8,6.2,1.2c1.6-0.3,3.6-0.6,5.2-0.7l6-5.2h6.5
		l1.1,1.9h4.9l2.7-1.9l0.8-4.4l6.7,0.1c0.5-0.5,1.9-3.8,2-4.5c0.9-3,3-2.2,3.8-5.2C355.6,91.3,356.6,89.4,352.3,87.6"/>
	<path id="Santa_Maria" sodipodi:nodetypes="cccccccccccccscccccccccccccccc" class="st1" d="M310.4,241.6c-2.1-0.7-1.7-2.4-6.7-1.9
		c-2-2-3.7-4.8-6.1-5l-5.9-1.7l-0.3-10.6c3.1-1.4,2.4-4.2,4.2-5.2l0.2-6.1c1.5-0.5,1-2.3,1.2-3.7l-3.5-0.2l1.5-1.6
		c0.8-3.2,3.8-4.4,6.2-5.3c1.7-3,3.7-5.9,4.3-9.2c1.4-3.5-1.1-5.3,2.7-10.5c2.4,0.1,2.6-1.8,6.4-2c1-0.1,0.7-2.2,0.7-3.8
		c-1.5-4.7,7.9-3.6,9.5-1.2c-2.1,1.3,3.2,2.1,2.5,4.5c1.4,0.4,3,1.2,4.7,1.7l-3.5,7.4l-10.8,2.9c0.6,3.6-2.4,7.2,1.9,10.8l0.5,4.3
		c-1.8-0.8-1.7,1.5-1.7,3.8l-4.3,0.5c0.4,1.8,0,3.7-3.4,5.5h-2.2c-0.3,1.7-1.3,3.3,1.6,4.3v5.8c-2.6,1-2.5,2.5,0.1,4.8L310.4,241.6z
		"/>
</g>
<g id="g2374" transform="translate(10.06379,8.945591)">
	<path id="San_Esteban" sodipodi:nodetypes="ccsssssssssccccccccccccccccccccccccccsccscscccsccccc" class="st1" d="M416.1,223.2
		c2.8-2.9,8.4-3.1,7.1-6.4c-0.8-2.6-1.2-5.2-1.2-7.7c0-9.1-1.9-17.3-4.6-20.1c-3.4-3.6-1.8-8.7,3.8-12.3c2-1.3,2.8-2.6,2.8-4.7
		c0-1.6,0.4-4.1,1-5.5c0.7-2,0.5-3.8-1-7.6c-1.1-2.8-2-6.2-2-7.6c0-3.9-4.4-10.6-8.2-12.4c-1.8-0.9-4.9-2.4-6.8-3.3
		c-5.9-2.8-9.8-6-11.7-9.4c1.7,0.9-0.6,6.7-0.5,10.2c0.1,3.3-0.4,4.9-5.3,6.1c2.2,6.3-4.9-2.3-5.2,2.4c-2.4-0.1-4.4,0-3.8,3.1
		c0.4,4-1.7,4.9-3.2,8.5c-2,2.2-1,4.3-2.3,5.3c0.5,3.7-2.4,7.3-4.3,10.1c1,4.9-3.8,1.4-5.1,4.8c-2.5,0.5-3.7,6.9-4.2,3.2
		c-4-4.6-5.2-6.9-7.4-2.2c-6.3,5.9-7.2,0.6-9.1,0.6c-2.2,1.8-4.6,1.6-6.9-0.4c-1.4,2.5-3.7,2.4-6.1,1.7l-3.5,7.4l-10.8,2.9
		c0.6,3.6-2.4,7.2,1.9,10.8l0.5,4.3c-1.8-0.8-1.7,1.5-1.7,3.8l-4.3,0.5c0.4,1.8,0,3.7-3.4,5.5h-2.2c-0.3,1.7-1.3,3.3,1.6,4.3v5.8
		c-2.6,1-2.5,2.5,0.1,4.8l0.2,11.8c2.1,0.7,2.4,1.2,4.3,3.4c1.9,2.3,4.2,0.1,6.4,0.2c6.4,1.5,10.4,6.3,16.2,9.1
		c3.1,0.3,6.6-0.3,10.1-0.5c3-0.2,3.4,0.5,6.2,1.7c1.9,0.3,3.5-0.8,5.2,0.3c3.7,2.5,9,9.7,12,12.3c1.8-0.2-2.3-2.9,5.6-3.4
		c-0.5-1.1,1.7-4.5,2.3-6.6c4.5-0.1,5.4-3.7,6.7-7.3c0.6-1.7,3.1-2.2,4.5-3.2c0.9-8.1,7.9,3.5,7.9-3.4c2.6-1.9,1.1-8.5,6.2-6.6
		c4.7,1.7-1.9-5,5-3.5C408.7,227.5,417.7,231.4,416.1,223.2z"/>
	<path id="Los_Andes" sodipodi:nodetypes="ccssssssssscccccccccccccccccccccccccccccccccccccccccssccscscccsccccc" class="st1" d="
		M416.1,223.2c2.8-2.9,8.4-3.1,7.1-6.4c1,3.3,2.7,6.8,5,10.2c0.9,1.4,1.9,3.6,2.3,5s3.5,5,7.1,8c3.8,3.3,6.7,6.5,7,8
		c1.3,6.5,2,7.5,6.4,9.1c6.1,2.2,9.2,6,8.4,10.2c-0.9,5.3-3.6,12.1-5.6,14.3c-2.1,2.4-2.4,4.3-1.4,9.4c1,4.9-2,8.6-8.1,10.1
		c-3.5,0.9-4.8,5.8-6.3,8.3l-1.8-0.3c-4.1,1.5-5.5,4.4-8.2,6.6c-1.3,0.1-2.6,0-2.7,4.7c-4.2,2.6-3.4,4.4-8.8,4.6l-4.6,2.8l-1.4,3.4
		c-2.4,0.4-4.4,2.4-6.4,4.8c-0.6,0.4-0.4,1.4,1.8,3.4c-1.1,2.2-2.6,3.4-4,4.8l-0.2,4.7c-8,0.8-1.9-3.8-5.6-6.6l-0.7-2.4l0.1-6.8
		h-3.8l-3.6-3.8l-0.2-1.3l-2.3-1.2l-2.5,0.2c-0.7-1.8-1.5-2.1-2.2-2.2l-2.8-1.4c-1.1,2.9-4.2,3.4-7.8,3.1L368,323
		c-3.5-1.1-2.6-5.4-5.6-7.1c-2.5-2.8,2.8-4.9,0.7-7.9c1.2-4.3-3.1-5.3-6.3-5.9c-0.4-0.8,0.6-5.8,2.9-6.4c1-3-3.4-4.8-5.8-5.6
		c-2.2-2.4-4.4-4.9-7.2-6.6c-3.2-2.1-0.4-6.2-3.5-8.1c-0.2-5.6-4-6.9-7.4-6.5c-2.6-0.9,0.5-5.3-2.6-6.2c-1.7-2.5-4.9-2.9-7.4-4.2
		c-2.5-2.3-6.2-2.8-8.6-5.2c-4.7-1.5-16.2-5.8-17.6-6.2s-2.3-1.2-2.3-1.2l0.5-2.1l1.2-1.4l1.7,0.2l0.5-2.6l2.4-0.2
		c5-0.5,4.6,1.2,6.7,1.9c2.1,0.7,2.4,1.2,4.3,3.4c1.9,2.3,4.2,0.1,6.4,0.2c6.4,1.5,10.4,6.3,16.2,9.1c3.1,0.3,6.6-0.3,10.1-0.5
		c3-0.2,3.4,0.5,6.2,1.7c1.9,0.3,3.5-0.8,5.2,0.3c3.7,2.5,9,9.7,12,12.3c1.8-0.2-2.3-2.9,5.6-3.4c-0.5-1.1,1.7-4.5,2.3-6.6
		c4.5-0.1,5.4-3.7,6.7-7.3c0.6-1.7,3.1-2.2,4.5-3.2c0.9-8.1,7.9,3.5,7.9-3.4c2.6-1.9,1.1-8.5,6.2-6.6c4.7,1.7-1.9-5,5-3.5
		C408.7,227.5,417.7,231.4,416.1,223.2z"/>
	<path id="Rinconada" sodipodi:nodetypes="cccccccccccccccccccccssssssssssc" class="st1" d="M297.3,247.6c0.2-0.8-0.1-1.7-0.1-1.7
		l-4-2.1h-9.1l0.2-7.7h-1.6l-2.6,3.8H277l-1.9,2.6l-4.5,4.5l3.9,10.1l-0.2,5.1h2.9l1,1.8l-0.4,11.1l1.3-0.1c2.8,0,4.3,2.2,4.8,3.2
		c0.2,1-0.1,4.7,0,5l1.5,0.6c0.9,4.3,4,0.6,6.2,0.4c3.6,1.7,3.3,0.5,5.6-0.3c0.6-1.1,0-4.7,2-5.4c1.1-0.4,0.8-2.4,0.5-3.5
		c-0.2-0.7-0.4-1.6-1-2.8c-1.3-2.6-0.9-0.8-3.3-2c-1-0.5-2.8-1.7-1.8-2.8c0.6-0.6,1.9-1.4,1-2.5c-2.2-3,1-2.9,0.8-3.8
		c-0.3-1.2-2.1-3.4-0.5-3.8c0.8-0.2,2.2-1.1,2.5-1.8c0.6-1.3,1.2-2.2,0.8-3.8C298.1,250.6,297.1,248.4,297.3,247.6z"/>
	<path id="Calle_Larga" inkscape:label="#path2330" sodipodi:nodetypes="cccscsccccscccccssssssssssscsccccccccc" class="st1" d="
		M356.8,302c-2.6-1.5-5.2,0.8-5.2,3.3c-2.6,1.9-3.5,4.9-5,7.6c-0.4,1.9,2.1,3.4-2.8,3.3c-1.2,0,1.7,3.5-2.4,4.5
		c-1.5,0.2-3.7,1.8-4.4,0.6c-0.8-1.4-1.9-4.1-3.5-5.3c0.5-3.3-1.6-6.6-4.8-7.9c-4.4-1.5-1.5-5.6-0.8-8.5c-2.4-2.5-4.4-5.6-6.8-8.3
		c-0.9-3-3.2-2.7-4.3-3c-1.2-0.4,0-3.2-0.4-4.7c-0.9-1.3-1.8-3.3-4.4-3.9c-1,0.9-1.6,2.7-2.8,0.7c-3-0.6-5.8,0.6-8,2.6
		c-1.7,0.1-2.9,0.4-3.7,0.7c0.6-1.1,0-4.7,2-5.4c1.1-0.4,0.8-2.4,0.5-3.5c-0.2-0.7-0.4-1.6-1-2.8c-1.3-2.6-0.9-0.8-3.3-2
		c-1-0.5-2.8-1.7-1.8-2.8c0.6-0.6,1.9-1.4,1-2.5c-2.2-3,1-2.9,0.8-3.8c-0.3-1.2-2.1-3.4-0.5-3.8c0.8-0.2,2.2-1.1,2.5-1.8
		c0.6-1.3,1.2-2.2,0.8-3.8c-0.2-1-1.2-3.2-1-4c0.2-0.8-0.1-1.7-0.1-1.7s1,0.9,2.3,1.2s12.9,4.7,17.6,6.2c2.4,2.4,6.1,2.9,8.6,5.2
		c2.6,1.2,5.7,1.6,7.4,4.2c3.1,0.9-0.1,5.3,2.6,6.2c3.4-0.4,7.1,0.9,7.4,6.5c3.2,1.9,0.4,6,3.5,8.1c2.8,1.8,5,4.2,7.2,6.6
		c2.4,0.8,6.8,2.6,5.8,5.6C357.4,296.2,356.4,301.2,356.8,302z"/>
</g>
<g id="g2367" transform="translate(10.06379,8.945591)">
	<path id="Zapallar" sodipodi:nodetypes="ccccccscccccccccccccccccccccccccccccc" class="st1" d="M106.2,193.2l2.1,0.8
		c1.5,2.1,3.8-1.6,3.9-0.9c0.8,1.8,2.2,2.2,3.7,3.4c0.6,0.6,1.8,0.6,2.4,1.3c1.1,1.4,2.3,3.1,0.9,4.7c-1.6,1.6,0,0.1,0.6,1.1
		c0.6,1.1,1.3,1.9,2.8,1.9c2.5,0.4,2.8,2,4.9,2.2c1.6-0.7,2.8-2,4.3-2.6c1.2,0.1,2.4,0.2,3.5-0.2l5.4-2.6c-0.8-3.5,1.4-3.6,3.5-3.7
		c-1.4-4.1,0.2-5.6,4.3-5.2l4.1-1.7l2.1-7.3l8.2,0.2l0.2-3.7c-6.1-3.9-4.1-9.8-10.8-13.1c-2.1-5.1-7.5-6.3-11.9-8.6l0.4-2.4
		l-2.8-2.4l-1.7,1.9l-1.7-1.5l-1.3,2.6c-7.3,1-10,4.6-12.9,8c0.3,2.4-0.3,4.3-3,5.2h-9.9l-3.2-3.4h-1.5l-2.4-1.5l-1-9.3
		c-3.1-3.3-2.8,0-3.6,1.4c-0.7,0.3,0.3,1.5-0.3,4.8c2.3,2.8,4.1,7.2,2.3,12.8l3.9,6.3C106.7,183.3,105.2,189.1,106.2,193.2z"/>
	<path id="Papudo" sodipodi:nodetypes="cccccccccccccccccccccccccc" class="st1" d="M99.5,156.3l1,9.3l2.4,1.5h1.5l3.2,3.4h9.9
		c2.6-0.9,3.3-2.8,3-5.2c2.9-3.5,5.6-7,12.9-8l1.3-2.6l1.7,1.5l1.7-1.9l-1.7-5.9l-5.3-5.7l2.1-3.2c2.7,2.3,5.9,0.5,9.1-1.1l-5.7-2.1
		l-5.5-9.1l-4.3,3.4l-1.9-2.1l-3.4-0.2l-1.3-1.3l-2.6,1.3c-1.3,0.6-3,0.6-5.8-1.3c0.6,2.1,0.4,2.9-3.8,2.1
		c-1.8,1.3,0.1,10.1-3.1,11.9C104.9,146.3,108.1,162,99.5,156.3z"/>
	<path id="La_Ligua" sodipodi:nodetypes="ccccsssscccccccccccscccccccccccccccccccccccccccccccccccccccccccssssscc" class="st1" d="
		M80,66.6c2.3,3.5,2.9,8.1,12.6-1.6l3.4-3.4l7.5,3.2c10.6,4.5,18.3,7.1,23.1,6.8c7-0.4,19-4.8,18.4-7.5c-0.9-3.9,5.4-2.2,9.4-11.1
		c2.6-5.6,4.2-5.2,7.6,0.8c1.5,2.7,4.1,4.8,5.8,4.8c1.7,0-4.1,7.4-2.4,9c1.7,1.6,2.2,4.1,4.1,5.5c1,1.9,0.5,0.8,2,2.8
		c0,1.3-0.4,6.8-1.7,7.1c-2.3,0.2-4.2,2.2-2,4.1c1.9,2,3.1,4.5,4.1,7c-1.5,2.1-0.1,3.9,2.3,3.1c2.5,0.1,3.7,5.5,5,7.2
		c1.5,2.1,1.2,2.3,3.3,4c2.1,1.2,0.2,3.7,2.1,5.1c-0.2,0.7-0.3,1.3-0.5,2c-0.3,1.5-0.3,2.9,0.4,4.4c1.6,2.4-3.1,3.3-0.7,5.5
		c0.5,2.4,4,3.6,4.5,5.9l-3-0.3c-6.4,2.8-7.2,5.5-8.7,8.3l-0.8,11.9l4.9,4l-1.3,1.7l2.1,3.2l5.3,0.2l8.1,6h2.1
		c7,5.2,2.2,8.1,0.4,9.6l-0.3,4.3h-2.4l-1.5,1.1c-0.4,1.3-1,2.6,0.6,3.9l-1.7,3.2h-6.5c-2.5-0.9,1-1-7.8-2.8l-0.2-2.4l-3.7-0.4v-2.2
		H171l-6.2,4.9l-1.9-1.1l0.2-3.7c-6.1-3.9-4.1-9.8-10.8-13.1c-2.1-5.1-7.5-6.3-11.9-8.6l0.4-2.4l-2.8-2.4l-1.7-5.9l-5.3-5.7l2.1-3.2
		c2.7,2.3,5.9,0.5,9.1-1.1l-5.7-2.1l-5.5-9.1l-4.3,3.4l-1.9-2.1l-3.4-0.2l-1.3-1.3l-2.6,1.3c-1.3,0.6-3,0.6-5.8-1.3
		c-1.1-3.9-4.5-8.8-7.1-9.6c-2.5-0.8-4.7-9.9-7.5-5.5c-0.7,1.1-2.3-0.8-2.6-2.2c-0.9-4-0.1-12.2-0.1-16.8c0.1-6.6-2.5-12.6-9.2-11.2
		c-3.6,0.8-3.8-0.5-3.8-4L80,66.6z"/>
	<path id="Petorca" sodipodi:nodetypes="ccccccsccsssssscsccccccccccccscscccsccscccccccccsc" class="st1" d="M167.8,58.7
		c3.6,0,9.7-6.2,16.4-12.1c3.9-5.5,7.3-8.8,10.2-9c2.6-3.2,3.8-6.4,9.3-9.6c1.3-2.9-6.4-4.3-3-8.6c-2.8-5.7,12.6-0.9,16-1.2
		c2.1,0.3,3.9,0.9,4.9,2.3c4,5.9,7.6,12.2,8.5,4.3c7.9-3,13.8-2,16.6-6.4c5.6-2.7,12.2-4.8,14.6-4.8s5.8-1.1,7.5-2.4
		c5.1-3.8,11.8-2.7,12.3,2c0.4,3.6,7,8.3,5.7,4.9c-1.5-3.9,15.6,0.6,5.6,9c-3.7,3.1,7.4,11.7,3.2,11.4c-1.2-0.1,6.4,4.9,13,8.3
		c15.6,2.6,17.9,9.3,15.1-3.7c-0.4-2.1,5,3,9.7,4.5l8.3,2.8c4.4,3.7-0.4,12.9-0.7,19.4c0.8,5.1-0.7-0.6-2.3,2.6
		c0.1,0.9,0.9,2.2-3.5,3.2c-5.4-0.9-7.1,9.3-11.6,4.8c-5,1-10.7-2.8-14.9,1.4c-3.4,3.6-4.3-2.5-13.9,2.5c-8.4-1.4-8.5,3-13.2,3.3
		c-4.3,0.2-10.3-0.2-12.6,3.1c-5,2.1-10.1-5.1-13.5-3.5c-4.8-2.7-4.9,3.2-6.4,6.4c-3.7,3.8-8.4,7.3-9.5,6.8
		c-4.3-2.1-3.6,1.7-5.4,2.1c-0.3,2.8-1,6.3-3.2,5.6c-2.7-0.9-4.7,0.1-6.5-0.6c-2.9-3-5.8-7.1-11.9-5c-5.3,1.3-8.3,6-9.8,10.9
		c-0.8,3.4-2.2,4.9-6.5,7.4c-0.7,0.4-1.7-1.2-2.6-1.9c-1.4-2.5-4.4,0.3-5.4-1.8c-5-2.6-4.3-0.6-4.2-1.3c0.1-0.7,0.3-1.4,0.5-2
		c-1.8-1.4,0-3.9-2.1-5.1c-2.1-1.7-1.8-1.9-3.3-4c-1.3-1.7-2.4-7.1-5-7.2c-2.4,0.8-3.8-1.1-2.3-3.1c-1-2.5-2.2-5.1-4.1-7
		c-2.2-1.9-0.2-3.9,2-4.1c1.3-0.3,1.7-5.8,1.7-7.1c-1.5-2-1-0.8-2-2.8c-2-1.4-2.4-4-4.1-5.5C163.7,66.1,169.5,58.7,167.8,58.7z"/>
	
		<path id="Cabildo" sodipodi:nodetypes="ccccccccccccccccsccccscccccccccccsccsccccccccccccccccccccccccccccccscscccsccc" class="st1" d="
		M184.1,115.7c-0.3,1.5-0.3,2.9,0.4,4.4c1.6,2.4-3.1,3.3-0.7,5.5c0.5,2.4,4,3.6,4.5,5.9l-3-0.3c-6.4,2.8-7.2,5.5-8.7,8.3l-0.8,11.9
		l4.9,4l-1.3,1.7l2.1,3.2l5.3,0.2l8.1,6h2.1c7,5.2,2.2,8.1,0.4,9.6l-0.3,4.3l1.9,3c0,0-1,1.3-0.9,2.4s0.2,2.8,1.1,4.1
		c0.9,0.9,2.4,1.3,1.9,2.4l2.1-1.1c3.2,2.7,4.1-1.5,4.4-4c3.5-0.1,6.9,1.2,7.2,3.5c0.4,2.5,5.2,1.4,8.1,0.5c4.4,0.2,7-5.1,11.6-3.1
		c2.7-2.5,5.3-5.7,8-1.5c3.4,0.8,7,1.2,9.5,3.8c1.9-2.1,7.1,2.4,4.8-1.4c-0.1-4.3,8-1.9,5-6c-3.3-1.4-4.5-7,0.3-6.9
		c3.2-2.7,6.6-7.8,1.9-10.9c-2.9-2.7-9.8,0.4-10.7-5.6c-0.1-2.5-1.7-5.1-2.8-6.5c4-2.4,1.9-8.4,6.2-9.5c3.6-1.9,3.6-5.1,3.6-6.8
		c0-1.2,2.2-0.9,3.9-0.3c5.5,1.4-2.2-5.8,3.3-3.9c2.5,0.1,4.6,2.8,7,2.1c1-0.3,1.2-1.4,5.6,3.2c3,3.3,4.8-5.9,7.3-0.4
		c2.5,1.5,9.5,8,8.8,1.9c3.8,1.5,5.2-0.5,5.2-4.5c-1.5-3,7.4-7,2.7-10.7c4.1-1.5-1.2-4.7,1.1-7.8c0-2.8-0.1-5.1,3.5-3.8
		c1.9,2.3,5.4,5.8,6.2,1.2c1.6-0.3,3.6-0.6,5.2-0.7l6-5.2h6.5l1.1,1.9h4.9l2.7-1.9l0.8-4.4l6.7,0.1c0.5-0.5,1.9-3.8,2-4.5
		c0.9-3,3-2.2,3.8-5.2c0.8-3,1.9-4.9-3.1-6.8c-5-1.9-2.9-10.2-3.3-15.1c0-2.3-5.9-1.3-7.3-2.4c0.8,5.1-0.7-0.6-2.3,2.6
		c0.1,0.9,0.9,2.2-3.5,3.2c-5.4-0.9-7.1,9.3-11.6,4.8c-5,1-10.7-2.8-14.9,1.4c-3.4,3.6-4.3-2.5-13.9,2.5c-8.4-1.4-8.5,3-13.2,3.3
		c-4.3,0.2-10.3-0.2-12.6,3.1c-5,2.1-10.1-5.1-13.5-3.5c-4.8-2.7-4.9,3.2-6.4,6.4c-3.7,3.8-8.4,7.3-9.5,6.8
		c-4.3-2.1-3.6,1.7-5.4,2.1c-0.3,2.8-1,6.3-3.2,5.6c-2.7-0.9-4.7,0.1-6.5-0.6c-2.9-3-5.8-7.1-11.9-5c-5.3,1.3-8.3,6-9.8,10.9
		c-0.8,3.4-2.2,4.9-6.5,7.4c-0.7,0.4-1.7-1.2-2.6-1.9c-1.4-2.5-4.4,0.3-5.4-1.8C183.3,114.5,184,116.4,184.1,115.7z"/>
</g>
<g id="g2348" transform="translate(10.06379,8.945591)">
	<path id="Valparaiso" sodipodi:nodetypes="ccccccccccccccccssccccccccccccccccccc" class="st2" d="M124.2,353l-2.8-0.9
		c-0.6-0.5-1.2-1.1-1.6-1.8c-2.9-0.3-5.2-2.3-8-3.3c-3.9,0.3-6.9-2.7-10.3-4.2c-0.7-2.5-2.9-4-4.7-5.7c2.1-0.5,3.1-3-1.5-7.6
		c-6.3-1.2-6.3-2-8.5,0.5c-2.9,3.5-6.3-0.5-4.1-3.8c1.3-3.3-3.9-5-1.7-7.6c-0.9-3.2-7.4-1.6-6.8-5.8l-3.1-2.6
		c-5.5,6.2-7.9,3.1-8.5,0c-1.2-5-4.2-4.1-4.4-0.4c-0.6,1.1-3,3.5-3.4,6c1.5,6.7,0.4,15.3-3.2,13.7c0,2.8-6,1.2-10.2-1.5
		c-1.8-1.1-3.8-1.7-3.7,0c0.1,2,0.1,5.4,1.4,9.7c0.6,1.3,2.3,2.2,5.1,3.6c-1.3,0.1,0.4,3.3,2.1,4.8l2.9,0.9c3.5-0.5,6.7,0.2,8.7,3.1
		c2.1,0.2,4-3.8,7-2.1c5.9,1.4,10.1,6.9,16.2,7.9c3.2,2,4.1,7.6,9.2,6.3c3.1,0.1,2.1-5.4,5.7-2.5c3.8,0.5,7.5-2.4,11.6-1.2
		c3.9,1.4,10.8,4.4,12.3-1.6C122.4,356.1,123.4,355.7,124.2,353z"/>
	<path id="Casablanca" sodipodi:nodetypes="ccccccccccccccccscscccccccccccccccccccccccccccccccccccccccccc" class="st1" d="
		M45.3,346l2.9,0.9c3.6-0.5,6.8,0.2,8.8,3.1c2.2,0.2,4-3.8,7.1-2.1c6,1.4,10.3,6.9,16.5,7.9c3.2,2,4.2,7.6,9.3,6.3
		c3.1,0.1,2.1-5.4,5.8-2.5c3.8,0.5,7.6-2.4,11.8-1.2c3.9,1.4,10.9,4.4,12.5-1.6c2.3-0.7,3.4-1.1,4.1-3.8c1.1-1,5.5-2.7,3-0.4
		c-0.1,2.8,6,1.9,4.4,4.6c3.9,1.5,9.1-1,12.1,2.7c3.1,2.1,4.8,5.7,8.8,6.6c13.2,5.5,12.2,2.3,10.5,3.3c-1.6,1.1-0.5,2.6,0.3,4.1
		c0.3,1.6,0,5.8,0.7,6.1c0.2,0.1,0.2,2,2.2,4.4c-0.7,4.2,2.7,6.8,3.5,7c0.6,0.1-0.7,0.5-1,4c-1.6,0.3-2.6,1.2-1.3,4.4l-1.3,3
		c-3.2,2.4,0.8,4-2.5,7.2c-1.4-1.6-4.6,1.8-5.3,2.8c-1.3-0.1-2.3-1.6-3.9,0.2l-4.2,5.7c-0.1,0-0.2,0.1-0.4,0.3
		c-1.3,1.6-4.7,1.6-9.2,0.7c-2.4-1.8-3.3-0.7-3.8,1.2c-3.9,1.7-0.3,5.5-0.2,8.3c-0.2-1.2-8.9,2.2-11.6,3.5
		c-6.1-1.9-7.9,4.7-12.6,6.4c-1.5,6-8.6,1-11.5-1.3c-0.1-1.3-4.6,0.6-3.4-0.5c-2.2,2.8-6.4-2.2-9.3-3.8c-2.3-1.1-4.8-0.9-7.1,0
		c-2.6,0.2-5.4,0.7-7.9-0.4c-2.3-1-3.9-2.8-5.5-4.7c2.8,0.3,4.5-2.7,5.8-4.7c1.8-2.1,0.9-4.5-0.1-6.6c0.3-1.7,1.7-6.1,4-3.8
		c1.7,1.7,4.9,2.5,6.8,0.9c0.8-2.5-3.1-4.7-1.4-7.5c1.1-2.3,3.7-3.8,3.9-6.5c0.7-3.1,3.6-5.3,3.7-8.6c0-3-3.8-4.3-3.7-7.2
		c0.5-2.4,0.6-4.9,0.6-7.4c-0.8-2.7-4.7-1.8-6.8-1.5c-2.2,0.1-3.7,3.6-6.1,1.4c-1.3-2.9-4.8-2-6.7-0.2c-1.9-0.1-1.7,3.6-3.7,1.6
		c-2.6-0.9-5.8,0.1-7.6,2.1c2.7,2.5-3.2,1-2.1,2c-2.2-2.2-1.2-5.1-5.8-7.2c-2.1-1.7-2.1-1.7-0.3-4.8l1.8-3.1
		c0.4-3.5-1.8-3.4-3.6-3.9c-0.2-1.6-0.3-3.3-3-3.9l1.8-3.5c3.4-0.4,4.8-2.8,2.6-4.8L45.3,346z"/>
	<path id="Vina_del_Mar" sodipodi:nodetypes="ccccccccccccccccccccccccc" class="st1" d="M81,286.1l3.3,1.2c1.6,1,4.9,0.2,6.3,1.4
		c1.7,1.7,3.4,3.5,5.4,4.8c2.1,1.8,4.9,2.6,6.8,4.7c1.3,0.9,4.4,2.3,6.1,2.4l3.4,1.6c2.2,0.5,0,3.7-1.5,2.8c-1.2-0.7-3.2-1.6-4.1,0
		c-0.8,1.8-2.2,1.1-3.5,0.3c-1.8-1.5-2.6,0.2-3.3,1.7c-0.9,1.3-3.5,1.6-3.2,3.6c1,1.8,0.1,3.6,0.2,5.4c0.2,2,2.5,2.4,3.4,3.9
		c0.2,1.7,0.5,3.6,0.1,5.3c-0.9,1.3-3.1,0.8-3.9,2.3l-1.5,2c-6.4-1.2-6.4-2-8.6,0.5c-2.9,3.5-6.4-0.5-4.2-3.8c1.3-3.3-3.9-5-1.7-7.6
		c-0.9-3.2-7.5-1.6-6.9-5.8l-3.2-2.6c4.1-3.2,3.3-0.1,5.6-1.5c2.2-1.4,2.9-5.6,4.5-7.7C82.1,297.5,82.4,292.6,81,286.1z"/>
	<path id="Concon" sodipodi:nodetypes="ccccccccccccccccccccccc" class="st1" d="M108.9,300.7c1.7,0.1-1-2-0.4-2.7
		c0.7-0.7,2.4-3.5,3.3-3.9c1.9-0.8,3.9-0.3,5.8-0.1c1.6,0.5,2.8-1.3,3.1-2.7c0.2-1.7-2.3-2.6-1.7-4.5c0.1-1.6-2-1.4-2.7-0.4
		c-1,1.6-3.4,1.1-4.2-0.4c-0.4-1.3-0.3-3-1.6-3.9c-3,1.9-3.1-2.4-4.3-4c-2-0.2-4.1-0.2-5.9-1c-1.2-0.9-3.1-0.6-3.7,0.9
		c-1.4,0.7-3.1,0.7-4.4-0.2c-1.3-0.9-2-2.2-2.3-1.1c-0.3,1.1-1.8-0.1-2.4,0.9c-1.4,2.6-2.8,5-4.7,1.5l-4,2.6c0.4,1.5,1.7,3.1,2,4.5
		l3.3,1.2c1.6,1,4.9,0.2,6.3,1.4c1.7,1.7,3.4,3.5,5.4,4.8c2.1,1.8,4.9,2.6,6.8,4.7C104.2,299.2,107.2,300.6,108.9,300.7z"/>
	<path id="Villa_Alemana" sodipodi:nodetypes="cccccccccccccccccccccccc" class="st1" d="M116.8,303.8c0.4,2,0.5,4,0.4,6
		c0.6,1.4,0.5,2.9,1,4.4c1.6,1.9-2.1,2.9-0.8,4.7c1.4,1.5,3.7,1.6,5.4,2.8c1.7,0.7,2.7,2.2,3.3,3.9c0.8,1.4,1,3.5,3,3.6
		c1.7,0.4,3.2,1.3,4.8,1.8c1.7-0.1,3.3,0.6,4.6,1.8c1.5,0.6,1.5,1.5,3.4,1.2c1.5,0.1,3.8,1,5.1,0.2c1.1-1.1,3.6-0.1,4.2-1.2
		c-1.1-1.4,0-3.1,0.3-4.6c0.7-1.8-1.7-2.8-2.4-4.2c-0.8-1.6-2.4-2.8-2.5-4.6c0-1.8-0.8-3.3-2.3-4.3c-0.4-2,0.6-3.9,1-5.8
		c0.7-1.8-0.5-3.4-0.6-5.2c-5-1.6-5,1.8-7.1,3.1c-0.3,1.5-0.8,3.2-2.5,3.6c-1.7,1.2-3.8,0.2-5.1-1c-1.4-0.7-3.1-0.8-4.1-2.2
		c-1.7-1.7-3.6-3.6-6.1-4C118.9,303.3,117.8,303.4,116.8,303.8z"/>
	<path id="Quilpue" sodipodi:nodetypes="cccccccccccccccccccccccccccccccccccccccccccccccccscccccccccccccccccccc" class="st1" d="
		M124.2,353l-2.8-0.9c-0.6-0.5-1.2-1.1-1.6-1.8c-2.9-0.3-5.3-2.3-8.1-3.3c-4,0.3-7-2.7-10.5-4.2c-0.7-2.5-2.9-4-4.7-5.7
		c2.1-0.5,3.1-3-1.5-7.6l1.5-2c0.8-1.5,3.1-1,3.9-2.3c0.4-1.7,0.1-3.6-0.1-5.3c-1-1.5-3.2-1.8-3.4-3.9c-0.1-1.8,0.8-3.6-0.2-5.4
		c-0.3-2,2.3-2.3,3.2-3.6c0.7-1.4,1.4-3.1,3.3-1.7c1.3,0.8,2.7,1.5,3.5-0.3c0.9-1.7,2.9-0.8,4.1,0c1.5,0.9,3.6-2.3,1.5-2.8l4.4,1.5
		c0.4,2,0.5,4,0.4,6c0.6,1.4,0.5,2.9,1,4.4c1.6,1.9-2.1,2.9-0.8,4.7c1.4,1.5,3.7,1.6,5.4,2.8c1.7,0.7,2.7,2.2,3.3,3.9
		c0.8,1.4,1,3.5,3,3.6c1.7,0.4,3.2,1.3,4.8,1.8c1.7-0.1,3.3,0.6,4.6,1.8c1.5,0.6,1.5,1.5,3.4,1.2c1.5,0.1,3.8,1,5.1,0.2
		c1.1-1.1,3.6-0.1,4.2-1.2s0.4,3.2,1.7,3.2c1.3,0,3.7,0.4,2.5,2.2c0.4,2,3.3,1.5,3.5,3.5c0.9-1.2,0.7-3.5,3-2.8
		c2,0.3,4.2,1.3,4.8,3.5c0.4,1,1.4,5.1,2.5,2.7c0.1-1.9,1.3-3.3,3.3-2.9c0.3-0.9-2-3.5,0.7-3.1c2-0.5,3.7,1.1,5.6,0.8
		c1.1-1.7,3.9-0.7,4.8-1.6c-2-1.5-0.2-3.7,0.7-5.3c1-1.5,2.6-3.3,3.9-1c1.8,0.4,3.9-2.3,5.9-2.4c2.4-0.7,0.8-2.4,3.3-3.2
		c2.4-1.8,2.9,2.1,5.1,1.7c1.3-0.6,4.5-1.5,4.7-1.9l3.1-3.1c1.3,1.1,3.2,1.5,2.9,3.4c-1.9,5.7-0.2,5.1,0.2,10.6c1.9,2,0.1,3.1,0.9,5
		c1.3,0.7,1.8,2.1,2.4,3.1c0.9,1.6,1.7,3.2,2.6,4.8c2.1,1.8-1.2,1.1-0.8,3.5c0.1,1.4,0,2.1-2,3.2c-3.7-0.7-3.4,1.7-5.6,1.1
		c1,5.2-0.8,3.7-3.1,1.1c-1.3,1-2.5,0.1-3.7-0.5c-0.9,1-0.5,3.4-0.6,5.1c-3,3.5-5.1,2.4-6.9-0.3c-2.8,0-7.3-1.6-7,1.4
		c-1.2,2.3-3.5,3-7.2,1.6l-3-1.3c-3.4,2.4-3.9,1.1-4.8,0.3l-3.1-0.3c-1.3,1.2-2.8,2.1-5.3,1.6c0.1,1.7-1.2,2.5-3.1,3
		c1.7-1,2.7,2.2-10.5-3.3c-3.9-0.9-5.6-4.4-8.8-6.6c-3-3.6-8.3-1.1-12.1-2.7c1.6-2.7-4.5-1.8-4.4-4.6
		C129.7,350.3,125.2,352,124.2,353z"/>
	<path id="Quintero" sodipodi:nodetypes="ccccsccccccccccccccccccc" class="st1" d="M106.4,278.1l0.4-5.2c-1.4-1.1-5.2-3.2-3.5-4.9
		c2-0.4,4.5,0.6,5.7-1.7c1.7-1,2.6-3,4.6-3.4c2.3,0.8,3-1.1,3.2-3c0.6-0.6,1.4-1.2,2.2-1.6l-5.5,0c-4.7-2.4-0.3-6.7-1-14.6
		c-4.8-0.1-3-3.5-1-6c-3.1-0.1-7.9,0.5-6.8-1.2l-4.3,5.8l-6-4.5l2.7-4.8l-3-0.3c-1.4,4.8-4.2,8.2-6.2,2.9l-6-2.8
		c-0.4,4.7-1.2,16.4,2,19c0.7,0.1-0.2,1.1,2.2,0.3c2.7,6.5,6.2,18.1,4.1,24.6c0.3-1.1,1.1,0.2,2.3,1.1c1.3,0.9,3,0.9,4.4,0.2
		c0.6-1.5,2.5-1.8,3.7-0.9C102.3,277.9,104.4,277.9,106.4,278.1z"/>
	<path id="Puchuncavi" sodipodi:nodetypes="cccccccccccccccccccccccccccccccccccsccccc" class="st1" d="M108.3,194l-2.1-0.8
		c0.5,1.6,3,3.7-1.3,4l-1.4,8.8c-1.7,7.7-4.1,13.2-14.1,9.8c0.1,0-1.7,1.1,0.6,4.7c0.4,2.1,0.1,5.2,1.3,6.1c3.9-1.6,3.4,3.6,2.7,5.8
		l3,0.3l-2.7,4.8l6,4.5l4.3-5.8c-1.1,1.7,3.8,1.1,6.8,1.2c-1.9,2.5-3.8,5.9,1,6c0.7,7.9-3.7,12.2,1,14.6l5.5,0l1.9,1.2
		c1.2-0.6,3.3,0.6,3.8-1.4c0.7-1.5,2.7-2.5,3.6-3.8c0.2-0.6,0.3-1.6-0.1-2.1l4.9,0.1l-0.1-5.5l7.2-6.2c-1.2-1.4-1-2.8,1.5-4.2
		l-1.3-8.4l-3.9-0.6l0.2-4.7l8.2-6l-0.4-5c-1.8-0.7-3.8-1.3-3.2-3l-5.8,0.2l-0.2-4.1c-1.2,0.4-2.4,0.2-3.5,0.2
		c-1.5,0.7-2.7,1.9-4.3,2.6c-2.1-0.3-2.4-1.8-4.9-2.2c-1.5,0-2.2-0.7-2.8-1.9c-0.5-1-2.1,0.4-0.6-1.1c1.4-1.6,0.2-3.3-0.9-4.7
		c-0.7-0.7-1.8-0.7-2.4-1.3c-1.5-1.1-2.9-1.6-3.7-3.4C112.1,192.4,109.8,196.1,108.3,194z"/>
</g>
</svg>
