<?xml version="1.0" encoding="utf-8"?>
<!-- Generator: Adobe Illustrator 27.5.0, SVG Export Plug-In . SVG Version: 6.00 Build 0)  -->
<svg version="1.1" xmlns="http://www.w3.org/2000/svg" xmlns:xlink="http://www.w3.org/1999/xlink" x="0px" y="0px"
	 viewBox="0 0 1080 1080" style="enable-background:new 0 0 1080 1080;" xml:space="preserve">
<style type="text/css">
	.st0{fill:#79E0FF;}
	.st1{fill:#95AFD8;}
	.st2{fill:#5CE1E7;}
	.st3{fill:#898AC4;}
	.st4{fill:#906EB3;}
	.st5{fill:#A34DA4;}
	.st6{fill:#926CB2;}
	.st7{fill:#878BC4;}
</style>
<g id="Capa_3">
	<circle class="st0" cx="501.66" cy="630.86" r="416.84"/>
	<path class="st1" d="M433.72,219.56c32.95-5.79,66.45-6.57,100.66-4.25l-17.12,415.56L433.72,219.56z"/>
	<path class="st2" d="M277.65,279.24c47.45-30.04,99.34-50.11,155.96-59.55l83.65,411.17L277.65,279.24z"/>
	<path class="st3" d="M534.38,215.31c6.44,0.46,13.02,1.12,19.71,1.95l-36.83,413.6L534.38,215.31z"/>
	<path class="st4" d="M554.09,217.26c6.21,0.75,12.48,1.67,18.8,2.76l-55.9,408L554.09,217.26z"/>
	<polygon class="st5" points="572.89,220.01 583.75,221.91 516.54,630.86 	"/>
</g>
<g id="Capa_2">
	<rect x="791.45" y="977.57" class="st0" width="32.21" height="32.21"/>
	<rect x="75.24" y="79.14" class="st2" width="32.21" height="32.21"/>
	<rect x="75.24" y="129.29" class="st1" width="32.21" height="32.21"/>
	<rect x="517.38" y="130.42" class="st5" width="32.21" height="32.21"/>
	<rect x="517.38" y="80.27" class="st6" width="32.21" height="32.21"/>
	<rect x="75.24" y="179.44" class="st7" width="32.21" height="32.21"/>
	<g>
		<path d="M119.45,103.34l6.74-14.66h1.07l6.74,14.66h-1.15l-6.36-13.99h0.46l-6.34,13.99H119.45z M121.92,99.21l0.36-0.9h8.77
			l0.36,0.9H121.92z"/>
		<path d="M140.46,102.94c-1.03,0-1.96-0.23-2.77-0.68c-0.82-0.45-1.47-1.08-1.95-1.88c-0.48-0.8-0.72-1.72-0.72-2.75
			c0-1.05,0.24-1.97,0.72-2.76c0.48-0.8,1.13-1.42,1.95-1.86c0.82-0.45,1.74-0.67,2.77-0.67c0.99,0,1.88,0.21,2.67,0.64
			c0.79,0.43,1.41,1.03,1.87,1.82c0.46,0.79,0.69,1.73,0.69,2.84c0,1.09-0.23,2.03-0.69,2.83c-0.46,0.8-1.09,1.41-1.87,1.84
			C142.35,102.72,141.46,102.94,140.46,102.94z M140.76,107.48c-0.99,0-1.93-0.15-2.83-0.46c-0.89-0.31-1.62-0.73-2.18-1.28
			l0.57-0.8c0.54,0.5,1.2,0.89,1.96,1.17c0.76,0.28,1.58,0.42,2.46,0.42c1.46,0,2.54-0.34,3.23-1.03c0.69-0.68,1.04-1.76,1.04-3.22
			v-3.04l0.21-1.63l-0.17-1.63v-3.58h1.01v9.76c0,1.83-0.44,3.17-1.33,4.03C143.84,107.05,142.52,107.48,140.76,107.48z M140.55,102
			c0.88,0,1.65-0.18,2.32-0.56c0.67-0.37,1.2-0.89,1.58-1.55c0.38-0.66,0.58-1.42,0.58-2.27c0-0.87-0.19-1.63-0.58-2.28
			c-0.38-0.66-0.91-1.17-1.58-1.53c-0.67-0.36-1.44-0.54-2.32-0.54c-0.85,0-1.62,0.18-2.29,0.54c-0.68,0.36-1.21,0.87-1.59,1.53
			c-0.38,0.66-0.58,1.42-0.58,2.28c0,0.85,0.19,1.61,0.58,2.27c0.38,0.66,0.91,1.18,1.59,1.55C138.93,101.81,139.7,102,140.55,102z"
			/>
		<path d="M154.93,103.42c-0.94,0-1.75-0.17-2.43-0.51c-0.68-0.34-1.21-0.86-1.58-1.55c-0.37-0.69-0.55-1.55-0.55-2.56v-6.39h1.05
			v6.3c0,1.23,0.31,2.16,0.94,2.81c0.63,0.64,1.51,0.96,2.66,0.96c0.82,0,1.53-0.17,2.14-0.52s1.06-0.84,1.38-1.48
			c0.32-0.63,0.48-1.39,0.48-2.25v-5.82h1.05v10.93h-1.01v-3.04l0.15,0.36c-0.32,0.85-0.85,1.53-1.6,2.02
			C156.85,103.17,155.96,103.42,154.93,103.42z"/>
		<path d="M167.45,103.42c-0.81,0-1.51-0.13-2.1-0.39c-0.59-0.26-1.05-0.63-1.36-1.1c-0.31-0.47-0.47-1.02-0.47-1.63
			c0-0.56,0.13-1.06,0.39-1.52c0.26-0.45,0.69-0.82,1.29-1.11c0.6-0.29,1.4-0.43,2.41-0.43h4.02v0.82h-4
			c-1.13,0-1.92,0.21-2.38,0.63c-0.45,0.42-0.68,0.94-0.68,1.57c0,0.7,0.27,1.26,0.8,1.67c0.53,0.42,1.28,0.63,2.24,0.63
			c0.92,0,1.7-0.21,2.33-0.63c0.63-0.42,1.11-1.03,1.41-1.82l0.29,0.71c-0.29,0.8-0.79,1.43-1.5,1.89
			C169.44,103.19,168.54,103.42,167.45,103.42z M171.39,103.34v-2.49l-0.04-0.38v-4.1c0-1.02-0.28-1.79-0.83-2.32
			c-0.55-0.53-1.36-0.8-2.42-0.8c-0.75,0-1.46,0.13-2.1,0.39c-0.65,0.26-1.2,0.59-1.66,0.99l-0.52-0.75
			c0.54-0.49,1.2-0.87,1.97-1.14s1.57-0.41,2.41-0.41c1.35,0,2.39,0.34,3.12,1.03c0.73,0.68,1.09,1.7,1.09,3.06v6.93H171.39z"/>
		<path d="M182.08,107.4V92.41h1v3.58l-0.17,1.91l0.21,1.91v7.6H182.08z M187.57,103.42c-0.96,0-1.83-0.22-2.61-0.67
			c-0.77-0.45-1.39-1.08-1.84-1.92c-0.45-0.83-0.68-1.82-0.68-2.96c0-1.14,0.23-2.13,0.68-2.96c0.45-0.83,1.07-1.47,1.84-1.92
			c0.77-0.45,1.64-0.67,2.61-0.67c1.03,0,1.96,0.23,2.77,0.7c0.82,0.47,1.46,1.12,1.93,1.96c0.47,0.84,0.7,1.8,0.7,2.89
			c0,1.09-0.23,2.05-0.7,2.89c-0.47,0.84-1.11,1.49-1.93,1.96C189.53,103.19,188.6,103.42,187.57,103.42z M187.51,102.48
			c0.84,0,1.59-0.19,2.26-0.58c0.67-0.38,1.2-0.92,1.58-1.62c0.38-0.7,0.58-1.5,0.58-2.41c0-0.92-0.19-1.73-0.58-2.42
			c-0.38-0.69-0.91-1.23-1.58-1.61c-0.67-0.38-1.42-0.58-2.26-0.58s-1.59,0.19-2.25,0.58c-0.66,0.38-1.19,0.92-1.57,1.61
			c-0.38,0.69-0.58,1.5-0.58,2.42c0,0.91,0.19,1.71,0.58,2.41c0.38,0.7,0.91,1.24,1.57,1.62
			C185.92,102.29,186.67,102.48,187.51,102.48z"/>
		<path d="M200.49,103.42c-1.05,0-1.98-0.24-2.79-0.71c-0.82-0.47-1.47-1.13-1.95-1.97c-0.48-0.84-0.72-1.79-0.72-2.87
			c0-1.09,0.24-2.05,0.72-2.88c0.48-0.83,1.13-1.48,1.95-1.96c0.82-0.47,1.75-0.71,2.79-0.71c1.05,0,1.98,0.24,2.81,0.71
			c0.82,0.47,1.47,1.13,1.95,1.96c0.47,0.83,0.71,1.79,0.71,2.88c0,1.08-0.24,2.03-0.71,2.87c-0.47,0.84-1.12,1.49-1.95,1.97
			C202.47,103.18,201.53,103.42,200.49,103.42z M200.49,102.48c0.84,0,1.59-0.19,2.26-0.58c0.67-0.38,1.19-0.92,1.57-1.62
			c0.38-0.7,0.56-1.5,0.56-2.41c0-0.92-0.19-1.73-0.56-2.42c-0.38-0.69-0.9-1.23-1.57-1.61c-0.67-0.38-1.42-0.58-2.26-0.58
			c-0.84,0-1.59,0.19-2.25,0.58c-0.66,0.38-1.19,0.92-1.57,1.61c-0.38,0.69-0.58,1.5-0.58,2.42c0,0.91,0.19,1.71,0.58,2.41
			c0.38,0.7,0.91,1.24,1.57,1.62C198.9,102.29,199.65,102.48,200.49,102.48z"/>
		<path d="M207.39,93.31v-0.9h6.53v0.9H207.39z M212.38,103.42c-0.96,0-1.7-0.27-2.21-0.8c-0.51-0.53-0.76-1.26-0.76-2.18V90.02
			h1.05v10.32c0,0.7,0.17,1.24,0.52,1.61c0.35,0.38,0.85,0.57,1.51,0.57c0.68,0,1.25-0.2,1.7-0.61l0.44,0.73
			c-0.28,0.27-0.62,0.46-1.02,0.59C213.2,103.36,212.8,103.42,212.38,103.42z"/>
		<path d="M220.48,103.42c-0.81,0-1.51-0.13-2.1-0.39c-0.59-0.26-1.05-0.63-1.36-1.1c-0.31-0.47-0.47-1.02-0.47-1.63
			c0-0.56,0.13-1.06,0.39-1.52c0.26-0.45,0.69-0.82,1.29-1.11c0.6-0.29,1.4-0.43,2.41-0.43h4.02v0.82h-4
			c-1.13,0-1.92,0.21-2.38,0.63c-0.45,0.42-0.68,0.94-0.68,1.57c0,0.7,0.27,1.26,0.8,1.67c0.53,0.42,1.28,0.63,2.24,0.63
			c0.92,0,1.7-0.21,2.33-0.63c0.63-0.42,1.11-1.03,1.41-1.82l0.29,0.71c-0.29,0.8-0.79,1.43-1.5,1.89
			C222.46,103.19,221.57,103.42,220.48,103.42z M224.42,103.34v-2.49l-0.04-0.38v-4.1c0-1.02-0.28-1.79-0.83-2.32
			c-0.55-0.53-1.36-0.8-2.42-0.8c-0.75,0-1.46,0.13-2.1,0.39c-0.65,0.26-1.2,0.59-1.66,0.99l-0.52-0.75
			c0.54-0.49,1.2-0.87,1.97-1.14c0.77-0.27,1.57-0.41,2.41-0.41c1.35,0,2.39,0.34,3.12,1.03c0.73,0.68,1.09,1.7,1.09,3.06v6.93
			H224.42z"/>
		<path d="M229.73,103.34V87.8h1.05v8.14l-0.21,1.91l0.17,1.91v3.58H229.73z M235.22,103.42c-0.96,0-1.83-0.22-2.61-0.67
			c-0.77-0.45-1.39-1.09-1.84-1.93s-0.68-1.82-0.68-2.95c0-1.16,0.23-2.15,0.68-2.97c0.45-0.82,1.07-1.46,1.84-1.91
			c0.77-0.45,1.64-0.67,2.61-0.67c1.03,0,1.96,0.23,2.77,0.7c0.82,0.47,1.46,1.12,1.93,1.95c0.47,0.83,0.7,1.8,0.7,2.9
			c0,1.09-0.23,2.05-0.7,2.89c-0.47,0.84-1.11,1.49-1.93,1.96C237.17,103.19,236.25,103.42,235.22,103.42z M235.15,102.48
			c0.84,0,1.59-0.19,2.26-0.58c0.67-0.38,1.2-0.92,1.58-1.62c0.38-0.7,0.58-1.5,0.58-2.41c0-0.92-0.19-1.73-0.58-2.42
			c-0.38-0.69-0.91-1.23-1.58-1.61c-0.67-0.38-1.42-0.58-2.26-0.58s-1.59,0.19-2.25,0.58c-0.66,0.38-1.19,0.92-1.57,1.61
			c-0.38,0.69-0.58,1.5-0.58,2.42c0,0.91,0.19,1.71,0.58,2.41c0.38,0.7,0.91,1.24,1.57,1.62
			C233.57,102.29,234.32,102.48,235.15,102.48z"/>
		<path d="M243.86,103.34V87.8h1.05v15.53H243.86z"/>
		<path d="M253.77,103.42c-1.1,0-2.08-0.24-2.92-0.71c-0.84-0.47-1.51-1.13-1.99-1.97c-0.48-0.84-0.72-1.79-0.72-2.87
			c0-1.09,0.23-2.05,0.68-2.88c0.45-0.83,1.08-1.48,1.87-1.96c0.8-0.47,1.69-0.71,2.68-0.71c0.99,0,1.88,0.23,2.67,0.69
			c0.79,0.46,1.41,1.11,1.86,1.94c0.45,0.83,0.68,1.79,0.68,2.88c0,0.04,0,0.09-0.01,0.14c-0.01,0.05-0.01,0.1-0.01,0.16h-9.65
			v-0.82h9.09l-0.42,0.4c0.01-0.85-0.16-1.62-0.53-2.29s-0.87-1.21-1.5-1.59c-0.63-0.38-1.35-0.58-2.18-0.58
			c-0.81,0-1.53,0.19-2.17,0.58c-0.64,0.38-1.13,0.91-1.5,1.59c-0.36,0.68-0.54,1.45-0.54,2.31v0.19c0,0.89,0.2,1.69,0.6,2.38
			c0.4,0.69,0.95,1.23,1.64,1.61c0.7,0.38,1.49,0.58,2.39,0.58c0.7,0,1.35-0.13,1.96-0.38c0.61-0.25,1.12-0.63,1.54-1.15l0.61,0.69
			c-0.47,0.59-1.07,1.03-1.79,1.33C255.38,103.27,254.6,103.42,253.77,103.42z"/>
		<path d="M266.95,107.48c-0.5,0-0.97-0.08-1.41-0.25s-0.81-0.41-1.12-0.73l0.52-0.8c0.28,0.29,0.58,0.51,0.91,0.65
			c0.33,0.14,0.7,0.21,1.12,0.21c0.5,0,0.94-0.14,1.33-0.42c0.38-0.28,0.74-0.79,1.08-1.53l0.75-1.68l0.15-0.19l4.63-10.34h1.07
			l-5.61,12.41c-0.29,0.67-0.61,1.2-0.95,1.58c-0.34,0.38-0.72,0.66-1.12,0.83S267.44,107.48,266.95,107.48z M270.12,103.61
			l-5.07-11.2h1.11l4.61,10.28L270.12,103.61z"/>
		<path d="M286.4,103.42c-0.91,0-1.75-0.13-2.54-0.4c-0.79-0.26-1.4-0.6-1.83-1l0.48-0.84c0.42,0.36,0.98,0.67,1.67,0.93
			c0.7,0.26,1.45,0.39,2.26,0.39c1.14,0,1.97-0.19,2.47-0.56c0.5-0.38,0.75-0.87,0.75-1.49c0-0.45-0.13-0.8-0.39-1.06
			c-0.26-0.26-0.6-0.46-1.04-0.6c-0.43-0.14-0.91-0.25-1.42-0.35s-1.03-0.19-1.55-0.3c-0.52-0.11-0.99-0.27-1.42-0.48
			c-0.43-0.21-0.78-0.5-1.04-0.87c-0.26-0.37-0.39-0.86-0.39-1.48c0-0.56,0.15-1.06,0.46-1.51c0.31-0.45,0.77-0.81,1.38-1.08
			c0.61-0.27,1.38-0.41,2.3-0.41c0.68,0,1.37,0.1,2.06,0.29c0.69,0.2,1.25,0.45,1.69,0.77l-0.48,0.84c-0.46-0.35-0.98-0.6-1.55-0.75
			c-0.57-0.15-1.15-0.23-1.74-0.23c-1.06,0-1.84,0.2-2.33,0.59c-0.5,0.39-0.74,0.88-0.74,1.46c0,0.46,0.13,0.83,0.39,1.1
			c0.26,0.27,0.6,0.48,1.04,0.63c0.43,0.15,0.91,0.27,1.42,0.36c0.52,0.09,1.03,0.19,1.55,0.3c0.52,0.11,0.99,0.27,1.42,0.47
			c0.43,0.2,0.78,0.48,1.04,0.84c0.26,0.36,0.39,0.83,0.39,1.43s-0.16,1.12-0.49,1.57c-0.33,0.45-0.81,0.8-1.45,1.05
			C288.13,103.29,287.34,103.42,286.4,103.42z"/>
		<path d="M296.6,103.42c-0.81,0-1.51-0.13-2.1-0.39c-0.59-0.26-1.05-0.63-1.36-1.1c-0.31-0.47-0.47-1.02-0.47-1.63
			c0-0.56,0.13-1.06,0.39-1.52c0.26-0.45,0.69-0.82,1.29-1.11c0.6-0.29,1.4-0.43,2.41-0.43h4.02v0.82h-4
			c-1.13,0-1.92,0.21-2.38,0.63c-0.45,0.42-0.68,0.94-0.68,1.57c0,0.7,0.27,1.26,0.8,1.67c0.53,0.42,1.28,0.63,2.24,0.63
			c0.92,0,1.7-0.21,2.33-0.63c0.63-0.42,1.11-1.03,1.41-1.82l0.29,0.71c-0.29,0.8-0.79,1.43-1.5,1.89
			C298.58,103.19,297.69,103.42,296.6,103.42z M300.54,103.34v-2.49l-0.04-0.38v-4.1c0-1.02-0.28-1.79-0.83-2.32
			c-0.55-0.53-1.36-0.8-2.42-0.8c-0.75,0-1.46,0.13-2.1,0.39c-0.65,0.26-1.2,0.59-1.66,0.99l-0.52-0.75
			c0.54-0.49,1.2-0.87,1.97-1.14s1.57-0.41,2.41-0.41c1.35,0,2.39,0.34,3.12,1.03c0.73,0.68,1.09,1.7,1.09,3.06v6.93H300.54z"/>
		<path d="M311.19,92.32c0.89,0,1.67,0.17,2.33,0.51c0.66,0.34,1.18,0.86,1.55,1.55c0.37,0.69,0.55,1.55,0.55,2.56v6.39h-1.05v-6.3
			c0-1.23-0.31-2.16-0.93-2.81c-0.62-0.64-1.49-0.96-2.61-0.96c-0.85,0-1.59,0.17-2.22,0.52s-1.11,0.84-1.43,1.47
			c-0.33,0.63-0.49,1.38-0.49,2.26v5.82h-1.05V92.41h1v3.04l-0.15-0.34c0.34-0.87,0.89-1.55,1.65-2.04S310.07,92.32,311.19,92.32z"
			/>
		<path d="M324.38,103.42c-1.1,0-2.08-0.24-2.92-0.71s-1.51-1.13-1.99-1.97c-0.48-0.84-0.72-1.79-0.72-2.87
			c0-1.09,0.23-2.05,0.68-2.88c0.45-0.83,1.08-1.48,1.87-1.96c0.8-0.47,1.69-0.71,2.68-0.71c0.99,0,1.88,0.23,2.67,0.69
			c0.79,0.46,1.41,1.11,1.86,1.94c0.45,0.83,0.68,1.79,0.68,2.88c0,0.04,0,0.09-0.01,0.14c-0.01,0.05-0.01,0.1-0.01,0.16h-9.65
			v-0.82h9.09l-0.42,0.4c0.01-0.85-0.16-1.62-0.53-2.29s-0.87-1.21-1.5-1.59c-0.63-0.38-1.35-0.58-2.18-0.58
			c-0.81,0-1.53,0.19-2.17,0.58c-0.64,0.38-1.13,0.91-1.5,1.59c-0.36,0.68-0.54,1.45-0.54,2.31v0.19c0,0.89,0.2,1.69,0.6,2.38
			c0.4,0.69,0.95,1.23,1.64,1.61c0.7,0.38,1.49,0.58,2.39,0.58c0.7,0,1.35-0.13,1.96-0.38c0.61-0.25,1.12-0.63,1.54-1.15l0.61,0.69
			c-0.47,0.59-1.07,1.03-1.79,1.33C326,103.27,325.22,103.42,324.38,103.42z"/>
		<path d="M335.08,103.42c-0.81,0-1.51-0.13-2.1-0.39s-1.05-0.63-1.36-1.1c-0.31-0.47-0.47-1.02-0.47-1.63
			c0-0.56,0.13-1.06,0.39-1.52c0.26-0.45,0.69-0.82,1.29-1.11c0.6-0.29,1.4-0.43,2.41-0.43h4.02v0.82h-4
			c-1.13,0-1.92,0.21-2.38,0.63c-0.45,0.42-0.68,0.94-0.68,1.57c0,0.7,0.27,1.26,0.8,1.67c0.53,0.42,1.28,0.63,2.24,0.63
			c0.92,0,1.7-0.21,2.33-0.63c0.63-0.42,1.11-1.03,1.41-1.82l0.29,0.71c-0.29,0.8-0.79,1.43-1.5,1.89
			C337.06,103.19,336.17,103.42,335.08,103.42z M339.01,103.34v-2.49l-0.04-0.38v-4.1c0-1.02-0.28-1.79-0.83-2.32
			c-0.55-0.53-1.36-0.8-2.42-0.8c-0.75,0-1.46,0.13-2.1,0.39c-0.65,0.26-1.2,0.59-1.66,0.99l-0.52-0.75
			c0.54-0.49,1.2-0.87,1.97-1.14s1.57-0.41,2.41-0.41c1.35,0,2.39,0.34,3.12,1.03c0.73,0.68,1.09,1.7,1.09,3.06v6.93H339.01z"/>
		<path d="M357.94,92.32c0.88,0,1.64,0.17,2.29,0.51c0.65,0.34,1.15,0.86,1.52,1.55s0.54,1.55,0.54,2.56v6.39h-1.05v-6.3
			c0-1.23-0.3-2.16-0.9-2.81c-0.6-0.64-1.44-0.96-2.51-0.96c-0.82,0-1.54,0.17-2.14,0.52s-1.06,0.84-1.38,1.47
			c-0.32,0.63-0.48,1.38-0.48,2.26v5.82h-1.05v-6.3c0-1.23-0.3-2.16-0.9-2.81c-0.6-0.64-1.44-0.96-2.51-0.96
			c-0.82,0-1.54,0.17-2.14,0.52s-1.06,0.84-1.38,1.47c-0.32,0.63-0.48,1.38-0.48,2.26v5.82h-1.05V92.41h1v3.01l-0.15-0.34
			c0.32-0.85,0.86-1.52,1.61-2.02s1.66-0.74,2.72-0.74c1.09,0,2.01,0.28,2.75,0.83c0.75,0.55,1.22,1.37,1.41,2.46l-0.36-0.15
			c0.29-0.93,0.84-1.69,1.65-2.27C355.8,92.61,356.78,92.32,357.94,92.32z"/>
		<path d="M367.13,89.75c-0.24,0-0.44-0.08-0.61-0.25c-0.17-0.17-0.25-0.36-0.25-0.59c0-0.24,0.08-0.44,0.25-0.61
			c0.17-0.17,0.37-0.25,0.61-0.25c0.25,0,0.46,0.08,0.62,0.24c0.16,0.16,0.24,0.36,0.24,0.6s-0.08,0.44-0.24,0.61
			C367.59,89.67,367.38,89.75,367.13,89.75z M366.61,103.34V92.41h1.05v10.93H366.61z"/>
		<path d="M376.51,103.42c-1.1,0-2.08-0.24-2.92-0.71c-0.84-0.47-1.51-1.13-1.99-1.97c-0.48-0.84-0.72-1.79-0.72-2.87
			c0-1.09,0.23-2.05,0.68-2.88c0.45-0.83,1.08-1.48,1.87-1.96c0.8-0.47,1.69-0.71,2.68-0.71c0.99,0,1.88,0.23,2.67,0.69
			c0.79,0.46,1.41,1.11,1.86,1.94c0.45,0.83,0.68,1.79,0.68,2.88c0,0.04,0,0.09-0.01,0.14c-0.01,0.05-0.01,0.1-0.01,0.16h-9.65
			v-0.82h9.09l-0.42,0.4c0.01-0.85-0.16-1.62-0.53-2.29c-0.37-0.68-0.87-1.21-1.5-1.59c-0.63-0.38-1.35-0.58-2.18-0.58
			c-0.81,0-1.53,0.19-2.17,0.58c-0.64,0.38-1.13,0.91-1.5,1.59c-0.36,0.68-0.54,1.45-0.54,2.31v0.19c0,0.89,0.2,1.69,0.6,2.38
			c0.4,0.69,0.95,1.23,1.64,1.61c0.7,0.38,1.49,0.58,2.39,0.58c0.7,0,1.35-0.13,1.96-0.38c0.61-0.25,1.12-0.63,1.54-1.15l0.61,0.69
			c-0.47,0.59-1.07,1.03-1.79,1.33C378.12,103.27,377.35,103.42,376.51,103.42z"/>
		<path d="M389.91,92.32c0.89,0,1.67,0.17,2.33,0.51c0.66,0.34,1.18,0.86,1.55,1.55c0.37,0.69,0.55,1.55,0.55,2.56v6.39h-1.05v-6.3
			c0-1.23-0.31-2.16-0.93-2.81c-0.62-0.64-1.49-0.96-2.61-0.96c-0.85,0-1.59,0.17-2.22,0.52c-0.63,0.35-1.11,0.84-1.43,1.47
			c-0.33,0.63-0.49,1.38-0.49,2.26v5.82h-1.05V92.41h1v3.04l-0.15-0.34c0.34-0.87,0.89-1.55,1.65-2.04
			C387.85,92.57,388.79,92.32,389.91,92.32z"/>
		<path d="M396.86,93.31v-0.9h6.53v0.9H396.86z M401.84,103.42c-0.96,0-1.7-0.27-2.21-0.8c-0.51-0.53-0.76-1.26-0.76-2.18V90.02
			h1.05v10.32c0,0.7,0.17,1.24,0.52,1.61c0.35,0.38,0.85,0.57,1.51,0.57c0.68,0,1.25-0.2,1.7-0.61l0.44,0.73
			c-0.28,0.27-0.62,0.46-1.02,0.59C402.67,103.36,402.26,103.42,401.84,103.42z"/>
		<path d="M410.86,103.42c-1.05,0-1.98-0.24-2.79-0.71c-0.82-0.47-1.47-1.13-1.95-1.97c-0.48-0.84-0.72-1.79-0.72-2.87
			c0-1.09,0.24-2.05,0.72-2.88c0.48-0.83,1.13-1.48,1.95-1.96c0.82-0.47,1.75-0.71,2.79-0.71s1.98,0.24,2.81,0.71
			c0.82,0.47,1.47,1.13,1.95,1.96c0.47,0.83,0.71,1.79,0.71,2.88c0,1.08-0.24,2.03-0.71,2.87c-0.47,0.84-1.12,1.49-1.95,1.97
			C412.84,103.18,411.91,103.42,410.86,103.42z M410.86,102.48c0.84,0,1.59-0.19,2.26-0.58c0.67-0.38,1.19-0.92,1.57-1.62
			c0.38-0.7,0.56-1.5,0.56-2.41c0-0.92-0.19-1.73-0.56-2.42c-0.38-0.69-0.9-1.23-1.57-1.61c-0.67-0.38-1.42-0.58-2.26-0.58
			c-0.84,0-1.59,0.19-2.25,0.58c-0.66,0.38-1.19,0.92-1.57,1.61c-0.38,0.69-0.58,1.5-0.58,2.42c0,0.91,0.19,1.71,0.58,2.41
			c0.38,0.7,0.91,1.24,1.57,1.62C409.27,102.29,410.03,102.48,410.86,102.48z"/>
		<path d="M424.03,98.19v-0.94h5.38v0.94H424.03z"/>
		<path d="M443.19,103.46c-1.3,0-2.39-0.29-3.29-0.87c-0.89-0.58-1.57-1.42-2.03-2.51c-0.46-1.1-0.69-2.41-0.69-3.95
			c0-1.66,0.28-3.05,0.85-4.18c0.57-1.12,1.35-1.97,2.36-2.54c1.01-0.57,2.17-0.86,3.5-0.86c0.66,0,1.28,0.06,1.88,0.19
			s1.13,0.33,1.59,0.61l-0.61,1.21c-0.38-0.25-0.81-0.43-1.3-0.53c-0.49-0.1-1.01-0.16-1.55-0.16c-1.58,0-2.84,0.5-3.78,1.51
			c-0.94,1.01-1.41,2.51-1.41,4.5c0,0.31,0.02,0.69,0.05,1.14c0.03,0.45,0.11,0.9,0.24,1.35l-0.52-0.4c0.15-0.73,0.45-1.34,0.9-1.85
			c0.45-0.51,1-0.9,1.67-1.16c0.67-0.27,1.4-0.4,2.2-0.4c0.98,0,1.84,0.18,2.58,0.54c0.74,0.36,1.32,0.87,1.74,1.53
			c0.42,0.66,0.63,1.43,0.63,2.32c0,0.91-0.22,1.7-0.65,2.38c-0.43,0.68-1.03,1.2-1.79,1.57
			C444.99,103.28,444.14,103.46,443.19,103.46z M443.12,102.18c0.7,0,1.32-0.13,1.85-0.39c0.54-0.26,0.96-0.63,1.27-1.11
			c0.31-0.48,0.46-1.04,0.46-1.69c0-0.96-0.33-1.73-0.99-2.3c-0.66-0.57-1.56-0.86-2.69-0.86c-0.75,0-1.41,0.14-1.97,0.42
			c-0.56,0.28-1,0.66-1.32,1.14c-0.32,0.48-0.48,1.03-0.48,1.64c0,0.53,0.15,1.04,0.44,1.52c0.29,0.48,0.73,0.87,1.31,1.17
			C441.58,102.03,442.29,102.18,443.12,102.18z"/>
		<path d="M451.27,103.44c-0.31,0-0.57-0.11-0.79-0.34c-0.22-0.22-0.32-0.49-0.32-0.82c0-0.34,0.11-0.61,0.32-0.82
			c0.22-0.21,0.48-0.31,0.79-0.31c0.31,0,0.57,0.1,0.79,0.31c0.22,0.21,0.32,0.48,0.32,0.82c0,0.32-0.11,0.59-0.32,0.82
			C451.84,103.33,451.58,103.44,451.27,103.44z"/>
		<path d="M459.16,103.46c-1.06,0-2.06-0.17-3-0.51c-0.94-0.34-1.7-0.8-2.27-1.37l0.73-1.19c0.47,0.49,1.11,0.89,1.92,1.21
			c0.8,0.32,1.68,0.48,2.63,0.48c1.21,0,2.15-0.27,2.79-0.8c0.65-0.53,0.97-1.24,0.97-2.14c0-0.89-0.32-1.6-0.95-2.14
			c-0.63-0.53-1.64-0.8-3-0.8h-1.05v-1.11l4.52-5.67l0.21,0.59h-8.16v-1.34h9.42v1.07l-4.52,5.67l-0.73-0.48h0.57
			c1.76,0,3.07,0.39,3.95,1.17c0.87,0.78,1.31,1.79,1.31,3.01c0,0.82-0.2,1.56-0.59,2.22c-0.39,0.66-0.98,1.17-1.77,1.55
			C461.33,103.27,460.35,103.46,459.16,103.46z"/>
		<path d="M469.48,96.53c-0.66,0-1.24-0.16-1.74-0.49c-0.5-0.33-0.89-0.79-1.16-1.39c-0.27-0.6-0.41-1.3-0.41-2.09
			c0-0.8,0.14-1.49,0.41-2.09s0.66-1.06,1.16-1.39c0.5-0.33,1.08-0.49,1.74-0.49s1.23,0.16,1.73,0.49c0.49,0.33,0.88,0.79,1.16,1.39
			c0.28,0.6,0.42,1.3,0.42,2.09c0,0.8-0.14,1.49-0.42,2.09c-0.28,0.6-0.67,1.06-1.16,1.39C470.71,96.37,470.14,96.53,469.48,96.53z
			 M469.48,95.59c0.68,0,1.23-0.27,1.64-0.81c0.41-0.54,0.62-1.28,0.62-2.23s-0.21-1.69-0.62-2.23c-0.41-0.54-0.96-0.81-1.64-0.81
			c-0.7,0-1.25,0.27-1.65,0.81c-0.4,0.54-0.61,1.28-0.61,2.23s0.2,1.69,0.61,2.23C468.23,95.32,468.78,95.59,469.48,95.59z
			 M468.35,103.34l10.01-14.66h1.24l-10.01,14.66H468.35z M478.46,103.44c-0.64,0-1.21-0.16-1.72-0.49
			c-0.5-0.33-0.89-0.79-1.17-1.39c-0.28-0.6-0.42-1.3-0.42-2.09c0-0.8,0.14-1.49,0.42-2.09c0.28-0.6,0.67-1.06,1.17-1.39
			c0.5-0.33,1.07-0.49,1.72-0.49c0.67,0,1.25,0.16,1.75,0.49c0.49,0.33,0.88,0.79,1.15,1.39c0.27,0.6,0.41,1.3,0.41,2.09
			c0,0.8-0.14,1.49-0.41,2.09s-0.66,1.06-1.15,1.39C479.72,103.28,479.13,103.44,478.46,103.44z M478.46,102.5
			c0.68,0,1.23-0.27,1.64-0.81c0.41-0.54,0.62-1.28,0.62-2.23c0-0.95-0.21-1.69-0.62-2.23c-0.41-0.54-0.96-0.81-1.64-0.81
			c-0.68,0-1.23,0.27-1.64,0.81c-0.41,0.54-0.62,1.28-0.62,2.23c0,0.95,0.21,1.69,0.62,2.23
			C477.23,102.23,477.78,102.5,478.46,102.5z"/>
	</g>
	<g>
		<path d="M119.38,152.69v-14.66h0.9l6.8,11.75h-0.48l6.78-11.75h0.88l0.02,14.66h-1.05l-0.02-13.04h0.29l-6.43,11.1h-0.52
			l-6.45-11.1h0.31v13.04H119.38z"/>
		<path d="M139.58,139.1c-0.24,0-0.44-0.08-0.61-0.25c-0.17-0.17-0.25-0.36-0.25-0.59c0-0.24,0.08-0.44,0.25-0.61
			c0.17-0.17,0.37-0.25,0.61-0.25c0.25,0,0.46,0.08,0.62,0.24c0.16,0.16,0.24,0.36,0.24,0.6s-0.08,0.44-0.24,0.61
			C140.04,139.02,139.83,139.1,139.58,139.1z M139.06,152.69v-10.93h1.05v10.93H139.06z"/>
		<path d="M149.86,141.68c0.89,0,1.67,0.17,2.33,0.51c0.66,0.34,1.18,0.86,1.55,1.55c0.37,0.69,0.55,1.55,0.55,2.56v6.39h-1.05v-6.3
			c0-1.23-0.31-2.16-0.93-2.81c-0.62-0.64-1.49-0.96-2.61-0.96c-0.85,0-1.59,0.17-2.22,0.52c-0.63,0.35-1.11,0.84-1.43,1.47
			c-0.33,0.63-0.49,1.38-0.49,2.26v5.82h-1.05v-10.93h1v3.04l-0.15-0.34c0.34-0.87,0.89-1.55,1.65-2.04
			C147.8,141.92,148.74,141.68,149.86,141.68z"/>
		<path d="M163.05,152.77c-1.1,0-2.08-0.24-2.92-0.71c-0.84-0.47-1.51-1.13-1.99-1.97c-0.48-0.84-0.72-1.79-0.72-2.87
			c0-1.09,0.23-2.05,0.68-2.88c0.45-0.83,1.08-1.48,1.87-1.96c0.8-0.47,1.69-0.71,2.68-0.71c0.99,0,1.88,0.23,2.67,0.69
			c0.79,0.46,1.41,1.11,1.86,1.94c0.45,0.83,0.68,1.79,0.68,2.88c0,0.04,0,0.09-0.01,0.14c-0.01,0.05-0.01,0.1-0.01,0.16h-9.65
			v-0.82h9.09l-0.42,0.4c0.01-0.85-0.16-1.62-0.53-2.29c-0.37-0.68-0.87-1.21-1.5-1.59c-0.63-0.38-1.35-0.58-2.18-0.58
			c-0.81,0-1.53,0.19-2.17,0.58c-0.64,0.38-1.13,0.91-1.5,1.59c-0.36,0.68-0.54,1.45-0.54,2.31v0.19c0,0.89,0.2,1.69,0.6,2.38
			c0.4,0.69,0.95,1.23,1.64,1.61c0.7,0.38,1.49,0.58,2.39,0.58c0.7,0,1.35-0.13,1.96-0.38c0.61-0.25,1.12-0.63,1.54-1.15l0.61,0.69
			c-0.47,0.59-1.07,1.03-1.79,1.33C164.66,152.62,163.89,152.77,163.05,152.77z"/>
		<path d="M171.11,152.69v-10.93h1v2.99l-0.1-0.34c0.31-0.88,0.82-1.56,1.55-2.03c0.73-0.47,1.63-0.71,2.72-0.71v1.03
			c-0.04,0-0.08,0-0.13-0.01c-0.04-0.01-0.08-0.01-0.13-0.01c-1.21,0-2.16,0.38-2.85,1.14s-1.03,1.82-1.03,3.17v5.69H171.11z"/>
		<path d="M178.5,139.98l2.91-2.47h1.51l-3.29,2.47H178.5z M179.17,152.69v-10.93h1.05v10.93H179.17z"/>
		<path d="M187.58,152.77c-0.81,0-1.51-0.13-2.1-0.39c-0.59-0.26-1.05-0.63-1.36-1.1c-0.31-0.47-0.47-1.02-0.47-1.63
			c0-0.56,0.13-1.06,0.39-1.52c0.26-0.45,0.69-0.82,1.29-1.11s1.4-0.43,2.41-0.43h4.02v0.82h-4c-1.13,0-1.92,0.21-2.38,0.63
			c-0.45,0.42-0.68,0.94-0.68,1.57c0,0.7,0.27,1.26,0.8,1.67c0.53,0.42,1.28,0.63,2.24,0.63c0.92,0,1.7-0.21,2.33-0.63
			c0.63-0.42,1.11-1.03,1.41-1.82l0.29,0.71c-0.29,0.8-0.79,1.43-1.5,1.89C189.57,152.54,188.67,152.77,187.58,152.77z
			 M191.52,152.69v-2.49l-0.04-0.38v-4.1c0-1.02-0.28-1.79-0.83-2.32c-0.55-0.53-1.36-0.8-2.42-0.8c-0.75,0-1.46,0.13-2.1,0.39
			c-0.65,0.26-1.2,0.59-1.66,0.99l-0.52-0.75c0.54-0.49,1.2-0.87,1.97-1.14c0.77-0.27,1.57-0.41,2.41-0.41
			c1.35,0,2.39,0.34,3.12,1.03c0.73,0.68,1.09,1.7,1.09,3.06v6.93H191.52z"/>
		<path d="M201.3,147.54v-0.94h5.38v0.94H201.3z"/>
		<path d="M218.82,152.81c-1.06,0-2.06-0.17-3-0.51s-1.7-0.8-2.27-1.37l0.73-1.19c0.47,0.49,1.11,0.89,1.92,1.21
			c0.8,0.32,1.68,0.48,2.63,0.48c1.21,0,2.15-0.27,2.79-0.8c0.65-0.53,0.97-1.24,0.97-2.14c0-0.89-0.32-1.6-0.95-2.14
			c-0.63-0.53-1.64-0.8-3-0.8h-1.05v-1.11l4.52-5.67l0.21,0.59h-8.16v-1.34h9.42v1.07l-4.52,5.67l-0.73-0.48h0.57
			c1.76,0,3.07,0.39,3.95,1.17c0.87,0.78,1.31,1.79,1.31,3.01c0,0.82-0.2,1.56-0.59,2.22c-0.39,0.66-0.98,1.17-1.77,1.55
			C220.99,152.63,220.01,152.81,218.82,152.81z"/>
		<path d="M227.38,152.79c-0.31,0-0.57-0.11-0.79-0.34c-0.22-0.22-0.32-0.49-0.32-0.82c0-0.34,0.11-0.61,0.32-0.82
			c0.22-0.21,0.48-0.31,0.79-0.31c0.31,0,0.57,0.1,0.79,0.31c0.22,0.21,0.32,0.48,0.32,0.82c0,0.32-0.11,0.59-0.32,0.82
			C227.95,152.68,227.69,152.79,227.38,152.79z"/>
		<path d="M236.47,152.81c-1.17,0-2.18-0.17-3.03-0.5c-0.84-0.34-1.49-0.82-1.95-1.46c-0.45-0.63-0.68-1.39-0.68-2.25
			c0-0.84,0.22-1.55,0.66-2.15c0.44-0.59,1.08-1.05,1.93-1.37c0.84-0.32,1.87-0.48,3.07-0.48c1.19,0,2.2,0.16,3.06,0.48
			c0.85,0.32,1.5,0.78,1.96,1.37c0.45,0.59,0.68,1.31,0.68,2.15c0,0.87-0.23,1.62-0.69,2.25c-0.46,0.64-1.12,1.12-1.97,1.46
			C238.65,152.65,237.64,152.81,236.47,152.81z M236.47,145.47c-1.09,0-2.01-0.15-2.77-0.44c-0.76-0.29-1.34-0.72-1.75-1.27
			c-0.4-0.55-0.61-1.21-0.61-1.98c0-0.81,0.21-1.5,0.64-2.08c0.43-0.58,1.02-1.02,1.79-1.33c0.77-0.31,1.67-0.46,2.7-0.46
			c1.03,0,1.94,0.15,2.71,0.46c0.77,0.31,1.38,0.75,1.81,1.33c0.43,0.58,0.65,1.27,0.65,2.08c0,0.77-0.2,1.43-0.61,1.98
			c-0.4,0.55-0.99,0.97-1.77,1.27C238.49,145.32,237.56,145.47,236.47,145.47z M236.47,151.54c1.3,0,2.31-0.27,3.05-0.8
			c0.73-0.53,1.1-1.25,1.1-2.16s-0.37-1.62-1.1-2.15c-0.73-0.52-1.75-0.79-3.05-0.79c-1.3,0-2.31,0.26-3.04,0.79
			c-0.73,0.52-1.09,1.24-1.09,2.15s0.36,1.63,1.09,2.16C234.16,151.27,235.17,151.54,236.47,151.54z M236.47,144.46
			c1.14,0,2.04-0.24,2.68-0.71c0.64-0.47,0.96-1.11,0.96-1.91c0-0.84-0.33-1.49-0.99-1.96c-0.66-0.47-1.55-0.7-2.65-0.7
			c-1.1,0-1.98,0.23-2.64,0.7c-0.66,0.47-0.98,1.11-0.98,1.94c0,0.81,0.32,1.45,0.95,1.93
			C234.43,144.22,235.32,144.46,236.47,144.46z"/>
		<path d="M247.15,145.89c-0.66,0-1.24-0.16-1.74-0.49c-0.5-0.33-0.89-0.79-1.16-1.39c-0.27-0.6-0.41-1.3-0.41-2.09
			c0-0.8,0.14-1.49,0.41-2.09c0.27-0.6,0.66-1.06,1.16-1.39c0.5-0.33,1.08-0.49,1.74-0.49s1.23,0.16,1.73,0.49
			c0.49,0.33,0.88,0.79,1.16,1.39c0.28,0.6,0.42,1.3,0.42,2.09c0,0.8-0.14,1.49-0.42,2.09c-0.28,0.6-0.67,1.06-1.16,1.39
			C248.38,145.72,247.8,145.89,247.15,145.89z M247.15,144.94c0.68,0,1.23-0.27,1.64-0.81s0.62-1.28,0.62-2.23
			c0-0.95-0.21-1.69-0.62-2.23c-0.41-0.54-0.96-0.81-1.64-0.81c-0.7,0-1.25,0.27-1.65,0.81c-0.4,0.54-0.61,1.28-0.61,2.23
			c0,0.95,0.2,1.69,0.61,2.23C245.9,144.67,246.45,144.94,247.15,144.94z M246.01,152.69l10.01-14.66h1.24l-10.01,14.66H246.01z
			 M256.13,152.79c-0.64,0-1.21-0.16-1.72-0.49c-0.5-0.33-0.89-0.79-1.17-1.39c-0.28-0.6-0.42-1.3-0.42-2.09
			c0-0.8,0.14-1.49,0.42-2.09c0.28-0.6,0.67-1.06,1.17-1.39c0.5-0.33,1.07-0.49,1.72-0.49c0.67,0,1.25,0.16,1.75,0.49
			c0.49,0.33,0.88,0.79,1.15,1.39c0.27,0.6,0.41,1.3,0.41,2.09c0,0.8-0.14,1.49-0.41,2.09c-0.27,0.6-0.66,1.06-1.15,1.39
			C257.38,152.63,256.8,152.79,256.13,152.79z M256.13,151.85c0.68,0,1.23-0.27,1.64-0.81c0.41-0.54,0.62-1.28,0.62-2.23
			c0-0.95-0.21-1.69-0.62-2.23c-0.41-0.54-0.96-0.81-1.64-0.81c-0.68,0-1.23,0.27-1.64,0.81c-0.41,0.54-0.62,1.28-0.62,2.23
			c0,0.95,0.21,1.69,0.62,2.23C254.89,151.58,255.44,151.85,256.13,151.85z"/>
	</g>
	<g>
		<path d="M119.33,202.5v-14.66h1.07v14.66H119.33z"/>
		<path d="M130.51,191.49c0.89,0,1.67,0.17,2.33,0.51c0.66,0.34,1.18,0.86,1.55,1.55c0.37,0.69,0.55,1.55,0.55,2.56v6.39h-1.05v-6.3
			c0-1.23-0.31-2.16-0.93-2.81c-0.62-0.64-1.49-0.96-2.61-0.96c-0.85,0-1.59,0.17-2.22,0.52c-0.63,0.35-1.11,0.84-1.43,1.47
			c-0.33,0.63-0.49,1.38-0.49,2.26v5.82h-1.05v-10.93h1v3.04l-0.15-0.34c0.34-0.87,0.89-1.55,1.65-2.04
			C128.46,191.74,129.4,191.49,130.51,191.49z"/>
		<path d="M143.47,202.59c-1.02,0-1.94-0.23-2.75-0.7c-0.82-0.47-1.46-1.12-1.94-1.96c-0.47-0.84-0.71-1.8-0.71-2.89
			c0-1.1,0.24-2.07,0.71-2.9c0.47-0.83,1.12-1.48,1.94-1.95c0.82-0.47,1.73-0.7,2.75-0.7c0.96,0,1.83,0.22,2.61,0.67
			c0.77,0.45,1.39,1.08,1.84,1.91c0.45,0.82,0.68,1.81,0.68,2.97c0,1.13-0.22,2.11-0.67,2.95c-0.45,0.84-1.06,1.48-1.83,1.93
			C145.33,202.36,144.45,202.59,143.47,202.59z M143.54,201.64c0.84,0,1.59-0.19,2.25-0.58c0.66-0.38,1.19-0.92,1.57-1.62
			c0.38-0.7,0.58-1.5,0.58-2.41c0-0.92-0.19-1.73-0.58-2.42c-0.38-0.69-0.91-1.23-1.57-1.61c-0.66-0.38-1.41-0.58-2.25-0.58
			c-0.84,0-1.59,0.19-2.25,0.58c-0.66,0.38-1.19,0.92-1.57,1.61c-0.38,0.69-0.58,1.5-0.58,2.42c0,0.91,0.19,1.71,0.58,2.41
			c0.38,0.7,0.91,1.24,1.57,1.62C141.95,201.45,142.7,201.64,143.54,201.64z M147.95,202.5v-3.58l0.19-1.91l-0.21-1.91v-8.14h1.05
			v15.53H147.95z"/>
		<path d="M157.84,202.59c-0.94,0-1.75-0.17-2.43-0.51c-0.68-0.34-1.21-0.86-1.58-1.55c-0.37-0.69-0.55-1.55-0.55-2.56v-6.39h1.05
			v6.3c0,1.23,0.31,2.16,0.94,2.81c0.63,0.64,1.51,0.96,2.66,0.96c0.82,0,1.53-0.17,2.14-0.52c0.6-0.35,1.06-0.84,1.38-1.48
			c0.32-0.63,0.48-1.39,0.48-2.25v-5.82h1.05v10.93h-1.01v-3.04l0.15,0.36c-0.32,0.85-0.85,1.53-1.6,2.02
			C159.76,202.34,158.87,202.59,157.84,202.59z"/>
		<path d="M170.17,202.59c-0.91,0-1.75-0.13-2.54-0.4c-0.79-0.26-1.4-0.6-1.83-1l0.48-0.84c0.42,0.36,0.98,0.67,1.67,0.93
			c0.7,0.26,1.45,0.39,2.26,0.39c1.14,0,1.97-0.19,2.47-0.56c0.5-0.38,0.75-0.87,0.75-1.49c0-0.45-0.13-0.8-0.39-1.06
			s-0.6-0.46-1.04-0.6c-0.43-0.14-0.91-0.25-1.42-0.35c-0.52-0.09-1.03-0.19-1.55-0.3c-0.52-0.11-0.99-0.27-1.42-0.48
			c-0.43-0.21-0.78-0.5-1.04-0.87s-0.39-0.86-0.39-1.48c0-0.56,0.15-1.06,0.46-1.51c0.31-0.45,0.77-0.81,1.38-1.08
			c0.61-0.27,1.38-0.41,2.3-0.41c0.68,0,1.37,0.1,2.06,0.29c0.69,0.2,1.25,0.45,1.69,0.77l-0.48,0.84c-0.46-0.35-0.98-0.6-1.55-0.75
			c-0.57-0.15-1.15-0.23-1.74-0.23c-1.06,0-1.84,0.2-2.33,0.59c-0.5,0.39-0.74,0.88-0.74,1.46c0,0.46,0.13,0.83,0.39,1.1
			c0.26,0.27,0.6,0.48,1.04,0.63c0.43,0.15,0.91,0.27,1.42,0.36c0.52,0.09,1.03,0.19,1.55,0.3c0.52,0.11,0.99,0.27,1.42,0.47
			c0.43,0.2,0.78,0.48,1.04,0.84c0.26,0.36,0.39,0.83,0.39,1.43s-0.16,1.12-0.49,1.57c-0.33,0.45-0.81,0.8-1.45,1.05
			C171.89,202.46,171.1,202.59,170.17,202.59z"/>
		<path d="M175.61,192.47v-0.9h6.53v0.9H175.61z M180.59,202.59c-0.96,0-1.7-0.27-2.21-0.8c-0.51-0.53-0.76-1.26-0.76-2.18v-10.43
			h1.05v10.32c0,0.7,0.17,1.24,0.52,1.61c0.35,0.38,0.85,0.57,1.51,0.57c0.68,0,1.25-0.2,1.7-0.61l0.44,0.73
			c-0.28,0.27-0.62,0.46-1.02,0.59C181.42,202.52,181.01,202.59,180.59,202.59z"/>
		<path d="M185.74,202.5v-10.93h1v2.99l-0.1-0.34c0.31-0.88,0.82-1.56,1.55-2.03c0.73-0.47,1.63-0.71,2.72-0.71v1.03
			c-0.04,0-0.08,0-0.13-0.01c-0.04-0.01-0.08-0.01-0.13-0.01c-1.21,0-2.16,0.38-2.85,1.14c-0.68,0.76-1.03,1.82-1.03,3.17v5.69
			H185.74z"/>
		<path d="M194.33,188.92c-0.24,0-0.44-0.08-0.61-0.25c-0.17-0.17-0.25-0.36-0.25-0.59c0-0.24,0.08-0.44,0.25-0.61
			c0.17-0.17,0.37-0.25,0.61-0.25c0.25,0,0.46,0.08,0.62,0.24c0.16,0.16,0.24,0.36,0.24,0.6s-0.08,0.44-0.24,0.61
			C194.78,188.83,194.58,188.92,194.33,188.92z M193.8,202.5v-10.93h1.05v10.93H193.8z"/>
		<path d="M202.22,202.59c-0.81,0-1.51-0.13-2.1-0.39s-1.05-0.63-1.36-1.1c-0.31-0.47-0.47-1.02-0.47-1.63
			c0-0.56,0.13-1.06,0.39-1.52c0.26-0.45,0.69-0.82,1.29-1.11s1.4-0.43,2.41-0.43h4.02v0.82h-4c-1.13,0-1.92,0.21-2.38,0.63
			c-0.45,0.42-0.68,0.94-0.68,1.57c0,0.7,0.27,1.26,0.8,1.67c0.53,0.42,1.28,0.63,2.24,0.63c0.92,0,1.7-0.21,2.33-0.63
			c0.63-0.42,1.11-1.03,1.41-1.82l0.29,0.71c-0.29,0.8-0.79,1.43-1.5,1.89C204.2,202.35,203.31,202.59,202.22,202.59z M206.15,202.5
			v-2.49l-0.04-0.38v-4.1c0-1.02-0.28-1.79-0.83-2.32c-0.55-0.53-1.36-0.8-2.42-0.8c-0.75,0-1.46,0.13-2.1,0.39
			c-0.65,0.26-1.2,0.59-1.66,0.99l-0.52-0.75c0.54-0.49,1.2-0.87,1.97-1.14c0.77-0.27,1.57-0.41,2.41-0.41
			c1.35,0,2.39,0.34,3.12,1.03c0.73,0.68,1.09,1.7,1.09,3.06v6.93H206.15z"/>
		<path d="M215.93,197.35v-0.94h5.38v0.94H215.93z"/>
		<path d="M234.92,202.63c-1.13,0-2.14-0.3-3.01-0.89c-0.88-0.59-1.57-1.44-2.07-2.55c-0.5-1.11-0.75-2.45-0.75-4.01
			c0-1.56,0.25-2.9,0.75-4.01c0.5-1.11,1.19-1.96,2.07-2.55s1.88-0.89,3.01-0.89c1.13,0,2.14,0.3,3.01,0.89
			c0.88,0.59,1.57,1.44,2.08,2.55c0.51,1.11,0.76,2.45,0.76,4.01c0,1.56-0.25,2.9-0.76,4.01c-0.51,1.11-1.2,1.96-2.08,2.55
			C237.05,202.33,236.05,202.63,234.92,202.63z M234.92,201.25c0.87,0,1.62-0.23,2.26-0.7c0.64-0.47,1.14-1.15,1.51-2.05
			c0.36-0.9,0.54-2.01,0.54-3.32c0-1.31-0.18-2.42-0.54-3.32c-0.36-0.9-0.87-1.58-1.51-2.05c-0.64-0.47-1.4-0.7-2.26-0.7
			c-0.84,0-1.58,0.23-2.24,0.7c-0.66,0.47-1.17,1.15-1.53,2.05c-0.36,0.9-0.54,2.01-0.54,3.32c0,1.31,0.18,2.42,0.54,3.32
			c0.36,0.9,0.87,1.58,1.53,2.05C233.33,201.01,234.08,201.25,234.92,201.25z"/>
		<path d="M243.84,202.61c-0.31,0-0.57-0.11-0.79-0.34c-0.22-0.22-0.32-0.49-0.32-0.82c0-0.34,0.11-0.61,0.32-0.82
			c0.22-0.21,0.48-0.31,0.79-0.31c0.31,0,0.57,0.1,0.79,0.31c0.22,0.21,0.32,0.48,0.32,0.82c0,0.32-0.11,0.59-0.32,0.82
			C244.41,202.5,244.14,202.61,243.84,202.61z"/>
		<path d="M252.92,202.63c-1.3,0-2.39-0.29-3.29-0.87c-0.89-0.58-1.57-1.42-2.03-2.51c-0.46-1.1-0.69-2.41-0.69-3.95
			c0-1.66,0.28-3.05,0.85-4.18c0.57-1.12,1.35-1.97,2.36-2.54c1.01-0.57,2.17-0.86,3.5-0.86c0.66,0,1.28,0.06,1.88,0.19
			c0.6,0.13,1.13,0.33,1.59,0.61l-0.61,1.21c-0.38-0.25-0.81-0.43-1.3-0.53c-0.49-0.1-1.01-0.16-1.55-0.16
			c-1.58,0-2.84,0.5-3.78,1.51c-0.94,1.01-1.41,2.51-1.41,4.5c0,0.31,0.02,0.69,0.05,1.14c0.03,0.45,0.11,0.9,0.24,1.35l-0.52-0.4
			c0.15-0.73,0.45-1.34,0.9-1.85c0.45-0.51,1-0.9,1.67-1.16c0.67-0.27,1.4-0.4,2.2-0.4c0.98,0,1.84,0.18,2.58,0.54
			c0.74,0.36,1.32,0.87,1.74,1.53c0.42,0.66,0.63,1.43,0.63,2.32c0,0.91-0.22,1.7-0.65,2.38c-0.43,0.68-1.03,1.2-1.79,1.57
			C254.73,202.44,253.87,202.63,252.92,202.63z M252.86,201.35c0.7,0,1.32-0.13,1.85-0.39c0.54-0.26,0.96-0.63,1.27-1.11
			c0.31-0.48,0.46-1.04,0.46-1.69c0-0.96-0.33-1.73-0.99-2.3c-0.66-0.57-1.56-0.86-2.69-0.86c-0.75,0-1.41,0.14-1.97,0.42
			c-0.56,0.28-1,0.66-1.32,1.14c-0.32,0.48-0.48,1.03-0.48,1.64c0,0.53,0.15,1.04,0.44,1.52c0.29,0.48,0.73,0.87,1.31,1.17
			C251.32,201.2,252.02,201.35,252.86,201.35z"/>
		<path d="M262.35,195.7c-0.66,0-1.24-0.16-1.74-0.49c-0.5-0.33-0.89-0.79-1.16-1.39c-0.27-0.6-0.41-1.3-0.41-2.09
			c0-0.8,0.14-1.49,0.41-2.09s0.66-1.06,1.16-1.39c0.5-0.33,1.08-0.49,1.74-0.49c0.66,0,1.23,0.16,1.73,0.49
			c0.49,0.33,0.88,0.79,1.16,1.39c0.28,0.6,0.42,1.3,0.42,2.09c0,0.8-0.14,1.49-0.42,2.09c-0.28,0.6-0.67,1.06-1.16,1.39
			C263.58,195.53,263,195.7,262.35,195.7z M262.35,194.76c0.68,0,1.23-0.27,1.64-0.81c0.41-0.54,0.62-1.28,0.62-2.23
			c0-0.95-0.21-1.69-0.62-2.23c-0.41-0.54-0.96-0.81-1.64-0.81c-0.7,0-1.25,0.27-1.65,0.81c-0.4,0.54-0.61,1.28-0.61,2.23
			c0,0.95,0.2,1.69,0.61,2.23C261.1,194.49,261.65,194.76,262.35,194.76z M261.21,202.5l10.01-14.66h1.24l-10.01,14.66H261.21z
			 M271.33,202.61c-0.64,0-1.21-0.16-1.72-0.49c-0.5-0.33-0.89-0.79-1.17-1.39s-0.42-1.3-0.42-2.09c0-0.8,0.14-1.49,0.42-2.09
			c0.28-0.6,0.67-1.06,1.17-1.39c0.5-0.33,1.07-0.49,1.72-0.49c0.67,0,1.25,0.16,1.75,0.49c0.49,0.33,0.88,0.79,1.15,1.39
			c0.27,0.6,0.41,1.3,0.41,2.09c0,0.8-0.14,1.49-0.41,2.09s-0.66,1.06-1.15,1.39C272.58,202.44,272,202.61,271.33,202.61z
			 M271.33,201.66c0.68,0,1.23-0.27,1.64-0.81c0.41-0.54,0.62-1.28,0.62-2.23c0-0.95-0.21-1.69-0.62-2.23
			c-0.41-0.54-0.96-0.81-1.64-0.81c-0.68,0-1.23,0.27-1.64,0.81c-0.41,0.54-0.62,1.28-0.62,2.23c0,0.95,0.21,1.69,0.62,2.23
			C270.09,201.4,270.64,201.66,271.33,201.66z"/>
	</g>
	<g>
		<path d="M568.1,104.59c-1.1,0-2.12-0.18-3.06-0.55c-0.94-0.37-1.75-0.89-2.44-1.56c-0.69-0.67-1.22-1.46-1.6-2.36
			c-0.38-0.9-0.57-1.89-0.57-2.96c0-1.08,0.19-2.06,0.57-2.96c0.38-0.9,0.91-1.69,1.61-2.36c0.7-0.67,1.51-1.19,2.44-1.56
			c0.93-0.37,1.95-0.55,3.07-0.55c1.06,0,2.04,0.17,2.95,0.5c0.91,0.34,1.68,0.84,2.32,1.51l-0.67,0.71
			c-0.64-0.63-1.34-1.07-2.1-1.34c-0.76-0.27-1.59-0.4-2.48-0.4c-0.95,0-1.83,0.16-2.64,0.48c-0.81,0.32-1.51,0.77-2.12,1.36
			c-0.6,0.59-1.06,1.27-1.39,2.05c-0.33,0.78-0.49,1.63-0.49,2.55c0,0.92,0.16,1.77,0.49,2.55c0.33,0.78,0.79,1.47,1.39,2.05
			c0.6,0.59,1.31,1.04,2.12,1.36c0.81,0.32,1.69,0.48,2.64,0.48c0.87,0,1.69-0.13,2.46-0.4c0.78-0.26,1.48-0.7,2.13-1.32l0.61,0.82
			c-0.66,0.63-1.44,1.1-2.36,1.41C570.06,104.43,569.1,104.59,568.1,104.59z M572.31,102.6v-5.38h1.03v5.49L572.31,102.6z"/>
		<path d="M582.13,104.57c-1.1,0-2.08-0.24-2.92-0.71s-1.51-1.13-1.99-1.97c-0.48-0.84-0.72-1.79-0.72-2.87
			c0-1.09,0.23-2.05,0.68-2.88c0.45-0.83,1.08-1.48,1.87-1.96c0.8-0.47,1.69-0.71,2.68-0.71c0.99,0,1.88,0.23,2.67,0.69
			c0.79,0.46,1.41,1.11,1.86,1.94c0.45,0.83,0.68,1.79,0.68,2.88c0,0.04,0,0.09-0.01,0.14c-0.01,0.05-0.01,0.1-0.01,0.16h-9.65
			v-0.82h9.09l-0.42,0.4c0.01-0.85-0.16-1.62-0.53-2.29s-0.87-1.21-1.5-1.59c-0.63-0.38-1.35-0.58-2.18-0.58
			c-0.81,0-1.53,0.19-2.17,0.58c-0.64,0.38-1.13,0.91-1.5,1.59c-0.36,0.68-0.54,1.45-0.54,2.31v0.19c0,0.89,0.2,1.69,0.6,2.38
			c0.4,0.69,0.95,1.23,1.64,1.61c0.7,0.38,1.49,0.58,2.39,0.58c0.7,0,1.35-0.13,1.96-0.38c0.61-0.25,1.12-0.63,1.54-1.15l0.61,0.69
			c-0.47,0.59-1.07,1.03-1.79,1.33C583.74,104.42,582.96,104.57,582.13,104.57z"/>
		<path d="M595.52,93.47c0.89,0,1.67,0.17,2.33,0.51c0.66,0.34,1.18,0.86,1.55,1.55c0.37,0.69,0.55,1.55,0.55,2.56v6.39h-1.05v-6.3
			c0-1.23-0.31-2.16-0.93-2.81c-0.62-0.64-1.49-0.96-2.61-0.96c-0.85,0-1.59,0.17-2.22,0.52c-0.63,0.35-1.11,0.84-1.43,1.47
			s-0.49,1.38-0.49,2.26v5.82h-1.05V93.55h1.01v3.04l-0.15-0.34c0.34-0.87,0.89-1.55,1.65-2.04
			C593.46,93.72,594.41,93.47,595.52,93.47z"/>
		<path d="M608.71,104.57c-1.1,0-2.08-0.24-2.92-0.71s-1.51-1.13-1.99-1.97c-0.48-0.84-0.72-1.79-0.72-2.87
			c0-1.09,0.23-2.05,0.68-2.88c0.45-0.83,1.08-1.48,1.87-1.96c0.79-0.47,1.69-0.71,2.68-0.71c0.99,0,1.88,0.23,2.67,0.69
			c0.79,0.46,1.41,1.11,1.86,1.94c0.45,0.83,0.68,1.79,0.68,2.88c0,0.04,0,0.09-0.01,0.14c-0.01,0.05-0.01,0.1-0.01,0.16h-9.65
			v-0.82h9.09l-0.42,0.4c0.01-0.85-0.16-1.62-0.53-2.29s-0.87-1.21-1.5-1.59c-0.63-0.38-1.35-0.58-2.18-0.58
			c-0.81,0-1.53,0.19-2.17,0.58c-0.64,0.38-1.13,0.91-1.5,1.59c-0.36,0.68-0.54,1.45-0.54,2.31v0.19c0,0.89,0.2,1.69,0.6,2.38
			c0.4,0.69,0.95,1.23,1.64,1.61c0.7,0.38,1.49,0.58,2.39,0.58c0.7,0,1.35-0.13,1.96-0.38c0.61-0.25,1.12-0.63,1.54-1.15l0.61,0.69
			c-0.47,0.59-1.07,1.03-1.79,1.33C610.33,104.42,609.55,104.57,608.71,104.57z"/>
		<path d="M616.77,104.48V93.55h1v2.99l-0.1-0.34c0.31-0.88,0.82-1.56,1.55-2.03c0.73-0.47,1.63-0.71,2.72-0.71v1.03
			c-0.04,0-0.08,0-0.12-0.01c-0.04-0.01-0.08-0.01-0.13-0.01c-1.21,0-2.16,0.38-2.85,1.14c-0.68,0.76-1.02,1.82-1.02,3.17v5.69
			H616.77z"/>
		<path d="M626.97,104.57c-0.81,0-1.51-0.13-2.1-0.39c-0.59-0.26-1.05-0.63-1.36-1.1c-0.31-0.47-0.47-1.02-0.47-1.63
			c0-0.56,0.13-1.06,0.39-1.52c0.26-0.45,0.69-0.82,1.29-1.11c0.6-0.29,1.4-0.43,2.41-0.43h4.02v0.82h-4
			c-1.13,0-1.92,0.21-2.38,0.63c-0.45,0.42-0.68,0.94-0.68,1.57c0,0.7,0.26,1.26,0.79,1.67s1.28,0.63,2.24,0.63
			c0.92,0,1.7-0.21,2.33-0.63c0.64-0.42,1.11-1.03,1.41-1.82l0.29,0.71c-0.29,0.8-0.79,1.43-1.5,1.89
			C628.95,104.33,628.06,104.57,626.97,104.57z M630.9,104.48v-2.49l-0.04-0.38v-4.1c0-1.02-0.28-1.79-0.83-2.32
			c-0.55-0.53-1.36-0.8-2.42-0.8c-0.75,0-1.46,0.13-2.1,0.39c-0.65,0.26-1.2,0.59-1.66,0.99l-0.52-0.75
			c0.54-0.49,1.2-0.87,1.97-1.14c0.77-0.27,1.57-0.41,2.41-0.41c1.35,0,2.39,0.34,3.12,1.03c0.73,0.68,1.09,1.7,1.09,3.06v6.93
			H630.9z"/>
		<path d="M640.55,104.57c-1.06,0-2.01-0.24-2.84-0.71c-0.83-0.47-1.49-1.13-1.97-1.97c-0.48-0.84-0.72-1.79-0.72-2.87
			c0-1.09,0.24-2.05,0.72-2.89c0.48-0.84,1.14-1.49,1.97-1.96c0.83-0.47,1.78-0.7,2.84-0.7c0.88,0,1.68,0.17,2.4,0.5
			c0.72,0.34,1.3,0.84,1.75,1.51l-0.77,0.57c-0.39-0.56-0.88-0.97-1.47-1.24c-0.59-0.27-1.22-0.4-1.91-0.4
			c-0.85,0-1.61,0.19-2.29,0.58c-0.68,0.38-1.21,0.92-1.59,1.61c-0.38,0.69-0.58,1.5-0.58,2.42s0.19,1.73,0.58,2.42
			c0.38,0.69,0.91,1.23,1.59,1.61c0.68,0.38,1.44,0.58,2.29,0.58c0.68,0,1.32-0.13,1.91-0.4c0.59-0.27,1.08-0.68,1.47-1.24
			l0.77,0.57c-0.45,0.67-1.03,1.17-1.75,1.51C642.23,104.4,641.44,104.57,640.55,104.57z"/>
		<path d="M648.18,90.89c-0.24,0-0.44-0.08-0.61-0.25c-0.17-0.17-0.25-0.36-0.25-0.59c0-0.24,0.08-0.44,0.25-0.61
			s0.37-0.25,0.61-0.25c0.25,0,0.46,0.08,0.62,0.24c0.16,0.16,0.24,0.36,0.24,0.6s-0.08,0.44-0.24,0.61
			C648.63,90.81,648.43,90.89,648.18,90.89z M647.65,104.48V93.55h1.05v10.93H647.65z"/>
		<path d="M657.39,104.57c-1.05,0-1.98-0.24-2.79-0.71c-0.82-0.47-1.47-1.13-1.95-1.97c-0.48-0.84-0.72-1.79-0.72-2.87
			c0-1.09,0.24-2.05,0.72-2.88c0.48-0.83,1.13-1.48,1.95-1.96c0.82-0.47,1.75-0.71,2.79-0.71c1.05,0,1.98,0.24,2.81,0.71
			c0.82,0.47,1.47,1.13,1.95,1.96c0.47,0.83,0.71,1.79,0.71,2.88c0,1.08-0.24,2.03-0.71,2.87c-0.47,0.84-1.12,1.49-1.95,1.97
			C659.37,104.33,658.43,104.57,657.39,104.57z M657.39,103.62c0.84,0,1.59-0.19,2.26-0.58c0.67-0.38,1.19-0.92,1.57-1.62
			c0.38-0.7,0.56-1.5,0.56-2.41c0-0.92-0.19-1.73-0.56-2.42c-0.38-0.69-0.9-1.23-1.57-1.61c-0.67-0.38-1.42-0.58-2.26-0.58
			c-0.84,0-1.59,0.19-2.25,0.58c-0.66,0.38-1.19,0.92-1.57,1.61c-0.38,0.69-0.58,1.5-0.58,2.42c0,0.91,0.19,1.71,0.58,2.41
			c0.38,0.7,0.91,1.24,1.57,1.62C655.8,103.43,656.55,103.62,657.39,103.62z M656.19,91.77l2.91-2.47h1.51l-3.29,2.47H656.19z"/>
		<path d="M671.44,93.47c0.89,0,1.67,0.17,2.33,0.51c0.66,0.34,1.18,0.86,1.55,1.55c0.37,0.69,0.55,1.55,0.55,2.56v6.39h-1.05v-6.3
			c0-1.23-0.31-2.16-0.93-2.81c-0.62-0.64-1.49-0.96-2.61-0.96c-0.85,0-1.59,0.17-2.22,0.52c-0.63,0.35-1.11,0.84-1.43,1.47
			c-0.33,0.63-0.49,1.38-0.49,2.26v5.82h-1.05V93.55h1.01v3.04l-0.15-0.34c0.34-0.87,0.89-1.55,1.65-2.04
			C669.38,93.72,670.32,93.47,671.44,93.47z"/>
		<path d="M690.91,93.47c0.89,0,1.67,0.17,2.33,0.51c0.66,0.34,1.18,0.86,1.55,1.55c0.37,0.69,0.55,1.55,0.55,2.56v6.39h-1.05v-6.3
			c0-1.23-0.31-2.16-0.93-2.81c-0.62-0.64-1.49-0.96-2.61-0.96c-0.85,0-1.59,0.17-2.22,0.52c-0.63,0.35-1.11,0.84-1.43,1.47
			c-0.33,0.63-0.49,1.38-0.49,2.26v5.82h-1.05V88.95h1.05v7.64l-0.19-0.34c0.34-0.87,0.89-1.55,1.65-2.04
			C688.85,93.72,689.79,93.47,690.91,93.47z"/>
		<path d="M700.18,90.89c-0.24,0-0.44-0.08-0.61-0.25c-0.17-0.17-0.25-0.36-0.25-0.59c0-0.24,0.08-0.44,0.25-0.61
			s0.37-0.25,0.61-0.25c0.25,0,0.46,0.08,0.62,0.24c0.16,0.16,0.24,0.36,0.24,0.6s-0.08,0.44-0.24,0.61
			C700.64,90.81,700.43,90.89,700.18,90.89z M699.66,104.48V93.55h1.05v10.93H699.66z"/>
		<path d="M709.33,104.57c-1.02,0-1.94-0.23-2.75-0.7c-0.82-0.47-1.46-1.12-1.94-1.96c-0.47-0.84-0.71-1.8-0.71-2.89
			c0-1.1,0.24-2.07,0.71-2.9c0.47-0.83,1.12-1.48,1.94-1.95c0.82-0.47,1.73-0.7,2.75-0.7c0.96,0,1.83,0.22,2.61,0.67
			c0.77,0.45,1.39,1.08,1.84,1.91c0.45,0.82,0.68,1.81,0.68,2.97c0,1.13-0.22,2.11-0.67,2.95c-0.45,0.84-1.06,1.48-1.83,1.93
			C711.18,104.34,710.3,104.57,709.33,104.57z M709.39,103.62c0.84,0,1.59-0.19,2.25-0.58c0.66-0.38,1.19-0.92,1.57-1.62
			c0.38-0.7,0.58-1.5,0.58-2.41c0-0.92-0.19-1.73-0.58-2.42c-0.38-0.69-0.91-1.23-1.57-1.61c-0.66-0.38-1.41-0.58-2.25-0.58
			c-0.84,0-1.59,0.19-2.25,0.58c-0.66,0.38-1.19,0.92-1.57,1.61c-0.38,0.69-0.58,1.5-0.58,2.42c0,0.91,0.19,1.71,0.58,2.41
			c0.38,0.7,0.91,1.24,1.57,1.62C707.8,103.43,708.55,103.62,709.39,103.62z M713.81,104.48v-3.58L714,99l-0.21-1.91v-8.14h1.05
			v15.53H713.81z"/>
		<path d="M719.25,104.48V93.55h1.01v2.99l-0.11-0.34c0.31-0.88,0.82-1.56,1.55-2.03c0.73-0.47,1.63-0.71,2.72-0.71v1.03
			c-0.04,0-0.08,0-0.13-0.01c-0.04-0.01-0.08-0.01-0.13-0.01c-1.21,0-2.16,0.38-2.85,1.14c-0.68,0.76-1.03,1.82-1.03,3.17v5.69
			H719.25z"/>
		<path d="M731.48,104.57c-1.05,0-1.98-0.24-2.8-0.71c-0.82-0.47-1.46-1.13-1.95-1.97c-0.48-0.84-0.72-1.79-0.72-2.87
			c0-1.09,0.24-2.05,0.72-2.88c0.48-0.83,1.13-1.48,1.95-1.96c0.82-0.47,1.75-0.71,2.8-0.71c1.05,0,1.98,0.24,2.81,0.71
			c0.82,0.47,1.47,1.13,1.95,1.96c0.47,0.83,0.71,1.79,0.71,2.88c0,1.08-0.24,2.03-0.71,2.87c-0.47,0.84-1.12,1.49-1.95,1.97
			C733.46,104.33,732.52,104.57,731.48,104.57z M731.48,103.62c0.84,0,1.59-0.19,2.26-0.58c0.67-0.38,1.19-0.92,1.57-1.62
			c0.38-0.7,0.56-1.5,0.56-2.41c0-0.92-0.19-1.73-0.56-2.42c-0.38-0.69-0.9-1.23-1.57-1.61c-0.67-0.38-1.42-0.58-2.26-0.58
			c-0.84,0-1.59,0.19-2.25,0.58c-0.66,0.38-1.19,0.92-1.57,1.61c-0.38,0.69-0.58,1.5-0.58,2.42c0,0.91,0.19,1.71,0.58,2.41
			c0.38,0.7,0.91,1.24,1.57,1.62C729.89,103.43,730.64,103.62,731.48,103.62z"/>
		<path d="M744.62,104.57c-1.1,0-2.08-0.24-2.92-0.71s-1.51-1.13-1.99-1.97c-0.48-0.84-0.72-1.79-0.72-2.87
			c0-1.09,0.23-2.05,0.68-2.88c0.45-0.83,1.08-1.48,1.87-1.96c0.8-0.47,1.69-0.71,2.68-0.71c0.99,0,1.88,0.23,2.67,0.69
			c0.79,0.46,1.41,1.11,1.86,1.94c0.45,0.83,0.68,1.79,0.68,2.88c0,0.04,0,0.09-0.01,0.14c-0.01,0.05-0.01,0.1-0.01,0.16h-9.65
			v-0.82h9.09l-0.42,0.4c0.01-0.85-0.16-1.62-0.53-2.29s-0.87-1.21-1.5-1.59c-0.63-0.38-1.35-0.58-2.18-0.58
			c-0.81,0-1.53,0.19-2.17,0.58c-0.64,0.38-1.13,0.91-1.5,1.59c-0.36,0.68-0.54,1.45-0.54,2.31v0.19c0,0.89,0.2,1.69,0.6,2.38
			c0.4,0.69,0.95,1.23,1.64,1.61c0.7,0.38,1.49,0.58,2.39,0.58c0.7,0,1.35-0.13,1.96-0.38c0.61-0.25,1.12-0.63,1.54-1.15l0.61,0.69
			c-0.47,0.59-1.07,1.03-1.79,1.33S745.46,104.57,744.62,104.57z"/>
		<path d="M752.68,104.48V88.95h1.05v15.53H752.68z"/>
		<path d="M762.59,104.57c-1.1,0-2.08-0.24-2.92-0.71s-1.51-1.13-1.99-1.97c-0.48-0.84-0.72-1.79-0.72-2.87
			c0-1.09,0.23-2.05,0.68-2.88c0.45-0.83,1.08-1.48,1.87-1.96c0.79-0.47,1.69-0.71,2.68-0.71c0.99,0,1.88,0.23,2.67,0.69
			c0.79,0.46,1.41,1.11,1.86,1.94c0.45,0.83,0.68,1.79,0.68,2.88c0,0.04,0,0.09-0.01,0.14c-0.01,0.05-0.01,0.1-0.01,0.16h-9.65
			v-0.82h9.09l-0.42,0.4c0.01-0.85-0.16-1.62-0.53-2.29s-0.87-1.21-1.5-1.59c-0.63-0.38-1.35-0.58-2.18-0.58
			c-0.81,0-1.53,0.19-2.17,0.58c-0.64,0.38-1.13,0.91-1.5,1.59c-0.36,0.68-0.54,1.45-0.54,2.31v0.19c0,0.89,0.2,1.69,0.6,2.38
			c0.4,0.69,0.95,1.23,1.64,1.61c0.7,0.38,1.49,0.58,2.39,0.58c0.7,0,1.35-0.13,1.96-0.38c0.61-0.25,1.12-0.63,1.54-1.15l0.61,0.69
			c-0.47,0.59-1.07,1.03-1.79,1.33C764.2,104.42,763.42,104.57,762.59,104.57z"/>
		<path d="M774.98,104.57c-1.06,0-2.01-0.24-2.84-0.71c-0.83-0.47-1.49-1.13-1.97-1.97c-0.48-0.84-0.72-1.79-0.72-2.87
			c0-1.09,0.24-2.05,0.72-2.89c0.48-0.84,1.14-1.49,1.97-1.96c0.83-0.47,1.78-0.7,2.84-0.7c0.88,0,1.68,0.17,2.4,0.5
			c0.72,0.34,1.3,0.84,1.75,1.51l-0.77,0.57c-0.39-0.56-0.88-0.97-1.47-1.24c-0.59-0.27-1.22-0.4-1.91-0.4
			c-0.85,0-1.61,0.19-2.29,0.58c-0.68,0.38-1.21,0.92-1.59,1.61c-0.38,0.69-0.58,1.5-0.58,2.42s0.19,1.73,0.58,2.42
			c0.38,0.69,0.91,1.23,1.59,1.61c0.68,0.38,1.44,0.58,2.29,0.58c0.68,0,1.32-0.13,1.91-0.4c0.59-0.27,1.08-0.68,1.47-1.24
			l0.77,0.57c-0.45,0.67-1.03,1.17-1.75,1.51C776.66,104.4,775.86,104.57,774.98,104.57z"/>
		<path d="M780.59,94.45v-0.9h6.53v0.9H780.59z M785.57,104.57c-0.96,0-1.7-0.27-2.21-0.8s-0.76-1.26-0.76-2.18V91.17h1.05v10.32
			c0,0.7,0.17,1.24,0.52,1.61c0.35,0.38,0.85,0.57,1.51,0.57c0.68,0,1.25-0.2,1.7-0.61l0.44,0.73c-0.28,0.27-0.62,0.46-1.01,0.59
			C786.4,104.5,785.99,104.57,785.57,104.57z"/>
		<path d="M790.72,104.48V93.55h1.01v2.99l-0.11-0.34c0.31-0.88,0.82-1.56,1.55-2.03c0.73-0.47,1.63-0.71,2.72-0.71v1.03
			c-0.04,0-0.08,0-0.13-0.01c-0.04-0.01-0.08-0.01-0.13-0.01c-1.21,0-2.16,0.38-2.85,1.14c-0.68,0.76-1.03,1.82-1.03,3.17v5.69
			H790.72z"/>
		<path d="M799.31,90.89c-0.24,0-0.44-0.08-0.61-0.25c-0.17-0.17-0.25-0.36-0.25-0.59c0-0.24,0.08-0.44,0.25-0.61
			s0.37-0.25,0.61-0.25c0.25,0,0.46,0.08,0.62,0.24c0.16,0.16,0.24,0.36,0.24,0.6s-0.08,0.44-0.24,0.61
			C799.76,90.81,799.56,90.89,799.31,90.89z M798.78,104.48V93.55h1.05v10.93H798.78z"/>
		<path d="M808.58,104.57c-1.06,0-2.01-0.24-2.84-0.71c-0.83-0.47-1.49-1.13-1.97-1.97c-0.48-0.84-0.72-1.79-0.72-2.87
			c0-1.09,0.24-2.05,0.72-2.89c0.48-0.84,1.14-1.49,1.97-1.96c0.83-0.47,1.78-0.7,2.84-0.7c0.88,0,1.68,0.17,2.4,0.5
			c0.72,0.34,1.3,0.84,1.75,1.51l-0.77,0.57c-0.39-0.56-0.88-0.97-1.47-1.24c-0.59-0.27-1.22-0.4-1.91-0.4
			c-0.85,0-1.61,0.19-2.29,0.58c-0.68,0.38-1.21,0.92-1.59,1.61c-0.38,0.69-0.58,1.5-0.58,2.42s0.19,1.73,0.58,2.42
			c0.38,0.69,0.91,1.23,1.59,1.61c0.68,0.38,1.44,0.58,2.29,0.58c0.68,0,1.32-0.13,1.91-0.4c0.59-0.27,1.08-0.68,1.47-1.24
			l0.77,0.57c-0.45,0.67-1.03,1.17-1.75,1.51C810.26,104.4,809.46,104.57,808.58,104.57z"/>
		<path d="M818.82,104.57c-0.81,0-1.51-0.13-2.1-0.39c-0.59-0.26-1.05-0.63-1.36-1.1c-0.31-0.47-0.47-1.02-0.47-1.63
			c0-0.56,0.13-1.06,0.39-1.52c0.26-0.45,0.69-0.82,1.29-1.11c0.6-0.29,1.4-0.43,2.41-0.43h4.02v0.82h-4
			c-1.13,0-1.92,0.21-2.38,0.63c-0.45,0.42-0.68,0.94-0.68,1.57c0,0.7,0.26,1.26,0.79,1.67c0.53,0.42,1.28,0.63,2.24,0.63
			c0.92,0,1.7-0.21,2.33-0.63c0.64-0.42,1.11-1.03,1.41-1.82l0.29,0.71c-0.29,0.8-0.79,1.43-1.5,1.89
			C820.8,104.33,819.91,104.57,818.82,104.57z M822.75,104.48v-2.49l-0.04-0.38v-4.1c0-1.02-0.28-1.79-0.83-2.32
			c-0.55-0.53-1.36-0.8-2.42-0.8c-0.75,0-1.46,0.13-2.1,0.39c-0.65,0.26-1.2,0.59-1.66,0.99l-0.52-0.75
			c0.54-0.49,1.2-0.87,1.97-1.14c0.77-0.27,1.57-0.41,2.41-0.41c1.35,0,2.39,0.34,3.12,1.03c0.73,0.68,1.09,1.7,1.09,3.06v6.93
			H822.75z"/>
		<path d="M832.53,99.33v-0.94h5.38v0.94H832.53z"/>
		<path d="M851.52,104.61c-1.13,0-2.14-0.3-3.02-0.89c-0.88-0.59-1.57-1.44-2.07-2.55c-0.5-1.11-0.75-2.45-0.75-4.01
			c0-1.56,0.25-2.9,0.75-4.01c0.5-1.11,1.19-1.96,2.07-2.55c0.88-0.59,1.88-0.89,3.02-0.89c1.13,0,2.14,0.3,3.01,0.89
			c0.88,0.59,1.57,1.44,2.08,2.55c0.51,1.11,0.76,2.45,0.76,4.01c0,1.56-0.25,2.9-0.76,4.01c-0.51,1.11-1.2,1.96-2.08,2.55
			C853.65,104.31,852.65,104.61,851.52,104.61z M851.52,103.23c0.87,0,1.62-0.23,2.26-0.7c0.64-0.47,1.14-1.15,1.51-2.05
			c0.36-0.9,0.54-2.01,0.54-3.32s-0.18-2.42-0.54-3.32c-0.36-0.9-0.87-1.58-1.51-2.05c-0.64-0.47-1.4-0.7-2.26-0.7
			c-0.84,0-1.59,0.23-2.24,0.7c-0.66,0.47-1.17,1.15-1.53,2.05c-0.36,0.9-0.54,2.01-0.54,3.32s0.18,2.42,0.54,3.32
			c0.36,0.9,0.87,1.58,1.53,2.05C849.93,102.99,850.68,103.23,851.52,103.23z"/>
		<path d="M860.44,104.59c-0.31,0-0.57-0.11-0.79-0.34c-0.22-0.22-0.32-0.49-0.32-0.82c0-0.34,0.11-0.61,0.32-0.82
			c0.22-0.21,0.48-0.31,0.79-0.31s0.57,0.1,0.79,0.31c0.22,0.21,0.32,0.48,0.32,0.82c0,0.32-0.11,0.59-0.32,0.82
			C861.01,104.47,860.75,104.59,860.44,104.59z"/>
		<path d="M869.52,104.61c-1.3,0-2.39-0.29-3.29-0.87c-0.89-0.58-1.57-1.42-2.03-2.51c-0.46-1.1-0.69-2.41-0.69-3.95
			c0-1.66,0.28-3.05,0.85-4.18c0.57-1.12,1.35-1.97,2.36-2.54c1.01-0.57,2.17-0.86,3.5-0.86c0.65,0,1.28,0.06,1.88,0.19
			c0.6,0.13,1.13,0.33,1.59,0.61l-0.61,1.21c-0.38-0.25-0.81-0.43-1.3-0.53c-0.49-0.1-1.01-0.16-1.55-0.16
			c-1.58,0-2.84,0.5-3.78,1.51c-0.94,1.01-1.41,2.51-1.41,4.5c0,0.31,0.02,0.69,0.05,1.14c0.03,0.45,0.11,0.9,0.24,1.35l-0.52-0.4
			c0.15-0.73,0.45-1.34,0.9-1.85c0.45-0.51,1-0.9,1.67-1.16c0.67-0.27,1.4-0.4,2.2-0.4c0.98,0,1.83,0.18,2.58,0.54
			c0.74,0.36,1.32,0.87,1.74,1.53c0.42,0.66,0.63,1.43,0.63,2.32c0,0.91-0.22,1.7-0.65,2.38c-0.43,0.68-1.03,1.2-1.79,1.57
			C871.33,104.42,870.47,104.61,869.52,104.61z M869.46,103.33c0.7,0,1.32-0.13,1.85-0.39c0.54-0.26,0.96-0.63,1.27-1.11
			c0.31-0.48,0.46-1.04,0.46-1.69c0-0.96-0.33-1.73-0.99-2.3c-0.66-0.57-1.56-0.86-2.69-0.86c-0.75,0-1.41,0.14-1.97,0.42
			c-0.56,0.28-1,0.66-1.32,1.14c-0.32,0.48-0.48,1.03-0.48,1.64c0,0.53,0.15,1.04,0.44,1.52c0.29,0.48,0.73,0.87,1.31,1.17
			C867.92,103.18,868.62,103.33,869.46,103.33z"/>
		<path d="M878.95,97.68c-0.66,0-1.24-0.16-1.74-0.49c-0.5-0.33-0.89-0.79-1.16-1.39c-0.27-0.6-0.41-1.3-0.41-2.09
			c0-0.8,0.14-1.49,0.41-2.09c0.27-0.6,0.66-1.06,1.16-1.39c0.5-0.33,1.08-0.49,1.74-0.49c0.66,0,1.23,0.16,1.73,0.49
			c0.5,0.33,0.88,0.79,1.16,1.39c0.28,0.6,0.42,1.3,0.42,2.09c0,0.8-0.14,1.49-0.42,2.09c-0.28,0.6-0.67,1.06-1.16,1.39
			C880.18,97.51,879.6,97.68,878.95,97.68z M878.95,96.74c0.68,0,1.23-0.27,1.64-0.81c0.41-0.54,0.62-1.28,0.62-2.23
			c0-0.95-0.21-1.69-0.62-2.23c-0.41-0.54-0.96-0.81-1.64-0.81c-0.7,0-1.25,0.27-1.65,0.81c-0.4,0.54-0.61,1.28-0.61,2.23
			c0,0.95,0.2,1.69,0.61,2.23C877.7,96.47,878.25,96.74,878.95,96.74z M877.81,104.48l10.01-14.66h1.24l-10.01,14.66H877.81z
			 M887.93,104.59c-0.64,0-1.21-0.16-1.72-0.49c-0.5-0.33-0.89-0.79-1.17-1.39c-0.28-0.6-0.42-1.3-0.42-2.09
			c0-0.8,0.14-1.49,0.42-2.09c0.28-0.6,0.67-1.06,1.17-1.39c0.5-0.33,1.07-0.49,1.72-0.49c0.67,0,1.25,0.16,1.75,0.49
			c0.5,0.33,0.88,0.79,1.15,1.39c0.27,0.6,0.41,1.3,0.41,2.09c0,0.8-0.14,1.49-0.41,2.09c-0.27,0.6-0.66,1.06-1.15,1.39
			C889.18,104.42,888.6,104.59,887.93,104.59z M887.93,103.64c0.68,0,1.23-0.27,1.64-0.81c0.41-0.54,0.62-1.28,0.62-2.23
			c0-0.95-0.21-1.69-0.62-2.23c-0.41-0.54-0.96-0.81-1.64-0.81c-0.68,0-1.23,0.27-1.64,0.81c-0.41,0.54-0.62,1.28-0.62,2.23
			c0,0.95,0.2,1.69,0.62,2.23C886.7,103.38,887.24,103.64,887.93,103.64z"/>
	</g>
	<g>
		<path d="M569.85,154.58c-1.09,0-2.12-0.18-3.09-0.55c-0.97-0.37-1.72-0.85-2.25-1.43l0.48-0.8c0.5,0.52,1.19,0.95,2.06,1.31
			c0.87,0.36,1.8,0.53,2.77,0.53c0.98,0,1.78-0.13,2.4-0.39c0.62-0.26,1.08-0.6,1.38-1.04c0.3-0.43,0.45-0.91,0.45-1.44
			c0-0.63-0.17-1.13-0.5-1.51c-0.33-0.38-0.77-0.68-1.32-0.9c-0.54-0.22-1.14-0.41-1.78-0.57c-0.64-0.15-1.29-0.32-1.95-0.49
			c-0.66-0.17-1.26-0.4-1.8-0.68c-0.54-0.28-0.98-0.66-1.31-1.14c-0.33-0.48-0.49-1.11-0.49-1.87c0-0.7,0.18-1.34,0.54-1.93
			c0.36-0.59,0.93-1.06,1.7-1.42c0.77-0.36,1.75-0.54,2.95-0.54c0.81,0,1.61,0.12,2.4,0.36c0.79,0.24,1.46,0.56,2.02,0.96l-0.4,0.86
			c-0.61-0.42-1.27-0.73-1.98-0.93c-0.7-0.2-1.39-0.3-2.04-0.3c-0.94,0-1.71,0.13-2.32,0.4c-0.61,0.27-1.07,0.62-1.36,1.06
			c-0.29,0.44-0.44,0.93-0.44,1.48c0,0.63,0.16,1.13,0.49,1.51c0.33,0.38,0.76,0.68,1.31,0.9c0.54,0.22,1.15,0.41,1.8,0.57
			c0.65,0.15,1.3,0.32,1.95,0.49c0.64,0.17,1.24,0.4,1.78,0.68c0.54,0.28,0.98,0.66,1.32,1.13c0.34,0.47,0.5,1.09,0.5,1.84
			c0,0.68-0.19,1.32-0.56,1.92s-0.95,1.07-1.73,1.42C572.05,154.4,571.06,154.58,569.85,154.58z"/>
		<path d="M582.85,154.56c-1.1,0-2.08-0.24-2.92-0.71c-0.84-0.47-1.51-1.13-1.99-1.97c-0.48-0.84-0.72-1.79-0.72-2.87
			c0-1.09,0.23-2.05,0.68-2.88c0.45-0.83,1.08-1.48,1.87-1.96c0.8-0.47,1.69-0.71,2.68-0.71c0.99,0,1.88,0.23,2.67,0.69
			c0.79,0.46,1.41,1.11,1.86,1.94c0.45,0.83,0.68,1.79,0.68,2.88c0,0.04,0,0.09-0.01,0.14c-0.01,0.05-0.01,0.1-0.01,0.16h-9.65
			v-0.82h9.09l-0.42,0.4c0.01-0.85-0.16-1.62-0.53-2.29s-0.87-1.21-1.5-1.59c-0.63-0.38-1.35-0.58-2.18-0.58
			c-0.81,0-1.53,0.19-2.17,0.58c-0.64,0.38-1.13,0.91-1.5,1.59c-0.36,0.68-0.54,1.45-0.54,2.31v0.19c0,0.89,0.2,1.69,0.6,2.38
			c0.4,0.69,0.95,1.23,1.64,1.61c0.7,0.38,1.49,0.58,2.39,0.58c0.7,0,1.35-0.13,1.96-0.38c0.61-0.25,1.12-0.63,1.54-1.15l0.61,0.69
			c-0.47,0.59-1.07,1.03-1.79,1.33C584.46,154.41,583.68,154.56,582.85,154.56z"/>
		<path d="M595.24,154.56c-1.06,0-2.01-0.24-2.84-0.71c-0.83-0.47-1.49-1.13-1.97-1.97c-0.48-0.84-0.72-1.79-0.72-2.87
			c0-1.09,0.24-2.05,0.72-2.89c0.48-0.84,1.14-1.49,1.97-1.96c0.83-0.47,1.78-0.7,2.84-0.7c0.88,0,1.68,0.17,2.4,0.5
			c0.72,0.34,1.3,0.84,1.75,1.51l-0.78,0.57c-0.39-0.56-0.88-0.97-1.46-1.24c-0.59-0.27-1.22-0.4-1.91-0.4
			c-0.85,0-1.62,0.19-2.29,0.58c-0.68,0.38-1.21,0.92-1.59,1.61c-0.38,0.69-0.58,1.5-0.58,2.42c0,0.92,0.19,1.73,0.58,2.42
			c0.38,0.69,0.91,1.23,1.59,1.61c0.68,0.38,1.44,0.58,2.29,0.58c0.68,0,1.32-0.13,1.91-0.4c0.59-0.27,1.07-0.68,1.46-1.24
			l0.78,0.57c-0.45,0.67-1.03,1.17-1.75,1.51C596.92,154.39,596.12,154.56,595.24,154.56z"/>
		<path d="M600.85,144.45v-0.9h6.53v0.9H600.85z M605.83,154.56c-0.96,0-1.7-0.27-2.21-0.8c-0.51-0.53-0.76-1.26-0.76-2.18v-10.43
			h1.05v10.32c0,0.7,0.17,1.24,0.52,1.61c0.35,0.38,0.85,0.57,1.51,0.57c0.68,0,1.25-0.2,1.7-0.61l0.44,0.73
			c-0.28,0.27-0.62,0.46-1.02,0.59C606.66,154.5,606.25,154.56,605.83,154.56z"/>
		<path d="M614.86,154.56c-1.05,0-1.98-0.24-2.79-0.71c-0.82-0.47-1.47-1.13-1.95-1.97c-0.48-0.84-0.72-1.79-0.72-2.87
			c0-1.09,0.24-2.05,0.72-2.88c0.48-0.83,1.13-1.48,1.95-1.96c0.82-0.47,1.75-0.71,2.79-0.71s1.98,0.24,2.81,0.71
			c0.82,0.47,1.47,1.13,1.95,1.96c0.47,0.83,0.71,1.79,0.71,2.88c0,1.08-0.24,2.03-0.71,2.87c-0.47,0.84-1.12,1.49-1.95,1.97
			C616.84,154.32,615.9,154.56,614.86,154.56z M614.86,153.62c0.84,0,1.59-0.19,2.26-0.58c0.67-0.38,1.19-0.92,1.57-1.62
			c0.38-0.7,0.56-1.5,0.56-2.41c0-0.92-0.19-1.73-0.56-2.42c-0.38-0.69-0.9-1.23-1.57-1.61c-0.67-0.38-1.42-0.58-2.26-0.58
			c-0.84,0-1.59,0.19-2.25,0.58c-0.66,0.38-1.19,0.92-1.57,1.61c-0.38,0.69-0.58,1.5-0.58,2.42c0,0.91,0.19,1.71,0.58,2.41
			c0.38,0.7,0.91,1.24,1.57,1.62C613.27,153.43,614.02,153.62,614.86,153.62z"/>
		<path d="M623.57,154.48v-10.93h1.01v2.99l-0.11-0.34c0.31-0.88,0.82-1.56,1.55-2.03c0.73-0.47,1.63-0.71,2.72-0.71v1.03
			c-0.04,0-0.08,0-0.13-0.01c-0.04-0.01-0.08-0.01-0.13-0.01c-1.21,0-2.16,0.38-2.85,1.14c-0.68,0.76-1.03,1.82-1.03,3.17v5.69
			H623.57z"/>
		<path d="M637.2,158.54v-14.99h1v3.58l-0.17,1.91l0.21,1.91v7.6H637.2z M642.68,154.56c-0.96,0-1.83-0.22-2.61-0.67
			c-0.78-0.45-1.39-1.08-1.84-1.92c-0.45-0.83-0.68-1.82-0.68-2.96c0-1.14,0.23-2.13,0.68-2.96c0.45-0.83,1.07-1.47,1.84-1.92
			c0.77-0.45,1.64-0.67,2.61-0.67c1.03,0,1.96,0.23,2.77,0.7c0.82,0.47,1.46,1.12,1.93,1.96c0.47,0.84,0.7,1.8,0.7,2.89
			c0,1.09-0.23,2.05-0.7,2.89c-0.47,0.84-1.11,1.49-1.93,1.96C644.64,154.33,643.71,154.56,642.68,154.56z M642.62,153.62
			c0.84,0,1.59-0.19,2.26-0.58c0.67-0.38,1.2-0.92,1.58-1.62c0.38-0.7,0.58-1.5,0.58-2.41c0-0.92-0.19-1.73-0.58-2.42
			c-0.38-0.69-0.91-1.23-1.58-1.61c-0.67-0.38-1.42-0.58-2.26-0.58c-0.84,0-1.59,0.19-2.25,0.58c-0.66,0.38-1.19,0.92-1.57,1.61
			c-0.38,0.69-0.58,1.5-0.58,2.42c0,0.91,0.19,1.71,0.58,2.41c0.38,0.7,0.91,1.24,1.57,1.62
			C641.03,153.43,641.78,153.62,642.62,153.62z"/>
		<path d="M655.76,154.56c-1.1,0-2.08-0.24-2.92-0.71c-0.84-0.47-1.51-1.13-1.99-1.97c-0.48-0.84-0.72-1.79-0.72-2.87
			c0-1.09,0.23-2.05,0.68-2.88c0.45-0.83,1.08-1.48,1.87-1.96c0.8-0.47,1.69-0.71,2.68-0.71c0.99,0,1.88,0.23,2.67,0.69
			c0.79,0.46,1.41,1.11,1.86,1.94c0.45,0.83,0.68,1.79,0.68,2.88c0,0.04,0,0.09-0.01,0.14c-0.01,0.05-0.01,0.1-0.01,0.16h-9.65
			v-0.82h9.09l-0.42,0.4c0.01-0.85-0.16-1.62-0.53-2.29c-0.37-0.68-0.87-1.21-1.5-1.59c-0.63-0.38-1.35-0.58-2.18-0.58
			c-0.81,0-1.53,0.19-2.17,0.58c-0.64,0.38-1.13,0.91-1.5,1.59c-0.36,0.68-0.54,1.45-0.54,2.31v0.19c0,0.89,0.2,1.69,0.6,2.38
			c0.4,0.69,0.95,1.23,1.64,1.61c0.7,0.38,1.49,0.58,2.39,0.58c0.7,0,1.35-0.13,1.96-0.38c0.61-0.25,1.12-0.63,1.54-1.15l0.61,0.69
			c-0.47,0.59-1.07,1.03-1.79,1.33C657.38,154.41,656.6,154.56,655.76,154.56z"/>
		<path d="M668.16,154.56c-1.06,0-2.01-0.24-2.84-0.71c-0.83-0.47-1.49-1.13-1.97-1.97c-0.48-0.84-0.72-1.79-0.72-2.87
			c0-1.09,0.24-2.05,0.72-2.89c0.48-0.84,1.14-1.49,1.97-1.96c0.83-0.47,1.78-0.7,2.84-0.7c0.88,0,1.68,0.17,2.4,0.5
			c0.72,0.34,1.3,0.84,1.75,1.51l-0.78,0.57c-0.39-0.56-0.88-0.97-1.46-1.24s-1.22-0.4-1.91-0.4c-0.85,0-1.62,0.19-2.29,0.58
			c-0.68,0.38-1.21,0.92-1.59,1.61c-0.38,0.69-0.58,1.5-0.58,2.42c0,0.92,0.19,1.73,0.58,2.42c0.38,0.69,0.91,1.23,1.59,1.61
			c0.68,0.38,1.44,0.58,2.29,0.58c0.68,0,1.32-0.13,1.91-0.4s1.07-0.68,1.46-1.24l0.78,0.57c-0.45,0.67-1.03,1.17-1.75,1.51
			C669.84,154.39,669.04,154.56,668.16,154.56z"/>
		<path d="M679.88,154.56c-0.94,0-1.75-0.17-2.43-0.51c-0.68-0.34-1.21-0.86-1.58-1.55c-0.37-0.69-0.56-1.55-0.56-2.56v-6.39h1.05
			v6.3c0,1.23,0.31,2.16,0.94,2.81c0.63,0.64,1.51,0.96,2.66,0.96c0.82,0,1.54-0.17,2.14-0.52c0.6-0.35,1.06-0.84,1.38-1.48
			c0.32-0.63,0.48-1.39,0.48-2.25v-5.82h1.05v10.93h-1.01v-3.04l0.15,0.36c-0.32,0.85-0.85,1.53-1.6,2.02
			C681.8,154.31,680.91,154.56,679.88,154.56z"/>
		<path d="M692.4,154.56c-0.81,0-1.51-0.13-2.1-0.39c-0.59-0.26-1.05-0.63-1.36-1.1c-0.31-0.47-0.47-1.02-0.47-1.63
			c0-0.56,0.13-1.06,0.39-1.52c0.26-0.45,0.69-0.82,1.29-1.11c0.6-0.29,1.4-0.43,2.41-0.43h4.02v0.82h-4
			c-1.13,0-1.92,0.21-2.38,0.63c-0.45,0.42-0.68,0.94-0.68,1.57c0,0.7,0.26,1.26,0.79,1.67c0.53,0.42,1.28,0.63,2.24,0.63
			c0.92,0,1.7-0.21,2.33-0.63c0.64-0.42,1.11-1.03,1.41-1.82l0.29,0.71c-0.29,0.8-0.79,1.43-1.5,1.89
			C694.39,154.33,693.49,154.56,692.4,154.56z M696.34,154.48v-2.49l-0.04-0.38v-4.1c0-1.02-0.28-1.79-0.83-2.32
			c-0.55-0.53-1.36-0.8-2.42-0.8c-0.75,0-1.46,0.13-2.1,0.39c-0.65,0.26-1.2,0.59-1.66,0.99l-0.52-0.75
			c0.54-0.49,1.2-0.87,1.97-1.14c0.77-0.27,1.57-0.41,2.41-0.41c1.35,0,2.39,0.34,3.12,1.03c0.73,0.68,1.09,1.7,1.09,3.06v6.93
			H696.34z"/>
		<path d="M701.66,154.48v-10.93h1v2.99l-0.1-0.34c0.31-0.88,0.82-1.56,1.55-2.03c0.73-0.47,1.63-0.71,2.72-0.71v1.03
			c-0.04,0-0.08,0-0.12-0.01c-0.04-0.01-0.08-0.01-0.13-0.01c-1.21,0-2.16,0.38-2.85,1.14c-0.68,0.76-1.02,1.82-1.02,3.17v5.69
			H701.66z"/>
		<path d="M710.24,140.89c-0.24,0-0.44-0.08-0.61-0.25c-0.17-0.17-0.25-0.36-0.25-0.59c0-0.24,0.08-0.44,0.25-0.61
			c0.17-0.17,0.37-0.25,0.61-0.25c0.25,0,0.46,0.08,0.62,0.24c0.16,0.16,0.24,0.36,0.24,0.6s-0.08,0.44-0.24,0.61
			C710.7,140.8,710.49,140.89,710.24,140.89z M709.71,154.48v-10.93h1.05v10.93H709.71z"/>
		<path d="M719.45,154.56c-1.05,0-1.98-0.24-2.8-0.71c-0.82-0.47-1.46-1.13-1.95-1.97s-0.72-1.79-0.72-2.87
			c0-1.09,0.24-2.05,0.72-2.88c0.48-0.83,1.13-1.48,1.95-1.96c0.82-0.47,1.75-0.71,2.8-0.71s1.98,0.24,2.81,0.71
			c0.82,0.47,1.47,1.13,1.95,1.96c0.47,0.83,0.71,1.79,0.71,2.88c0,1.08-0.24,2.03-0.71,2.87c-0.47,0.84-1.12,1.49-1.95,1.97
			C721.43,154.32,720.5,154.56,719.45,154.56z M719.45,153.62c0.84,0,1.59-0.19,2.26-0.58c0.67-0.38,1.19-0.92,1.57-1.62
			c0.38-0.7,0.56-1.5,0.56-2.41c0-0.92-0.19-1.73-0.56-2.42c-0.38-0.69-0.9-1.23-1.57-1.61c-0.67-0.38-1.42-0.58-2.26-0.58
			c-0.84,0-1.59,0.19-2.25,0.58c-0.66,0.38-1.19,0.92-1.57,1.61c-0.38,0.69-0.58,1.5-0.58,2.42c0,0.91,0.19,1.71,0.58,2.41
			c0.38,0.7,0.91,1.24,1.57,1.62C717.86,153.43,718.61,153.62,719.45,153.62z"/>
		<path d="M732.62,149.33v-0.94H738v0.94H732.62z"/>
		<path d="M751.61,154.6c-1.13,0-2.14-0.3-3.02-0.89c-0.88-0.59-1.57-1.44-2.07-2.55c-0.5-1.11-0.75-2.45-0.75-4.01
			c0-1.56,0.25-2.9,0.75-4.01c0.5-1.11,1.19-1.96,2.07-2.55c0.88-0.59,1.88-0.89,3.02-0.89c1.13,0,2.14,0.3,3.01,0.89
			c0.88,0.59,1.57,1.44,2.08,2.55c0.51,1.11,0.76,2.45,0.76,4.01c0,1.56-0.25,2.9-0.76,4.01c-0.51,1.11-1.2,1.96-2.08,2.55
			C753.74,154.3,752.74,154.6,751.61,154.6z M751.61,153.22c0.87,0,1.62-0.23,2.26-0.7c0.64-0.47,1.14-1.15,1.51-2.05
			c0.36-0.9,0.54-2.01,0.54-3.32c0-1.31-0.18-2.42-0.54-3.32c-0.36-0.9-0.87-1.58-1.51-2.05c-0.64-0.47-1.4-0.7-2.26-0.7
			c-0.84,0-1.59,0.23-2.24,0.7c-0.66,0.47-1.17,1.15-1.53,2.05c-0.36,0.9-0.54,2.01-0.54,3.32c0,1.31,0.18,2.42,0.54,3.32
			c0.36,0.9,0.87,1.58,1.53,2.05C750.02,152.99,750.77,153.22,751.61,153.22z"/>
		<path d="M760.52,154.58c-0.31,0-0.57-0.11-0.79-0.34c-0.22-0.22-0.32-0.49-0.32-0.82c0-0.34,0.11-0.61,0.32-0.82
			c0.22-0.21,0.48-0.31,0.79-0.31s0.57,0.1,0.79,0.31c0.22,0.21,0.32,0.48,0.32,0.82c0,0.32-0.11,0.59-0.32,0.82
			C761.09,154.47,760.83,154.58,760.52,154.58z"/>
		<path d="M768.42,154.6c-1.06,0-2.06-0.17-3-0.51c-0.94-0.34-1.7-0.8-2.27-1.37l0.73-1.19c0.47,0.49,1.11,0.89,1.92,1.21
			c0.8,0.32,1.68,0.48,2.63,0.48c1.21,0,2.15-0.27,2.8-0.8c0.65-0.53,0.97-1.24,0.97-2.14c0-0.89-0.32-1.6-0.95-2.14
			c-0.64-0.53-1.64-0.8-3-0.8h-1.05v-1.11l4.52-5.67l0.21,0.59h-8.16v-1.34h9.42v1.07l-4.52,5.67l-0.73-0.48h0.57
			c1.76,0,3.07,0.39,3.95,1.17s1.31,1.79,1.31,3.01c0,0.82-0.2,1.56-0.59,2.22c-0.39,0.66-0.98,1.17-1.77,1.55
			C770.59,154.41,769.6,154.6,768.42,154.6z"/>
		<path d="M778.74,147.67c-0.66,0-1.24-0.16-1.74-0.49c-0.5-0.33-0.89-0.79-1.16-1.39c-0.27-0.6-0.41-1.3-0.41-2.09
			c0-0.8,0.14-1.49,0.41-2.09c0.27-0.6,0.66-1.06,1.16-1.39c0.5-0.33,1.08-0.49,1.74-0.49s1.23,0.16,1.73,0.49
			c0.5,0.33,0.88,0.79,1.16,1.39c0.28,0.6,0.42,1.3,0.42,2.09c0,0.8-0.14,1.49-0.42,2.09c-0.28,0.6-0.67,1.06-1.16,1.39
			C779.97,147.51,779.4,147.67,778.74,147.67z M778.74,146.73c0.68,0,1.23-0.27,1.64-0.81c0.41-0.54,0.62-1.28,0.62-2.23
			c0-0.95-0.21-1.69-0.62-2.23c-0.41-0.54-0.96-0.81-1.64-0.81c-0.7,0-1.25,0.27-1.65,0.81c-0.4,0.54-0.61,1.28-0.61,2.23
			c0,0.95,0.2,1.69,0.61,2.23C777.49,146.46,778.04,146.73,778.74,146.73z M777.61,154.48l10.01-14.66h1.24l-10.01,14.66H777.61z
			 M787.72,154.58c-0.64,0-1.21-0.16-1.72-0.49c-0.5-0.33-0.89-0.79-1.17-1.39c-0.28-0.6-0.42-1.3-0.42-2.09
			c0-0.8,0.14-1.49,0.42-2.09c0.28-0.6,0.67-1.06,1.17-1.39c0.5-0.33,1.07-0.49,1.72-0.49c0.67,0,1.25,0.16,1.75,0.49
			c0.5,0.33,0.88,0.79,1.15,1.39c0.27,0.6,0.41,1.3,0.41,2.09c0,0.8-0.14,1.49-0.41,2.09c-0.27,0.6-0.66,1.06-1.15,1.39
			C788.97,154.42,788.39,154.58,787.72,154.58z M787.72,153.64c0.68,0,1.23-0.27,1.64-0.81c0.41-0.54,0.62-1.28,0.62-2.23
			c0-0.95-0.21-1.69-0.62-2.23c-0.41-0.54-0.96-0.81-1.64-0.81c-0.68,0-1.23,0.27-1.64,0.81c-0.41,0.54-0.62,1.28-0.62,2.23
			c0,0.95,0.2,1.69,0.62,2.23C786.49,153.37,787.04,153.64,787.72,153.64z"/>
	</g>
	<g>
		<path d="M838.03,1001.76c-1.09,0-2.12-0.19-3.09-0.56c-0.97-0.37-1.72-0.85-2.25-1.43l0.48-0.79c0.5,0.52,1.19,0.95,2.06,1.31
			c0.87,0.36,1.8,0.53,2.77,0.53c0.98,0,1.78-0.13,2.4-0.39c0.62-0.26,1.08-0.6,1.38-1.04c0.3-0.43,0.45-0.91,0.45-1.44
			c0-0.63-0.17-1.13-0.5-1.51c-0.34-0.38-0.78-0.68-1.32-0.9s-1.14-0.41-1.78-0.56c-0.64-0.15-1.29-0.32-1.95-0.49
			c-0.66-0.17-1.26-0.4-1.8-0.68c-0.55-0.28-0.98-0.66-1.31-1.14c-0.33-0.48-0.49-1.11-0.49-1.87c0-0.7,0.18-1.34,0.54-1.93
			c0.36-0.59,0.93-1.06,1.7-1.42c0.77-0.36,1.75-0.54,2.95-0.54c0.81,0,1.61,0.12,2.4,0.36c0.79,0.24,1.46,0.56,2.02,0.96l-0.4,0.86
			c-0.61-0.42-1.27-0.73-1.98-0.93c-0.7-0.2-1.38-0.3-2.04-0.3c-0.93,0-1.71,0.13-2.32,0.4c-0.61,0.27-1.07,0.62-1.36,1.06
			c-0.29,0.44-0.44,0.93-0.44,1.48c0,0.63,0.16,1.13,0.49,1.51c0.33,0.38,0.76,0.68,1.31,0.9c0.54,0.22,1.14,0.41,1.8,0.57
			c0.66,0.15,1.3,0.32,1.95,0.49s1.24,0.4,1.78,0.68c0.54,0.28,0.98,0.66,1.32,1.13s0.5,1.09,0.5,1.84c0,0.68-0.19,1.32-0.56,1.91
			c-0.38,0.59-0.95,1.07-1.73,1.42C840.24,1001.58,839.24,1001.76,838.03,1001.76z"/>
		<path d="M851.03,1001.74c-1.1,0-2.08-0.24-2.92-0.71c-0.84-0.47-1.51-1.13-1.99-1.97c-0.48-0.84-0.72-1.79-0.72-2.87
			c0-1.09,0.23-2.05,0.68-2.88c0.45-0.83,1.08-1.48,1.87-1.96c0.79-0.47,1.69-0.71,2.68-0.71c0.99,0,1.88,0.23,2.67,0.69
			c0.79,0.46,1.41,1.11,1.86,1.94c0.45,0.83,0.68,1.79,0.68,2.88c0,0.04,0,0.09-0.01,0.14c-0.01,0.05-0.01,0.1-0.01,0.16h-9.65
			v-0.82h9.09l-0.42,0.4c0.01-0.85-0.16-1.62-0.53-2.29s-0.87-1.21-1.5-1.59c-0.63-0.38-1.35-0.58-2.18-0.58
			c-0.81,0-1.53,0.19-2.17,0.58c-0.64,0.38-1.13,0.91-1.5,1.59c-0.36,0.68-0.54,1.45-0.54,2.31v0.19c0,0.89,0.2,1.69,0.6,2.38
			c0.4,0.69,0.95,1.23,1.64,1.61c0.7,0.38,1.49,0.58,2.39,0.58c0.7,0,1.35-0.12,1.96-0.38c0.61-0.25,1.12-0.63,1.54-1.15l0.61,0.69
			c-0.47,0.59-1.07,1.03-1.79,1.33C852.65,1001.59,851.87,1001.74,851.03,1001.74z"/>
		<path d="M863.42,1001.74c-1.06,0-2.01-0.24-2.84-0.71c-0.83-0.47-1.49-1.13-1.97-1.97c-0.48-0.84-0.72-1.79-0.72-2.87
			c0-1.09,0.24-2.05,0.72-2.89c0.48-0.84,1.14-1.49,1.97-1.96c0.83-0.47,1.78-0.7,2.84-0.7c0.88,0,1.68,0.17,2.4,0.5
			c0.72,0.34,1.3,0.84,1.75,1.51l-0.77,0.57c-0.39-0.56-0.88-0.97-1.47-1.24c-0.59-0.27-1.22-0.4-1.91-0.4
			c-0.85,0-1.61,0.19-2.29,0.58c-0.68,0.38-1.21,0.92-1.59,1.61c-0.38,0.69-0.58,1.5-0.58,2.42c0,0.92,0.19,1.73,0.58,2.42
			c0.38,0.69,0.91,1.23,1.59,1.61c0.68,0.38,1.44,0.58,2.29,0.58c0.68,0,1.32-0.13,1.91-0.4c0.59-0.26,1.08-0.68,1.47-1.24
			l0.77,0.56c-0.45,0.67-1.03,1.17-1.75,1.51C865.1,1001.57,864.3,1001.74,863.42,1001.74z"/>
		<path d="M869.03,991.62v-0.9h6.53v0.9H869.03z M874.02,1001.74c-0.96,0-1.7-0.27-2.21-0.8c-0.51-0.53-0.76-1.26-0.76-2.18v-10.43
			h1.05v10.32c0,0.7,0.17,1.24,0.52,1.61c0.35,0.38,0.85,0.57,1.51,0.57c0.68,0,1.25-0.2,1.7-0.61l0.44,0.73
			c-0.28,0.27-0.62,0.46-1.01,0.59C874.84,1001.67,874.44,1001.74,874.02,1001.74z"/>
		<path d="M883.04,1001.74c-1.05,0-1.98-0.24-2.8-0.71c-0.82-0.47-1.46-1.13-1.95-1.97c-0.48-0.84-0.72-1.79-0.72-2.87
			c0-1.09,0.24-2.05,0.72-2.88c0.48-0.83,1.13-1.48,1.95-1.96s1.75-0.71,2.8-0.71s1.98,0.24,2.81,0.71
			c0.82,0.47,1.47,1.13,1.95,1.96s0.71,1.79,0.71,2.88c0,1.07-0.24,2.03-0.71,2.87c-0.47,0.84-1.12,1.49-1.95,1.97
			C885.02,1001.5,884.09,1001.74,883.04,1001.74z M883.04,1000.79c0.84,0,1.59-0.19,2.26-0.58c0.67-0.38,1.19-0.92,1.57-1.62
			c0.38-0.7,0.56-1.5,0.56-2.41c0-0.92-0.19-1.73-0.56-2.42c-0.38-0.69-0.9-1.23-1.57-1.61c-0.67-0.38-1.42-0.58-2.26-0.58
			c-0.84,0-1.59,0.19-2.25,0.58c-0.66,0.38-1.19,0.92-1.57,1.61s-0.58,1.5-0.58,2.42c0,0.91,0.19,1.71,0.58,2.41
			s0.91,1.24,1.57,1.62C881.45,1000.6,882.2,1000.79,883.04,1000.79z"/>
		<path d="M891.75,1001.65v-10.93h1v2.99l-0.1-0.34c0.31-0.88,0.82-1.56,1.55-2.03c0.73-0.47,1.63-0.71,2.72-0.71v1.03
			c-0.04,0-0.08,0-0.12-0.01c-0.04-0.01-0.08-0.01-0.13-0.01c-1.21,0-2.16,0.38-2.85,1.14c-0.68,0.76-1.02,1.82-1.02,3.17v5.69
			H891.75z"/>
		<path d="M908.33,1001.74c-0.81,0-1.51-0.13-2.1-0.39c-0.59-0.26-1.05-0.62-1.36-1.1c-0.31-0.47-0.47-1.02-0.47-1.63
			c0-0.56,0.13-1.06,0.39-1.52c0.26-0.45,0.69-0.82,1.29-1.11c0.6-0.29,1.4-0.43,2.41-0.43h4.02v0.82h-4
			c-1.13,0-1.92,0.21-2.38,0.63c-0.45,0.42-0.68,0.94-0.68,1.57c0,0.7,0.27,1.26,0.8,1.67c0.53,0.42,1.28,0.63,2.24,0.63
			c0.92,0,1.7-0.21,2.33-0.63c0.63-0.42,1.11-1.03,1.41-1.82l0.29,0.71c-0.29,0.79-0.79,1.43-1.5,1.89
			C910.32,1001.5,909.42,1001.74,908.33,1001.74z M912.27,1001.65v-2.49l-0.04-0.38v-4.1c0-1.02-0.28-1.79-0.83-2.32
			c-0.55-0.53-1.36-0.8-2.42-0.8c-0.75,0-1.46,0.13-2.1,0.39c-0.65,0.26-1.2,0.59-1.66,0.99l-0.52-0.75
			c0.54-0.49,1.2-0.87,1.97-1.14c0.77-0.27,1.57-0.41,2.41-0.41c1.35,0,2.39,0.34,3.12,1.03c0.73,0.68,1.09,1.7,1.09,3.06v6.93
			H912.27z"/>
		<path d="M921.83,1001.25c-1.03,0-1.96-0.23-2.77-0.68c-0.82-0.45-1.46-1.08-1.95-1.88c-0.48-0.8-0.72-1.72-0.72-2.75
			c0-1.05,0.24-1.97,0.72-2.76c0.48-0.79,1.13-1.42,1.95-1.86c0.82-0.45,1.74-0.67,2.77-0.67c0.99,0,1.88,0.21,2.67,0.64
			c0.79,0.43,1.41,1.03,1.87,1.82c0.46,0.79,0.69,1.73,0.69,2.84c0,1.09-0.23,2.03-0.69,2.83c-0.46,0.79-1.09,1.41-1.87,1.84
			C923.71,1001.04,922.82,1001.25,921.83,1001.25z M922.13,1005.8c-0.99,0-1.93-0.15-2.83-0.46c-0.89-0.31-1.62-0.73-2.18-1.28
			l0.57-0.79c0.54,0.5,1.2,0.89,1.96,1.17c0.76,0.28,1.58,0.42,2.46,0.42c1.46,0,2.54-0.34,3.23-1.03c0.69-0.68,1.04-1.76,1.04-3.22
			v-3.04l0.21-1.63l-0.17-1.63v-3.58h1.01v9.76c0,1.83-0.44,3.17-1.33,4.03C925.21,1005.37,923.89,1005.8,922.13,1005.8z
			 M921.92,1000.31c0.88,0,1.65-0.19,2.32-0.56c0.67-0.37,1.2-0.89,1.58-1.55c0.38-0.66,0.58-1.42,0.58-2.27
			c0-0.87-0.19-1.63-0.58-2.28c-0.38-0.65-0.91-1.16-1.58-1.53c-0.67-0.36-1.44-0.54-2.32-0.54c-0.85,0-1.62,0.18-2.29,0.54
			c-0.68,0.36-1.21,0.87-1.59,1.53c-0.38,0.66-0.58,1.42-0.58,2.28c0,0.85,0.19,1.61,0.58,2.27s0.91,1.18,1.59,1.55
			C920.3,1000.13,921.07,1000.31,921.92,1000.31z"/>
		<path d="M931.86,1001.65v-10.93h1.01v2.99l-0.11-0.34c0.31-0.88,0.82-1.56,1.55-2.03s1.63-0.71,2.72-0.71v1.03
			c-0.04,0-0.08,0-0.13-0.01c-0.04-0.01-0.08-0.01-0.13-0.01c-1.21,0-2.16,0.38-2.85,1.14c-0.68,0.76-1.03,1.82-1.03,3.17v5.69
			H931.86z"/>
		<path d="M939.25,988.94l2.91-2.47h1.51l-3.29,2.47H939.25z M939.92,1001.65v-10.93h1.05v10.93H939.92z"/>
		<path d="M949.72,1001.74c-1.06,0-2.01-0.24-2.84-0.71c-0.83-0.47-1.49-1.13-1.97-1.97c-0.48-0.84-0.72-1.79-0.72-2.87
			c0-1.09,0.24-2.05,0.72-2.89c0.48-0.84,1.14-1.49,1.97-1.96c0.83-0.47,1.78-0.7,2.84-0.7c0.88,0,1.68,0.17,2.4,0.5
			c0.72,0.34,1.3,0.84,1.75,1.51l-0.77,0.57c-0.39-0.56-0.88-0.97-1.47-1.24c-0.59-0.27-1.22-0.4-1.91-0.4
			c-0.85,0-1.61,0.19-2.29,0.58c-0.68,0.38-1.21,0.92-1.59,1.61c-0.38,0.69-0.58,1.5-0.58,2.42c0,0.92,0.19,1.73,0.58,2.42
			c0.38,0.69,0.91,1.23,1.59,1.61c0.68,0.38,1.44,0.58,2.29,0.58c0.68,0,1.32-0.13,1.91-0.4c0.59-0.26,1.08-0.68,1.47-1.24
			l0.77,0.56c-0.45,0.67-1.03,1.17-1.75,1.51C951.4,1001.57,950.6,1001.74,949.72,1001.74z"/>
		<path d="M961.09,1001.74c-1.05,0-1.98-0.24-2.79-0.71c-0.82-0.47-1.47-1.13-1.95-1.97c-0.48-0.84-0.72-1.79-0.72-2.87
			c0-1.09,0.24-2.05,0.72-2.88c0.48-0.83,1.13-1.48,1.95-1.96c0.82-0.47,1.75-0.71,2.79-0.71s1.98,0.24,2.81,0.71
			s1.47,1.13,1.95,1.96c0.47,0.83,0.71,1.79,0.71,2.88c0,1.07-0.24,2.03-0.71,2.87c-0.47,0.84-1.12,1.49-1.95,1.97
			C963.07,1001.5,962.13,1001.74,961.09,1001.74z M961.09,1000.79c0.84,0,1.59-0.19,2.26-0.58c0.67-0.38,1.19-0.92,1.57-1.62
			c0.38-0.7,0.56-1.5,0.56-2.41c0-0.92-0.19-1.73-0.56-2.42c-0.38-0.69-0.9-1.23-1.57-1.61c-0.67-0.38-1.42-0.58-2.26-0.58
			s-1.59,0.19-2.25,0.58c-0.66,0.38-1.19,0.92-1.57,1.61c-0.38,0.69-0.58,1.5-0.58,2.42c0,0.91,0.19,1.71,0.58,2.41
			c0.38,0.7,0.91,1.24,1.57,1.62C959.5,1000.6,960.25,1000.79,961.09,1000.79z"/>
		<path d="M969.8,1001.65v-15.53h1.05v15.53H969.8z"/>
		<path d="M978.21,1001.74c-0.81,0-1.51-0.13-2.1-0.39c-0.59-0.26-1.05-0.62-1.36-1.1c-0.31-0.47-0.47-1.02-0.47-1.63
			c0-0.56,0.13-1.06,0.39-1.52c0.26-0.45,0.69-0.82,1.29-1.11c0.6-0.29,1.4-0.43,2.41-0.43h4.02v0.82h-4
			c-1.13,0-1.92,0.21-2.38,0.63c-0.45,0.42-0.68,0.94-0.68,1.57c0,0.7,0.27,1.26,0.8,1.67c0.53,0.42,1.28,0.63,2.24,0.63
			c0.92,0,1.7-0.21,2.33-0.63c0.63-0.42,1.11-1.03,1.41-1.82l0.29,0.71c-0.29,0.79-0.79,1.43-1.5,1.89
			C980.2,1001.5,979.3,1001.74,978.21,1001.74z M982.15,1001.65v-2.49l-0.04-0.38v-4.1c0-1.02-0.28-1.79-0.83-2.32
			s-1.36-0.8-2.42-0.8c-0.75,0-1.46,0.13-2.1,0.39c-0.65,0.26-1.2,0.59-1.66,0.99l-0.52-0.75c0.54-0.49,1.2-0.87,1.97-1.14
			c0.77-0.27,1.57-0.41,2.41-0.41c1.35,0,2.39,0.34,3.12,1.03c0.73,0.68,1.09,1.7,1.09,3.06v6.93H982.15z"/>
		<path d="M991.93,996.5v-0.94h5.38v0.94H991.93z"/>
		<path d="M1010.64,1001.78c-1.17,0-2.18-0.17-3.03-0.5c-0.84-0.34-1.49-0.82-1.95-1.46c-0.45-0.63-0.68-1.38-0.68-2.25
			c0-0.84,0.22-1.55,0.66-2.15c0.44-0.59,1.08-1.05,1.93-1.37s1.87-0.48,3.07-0.48c1.19,0,2.2,0.16,3.06,0.48s1.5,0.78,1.96,1.37
			c0.45,0.59,0.68,1.31,0.68,2.15c0,0.87-0.23,1.62-0.69,2.25c-0.46,0.64-1.12,1.12-1.97,1.46
			C1012.83,1001.61,1011.81,1001.78,1010.64,1001.78z M1010.64,994.43c-1.09,0-2.01-0.15-2.77-0.44c-0.76-0.29-1.34-0.71-1.75-1.27
			c-0.41-0.55-0.61-1.21-0.61-1.98c0-0.81,0.21-1.5,0.64-2.08c0.43-0.58,1.02-1.02,1.79-1.33c0.77-0.31,1.67-0.46,2.7-0.46
			c1.03,0,1.94,0.15,2.71,0.46c0.77,0.31,1.38,0.75,1.81,1.33c0.43,0.58,0.65,1.27,0.65,2.08c0,0.77-0.2,1.43-0.61,1.98
			c-0.41,0.55-0.99,0.97-1.77,1.27C1012.66,994.28,1011.73,994.43,1010.64,994.43z M1010.64,1000.5c1.3,0,2.31-0.27,3.05-0.8
			c0.73-0.53,1.1-1.25,1.1-2.16c0-0.91-0.37-1.62-1.1-2.15c-0.73-0.52-1.75-0.79-3.05-0.79c-1.3,0-2.31,0.26-3.04,0.79
			s-1.09,1.24-1.09,2.15c0,0.91,0.36,1.63,1.09,2.16C1008.33,1000.24,1009.34,1000.5,1010.64,1000.5z M1010.64,993.42
			c1.14,0,2.04-0.24,2.68-0.71c0.64-0.47,0.96-1.11,0.96-1.91c0-0.84-0.33-1.49-1-1.96c-0.66-0.47-1.55-0.7-2.65-0.7
			c-1.1,0-1.98,0.23-2.64,0.7c-0.66,0.47-0.98,1.11-0.98,1.94c0,0.81,0.32,1.45,0.95,1.93
			C1008.61,993.19,1009.5,993.42,1010.64,993.42z"/>
		<path d="M1024,1001.78c-1.17,0-2.18-0.17-3.03-0.5c-0.84-0.34-1.49-0.82-1.95-1.46c-0.45-0.63-0.68-1.38-0.68-2.25
			c0-0.84,0.22-1.55,0.66-2.15c0.44-0.59,1.08-1.05,1.93-1.37s1.87-0.48,3.07-0.48c1.19,0,2.21,0.16,3.06,0.48
			c0.85,0.32,1.5,0.78,1.96,1.37c0.45,0.59,0.68,1.31,0.68,2.15c0,0.87-0.23,1.62-0.69,2.25c-0.46,0.64-1.12,1.12-1.97,1.46
			C1026.18,1001.61,1025.17,1001.78,1024,1001.78z M1024,994.43c-1.09,0-2.01-0.15-2.77-0.44c-0.76-0.29-1.34-0.71-1.75-1.27
			c-0.4-0.55-0.61-1.21-0.61-1.98c0-0.81,0.21-1.5,0.64-2.08c0.43-0.58,1.02-1.02,1.79-1.33c0.77-0.31,1.67-0.46,2.7-0.46
			c1.03,0,1.94,0.15,2.71,0.46c0.78,0.31,1.38,0.75,1.81,1.33c0.43,0.58,0.65,1.27,0.65,2.08c0,0.77-0.2,1.43-0.61,1.98
			c-0.4,0.55-0.99,0.97-1.77,1.27C1026.02,994.28,1025.09,994.43,1024,994.43z M1024,1000.5c1.3,0,2.31-0.27,3.05-0.8
			c0.73-0.53,1.1-1.25,1.1-2.16c0-0.91-0.37-1.62-1.1-2.15c-0.73-0.52-1.75-0.79-3.05-0.79c-1.3,0-2.31,0.26-3.04,0.79
			c-0.73,0.52-1.09,1.24-1.09,2.15c0,0.91,0.36,1.63,1.09,2.16C1021.69,1000.24,1022.7,1000.5,1024,1000.5z M1024,993.42
			c1.14,0,2.04-0.24,2.68-0.71c0.64-0.47,0.96-1.11,0.96-1.91c0-0.84-0.33-1.49-0.99-1.96c-0.66-0.47-1.55-0.7-2.65-0.7
			c-1.1,0-1.98,0.23-2.64,0.7c-0.66,0.47-0.98,1.11-0.98,1.94c0,0.81,0.32,1.45,0.95,1.93
			C1021.96,993.19,1022.85,993.42,1024,993.42z"/>
		<path d="M1034.67,994.85c-0.66,0-1.23-0.16-1.74-0.49c-0.5-0.33-0.89-0.79-1.16-1.39c-0.27-0.6-0.41-1.3-0.41-2.09
			c0-0.79,0.14-1.49,0.41-2.09c0.27-0.6,0.66-1.06,1.16-1.39c0.5-0.33,1.08-0.49,1.74-0.49c0.66,0,1.23,0.16,1.73,0.49
			c0.49,0.33,0.88,0.79,1.16,1.39c0.28,0.6,0.42,1.3,0.42,2.09c0,0.8-0.14,1.49-0.42,2.09c-0.28,0.6-0.67,1.06-1.16,1.39
			C1035.91,994.68,1035.33,994.85,1034.67,994.85z M1034.67,993.91c0.68,0,1.23-0.27,1.64-0.81c0.41-0.54,0.62-1.28,0.62-2.23
			c0-0.95-0.2-1.69-0.62-2.23c-0.41-0.54-0.96-0.81-1.64-0.81c-0.7,0-1.25,0.27-1.65,0.81c-0.41,0.54-0.61,1.28-0.61,2.23
			c0,0.95,0.2,1.69,0.61,2.23C1033.43,993.64,1033.98,993.91,1034.67,993.91z M1033.54,1001.65l10.01-14.65h1.24l-10.01,14.65
			H1033.54z M1043.66,1001.76c-0.64,0-1.21-0.16-1.72-0.49c-0.5-0.33-0.89-0.79-1.17-1.39c-0.28-0.6-0.42-1.3-0.42-2.09
			s0.14-1.49,0.42-2.09c0.28-0.6,0.67-1.06,1.17-1.39c0.5-0.33,1.07-0.49,1.72-0.49c0.67,0,1.25,0.16,1.75,0.49
			c0.49,0.33,0.88,0.79,1.15,1.39c0.27,0.6,0.41,1.3,0.41,2.09s-0.14,1.49-0.41,2.09c-0.27,0.6-0.66,1.06-1.15,1.39
			C1044.91,1001.59,1044.33,1001.76,1043.66,1001.76z M1043.66,1000.81c0.68,0,1.23-0.27,1.64-0.81c0.41-0.54,0.62-1.28,0.62-2.23
			c0-0.95-0.21-1.69-0.62-2.23c-0.41-0.54-0.96-0.81-1.64-0.81s-1.23,0.27-1.64,0.81c-0.41,0.54-0.62,1.28-0.62,2.23
			c0,0.95,0.21,1.69,0.62,2.23C1042.42,1000.55,1042.97,1000.81,1043.66,1000.81z"/>
	</g>
</g>
</svg>
