<?xml version="1.0" encoding="utf-8"?>
<!-- Generator: Adobe Illustrator 27.5.0, SVG Export Plug-In . SVG Version: 6.00 Build 0)  -->
<svg version="1.1" id="Capa_1" xmlns="http://www.w3.org/2000/svg" xmlns:xlink="http://www.w3.org/1999/xlink" x="0px" y="0px"
	 viewBox="0 0 800 800" style="enable-background:new 0 0 800 800;" xml:space="preserve">
<style type="text/css">
	.st0{fill:#FFFFFF;}
	.st1{enable-background:new    ;}
</style>
<g>
	<path d="M186.1,222.1c1.4,2.4,3.1,4.6,4.3,7.1c31,62.7,61.9,125.5,93,188.1c2.3,4.6,1.9,6.6-2.5,9.2C251,459,238,487,177,482
		c-41,0-72-27-92-56.2c-1-0.7-1.9-1.4-2.8-2.1c-0.4-0.3-0.7-0.7-1.4-1.5c33.7-68.1,67.4-136.5,101.1-204.9c-4.3-4.6-8.9-9.1-13.1-14
		c-6.4-7.6-10.7-15.9-7.1-26.5c4-12,13.6-19,25.9-16.4c6.9,1.5,13.8,4.7,19.9,8.6c7.2,4.6,7.3,11.4,1.5,17.6
		c-6.9,7.4-6.7,13.6,0.3,20.9c9.7,10.1,22,13.6,35.3,13.4c20.3-0.3,40.6-1.6,60.8-2.4c22.8-0.9,45.6-1.8,67.8,5.4
		c0.6,0.2,1.3,0.1,0.5,0.1c6-9.4,11.5-18.2,17-27c1.1-1.7,2.4-3.4,2.9-5.2c0.9-3.3,1-6.9-2.9-8.5c-7.5-3.3-6.5-5.9-5.3-13.5
		c1-6.6,5.4-10.3,11.4-10.6c10-0.6,17.8,8.9,14.9,18.6c-0.5,1.8-2.5,3.5-4.2,4.5c-5.2,3.1-6.4,6.5-3.5,11.8c0.7,1.3,1.5,2.6,2.4,3.8
		c9.5,11.7,15.7,24.9,17.6,40c0.2,1.2,1.5,3,2.6,3.3c31.3,9,55.9,28.8,79.6,49.8c14.5,12.8,29.6,24.8,47,33.5
		c9.2,4.7,18.9,4.6,28.7,2c5.8-1.6,9.5-7.1,8.2-13.6c-2.7-13,7.7-17.7,17.6-15.3c6.1,1.5,12.4,3.1,17.6,6.3
		c14,8.5,13.7,30.7-0.6,38.9c-6.5,3.7-14.1,5.6-21.3,8.4c33,67,66.4,134.5,99.7,202.1c-0.4,0.2-0.8,0.4-1.2,0.6
		c-33.3-67.5-66.7-135.1-100.6-203.8c0,68.6,0,135.9,0,203.8c32.9,0,65.9,0,99.6,0c-56,78.2-127,88.2-203.2,0.6
		c13.1-26.4,26.2-52.8,39.2-79.2c19.4-39.2,38.7-78.5,58-117.7c0.8-1.7,2.1-3.2,3.2-4.9c-0.6,1.7-0.9,3.5-1.7,5.1
		c-25.6,51.9-51.2,103.7-76.8,155.5c-6.6,13.3-13.1,26.6-19.9,40.4c33.5,0,66.4,0,99.4,0c0.1-1.2,0.3-2.2,0.3-3.2
		c0-64.6,0-129.3,0-193.9c0-1.3-0.9-2.5-1.3-3.8c-1.4-0.6-2.7-1.6-4.2-1.8c-11.1-0.9-22.2-1-33.3-2.4c-13.6-1.7-24.9-9.3-35.6-17.2
		c-21.9-16.3-43.4-33.1-65.2-49.5c-9.9-7.5-21.2-11.3-33.7-12c-1.1,8-2.2,15.6-3.2,23.1c-1,7-3.5,13.1-9.1,17.7
		c-3.1,2.5-4.1,5.7-4.1,9.7c0.1,57.3,0,114.7,0.2,172c0,4.6,1.5,9.7,3.8,13.6c7.8,12.8,10.2,26.9,11.2,41.4c0.7,9.5,0.6,19,1.6,28.4
		c1.5,14.6,10.1,24.4,23.5,28.8c9.4,3,19.4,4,29.3,5.2c5.9,0.7,11.9,0.1,18.4,0.1c0,3,0,5.7,0,9.1c28.4,0,56.2,0,84.4,0
		c0,6.2,0,11.8,0,17.7c-122.7,0-245.3,0-368,0c0-5.8,0-11.3,0-17.5c28,0,55.7,0,83.9,0c0-3.3,0-6,0-9.4c7.3,0,14,0.2,20.8,0
		c11.5-0.4,22.9-2,33.2-7.8c12.1-6.8,17.4-17.3,18.1-31.1c0.9-15.7,2.6-31.5,4.9-47c0.8-5.7,4.1-11.1,6.9-16.4
		c3.2-6,4.9-12.1,4.8-19c-0.2-55.7,0-111.3-0.2-167c0-2.9-0.6-7-2.6-8.6c-8.6-7.2-10.9-16.9-12-27.1c-1-9.1-1.3-18.3-1.3-27.4
		c0-3.7-1.2-5.7-4.1-7.6c-14.1-9.4-29.6-11.3-46.2-10.8c-28.4,0.9-56.9,1.1-85.4,0.8c-17.1-0.2-31.5-8.6-45.2-17.9
		c-1-0.6-2.5-0.5-3.7-0.7c-0.7-1.1-1.5-2.2-2.2-3.3c-0.2,0.3-0.5,0.5-0.7,0.8c0,67.5,0,135.1,0,202.9c33.7,0,67,0,100.8,0
		c-0.7-1.5-1.2-2.7-1.8-3.8c-27.9-56.6-55.9-113.2-83.8-169.8C194.3,240.1,190.3,231.1,186.1,222.1z M181.8,222.8
		c-0.3-0.1-0.6-0.2-0.9-0.3c-32.8,66.5-65.6,133-98.7,199.9c33.8,0,66.7,0,99.6,0C181.8,355.6,181.8,289.2,181.8,222.8z"/>
</g>
<circle cx="183.7" cy="282.9" r="18.9"/>
<path d="M186.6,384.7h-5c-6.6,0-12-5.4-12-12v-58.9c0-6.6,5.4-12,12-12h5c6.6,0,12,5.4,12,12v58.9
	C198.6,379.3,193.2,384.7,186.6,384.7z"/>
<rect x="159.7" y="302" width="19.3" height="64.2"/>
<rect x="188.7" y="301.7" width="19.3" height="64.2"/>
<rect x="167.8" y="366" width="19.3" height="64.2"/>
<rect x="179" y="366" width="19.3" height="64.2"/>
<path d="M562,508.4c0,0-4.6,48.1,41.2,50.4s42.8-42.8,40.9-50.4s-8.8-23.7-20.3-48.1s-29.8-19.1-37.4-14.5
	C578.8,450.4,572.7,484,562,508.4z"/>
<path class="st0" d="M568.9,509.6c0,0-3.8,38.4,34.5,40.2c38.3,1.8,35.8-34.1,34.2-40.2c-1.6-6.1-7.4-18.9-16.9-38.4
	s-24.9-15.2-31.3-11.6S577.9,490.1,568.9,509.6z"/>
<circle cx="603.2" cy="512.2" r="22.2"/>
<g class="st1">
	<path d="M297.4,105.7c-0.8,0-1.6-0.1-2.3-0.4c-0.7-0.3-1.3-0.7-1.8-1.2s-0.9-1.1-1.2-1.8c-0.3-0.7-0.4-1.4-0.4-2.3s0.1-1.6,0.4-2.3
		c0.3-0.7,0.7-1.3,1.2-1.8c0.5-0.5,1.1-0.9,1.8-1.2c0.7-0.3,1.5-0.4,2.3-0.4c0.8,0,1.5,0.1,2.2,0.4c0.7,0.3,1.3,0.6,1.8,1.2
		l-0.5,0.5c-0.5-0.5-1-0.8-1.6-1s-1.2-0.3-1.8-0.3c-0.7,0-1.4,0.1-2,0.4c-0.6,0.2-1.1,0.6-1.6,1c-0.5,0.4-0.8,1-1.1,1.6
		s-0.4,1.2-0.4,2c0,0.7,0.1,1.4,0.4,2c0.3,0.6,0.6,1.1,1.1,1.6c0.5,0.4,1,0.8,1.6,1c0.6,0.2,1.3,0.4,2,0.4c0.7,0,1.3-0.1,1.8-0.3
		s1.1-0.6,1.6-1l0.5,0.5c-0.5,0.5-1.1,0.9-1.8,1.2C298.9,105.6,298.2,105.7,297.4,105.7z"/>
	<path d="M306.7,105.7c-0.8,0-1.5-0.2-2.1-0.5c-0.6-0.4-1.1-0.9-1.5-1.5c-0.4-0.6-0.6-1.4-0.6-2.2c0-0.8,0.2-1.6,0.6-2.2
		s0.9-1.1,1.5-1.5c0.6-0.4,1.3-0.5,2.1-0.5s1.5,0.2,2.1,0.5c0.6,0.4,1.1,0.9,1.5,1.5c0.4,0.6,0.5,1.4,0.5,2.2c0,0.8-0.2,1.6-0.5,2.2
		c-0.4,0.6-0.9,1.1-1.5,1.5C308.2,105.5,307.5,105.7,306.7,105.7z M306.7,105c0.6,0,1.2-0.1,1.7-0.4c0.5-0.3,0.9-0.7,1.2-1.2
		c0.3-0.5,0.4-1.1,0.4-1.8c0-0.7-0.1-1.3-0.4-1.8c-0.3-0.5-0.7-0.9-1.2-1.2s-1.1-0.4-1.7-0.4s-1.2,0.1-1.7,0.4
		c-0.5,0.3-0.9,0.7-1.2,1.2c-0.3,0.5-0.4,1.1-0.4,1.8c0,0.7,0.1,1.3,0.4,1.8c0.3,0.5,0.7,0.9,1.2,1.2
		C305.5,104.9,306.1,105,306.7,105z"/>
	<path d="M317.4,97.2c0.7,0,1.3,0.1,1.8,0.4c0.5,0.3,0.9,0.7,1.2,1.2c0.3,0.5,0.4,1.2,0.4,2v4.9H320v-4.8c0-0.9-0.2-1.7-0.7-2.1
		s-1.1-0.7-2-0.7c-0.7,0-1.2,0.1-1.7,0.4c-0.5,0.3-0.8,0.6-1.1,1.1c-0.3,0.5-0.4,1.1-0.4,1.7v4.4h-0.8v-8.4h0.8v2.3l-0.1-0.3
		c0.3-0.7,0.7-1.2,1.3-1.6C315.9,97.4,316.6,97.2,317.4,97.2z"/>
	<path d="M326.2,105.7c-0.7,0-1.3-0.1-1.9-0.3c-0.6-0.2-1.1-0.5-1.4-0.8l0.4-0.6c0.3,0.3,0.7,0.5,1.3,0.7s1.1,0.3,1.7,0.3
		c0.9,0,1.5-0.1,1.9-0.4s0.6-0.7,0.6-1.1c0-0.3-0.1-0.6-0.3-0.8s-0.5-0.3-0.8-0.5s-0.7-0.2-1.1-0.3c-0.4-0.1-0.8-0.1-1.2-0.2
		c-0.4-0.1-0.8-0.2-1.1-0.4s-0.6-0.4-0.8-0.7c-0.2-0.3-0.3-0.7-0.3-1.1c0-0.4,0.1-0.8,0.4-1.2c0.2-0.3,0.6-0.6,1.1-0.8
		c0.5-0.2,1.1-0.3,1.8-0.3c0.5,0,1,0.1,1.6,0.2c0.5,0.1,1,0.3,1.3,0.6l-0.4,0.6c-0.4-0.3-0.7-0.5-1.2-0.6c-0.4-0.1-0.9-0.2-1.3-0.2
		c-0.8,0-1.4,0.1-1.8,0.4c-0.4,0.3-0.6,0.7-0.6,1.1c0,0.4,0.1,0.6,0.3,0.8s0.5,0.4,0.8,0.5c0.3,0.1,0.7,0.2,1.1,0.3
		c0.4,0.1,0.8,0.1,1.2,0.2c0.4,0.1,0.8,0.2,1.1,0.4c0.3,0.2,0.6,0.4,0.8,0.6c0.2,0.3,0.3,0.6,0.3,1.1c0,0.5-0.1,0.9-0.4,1.2
		c-0.3,0.3-0.6,0.6-1.1,0.8C327.6,105.6,327,105.7,326.2,105.7z"/>
	<path d="M335.2,105.7c-0.7,0-1.3-0.1-1.9-0.4c-0.5-0.3-0.9-0.7-1.2-1.2c-0.3-0.5-0.4-1.2-0.4-2v-4.9h0.8v4.8c0,0.9,0.2,1.7,0.7,2.1
		c0.5,0.5,1.2,0.7,2,0.7c0.6,0,1.2-0.1,1.6-0.4c0.5-0.3,0.8-0.6,1.1-1.1c0.2-0.5,0.4-1.1,0.4-1.7v-4.4h0.8v8.4h-0.8v-2.3l0.1,0.3
		c-0.2,0.7-0.7,1.2-1.2,1.5S336,105.7,335.2,105.7z"/>
	<path d="M352.9,97.2c0.7,0,1.3,0.1,1.8,0.4c0.5,0.3,0.9,0.7,1.2,1.2s0.4,1.2,0.4,2v4.9h-0.8v-4.8c0-0.9-0.2-1.7-0.7-2.1
		c-0.5-0.5-1.1-0.7-1.9-0.7c-0.6,0-1.2,0.1-1.6,0.4s-0.8,0.6-1.1,1.1c-0.2,0.5-0.4,1.1-0.4,1.7v4.4H349v-4.8c0-0.9-0.2-1.7-0.7-2.1
		c-0.5-0.5-1.1-0.7-1.9-0.7c-0.6,0-1.2,0.1-1.6,0.4s-0.8,0.6-1.1,1.1c-0.2,0.5-0.4,1.1-0.4,1.7v4.4h-0.8v-8.4h0.8v2.3l-0.1-0.3
		c0.2-0.7,0.7-1.2,1.2-1.5c0.6-0.4,1.3-0.6,2.1-0.6c0.8,0,1.5,0.2,2.1,0.6c0.6,0.4,0.9,1,1.1,1.9l-0.3-0.1c0.2-0.7,0.6-1.3,1.3-1.7
		S352,97.2,352.9,97.2z"/>
	<path d="M362.8,105.7c-0.8,0-1.5-0.2-2.1-0.5c-0.6-0.4-1.1-0.9-1.5-1.5c-0.4-0.6-0.6-1.4-0.6-2.2c0-0.8,0.2-1.6,0.6-2.2
		s0.9-1.1,1.5-1.5c0.6-0.4,1.3-0.5,2.1-0.5s1.5,0.2,2.1,0.5c0.6,0.4,1.1,0.9,1.5,1.5c0.4,0.6,0.5,1.4,0.5,2.2c0,0.8-0.2,1.6-0.5,2.2
		c-0.4,0.6-0.9,1.1-1.5,1.5C364.3,105.5,363.6,105.7,362.8,105.7z M362.8,105c0.6,0,1.2-0.1,1.7-0.4c0.5-0.3,0.9-0.7,1.2-1.2
		c0.3-0.5,0.4-1.1,0.4-1.8c0-0.7-0.1-1.3-0.4-1.8c-0.3-0.5-0.7-0.9-1.2-1.2s-1.1-0.4-1.7-0.4s-1.2,0.1-1.7,0.4
		c-0.5,0.3-0.9,0.7-1.2,1.2c-0.3,0.5-0.4,1.1-0.4,1.8c0,0.7,0.1,1.3,0.4,1.8c0.3,0.5,0.7,0.9,1.2,1.2
		C361.6,104.9,362.1,105,362.8,105z"/>
	<path d="M375.7,105.7c-0.7,0-1.3-0.1-1.9-0.3c-0.6-0.2-1.1-0.5-1.4-0.8l0.4-0.6c0.3,0.3,0.7,0.5,1.3,0.7s1.1,0.3,1.7,0.3
		c0.9,0,1.5-0.1,1.9-0.4s0.6-0.7,0.6-1.1c0-0.3-0.1-0.6-0.3-0.8s-0.5-0.3-0.8-0.5s-0.7-0.2-1.1-0.3c-0.4-0.1-0.8-0.1-1.2-0.2
		c-0.4-0.1-0.8-0.2-1.1-0.4s-0.6-0.4-0.8-0.7c-0.2-0.3-0.3-0.7-0.3-1.1c0-0.4,0.1-0.8,0.4-1.2c0.2-0.3,0.6-0.6,1.1-0.8
		c0.5-0.2,1.1-0.3,1.8-0.3c0.5,0,1,0.1,1.6,0.2c0.5,0.1,1,0.3,1.3,0.6l-0.4,0.6c-0.4-0.3-0.7-0.5-1.2-0.6c-0.4-0.1-0.9-0.2-1.3-0.2
		c-0.8,0-1.4,0.1-1.8,0.4c-0.4,0.3-0.6,0.7-0.6,1.1c0,0.4,0.1,0.6,0.3,0.8s0.5,0.4,0.8,0.5c0.3,0.1,0.7,0.2,1.1,0.3
		c0.4,0.1,0.8,0.1,1.2,0.2c0.4,0.1,0.8,0.2,1.1,0.4c0.3,0.2,0.6,0.4,0.8,0.6c0.2,0.3,0.3,0.6,0.3,1.1c0,0.5-0.1,0.9-0.4,1.2
		c-0.3,0.3-0.6,0.6-1.1,0.8C377,105.6,376.4,105.7,375.7,105.7z"/>
	<path d="M384.6,105.7c-0.8,0-1.6-0.2-2.2-0.5c-0.6-0.4-1.2-0.9-1.5-1.5c-0.4-0.6-0.6-1.4-0.6-2.2c0-0.8,0.2-1.6,0.5-2.2
		c0.3-0.6,0.8-1.1,1.4-1.5c0.6-0.4,1.3-0.5,2-0.5c0.8,0,1.4,0.2,2,0.5c0.6,0.4,1.1,0.8,1.4,1.5s0.5,1.4,0.5,2.2c0,0,0,0.1,0,0.1
		c0,0,0,0.1,0,0.1h-7.4v-0.6h6.9l-0.3,0.3c0-0.7-0.1-1.2-0.4-1.8s-0.7-0.9-1.1-1.2c-0.5-0.3-1-0.4-1.7-0.4c-0.6,0-1.2,0.1-1.7,0.4
		c-0.5,0.3-0.9,0.7-1.1,1.2s-0.4,1.1-0.4,1.8v0.1c0,0.7,0.2,1.3,0.5,1.8c0.3,0.5,0.7,0.9,1.3,1.2c0.5,0.3,1.1,0.4,1.8,0.4
		c0.5,0,1-0.1,1.5-0.3c0.5-0.2,0.9-0.5,1.2-0.9l0.5,0.5c-0.4,0.4-0.8,0.8-1.4,1C385.8,105.6,385.2,105.7,384.6,105.7z"/>
	<path d="M401.1,97.2c0.7,0,1.3,0.1,1.8,0.4c0.5,0.3,0.9,0.7,1.2,1.2s0.4,1.2,0.4,2v4.9h-0.8v-4.8c0-0.9-0.2-1.7-0.7-2.1
		c-0.5-0.5-1.1-0.7-1.9-0.7c-0.6,0-1.2,0.1-1.6,0.4s-0.8,0.6-1.1,1.1c-0.2,0.5-0.4,1.1-0.4,1.7v4.4h-0.8v-4.8c0-0.9-0.2-1.7-0.7-2.1
		c-0.5-0.5-1.1-0.7-1.9-0.7c-0.6,0-1.2,0.1-1.6,0.4s-0.8,0.6-1.1,1.1c-0.2,0.5-0.4,1.1-0.4,1.7v4.4h-0.8v-8.4h0.8v2.3l-0.1-0.3
		c0.2-0.7,0.7-1.2,1.2-1.5c0.6-0.4,1.3-0.6,2.1-0.6c0.8,0,1.5,0.2,2.1,0.6c0.6,0.4,0.9,1,1.1,1.9l-0.3-0.1c0.2-0.7,0.6-1.3,1.3-1.7
		S400.3,97.2,401.1,97.2z"/>
	<path d="M410,105.7c-0.6,0-1.2-0.1-1.6-0.3c-0.5-0.2-0.8-0.5-1-0.8c-0.2-0.4-0.4-0.8-0.4-1.2c0-0.4,0.1-0.8,0.3-1.2
		c0.2-0.3,0.5-0.6,1-0.8c0.5-0.2,1.1-0.3,1.8-0.3h3.1v0.6h-3.1c-0.9,0-1.5,0.2-1.8,0.5c-0.3,0.3-0.5,0.7-0.5,1.2
		c0,0.5,0.2,1,0.6,1.3c0.4,0.3,1,0.5,1.7,0.5c0.7,0,1.3-0.2,1.8-0.5c0.5-0.3,0.8-0.8,1.1-1.4l0.2,0.5c-0.2,0.6-0.6,1.1-1.1,1.4
		C411.5,105.5,410.9,105.7,410,105.7z M413,105.7v-1.9l0-0.3v-3.1c0-0.8-0.2-1.4-0.6-1.8c-0.4-0.4-1-0.6-1.8-0.6
		c-0.6,0-1.1,0.1-1.6,0.3c-0.5,0.2-0.9,0.5-1.3,0.8l-0.4-0.6c0.4-0.4,0.9-0.7,1.5-0.9c0.6-0.2,1.2-0.3,1.8-0.3c1,0,1.8,0.3,2.4,0.8
		s0.8,1.3,0.8,2.3v5.3H413z"/>
	<path d="M421.2,97.2c0.7,0,1.3,0.1,1.8,0.4c0.5,0.3,0.9,0.7,1.2,1.2s0.4,1.2,0.4,2v4.9h-0.8v-4.8c0-0.9-0.2-1.7-0.7-2.1
		s-1.1-0.7-2-0.7c-0.7,0-1.2,0.1-1.7,0.4c-0.5,0.3-0.8,0.6-1.1,1.1c-0.3,0.5-0.4,1.1-0.4,1.7v4.4h-0.8v-8.4h0.8v2.3l-0.1-0.3
		c0.3-0.7,0.7-1.2,1.3-1.6C419.6,97.4,420.3,97.2,421.2,97.2z"/>
	<path d="M430.1,105.7c-0.6,0-1.2-0.1-1.6-0.3c-0.5-0.2-0.8-0.5-1-0.8c-0.2-0.4-0.4-0.8-0.4-1.2c0-0.4,0.1-0.8,0.3-1.2
		c0.2-0.3,0.5-0.6,1-0.8c0.5-0.2,1.1-0.3,1.8-0.3h3.1v0.6h-3.1c-0.9,0-1.5,0.2-1.8,0.5c-0.3,0.3-0.5,0.7-0.5,1.2
		c0,0.5,0.2,1,0.6,1.3c0.4,0.3,1,0.5,1.7,0.5c0.7,0,1.3-0.2,1.8-0.5c0.5-0.3,0.8-0.8,1.1-1.4l0.2,0.5c-0.2,0.6-0.6,1.1-1.1,1.4
		C431.6,105.5,431,105.7,430.1,105.7z M433.1,105.7v-1.9l0-0.3v-3.1c0-0.8-0.2-1.4-0.6-1.8c-0.4-0.4-1-0.6-1.8-0.6
		c-0.6,0-1.1,0.1-1.6,0.3c-0.5,0.2-0.9,0.5-1.3,0.8l-0.4-0.6c0.4-0.4,0.9-0.7,1.5-0.9c0.6-0.2,1.2-0.3,1.8-0.3c1,0,1.8,0.3,2.4,0.8
		s0.8,1.3,0.8,2.3v5.3H433.1z"/>
	<path d="M437.2,105.7V93.8h0.8v11.9H437.2z"/>
	<path d="M448.7,105.7c-0.8,0-1.5-0.2-2.1-0.5s-1.1-0.9-1.5-1.5c-0.4-0.6-0.5-1.4-0.5-2.2c0-0.8,0.2-1.6,0.5-2.2
		c0.4-0.6,0.9-1.1,1.5-1.5s1.3-0.5,2.1-0.5c0.7,0,1.4,0.2,2,0.5c0.6,0.3,1.1,0.8,1.4,1.5c0.3,0.6,0.5,1.4,0.5,2.3
		c0,0.9-0.2,1.6-0.5,2.3c-0.3,0.6-0.8,1.1-1.4,1.5C450.1,105.6,449.4,105.7,448.7,105.7z M448.7,105c0.6,0,1.2-0.1,1.7-0.4
		c0.5-0.3,0.9-0.7,1.2-1.2c0.3-0.5,0.4-1.1,0.4-1.8c0-0.7-0.1-1.3-0.4-1.8c-0.3-0.5-0.7-0.9-1.2-1.2s-1.1-0.4-1.7-0.4
		c-0.6,0-1.2,0.1-1.7,0.4c-0.5,0.3-0.9,0.7-1.2,1.2c-0.3,0.5-0.4,1.1-0.4,1.8c0,0.7,0.1,1.3,0.4,1.8c0.3,0.5,0.7,0.9,1.2,1.2
		C447.5,104.9,448.1,105,448.7,105z M452.1,105.7v-2.7l0.1-1.5l-0.2-1.5v-6.2h0.8v11.9H452.1z"/>
	<path d="M459.7,105.7c-0.8,0-1.6-0.2-2.2-0.5c-0.6-0.4-1.2-0.9-1.5-1.5c-0.4-0.6-0.6-1.4-0.6-2.2c0-0.8,0.2-1.6,0.5-2.2
		s0.8-1.1,1.4-1.5c0.6-0.4,1.3-0.5,2-0.5c0.8,0,1.4,0.2,2,0.5c0.6,0.4,1.1,0.8,1.4,1.5s0.5,1.4,0.5,2.2c0,0,0,0.1,0,0.1
		c0,0,0,0.1,0,0.1H456v-0.6h6.9l-0.3,0.3c0-0.7-0.1-1.2-0.4-1.8c-0.3-0.5-0.7-0.9-1.1-1.2c-0.5-0.3-1-0.4-1.7-0.4
		c-0.6,0-1.2,0.1-1.7,0.4c-0.5,0.3-0.9,0.7-1.1,1.2s-0.4,1.1-0.4,1.8v0.1c0,0.7,0.2,1.3,0.5,1.8c0.3,0.5,0.7,0.9,1.3,1.2
		c0.5,0.3,1.1,0.4,1.8,0.4c0.5,0,1-0.1,1.5-0.3c0.5-0.2,0.9-0.5,1.2-0.9l0.5,0.5c-0.4,0.4-0.8,0.8-1.4,1
		C460.9,105.6,460.3,105.7,459.7,105.7z"/>
	<path d="M472.2,105.7c-0.6,0-1.2-0.1-1.6-0.3c-0.5-0.2-0.8-0.5-1-0.8c-0.2-0.4-0.4-0.8-0.4-1.2c0-0.4,0.1-0.8,0.3-1.2
		c0.2-0.3,0.5-0.6,1-0.8c0.5-0.2,1.1-0.3,1.8-0.3h3.1v0.6h-3.1c-0.9,0-1.5,0.2-1.8,0.5c-0.3,0.3-0.5,0.7-0.5,1.2
		c0,0.5,0.2,1,0.6,1.3c0.4,0.3,1,0.5,1.7,0.5c0.7,0,1.3-0.2,1.8-0.5c0.5-0.3,0.8-0.8,1.1-1.4l0.2,0.5c-0.2,0.6-0.6,1.1-1.1,1.4
		C473.7,105.5,473,105.7,472.2,105.7z M475.2,105.7v-1.9l0-0.3v-3.1c0-0.8-0.2-1.4-0.6-1.8c-0.4-0.4-1-0.6-1.8-0.6
		c-0.6,0-1.1,0.1-1.6,0.3c-0.5,0.2-0.9,0.5-1.3,0.8l-0.4-0.6c0.4-0.4,0.9-0.7,1.5-0.9c0.6-0.2,1.2-0.3,1.8-0.3c1,0,1.8,0.3,2.4,0.8
		s0.8,1.3,0.8,2.3v5.3H475.2z"/>
	<path d="M482.5,105.4c-0.8,0-1.5-0.2-2.1-0.5s-1.1-0.8-1.5-1.4s-0.6-1.3-0.6-2.1c0-0.8,0.2-1.5,0.6-2.1c0.4-0.6,0.9-1.1,1.5-1.4
		c0.6-0.3,1.3-0.5,2.1-0.5c0.8,0,1.4,0.2,2,0.5s1.1,0.8,1.4,1.4c0.4,0.6,0.5,1.3,0.5,2.2c0,0.8-0.2,1.6-0.5,2.2
		c-0.4,0.6-0.8,1.1-1.4,1.4C484,105.2,483.3,105.4,482.5,105.4z M482.7,108.8c-0.8,0-1.5-0.1-2.2-0.4c-0.7-0.2-1.2-0.6-1.7-1
		l0.4-0.6c0.4,0.4,0.9,0.7,1.5,0.9c0.6,0.2,1.2,0.3,1.9,0.3c1.1,0,1.9-0.3,2.5-0.8c0.5-0.5,0.8-1.3,0.8-2.5v-2.3l0.2-1.2L486,100
		v-2.7h0.8v7.5c0,1.4-0.3,2.4-1,3.1C485.1,108.5,484.1,108.8,482.7,108.8z M482.6,104.6c0.7,0,1.3-0.1,1.8-0.4
		c0.5-0.3,0.9-0.7,1.2-1.2s0.4-1.1,0.4-1.7c0-0.7-0.1-1.2-0.4-1.7c-0.3-0.5-0.7-0.9-1.2-1.2s-1.1-0.4-1.8-0.4
		c-0.7,0-1.2,0.1-1.8,0.4s-0.9,0.7-1.2,1.2c-0.3,0.5-0.4,1.1-0.4,1.7c0,0.7,0.1,1.2,0.4,1.7s0.7,0.9,1.2,1.2
		C481.3,104.5,481.9,104.6,482.6,104.6z"/>
	<path d="M493.6,105.7c-0.7,0-1.3-0.1-1.9-0.4c-0.5-0.3-0.9-0.7-1.2-1.2c-0.3-0.5-0.4-1.2-0.4-2v-4.9h0.8v4.8c0,0.9,0.2,1.7,0.7,2.1
		c0.5,0.5,1.2,0.7,2,0.7c0.6,0,1.2-0.1,1.6-0.4c0.5-0.3,0.8-0.6,1.1-1.1s0.4-1.1,0.4-1.7v-4.4h0.8v8.4h-0.8v-2.3l0.1,0.3
		c-0.2,0.7-0.7,1.2-1.2,1.5C495,105.5,494.4,105.7,493.6,105.7z"/>
	<path d="M503.1,105.7c-0.6,0-1.2-0.1-1.6-0.3c-0.5-0.2-0.8-0.5-1-0.8c-0.2-0.4-0.4-0.8-0.4-1.2c0-0.4,0.1-0.8,0.3-1.2
		c0.2-0.3,0.5-0.6,1-0.8c0.5-0.2,1.1-0.3,1.8-0.3h3.1v0.6h-3.1c-0.9,0-1.5,0.2-1.8,0.5c-0.3,0.3-0.5,0.7-0.5,1.2
		c0,0.5,0.2,1,0.6,1.3c0.4,0.3,1,0.5,1.7,0.5c0.7,0,1.3-0.2,1.8-0.5c0.5-0.3,0.8-0.8,1.1-1.4l0.2,0.5c-0.2,0.6-0.6,1.1-1.1,1.4
		C504.7,105.5,504,105.7,503.1,105.7z M506.1,105.7v-1.9l0-0.3v-3.1c0-0.8-0.2-1.4-0.6-1.8c-0.4-0.4-1-0.6-1.8-0.6
		c-0.6,0-1.1,0.1-1.6,0.3c-0.5,0.2-0.9,0.5-1.3,0.8l-0.4-0.6c0.4-0.4,0.9-0.7,1.5-0.9c0.6-0.2,1.2-0.3,1.8-0.3c1,0,1.8,0.3,2.4,0.8
		s0.8,1.3,0.8,2.3v5.3H506.1z"/>
</g>
<g class="st1">
	<path class="st0" d="M154.3,456.9c-1,0-2-0.2-2.9-0.5s-1.6-0.8-2.1-1.4l0.5-0.8c0.4,0.5,1,0.9,1.8,1.2c0.8,0.3,1.7,0.5,2.6,0.5
		c1.3,0,2.2-0.3,2.9-0.8c0.7-0.6,1-1.3,1-2.3c0-0.9-0.3-1.7-1-2.2c-0.7-0.6-1.7-0.8-3.1-0.8h-0.9v-0.7l4.5-5.7l0.1,0.4h-7.9v-0.9
		h8.8v0.7l-4.4,5.7l-0.4-0.3h0.4c1.7,0,2.9,0.4,3.7,1.1s1.2,1.7,1.2,2.9c0,0.8-0.2,1.5-0.6,2.1c-0.4,0.6-0.9,1.1-1.6,1.4
		C156.3,456.8,155.4,456.9,154.3,456.9z"/>
	<path class="st0" d="M165.5,456.9c-1,0-2-0.2-2.9-0.5s-1.6-0.8-2.1-1.4l0.5-0.8c0.4,0.5,1,0.9,1.8,1.2c0.8,0.3,1.6,0.5,2.6,0.5
		c1.3,0,2.3-0.3,2.9-0.9s1-1.3,1-2.3c0-0.7-0.2-1.2-0.5-1.7c-0.3-0.5-0.8-0.9-1.6-1.1s-1.7-0.4-3-0.4h-2.8l0.7-6.8h7.4v0.9h-7
		l0.5-0.5l-0.7,5.9l-0.5-0.5h2.5c1.4,0,2.6,0.2,3.4,0.5c0.8,0.3,1.5,0.8,1.8,1.4s0.6,1.3,0.6,2.2c0,0.8-0.2,1.5-0.5,2.1
		c-0.4,0.6-0.9,1.1-1.6,1.5C167.5,456.8,166.6,456.9,165.5,456.9z"/>
	<path class="st0" d="M177.8,456.9c-1.1,0-2-0.3-2.8-0.9c-0.8-0.6-1.5-1.4-1.9-2.5s-0.7-2.3-0.7-3.8s0.2-2.7,0.7-3.8
		s1.1-1.9,1.9-2.5c0.8-0.6,1.8-0.9,2.8-0.9c1.1,0,2,0.3,2.9,0.9c0.8,0.6,1.5,1.4,1.9,2.5s0.7,2.3,0.7,3.8s-0.2,2.7-0.7,3.8
		s-1.1,1.9-1.9,2.5C179.8,456.7,178.9,456.9,177.8,456.9z M177.8,456c0.9,0,1.7-0.2,2.3-0.7c0.7-0.5,1.2-1.2,1.6-2.1
		c0.4-0.9,0.6-2,0.6-3.3c0-1.3-0.2-2.4-0.6-3.3c-0.4-0.9-0.9-1.6-1.6-2.1c-0.7-0.5-1.4-0.7-2.3-0.7c-0.9,0-1.7,0.2-2.3,0.7
		c-0.7,0.5-1.2,1.2-1.6,2.1c-0.4,0.9-0.6,2-0.6,3.3c0,1.3,0.2,2.4,0.6,3.3c0.4,0.9,0.9,1.6,1.6,2.1C176.1,455.8,176.9,456,177.8,456
		z"/>
	<path class="st0" d="M191.6,456.8V442h1v14.8H191.6z"/>
	<path class="st0" d="M195,447.3v-0.9h6.2v0.9H195z M199.7,456.9c-0.9,0-1.6-0.3-2.1-0.8s-0.7-1.2-0.7-2.1v-10h1v9.9
		c0,0.7,0.2,1.2,0.5,1.5c0.3,0.4,0.8,0.5,1.4,0.5c0.7,0,1.2-0.2,1.6-0.6l0.4,0.7c-0.3,0.3-0.6,0.4-1,0.6
		C200.5,456.9,200.1,456.9,199.7,456.9z"/>
	<path class="st0" d="M207.3,456.9c-0.9,0-1.7-0.1-2.4-0.4c-0.8-0.3-1.3-0.6-1.8-1l0.5-0.8c0.4,0.3,0.9,0.6,1.6,0.9
		c0.7,0.2,1.4,0.4,2.2,0.4c1.1,0,1.9-0.2,2.4-0.5c0.5-0.4,0.7-0.8,0.7-1.4c0-0.4-0.1-0.8-0.4-1c-0.2-0.2-0.6-0.4-1-0.6
		c-0.4-0.1-0.9-0.2-1.4-0.3c-0.5-0.1-1-0.2-1.5-0.3c-0.5-0.1-0.9-0.3-1.4-0.5s-0.7-0.5-1-0.8c-0.2-0.4-0.4-0.8-0.4-1.4
		c0-0.5,0.1-1,0.4-1.4s0.7-0.8,1.3-1c0.6-0.3,1.3-0.4,2.2-0.4c0.7,0,1.3,0.1,2,0.3c0.7,0.2,1.2,0.4,1.6,0.7l-0.5,0.8
		c-0.4-0.3-0.9-0.6-1.5-0.7c-0.5-0.1-1.1-0.2-1.7-0.2c-1,0-1.8,0.2-2.2,0.6s-0.7,0.8-0.7,1.4c0,0.4,0.1,0.8,0.4,1
		c0.2,0.3,0.6,0.5,1,0.6c0.4,0.1,0.9,0.3,1.4,0.3c0.5,0.1,1,0.2,1.5,0.3c0.5,0.1,0.9,0.3,1.4,0.5c0.4,0.2,0.7,0.5,1,0.8
		c0.2,0.3,0.4,0.8,0.4,1.4s-0.2,1.1-0.5,1.5c-0.3,0.4-0.8,0.8-1.4,1C209,456.8,208.2,456.9,207.3,456.9z"/>
	<path class="st0" d="M214.1,456.9c-0.2,0-0.4-0.1-0.6-0.2c-0.2-0.2-0.2-0.4-0.2-0.6c0-0.2,0.1-0.4,0.2-0.6c0.2-0.2,0.4-0.2,0.6-0.2
		c0.2,0,0.4,0.1,0.6,0.2s0.2,0.4,0.2,0.6c0,0.2-0.1,0.4-0.2,0.6S214.3,456.9,214.1,456.9z"/>
</g>
<g class="st1">
	<path class="st0" d="M575.2,584.7c-1.2,0-2.3-0.3-3.1-0.8c-0.8-0.6-1.5-1.4-1.9-2.4c-0.4-1.1-0.6-2.3-0.6-3.8c0-1.6,0.3-2.9,0.8-4
		c0.5-1.1,1.2-1.9,2.2-2.4s2-0.8,3.3-0.8c0.6,0,1.2,0.1,1.7,0.2c0.5,0.1,1,0.3,1.5,0.6l-0.4,0.8c-0.4-0.2-0.8-0.4-1.2-0.5
		c-0.5-0.1-1-0.2-1.5-0.2c-1.6,0-2.8,0.5-3.8,1.5c-0.9,1-1.4,2.5-1.4,4.6c0,0.3,0,0.7,0.1,1.2c0,0.5,0.1,0.9,0.3,1.4l-0.4-0.1
		c0.1-0.8,0.4-1.4,0.8-2s1-1,1.6-1.2c0.7-0.3,1.4-0.4,2.2-0.4c0.9,0,1.8,0.2,2.4,0.5c0.7,0.3,1.2,0.8,1.6,1.4
		c0.4,0.6,0.6,1.4,0.6,2.2c0,0.9-0.2,1.6-0.6,2.2c-0.4,0.6-1,1.1-1.7,1.5C576.9,584.5,576.1,584.7,575.2,584.7z M575.2,583.8
		c0.7,0,1.4-0.1,1.9-0.4c0.5-0.3,1-0.7,1.3-1.2s0.5-1.1,0.5-1.8c0-1-0.3-1.8-1-2.4s-1.6-0.9-2.8-0.9c-0.8,0-1.4,0.1-2,0.4
		c-0.6,0.3-1,0.7-1.4,1.2c-0.3,0.5-0.5,1.1-0.5,1.7c0,0.5,0.2,1.1,0.5,1.6s0.8,0.9,1.4,1.2C573.6,583.7,574.3,583.8,575.2,583.8z"/>
	<path class="st0" d="M587.1,584.7c-1.1,0-2-0.3-2.8-0.9c-0.8-0.6-1.5-1.4-1.9-2.5s-0.7-2.3-0.7-3.8s0.2-2.7,0.7-3.8
		s1.1-1.9,1.9-2.5c0.8-0.6,1.8-0.9,2.8-0.9c1.1,0,2,0.3,2.8,0.9s1.5,1.4,1.9,2.5s0.7,2.3,0.7,3.8s-0.2,2.7-0.7,3.8s-1.1,1.9-1.9,2.5
		S588.2,584.7,587.1,584.7z M587.1,583.8c0.9,0,1.7-0.2,2.3-0.7c0.7-0.5,1.2-1.2,1.6-2.1s0.6-2,0.6-3.3c0-1.3-0.2-2.4-0.6-3.3
		s-0.9-1.6-1.6-2.1c-0.7-0.5-1.4-0.7-2.3-0.7c-0.9,0-1.7,0.2-2.3,0.7c-0.7,0.5-1.2,1.2-1.6,2.1s-0.6,2-0.6,3.3
		c0,1.3,0.2,2.4,0.6,3.3s0.9,1.6,1.6,2.1C585.4,583.5,586.2,583.8,587.1,583.8z"/>
	<path class="st0" d="M600.3,584.7c-1.1,0-2-0.3-2.8-0.9c-0.8-0.6-1.5-1.4-1.9-2.5s-0.7-2.3-0.7-3.8s0.2-2.7,0.7-3.8
		s1.1-1.9,1.9-2.5c0.8-0.6,1.8-0.9,2.8-0.9c1.1,0,2,0.3,2.9,0.9c0.8,0.6,1.5,1.4,1.9,2.5s0.7,2.3,0.7,3.8s-0.2,2.7-0.7,3.8
		s-1.1,1.9-1.9,2.5C602.3,584.4,601.3,584.7,600.3,584.7z M600.3,583.8c0.9,0,1.7-0.2,2.3-0.7c0.7-0.5,1.2-1.2,1.6-2.1
		c0.4-0.9,0.6-2,0.6-3.3c0-1.3-0.2-2.4-0.6-3.3c-0.4-0.9-0.9-1.6-1.6-2.1c-0.7-0.5-1.4-0.7-2.3-0.7c-0.9,0-1.7,0.2-2.3,0.7
		c-0.7,0.5-1.2,1.2-1.6,2.1c-0.4,0.9-0.6,2-0.6,3.3c0,1.3,0.2,2.4,0.6,3.3c0.4,0.9,0.9,1.6,1.6,2.1
		C598.6,583.5,599.4,583.8,600.3,583.8z"/>
	<path class="st0" d="M609,584.6v-14.8h1v14.8H609z"/>
	<path class="st0" d="M612.3,575v-0.9h6.2v0.9H612.3z M617.1,584.7c-0.9,0-1.6-0.3-2.1-0.8c-0.5-0.5-0.7-1.2-0.7-2.1v-10h1v9.9
		c0,0.7,0.2,1.2,0.5,1.5c0.3,0.4,0.8,0.5,1.4,0.5c0.7,0,1.2-0.2,1.6-0.6l0.4,0.7c-0.3,0.3-0.6,0.4-1,0.6
		C617.9,584.6,617.5,584.7,617.1,584.7z"/>
	<path class="st0" d="M624.6,584.7c-0.9,0-1.7-0.1-2.4-0.4c-0.8-0.3-1.3-0.6-1.8-1l0.5-0.8c0.4,0.3,0.9,0.6,1.6,0.9s1.4,0.4,2.2,0.4
		c1.1,0,1.9-0.2,2.4-0.5c0.5-0.4,0.7-0.8,0.7-1.4c0-0.4-0.1-0.8-0.4-1c-0.2-0.2-0.6-0.4-1-0.6s-0.9-0.2-1.4-0.3
		c-0.5-0.1-1-0.2-1.5-0.3s-0.9-0.3-1.4-0.5s-0.7-0.5-1-0.8c-0.2-0.4-0.4-0.8-0.4-1.4c0-0.5,0.1-1,0.4-1.4c0.3-0.4,0.7-0.8,1.3-1
		s1.3-0.4,2.2-0.4c0.7,0,1.3,0.1,2,0.3c0.7,0.2,1.2,0.4,1.6,0.7l-0.5,0.8c-0.4-0.3-0.9-0.6-1.5-0.7s-1.1-0.2-1.7-0.2
		c-1,0-1.8,0.2-2.2,0.6c-0.5,0.4-0.7,0.8-0.7,1.4c0,0.4,0.1,0.8,0.4,1c0.2,0.3,0.6,0.5,1,0.6c0.4,0.1,0.9,0.3,1.4,0.3
		c0.5,0.1,1,0.2,1.5,0.3c0.5,0.1,0.9,0.3,1.4,0.5s0.7,0.5,1,0.8c0.2,0.3,0.4,0.8,0.4,1.4s-0.2,1.1-0.5,1.5c-0.3,0.4-0.8,0.8-1.4,1
		C626.3,584.6,625.5,584.7,624.6,584.7z"/>
	<path class="st0" d="M631.4,584.7c-0.2,0-0.4-0.1-0.6-0.2c-0.2-0.2-0.2-0.4-0.2-0.6c0-0.2,0.1-0.4,0.2-0.6c0.2-0.2,0.4-0.2,0.6-0.2
		c0.2,0,0.4,0.1,0.6,0.2c0.2,0.2,0.2,0.4,0.2,0.6c0,0.2-0.1,0.4-0.2,0.6C631.9,584.6,631.7,584.7,631.4,584.7z"/>
</g>
</svg>
