<?xml version="1.0" encoding="utf-8"?>
<!-- Generator: Adobe Illustrator 27.5.0, SVG Export Plug-In . SVG Version: 6.00 Build 0)  -->
<svg version="1.1"
	 id="svg1905" xmlns:rdf="http://www.w3.org/1999/02/22-rdf-syntax-ns#" xmlns:dc="http://purl.org/dc/elements/1.1/" xmlns:svg="http://www.w3.org/2000/svg" xmlns:inkscape="http://www.inkscape.org/namespaces/inkscape" xmlns:cc="http://web.resource.org/cc/" xmlns:sodipodi="http://sodipodi.sourceforge.net/DTD/sodipodi-0.dtd"
	 xmlns="http://www.w3.org/2000/svg" xmlns:xlink="http://www.w3.org/1999/xlink" x="0px" y="0px" viewBox="0 0 1080 900"
	 style="enable-background:new 0 0 1080 900;" xml:space="preserve">
<style type="text/css">
	.st0{fill-rule:evenodd;clip-rule:evenodd;fill:#99FFFF;stroke:#1D1D1B;stroke-width:2.3619;}
	.st1{fill-rule:evenodd;clip-rule:evenodd;fill:#CCFFFF;stroke:#1D1D1B;stroke-width:2.3619;}
	.st2{fill-rule:evenodd;clip-rule:evenodd;fill:#FFFFCC;stroke:#1D1D1B;stroke-width:2.3619;}
	.st3{fill-rule:evenodd;clip-rule:evenodd;fill:#FFFF99;stroke:#1D1D1B;stroke-width:2.3619;}
	.st4{fill-rule:evenodd;clip-rule:evenodd;fill:#FFCC99;stroke:#1D1D1B;stroke-width:2.3619;}
	.st5{fill:none;}
	.st6{enable-background:new    ;}
	.st7{fill:#1D1D1B;}
	.st8{fill:none;stroke:#5DC0C8;stroke-width:3.758;}
</style>
<sodipodi:namedview  bordercolor="#666666" borderopacity="1.0" gridtolerance="10.0" guidetolerance="10.0" id="base" inkscape:current-layer="svg1905" inkscape:cx="240.5" inkscape:cy="298" inkscape:pageopacity="0.0" inkscape:pageshadow="2" inkscape:window-height="712" inkscape:window-width="1024" inkscape:window-x="-8" inkscape:window-y="-6" inkscape:zoom="0.8942953" objecttolerance="10.0" pagecolor="#ffffff">
	</sodipodi:namedview>
<g id="g2367" transform="translate(10.06379,8.945591)">
	<path id="Zapallar" sodipodi:nodetypes="ccccccscccccccccccccccccccccccccccccc" class="st0" d="M114.5,739.8l7.8,2.8
		c5.7,8,14.4-6.1,14.6-3.5c3.1,6.8,8.3,8.3,13.9,12.5c2.4,2.4,6.6,2.4,9.2,5c4.3,5.2,8.7,11.6,3.5,17.5c-5.9,5.9,0.2,0.5,2.1,4.3
		c2.1,4.3,4.7,7.1,10.6,7.1c9.2,1.7,10.6,7.6,18.2,8.5c5.9-2.6,10.4-7.3,16.1-9.9c4.5,0.2,9,0.7,13.2-0.7l20.3-9.9
		c-3.1-13.2,5.4-13.5,13.2-13.9c-5.2-15.4,0.7-21.3,16.1-19.6l15.4-6.4l7.8-27.4l30.9,0.7l0.7-13.9c-22.7-14.6-15.4-36.6-40.6-49.1
		c-8-19.1-28.3-23.4-44.9-32.4l1.4-9.2l-10.6-9.2l-6.4,7.1l-6.4-5.7l-5,9.9c-27.2,3.8-37.6,17.2-48.4,30.2c1.2,9-1.4,16.3-11.3,19.6
		h-36.6l-12-12.5h-5.7l-9.2-5.7l-3.5-35c-11.6-12.5-10.6,0-13.5,5.2c-2.6,0.9,1.2,5.4-0.9,18c8.7,10.4,15.4,26.9,8.7,48.2L98,696.1
		C116.2,702.4,110.5,723.9,114.5,739.8z"/>
	<path id="Papudo" sodipodi:nodetypes="cccccccccccccccccccccccccc" class="st1" d="M89.3,600.9l3.5,35l9.2,5.7h5.7l12,12.5h36.8
		c9.9-3.5,12.5-10.6,11.3-19.6c10.9-13,21.3-26.2,48.4-30.2l5-9.9l6.4,5.7l6.4-7.1l-8.5-22.4l-35-21l9.9-10.9
		c1.9-1.9,4.5-3.1,7.3-2.6l8,1.2c10.2,8.5,0.7-5.9,12.8-12l-0.2-46.5L207.8,491l-16.3,12.8l-7.1-7.8l-12.8-0.7l-5-5l-9.9,5
		c-5,2.4-11.1,2.4-21.7-4.7c2.1,7.8,1.4,10.9-14.2,7.8c-6.6,5,0.5,38-11.8,44.6C109.6,563.3,121.4,622.4,89.3,600.9z"/>
	<path id="La_Ligua" sodipodi:nodetypes="ccccsssscccccccccccscccccccccccccccccccccccccccccccccccccccccccssssscc" class="st2" d="
		M15.8,263.8c8.5,13,11.1,30.2,47.5-6.1L76,244.9l28.1,12c39.7,17,68.7,26.7,86.9,25.7c26.5-1.7,71.6-18,69.2-28.1
		c-3.5-14.4,20.1-8.5,35.4-41.6c9.7-21,15.8-19.4,28.6,3.1c5.9,10.2,15.4,18.2,22,18.2c6.6,0-15.4,27.9-9,33.8s8,15.6,15.6,20.8
		c4,7.3,1.9,3.1,7.8,10.4c0,5-1.7,25.5-6.6,26.7c-8.5,0.7-15.8,8.3-7.6,15.4c7.1,7.6,11.6,17,15.6,26.5c-5.7,7.8-0.5,14.9,8.7,11.8
		c9.7,0.5,13.7,20.5,18.7,26.9c5.4,8,4.5,8.5,12.3,15.1c7.8,4.7,0.9,13.9,7.8,19.1c-0.7,2.6-1.2,5-1.7,7.6
		c-0.9,5.4-1.2,11.1,1.4,16.3c5.9,9.2-11.6,12.3-2.6,20.5c1.9,9,14.9,13.5,17,22l-11.1-0.9c-23.9,10.4-26.9,20.8-32.6,31.2
		l-2.8,44.6l18.4,14.9l-5,6.4l7.8,12l19.8,0.7l30.5,22.7h7.8c26.2,19.4,8.3,30.5,1.4,36.1l-1.2,16.1h-9.7l-5.7,4.3
		c-1.4,5-3.8,9.9,2.1,14.6l-6.4,12h-24.6c-9.4-3.5,3.8-3.5-29.5-10.6l-0.7-9.2l-13.9-1.4V692h-10.6l-23.1,18.2l-7.1-4.3l0.7-13.9
		c-22.7-14.6-15.4-36.6-40.6-49.1c-8-19.1-28.3-23.4-44.9-32.4l1.4-9.2l-10.6-9.2l-8.5-22.4l-35-21l13.7-13.5l11.6,1.2
		c10.2,8.5,0.7-5.9,12.8-12l-0.2-46.5l-20.5,12.5l-16.3,12.8l-7.1-7.8l-12.8-0.7l-5-5l-9.9,5c-5,2.4-11.1,2.4-21.7-4.7
		c-4-14.9-17-33.1-26.5-35.9c-9.2-2.8-17.5-37.3-28.1-20.5c-2.8,4.3-8.5-3.1-9.7-8.5c-3.3-15.1-0.5-45.6-0.2-63.1
		c0.2-24.8-9.2-47.5-34.5-42c-13.5,2.8-14.4-1.7-14.4-14.9L15.8,263.8z"/>
	<path id="Petorca" sodipodi:nodetypes="ccccccsccsssssscsccccccccccccscscccsccscccccccccsc" class="st3" d="M345.8,234.3
		c13.5,0,36.6-23.4,61.6-45.3c14.6-20.5,27.6-33.1,38.3-33.8c9.7-12,14.4-23.9,35-35.9c5-10.9-24.1-16.1-11.1-32.4
		c-10.4-21.5,47.5-3.5,60.2-4.3c8,1.2,14.9,3.3,18.2,8.7c14.9,22.2,28.6,46.1,32.1,16.1c29.5-11.3,52-7.3,62.6-24.1
		c21-9.9,45.8-18.2,54.8-18.2s21.7-4,28.1-9c19.4-14.2,44.2-9.9,46.3,7.3c1.7,13.5,26.2,30.9,21.5,18.7c-5.4-14.6,58.6,2.4,21,33.8
		c-13.9,11.6,27.9,44.2,12,42.8c-4.3-0.5,24.1,18.4,48.9,31.2c58.8,9.9,67.3,35,56.7-13.9c-1.7-7.8,18.7,11.3,36.4,17l31.2,10.4
		c16.5,13.7-1.4,48.4-2.6,73c2.8,19.1-2.6-2.1-8.7,9.7c0.2,3.3,3.3,8.3-13,12c-20.3-3.3-26.7,35-43.7,18
		c-18.9,3.8-40.4-10.6-56.2,5.4c-12.8,13.5-16.3-9.4-52.2,9.2c-31.4-5.2-31.9,11.3-49.6,12.3c-16.1,0.7-38.7-0.7-47.5,11.6
		c-18.9,8-38-19.1-50.5-13.2c-18-10.2-18.4,12-23.9,24.1c-13.7,14.2-31.4,27.4-35.4,25.5c-16.3-8-13.5,6.1-20.3,7.8
		c-1.2,10.4-3.8,23.6-12.3,21c-10.2-3.3-17.5,0.5-24.3-2.1c-10.6-11.3-22-26.7-44.9-18.7c-19.8,4.7-31.2,22.7-36.8,41.1
		c-3.1,13-8.5,18.2-24.6,27.9c-2.8,1.7-6.6-4.3-9.9-7.3c-5.4-9.4-16.5,1.2-20.3-6.6c-18.7-9.7-16.1-2.4-15.6-5
		c0.5-2.6,1.2-5.2,1.7-7.6c-6.8-5.2,0.2-14.4-7.8-19.1c-7.8-6.6-6.8-7.1-12.3-15.1c-5-6.4-9.2-26.5-18.7-26.9
		c-9,3.1-14.2-4-8.7-11.8c-3.8-9.4-8.3-18.9-15.6-26.5c-8.3-7.1-0.9-14.9,7.6-15.4c5-1.2,6.4-21.7,6.6-26.7
		c-5.7-7.3-3.8-3.1-7.8-10.4c-7.3-5.2-9-14.9-15.6-20.8C330.4,262.2,352.4,234.3,345.8,234.3z"/>
	
		<path id="Cabildo" sodipodi:nodetypes="ccccccccccccccccsccccscccccccccccsccsccccccccccccccccccccccccccccccscscccsccc" class="st4" d="
		M407.2,448.5c-0.9,5.4-1.2,11.1,1.4,16.3c5.9,9.2-11.6,12.3-2.6,20.5c1.9,9,14.9,13.5,17,22l-11.1-0.9
		c-23.9,10.4-26.9,20.8-32.6,31.2l-2.8,44.6l18.4,14.9l-5,6.4l7.8,12l19.8,0.7l30.5,22.7h7.8c26.2,19.4,8.3,30.5,1.4,36.1l-1.2,16.1
		l7.1,11.3c0,0-3.8,5-3.5,9.2c0.2,4.3,0.9,10.6,4.3,15.4c3.3,3.3,9.2,4.7,7.1,9.2l7.8-4c11.8,10.4,15.6-5.7,16.5-15.1
		c13-0.2,25.7,4.7,26.9,13c1.4,9.4,19.6,5.2,30.5,1.9c16.5,0.7,26.2-19.1,43.7-11.8c9.9-9.4,19.8-21.5,30-5.7
		c13,2.8,26.5,4.5,35.9,14.2c7.3-7.8,26.7,9.2,18-5.4c-0.5-16.3,29.8-7.1,18.7-22.4c-12.5-5.2-16.8-26.5,0.9-25.7
		c12-9.9,24.8-29.3,6.8-41.1c-10.9-10.4-36.8,1.7-40.2-21c-0.5-9.4-6.1-19.4-10.4-24.3c15.1-9,7.1-31.6,23.1-35.9
		c13.7-7.1,13.7-19.1,13.7-25.5c0-4.5,8.3-3.5,14.9-1.2c20.5,5.2-8.3-22,12.3-14.6c9.2,0.5,17.2,10.4,26.5,8c3.8-0.9,4.5-5.4,21,12
		c11.3,12.5,18-22.2,27.6-1.4c9.4,5.7,35.7,30.2,32.8,7.1c14.4,5.7,19.4-1.9,19.4-16.8c-5.7-11.3,27.6-26.2,10.2-39.9
		c15.4-5.7-4.5-17.5,4.3-29.3c-0.2-10.6-0.5-19.1,13.2-14.4c7.1,8.5,20.3,21.7,23.4,4.7c6.1-1.2,13.5-2.4,19.6-2.6l22.4-19.4H965
		l4,7.1h18.4l10.2-7.1l3.1-16.3l25,0.5c1.9-1.9,7.1-14.4,7.8-17c3.5-11.3,11.1-8,14.4-19.4s7.1-18.4-11.8-25.7
		c-18.9-7.3-10.9-38.3-12.5-56.7c0-8.7-22.2-4.7-27.6-9.2c2.8,19.1-2.6-2.1-8.7,9.7c0.2,3.3,3.3,8.3-13,12
		c-20.3-3.3-26.7,35-43.7,18c-18.9,3.8-40.4-10.6-56.2,5.4c-12.8,13.5-16.3-9.4-52.2,9.2c-31.4-5.2-31.9,11.3-49.6,12.3
		c-16.1,0.7-38.7-0.7-47.5,11.6c-18.9,8-38-19.1-50.5-13.2c-18-10.2-18.4,12-23.9,24.1c-13.7,14.2-31.4,27.4-35.4,25.5
		c-16.3-8-13.5,6.1-20.3,7.8c-1.2,10.4-3.8,23.6-12.3,21c-10.2-3.3-17.5,0.5-24.3-2.1c-10.6-11.3-22-26.7-44.9-18.7
		c-19.8,4.7-31.2,22.7-36.8,41.1c-3.1,13-8.5,18.2-24.6,27.9c-2.8,1.7-6.6-4.3-9.9-7.3c-5.4-9.4-16.5,1.2-20.3-6.6
		C404.3,443.8,406.7,451.1,407.2,448.5z"/>
</g>
<rect x="741.8" y="492.3" class="st5" width="312.9" height="81.2"/>
<g class="st6">
	<path class="st7" d="M753.7,513.6c-1.5,0-2.9-0.3-4.2-0.8c-1.3-0.5-2.4-1.2-3.4-2.1c-0.9-0.9-1.7-2-2.2-3.2
		c-0.5-1.3-0.8-2.6-0.8-4.1s0.3-2.8,0.8-4.1c0.5-1.3,1.3-2.3,2.2-3.2s2.1-1.6,3.4-2.1c1.3-0.5,2.7-0.8,4.2-0.8
		c1.6,0,3.1,0.3,4.4,0.8c1.3,0.6,2.5,1.4,3.4,2.5l-2.4,2.2c-0.7-0.8-1.5-1.3-2.4-1.7c-0.9-0.4-1.8-0.6-2.9-0.6c-1,0-2,0.2-2.9,0.5
		c-0.9,0.3-1.6,0.8-2.2,1.4c-0.6,0.6-1.1,1.4-1.5,2.2c-0.4,0.9-0.5,1.8-0.5,2.8c0,1,0.2,2,0.5,2.8c0.4,0.9,0.9,1.6,1.5,2.2
		c0.6,0.6,1.4,1.1,2.2,1.4c0.9,0.3,1.8,0.5,2.9,0.5c1,0,2-0.2,2.9-0.6c0.9-0.4,1.7-1,2.4-1.8l2.4,2.3c-0.9,1.1-2.1,1.9-3.4,2.5
		C756.9,513.3,755.4,513.6,753.7,513.6z"/>
	<path class="st7" d="M769.2,513.5c-1.1,0-2.1-0.2-3-0.6c-0.9-0.4-1.5-0.9-2-1.6c-0.5-0.7-0.7-1.5-0.7-2.3c0-0.9,0.2-1.6,0.6-2.3
		c0.4-0.7,1.1-1.2,2-1.6c0.9-0.4,2.1-0.6,3.7-0.6h4.4v2.4h-4.1c-1.2,0-2,0.2-2.4,0.6s-0.6,0.9-0.6,1.4c0,0.6,0.3,1.2,0.8,1.5
		c0.5,0.4,1.2,0.6,2.1,0.6c0.9,0,1.7-0.2,2.3-0.6c0.7-0.4,1.2-1,1.5-1.7l0.6,2.1c-0.3,0.9-0.9,1.6-1.8,2.1
		C771.7,513.3,770.6,513.5,769.2,513.5z M774,513.3v-3.1l-0.2-0.7v-5.4c0-1-0.3-1.8-0.9-2.4c-0.6-0.6-1.6-0.9-2.8-0.9
		c-0.9,0-1.7,0.1-2.5,0.4c-0.8,0.3-1.5,0.6-2.1,1.1l-1.4-2.6c0.8-0.6,1.8-1.1,2.9-1.4s2.3-0.5,3.5-0.5c2.2,0,3.9,0.5,5.1,1.6
		c1.2,1,1.8,2.7,1.8,4.9v8.9H774z"/>
	<path class="st7" d="M781.9,513.3v-21h3.5v9.4l-0.3,4l0.1,4v3.6L781.9,513.3L781.9,513.3z M790.3,513.5c-1.3,0-2.4-0.3-3.4-0.9
		c-1-0.6-1.8-1.4-2.4-2.6c-0.6-1.1-0.9-2.6-0.9-4.3c0-1.8,0.3-3.2,0.9-4.4c0.6-1.1,1.4-2,2.4-2.5c1-0.5,2.1-0.8,3.4-0.8
		c1.5,0,2.8,0.3,3.9,1s2.1,1.5,2.7,2.7c0.7,1.2,1,2.5,1,4.1s-0.3,2.9-1,4.1c-0.7,1.2-1.6,2.1-2.7,2.7
		C793.1,513.2,791.8,513.5,790.3,513.5z M789.9,510.5c0.9,0,1.6-0.2,2.3-0.6c0.7-0.4,1.2-0.9,1.6-1.7c0.4-0.7,0.6-1.6,0.6-2.5
		c0-1-0.2-1.8-0.6-2.5c-0.4-0.7-0.9-1.3-1.6-1.6c-0.7-0.4-1.4-0.6-2.3-0.6c-0.9,0-1.6,0.2-2.3,0.6c-0.7,0.4-1.2,0.9-1.6,1.6
		c-0.4,0.7-0.6,1.6-0.6,2.5s0.2,1.8,0.6,2.5s0.9,1.3,1.6,1.7C788.3,510.3,789,510.5,789.9,510.5z"/>
	<path class="st7" d="M803.1,495.7c-0.7,0-1.2-0.2-1.6-0.6c-0.4-0.4-0.6-0.9-0.6-1.5c0-0.6,0.2-1.1,0.6-1.5c0.4-0.4,1-0.6,1.6-0.6
		s1.2,0.2,1.6,0.6s0.6,0.9,0.6,1.5c0,0.6-0.2,1.2-0.6,1.6C804.3,495.5,803.8,495.7,803.1,495.7z M801.3,513.3v-15.1h3.5v15.1H801.3z
		"/>
	<path class="st7" d="M809.5,513.3v-21h3.5v21H809.5z"/>
	<path class="st7" d="M824.1,513.5c-1.5,0-2.8-0.3-3.9-1c-1.2-0.7-2.1-1.6-2.7-2.7c-0.7-1.2-1-2.5-1-4.1s0.3-2.9,1-4.1
		c0.7-1.2,1.6-2.1,2.7-2.7c1.2-0.6,2.5-1,3.9-1c1.3,0,2.4,0.3,3.4,0.8c1,0.5,1.8,1.4,2.4,2.5c0.6,1.1,0.9,2.6,0.9,4.4
		c0,1.7-0.3,3.2-0.9,4.3c-0.6,1.1-1.3,2-2.4,2.6C826.6,513.2,825.4,513.5,824.1,513.5z M824.6,510.5c0.9,0,1.6-0.2,2.3-0.6
		c0.7-0.4,1.2-0.9,1.6-1.7s0.6-1.6,0.6-2.5c0-1-0.2-1.8-0.6-2.5c-0.4-0.7-0.9-1.3-1.6-1.6c-0.7-0.4-1.4-0.6-2.3-0.6
		c-0.9,0-1.6,0.2-2.3,0.6c-0.7,0.4-1.2,0.9-1.6,1.6c-0.4,0.7-0.6,1.6-0.6,2.5s0.2,1.8,0.6,2.5s0.9,1.3,1.6,1.7
		S823.7,510.5,824.6,510.5z M829.1,513.3v-3.6l0.1-4l-0.3-4v-9.4h3.5v21L829.1,513.3L829.1,513.3z"/>
	<path class="st7" d="M844,513.5c-1.6,0-2.9-0.3-4.1-1c-1.2-0.7-2.2-1.6-2.9-2.8s-1-2.5-1-4c0-1.5,0.4-2.9,1-4
		c0.7-1.2,1.7-2.1,2.9-2.7c1.2-0.7,2.6-1,4.1-1c1.6,0,3,0.3,4.2,1s2.2,1.6,2.9,2.7c0.7,1.2,1,2.5,1,4c0,1.5-0.4,2.8-1,4
		c-0.7,1.2-1.7,2.1-2.9,2.8C847,513.1,845.5,513.5,844,513.5z M844,510.5c0.9,0,1.7-0.2,2.3-0.6c0.7-0.4,1.2-0.9,1.6-1.7
		c0.4-0.7,0.6-1.6,0.6-2.5c0-1-0.2-1.8-0.6-2.5c-0.4-0.7-0.9-1.3-1.6-1.6c-0.7-0.4-1.4-0.6-2.3-0.6c-0.9,0-1.6,0.2-2.3,0.6
		c-0.7,0.4-1.2,0.9-1.6,1.6c-0.4,0.7-0.6,1.6-0.6,2.5s0.2,1.8,0.6,2.5s0.9,1.3,1.6,1.7C842.4,510.3,843.1,510.5,844,510.5z"/>
</g>
<rect x="846.5" y="286.8" class="st5" width="133.9" height="32.6"/>
<g class="st6">
	<path class="st7" d="M849,308v-19.8h8.2c1.7,0,3.3,0.3,4.5,0.9c1.3,0.6,2.2,1.4,2.9,2.4c0.7,1.1,1,2.3,1,3.8s-0.3,2.7-1,3.8
		c-0.7,1.1-1.7,1.9-2.9,2.4c-1.3,0.6-2.8,0.9-4.5,0.9h-6.1l1.7-1.7v7.5L849,308L849,308z M852.7,300.9l-1.7-1.8h6
		c1.6,0,2.9-0.4,3.7-1c0.8-0.7,1.2-1.7,1.2-2.9c0-1.3-0.4-2.2-1.2-2.9c-0.8-0.7-2.1-1-3.7-1h-6l1.7-1.8V300.9z"/>
	<path class="st7" d="M876,308.2c-1.7,0-3.1-0.3-4.4-1c-1.3-0.7-2.2-1.6-2.9-2.8c-0.7-1.2-1-2.5-1-4c0-1.5,0.3-2.9,1-4
		c0.7-1.2,1.6-2.1,2.8-2.7c1.2-0.7,2.5-1,4-1c1.5,0,2.8,0.3,3.9,1c1.2,0.6,2.1,1.6,2.7,2.7c0.7,1.2,1,2.6,1,4.1c0,0.1,0,0.3,0,0.5
		c0,0.2,0,0.4,0,0.5h-12.6v-2.4h10.7l-1.4,0.7c0-0.9-0.2-1.6-0.5-2.3c-0.4-0.7-0.9-1.2-1.5-1.6c-0.6-0.4-1.4-0.6-2.2-0.6
		c-0.9,0-1.6,0.2-2.3,0.6c-0.7,0.4-1.2,0.9-1.5,1.6c-0.4,0.7-0.5,1.5-0.5,2.4v0.6c0,0.9,0.2,1.7,0.6,2.4c0.4,0.7,1,1.2,1.7,1.6
		s1.6,0.6,2.6,0.6c0.9,0,1.6-0.1,2.3-0.4c0.7-0.3,1.3-0.7,1.8-1.3l1.9,2.2c-0.7,0.8-1.5,1.4-2.6,1.8
		C878.5,308,877.4,308.2,876,308.2z"/>
	<path class="st7" d="M884.5,295.8v-2.8h10.1v2.8H884.5z M892.3,308.2c-1.7,0-3-0.4-3.8-1.3c-0.9-0.9-1.4-2.1-1.4-3.8v-13.6h3.5V303
		c0,0.7,0.2,1.3,0.5,1.7c0.4,0.4,0.9,0.6,1.5,0.6c0.8,0,1.5-0.2,2-0.6l1,2.5c-0.4,0.3-0.9,0.6-1.5,0.8
		C893.5,308.1,892.9,308.2,892.3,308.2z"/>
	<path class="st7" d="M904.9,308.2c-1.6,0-2.9-0.3-4.1-1c-1.2-0.7-2.2-1.6-2.9-2.8c-0.7-1.2-1-2.5-1-4c0-1.5,0.4-2.9,1-4
		c0.7-1.2,1.7-2.1,2.9-2.7c1.2-0.7,2.6-1,4.1-1c1.6,0,3,0.3,4.2,1s2.2,1.6,2.9,2.7c0.7,1.2,1,2.5,1,4c0,1.5-0.4,2.8-1,4
		c-0.7,1.2-1.7,2.1-2.9,2.8C907.8,307.8,906.4,308.2,904.9,308.2z M904.9,305.1c0.9,0,1.7-0.2,2.3-0.6c0.7-0.4,1.2-0.9,1.6-1.7
		c0.4-0.7,0.6-1.6,0.6-2.5c0-1-0.2-1.8-0.6-2.5c-0.4-0.7-0.9-1.3-1.6-1.6c-0.7-0.4-1.4-0.6-2.3-0.6c-0.9,0-1.6,0.2-2.3,0.6
		c-0.7,0.4-1.2,0.9-1.6,1.6c-0.4,0.7-0.6,1.6-0.6,2.5s0.2,1.8,0.6,2.5c0.4,0.7,0.9,1.3,1.6,1.7C903.3,304.9,904,305.1,904.9,305.1z"
		/>
	<path class="st7" d="M916.3,308v-15.1h3.4v4.2l-0.4-1.2c0.4-1,1.2-1.8,2.1-2.3c1-0.5,2.2-0.8,3.6-0.8v3.4c-0.1,0-0.3-0.1-0.4-0.1
		s-0.3,0-0.4,0c-1.3,0-2.4,0.4-3.2,1.2s-1.2,2-1.2,3.5v7.3L916.3,308L916.3,308z"/>
	<path class="st7" d="M934.9,308.2c-1.6,0-3-0.3-4.2-1c-1.2-0.7-2.2-1.6-2.9-2.8c-0.7-1.2-1-2.5-1-4c0-1.5,0.4-2.9,1-4
		c0.7-1.2,1.7-2.1,2.9-2.7c1.2-0.7,2.6-1,4.2-1c1.5,0,2.8,0.3,3.9,0.9c1.1,0.6,2,1.5,2.6,2.6l-2.7,1.6c-0.4-0.7-1-1.3-1.7-1.6
		c-0.7-0.3-1.3-0.5-2.1-0.5c-0.9,0-1.7,0.2-2.4,0.6c-0.7,0.4-1.3,0.9-1.7,1.6c-0.4,0.7-0.6,1.6-0.6,2.5s0.2,1.8,0.6,2.5
		s0.9,1.3,1.7,1.6c0.7,0.4,1.5,0.6,2.4,0.6c0.8,0,1.5-0.2,2.1-0.5c0.6-0.4,1.2-0.9,1.7-1.6l2.7,1.6c-0.6,1.1-1.4,2-2.6,2.6
		C937.7,307.9,936.4,308.2,934.9,308.2z"/>
	<path class="st7" d="M949,308.2c-1.1,0-2.1-0.2-3-0.6c-0.9-0.4-1.5-0.9-2-1.6c-0.4-0.7-0.7-1.5-0.7-2.3c0-0.9,0.2-1.6,0.6-2.3
		s1.1-1.2,2-1.6c0.9-0.4,2.1-0.6,3.7-0.6h4.4v2.4h-4.1c-1.2,0-2,0.2-2.4,0.6c-0.4,0.4-0.6,0.9-0.6,1.4c0,0.6,0.3,1.2,0.8,1.5
		c0.5,0.4,1.2,0.6,2.1,0.6c0.9,0,1.7-0.2,2.3-0.6c0.7-0.4,1.2-1,1.5-1.7l0.6,2.1c-0.3,0.9-0.9,1.6-1.8,2.1
		C951.5,308,950.3,308.2,949,308.2z M953.8,308v-3.1l-0.2-0.7v-5.4c0-1-0.3-1.8-0.9-2.4c-0.6-0.6-1.6-0.9-2.8-0.9
		c-0.9,0-1.7,0.1-2.5,0.4s-1.5,0.6-2.1,1.1l-1.4-2.6c0.8-0.6,1.8-1.1,2.9-1.4c1.1-0.3,2.3-0.5,3.5-0.5c2.2,0,3.9,0.5,5.1,1.6
		c1.2,1,1.8,2.7,1.8,4.9v8.9H953.8z"/>
</g>
<g>
	<rect x="144.5" y="464.5" class="st5" width="216.1" height="32.6"/>
	<g class="st6">
		<path class="st7" d="M147.3,485.4v-19.8h3.7v16.7h10.4v3.1L147.3,485.4L147.3,485.4z"/>
		<path class="st7" d="M168.5,485.6c-1.1,0-2.1-0.2-3-0.6c-0.9-0.4-1.5-0.9-2-1.6c-0.5-0.7-0.7-1.5-0.7-2.3c0-0.9,0.2-1.6,0.6-2.3
			c0.4-0.7,1.1-1.2,2-1.6c0.9-0.4,2.1-0.6,3.7-0.6h4.4v2.4h-4.1c-1.2,0-2,0.2-2.4,0.6c-0.4,0.4-0.6,0.9-0.6,1.4
			c0,0.6,0.3,1.2,0.8,1.5c0.5,0.4,1.2,0.6,2.1,0.6c0.9,0,1.7-0.2,2.3-0.6c0.7-0.4,1.2-1,1.5-1.7l0.6,2.1c-0.3,0.9-0.9,1.6-1.8,2.1
			C171,485.5,169.9,485.6,168.5,485.6z M173.3,485.4v-3.1l-0.2-0.7v-5.4c0-1-0.3-1.8-0.9-2.4c-0.6-0.6-1.6-0.9-2.8-0.9
			c-0.9,0-1.7,0.1-2.5,0.4c-0.8,0.3-1.5,0.6-2.1,1.1l-1.4-2.6c0.8-0.6,1.8-1.1,2.9-1.4c1.1-0.3,2.3-0.5,3.5-0.5
			c2.2,0,3.9,0.5,5.1,1.6c1.2,1,1.8,2.7,1.8,4.9v8.9H173.3z"/>
		<path class="st7" d="M189.3,485.4v-19.8h3.7v16.7h10.4v3.1L189.3,485.4L189.3,485.4z"/>
		<path class="st7" d="M207.7,467.8c-0.7,0-1.2-0.2-1.6-0.6c-0.4-0.4-0.6-0.9-0.6-1.5c0-0.6,0.2-1.1,0.6-1.5s1-0.6,1.6-0.6
			c0.7,0,1.2,0.2,1.6,0.6c0.4,0.4,0.6,0.9,0.6,1.5c0,0.6-0.2,1.2-0.6,1.6C209,467.6,208.4,467.8,207.7,467.8z M206,485.4v-15.1h3.5
			v15.1H206z"/>
		<path class="st7" d="M220.5,484.7c-1.4,0-2.7-0.3-3.9-0.9s-2.1-1.5-2.7-2.6c-0.7-1.1-1-2.4-1-3.8c0-1.5,0.3-2.7,1-3.8
			c0.7-1.1,1.6-1.9,2.7-2.6c1.2-0.6,2.5-0.9,3.9-0.9c1.3,0,2.4,0.3,3.4,0.8c1,0.5,1.8,1.3,2.5,2.4c0.6,1.1,0.9,2.5,0.9,4.1
			s-0.3,3.1-0.9,4.2c-0.6,1.1-1.4,1.9-2.5,2.4S221.8,484.7,220.5,484.7z M221,491.1c-1.4,0-2.8-0.2-4.1-0.5
			c-1.3-0.4-2.4-0.9-3.3-1.6l1.6-2.7c0.7,0.5,1.5,1,2.5,1.3c1,0.3,2,0.5,3.1,0.5c1.7,0,2.9-0.4,3.7-1.2c0.8-0.8,1.2-1.9,1.2-3.4
			v-2.7l0.3-3.4l-0.1-3.4v-3.7h3.4v12.8c0,2.7-0.7,4.7-2.1,6C225.7,490.5,223.6,491.1,221,491.1z M221.1,481.7
			c0.9,0,1.7-0.2,2.4-0.5c0.7-0.4,1.3-0.9,1.6-1.5c0.4-0.7,0.6-1.4,0.6-2.2s-0.2-1.6-0.6-2.2c-0.4-0.7-0.9-1.2-1.6-1.5
			c-0.7-0.4-1.5-0.5-2.4-0.5c-0.9,0-1.7,0.2-2.4,0.5c-0.7,0.4-1.3,0.9-1.7,1.5c-0.4,0.7-0.6,1.4-0.6,2.2s0.2,1.6,0.6,2.2
			c0.4,0.7,0.9,1.2,1.7,1.5C219.4,481.6,220.2,481.7,221.1,481.7z"/>
		<path class="st7" d="M240.2,485.6c-1.3,0-2.4-0.2-3.4-0.7s-1.7-1.2-2.3-2.2s-0.8-2.2-0.8-3.8v-8.6h3.5v8.2c0,1.4,0.3,2.4,0.9,3
			c0.6,0.7,1.5,1,2.6,1c0.8,0,1.6-0.2,2.2-0.5c0.6-0.3,1.1-0.9,1.4-1.5c0.4-0.7,0.5-1.5,0.5-2.5v-7.7h3.5v15.1h-3.4v-4.1l0.6,1.3
			c-0.5,1-1.3,1.7-2.2,2.2C242.5,485.4,241.4,485.6,240.2,485.6z"/>
		<path class="st7" d="M257.7,485.6c-1.1,0-2.1-0.2-3-0.6c-0.9-0.4-1.5-0.9-2-1.6c-0.5-0.7-0.7-1.5-0.7-2.3c0-0.9,0.2-1.6,0.6-2.3
			c0.4-0.7,1.1-1.2,2-1.6c0.9-0.4,2.1-0.6,3.7-0.6h4.4v2.4h-4.1c-1.2,0-2,0.2-2.4,0.6c-0.4,0.4-0.6,0.9-0.6,1.4
			c0,0.6,0.3,1.2,0.8,1.5c0.5,0.4,1.2,0.6,2.1,0.6c0.9,0,1.7-0.2,2.3-0.6c0.7-0.4,1.2-1,1.5-1.7l0.6,2.1c-0.3,0.9-0.9,1.6-1.8,2.1
			C260.2,485.5,259,485.6,257.7,485.6z M262.4,485.4v-3.1l-0.2-0.7v-5.4c0-1-0.3-1.8-0.9-2.4c-0.6-0.6-1.6-0.9-2.8-0.9
			c-0.9,0-1.7,0.1-2.5,0.4c-0.8,0.3-1.5,0.6-2.1,1.1l-1.4-2.6c0.8-0.6,1.8-1.1,2.9-1.4c1.1-0.3,2.3-0.5,3.5-0.5
			c2.2,0,3.9,0.5,5.1,1.6c1.2,1,1.8,2.7,1.8,4.9v8.9H262.4z"/>
	</g>
</g>
<rect x="147.1" y="723.3" class="st5" width="133.9" height="32.6"/>
<g class="st6">
	<path d="M148.2,744.3v-2.5l12.8-15.6l0.4,1.4h-13v-3.1h16.3v2.5l-12.8,15.6l-0.4-1.4h13.6v3.1H148.2z"/>
	<path d="M172.7,744.5c-1.1,0-2.1-0.2-3-0.6c-0.9-0.4-1.5-0.9-2-1.6c-0.5-0.7-0.7-1.5-0.7-2.3c0-0.9,0.2-1.6,0.6-2.3
		c0.4-0.7,1.1-1.2,2-1.6c0.9-0.4,2.1-0.6,3.7-0.6h4.4v2.4h-4.1c-1.2,0-2,0.2-2.4,0.6s-0.6,0.9-0.6,1.4c0,0.6,0.3,1.2,0.8,1.5
		c0.5,0.4,1.2,0.6,2.1,0.6c0.9,0,1.7-0.2,2.3-0.6s1.2-1,1.5-1.7l0.6,2.1c-0.3,0.9-0.9,1.6-1.8,2.1S174.1,744.5,172.7,744.5z
		 M177.5,744.3v-3.1l-0.2-0.7v-5.4c0-1-0.3-1.8-0.9-2.4c-0.6-0.6-1.6-0.9-2.8-0.9c-0.9,0-1.7,0.1-2.5,0.4c-0.8,0.3-1.5,0.6-2.1,1.1
		l-1.4-2.6c0.8-0.6,1.8-1.1,2.9-1.4s2.3-0.5,3.5-0.5c2.2,0,3.9,0.5,5.1,1.6c1.2,1,1.8,2.7,1.8,4.9v8.9L177.5,744.3L177.5,744.3z"/>
	<path d="M185.4,749.8v-20.6h3.4v3.6l-0.1,4l0.3,4v9L185.4,749.8L185.4,749.8z M193.8,744.5c-1.2,0-2.3-0.3-3.4-0.9
		c-1-0.6-1.8-1.4-2.4-2.6c-0.6-1.1-0.9-2.6-0.9-4.3c0-1.8,0.3-3.2,0.9-4.4c0.6-1.1,1.4-2,2.4-2.5c1-0.6,2.1-0.8,3.4-0.8
		c1.5,0,2.8,0.3,3.9,1c1.1,0.6,2.1,1.5,2.7,2.7c0.7,1.2,1,2.5,1,4.1c0,1.6-0.3,2.9-1,4.1c-0.7,1.2-1.6,2.1-2.7,2.7
		C196.6,744.2,195.3,744.5,193.8,744.5z M193.4,741.5c0.9,0,1.6-0.2,2.3-0.6c0.7-0.4,1.2-0.9,1.6-1.7s0.6-1.6,0.6-2.5
		c0-1-0.2-1.8-0.6-2.5c-0.4-0.7-0.9-1.3-1.6-1.6c-0.7-0.4-1.4-0.6-2.3-0.6s-1.6,0.2-2.3,0.6c-0.7,0.4-1.2,0.9-1.6,1.6
		c-0.4,0.7-0.6,1.6-0.6,2.5s0.2,1.8,0.6,2.5s0.9,1.3,1.6,1.7C191.8,741.3,192.5,741.5,193.4,741.5z"/>
	<path d="M209.2,744.5c-1.1,0-2.1-0.2-3-0.6s-1.5-0.9-2-1.6c-0.4-0.7-0.7-1.5-0.7-2.3c0-0.9,0.2-1.6,0.6-2.3c0.4-0.7,1.1-1.2,2-1.6
		c0.9-0.4,2.1-0.6,3.7-0.6h4.4v2.4h-4.1c-1.2,0-2,0.2-2.4,0.6c-0.4,0.4-0.6,0.9-0.6,1.4c0,0.6,0.3,1.2,0.8,1.5
		c0.5,0.4,1.2,0.6,2.1,0.6c0.9,0,1.7-0.2,2.3-0.6s1.2-1,1.5-1.7l0.6,2.1c-0.3,0.9-0.9,1.6-1.8,2.1S210.5,744.5,209.2,744.5z
		 M214,744.3v-3.1l-0.2-0.7v-5.4c0-1-0.3-1.8-0.9-2.4c-0.6-0.6-1.6-0.9-2.8-0.9c-0.9,0-1.7,0.1-2.5,0.4c-0.8,0.3-1.5,0.6-2.1,1.1
		l-1.4-2.6c0.8-0.6,1.8-1.1,2.9-1.4s2.3-0.5,3.5-0.5c2.2,0,3.9,0.5,5.1,1.6c1.2,1,1.8,2.7,1.8,4.9v8.9L214,744.3L214,744.3z"/>
	<path d="M221.8,744.3v-21h3.5v21H221.8z"/>
	<path d="M230,744.3v-21h3.5v21H230z"/>
	<path d="M242.8,744.5c-1.1,0-2.1-0.2-3-0.6c-0.9-0.4-1.5-0.9-2-1.6c-0.5-0.7-0.7-1.5-0.7-2.3c0-0.9,0.2-1.6,0.6-2.3
		c0.4-0.7,1.1-1.2,2-1.6c0.9-0.4,2.1-0.6,3.7-0.6h4.4v2.4h-4.1c-1.2,0-2,0.2-2.4,0.6c-0.4,0.4-0.6,0.9-0.6,1.4
		c0,0.6,0.3,1.2,0.8,1.5c0.5,0.4,1.2,0.6,2.1,0.6c0.9,0,1.7-0.2,2.3-0.6s1.2-1,1.5-1.7l0.6,2.1c-0.3,0.9-0.9,1.6-1.8,2.1
		S244.1,744.5,242.8,744.5z M247.5,744.3v-3.1l-0.2-0.7v-5.4c0-1-0.3-1.8-0.9-2.4c-0.6-0.6-1.6-0.9-2.8-0.9c-0.9,0-1.7,0.1-2.5,0.4
		s-1.5,0.6-2.1,1.1l-1.4-2.6c0.8-0.6,1.8-1.1,2.9-1.4s2.3-0.5,3.5-0.5c2.2,0,3.9,0.5,5.1,1.6c1.2,1,1.8,2.7,1.8,4.9v8.9L247.5,744.3
		L247.5,744.3z"/>
	<path d="M255.4,744.3v-15.1h3.4v4.2l-0.4-1.2c0.4-1,1.2-1.8,2.1-2.3c1-0.5,2.2-0.8,3.6-0.8v3.4c-0.1,0-0.3-0.1-0.4-0.1
		c-0.1,0-0.3,0-0.4,0c-1.3,0-2.4,0.4-3.2,1.2c-0.8,0.8-1.2,2-1.2,3.5v7.3L255.4,744.3L255.4,744.3z"/>
</g>
<rect x="122.6" y="581.6" class="st5" width="133.9" height="32.6"/>
<g class="st6">
	<path d="M125.3,602.6v-19.8h8.2c1.7,0,3.3,0.3,4.5,0.9c1.3,0.6,2.2,1.4,2.9,2.4s1,2.3,1,3.8s-0.3,2.7-1,3.8s-1.7,1.9-2.9,2.4
		c-1.3,0.6-2.8,0.9-4.5,0.9h-6.1l1.7-1.7v7.5L125.3,602.6L125.3,602.6z M129,595.6l-1.7-1.8h6c1.6,0,2.9-0.4,3.7-1
		c0.8-0.7,1.2-1.7,1.2-2.9c0-1.3-0.4-2.2-1.2-2.9c-0.8-0.7-2.1-1-3.7-1h-6l1.7-1.8V595.6z"/>
	<path d="M149.7,602.8c-1.1,0-2.1-0.2-3-0.6c-0.9-0.4-1.5-0.9-2-1.6c-0.5-0.7-0.7-1.5-0.7-2.3c0-0.9,0.2-1.6,0.6-2.3
		c0.4-0.7,1.1-1.2,2-1.6c0.9-0.4,2.1-0.6,3.7-0.6h4.4v2.4h-4.1c-1.2,0-2,0.2-2.4,0.6c-0.4,0.4-0.6,0.9-0.6,1.4
		c0,0.6,0.3,1.2,0.8,1.5c0.5,0.4,1.2,0.6,2.1,0.6c0.9,0,1.7-0.2,2.3-0.6s1.2-1,1.5-1.7l0.6,2.1c-0.3,0.9-0.9,1.6-1.8,2.1
		S151,602.8,149.7,602.8z M154.5,602.6v-3.1l-0.2-0.7v-5.4c0-1-0.3-1.8-0.9-2.4c-0.6-0.6-1.6-0.9-2.8-0.9c-0.9,0-1.7,0.1-2.5,0.4
		c-0.8,0.3-1.5,0.6-2.1,1.1l-1.4-2.6c0.8-0.6,1.8-1.1,2.9-1.4s2.3-0.5,3.5-0.5c2.2,0,3.9,0.5,5.1,1.6c1.2,1,1.8,2.7,1.8,4.9v8.9
		L154.5,602.6L154.5,602.6z"/>
	<path d="M162.3,608.1v-20.6h3.4v3.6l-0.1,4l0.3,4v9L162.3,608.1L162.3,608.1z M170.7,602.8c-1.2,0-2.3-0.3-3.4-0.9
		s-1.8-1.4-2.4-2.6c-0.6-1.1-0.9-2.6-0.9-4.3c0-1.8,0.3-3.2,0.9-4.4c0.6-1.1,1.4-2,2.4-2.5c1-0.6,2.1-0.8,3.4-0.8
		c1.5,0,2.8,0.3,3.9,1c1.1,0.6,2.1,1.5,2.7,2.7c0.7,1.2,1,2.5,1,4.1s-0.3,2.9-1,4.1c-0.7,1.2-1.6,2.1-2.7,2.7
		C173.5,602.5,172.2,602.8,170.7,602.8z M170.3,599.8c0.9,0,1.6-0.2,2.3-0.6c0.7-0.4,1.2-0.9,1.6-1.7s0.6-1.6,0.6-2.5
		c0-1-0.2-1.8-0.6-2.5c-0.4-0.7-0.9-1.3-1.6-1.6c-0.7-0.4-1.4-0.6-2.3-0.6s-1.6,0.2-2.3,0.6s-1.2,0.9-1.6,1.6
		c-0.4,0.7-0.6,1.6-0.6,2.5s0.2,1.8,0.6,2.5s0.9,1.3,1.6,1.7C168.7,599.6,169.5,599.8,170.3,599.8z"/>
	<path d="M188.2,602.8c-1.3,0-2.4-0.2-3.4-0.7c-1-0.5-1.7-1.2-2.3-2.2s-0.8-2.2-0.8-3.8v-8.6h3.5v8.2c0,1.4,0.3,2.4,0.9,3
		c0.6,0.7,1.5,1,2.6,1c0.8,0,1.6-0.2,2.2-0.5c0.6-0.3,1.1-0.9,1.4-1.5c0.4-0.7,0.5-1.5,0.5-2.5v-7.7h3.5v15.1H193v-4.1l0.6,1.3
		c-0.5,1-1.3,1.7-2.2,2.2C190.4,602.6,189.3,602.8,188.2,602.8z"/>
	<path d="M207.5,602.8c-1.5,0-2.8-0.3-3.9-1c-1.2-0.7-2.1-1.6-2.7-2.7c-0.7-1.2-1-2.5-1-4.1c0-1.6,0.3-2.9,1-4.1
		c0.7-1.2,1.6-2.1,2.7-2.7c1.2-0.6,2.5-1,3.9-1c1.3,0,2.4,0.3,3.4,0.8c1,0.6,1.8,1.4,2.4,2.5s0.9,2.6,0.9,4.4c0,1.7-0.3,3.2-0.9,4.3
		s-1.3,2-2.4,2.6C209.9,602.6,208.8,602.8,207.5,602.8z M207.9,599.8c0.9,0,1.6-0.2,2.3-0.6c0.7-0.4,1.2-0.9,1.6-1.7
		s0.6-1.6,0.6-2.5c0-1-0.2-1.8-0.6-2.5c-0.4-0.7-0.9-1.3-1.6-1.6c-0.7-0.4-1.4-0.6-2.3-0.6s-1.6,0.2-2.3,0.6
		c-0.7,0.4-1.2,0.9-1.6,1.6s-0.6,1.6-0.6,2.5s0.2,1.8,0.6,2.5c0.4,0.7,0.9,1.3,1.6,1.7C206.3,599.6,207.1,599.8,207.9,599.8z
		 M212.5,602.6v-3.6l0.1-4l-0.3-4v-9.4h3.5v21L212.5,602.6L212.5,602.6z"/>
	<path d="M227.3,602.8c-1.6,0-2.9-0.3-4.1-1c-1.2-0.7-2.2-1.6-2.9-2.8c-0.7-1.2-1-2.5-1-4c0-1.5,0.4-2.9,1-4
		c0.7-1.2,1.7-2.1,2.9-2.7c1.2-0.7,2.6-1,4.1-1c1.6,0,3,0.3,4.2,1s2.2,1.6,2.9,2.7c0.7,1.2,1,2.5,1,4c0,1.5-0.4,2.8-1,4
		c-0.7,1.2-1.7,2.1-2.9,2.8C230.3,602.5,228.9,602.8,227.3,602.8z M227.3,599.8c0.9,0,1.7-0.2,2.3-0.6c0.7-0.4,1.2-0.9,1.6-1.7
		c0.4-0.7,0.6-1.6,0.6-2.5c0-1-0.2-1.8-0.6-2.5c-0.4-0.7-0.9-1.3-1.6-1.6s-1.4-0.6-2.3-0.6c-0.9,0-1.6,0.2-2.3,0.6
		c-0.7,0.4-1.2,0.9-1.6,1.6c-0.4,0.7-0.6,1.6-0.6,2.5s0.2,1.8,0.6,2.5c0.4,0.7,0.9,1.3,1.6,1.7C225.7,599.6,226.5,599.8,227.3,599.8
		z"/>
</g>
<path class="st8" d="M92.8,436.6"/>
</svg>
