<?xml version="1.0" encoding="utf-8"?>
<!-- Generator: Adobe Illustrator 24.3.0, SVG Export Plug-In . SVG Version: 6.00 Build 0)  -->
<svg version="1.1" id="Capa_1" xmlns="http://www.w3.org/2000/svg" xmlns:xlink="http://www.w3.org/1999/xlink" x="0px" y="0px"
	 viewBox="0 0 1440 810" style="enable-background:new 0 0 1440 810;" xml:space="preserve">
<style type="text/css">
	.st0{clip-path:url(#SVGID_2_);}
	.st1{clip-path:url(#SVGID_4_);fill:#FFFFFF;}
	.st2{clip-path:url(#SVGID_6_);fill:#FFFFFF;}
	.st3{clip-path:url(#SVGID_8_);fill:#FFFFFF;}
	.st4{opacity:0.2471;clip-path:url(#SVGID_10_);enable-background:new    ;}
	.st5{clip-path:url(#SVGID_12_);}
	.st6{clip-path:url(#SVGID_14_);}
	.st7{clip-path:url(#SVGID_16_);}
	.st8{clip-path:url(#SVGID_10_);}
	.st9{font-family:'Calistoga-Regular';}
	.st10{font-size:21.9723px;}
	.st11{clip-path:url(#SVGID_18_);}
	.st12{clip-path:url(#SVGID_20_);}
	.st13{clip-path:url(#SVGID_22_);}
	.st14{clip-path:url(#SVGID_24_);}
	.st15{clip-path:url(#SVGID_26_);fill:#FFDE5A;}
	.st16{clip-path:url(#SVGID_28_);}
	.st17{clip-path:url(#SVGID_30_);}
	.st18{clip-path:url(#SVGID_32_);}
	.st19{clip-path:url(#SVGID_34_);}
	.st20{clip-path:url(#SVGID_36_);fill:#FFDE5A;}
	.st21{clip-path:url(#SVGID_38_);}
	.st22{clip-path:url(#SVGID_40_);}
	.st23{clip-path:url(#SVGID_42_);}
	.st24{clip-path:url(#SVGID_44_);}
	.st25{clip-path:url(#SVGID_46_);fill:#87BF58;}
	.st26{clip-path:url(#SVGID_48_);}
	.st27{font-size:33.9975px;}
	.st28{clip-path:url(#SVGID_50_);}
	.st29{clip-path:url(#SVGID_52_);fill:#FFFFFF;}
	.st30{clip-path:url(#SVGID_54_);fill:#FFFFFF;}
	.st31{clip-path:url(#SVGID_56_);fill:none;stroke:#D9D9D9;stroke-width:13.5018;}
	.st32{clip-path:url(#SVGID_58_);fill:#C2D565;}
	.st33{clip-path:url(#SVGID_62_);fill:#C2D565;}
	.st34{clip-path:url(#SVGID_64_);fill:#C2D565;}
	.st35{clip-path:url(#SVGID_66_);fill:#C2D565;}
	.st36{clip-path:url(#SVGID_68_);fill:#C2D565;}
	.st37{clip-path:url(#SVGID_70_);fill:#C2D565;}
	.st38{clip-path:url(#SVGID_72_);fill:#C2D565;}
	.st39{clip-path:url(#SVGID_76_);fill:#C2D565;}
</style>
<g>
	<g>
		<defs>
			<rect id="SVGID_1_" y="-7.92" width="1440" height="810"/>
		</defs>
		<clipPath id="SVGID_2_">
			<use xlink:href="#SVGID_1_"  style="overflow:visible;"/>
		</clipPath>
		<g class="st0">
			<defs>
				<rect id="SVGID_3_" y="-7.92" width="1440" height="817.5"/>
			</defs>
			<clipPath id="SVGID_4_">
				<use xlink:href="#SVGID_3_"  style="overflow:visible;"/>
			</clipPath>
			<rect y="-7.92" class="st1" width="1440" height="1627.5"/>
		</g>
		<g class="st0">
			<defs>
				<rect id="SVGID_5_" y="-7.92" width="1440" height="810"/>
			</defs>
			<clipPath id="SVGID_6_">
				<use xlink:href="#SVGID_5_"  style="overflow:visible;"/>
			</clipPath>
			<rect y="-7.92" class="st2" width="1440" height="810"/>
		</g>
		<g class="st0">
			<defs>
				<rect id="SVGID_7_" y="-7.92" width="1440" height="810"/>
			</defs>
			<clipPath id="SVGID_8_">
				<use xlink:href="#SVGID_7_"  style="overflow:visible;"/>
			</clipPath>
			<rect y="-7.92" class="st3" width="1440" height="810"/>
		</g>
		<g class="st0">
			<defs>
				<rect id="SVGID_9_" y="-7.92" width="1440" height="810"/>
			</defs>
			<clipPath id="SVGID_10_">
				<use xlink:href="#SVGID_9_"  style="overflow:visible;"/>
			</clipPath>
			<g class="st4">
				<g>
					<defs>
						<rect id="SVGID_11_" x="578.64" y="154.08" width="557.04" height="556.56"/>
					</defs>
					<clipPath id="SVGID_12_">
						<use xlink:href="#SVGID_11_"  style="overflow:visible;"/>
					</clipPath>
					<g class="st5">
						<defs>
							<rect id="SVGID_13_" x="578.66" y="154.3" width="556.86" height="556.17"/>
						</defs>
						<clipPath id="SVGID_14_">
							<use xlink:href="#SVGID_13_"  style="overflow:visible;"/>
						</clipPath>
						<g class="st6">
							<defs>
								<path id="SVGID_15_" d="M1134.83,154.3h0.69v556.17h-0.69V154.3 M995.79,154.3h0.69v556.17h-0.69V154.3 M856.75,154.3h0.69
									v556.17h-0.69V154.3 M717.7,154.3h0.69v556.17h-0.69V154.3 M578.66,154.3h0.69v556.17h-0.69V154.3"/>
							</defs>
							<clipPath id="SVGID_16_">
								<use xlink:href="#SVGID_15_"  style="overflow:visible;"/>
							</clipPath>
							<rect x="578.66" y="154.3" class="st7" width="556.86" height="556.17"/>
						</g>
					</g>
				</g>
			</g>
			<g class="st8">
				<text transform="matrix(1 0 0 1 541.4824 741.9248)" class="st9 st10">0</text>
			</g>
			<g class="st8">
				<text transform="matrix(1 0 0 1 556.0508 741.9248)" class="st9 st10"> </text>
			</g>
			<g class="st8">
				<text transform="matrix(1 0 0 1 560.2256 741.9248)" class="st9 st10">w</text>
			</g>
			<g class="st8">
				<text transform="matrix(1 0 0 1 577.7158 741.9248)" class="st9 st10">a</text>
			</g>
			<g class="st8">
				<text transform="matrix(1 0 0 1 589.5146 741.9248)" class="st9 st10">t</text>
			</g>
			<g class="st8">
				<text transform="matrix(1 0 0 1 597.7988 741.9248)" class="st9 st10">t</text>
			</g>
			<g class="st8">
				<text transform="matrix(1 0 0 1 606.082 741.9248)" class="st9 st10">s</text>
			</g>
			<g class="st8">
				<text transform="matrix(1 0 0 1 667.4736 741.9248)" class="st9 st10">2</text>
			</g>
			<g class="st8">
				<text transform="matrix(1 0 0 1 680.3281 741.9248)" class="st9 st10">5</text>
			</g>
			<g class="st8">
				<text transform="matrix(1 0 0 1 693.5771 741.9248)" class="st9 st10">0</text>
			</g>
			<g class="st8">
				<text transform="matrix(1 0 0 1 708.1455 741.9248)" class="st9 st10"> </text>
			</g>
			<g class="st8">
				<text transform="matrix(1 0 0 1 712.3203 741.9248)" class="st9 st10">w</text>
			</g>
			<g class="st8">
				<text transform="matrix(1 0 0 1 729.8096 741.9248)" class="st9 st10">a</text>
			</g>
			<g class="st8">
				<text transform="matrix(1 0 0 1 741.6084 741.9248)" class="st9 st10">t</text>
			</g>
			<g class="st8">
				<text transform="matrix(1 0 0 1 749.8926 741.9248)" class="st9 st10">t</text>
			</g>
			<g class="st8">
				<text transform="matrix(1 0 0 1 758.1758 741.9248)" class="st9 st10">s</text>
			</g>
			<g class="st8">
				<text transform="matrix(1 0 0 1 805.6621 741.9248)" class="st9 st10">5</text>
			</g>
			<g class="st8">
				<text transform="matrix(1 0 0 1 818.9111 741.9248)" class="st9 st10">0</text>
			</g>
			<g class="st8">
				<text transform="matrix(1 0 0 1 833.4785 741.9248)" class="st9 st10">0</text>
			</g>
			<g class="st8">
				<text transform="matrix(1 0 0 1 848.0469 741.9248)" class="st9 st10"> </text>
			</g>
			<g class="st8">
				<text transform="matrix(1 0 0 1 852.2217 741.9248)" class="st9 st10">w</text>
			</g>
			<g class="st8">
				<text transform="matrix(1 0 0 1 869.7109 741.9248)" class="st9 st10">a</text>
			</g>
			<g class="st8">
				<text transform="matrix(1 0 0 1 881.5098 741.9248)" class="st9 st10">t</text>
			</g>
			<g class="st8">
				<text transform="matrix(1 0 0 1 889.7939 741.9248)" class="st9 st10">t</text>
			</g>
			<g class="st8">
				<text transform="matrix(1 0 0 1 898.0771 741.9248)" class="st9 st10">s</text>
			</g>
			<g class="st8">
				<text transform="matrix(1 0 0 1 946.0332 741.9248)" class="st9 st10">7</text>
			</g>
			<g class="st8">
				<text transform="matrix(1 0 0 1 957.9434 741.9248)" class="st9 st10">5</text>
			</g>
			<g class="st8">
				<text transform="matrix(1 0 0 1 971.1914 741.9248)" class="st9 st10">0</text>
			</g>
			<g class="st8">
				<text transform="matrix(1 0 0 1 985.7598 741.9248)" class="st9 st10"> </text>
			</g>
			<g class="st8">
				<text transform="matrix(1 0 0 1 989.9355 741.9248)" class="st9 st10">w</text>
			</g>
			<g class="st8">
				<text transform="matrix(1 0 0 1 1007.4248 741.9248)" class="st9 st10">a</text>
			</g>
			<g class="st8">
				<text transform="matrix(1 0 0 1 1019.2236 741.9248)" class="st9 st10">t</text>
			</g>
			<g class="st8">
				<text transform="matrix(1 0 0 1 1027.5078 741.9248)" class="st9 st10">t</text>
			</g>
			<g class="st8">
				<text transform="matrix(1 0 0 1 1035.791 741.9248)" class="st9 st10">s</text>
			</g>
			<g class="st8">
				<text transform="matrix(1 0 0 1 1074.9707 741.9248)" class="st9 st10">1</text>
			</g>
			<g class="st8">
				<text transform="matrix(1 0 0 1 1085.5176 741.9248)" class="st9 st10">,</text>
			</g>
			<g class="st8">
				<text transform="matrix(1 0 0 1 1091.209 741.9248)" class="st9 st10">0</text>
			</g>
			<g class="st8">
				<text transform="matrix(1 0 0 1 1105.7754 741.9248)" class="st9 st10">0</text>
			</g>
			<g class="st8">
				<text transform="matrix(1 0 0 1 1120.3438 741.9248)" class="st9 st10">0</text>
			</g>
			<g class="st8">
				<text transform="matrix(1 0 0 1 1134.9102 741.9248)" class="st9 st10"> </text>
			</g>
			<g class="st8">
				<text transform="matrix(1 0 0 1 1139.0859 741.9248)" class="st9 st10">w</text>
			</g>
			<g class="st8">
				<text transform="matrix(1 0 0 1 1156.5762 741.9248)" class="st9 st10">a</text>
			</g>
			<g class="st8">
				<text transform="matrix(1 0 0 1 1168.375 741.9248)" class="st9 st10">t</text>
			</g>
			<g class="st8">
				<text transform="matrix(1 0 0 1 1176.6582 741.9248)" class="st9 st10">t</text>
			</g>
			<g class="st8">
				<text transform="matrix(1 0 0 1 1184.9414 741.9248)" class="st9 st10">s</text>
			</g>
			<g class="st8">
				<text transform="matrix(1 0 0 1 244.6309 290.4716)" class="st9 st10">e</text>
			</g>
			<g class="st8">
				<text transform="matrix(1 0 0 1 255.6611 290.4716)" class="st9 st10">n</text>
			</g>
			<g class="st8">
				<text transform="matrix(1 0 0 1 269.0859 290.4716)" class="st9 st10">e</text>
			</g>
			<g class="st8">
				<text transform="matrix(1 0 0 1 280.1152 290.4716)" class="st9 st10">r</text>
			</g>
			<g class="st8">
				<text transform="matrix(1 0 0 1 290.0039 290.4716)" class="st9 st10">g</text>
			</g>
			<g class="st8">
				<text transform="matrix(1 0 0 1 301.627 290.4716)" class="st9 st10">í</text>
			</g>
			<g class="st8">
				<text transform="matrix(1 0 0 1 308.4824 290.4716)" class="st9 st10">a</text>
			</g>
			<g class="st8">
				<text transform="matrix(1 0 0 1 320.2812 290.4716)" class="st9 st10"> </text>
			</g>
			<g class="st8">
				<text transform="matrix(1 0 0 1 324.4551 290.4716)" class="st9 st10">p</text>
			</g>
			<g class="st8">
				<text transform="matrix(1 0 0 1 336.9365 290.4716)" class="st9 st10">r</text>
			</g>
			<g class="st8">
				<text transform="matrix(1 0 0 1 346.8242 290.4716)" class="st9 st10">o</text>
			</g>
			<g class="st8">
				<text transform="matrix(1 0 0 1 358.8203 290.4716)" class="st9 st10">d</text>
			</g>
			<g class="st8">
				<text transform="matrix(1 0 0 1 371.2568 290.4716)" class="st9 st10">u</text>
			</g>
			<g class="st8">
				<text transform="matrix(1 0 0 1 383.8262 290.4716)" class="st9 st10">c</text>
			</g>
			<g class="st8">
				<text transform="matrix(1 0 0 1 393.9766 290.4716)" class="st9 st10">i</text>
			</g>
			<g class="st8">
				<text transform="matrix(1 0 0 1 400.832 290.4716)" class="st9 st10">d</text>
			</g>
			<g class="st8">
				<text transform="matrix(1 0 0 1 413.2676 290.4716)" class="st9 st10">a</text>
			</g>
			<g class="st8">
				<text transform="matrix(1 0 0 1 425.0664 290.4716)" class="st9 st10"> </text>
			</g>
			<g class="st8">
				<text transform="matrix(1 0 0 1 429.2422 290.4716)" class="st9 st10">p</text>
			</g>
			<g class="st8">
				<text transform="matrix(1 0 0 1 441.7227 290.4716)" class="st9 st10">o</text>
			</g>
			<g class="st8">
				<text transform="matrix(1 0 0 1 453.7188 290.4716)" class="st9 st10">r</text>
			</g>
			<g class="st8">
				<text transform="matrix(1 0 0 1 463.6064 290.4716)" class="st9 st10"> </text>
			</g>
			<g class="st8">
				<text transform="matrix(1 0 0 1 467.7812 290.4716)" class="st9 st10">e</text>
			</g>
			<g class="st8">
				<text transform="matrix(1 0 0 1 478.8115 290.4716)" class="st9 st10">c</text>
			</g>
			<g class="st8">
				<text transform="matrix(1 0 0 1 488.9629 290.4716)" class="st9 st10">o</text>
			</g>
			<g class="st8">
				<text transform="matrix(1 0 0 1 500.959 290.4716)" class="st9 st10">p</text>
			</g>
			<g class="st8">
				<text transform="matrix(1 0 0 1 513.4395 290.4716)" class="st9 st10">o</text>
			</g>
			<g class="st8">
				<text transform="matrix(1 0 0 1 525.4375 290.4716)" class="st9 st10">w</text>
			</g>
			<g class="st8">
				<text transform="matrix(1 0 0 1 542.9268 290.4716)" class="st9 st10">e</text>
			</g>
			<g class="st8">
				<text transform="matrix(1 0 0 1 553.957 290.4716)" class="st9 st10">r</text>
			</g>
			<g class="st8">
				<text transform="matrix(1 0 0 1 563.8398 290.4716)" class="st9 st10"> </text>
			</g>
			<g class="st8">
				<text transform="matrix(1 0 0 1 289.915 589.415)" class="st9 st10">e</text>
			</g>
			<g class="st8">
				<text transform="matrix(1 0 0 1 300.9453 589.415)" class="st9 st10">n</text>
			</g>
			<g class="st8">
				<text transform="matrix(1 0 0 1 314.3711 589.415)" class="st9 st10">e</text>
			</g>
			<g class="st8">
				<text transform="matrix(1 0 0 1 325.4004 589.415)" class="st9 st10">r</text>
			</g>
			<g class="st8">
				<text transform="matrix(1 0 0 1 335.2881 589.415)" class="st9 st10">g</text>
			</g>
			<g class="st8">
				<text transform="matrix(1 0 0 1 346.9111 589.415)" class="st9 st10">í</text>
			</g>
			<g class="st8">
				<text transform="matrix(1 0 0 1 353.7676 589.415)" class="st9 st10">a</text>
			</g>
			<g class="st8">
				<text transform="matrix(1 0 0 1 365.5664 589.415)" class="st9 st10"> </text>
			</g>
			<g class="st8">
				<text transform="matrix(1 0 0 1 369.7402 589.415)" class="st9 st10">u</text>
			</g>
			<g class="st8">
				<text transform="matrix(1 0 0 1 382.3086 589.415)" class="st9 st10">t</text>
			</g>
			<g class="st8">
				<text transform="matrix(1 0 0 1 390.5918 589.415)" class="st9 st10">i</text>
			</g>
			<g class="st8">
				<text transform="matrix(1 0 0 1 397.4473 589.415)" class="st9 st10">l</text>
			</g>
			<g class="st8">
				<text transform="matrix(1 0 0 1 404.457 589.415)" class="st9 st10">i</text>
			</g>
			<g class="st8">
				<text transform="matrix(1 0 0 1 411.3125 589.415)" class="st9 st10">z</text>
			</g>
			<g class="st8">
				<text transform="matrix(1 0 0 1 422.4521 589.415)" class="st9 st10">a</text>
			</g>
			<g class="st8">
				<text transform="matrix(1 0 0 1 434.251 589.415)" class="st9 st10">d</text>
			</g>
			<g class="st8">
				<text transform="matrix(1 0 0 1 446.6875 589.415)" class="st9 st10">a</text>
			</g>
			<g class="st8">
				<text transform="matrix(1 0 0 1 458.4873 589.415)" class="st9 st10"> </text>
			</g>
			<g class="st8">
				<text transform="matrix(1 0 0 1 462.6621 589.415)" class="st9 st10">p</text>
			</g>
			<g class="st8">
				<text transform="matrix(1 0 0 1 475.1426 589.415)" class="st9 st10">o</text>
			</g>
			<g class="st8">
				<text transform="matrix(1 0 0 1 487.1387 589.415)" class="st9 st10">r</text>
			</g>
			<g class="st8">
				<text transform="matrix(1 0 0 1 497.0264 589.415)" class="st9 st10"> </text>
			</g>
			<g class="st8">
				<text transform="matrix(1 0 0 1 501.2012 589.415)" class="st9 st10">C</text>
			</g>
			<g class="st8">
				<text transform="matrix(1 0 0 1 513.7256 589.415)" class="st9 st10">h</text>
			</g>
			<g class="st8">
				<text transform="matrix(1 0 0 1 526.9531 589.415)" class="st9 st10">i</text>
			</g>
			<g class="st8">
				<text transform="matrix(1 0 0 1 533.8086 589.415)" class="st9 st10">l</text>
			</g>
			<g class="st8">
				<text transform="matrix(1 0 0 1 540.8174 589.415)" class="st9 st10">o</text>
			</g>
			<g class="st8">
				<text transform="matrix(1 0 0 1 552.8145 589.415)" class="st9 st10">é</text>
			</g>
			<g class="st8">
				<text transform="matrix(1 0 0 1 563.8398 589.415)" class="st9 st10"> </text>
			</g>
		</g>
		<g class="st0">
			<defs>
				<rect id="SVGID_17_" y="-7.92" width="1440" height="817.5"/>
			</defs>
			<clipPath id="SVGID_18_">
				<use xlink:href="#SVGID_17_"  style="overflow:visible;"/>
			</clipPath>
			<g class="st11">
				<defs>
					<rect id="SVGID_19_" y="-7.92" width="1440" height="810"/>
				</defs>
				<clipPath id="SVGID_20_">
					<use xlink:href="#SVGID_19_"  style="overflow:visible;"/>
				</clipPath>
				<g class="st12">
					<defs>
						<rect id="SVGID_21_" y="-7.92" width="1440" height="810"/>
					</defs>
					<clipPath id="SVGID_22_">
						<use xlink:href="#SVGID_21_"  style="overflow:visible;"/>
					</clipPath>
					<g class="st13">
						<defs>
							<rect id="SVGID_23_" x="579" y="154.3" width="556.86" height="257.49"/>
						</defs>
						<clipPath id="SVGID_24_">
							<use xlink:href="#SVGID_23_"  style="overflow:visible;"/>
						</clipPath>
						<g class="st14">
							<defs>
								<path id="SVGID_25_" d="M579,154.3h535.94c1.35,0,2.69,0.13,4.01,0.4c1.33,0.26,2.61,0.65,3.86,1.17
									c1.25,0.52,2.43,1.15,3.56,1.9c1.12,0.75,2.16,1.6,3.12,2.56c0.96,0.96,1.81,1.99,2.56,3.12c0.75,1.12,1.38,2.31,1.9,3.56
									c0.52,1.25,0.91,2.54,1.17,3.86c0.26,1.33,0.4,2.66,0.4,4.01v216.07c0,1.35-0.13,2.69-0.4,4.01
									c-0.26,1.33-0.65,2.61-1.17,3.86c-0.52,1.25-1.15,2.43-1.9,3.56c-0.75,1.12-1.6,2.16-2.56,3.12
									c-0.96,0.96-1.99,1.81-3.12,2.56c-1.12,0.75-2.31,1.38-3.56,1.9c-1.25,0.52-2.54,0.91-3.86,1.17
									c-1.33,0.26-2.66,0.4-4.01,0.4H579V154.3z"/>
							</defs>
							<clipPath id="SVGID_26_">
								<use xlink:href="#SVGID_25_"  style="overflow:visible;"/>
							</clipPath>
							<rect x="579" y="154.3" class="st15" width="556.86" height="556.17"/>
						</g>
					</g>
				</g>
			</g>
		</g>
		<g class="st0">
			<defs>
				<rect id="SVGID_27_" y="-7.92" width="1440" height="817.5"/>
			</defs>
			<clipPath id="SVGID_28_">
				<use xlink:href="#SVGID_27_"  style="overflow:visible;"/>
			</clipPath>
			<g class="st16">
				<defs>
					<rect id="SVGID_29_" y="-7.92" width="1440" height="810"/>
				</defs>
				<clipPath id="SVGID_30_">
					<use xlink:href="#SVGID_29_"  style="overflow:visible;"/>
				</clipPath>
				<g class="st17">
					<defs>
						<rect id="SVGID_31_" y="-7.92" width="1440" height="810"/>
					</defs>
					<clipPath id="SVGID_32_">
						<use xlink:href="#SVGID_31_"  style="overflow:visible;"/>
					</clipPath>
					<g class="st18">
						<defs>
							<rect id="SVGID_33_" x="579" y="452.3" width="56.99" height="258.86"/>
						</defs>
						<clipPath id="SVGID_34_">
							<use xlink:href="#SVGID_33_"  style="overflow:visible;"/>
						</clipPath>
						<g class="st19">
							<defs>
								<path id="SVGID_35_" d="M579,453.25h35.38c1.37-0.02,2.72,0.09,4.06,0.34s2.65,0.62,3.92,1.13
									c1.27,0.51,2.47,1.13,3.62,1.88c1.14,0.75,2.2,1.6,3.18,2.56c0.97,0.96,1.84,2,2.61,3.13s1.41,2.33,1.94,3.59
									s0.93,2.56,1.2,3.9c0.27,1.34,0.4,2.69,0.4,4.06V689.9c0,1.37-0.13,2.72-0.4,4.06s-0.67,2.64-1.2,3.9
									c-0.53,1.26-1.17,2.45-1.94,3.59s-1.64,2.18-2.61,3.13c-0.97,0.96-2.03,1.81-3.18,2.56c-1.14,0.75-2.35,1.37-3.62,1.88
									c-1.27,0.51-2.57,0.88-3.92,1.13s-2.7,0.36-4.06,0.34H579V453.25z"/>
							</defs>
							<clipPath id="SVGID_36_">
								<use xlink:href="#SVGID_35_"  style="overflow:visible;"/>
							</clipPath>
							<rect x="579" y="154.3" class="st20" width="556.86" height="556.17"/>
						</g>
					</g>
				</g>
			</g>
		</g>
		<g class="st0">
			<defs>
				<rect id="SVGID_37_" y="-7.92" width="1440" height="817.5"/>
			</defs>
			<clipPath id="SVGID_38_">
				<use xlink:href="#SVGID_37_"  style="overflow:visible;"/>
			</clipPath>
			<g class="st21">
				<defs>
					<rect id="SVGID_39_" y="-7.92" width="1440" height="810"/>
				</defs>
				<clipPath id="SVGID_40_">
					<use xlink:href="#SVGID_39_"  style="overflow:visible;"/>
				</clipPath>
				<g class="st22">
					<defs>
						<rect id="SVGID_41_" y="-7.92" width="1440" height="810"/>
					</defs>
					<clipPath id="SVGID_42_">
						<use xlink:href="#SVGID_41_"  style="overflow:visible;"/>
					</clipPath>
					<g class="st23">
						<defs>
							<rect id="SVGID_43_" x="579" y="154.3" width="556.86" height="257.49"/>
						</defs>
						<clipPath id="SVGID_44_">
							<use xlink:href="#SVGID_43_"  style="overflow:visible;"/>
						</clipPath>
						<g class="st24">
							<defs>
								<path id="SVGID_45_" d="M579,154.3h535.94c1.35,0,2.69,0.13,4.01,0.4c1.33,0.26,2.61,0.65,3.86,1.17
									c1.25,0.52,2.43,1.15,3.56,1.9c1.12,0.75,2.16,1.6,3.12,2.56c0.96,0.96,1.81,1.99,2.56,3.12c0.75,1.12,1.38,2.31,1.9,3.56
									c0.52,1.25,0.91,2.54,1.17,3.86c0.26,1.33,0.4,2.66,0.4,4.01v216.07c0,1.35-0.13,2.69-0.4,4.01
									c-0.26,1.33-0.65,2.61-1.17,3.86c-0.52,1.25-1.15,2.43-1.9,3.56c-0.75,1.12-1.6,2.16-2.56,3.12
									c-0.96,0.96-1.99,1.81-3.12,2.56c-1.12,0.75-2.31,1.38-3.56,1.9c-1.25,0.52-2.54,0.91-3.86,1.17
									c-1.33,0.26-2.66,0.4-4.01,0.4H579V154.3z"/>
							</defs>
							<clipPath id="SVGID_46_">
								<use xlink:href="#SVGID_45_"  style="overflow:visible;"/>
							</clipPath>
							<rect x="579" y="154.3" class="st25" width="556.86" height="556.17"/>
						</g>
					</g>
				</g>
			</g>
		</g>
		<g class="st0">
			<defs>
				<rect id="SVGID_47_" y="-7.92" width="1440" height="810"/>
			</defs>
			<clipPath id="SVGID_48_">
				<use xlink:href="#SVGID_47_"  style="overflow:visible;"/>
			</clipPath>
			<g class="st26">
				<text transform="matrix(1 0 0 1 617.25 61.082)" class="st9 st27">C</text>
			</g>
			<g class="st26">
				<text transform="matrix(1 0 0 1 636.6279 61.082)" class="st9 st27">o</text>
			</g>
			<g class="st26">
				<text transform="matrix(1 0 0 1 655.1895 61.082)" class="st9 st27">m</text>
			</g>
			<g class="st26">
				<text transform="matrix(1 0 0 1 685.9902 61.082)" class="st9 st27">p</text>
			</g>
			<g class="st26">
				<text transform="matrix(1 0 0 1 705.3008 61.082)" class="st9 st27">a</text>
			</g>
			<g class="st26">
				<text transform="matrix(1 0 0 1 723.5557 61.082)" class="st9 st27">r</text>
			</g>
			<g class="st26">
				<text transform="matrix(1 0 0 1 738.8535 61.082)" class="st9 st27">a</text>
			</g>
			<g class="st26">
				<text transform="matrix(1 0 0 1 757.1104 61.082)" class="st9 st27">c</text>
			</g>
			<g class="st26">
				<text transform="matrix(1 0 0 1 772.8164 61.082)" class="st9 st27">i</text>
			</g>
			<g class="st26">
				<text transform="matrix(1 0 0 1 783.4238 61.082)" class="st9 st27">ó</text>
			</g>
			<g class="st26">
				<text transform="matrix(1 0 0 1 801.9854 61.082)" class="st9 st27">n</text>
			</g>
			<g class="st26">
				<text transform="matrix(1 0 0 1 486.7031 108.332)" class="st9 st27"> </text>
			</g>
			<g class="st26">
				<text transform="matrix(1 0 0 1 493.1602 108.332)" class="st9 st27">p</text>
			</g>
			<g class="st26">
				<text transform="matrix(1 0 0 1 512.4697 108.332)" class="st9 st27">r</text>
			</g>
			<g class="st26">
				<text transform="matrix(1 0 0 1 527.7686 108.332)" class="st9 st27">o</text>
			</g>
			<g class="st26">
				<text transform="matrix(1 0 0 1 546.3301 108.332)" class="st9 st27">d</text>
			</g>
			<g class="st26">
				<text transform="matrix(1 0 0 1 565.5723 108.332)" class="st9 st27">u</text>
			</g>
			<g class="st26">
				<text transform="matrix(1 0 0 1 585.0176 108.332)" class="st9 st27">c</text>
			</g>
			<g class="st26">
				<text transform="matrix(1 0 0 1 600.7236 108.332)" class="st9 st27">c</text>
			</g>
			<g class="st26">
				<text transform="matrix(1 0 0 1 616.4297 108.332)" class="st9 st27">i</text>
			</g>
			<g class="st26">
				<text transform="matrix(1 0 0 1 627.0371 108.332)" class="st9 st27">ó</text>
			</g>
			<g class="st26">
				<text transform="matrix(1 0 0 1 645.5986 108.332)" class="st9 st27">n</text>
			</g>
			<g class="st26">
				<text transform="matrix(1 0 0 1 666.3711 108.332)" class="st9 st27"> </text>
			</g>
			<g class="st26">
				<text transform="matrix(1 0 0 1 672.8301 108.332)" class="st9 st27">y</text>
			</g>
			<g class="st26">
				<text transform="matrix(1 0 0 1 690.8477 108.332)" class="st9 st27"> </text>
			</g>
			<g class="st26">
				<text transform="matrix(1 0 0 1 697.3066 108.332)" class="st9 st27">u</text>
			</g>
			<g class="st26">
				<text transform="matrix(1 0 0 1 716.752 108.332)" class="st9 st27">s</text>
			</g>
			<g class="st26">
				<text transform="matrix(1 0 0 1 732.9004 108.332)" class="st9 st27">o</text>
			</g>
			<g class="st26">
				<text transform="matrix(1 0 0 1 751.4629 108.332)" class="st9 st27"> </text>
			</g>
			<g class="st26">
				<text transform="matrix(1 0 0 1 757.9219 108.332)" class="st9 st27">d</text>
			</g>
			<g class="st26">
				<text transform="matrix(1 0 0 1 777.1631 108.332)" class="st9 st27">e</text>
			</g>
			<g class="st26">
				<text transform="matrix(1 0 0 1 794.2295 108.332)" class="st9 st27"> </text>
			</g>
			<g class="st26">
				<text transform="matrix(1 0 0 1 800.6885 108.332)" class="st9 st27">l</text>
			</g>
			<g class="st26">
				<text transform="matrix(1 0 0 1 811.5332 108.332)" class="st9 st27">a</text>
			</g>
			<g class="st26">
				<text transform="matrix(1 0 0 1 829.7891 108.332)" class="st9 st27"> </text>
			</g>
			<g class="st26">
				<text transform="matrix(1 0 0 1 836.248 108.332)" class="st9 st27">e</text>
			</g>
			<g class="st26">
				<text transform="matrix(1 0 0 1 853.3145 108.332)" class="st9 st27">n</text>
			</g>
			<g class="st26">
				<text transform="matrix(1 0 0 1 874.0869 108.332)" class="st9 st27">e</text>
			</g>
			<g class="st26">
				<text transform="matrix(1 0 0 1 891.1523 108.332)" class="st9 st27">r</text>
			</g>
			<g class="st26">
				<text transform="matrix(1 0 0 1 906.4512 108.332)" class="st9 st27">g</text>
			</g>
			<g class="st26">
				<text transform="matrix(1 0 0 1 924.4355 108.332)" class="st9 st27">í</text>
			</g>
			<g class="st26">
				<text transform="matrix(1 0 0 1 935.041 108.332)" class="st9 st27">a</text>
			</g>
		</g>
	</g>
</g>
</svg>
