<?xml version="1.0" encoding="utf-8"?>
<!-- Generator: Adobe Illustrator 27.1.0, SVG Export Plug-In . SVG Version: 6.00 Build 0)  -->
<svg version="1.1" id="Capa_1" xmlns="http://www.w3.org/2000/svg" xmlns:xlink="http://www.w3.org/1999/xlink" x="0px" y="0px"
	 viewBox="0 0 800 400" style="enable-background:new 0 0 800 400;" xml:space="preserve">
<style type="text/css">
	.st0{fill:#4F6384;}
	.st1{fill:#AFA584;}
	.st2{fill:#7F7865;}
	.st3{fill:#686868;}
	.st4{fill:#FFDE14;}
	.st5{fill:#6078A6;}
	.st6{fill:#E0E0E0;}
	.st7{fill:#70695A;}
	.st8{fill:#A3A3A3;}
	.st9{fill:none;stroke:#FFFFFF;stroke-miterlimit:10;}
	.st10{stroke:#FFFFFF;stroke-width:2;stroke-miterlimit:10;}
	.st11{font-family:'Helvetica';}
	.st12{font-size:10px;}
	.st13{fill:#FFFFFF;stroke:#FFFFFF;stroke-width:2;stroke-miterlimit:10;}
</style>
<g>
	<g id="XMLID_00000102521808976143192530000006697121806187326629_">
		<g>
			<polygon class="st0" points="800,322.26 800,400 787.35,400 787.35,377.04 787.35,322.26 			"/>
			<polygon class="st1" points="800,0 800,322.26 787.35,322.26 714.96,322.26 648.83,322.26 639.43,322.26 639.43,0 			"/>
			<rect x="714.96" y="377.04" class="st2" width="72.39" height="22.96"/>
			<rect x="714.96" y="322.26" class="st3" width="72.39" height="54.78"/>
			<polygon class="st4" points="714.96,377.04 714.96,400 648.83,400 648.83,322.26 714.96,322.26 			"/>
			<polygon class="st5" points="648.83,322.26 648.83,400 426.17,400 426.17,398.85 426.17,322.26 639.43,322.26 			"/>
			<polygon class="st6" points="639.43,0 639.43,322.26 426.17,322.26 426.17,221.7 426.17,0 			"/>
			<polygon class="st7" points="426.17,398.85 426.17,400 0,400 0,221.7 426.17,221.7 426.17,322.26 			"/>
			<rect class="st8" width="426.17" height="221.7"/>
		</g>
		<g>
			<polyline class="st9" points="426.17,0 426.17,221.7 426.17,322.26 426.17,398.85 			"/>
			<line class="st9" x1="426.17" y1="221.7" x2="0" y2="221.7"/>
			<polyline class="st9" points="426.17,322.26 639.43,322.26 648.83,322.26 714.96,322.26 787.35,322.26 800,322.26 			"/>
			<line class="st9" x1="639.43" y1="0" x2="639.43" y2="322.26"/>
			<line class="st9" x1="648.83" y1="322.26" x2="648.83" y2="400"/>
			<polyline class="st9" points="714.96,322.26 714.96,377.04 714.96,400 			"/>
			<polyline class="st9" points="787.35,322.26 787.35,377.04 787.35,400 			"/>
			<line class="st9" x1="714.96" y1="377.04" x2="787.35" y2="377.04"/>
			<polygon class="st9" points="800,322.26 800,400 787.35,400 714.96,400 648.83,400 426.17,400 0,400 0,221.7 0,0 426.17,0 
				639.43,0 800,0 			"/>
		</g>
	</g>
</g>
<g>
	<path class="st10" d="M6.83,230.72h3.08c0.84,0,1.44,0.25,1.79,0.75c0.21,0.3,0.31,0.64,0.31,1.03c0,0.45-0.13,0.82-0.39,1.11
		c-0.13,0.15-0.33,0.29-0.58,0.42c0.37,0.14,0.64,0.3,0.83,0.47c0.32,0.31,0.48,0.74,0.48,1.29c0,0.46-0.15,0.88-0.43,1.25
		c-0.43,0.56-1.12,0.84-2.07,0.84H6.83V230.72z M9.55,233.76c0.41,0,0.73-0.06,0.96-0.17c0.36-0.18,0.54-0.5,0.54-0.97
		c0-0.47-0.19-0.79-0.57-0.95c-0.21-0.09-0.53-0.14-0.96-0.14H7.78v2.22H9.55z M9.88,237.07c0.6,0,1.02-0.17,1.27-0.52
		c0.16-0.22,0.24-0.48,0.24-0.79c0-0.52-0.23-0.88-0.7-1.06c-0.25-0.1-0.57-0.15-0.98-0.15H7.78v2.52H9.88z"/>
	<path class="st10" d="M13.41,230.72h0.89v1h-0.89V230.72z M13.41,232.69h0.89v5.21h-0.89V232.69z"/>
	<path class="st10" d="M19.45,233.19c0.47,0.45,0.7,1.11,0.7,1.98c0,0.84-0.21,1.54-0.62,2.09c-0.41,0.55-1.05,0.83-1.91,0.83
		c-0.72,0-1.29-0.24-1.71-0.73c-0.42-0.49-0.63-1.14-0.63-1.96c0-0.88,0.22-1.58,0.67-2.1c0.45-0.52,1.04-0.78,1.8-0.78
		C18.41,232.52,18.98,232.74,19.45,233.19z M18.9,236.67c0.22-0.44,0.32-0.93,0.32-1.47c0-0.49-0.08-0.89-0.23-1.19
		c-0.25-0.48-0.67-0.72-1.28-0.72c-0.54,0-0.93,0.21-1.17,0.62s-0.37,0.9-0.37,1.48c0,0.56,0.12,1.02,0.37,1.39s0.63,0.56,1.16,0.56
		C18.29,237.33,18.69,237.11,18.9,236.67z"/>
	<path class="st10" d="M21.19,232.67h0.87v0.74c0.21-0.26,0.4-0.44,0.57-0.56c0.29-0.2,0.62-0.3,0.99-0.3c0.42,0,0.75,0.1,1.01,0.31
		c0.14,0.12,0.27,0.29,0.39,0.52c0.2-0.28,0.42-0.49,0.69-0.62c0.26-0.13,0.56-0.2,0.89-0.2c0.7,0,1.18,0.25,1.44,0.76
		c0.14,0.27,0.21,0.64,0.21,1.1v3.48h-0.91v-3.63c0-0.35-0.09-0.59-0.26-0.72c-0.17-0.13-0.39-0.2-0.64-0.2
		c-0.35,0-0.64,0.12-0.89,0.35c-0.25,0.23-0.37,0.62-0.37,1.16v3.04h-0.89v-3.41c0-0.36-0.04-0.61-0.13-0.78
		c-0.13-0.24-0.38-0.37-0.75-0.37c-0.33,0-0.63,0.13-0.91,0.39c-0.27,0.26-0.41,0.72-0.41,1.4v2.77h-0.88V232.67z"/>
	<path class="st10" d="M32.32,234.73c0.2-0.03,0.34-0.11,0.41-0.25c0.04-0.08,0.06-0.19,0.06-0.34c0-0.3-0.11-0.52-0.32-0.65
		c-0.21-0.13-0.52-0.2-0.92-0.2c-0.46,0-0.78,0.12-0.98,0.37c-0.11,0.14-0.18,0.34-0.21,0.61h-0.82c0.02-0.64,0.23-1.09,0.63-1.35
		c0.4-0.25,0.87-0.38,1.4-0.38c0.62,0,1.11,0.12,1.5,0.35c0.38,0.23,0.57,0.6,0.57,1.09V237c0,0.09,0.02,0.16,0.06,0.22
		c0.04,0.05,0.12,0.08,0.24,0.08c0.04,0,0.08,0,0.13-0.01s0.1-0.01,0.16-0.02v0.65c-0.14,0.04-0.24,0.06-0.31,0.07
		s-0.17,0.01-0.29,0.01c-0.3,0-0.52-0.11-0.66-0.32c-0.07-0.11-0.12-0.28-0.15-0.48c-0.18,0.23-0.44,0.44-0.77,0.61
		c-0.34,0.17-0.7,0.26-1.11,0.26c-0.48,0-0.88-0.15-1.19-0.44c-0.31-0.29-0.46-0.66-0.46-1.11c0-0.49,0.15-0.86,0.45-1.13
		c0.3-0.27,0.7-0.43,1.19-0.49L32.32,234.73z M30.47,237.11c0.19,0.15,0.41,0.22,0.66,0.22c0.31,0,0.61-0.07,0.9-0.21
		c0.49-0.24,0.73-0.63,0.73-1.17v-0.71c-0.11,0.07-0.25,0.12-0.42,0.17c-0.17,0.04-0.34,0.08-0.5,0.1l-0.53,0.07
		c-0.32,0.04-0.56,0.11-0.72,0.2c-0.27,0.15-0.41,0.4-0.41,0.73C30.2,236.76,30.29,236.96,30.47,237.11z"/>
	<path class="st10" d="M35.61,236.26c0.03,0.29,0.1,0.52,0.22,0.67c0.22,0.28,0.61,0.42,1.15,0.42c0.33,0,0.61-0.07,0.86-0.21
		s0.37-0.36,0.37-0.66c0-0.22-0.1-0.4-0.3-0.51c-0.13-0.07-0.38-0.16-0.75-0.25l-0.7-0.18c-0.45-0.11-0.77-0.23-0.99-0.37
		c-0.38-0.24-0.57-0.57-0.57-0.99c0-0.5,0.18-0.9,0.53-1.2c0.36-0.31,0.84-0.46,1.44-0.46c0.79,0,1.36,0.23,1.7,0.69
		c0.22,0.29,0.32,0.61,0.32,0.95h-0.83c-0.02-0.2-0.09-0.38-0.21-0.54c-0.2-0.23-0.55-0.35-1.05-0.35c-0.33,0-0.58,0.06-0.75,0.19
		s-0.26,0.29-0.26,0.5c0,0.23,0.11,0.41,0.34,0.55c0.13,0.08,0.32,0.15,0.58,0.21l0.58,0.14c0.63,0.15,1.05,0.3,1.27,0.44
		c0.34,0.22,0.51,0.58,0.51,1.06c0,0.46-0.18,0.87-0.53,1.21c-0.35,0.34-0.89,0.51-1.61,0.51c-0.78,0-1.33-0.18-1.65-0.53
		c-0.32-0.35-0.5-0.79-0.52-1.31H35.61z"/>
	<path class="st10" d="M42.89,234.73c0.2-0.03,0.34-0.11,0.41-0.25c0.04-0.08,0.06-0.19,0.06-0.34c0-0.3-0.11-0.52-0.32-0.65
		c-0.21-0.13-0.52-0.2-0.92-0.2c-0.46,0-0.78,0.12-0.98,0.37c-0.11,0.14-0.18,0.34-0.21,0.61h-0.82c0.02-0.64,0.23-1.09,0.63-1.35
		c0.4-0.25,0.87-0.38,1.4-0.38c0.62,0,1.11,0.12,1.5,0.35c0.38,0.23,0.57,0.6,0.57,1.09V237c0,0.09,0.02,0.16,0.06,0.22
		c0.04,0.05,0.12,0.08,0.24,0.08c0.04,0,0.08,0,0.13-0.01s0.1-0.01,0.16-0.02v0.65c-0.14,0.04-0.24,0.06-0.31,0.07
		s-0.17,0.01-0.29,0.01c-0.3,0-0.52-0.11-0.66-0.32c-0.07-0.11-0.12-0.28-0.15-0.48c-0.18,0.23-0.44,0.44-0.77,0.61
		c-0.34,0.17-0.7,0.26-1.11,0.26c-0.48,0-0.88-0.15-1.19-0.44c-0.31-0.29-0.46-0.66-0.46-1.11c0-0.49,0.15-0.86,0.45-1.13
		c0.3-0.27,0.7-0.43,1.19-0.49L42.89,234.73z M41.04,237.11c0.19,0.15,0.41,0.22,0.66,0.22c0.31,0,0.61-0.07,0.9-0.21
		c0.49-0.24,0.73-0.63,0.73-1.17v-0.71c-0.11,0.07-0.25,0.12-0.42,0.17c-0.17,0.04-0.34,0.08-0.5,0.1l-0.53,0.07
		c-0.32,0.04-0.56,0.11-0.72,0.2c-0.27,0.15-0.41,0.4-0.41,0.73C40.76,236.76,40.85,236.96,41.04,237.11z"/>
</g>
<g>
	<path class="st10" d="M440.84,10.54c0.5,0.48,0.78,1.02,0.83,1.63h-0.95c-0.11-0.46-0.32-0.83-0.64-1.1
		c-0.32-0.27-0.77-0.41-1.35-0.41c-0.71,0-1.28,0.25-1.71,0.74s-0.65,1.26-0.65,2.28c0,0.84,0.2,1.52,0.59,2.04
		c0.39,0.52,0.98,0.78,1.75,0.78c0.72,0,1.26-0.27,1.64-0.83c0.2-0.29,0.35-0.67,0.44-1.14h0.95c-0.08,0.76-0.36,1.39-0.84,1.9
		c-0.57,0.62-1.34,0.92-2.3,0.92c-0.83,0-1.53-0.25-2.1-0.76c-0.75-0.67-1.12-1.7-1.12-3.09c0-1.06,0.28-1.93,0.84-2.6
		c0.61-0.74,1.44-1.1,2.5-1.1C439.63,9.83,440.34,10.07,440.84,10.54z"/>
	<path class="st10" d="M445.61,14.03c0.2-0.03,0.34-0.11,0.41-0.25c0.04-0.08,0.06-0.19,0.06-0.34c0-0.3-0.11-0.52-0.32-0.65
		c-0.21-0.14-0.52-0.2-0.92-0.2c-0.46,0-0.78,0.12-0.98,0.37c-0.11,0.14-0.18,0.34-0.21,0.61h-0.82c0.02-0.64,0.23-1.09,0.63-1.35
		c0.4-0.25,0.87-0.38,1.4-0.38c0.62,0,1.12,0.12,1.5,0.35c0.38,0.23,0.57,0.6,0.57,1.09v3.01c0,0.09,0.02,0.16,0.06,0.22
		c0.04,0.06,0.12,0.08,0.24,0.08c0.04,0,0.08,0,0.13-0.01s0.1-0.01,0.16-0.02v0.65c-0.14,0.04-0.24,0.06-0.31,0.07
		c-0.07,0.01-0.17,0.01-0.29,0.01c-0.3,0-0.52-0.11-0.66-0.32c-0.07-0.11-0.12-0.27-0.15-0.48c-0.18,0.23-0.44,0.44-0.77,0.61
		c-0.33,0.17-0.7,0.26-1.11,0.26c-0.48,0-0.88-0.15-1.19-0.44s-0.46-0.66-0.46-1.11c0-0.48,0.15-0.86,0.45-1.13s0.7-0.43,1.19-0.49
		L445.61,14.03z M443.76,16.4c0.19,0.15,0.41,0.22,0.66,0.22c0.31,0,0.61-0.07,0.9-0.21c0.49-0.24,0.73-0.63,0.73-1.17v-0.71
		c-0.11,0.07-0.25,0.13-0.42,0.17c-0.17,0.05-0.33,0.08-0.5,0.1l-0.53,0.07c-0.32,0.04-0.56,0.11-0.72,0.2
		c-0.27,0.15-0.41,0.4-0.41,0.73C443.48,16.06,443.57,16.26,443.76,16.4z"/>
	<path class="st10" d="M448.39,11.96h0.83v0.9c0.07-0.18,0.24-0.39,0.5-0.64c0.27-0.25,0.58-0.38,0.92-0.38c0.02,0,0.04,0,0.08,0
		s0.11,0.01,0.2,0.02v0.93c-0.05-0.01-0.1-0.02-0.14-0.02s-0.09,0-0.14,0c-0.44,0-0.78,0.14-1.02,0.43
		c-0.24,0.28-0.36,0.61-0.36,0.98v3.01h-0.88V11.96z"/>
	<path class="st10" d="M451.63,10h0.85v2.6c0.19-0.25,0.42-0.44,0.69-0.57c0.27-0.13,0.56-0.2,0.87-0.2c0.65,0,1.18,0.22,1.58,0.67
		s0.61,1.11,0.61,1.98c0,0.83-0.2,1.51-0.6,2.06s-0.96,0.82-1.67,0.82c-0.4,0-0.73-0.1-1.01-0.29c-0.16-0.11-0.34-0.3-0.52-0.55
		v0.67h-0.81V10z M454.98,16.02c0.24-0.38,0.35-0.88,0.35-1.49c0-0.55-0.12-1.01-0.35-1.37c-0.24-0.36-0.58-0.54-1.04-0.54
		c-0.4,0-0.75,0.15-1.05,0.44c-0.3,0.3-0.45,0.78-0.45,1.46c0,0.49,0.06,0.89,0.19,1.2c0.23,0.58,0.66,0.86,1.29,0.86
		C454.39,16.58,454.75,16.4,454.98,16.02z"/>
	<path class="st10" d="M461.08,12.49c0.47,0.45,0.7,1.11,0.7,1.98c0,0.84-0.21,1.54-0.62,2.09s-1.05,0.83-1.91,0.83
		c-0.72,0-1.29-0.24-1.71-0.73c-0.42-0.49-0.63-1.14-0.63-1.96c0-0.88,0.22-1.58,0.67-2.1c0.45-0.52,1.04-0.78,1.8-0.78
		C460.04,11.81,460.61,12.04,461.08,12.49z M460.54,15.97c0.22-0.44,0.32-0.93,0.32-1.47c0-0.49-0.08-0.89-0.23-1.19
		c-0.25-0.48-0.67-0.72-1.28-0.72c-0.54,0-0.93,0.21-1.17,0.62s-0.37,0.9-0.37,1.48c0,0.56,0.12,1.02,0.37,1.39s0.63,0.56,1.16,0.56
		C459.92,16.63,460.32,16.41,460.54,15.97z M460.39,9.86l-1.3,1.41h-0.67l0.89-1.41H460.39z"/>
	<path class="st10" d="M462.82,11.96h0.83v0.74c0.25-0.31,0.51-0.53,0.79-0.66c0.28-0.13,0.58-0.2,0.92-0.2
		c0.74,0,1.24,0.26,1.5,0.78c0.14,0.28,0.21,0.69,0.21,1.22v3.35h-0.89v-3.3c0-0.32-0.05-0.58-0.14-0.77
		c-0.16-0.33-0.44-0.49-0.85-0.49c-0.21,0-0.38,0.02-0.51,0.06c-0.24,0.07-0.45,0.21-0.63,0.43c-0.15,0.17-0.24,0.35-0.29,0.53
		s-0.07,0.45-0.07,0.79v2.74h-0.88V11.96z"/>
</g>
<g>
	<path class="st10" d="M436.17,330.7h0.98v2.96h3.73v-2.96h0.98v7.17h-0.98v-3.35h-3.73v3.35h-0.98V330.7z"/>
	<path class="st10" d="M445.08,330.54l-1.3,1.41h-0.67l0.89-1.41H445.08z M443.53,332.67h0.89v5.21h-0.89V332.67z"/>
	<path class="st10" d="M448.91,332.81c0.16,0.1,0.33,0.27,0.53,0.51v-2.64h0.84v7.2h-0.79v-0.73c-0.21,0.32-0.45,0.56-0.73,0.7
		c-0.28,0.14-0.6,0.21-0.96,0.21c-0.58,0-1.09-0.25-1.51-0.73c-0.43-0.49-0.64-1.14-0.64-1.96c0-0.76,0.19-1.42,0.58-1.98
		c0.39-0.56,0.95-0.84,1.67-0.84C448.31,332.55,448.64,332.64,448.91,332.81z M446.94,336.73c0.24,0.38,0.62,0.57,1.14,0.57
		c0.41,0,0.74-0.17,1-0.52c0.26-0.35,0.39-0.85,0.39-1.51c0-0.66-0.14-1.15-0.41-1.47c-0.27-0.32-0.6-0.48-1-0.48
		c-0.44,0-0.8,0.17-1.08,0.51c-0.27,0.34-0.41,0.84-0.41,1.49C446.58,335.88,446.7,336.35,446.94,336.73z"/>
	<path class="st10" d="M451.61,332.64h0.83v0.9c0.07-0.18,0.24-0.39,0.5-0.64c0.27-0.25,0.57-0.38,0.92-0.38c0.02,0,0.04,0,0.08,0
		c0.04,0,0.11,0.01,0.2,0.02v0.93c-0.05-0.01-0.1-0.02-0.14-0.02c-0.04,0-0.09,0-0.14,0c-0.44,0-0.78,0.14-1.02,0.43
		c-0.24,0.28-0.36,0.61-0.36,0.98v3.01h-0.88V332.64z"/>
	<path class="st10" d="M454.92,330.7h0.89v1h-0.89V330.7z M454.92,332.67h0.89v5.21h-0.89V332.67z"/>
	<path class="st10" d="M460.59,332.92c0.37,0.29,0.59,0.78,0.67,1.48h-0.85c-0.05-0.32-0.17-0.59-0.36-0.8
		c-0.19-0.21-0.48-0.32-0.89-0.32c-0.56,0-0.96,0.27-1.2,0.82c-0.16,0.36-0.23,0.79-0.23,1.31c0,0.52,0.11,0.97,0.33,1.32
		c0.22,0.36,0.57,0.54,1.04,0.54c0.36,0,0.65-0.11,0.87-0.33c0.21-0.22,0.36-0.53,0.44-0.92h0.85c-0.1,0.69-0.34,1.2-0.73,1.52
		c-0.39,0.32-0.89,0.48-1.5,0.48c-0.68,0-1.23-0.25-1.64-0.75c-0.41-0.5-0.61-1.12-0.61-1.87c0-0.92,0.22-1.63,0.67-2.14
		c0.45-0.51,1.01-0.77,1.7-0.77C459.75,332.49,460.22,332.64,460.59,332.92z"/>
	<path class="st10" d="M464.94,334.71c0.2-0.03,0.34-0.11,0.41-0.25c0.04-0.08,0.06-0.19,0.06-0.34c0-0.3-0.11-0.52-0.32-0.65
		c-0.21-0.14-0.52-0.2-0.92-0.2c-0.46,0-0.79,0.12-0.98,0.37c-0.11,0.14-0.18,0.34-0.21,0.61h-0.82c0.02-0.64,0.23-1.09,0.63-1.34
		c0.4-0.25,0.87-0.38,1.4-0.38c0.62,0,1.11,0.12,1.5,0.35c0.38,0.23,0.57,0.6,0.57,1.09v3.01c0,0.09,0.02,0.17,0.06,0.22
		c0.04,0.06,0.12,0.08,0.24,0.08c0.04,0,0.08,0,0.13-0.01s0.1-0.01,0.16-0.02v0.65c-0.14,0.04-0.24,0.06-0.31,0.07
		c-0.07,0.01-0.17,0.01-0.29,0.01c-0.3,0-0.52-0.11-0.66-0.32c-0.07-0.11-0.12-0.27-0.15-0.48c-0.18,0.23-0.44,0.44-0.77,0.61
		c-0.34,0.17-0.71,0.26-1.11,0.26c-0.49,0-0.88-0.15-1.19-0.44c-0.31-0.29-0.46-0.66-0.46-1.11c0-0.48,0.15-0.86,0.45-1.13
		c0.3-0.27,0.7-0.43,1.19-0.49L464.94,334.71z M463.09,337.08c0.19,0.15,0.41,0.22,0.66,0.22c0.31,0,0.61-0.07,0.9-0.21
		c0.49-0.24,0.73-0.63,0.73-1.17v-0.71c-0.11,0.07-0.25,0.13-0.42,0.17c-0.17,0.05-0.34,0.08-0.5,0.1l-0.53,0.07
		c-0.32,0.04-0.56,0.11-0.72,0.2c-0.27,0.15-0.41,0.4-0.41,0.73C462.81,336.74,462.91,336.94,463.09,337.08z"/>
</g>
<g>
	<path class="st10" d="M655.51,10.42c0.71,0.37,1.15,1.03,1.31,1.97h-0.96c-0.12-0.52-0.36-0.91-0.73-1.15
		c-0.37-0.24-0.83-0.36-1.39-0.36c-0.66,0-1.22,0.25-1.68,0.75s-0.68,1.24-0.68,2.23c0,0.85,0.19,1.55,0.56,2.08
		c0.38,0.54,0.99,0.8,1.83,0.8c0.65,0,1.18-0.19,1.61-0.56s0.64-0.98,0.65-1.82h-2.25v-0.81h3.15v3.84h-0.62l-0.23-0.92
		c-0.33,0.36-0.62,0.61-0.87,0.75c-0.43,0.24-0.97,0.36-1.63,0.36c-0.85,0-1.58-0.27-2.19-0.83c-0.67-0.69-1-1.64-1-2.84
		c0-1.2,0.33-2.16,0.98-2.87c0.62-0.68,1.42-1.02,2.4-1.02C654.44,10.03,655.02,10.16,655.51,10.42z"/>
	<path class="st10" d="M661.13,14.22c0.2-0.03,0.34-0.11,0.41-0.25c0.04-0.08,0.06-0.19,0.06-0.34c0-0.3-0.11-0.52-0.32-0.65
		c-0.21-0.14-0.52-0.2-0.92-0.2c-0.46,0-0.78,0.12-0.98,0.37c-0.11,0.14-0.18,0.34-0.21,0.61h-0.82c0.02-0.64,0.23-1.09,0.63-1.35
		c0.4-0.25,0.87-0.38,1.4-0.38c0.62,0,1.12,0.12,1.5,0.35c0.38,0.23,0.57,0.6,0.57,1.09v3.01c0,0.09,0.02,0.16,0.06,0.22
		c0.04,0.06,0.12,0.08,0.24,0.08c0.04,0,0.08,0,0.13-0.01s0.1-0.01,0.16-0.02v0.65c-0.14,0.04-0.24,0.06-0.31,0.07
		c-0.07,0.01-0.17,0.01-0.29,0.01c-0.3,0-0.52-0.11-0.66-0.32c-0.07-0.11-0.12-0.27-0.15-0.48c-0.18,0.23-0.44,0.44-0.77,0.61
		c-0.33,0.17-0.7,0.26-1.11,0.26c-0.48,0-0.88-0.15-1.19-0.44s-0.46-0.66-0.46-1.11c0-0.48,0.15-0.86,0.45-1.13s0.7-0.43,1.19-0.49
		L661.13,14.22z M659.28,16.59c0.19,0.15,0.41,0.22,0.66,0.22c0.31,0,0.61-0.07,0.9-0.21c0.49-0.24,0.73-0.63,0.73-1.17v-0.71
		c-0.11,0.07-0.25,0.13-0.42,0.17c-0.17,0.05-0.33,0.08-0.5,0.1l-0.53,0.07c-0.32,0.04-0.56,0.11-0.72,0.2
		c-0.27,0.15-0.41,0.4-0.41,0.73C659,16.25,659.09,16.45,659.28,16.59z"/>
	<path class="st10" d="M664.41,15.74c0.03,0.29,0.1,0.52,0.22,0.67c0.22,0.28,0.61,0.42,1.15,0.42c0.33,0,0.61-0.07,0.86-0.21
		c0.25-0.14,0.37-0.36,0.37-0.66c0-0.22-0.1-0.4-0.3-0.51c-0.13-0.07-0.38-0.15-0.75-0.25l-0.7-0.18c-0.45-0.11-0.77-0.23-0.99-0.37
		c-0.38-0.24-0.57-0.57-0.57-0.99c0-0.49,0.18-0.9,0.54-1.2s0.84-0.46,1.44-0.46c0.79,0,1.36,0.23,1.7,0.69
		c0.22,0.29,0.32,0.61,0.32,0.95h-0.83c-0.02-0.2-0.09-0.38-0.21-0.54c-0.2-0.23-0.55-0.35-1.05-0.35c-0.33,0-0.58,0.06-0.75,0.19
		s-0.26,0.29-0.26,0.5c0,0.23,0.11,0.41,0.34,0.55c0.13,0.08,0.32,0.15,0.58,0.21l0.58,0.14c0.63,0.15,1.05,0.3,1.27,0.44
		c0.34,0.22,0.51,0.58,0.51,1.06c0,0.47-0.18,0.87-0.53,1.21c-0.35,0.34-0.89,0.51-1.61,0.51c-0.78,0-1.33-0.18-1.65-0.53
		c-0.32-0.35-0.5-0.79-0.52-1.31H664.41z"/>
	<path class="st10" d="M671.78,10.21h1.15l3.62,5.81v-5.81h0.92v7.17h-1.09l-3.68-5.81v5.81h-0.93V10.21z"/>
	<path class="st10" d="M681.69,14.22c0.2-0.03,0.34-0.11,0.41-0.25c0.04-0.08,0.06-0.19,0.06-0.34c0-0.3-0.11-0.52-0.32-0.65
		c-0.21-0.14-0.52-0.2-0.92-0.2c-0.46,0-0.78,0.12-0.98,0.37c-0.11,0.14-0.18,0.34-0.21,0.61h-0.82c0.02-0.64,0.23-1.09,0.63-1.35
		c0.4-0.25,0.87-0.38,1.4-0.38c0.62,0,1.12,0.12,1.5,0.35c0.38,0.23,0.57,0.6,0.57,1.09v3.01c0,0.09,0.02,0.16,0.06,0.22
		c0.04,0.06,0.12,0.08,0.24,0.08c0.04,0,0.08,0,0.13-0.01s0.1-0.01,0.16-0.02v0.65c-0.14,0.04-0.24,0.06-0.31,0.07
		c-0.07,0.01-0.17,0.01-0.29,0.01c-0.3,0-0.52-0.11-0.66-0.32c-0.07-0.11-0.12-0.27-0.15-0.48c-0.18,0.23-0.44,0.44-0.77,0.61
		c-0.33,0.17-0.7,0.26-1.11,0.26c-0.48,0-0.88-0.15-1.19-0.44s-0.46-0.66-0.46-1.11c0-0.48,0.15-0.86,0.45-1.13s0.7-0.43,1.19-0.49
		L681.69,14.22z M679.84,16.59c0.19,0.15,0.41,0.22,0.66,0.22c0.31,0,0.61-0.07,0.9-0.21c0.49-0.24,0.73-0.63,0.73-1.17v-0.71
		c-0.11,0.07-0.25,0.13-0.42,0.17c-0.17,0.05-0.33,0.08-0.5,0.1l-0.53,0.07c-0.32,0.04-0.56,0.11-0.72,0.2
		c-0.27,0.15-0.41,0.4-0.41,0.73C679.56,16.25,679.66,16.45,679.84,16.59z"/>
	<path class="st10" d="M684.63,10.7h0.89v1.46h0.83v0.72h-0.83v3.41c0,0.18,0.06,0.3,0.19,0.37c0.07,0.04,0.18,0.05,0.34,0.05
		c0.04,0,0.09,0,0.14,0s0.11-0.01,0.17-0.01v0.69c-0.1,0.03-0.21,0.05-0.31,0.06c-0.11,0.01-0.23,0.02-0.35,0.02
		c-0.41,0-0.69-0.1-0.83-0.31s-0.22-0.48-0.22-0.82v-3.46h-0.71v-0.72h0.71V10.7z"/>
	<path class="st10" d="M688.11,12.16v3.47c0,0.27,0.04,0.48,0.13,0.65c0.16,0.31,0.45,0.47,0.87,0.47c0.61,0,1.03-0.27,1.25-0.82
		c0.12-0.29,0.18-0.69,0.18-1.21v-2.57h0.88v5.23h-0.83l0.01-0.77c-0.11,0.2-0.25,0.37-0.42,0.5c-0.33,0.27-0.74,0.41-1.22,0.41
		c-0.75,0-1.25-0.25-1.52-0.75c-0.15-0.27-0.22-0.62-0.22-1.07v-3.55H688.11z"/>
	<path class="st10" d="M692.81,12.16h0.83v0.9c0.07-0.18,0.24-0.39,0.5-0.64c0.27-0.25,0.58-0.38,0.92-0.38c0.02,0,0.04,0,0.08,0
		s0.11,0.01,0.2,0.02v0.93c-0.05-0.01-0.1-0.02-0.14-0.02s-0.09,0-0.14,0c-0.44,0-0.78,0.14-1.02,0.43
		c-0.24,0.28-0.36,0.61-0.36,0.98v3.01h-0.88V12.16z"/>
	<path class="st10" d="M698.92,14.22c0.2-0.03,0.34-0.11,0.41-0.25c0.04-0.08,0.06-0.19,0.06-0.34c0-0.3-0.11-0.52-0.32-0.65
		c-0.21-0.14-0.52-0.2-0.92-0.2c-0.46,0-0.78,0.12-0.98,0.37c-0.11,0.14-0.18,0.34-0.21,0.61h-0.82c0.02-0.64,0.23-1.09,0.63-1.35
		c0.4-0.25,0.87-0.38,1.4-0.38c0.62,0,1.12,0.12,1.5,0.35c0.38,0.23,0.57,0.6,0.57,1.09v3.01c0,0.09,0.02,0.16,0.06,0.22
		c0.04,0.06,0.12,0.08,0.24,0.08c0.04,0,0.08,0,0.13-0.01s0.1-0.01,0.16-0.02v0.65c-0.14,0.04-0.24,0.06-0.31,0.07
		c-0.07,0.01-0.17,0.01-0.29,0.01c-0.3,0-0.52-0.11-0.66-0.32c-0.07-0.11-0.12-0.27-0.15-0.48c-0.18,0.23-0.44,0.44-0.77,0.61
		c-0.33,0.17-0.7,0.26-1.11,0.26c-0.48,0-0.88-0.15-1.19-0.44s-0.46-0.66-0.46-1.11c0-0.48,0.15-0.86,0.45-1.13s0.7-0.43,1.19-0.49
		L698.92,14.22z M697.07,16.59c0.19,0.15,0.41,0.22,0.66,0.22c0.31,0,0.61-0.07,0.9-0.21c0.49-0.24,0.73-0.63,0.73-1.17v-0.71
		c-0.11,0.07-0.25,0.13-0.42,0.17c-0.17,0.05-0.33,0.08-0.5,0.1l-0.53,0.07c-0.32,0.04-0.56,0.11-0.72,0.2
		c-0.27,0.15-0.41,0.4-0.41,0.73C696.79,16.25,696.89,16.45,697.07,16.59z"/>
	<path class="st10" d="M701.71,10.21h0.88v7.17h-0.88V10.21z"/>
</g>
<g>
	<path class="st10" d="M656.06,335.75c0.02,0.41,0.12,0.74,0.29,0.99c0.32,0.47,0.89,0.71,1.7,0.71c0.37,0,0.7-0.05,1-0.16
		c0.58-0.2,0.87-0.56,0.87-1.08c0-0.39-0.12-0.67-0.37-0.83c-0.25-0.16-0.63-0.3-1.16-0.42l-0.97-0.22
		c-0.63-0.14-1.08-0.3-1.35-0.47c-0.46-0.3-0.68-0.75-0.68-1.34c0-0.64,0.22-1.17,0.67-1.59c0.45-0.41,1.08-0.62,1.89-0.62
		c0.75,0,1.39,0.18,1.92,0.54c0.53,0.36,0.79,0.94,0.79,1.74h-0.91c-0.05-0.38-0.15-0.68-0.31-0.88c-0.3-0.38-0.8-0.56-1.51-0.56
		c-0.57,0-0.98,0.12-1.24,0.36c-0.25,0.24-0.38,0.52-0.38,0.84c0,0.35,0.15,0.61,0.44,0.77c0.19,0.1,0.63,0.23,1.3,0.39l1.01,0.23
		c0.49,0.11,0.86,0.26,1.12,0.45c0.46,0.33,0.68,0.82,0.68,1.46c0,0.79-0.29,1.36-0.87,1.7c-0.58,0.34-1.25,0.51-2.01,0.51
		c-0.89,0-1.59-0.23-2.09-0.68c-0.5-0.45-0.75-1.07-0.74-1.84H656.06z"/>
	<path class="st10" d="M665.79,333.35c0.47,0.45,0.7,1.11,0.7,1.98c0,0.84-0.21,1.54-0.62,2.09c-0.41,0.55-1.05,0.83-1.91,0.83
		c-0.72,0-1.29-0.24-1.71-0.73c-0.42-0.49-0.63-1.14-0.63-1.96c0-0.88,0.22-1.58,0.67-2.1c0.45-0.52,1.04-0.78,1.8-0.78
		C664.76,332.68,665.33,332.9,665.79,333.35z M665.25,336.83c0.22-0.44,0.32-0.93,0.32-1.47c0-0.49-0.08-0.89-0.23-1.19
		c-0.25-0.48-0.67-0.72-1.28-0.72c-0.54,0-0.93,0.21-1.17,0.62s-0.37,0.9-0.37,1.48c0,0.56,0.12,1.02,0.37,1.39s0.63,0.56,1.16,0.56
		C664.63,337.49,665.03,337.27,665.25,336.83z"/>
	<path class="st10" d="M667.56,330.89h0.88v7.17h-0.88V330.89z"/>
	<path class="st10" d="M672.56,334.89c0.2-0.03,0.34-0.11,0.41-0.25c0.04-0.08,0.06-0.19,0.06-0.34c0-0.3-0.11-0.52-0.32-0.65
		c-0.21-0.13-0.52-0.2-0.92-0.2c-0.46,0-0.78,0.12-0.98,0.37c-0.11,0.14-0.18,0.34-0.21,0.61h-0.82c0.02-0.64,0.23-1.09,0.63-1.35
		c0.4-0.25,0.87-0.38,1.4-0.38c0.62,0,1.12,0.12,1.5,0.35c0.38,0.23,0.57,0.6,0.57,1.09v3.01c0,0.09,0.02,0.16,0.06,0.22
		c0.04,0.05,0.12,0.08,0.24,0.08c0.04,0,0.08,0,0.13-0.01s0.1-0.01,0.16-0.02v0.65c-0.14,0.04-0.24,0.06-0.31,0.07
		c-0.07,0.01-0.17,0.01-0.29,0.01c-0.3,0-0.52-0.11-0.66-0.32c-0.07-0.11-0.12-0.28-0.15-0.48c-0.18,0.23-0.44,0.44-0.77,0.61
		c-0.33,0.17-0.7,0.26-1.11,0.26c-0.48,0-0.88-0.15-1.19-0.44c-0.31-0.29-0.46-0.66-0.46-1.11c0-0.49,0.15-0.86,0.45-1.13
		c0.3-0.27,0.7-0.43,1.19-0.49L672.56,334.89z M670.71,337.27c0.19,0.15,0.41,0.22,0.66,0.22c0.31,0,0.61-0.07,0.9-0.21
		c0.49-0.24,0.73-0.63,0.73-1.17v-0.71c-0.11,0.07-0.25,0.12-0.42,0.17c-0.17,0.04-0.33,0.08-0.5,0.1l-0.53,0.07
		c-0.32,0.04-0.56,0.11-0.72,0.2c-0.27,0.15-0.41,0.4-0.41,0.73C670.43,336.92,670.52,337.12,670.71,337.27z"/>
	<path class="st10" d="M675.34,332.83h0.83v0.9c0.07-0.18,0.24-0.39,0.5-0.64c0.27-0.25,0.58-0.38,0.92-0.38c0.02,0,0.04,0,0.08,0
		c0.04,0,0.11,0.01,0.2,0.02v0.93c-0.05-0.01-0.1-0.02-0.14-0.02c-0.04,0-0.09,0-0.14,0c-0.44,0-0.78,0.14-1.02,0.43
		c-0.24,0.29-0.36,0.61-0.36,0.98v3.01h-0.88V332.83z"/>
</g>
<g>
	<path class="st10" d="M725.22,330.7h5.23v0.88h-4.28v2.18h3.96v0.83h-3.96v2.43h4.36v0.85h-5.3V330.7z"/>
	<path class="st10" d="M735.5,333.17c0.46,0.45,0.7,1.11,0.7,1.98c0,0.84-0.21,1.54-0.62,2.09s-1.05,0.83-1.91,0.83
		c-0.72,0-1.29-0.24-1.71-0.73c-0.42-0.49-0.63-1.14-0.63-1.96c0-0.88,0.22-1.58,0.67-2.1c0.45-0.52,1.04-0.78,1.8-0.78
		C734.46,332.49,735.03,332.72,735.5,333.17z M734.95,336.65c0.22-0.44,0.33-0.93,0.33-1.47c0-0.49-0.08-0.88-0.23-1.19
		c-0.25-0.48-0.67-0.72-1.28-0.72c-0.54,0-0.93,0.21-1.17,0.62s-0.37,0.9-0.37,1.48c0,0.56,0.12,1.02,0.37,1.39s0.63,0.56,1.16,0.56
		C734.34,337.31,734.74,337.09,734.95,336.65z M734.81,330.54l-1.3,1.41h-0.67l0.89-1.41H734.81z"/>
	<path class="st10" d="M737.26,330.7h0.88v7.17h-0.88V330.7z"/>
	<path class="st10" d="M739.46,330.7h0.89v1h-0.89V330.7z M739.46,332.67h0.89v5.21h-0.89V332.67z"/>
	<path class="st10" d="M745.14,332.92c0.37,0.29,0.59,0.78,0.67,1.48h-0.85c-0.05-0.32-0.17-0.59-0.36-0.8
		c-0.19-0.21-0.48-0.32-0.89-0.32c-0.56,0-0.96,0.27-1.2,0.82c-0.16,0.36-0.23,0.79-0.23,1.31c0,0.52,0.11,0.97,0.33,1.32
		c0.22,0.36,0.57,0.54,1.04,0.54c0.36,0,0.65-0.11,0.87-0.33c0.21-0.22,0.36-0.53,0.44-0.92h0.85c-0.1,0.69-0.34,1.2-0.73,1.52
		c-0.39,0.32-0.89,0.48-1.5,0.48c-0.68,0-1.23-0.25-1.64-0.75c-0.41-0.5-0.61-1.12-0.61-1.87c0-0.92,0.22-1.63,0.67-2.14
		c0.45-0.51,1.01-0.77,1.7-0.77C744.29,332.49,744.77,332.64,745.14,332.92z"/>
	<path class="st10" d="M749.49,334.71c0.2-0.03,0.34-0.11,0.41-0.25c0.04-0.08,0.06-0.19,0.06-0.34c0-0.3-0.11-0.52-0.32-0.65
		c-0.21-0.14-0.52-0.2-0.92-0.2c-0.46,0-0.79,0.12-0.98,0.37c-0.11,0.14-0.18,0.34-0.21,0.61h-0.82c0.02-0.64,0.23-1.09,0.63-1.34
		c0.4-0.25,0.87-0.38,1.4-0.38c0.62,0,1.11,0.12,1.5,0.35c0.38,0.23,0.57,0.6,0.57,1.09v3.01c0,0.09,0.02,0.17,0.06,0.22
		c0.04,0.05,0.12,0.08,0.24,0.08c0.04,0,0.08,0,0.13-0.01c0.05-0.01,0.1-0.01,0.16-0.02v0.65c-0.14,0.04-0.24,0.06-0.31,0.07
		c-0.07,0.01-0.17,0.01-0.29,0.01c-0.3,0-0.52-0.11-0.66-0.32c-0.07-0.11-0.12-0.28-0.15-0.48c-0.18,0.23-0.44,0.44-0.77,0.61
		c-0.34,0.17-0.71,0.26-1.11,0.26c-0.49,0-0.88-0.15-1.19-0.44c-0.31-0.29-0.46-0.66-0.46-1.11c0-0.48,0.15-0.86,0.45-1.13
		s0.7-0.43,1.19-0.49L749.49,334.71z M747.64,337.08c0.19,0.15,0.41,0.22,0.66,0.22c0.31,0,0.61-0.07,0.9-0.21
		c0.49-0.24,0.73-0.63,0.73-1.17v-0.71c-0.11,0.07-0.25,0.12-0.42,0.17c-0.17,0.05-0.34,0.08-0.5,0.1l-0.53,0.07
		c-0.32,0.04-0.56,0.11-0.72,0.2c-0.27,0.15-0.41,0.4-0.41,0.73C747.36,336.74,747.45,336.94,747.64,337.08z"/>
</g>
<g>
	<path class="st10" d="M730.83,381.94c0.71,0.37,1.15,1.03,1.31,1.97h-0.96c-0.12-0.52-0.36-0.91-0.73-1.15
		c-0.37-0.24-0.83-0.36-1.39-0.36c-0.66,0-1.22,0.25-1.68,0.75s-0.68,1.24-0.68,2.23c0,0.85,0.19,1.55,0.56,2.08
		c0.37,0.54,0.98,0.8,1.83,0.8c0.65,0,1.18-0.19,1.61-0.56s0.64-0.98,0.65-1.82h-2.25v-0.81h3.15v3.84h-0.62l-0.23-0.92
		c-0.33,0.36-0.62,0.61-0.87,0.75c-0.43,0.24-0.97,0.36-1.63,0.36c-0.85,0-1.58-0.28-2.19-0.83c-0.67-0.69-1-1.64-1-2.84
		c0-1.2,0.33-2.16,0.98-2.87c0.62-0.68,1.42-1.02,2.4-1.02C729.75,381.55,730.34,381.68,730.83,381.94z"/>
	<path class="st10" d="M736.9,383.83c0.35,0.17,0.61,0.4,0.8,0.68c0.18,0.26,0.29,0.57,0.35,0.92c0.05,0.24,0.08,0.62,0.08,1.15
		h-3.83c0.02,0.53,0.14,0.96,0.38,1.28c0.23,0.32,0.6,0.48,1.09,0.48c0.46,0,0.83-0.15,1.1-0.45c0.16-0.18,0.27-0.38,0.33-0.61h0.86
		c-0.02,0.19-0.1,0.41-0.23,0.64c-0.13,0.24-0.27,0.43-0.43,0.58c-0.27,0.26-0.6,0.44-0.99,0.53c-0.21,0.05-0.45,0.08-0.72,0.08
		c-0.65,0-1.2-0.24-1.66-0.71c-0.45-0.47-0.68-1.14-0.68-1.99c0-0.84,0.23-1.52,0.68-2.05c0.46-0.52,1.05-0.79,1.79-0.79
		C736.19,383.56,736.55,383.65,736.9,383.83z M737.22,385.88c-0.04-0.38-0.12-0.69-0.25-0.91c-0.24-0.42-0.64-0.63-1.21-0.63
		c-0.4,0-0.74,0.15-1.02,0.44c-0.27,0.29-0.42,0.66-0.43,1.11H737.22z"/>
	<path class="st10" d="M743.02,384.2c0.46,0.45,0.7,1.11,0.7,1.98c0,0.84-0.21,1.54-0.62,2.09c-0.41,0.55-1.05,0.83-1.91,0.83
		c-0.72,0-1.29-0.24-1.71-0.73c-0.42-0.49-0.63-1.14-0.63-1.96c0-0.88,0.22-1.58,0.67-2.1c0.45-0.52,1.04-0.78,1.8-0.78
		C741.99,383.53,742.56,383.75,743.02,384.2z M742.48,387.68c0.22-0.44,0.33-0.93,0.33-1.47c0-0.49-0.08-0.89-0.23-1.19
		c-0.25-0.48-0.67-0.72-1.28-0.72c-0.54,0-0.93,0.21-1.17,0.62s-0.37,0.9-0.37,1.48c0,0.56,0.12,1.02,0.37,1.39s0.63,0.56,1.16,0.56
		C741.86,388.34,742.26,388.12,742.48,387.68z"/>
	<path class="st10" d="M744.94,382.22h0.89v1.46h0.83v0.72h-0.83v3.41c0,0.18,0.06,0.3,0.19,0.37c0.07,0.04,0.18,0.05,0.34,0.05
		c0.04,0,0.09,0,0.14,0c0.05,0,0.11-0.01,0.17-0.01v0.69c-0.1,0.03-0.21,0.05-0.32,0.06c-0.11,0.01-0.23,0.02-0.35,0.02
		c-0.41,0-0.69-0.11-0.83-0.32s-0.22-0.48-0.22-0.82v-3.46h-0.71v-0.72h0.71V382.22z"/>
	<path class="st10" d="M750.8,383.83c0.35,0.17,0.61,0.4,0.8,0.68c0.18,0.26,0.29,0.57,0.35,0.92c0.05,0.24,0.08,0.62,0.08,1.15
		h-3.83c0.02,0.53,0.14,0.96,0.38,1.28c0.23,0.32,0.6,0.48,1.09,0.48c0.46,0,0.83-0.15,1.1-0.45c0.16-0.18,0.27-0.38,0.33-0.61h0.86
		c-0.02,0.19-0.1,0.41-0.23,0.64c-0.13,0.24-0.27,0.43-0.43,0.58c-0.27,0.26-0.6,0.44-0.99,0.53c-0.21,0.05-0.45,0.08-0.72,0.08
		c-0.65,0-1.2-0.24-1.66-0.71c-0.45-0.47-0.68-1.14-0.68-1.99c0-0.84,0.23-1.52,0.68-2.05c0.46-0.52,1.05-0.79,1.79-0.79
		C750.09,383.56,750.45,383.65,750.8,383.83z M751.12,385.88c-0.04-0.38-0.12-0.69-0.25-0.91c-0.24-0.42-0.64-0.63-1.21-0.63
		c-0.4,0-0.74,0.15-1.02,0.44c-0.27,0.29-0.42,0.66-0.43,1.11H751.12z"/>
	<path class="st10" d="M753.13,383.68h0.83v0.9c0.07-0.18,0.24-0.39,0.5-0.64c0.27-0.25,0.57-0.38,0.92-0.38c0.02,0,0.04,0,0.08,0
		c0.04,0,0.11,0.01,0.2,0.02v0.93c-0.05-0.01-0.1-0.02-0.14-0.02c-0.04,0-0.09,0-0.14,0c-0.44,0-0.78,0.14-1.02,0.43
		c-0.24,0.29-0.36,0.61-0.36,0.98v3.01h-0.88V383.68z"/>
	<path class="st10" d="M756.43,383.68h0.87v0.74c0.21-0.26,0.4-0.44,0.57-0.56c0.29-0.2,0.62-0.3,0.99-0.3
		c0.42,0,0.75,0.1,1.01,0.31c0.14,0.12,0.27,0.29,0.39,0.52c0.2-0.28,0.42-0.49,0.69-0.62c0.26-0.13,0.56-0.2,0.89-0.2
		c0.7,0,1.18,0.25,1.44,0.76c0.14,0.27,0.21,0.64,0.21,1.1v3.48h-0.91v-3.63c0-0.35-0.09-0.59-0.26-0.72
		c-0.17-0.13-0.39-0.2-0.64-0.2c-0.35,0-0.64,0.12-0.89,0.35c-0.25,0.23-0.37,0.62-0.37,1.16v3.04h-0.89v-3.41
		c0-0.36-0.04-0.61-0.13-0.78c-0.13-0.24-0.38-0.37-0.75-0.37c-0.33,0-0.63,0.13-0.91,0.39c-0.27,0.26-0.41,0.72-0.41,1.4v2.77
		h-0.88V383.68z"/>
	<path class="st10" d="M764.76,381.74h0.89v1h-0.89V381.74z M764.76,383.71h0.89v5.21h-0.89V383.71z"/>
	<path class="st10" d="M769.79,385.74c0.2-0.03,0.34-0.11,0.41-0.25c0.04-0.08,0.06-0.19,0.06-0.34c0-0.3-0.11-0.52-0.32-0.65
		c-0.21-0.13-0.52-0.2-0.92-0.2c-0.46,0-0.79,0.12-0.98,0.37c-0.11,0.14-0.18,0.34-0.21,0.61h-0.82c0.02-0.64,0.23-1.09,0.63-1.35
		c0.4-0.25,0.87-0.38,1.4-0.38c0.62,0,1.11,0.12,1.5,0.35c0.38,0.23,0.57,0.6,0.57,1.09v3.01c0,0.09,0.02,0.16,0.06,0.22
		c0.04,0.05,0.12,0.08,0.24,0.08c0.04,0,0.08,0,0.13-0.01s0.1-0.01,0.16-0.02v0.65c-0.14,0.04-0.24,0.06-0.31,0.07
		c-0.07,0.01-0.17,0.01-0.29,0.01c-0.3,0-0.52-0.11-0.66-0.32c-0.07-0.11-0.12-0.28-0.15-0.48c-0.18,0.23-0.44,0.44-0.77,0.61
		c-0.34,0.17-0.71,0.26-1.11,0.26c-0.49,0-0.88-0.15-1.19-0.44c-0.31-0.29-0.46-0.66-0.46-1.11c0-0.49,0.15-0.86,0.45-1.13
		c0.3-0.27,0.7-0.43,1.19-0.49L769.79,385.74z M767.94,388.12c0.19,0.15,0.41,0.22,0.66,0.22c0.31,0,0.61-0.07,0.9-0.21
		c0.49-0.24,0.73-0.63,0.73-1.17v-0.71c-0.11,0.07-0.25,0.12-0.42,0.17c-0.17,0.04-0.34,0.08-0.5,0.1l-0.53,0.07
		c-0.32,0.04-0.56,0.11-0.72,0.2c-0.27,0.15-0.41,0.4-0.41,0.73C767.66,387.77,767.75,387.97,767.94,388.12z"/>
</g>
<text transform="matrix(6.123234e-17 1 -1 6.123234e-17 790.3516 330.5397)" class="st10 st11 st12">Biomasa</text>
<g>
	<path class="st13" d="M7.79,8.09h3.23c0.64,0,1.15,0.18,1.54,0.54s0.59,0.87,0.59,1.52c0,0.56-0.17,1.05-0.52,1.46
		s-0.88,0.62-1.61,0.62H8.76v3.03H7.79V8.09z M11.58,9.07c-0.21-0.1-0.51-0.15-0.88-0.15H8.76v2.49h1.93c0.44,0,0.79-0.09,1.06-0.28
		s0.41-0.51,0.41-0.98C12.17,9.62,11.97,9.26,11.58,9.07z"/>
	<path class="st13" d="M17.51,10.17c0.35,0.17,0.61,0.4,0.8,0.68c0.18,0.26,0.29,0.57,0.35,0.92c0.05,0.24,0.08,0.62,0.08,1.15H14.9
		c0.02,0.53,0.14,0.96,0.38,1.28s0.6,0.48,1.09,0.48c0.46,0,0.83-0.15,1.1-0.45c0.16-0.18,0.27-0.38,0.33-0.61h0.86
		c-0.02,0.19-0.1,0.41-0.23,0.64s-0.27,0.43-0.43,0.58c-0.27,0.26-0.6,0.44-0.99,0.53c-0.21,0.05-0.45,0.08-0.72,0.08
		c-0.65,0-1.2-0.24-1.66-0.71s-0.68-1.14-0.68-1.99c0-0.84,0.23-1.52,0.68-2.05s1.05-0.79,1.79-0.79C16.8,9.91,17.16,10,17.51,10.17
		z M17.83,12.23c-0.04-0.38-0.12-0.69-0.25-0.91c-0.24-0.42-0.64-0.63-1.21-0.63c-0.4,0-0.74,0.15-1.02,0.44s-0.42,0.66-0.43,1.11
		H17.83z"/>
	<path class="st13" d="M19.99,8.57h0.89v1.46h0.83v0.72h-0.83v3.41c0,0.18,0.06,0.3,0.19,0.37c0.07,0.04,0.18,0.05,0.34,0.05
		c0.04,0,0.09,0,0.14,0s0.11-0.01,0.17-0.01v0.69c-0.1,0.03-0.21,0.05-0.31,0.06s-0.23,0.02-0.35,0.02c-0.41,0-0.69-0.1-0.83-0.31
		s-0.22-0.48-0.22-0.82v-3.46h-0.71v-0.72h0.71V8.57z"/>
	<path class="st13" d="M22.62,10.03h0.83v0.9c0.07-0.18,0.24-0.39,0.5-0.64s0.57-0.38,0.92-0.38c0.02,0,0.04,0,0.08,0
		s0.11,0.01,0.2,0.02v0.93c-0.05-0.01-0.1-0.02-0.14-0.02s-0.09,0-0.14,0c-0.44,0-0.78,0.14-1.02,0.43s-0.36,0.61-0.36,0.98v3.01
		h-0.88V10.03z"/>
	<path class="st13" d="M29.74,10.55c0.47,0.45,0.7,1.11,0.7,1.98c0,0.84-0.21,1.54-0.62,2.09s-1.05,0.83-1.91,0.83
		c-0.72,0-1.29-0.24-1.71-0.73s-0.63-1.14-0.63-1.96c0-0.88,0.22-1.58,0.67-2.1s1.04-0.78,1.8-0.78
		C28.71,9.88,29.28,10.1,29.74,10.55z M29.2,14.03c0.22-0.44,0.32-0.93,0.32-1.47c0-0.49-0.08-0.89-0.23-1.19
		c-0.25-0.48-0.67-0.72-1.28-0.72c-0.54,0-0.93,0.21-1.17,0.62s-0.37,0.9-0.37,1.48c0,0.56,0.12,1.02,0.37,1.39s0.63,0.56,1.16,0.56
		C28.58,14.69,28.98,14.47,29.2,14.03z M29.05,7.93l-1.3,1.41h-0.67l0.89-1.41H29.05z"/>
	<path class="st13" d="M31.51,8.09h0.88v7.17h-0.88V8.09z"/>
	<path class="st13" d="M36.96,10.17c0.35,0.17,0.61,0.4,0.8,0.68c0.18,0.26,0.29,0.57,0.35,0.92c0.05,0.24,0.08,0.62,0.08,1.15
		h-3.83c0.02,0.53,0.14,0.96,0.38,1.28s0.6,0.48,1.09,0.48c0.46,0,0.83-0.15,1.1-0.45c0.16-0.18,0.27-0.38,0.33-0.61h0.86
		c-0.02,0.19-0.1,0.41-0.23,0.64s-0.27,0.43-0.43,0.58c-0.27,0.26-0.6,0.44-0.99,0.53c-0.21,0.05-0.45,0.08-0.72,0.08
		c-0.65,0-1.2-0.24-1.66-0.71s-0.68-1.14-0.68-1.99c0-0.84,0.23-1.52,0.68-2.05s1.05-0.79,1.79-0.79
		C36.25,9.91,36.61,10,36.96,10.17z M37.29,12.23c-0.04-0.38-0.12-0.69-0.25-0.91c-0.24-0.42-0.64-0.63-1.21-0.63
		c-0.4,0-0.74,0.15-1.02,0.44s-0.42,0.66-0.43,1.11H37.29z"/>
	<path class="st13" d="M43.09,10.55c0.47,0.45,0.7,1.11,0.7,1.98c0,0.84-0.21,1.54-0.62,2.09s-1.05,0.83-1.91,0.83
		c-0.72,0-1.29-0.24-1.71-0.73s-0.63-1.14-0.63-1.96c0-0.88,0.22-1.58,0.67-2.1s1.04-0.78,1.8-0.78
		C42.05,9.88,42.62,10.1,43.09,10.55z M42.54,14.03c0.22-0.44,0.32-0.93,0.32-1.47c0-0.49-0.08-0.89-0.23-1.19
		c-0.25-0.48-0.67-0.72-1.28-0.72c-0.54,0-0.93,0.21-1.17,0.62s-0.37,0.9-0.37,1.48c0,0.56,0.12,1.02,0.37,1.39s0.63,0.56,1.16,0.56
		C41.93,14.69,42.33,14.47,42.54,14.03z"/>
	<path class="st13" d="M51.06,10.31c0.37,0.29,0.59,0.78,0.67,1.48h-0.85c-0.05-0.32-0.17-0.59-0.36-0.8s-0.48-0.32-0.89-0.32
		c-0.56,0-0.96,0.27-1.2,0.82c-0.16,0.35-0.23,0.79-0.23,1.31c0,0.52,0.11,0.97,0.33,1.32s0.57,0.54,1.04,0.54
		c0.36,0,0.65-0.11,0.87-0.33s0.36-0.53,0.44-0.92h0.85c-0.1,0.69-0.34,1.2-0.73,1.52s-0.89,0.48-1.5,0.48
		c-0.68,0-1.23-0.25-1.64-0.75s-0.61-1.12-0.61-1.87c0-0.92,0.22-1.63,0.67-2.14s1.01-0.77,1.7-0.77
		C50.21,9.88,50.69,10.02,51.06,10.31z"/>
	<path class="st13" d="M52.63,10.03h0.83v0.9c0.07-0.18,0.24-0.39,0.5-0.64s0.57-0.38,0.92-0.38c0.02,0,0.04,0,0.08,0
		s0.11,0.01,0.2,0.02v0.93c-0.05-0.01-0.1-0.02-0.14-0.02s-0.09,0-0.14,0c-0.44,0-0.78,0.14-1.02,0.43s-0.36,0.61-0.36,0.98v3.01
		h-0.88V10.03z"/>
	<path class="st13" d="M56.82,10.03v3.47c0,0.27,0.04,0.48,0.13,0.65c0.16,0.31,0.45,0.47,0.87,0.47c0.61,0,1.03-0.27,1.25-0.82
		c0.12-0.29,0.18-0.69,0.18-1.21v-2.57h0.88v5.23H59.3l0.01-0.77c-0.11,0.2-0.26,0.37-0.42,0.5c-0.34,0.27-0.74,0.41-1.22,0.41
		c-0.75,0-1.25-0.25-1.52-0.75c-0.15-0.27-0.22-0.62-0.22-1.07v-3.55H56.82z"/>
	<path class="st13" d="M64.38,10.19c0.16,0.1,0.33,0.27,0.53,0.51V8.06h0.84v7.2h-0.79v-0.73c-0.21,0.32-0.45,0.56-0.73,0.7
		s-0.6,0.21-0.96,0.21c-0.58,0-1.09-0.25-1.51-0.73s-0.64-1.14-0.64-1.96c0-0.76,0.19-1.42,0.58-1.98s0.94-0.84,1.67-0.84
		C63.78,9.94,64.11,10.02,64.38,10.19z M62.41,14.11c0.24,0.38,0.62,0.57,1.14,0.57c0.41,0,0.74-0.17,1-0.52s0.39-0.85,0.39-1.51
		c0-0.66-0.14-1.15-0.41-1.47s-0.6-0.48-1-0.48c-0.44,0-0.8,0.17-1.08,0.51s-0.41,0.84-0.41,1.49
		C62.06,13.27,62.17,13.74,62.41,14.11z"/>
	<path class="st13" d="M70.88,10.55c0.47,0.45,0.7,1.11,0.7,1.98c0,0.84-0.21,1.54-0.62,2.09s-1.05,0.83-1.91,0.83
		c-0.72,0-1.29-0.24-1.71-0.73s-0.63-1.14-0.63-1.96c0-0.88,0.22-1.58,0.67-2.1s1.04-0.78,1.8-0.78
		C69.84,9.88,70.41,10.1,70.88,10.55z M70.33,14.03c0.22-0.44,0.32-0.93,0.32-1.47c0-0.49-0.08-0.89-0.23-1.19
		c-0.25-0.48-0.67-0.72-1.28-0.72c-0.54,0-0.93,0.21-1.17,0.62s-0.37,0.9-0.37,1.48c0,0.56,0.12,1.02,0.37,1.39s0.63,0.56,1.16,0.56
		C69.72,14.69,70.12,14.47,70.33,14.03z"/>
</g>
<text transform="matrix(1 0 0 1 6.9387 15.2598)" class="st11 st12">Petróleo crudo</text>
<text transform="matrix(1 0 0 1 6.0937 237.8976)" class="st11 st12">Biomasa</text>
<text transform="matrix(1 0 0 1 435.4635 338.06)" class="st11 st12">Hídrica</text>
<text transform="matrix(1 0 0 1 434.9416 17.1943)" class="st11 st12">Carbón</text>
<text transform="matrix(1 0 0 1 650.0618 17.1945)" class="st11 st12">Gas Natural</text>
<text transform="matrix(1 0 0 1 654.6572 338.06)" class="st11 st12">Solar</text>
<text transform="matrix(1 0 0 1 724.4192 337.874)" class="st11 st12">Eólica</text>
<text transform="matrix(1 0 0 1 725.274 388.9114)" class="st11 st12">Geotermia</text>
<text transform="matrix(6.123234e-17 1 -1 6.123234e-17 789.9512 330.5405)" class="st11 st12">Biomasa</text>
</svg>
