<?xml version="1.0" encoding="utf-8"?>
<!-- Generator: Adobe Illustrator 27.1.0, SVG Export Plug-In . SVG Version: 6.00 Build 0)  -->
<svg version="1.1" id="Capa_1" xmlns="http://www.w3.org/2000/svg" xmlns:xlink="http://www.w3.org/1999/xlink" x="0px" y="0px"
	 viewBox="0 0 538.6 652" style="enable-background:new 0 0 538.6 652;" xml:space="preserve">
<style type="text/css">
	.st0{fill:#2D291F;}
	.st1{fill:#4F6384;}
	.st2{fill:#6078A6;}
	.st3{fill:#AFA584;}
	.st4{fill:#A3A3A3;}
	.st5{fill:#7F7865;}
	.st6{fill:#E0E0E0;}
	.st7{fill:#BCBCBC;}
	.st8{fill:#BFBFBF;}
	.st9{fill:#70695A;}
	.st10{fill:#D3D3D3;}
	.st11{fill:#686868;}
	.st12{fill:#0E1C33;}
	.st13{fill:#0E2440;}
	.st14{fill:#FFFFFF;}
	.st15{fill:#333333;}
	.st16{fill:#1C3554;}
	.st17{fill:#404F66;}
	.st18{fill:none;stroke:#333333;stroke-width:0.5;stroke-miterlimit:10;}
	.st19{fill:none;stroke:#333333;stroke-width:0.25;stroke-miterlimit:10;}
	.st20{fill:none;stroke:#333333;stroke-miterlimit:10;}
	.st21{stroke:#333333;stroke-miterlimit:10;}
	.st22{fill:#FFFFFF;stroke:#000000;stroke-miterlimit:10;}
	.st23{stroke:#000000;stroke-miterlimit:10;}
	.st24{opacity:0.47;}
	.st25{font-family:'Helvetica';}
	.st26{font-size:10.7905px;}
	.st27{fill:#333333;stroke:#333333;stroke-width:0.5;stroke-miterlimit:10;}
	.st28{fill:#FFDE14;}
	.st29{fill:#333333;stroke:#FFDE14;stroke-width:0.5;stroke-miterlimit:10;}
	.st30{fill:none;stroke:#FFDE14;stroke-width:0.5;stroke-miterlimit:10;}
</style>
<g>
	<g id="XMLID_00000115473370932353471670000009725598059168752547_">
		<g>
			<path class="st0" d="M540.4,320.4v319.5H169.5v-0.4l89.9-38.7l0.9-22.5l0.9-29.7c0,0,156.5-102.5,157.4-103.4
				c0.9-0.9,17.1-59.4,17.1-59.4l90.8-43v-15.6l13-6.9H540.4z"/>
			<path class="st1" d="M215.5,551.1L215.5,551.1l4.3,8.2c0.3,0.5,1,0.4,1.1-0.2c0.1-0.7,0.2-1.5,0.3-2.3l4,2.2
				c1,0.6,2.2,0.3,2.9-0.6c0.1-0.2,0.2-0.3,0.3-0.5h0l1.2,0c0.6,0,1.2-0.2,1.8-0.5l0,0.1h2.1c0.7,0,1.3-0.2,1.9-0.5
				c3.6-2.1,4.3-5.1,3.9-7.7l0.1,0c5.7-5.4,3-8.9,0.7-10.6c-1-0.7-2.2-1.1-3.4-1.2v0c-1.1-1.9-3.4-2.1-4.1-2.1
				c-1-2-6.6-3.8-13.1-4.4v-11l-0.1-0.5c11.8-1.6,20-7.1,20-7.1v-7.4v-1.7l2.1-1.1v-0.5l136.2-79.6l25.2-74.6l109.7-64.7l-18.8-99.5
				l45.8-12.7h0.9v149.7h-0.9l-13,6.9v-0.8l-98,54.8l-23.4,62.1l-152.9,97.1l-0.9,38.7l-0.9,14.4l-102.5,45.9h21.6v0.4H0.9V446.2
				c0,0,0,0,0,0l18.1-1.4l117.2,109.4V554l3.5-1.6l34.2,29.5l7.2-4.2V533l4.2-2.1l21.9-11.1c0.9,0.1,1.8,0.2,2.7,0.3
				c0.2,0,0.4,0,0.6,0v0.1v11h-0.1c-7,0.4-11.7,2.2-12.7,4.2c0,0,0,0,0,0c-0.9,0-2.9,0.4-3.9,2.1l0,0.2c-1.1,0-2.2,0.6-2.8,1.5
				c-1.6,2-3.4,5.9,1,10.2c0,1.6,0.6,3.5,2.4,5.4c0.8,0.9,2,1.4,3.2,1.4h0.7l0.1,0c0.9,1.4,2.7,1.9,4.2,1.2l0.1-0.1
				c1.1,1.7,3.6,2.1,5.3,0.8l1.5-1.2c0.1,0.9,0.3,1.7,0.5,2.4c0.2,0.7,1.2,0.8,1.6,0.1L215.5,551.1L215.5,551.1z"/>
			<path class="st2" d="M540.4,77.6v93.1h-0.9l-45.8,12.7l-8.2-43.5l-2.7,0.5l-185.6-26.8l0-0.3l20.6-1.8l24.2-2.7c0,0,0.1,0,0.1,0
				l0.9-0.2c0.8-0.2,0.9-1.2,0.3-1.6l-12.2-7.7l-7-4.4h18.2l31.5,1.2c0.5,0,0.9,0,1.4,0l18.8-1.1c1.1-0.1,2.1-0.1,3.2,0l18.3,0.6
				l27.7,0.6c0.6,0,1.1,0,1.7,0l13.8-1c1.8-0.1,3.5-0.5,5.2-1l11.7-4c0.4-0.1,0.8-0.3,1.2-0.5l8-3.4c0.5-0.2,0.8-0.7,0.8-1.3v-1.8
				L479,76h15.9c1.3,0,2.5,0.1,3.8,0.2L507,77c2.8,0.3,5.6,0.2,8.3-0.1l6.9-0.9c2,0,4,0.5,5.8,1.3l1.6,0.8c1.4,0.7,3.1,0.9,4.6,0.6
				l5.2-1.1H540.4z"/>
			<path class="st3" d="M540.4,38.4v39.2h-0.9l-5.2,1.1c-1.6,0.3-3.2,0.1-4.6-0.6l-1.6-0.8c-1.8-0.9-3.8-1.3-5.8-1.3l-6.9,0.9
				c-2.8,0.4-5.5,0.4-8.3,0.1l-8.3-0.8c-1.3-0.1-2.5-0.2-3.8-0.2H479l-1.3-1.5c-0.4-0.5-0.9-0.9-1.5-1.2l-11.3-6.8l-7.5-4.5l1.4-2.4
				l14.6-16.3l19.8-13.5l22.5-12.6h11.2l5.9,11.7L540.4,38.4z"/>
			<path class="st4" d="M526.5,327.3v15.6l-90.8,43c0,0-16.2,58.5-17.1,59.4c-0.9,0.9-157.4,103.4-157.4,103.4l-0.9,29.7l-0.9,22.5
				l-89.9,38.7h-21.6l102.5-45.9l0.9-14.4l0.9-38.7l152.9-97.1l23.4-62.1l98-54.8V327.3z"/>
			<polygon class="st4" points="493.8,183.4 512.6,282.9 402.9,347.6 377.7,422.3 241.4,501.9 241.4,461.7 241.4,461.4 269.8,449 
				284.2,414.2 295.8,410.6 295.8,421.4 395.7,256.8 411.8,195.3 411.8,153.8 485.6,140.8 482.8,140.4 485.6,139.9 			"/>
			<path class="st5" d="M485.6,83.3v1.8c0,0.5-0.3,1-0.8,1.3l-8,3.4c-0.4,0.2-0.8,0.3-1.2,0.5l-11.7,4c-1.7,0.6-3.4,0.9-5.2,1
				l-13.8,1c-0.5,0-1.1,0.1-1.7,0l-27.7-0.6l-18.3-0.6c-1.1,0-2.1,0-3.2,0l-18.8,1.1c-0.5,0-0.9,0-1.4,0L342.3,95h-18.2L307,84.3
				c0,0-0.1-0.1-0.1-0.1L290.4,69l43.6-22.1l18-13.5L372.3,22l22,4.2l39.6,21.6L457.4,62l7.5,4.5l11.3,6.8c0.5,0.3,1,0.7,1.5,1.2
				L479,76L485.6,83.3z"/>
			<polygon class="st6" points="482.8,140.4 485.6,140.8 411.8,153.8 411.8,153.4 232,122.8 232,122.6 295.4,113.4 297.3,113.7 			
				"/>
			<polygon class="st7" points="411.8,153.8 411.8,195.3 395.7,256.8 230.4,204.9 230.4,122.8 232,122.6 232,122.8 411.8,153.4 			
				"/>
			<polygon class="st8" points="395.7,256.8 295.8,421.4 295.8,410.6 244.3,382.2 250.4,380.5 230.4,209.7 230.4,204.9 			"/>
			<path class="st9" d="M17.5,421.8L17.5,421.8v21.6l1.5,1.4l-18.1,1.4c0,0,0,0,0,0v-83.4c7.2-11.6,54.5-87.8,55.3-90.3
				c0.9-2.6,42.9-114.8,44.7-119.6c0-0.1,0.1-0.2,0.2-0.3l44.2-45.9l29.5-29.4c0.1-0.1,0.1-0.1,0.2-0.2L199.3,29
				c0.1-0.2,0.3-0.3,0.4-0.4l20.4-8.2c0.2-0.1,0.5-0.1,0.7,0L254.8,36c0.1,0,0.2,0.1,0.2,0.1L290.4,69l16.4,15.2
				c0,0,0.1,0.1,0.1,0.1L324.1,95l7,4.4l12.2,7.7c0.7,0.4,0.5,1.4-0.3,1.6l-0.9,0.2c0,0-0.1,0-0.1,0l-24.2,2.7l-20.6,1.8l0,0.3
				l-1.9-0.3l-63.4,9.2l-1.6,0.2v82.1v4.8l20.1,170.7l-6.1,1.7l-86.5-47.6l-12.6,5.4v31L17.5,421.8z"/>
			<polygon class="st6" points="244.3,382.2 295.8,410.6 284.2,414.2 145.2,340 157.8,334.6 			"/>
			<polygon class="st7" points="284.2,414.2 269.8,449 145.2,371 145.2,340 			"/>
			<polygon class="st10" points="269.8,449 241.4,461.4 241.4,448.8 153.3,393 86.8,420.9 87.7,443.4 51.7,456 17.5,421.8 
				17.5,421.8 145.2,371 			"/>
			<path class="st11" d="M239.3,503.4l-1,0.5l0,0c0.7-0.7,1-1.5,1-2.3c0-2.1-2.5-4-6.7-5.5v0v-34.6l-47.2,25.2v25.9v18.4l-4.2,2.1
				v-28.4l-8.9,3.9l-0.1-21.9l69.2-37.8v12.6v0.3v40.2v0.5L239.3,503.4z"/>
			<polygon class="st6" points="241.4,448.8 172.2,486.6 86.8,420.9 153.3,393 			"/>
			<path class="st12" d="M207.3,519.7c-6.2-0.8-12.8-2.9-19.5-7.2v-9.9l0.2-0.1c1.4,4.1,12.4,7.3,25.6,7.3c11.7,0,21.6-2.5,24.7-5.9
				l0,0l1-0.5v1.7v7.4c0,0-8.1,5.5-20,7.1c-2.7,0.4-5.7,0.6-8.8,0.4c-0.2,0-0.4,0-0.6,0C209.1,519.9,208.2,519.8,207.3,519.7z"/>
			<path class="st13" d="M239.3,501.5c0,0.8-0.4,1.6-1,2.3c-3.1,3.4-13,5.9-24.7,5.9c-13.2,0-24.2-3.2-25.6-7.3
				c-0.1-0.3-0.2-0.6-0.2-0.9c0-4.5,11.5-8.2,25.8-8.2c7.6,0,14.4,1,19.1,2.7C236.8,497.5,239.3,499.4,239.3,501.5z"/>
			<path class="st14" d="M236.6,537.5L236.6,537.5c-0.1,0-0.3,0-0.5,0h-4.3c0.5-0.5,0.8-0.9,0.8-1.4c0-0.2-0.1-0.4-0.2-0.6
				C233.2,535.4,235.5,535.6,236.6,537.5z"/>
			<path class="st15" d="M232.6,496L232.6,496c-4.7-1.7-11.5-2.7-19.1-2.7c-14.2,0-25.8,3.7-25.8,8.2c0,0.3,0.1,0.6,0.2,0.9
				l-0.2,0.1v9.9h-2.4v-25.9l47.2-25.2V496z"/>
			<path class="st16" d="M198.1,535.3h-0.3c1-2,5.7-3.8,12.7-4.2h0.1v4.2c0,0,3.4,1.8,8.9,0.1V531c6.5,0.6,12.1,2.4,13.1,4.4
				c0.1,0.2,0.2,0.4,0.2,0.6c0,0.5-0.3,1-0.8,1.4c-1.1,1.1-3.5,2-6.6,2.6c-0.8,0.2-1.7,0.3-2.6,0.4c-1,0.1-2.1,0.2-3.3,0.3
				c-0.7,0-1.3,0.1-2,0.1c-0.7,0-1.3,0-2,0c-0.1,0-0.2,0-0.3,0c-0.6,0-1.1,0-1.7,0c-1,0-2-0.1-3-0.1c-0.8-0.1-1.7-0.1-2.5-0.2
				c-1.3-0.2-2.5-0.4-3.5-0.6c-2.9-0.6-5-1.5-6.1-2.5c-0.5-0.5-0.8-0.9-0.8-1.4c0-0.3,0.1-0.5,0.2-0.8
				C197.9,535.3,198,535.3,198.1,535.3z"/>
			<path class="st16" d="M219.4,531v4.4c-5.5,1.6-8.9-0.1-8.9-0.1V531v-11V520c3.1,0.2,6.1,0,8.8-0.4l0.1,0.5V531z"/>
			<path class="st15" d="M207.3,519.7l-21.9,11.1v-18.4h2.4C194.5,516.8,201.1,518.9,207.3,519.7z"/>
			<path class="st14" d="M198.3,537.5h-4.3c-0.1,0-0.1,0-0.2,0l0-0.2c0.9-1.7,3-2,3.9-2.1c-0.1,0.3-0.2,0.5-0.2,0.8
				C197.6,536.5,197.8,537,198.3,537.5z"/>
			<path class="st1" d="M197.7,535.3h0.3C198,535.3,197.9,535.3,197.7,535.3C197.7,535.3,197.7,535.3,197.7,535.3z"/>
			<polygon class="st4" points="181.2,533 181.2,577.7 174,581.9 174,536.9 139.8,552.4 136.2,554 136.2,528.8 172.3,508.5 
				181.2,504.5 			"/>
			<polygon class="st17" points="174,536.9 174,581.9 139.8,552.4 			"/>
			<polygon class="st7" points="172.2,486.6 172.3,508.5 87.7,443.4 86.8,420.9 			"/>
			<polygon class="st10" points="172.3,508.5 136.2,528.8 51.7,456 87.7,443.4 			"/>
			<polygon class="st7" points="136.2,554 136.2,554.2 19.1,444.8 17.5,443.4 17.5,421.8 51.7,456 136.2,528.8 			"/>
			<path class="st9" d="M0.9,362.9v83.4c-0.5,0-0.9-0.4-0.9-0.9v-80.8c0-0.2,0-0.3,0.1-0.5C0.3,363.9,0.5,363.5,0.9,362.9z"/>
		</g>
		<g>
			<polyline class="st18" points="215.4,541 215.5,551 215.5,551.1 215.6,561.6 			"/>
			<path class="st19" d="M213.4,541l-2.6,4.6c-0.8,1.2-1.3,2.5-1.4,4c-0.1,1.8-0.2,4.5,0.1,7c0.1,0.9,0.3,1.7,0.5,2.4
				c0.2,0.7,1.2,0.8,1.6,0.1l3.9-8.1l0.1-0.2"/>
			<path class="st19" d="M217.4,541l2.6,4.7c0.9,1.3,1.3,2.8,1.3,4.3c0,1.8,0,4.5-0.2,6.7c-0.1,0.8-0.2,1.7-0.3,2.3
				c-0.1,0.6-0.9,0.7-1.1,0.2l-4.2-8.2"/>
			<path class="st19" d="M228.3,558c-0.1,0.2-0.2,0.3-0.3,0.5c-0.7,0.9-1.9,1.1-2.9,0.6l-4-2.2h0"/>
			<path class="st19" d="M219.4,541l7.1,6.1c0.9,0.8,1.6,1.9,1.9,3.1c0.6,2.1,1.2,5.4,0,7.7"/>
			<path class="st19" d="M210.4,541l-6,5.9c-1.4,1.3-2.3,3.1-2.5,5c-0.1,1.2-0.1,2.6,0.3,4c0.1,0.4,0.3,0.8,0.5,1.1
				c1.1,1.7,3.6,2.1,5.3,0.8l1.5-1.2"/>
			<path class="st19" d="M208,540.7l-6.2,3.5c-2.4,1.4-4,3.8-4.2,6.5c-0.1,1.3,0,2.8,0.4,4.4c0.1,0.3,0.2,0.5,0.4,0.8
				c0.9,1.4,2.7,1.9,4.2,1.2"/>
			<path class="st19" d="M204.4,540l-7.7,2.1c-1.2,0.4-2.2,1.1-2.9,2.1c-0.9,1.2-1.8,2.9-1.7,4.9c0,1.6,0.6,3.5,2.4,5.4
				c0.8,0.9,2,1.4,3.2,1.4h0.7"/>
			<path class="st19" d="M198.4,537.5L198.4,537.5h-4.4c-0.1,0-0.1,0-0.2,0c-1.1,0-2.2,0.6-2.8,1.5c-1.6,2-3.4,5.9,1,10.2"/>
			<path class="st19" d="M222.6,540.7l7.2,3.8c1.4,0.7,2.6,2,3.1,3.5c0.9,2.4,1.8,6.1-0.6,8.7c-0.3,0.3-0.7,0.6-1.1,0.8
				c-0.6,0.3-1.2,0.4-1.8,0.5l-1.2,0h0"/>
			<path class="st19" d="M225.2,540.1l9.7,2.6c1.3,0.4,2.4,1.3,3,2.5c0.6,1.1,1.1,2.6,1.4,4.1c0.4,2.7-0.3,5.6-3.9,7.7
				c-0.6,0.3-1.2,0.5-1.9,0.5h-2.1"/>
			<path class="st19" d="M231.4,537.5h0.5h4.3c0.1,0,0.3,0,0.5,0c1.2,0.1,2.4,0.5,3.4,1.2c2.3,1.7,5.1,5.2-0.7,10.6"/>
			<path class="st19" d="M232.3,535.4C232.3,535.4,232.3,535.4,232.3,535.4c0.1,0,0.1,0,0.2,0c0.7,0,3.1,0.2,4.1,2.1"/>
			<path class="st19" d="M198.2,535.3L198.2,535.3c-0.2,0-0.3,0-0.4,0c-0.9,0-2.9,0.4-3.9,2.1"/>
			<polyline class="st19" points="197.4,535.3 197.7,535.3 198.1,535.3 			"/>
		</g>
	</g>
	<g>
		<line class="st20" x1="176.6" y1="424.3" x2="174.8" y2="423.3"/>
		<g>
			<polyline class="st20" points="177.9,408.8 171.5,402.9 192.5,402.9 184,408.5 			"/>
			<polyline class="st20" points="174.5,443.5 187.9,432.5 177,424.3 185.1,416.4 178.8,411.5 184.6,411.5 			"/>
			<line class="st20" x1="174.2" y1="443.4" x2="171.3" y2="439.5"/>
			<line class="st20" x1="169.5" y1="448.4" x2="179.1" y2="403"/>
			<line class="st20" x1="174.2" y1="443.5" x2="190.1" y2="443.2"/>
			<line class="st20" x1="176.6" y1="424.3" x2="186.7" y2="424.3"/>
			<line class="st20" x1="177.6" y1="416.7" x2="185.5" y2="416.7"/>
			<polyline class="st20" points="172.9,454.1 179.3,402.9 183.2,402.9 191.4,452.5 			"/>
		</g>
	</g>
	<g>
		<line class="st20" x1="140.7" y1="398.7" x2="138.9" y2="397.7"/>
		<g>
			<polyline class="st20" points="142,383.1 135.7,377.3 156.6,377.3 148.1,382.8 			"/>
			<polyline class="st20" points="138.6,417.8 152,406.9 141.1,398.7 149.2,390.7 142.9,385.9 148.7,385.9 			"/>
			<line class="st20" x1="138.3" y1="417.8" x2="135.4" y2="413.9"/>
			<line class="st20" x1="133.7" y1="422.7" x2="143.2" y2="377.3"/>
			<line class="st20" x1="138.3" y1="417.8" x2="154.2" y2="417.5"/>
			<line class="st20" x1="140.7" y1="398.7" x2="150.8" y2="398.7"/>
			<line class="st20" x1="141.7" y1="391" x2="149.6" y2="391"/>
			<polyline class="st20" points="137,428.5 143.4,377.3 147.3,377.3 155.5,426.9 			"/>
		</g>
	</g>
	<line class="st21" x1="135.4" y1="389.6" x2="101.6" y2="316.2"/>
	<line class="st22" x1="443.3" y1="355.7" x2="463.5" y2="423.4"/>
	<line class="st23" x1="242.9" y1="506.9" x2="376.8" y2="520.1"/>
	<line class="st23" x1="245.5" y1="541" x2="321.9" y2="598.5"/>
	<path class="st24" d="M138.2,315.6l-72,0.7c-2.7,0-4.9-2.1-4.9-4.8l-0.1-10c0-2.7,2.1-4.9,4.8-4.9l72-0.7c2.7,0,4.9,2.1,4.9,4.8
		l0.1,10C143.1,313.4,140.9,315.6,138.2,315.6z"/>
	<text transform="matrix(0.9999 -1.019998e-02 1.019998e-02 0.9999 67.8869 309.821)" class="st14 st25 st26">Transformador</text>
	<path class="st24" d="M436.7,529.6l-54.9,0.6c-2.7,0-4.9-2.1-4.9-4.8l-0.1-10c0-2.7,2.1-4.9,4.8-4.9l54.9-0.6
		c2.7,0,4.9,2.1,4.9,4.8l0.1,10C441.6,527.4,439.4,529.6,436.7,529.6z"/>
	<text transform="matrix(0.9999 -1.019998e-02 1.019998e-02 0.9999 383.5469 523.6105)" class="st14 st25 st26">Generador</text>
	<path class="st24" d="M376.1,608.6l-49.6,0.5c-2.7,0-4.9-2.1-4.9-4.8l-0.1-10c0-2.7,2.1-4.9,4.8-4.9l49.6-0.5
		c2.7,0,4.9,2.1,4.9,4.8l0.1,10C381,606.4,378.8,608.6,376.1,608.6z"/>
	<text transform="matrix(0.9999 -1.019998e-02 1.019998e-02 0.9999 332.7328 602.5596)" class="st14 st25 st26">Turbina</text>
	<path class="st24" d="M518.1,434.2l-49.6,0.5c-2.7,0-4.9-2.1-4.9-4.8l-0.1-10c0-2.7,2.1-4.9,4.8-4.9l49.6-0.5
		c2.7,0,4.9,2.1,4.9,4.8l0.1,10C522.9,432,520.8,434.2,518.1,434.2z"/>
	<text transform="matrix(0.9999 -1.019998e-02 1.019998e-02 0.9999 472.912 428.1715)" class="st14 st25 st26">Desagüe</text>
	<line class="st23" x1="398.2" y1="137.6" x2="465.1" y2="111.2"/>
	<path class="st24" d="M519.9,120.7l-49.6,0.5c-2.7,0-4.9-2.1-4.9-4.8l-0.1-10c0-2.7,2.1-4.9,4.8-4.9l49.6-0.5
		c2.7,0,4.9,2.1,4.9,4.8l0.1,10C524.8,118.4,522.6,120.6,519.9,120.7z"/>
	<text transform="matrix(0.9999 -1.019998e-02 1.019998e-02 0.9999 474.7618 114.6178)" class="st14 st25 st26">Embalse</text>
	<rect x="136.3" y="435.8" class="st27" width="6.8" height="8.2"/>
	<g>
		<path class="st15" d="M139.7,437.3c-2.5,0-4.2-0.8-4.2-1.5s1.7-1.5,4.2-1.5c2.5,0,4.2,0.8,4.2,1.5S142.2,437.3,139.7,437.3z"/>
		<path class="st28" d="M139.7,434.5c2.4,0,4,0.8,4,1.3s-1.6,1.3-4,1.3s-4-0.8-4-1.3S137.3,434.5,139.7,434.5 M139.7,434
			c-2.5,0-4.5,0.8-4.5,1.8c0,1,2,1.8,4.5,1.8c2.5,0,4.5-0.8,4.5-1.8C144.2,434.8,142.2,434,139.7,434L139.7,434z"/>
	</g>
	<path class="st29" d="M135.9,437.3"/>
	<path class="st29" d="M143.1,438.2"/>
	<path class="st29" d="M143.8,439.5c0,0.8-1.8,1.4-4,1.4s-4-0.6-4-1.4"/>
	<path class="st29" d="M143.8,441.3c0,0.8-1.8,1.4-4,1.4s-4-0.6-4-1.4"/>
	<path class="st29" d="M143.8,444c0,0.8-1.8,1.4-4,1.4s-4-0.6-4-1.4"/>
	<path class="st30" d="M135.7,377.3c0,0-6.5,43.6,0.2,57.6"/>
	<path class="st30" d="M156.6,377.3c0,0-3.5,51.7-12.4,58.5"/>
	<path class="st30" d="M192.5,402.9c0,0-26.5,33.6-49.5,35.2"/>
	<path class="st30" d="M171.5,402.9c0,0-21.7,40.8-36.1,34.8c-0.7-0.3,1.8,1.4,4,1.4s4-0.6,4-1.4"/>
	<path class="st30" d="M87.7,369.8"/>
</g>
</svg>
