<?xml version="1.0" encoding="utf-8"?>
<!-- Generator: Adobe Illustrator 27.1.0, SVG Export Plug-In . SVG Version: 6.00 Build 0)  -->
<svg version="1.1" id="Capa_1" xmlns="http://www.w3.org/2000/svg" xmlns:xlink="http://www.w3.org/1999/xlink" x="0px" y="0px"
	 viewBox="0 0 368.5 792" style="enable-background:new 0 0 368.5 792;" xml:space="preserve">
<style type="text/css">
	.st0{fill:#BBCDEC;}
	.st1{fill:none;stroke:#000000;stroke-width:0.5;stroke-miterlimit:10;}
	.st2{opacity:0.8;}
	.st3{fill:#FFFFFF;}
	.st4{font-family:'Helvetica';}
	.st5{font-size:5.0742px;}
	.st6{fill:#C01F22;}
	.st7{fill:#C11E25;}
	.st8{font-family:'MyriadPro-Regular';}
	.st9{font-size:6.223px;}
	.st10{fill:#008938;}
	.st11{fill:#038B38;}
</style>
<g>
	<g id="XMLID_1_">
		<g>
			<polygon class="st0" points="189.64,379.64 190.63,381.89 189.18,383.48 189.58,385.26 189.45,387.59 188.32,389.9 
				187.79,389.43 186.4,389.37 184.47,391.42 184.47,394.73 180.58,394.73 180.58,396.12 179.19,396.12 179.19,395.2 178.19,395.2 
				178.19,393.06 176.55,393.06 176.55,393.86 175.62,393.86 175.62,395.1 174.37,395.1 173.97,396.23 172.58,396.23 171.29,394.05 
				169.3,394.05 165.83,391.37 163.31,391.37 161.81,388.49 160.77,388.49 160.37,389.69 160.37,390.63 157.84,390.63 
				157.84,391.37 155.81,391.37 155.81,389.34 154.91,389.34 154.07,389.34 154.07,387.6 152.08,387.6 152.08,386.96 148.96,386.96 
				148.96,385.72 152.58,382.49 152.58,380.16 151.58,378.57 151.58,377.33 154.12,375.04 154.12,373.36 155.26,372.56 
				155.26,370.63 158.83,367.94 158.83,363.13 161.27,359.25 162.31,359.75 162.31,360.85 162.9,360.85 162.9,362.34 164.34,362.34 
				166.18,362.34 166.67,364.37 167.87,364.37 168.32,363.08 170.95,363.08 171.34,363.97 173.08,364.37 173.08,362.19 
				174.62,362.08 175.66,362.39 176.2,361.54 177.05,361.54 178.09,362.19 178.88,362.08 179.97,363.42 183.4,363.42 185.39,365.46 
				186.04,365.46 186.33,364.42 187.07,364.42 187.67,365.46 190.04,365.62 190.11,368.79 188.06,369.12 186.67,369.65 
				186.93,371.71 189.24,372.63 188.51,374.15 190.11,375.73 189.18,377.26 			"/>
		</g>
		<g>
			<path class="st1" d="M221.74,31.89v-0.38l0.6-1.26l-1.46-2.05l-0.79-5.9l-1.13-1.45l0.33-2.31l-1.52-2.52l1.58-1.99v-0.92
				l-4.63-1.59V7.29l-3.57-4.24l-3.7,2.38h-3.98v2.38v2.12l1.86,2.65l-4.17,4.76h-2.71l-1.46,1.52h-2.12l-1.32-0.53l-1.26,0.86
				l0.92,2.05l-0.53,6.02l0.13,2.19l0.47,2.05l-0.13,2.65l0.75,1.26v2.53v1.7l1.37,1.99l0.06,4.03l1.26,1.52l-0.13,3.51l0.53,2.85
				l-0.13,2.84l-0.66,0.73v1.82l0.44,1.59l-1.17,0.96v2.8v6.54l1.05,1.14v1.54l-0.62,1.09v1.37l1.01,0.52v1.32l1.19,2.35v0.96
				l-0.69,0.92l0.6,1.07v1.74l-1.84,2.59v5.1l-0.75,0.75v1.29v2.53l-0.6,0.41v1.24v3.07l-0.59,0.65v3.62l-0.6,0.99v3.07l-0.89,0.74
				v1.69l0.84,0.64l-0.5,1.74l-1.68,2.59h-1.79l-0.99-1.2h-0.94v3.48l-0.84,0.74v4.67l-0.84,0.29v1.2h2.78v-1.3l1.24-0.04l1.05,1.34
				v2.63l-1.89,2.63l-0.25,3.78l-0.69,0.5v1.39l0.69,0.35v2.73l-0.98,1.84v3.72l-0.25,1.14v6.45c0,0,1.74,3.13,1.74,3.33
				c0,0.19,0.05,1.34,0.05,1.34l-0.69,0.5v1.14l1.19,0.75v4.36l-1.39,0.25l-0.4,1.48l-2.18,1.39v2.64l-1.64,3.02l1.75,3.62v1.74
				l-0.55,0.89v3.78l0.64,1.19l-1.29,0.89v4.82l-1.09,1.79v1.54l-1.2,1.74v1.29l0.99,1.05v1.34l-1.94,1.79h-1.69v5.56l1.4,1.63
				l-1.07,4.12h-1.89l-1.12,3.25l-1.05,4.37l-0.24,7.57l-1.25,1.63l-0.84,0.29v1.3l-0.89,0.45l0.7,1.39l-0.15,1.04l-3.83,4.12v1.59
				l0.65,0.84l-0.12,3.47l-0.03,0.7c0,0,3.18,2.97,3.23,3.13c0.05,0.15,0.15,2.88,0.15,2.88l-0.89,0.5l0.15,1.29l0.93,0.5
				l-0.84,2.53l1.2,2.98v1.48l-2.49,1.15v1.1l0.82,0.81v1.56h-1.87l-0.45,2.44h-3.13v2.97l-0.55,8.84l0.75,1.84l0.19,5.8l0.45,2.14
				l0.36,2.28l0.84,1.48l0.14,3.78l0.85,0.75l-0.05,2.77l0.14,4.87l-0.69,0.5v1.34v0.94l2.58,3.28l-0.5,1.38l0.05,0.99l-0.79,0.8
				v1.53l0.79,0.35v1.54l-0.94,1.1l-0.99,0.59l0.1,1.94v0.89l-0.69,2.04h-1.69v1.63h-1.29v1.84l1.64,2.58l-0.15,1.44l-0.79,0.7v1.24
				l1.74,1.49v3.33l-0.17,0.11l-3.3,2.12l-0.75,2.43l-2.78,4.82v0.94l1.15,0.89v2.87h-1.44v6.85l-2.44,3.88v4.81l-3.57,2.69v1.93
				l-1.14,0.8v1.68l-2.54,2.28v1.24l0.99,1.59v2.33l-3.62,3.23v1.24v6.7l-0.22,0.26l-1.32,1.62v2.08h-1.34v0.94l0.5,0.65v1.74h-3.23
				v8.89l-1.29,1.74l-2.68,0.84l-2.98-1.89l-0.98,0.75v2.32l-0.5,0.45v1.05l1.79,1.29v1.54l-1.79,1.49v1.63l0.89,0.5V423l3.37,5.65
				v3.19l-1.34,1.88v4.12l0.06,0.43l0.24,1.72h0.64l4.57,12.6v4.37v2.37l-2.18,3.62v3.18l-5.26,2.93v0.89l1.09,0.6v1.94l-1.44,1.29
				l-0.06,1.44l-0.18,3.87l0.74,1.1v1.19l-1.63,1.63v1.84l-1.25,2.28v1.2l0.65,0.29v0.75l-1.49,0.93v1.69h0.5v2.43l1.94,2.73v4.12
				l1.74,1.81h2.46l1.45-1.58l-0.26,1.58l-3.31,2.31l0.19,0.93l2.25,0.32l1.33,0.4l1.32-0.46l1.92,0.46l3.18-2.11l-0.06-1.65
				l-0.67-0.47l0.41-1.06l1.79-1.39l1.79,0.13l1.85,1.92l0.93,1.65l1.32,0.53l1.99-0.66l1.39-1.52l0.13-4.1l1.26-0.13l-0.2,5.96
				l-2.65,1.25l-2.91,0.2l-3.11,3.97l0.32,0.86l1.52,0.79h2.59l1.19-1.39l0.6,0.07l0.13,1.99l-0.73,0.4v1.52h1.26v0.77l-0.5,0.45
				v0.8l0.55,0.19v0.55l-0.7,0.45v0.69l0.89,0.94v2.04h-0.79l-1.84-5.75h-0.84l-3.28,1.88v0.8l3.62,4.07h0.84l0.6,0.94l-0.5,0.64
				l-2.53-1.79h-1.49l-0.15,1.05h-0.64v1.84h0.79v1.1h-0.84v3.52l2.13,1.09l0.1,3.48l-0.94-0.7l-0.2-0.98h-0.79l-0.94,1.68v3.52
				l-2.33,1.79v3.43l1.15,1.93h2.03l-0.29,0.8l-2.08,1.24v1.19h2.53v-1.53h1.05v2.13v0.94h-2.96l-1.65,3.6l-0.16,1.99h-1.56v2.31
				h1.26v1.36h2.52l3.44,3.47h1.62l1.23-1.45v3.34l-1.89,1.79v3.31h-1.2l-4.29,4.08h-4.14v2.05l1.16,1.22v1.52l-2.42,0.67v1.29
				l0.79,0.66h1.33l1.09-1.42l3.54,2.87h2.98v1.76h-3.01l-3.26-3.26h-0.49l-3.03,3.03l-0.96,3.94v2.01h0.95l2.22-2.21h2.45
				l-0.03,1.55h-2.75l-2.48,2.35v1.29h0.63v0.69h-1.79v6.03h0.76l2.21-3.97h1.33v1.02l-2.69,2.94v2.71h-1.35l-1.42,1.76v2.85
				l-2.25,1.32h-0.53l-1.17-0.66v-1.39l2.88-2.81l-3.04-1.64l-1.14,0.75v-2.38h-0.75l-1.89,1.44h-2.03l-1.74-2.14l0.64-0.35
				l1.64,1.44l3.37-1.05l0.05-0.89h-1.05l0.43-0.42l0.77-0.67l-0.1-0.89l-0.29-0.75l0.5-1.09l-1.15-0.36l-0.1-1.34l-0.05-1.34
				l-3.77,0.35l0.05,1.49l0.59,0.6l-0.29,1.63l-0.6,0.75l-0.64-0.5v-1.34l-1.25-0.99v-0.89l-1.58,0.1v4.12l-0.94,0.04l-0.4,1.3
				l0.79,0.89l0.25,1.39l-1.39-0.15l-0.36-0.89l-1.19,0.4v2.04l-2.08-1.39l-0.77,0.76v1.02l2.01,1.24v0.65h-1.79l-1.05-1.75h-0.55
				v1.94l-2.38,0.79l-4.36,4.67v2.44v0.79h1.05l0.14,1.84l1.25,1.15h1.58l1.49-1.49l-1.49-3.52h-1.19l-0.89,1.24h-0.84v-1.74
				l2.87-1.25l2.83-0.09v-0.8h1.24l3.03-3.07h0.4v1.79l-2.28,1.74l3.23,3.93h1.58l0.5,0.84h1.2v-1.34h1.29v-0.89h3.78l0.19,1.63
				l2.33-0.1l0.05,0.85l-1.54,0.19l0.1,1.39l3.13,0.7l0.94,1.24l-0.19,0.74l-0.75,0.84l0.99,2.14l-0.15,0.99h-1.04v-1.69l-1.39,0.2
				l-0.45,1.09l1.04,1.39l-0.05,0.94h-0.84l-1.09-3.18h-1.59l-2.33,4.27l0.3,1.1l2.92,2.53l1.74-0.29l1.39-0.75h0.55l0.15,2.04
				l-1.49,0.35l-0.19,0.6l-1.75,0.29l0.2,0.74h1.49l0.09,0.7h1.49l0.2,0.94l2.73-0.2l0.19-2.43l0.75-0.75l-0.15-1.29l0.2-1.58h1.29
				l0.55,2.23l-1.2,1.39v1.63h2.44v1.79h0.99v1.89h3.92v1.1h-3.97L142,634.7l-0.32,0.32v1.37l3.55,2.82h1.05l0.14-1.63h0.9
				l-0.25,2.38l-1.19,1.14l-1.34-1.04l-0.99,0.24l-0.25,1.24l-0.99-0.69l-0.4-1.79h-2.23v-0.94h-1.09v-0.94h-6.01v0.94l2.08,3.18
				v0.6h-1.29v1.29h2.88v0.74h-1.15v0.6h4.02v1.14h-1.93l-0.5,1.05l0.19,0.84l1.1,1.05v0.69h-1.68l-1.99-2.78l-2.58,2.54l0.79,1.94
				l3.57,0.29l-0.1,1.1h-2.33l-2.43,0.29l0.1,2.53l0.93,0.5l0.1,0.8l-0.89,1.34l0.1,1.43l0.55,6.45l1.24,1.05l1.1,1.1h0.64v-6.21
				h1.44v-4.21h3.02v1.04h-1.84l0.2,4.37l1.68,1.04l0.1,0.99l-2.88-1.94l-0.49,0.1v4.37l3.37,0.79l0.05,2.53l2.78,1.49l-1.05,1.44
				l-0.03-0.03l-2.5-2.55l-0.45-2.19l-3.38-0.04l-1.84,1.58l0.55,1.99l3.28-0.1l-0.4,1.14l-2.59,0.2l-1.09,0.99v0.55l0.84,0.98h2.13
				l0.6,0.6h1.19l1.29-1.58h0.75v1.58l-0.2,2.78l-2.48-0.5l-3.13-1.79l-0.94,0.6v1.09l2.13,1.54v1.19h3.18v1.84h1.74v1.15h-2.23
				l-1.1-1.59l-1.58,0.3l-1.74-1.64l-0.2-1.39l-1.98,0.15l-0.15,0.65l-1.94-0.2l-0.45,1.94l2.49,0.24l0.24,2.09l1.59,0.5l0.54-1.69
				l1.1,0.6l-0.45,2.78h0.84l2.33-1.68l0.5,0.04v1.84l1.41,1.42v0.52h-2.2v0.89h-1.75l0.15,1.39l2.04,0.89v1.05l-0.7,0.6l0.79,1.19
				h1.99l1.1-2.08v-3.43l2.92-3.83l0.94,0.6l-2.03,2.49v0.99l3.07,1.63l-0.74,1.29l-2.04-1.49l-1.54,0.94v5.37l-1.58-1.3h-4.22
				l-0.4,2.78l1.1,0.2l1.34-1.64h0.45l0.05,1.64l-1.1,0.89v2.33h1.24l0.55-1.94l0.45-0.1c0,0-0.19,1.39,0.1,1.64
				c0.29,0.24,1.74,0.09,1.74,0.09l0.74-1.09l1.54,0.99l-0.15,1.68l-0.45,2.49l1.39,1.19l0.22,3.94l-2.32-3.54l-1.35-1.39l-0.8,0.66
				l0.04,2.52l1.32,0.47l0.13,2.18l2.25,0.99c0,0,2.38-0.47,2.55-0.4c0.16,0.06-0.92,2.52-0.92,2.52l1.75,3.04
				c0,0-1.35,1.92-1.02,2.18c0.33,0.26,1.73,1.03,1.73,1.03l0.89-0.92l-0.89-7.84l-0.1-1.39l1.42-0.63l0.7-0.07l0.79,1.59
				c0,0,1.62,0.23,1.62,0.32c0,0.1,0.66,1.39,0.66,1.39l1.76,0.2l1.06,0.86l1.76,0.29l0.73-1.06l-0.3-1.49l-2.74-1.89l-2.31-1.26
				l-1.36,0.7l-0.86-1.23l-2.12-0.47l0.07-1.39l2.68-0.69l3.18,2.52l3.41,1.76l0.61,0.73l1.74,2.05l0.2,6.44h-1.16l0.03-2.31
				l-1.45,0.2c0,0-0.7,1.19-0.73,1.32c-0.03,0.13,0.76,1.36,0.76,1.36l1.76,1.36l0.43,1.19v2.45l-1.58,0.76v0.86v1.1l-3.91-0.23
				l-0.07,0.95l1.92,0.73l3.48-0.16h6.85l5.93,0.5l0.29,1.39l-1.86,0.98l-3.94,0.5l-0.76-1.19l-2.58,0.26l-1.33,1.86l-1.65,1.68
				c0,0-0.26,0.76-0.32,0.96c-0.07,0.19-1.96-0.44-2.12-0.41c-0.16,0.04-2.38,0.13-2.38,0.13l1.65-2.34l-0.26-0.63l-3.57,3.28
				l0.02,0.39l0.14,2.89l0.99,0.4c0,0-0.29,1.98-0.29,2.15c0,0.16,2.28-0.37,2.28-0.37l0.82,0.4c0,0-0.82,1.19-0.82,1.32
				c0,0.13,0.06,2.56,0.16,2.59c0.1,0.03,2.15,0.43,2.15,0.43l0.16-2.94l2.85-0.43l-0.47-1.93l-2.74-0.03l0.13-0.95l4.6,0.09
				l0.73,1.62l1.29,0.07l8.07-7.32l1.69,0.03l2.65,2.55l-3.67,4.7l-2.62,0.27l-2.45,1.68l-0.13,4.52l-0.04,1.47l-2.34,1.29
				l-1.13-0.5l0.48-0.4l2.27-1.89l-0.2-4.5l-2.48,0.1l0.16,3.47l-1.1,1.19l-2.21-0.16l2.55-1.99l-0.03-1.79l-3.51,0.1l-0.99,2.05
				l0.38,1.92l0.46,0.6l3.5,4.54h3.01l2.78,2.42h2.78l0.66,0.82h2.58l2.75-1.75l0.36-6.22l-0.78-0.73l0.13-1.76l0.4-0.83l-0.03-3.18
				l1.32-0.98l0.5-4.27l-0.2-1.79l0.86-2.31l2.18-0.8l1.78-0.75l1.81-0.77l6.81-2.84l1.46,0.86l1.13-0.53l1.85-3.85l3.51-2.58
				l-0.13-0.73l-5.09-0.19l-5.63-3.18h-24.68l-1.39-0.6l0.73-1.99l-4.24-3.5v-2.12h-2.12v-2.05l1.66-3.85l0.79-1.85l-2.31-1.86
				l2.64-2.31l-0.32-4.3l-1.48-1.45l0.62-2.19l-3.51-0.53l-0.79,1.65l-1.99-1.52l-5.23,3.78l0.26-3.84l-2.91-1.26l-0.3-2.61
				l-0.28-2.35l-1.39-2.91l0.85-3.31l-1.45-0.93l1.65-2.65l3.91-5.89l0.66-2.05l-1.06-1.2l-0.8-2.51l1.2-3.38l1.65-3.44l1.72,0.32
				l3.91-3.77l-1.19-6.42l0.86-0.13l1.39,1.65l0.92-0.13l0.4-2.52l1.73-1.92V642l-1.39-1.06l0.06-3.12l-2.97-3.84l1.26-2.31
				l-0.13-2.18l2.35-2.05v-3.45l2.14-0.53l1.45-4.23h2.46v-2.05l-2.05-0.93l0.66-4.96l3.97-2.45l-0.13-4.9l-0.79-1.65l-0.4-4.23
				l-2.32-0.79l4.17-3.85v-1.65l-2.18-0.99l0.2-6.02l4.17-0.73l-0.07-3.18l2.71-1.65v-0.79l-3.18-3.12v-2.31l-7.94-1.19v-3.51
				l3.44,0.13l0.99-0.19l1.06,0.79l0.86-0.2l1.19-1.13l1.92,1.65l2.25-0.26l0.2-2.97l1.32-1.52l0.26-1.79l-1.45-1.79l-9-0.26
				l0.46-4.64l-1.19-0.99l1.32-0.72l1.39-2.06v-0.61v-1.9l-1.35-1.36v-1.23l2.74-1.06v-1.59l-5.23-2.91v-2.71l3.12-1.13v-2.91
				l-6.09-4.96v-4.9l1.92-3.84v-2.45l-1.99-0.07v-4.3l1.73-1.06l1.52,1.39l2.45-1.19v-7.35l-1.92-2.59l-0.13-3.84l-0.6-1.58
				c0,0,0.99-2.38,0.99-2.65s0.06-3.64,0.06-3.64l-0.79-2.52l0.26-1.39l-1.19-2.78l0.26-1.79l0.5-0.69l1.02-1.42l-0.26-3.45
				l2.05-0.06l0.86-1.86l-0.99-0.86l-0.92-0.19v-3.91h1.52v-1.65l1.58-1.58v-1.26l-1.45-1.46v-3.84h0.59h2.52v-1.59l-1.16-1.16
				l1.79-1.79v-2.15v-2.05v-5.89l5.33-3.58h2.24l1.14-2.11l0.92-2.12l-2.84-2.45v-6.71v-0.45l-1.73-2.78l-1.72-1.32l1.52-1.58
				l-0.6-1.66l-0.79-0.72l0.92-1.79l0.4-2.98l-1.26-2.25l1.07-3.37l0.09-1.94l0.04-0.84l-0.6-4.04c0,0,0.73-1.99,0.73-2.25
				s1.45-2.24,1.45-2.24l-0.33-3.25h0.8h1.39v-1.39h3.9v-3.31l1.93-2.05l1.39,0.06l0.53,0.47l1.13-2.31l0.13-2.32l-0.4-1.79
				l1.45-1.58l-0.99-2.25l-0.46-2.38l0.92-1.52l-1.59-1.58l0.73-1.52l-2.31-0.92l-0.26-2.06l1.39-0.53l2.05-0.32l-0.07-3.18
				l0.99-2.46l0.07-2.25l-0.67-0.72l1.52-1.26l1.26-2.78l2.91-2.65v-3.44h2.65l0.79-1.65l-1.32-1.52l1.06-1.86l-0.79-1.72v-7.88
				l2.62-2.62l-2.28-4.8l-0.93,0.07l-0.85,2.71h-1.07l-0.79-5.23l0.33-1.33l1.32-2.84l-2.95-2.78v-2.91l0.64-1.39v-1.72l-2.12-1.07
				v-2.45l-0.95-0.55l-0.3-0.18v-2.45l-1.06-1.79h1.85l0.99-1.26v-1.59l-4.3-1.58v-2.78l-1.65-2.58l0.47-3.45l0.26-4.23l0.73-2.25
				l1.26-0.32l0.66,1.39l0.6-0.93c0,0,0.98-2.24,0.98-2.51c0-0.27-0.06-3.91-0.06-3.91l1.32-2.38l0.4-3.18l1.07-1.52l-0.07-2.18
				l2.59,1.06l1.65-0.33l2.05-4.36l-0.53-1.79l-1.79-0.07l0.13-2.91l1.06-1.79l-0.73-2.78l-0.06-2.05l-1.07-1.79
				c0,0-0.03-0.67-0.07-1.34c-0.04-0.64-0.09-1.27-0.12-1.37c-0.07-0.2-0.92-1.79-0.92-1.79l1.06-2.12l0.86-1.73l2.18-0.4l0.86-0.66
				l0.06-3.31l1.79-3.64l-0.59-2.78l1.39-1.79v-2.91l2.05-1.79l1.26,0.26l0.26-3.18l1.45,0.73l2.45-4.83l2.32-1.65l0.79-2.12
				l0.53-3.37l1.33-0.4l3.37-6.49l-0.4-2.37l2.05-1.39l1.92,1.52h1.79l0.86-2.25l2.32-0.07l1.19-2.11v-1.65l-5.03-7.08l0.26-4.51
				l3.51-2.71l-1.06-7.55l-0.67-3.77l-1.45-2.12l0.06-3.51l0.86-1.58l-0.07-0.55l-0.12-0.84l1.13-2.38l2.58-0.06l0.47-1.52
				l-4.17-4.57l1.65-4.24l1.72-3.04l1.59,0.4l1.58-2.18l16.55-6.02l8.67-21.71l-3.51-3.91l-7.01,1.32l-5.36-0.73l-1.73-1.45
				l0.8-5.03l-0.93-2.84l-1.26-1.46l1.2-2.05l-0.73-1.85l-0.06-1.86l-1.8-1.79v-5.49l-2.45-2.52v-6.69l-3.7-7.22h-2.71v-5.02
				l1.85-0.99v-1.59l-6.02-3.57v-0.99l1.92-0.59v-0.99l-1.07-0.93l-0.32-2.11h-1.2l0.27-1.33l4.63-0.72v-3.58l-2.91-2.37l0.2-1.26
				l5.96-5.83l-3.38-3.25l-1.06,0.4l-5.9-6.22V31.89z"/>
			<polyline class="st1" points="193.9,37.95 197.01,36.21 199.69,35.46 200.24,34.72 203.76,34.43 205.94,33.72 210.95,33.72 
				211.79,34.87 213.34,35.01 214.18,35.84 217.65,35.17 219,33.72 221.74,31.89 			"/>
			<polyline class="st1" points="198.25,82.74 198,83.12 205.07,83.12 207.38,85.85 208.51,85.85 213.13,81.88 229.09,76.05 
				228.76,73.93 			"/>
			<polyline class="st1" points="186.09,177.73 188.62,177.73 189.21,176.89 191.19,176.89 191.19,175.29 192.68,175.29 
				192.68,176.51 195.76,176.51 196.86,177.08 197.85,175.99 199.14,175.99 200.53,176.51 208.07,176.51 209.66,175.29 
				211.84,175.29 213.24,174.71 215.62,174.71 217.3,172.02 216.22,169.54 217.9,167.86 217.9,165.66 222.87,165.66 226.37,163.66 
							"/>
			<polyline class="st1" points="170.28,244.19 172.03,244.19 173.13,243.21 173.68,243.21 174.07,244.19 176.01,244.19 
				176.01,246.23 177.8,246.78 178.09,247.81 179.19,247.81 179.97,243.74 180.97,242.9 183.05,242.9 184.53,241.12 187.82,241.32 
				188.17,243.45 188.82,245.34 189.06,247.81 189.9,248.31 192.68,248.31 193.9,250.7 197.84,250.7 			"/>
			<polyline class="st1" points="169.51,306.59 171.89,306.59 171.89,307.14 174.47,307.14 175.26,305.65 177.45,305.4 
				178.88,303.32 180.48,303.32 180.48,304.41 181.77,304.36 182.71,303.32 184.75,303.32 185.29,305.22 186.59,306.05 
				188.82,306.1 188.82,308.03 189.56,308.67 191.47,308.54 			"/>
			<polyline class="st1" points="164.34,342.87 165.49,342.87 165.49,343.32 166.18,343.32 167.22,343.32 168.12,342.13 
				169.3,342.13 169.3,339.75 170.9,339.75 171.64,340.25 172.29,340.09 172.29,338.8 171.34,337.96 171.34,337.36 173.33,336.18 
				173.33,335.08 172.93,335.08 173.03,332.55 175.46,331.06 175.46,328.43 178.93,328.43 178.93,323.32 180.27,322.97 
				180.82,321.73 183.9,321.73 183.9,322.37 186.59,322.37 186.59,323.47 187.22,323.47 187.22,325.15 188.32,325.1 188.82,323.66 
				189.61,323.76 190.06,325.86 191.35,325.9 191.79,326.55 193.13,326.2 195.54,324.24 			"/>
			<polyline class="st1" points="196.13,350.06 195.02,350.06 195.02,348.73 193.53,348.73 193.53,346.41 192.66,345.53 
				191.55,345.53 191.55,346.2 190.25,346.2 190.25,344.21 189.71,343.32 189.71,341.88 188.91,341.34 187.57,341.34 187.57,342.13 
				185.73,342.29 185.39,343.32 182.11,343.32 182.11,345.11 180.22,346.3 180.22,348.04 175.81,348.04 174.22,345.96 
				171.98,345.96 171,344.71 167.62,344.71 166.18,343.32 			"/>
			<polyline class="st1" points="161.27,359.25 162.31,359.75 162.31,360.85 162.9,360.85 162.9,362.34 164.34,362.34 
				166.18,362.34 166.67,364.37 167.87,364.37 168.32,363.08 170.95,363.08 171.34,363.97 173.08,364.37 173.08,362.19 
				174.62,362.08 175.66,362.39 176.2,361.54 177.05,361.54 178.09,362.19 178.88,362.08 179.97,363.42 183.4,363.42 185.39,365.46 
				186.04,365.46 186.33,364.42 187.07,364.42 187.67,365.46 190.04,365.62 			"/>
			<polyline class="st1" points="148.96,386.96 152.08,386.96 152.08,387.6 154.07,387.6 154.07,389.34 154.91,389.34 
				155.81,389.34 155.81,391.37 157.84,391.37 157.84,390.63 160.37,390.63 160.37,389.69 160.77,388.49 161.81,388.49 
				163.31,391.37 165.83,391.37 169.3,394.05 171.29,394.05 172.58,396.23 173.97,396.23 174.37,395.1 175.62,395.1 175.62,393.86 
				176.55,393.86 176.55,393.06 178.19,393.06 178.19,395.2 179.19,395.2 179.19,396.12 179.19,396.23 			"/>
			<polyline class="st1" points="148.96,394.1 148.96,396.23 152.43,399.51 152.82,402.44 151.74,403.44 151.74,404.18 
				153.67,404.18 156.05,403.94 158.78,406.46 158.78,407.16 157.44,409 157.44,410.14 160.57,410.14 160.57,409.54 162.01,409.54 
				162.01,410.14 164.34,410.14 164.84,408.55 167.17,408.55 167.17,409.29 169.25,409.29 169.8,408.01 169.8,406.31 170.64,406.36 
				171.39,407.51 172.39,408.01 173.47,407.9 174.12,408.5 177.1,408.75 			"/>
			<polyline class="st1" points="137.89,438.26 140.12,436.75 141.06,436.75 142.26,438.26 142.75,438.26 142.75,435.9 
				141.61,435.25 141.61,434.31 145.38,431.58 145.38,430.09 144.04,429.25 144.04,427.66 144.99,426.91 144.99,425.13 
				146.33,424.54 146.33,422.35 145.18,421.4 145.18,420.06 148.36,420.06 148.36,419.27 150.99,419.27 151.29,419.97 
				152.38,419.97 152.38,420.42 155.11,420.42 155.11,422.84 156.4,424.63 157.35,424.63 157.35,425.23 158.78,425.23 
				161.06,427.81 163.89,427.81 164.2,429.15 165.39,429.15 166.08,428.2 167.82,428.2 167.82,433.91 169.01,433.91 171.89,431.03 
				171.89,429.64 179.19,429.59 			"/>
			<polyline class="st1" points="143.34,456.95 145.63,456.95 147.27,454.57 149.65,454.57 150.09,455.75 148.85,456.2 
				148.85,457.44 150.89,457.44 150.89,457.99 153.08,457.99 155.16,457.99 155.16,459.08 156.75,459.08 162.71,459.08 
				163.55,458.04 166.38,458.04 167.27,459.33 169.11,459.33 169.25,461.18 			"/>
			<polyline class="st1" points="135.49,475.22 140.27,475.22 140.27,476.25 145.88,476.25 148.75,478.24 148.75,480.18 
				152.97,483.31 162.4,483.31 162.4,482.71 165.23,482.71 			"/>
			<polygon class="st1" points="132.87,509.61 136.39,509.61 136.7,507.98 139.62,507.98 139.62,509.37 138.78,510.45 
				141.06,512.29 141.06,513.39 140.27,513.78 140.27,514.78 142.3,515.77 142.3,517.56 138.83,518.3 137.88,519.19 137.88,521.18 
				138.48,522.12 138.48,522.57 137.04,522.57 136.3,521.42 135.63,522.09 135.63,524.15 140.77,527.98 140.77,529.66 
				137.93,529.66 137.93,530.26 140.07,532.39 140.07,534.54 138.68,535.23 137.28,534.73 136.44,534.73 136.44,536.72 
				137.51,537.78 137.51,539.79 136.3,539.79 131.58,539.79 131.29,538.95 128.25,538.95 127.46,537.51 128.35,535.62 
				130.59,530.86 130.59,526.24 131.29,526.14 131.29,523.17 129.85,521.73 129.85,519.74 130.54,519.45 130.54,516.12 
				132.27,513.59 132.27,509.76 			"/>
			<path class="st1" d="M144.9,571.78h2.38l4.57-4.04v-0.73l-2.78-0.53l0.47-1.19l2.65,0.72l0.79-1.39l-0.6-1.79h-1.39l-0.98,0.67
				l-0.13-2.59h-1.52l0.13,0.6l0.46,0.86l-0.99,0.26l-1.45-0.8l-1.13,0.47l0.07,1.2l2.11,0.72l-0.32,0.86l-1.39,0.13l0.06,1.39
				l-1.32-1.06l-1.86-0.07v1.52l0.86,1.46l1.79,0.53c0,0,0.99,0.32,1.2,0.32c0.19,0,0.06,0.07-0.2,0.47s-2.58,0.2-2.58,0.2
				l-0.2,1.26L144.9,571.78z"/>
			<polygon class="st1" points="180.84,767.75 179.97,769.47 179.12,771.06 177.8,771.59 176.73,770.39 173.69,770.13 
				171.84,771.33 171.84,772.65 172.76,773.84 174.62,772.38 176.07,772.65 176.34,773.84 177.01,775.43 178.85,773.71 
				180.71,774.5 181.37,775.43 182.03,775.43 183.62,775.43 185.6,774.5 185.87,775.43 185.07,777.02 182.03,777.55 182.82,778.6 
				186.4,778.6 187.46,777.68 188.12,775.3 189.58,775.69 189.18,776.76 188.65,778.6 190.24,778.08 190.5,776.48 191.29,777.81 
				192.23,777.94 191.95,774.9 193.9,775.43 193.9,776.76 196.06,775.43 196.99,776.35 197.25,778.6 201.49,779.8 204.41,779.8 
				207.58,780.46 206.78,778.74 204.54,777.02 205.46,776.35 207.58,776.89 209.17,779.13 209.17,773.04 206.65,772.51 
				206.65,771.46 209.17,771.46 210.09,732.8 208.24,731.35 206.52,732.41 203.08,733.46 199.64,729.23 198.07,730.42 
				197.91,730.55 197.91,732.67 196.06,735.06 191.95,736.38 189.98,734.66 187.06,734.92 188.65,736.38 189.71,738.1 
				192.09,738.63 191.43,741.01 188.51,741.01 187.06,739.82 186,741.01 186,746.31 189.32,749.62 191.16,748.55 193.9,747.1 
				199.64,747.1 200.69,749.62 196.86,752.27 192.49,753.72 189.71,756.63 191.16,759.81 191.29,762.33 196.72,765.5 201.49,767.62 
				204.41,769.47 204.41,771.46 202.55,770.8 202.81,772.51 201.36,772.51 200.16,774.77 198.32,773.58 200.69,771.46 200.3,769.47 
				197.65,768.41 198.04,770.39 196.33,768.94 195.2,767.62 193.9,767.09 195.2,771.33 194.6,772.65 193.02,771.2 192.49,767.89 
				190.77,765.9 189.04,767.49 190.24,769.21 189.58,770.54 186,767.22 186,769.21 189.84,772.12 187.46,772.91 184.53,769.6 
				183.09,771.06 183.62,772.12 183.75,773.58 181.37,773.58 181.37,770.93 183.09,768.94 			"/>
			<path class="st1" d="M151.74,548.03h2.33c0,0,0.55,0.65,0.69,0.65c0.15,0,1.15,0,1.15,0l2.43-2.49h0.85v2.28l2.08,1.54
				c0,0,1.39,0.24,1.54,0.24c0.14,0,0,1.44,0,1.44h1.29l1.19-0.6l1.44,0.6h2.26h0.17"/>
			<polygon class="st1" points="131.6,577.27 133.58,576.61 134.88,579 138.22,579 139.54,576.61 137.82,575.28 137.43,573.96 
				134.24,573.96 131.6,575.02 			"/>
			<polygon class="st1" points="135.57,567.04 135.57,567.35 133.58,568.8 131.16,569.69 130.67,569.86 128.95,568.6 128.95,567.35 
				130.01,565.62 132.92,565.62 135.57,565.62 135.57,566.35 			"/>
			<path class="st1" d="M124.73,665.63c0,0,0.35-2.69,0.45-2.98c0.1-0.29,0.79-1.68,0.79-1.68l0.1-1.79l-0.5-0.7l1.29-1.29
				l-0.89-1.1l-1.24,0.1v-1.49l-0.84-1.48l1.09-1.59l0.99,1.59l0.8-1.59h1.29l0.5,1.59v1.68l1.68,0.89v1.59l-0.7,2.08l1.2,1.89v2.97
				v1.59l-1.99-1.29l-1.44,0.89c0,0-0.92-0.53-1.02,0.24c-0.01,0.04-0.01,0.1-0.01,0.15c0,0.99,0.29,1.89,0.29,1.89h-2.18
				l-0.99,2.38l0.5,1.79l0.19,2.18l-0.69,1.79l-1.59-0.89l-0.98-2.28l-0.8-2.18v-2.09l-1.29-1.98v-2.09l1.68,1.89l1.8-0.29
				l0.79-2.23h1.74V665.63z"/>
			<path class="st1" d="M124.08,645.67c0,0-0.89,1.29-1.09,1.89c-0.2,0.6,0.55,2.18,0.55,2.18h1.74l2.68,0.89h1.68l-0.69-1.68
				l-0.8-0.79v-1.89l-0.79-0.6l-1.06,1.49l-0.63-1.49H124.08z"/>
			<path class="st1" d="M117.43,637.83l-2.88,0.89c0,0-0.5,1.59,0,1.89c0.5,0.3,2.09,3.18,2.09,3.18l1.39,0.8l0.69,1.89
				c0,0-0.29,1.29,0,2.08s0.7,2.08,0.7,2.08h0.98c0,0,1.1-0.89,0.99-1.19c-0.1-0.29-1.09-3.78-1.09-3.78l-0.3-3.37
				c0,0-1.8-2.38-2.14-2.78C117.54,639.12,117.43,637.83,117.43,637.83z"/>
			<polygon class="st1" points="120.61,639.22 121.9,644.23 124.73,644.23 124.73,641.72 122,638.63 			"/>
			<path class="st1" d="M130.27,667.02h-1.98c0,0-0.8,0.98-0.73,1.45c0.06,0.47-1.26,0.73-1.26,0.73v0.86h1.19l0.07,1.38l-1.65,0.27
				v1.65h1.19l0.73,2.18l-1.92,1.06l0.66,1.73c0,0,1.65-0.73,1.86-0.73c0.19,0,1.22,0.73,1.22,0.73l1.55-2.05l0.41-2.78l-1.52-1.26
				l0.32-1.99v-2.38L130.27,667.02z"/>
			<polygon class="st1" points="137.39,567.04 138.09,564.96 139.97,565.62 139.97,568.24 138.09,568.24 			"/>
			<polygon class="st1" points="128.95,583.83 130.74,584.41 131.6,587.59 129.54,588.59 127.46,590.28 127.46,586.61 
				128.95,585.41 			"/>
			<path class="st1" d="M134.11,583.43h2.25c0,0,0.6,0.46,0.66,0.72c0.07,0.26,0,1.52,0,1.52l-2.64-1.13L134.11,583.43z"/>
			<polygon class="st1" points="131.6,570.92 129.88,573.5 130.74,573.96 133.78,573.1 135.97,572.91 135.69,572.61 134.11,570.92 
							"/>
			<polygon class="st1" points="139.14,583.43 140.6,583.43 141.06,585.08 140.11,587.05 140.11,588.13 140.11,589.45 
				138.28,588.72 138.28,587.05 139.08,584.55 			"/>
			<path class="st1" d="M135.97,593.68l0.66-0.79c0-0.26,1.2-1.72,1.2-1.72h1.72l-0.25,1.31l-0.14,0.74l-0.86,0.99L135.97,593.68z"
				/>
			<path class="st1" d="M134.11,588.39l1.47-0.26l0.91,0.79c0,0-0.4,1.13-0.53,1.36c-0.13,0.22-1.26,0.69-1.26,0.49
				C134.71,590.57,134.11,588.39,134.11,588.39z"/>
			<polygon class="st1" points="132.92,557.55 134.44,557.55 134.11,559.07 133.68,559.93 132.26,559.34 			"/>
			<polygon class="st1" points="135.35,555.32 136.44,555.32 136.21,556.42 135.89,557.03 134.87,556.61 			"/>
			<polygon class="st1" points="137.05,571.34 137.53,570.05 138.09,570.05 138.62,570.05 138.39,571.15 138.08,571.77 			"/>
			<polygon class="st1" points="129.22,578.42 130.31,578.42 130.08,579.51 129.77,580.13 128.74,579.71 			"/>
			<polygon class="st1" points="131.29,581.32 132.38,581.32 132.15,582.42 131.84,583.03 130.81,582.6 			"/>
			<path class="st1" d="M132.92,580.13c0,0,1.15,0.42,1.19,0.57c0.05,0.14,0.68,0.5,0.76,0.62c0.09,0.12,2.52,0.31,2.52,0.31
				l0.89-0.75l-0.53-0.75h-2.6l-1.81-1.14l-0.96,0.28L132.92,580.13z"/>
			<polygon class="st1" points="123.24,591.97 122.25,593.55 119.32,592.76 118.88,594.22 120.06,594.7 119.52,596.24 
				119.37,597.67 121.26,597.67 122.5,597.08 123.24,595.54 123.99,595.04 123.99,591.97 			"/>
			<path class="st1" d="M185.01,751.99l-2.78,3.25l1.79,1.59l0.51,1.25h-1.84h-1.65l-0.46,3.85l3.11,3.11l1.65-0.46l-0.81-1.99
				l-1.11-1.79l0.13-0.99c0,0,1.13,0.73,1.33,0.79c0.19,0.07,1.79,1.2,1.79,1.2l1.06-0.54l-1.73-2.74l-0.19-2.68l-0.26-0.99
				l0.4-2.85H185.01z"/>
			<path class="st1" d="M178.79,766.94l-0.54-2.64v-1.45l-1.39,0.33l-1.32,1.06v-2.78l-1.13-0.53c0,0-0.19,1.72-0.53,1.65
				c-0.33-0.07-0.99-2.18-0.99-2.18h-1.52v1.13c0,0,0.73,0.79,0.47,1.25c-0.26,0.47-1.59,1.46-1.59,1.46l1.26,0.79l2.12-1.19
				l0.63,1.19c0,0-0.29,0.33-0.29,0.79c0,0.47,2.71,1.33,2.64,1.07C176.54,766.63,178.79,766.94,178.79,766.94z"/>
			<path class="st1" d="M168.37,765.14l-0.7-1.46l-1.13-1.61l1.26-0.73l0.53,1.26l0.92-0.26v-1.92l0.99-0.4l-1.19-1.93l-1.06,0.86
				l-1.2-0.06l-1.45,1.92l-1.46-0.96l-1.06,1.29c0,0,0.53,1.26,0.66,1.46c0.13,0.19,2.18,2.05,2.18,2.05l1.59,1.46
				c0,0-0.07,0.43,0,0.84c0.06,0.41,1.52-0.91,1.52-0.91L168.37,765.14z"/>
			<path class="st1" d="M157.07,751.99l0.2,2.32l1.13,0.13v-1.99h1.99l0.06,1.39l-0.73,0.99v0.86l1.13-0.4h2.25l0.86,1.92
				l-1.02,0.46l-0.89,0.4l-1.59-0.4c0,0,0.53,2.12,0.53,2.38s-2.58,1.59-2.58,1.59l-2.38,1.65v-1.86c0,0,0.2-1.92,0.53-2.15
				c0.33-0.23,1.65-0.79,1.65-0.79l-0.26-1.42l-3.04,0.32l-0.59,0.66l-1.46-1.19l-1.19,1.62l0.79,2.88l-2.91-0.67l0.33-1.79
				l-0.33-1.92v-1.32l-1.73,0.4l-1.12-1.26l-1.99-0.99l0.79-1.32l2.31-0.54l1.07,0.73l0.73,1.07l0.92,0.53l1.58,0.53h2.22l0.43-0.6
				l1.2-1.13l0.53-1.13H157.07z"/>
			<path class="st1" d="M153.7,730.23l-1.59,0.66c-0.13,0.2-2.18,2.38-2.18,2.38s0,1.19,0,1.85c0,0.67-1.79,0.93-1.79,0.93
				l-0.47,1.32l2.22,0.26l0.63,1.33l-1.39,0.72h-0.92l-0.2,1.79l0.99,0.6l1.26-0.32l0.13-1.26l1.26,1.58c0,0,0.53-0.46,0.72-0.73
				c0.2-0.26,0.47-3.7,0.47-3.7l-0.4-1.85l3.78-2.19l-0.86-1.58l-1.92,1.92l0.59-2.38L153.7,730.23z"/>
			<polygon class="st1" points="152.45,721.62 151.95,723.54 151.95,724.14 153.57,724.14 154.33,724.67 154.89,724.67 
				155.29,721.62 156.49,721.62 158.46,724.01 157.94,725.85 156.22,726.45 152.91,727.91 152.97,729.23 151.13,729.23 
				150.59,728.11 149.67,728.44 149.67,730.23 150.4,730.55 149.67,731.62 148.08,731.62 147.15,731.02 146.42,732.67 144.7,734.33 
				143.84,732.67 145.04,731.02 146.56,729.57 145.96,727.97 144.97,728.37 144.24,726.52 144.97,725.4 144.97,724.14 
				147.68,723.67 149.07,724.33 150.53,722.48 151.52,721.62 			"/>
			<polygon class="st1" points="149.46,714.01 151.95,715.46 153.63,716.53 155.36,717.19 156.22,718.78 154.63,719.7 
				151.95,719.17 150.26,718.58 149.46,716.59 			"/>
			<path class="st1" d="M130.61,735.19l3.24,2.31c0,0,0.99,1.52,0.99,1.73c0,0.19,1.65,1.26,1.65,1.26l2.72-0.26l2.05,0.59
				l2.58,1.92c0,0,1.39,0.67,1.39,0.93s-2.18,0.66-2.18,0.66l-2.85-1.59c0,0-1.52-0.85-1.72-0.66c-0.2,0.2-2.12-0.13-2.38,0
				c-0.26,0.13-2.71-1.32-2.71-1.32l-1.13-1.33l-0.33-2.18l-1.32-1.1V735.19z"/>
			<path class="st1" d="M157.07,750.41h-0.59c0,0-3.64-1.86-3.64-2.12c0-0.26-0.89-2.38-0.89-2.38l-2.15-0.85l-2.38,0.59v-1.32
				l3.44-0.53h2.38c0,0,0.73,0.72,0.73,0.99c0,0.26,0.6,1.72,0.79,1.85c0.2,0.13,3.7,2.72,3.7,2.72l1.33,1.06H157.07z"/>
			<path class="st1" d="M130.74,695.11l-0.6,2.78h-3.18c0,0-1.02,0.99-0.66,1.49s5.72,0.89,5.72,0.89s0.6-0.3,0.5-0.89
				c-0.1-0.6-0.2-1.1-0.4-1.69c-0.2-0.59,0-1.58,0-1.58L130.74,695.11z"/>
			<path class="st1" d="M126.22,683.3c-0.45,0-2.73,0.89-2.83,1.19c-0.1,0.29-1.98,3.04-1.98,3.18c0-0.03-1.99-0.69-1.99-0.69
				s-0.3-2.98,0-2.98c0.29,0,3.53-0.69,3.53-0.69l1.78-2.18l2.13,0.98L126.22,683.3z"/>
			<path class="st1" d="M129.38,685.88c0.07,0.5,3.16,2.38,3.16,2.38h1.18v2.58l0.89,1.2h-1.58l1.58,1.98c0,0-0.29,1.39-0.59,1.1
				c-0.3-0.29-3.41-2.49-3.41-2.49l0.13-2.11l-0.13-1.96l-2.94-1.58L129.38,685.88z"/>
			<polygon class="st1" points="129.38,703.85 126.22,705.54 125.91,707.42 127.64,708.21 128.75,707.72 128.75,706.03 
				131.14,706.43 132.54,705.04 131.14,703.85 			"/>
			<path class="st1" d="M133.92,714.67l-0.79,0.79c0,0,0.66,1.13,0.79,1.39s0,1.33,0,1.33h2.45l1.13,0.53l0.43-0.86l-2.4-1.52
				L133.92,714.67z"/>
			<polygon class="st1" points="137.91,711.49 136.56,712.95 136.56,714.27 137.91,715.46 139.67,715.46 139.67,714.01 
				138.48,712.09 			"/>
			<path class="st1" d="M139.93,719.7l-1.06,0.53c0,0,1.59,1.79,1.73,2.05s1.85,1.07,1.85,1.07l1.39-0.33l-1.85-2.05L139.93,719.7z"
				/>
			<path class="st1" d="M142.32,728.7l-2.65,2.38l-0.79,1.12l0.79,0.73l1.69-1.65c0,0,0.16,2.31,0,2.58
				c-0.17,0.27,1.02-0.46,0.95-0.72c-0.06-0.26,1.2-2.25,1.2-2.25v-2.18H142.32z"/>
			<polygon class="st1" points="138.88,723.35 138.88,725.06 136.56,725.06 136.96,727.97 138.48,727.31 140.4,726.52 
				141.72,727.18 141.92,725.66 140.27,723.8 			"/>
			<path class="st1" d="M133.42,633.26l-2.68,0.5l-1.1,1.59c0,0,2.49-0.2,2.88,0c0.4,0.19,3.47,0,3.47,0l1.89-0.5l-0.99-0.5
				L133.42,633.26z"/>
			<polygon class="st1" points="128.75,628.3 125.91,630.39 127.66,631.18 130.74,631.18 130.74,628.69 			"/>
			<polygon class="st1" points="124.73,633.26 124.73,636.93 122.3,637.83 121.01,635.54 123.08,634.35 			"/>
		</g>
	</g>
</g>
<g class="st2">
	<path class="st2" d="M178.27,22.13h-40.7c-1.7,0-3.07,1.37-3.07,3.07v3.62c0,1.7,1.38,3.07,3.07,3.07h40.7
		c1.7,0,3.07-1.37,3.07-3.07V25.2C181.34,23.5,179.96,22.13,178.27,22.13z"/>
	<path class="st2" d="M174.93,57.63H155.7c-1.7,0-3.07,1.38-3.07,3.07v3.62c0,1.7,1.38,3.07,3.07,3.07h19.23
		c1.7,0,3.07-1.37,3.07-3.07v-3.62C178,59.01,176.62,57.63,174.93,57.63z"/>
	<path class="st2" d="M171.08,117.9h-26.73c-1.7,0-3.07,1.37-3.07,3.07v3.62c0,1.7,1.38,3.07,3.07,3.07h26.73
		c1.7,0,3.07-1.38,3.07-3.07v-3.62C174.15,119.27,172.78,117.9,171.08,117.9z"/>
	<path class="st2" d="M165.36,201.18h-19.23c-1.7,0-3.07,1.38-3.07,3.07v3.62c0,1.7,1.38,3.07,3.07,3.07h19.23
		c1.7,0,3.07-1.38,3.07-3.07v-3.62C168.43,202.55,167.05,201.18,165.36,201.18z"/>
	<path class="st2" d="M153.5,266.62H132.7c-1.7,0-3.07,1.38-3.07,3.07v3.62c0,1.7,1.37,3.07,3.07,3.07h20.81
		c1.7,0,3.07-1.38,3.07-3.07v-3.62C156.57,268,155.2,266.62,153.5,266.62z"/>
	<path class="st2" d="M151.56,308.76h-20.89c-1.7,0-3.07,1.38-3.07,3.07v3.62c0,1.7,1.37,3.07,3.07,3.07h20.89
		c1.7,0,3.07-1.38,3.07-3.07v-3.62C154.63,310.13,153.25,308.76,151.56,308.76z"/>
	<path class="st2" d="M144.83,346.53h-43.41c-1.7,0-3.07,1.38-3.07,3.07v8.54c0,1.7,1.37,3.07,3.07,3.07h43.41
		c1.7,0,3.07-1.38,3.07-3.07v-8.54C147.9,347.91,146.53,346.53,144.83,346.53z"/>
	<path class="st2" d="M118.25,410.18h-13.94c-1.7,0-3.07,1.38-3.07,3.07v3.62c0,1.7,1.38,3.07,3.07,3.07h13.94
		c1.7,0,3.07-1.38,3.07-3.07v-3.62C121.32,411.55,119.95,410.18,118.25,410.18z"/>
	<path class="st2" d="M225.73,378.18h-12.54c-1.7,0-3.07,1.38-3.07,3.07v3.62c0,1.7,1.38,3.07,3.07,3.07h12.54
		c1.7,0,3.07-1.38,3.07-3.07v-3.62C228.8,379.56,227.43,378.18,225.73,378.18z"/>
	<path class="st2" d="M225.73,397.24h-12.54c-1.7,0-3.07,1.38-3.07,3.07v3.62c0,1.7,1.38,3.07,3.07,3.07h12.54
		c1.7,0,3.07-1.38,3.07-3.07v-3.62C228.8,398.61,227.43,397.24,225.73,397.24z"/>
	<path class="st2" d="M243.6,334.37h-30.41c-1.7,0-3.07,1.38-3.07,3.07v7.98c0,1.7,1.38,3.07,3.07,3.07h30.41
		c1.7,0,3.07-1.38,3.07-3.07v-7.98C246.67,335.75,245.3,334.37,243.6,334.37z"/>
	<path class="st2" d="M234.86,435h-20.87c-1.7,0-3.07,1.38-3.07,3.07v3.62c0,1.7,1.38,3.07,3.07,3.07h20.87
		c1.7,0,3.07-1.38,3.07-3.07v-3.62C237.93,436.38,236.56,435,234.86,435z"/>
	<path class="st2" d="M119.33,461.19h-17.27c-1.7,0-3.07,1.38-3.07,3.07v3.62c0,1.7,1.37,3.07,3.07,3.07h17.27
		c1.7,0,3.07-1.38,3.07-3.07v-3.62C122.4,462.57,121.02,461.19,119.33,461.19z"/>
	<path class="st2" d="M235.58,503.09h-22.23c-1.7,0-3.07,1.38-3.07,3.07v3.62c0,1.7,1.38,3.07,3.07,3.07h22.23
		c1.7,0,3.07-1.38,3.07-3.07v-3.62C238.65,504.47,237.28,503.09,235.58,503.09z"/>
	<path class="st2" d="M95.38,600.98H82.1c-1.7,0-3.07,1.38-3.07,3.07v3.62c0,1.7,1.37,3.07,3.07,3.07h13.28
		c1.7,0,3.07-1.38,3.07-3.07v-3.62C98.45,602.36,97.07,600.98,95.38,600.98z"/>
	<path class="st2" d="M106.64,740.37H82.13c-1.7,0-3.07,1.38-3.07,3.07v3.62c0,1.7,1.37,3.07,3.07,3.07h24.51
		c1.7,0,3.07-1.38,3.07-3.07v-3.62C109.72,741.74,108.34,740.37,106.64,740.37z"/>
</g>
<text transform="matrix(1 0 0 1 137.2396 28.7143)" class="st3 st4 st5">Arica y Parinacota</text>
<text transform="matrix(1 0 0 1 154.6292 64.1201)" class="st3 st4 st5">Tarapacá</text>
<text transform="matrix(1 0 0 1 144.8993 124.3847)" class="st3 st4 st5">Antofagasta</text>
<text transform="matrix(1 0 0 1 145.8924 207.4765)" class="st3 st4 st5">Atacama</text>
<text transform="matrix(1 0 0 1 131.2816 273.1201)" class="st3 st4 st5">Coquimbo</text>
<text transform="matrix(1 0 0 1 129.495 314.7817)" class="st3 st4 st5">Valparaiso</text>
<text transform="matrix(1 0 0 1 212.7279 340.3955)"><tspan x="0" y="0" class="st3 st4 st5">Región </tspan><tspan x="0" y="6.09" class="st3 st4 st5">Metropolitana</tspan></text>
<text transform="matrix(1 0 0 1 101.6649 352.5576)"><tspan x="0" y="0" class="st3 st4 st5">Libertador General</tspan><tspan x="0" y="6.09" class="st3 st4 st5">Bernardo O’higgins</tspan></text>
<text transform="matrix(1 0 0 1 212.7279 384.6904)" class="st3 st4 st5">Maule</text>
<text transform="matrix(1 0 0 1 212.7279 404.2441)" class="st3 st4 st5">Ñuble</text>
<text transform="matrix(1 0 0 1 102.805 416.9883)" class="st3 st4 st5">Bío-Bío</text>
<text transform="matrix(1 0 0 1 212.7269 441.2412)" class="st3 st4 st5">Araucanía</text>
<text transform="matrix(1 0 0 1 100.6214 467.8681)" class="st3 st4 st5">Los Ríos</text>
<text transform="matrix(1 0 0 1 212.7289 509.167)" class="st3 st4 st5">Los Lagos</text>
<text transform="matrix(1 0 0 1 81.9149 607.5009)" class="st3 st4 st5">Aysén</text>
<text transform="matrix(1 0 0 1 81.9149 746.4394)" class="st3 st4 st5">Magallanes</text>
<circle class="st6" cx="183.28" cy="311.85" r="1.14"/>
<circle class="st6" cx="189.3" cy="313.64" r="1.14"/>
<circle class="st6" cx="179.94" cy="311.65" r="1.14"/>
<circle class="st6" cx="190.44" cy="316.63" r="1.14"/>
<circle class="st6" cx="186.19" cy="312.23" r="1.14"/>
<circle class="st6" cx="181.91" cy="353.7" r="1.14"/>
<circle class="st6" cx="185.04" cy="351.41" r="1.14"/>
<circle class="st6" cx="189.3" cy="358.12" r="1.14"/>
<circle class="st6" cx="167.42" cy="400.16" r="1.14"/>
<circle class="st6" cx="188.55" cy="352.11" r="1.14"/>
<circle class="st6" cx="187.41" cy="348.68" r="1.14"/>
<circle class="st6" cx="187.41" cy="362.83" r="1.14"/>
<circle class="st6" cx="186.8" cy="359.65" r="1.14"/>
<circle class="st6" cx="184.52" cy="358.12" r="1.14"/>
<circle class="st6" cx="180" cy="360.79" r="1.14"/>
<circle class="st6" cx="179.94" cy="351.41" r="1.14"/>
<circle class="st6" cx="169.51" cy="374.77" r="1.14"/>
<circle class="st6" cx="178.86" cy="369.55" r="1.14"/>
<circle class="st6" cx="171.79" cy="376.21" r="1.14"/>
<circle class="st6" cx="171.1" cy="390.46" r="1.14"/>
<circle class="st6" cx="183.74" cy="375.57" r="1.14"/>
<circle class="st6" cx="179.94" cy="378.85" r="1.14"/>
<circle class="st6" cx="176.62" cy="375.07" r="1.14"/>
<circle class="st6" cx="182.6" cy="378.85" r="1.14"/>
<circle class="st6" cx="179.18" cy="376.43" r="1.14"/>
<circle class="st6" cx="178.44" cy="373.01" r="1.14"/>
<circle class="st6" cx="169.26" cy="418.13" r="1.14"/>
<circle class="st6" cx="162.37" cy="421.55" r="1.14"/>
<circle class="st6" cx="172.61" cy="428.05" r="1.14"/>
<circle class="st6" cx="168.56" cy="410.14" r="1.14"/>
<circle class="st6" cx="155.16" cy="413.13" r="1.14"/>
<circle class="st6" cx="163.02" cy="418.21" r="1.14"/>
<circle class="st6" cx="166.28" cy="416.2" r="1.14"/>
<circle class="st6" cx="166.28" cy="419.27" r="1.14"/>
<circle class="st6" cx="171.47" cy="413.13" r="1.14"/>
<circle class="st6" cx="171.47" cy="419.92" r="1.14"/>
<circle class="st6" cx="168.12" cy="413.13" r="1.14"/>
<circle class="st6" cx="148.62" cy="474.72" r="1.14"/>
<circle class="st6" cx="154.33" cy="465.53" r="1.14"/>
<circle class="st6" cx="152.05" cy="474.08" r="1.14"/>
<circle class="st6" cx="156.14" cy="486.39" r="1.14"/>
<circle class="st6" cx="155" cy="483.69" r="1.14"/>
<circle class="st6" cx="156.14" cy="500.3" r="1.14"/>
<circle class="st6" cx="145.43" cy="473.58" r="1.14"/>
<circle class="st6" cx="155.5" cy="472.68" r="1.14"/>
<circle class="st6" cx="183.06" cy="381.46" r="1.14"/>
<circle class="st6" cx="181.45" cy="374.15" r="1.14"/>
<circle class="st6" cx="180.31" cy="383.55" r="1.14"/>
<circle class="st6" cx="173.87" cy="381.92" r="1.14"/>
<circle class="st6" cx="177.3" cy="380.78" r="1.14"/>
<circle class="st6" cx="192.61" cy="332.06" r="1.14"/>
<circle class="st6" cx="195.41" cy="332.28" r="1.14"/>
<circle class="st6" cx="194.23" cy="334.62" r="1.14"/>
<circle class="st6" cx="197.73" cy="333.21" r="1.14"/>
<circle class="st6" cx="193.25" cy="336.97" r="1.14"/>
<circle class="st6" cx="187.41" cy="332.53" r="1.14"/>
<circle class="st6" cx="191.47" cy="334.35" r="1.14"/>
<circle class="st6" cx="196.13" cy="338.75" r="1.14"/>
<circle class="st6" cx="189.69" cy="339.25" r="1.14"/>
<circle class="st6" cx="158.9" cy="610.43" r="1.14"/>
<circle class="st6" cx="206.68" cy="20.99" r="1.14"/>
<circle class="st6" cx="161.74" cy="434.31" r="1.14"/>
<circle class="st6" cx="168.56" cy="443.79" r="1.14"/>
<circle class="st7" cx="285.27" cy="765.95" r="9.37"/>
<text transform="matrix(1 0 0 1 298.3965 767.9795)"><tspan x="0" y="0" class="st8 st9">Hidroeléctrica</tspan><tspan x="0" y="7.47" class="st8 st9">de Pasada.</tspan></text>
<polygon class="st10" points="169.26,422.34 168.12,424.62 170.4,424.62 "/>
<text transform="matrix(1 0 0 1 298.3965 744.8213)"><tspan x="0" y="0" class="st8 st9">Hidroeléctrica </tspan><tspan x="0" y="7.47" class="st8 st9">de Embalse</tspan></text>
<polygon class="st10" points="171.47,424.41 170.33,426.69 172.61,426.69 "/>
<polygon class="st10" points="176.16,377.08 175.02,379.36 177.3,379.36 "/>
<polygon class="st10" points="169.15,346.22 168.01,348.5 170.29,348.5 "/>
<polygon class="st10" points="185.04,274.11 183.9,276.39 186.18,276.39 "/>
<polygon class="st11" points="285.27,734.28 275.9,753.03 294.64,753.03 "/>
<line class="st1" x1="183.55" y1="27.67" x2="201.03" y2="27.67"/>
<line class="st1" x1="179.78" y1="63.01" x2="199.83" y2="63.01"/>
<line class="st1" x1="175.61" y1="122.78" x2="195.27" y2="122.78"/>
<line class="st1" x1="169.51" y1="206.57" x2="188.72" y2="206.57"/>
<line class="st1" x1="157.54" y1="271.89" x2="175.65" y2="271.89"/>
<line class="st1" x1="155.16" y1="313.64" x2="173.87" y2="313.64"/>
<line class="st1" x1="195.53" y1="342.38" x2="208.97" y2="342.38"/>
<line class="st1" x1="165.14" y1="354.84" x2="148.95" y2="354.84"/>
<line class="st1" x1="186.8" y1="383.55" x2="207.38" y2="383.55"/>
<line class="st1" x1="142.3" y1="416.2" x2="122.4" y2="416.2"/>
<line class="st1" x1="177.09" y1="439.87" x2="207.38" y2="439.87"/>
<line class="st1" x1="175.02" y1="402.76" x2="207.38" y2="402.76"/>
<line class="st1" x1="143.35" y1="466.68" x2="123.15" y2="466.68"/>
<line class="st1" x1="165.14" y1="507.98" x2="207.38" y2="507.98"/>
<line class="st1" x1="118.77" y1="605.86" x2="99.37" y2="605.86"/>
<line class="st1" x1="152.84" y1="745.25" x2="112.47" y2="745.25"/>
</svg>
