<?xml version="1.0" encoding="utf-8"?>
<!-- Generator: Adobe Illustrator 27.1.0, SVG Export Plug-In . SVG Version: 6.00 Build 0)  -->
<svg version="1.1" id="Capa_1" xmlns="http://www.w3.org/2000/svg" xmlns:xlink="http://www.w3.org/1999/xlink" x="0px" y="0px"
	 viewBox="0 0 800 400" style="enable-background:new 0 0 800 400;" xml:space="preserve">
<style type="text/css">
	.st0{fill:#767676;}
	.st1{fill:#726D6A;}
	.st2{fill:#6F7487;}
	.st3{fill:#EDA429;}
	.st4{fill:#ACC03D;}
	.st5{fill:#AFC8E7;}
	.st6{fill:#E1BA2A;}
	.st7{fill:#4994B0;}
	.st8{fill:none;stroke:#FFFFFF;stroke-width:0.75;stroke-miterlimit:10;}
	.st9{font-family:'Helvetica';}
	.st10{font-size:7px;}
</style>
<g>
	<g id="XMLID_00000071533530578517458840000001968984714712627358_">
		<g>
			<rect x="653.5" y="159" class="st0" width="146.6" height="241"/>
			<polygon class="st1" points="800,0 800,159 653.5,159 440,159 440,132 440,0 			"/>
			<polygon class="st2" points="653.5,159 653.5,400 415,400 415,257 415,159 440,159 			"/>
			<rect x="415" y="132" class="st3" width="25" height="27"/>
			<rect x="415" y="0" class="st4" width="25" height="132"/>
			<polygon class="st5" points="415,257 415,400 191,400 191,257 191.2,257 			"/>
			<polygon class="st6" points="415,159 415,257 191.2,257 191,257 191,0 415,0 415,132 			"/>
			<polygon class="st7" points="191,257 191,400 0,400 0,0 191,0 			"/>
		</g>
		<g>
			<polyline class="st8" points="191,0 191,257 191,400 			"/>
			<polyline class="st8" points="415,0 415,132 415,159 415,257 415,400 			"/>
			<line class="st8" x1="191.2" y1="257" x2="415" y2="257"/>
			<polyline class="st8" points="415,159 440,159 653.5,159 800,159 			"/>
			<polyline class="st8" points="440,0 440,132 440,159 			"/>
			<line class="st8" x1="415" y1="132" x2="440" y2="132"/>
			<line class="st8" x1="653.5" y1="159" x2="653.5" y2="400"/>
			<polygon class="st8" points="800,159 800,400 653.5,400 415,400 191,400 0,400 0,0 191,0 415,0 440,0 800,0 			"/>
		</g>
	</g>
</g>
<text transform="matrix(1 0 0 1 416.7394 8.1415)"><tspan x="0" y="0" class="st9 st10">Bio-</tspan><tspan x="0" y="6" class="st9 st10">masa</tspan></text>
<text transform="matrix(1 0 0 1 444.3915 7.7133)" class="st9 st10">Gas Natural</text>
<text transform="matrix(1 0 0 1 416.7394 168.5827)" class="st9 st10">Carbón</text>
<text transform="matrix(1 0 0 1 656.2593 168.5829)" class="st9 st10">Derivados del petróleo</text>
<text transform="matrix(1 0 0 1 194.0058 265.5673)" class="st9 st10">Eólica</text>
<text transform="matrix(1 0 0 1 416.0157 139.0022)"><tspan x="0" y="0" class="st9 st10">Geo-</tspan><tspan x="0" y="6" class="st9 st10">térmica</tspan></text>
<text transform="matrix(1 0 0 1 3.3115 7.8885)" class="st9 st10">Hídrica</text>
<text transform="matrix(1 0 0 1 194.0058 7.7134)" class="st9 st10">Solar</text>
</svg>
