<?xml version="1.0" encoding="utf-8"?>
<!-- Generator: Adobe Illustrator 27.1.0, SVG Export Plug-In . SVG Version: 6.00 Build 0)  -->
<svg version="1.1" id="Layer_1" xmlns="http://www.w3.org/2000/svg" xmlns:xlink="http://www.w3.org/1999/xlink" x="0px" y="0px"
	 viewBox="0 0 612 792" style="enable-background:new 0 0 612 792;" xml:space="preserve">
<style type="text/css">
	.st0{fill:none;stroke:#6078A6;stroke-miterlimit:10;}
	.st1{font-family:'HelveticaNeueLTStd-BdCn';}
	.st2{font-size:32px;}
	.st3{font-family:'Helvetica';}
	.st4{font-size:11px;}
	.st5{font-family:'HelveticaNeueLTStd-Bd';}
	.st6{font-size:12px;}
	.st7{stroke:#000000;stroke-width:0.75;stroke-miterlimit:10;}
</style>
<line class="st0" x1="306.72" y1="34.25" x2="306.72" y2="749.19"/>
<polyline class="st0" points="314.45,739.16 306.82,749.19 299,739.16 "/>
<text transform="matrix(1 0 0 1 429.7311 85.9795)" class="st1 st2">2007</text>
<g>
	<g>
		<text transform="matrix(1 0 0 1 381.5189 133.1665)"><tspan x="0" y="0" class="st3 st4">Estudio del Impacto Ambiental del </tspan><tspan x="-1.21" y="13.2" class="st3 st4">Proyecto Hidroeléctrica Alto Maipo.</tspan></text>
		<text transform="matrix(1 0 0 1 449.4303 119.2101)" class="st5 st6">Junio</text>
	</g>
	<g>
		<text transform="matrix(1 0 0 1 385.8273 192.815)"><tspan x="0" y="0" class="st3 st4">Suspención de la evaluación del </tspan><tspan x="-7.01" y="13.2" class="st3 st4">Proyecto Hidroeléctrica Alto Maipo. </tspan></text>
		<text transform="matrix(1 0 0 1 443.063 176.7441)" class="st5 st6">Octubre</text>
	</g>
</g>
<line class="st0" x1="311.94" y1="89.43" x2="559.12" y2="89.43"/>
<circle cx="305.52" cy="89.43" r="9.85"/>
<circle class="st7" cx="559.12" cy="89.43" r="3.91"/>
<text transform="matrix(1 0 0 1 429.7308 264.5801)" class="st1 st2">2009</text>
<g>
	<g>
		<text transform="matrix(1 0 0 1 384.0208 314.3831)"><tspan x="0" y="0" class="st3 st4">Se aprueba el estudio de impacto </tspan><tspan x="58.1" y="13.2" class="st3 st4">ambiental.</tspan></text>
		<text transform="matrix(1 0 0 1 446.5519 298.2089)" class="st5 st6">Marzo</text>
	</g>
	<g>
		<text transform="matrix(1 0 0 1 373.9442 373.0865)"><tspan x="0" y="0" class="st3 st4">Comisión de recursos naturales de la </tspan><tspan x="-0.32" y="13.2" class="st3 st4">cámara de diputados concluye que el </tspan><tspan x="10.69" y="26.4" class="st3 st4">P.H.A.M. no debió ser aprobado, </tspan><tspan x="13.74" y="39.6" class="st3 st4">debido a que iba a afectar en la </tspan><tspan x="3.35" y="52.8" class="st3 st4">calidad, seguridad y abastecimiento </tspan><tspan x="19.85" y="66" class="st3 st4">de agua potable en santiago. </tspan></text>
		<text transform="matrix(1 0 0 1 439.1993 356.9779)" class="st5 st6">Diciembre</text>
	</g>
</g>
<line class="st0" x1="311.94" y1="268.1" x2="559.12" y2="268.1"/>
<circle class="st7" cx="559.12" cy="268.1" r="3.91"/>
<text transform="matrix(1 0 0 1 433.6615 502.47)" class="st1 st2">2012</text>
<g>
	<g>
		<text transform="matrix(1 0 0 1 378.775 551.0604)"><tspan x="0" y="0" class="st3 st4">AES Gener inicia la construcción de </tspan><tspan x="-4.59" y="13.2" class="st3 st4">las obras de deforestación del PHAM. </tspan></text>
		<text transform="matrix(1 0 0 1 443.6332 535.1694)" class="st5 st6">Febrero</text>
	</g>
	<g>
		<text transform="matrix(1 0 0 1 384.8895 608.9377)"><tspan x="0" y="0" class="st3 st4"> AES Gener culmina contratos de </tspan><tspan x="-7.95" y="13.2" class="st3 st4">obras de construcción para el PHAM.</tspan></text>
		<text transform="matrix(1 0 0 1 446.902 593.1364)" class="st5 st6">Agosto</text>
	</g>
	<g>
		<text transform="matrix(1 0 0 1 433.6612 650.6086)" class="st5 st6">Noviembre</text>
		<text transform="matrix(1 0 0 1 373.7066 666.7539)"><tspan x="0" y="0" class="st3 st4">El grupo constructor Strabag Adjudicó</tspan><tspan x="10.4" y="13.2" class="st3 st4">un primer contrato parcial para la </tspan><tspan x="28.74" y="26.4" class="st3 st4">construcción de la central </tspan><tspan x="56.87" y="39.6" class="st3 st4">hidroeléctrica. </tspan></text>
	</g>
</g>
<line class="st0" x1="313.89" y1="506.01" x2="561.06" y2="506.01"/>
<circle class="st7" cx="560.54" cy="506.01" r="3.91"/>
<text transform="matrix(1 0 0 1 107.5405 153.3678)" class="st1 st2">2008</text>
<g>
	<text transform="matrix(1 0 0 1 54.57 205.4309)"><tspan x="0" y="0" class="st3 st4">Nuevo estudio del impacto ambiental </tspan><tspan x="58.7" y="13.2" class="st3 st4">del proyecto. </tspan></text>
	<text transform="matrix(1 0 0 1 128.1087 186.8803)" class="st5 st6">Mayo</text>
</g>
<g>
	<text transform="matrix(1 0 0 1 126.6748 248.8077)" class="st5 st6">Junio</text>
	<text transform="matrix(1 0 0 1 75.0477 264.5434)"><tspan x="0" y="0" class="st3 st4">Estudio es presentado a a la </tspan><tspan x="-20.18" y="13.2" class="st3 st4">municipalidad de San José de Maipo </tspan><tspan x="-23.54" y="26.4" class="st3 st4">para hacer consultas de la disposición </tspan><tspan x="29.35" y="39.6" class="st3 st4">de la ciudadanía.</tspan></text>
</g>
<line class="st0" x1="301.51" y1="157.28" x2="54.33" y2="157.28"/>
<circle class="st7" cx="51.46" cy="157.28" r="3.91"/>
<text transform="matrix(1 0 0 1 107.5403 405.3644)" class="st1 st2">2011</text>
<g>
	<text transform="matrix(1 0 0 1 54.7812 455.3528)"><tspan x="0" y="0" class="st3 st4">Se suscribe convenio secreto entre </tspan><tspan x="14.37" y="13.2" class="st3 st4">AES Gener y Aguas andinas, </tspan><tspan x="0.62" y="26.4" class="st3 st4">mediante el cual se compromete el </tspan><tspan x="3.66" y="39.6" class="st3 st4">uso de las aguas para el consumo</tspan><tspan x="0.3" y="52.8" class="st3 st4"> humano en la generación eléctrica.</tspan></text>
	<text transform="matrix(1 0 0 1 122.6021 439.0864)" class="st5 st6">Junio</text>
</g>
<line class="st0" x1="301.51" y1="409.28" x2="54.33" y2="409.28"/>
<circle class="st7" cx="51.46" cy="409.28" r="3.91"/>
<circle class="st7" cx="306.72" cy="34.25" r="3.91"/>
<circle cx="306.72" cy="157.28" r="9.85"/>
<circle cx="306.72" cy="268.1" r="9.85"/>
<circle cx="306.72" cy="409.28" r="9.85"/>
<circle cx="307.29" cy="506.01" r="9.85"/>
</svg>
