<?xml version="1.0" encoding="utf-8"?>
<!-- Generator: Adobe Illustrator 27.1.0, SVG Export Plug-In . SVG Version: 6.00 Build 0)  -->
<svg version="1.1" id="Capa_1" xmlns="http://www.w3.org/2000/svg" xmlns:xlink="http://www.w3.org/1999/xlink" x="0px" y="0px"
	 viewBox="0 0 800 400" style="enable-background:new 0 0 800 400;" xml:space="preserve">
<style type="text/css">
	.st0{display:none;}
	.st1{display:inline;}
	.st2{fill:#767676;}
	.st3{fill:#726D6A;}
	.st4{fill:#6F7487;}
	.st5{fill:#EDA429;}
	.st6{fill:#ACC03D;}
	.st7{fill:#AFC8E7;}
	.st8{fill:#E1BA2A;}
	.st9{fill:#4994B0;}
	.st10{fill:none;stroke:#FFFFFF;stroke-width:0.75;stroke-miterlimit:10;}
	.st11{fill:#DAD67C;}
	.st12{fill:#7F7F7F;}
	.st13{font-family:'Helvetica';}
	.st14{font-size:7px;}
</style>
<g class="st0">
	<g id="XMLID_00000071533530578517458840000001968984714712627358_" class="st1">
		<g>
			<rect x="653.5" y="159" class="st2" width="146.6" height="241"/>
			<polygon class="st3" points="800,0 800,159 653.5,159 440,159 440,132 440,0 			"/>
			<polygon class="st4" points="653.5,159 653.5,400 415,400 415,257 415,159 440,159 			"/>
			<rect x="415" y="132" class="st5" width="25" height="27"/>
			<rect x="415" y="0" class="st6" width="25" height="132"/>
			<polygon class="st7" points="415,257 415,400 191,400 191,257 191.2,257 			"/>
			<polygon class="st8" points="415,159 415,257 191.2,257 191,257 191,0 415,0 415,132 			"/>
			<polygon class="st9" points="191,257 191,400 0,400 0,0 191,0 			"/>
		</g>
		<g>
			<polyline class="st10" points="191,0 191,257 191,400 			"/>
			<polyline class="st10" points="415,0 415,132 415,159 415,257 415,400 			"/>
			<line class="st10" x1="191.2" y1="257" x2="415" y2="257"/>
			<polyline class="st10" points="415,159 440,159 653.5,159 800,159 			"/>
			<polyline class="st10" points="440,0 440,132 440,159 			"/>
			<line class="st10" x1="415" y1="132" x2="440" y2="132"/>
			<line class="st10" x1="653.5" y1="159" x2="653.5" y2="400"/>
			<polygon class="st10" points="800,159 800,400 653.5,400 415,400 191,400 0,400 0,0 191,0 415,0 440,0 800,0 			"/>
		</g>
	</g>
</g>
<g>
	<g>
		<g id="XMLID_00000160888821975735314290000010629871089994651040_">
			<g>
				<rect x="739" y="347.5" class="st5" width="61" height="52.5"/>
				<rect x="739" y="337" class="st11" width="61" height="10.5"/>
				<rect x="739" y="285" class="st7" width="61" height="52"/>
				<polygon class="st6" points="800,0 800,285 739,285 682.6,285 543,285 543,0 				"/>
				<polygon class="st8" points="739,347.5 739,400 682.6,400 682.6,285 739,285 739,337 				"/>
				<rect x="543" y="285" class="st9" width="139.6" height="115"/>
				<polygon class="st4" points="543,285 543,400 368,400 368,260 368,0 543,0 				"/>
				<rect y="260" class="st3" width="368" height="140"/>
				<rect y="0" class="st12" width="368" height="260"/>
			</g>
			<g>
				<polyline class="st10" points="368,0 368,260 368,400 				"/>
				<line class="st10" x1="0" y1="260" x2="368" y2="260"/>
				<polyline class="st10" points="543,0 543,285 543,400 				"/>
				<polyline class="st10" points="800,285 739,285 682.6,285 543,285 				"/>
				<line class="st10" x1="682.6" y1="285" x2="682.6" y2="400"/>
				<polyline class="st10" points="739,285 739,337 739,347.5 739,400 				"/>
				<line class="st10" x1="739" y1="337" x2="800" y2="337"/>
				<line class="st10" x1="739" y1="347.5" x2="800" y2="347.5"/>
				<polygon class="st10" points="800,347.5 800,400 739,400 682.6,400 543,400 368,400 0,400 0,260 0,0 368,0 543,0 800,0 800,285 
					800,337 				"/>
			</g>
		</g>
	</g>
	<text transform="matrix(1 0 0 1 545.5303 9.0619)" class="st13 st14">Biomasa</text>
	<text transform="matrix(1 0 0 1 3.5954 269.8938)" class="st13 st14">Gas Natural</text>
	<text transform="matrix(1 0 0 1 371.1814 9.0617)" class="st13 st14">Carbón</text>
	<text transform="matrix(1 0 0 1 2.9972 9.0618)" class="st13 st14">Petróleo crudo</text>
	<text transform="matrix(1 0 0 1 741.3332 293.6402)" class="st13 st14">Eólica</text>
	<text transform="matrix(1 0 0 1 741.9315 355.518)" class="st13 st14">Geotérmica</text>
	<text transform="matrix(1 0 0 1 545.8933 293.6404)" class="st13 st14">Hídrica</text>
	<text transform="matrix(1 0 0 1 685.2332 293.6406)" class="st13 st14">Solar</text>
	<text transform="matrix(1 0 0 1 741.6812 344.4149)" class="st13 st14">Biogás</text>
</g>
</svg>
