<svg xmlns="http://www.w3.org/2000/svg" viewBox="0 0 792 1224"><defs><style>.cls-1,.cls-4,.cls-5,.cls-6,.cls-9{fill:none;}.cls-1{stroke:#4e6487;}.cls-1,.cls-4,.cls-5{stroke-linecap:round;}.cls-1,.cls-2,.cls-3,.cls-4,.cls-9{stroke-miterlimit:10;}.cls-1,.cls-9{stroke-width:5px;}.cls-10,.cls-2,.cls-29{fill:#c1282e;}.cls-2,.cls-5{stroke:#c1282e;}.cls-3{fill:#f3e600;stroke:#009245;stroke-width:10px;}.cls-4,.cls-6{stroke:#1d1d1b;}.cls-4,.cls-5,.cls-6{stroke-width:3px;}.cls-5,.cls-6{stroke-linejoin:round;}.cls-5{stroke-dasharray:7;}.cls-10,.cls-18,.cls-21,.cls-31,.cls-7,.cls-8{font-size:15px;}.cls-7{fill:#506384;}.cls-10,.cls-16,.cls-18,.cls-7,.cls-8{font-family:Helvetica;}.cls-8{fill:#009245;}.cls-9{stroke:#000;}.cls-11{letter-spacing:-0.01em;}.cls-12{letter-spacing:0em;}.cls-13{letter-spacing:-0.03em;}.cls-14{letter-spacing:0em;}.cls-15{letter-spacing:-0.03em;}.cls-16{font-size:14px;}.cls-16,.cls-18,.cls-21,.cls-31{fill:#1d1d1b;}.cls-17{letter-spacing:0.02em;}.cls-19{letter-spacing:-0.05em;}.cls-20{letter-spacing:0.02em;}.cls-21{font-family:MyriadPro-Regular, Myriad Pro;}.cls-22{letter-spacing:-0.01em;}.cls-23{letter-spacing:0em;}.cls-24{letter-spacing:0em;}.cls-25{letter-spacing:0em;}.cls-26{letter-spacing:0em;}.cls-27{letter-spacing:-0.01em;}.cls-28{letter-spacing:-0.01em;}.cls-30{fill:#676766;opacity:0.52;}.cls-31{font-family:Helvetica-Bold, Helvetica;font-weight:700;}</style></defs><title>alto-maipo_antes-despues</title><g id="Layer_2" data-name="Layer 2"><path class="cls-1" d="M212.14,986a72.55,72.55,0,0,1,18.56-1.24c7.45.48,12,2,17.37-.64,1.47-.73,5.4-2.65,6.87-6.61,1.67-4.47-1.81-6.13-2.43-15.27-.32-4.66.43-6.56-.63-11.68a20.17,20.17,0,0,0-2.41-6.58c-1.48-2.47-8.34-6.14-6.58-9.09"/><path class="cls-1" d="M377.13,915.32c1.74.55,7.21,4.86,8.56,7.06,2.83,4.61-1.26,9.9-2.87,20-.23,1.43-.14,6.49,0,16.62.26,15.15.8,18.78,3.42,22a34.36,34.36,0,0,0,5.18,5.16c2.86,2.19,4.39,2.46,6.52,4.92,1.65,1.89,1.38,2.47,2.71,3.37,2.23,1.51,3.92.51,6.51,1.55a10.16,10.16,0,0,1,4.73,4.48c1.53,2.46,1.89,5,1.6,12.13-.45,11.32-1.64,11.83-.41,14.37,1.63,3.39,3.63,2.26,10.35,8.52,4.65,4.33,4.36,5.49,7.21,6.72,4.09,1.76,6.29,0,10.11,2.44,2.32,1.46,2,2.44,4.73,4,3.37,2,4.83,1.08,7,2.46,2.82,1.83,2,4.56,4.52,12.12a49.22,49.22,0,0,0,6.09,12.34c2.14,3.07,3.68,5.25,6.53,6.94,3.87,2.3,5.14.76,9.89,2.68,5.59,2.25,5,4.87,11.7,8.28,4.72,2.41,5.82,1.52,8.32,3.8,1.72,1.56,1.95,2.67,5,9.42,4,8.87,5,10.1,5.86,11,2.12,2.1,4.72,3.34,9.22,4.47,8.53,2.14,15.8,1.86,22,1.52,21.3-1.17,27.07-2.85,32.35,1.49,2.71,2.23,2.26,3.56,5.63,5.83,4.36,3,8.33,2.9,17.08,3.78,11.1,1.12,9,1.63,15.28,2,8.69.49,15-.35,22.9-1.4,11.44-1.52,17.16-2.28,21.78-5.22s4.82-5,9.87-7.21c.87-.39,11.64-5.09,16.62-.49,1.07,1,1.48,2.06,2.71,9,2,11.33,1.62,12.41,2.74,16.27.92,3.17,1,1.9,7.22,13.8,4.68,9,5.36,11.17,8.57,14.81a43.06,43.06,0,0,0,7.65,6.72c4.17,3,7.23,5.15,11.7,5.81a19.7,19.7,0,0,0,10.33-1.37"/><path class="cls-2" d="M101.14,1028.89a11.52,11.52,0,1,1-11.52-11.52,11.52,11.52,0,0,1,11.52,11.52"/><path class="cls-1" d="M743.76,935.44c-1,2.15-3.23,6.17-7.62,8.1-7,3.1-14.63-1.21-18-3.1-8.07-4.55-7.24-8.49-16.21-13.88-4.14-2.5-10.63-6.4-15.28-4-3.27,1.68-2.53,4.86-7.62,9.45-1.16,1-3.33,2.37-7.62,5-8.68,5.24-9.23,4.94-10.77,6.77-3.63,4.31-1.41,7-4.91,10.79-2.47,2.69-5.54,3.45-11.67,5-8.49,2.11-10.32.52-14.37,3.18-3.53,2.32-3.06,4.13-6.72,5.86-4.63,2.18-7.09.09-9.43,2.27-2,1.86-.83,4-2.22,11.23-1,5.36-1.65,8.33-4,9.89-2.83,1.87-4.77-.53-8.53.92-1.95.75-3.06,2-9,11.71-4.3,7.07-3.85,6.61-4.92,8.09-5.23,7.21-7.53,6.17-9.86,10.81-3,5.9.13,8.8-3.56,14.74a28.46,28.46,0,0,1-5.37,6c-4.91,4.54-7,4.49-8.52,7.65-1.39,2.9,0,3.72-1.33,8.09-.94,3.12-1.84,3.33-4.47,8.1-2.23,4-1.79,4.24-5.36,11.69-2.14,4.46-3.23,6.72-4.48,8.1-2.77,3.08-5.9,4.41-9.42,5.86-4.27,1.76-6.33,1.79-13.47,3.63-4.08,1-13.91,5.27-16.68,4.68"/><path class="cls-3" d="M98.91,1143a9.29,9.29,0,1,1-9.31-9.26,9.28,9.28,0,0,1,9.31,9.26"/><line class="cls-1" x1="67.5" y1="1060.53" x2="111.75" y2="1060.53"/><line class="cls-4" x1="67.5" y1="1087.08" x2="111.75" y2="1087.08"/><line class="cls-5" x1="67.5" y1="1113.33" x2="111.75" y2="1113.33"/><path class="cls-4" d="M466,655c1.05,4.08.28,6.25-.6,7.48-2,2.83-5.38,1.79-10.78,4.8-.75.42-.65.42-6.89,5.69-8.36,7.06-8.69,7.19-9.88,8.68-3.1,3.9-3.38,6.23-5.09,6.29-2.39.08-2.65-4.44-6.59-7.19-4.64-3.23-12.25-2.49-16.77.9-4.17,3.13-2.09,5.78-6.59,11.68-4.81,6.31-8,4.3-16.17,12.58-2.95,3-3.95,4.65-7.19,6.59-3.62,2.17-5.8,2.13-9.58,3.59a36.4,36.4,0,0,0-11.68,7.79c-7.08,7.43-4.38,13.73-11.68,18.87-.72.5-5.14,3.61-7.79,2.09-1.29-.74-1.06-2-2.1-3.29-2.57-3.32-8.25-1.26-15.27-2.1-7.18-.85-6.2-3.61-12.88-4.49-.63-.08-12.25-1.45-20.36,5.69-3.76,3.31-3.23,5.33-6.89,7.19-6.18,3.14-13.26.22-13.78,0-4.35-1.87-3.6-3.72-9.88-7.79-3.62-2.34-7-4.55-11.68-4.79-3.44-.18-3.94.9-8.69.9-4.32,0-7.34,0-9.28-1.8-2.86-2.64-1-7-1.2-15.57-.15-6.21-1.15-5.22-2.4-15.27-1.13-9.17-.06-8-1.19-23.37a99.25,99.25,0,0,1-.3-15.57c.17-2.53.41-4.6.6-6"/><path class="cls-4" d="M226.51,732.06c-1.4.62-5.43,2.81-6.14,4.7-.79,2.12.45,3.47-.3,4.49-1.41,1.92-8,.12-13.48-3-5-2.81-4.53-4.15-9.58-7.49s-6.83-2.91-14.67-6.59a69.88,69.88,0,0,1-13.18-7.49c-6.5-4.87-10.32-10.13-13.78-15-6.32-8.84-4.15-9.05-9.58-15.87-4.81-6-9.28-9.37-12-15.28a28.83,28.83,0,0,1-2.4-9.28,26.8,26.8,0,0,1,0-3"/><path class="cls-4" d="M220.07,741.25a23.09,23.09,0,0,1,0,7c-1.45,2.56-5.63,1.12-11,3.59-3.39,1.56-2.53,2.5-5.4,3.6-5.73,2.2-12.11-.43-13.25-.9-3.95-1.63-5-3.44-7.41-2.92-2.22.48-2.17,2.25-4.72,3.82-3.78,2.32-6.32-.05-11.45,1.34-4.75,1.29-4.05,3.73-8.76,5.39-5.07,1.79-6.53-.79-14.38-.22-3.93.29-7.12,1.31-13.48,3.37-1.07.35-5.64,1.84-11.68,4.49-5.54,2.44-5.68,2.93-11.68,5.62A104.71,104.71,0,0,1,95,780.18a87.09,87.09,0,0,1-12.35,2.92c-8,1.4-14.24,1.64-24.94,2-4,.14-7.22.19-9.43.22"/><path class="cls-4" d="M220.07,748.29c.31,1.5,1,9.14.23,11.9-.3,1-1.33,4.06-6.29,8.31-2.75,2.36-4,2.81-8.54,5.62-6.79,4.25-10.26,6.42-13.7,10.33a33,33,0,0,0-5.62,8.54c-2.55,5.71-1.55,8.15-4.49,11.9-.82,1.05-2.79,2.5-6.74,5.39-6.47,4.75-7.15,4.57-8.53,6.52-2.24,3.16-1.21,4.73-3.37,9.21a26.9,26.9,0,0,1-6.07,7.86c-5.93,5-12.83,1.81-24.48,2.24-13,.49-10.75,4.61-26.5,6.29-14.4,1.54-16.7-1.85-28.53.9a45.27,45.27,0,0,1-13.25,1.57,42.51,42.51,0,0,1-10.56-1.79"/><path class="cls-6" d="M157,833.87c.48,1.92.51,10.13.23,13.48-.39,4.58-2,7.69-4.94,13.25-8,15.08-8.2,14.95-8.76,17.07-1.43,5.35-1.2,10-.9,16a111.35,111.35,0,0,0,1.57,12.8c2,13,3.37,14.56,2,18.64-1,3.11-2.06,3-4.62,9.21-1.92,4.65-1.71,5.61-3.24,7.19-2.95,3-5.36,1.12-9.66,4.27-3.52,2.58-3.32,4.92-6.51,5.84-2.33.67-3.08-.39-5.62.45-3.11,1-2.86,2.91-5.39,3.82-3.72,1.34-5.7-2.23-10.56-1.35-.79.14-.72.23-5.84,2.92-7.08,3.72-8,4-9,4-3.5.32-3.44-1.54-7.86-1.8-2.25-.12-2.57.34-10.78,2-3.16.64-4.73,1-6.07,1.12a34.21,34.21,0,0,1-10.56-.45"/><text class="cls-7" transform="matrix(0.89, -0.46, 0.46, 0.89, 598.2, 966.34)">Río Yeso</text><path class="cls-5" d="M678.37,1114.47c-22.58-25.17-43.11-44.22-65.7-69.39l-3.61-15.31-68-57L515.33,911s-5.5-2.79-11.32-6.48c-5.5-3.49-12-10-13.24-11.84-5.56-8.4,14.26-42.66,55.48-77.3"/><text class="cls-8" transform="translate(129.44 1148.87)">Planta productora de agua potable</text><line class="cls-9" y1="603.5" x2="792" y2="603.5"/><text class="cls-10" transform="translate(565.22 821.37)">Cent<tspan class="cls-11" x="31.68" y="0">r</tspan><tspan class="cls-12" x="36.54" y="0">al Al</tspan><tspan class="cls-13" x="65.72" y="0">f</tspan><tspan class="cls-14" x="69.44" y="0">al</tspan><tspan class="cls-15" x="81.12" y="0">f</tspan><tspan x="84.85" y="0">al I</tspan></text><text class="cls-16" transform="translate(262.86 699.35)">Lo Ba<tspan class="cls-17" x="36.59" y="0">r</tspan><tspan x="41.58" y="0">nechea</tspan></text><text class="cls-18" transform="translate(164.09 674.85)">Las </text><text class="cls-18" transform="translate(162.29 692.63)">Condes</text><text class="cls-18" transform="translate(83.2 741.94)"><tspan class="cls-19">P</tspan><tspan x="9.27" y="0">eñalolen</tspan></text><text class="cls-18" transform="translate(78.32 814.52)">La Flo<tspan class="cls-20" x="41.69" y="0">r</tspan><tspan x="46.91" y="0">ida</tspan></text><text class="cls-21" transform="translate(50.07 908.41)"><tspan class="cls-22">P</tspan><tspan class="cls-23" x="7.77" y="0">ue</tspan><tspan class="cls-24" x="23.55" y="0">n</tspan><tspan class="cls-25" x="31.81" y="0">t</tspan><tspan x="36.7" y="0">e </tspan><tspan class="cls-26" x="47.4" y="0">A</tspan><tspan x="56.53" y="0">l</tspan><tspan class="cls-27" x="60.07" y="0">t</tspan><tspan x="64.95" y="0">o</tspan></text><text class="cls-7" transform="translate(424.6 854.27) rotate(-25.14)">Río Colorado</text><text class="cls-7" transform="translate(591.78 1162.18)">Río Volcán</text><text class="cls-7" transform="matrix(1, -0.03, 0.03, 1, 289.09, 949.78)">Río Maipo</text><text class="cls-7" transform="translate(129.44 1066.75)">Río</text><text class="cls-10" transform="matrix(1, 0, 0, 1, 509.14, 894.28)">Cent<tspan class="cls-11" x="31.68" y="0">r</tspan><tspan class="cls-12" x="36.54" y="0">al Al</tspan><tspan class="cls-13" x="65.72" y="0">f</tspan><tspan class="cls-14" x="69.44" y="0">al</tspan><tspan class="cls-15" x="81.12" y="0">f</tspan><tspan x="84.85" y="0">al II</tspan></text><text class="cls-10" transform="translate(129.44 1040.59)">Cent<tspan class="cls-28" x="31.68" y="0">r</tspan><tspan x="36.53" y="0">al </tspan></text><text class="cls-10" transform="translate(129.44 1121.39)">Túneles y ductos subterráneos</text><text class="cls-18" transform="translate(129.44 1094.75)">Co<tspan class="cls-11" x="19.17" y="0">m</tspan><tspan x="31.54" y="0">una</tspan></text><text class="cls-10" transform="matrix(1, 0, 0, 1, 279.26, 874.89)">Central Las Lajas</text><path class="cls-1" d="M536.37,814.5c-1.92,3.53-4,4.77-5.53,5.25-2.05.64-3.14-.09-4.94.91-2.13,1.19-2.11,3.05-3.73,4.8-2.28,2.48-5.57,2.29-8.38,2.72-9.76,1.48-9.41,9.71-21.23,13.53-4.63,1.49-6.39.78-11.67,3.17-4.13,1.87-4.42,2.92-8.23,4.36-6.22,2.35-8,.49-11.67,2.58-5,2.8-3.24,7-7.91,10.65-5.64,4.45-9.94-.24-17.36,3.78-3.86,2.09-2.33,3.16-12.4,12.31-4.77,4.33-7.05,5.86-9.57,5.57-1.35-.16-3.46-.92-5.54.16a24.79,24.79,0,0,1-2.1,1.35,12.29,12.29,0,0,1-4,1.06c-1.33.13-1.37-.06-1.94.15-.9.35-1.31,1-2.54,3,0,0-1.46,2.37-2.24,3.6-.89,1.42-1.38,2.2-2.09,3.15-2,2.75-2.65,2.58-3.73,4.5-.78,1.39-.55,1.64-1.64,3.75a31.5,31.5,0,0,1-1.79,3c-1.79,2.61-4.24,6.2-8.52,7.36-3.37.92-8,.37-10.48-2.37-1.92-2.12-1-3.81-3-5.68-2.24-2.07-4.87-1.39-8.09-2.08-5.63-1.2-4.79-5.1-10.5-7.46-2.69-1.11-2.09,0-11.09-1.47-5.78-.92-7.32-1.57-10.18-.88a16,16,0,0,0-6.58,3.61c-5.18,4.27-4.42,7.74-8.67,9.61-2.61,1.15-3.75.21-5.68,1.81-2.16,1.79-1.37,3.49-3.58,5.7a12.26,12.26,0,0,1-6.58,3c-3.57.64-5.29-.43-6.59.91s-.3,3.08-1.49,3.9c-1.35.93-3.1-1-6.29-1.18-2.06-.11-3.59.63-6.58,2.11-5.11,2.53-5,3.76-8.08,5.11-4.63,2-5.8-.34-12.27,1.23-1.42.34-4.24,1.63-9.88,4.21-4.08,1.87-5.27,2.51-9,4.22-2.47,1.14-5.93,2.71-10.17,4.52"/><text class="cls-16" transform="translate(262.86 81.43)">Lo Ba<tspan class="cls-17" x="36.59" y="0">r</tspan><tspan x="41.58" y="0">nechea</tspan></text><text class="cls-18" transform="translate(162.29 56.71)">Las </text><text class="cls-18" transform="translate(162.29 74.71)">Condes</text><text class="cls-18" transform="translate(83.2 124.01)"><tspan class="cls-19">P</tspan><tspan x="9.27" y="0">eñalolen</tspan></text><text class="cls-18" transform="translate(78.32 196.6)">La Flo<tspan class="cls-20" x="41.69" y="0">r</tspan><tspan x="46.91" y="0">ida</tspan></text><text class="cls-21" transform="translate(50.07 290.48)"><tspan class="cls-22">P</tspan><tspan class="cls-23" x="7.77" y="0">ue</tspan><tspan class="cls-24" x="23.55" y="0">n</tspan><tspan class="cls-25" x="31.81" y="0">t</tspan><tspan x="36.7" y="0">e </tspan><tspan class="cls-26" x="47.4" y="0">A</tspan><tspan x="56.53" y="0">l</tspan><tspan class="cls-27" x="60.07" y="0">t</tspan><tspan x="64.95" y="0">o</tspan></text><text class="cls-7" transform="translate(424.6 236.34) rotate(-25.14)">Río Colorado</text><text class="cls-7" transform="translate(591.78 544.25)">Río Volcán</text><text class="cls-7" transform="matrix(1, -0.03, 0.03, 1, 289.09, 331.85)">Río Maipo</text><path class="cls-1" d="M536.37,196.57c-1.92,3.54-4,4.78-5.53,5.26-2.05.63-3.14-.1-4.94.91-2.13,1.18-2.11,3-3.73,4.8-2.28,2.48-5.57,2.29-8.38,2.71-9.76,1.48-9.41,9.72-21.23,13.53-4.63,1.5-6.39.78-11.67,3.17-4.13,1.87-4.42,2.93-8.23,4.37-6.22,2.35-8,.49-11.67,2.57-5,2.81-3.24,7-7.91,10.65-5.64,4.45-9.94-.24-17.36,3.79-3.86,2.09-2.33,3.15-12.4,12.31-4.77,4.33-7.05,5.86-9.57,5.56-1.35-.16-3.46-.91-5.54.16-.87.45-.89.78-2.1,1.36a12.4,12.4,0,0,1-4,1c-1.33.13-1.37-.06-1.94.16-.9.34-1.31,1-2.54,3,0,0-1.46,2.36-2.24,3.6-.89,1.42-1.38,2.2-2.09,3.15-2,2.74-2.65,2.57-3.73,4.5-.78,1.38-.55,1.63-1.64,3.75a31.5,31.5,0,0,1-1.79,3c-1.79,2.61-4.24,6.19-8.52,7.36-3.37.92-8,.36-10.48-2.38-1.92-2.11-1-3.8-3-5.68-2.24-2.07-4.87-1.39-8.09-2.08-5.63-1.2-4.79-5.1-10.5-7.46-2.69-1.11-2.09,0-11.09-1.47-5.78-.92-7.32-1.57-10.18-.87a15.93,15.93,0,0,0-6.58,3.61c-5.18,4.27-4.42,7.74-8.67,9.6-2.61,1.15-3.75.21-5.68,1.81-2.16,1.79-1.37,3.49-3.58,5.7a12.18,12.18,0,0,1-6.58,3c-3.57.64-5.29-.43-6.59.92s-.3,3.08-1.49,3.89c-1.35.93-3.1-1-6.29-1.18-2.06-.11-3.59.63-6.58,2.11-5.11,2.53-5,3.76-8.08,5.11-4.63,2-5.8-.34-12.27,1.23-1.42.34-4.24,1.63-9.88,4.22"/><path class="cls-1" d="M211.21,368.3a73.06,73.06,0,0,1,18.57-1.24c7.45.49,12,2,17.36-.64,1.48-.72,5.4-2.64,6.88-6.61,1.66-4.47-1.82-6.13-2.44-15.26-.31-4.67.44-6.57-.62-11.68a19.76,19.76,0,0,0-2.42-6.58c-1.48-2.47-8.34-6.14-6.57-9.1"/><path class="cls-1" d="M377.13,297.39c1.74.55,7.21,4.87,8.56,7.06,2.83,4.61-1.26,9.9-2.87,20-.23,1.43-.14,6.5,0,16.62.26,15.15.8,18.78,3.42,22a34.56,34.56,0,0,0,5.18,5.15c2.86,2.19,4.39,2.47,6.52,4.93,1.65,1.89,1.38,2.46,2.71,3.36,2.23,1.51,3.92.52,6.51,1.56a10.12,10.12,0,0,1,4.73,4.48c1.53,2.46,1.89,5,1.6,12.12-.45,11.32-1.64,11.84-.41,14.38,1.63,3.39,3.63,2.25,10.35,8.51,4.65,4.33,4.36,5.49,7.21,6.72,4.09,1.76,6.29,0,10.11,2.45,2.32,1.46,2,2.43,4.73,4,3.37,2,4.83,1.07,7,2.45,2.82,1.83,2,4.57,4.52,12.12a49,49,0,0,0,6.09,12.34c2.14,3.08,3.68,5.25,6.53,6.95,3.87,2.3,5.14.75,9.89,2.67,5.59,2.26,5,4.88,11.7,8.28,4.72,2.41,5.82,1.52,8.32,3.8,1.72,1.57,1.95,2.67,5,9.42,4,8.87,5,10.1,5.86,11,2.12,2.09,4.72,3.33,9.22,4.47,8.53,2.14,15.8,1.85,22,1.51,21.3-1.16,27.07-2.85,32.35,1.5,2.71,2.23,2.26,3.55,5.63,5.83,4.36,2.94,8.33,2.89,17.08,3.77,11.1,1.12,9,1.63,15.28,2,8.69.49,15-.36,22.9-1.41,11.44-1.52,17.16-2.28,21.78-5.21s4.82-4.95,9.87-7.22c.87-.39,11.64-5.08,16.62-.49,1.07,1,1.48,2.06,2.71,9,2,11.34,1.62,12.42,2.74,16.28.92,3.17,1,1.9,7.22,13.8,4.68,9,5.36,11.16,8.57,14.8a43.06,43.06,0,0,0,7.65,6.72c4.17,3,7.23,5.16,11.7,5.81A19.7,19.7,0,0,0,734,569.56"/><path class="cls-1" d="M743.76,317.51c-1,2.16-3.23,6.17-7.62,8.11-7,3.09-14.63-1.22-18-3.1C710.1,318,710.93,314,702,308.63c-4.14-2.49-10.63-6.4-15.28-4-3.27,1.68-2.53,4.86-7.62,9.46-1.16,1.05-3.33,2.36-7.62,5-8.68,5.24-9.23,4.93-10.77,6.76-3.63,4.31-1.41,7-4.91,10.8-2.47,2.68-5.54,3.44-11.67,5-8.49,2.1-10.32.52-14.37,3.18-3.53,2.31-3.06,4.12-6.72,5.85-4.63,2.19-7.09.1-9.43,2.27-2,1.87-.83,4-2.22,11.24-1,5.35-1.65,8.33-4,9.89-2.83,1.86-4.77-.53-8.53.92-1.95.75-3.06,2-9,11.7-4.3,7.07-3.85,6.62-4.92,8.1-5.23,7.2-7.53,6.16-9.86,10.8-3,5.91.13,8.8-3.56,14.75a28.68,28.68,0,0,1-5.37,5.94c-4.91,4.54-7,4.5-8.52,7.66-1.39,2.89,0,3.71-1.33,8.09-.94,3.11-1.84,3.33-4.47,8.09-2.23,4-1.79,4.25-5.36,11.7-2.14,4.45-3.23,6.71-4.48,8.09-2.77,3.09-5.9,4.42-9.42,5.87-4.27,1.76-6.33,1.79-13.47,3.62-4.08,1.05-13.91,5.28-16.68,4.69"/><path class="cls-4" d="M466,37.07c1.05,4.08.28,6.26-.6,7.49-2,2.82-5.38,1.78-10.78,4.79-.75.42-.65.42-6.89,5.69-8.36,7.07-8.69,7.2-9.88,8.69-3.1,3.89-3.38,6.23-5.09,6.29-2.39.08-2.65-4.45-6.59-7.19-4.64-3.24-12.25-2.49-16.77.9-4.17,3.12-2.09,5.77-6.59,11.68-4.81,6.3-8,4.29-16.17,12.58-2.95,3-3.95,4.64-7.19,6.58-3.62,2.17-5.8,2.14-9.58,3.6A36.09,36.09,0,0,0,358.14,106c-7.08,7.43-4.38,13.73-11.68,18.87-.72.5-5.14,3.62-7.79,2.1-1.29-.74-1.06-2-2.1-3.3-2.57-3.32-8.25-1.25-15.27-2.09-7.18-.86-6.2-3.61-12.88-4.49-.63-.09-12.25-1.46-20.36,5.69-3.76,3.3-3.23,5.32-6.89,7.18-6.18,3.15-13.26.23-13.78,0-4.35-1.86-3.6-3.72-9.88-7.78-3.62-2.35-7-4.55-11.68-4.79-3.44-.18-3.94.9-8.69.89-4.32,0-7.34,0-9.28-1.79-2.86-2.64-1-7-1.2-15.58-.15-6.2-1.15-5.22-2.4-15.27-1.13-9.17-.06-8-1.19-23.36a99.42,99.42,0,0,1-.3-15.58c.17-2.52.41-4.6.6-6"/><path class="cls-4" d="M226.51,114.13c-1.4.62-5.43,2.81-6.14,4.7-.79,2.13.45,3.48-.3,4.49-1.41,1.92-8,.12-13.48-3-5-2.81-4.53-4.14-9.58-7.49s-6.83-2.91-14.67-6.59a69.79,69.79,0,0,1-13.18-7.48c-6.5-4.88-10.32-10.13-13.78-15-6.32-8.84-4.15-9.05-9.58-15.87-4.81-6-9.28-9.36-12-15.28a28.78,28.78,0,0,1-2.4-9.28,26.62,26.62,0,0,1,0-3"/><path class="cls-4" d="M220.07,123.33a23,23,0,0,1,0,7c-1.45,2.56-5.63,1.12-11,3.6-3.39,1.56-2.53,2.49-5.4,3.59-5.73,2.2-12.11-.43-13.25-.9-3.95-1.62-5-3.44-7.41-2.92-2.22.49-2.17,2.25-4.72,3.82-3.78,2.33-6.32,0-11.45,1.35-4.75,1.29-4.05,3.73-8.76,5.39-5.07,1.78-6.53-.79-14.38-.22-3.93.28-7.12,1.31-13.48,3.36-1.07.35-5.64,1.85-11.68,4.5-5.54,2.43-5.68,2.92-11.68,5.61A104.65,104.65,0,0,1,95,162.26a88.51,88.51,0,0,1-12.35,2.92c-8,1.39-14.24,1.64-24.94,2-4,.14-7.22.2-9.43.23"/><path class="cls-4" d="M220.07,130.36c.31,1.51,1,9.14.23,11.91-.3,1-1.33,4-6.29,8.31-2.75,2.35-4,2.8-8.54,5.61-6.79,4.25-10.26,6.42-13.7,10.34a32.72,32.72,0,0,0-5.62,8.53c-2.55,5.71-1.55,8.15-4.49,11.91-.82,1.05-2.79,2.5-6.74,5.39-6.47,4.75-7.15,4.56-8.53,6.51-2.24,3.16-1.21,4.74-3.37,9.21a26.76,26.76,0,0,1-6.07,7.86c-5.93,4.95-12.83,1.81-24.48,2.25-13,.49-10.75,4.61-26.5,6.29-14.4,1.53-16.7-1.86-28.53.9A45.27,45.27,0,0,1,64.19,227a42,42,0,0,1-10.56-1.8"/><path class="cls-4" d="M157,215.94c.48,1.92.51,10.13.23,13.48-.39,4.59-2,7.69-4.94,13.25-8,15.08-8.2,15-8.76,17.07-1.43,5.35-1.2,10-.9,15.95a111.09,111.09,0,0,0,1.57,12.8c2,13,3.37,14.56,2,18.65-1,3.11-2.06,3-4.62,9.21-1.92,4.64-1.71,5.61-3.24,7.18-2.95,3.06-5.36,1.12-9.66,4.27-3.52,2.58-3.32,4.92-6.51,5.84-2.33.67-3.08-.38-5.62.45-3.11,1-2.86,2.91-5.39,3.82-3.72,1.34-5.7-2.23-10.56-1.35-.79.15-.72.24-5.84,2.92-7.08,3.72-8,4-9,4-3.5.31-3.44-1.55-7.86-1.8-2.25-.13-2.57.34-10.78,2-3.16.65-4.73,1-6.07,1.12a33.6,33.6,0,0,1-10.56-.45"/><text class="cls-7" transform="matrix(0.89, -0.46, 0.46, 0.89, 598.2, 348.41)">Río Yeso</text><text class="cls-7" transform="translate(135.79 450.67)">Río</text><text class="cls-18" transform="translate(135.79 478.67)">Co<tspan class="cls-11" x="19.17" y="0">m</tspan><tspan x="31.54" y="0">una</tspan></text><line class="cls-1" x1="73.85" y1="444.44" x2="118.1" y2="444.44"/><line class="cls-4" x1="73.85" y1="471" x2="118.1" y2="471"/><path class="cls-3" d="M256.29,934.24A9.29,9.29,0,1,1,247,925a9.28,9.28,0,0,1,9.31,9.26"/><path class="cls-5" d="M349.68,896.84l10.23,4.06s109.6-14.79,130.54-10.75"/><path class="cls-29" d="M556.46,814.67a11.52,11.52,0,1,1-11.52-11.52,11.52,11.52,0,0,1,11.52,11.52"/><path class="cls-29" d="M499.38,886.42a11.51,11.51,0,1,1-11.54-11.49,11.51,11.51,0,0,1,11.54,11.49"/><path class="cls-29" d="M348.56,894.22A11.51,11.51,0,1,1,337,882.74a11.5,11.5,0,0,1,11.54,11.48"/><rect class="cls-30" x="676.87" y="18.68" width="77.8" height="29.62"/><rect class="cls-30" x="685.03" y="629.47" width="77.8" height="29.62"/><text class="cls-31" transform="translate(696.43 648.31)">AHORA</text><text class="cls-31" transform="translate(690.35 37.07)">ANTES</text></g></svg>