<?xml version="1.0" encoding="utf-8"?>
<!-- Generator: Adobe Illustrator 27.1.0, SVG Export Plug-In . SVG Version: 6.00 Build 0)  -->
<svg version="1.1" id="Capa_1" xmlns="http://www.w3.org/2000/svg" xmlns:xlink="http://www.w3.org/1999/xlink" x="0px" y="0px"
	 viewBox="0 0 581.1 652" style="enable-background:new 0 0 581.1 652;" xml:space="preserve">
<style type="text/css">
	.st0{display:none;}
	.st1{display:inline;fill:#D3D3D3;}
	.st2{display:inline;fill:#6078A7;}
	.st3{display:inline;fill:#BEBEBE;}
	.st4{display:inline;fill:#506384;}
	.st5{display:inline;fill:#A3A2A2;}
	.st6{display:inline;fill:#706959;}
	.st7{display:inline;fill:#A8A9AC;}
	.st8{display:inline;fill:#94959A;}
	.st9{display:inline;fill:#3B8A93;}
	.st10{display:inline;fill:#85868A;}
	.st11{display:inline;fill:none;stroke:#506384;stroke-width:3;stroke-miterlimit:10;}
	.st12{display:inline;fill:#8D8F93;}
	.st13{display:inline;fill:none;stroke:#FFDE14;stroke-miterlimit:10;}
	.st14{display:inline;fill:none;stroke:#414143;stroke-miterlimit:10;}
	.st15{display:inline;fill:none;stroke:#020203;stroke-miterlimit:10;}
	.st16{display:inline;fill:none;stroke:#59595B;stroke-miterlimit:10;}
	.st17{display:inline;fill:none;}
	.st18{display:inline;fill:none;stroke:#000000;stroke-miterlimit:10;}
	.st19{display:inline;opacity:0.81;enable-background:new    ;}
	.st20{fill:#4F6384;}
	.st21{fill:#6078A6;}
	.st22{fill:#AFA584;}
	.st23{fill:#FFFFFF;}
	.st24{fill:#A3A3A3;}
	.st25{fill:#7F7865;}
	.st26{fill:#BCBCBC;}
	.st27{fill:#BFBFBF;}
	.st28{fill:#70695A;}
	.st29{fill:#E0E0E0;}
	.st30{fill:#686868;}
	.st31{fill:#D3D3D3;}
	.st32{fill:#0E1C33;}
	.st33{fill:#0E2440;}
	.st34{fill:#1C3554;}
	.st35{fill:#333333;}
	.st36{fill:#404F66;}
	.st37{fill:none;stroke:#333333;stroke-width:0.5;stroke-miterlimit:10;}
	.st38{fill:none;stroke:#333333;stroke-width:0.25;stroke-miterlimit:10;}
	.st39{fill:none;stroke:#333333;stroke-miterlimit:10;}
	.st40{fill:none;stroke:#000000;stroke-miterlimit:10;}
	.st41{opacity:0.47;enable-background:new    ;}
	.st42{font-family:'Helvetica';}
	.st43{font-size:11.5685px;}
	.st44{fill:#333333;stroke:#333333;stroke-width:0.5;stroke-miterlimit:10;}
	.st45{fill:#FFDE14;}
	.st46{fill:#333333;stroke:#FFDE14;stroke-width:0.5;stroke-miterlimit:10;}
	.st47{fill:none;stroke:#FFDE14;stroke-width:0.5;stroke-miterlimit:10;}
</style>
<g id="Capa_1_00000165229893363947370690000013111912158910186430_">
</g>
<g id="Capa_2_00000029756992403204447240000008897777900383894678_" class="st0">
	<polygon class="st1" points="-293.4,85.8 -356.1,101.1 -464.4,236.3 -453.8,247.2 -364.6,467.1 -149.4,345 -228.5,239 
		-244.2,204.6 -217.5,172.5 -257.4,107.7 	"/>
	<polygon class="st2" points="-254.9,549.8 -254.9,593 -92.7,459.8 -92.7,420.5 	"/>
	<polygon class="st3" points="-365.4,467.1 -155.4,346.1 -159,422.8 -297.1,520.4 	"/>
	<path class="st4" d="M-264.5,80.7c26.7,25.1,40.3,37.4,46.6,42.6c5.2,4.3,9.9,9.7,15,14.1c1.8,1.6,3.4,2.9,5,5.6
		c4.8,7.9,4.2,18.1,4.2,18.9c-0.1,1.6-0.4,3.9-1,6.5c-4.4,17.4-21.3,29.8-26.8,33.9c-0.9,0.7-2.8,2.1-4.6,5c-3.6,6.1-3.5,14-3.5,15
		c0.1,4.9,1.6,11.1,8.7,20.6c7.8,10.3,14,13.6,27.1,23c3.2,2.3,12.6,9.1,21.9,16.9c14,11.8,23.9,22.7,26.8,25.9
		c7.3,8.2,17.2,19.3,28.1,37.2c0,0,13.1,21.5,25.7,58.4c0.6,1.8,0.9,3.3,1,3.9c0.8,3.9,0.6,7.1,0.5,8.2c-0.2,2.2-0.5,7.3-3.1,10.8
		c-1.3,1.8-2.6,2.4-2.9,2.6c-3.8,2.1-63.9,49.1-158.7,124l-45.8-36.1c38.6-24.2,69.8-47,87-58.1c4.4-2.9,14.5-9.4,25.4-22.7
		c4.4-5.5,8.9-11,13.2-20c2.3-5,14.7-31.4,8.6-59.1c-2.5-11.3-7.1-18.5-12-26c-4.5-7-9.1-12-23.9-24.9c-15.1-13.1-15.5-12.3-25.4-21
		c-15.6-13.8-23.5-21-30.3-34.9c-3.7-7.6-8.7-18.2-8.1-32.2c0.5-12.2,4.9-21.3,5.7-22.9c3-6.1,6.5-9.6,7.4-10.5
		c2.1-2,3.6-2.9,4.9-3.8c7.1-4.9,17.6-16.2,16.4-25c-0.6-3.8-2.1-6.4-2.1-6.4c-1.4-2.4-3.2-3.3-3.6-3.6c-3.1-1.8-8.1-7.9-22.8-23.4
		c-6.4-6.7-17.1-17.8-35.8-36.9L-264.5,80.7z"/>
	<path class="st5" d="M-524.8,132.9l2.3,243.6l268.2,216.3v-38.6l-110.7-87.1l-88.3-219.4l-11.6-11l17-44.7c0,0-36.9-66.7-37.7-67.1
		C-486.2,124.5-524.8,132.9-524.8,132.9z"/>
	<path class="st6" d="M-524.9,132.5V98l7.1-10.9h8.5l12.9-9.8h15.7l8.1,10.7c0,0,20.3-8.8,29.1-15.3s8.8-9.5,8.8-9.5
		s2.9-4.3,7.5-3.1c4.5,1.1,9.1,2.4,9.1,2.4l52.5,0.8c0,0,30.8,28.8,39.6,32.9c8.8,4.2,8.6,7.1,8.6,7.1l11,17.8l9.6,40.5l-63.9,28.8
		c0,0,0.4-13.4-1.1-15.8s-13.5,16.6-13.5,16.6l-31.4,19.5l-57.7,25.6l0.3-7.4l-5.3-16.9l-6.1-5.5l-3.7-20.6l2-10.9l-12.5-26.9
		l-12.3-5.5l-11.4-11.6L-524.9,132.5z"/>
	<polygon class="st3" points="-247,128.6 -219.4,110 -219.4,122 -247,142.7 	"/>
	<polygon class="st7" points="-219.4,110 -223.5,107.4 -251.2,126.3 -247,128.9 	"/>
	<polygon class="st8" points="-251.2,126.3 -251.2,140.4 -247,142.7 -247,128.9 	"/>
	<polygon class="st3" points="-380.9,205.8 -408.5,203.1 -408.2,216.9 -380.9,219.8 	"/>
	<polygon class="st8" points="-368.1,202.8 -368.1,216.8 -380.9,219.8 -380.9,205.8 	"/>
	<polygon class="st9" points="-305,127.2 -303.4,134 -274.1,142.3 -254.6,135.3 -254.6,130.7 -287.2,118.9 	"/>
	<polygon class="st7" points="-299.7,149.5 -250.5,133 -250.5,139.1 -298.1,155.8 	"/>
	<path class="st4" d="M-299.5,150.7l49.8-16.8c0,0,0.6-1.2,1.2,0s0.3,4.1,0.3,4.1l-50.6,15.9L-299.5,150.7z"/>
	<polyline class="st3" points="-298.8,153.4 -247,135.9 -246.7,142.5 -297.4,159.4 -298.8,153.8 	"/>
	<polygon class="st7" points="-359.9,172.7 -365.4,174.7 -376.1,191.5 -397.2,202 -385.9,202.8 -373.4,197.4 -366.1,186.2 
		-359.1,179.1 	"/>
	<polygon class="st4" points="-360.6,174 -365,175.7 -375.8,192.3 -395.9,202.4 -389.5,202.9 -374.8,195.6 -363.8,178.2 -360.6,177 
			"/>
	<polygon class="st3" points="-390.5,203.3 -374.7,194.4 -363.9,177.9 -360,176.5 -360,183.4 -361.5,183.1 -372.8,199.7 
		-379.2,203.3 	"/>
	<polyline class="st6" points="-360.6,171.1 -360.7,186.6 -352.4,182.8 -360.6,170.8 	"/>
	<polygon class="st7" points="-408.5,203.1 -402.7,200.3 -368.1,202.8 -380.9,205.8 	"/>
	<path class="st10" d="M-374.1,216.6l7.4,0.1l131.4,191.1l4.1-2.8l-133.4-194.3h-8.9c-0.9,0.4-1.5,1.4-1.6,2.8
		c-0.1,1.4,0.4,2.7,1.2,3.3"/>
	<polyline class="st11" points="-374.3,213.7 -366,213.7 -233.1,407.1 	"/>
	<polygon class="st8" points="-236.3,407.1 -209.8,416.7 -209.6,445.5 -236.3,435.7 	"/>
	<polygon class="st3" points="-209.8,416.7 -209.6,445.5 -174.2,412.9 -174.5,384.4 	"/>
	<polygon class="st12" points="-236.3,407.4 -218.9,391.8 -209.8,416.7 	"/>
	<polygon class="st7" points="-218.9,391.8 -192,367.4 -174.5,384.4 -209.8,416.7 	"/>
	<line class="st13" x1="-233.1" y1="436.9" x2="-245.6" y2="448.3"/>
	<path class="st13" d="M-303.4,424.8c2.5,3,5.9,6.5,10.4,9.2c10.3,6.2,19.7,4.4,24.1,3.1"/>
	<path class="st13" d="M-283.6,437.8c0,0,4.6,21.6,23.4,9.6"/>
	<polygon class="st4" points="-205.8,442 -202.6,439 -195.1,447.2 -198.9,450.7 	"/>
	<polygon class="st3" points="-265.3,453.5 -265.3,462.7 -259.9,469.1 -259.9,459.8 	"/>
	<polygon class="st8" points="-259.9,459.8 -244.1,445.5 -244.1,453.7 -259.9,469.1 	"/>
	<polygon class="st7" points="-244.1,445.5 -249.9,439.9 -265.3,453.5 -259.9,459.8 	"/>
	<path class="st14" d="M-257.1,473.2c0-0.1-1.9-30-1.9-30l8.6,24.4"/>
	<path class="st14" d="M-269.1,461c0-0.1-1.9-30-1.9-30l7.3,20.9"/>
	<line class="st15" x1="-270.3" y1="433" x2="-258.9" y2="444.4"/>
	<line class="st15" x1="-268.6" y1="437.8" x2="-258.7" y2="448"/>
	<line class="st15" x1="-270.4" y1="440.8" x2="-258.4" y2="452.8"/>
	<path class="st16" d="M-316.2,483c0,0,17.7-12.3,17.7-12.6c0-0.3-5.7-17.6-5.7-17.6L-316.2,483z"/>
	<polygon class="st16" points="-297.4,499.1 -310,467.5 -298.5,452.5 -303.7,442.9 -297.9,437.8 -303.7,428.9 -297.8,423.7 	"/>
	<path class="st16" d="M-279.5,483c-0.2,0-18.1-12.4-18.1-12.4l6.2-18.4l-0.5-32.8l6.7,7.8l-6.1-1.3"/>
	<polyline class="st16" points="-296.9,497.3 -285.5,466.6 -279,483.4 -290.9,452.8 -296.2,446 -292.1,434.5 -297.4,430 -292.3,419 
		-303.7,412.5 -304.2,452.8 	"/>
	<polyline class="st16" points="-293.1,419.4 -303.2,419.4 -297.6,430.8 -303.4,435.7 -299,445.4 -303.7,451.8 	"/>
	<polyline class="st16" points="-286.6,465.5 -296.9,453.2 -292,442.9 -291,440.8 -285.1,448 -291,446 -292.6,441.9 -296.9,438.7 
		-292.3,429 -297.8,424.1 	"/>
</g>
<g id="Capa_5" class="st0">
	
		<image style="display:inline;overflow:visible;enable-background:new    ;" width="413" height="403" xlink:href="21437695.jpeg"  transform="matrix(1.0916 0 0 1.4964 786.6587 50.5162)">
	</image>
</g>
<g id="Capa_4" class="st0">
	<rect x="-206.2" y="109.6" class="st17" width="19.1" height="8.9"/>
	<text transform="matrix(1 0 0 1 -206.215 113.177)" class="st42" style="display:inline;fill:#FFFFFF; font-size:5px;">Azud</text>
	<rect x="-264.9" y="110.6" class="st17" width="21.5" height="8.9"/>
	<text transform="matrix(1 0 0 1 -264.9446 114.1729)" class="st42" style="display:inline;fill:#FFFFFF; font-size:5px;">Embalse</text>
	<rect x="-266.4" y="161" class="st17" width="45.9" height="5.5"/>
	<text transform="matrix(1 0 0 1 -266.4013 164.5469)" class="st42" style="display:inline;fill:#FFFFFF; font-size:5px;">Canal de derivación</text>
	<rect x="-455.9" y="188.4" class="st17" width="45.9" height="5.5"/>
	<text transform="matrix(1 0 0 1 -455.8481 192.0106)" class="st42" style="display:inline;fill:#FFFFFF; font-size:5px;">Cámara de carga</text>
	<rect x="-402.2" y="258" class="st17" width="45.9" height="5.5"/>
	<text transform="matrix(1 0 0 1 -402.2177 261.6002)" class="st42" style="display:inline;fill:#FFFFFF; font-size:5px;">Aliviadero</text>
	<rect x="-326.1" y="224.6" class="st17" width="45.9" height="5.5"/>
	<text transform="matrix(1 0 0 1 -326.1532 228.1932)" class="st42" style="display:inline;fill:#FFFFFF; font-size:5px;">Tuberia forzada</text>
	<rect x="-248.2" y="361.9" class="st17" width="45.9" height="5.5"/>
	<text transform="matrix(1 0 0 1 -248.1839 365.4989)" class="st42" style="display:inline;fill:#FFFFFF; font-size:5px;">Casa de maquinas</text>
	<rect x="-284" y="417.8" class="st17" width="45.9" height="5.5"/>
	<text transform="matrix(1 0 0 1 -283.9568 421.3858)" class="st42" style="display:inline;fill:#FFFFFF; font-size:5px;">Canal de salida</text>
	<rect x="-241.6" y="485" class="st17" width="45.9" height="5.5"/>
	<text transform="matrix(1 0 0 1 -241.5738 488.5648)" class="st42" style="display:inline;fill:#FFFFFF; font-size:5px;">Transformadores</text>
	<rect x="-372.1" y="394" class="st17" width="53.7" height="5.5"/>
	<text transform="matrix(1 0 0 1 -372.1388 397.6354)" class="st42" style="display:inline;fill:#FFFFFF; font-size:5px;">Canales de transmición</text>
</g>
<g id="Capa_3" class="st0">
	<line class="st18" x1="-234.1" y1="127.5" x2="-211.4" y2="111.5"/>
	<path class="st19" d="M-190.6,115.1h-19.5c-0.9,0-1.7-0.8-1.7-1.7v-3.6c0-0.9,0.8-1.7,1.7-1.7h19.5c0.9,0,1.7,0.8,1.7,1.7v3.6
		C-188.8,114.3-189.6,115.1-190.6,115.1z"/>
	<line class="st18" x1="-286.6" y1="126.9" x2="-266.6" y2="112.8"/>
	<path class="st19" d="M-245.6,116.1h-19.5c-1,0-1.7-0.8-1.7-1.7v-3.6c0-0.9,0.8-1.7,1.7-1.7h19.5c0.9,0,1.7,0.8,1.7,1.7v3.6
		C-243.9,115.3-244.7,116.1-245.6,116.1z"/>
	<line class="st18" x1="-189.6" y1="380.4" x2="-204.3" y2="363.9"/>
	<path class="st19" d="M-206,367.4h-42.3c-0.9,0-1.7-0.8-1.7-1.7v-3.6c0-1,0.8-1.7,1.7-1.7h42.3c0.9,0,1.7,0.8,1.7,1.7v3.6
		C-204.3,366.6-205.1,367.4-206,367.4z"/>
	<line class="st18" x1="-303.7" y1="412.5" x2="-318.4" y2="396"/>
	<path class="st19" d="M-320.1,399.5h-52.4c-1,0-1.7-0.8-1.7-1.7v-3.6c0-1,0.8-1.7,1.7-1.7h52.4c1,0,1.7,0.8,1.7,1.7v3.6
		C-318.4,398.8-319.2,399.5-320.1,399.5z"/>
	<line class="st18" x1="-242.4" y1="486.7" x2="-257.1" y2="470.2"/>
	<path class="st19" d="M-204.4,490h-37.4c-0.9,0-1.7-0.8-1.7-1.7v-3.6c0-1,0.8-1.7,1.7-1.7h37.4c0.9,0,1.7,0.8,1.7,1.7v3.6
		C-202.7,489.3-203.4,490-204.4,490z"/>
	<line class="st18" x1="-232.6" y1="437.2" x2="-247.3" y2="420.7"/>
	<path class="st19" d="M-249.1,422.9H-284c-1,0-1.7-0.8-1.7-1.7v-3.6c0-1,0.8-1.7,1.7-1.7h34.9c0.9,0,1.7,0.8,1.7,1.7v3.6
		C-247.3,422.2-248.1,422.9-249.1,422.9z"/>
	<line class="st18" x1="-347.7" y1="241" x2="-327.6" y2="226.9"/>
	<path class="st19" d="M-292,230.1h-34.2c-1,0-1.7-0.8-1.7-1.7v-3.6c0-0.9,0.8-1.7,1.7-1.7h34.2c1,0,1.7,0.8,1.7,1.7v3.6
		C-290.3,229.3-291.1,230.1-292,230.1z"/>
	<line class="st18" x1="-281.3" y1="151.5" x2="-267.8" y2="163.2"/>
	<line class="st18" x1="-415.2" y1="190.5" x2="-401.8" y2="202.2"/>
	<path class="st19" d="M-222.2,166.4h-44.2c-1,0-1.7-0.8-1.7-1.7v-3.6c0-0.9,0.8-1.7,1.7-1.7h44.2c0.9,0,1.7,0.8,1.7,1.7v3.6
		C-220.5,165.7-221.3,166.4-222.2,166.4z"/>
	<path class="st19" d="M-416.3,193.5h-39.3c-1,0-1.7-0.8-1.7-1.7v-3.6c0-0.9,0.8-1.7,1.7-1.7h39.3c1,0,1.7,0.8,1.7,1.7v3.6
		C-414.6,192.7-415.4,193.5-416.3,193.5z"/>
	<path class="st19" d="M-380.2,263.5h-21.9c-1,0-1.7-0.8-1.7-1.7v-3.6c0-1,0.8-1.7,1.7-1.7h21.9c1,0,1.7,0.8,1.7,1.7v3.6
		C-378.5,262.7-379.3,263.5-380.2,263.5z"/>
</g>
<g id="XMLID_00000115473370932353471670000009725598059168752547_">
	<g>
		<g id="XMLID_00000094620597109807329450000015215629247106774947_">
			<g>
				<polygon class="st20" points="580.6,330.9 580.6,330.9 579.6,330.9 565.6,338.4 565.6,338.3 579.6,330.9 				"/>
				<polygon class="st21" points="580.6,170.4 580.6,170.5 579.6,170.5 530.5,184.1 530.5,184.1 579.6,170.4 				"/>
				<path class="st22" d="M580.6,28.6v42.1h-1l-5.6,1.2c-1.2,0.3-2.5,0.2-3.7-0.1c-0.4-0.1-0.8-0.3-1.2-0.5l-1.8-0.9
					c-1.2-0.6-2.5-1-3.8-1.2c-0.8-0.1-1.6-0.2-2.4-0.2l-7.4,1c-3,0.4-6,0.4-8.9,0.1l-9-0.9c-1.4-0.1-2.7-0.2-4.1-0.2h-17.1l-1.4-1.6
					c-0.5-0.5-1-0.9-1.6-1.3l-12.2-7.4h0l-8-4.8l1.5-2.5l15.7-17.5l21.3-14.5L554,5.9h12l6.3,12.5L580.6,28.6z"/>
				<path class="st21" d="M423.3,89.5c1.1-0.1,2.3-0.1,3.4,0l19.6,0.6l29.7,0.7c0.6,0,1.2,0,1.8,0l14.8-1.1c0.7-0.1,1.4-0.1,2.1-0.3
					c0.2,0,0.5-0.1,0.7-0.1c0.5-0.1,0.9-0.2,1.4-0.3c0.5-0.1,0.9-0.3,1.4-0.4l12.6-4.2c0.2-0.1,0.5-0.2,0.7-0.2
					c0.2-0.1,0.4-0.2,0.7-0.3l8.6-3.6c0.2-0.1,0.4-0.2,0.5-0.4c0.2-0.3,0.4-0.6,0.4-1v-1.9v0l-7.1-7.8h0h17.1c1.4,0,2.7,0.1,4.1,0.2
					l9,0.9c3,0.3,6,0.2,8.9-0.1l7.4-1c0.8,0,1.6,0.1,2.4,0.2c1.3,0.2,2.6,0.6,3.8,1.2l1.8,0.9c0.4,0.2,0.8,0.3,1.2,0.5
					c1.2,0.3,2.5,0.4,3.8,0.1l5.6-1.2h1v99.8h-1l-49.1,13.6v0h0l-8.8-46.6l-2.9,0.5l-199.4-28.7l0-0.3l22.1-1.9l26-2.9
					c0,0,0.1,0,0.1,0l1-0.2c0.2,0,0.3-0.1,0.4-0.2c0.3-0.3,0.4-0.8,0.2-1.1c0-0.1-0.1-0.1-0.1-0.2c-0.1-0.1-0.1-0.1-0.2-0.2
					l-13.1-8.2l-7.6-4.7h19.6l33.8,1.3c0.5,0,1,0,1.5,0L423.3,89.5z"/>
				<path class="st23" d="M580.6,330.9v342.6H182.1V673h0l96.6-41.5l1-24.1l1-31.8c0,0,2.6-1.7,7.2-4.7c0,0,0,0,0,0
					c32.2-21,161-105.3,161.8-106.1c1-1,18.4-63.6,18.4-63.6l97.6-46.1v-16.7l14-7.4H580.6z"/>
				<path class="st22" d="M574,71.8c-1.2,0.3-2.5,0.2-3.8-0.1C571.5,72.1,572.7,72.1,574,71.8l5.6-1.2h1v0h-1L574,71.8z"/>
				<path class="st22" d="M531.7,68.9h-17.1h0l0,0L531.7,68.9c1.3,0,2.7,0.1,4.1,0.2l9,0.9c3,0.3,6,0.2,8.9-0.1l7.4-1
					c0.8,0,1.6,0.1,2.4,0.2c-0.8-0.1-1.6-0.2-2.4-0.2l-7.4,1c-3,0.4-6,0.4-8.9,0.1l-9-0.9C534.4,69,533,68.9,531.7,68.9z"/>
				<polygon class="st24" points="521.7,137.5 530.5,184.1 550.6,290.8 432.8,360.2 432.8,360.2 405.7,440.2 259.4,525.5 
					259.4,482.5 259.4,482.1 259.4,482.1 289.8,468.9 305.3,431.5 317.8,427.6 317.8,439.2 425,262.8 442.4,196.9 442.4,152.3 
					521.7,138.4 518.7,138 				"/>
				<path class="st25" d="M520.8,80c0.2-0.1,0.4-0.2,0.5-0.4C521.1,79.8,521,80,520.8,80l-8.6,3.7c-0.2,0.1-0.4,0.2-0.7,0.3
					c0.2-0.1,0.4-0.2,0.7-0.3L520.8,80z"/>
				<polygon class="st21" points="514.6,68.9 514.6,68.9 514.6,68.9 				"/>
				<path class="st25" d="M511.5,83.9c-0.2,0.1-0.5,0.2-0.7,0.2l-12.6,4.2c-0.5,0.1-0.9,0.3-1.4,0.4c0.5-0.1,0.9-0.3,1.4-0.4
					l12.6-4.2C511.1,84.1,511.3,84,511.5,83.9z"/>
				<path class="st25" d="M495.5,89.2c0.5-0.1,0.9-0.2,1.4-0.3C496.4,89,496,89.1,495.5,89.2z"/>
				<path class="st25" d="M477.9,90.7l14.8-1.1c0.7,0,1.4-0.1,2.1-0.2c-0.7,0.1-1.4,0.2-2.1,0.3L477.9,90.7c-0.6,0-1.2,0.1-1.8,0
					L446.4,90l29.7,0.7C476.7,90.7,477.3,90.7,477.9,90.7z"/>
				<polygon class="st26" points="249.2,119.2 442.4,151.9 442.4,152.3 442.4,196.9 425,262.8 247.5,207.2 247.5,207.2 247.5,119.2 
					249.2,118.9 				"/>
				<polygon class="st27" points="425,262.8 317.8,439.2 317.8,427.6 262.5,397.2 269,395.4 269,395.4 247.5,212.3 247.5,207.2 				
					"/>
				<path class="st28" d="M369.2,102.7c0.2,0.4,0.1,0.8-0.2,1.1C369.3,103.5,369.4,103,369.2,102.7z"/>
				<path class="st28" d="M369.2,102.7c0-0.1-0.1-0.1-0.1-0.2C369.1,102.5,369.1,102.6,369.2,102.7z"/>
				<path class="st25" d="M426.8,89.4l19.6,0.6L426.8,89.4c-1.2,0-2.3,0-3.4,0.1l-20.2,1.2c-0.5,0-1,0-1.5,0l-33.8-1.3h-19.6v0h19.6
					l33.8,1.3c0.5,0,1,0,1.5,0l20.2-1.2C424.5,89.4,425.6,89.4,426.8,89.4z"/>
				<path class="st24" d="M449.7,464.8c-0.8,0.8-129.6,85.1-161.8,106.1C320.1,549.8,448.8,465.6,449.7,464.8
					c1-1,18.3-63.6,18.3-63.6l97.6-46.1v-16.7h0V355L468,401.1C468,401.1,450.7,463.8,449.7,464.8z"/>
				<path class="st25" d="M403.1,90.7c-0.5,0-1,0-1.5,0l-33.8-1.3h-19.6v0l-18.4-11.5c-0.1,0-0.1-0.1-0.1-0.1v0L312,61.4l46.9-23.7
					l19.3-14.5L399.9,11l23.7,4.5l42.5,23.1l25.3,15.2l8,4.8h0l12.2,7.4c0.6,0.3,1.1,0.8,1.6,1.3l1.4,1.6h0l7.1,7.8v0v1.9
					c0,0.4-0.1,0.7-0.4,1c-0.2,0.2-0.3,0.3-0.5,0.4l-8.6,3.6c-0.2,0.1-0.4,0.2-0.7,0.3c-0.2,0.1-0.5,0.2-0.7,0.2l-12.6,4.2
					c-0.5,0.2-0.9,0.3-1.4,0.4c-0.5,0.1-0.9,0.2-1.4,0.3c-0.2,0.1-0.5,0.1-0.7,0.1c-0.7,0.1-1.4,0.2-2.1,0.2l-14.8,1.1
					c-0.6,0-1.2,0-1.8,0L446.4,90l-19.6-0.6c-1.2,0-2.3,0-3.4,0L403.1,90.7z"/>
				<path class="st28" d="M348.2,89.3L348.2,89.3l-18.4-11.5c-0.1,0-0.1-0.1-0.1-0.1c0,0,0.1,0.1,0.1,0.1L348.2,89.3z"/>
				<polygon class="st28" points="329.7,77.7 312,61.4 329.7,77.7 				"/>
				<polygon class="st29" points="521.7,138.4 442.4,152.3 442.4,151.9 249.2,119.2 249.2,118.9 317.3,109 319.3,109.3 518.7,138 
									"/>
				<polygon class="st29" points="317.8,427.6 305.3,431.5 156,352 156,352 156,352 169.5,346.2 262.5,397.2 				"/>
				<path class="st24" d="M278.7,631.6L182.1,673h0v0L278.7,631.6l1-24.1l1-31.8c0,0,2.6-1.7,7.2-4.7c-4.6,3-7.2,4.7-7.2,4.7
					l-1,31.8L278.7,631.6z"/>
				<polygon class="st30" points="259.4,482.1 259.4,482.5 259.4,525.5 259.4,525.5 259.4,482.4 259.4,482.1 259.4,482.1 				"/>
				<polygon class="st30" points="259.4,468.6 259.4,482.1 259.4,482.1 259.4,468.7 				"/>
				<polygon class="st31" points="259.4,468.6 164.7,408.9 93.2,438.8 94.2,462.9 55.5,476.3 18.8,439.7 156,385.2 289.8,468.9 
					259.4,482.1 259.4,468.6 259.4,468.7 				"/>
				<polygon class="st30" points="259.4,525.5 259.4,525.5 259.4,525.5 				"/>
				<polygon class="st29" points="259.4,468.6 185,509.1 93.2,438.8 164.7,408.9 				"/>
				<polygon class="st30" points="259.4,526 257.1,527.2 259.4,526 259.4,525.5 259.4,525.5 259.4,525.5 259.4,525.5 				"/>
				<path class="st32" d="M257.1,529v7.9c0,0,0,0,0,0L257.1,529l0-1.8l0,0V529z"/>
				<path class="st32" d="M257.1,527.2L257.1,527.2L257.1,527.2z"/>
				<path class="st32" d="M244.3,532.6c5.6-1.1,9.7-2.9,11.6-4.9l0,0l0,0l1.1-0.5v1.8v7.9c-0.4,0.3-9,5.9-21.4,7.6h0
					c-3,0.4-6.1,0.6-9.5,0.4h0c-0.2,0-0.4,0-0.6,0c-1-0.1-2-0.2-2.9-0.3h0c-3.3-0.4-6.7-1.2-10.2-2.5c-0.9-0.3-1.8-0.7-2.6-1
					c-0.9-0.4-1.8-0.8-2.7-1.2c-0.5-0.2-0.9-0.4-1.3-0.7c-1.3-0.7-2.7-1.5-4-2.4v-10.7l0.2-0.1c0.7,1.9,3.3,3.7,7.2,5
					c5,1.7,12.3,2.8,20.3,2.8C234.9,534,240,533.5,244.3,532.6z"/>
				<path class="st33" d="M257.1,525.2c0,0.9-0.4,1.7-1.1,2.5c-1.9,2.1-6.1,3.8-11.6,4.9c-4.3,0.9-9.4,1.4-14.9,1.4
					c-8,0-15.2-1.1-20.3-2.8c-3.9-1.3-6.6-3.1-7.2-5h0c-0.1-0.3-0.2-0.7-0.2-1c0-0.9,0.4-1.8,1.2-2.6c3.5-3.6,14-6.2,26.4-6.2
					c1,0,2,0,3,0c1,0,1.9,0.1,2.9,0.1c0,0,0,0,0,0c0.9,0.1,1.9,0.2,2.8,0.2c0,0,0,0,0,0c2.7,0.3,5.3,0.7,7.6,1.2
					c1.5,0.4,2.9,0.8,4.2,1.2v0c0.8,0.3,1.6,0.6,2.3,0.9c0.2,0.1,0.5,0.2,0.7,0.3c0.4,0.2,0.8,0.5,1.2,0.7c1.3,0.8,2.2,1.8,2.7,2.7
					C257,524.3,257.1,524.8,257.1,525.2z"/>
				<path class="st32" d="M256,527.7l1.1-0.5L256,527.7z"/>
				<path class="st30" d="M199.2,536.9L199.2,536.9L199.2,536.9l0,19.7v0h0l-4.5,2.3v-30.5h0v0l-9.5,4.2l-0.1-23.5l74.4-40.5v13.5
					v0.3v43.1v0h0v0.5l-2.3,1.2l0,0l-1.1,0.5l0,0c0.7-0.8,1.1-1.6,1.1-2.5c0-0.4-0.1-0.8-0.3-1.3c-0.4-1-1.4-1.9-2.7-2.7
					c-0.4-0.2-0.8-0.5-1.2-0.7c-0.2-0.1-0.5-0.2-0.7-0.3c-0.7-0.3-1.5-0.6-2.3-0.9v-37.1v0l-50.8,27V536.9z"/>
				
					<rect x="256" y="527.7" transform="matrix(0.7071 -0.7071 0.7071 0.7071 -298.1505 335.5712)" class="st32" width="0" height="0.1"/>
				<path class="st33" d="M254.1,521.2c-0.4-0.2-0.8-0.5-1.2-0.7C253.4,520.8,253.8,521,254.1,521.2z"/>
				<path class="st23" d="M249.9,562.2c0-0.2,0-0.4-0.2-0.7c0.3,0,0.8,0,1.4,0.2c0,0,0.1,0,0.1,0c0.2,0,0.4,0.1,0.6,0.2
					c0.9,0.3,1.8,0.9,2.4,1.9v0v0c-0.1,0-0.3,0-0.5,0h-4.6c0.5-0.4,0.7-0.9,0.8-1.3C249.9,562.3,249.9,562.2,249.9,562.2z"/>
				<path class="st33" d="M252.2,520.2c-0.7-0.3-1.5-0.6-2.3-0.9v0C250.8,519.5,251.5,519.9,252.2,520.2z"/>
				<path class="st34" d="M235.7,556.8v4.7c-3.3,1-6,0.8-7.6,0.5c1.6,0.3,4.3,0.5,7.6-0.5L235.7,556.8
					C235.7,556.8,235.7,556.8,235.7,556.8L235.7,556.8z"/>
				<path class="st34" d="M226.2,545c3.3,0.2,6.5,0,9.5-0.4l0.1,0.5v11.8c0,0,0,0,0,0v4.7c-3.3,1-6,0.8-7.6,0.5
					c-1.2-0.3-1.9-0.6-1.9-0.6v-4.5V545L226.2,545z"/>
				<path class="st20" d="M1,465.9C1,465.9,1,465.9,1,465.9l19.5-1.5l125.9,117.3v-0.2l3.8-1.7v0l36.8,31.6l7.7-4.5v0v-47.9l0,0v0
					l4.5-2.3v0l23.5-11.9h0c1,0.1,2,0.2,2.9,0.3c0.2,0,0.4,0,0.6,0v0.1v11.8h0H226c-4.7,0.3-8.4,1.1-10.8,2.2
					c-0.3,0.2-0.7,0.3-1,0.5c-0.1,0.1-0.2,0.1-0.3,0.2c-0.3,0.2-0.5,0.4-0.7,0.6c-0.1,0-0.1,0.1-0.2,0.2c-0.3,0.2-0.4,0.5-0.6,0.8h0
					c0,0,0,0,0,0h0c-0.9,0.1-3.1,0.4-4.1,2.2v0.2c-1.2,0.1-2.3,0.6-3.1,1.6c-1.7,2.2-3.7,6.3,1.1,10.9c0,1.7,0.7,3.7,2.5,5.8
					c0.9,1,2.1,1.5,3.4,1.5h0.8l0.1,0c0.9,1.5,2.9,2.1,4.5,1.3l0.1-0.1c1.2,1.8,3.8,2.3,5.6,0.8l1.6-1.3c0.1,0.9,0.3,1.8,0.6,2.6
					c0.2,0.8,1.3,0.9,1.7,0.1l4.2-8.7v0.1h0h0.1l4.5,8.8c0.3,0.5,1.1,0.4,1.2-0.2c0.1-0.8,0.2-1.6,0.3-2.5l4.3,2.4
					c1.1,0.6,2.4,0.3,3.1-0.6c0.1-0.2,0.2-0.3,0.3-0.5l1.3-0.1c0.7,0,1.4-0.2,1.9-0.5l0.1,0.1h2.2c0.7,0,1.4-0.2,2-0.5
					c3.9-2.2,4.6-5.4,4.2-8.3l0.1,0c6.2-5.8,3.2-9.5,0.7-11.4c-1.1-0.8-2.3-1.2-3.6-1.3v0c-0.6-1-1.5-1.6-2.4-1.9
					c-0.2-0.1-0.4-0.1-0.6-0.2c-0.1,0-0.1,0-0.1,0c-0.6-0.1-1.1-0.2-1.3-0.2c-0.5-1.1-2.3-2.1-4.8-2.9c-2.5-0.8-5.8-1.5-9.2-1.8V545
					l-0.1-0.5h0c12.4-1.7,21.1-7.4,21.4-7.6c0,0,0,0,0,0V529v-1.8l2.3-1.2v-0.5v0l146.3-85.3l27.1-80l117.8-69.4h0l-20.2-106.7
					l49.1-13.6h1v160.4h-1l-14,7.4v-0.8v0l-105.3,58.8l-25.1,66.5L271,567v0l-1,41.5l-1,15.4L158.9,673h0l0,0h23.2v0.5H1L1,465.9
					L1,465.9z"/>
				<path class="st34" d="M212.4,561.3c0.1,0,0.2,0,0.3,0L212.4,561.3c0.1-0.3,0.3-0.5,0.6-0.8c0.1-0.1,0.1-0.1,0.2-0.2
					c0.2-0.2,0.4-0.4,0.7-0.6c0.1-0.1,0.2-0.1,0.3-0.2c0.3-0.2,0.6-0.4,1-0.5c2.4-1.1,6.1-2,10.8-2.2h0.1v4.5c0,0,0,0,0,0
					c0,0,0.7,0.4,1.9,0.6c1.6,0.3,4.3,0.5,7.6-0.5v-4.7v0c3.5,0.3,6.7,0.9,9.2,1.8c2.5,0.8,4.3,1.8,4.8,2.9l0,0
					c0.1,0.2,0.2,0.4,0.2,0.7c0,0.1,0,0.2,0,0.2c-0.1,0.5-0.3,0.9-0.8,1.3c-1.2,1.1-3.8,2.1-7.1,2.8c-0.9,0.2-1.8,0.3-2.8,0.5
					c-1.1,0.1-2.3,0.3-3.5,0.3c-0.7,0-1.4,0.1-2.1,0.1c-0.7,0-1.4,0-2.1,0c-0.1,0-0.2,0-0.3,0c-0.6,0-1.2,0-1.8,0
					c-1.1,0-2.2-0.1-3.2-0.1c-0.9-0.1-1.8-0.2-2.6-0.3c-1.4-0.2-2.6-0.4-3.8-0.6c-3.1-0.6-5.4-1.6-6.5-2.6h0c-0.5-0.5-0.8-1-0.8-1.6
					C212.2,561.9,212.3,561.6,212.4,561.3z"/>
				<polygon class="st35" points="222.6,544.7 199.2,556.6 199.2,556.6 				"/>
				<path class="st35" d="M222.6,544.7l-23.5,11.9v-19.7h2.6c1.4,0.9,2.7,1.7,4,2.4c0.5,0.2,0.9,0.5,1.3,0.7
					c0.9,0.4,1.8,0.9,2.7,1.2c0.9,0.4,1.8,0.7,2.6,1C215.9,543.5,219.3,544.3,222.6,544.7z"/>
				<path class="st34" d="M215.2,559.1c-0.3,0.2-0.7,0.3-1,0.5C214.5,559.4,214.9,559.2,215.2,559.1z"/>
				<path class="st34" d="M213.9,559.8c-0.3,0.2-0.5,0.4-0.7,0.6C213.4,560.1,213.7,559.9,213.9,559.8z"/>
				<path class="st20" d="M212.8,561.3c-0.1,0-0.2,0-0.3,0c0,0,0,0,0,0H212.8z"/>
				<path class="st34" d="M213,560.5c-0.2,0.3-0.4,0.5-0.6,0.8h0C212.6,561,212.8,560.8,213,560.5z"/>
				<path class="st23" d="M212.4,561.3c-0.1,0.3-0.2,0.5-0.2,0.8c0,0.5,0.3,1.1,0.8,1.6c-0.5-0.5-0.8-1-0.8-1.6
					C212.2,561.9,212.3,561.6,212.4,561.3L212.4,561.3z"/>
				<path class="st23" d="M208.3,563.5c1-1.8,3.2-2.2,4.1-2.2c-0.1,0.3-0.2,0.5-0.2,0.8c0,0.5,0.3,1.1,0.8,1.6h-4.6
					c-0.1,0-0.1,0-0.2,0V563.5z"/>
				<path class="st33" d="M201.9,526.2c0.7,1.9,3.3,3.7,7.2,5C205.2,529.8,202.6,528.1,201.9,526.2L201.9,526.2L201.9,526.2z"/>
				<polygon class="st33" points="201.9,526.2 201.9,526.2 201.9,526.2 				"/>
				<path class="st35" d="M201.9,526.2L201.9,526.2c-0.1-0.3-0.2-0.7-0.2-1c0-0.9,0.4-1.8,1.3-2.6c-0.8,0.8-1.2,1.7-1.2,2.6
					C201.7,525.5,201.8,525.8,201.9,526.2z"/>
				<path class="st35" d="M201.9,526.2L201.9,526.2l-0.2,0.1h0v10.7h-2.5v-27.8l50.8-27v37.1c-1.3-0.5-2.7-0.8-4.2-1.2
					c-2.3-0.5-4.8-1-7.6-1.2c0,0,0,0,0,0c-0.9-0.1-1.9-0.2-2.8-0.2c0,0,0,0,0,0c-1-0.1-1.9-0.1-2.9-0.1c-1,0-2,0-3,0
					c-12.4,0-22.9,2.6-26.4,6.2c-0.8,0.8-1.3,1.7-1.3,2.6C201.7,525.5,201.8,525.8,201.9,526.2z"/>
				<polygon class="st30" points="199.2,556.6 199.2,556.6 194.7,558.9 194.7,558.9 199.2,556.6 				"/>
				<polygon class="st35" points="199.2,509.1 249.9,482.1 249.9,482.1 199.2,509.1 199.2,536.9 199.2,536.9 				"/>
				<polygon class="st24" points="194.6,528.4 194.6,528.4 185.1,532.6 185.1,532.6 				"/>
				<polygon class="st36" points="186.9,563.1 186.9,611.3 150.2,579.7 150.2,579.7 				"/>
				<polygon class="st24" points="194.6,558.9 194.6,606.8 186.9,611.3 186.9,563.1 150.2,579.7 146.4,581.4 146.4,554.4 
					185.1,532.6 185.1,532.6 185.1,532.6 194.6,528.4 194.6,558.9 				"/>
				<polygon class="st26" points="185,509.1 185.1,532.6 94.2,462.9 93.2,438.8 				"/>
				<polygon class="st31" points="185.1,532.6 146.4,554.4 55.5,476.3 94.2,462.9 				"/>
				<path class="st24" d="M182.1,673L182.1,673L182.1,673L182.1,673h-23.2L269,623.8v0l1-15.4l1-41.5l164.2-104.1v0l25.1-66.5
					l105.3-58.8v0.8v0h0V355L468,401.1c0,0-17.4,62.6-18.4,63.6c-0.8,0.8-129.6,85.1-161.8,106.2c0,0,0,0,0,0
					c-4.6,3-7.2,4.7-7.2,4.7l-1,31.8l-1,24.1L182.1,673z"/>
				<polygon class="st24" points="182.1,673 182.1,673 158.9,673 158.9,673 				"/>
				<polygon class="st26" points="156,352 156,385.2 156,385.2 156,352 156,352 				"/>
				<polygon class="st26" points="156,385.2 156,352 305.3,431.5 289.8,468.9 156,385.2 156,385.2 				"/>
				<path class="st28" d="M156,385.2L18.8,439.7v23.1v0l1.6,1.5L1,465.9c0,0,0,0,0,0v-89.4c7.7-12.3,58.5-94.2,59.4-96.8
					c0.9-2.8,46.1-123.1,48-128.2c0-0.1,0.1-0.2,0.2-0.3l47.4-49.2l31.7-31.5c0.1-0.1,0.1-0.2,0.2-0.2l26.2-51.6
					c0.1-0.2,0.3-0.4,0.5-0.4l21.9-8.8c0.2-0.1,0.5-0.1,0.7,0l36.5,16.8c0.1,0,0.2,0.1,0.2,0.1l38,35.2l0,0l17.6,16.3
					c0,0,0.1,0.1,0.1,0.1l18.4,11.5v0l7.6,4.7l13.1,8.2c0.1,0,0.1,0.1,0.2,0.2s0.1,0.1,0.1,0.2c0.2,0.4,0.1,0.8-0.2,1.1
					c-0.1,0.1-0.3,0.2-0.4,0.2l-1,0.2c0,0-0.1,0-0.1,0l-26,2.9l-22.1,1.9l0,0.3l-2-0.3l-68.1,9.9l-1.7,0.2v0v88v0v5.2l21.6,183
					l-6.6,1.9l-92.9-51.1L156,352v0h0V385.2L156,385.2z"/>
				<polygon class="st26" points="146.4,581.7 20.5,464.4 20.5,464.4 18.8,462.8 18.8,439.7 55.5,476.3 146.4,554.4 146.4,581.4 
									"/>
				<polygon class="st26" points="18.8,462.8 20.5,464.4 18.8,462.9 				"/>
				<path class="st28" d="M1,376.5v89.4c-0.5,0-1-0.4-1-0.9v-86.6c0-0.2,0-0.3,0.1-0.5C0.3,377.6,0.6,377.2,1,376.5z"/>
			</g>
			<g>
			</g>
		</g>
	</g>
	<g>
		<polyline class="st37" points="231.4,567.5 231.5,578.2 231.5,578.3 231.6,589.6 		"/>
		<path class="st38" d="M229.2,567.5l-2.8,5c-0.9,1.3-1.4,2.7-1.5,4.2c-0.1,2-0.2,4.9,0.1,7.5c0.1,0.9,0.3,1.8,0.6,2.6
			c0.3,0.8,1.3,0.9,1.7,0.1l4.2-8.7l0.1-0.2"/>
		<path class="st38" d="M233.5,567.5l2.8,5.1c0.9,1.4,1.4,3,1.4,4.6c0,2,0,4.8-0.2,7.2c-0.1,0.9-0.2,1.8-0.3,2.5
			c-0.1,0.6-0.9,0.7-1.2,0.2l-4.5-8.8"/>
		<path class="st38" d="M235.7,567.5l7.6,6.6c1,0.9,1.7,2,2.1,3.3c0.7,2.3,1.3,5.8-0.1,8.3c-0.1,0.2-0.2,0.3-0.3,0.5
			c-0.7,1-2.1,1.2-3.1,0.6l-4.3-2.4"/>
		<path class="st38" d="M226,567.5l-6.4,6.3c-1.5,1.4-2.5,3.3-2.6,5.4c-0.1,1.3-0.1,2.8,0.3,4.3c0.1,0.4,0.3,0.8,0.5,1.2
			c1.2,1.8,3.8,2.3,5.7,0.8l1.6-1.3"/>
		<path class="st38" d="M223.4,567.1l-6.6,3.8c-2.6,1.5-4.3,4-4.5,7c-0.1,1.4,0,3.1,0.5,4.7c0.1,0.3,0.2,0.6,0.4,0.8
			c0.9,1.5,2.9,2.1,4.5,1.3"/>
		<path class="st38" d="M219.6,566.4l-8.3,2.2c-1.3,0.4-2.4,1.2-3.1,2.2c-0.9,1.3-1.9,3.1-1.9,5.3c0,1.7,0.7,3.7,2.5,5.8
			c0.9,1,2.1,1.5,3.4,1.5h0.8"/>
		<path class="st38" d="M213.2,563.7h-0.1h-4.6c-0.1,0-0.1,0-0.2,0c-1.2,0-2.3,0.6-3.1,1.6c-1.7,2.2-3.7,6.3,1.1,10.9"/>
		<path class="st38" d="M239.2,567.1l7.8,4c1.5,0.8,2.7,2.1,3.4,3.7c1,2.6,1.9,6.5-0.6,9.3c-0.3,0.4-0.8,0.7-1.2,0.9
			c-0.6,0.3-1.3,0.5-1.9,0.5l-1.3,0.1"/>
		<path class="st38" d="M242,566.6l10.4,2.8c1.4,0.4,2.5,1.4,3.2,2.6c0.6,1.2,1.2,2.7,1.5,4.4c0.4,2.9-0.3,6.1-4.2,8.3
			c-0.6,0.3-1.3,0.5-2,0.5h-2.2"/>
		<path class="st38" d="M248.5,563.7h0.6h4.6c0.2,0,0.3,0,0.5,0c1.3,0.1,2.6,0.5,3.7,1.3c2.5,1.8,5.4,5.6-0.7,11.4"/>
		<path class="st38" d="M249.6,561.5C249.6,561.5,249.6,561.5,249.6,561.5c0.1,0,0.1,0,0.2,0c0.7,0,3.3,0.2,4.4,2.2"/>
		<path class="st38" d="M212.9,561.3h-0.1c-0.1,0-0.2,0-0.3,0c-0.9,0-3.1,0.4-4.2,2.2"/>
		<polyline class="st38" points="212.1,561.3 212.4,561.3 212.8,561.3 		"/>
	</g>
</g>
<g>
	<line class="st39" x1="189.7" y1="442.4" x2="187.8" y2="441.3"/>
	<g>
		<polyline class="st39" points="191.1,425.7 184.3,419.5 206.8,419.5 197.6,425.4 		"/>
		<polyline class="st39" points="187.5,462.9 201.9,451.2 190.1,442.4 198.8,433.8 192.1,428.6 198.3,428.6 		"/>
		<line class="st39" x1="187.1" y1="462.9" x2="184" y2="458.7"/>
		<line class="st39" x1="182.1" y1="468.2" x2="192.4" y2="419.5"/>
		<line class="st39" x1="187.2" y1="462.9" x2="204.2" y2="462.6"/>
		<line class="st39" x1="189.7" y1="442.4" x2="200.5" y2="442.4"/>
		<line class="st39" x1="190.8" y1="434.2" x2="199.3" y2="434.2"/>
		<polyline class="st39" points="185.7,474.3 192.6,419.5 196.8,419.5 205.6,472.7 		"/>
	</g>
</g>
<g>
	<line class="st39" x1="151.2" y1="414.9" x2="149.3" y2="413.8"/>
	<g>
		<polyline class="st39" points="152.5,398.2 145.7,392 168.3,392 159.1,397.9 		"/>
		<polyline class="st39" points="148.9,435.4 163.3,423.7 151.6,414.9 160.3,406.4 153.5,401.2 159.7,401.2 		"/>
		<line class="st39" x1="148.6" y1="435.4" x2="145.5" y2="431.2"/>
		<line class="st39" x1="143.6" y1="440.7" x2="153.8" y2="392"/>
		<line class="st39" x1="148.6" y1="435.4" x2="165.6" y2="435.1"/>
		<line class="st39" x1="151.2" y1="414.9" x2="162" y2="414.9"/>
		<line class="st39" x1="152.2" y1="406.7" x2="160.7" y2="406.7"/>
		<polyline class="st39" points="147.1,446.8 154.1,392 158.2,392 167,445.2 		"/>
	</g>
</g>
<line class="st39" x1="145.5" y1="405.1" x2="109.2" y2="326.4"/>
<line class="st40" x1="476.3" y1="368.8" x2="497.9" y2="441.4"/>
<line class="st40" x1="260.9" y1="531" x2="404.9" y2="545.1"/>
<line class="st40" x1="263.7" y1="567.5" x2="345.8" y2="629.2"/>
<path class="st41" d="M149,325.9l-78.4,0.8c-2.6,0-4.7-2.1-4.8-4.7l-0.1-11.8c0-2.6,2.1-4.7,4.7-4.8l78.4-0.8c2.6,0,4.7,2.1,4.8,4.7
	l0.1,11.8C153.7,323.7,151.6,325.8,149,325.9z"/>
<text transform="matrix(1.002 -1.020049e-02 1.022100e-02 0.9999 72.934 319.6279)" class="st23 st42 st43">Transformador</text>
<path class="st41" d="M469.7,555.3l-60,0.6c-2.6,0-4.7-2.1-4.8-4.7l-0.1-11.8c0-2.6,2.1-4.7,4.7-4.8l60-0.6c2.6,0,4.7,2.1,4.8,4.7
	l0.1,11.8C474.4,553.1,472.3,555.2,469.7,555.3z"/>
<text transform="matrix(1.002 -1.020049e-02 1.022100e-02 0.9999 412.0465 548.8409)" class="st23 st42 st43">Generador</text>
<path class="st41" d="M404.6,640l-54.3,0.5c-2.6,0-4.7-2.1-4.8-4.7l-0.1-11.8c0-2.6,2.1-4.7,4.7-4.8l54.3-0.5c2.6,0,4.7,2.1,4.8,4.7
	l0.1,11.8C409.3,637.8,407.2,639.9,404.6,640z"/>
<text transform="matrix(1.002 -1.020049e-02 1.022100e-02 0.9999 357.4586 633.486)" class="st23 st42 st43">Turbina</text>
<path class="st41" d="M557.1,453l-54.3,0.5c-2.6,0-4.7-2.1-4.8-4.7l-0.1-11.8c0-2.6,2.1-4.7,4.7-4.8l54.3-0.5c2.6,0,4.7,2.1,4.8,4.7
	l0.1,11.8C561.8,450.8,559.7,453,557.1,453z"/>
<text transform="matrix(1.002 -1.020049e-02 1.022100e-02 0.9999 508.0525 446.5165)" class="st23 st42 st43">Desagüe</text>
<line class="st40" x1="427.8" y1="135" x2="499.6" y2="106.6"/>
<path class="st41" d="M559.1,116.8l-54.3,0.5c-2.6,0-4.7-2.1-4.8-4.7l-0.1-11.8c0-2.6,2.1-4.7,4.7-4.8l54.3-0.5
	c2.6,0,4.7,2.1,4.8,4.7l0.1,11.8C563.8,114.6,561.7,116.8,559.1,116.8z"/>
<text transform="matrix(1.002 -1.020049e-02 1.022100e-02 0.9999 510.0394 110.3386)" class="st23 st42 st43">Embalse</text>
<rect x="146.4" y="454.7" class="st44" width="7.3" height="8.8"/>
<g>
	<ellipse class="st35" cx="150.1" cy="454.7" rx="4.6" ry="1.7"/>
	<path class="st45" d="M150.1,453.2c2.7,0,4.3,0.9,4.3,1.4s-1.7,1.4-4.3,1.4c-2.7,0-4.3-0.9-4.3-1.4S147.5,453.2,150.1,453.2
		 M150.1,452.7c-2.7,0-4.8,0.9-4.8,1.9s2.2,1.9,4.8,1.9c2.7,0,4.8-0.9,4.8-1.9C154.9,453.6,152.8,452.7,150.1,452.7L150.1,452.7z"/>
</g>
<path class="st46" d="M146,456.3"/>
<path class="st46" d="M153.7,457.2"/>
<path class="st46" d="M154.4,458.7c0,0.8-1.9,1.5-4.3,1.5s-4.3-0.7-4.3-1.5"/>
<path class="st46" d="M154.4,460.6c0,0.8-1.9,1.5-4.3,1.5s-4.3-0.7-4.3-1.5"/>
<path class="st46" d="M154.4,463.5c0,0.8-1.9,1.5-4.3,1.5s-4.3-0.7-4.3-1.5"/>
<path class="st47" d="M145.7,392c0,0-6.9,46.8,0.2,61.7"/>
<path class="st47" d="M168.3,392c0,0-3.8,55.5-13.3,62.7"/>
<path class="st47" d="M206.8,419.5c0,0-28.4,36-53.2,37.8"/>
<path class="st47" d="M184.3,419.5c0,0-23.3,43.7-38.8,37.3c-0.8-0.3,1.9,1.5,4.3,1.5c2.4,0,4.3-0.7,4.3-1.5"/>
<path class="st47" d="M94.2,384"/>
</svg>
