<?xml version="1.0" encoding="UTF-8"?>
<svg id="Layer_1" data-name="Layer 1" xmlns="http://www.w3.org/2000/svg" viewBox="0 0 516.93 719.25">
  <defs>
    <style>
      .cls-1 {
        fill: none;
        stroke: #4f6384;
        stroke-miterlimit: 10;
        stroke-width: 2px;
      }

      .cls-2 {
        letter-spacing: -.19em;
      }

      .cls-2, .cls-3, .cls-4, .cls-5, .cls-6, .cls-7 {
        isolation: isolate;
      }

      .cls-2, .cls-3, .cls-5, .cls-6, .cls-7 {
        fill: #231f20;
      }

      .cls-2, .cls-6 {
        font-family: Helvetica, Helvetica;
        font-size: 11px;
      }

      .cls-3 {
        font-family: HelveticaNeueLTStd-BdCn, 'Helvetica Neue LT Std';
        font-size: 32px;
      }

      .cls-5 {
        letter-spacing: -.02em;
      }

      .cls-5, .cls-7 {
        font-family: HelveticaNeueLTStd-Bd, 'Helvetica Neue LT Std';
        font-size: 12px;
      }

      .cls-8 {
        fill: #685234;
      }
    </style>
  </defs>
  <line class="cls-1" x1="259.17" y1="3.91" x2="259.17" y2="717.61"/>
  <polyline class="cls-1" points="266.9 707.58 259.27 717.61 251.45 707.58"/>
  <g class="cls-4">
    <text class="cls-3" transform="translate(382.18 55.64)"><tspan x="0" y="0">2007</tspan></text>
  </g>
  <g>
    <g>
      <g>
        <g class="cls-4">
          <text class="cls-6" transform="translate(334.27 102.83)"><tspan x="0" y="0">Estudio del Impacto</tspan></text>
        </g>
        <g class="cls-4">
          <text class="cls-6" transform="translate(433.33 102.83)"><tspan x="0" y="0">Ambiental del</tspan></text>
        </g>
        <g class="cls-4">
          <text class="cls-6" transform="translate(333.06 116.03)"><tspan x="0" y="0">Proyecto Hidroeléctrica</tspan></text>
        </g>
        <g class="cls-4">
          <text class="cls-6" transform="translate(449.23 116.03)"><tspan x="0" y="0">Alto Maipo.</tspan></text>
        </g>
      </g>
      <g class="cls-4">
        <text class="cls-7" transform="translate(401.88 88.88)"><tspan x="0" y="0">Junio</tspan></text>
      </g>
    </g>
    <g>
      <g>
        <g class="cls-4">
          <text class="cls-6" transform="translate(338.28 162.48)"><tspan x="0" y="0">Suspención de la evaluación del</tspan></text>
        </g>
        <g class="cls-4">
          <text class="cls-6" transform="translate(331.57 175.68)"><tspan x="0" y="0">Proyecto Hidroeléctrica</tspan></text>
        </g>
        <g class="cls-4">
          <text class="cls-6" transform="translate(447.74 175.68)"><tspan x="0" y="0">Alto Maipo.</tspan></text>
        </g>
      </g>
      <g>
        <g class="cls-4">
          <text class="cls-7" transform="translate(395.51 146.41)"><tspan x="0" y="0">Octub</tspan></text>
        </g>
        <g class="cls-4">
          <text class="cls-5" transform="translate(430.41 146.41)"><tspan x="0" y="0">r</tspan></text>
        </g>
        <g class="cls-4">
          <text class="cls-7" transform="translate(434.86 146.41)"><tspan x="0" y="0">e</tspan></text>
        </g>
      </g>
    </g>
  </g>
  <line class="cls-1" x1="264.39" y1="59.1" x2="511.57" y2="59.1"/>
  <circle class="cls-8" cx="257.97" cy="59.1" r="9.85"/>
  <circle class="cls-8" cx="511.55" cy="59.09" r="3.91" transform="translate(185.46 457.64) rotate(-57.3)"/>
  <g class="cls-4">
    <text class="cls-3" transform="translate(382.18 234.25)"><tspan x="0" y="0">2009</tspan></text>
  </g>
  <g>
    <g>
      <g>
        <g class="cls-4">
          <text class="cls-6" transform="translate(336.47 284.05)"><tspan x="0" y="0">Se aprueba el estudio de impacto</tspan></text>
        </g>
        <g class="cls-4">
          <text class="cls-6" transform="translate(394.57 297.25)"><tspan x="0" y="0">ambiental.</tspan></text>
        </g>
      </g>
      <g class="cls-4">
        <text class="cls-7" transform="translate(399 267.87)"><tspan x="0" y="0">Marzo</tspan></text>
      </g>
    </g>
    <g>
      <g>
        <g class="cls-4">
          <text class="cls-6" transform="translate(326.39 342.75)"><tspan x="0" y="0">Comisión de recursos naturales de la</tspan></text>
        </g>
        <g class="cls-4">
          <text class="cls-6" transform="translate(326.07 355.95)"><tspan x="0" y="0">cámara de diputados concluye que el</tspan></text>
        </g>
        <g class="cls-4">
          <text class="cls-2" transform="translate(337.79 369.15)"><tspan x="0" y="0">P</tspan></text>
        </g>
        <g class="cls-4">
          <text class="cls-6" transform="translate(343.71 369.15)"><tspan x="0" y="0">.H.A.M. no debió ser aprobado,</tspan></text>
        </g>
        <g class="cls-4">
          <text class="cls-6" transform="translate(340.13 382.35)"><tspan x="0" y="0">debido a que iba a afectar en la</tspan></text>
        </g>
        <g class="cls-4">
          <text class="cls-6" transform="translate(329.74 395.55)"><tspan x="0" y="0">calidad, seguridad y abastecimiento</tspan></text>
        </g>
        <g class="cls-4">
          <text class="cls-6" transform="translate(346.24 408.75)"><tspan x="0" y="0">de agua potable en santiago.</tspan></text>
        </g>
      </g>
      <g>
        <g class="cls-4">
          <text class="cls-7" transform="translate(391.65 326.64)"><tspan x="0" y="0">Diciemb</tspan></text>
        </g>
        <g class="cls-4">
          <text class="cls-5" transform="translate(438.71 326.64)"><tspan x="0" y="0">r</tspan></text>
        </g>
        <g class="cls-4">
          <text class="cls-7" transform="translate(443.17 326.64)"><tspan x="0" y="0">e</tspan></text>
        </g>
      </g>
    </g>
  </g>
  <line class="cls-1" x1="264.39" y1="237.77" x2="511.57" y2="237.77"/>
  <circle class="cls-8" cx="511.61" cy="237.81" r="3.91"/>
  <g class="cls-4">
    <text class="cls-3" transform="translate(386.11 472.14)"><tspan x="0" y="0">2012</tspan></text>
  </g>
  <g>
    <g>
      <g>
        <g class="cls-4">
          <text class="cls-6" transform="translate(331.22 520.73)"><tspan x="0" y="0">AES Gener inicia la construcción de</tspan></text>
        </g>
        <g class="cls-4">
          <text class="cls-6" transform="translate(326.63 533.93)"><tspan x="0" y="0">las obras de deforestación del PHAM.</tspan></text>
        </g>
      </g>
      <g>
        <g class="cls-4">
          <text class="cls-7" transform="translate(396.08 504.83)"><tspan x="0" y="0">Feb</tspan></text>
        </g>
        <g class="cls-4">
          <text class="cls-5" transform="translate(417.42 504.83)"><tspan x="0" y="0">r</tspan></text>
        </g>
        <g class="cls-4">
          <text class="cls-7" transform="translate(421.87 504.83)"><tspan x="0" y="0">e</tspan></text>
        </g>
        <g class="cls-4">
          <text class="cls-5" transform="translate(428.76 504.83)"><tspan x="0" y="0">r</tspan></text>
        </g>
        <g class="cls-4">
          <text class="cls-7" transform="translate(433.21 504.83)"><tspan x="0" y="0">o</tspan></text>
        </g>
      </g>
    </g>
    <g>
      <g>
        <g class="cls-4">
          <text class="cls-6" transform="translate(340.09 578.6)"><tspan x="0" y="0">AES Gener culmina contratos de</tspan></text>
        </g>
        <g class="cls-4">
          <text class="cls-6" transform="translate(329.39 591.8)"><tspan x="0" y="0">obras de construcción para el PHAM.</tspan></text>
        </g>
      </g>
      <g class="cls-4">
        <text class="cls-7" transform="translate(399.35 562.8)"><tspan x="0" y="0">Agosto</tspan></text>
      </g>
    </g>
    <g>
      <g>
        <g class="cls-4">
          <text class="cls-7" transform="translate(386.11 620.27)"><tspan x="0" y="0">Noviemb</tspan></text>
        </g>
        <g class="cls-4">
          <text class="cls-5" transform="translate(436.76 620.27)"><tspan x="0" y="0">r</tspan></text>
        </g>
        <g class="cls-4">
          <text class="cls-7" transform="translate(441.21 620.27)"><tspan x="0" y="0">e</tspan></text>
        </g>
      </g>
      <g>
        <g class="cls-4">
          <text class="cls-6" transform="translate(326.46 636.42)"><tspan x="0" y="0">El grupo constructor Strabag</tspan></text>
        </g>
        <g class="cls-4">
          <text class="cls-6" transform="translate(468.93 636.42)"><tspan x="0" y="0">Adjudicó</tspan></text>
        </g>
        <g class="cls-4">
          <text class="cls-6" transform="translate(336.56 649.62)"><tspan x="0" y="0">un primer contrato parcial para la</tspan></text>
        </g>
        <g class="cls-4">
          <text class="cls-6" transform="translate(354.9 662.82)"><tspan x="0" y="0">construcción de la central</tspan></text>
        </g>
        <g class="cls-4">
          <text class="cls-6" transform="translate(383.03 676.02)"><tspan x="0" y="0">hidroeléctrica.</tspan></text>
        </g>
      </g>
    </g>
  </g>
  <line class="cls-1" x1="266.33" y1="475.68" x2="513.51" y2="475.68"/>
  <circle class="cls-8" cx="513.02" cy="475.73" r="3.91" transform="translate(-146.49 709.3) rotate(-62.34)"/>
  <g class="cls-4">
    <text class="cls-3" transform="translate(59.99 123.03)"><tspan x="0" y="0">2008</tspan></text>
  </g>
  <g>
    <g>
      <g class="cls-4">
        <text class="cls-6" transform="translate(7.02 175.1)"><tspan x="0" y="0">Nuevo estudio del impacto ambiental</tspan></text>
      </g>
      <g class="cls-4">
        <text class="cls-6" transform="translate(65.72 188.3)"><tspan x="0" y="0">del proyecto.</tspan></text>
      </g>
    </g>
    <g class="cls-4">
      <text class="cls-7" transform="translate(80.56 156.55)"><tspan x="0" y="0">Mayo</tspan></text>
    </g>
  </g>
  <g>
    <g class="cls-4">
      <text class="cls-7" transform="translate(79.12 218.47)"><tspan x="0" y="0">Junio</tspan></text>
    </g>
    <g>
      <g class="cls-4">
        <text class="cls-6" transform="translate(27.5 234.21)"><tspan x="0" y="0">Estudio es presentado a a la</tspan></text>
      </g>
      <g class="cls-4">
        <text class="cls-6" transform="translate(7.32 247.41)"><tspan x="0" y="0">municipalidad de San José de Maipo</tspan></text>
      </g>
      <g class="cls-4">
        <text class="cls-6" transform="translate(3.96 260.61)"><tspan x="0" y="0">para hacer consultas de la disposición</tspan></text>
      </g>
      <g class="cls-4">
        <text class="cls-6" transform="translate(56.85 273.81)"><tspan x="0" y="0">de la ciudadanía.</tspan></text>
      </g>
    </g>
  </g>
  <line class="cls-1" x1="253.96" y1="126.95" x2="6.78" y2="126.95"/>
  <circle class="cls-8" cx="3.91" cy="126.95" r="3.91"/>
  <g class="cls-4">
    <text class="cls-3" transform="translate(59.99 375.03)"><tspan x="0" y="0">2011</tspan></text>
  </g>
  <g>
    <g>
      <g class="cls-4">
        <text class="cls-6" transform="translate(7.23 425.02)"><tspan x="0" y="0">Se suscribe convenio secreto entre</tspan></text>
      </g>
      <g class="cls-4">
        <text class="cls-6" transform="translate(21.9 438.22)"><tspan x="0" y="0">AES Gener y</tspan></text>
      </g>
      <g class="cls-4">
        <text class="cls-6" transform="translate(88.55 438.22)"><tspan x="0" y="0">Aguas andinas,</tspan></text>
      </g>
      <g class="cls-4">
        <text class="cls-6" transform="translate(7.85 451.42)"><tspan x="0" y="0">mediante el cual se compromete el</tspan></text>
      </g>
      <g class="cls-4">
        <text class="cls-6" transform="translate(10.89 464.62)"><tspan x="0" y="0">uso de las aguas para el consumo</tspan></text>
      </g>
      <g class="cls-4">
        <text class="cls-6" transform="translate(7.53 477.82)"><tspan x="0" y="0" xml:space="preserve"> humano en la generación eléctrica.</tspan></text>
      </g>
    </g>
    <g class="cls-4">
      <text class="cls-7" transform="translate(75.05 408.75)"><tspan x="0" y="0">Junio</tspan></text>
    </g>
  </g>
  <line class="cls-1" x1="253.96" y1="378.94" x2="6.78" y2="378.94"/>
  <circle class="cls-8" cx="3.91" cy="378.94" r="3.91"/>
  <circle class="cls-8" cx="259.17" cy="3.91" r="3.91"/>
  <circle class="cls-8" cx="259.17" cy="126.95" r="9.85"/>
  <circle class="cls-8" cx="259.17" cy="237.77" r="9.85"/>
  <circle class="cls-8" cx="259.17" cy="378.94" r="9.85"/>
  <circle class="cls-8" cx="259.74" cy="475.68" r="9.85"/>
</svg>