<?xml version="1.0" encoding="utf-8"?>
<!-- Generator: Adobe Illustrator 22.0.1, SVG Export Plug-In . SVG Version: 6.00 Build 0)  -->
<svg version="1.1" id="Capa_1" xmlns="http://www.w3.org/2000/svg" xmlns:xlink="http://www.w3.org/1999/xlink" x="0px" y="0px"
	 viewBox="0 0 243.7 331.3" style="enable-background:new 0 0 243.7 331.3;" xml:space="preserve">
<style type="text/css">
	.st0{fill:#FBFBFC;}
	.st1{fill:#EFEFEF;}
	.st2{fill:none;stroke:#D0CECD;stroke-width:0.5;stroke-miterlimit:10;}
	.st3{opacity:0.6;enable-background:new    ;}
	.st4{fill:#FFFFFF;}
	.st5{font-family:'Helvetica';}
	.st6{font-size:4.6116px;}
	.st7{fill:#506084;}
	.st8{font-size:5.696px;}
	.st9{fill:#685234;}
	.st10{fill:none;stroke:#000000;stroke-width:0.5;stroke-miterlimit:10;}
</style>
<g>
	<polygon class="st0" points="148.8,110.7 150,110.7 150,108.3 151.6,108.3 152.3,108.8 153,108.7 153,107.4 152,106.5 152,105.9 
		154,104.8 154,103.7 153.6,103.7 153.7,101.1 156.2,99.6 156.2,97 159.6,97 159.6,91.9 161,91.6 161.5,90.3 164.6,90.3 164.6,91 
		167.3,91 167.3,92.1 167.9,92.1 167.9,93.7 169,93.7 169.5,92.2 170.3,92.3 170.8,94.4 172,94.5 172.5,95.1 173.8,94.8 176.2,92.8 
		175.9,94.2 176.7,99.4 177.8,99.4 178.6,96.7 179.5,96.6 181.8,101.4 179.2,104 179.2,111.9 180,113.6 178.9,115.5 180.3,117 
		179.5,118.6 176.8,118.6 175.7,118.6 175.7,117.3 174.2,117.3 174.2,115 173.4,114.1 172.3,114.1 172.3,114.8 171,114.8 171,112.8 
		170.4,111.9 170.4,110.5 169.6,109.9 168.3,109.9 168.3,110.7 166.4,110.9 166.1,111.9 162.8,111.9 162.8,113.7 160.9,114.9 
		160.9,116.6 156.5,116.6 154.9,114.5 152.7,114.5 151.7,113.3 148.3,113.3 146.9,111.9 147.9,111.9 	"/>
	<polygon class="st0" points="146.9,130.9 145,130.9 143.6,130.9 143.6,129.4 143,129.4 143,128.3 142,127.8 142,121 143.4,121 
		143.4,118.1 142.3,117.2 142.3,116.3 145,111.5 146.2,111.5 146.2,111.9 146.9,111.9 148.3,113.3 151.7,113.3 152.7,114.5 
		154.9,114.5 156.5,116.6 160.9,116.6 160.9,114.9 162.8,113.7 162.8,111.9 166.1,111.9 166.4,110.9 168.3,110.7 168.3,109.9 
		169.6,109.9 170.4,110.5 170.4,111.9 171,112.8 171,114.8 172.3,114.8 172.3,114.1 173.4,114.1 174.2,115 174.2,117.3 175.7,117.3 
		175.7,118.6 176.8,118.6 176.8,122.1 173.9,124.7 172.7,127.5 171.1,128.8 171.8,129.5 171.7,131.7 170.7,134.2 168.4,134 
		167.8,133 167,133 166.7,134 166.1,134 164.1,132 160.7,132 159.6,130.7 158.8,130.8 157.8,130.1 156.9,130.1 156.4,131 
		155.3,130.7 153.8,130.8 153.8,132.9 152,132.6 151.7,131.7 149,131.7 148.6,132.9 147.4,132.9 	"/>
	<path class="st0" d="M129.7,162.2v-6.7h3.1v0.6h2v1.7h0.8h0.9v2h2v-0.7h2.5v-0.9l0.4-1.2h1l1.5,2.9h2.5l3.5,2.7h2l1.3,2.2h1.4
		l0.4-1.1h1.2v-1.2h0.9v-0.8h1.6v2.1h1v0.9h-0.8l0.3,3.2c0,0-1.5,2-1.5,2.3s-0.7,2.3-0.7,2.3l0.6,4v0.8l-3-0.2l-0.6-0.6l-1.1,0.1
		l-1-0.5l-0.7-1.1l-0.9-0.1v1.7l-0.5,1.3h-2.1v-0.8h-2.3l-0.5,1.6h-2.3v-0.6h-1.4v0.6h-3.1v-1.1l1.3-1.8V175l-2.7-2.5l-2.4,0.3h-1.9
		V172l1.1-1l-0.4-2.9l-3.5-3.3v-2.1l-0.2-0.2L129.7,162.2z"/>
	<path class="st0" d="M154.2,16.6c0-0.2-3.2-3.1-3.2-3.1v-0.7h1.8l1.1-1h0.5l0.4,1h1.9v2l1.8,0.5l0.3,1h1.1l0.8-4.1l1-0.8h2.1
		l1.5-1.8l3.3,0.2l0.3,2.1l0.6,1.9l0.2,2.5l0.8,0.5h2.8l1.2,2.4h3.8c0.1,0.4,0.3,1.3,0.3,1.3l1.1,1.8l0.1,2l0.7,2.8l-1.1,1.8
		l-0.1,2.9l1.8,0.1l0.5,1.8l-2,4.4l-1.7,0.3l-2.6-1.1l0.1,2.2l-1.1,1.5l-0.4,3.2l-1.3,2.4c0,0,0.1,3.6,0.1,3.9c0,0.3-1,2.5-1,2.5
		l-0.6,0.9l-0.7-1.4l-1.3,0.3l-0.7,2.3l-0.3,4.2l-0.5,3.4l1.7,2.6v2.8l4.3,1.6v1.6l-1,1.3h-1.9l1.1,1.8v2.4l0.3,0.2l-1.9,0.1
		l-0.7-0.6v-1.9l-2.2-0.1l-1.3-0.8l-0.5-1.9h-2l-0.9,1l-1.3,0.1v-1.1h-1.6l-1.4,2.1l-2.2,0.3l-0.8,1.5h-2.6v-0.5h-2.4v-1.3l0.7-0.5
		l-0.2-4.9l0.1-2.8l-0.8-0.7l-0.2-3.8l-0.8-1.5l-0.3-2.3l-0.4-2.1l-0.2-5.8l-0.7-1.8l0.5-8.8v-3h3.1l0.4-2.4h1.9v-1.6l-0.8-0.8V30
		l2.5-1.1v-1.5l-1.2-3l0.8-2.5l-0.9-0.5l-0.2-1.3l0.9-0.5C154.3,19.5,154.2,16.7,154.2,16.6z"/>
	<polygon class="st0" points="150,229.8 149.8,227.9 148,227.9 147.1,226.6 144.3,226.6 143.4,227.7 137.5,227.7 135.9,227.7 
		135.9,226.6 133.8,226.6 131.6,226.6 131.6,226 129.6,226 129.6,224.8 130.8,224.3 130.4,223.1 128,223.1 126.3,225.5 124,225.5 
		124,221.2 119.5,208.5 118.8,208.5 118.6,206.8 120.8,205.3 121.8,205.3 123,206.8 123.5,206.8 123.5,204.5 122.3,203.8 
		122.3,202.9 126.1,200.2 126.1,198.7 124.7,197.8 124.7,196.2 125.7,195.5 125.7,193.7 127,193.1 127,190.9 125.9,190 125.9,188.6 
		129.1,188.6 129.1,187.9 131.7,187.9 132,188.5 133.1,188.5 133.1,189 135.8,189 135.8,191.4 137.1,193.2 138.1,193.2 138.1,193.8 
		139.5,193.8 141.8,196.4 144.6,196.4 144.9,197.7 146.1,197.7 146.8,196.8 148.5,196.8 148.5,202.5 149.7,202.5 152.6,199.6 
		152.6,198.2 159.9,198.2 159.9,204.9 162.7,207.3 161.8,209.4 160.7,211.6 158.4,211.6 153.1,215.1 153.1,221 153.1,223.1 
		153.1,225.2 151.3,227 152.5,228.2 152.5,229.8 	"/>
	<polygon class="st0" points="152.8,79.4 150.2,76.1 150.2,75.2 152.6,75.2 152.6,75.7 155.2,75.7 156,74.2 158.2,74 159.6,71.9 
		161.2,71.9 161.2,73 162.5,72.9 163.4,71.9 165.5,71.9 166,73.8 167.3,74.6 169.5,74.7 169.5,76.6 170.3,77.3 172.2,77.1 
		172.2,77.1 173.1,77.7 173.1,80.1 175.2,81.2 175.2,82.9 174.6,84.3 174.6,87.2 177.6,90 176.2,92.8 173.8,94.8 172.5,95.1 
		172,94.5 170.8,94.4 170.3,92.3 169.5,92.2 169,93.7 167.9,93.7 167.9,92.1 167.3,92.1 167.3,91 164.6,91 164.6,90.3 161.5,90.3 
		161,91.6 159.6,91.9 159.6,97 156.2,97 156.2,99.6 153.7,101.1 153.6,103.7 154,103.7 154,104.8 152,105.9 152,106.5 153,107.4 
		153,108.7 152.3,108.8 151.6,108.3 150,108.3 149.1,106.9 149.3,106.8 149.3,103.5 147.5,102 147.5,100.7 148.3,100 148.5,98.6 
		146.8,96 146.8,94.2 148.1,94.2 148.1,92.5 149.8,92.5 150.5,90.5 150.5,89.6 150.4,87.7 151.4,87.1 152.3,86 152.3,84.4 
		151.5,84.1 151.5,82.6 152.3,81.8 152.3,80.8 	"/>
	<polygon class="st0" points="150,108.3 150,110.7 148.8,110.7 147.9,111.9 146.9,111.9 146.2,111.9 146.2,111.5 145,111.5 
		145.8,109 149.1,106.9 	"/>
	<polygon class="st0" points="116.3,242.3 117.7,241.1 117.7,239.1 116.6,238.5 116.6,237.6 121.9,234.7 121.9,231.5 124,227.9 
		124,225.5 126.3,225.5 128,223.1 130.4,223.1 130.8,224.3 129.6,224.8 129.6,226 131.6,226 131.6,226.6 133.8,226.6 135.9,226.6 
		135.9,227.7 137.5,227.7 143.4,227.7 144.3,226.6 147.1,226.6 148,227.9 149.8,227.9 150,229.8 149.4,229.8 149.4,233.6 
		150.8,235.1 150.8,236.3 149.2,237.9 149.2,239.6 147.7,239.6 147.7,243.5 148.6,243.7 149.6,244.5 148.8,246.4 146.7,246.4 
		147,249.9 146,251.3 145.9,251.3 143.1,251.3 143.1,251.9 133.7,251.9 129.5,248.8 129.5,246.8 126.6,244.8 121,244.8 121,243.8 
		116.2,243.8 116.2,243.8 	"/>
	<path class="st0" d="M133.3,302.1l-0.1-3.5l-2.1-1.1V294h0.8v-1.1h-0.8v-1.8h0.6l0.1-1h1.5l2.5,1.8l0.5-0.6l-0.6-0.9l2.3-1v-2
		l-0.9-0.9v-0.7l0.7-0.4v-0.5l-0.5-0.2v-0.8l0.5-0.4v-0.8h-1.3v-1.5l0.7-0.4l-0.1-2l-0.6-0.1l-1.2,1.4h-2.6l-1.5-0.8l-0.3-0.9l3.1-4
		l2.9-0.2l2.6-1.3l0.2-6l-1.3,0.1l-0.1,4.1l-1.4,1.5l-2,0.7l-1.3-0.5l-0.9-1.7l-1.9-1.9l-1.8-0.1l-1.8,1.4l-0.4,1.1l0.7,0.5l0.1,1.7
		l-3.2,2.1l-1.9-0.5l-1.3,0.5l-1.3-0.4l-2.2-0.3l-0.2-0.9l3.3-2.3l0.3-1.6l-1.5,1.6h-2.5l-1.7-1.8v-4.1l-1.9-2.7V261H113v-1.7
		l1.5-0.9v-0.7l-0.6-0.3v-1.2l1.2-2.3v-1.8l1.6-1.6v-1.2l-0.7-1.1l0.2-3.9l0,0h4.8v1h5.6l2.9,2v1.9l4.2,3.1h9.4v-0.6h2.8l0,0
		l-0.5,0.7l-0.3,1.8l1.2,2.8l-0.3,1.4l0.8,2.5c0,0-0.1,3.4-0.1,3.6c0,0.3-1,2.6-1,2.6l0.6,1.6l0.1,3.8l1.9,2.6v7.3l-2.4,1.2
		l-1.5-1.4l-1.7,1.1v4.3l2,0.1v2.4l-1.9,3.8v4.9l6.1,5v2.9l-3.1,1.1v2.7l5.2,2.9v1.6l-2.8,1.1v1.2l1.4,1.3v1.9h-2.3l-1.4-0.6
		l-1.2,0.6h-1.3c0,0,0.1-1.4,0-1.4c-0.2,0-1.5-0.3-1.5-0.3l-2.1-1.5V315H139l-2.4,2.5c0,0-1,0-1.1,0s-0.7-0.6-0.7-0.6h-2.3v-2.1h-1
		v1.5H129v-1.2l2.1-1.2l0.3-0.8h-2l-1.1-1.9v-3.4l2.3-1.8v-3.5l0.9-1.7h0.8l0.2,1L133.3,302.1z"/>
	<polygon class="st1" points="139.5,131.7 142,127.8 143,128.3 143,129.4 143.6,129.4 143.6,130.9 145,130.9 146.9,130.9 
		147.4,132.9 148.6,132.9 149,131.7 151.7,131.7 152,132.6 153.8,132.9 153.8,130.8 155.3,130.7 156.4,131 156.9,130.1 157.8,130.1 
		158.8,130.8 159.6,130.7 160.7,132 164.1,132 166.1,134 166.7,134 167,133 167.8,133 168.4,134 170.7,134.2 170.8,137.4 
		168.8,137.7 167.4,138.2 167.6,140.3 169.9,141.2 169.2,142.7 170.8,144.3 169.9,145.8 170.3,148.2 171.3,150.5 169.9,152.1 
		170.3,153.8 170.2,156.2 169,158.5 168.5,158 167.1,158 165.2,160 165.2,163.3 161.3,163.3 161.3,164.7 159.9,164.7 159.9,163.8 
		158.9,163.8 158.9,161.6 157.3,161.6 157.3,162.4 156.3,162.4 156.3,163.7 155.1,163.7 154.7,164.8 153.3,164.8 152,162.6 
		150,162.6 146.5,160 144,160 142.5,157.1 141.5,157.1 141.1,158.3 141.1,159.2 138.5,159.2 138.5,160 136.5,160 136.5,157.9 
		135.6,157.9 134.8,157.9 134.8,156.2 132.8,156.2 132.8,155.5 129.7,155.5 129.7,154.3 133.3,151.1 133.3,148.7 132.3,147.1 
		132.3,145.9 134.8,143.6 134.8,141.9 136,141.1 136,139.2 139.5,136.5 	"/>
	<polygon class="st0" points="135,290.3 131.3,286.2 131.3,285.4 134.6,283.5 135.5,283.5 137.3,289.3 138.1,289.3 135.8,290.3 	"/>
	<polygon class="st0" points="128.1,164.1 129.4,162.5 129.7,162.7 129.7,164.8 133.1,168.1 133.5,171 132.4,172 132.4,172.8 
		134.4,172.8 136.8,172.5 139.5,175 139.5,175.7 138.2,177.6 138.2,178.7 141.3,178.7 141.3,178.1 142.7,178.1 142.7,178.7 
		145,178.7 145.5,177.1 147.9,177.1 147.9,177.9 150,177.9 150.5,176.6 150.5,174.9 151.4,174.9 152.1,176.1 153.1,176.6 
		154.2,176.5 154.8,177.1 157.8,177.3 157.7,179.3 156.6,182.6 157.9,184.9 157.5,187.9 156.6,189.7 157.4,190.4 158,192 
		156.5,193.6 158.2,194.9 159.9,197.7 159.9,198.2 152.6,198.2 152.6,199.6 149.7,202.5 148.5,202.5 148.5,196.8 146.8,196.8 
		146.1,197.7 144.9,197.7 144.6,196.4 141.8,196.4 139.5,193.8 138.1,193.8 138.1,193.2 137.1,193.2 135.8,191.4 135.8,189 
		133.1,189 133.1,188.5 132,188.5 131.7,187.9 129.1,187.9 129.1,188.6 125.9,188.6 125.9,190 127,190.9 127,193.1 125.7,193.7 
		125.7,195.5 124.7,196.2 124.7,197.8 126.1,198.7 126.1,200.2 122.3,202.9 122.3,203.8 123.5,204.5 123.5,206.8 123,206.8 
		121.8,205.3 120.8,205.3 118.6,206.8 118.5,206.4 118.5,202.3 119.9,200.4 119.9,197.2 116.5,191.6 116.5,190.1 115.6,189.6 
		115.6,188 117.4,186.5 117.4,185 115.6,183.7 115.6,182.6 116.1,182.2 116.1,179.9 117.1,179.1 120.1,181 122.8,180.2 124,178.4 
		124,169.5 127.3,169.5 127.3,167.8 126.8,167.1 126.8,166.2 128.1,166.2 	"/>
	<polygon class="st0" points="117.1,278.2 117.4,276.6 120.3,276.6 120.3,277.9 119.5,279 121.8,280.9 121.8,282 121,282.4 
		121,283.4 123,284.3 123,286.1 119.5,286.9 118.6,287.8 118.6,289.8 119.2,290.7 119.2,291.2 117.7,291.2 117,290 116.3,290.7 
		116.3,292.7 121.5,296.6 121.5,298.2 118.6,298.2 118.6,298.8 120.8,301 120.8,303.1 119.4,303.8 118,303.3 117.2,303.3 
		117.2,305.3 118.2,306.4 118.2,308.4 117,308.4 112.3,308.4 112,307.5 109,307.5 108.2,306.1 109.1,304.2 111.3,299.4 111.3,294.8 
		112,294.7 112,291.7 110.5,290.3 110.5,288.3 111.2,288 111.2,284.7 113,282.2 113,278.3 113.6,278.2 	"/>
</g>
<g>
	<path class="st2" d="M172.2,77.1l-0.3-0.2v-2.4l-1.1-1.8h1.9l1-1.3v-1.6l-4.3-1.6v-2.8l-1.7-2.6l0.5-3.4l0.3-4.2l0.7-2.3l1.3-0.3
		l0.7,1.4l0.6-0.9c0,0,1-2.3,1-2.5c0-0.3-0.1-3.9-0.1-3.9l1.3-2.4l0.4-3.2l1.1-1.5l-0.1-2.2l2.6,1.1l1.7-0.3l2-4.4l-0.5-1.8
		l-1.8-0.1l0.1-2.9l1.1-1.8l-0.7-2.8l-0.1-2l-1.1-1.8c0,0-0.2-0.9-0.3-1.3c0-0.1,0-0.1,0-0.2"/>
	<path class="st2" d="M149.7,320.9v-0.6v-1.9l-1.4-1.3v-1.2l2.8-1.1v-1.6l-5.2-2.9v-2.7l3.1-1.1v-2.9l-6.1-5v-4.9l1.9-3.8v-2.4
		l-2-0.1V283l1.7-1.1l1.5,1.4l2.4-1.2v-7.3l-1.9-2.6l-0.1-3.8l-0.6-1.6c0,0,1-2.4,1-2.6c0-0.3,0.1-3.6,0.1-3.6l-0.8-2.5l0.3-1.4
		l-1.2-2.8l0.3-1.8l0.5-0.7l1-1.4l-0.3-3.4l2-0.1l0.9-1.9l-1-0.9l-0.9-0.2v-3.9h1.5v-1.7l1.6-1.6V235l-1.5-1.5v-3.8h0.6h2.5v-1.6
		l-1.2-1.2l1.8-1.8v-2.2v-2V215l5.3-3.6h2.2l1.1-2.1l0.9-2.1l-2.8-2.4v-6.7v-0.4l-1.7-2.8l-1.7-1.3l1.5-1.6l-0.6-1.7l-0.8-0.7
		l0.9-1.8l0.4-3l-1.3-2.3l1.1-3.4l0.1-1.9v-0.8l-0.6-4c0,0,0.7-2,0.7-2.3s1.5-2.3,1.5-2.3l-0.3-3.2h0.8h1.4v-1.4h3.9V160l1.9-2
		l1.4,0.1l0.5,0.5l1.1-2.3l0.1-2.3l-0.4-1.8l1.5-1.6l-1-2.3l-0.5-2.4l0.9-1.5l-1.6-1.6l0.7-1.5l-2.3-0.9l-0.3-2l1.4-0.5l2-0.3
		l-0.1-3.2l1-2.4l0.1-2.3l-0.7-0.7l1.5-1.3l1.3-2.8l2.9-2.6v-3.4h2.6l0.8-1.7l-1.3-1.5l1.1-1.9l-0.8-1.7V104l2.6-2.6l-2.3-4.8
		l-0.9,0.1l-0.9,2.7h-1.1l-0.8-5.2l0.3-1.3l1.3-2.8l-3-2.8v-2.9l0.6-1.4v-1.7l-2.1-1.1v-2.4l-1-0.6"/>
	<path class="st2" d="M132.3,316.6"/>
	<path class="st2" d="M151,12.5v0.2v0.7c0,0,3.2,3,3.2,3.1c0.1,0.1,0.2,2.9,0.2,2.9l-0.9,0.5l0.2,1.3l0.9,0.5l-0.8,2.5l1.2,3v1.5
		l-2.5,1.1V31l0.8,0.8v1.6h-1.9l-0.4,2.4h-3.1v3l-0.5,8.8l0.7,1.8l0.2,5.8l0.4,2.1l0.3,2.3l0.8,1.5l0.2,3.8l0.8,0.7l-0.1,2.8
		l0.2,4.9l-0.7,0.5v1.3V76l2.6,3.3l-0.5,1.4v1l-0.8,0.8V84l0.8,0.3V86l-0.9,1.1l-1,0.6l0.1,1.9v0.9l-0.7,2h-1.7v1.6h-1.3V96l1.6,2.6
		l-0.2,1.4l-0.8,0.7v1.2l1.7,1.5v3.3l-0.2,0.1l-3.3,2.1l-0.8,2.4l-2.8,4.8v0.9l1.1,0.9v2.9H142v6.9l-2.4,3.9v4.8l-3.6,2.7v1.9
		l-1.1,0.8v1.7l-2.5,2.3v1.2l1,1.6v2.3l-3.6,3.2v1.2v6.7l-0.2,0.3l-1.3,1.6v2.1H127v0.9l0.5,0.6v1.7H124v8.9l-1.3,1.7l-2.7,0.8
		l-3-1.9l-1,0.7v2.3l-0.5,0.4v1l1.8,1.3v1.5l-1.8,1.5v1.6l0.9,0.5v1.4l3.4,5.7v3.2l-1.3,1.9v4.1l0.1,0.4l0.2,1.7h0.6l4.6,12.6v4.4
		v2.4l-2.2,3.6v3.2l-5.3,2.9v0.9l1.1,0.6v1.9l-1.4,1.3l-0.1,1.5l-0.2,3.9l0.7,1.1v1.2L115,251v1.8l-1.2,2.3v1.2l0.6,0.3v0.7
		l-1.5,0.9v1.7h0.5v2.4l1.9,2.7v4.1l1.7,1.8h2.5l1.5-1.6l-0.3,1.6l-3.3,2.3l0.2,0.9l2.2,0.3l1.3,0.4l1.3-0.5l1.9,0.5l3.2-2.1
		l-0.1-1.7l-0.7-0.5l0.4-1.1l1.8-1.4l1.8,0.1l1.9,1.9l0.9,1.7l1.3,0.5l2-0.7l1.4-1.5l0.1-4.1l1.3-0.1l-0.2,6L137,274l-2.9,0.2
		l-3.1,4l0.3,0.9l1.5,0.8h2.6l1.2-1.4l0.6,0.1l0.1,2l-0.7,0.4v1.5h1.3v0.8l-0.5,0.4v0.8l0.5,0.2v0.5l-0.7,0.4v0.7l0.9,0.9v2h-0.8
		l-1.8-5.8h-0.8l-3.3,1.9v0.8l3.6,4.1h0.8l0.6,0.9l-0.5,0.6l-2.5-1.8h-1.5l-0.1,1h-0.6v1.8h0.8v1.1h-1v3.5l2.1,1.1l0.1,3.5l-0.9-0.7
		l-0.2-1h-0.8l-0.9,1.7v3.5l-2.3,1.8v3.4l1.1,1.9h2l-0.3,0.8l-2.1,1.2v1.2"/>
	<polyline class="st2" points="150.2,75.2 152.6,75.2 152.6,75.7 155.2,75.7 156,74.2 158.2,74 159.6,71.9 161.2,71.9 161.2,73 
		162.5,72.9 163.4,71.9 165.5,71.9 166,73.8 167.3,74.6 169.5,74.7 169.5,76.6 170.3,77.3 172.2,77.1 172.2,77.1 	"/>
	<polyline class="st2" points="145,111.5 146.2,111.5 146.2,111.9 146.9,111.9 147.9,111.9 148.8,110.7 150,110.7 150,108.3 
		151.6,108.3 152.3,108.8 153,108.7 153,107.4 152,106.5 152,105.9 154,104.8 154,103.7 153.6,103.7 153.7,101.1 156.2,99.6 
		156.2,97 159.6,97 159.6,91.9 161,91.6 161.5,90.3 164.6,90.3 164.6,91 167.3,91 167.3,92.1 167.9,92.1 167.9,93.7 169,93.7 
		169.5,92.2 170.3,92.3 170.8,94.4 172,94.5 172.5,95.1 173.8,94.8 176.2,92.8 	"/>
	<polyline class="st2" points="176.8,118.6 175.7,118.6 175.7,117.3 174.2,117.3 174.2,115 173.4,114.1 172.3,114.1 172.3,114.8 
		171,114.8 171,112.8 170.4,111.9 170.4,110.5 169.6,109.9 168.3,109.9 168.3,110.7 166.4,110.9 166.1,111.9 162.8,111.9 
		162.8,113.7 160.9,114.9 160.9,116.6 156.5,116.6 154.9,114.5 152.7,114.5 151.7,113.3 148.3,113.3 146.9,111.9 	"/>
	<polyline class="st2" points="142,127.8 143,128.3 143,129.4 143.6,129.4 143.6,130.9 145,130.9 146.9,130.9 147.4,132.9 
		148.6,132.9 149,131.7 151.7,131.7 152,132.6 153.8,132.9 153.8,130.8 155.3,130.7 156.4,131 156.9,130.1 157.8,130.1 158.8,130.8 
		159.6,130.7 160.7,132 164.1,132 166.1,134 166.7,134 167,133 167.8,133 168.4,134 170.7,134.2 	"/>
	<polyline class="st2" points="129.7,155.5 132.8,155.5 132.8,156.2 134.8,156.2 134.8,157.9 135.6,157.9 136.5,157.9 136.5,160 
		138.5,160 138.5,159.2 141.1,159.2 141.1,158.3 141.5,157.1 142.5,157.1 144,160 146.5,160 150,162.6 152,162.6 153.3,164.8 
		154.7,164.8 155.1,163.7 156.3,163.7 156.3,162.4 157.3,162.4 157.3,161.6 158.9,161.6 158.9,163.8 159.9,163.8 159.9,164.7 
		159.9,164.8 	"/>
	<polyline class="st2" points="129.7,162.7 129.7,164.8 133.1,168.1 133.5,171 132.4,172 132.4,172.8 134.4,172.8 136.8,172.5 
		139.5,175 139.5,175.7 138.2,177.6 138.2,178.7 141.3,178.7 141.3,178.1 142.7,178.1 142.7,178.7 145,178.7 145.5,177.1 
		147.9,177.1 147.9,177.9 150,177.9 150.5,176.6 150.5,174.9 151.4,174.9 152.1,176.1 153.1,176.6 154.2,176.5 154.8,177.1 
		157.8,177.3 	"/>
	<polyline class="st2" points="118.6,206.8 120.8,205.3 121.8,205.3 123,206.8 123.5,206.8 123.5,204.5 122.3,203.8 122.3,202.9 
		126.1,200.2 126.1,198.7 124.7,197.8 124.7,196.2 125.7,195.5 125.7,193.7 127,193.1 127,190.9 125.9,190 125.9,188.6 129.1,188.6 
		129.1,187.9 131.7,187.9 132,188.5 133.1,188.5 133.1,189 135.8,189 135.8,191.4 137.1,193.2 138.1,193.2 138.1,193.8 139.5,193.8 
		141.8,196.4 144.6,196.4 144.9,197.7 146.1,197.7 146.8,196.8 148.5,196.8 148.5,202.5 149.7,202.5 152.6,199.6 152.6,198.2 
		159.9,198.2 	"/>
	<polyline class="st2" points="124,225.5 126.3,225.5 128,223.1 130.4,223.1 130.8,224.3 129.6,224.8 129.6,226 131.6,226 
		131.6,226.6 133.8,226.6 135.9,226.6 135.9,227.7 137.5,227.7 143.4,227.7 144.3,226.6 147.1,226.6 148,227.9 149.8,227.9 
		150,229.8 	"/>
	<polyline class="st2" points="116.2,243.8 121,243.8 121,244.8 126.6,244.8 129.5,246.8 129.5,248.8 133.7,251.9 143.1,251.9 
		143.1,251.3 145.9,251.3 	"/>
	<polygon class="st2" points="113.6,278.2 117.1,278.2 117.4,276.6 120.3,276.6 120.3,277.9 119.5,279 121.8,280.9 121.8,282 
		121,282.4 121,283.4 123,284.3 123,286.1 119.5,286.9 118.6,287.8 118.6,289.8 119.2,290.7 119.2,291.2 117.7,291.2 117,290 
		116.3,290.7 116.3,292.7 121.5,296.6 121.5,298.2 118.6,298.2 118.6,298.8 120.8,301 120.8,303.1 119.4,303.8 118,303.3 
		117.2,303.3 117.2,305.3 118.2,306.4 118.2,308.4 117,308.4 112.3,308.4 112,307.5 109,307.5 108.2,306.1 109.1,304.2 111.3,299.4 
		111.3,294.8 112,294.7 112,291.7 110.5,290.3 110.5,288.3 111.2,288 111.2,284.7 113,282.2 113,278.3 	"/>
</g>
<path class="st3" d="M135.6,36h-18.9c-1.5,0-2.8,1.3-2.8,2.8v3.3c0,1.5,1.3,2.8,2.8,2.8h18.9c1.5,0,2.8-1.3,2.8-2.8v-3.3
	C138.4,37.3,137.1,36,135.6,36z"/>
<text transform="matrix(1 0 0 1 115.3637 41.9517)" class="st4 st5 st6">Coquimbo</text>
<path class="st3" d="M133.1,77.4h-19c-1.5,0-2.8,1.3-2.8,2.8v3.3c0,1.5,1.3,2.8,2.8,2.8h19c1.5,0,2.8-1.3,2.8-2.8v-3.3
	C135.8,78.7,134.6,77.4,133.1,77.4z"/>
<text transform="matrix(1 0 0 1 112.9977 82.9535)" class="st4 st5 st6">Valparaiso</text>
<path class="st3" d="M220.1,104.5h-27.6c-1.5,0-2.8,1.3-2.8,2.8v7.3c0,1.5,1.3,2.8,2.8,2.8h27.6c1.5,0,2.8-1.3,2.8-2.8v-7.3
	C223,105.7,221.7,104.5,220.1,104.5z"/>
<text transform="matrix(1 0 0 1 192.0924 109.9756)" class="st4 st5 st6">Región </text>
<text transform="matrix(1 0 0 1 192.0924 115.5195)" class="st4 st5 st6">Metropolitana</text>
<path class="st3" d="M126.9,115.6H87.4c-1.5,0-2.8,1.3-2.8,2.8v7.7c0,1.5,1.3,2.8,2.8,2.8h39.4c1.5,0,2.8-1.3,2.8-2.8v-7.7
	C129.7,116.9,128.4,115.6,126.9,115.6z"/>
<text transform="matrix(1 0 0 1 87.6848 121.1048)" class="st4 st5 st6">Libertador General</text>
<text transform="matrix(1 0 0 1 87.6848 126.6488)" class="st4 st5 st6">Bernardo O’higgins</text>
<path class="st3" d="M202.3,147.1h-11.4c-1.5,0-2.8,1.3-2.8,2.8v3.3c0,1.5,1.3,2.8,2.8,2.8h11.4c1.5,0,2.8-1.3,2.8-2.8V150
	C205.1,148.3,203.8,147.1,202.3,147.1z"/>
<text transform="matrix(1 0 0 1 190.4924 153.0247)" class="st4 st5 st6">Maule</text>
<path class="st3" d="M202.3,166.2h-11.4c-1.5,0-2.8,1.3-2.8,2.8v3.3c0,1.5,1.3,2.8,2.8,2.8h11.4c1.5,0,2.8-1.3,2.8-2.8V169
	C205.1,167.5,203.8,166.2,202.3,166.2z"/>
<text transform="matrix(1 0 0 1 190.4924 172.6281)" class="st4 st5 st6">Ñuble</text>
<path class="st3" d="M100.3,180.2H87.6c-1.5,0-2.8,1.3-2.8,2.8v3.3c0,1.5,1.3,2.8,2.8,2.8h12.7c1.5,0,2.8-1.3,2.8-2.8V183
	C103,181.4,101.9,180.2,100.3,180.2z"/>
<text transform="matrix(1 0 0 1 86.2439 186.346)" class="st4 st5 st6">Bío-Bío</text>
<path class="st3" d="M209.9,203.9h-19c-1.5,0-2.8,1.3-2.8,2.8v3.3c0,1.5,1.3,2.8,2.8,2.8h19c1.5,0,2.8-1.3,2.8-2.8v-3.3
	C212.6,205.2,211.5,203.9,209.9,203.9z"/>
<text transform="matrix(1 0 0 1 189.7644 209.5981)" class="st4 st5 st6">Araucanía</text>
<path class="st3" d="M101.1,230.8H85.5c-1.5,0-2.8,1.3-2.8,2.8v3.3c0,1.5,1.3,2.8,2.8,2.8h15.6c1.5,0,2.8-1.3,2.8-2.8v-3.3
	C103.9,232,102.6,230.8,101.1,230.8z"/>
<text transform="matrix(1 0 0 1 84.1116 236.8862)" class="st4 st5 st6">Los Ríos</text>
<path class="st3" d="M211.1,272.1h-20.2c-1.5,0-2.8,1.3-2.8,2.8v3.3c0,1.5,1.3,2.8,2.8,2.8h20.2c1.5,0,2.8-1.3,2.8-2.8V275
	C213.9,273.3,212.6,272.1,211.1,272.1z"/>
<text transform="matrix(1 0 0 1 190.3118 277.6406)" class="st4 st5 st6">Los Lagos</text>
<g>
	<circle class="st7" cx="136.8" cy="268.9" r="1.1"/>
	<g>
		<circle class="st7" cx="164" cy="80.4" r="1.1"/>
		<circle class="st7" cx="170" cy="82.2" r="1.1"/>
		<circle class="st7" cx="160.6" cy="80.2" r="1.1"/>
		<circle class="st7" cx="171.1" cy="85.2" r="1.1"/>
		<circle class="st7" cx="166.9" cy="80.8" r="1.1"/>
		<circle class="st7" cx="162.6" cy="122.3" r="1.1"/>
		<circle class="st7" cx="165.7" cy="120" r="1.1"/>
		<circle class="st7" cx="170" cy="126.7" r="1.1"/>
		<circle class="st7" cx="148.1" cy="168.7" r="1.1"/>
		<circle class="st7" cx="169.3" cy="120.7" r="1.1"/>
		<circle class="st7" cx="168.1" cy="117.3" r="1.1"/>
		<circle class="st7" cx="168.1" cy="131.4" r="1.1"/>
		<circle class="st7" cx="167.5" cy="128.2" r="1.1"/>
		<circle class="st7" cx="165.2" cy="126.7" r="1.1"/>
		<circle class="st7" cx="160.7" cy="129.4" r="1.1"/>
		<circle class="st7" cx="160.6" cy="120" r="1.1"/>
		<circle class="st7" cx="150.2" cy="143.4" r="1.1"/>
		<circle class="st7" cx="159.6" cy="138.1" r="1.1"/>
		<circle class="st7" cx="152.5" cy="144.8" r="1.1"/>
		<circle class="st7" cx="151.8" cy="159" r="1.1"/>
		<circle class="st7" cx="164.4" cy="144.1" r="1.1"/>
		<circle class="st7" cx="160.6" cy="147.4" r="1.1"/>
		<circle class="st7" cx="157.3" cy="143.7" r="1.1"/>
		<circle class="st7" cx="163.3" cy="147.4" r="1.1"/>
		<circle class="st7" cx="159.9" cy="145" r="1.1"/>
		<circle class="st7" cx="159.1" cy="141.6" r="1.1"/>
		<circle class="st7" cx="150" cy="186.7" r="1.1"/>
		<circle class="st7" cx="143.1" cy="190.1" r="1.1"/>
		<circle class="st7" cx="153.3" cy="196.6" r="1.1"/>
		<circle class="st7" cx="149.3" cy="178.7" r="1.1"/>
		<circle class="st7" cx="135.9" cy="181.7" r="1.1"/>
		<circle class="st7" cx="143.7" cy="186.8" r="1.1"/>
		<circle class="st7" cx="147" cy="184.8" r="1.1"/>
		<circle class="st7" cx="147" cy="187.8" r="1.1"/>
		<circle class="st7" cx="152.2" cy="181.7" r="1.1"/>
		<circle class="st7" cx="152.2" cy="188.5" r="1.1"/>
		<circle class="st7" cx="148.8" cy="181.7" r="1.1"/>
		<circle class="st7" cx="129.3" cy="243.3" r="1.1"/>
		<circle class="st7" cx="135" cy="234.1" r="1.1"/>
		<circle class="st7" cx="132.8" cy="242.7" r="1.1"/>
		<circle class="st7" cx="136.8" cy="255" r="1.1"/>
		<circle class="st7" cx="135.7" cy="252.3" r="1.1"/>
		<circle class="st7" cx="126.1" cy="242.2" r="1.1"/>
		<circle class="st7" cx="136.2" cy="241.3" r="1.1"/>
		<circle class="st7" cx="163.8" cy="150" r="1.1"/>
		<circle class="st7" cx="162.2" cy="142.7" r="1.1"/>
		<circle class="st7" cx="161" cy="152.1" r="1.1"/>
		<circle class="st7" cx="154.6" cy="150.5" r="1.1"/>
		<circle class="st7" cx="158" cy="149.4" r="1.1"/>
		<circle class="st7" cx="173.3" cy="100.6" r="1.1"/>
		<circle class="st7" cx="176.1" cy="100.9" r="1.1"/>
		<circle class="st7" cx="174.9" cy="103.2" r="1.1"/>
		<circle class="st7" cx="178.4" cy="101.8" r="1.1"/>
		<circle class="st7" cx="174" cy="105.5" r="1.1"/>
		<circle class="st7" cx="168.1" cy="101.1" r="1.1"/>
		<circle class="st7" cx="172.2" cy="102.9" r="1.1"/>
		<circle class="st7" cx="176.8" cy="107.3" r="1.1"/>
		<circle class="st7" cx="170.4" cy="107.8" r="1.1"/>
		<circle class="st7" cx="142.4" cy="202.9" r="1.1"/>
		<circle class="st7" cx="149.3" cy="212.4" r="1.1"/>
	</g>
</g>
<circle class="st7" cx="24.9" cy="311.1" r="8.6"/>
<text transform="matrix(1 0 0 1 36.8945 312.9176)" class="st5 st8">Hidroeléctrica</text>
<text transform="matrix(1 0 0 1 36.8945 319.7176)" class="st5 st8">de Pasada.</text>
<polygon class="st9" points="150,190.9 148.8,193.2 151.1,193.2 "/>
<text transform="matrix(1 0 0 1 36.895 291.7203)" class="st5 st8">Hidroeléctrica </text>
<text transform="matrix(1 0 0 1 36.895 298.5203)" class="st5 st8">de Embalse</text>
<polygon class="st9" points="152.2,193 151,195.3 153.3,195.3 "/>
<polygon class="st9" points="156.9,145.7 155.7,147.9 158,147.9 "/>
<polygon class="st9" points="149.9,114.8 148.7,117.1 151,117.1 "/>
<polygon class="st9" points="165.7,42.7 164.6,45 166.9,45 "/>
<polygon class="st9" points="24.9,282.1 16.3,299.2 33.5,299.2 "/>
<line class="st10" x1="138.2" y1="40.5" x2="156.4" y2="40.5"/>
<line class="st10" x1="135.9" y1="82.2" x2="154.6" y2="82.2"/>
<line class="st10" x1="176.2" y1="111" x2="189.7" y2="111"/>
<line class="st10" x1="145.8" y1="123.4" x2="129.7" y2="123.4"/>
<line class="st10" x1="167.5" y1="152.1" x2="188.1" y2="152.1"/>
<line class="st10" x1="123" y1="184.8" x2="103.1" y2="184.8"/>
<line class="st10" x1="157.8" y1="208.4" x2="188.1" y2="208.4"/>
<line class="st10" x1="155.7" y1="171.3" x2="188.1" y2="171.3"/>
<line class="st10" x1="124.1" y1="235.3" x2="103.9" y2="235.3"/>
<line class="st10" x1="145.8" y1="276.6" x2="188.1" y2="276.6"/>
</svg>
