<?xml version="1.0" encoding="utf-8"?>
<!-- Generator: Adobe Illustrator 24.0.2, SVG Export Plug-In . SVG Version: 6.00 Build 0)  -->
<svg version="1.1" xmlns="http://www.w3.org/2000/svg" xmlns:xlink="http://www.w3.org/1999/xlink" x="0px" y="0px"
	 viewBox="0 0 581.1 651.97" style="enable-background:new 0 0 581.1 651.97;" xml:space="preserve">
<style type="text/css">
	.st0{fill:#D3D3D3;}
	.st1{fill:#6078A7;}
	.st2{fill:#BEBEBE;}
	.st3{fill:#506384;}
	.st4{fill:#A3A2A2;}
	.st5{fill:#706959;}
	.st6{fill:#A8A9AC;}
	.st7{fill:#94959A;}
	.st8{fill:#3B8A93;}
	.st9{fill:#85868A;}
	.st10{fill:none;stroke:#506384;stroke-width:3;stroke-miterlimit:10;}
	.st11{fill:#8D8F93;}
	.st12{fill:none;stroke:#FFDE14;stroke-miterlimit:10;}
	.st13{fill:none;stroke:#414143;stroke-miterlimit:10;}
	.st14{fill:none;stroke:#020203;stroke-miterlimit:10;}
	.st15{fill:none;stroke:#59595B;stroke-miterlimit:10;}
	.st16{display:none;}
	.st17{display:inline;fill:none;stroke:#000000;stroke-miterlimit:10;}
	.st18{display:inline;opacity:0.81;}
	.st19{display:inline;fill:none;}
	.st20{display:inline;fill:#FFFFFF;}
	.st21{font-family:'Helvetica';}
	.st22{font-size:5px;}
</style>
<g id="Capa_1">
</g>
<g id="Capa_2">
	<polygon class="st0" points="307.7,85.79 245.03,101.13 136.74,236.26 147.29,247.2 236.52,467.15 451.74,344.95 372.58,238.96 
		356.9,204.57 383.61,172.46 343.74,107.67 	"/>
	<polygon class="st1" points="346.26,549.84 346.26,593.04 508.45,459.76 508.45,420.54 	"/>
	<polygon class="st2" points="235.74,467.15 445.74,346.09 442.06,422.82 304,520.43 	"/>
	<path class="st3" d="M336.64,80.67c26.72,25.12,40.34,37.45,46.58,42.63c5.18,4.29,9.91,9.69,15.03,14.11
		c1.82,1.57,3.4,2.89,5.03,5.59c4.76,7.88,4.25,18.08,4.19,18.94c-0.1,1.63-0.35,3.87-1.03,6.54c-4.45,17.4-21.29,29.82-26.84,33.91
		c-0.9,0.66-2.83,2.06-4.58,5.02c-3.61,6.12-3.51,13.99-3.48,14.97c0.11,4.92,1.56,11.13,8.71,20.65
		c7.75,10.32,14.02,13.63,27.1,23.02c3.25,2.34,12.6,9.06,21.87,16.86c14.02,11.78,23.93,22.68,26.77,25.86
		c7.31,8.16,17.22,19.33,28.06,37.23c0,0,13.05,21.53,25.68,58.44c0.61,1.77,0.92,3.28,1.03,3.88c0.75,3.87,0.57,7.13,0.48,8.24
		c-0.16,2.19-0.54,7.32-3.1,10.8c-1.29,1.76-2.64,2.41-2.9,2.56c-3.84,2.08-63.86,49.11-158.71,124.04l-45.79-36.09
		c38.65-24.25,69.78-46.96,87.01-58.12c4.45-2.88,14.54-9.4,25.35-22.73c4.45-5.49,8.93-11.01,13.16-20.03
		c2.34-4.99,14.73-31.39,8.61-59.11c-2.5-11.32-7.11-18.45-12-26c-4.5-6.95-9.08-12.01-23.9-24.87
		c-15.13-13.12-15.51-12.3-25.35-21.03c-15.57-13.8-23.49-20.98-30.29-34.95c-3.71-7.63-8.7-18.18-8.13-32.25
		c0.5-12.17,4.92-21.29,5.71-22.88c3.03-6.09,6.51-9.6,7.45-10.51c2.08-2.03,3.61-2.93,4.94-3.84c7.12-4.89,17.62-16.24,16.35-25.01
		c-0.55-3.8-2.13-6.39-2.13-6.39c-1.45-2.38-3.16-3.31-3.58-3.55c-3.1-1.79-8.08-7.86-22.84-23.44
		c-6.39-6.74-17.06-17.85-35.81-36.94L336.64,80.67z"/>
	<path class="st4" d="M76.33,132.86l2.32,243.63L346.9,592.85V554.2l-110.71-87.15l-88.26-219.38l-11.61-10.99l17.03-44.71
		c0,0-36.9-66.69-37.68-67.06C114.91,124.53,76.33,132.86,76.33,132.86z"/>
	<path class="st5" d="M76.16,132.53V98.01l7.06-10.94h8.52l12.87-9.8h15.68l8.13,10.66c0,0,20.32-8.81,29.13-15.35
		s8.81-9.52,8.81-9.52s2.9-4.26,7.45-3.13c4.55,1.14,9.1,2.42,9.1,2.42l52.55,0.85c0,0,30.77,28.79,39.58,32.94
		c8.81,4.15,8.61,7.13,8.61,7.13l11.03,17.76l9.58,40.49l-63.87,28.84c0,0,0.42-13.35-1.13-15.76s-13.48,16.62-13.48,16.62
		l-31.35,19.47l-57.68,25.58l0.29-7.39l-5.32-16.91l-6.1-5.54l-3.68-20.6l2.03-10.94L111.49,148l-12.29-5.52l-11.42-11.65
		L76.16,132.53z"/>
	<polygon class="st2" points="354.14,128.63 381.68,110.01 381.68,122.02 354.14,142.69 	"/>
	<polygon class="st6" points="381.68,110.01 377.61,107.45 349.93,126.35 354.14,128.91 	"/>
	<polygon class="st7" points="349.93,126.35 349.93,140.35 354.14,142.69 354.14,128.91 	"/>
	<polygon class="st2" points="220.23,205.76 192.61,203.15 192.9,216.93 220.23,219.82 	"/>
	<polygon class="st7" points="233.01,202.77 233.01,216.77 220.23,219.82 220.23,205.76 	"/>
	<polygon class="st8" points="296.14,127.21 297.74,133.99 326.97,142.34 346.45,135.33 346.45,130.69 313.87,118.94 	"/>
	<polygon class="st6" points="301.42,149.52 350.61,132.96 350.61,139.07 302.95,155.76 	"/>
	<path class="st3" d="M301.57,150.72l49.82-16.77c0,0,0.63-1.21,1.21,0c0.58,1.21,0.32,4.05,0.32,4.05l-50.59,15.91L301.57,150.72z"
		/>
	<polyline class="st2" points="302.27,153.42 354.14,135.87 354.39,142.48 303.68,159.39 302.27,153.78 	"/>
	<polygon class="st6" points="241.16,172.74 235.74,174.73 224.97,191.5 203.87,202.01 215.23,202.77 227.68,197.37 235.03,186.19 
		242,179.09 	"/>
	<polygon class="st3" points="240.5,173.98 236.13,175.66 225.29,192.29 205.23,202.4 211.61,202.87 226.26,195.57 237.29,178.24 
		240.52,177.01 	"/>
	<polygon class="st2" points="210.58,203.34 226.39,194.44 237.16,177.86 241.1,176.53 241.1,183.45 239.55,183.07 228.26,199.74 
		221.94,203.34 	"/>
	<polyline class="st5" points="240.52,171.11 240.44,186.6 248.71,182.83 240.52,170.75 	"/>
	<polygon class="st6" points="192.61,203.15 198.39,200.26 233.01,202.77 220.23,205.76 	"/>
	<path class="st9" d="M227.04,216.59l7.35,0.11l131.42,191.06l4.06-2.84L236.45,210.63h-8.9c-0.87,0.36-1.51,1.45-1.61,2.75
		c-0.11,1.36,0.38,2.69,1.23,3.32"/>
	<polyline class="st10" points="226.84,213.66 235.1,213.66 368,407.09 	"/>
	<polygon class="st7" points="364.77,407.09 391.29,416.66 391.55,445.45 364.77,435.7 	"/>
	<polygon class="st2" points="391.29,416.66 391.55,445.45 426.9,412.87 426.58,384.36 	"/>
	<polygon class="st11" points="364.77,407.38 382.26,391.84 391.29,416.66 	"/>
	<polygon class="st6" points="382.26,391.84 409.1,367.4 426.58,384.36 391.29,416.66 	"/>
	<line class="st12" x1="368" y1="436.87" x2="355.55" y2="448.3"/>
	<path class="st12" d="M297.68,424.8c2.48,3.02,5.92,6.5,10.39,9.19c10.29,6.2,19.7,4.41,24.06,3.13"/>
	<path class="st12" d="M317.49,437.76c0,0,4.58,21.62,23.35,9.59"/>
	<polygon class="st3" points="395.29,442 398.5,439.04 406.05,447.25 402.26,450.66 	"/>
	<polygon class="st2" points="335.76,453.51 335.76,462.67 341.18,469.14 341.18,459.83 	"/>
	<polygon class="st7" points="341.18,459.83 357.03,445.45 357.03,453.7 341.18,469.14 	"/>
	<polygon class="st6" points="357.03,445.45 351.16,439.87 335.76,453.51 341.18,459.83 	"/>
	<path class="st13" d="M343.97,473.16c-0.03-0.14-1.87-29.98-1.87-29.98l8.58,24.39"/>
	<path class="st13" d="M332,461.04c-0.03-0.14-1.87-29.98-1.87-29.98l7.34,20.86"/>
	<line class="st14" x1="330.81" y1="433.02" x2="342.17" y2="444.37"/>
	<line class="st14" x1="332.48" y1="437.76" x2="342.4" y2="448.05"/>
	<line class="st14" x1="330.72" y1="440.77" x2="342.69" y2="452.76"/>
	<path class="st15" d="M284.9,482.97c0,0,17.68-12.31,17.68-12.6c0-0.28-5.68-17.6-5.68-17.6L284.9,482.97z"/>
	<polygon class="st15" points="303.68,499.07 291.06,467.46 302.58,452.46 297.37,442.9 303.16,437.76 297.37,428.88 303.29,423.67 
			"/>
	<path class="st15" d="M321.61,482.97c-0.19,0-18.08-12.41-18.08-12.41l6.21-18.38l-0.45-32.77l6.71,7.77l-6.13-1.33"/>
	<polyline class="st15" points="304.19,497.27 315.61,466.58 322.06,483.44 310.19,452.76 304.9,446.05 308.99,434.53 
		303.68,430.01 308.77,419.03 297.37,412.49 296.9,452.76 	"/>
	<polyline class="st15" points="308,419.41 297.9,419.41 303.53,430.75 297.68,435.7 302.06,445.36 297.37,451.8 	"/>
	<polyline class="st15" points="314.45,465.54 304.19,453.22 309.1,442.9 310.13,440.77 316,448.05 310.1,446.05 308.52,441.86 
		304.19,438.7 308.84,428.97 303.29,424.14 	"/>
</g>
<g id="Capa_3" class="st16">
	<line class="st17" x1="366.97" y1="127.46" x2="389.66" y2="111.52"/>
	<path class="st18" d="M410.55,115.05h-19.53c-0.95,0-1.72-0.77-1.72-1.72v-3.62c0-0.95,0.77-1.72,1.72-1.72h19.53
		c0.95,0,1.72,0.77,1.72,1.72v3.62C412.27,114.28,411.5,115.05,410.55,115.05z"/>
	<line class="st17" x1="314.46" y1="126.93" x2="334.55" y2="112.82"/>
	<path class="st18" d="M355.48,116.05h-19.53c-0.95,0-1.72-0.77-1.72-1.72v-3.62c0-0.95,0.77-1.72,1.72-1.72h19.53
		c0.95,0,1.72,0.77,1.72,1.72v3.62C357.21,115.28,356.43,116.05,355.48,116.05z"/>
	<line class="st17" x1="411.53" y1="380.35" x2="396.8" y2="363.87"/>
	<path class="st18" d="M395.08,367.4h-42.34c-0.95,0-1.72-0.77-1.72-1.72v-3.62c0-0.95,0.77-1.72,1.72-1.72h42.34
		c0.95,0,1.72,0.77,1.72,1.72v3.62C396.8,366.63,396.03,367.4,395.08,367.4z"/>
	<line class="st17" x1="297.42" y1="412.49" x2="282.69" y2="396.01"/>
	<path class="st18" d="M280.97,399.54h-52.41c-0.95,0-1.72-0.77-1.72-1.72v-3.62c0-0.95,0.77-1.72,1.72-1.72h52.41
		c0.95,0,1.72,0.77,1.72,1.72v3.62C282.69,398.77,281.92,399.54,280.97,399.54z"/>
	<line class="st17" x1="358.68" y1="486.7" x2="343.95" y2="470.22"/>
	<path class="st18" d="M396.72,490.03h-37.4c-0.95,0-1.72-0.77-1.72-1.72v-3.62c0-0.95,0.77-1.72,1.72-1.72h37.4
		c0.95,0,1.72,0.77,1.72,1.72v3.62C398.44,489.26,397.67,490.03,396.72,490.03z"/>
	<line class="st17" x1="368.5" y1="437.22" x2="353.77" y2="420.73"/>
	<path class="st18" d="M352.05,422.94h-34.93c-0.95,0-1.72-0.77-1.72-1.72v-3.62c0-0.95,0.77-1.72,1.72-1.72h34.93
		c0.95,0,1.72,0.77,1.72,1.72v3.62C353.77,422.17,353,422.94,352.05,422.94z"/>
	<line class="st17" x1="253.39" y1="240.98" x2="273.48" y2="226.86"/>
	<path class="st18" d="M309.08,230.1h-34.19c-0.95,0-1.72-0.77-1.72-1.72v-3.62c0-0.95,0.77-1.72,1.72-1.72h34.19
		c0.95,0,1.72,0.77,1.72,1.72v3.62C310.8,229.32,310.03,230.1,309.08,230.1z"/>
	<line class="st17" x1="319.78" y1="151.5" x2="333.26" y2="163.22"/>
	<line class="st17" x1="185.87" y1="190.54" x2="199.35" y2="202.25"/>
	<path class="st18" d="M378.87,166.45h-44.2c-0.95,0-1.72-0.77-1.72-1.72v-3.62c0-0.95,0.77-1.72,1.72-1.72h44.2
		c0.95,0,1.72,0.77,1.72,1.72v3.62C380.59,165.68,379.82,166.45,378.87,166.45z"/>
	<path class="st18" d="M184.77,193.47H145.5c-0.95,0-1.72-0.77-1.72-1.72v-3.62c0-0.95,0.77-1.72,1.72-1.72h39.26
		c0.95,0,1.72,0.77,1.72,1.72v3.62C186.49,192.7,185.72,193.47,184.77,193.47z"/>
	<path class="st18" d="M220.87,263.5h-21.89c-0.95,0-1.72-0.77-1.72-1.72v-3.62c0-0.95,0.77-1.72,1.72-1.72h21.89
		c0.95,0,1.72,0.77,1.72,1.72v3.62C222.59,262.73,221.82,263.5,220.87,263.5z"/>
</g>
<g id="Capa_4" class="st16">
	<rect x="394.89" y="109.59" class="st19" width="19.15" height="8.94"/>
	<text transform="matrix(1 0 0 1 394.8874 113.177)" class="st20 st21 st22">Azud</text>
	<rect x="336.16" y="110.58" class="st19" width="21.49" height="8.94"/>
	<text transform="matrix(1 0 0 1 336.1577 114.1729)" class="st20 st21 st22">Embalse</text>
	<rect x="334.7" y="160.96" class="st19" width="45.89" height="5.49"/>
	<text transform="matrix(1 0 0 1 334.701 164.5469)" class="st20 st21 st22">Canal de derivación</text>
	<rect x="145.25" y="188.42" class="st19" width="45.89" height="5.49"/>
	<text transform="matrix(1 0 0 1 145.2542 192.0106)" class="st20 st21 st22">Cámara de carga</text>
	<rect x="198.88" y="258.01" class="st19" width="45.89" height="5.49"/>
	<text transform="matrix(1 0 0 1 198.8846 261.6002)" class="st20 st21 st22">Aliviadero</text>
	<rect x="274.95" y="224.6" class="st19" width="45.89" height="5.49"/>
	<text transform="matrix(1 0 0 1 274.9491 228.1932)" class="st20 st21 st22">Tuberia forzada</text>
	<rect x="352.92" y="361.91" class="st19" width="45.89" height="5.49"/>
	<text transform="matrix(1 0 0 1 352.9184 365.4989)" class="st20 st21 st22">Casa de maquinas</text>
	<rect x="317.15" y="417.8" class="st19" width="45.89" height="5.49"/>
	<text transform="matrix(1 0 0 1 317.1455 421.3858)" class="st20 st21 st22">Canal de salida</text>
	<rect x="359.53" y="484.97" class="st19" width="45.89" height="5.49"/>
	<text transform="matrix(1 0 0 1 359.5285 488.5648)" class="st20 st21 st22">Transformadores</text>
	<rect x="228.96" y="394.05" class="st19" width="53.73" height="5.49"/>
	<text transform="matrix(1 0 0 1 228.9635 397.6354)" class="st20 st21 st22">Canales de transmición</text>
</g>
</svg>
