<?xml version="1.0" encoding="utf-8"?>
<!-- Generator: Adobe Illustrator 22.0.1, SVG Export Plug-In . SVG Version: 6.00 Build 0)  -->
<svg version="1.1" id="Layer_1" xmlns="http://www.w3.org/2000/svg" xmlns:xlink="http://www.w3.org/1999/xlink" x="0px" y="0px"
	 viewBox="0 0 518.6 854.5" style="enable-background:new 0 0 518.6 854.5;" xml:space="preserve">
<style type="text/css">
	.st0{fill:none;stroke:#231F20;stroke-width:3;stroke-miterlimit:10;}
	.st1{fill:#231F20;}
	.st2{font-family:'HelveticaNeueLTStd-BdCn';}
	.st3{font-size:32px;}
	.st4{font-family:'Helvetica';}
	.st5{font-size:11px;}
	.st6{font-family:'HelveticaNeueLTStd-Bd';}
	.st7{font-size:12px;}
	.st8{fill:none;stroke:#231F20;stroke-width:2;stroke-miterlimit:10;}
	.st9{clip-path:url(#SVGID_2_);}
	.st10{fill:#312F81;}
	.st11{clip-path:url(#SVGID_4_);}
	.st12{enable-background:new    ;}
	.st13{clip-path:url(#SVGID_6_);}
	.st14{clip-path:url(#SVGID_8_);}
	.st15{clip-path:url(#SVGID_10_);}
	.st16{fill:none;stroke:#231F20;stroke-width:0.75;stroke-miterlimit:10;}
	.st17{clip-path:url(#SVGID_12_);}
	.st18{font-size:10.21px;}
	.st19{font-size:11.14px;}
	.st20{clip-path:url(#SVGID_14_);}
	.st21{clip-path:url(#SVGID_16_);}
	.st22{clip-path:url(#SVGID_18_);}
	.st23{clip-path:url(#SVGID_20_);}
	.st24{clip-path:url(#SVGID_22_);}
	.st25{clip-path:url(#SVGID_24_);}
	.st26{clip-path:url(#SVGID_26_);}
	.st27{clip-path:url(#SVGID_28_);}
	.st28{clip-path:url(#SVGID_30_);}
</style>
<title>cronología alto mapio</title>
<line class="st0" x1="260.1" y1="-577.8" x2="260.1" y2="852.1"/>
<text transform="matrix(1 0 0 1 62.97 713.6657)" class="st1 st2 st3">2021</text>
<text transform="matrix(1 0 0 1 37.6 765.1157)" class="st1 st4 st5">Inauguración</text>
<text transform="matrix(1 0 0 1 101.2 765.1157)" class="st1 st4 st5"> </text>
<text transform="matrix(1 0 0 1 103.68 765.1157)" class="st1 st4 st5">Alto Maipo.</text>
<text transform="matrix(1 0 0 1 68.95 747.4157)" class="st1 st6 st7">Septiemb</text>
<text transform="matrix(1 0 0 1 123.37 747.4157)" class="st1 st6 st7">r</text>
<text transform="matrix(1 0 0 1 127.83 747.4157)" class="st1 st6 st7">e</text>
<line class="st8" x1="254.7" y1="717.1" x2="7.6" y2="717.1"/>
<g>
	<g>
		<defs>
			<rect id="SVGID_1_" x="-45.1" y="-642.3" width="612" height="1559.1"/>
		</defs>
		<clipPath id="SVGID_2_">
			<use xlink:href="#SVGID_1_"  style="overflow:visible;"/>
		</clipPath>
		<g class="st9">
			<path class="st10" d="M246,717.6c0,7.7,6.2,13.9,13.9,13.9c7.7,0,13.9-6.2,13.9-13.9s-6.2-13.9-13.9-13.9l0,0
				C252.2,703.7,246,710,246,717.6"/>
			<polyline class="st0" points="252.4,-567.8 260.1,-577.8 267.9,-567.8 			"/>
			<polyline class="st0" points="267.8,842 260.1,852.1 252.3,842 			"/>
		</g>
	</g>
</g>
<g>
	<g>
		<defs>
			<rect id="SVGID_3_" x="-45.1" y="-642.3" width="612" height="1559.1"/>
		</defs>
		<clipPath id="SVGID_4_">
			<use xlink:href="#SVGID_3_"  style="overflow:visible;"/>
		</clipPath>
		<g class="st11">
			<path class="st8" d="M265.3-522.6"/>
			<path class="st10" d="M274-522.1c0,7.7-6.2,13.9-13.9,13.9c-7.7,0-13.9-6.2-13.9-13.9s6.2-13.9,13.9-13.9l0,0
				C267.8-536,274-529.8,274-522.1"/>
		</g>
	</g>
</g>
<text transform="matrix(1 0 0 1 338.7 -212.5843)" class="st1 st4 st5">P</text>
<g>
	<g>
		<defs>
			<rect id="SVGID_5_" x="-45.1" y="-642.3" width="612" height="1559.1"/>
		</defs>
		<clipPath id="SVGID_6_">
			<use xlink:href="#SVGID_5_"  style="overflow:visible;"/>
		</clipPath>
		<g class="st13">
			<path class="st8" d="M265.3-344"/>
			<path class="st10" d="M274-343.4c0,7.7-6.2,13.9-13.9,13.9c-7.7,0-13.9-6.2-13.9-13.9c0-7.7,6.2-13.9,13.9-13.9l0,0
				C267.8-357.3,274-351.1,274-343.4"/>
		</g>
	</g>
</g>
<g>
	<g>
		<defs>
			<rect id="SVGID_7_" x="-45.1" y="-642.3" width="612" height="1559.1"/>
		</defs>
		<clipPath id="SVGID_8_">
			<use xlink:href="#SVGID_7_"  style="overflow:visible;"/>
		</clipPath>
		<g class="st14">
			<path class="st8" d="M267.2-106.1"/>
			<path class="st10" d="M275.9-105.5c0,7.7-6.2,13.9-13.9,13.9c-7.7,0-13.9-6.2-13.9-13.9s6.2-13.9,13.9-13.9l0,0
				C269.7-119.5,275.9-113.2,275.9-105.5"/>
		</g>
	</g>
</g>
<text transform="matrix(1 0 0 1 387.81 156.5057)" class="st1 st2 st3">2014</text>
<text transform="matrix(1 0 0 1 331.72 205.9257)" class="st1 st4 st5">Se encuentran restos de cementerio</text>
<text transform="matrix(1 0 0 1 341.2 219.1257)" class="st1 st4 st5">indígena mientras se realizaba la</text>
<text transform="matrix(1 0 0 1 387.98 232.3257)" class="st1 st4 st5">construcción.</text>
<text transform="matrix(1 0 0 1 404.06 189.8557)" class="st1 st6 st7">Junio</text>
<g>
	<g>
		<defs>
			<rect id="SVGID_9_" x="-45.1" y="-642.3" width="612" height="1559.1"/>
		</defs>
		<clipPath id="SVGID_10_">
			<use xlink:href="#SVGID_9_"  style="overflow:visible;"/>
		</clipPath>
		<g class="st15">
			<line class="st8" x1="267.1" y1="160" x2="514.3" y2="160"/>
			<path class="st10" d="M275.8,160.6c0,7.7-6.2,13.9-13.9,13.9c-7.7,0-13.9-6.2-13.9-13.9s6.2-13.9,13.9-13.9l0,0
				C269.6,146.7,275.8,152.9,275.8,160.6"/>
			<path class="st1" d="M518.2,160c0,2.2-1.7,3.9-3.9,3.9s-3.9-1.7-3.9-3.9s1.7-3.9,3.9-3.9l0,0C516.4,156.1,518.2,157.9,518.2,160"
				/>
			<path class="st16" d="M518.2,160c0,2.2-1.7,3.9-3.9,3.9s-3.9-1.7-3.9-3.9s1.7-3.9,3.9-3.9l0,0C516.4,156.1,518.2,157.9,518.2,160
				z"/>
		</g>
	</g>
</g>
<text transform="matrix(1 0 0 1 387.16 310.9257)" class="st1 st2 st3">2016</text>
<text transform="matrix(1 0 0 1 345.82 360.0257)" class="st1 st4 st5">Contraloría revisa legalidad del</text>
<text transform="matrix(1 0 0 1 330.62 373.2257)" class="st1 st4 st5">convenio del 20</text>
<text transform="matrix(1 0 0 1 407.68 373.2257)" class="st1 st4 st5">1</text>
<text transform="matrix(1 0 0 1 413 373.2257)" class="st1 st4 st5">1, debido a descarga</text>
<text transform="matrix(1 0 0 1 350.7 386.4257)" class="st1 st4 st5">de aguas residuales fuera de</text>
<text transform="matrix(1 0 0 1 368.14 399.6257)" class="st1 st4 st5">temporada autorizada.</text>
<text transform="matrix(1 0 0 1 399.6 343.9457)" class="st1 st6 st7">Feb</text>
<text transform="matrix(1 0 0 1 420.94 343.9457)" class="st1 st6 st7">r</text>
<text transform="matrix(1 0 0 1 425.4 343.9457)" class="st1 st6 st7">e</text>
<text transform="matrix(1 0 0 1 432.29 343.9457)" class="st1 st6 st7">r</text>
<text transform="matrix(1 0 0 1 436.75 343.9457)" class="st1 st6 st7">o</text>
<g>
	<g>
		<defs>
			<rect id="SVGID_11_" x="-45.1" y="-642.3" width="612" height="1559.1"/>
		</defs>
		<clipPath id="SVGID_12_">
			<use xlink:href="#SVGID_11_"  style="overflow:visible;"/>
		</clipPath>
		<g class="st17">
			<line class="st8" x1="267" y1="314.5" x2="514.1" y2="314.5"/>
			<path class="st10" d="M275.7,315c0,7.7-6.2,13.9-13.9,13.9c-7.7,0-13.9-6.2-13.9-13.9c0-7.7,6.2-13.9,13.9-13.9l0,0
				C269.5,301.1,275.7,307.3,275.7,315"/>
			<path class="st1" d="M518.1,314.5c0,2.2-1.8,3.9-3.9,3.9s-3.9-1.8-3.9-3.9s1.8-3.9,3.9-3.9l0,0
				C516.3,310.6,518.1,312.4,518.1,314.5"/>
			<path class="st16" d="M518.1,314.5c0,2.2-1.8,3.9-3.9,3.9s-3.9-1.8-3.9-3.9s1.8-3.9,3.9-3.9l0,0
				C516.3,310.6,518.1,312.4,518.1,314.5z"/>
		</g>
	</g>
</g>
<text transform="matrix(1.08 0 0 1 386.48 470.0752)" class="st1 st2 st3">2018</text>
<text transform="matrix(1.08 0 0 1 327.8398 517.9551)" class="st1 st4 st18"> Superintendencia del medioambiente </text>
<text transform="matrix(1.08 0 0 1 327.54 530.2051)" class="st1 st4 st18">aprueba el programa de cumplimiento</text>
<text transform="matrix(1.08 0 0 1 383.7998 542.4551)" class="st1 st4 st18">de</text>
<text transform="matrix(1.08 0 0 1 396.0688 542.4551)" class="st1 st4 st18"> </text>
<text transform="matrix(1.08 0 0 1 398.5312 542.4551)" class="st1 st4 st18">Alto Maipo.  </text>
<text transform="matrix(1.08 0 0 1 412.0498 502.8252)" class="st1 st6 st19">Abril</text>
<g>
	<g>
		<defs>
			<rect id="SVGID_13_" x="-45.1" y="-642.3" width="612" height="1559.1"/>
		</defs>
		<clipPath id="SVGID_14_">
			<use xlink:href="#SVGID_13_"  style="overflow:visible;"/>
		</clipPath>
		<g class="st20">
			<line class="st8" x1="265.8" y1="473.5" x2="512.9" y2="473.5"/>
			<path class="st10" d="M274.5,474.1c0,7.7-6.2,13.9-13.9,13.9c-7.7,0-13.9-6.2-13.9-13.9c0-7.7,6.2-13.9,13.9-13.9
				C268.2,460.1,274.5,466.4,274.5,474.1L274.5,474.1"/>
			<path class="st1" d="M517.4,473.5c0,2.2-1.8,3.9-3.9,3.9s-3.9-1.8-3.9-3.9c0-2.2,1.8-3.9,3.9-3.9
				C515.6,469.6,517.4,471.4,517.4,473.5L517.4,473.5"/>
			<path class="st16" d="M517.4,473.5c0,2.2-1.8,3.9-3.9,3.9s-3.9-1.8-3.9-3.9c0-2.2,1.8-3.9,3.9-3.9
				C515.6,469.6,517.4,471.4,517.4,473.5L517.4,473.5z"/>
		</g>
	</g>
</g>
<text transform="matrix(1 0 0 1 382.7 632.4157)" class="st1 st2 st3">2020</text>
<text transform="matrix(1 0 0 1 340.67 683.9157)" class="st1 st4 st5">Se lleva más del 90% de avance</text>
<text transform="matrix(1 0 0 1 374.6 697.1157)" class="st1 st4 st5">de la construcción.</text>
<text transform="matrix(1 0 0 1 399.59 666.4357)" class="st1 st6 st7">Agosto</text>
<g>
	<g>
		<defs>
			<rect id="SVGID_15_" x="-45.1" y="-642.3" width="612" height="1559.1"/>
		</defs>
		<clipPath id="SVGID_16_">
			<use xlink:href="#SVGID_15_"  style="overflow:visible;"/>
		</clipPath>
		<g class="st21">
			<line class="st8" x1="265" y1="636.1" x2="512.2" y2="636.1"/>
			<path class="st10" d="M273.7,636.6c0,7.7-6.2,13.9-13.9,13.9c-7.7,0-13.9-6.2-13.9-13.9s6.2-13.9,13.9-13.9
				C267.5,622.6,273.7,628.9,273.7,636.6L273.7,636.6"/>
			<path class="st1" d="M516.1,636.1c0,2.2-1.8,3.9-3.9,3.9c-2.2,0-3.9-1.8-3.9-3.9c0-2.2,1.8-3.9,3.9-3.9
				C514.3,632.2,516.1,633.9,516.1,636.1L516.1,636.1"/>
			<path class="st16" d="M516.1,636.1c0,2.2-1.8,3.9-3.9,3.9c-2.2,0-3.9-1.8-3.9-3.9c0-2.2,1.8-3.9,3.9-3.9
				C514.3,632.2,516.1,633.9,516.1,636.1L516.1,636.1z"/>
		</g>
	</g>
</g>
<text transform="matrix(1 0 0 1 383.62 795.1457)" class="st1 st2 st3">2023</text>
<text transform="matrix(1 0 0 1 355.73 844.5057)" class="st1 st4 st5">Detención funcionamiento.</text>
<text transform="matrix(1 0 0 1 396.95 828.6857)" class="st1 st6 st7">Feb</text>
<text transform="matrix(1 0 0 1 418.29 828.6857)" class="st1 st6 st7">r</text>
<text transform="matrix(1 0 0 1 422.75 828.6857)" class="st1 st6 st7">e</text>
<text transform="matrix(1 0 0 1 429.64 828.6857)" class="st1 st6 st7">r</text>
<text transform="matrix(1 0 0 1 434.1 828.6857)" class="st1 st6 st7">o</text>
<g>
	<g>
		<defs>
			<rect id="SVGID_17_" x="-45.1" y="-642.3" width="612" height="1559.1"/>
		</defs>
		<clipPath id="SVGID_18_">
			<use xlink:href="#SVGID_17_"  style="overflow:visible;"/>
		</clipPath>
		<g class="st22">
			<line class="st8" x1="266" y1="798.7" x2="513.1" y2="798.7"/>
			<path class="st10" d="M274.7,799.2c0,7.7-6.2,13.9-13.9,13.9c-7.7,0-13.9-6.2-13.9-13.9s6.2-13.9,13.9-13.9
				C268.4,785.3,274.7,791.6,274.7,799.2L274.7,799.2"/>
			<path class="st1" d="M517,798.7c0,2.2-1.8,3.9-3.9,3.9c-2.2,0-3.9-1.8-3.9-3.9c0-2.2,1.8-3.9,3.9-3.9
				C515.2,794.8,517,796.6,517,798.7L517,798.7"/>
			
				<ellipse transform="matrix(0.9085 -0.4179 0.4179 0.9085 -286.8163 287.4912)" class="st16" cx="513.1" cy="798.7" rx="3.9" ry="3.9"/>
		</g>
	</g>
</g>
<g>
	<g>
		<defs>
			<rect id="SVGID_19_" x="-45.1" y="-642.3" width="612" height="1559.1"/>
		</defs>
		<clipPath id="SVGID_20_">
			<use xlink:href="#SVGID_19_"  style="overflow:visible;"/>
		</clipPath>
		<g class="st23">
			<path class="st10" d="M246.2-454.3c0,7.7,6.2,13.9,13.9,13.9s13.9-6.2,13.9-13.9s-6.2-13.9-13.9-13.9l0,0
				C252.4-468.2,246.2-462,246.2-454.3"/>
		</g>
	</g>
</g>
<g>
	<g>
		<defs>
			<rect id="SVGID_21_" x="-45.1" y="-642.3" width="612" height="1559.1"/>
		</defs>
		<clipPath id="SVGID_22_">
			<use xlink:href="#SVGID_21_"  style="overflow:visible;"/>
		</clipPath>
		<g class="st24">
			<path class="st10" d="M246.2-202.3c0,7.7,6.2,13.9,13.9,13.9s13.9-6.2,13.9-13.9s-6.2-13.9-13.9-13.9l0,0
				C252.4-216.2,246.2-210,246.2-202.3L246.2-202.3"/>
		</g>
	</g>
</g>
<text transform="matrix(1 0 0 1 62.68 36.7357)" class="st1 st2 st3">2013</text>
<text transform="matrix(1 0 0 1 4.85 87.3457)" class="st1 st4 st5">Comunidad accede de forma parcial a</text>
<text transform="matrix(1 0 0 1 3.92 100.5457)" class="st1 st4 st5">convenio firmado. Ingresa</text>
<text transform="matrix(1 0 0 1 130.49 100.5457)" class="st1 st4 st5"> </text>
<text transform="matrix(1 0 0 1 132.96 100.5457)" class="st1 st4 st5">Antofagasta</text>
<text transform="matrix(1 0 0 1 24.74 113.7457)" class="st1 st4 st5">Minerals (luksic) a</text>
<text transform="matrix(1 0 0 1 113.37 113.7457)" class="st1 st4 st5"> </text>
<text transform="matrix(1 0 0 1 115.84 113.7457)" class="st1 st4 st5">Alto Maipo.</text>
<text transform="matrix(1 0 0 1 79.5 70.0957)" class="st1 st6 st7">Ene</text>
<text transform="matrix(1 0 0 1 101.28 70.0957)" class="st1 st6 st7">r</text>
<text transform="matrix(1 0 0 1 105.74 70.0957)" class="st1 st6 st7">o</text>
<g>
	<g>
		<defs>
			<rect id="SVGID_23_" x="-45.1" y="-642.3" width="612" height="1559.1"/>
		</defs>
		<clipPath id="SVGID_24_">
			<use xlink:href="#SVGID_23_"  style="overflow:visible;"/>
		</clipPath>
		<g class="st25">
			<line class="st8" x1="254.3" y1="40.3" x2="7.2" y2="40.3"/>
			<path class="st10" d="M245.6,40.8c0,7.7,6.2,13.9,13.9,13.9c7.7,0,13.9-6.2,13.9-13.9s-6.2-13.9-13.9-13.9l0,0
				C251.9,26.9,245.6,33.1,245.6,40.8"/>
			<path class="st1" d="M8.2,40.3c0,2.2-1.8,3.9-3.9,3.9c-2.2,0-3.9-1.8-3.9-3.9c0-2.2,1.8-3.9,3.9-3.9l0,0
				C6.5,36.4,8.2,38.1,8.2,40.3"/>
			<path class="st16" d="M8.2,40.3c0,2.2-1.8,3.9-3.9,3.9c-2.2,0-3.9-1.8-3.9-3.9c0-2.2,1.8-3.9,3.9-3.9l0,0
				C6.5,36.4,8.2,38.1,8.2,40.3z"/>
		</g>
	</g>
</g>
<text transform="matrix(1 0 0 1 62.96 233.5757)" class="st1 st2 st3">2015</text>
<text transform="matrix(1 0 0 1 27.04 284.2257)" class="st1 st4 st5">Marcha pacífica No</text>
<text transform="matrix(1 0 0 1 121.8 284.2257)" class="st1 st4 st5"> </text>
<text transform="matrix(1 0 0 1 124.28 284.2257)" class="st1 st4 st5">Alto Maipo  </text>
<text transform="matrix(1 0 0 1 70.78 267.5657)" class="st1 st6 st7">Diciemb</text>
<text transform="matrix(1 0 0 1 117.84 267.5657)" class="st1 st6 st7">r</text>
<text transform="matrix(1 0 0 1 122.31 267.5657)" class="st1 st6 st7">e</text>
<g>
	<g>
		<defs>
			<rect id="SVGID_25_" x="-45.1" y="-642.3" width="612" height="1559.1"/>
		</defs>
		<clipPath id="SVGID_26_">
			<use xlink:href="#SVGID_25_"  style="overflow:visible;"/>
		</clipPath>
		<g class="st26">
			<line class="st8" x1="254.7" y1="237.2" x2="7.5" y2="237.2"/>
			<path class="st10" d="M246,237.6c0,7.7,6.2,13.9,13.9,14c7.7,0,13.9-6.2,14-13.9s-6.2-13.9-13.9-14c0,0,0,0-0.1,0
				C252.3,223.8,246,230,246,237.6"/>
			<path class="st1" d="M8.5,237.2c0,2.2-1.8,3.9-3.9,3.9c-2.2,0-3.9-1.8-3.9-3.9c0-2.2,1.8-3.9,3.9-3.9
				C6.7,233.2,8.5,235,8.5,237.2L8.5,237.2"/>
			<path class="st16" d="M8.5,237.2c0,2.2-1.8,3.9-3.9,3.9c-2.2,0-3.9-1.8-3.9-3.9c0-2.2,1.8-3.9,3.9-3.9
				C6.7,233.2,8.5,235,8.5,237.2L8.5,237.2z"/>
		</g>
	</g>
</g>
<text transform="matrix(1 0 0 1 63.57 392.1057)" class="st1 st2 st3">2017</text>
<text transform="matrix(1 0 0 1 11.67 444.9557)" class="st1 st4 st5">Minera los pelambres  y</text>
<text transform="matrix(1 0 0 1 128.44 444.9557)" class="st1 st4 st5"> </text>
<text transform="matrix(1 0 0 1 130.91 444.9557)" class="st1 st4 st5">Antofagasta</text>
<text transform="matrix(1 0 0 1 18.71 458.1557)" class="st1 st4 st5">Minerals(Luksic) deja el proyecto.</text>
<text transform="matrix(1 0 0 1 10.76 471.3557)" class="st1 st4 st5">Proceso administrativo sancionatorio</text>
<text transform="matrix(1 0 0 1 56.6 484.5557)" class="st1 st4 st5">contra</text>
<text transform="matrix(1 0 0 1 87.17 484.5557)" class="st1 st4 st5"> </text>
<text transform="matrix(1 0 0 1 89.63 484.5557)" class="st1 st4 st5">Alto Maipo.</text>
<text transform="matrix(1 0 0 1 81.39 425.5257)" class="st1 st6 st7">Ene</text>
<text transform="matrix(1 0 0 1 103.17 425.5257)" class="st1 st6 st7">r</text>
<text transform="matrix(1 0 0 1 107.63 425.5257)" class="st1 st6 st7">o</text>
<g>
	<g>
		<defs>
			<rect id="SVGID_27_" x="-45.1" y="-642.3" width="612" height="1559.1"/>
		</defs>
		<clipPath id="SVGID_28_">
			<use xlink:href="#SVGID_27_"  style="overflow:visible;"/>
		</clipPath>
		<g class="st27">
			<line class="st8" x1="255.3" y1="395.6" x2="8.1" y2="395.6"/>
			<path class="st10" d="M246.6,396.2c0,7.7,6.2,13.9,13.9,13.9c7.7,0,13.9-6.2,13.9-13.9c0-7.7-6.2-13.9-13.9-13.9
				C252.9,382.2,246.6,388.5,246.6,396.2L246.6,396.2"/>
			<path class="st1" d="M9.1,395.6c0,2.2-1.8,3.9-3.9,3.9c-2.2,0-3.9-1.8-3.9-3.9c0-2.2,1.8-3.9,3.9-3.9S9.1,393.5,9.1,395.6"/>
			<path class="st16" d="M9.1,395.6c0,2.2-1.8,3.9-3.9,3.9c-2.2,0-3.9-1.8-3.9-3.9c0-2.2,1.8-3.9,3.9-3.9S9.1,393.5,9.1,395.6z"/>
		</g>
	</g>
</g>
<text transform="matrix(1 0 0 1 64.13 551.0457)" class="st1 st2 st3">2019</text>
<text transform="matrix(1 0 0 1 11.9 600.5858)" class="st1 st4 st5">Se rechaza la solicitud para detener</text>
<text transform="matrix(1 0 0 1 41.56 613.7857)" class="st1 st4 st5">faenas de construcción.</text>
<text transform="matrix(1 0 0 1 81.56 584.4658)" class="st1 st6 st7">Ene</text>
<text transform="matrix(1 0 0 1 103.34 584.4658)" class="st1 st6 st7">r</text>
<text transform="matrix(1 0 0 1 107.8 584.4658)" class="st1 st6 st7">o</text>
<g>
	<g>
		<defs>
			<rect id="SVGID_29_" x="-45.1" y="-642.3" width="612" height="1559.1"/>
		</defs>
		<clipPath id="SVGID_30_">
			<use xlink:href="#SVGID_29_"  style="overflow:visible;"/>
		</clipPath>
		<g class="st28">
			<line class="st8" x1="253.9" y1="554.8" x2="6.8" y2="554.8"/>
			<path class="st10" d="M245.2,555.3c0,7.7,6.2,13.9,13.9,13.9S273,563,273,555.3s-6.2-13.9-13.9-13.9l0,0
				C251.5,541.4,245.2,547.6,245.2,555.3L245.2,555.3"/>
			<path class="st1" d="M9.3,554.8c0,2.2-1.8,3.9-3.9,3.9c-2.2,0-3.9-1.8-3.9-3.9c0-2.2,1.8-3.9,3.9-3.9
				C7.5,550.9,9.3,552.6,9.3,554.8L9.3,554.8"/>
			
				<ellipse transform="matrix(0.1956 -0.9807 0.9807 0.1956 -539.8886 451.6424)" class="st16" cx="5.4" cy="554.9" rx="3.9" ry="3.9"/>
		</g>
	</g>
</g>
</svg>
