<?xml version="1.0" encoding="utf-8"?>
<!-- Generator: Adobe Illustrator 27.1.0, SVG Export Plug-In . SVG Version: 6.00 Build 0)  -->
<svg version="1.1" id="Layer_1" xmlns="http://www.w3.org/2000/svg" xmlns:xlink="http://www.w3.org/1999/xlink" x="0px" y="0px"
	 viewBox="0 0 612 907.09" style="enable-background:new 0 0 612 907.09;" xml:space="preserve">
<style type="text/css">
	.st0{fill:none;stroke:#6078A6;stroke-miterlimit:10;}
	.st1{font-family:'HelveticaNeueLTStd-BdCn';}
	.st2{font-size:32px;}
	.st3{font-family:'Helvetica';}
	.st4{font-size:11px;}
	.st5{font-family:'HelveticaNeueLTStd-Bd';}
	.st6{font-size:12px;}
	.st7{stroke:#000000;stroke-width:0.75;stroke-miterlimit:10;}
	.st8{font-size:10.2108px;}
	.st9{font-size:11.139px;}
	.st10{stroke:#1C75BC;stroke-miterlimit:10;}
</style>
<line class="st0" x1="301.45" y1="20.22" x2="301.45" y2="884.78"/>
<text transform="matrix(1 0 0 1 104.3447 746.3936)" class="st1 st2">2021</text>
<g>
	<text transform="matrix(1 0 0 1 78.9713 797.8457)" class="st3 st4">Inauguración Alto Maipo.</text>
	<text transform="matrix(1 0 0 1 110.3288 780.1428)" class="st5 st6">Septiembre</text>
</g>
<line class="st0" x1="296.1" y1="749.84" x2="48.93" y2="749.84"/>
<polyline class="st0" points="309.12,874.75 301.49,884.78 293.67,874.75 "/>
<text transform="matrix(1 0 0 1 429.1812 189.2359)" class="st1 st2">2014</text>
<g>
	<text transform="matrix(1 0 0 1 373.0957 238.6537)"><tspan x="0" y="0" class="st3 st4">Se encuentran restos de cementerio </tspan><tspan x="9.48" y="13.2" class="st3 st4">indígena mientras se realizaba la</tspan><tspan x="56.26" y="26.4" class="st3 st4">construcción. </tspan></text>
	<text transform="matrix(1 0 0 1 445.4331 222.5807)" class="st5 st6">Junio</text>
</g>
<line class="st0" x1="308.48" y1="192.76" x2="555.66" y2="192.76"/>
<circle class="st7" cx="555.66" cy="192.76" r="3.91"/>
<text transform="matrix(1 0 0 1 428.5377 343.6572)" class="st1 st2">2016</text>
<g>
	<text transform="matrix(1 0 0 1 387.1945 392.7515)"><tspan x="0" y="0" class="st3 st4">Contraloría revisa legalidad del </tspan><tspan x="-15.61" y="13.2" class="st3 st4">convenio del 2011, debido a descarga</tspan><tspan x="4.88" y="26.4" class="st3 st4">de aguas residuales fuera de </tspan><tspan x="22.31" y="39.6" class="st3 st4">temporada autorizada.</tspan></text>
	<text transform="matrix(1 0 0 1 440.9798 376.6776)" class="st5 st6">Febrero</text>
</g>
<line class="st0" x1="308.35" y1="347.24" x2="555.52" y2="347.24"/>
<circle class="st7" cx="555.52" cy="347.24" r="3.91"/>
<text transform="matrix(1.0773 0 0 1 427.8517 502.8052)" class="st1 st2">2018</text>
<g>
	<text transform="matrix(1.0773 0 0 1 369.2159 550.6786)"><tspan x="0" y="0" class="st3 st8"> Superintendencia del medioambiente </tspan><tspan x="-0.27" y="12.25" class="st3 st8">aprueba el programa de cumplimiento </tspan><tspan x="51.66" y="24.51" class="st3 st8">de Alto Maipo.  </tspan></text>
	<text transform="matrix(1.0773 0 0 1 453.4297 535.5554)" class="st5 st9">Abril</text>
</g>
<line class="st0" x1="307.14" y1="506.27" x2="554.31" y2="506.27"/>
<circle class="st7" cx="554.83" cy="506.27" r="3.91"/>
<text transform="matrix(1 0 0 1 424.0779 665.141)" class="st1 st2">2020</text>
<g>
	<text transform="matrix(1 0 0 1 382.0425 716.6378)"><tspan x="0" y="0" class="st3 st4">Se lleva más del 90% de avance </tspan><tspan x="33.94" y="13.2" class="st3 st4">de la construcción. </tspan></text>
	<text transform="matrix(1 0 0 1 440.9609 699.1602)" class="st5 st6">Agosto</text>
</g>
<line class="st0" x1="306.4" y1="668.78" x2="553.57" y2="668.78"/>
<circle class="st7" cx="553.58" cy="668.78" r="3.91"/>
<text transform="matrix(1 0 0 1 424.9979 827.8729)" class="st1 st2">2023</text>
<g>
	<text transform="matrix(1 0 0 1 397.1108 877.236)" class="st3 st4">Detención funcionamiento.</text>
	<text transform="matrix(1 0 0 1 438.3294 861.4149)" class="st5 st6">Febrero</text>
</g>
<line class="st0" x1="307.33" y1="831.45" x2="554.5" y2="831.45"/>
<circle class="st7" cx="554.5" cy="831.45" r="3.91"/>
<text transform="matrix(1 0 0 1 104.06 69.4634)" class="st1 st2">2013</text>
<g>
	<text transform="matrix(1 0 0 1 46.2232 120.0758)"><tspan x="0" y="0" class="st3 st4">Comunidad accede de forma parcial a</tspan><tspan x="-1.23" y="13.2" class="st3 st4">convenio firmado. Ingresa Antofagasta</tspan><tspan x="19.59" y="26.4" class="st3 st4">Minerals (luksic) a Alto Maipo.</tspan></text>
	<text transform="matrix(1 0 0 1 120.8751 102.82)" class="st5 st6">Enero</text>
</g>
<line class="st0" x1="295.71" y1="73" x2="48.53" y2="73"/>
<circle class="st7" cx="45.66" cy="73" r="3.91"/>
<text transform="matrix(1 0 0 1 104.3359 266.2985)" class="st1 st2">2015</text>
<g>
	<text transform="matrix(1 0 0 1 68.4139 316.9527)" class="st3 st4">Marcha pacífica No Alto Maipo  </text>
	<text transform="matrix(1 0 0 1 112.1593 300.294)" class="st5 st6">Diciembre</text>
</g>
<line class="st0" x1="296.09" y1="269.89" x2="48.92" y2="269.89"/>
<circle class="st10" cx="45.94" cy="269.89" r="3.91"/>
<text transform="matrix(1 0 0 1 104.9494 424.8321)" class="st1 st2">2017</text>
<g>
	<text transform="matrix(1 0 0 1 52.7443 477.6819)"><tspan x="0" y="0" class="st3 st4">Minera los pelambres  y Antofagasta </tspan><tspan x="7.34" y="13.2" class="st3 st4">Minerals(Luksic) deja el proyecto. </tspan><tspan x="-0.61" y="26.4" class="st3 st4">Proceso administrativo sancionatorio </tspan><tspan x="44.94" y="39.6" class="st3 st4">contra Alto Maipo. </tspan></text>
	<text transform="matrix(1 0 0 1 122.7676 458.2577)" class="st5 st6">Enero</text>
</g>
<line class="st0" x1="296.7" y1="428.38" x2="49.53" y2="428.38"/>
<circle class="st7" cx="46.55" cy="428.38" r="3.91"/>
<text transform="matrix(1 0 0 1 105.5028 583.7762)" class="st1 st2">2019</text>
<g>
	<text transform="matrix(1 0 0 1 53.2755 633.3114)"><tspan x="0" y="0" class="st3 st4">Se rechaza la solicitud para detener </tspan><tspan x="29.66" y="13.2" class="st3 st4">faenas de construcción. </tspan></text>
	<text transform="matrix(1 0 0 1 122.9367 617.193)" class="st5 st6">Enero</text>
</g>
<line class="st0" x1="295.31" y1="587.53" x2="48.13" y2="587.53"/>
<circle class="st7" cx="46.72" cy="587.53" r="3.91"/>
<polyline class="st0" points="293.58,27.44 301.21,17.42 309.04,27.44 "/>
<circle class="st7" cx="48.93" cy="749.84" r="3.91"/>
<circle cx="301.45" cy="73" r="9.85"/>
<circle cx="301.31" cy="192.76" r="9.85"/>
<circle cx="301.31" cy="270" r="9.85"/>
<circle cx="301.31" cy="347.24" r="9.85"/>
<circle cx="301.31" cy="428.38" r="9.85"/>
<circle cx="301.45" cy="506.27" r="9.85"/>
<circle cx="301.45" cy="587.53" r="9.85"/>
<circle cx="301.45" cy="668.87" r="9.85"/>
<circle cx="301.45" cy="749.84" r="9.85"/>
<circle cx="301.4" cy="831.45" r="9.85"/>
</svg>
