<?xml version="1.0" encoding="UTF-8"?>
<svg id="Layer_1" data-name="Layer 1" xmlns="http://www.w3.org/2000/svg" viewBox="0 0 517.81 869.31">
  <defs>
    <style>
      .cls-1 {
        fill: none;
        stroke: #4f6384;
        stroke-miterlimit: 10;
        stroke-width: 2px;
      }

      .cls-2 {
        font-family: HelveticaNeueLTStd-BdCn, 'Helvetica Neue LT Std';
        font-size: 32px;
      }

      .cls-2, .cls-3, .cls-4, .cls-5, .cls-6, .cls-7, .cls-8, .cls-9, .cls-10, .cls-11 {
        isolation: isolate;
      }

      .cls-2, .cls-3, .cls-5, .cls-6, .cls-7, .cls-8, .cls-9, .cls-10, .cls-11 {
        fill: #231f20;
      }

      .cls-3, .cls-5, .cls-7, .cls-9, .cls-11 {
        font-family: Helvetica, Helvetica;
      }

      .cls-3, .cls-9 {
        font-size: 10.21px;
      }

      .cls-5 {
        letter-spacing: -.07em;
      }

      .cls-5, .cls-7, .cls-11 {
        font-size: 11px;
      }

      .cls-6 {
        letter-spacing: -.02em;
      }

      .cls-6, .cls-8, .cls-10 {
        font-family: HelveticaNeueLTStd-Bd, 'Helvetica Neue LT Std';
      }

      .cls-6, .cls-10 {
        font-size: 12px;
      }

      .cls-8 {
        font-size: 11.14px;
      }

      .cls-9 {
        letter-spacing: -.05em;
      }

      .cls-12 {
        fill: #685234;
      }

      .cls-11 {
        letter-spacing: -.05em;
      }
    </style>
  </defs>
  <line class="cls-1" x1="259.69" y1="3.11" x2="259.69" y2="867.67"/>
  <g class="cls-4">
    <text class="cls-2" transform="translate(62.59 729.29)"><tspan x="0" y="0">2021</tspan></text>
  </g>
  <g>
    <g class="cls-4">
      <text class="cls-7" transform="translate(37.22 780.74)"><tspan x="0" y="0">Inauguración</tspan></text>
      <text class="cls-11" transform="translate(100.82 780.74)"><tspan x="0" y="0"> </tspan></text>
      <text class="cls-7" transform="translate(103.28 780.74)"><tspan x="0" y="0">Alto Maipo.</tspan></text>
    </g>
    <g class="cls-4">
      <text class="cls-10" transform="translate(68.57 763.04)"><tspan x="0" y="0">Septiemb</tspan></text>
      <text class="cls-6" transform="translate(122.99 763.04)"><tspan x="0" y="0">r</tspan></text>
      <text class="cls-10" transform="translate(127.44 763.04)"><tspan x="0" y="0">e</tspan></text>
    </g>
  </g>
  <line class="cls-1" x1="254.34" y1="732.74" x2="7.17" y2="732.74"/>
  <polyline class="cls-1" points="267.37 857.65 259.74 867.67 251.91 857.65"/>
  <g class="cls-4">
    <text class="cls-2" transform="translate(387.43 172.13)"><tspan x="0" y="0">2014</tspan></text>
  </g>
  <g>
    <g class="cls-4">
      <text class="cls-7" transform="translate(331.34 221.55)"><tspan x="0" y="0">Se encuentran restos de cementerio </tspan></text>
      <text class="cls-7" transform="translate(340.82 234.75)"><tspan x="0" y="0">indígena mientras se realizaba la</tspan></text>
      <text class="cls-7" transform="translate(387.6 247.95)"><tspan x="0" y="0">construcción.</tspan></text>
    </g>
    <g class="cls-4">
      <text class="cls-10" transform="translate(403.68 205.47)"><tspan x="0" y="0">Junio</tspan></text>
    </g>
  </g>
  <line class="cls-1" x1="266.73" y1="175.65" x2="513.9" y2="175.65"/>
  <circle class="cls-12" cx="513.9" cy="175.65" r="3.91" transform="translate(258.2 654.78) rotate(-80.78)"/>
  <g class="cls-4">
    <text class="cls-2" transform="translate(386.78 326.55)"><tspan x="0" y="0">2016</tspan></text>
  </g>
  <g>
    <g class="cls-4">
      <text class="cls-7" transform="translate(345.44 375.64)"><tspan x="0" y="0">Contraloría revisa legalidad del </tspan></text>
      <text class="cls-7" transform="translate(330.23 388.84)"><tspan x="0" y="0">convenio del 20</tspan></text>
      <text class="cls-5" transform="translate(407.29 388.84)"><tspan x="0" y="0">1</tspan></text>
      <text class="cls-7" transform="translate(412.6 388.84)"><tspan x="0" y="0">1, debido a descarga</tspan></text>
      <text class="cls-7" transform="translate(350.32 402.04)"><tspan x="0" y="0">de aguas residuales fuera de </tspan></text>
      <text class="cls-7" transform="translate(367.75 415.24)"><tspan x="0" y="0">temporada autorizada.</tspan></text>
    </g>
    <g class="cls-4">
      <text class="cls-10" transform="translate(399.22 359.57)"><tspan x="0" y="0">Feb</tspan></text>
      <text class="cls-6" transform="translate(420.56 359.57)"><tspan x="0" y="0">r</tspan></text>
      <text class="cls-10" transform="translate(425.01 359.57)"><tspan x="0" y="0">e</tspan></text>
      <text class="cls-6" transform="translate(431.9 359.57)"><tspan x="0" y="0">r</tspan></text>
      <text class="cls-10" transform="translate(436.35 359.57)"><tspan x="0" y="0">o</tspan></text>
    </g>
  </g>
  <line class="cls-1" x1="266.59" y1="330.13" x2="513.76" y2="330.13"/>
  <circle class="cls-12" cx="513.76" cy="330.13" r="3.91" transform="translate(105.59 784.38) rotate(-80.78)"/>
  <g class="cls-4">
    <text class="cls-2" transform="translate(386.1 485.7) scale(1.08 1)"><tspan x="0" y="0">2018</tspan></text>
  </g>
  <g>
    <g class="cls-4">
      <text class="cls-3" transform="translate(327.46 533.57) scale(1.08 1)"><tspan x="0" y="0" xml:space="preserve"> Superintendencia del medioambiente </tspan></text>
      <text class="cls-3" transform="translate(327.17 545.82) scale(1.08 1)"><tspan x="0" y="0">aprueba el programa de cumplimiento </tspan></text>
      <text class="cls-3" transform="translate(383.56 558.08) scale(1.08 1)"><tspan x="0" y="0">de</tspan></text>
      <text class="cls-9" transform="translate(395.82 558.08) scale(1.08 1)"><tspan x="0" y="0"> </tspan></text>
      <text class="cls-3" transform="translate(398.28 558.08) scale(1.08 1)"><tspan x="0" y="0" xml:space="preserve">Alto Maipo.  </tspan></text>
    </g>
    <g class="cls-4">
      <text class="cls-8" transform="translate(411.67 518.45) scale(1.08 1)"><tspan x="0" y="0">Abril</tspan></text>
    </g>
  </g>
  <line class="cls-1" x1="265.38" y1="489.16" x2="512.56" y2="489.16"/>
  <circle class="cls-12" cx="513.08" cy="489.16" r="3.91" transform="translate(-51.95 917.26) rotate(-80.78)"/>
  <g class="cls-4">
    <text class="cls-2" transform="translate(382.32 648.03)"><tspan x="0" y="0">2020</tspan></text>
  </g>
  <g>
    <g class="cls-4">
      <text class="cls-7" transform="translate(340.29 699.53)"><tspan x="0" y="0">Se lleva más del 90% de avance </tspan></text>
      <text class="cls-7" transform="translate(374.23 712.73)"><tspan x="0" y="0">de la construcción.</tspan></text>
    </g>
    <g class="cls-4">
      <text class="cls-10" transform="translate(399.21 682.05)"><tspan x="0" y="0">Agosto</tspan></text>
    </g>
  </g>
  <line class="cls-1" x1="264.64" y1="651.68" x2="511.81" y2="651.68"/>
  <circle class="cls-12" cx="511.82" cy="651.68" r="3.91" transform="translate(-210.43 245.47) rotate(-22.5)"/>
  <g class="cls-4">
    <text class="cls-2" transform="translate(383.24 810.77)"><tspan x="0" y="0">2023</tspan></text>
  </g>
  <g>
    <g class="cls-4">
      <text class="cls-7" transform="translate(355.36 860.13)"><tspan x="0" y="0">Detención funcionamiento.</tspan></text>
    </g>
    <g class="cls-4">
      <text class="cls-10" transform="translate(396.57 844.31)"><tspan x="0" y="0">Feb</tspan></text>
      <text class="cls-6" transform="translate(417.91 844.31)"><tspan x="0" y="0">r</tspan></text>
      <text class="cls-10" transform="translate(422.36 844.31)"><tspan x="0" y="0">e</tspan></text>
      <text class="cls-6" transform="translate(429.25 844.31)"><tspan x="0" y="0">r</tspan></text>
      <text class="cls-10" transform="translate(433.7 844.31)"><tspan x="0" y="0">o</tspan></text>
    </g>
  </g>
  <line class="cls-1" x1="265.57" y1="814.34" x2="512.74" y2="814.34"/>
  <circle class="cls-12" cx="512.74" cy="814.34" r="3.91" transform="translate(-272.61 258.21) rotate(-22.5)"/>
  <g class="cls-4">
    <text class="cls-2" transform="translate(62.3 52.36)"><tspan x="0" y="0">2013</tspan></text>
  </g>
  <g>
    <g class="cls-4">
      <text class="cls-7" transform="translate(4.47 102.97)"><tspan x="0" y="0">Comunidad accede de forma parcial a</tspan></text>
      <text class="cls-7" transform="translate(3.54 116.17)"><tspan x="0" y="0">convenio firmado. Ingresa</tspan></text>
      <text class="cls-11" transform="translate(130.11 116.17)"><tspan x="0" y="0"> </tspan></text>
      <text class="cls-7" transform="translate(132.57 116.17)"><tspan x="0" y="0">Antofagasta</tspan></text>
      <text class="cls-7" transform="translate(24.36 129.37)"><tspan x="0" y="0">Minerals (luksic) a</tspan></text>
      <text class="cls-11" transform="translate(112.98 129.37)"><tspan x="0" y="0"> </tspan></text>
      <text class="cls-7" transform="translate(115.44 129.37)"><tspan x="0" y="0">Alto Maipo.</tspan></text>
    </g>
    <g class="cls-4">
      <text class="cls-10" transform="translate(79.12 85.71)"><tspan x="0" y="0">Ene</tspan></text>
      <text class="cls-6" transform="translate(100.9 85.71)"><tspan x="0" y="0">r</tspan></text>
      <text class="cls-10" transform="translate(105.35 85.71)"><tspan x="0" y="0">o</tspan></text>
    </g>
  </g>
  <line class="cls-1" x1="253.95" y1="55.89" x2="6.78" y2="55.89"/>
  <circle class="cls-12" cx="3.91" cy="55.89" r="3.91"/>
  <g class="cls-4">
    <text class="cls-2" transform="translate(62.58 249.19)"><tspan x="0" y="0">2015</tspan></text>
  </g>
  <g>
    <g class="cls-4">
      <text class="cls-7" transform="translate(26.66 299.85)"><tspan x="0" y="0">Marcha pacífica No</tspan></text>
      <text class="cls-11" transform="translate(121.42 299.85)"><tspan x="0" y="0"> </tspan></text>
      <text class="cls-7" transform="translate(123.88 299.85)"><tspan x="0" y="0" xml:space="preserve">Alto Maipo  </tspan></text>
    </g>
    <g class="cls-4">
      <text class="cls-10" transform="translate(70.4 283.19)"><tspan x="0" y="0">Diciemb</tspan></text>
      <text class="cls-6" transform="translate(117.46 283.19)"><tspan x="0" y="0">r</tspan></text>
      <text class="cls-10" transform="translate(121.92 283.19)"><tspan x="0" y="0">e</tspan></text>
    </g>
  </g>
  <line class="cls-1" x1="254.33" y1="252.78" x2="7.16" y2="252.78"/>
  <circle class="cls-12" cx="4.18" cy="252.78" r="3.91" transform="translate(-248.62 256.03) rotate(-89.79)"/>
  <g class="cls-4">
    <text class="cls-2" transform="translate(63.19 407.72)"><tspan x="0" y="0">2017</tspan></text>
  </g>
  <g>
    <g class="cls-4">
      <text class="cls-7" transform="translate(11.29 460.57)"><tspan x="0" y="0" xml:space="preserve">Minera los pelambres  y</tspan></text>
      <text class="cls-11" transform="translate(128.06 460.57)"><tspan x="0" y="0"> </tspan></text>
      <text class="cls-7" transform="translate(130.51 460.57)"><tspan x="0" y="0">Antofagasta </tspan></text>
      <text class="cls-7" transform="translate(18.33 473.77)"><tspan x="0" y="0">Minerals(Luksic) deja el proyecto. </tspan></text>
      <text class="cls-7" transform="translate(10.38 486.97)"><tspan x="0" y="0">Proceso administrativo sancionatorio </tspan></text>
      <text class="cls-7" transform="translate(56.23 500.17)"><tspan x="0" y="0">contra</tspan></text>
      <text class="cls-11" transform="translate(86.8 500.17)"><tspan x="0" y="0"> </tspan></text>
      <text class="cls-7" transform="translate(89.26 500.17)"><tspan x="0" y="0">Alto Maipo.</tspan></text>
    </g>
    <g class="cls-4">
      <text class="cls-10" transform="translate(81.01 441.15)"><tspan x="0" y="0">Ene</tspan></text>
      <text class="cls-6" transform="translate(102.79 441.15)"><tspan x="0" y="0">r</tspan></text>
      <text class="cls-10" transform="translate(107.24 441.15)"><tspan x="0" y="0">o</tspan></text>
    </g>
  </g>
  <line class="cls-1" x1="254.95" y1="411.27" x2="7.77" y2="411.27"/>
  <circle class="cls-12" cx="4.8" cy="411.27" r="3.91"/>
  <g class="cls-4">
    <text class="cls-2" transform="translate(63.75 566.67)"><tspan x="0" y="0">2019</tspan></text>
  </g>
  <g>
    <g class="cls-4">
      <text class="cls-7" transform="translate(11.52 616.2)"><tspan x="0" y="0">Se rechaza la solicitud para detener </tspan></text>
      <text class="cls-7" transform="translate(41.18 629.4)"><tspan x="0" y="0">faenas de construcción.</tspan></text>
    </g>
    <g class="cls-4">
      <text class="cls-10" transform="translate(81.18 600.09)"><tspan x="0" y="0">Ene</tspan></text>
      <text class="cls-6" transform="translate(102.96 600.09)"><tspan x="0" y="0">r</tspan></text>
      <text class="cls-10" transform="translate(107.41 600.09)"><tspan x="0" y="0">o</tspan></text>
    </g>
  </g>
  <line class="cls-1" x1="253.55" y1="570.43" x2="6.38" y2="570.43"/>
  <circle class="cls-12" cx="4.97" cy="570.43" r="3.91" transform="translate(-565.47 574.78) rotate(-89.94)"/>
  <polyline class="cls-1" points="251.96 11.67 259.59 1.64 267.42 11.67"/>
  <circle class="cls-12" cx="7.17" cy="732.74" r="3.91" transform="translate(-.82 0) rotate(-.06)"/>
  <circle class="cls-12" cx="259.69" cy="55.89" r="9.85"/>
  <circle class="cls-12" cx="259.55" cy="175.65" r="9.85"/>
  <circle class="cls-12" cx="259.55" cy="252.89" r="9.85"/>
  <circle class="cls-12" cx="259.55" cy="330.13" r="9.85"/>
  <circle class="cls-12" cx="259.55" cy="411.27" r="9.85"/>
  <circle class="cls-12" cx="259.69" cy="489.16" r="9.85"/>
  <circle class="cls-12" cx="259.69" cy="570.42" r="9.85"/>
  <circle class="cls-12" cx="259.69" cy="651.77" r="9.85"/>
  <circle class="cls-12" cx="259.69" cy="732.74" r="9.85"/>
  <circle class="cls-12" cx="259.64" cy="814.34" r="9.85"/>
</svg>