<?xml version="1.0" encoding="utf-8"?>
<!-- Generator: Adobe Illustrator 27.1.0, SVG Export Plug-In . SVG Version: 6.00 Build 0)  -->
<svg version="1.1" id="Capa_1" xmlns="http://www.w3.org/2000/svg" xmlns:xlink="http://www.w3.org/1999/xlink" x="0px" y="0px"
	 viewBox="0 0 800 400" style="enable-background:new 0 0 800 400;" xml:space="preserve">
<style type="text/css">
	.st0{fill:#4F6384;}
	.st1{fill:#686868;}
	.st2{fill:#7F7865;}
	.st3{fill:#AFA584;}
	.st4{fill:#E0E0E0;}
	.st5{fill:#FFDE14;}
	.st6{fill:#6078A6;}
	.st7{fill:none;stroke:#FFFFFF;stroke-miterlimit:10;}
	.st8{stroke:#FFFFFF;stroke-width:2;stroke-miterlimit:10;}
	.st9{font-family:'Helvetica';}
	.st10{font-size:10px;}
</style>
<g>
	<g id="XMLID_00000126281160786566224330000015120539694516978317_">
		<g>
			<rect x="617.39" y="374.7" class="st0" width="182.61" height="25.3"/>
			<polygon class="st1" points="800,200 800,374.7 617.39,374.7 617.39,202.39 617.39,200 			"/>
			<rect x="617.39" class="st2" width="182.61" height="200"/>
			<polygon class="st3" points="617.39,374.7 617.39,400 333.04,400 333.04,229.52 333.04,202.39 617.39,202.39 			"/>
			<polygon class="st4" points="617.39,200 617.39,202.39 333.04,202.39 333.04,0 617.39,0 			"/>
			<rect y="229.52" class="st5" width="333.04" height="170.48"/>
			<polygon class="st6" points="333.04,202.39 333.04,229.52 0,229.52 0,0 333.04,0 			"/>
		</g>
		<g>
			<polyline class="st7" points="333.04,0 333.04,202.39 333.04,229.52 333.04,400 			"/>
			<line class="st7" x1="0" y1="229.52" x2="333.04" y2="229.52"/>
			<polyline class="st7" points="617.39,0 617.39,200 617.39,202.39 617.39,374.7 617.39,400 			"/>
			<line class="st7" x1="333.04" y1="202.39" x2="617.39" y2="202.39"/>
			<line class="st7" x1="617.39" y1="200" x2="800" y2="200"/>
			<line class="st7" x1="617.39" y1="374.7" x2="800" y2="374.7"/>
			<polygon class="st7" points="800,374.7 800,400 617.39,400 333.04,400 0,400 0,229.52 0,0 333.04,0 617.39,0 800,0 800,200 			
				"/>
		</g>
	</g>
</g>
<g>
	<path class="st8" d="M10.2,8.05h0.98v2.96h3.73V8.05h0.98v7.17h-0.98v-3.35h-3.73v3.35H10.2V8.05z"/>
	<path class="st8" d="M17.28,8.05h0.89v1h-0.89V8.05z M17.28,10.01h0.89v5.21h-0.89V10.01z"/>
	<path class="st8" d="M22.39,10.15c0.16,0.1,0.33,0.27,0.53,0.51V8.02h0.84v7.2h-0.79v-0.73c-0.21,0.32-0.45,0.56-0.73,0.7
		s-0.6,0.21-0.96,0.21c-0.58,0-1.09-0.25-1.51-0.73s-0.64-1.14-0.64-1.96c0-0.76,0.19-1.42,0.58-1.98s0.94-0.84,1.67-0.84
		C21.78,9.9,22.12,9.98,22.39,10.15z M20.42,14.07c0.24,0.38,0.62,0.57,1.14,0.57c0.41,0,0.74-0.17,1-0.52s0.39-0.85,0.39-1.51
		c0-0.66-0.14-1.15-0.41-1.47s-0.6-0.48-1-0.48c-0.44,0-0.8,0.17-1.08,0.51s-0.41,0.84-0.41,1.49
		C20.06,13.23,20.18,13.69,20.42,14.07z"/>
	<path class="st8" d="M25.09,9.99h0.83v0.9c0.07-0.18,0.24-0.39,0.5-0.64S27,9.87,27.35,9.87c0.02,0,0.04,0,0.08,0
		s0.11,0.01,0.2,0.02v0.93c-0.05-0.01-0.1-0.02-0.14-0.02s-0.09,0-0.14,0c-0.44,0-0.78,0.14-1.02,0.43s-0.36,0.61-0.36,0.98v3.01
		h-0.88V9.99z"/>
	<path class="st8" d="M32.21,10.51c0.47,0.45,0.7,1.11,0.7,1.98c0,0.84-0.21,1.54-0.62,2.09s-1.05,0.83-1.91,0.83
		c-0.72,0-1.29-0.24-1.71-0.73s-0.63-1.14-0.63-1.96c0-0.88,0.22-1.58,0.67-2.1s1.04-0.78,1.8-0.78
		C31.18,9.84,31.75,10.06,32.21,10.51z M31.67,13.99c0.22-0.44,0.32-0.93,0.32-1.47c0-0.49-0.08-0.89-0.23-1.19
		c-0.25-0.48-0.67-0.72-1.28-0.72c-0.54,0-0.93,0.21-1.17,0.62s-0.37,0.9-0.37,1.48c0,0.56,0.12,1.02,0.37,1.39s0.63,0.56,1.16,0.56
		C31.05,14.65,31.45,14.43,31.67,13.99z"/>
	<path class="st8" d="M37.21,10.13c0.35,0.17,0.61,0.4,0.8,0.68c0.18,0.26,0.29,0.57,0.35,0.92c0.05,0.24,0.08,0.62,0.08,1.15H34.6
		c0.02,0.53,0.14,0.96,0.38,1.28s0.6,0.48,1.09,0.48c0.46,0,0.83-0.15,1.1-0.45c0.16-0.18,0.27-0.38,0.33-0.61h0.86
		c-0.02,0.19-0.1,0.41-0.23,0.64s-0.27,0.43-0.43,0.58c-0.27,0.26-0.6,0.44-0.99,0.53C36.5,15.38,36.26,15.4,36,15.4
		c-0.65,0-1.2-0.24-1.66-0.71s-0.68-1.14-0.68-1.99c0-0.84,0.23-1.52,0.68-2.05s1.05-0.79,1.79-0.79
		C36.5,9.87,36.86,9.96,37.21,10.13z M37.53,12.19c-0.04-0.38-0.12-0.69-0.25-0.91c-0.24-0.42-0.64-0.63-1.21-0.63
		c-0.4,0-0.74,0.15-1.02,0.44s-0.42,0.66-0.43,1.11H37.53z"/>
	<path class="st8" d="M39.54,8.05h0.88v7.17h-0.88V8.05z"/>
	<path class="st8" d="M45,10.13c0.35,0.17,0.61,0.4,0.8,0.68c0.18,0.26,0.29,0.57,0.35,0.92c0.05,0.24,0.08,0.62,0.08,1.15h-3.83
		c0.02,0.53,0.14,0.96,0.38,1.28s0.6,0.48,1.09,0.48c0.46,0,0.83-0.15,1.1-0.45c0.16-0.18,0.27-0.38,0.33-0.61h0.86
		c-0.02,0.19-0.1,0.41-0.23,0.64s-0.27,0.43-0.43,0.58c-0.27,0.26-0.6,0.44-0.99,0.53c-0.21,0.05-0.45,0.08-0.72,0.08
		c-0.65,0-1.2-0.24-1.66-0.71s-0.68-1.14-0.68-1.99c0-0.84,0.23-1.52,0.68-2.05s1.05-0.79,1.79-0.79C44.29,9.87,44.65,9.96,45,10.13
		z M45.32,12.19c-0.04-0.38-0.12-0.69-0.25-0.91c-0.24-0.42-0.64-0.63-1.21-0.63c-0.4,0-0.74,0.15-1.02,0.44s-0.42,0.66-0.43,1.11
		H45.32z M44.93,7.88l-1.3,1.41h-0.67l0.89-1.41H44.93z"/>
	<path class="st8" d="M50.75,10.27c0.37,0.29,0.59,0.78,0.67,1.48h-0.85c-0.05-0.32-0.17-0.59-0.36-0.8s-0.48-0.32-0.89-0.32
		c-0.56,0-0.96,0.27-1.2,0.82c-0.16,0.35-0.23,0.79-0.23,1.31c0,0.52,0.11,0.97,0.33,1.32s0.57,0.54,1.04,0.54
		c0.36,0,0.65-0.11,0.87-0.33s0.36-0.53,0.44-0.92h0.85c-0.1,0.69-0.34,1.2-0.73,1.52s-0.89,0.48-1.5,0.48
		c-0.68,0-1.23-0.25-1.64-0.75s-0.61-1.12-0.61-1.87c0-0.92,0.22-1.63,0.67-2.14s1.01-0.77,1.7-0.77
		C49.91,9.84,50.38,9.98,50.75,10.27z"/>
	<path class="st8" d="M52.48,8.53h0.89v1.46h0.83v0.72h-0.83v3.41c0,0.18,0.06,0.3,0.19,0.37c0.07,0.04,0.18,0.05,0.34,0.05
		c0.04,0,0.09,0,0.14,0s0.11-0.01,0.17-0.01v0.69c-0.1,0.03-0.21,0.05-0.31,0.06s-0.23,0.02-0.35,0.02c-0.41,0-0.69-0.1-0.83-0.31
		s-0.22-0.48-0.22-0.82v-3.46h-0.71V9.99h0.71V8.53z"/>
	<path class="st8" d="M55.1,9.99h0.83v0.9c0.07-0.18,0.24-0.39,0.5-0.64s0.57-0.38,0.92-0.38c0.02,0,0.04,0,0.08,0
		s0.11,0.01,0.2,0.02v0.93c-0.05-0.01-0.1-0.02-0.14-0.02s-0.09,0-0.14,0c-0.44,0-0.78,0.14-1.02,0.43s-0.36,0.61-0.36,0.98v3.01
		H55.1V9.99z"/>
	<path class="st8" d="M58.41,8.05h0.89v1h-0.89V8.05z M58.41,10.01h0.89v5.21h-0.89V10.01z"/>
	<path class="st8" d="M64.08,10.27c0.37,0.29,0.59,0.78,0.67,1.48H63.9c-0.05-0.32-0.17-0.59-0.36-0.8s-0.48-0.32-0.89-0.32
		c-0.56,0-0.96,0.27-1.2,0.82c-0.16,0.35-0.23,0.79-0.23,1.31c0,0.52,0.11,0.97,0.33,1.32s0.57,0.54,1.04,0.54
		c0.36,0,0.65-0.11,0.87-0.33s0.36-0.53,0.44-0.92h0.85c-0.1,0.69-0.34,1.2-0.73,1.52s-0.89,0.48-1.5,0.48
		c-0.68,0-1.23-0.25-1.64-0.75s-0.61-1.12-0.61-1.87c0-0.92,0.22-1.63,0.67-2.14s1.01-0.77,1.7-0.77
		C63.24,9.84,63.71,9.98,64.08,10.27z"/>
	<path class="st8" d="M68.43,12.05c0.2-0.03,0.34-0.11,0.41-0.25c0.04-0.08,0.06-0.19,0.06-0.34c0-0.3-0.11-0.52-0.32-0.65
		s-0.52-0.2-0.92-0.2c-0.46,0-0.78,0.12-0.98,0.37c-0.11,0.14-0.18,0.34-0.21,0.61h-0.82c0.02-0.64,0.23-1.09,0.63-1.35
		s0.87-0.38,1.4-0.38c0.62,0,1.11,0.12,1.5,0.35c0.38,0.23,0.57,0.6,0.57,1.09v3.01c0,0.09,0.02,0.16,0.06,0.22s0.12,0.08,0.24,0.08
		c0.04,0,0.08,0,0.13-0.01s0.1-0.01,0.16-0.02v0.65c-0.14,0.04-0.24,0.06-0.31,0.07s-0.17,0.01-0.29,0.01
		c-0.3,0-0.52-0.11-0.66-0.32c-0.07-0.11-0.12-0.27-0.15-0.48c-0.18,0.23-0.44,0.44-0.77,0.61s-0.7,0.26-1.11,0.26
		c-0.48,0-0.88-0.15-1.19-0.44s-0.46-0.66-0.46-1.11c0-0.48,0.15-0.86,0.45-1.13s0.7-0.43,1.19-0.49L68.43,12.05z M66.58,14.43
		c0.19,0.15,0.41,0.22,0.66,0.22c0.31,0,0.61-0.07,0.9-0.21c0.49-0.24,0.73-0.63,0.73-1.17v-0.71c-0.11,0.07-0.25,0.13-0.42,0.17
		s-0.34,0.08-0.5,0.1l-0.53,0.07c-0.32,0.04-0.56,0.11-0.72,0.2c-0.27,0.15-0.41,0.4-0.41,0.73C66.3,14.08,66.4,14.28,66.58,14.43z"
		/>
</g>
<g>
	<path class="st8" d="M11.75,244.39c0.02,0.41,0.12,0.74,0.29,0.99c0.32,0.47,0.89,0.71,1.7,0.71c0.36,0,0.7-0.05,1-0.16
		c0.58-0.2,0.87-0.56,0.87-1.08c0-0.39-0.12-0.67-0.37-0.83c-0.25-0.16-0.63-0.3-1.16-0.42l-0.97-0.22
		c-0.63-0.14-1.08-0.3-1.35-0.47c-0.46-0.3-0.68-0.75-0.68-1.34c0-0.64,0.22-1.17,0.67-1.59c0.45-0.41,1.08-0.62,1.89-0.62
		c0.75,0,1.39,0.18,1.92,0.54c0.53,0.36,0.79,0.94,0.79,1.74h-0.91c-0.05-0.38-0.15-0.68-0.31-0.88c-0.3-0.38-0.8-0.56-1.51-0.56
		c-0.57,0-0.98,0.12-1.24,0.36c-0.25,0.24-0.38,0.52-0.38,0.84c0,0.35,0.15,0.61,0.44,0.77c0.19,0.1,0.63,0.23,1.3,0.39l1.01,0.23
		c0.48,0.11,0.86,0.26,1.12,0.45c0.46,0.33,0.68,0.82,0.68,1.46c0,0.79-0.29,1.36-0.87,1.7s-1.25,0.51-2.01,0.51
		c-0.89,0-1.59-0.23-2.09-0.68c-0.5-0.45-0.75-1.07-0.74-1.84H11.75z"/>
	<path class="st8" d="M21.48,242c0.47,0.45,0.7,1.11,0.7,1.98c0,0.84-0.21,1.54-0.62,2.09c-0.41,0.55-1.05,0.83-1.91,0.83
		c-0.72,0-1.29-0.24-1.71-0.73c-0.42-0.49-0.63-1.14-0.63-1.96c0-0.88,0.22-1.58,0.67-2.1c0.45-0.52,1.04-0.78,1.8-0.78
		C20.45,241.33,21.02,241.55,21.48,242z M20.94,245.48c0.22-0.44,0.32-0.93,0.32-1.47c0-0.49-0.08-0.89-0.23-1.19
		c-0.25-0.48-0.67-0.72-1.28-0.72c-0.54,0-0.93,0.21-1.17,0.62s-0.37,0.9-0.37,1.48c0,0.56,0.12,1.02,0.37,1.39s0.63,0.56,1.16,0.56
		C20.32,246.14,20.72,245.92,20.94,245.48z"/>
	<path class="st8" d="M23.25,239.54h0.88v7.17h-0.88V239.54z"/>
	<path class="st8" d="M28.25,243.54c0.2-0.03,0.34-0.11,0.41-0.25c0.04-0.08,0.06-0.19,0.06-0.34c0-0.3-0.11-0.52-0.32-0.65
		c-0.21-0.13-0.52-0.2-0.92-0.2c-0.46,0-0.78,0.12-0.98,0.37c-0.11,0.14-0.18,0.34-0.21,0.61h-0.82c0.02-0.64,0.23-1.09,0.63-1.35
		c0.4-0.25,0.87-0.38,1.4-0.38c0.62,0,1.11,0.12,1.5,0.35c0.38,0.23,0.57,0.6,0.57,1.09v3.01c0,0.09,0.02,0.16,0.06,0.22
		c0.04,0.05,0.12,0.08,0.24,0.08c0.04,0,0.08,0,0.13-0.01s0.1-0.01,0.16-0.02v0.65c-0.14,0.04-0.24,0.06-0.31,0.07
		s-0.17,0.01-0.29,0.01c-0.3,0-0.52-0.11-0.66-0.32c-0.07-0.11-0.12-0.28-0.15-0.48c-0.18,0.23-0.44,0.44-0.77,0.61
		c-0.34,0.17-0.7,0.26-1.11,0.26c-0.48,0-0.88-0.15-1.19-0.44c-0.31-0.29-0.46-0.66-0.46-1.11c0-0.49,0.15-0.86,0.45-1.13
		c0.3-0.27,0.7-0.43,1.19-0.49L28.25,243.54z M26.4,245.92c0.19,0.15,0.41,0.22,0.66,0.22c0.31,0,0.61-0.07,0.9-0.21
		c0.49-0.24,0.73-0.63,0.73-1.17v-0.71c-0.11,0.07-0.25,0.12-0.42,0.17c-0.17,0.04-0.34,0.08-0.5,0.1l-0.53,0.07
		c-0.32,0.04-0.56,0.11-0.72,0.2c-0.27,0.15-0.41,0.4-0.41,0.73C26.12,245.57,26.21,245.77,26.4,245.92z"/>
	<path class="st8" d="M31.03,241.48h0.83v0.9c0.07-0.18,0.24-0.39,0.5-0.64c0.27-0.25,0.57-0.38,0.92-0.38c0.02,0,0.04,0,0.08,0
		c0.04,0,0.11,0.01,0.2,0.02v0.93c-0.05-0.01-0.1-0.02-0.14-0.02c-0.04,0-0.09,0-0.14,0c-0.44,0-0.78,0.14-1.02,0.43
		c-0.24,0.29-0.36,0.61-0.36,0.98v3.01h-0.88V241.48z"/>
</g>
<text transform="matrix(1 0 0 1 344.8927 15.8697)" class="st8 st9 st10">Carbón</text>
<g>
	<path class="st8" d="M350.5,213.65c0.71,0.38,1.15,1.03,1.31,1.97h-0.96c-0.12-0.52-0.36-0.91-0.73-1.14s-0.83-0.36-1.39-0.36
		c-0.66,0-1.22,0.25-1.68,0.75s-0.68,1.24-0.68,2.23c0,0.85,0.19,1.55,0.56,2.08c0.37,0.54,0.98,0.8,1.83,0.8
		c0.65,0,1.18-0.19,1.61-0.56s0.64-0.98,0.65-1.82h-2.25v-0.81h3.15v3.84h-0.62l-0.23-0.92c-0.33,0.36-0.62,0.61-0.87,0.75
		c-0.43,0.24-0.97,0.36-1.63,0.36c-0.85,0-1.58-0.27-2.19-0.83c-0.67-0.69-1-1.64-1-2.84c0-1.2,0.33-2.16,0.98-2.87
		c0.62-0.68,1.42-1.02,2.4-1.02C349.43,213.26,350.01,213.39,350.5,213.65z"/>
	<path class="st8" d="M356.12,217.45c0.2-0.03,0.34-0.11,0.41-0.25c0.04-0.08,0.06-0.19,0.06-0.34c0-0.3-0.11-0.52-0.32-0.65
		c-0.21-0.14-0.52-0.2-0.92-0.2c-0.46,0-0.78,0.12-0.98,0.37c-0.11,0.14-0.18,0.34-0.21,0.61h-0.82c0.02-0.64,0.23-1.09,0.63-1.34
		c0.4-0.25,0.87-0.38,1.4-0.38c0.62,0,1.11,0.12,1.5,0.35c0.38,0.23,0.57,0.6,0.57,1.09v3.01c0,0.09,0.02,0.17,0.06,0.22
		c0.04,0.06,0.12,0.08,0.24,0.08c0.04,0,0.08,0,0.13-0.01s0.1-0.01,0.16-0.02v0.65c-0.14,0.04-0.24,0.06-0.31,0.07
		s-0.17,0.01-0.29,0.01c-0.3,0-0.52-0.11-0.66-0.32c-0.07-0.11-0.12-0.27-0.15-0.48c-0.18,0.23-0.44,0.44-0.77,0.61
		c-0.34,0.17-0.7,0.26-1.11,0.26c-0.48,0-0.88-0.15-1.19-0.44c-0.31-0.29-0.46-0.66-0.46-1.11c0-0.48,0.15-0.86,0.45-1.13
		c0.3-0.27,0.7-0.43,1.19-0.49L356.12,217.45z M354.27,219.83c0.19,0.15,0.41,0.22,0.66,0.22c0.31,0,0.61-0.07,0.9-0.21
		c0.49-0.24,0.73-0.63,0.73-1.17v-0.71c-0.11,0.07-0.25,0.13-0.42,0.17c-0.17,0.05-0.34,0.08-0.5,0.1l-0.53,0.07
		c-0.32,0.04-0.56,0.11-0.72,0.2c-0.27,0.15-0.41,0.4-0.41,0.73C353.99,219.48,354.08,219.68,354.27,219.83z"/>
	<path class="st8" d="M359.4,218.98c0.03,0.29,0.1,0.52,0.22,0.67c0.22,0.28,0.61,0.42,1.15,0.42c0.33,0,0.61-0.07,0.86-0.21
		s0.37-0.36,0.37-0.66c0-0.22-0.1-0.4-0.3-0.51c-0.13-0.07-0.38-0.15-0.75-0.25l-0.7-0.18c-0.45-0.11-0.77-0.23-0.99-0.37
		c-0.38-0.24-0.57-0.57-0.57-0.99c0-0.49,0.18-0.89,0.53-1.2c0.36-0.31,0.84-0.46,1.44-0.46c0.79,0,1.36,0.23,1.7,0.69
		c0.22,0.29,0.32,0.61,0.32,0.95h-0.83c-0.02-0.2-0.09-0.38-0.21-0.54c-0.2-0.23-0.55-0.35-1.05-0.35c-0.33,0-0.58,0.06-0.75,0.19
		s-0.26,0.29-0.26,0.5c0,0.23,0.11,0.41,0.34,0.55c0.13,0.08,0.32,0.15,0.58,0.21l0.58,0.14c0.63,0.15,1.05,0.3,1.27,0.44
		c0.34,0.22,0.51,0.58,0.51,1.06c0,0.47-0.18,0.87-0.53,1.21c-0.35,0.34-0.89,0.51-1.61,0.51c-0.78,0-1.33-0.18-1.65-0.53
		c-0.32-0.35-0.5-0.79-0.52-1.31H359.4z"/>
	<path class="st8" d="M366.77,213.44h1.15l3.62,5.81v-5.81h0.92v7.17h-1.09l-3.68-5.81v5.81h-0.93V213.44z"/>
	<path class="st8" d="M376.68,217.45c0.2-0.03,0.34-0.11,0.41-0.25c0.04-0.08,0.06-0.19,0.06-0.34c0-0.3-0.11-0.52-0.32-0.65
		c-0.21-0.14-0.52-0.2-0.92-0.2c-0.46,0-0.78,0.12-0.98,0.37c-0.11,0.14-0.18,0.34-0.21,0.61h-0.82c0.02-0.64,0.23-1.09,0.63-1.34
		c0.4-0.25,0.87-0.38,1.4-0.38c0.62,0,1.11,0.12,1.5,0.35c0.38,0.23,0.57,0.6,0.57,1.09v3.01c0,0.09,0.02,0.17,0.06,0.22
		c0.04,0.06,0.12,0.08,0.24,0.08c0.04,0,0.08,0,0.13-0.01s0.1-0.01,0.16-0.02v0.65c-0.14,0.04-0.24,0.06-0.31,0.07
		s-0.17,0.01-0.29,0.01c-0.3,0-0.52-0.11-0.66-0.32c-0.07-0.11-0.12-0.27-0.15-0.48c-0.18,0.23-0.44,0.44-0.77,0.61
		c-0.34,0.17-0.7,0.26-1.11,0.26c-0.48,0-0.88-0.15-1.19-0.44c-0.31-0.29-0.46-0.66-0.46-1.11c0-0.48,0.15-0.86,0.45-1.13
		c0.3-0.27,0.7-0.43,1.19-0.49L376.68,217.45z M374.83,219.83c0.19,0.15,0.41,0.22,0.66,0.22c0.31,0,0.61-0.07,0.9-0.21
		c0.49-0.24,0.73-0.63,0.73-1.17v-0.71c-0.11,0.07-0.25,0.13-0.42,0.17c-0.17,0.05-0.34,0.08-0.5,0.1l-0.53,0.07
		c-0.32,0.04-0.56,0.11-0.72,0.2c-0.27,0.15-0.41,0.4-0.41,0.73C374.55,219.48,374.64,219.68,374.83,219.83z"/>
	<path class="st8" d="M379.61,213.93h0.89v1.46h0.83v0.72h-0.83v3.41c0,0.18,0.06,0.3,0.19,0.37c0.07,0.04,0.18,0.05,0.34,0.05
		c0.04,0,0.09,0,0.14,0c0.05,0,0.11-0.01,0.17-0.01v0.69c-0.1,0.03-0.21,0.05-0.31,0.06c-0.11,0.01-0.23,0.02-0.35,0.02
		c-0.41,0-0.69-0.1-0.83-0.31s-0.22-0.48-0.22-0.82v-3.46h-0.71v-0.72h0.71V213.93z"/>
	<path class="st8" d="M383.1,215.39v3.47c0,0.27,0.04,0.49,0.13,0.65c0.16,0.31,0.45,0.47,0.87,0.47c0.61,0,1.03-0.27,1.25-0.82
		c0.12-0.29,0.18-0.69,0.18-1.21v-2.57h0.88v5.23h-0.83l0.01-0.77c-0.11,0.2-0.26,0.37-0.42,0.5c-0.34,0.27-0.74,0.41-1.22,0.41
		c-0.75,0-1.25-0.25-1.52-0.75c-0.15-0.27-0.22-0.62-0.22-1.07v-3.55H383.1z"/>
	<path class="st8" d="M387.8,215.39h0.83v0.9c0.07-0.18,0.24-0.39,0.5-0.64c0.27-0.25,0.57-0.38,0.92-0.38c0.02,0,0.04,0,0.08,0
		c0.04,0,0.11,0.01,0.2,0.02v0.93c-0.05-0.01-0.1-0.02-0.14-0.02c-0.04,0-0.09,0-0.14,0c-0.44,0-0.78,0.14-1.02,0.43
		c-0.24,0.28-0.36,0.61-0.36,0.98v3.01h-0.88V215.39z"/>
	<path class="st8" d="M393.91,217.45c0.2-0.03,0.34-0.11,0.41-0.25c0.04-0.08,0.06-0.19,0.06-0.34c0-0.3-0.11-0.52-0.32-0.65
		c-0.21-0.14-0.52-0.2-0.92-0.2c-0.46,0-0.78,0.12-0.98,0.37c-0.11,0.14-0.18,0.34-0.21,0.61h-0.82c0.02-0.64,0.23-1.09,0.63-1.34
		c0.4-0.25,0.87-0.38,1.4-0.38c0.62,0,1.11,0.12,1.5,0.35c0.38,0.23,0.57,0.6,0.57,1.09v3.01c0,0.09,0.02,0.17,0.06,0.22
		c0.04,0.06,0.12,0.08,0.24,0.08c0.04,0,0.08,0,0.13-0.01s0.1-0.01,0.16-0.02v0.65c-0.14,0.04-0.24,0.06-0.31,0.07
		s-0.17,0.01-0.29,0.01c-0.3,0-0.52-0.11-0.66-0.32c-0.07-0.11-0.12-0.27-0.15-0.48c-0.18,0.23-0.44,0.44-0.77,0.61
		c-0.34,0.17-0.7,0.26-1.11,0.26c-0.48,0-0.88-0.15-1.19-0.44c-0.31-0.29-0.46-0.66-0.46-1.11c0-0.48,0.15-0.86,0.45-1.13
		c0.3-0.27,0.7-0.43,1.19-0.49L393.91,217.45z M392.06,219.83c0.19,0.15,0.41,0.22,0.66,0.22c0.31,0,0.61-0.07,0.9-0.21
		c0.49-0.24,0.73-0.63,0.73-1.17v-0.71c-0.11,0.07-0.25,0.13-0.42,0.17c-0.17,0.05-0.34,0.08-0.5,0.1l-0.53,0.07
		c-0.32,0.04-0.56,0.11-0.72,0.2c-0.27,0.15-0.41,0.4-0.41,0.73C391.78,219.48,391.88,219.68,392.06,219.83z"/>
	<path class="st8" d="M396.69,213.44h0.88v7.17h-0.88V213.44z"/>
</g>
<g>
	<path class="st8" d="M629.77,8.31h2.91c0.99,0,1.75,0.35,2.29,1.05c0.48,0.63,0.73,1.44,0.73,2.43c0,0.76-0.14,1.45-0.43,2.07
		c-0.5,1.09-1.37,1.63-2.6,1.63h-2.9V8.31z M632.48,14.65c0.33,0,0.6-0.03,0.81-0.1c0.38-0.13,0.69-0.37,0.93-0.73
		c0.19-0.29,0.33-0.66,0.42-1.11c0.05-0.27,0.07-0.52,0.07-0.75c0-0.89-0.18-1.58-0.53-2.07c-0.35-0.49-0.92-0.74-1.71-0.74h-1.72
		v5.51H632.48z"/>
	<path class="st8" d="M640.09,10.4c0.35,0.17,0.61,0.4,0.8,0.68c0.18,0.26,0.29,0.57,0.35,0.92c0.05,0.24,0.08,0.62,0.08,1.15h-3.83
		c0.02,0.53,0.14,0.96,0.38,1.28c0.23,0.32,0.6,0.48,1.09,0.48c0.46,0,0.83-0.15,1.1-0.45c0.16-0.18,0.27-0.38,0.33-0.61h0.86
		c-0.02,0.19-0.1,0.41-0.23,0.64c-0.13,0.24-0.27,0.43-0.43,0.58c-0.27,0.26-0.6,0.44-0.99,0.53c-0.21,0.05-0.45,0.08-0.72,0.08
		c-0.65,0-1.2-0.24-1.66-0.71c-0.45-0.47-0.68-1.14-0.68-1.99c0-0.84,0.23-1.52,0.68-2.05c0.46-0.52,1.05-0.79,1.79-0.79
		C639.38,10.14,639.74,10.22,640.09,10.4z M640.41,12.45c-0.04-0.38-0.12-0.69-0.25-0.91c-0.24-0.42-0.64-0.63-1.21-0.63
		c-0.4,0-0.74,0.15-1.02,0.44c-0.27,0.29-0.42,0.66-0.43,1.11H640.41z"/>
	<path class="st8" d="M642.42,10.25h0.83v0.9c0.07-0.18,0.24-0.39,0.5-0.64c0.27-0.25,0.57-0.38,0.92-0.38c0.02,0,0.04,0,0.08,0
		s0.11,0.01,0.2,0.02v0.93c-0.05-0.01-0.1-0.02-0.14-0.02s-0.09,0-0.14,0c-0.44,0-0.78,0.14-1.02,0.43
		c-0.24,0.29-0.36,0.61-0.36,0.98v3.01h-0.88V10.25z"/>
	<path class="st8" d="M645.72,8.31h0.89v1h-0.89V8.31z M645.72,10.28h0.89v5.21h-0.89V10.28z"/>
	<path class="st8" d="M648.37,10.25l1.4,4.26l1.46-4.26h0.96l-1.97,5.23h-0.94l-1.93-5.23H648.37z"/>
	<path class="st8" d="M655.75,12.31c0.2-0.03,0.34-0.11,0.41-0.25c0.04-0.08,0.06-0.19,0.06-0.34c0-0.3-0.11-0.52-0.32-0.65
		c-0.21-0.13-0.52-0.2-0.92-0.2c-0.46,0-0.79,0.12-0.98,0.37c-0.11,0.14-0.18,0.34-0.21,0.61h-0.82c0.02-0.64,0.23-1.09,0.63-1.35
		c0.4-0.25,0.87-0.38,1.4-0.38c0.62,0,1.11,0.12,1.5,0.35c0.38,0.23,0.57,0.6,0.57,1.09v3.01c0,0.09,0.02,0.16,0.06,0.22
		c0.04,0.06,0.12,0.08,0.24,0.08c0.04,0,0.08,0,0.13-0.01c0.05,0,0.1-0.01,0.16-0.02v0.65c-0.14,0.04-0.24,0.06-0.31,0.07
		c-0.07,0.01-0.17,0.01-0.29,0.01c-0.3,0-0.52-0.11-0.66-0.32c-0.07-0.11-0.12-0.28-0.15-0.48c-0.18,0.23-0.44,0.44-0.77,0.61
		c-0.34,0.17-0.71,0.26-1.11,0.26c-0.49,0-0.88-0.15-1.19-0.44c-0.31-0.29-0.46-0.66-0.46-1.11c0-0.49,0.15-0.86,0.45-1.13
		s0.7-0.43,1.19-0.49L655.75,12.31z M653.9,14.69c0.19,0.15,0.41,0.22,0.66,0.22c0.31,0,0.61-0.07,0.9-0.21
		c0.49-0.24,0.73-0.63,0.73-1.17v-0.71c-0.11,0.07-0.25,0.12-0.42,0.17c-0.17,0.05-0.34,0.08-0.5,0.1l-0.53,0.07
		c-0.32,0.04-0.56,0.11-0.72,0.2c-0.27,0.15-0.41,0.4-0.41,0.73C653.62,14.34,653.71,14.54,653.9,14.69z"/>
	<path class="st8" d="M661.39,10.41c0.16,0.1,0.33,0.27,0.53,0.51V8.29h0.84v7.2h-0.79v-0.73c-0.21,0.32-0.45,0.55-0.73,0.7
		c-0.28,0.14-0.6,0.21-0.96,0.21c-0.58,0-1.09-0.25-1.51-0.73c-0.43-0.49-0.64-1.14-0.64-1.96c0-0.76,0.19-1.42,0.58-1.98
		c0.39-0.56,0.95-0.84,1.67-0.84C660.79,10.16,661.12,10.25,661.39,10.41z M659.42,14.33c0.24,0.38,0.62,0.57,1.14,0.57
		c0.41,0,0.74-0.17,1-0.52c0.26-0.35,0.39-0.85,0.39-1.51c0-0.66-0.14-1.15-0.41-1.47c-0.27-0.32-0.6-0.48-1-0.48
		c-0.44,0-0.8,0.17-1.08,0.51c-0.27,0.34-0.41,0.84-0.41,1.49C659.06,13.49,659.18,13.96,659.42,14.33z"/>
	<path class="st8" d="M667.89,10.78c0.46,0.45,0.7,1.11,0.7,1.98c0,0.84-0.21,1.54-0.62,2.09s-1.05,0.83-1.91,0.83
		c-0.72,0-1.29-0.24-1.71-0.73c-0.42-0.49-0.63-1.14-0.63-1.96c0-0.88,0.22-1.58,0.67-2.1c0.45-0.52,1.04-0.78,1.8-0.78
		C666.85,10.1,667.42,10.33,667.89,10.78z M667.34,14.25c0.22-0.44,0.33-0.93,0.33-1.47c0-0.49-0.08-0.89-0.23-1.19
		c-0.25-0.48-0.67-0.72-1.28-0.72c-0.54,0-0.93,0.21-1.17,0.62s-0.37,0.91-0.37,1.48c0,0.56,0.12,1.02,0.37,1.39
		s0.63,0.56,1.16,0.56C666.72,14.92,667.12,14.7,667.34,14.25z"/>
	<path class="st8" d="M670.15,13.84c0.03,0.29,0.1,0.52,0.22,0.67c0.22,0.28,0.61,0.42,1.15,0.42c0.33,0,0.61-0.07,0.86-0.21
		c0.25-0.14,0.37-0.36,0.37-0.66c0-0.22-0.1-0.4-0.3-0.51c-0.13-0.07-0.38-0.15-0.75-0.25l-0.7-0.18c-0.45-0.11-0.78-0.23-0.99-0.37
		c-0.38-0.24-0.57-0.57-0.57-0.99c0-0.5,0.18-0.9,0.53-1.2s0.84-0.46,1.44-0.46c0.79,0,1.36,0.23,1.7,0.69
		c0.22,0.29,0.32,0.61,0.32,0.95h-0.83c-0.02-0.2-0.09-0.38-0.21-0.54c-0.2-0.23-0.55-0.35-1.05-0.35c-0.33,0-0.58,0.06-0.75,0.19
		s-0.26,0.29-0.26,0.5c0,0.23,0.11,0.41,0.34,0.55c0.13,0.08,0.32,0.15,0.58,0.21l0.58,0.14c0.63,0.15,1.05,0.3,1.27,0.44
		c0.34,0.22,0.51,0.58,0.51,1.06c0,0.47-0.18,0.87-0.53,1.21c-0.35,0.34-0.89,0.51-1.61,0.51c-0.78,0-1.33-0.18-1.65-0.53
		c-0.32-0.35-0.5-0.79-0.52-1.31H670.15z"/>
	<path class="st8" d="M680.29,10.41c0.16,0.1,0.33,0.27,0.53,0.51V8.29h0.84v7.2h-0.79v-0.73c-0.21,0.32-0.45,0.55-0.73,0.7
		c-0.28,0.14-0.6,0.21-0.96,0.21c-0.58,0-1.09-0.25-1.51-0.73c-0.43-0.49-0.64-1.14-0.64-1.96c0-0.76,0.19-1.42,0.58-1.98
		c0.39-0.56,0.95-0.84,1.67-0.84C679.69,10.16,680.02,10.25,680.29,10.41z M678.32,14.33c0.24,0.38,0.62,0.57,1.14,0.57
		c0.41,0,0.74-0.17,1-0.52c0.26-0.35,0.39-0.85,0.39-1.51c0-0.66-0.14-1.15-0.41-1.47c-0.27-0.32-0.6-0.48-1-0.48
		c-0.44,0-0.8,0.17-1.08,0.51c-0.27,0.34-0.41,0.84-0.41,1.49C677.96,13.49,678.08,13.96,678.32,14.33z"/>
	<path class="st8" d="M686.23,10.4c0.35,0.17,0.61,0.4,0.79,0.68c0.18,0.26,0.29,0.57,0.35,0.92c0.05,0.24,0.08,0.62,0.08,1.15
		h-3.83c0.02,0.53,0.14,0.96,0.38,1.28c0.23,0.32,0.6,0.48,1.09,0.48c0.46,0,0.82-0.15,1.1-0.45c0.16-0.18,0.27-0.38,0.33-0.61h0.87
		c-0.02,0.19-0.1,0.41-0.23,0.64c-0.13,0.24-0.27,0.43-0.43,0.58c-0.27,0.26-0.6,0.44-0.99,0.53c-0.21,0.05-0.45,0.08-0.72,0.08
		c-0.65,0-1.2-0.24-1.65-0.71c-0.45-0.47-0.68-1.14-0.68-1.99c0-0.84,0.23-1.52,0.68-2.05c0.46-0.52,1.05-0.79,1.79-0.79
		C685.52,10.14,685.88,10.22,686.23,10.4z M686.55,12.45c-0.04-0.38-0.12-0.69-0.25-0.91c-0.24-0.42-0.64-0.63-1.21-0.63
		c-0.4,0-0.74,0.15-1.02,0.44c-0.27,0.29-0.42,0.66-0.43,1.11H686.55z"/>
	<path class="st8" d="M688.55,8.31h0.88v7.17h-0.88V8.31z"/>
	<path class="st8" d="M693.74,8.31h3.23c0.64,0,1.15,0.18,1.54,0.54c0.39,0.36,0.59,0.86,0.59,1.52c0,0.56-0.17,1.05-0.52,1.46
		c-0.35,0.41-0.88,0.62-1.61,0.62h-2.26v3.03h-0.97V8.31z M697.53,9.3c-0.21-0.1-0.51-0.15-0.88-0.15h-1.93v2.49h1.93
		c0.44,0,0.79-0.09,1.06-0.28c0.27-0.19,0.41-0.51,0.41-0.98C698.12,9.84,697.92,9.48,697.53,9.3z"/>
	<path class="st8" d="M703.46,10.4c0.35,0.17,0.61,0.4,0.8,0.68c0.18,0.26,0.29,0.57,0.35,0.92c0.05,0.24,0.08,0.62,0.08,1.15h-3.83
		c0.02,0.53,0.14,0.96,0.38,1.28c0.23,0.32,0.6,0.48,1.09,0.48c0.46,0,0.83-0.15,1.1-0.45c0.16-0.18,0.27-0.38,0.33-0.61h0.86
		c-0.02,0.19-0.1,0.41-0.23,0.64c-0.13,0.24-0.27,0.43-0.43,0.58c-0.27,0.26-0.6,0.44-0.99,0.53c-0.21,0.05-0.45,0.08-0.72,0.08
		c-0.65,0-1.2-0.24-1.66-0.71c-0.45-0.47-0.68-1.14-0.68-1.99c0-0.84,0.23-1.52,0.68-2.05s1.05-0.79,1.79-0.79
		C702.75,10.14,703.11,10.22,703.46,10.4z M703.78,12.45c-0.04-0.38-0.12-0.69-0.25-0.91c-0.24-0.42-0.64-0.63-1.21-0.63
		c-0.4,0-0.74,0.15-1.02,0.44c-0.27,0.29-0.42,0.66-0.43,1.11H703.78z"/>
	<path class="st8" d="M705.94,8.79h0.89v1.46h0.83v0.72h-0.83v3.41c0,0.18,0.06,0.3,0.19,0.37c0.07,0.04,0.18,0.05,0.34,0.05
		c0.04,0,0.09,0,0.14,0c0.05,0,0.11,0,0.17-0.01v0.69c-0.1,0.03-0.21,0.05-0.32,0.06c-0.11,0.01-0.23,0.02-0.35,0.02
		c-0.41,0-0.69-0.1-0.83-0.32c-0.15-0.21-0.22-0.48-0.22-0.82v-3.46h-0.71v-0.72h0.71V8.79z"/>
	<path class="st8" d="M708.56,10.25h0.83v0.9c0.07-0.18,0.24-0.39,0.5-0.64c0.27-0.25,0.57-0.38,0.92-0.38c0.02,0,0.04,0,0.08,0
		s0.11,0.01,0.2,0.02v0.93c-0.05-0.01-0.1-0.02-0.14-0.02c-0.04,0-0.09,0-0.14,0c-0.44,0-0.78,0.14-1.02,0.43
		c-0.24,0.29-0.36,0.61-0.36,0.98v3.01h-0.88V10.25z"/>
	<path class="st8" d="M715.69,10.78c0.47,0.45,0.7,1.11,0.7,1.98c0,0.84-0.21,1.54-0.62,2.09s-1.05,0.83-1.91,0.83
		c-0.72,0-1.29-0.24-1.71-0.73c-0.42-0.49-0.63-1.14-0.63-1.96c0-0.88,0.22-1.58,0.67-2.1s1.04-0.78,1.8-0.78
		C714.65,10.1,715.22,10.33,715.69,10.78z M715.14,14.25c0.22-0.44,0.33-0.93,0.33-1.47c0-0.49-0.08-0.89-0.23-1.19
		c-0.25-0.48-0.67-0.72-1.28-0.72c-0.54,0-0.93,0.21-1.17,0.62s-0.37,0.91-0.37,1.48c0,0.56,0.12,1.02,0.37,1.39
		s0.63,0.56,1.16,0.56C714.53,14.92,714.93,14.7,715.14,14.25z M715,8.15l-1.3,1.41h-0.67l0.89-1.41H715z"/>
	<path class="st8" d="M717.46,8.31h0.88v7.17h-0.88V8.31z"/>
	<path class="st8" d="M722.91,10.4c0.35,0.17,0.61,0.4,0.8,0.68c0.18,0.26,0.29,0.57,0.35,0.92c0.05,0.24,0.08,0.62,0.08,1.15h-3.83
		c0.02,0.53,0.14,0.96,0.38,1.28c0.23,0.32,0.6,0.48,1.09,0.48c0.46,0,0.83-0.15,1.1-0.45c0.16-0.18,0.27-0.38,0.33-0.61h0.86
		c-0.02,0.19-0.1,0.41-0.23,0.64c-0.13,0.24-0.27,0.43-0.43,0.58c-0.27,0.26-0.6,0.44-0.99,0.53c-0.21,0.05-0.45,0.08-0.72,0.08
		c-0.65,0-1.2-0.24-1.66-0.71c-0.45-0.47-0.68-1.14-0.68-1.99c0-0.84,0.23-1.52,0.68-2.05s1.05-0.79,1.79-0.79
		C722.2,10.14,722.56,10.22,722.91,10.4z M723.23,12.45c-0.04-0.38-0.12-0.69-0.25-0.91c-0.24-0.42-0.64-0.63-1.21-0.63
		c-0.4,0-0.74,0.15-1.02,0.44c-0.27,0.29-0.42,0.66-0.43,1.11H723.23z"/>
	<path class="st8" d="M729.03,10.78c0.47,0.45,0.7,1.11,0.7,1.98c0,0.84-0.21,1.54-0.62,2.09s-1.05,0.83-1.91,0.83
		c-0.72,0-1.29-0.24-1.71-0.73c-0.42-0.49-0.63-1.14-0.63-1.96c0-0.88,0.22-1.58,0.67-2.1s1.04-0.78,1.8-0.78
		C728,10.1,728.57,10.33,729.03,10.78z M728.49,14.25c0.22-0.44,0.33-0.93,0.33-1.47c0-0.49-0.08-0.89-0.23-1.19
		c-0.25-0.48-0.67-0.72-1.28-0.72c-0.54,0-0.93,0.21-1.17,0.62s-0.37,0.91-0.37,1.48c0,0.56,0.12,1.02,0.37,1.39
		s0.63,0.56,1.16,0.56C727.87,14.92,728.27,14.7,728.49,14.25z"/>
</g>
<g>
	<path class="st8" d="M630.78,207.64h5.23v0.88h-4.28v2.18h3.96v0.83h-3.96v2.43h4.36v0.85h-5.3V207.64z"/>
	<path class="st8" d="M641.06,210.1c0.46,0.45,0.7,1.11,0.7,1.98c0,0.84-0.21,1.54-0.62,2.09s-1.05,0.83-1.91,0.83
		c-0.72,0-1.29-0.24-1.71-0.73c-0.42-0.49-0.63-1.14-0.63-1.96c0-0.88,0.22-1.58,0.67-2.1c0.45-0.52,1.04-0.78,1.8-0.78
		C640.03,209.43,640.6,209.65,641.06,210.1z M640.52,213.58c0.22-0.44,0.33-0.93,0.33-1.47c0-0.49-0.08-0.89-0.23-1.19
		c-0.25-0.48-0.67-0.72-1.28-0.72c-0.54,0-0.93,0.21-1.17,0.62s-0.37,0.91-0.37,1.48c0,0.56,0.12,1.02,0.37,1.39
		s0.63,0.56,1.16,0.56C639.9,214.24,640.3,214.02,640.52,213.58z M640.37,207.47l-1.3,1.41h-0.67l0.89-1.41H640.37z"/>
	<path class="st8" d="M642.83,207.64h0.88v7.17h-0.88V207.64z"/>
	<path class="st8" d="M645.03,207.64h0.89v1h-0.89V207.64z M645.03,209.6h0.89v5.21h-0.89V209.6z"/>
	<path class="st8" d="M650.7,209.86c0.37,0.29,0.59,0.78,0.67,1.48h-0.85c-0.05-0.32-0.17-0.59-0.36-0.8
		c-0.19-0.21-0.48-0.32-0.89-0.32c-0.56,0-0.96,0.27-1.2,0.82c-0.16,0.35-0.23,0.79-0.23,1.31c0,0.52,0.11,0.96,0.33,1.32
		c0.22,0.36,0.57,0.54,1.04,0.54c0.36,0,0.65-0.11,0.87-0.33c0.21-0.22,0.36-0.53,0.44-0.92h0.85c-0.1,0.69-0.34,1.2-0.73,1.52
		c-0.39,0.32-0.89,0.48-1.5,0.48c-0.68,0-1.23-0.25-1.64-0.75c-0.41-0.5-0.61-1.12-0.61-1.87c0-0.92,0.22-1.63,0.67-2.14
		c0.45-0.51,1.01-0.77,1.7-0.77C649.85,209.43,650.33,209.57,650.7,209.86z"/>
	<path class="st8" d="M656.07,210.1c0.46,0.45,0.7,1.11,0.7,1.98c0,0.84-0.21,1.54-0.62,2.09s-1.05,0.83-1.91,0.83
		c-0.72,0-1.29-0.24-1.71-0.73c-0.42-0.49-0.63-1.14-0.63-1.96c0-0.88,0.22-1.58,0.67-2.1c0.45-0.52,1.04-0.78,1.8-0.78
		C655.03,209.43,655.6,209.65,656.07,210.1z M655.52,213.58c0.22-0.44,0.33-0.93,0.33-1.47c0-0.49-0.08-0.89-0.23-1.19
		c-0.25-0.48-0.67-0.72-1.28-0.72c-0.54,0-0.93,0.21-1.17,0.62s-0.37,0.91-0.37,1.48c0,0.56,0.12,1.02,0.37,1.39
		s0.63,0.56,1.16,0.56C654.91,214.24,655.31,214.02,655.52,213.58z"/>
</g>
<g>
	<path class="st8" d="M630.67,381.15h3.08c0.84,0,1.44,0.25,1.79,0.75c0.21,0.3,0.31,0.64,0.31,1.03c0,0.45-0.13,0.82-0.39,1.11
		c-0.13,0.15-0.33,0.29-0.58,0.42c0.37,0.14,0.64,0.3,0.83,0.47c0.32,0.31,0.48,0.74,0.48,1.29c0,0.46-0.14,0.88-0.43,1.25
		c-0.43,0.56-1.12,0.84-2.07,0.84h-3.03V381.15z M633.39,384.18c0.41,0,0.73-0.06,0.96-0.17c0.36-0.18,0.54-0.5,0.54-0.97
		c0-0.47-0.19-0.78-0.57-0.95c-0.21-0.09-0.53-0.14-0.96-0.14h-1.73v2.22H633.39z M633.71,387.49c0.6,0,1.02-0.17,1.27-0.52
		c0.16-0.22,0.24-0.48,0.24-0.79c0-0.52-0.23-0.88-0.7-1.06c-0.25-0.1-0.57-0.15-0.98-0.15h-1.93v2.52H633.71z"/>
	<path class="st8" d="M637.24,381.15h0.89v1h-0.89V381.15z M637.24,383.12h0.89v5.21h-0.89V383.12z"/>
	<path class="st8" d="M643.28,383.62c0.47,0.45,0.7,1.11,0.7,1.98c0,0.84-0.21,1.54-0.62,2.09s-1.05,0.83-1.91,0.83
		c-0.72,0-1.29-0.24-1.71-0.73c-0.42-0.49-0.63-1.14-0.63-1.96c0-0.88,0.22-1.58,0.67-2.1c0.45-0.52,1.04-0.78,1.8-0.78
		C642.25,382.94,642.82,383.17,643.28,383.62z M642.74,387.1c0.22-0.44,0.32-0.93,0.32-1.47c0-0.49-0.08-0.89-0.23-1.19
		c-0.25-0.48-0.67-0.72-1.28-0.72c-0.54,0-0.93,0.21-1.17,0.62s-0.37,0.91-0.37,1.48c0,0.56,0.12,1.02,0.37,1.39
		s0.63,0.56,1.16,0.56C642.12,387.76,642.52,387.54,642.74,387.1z"/>
	<path class="st8" d="M645.03,383.09h0.87v0.74c0.21-0.26,0.4-0.44,0.57-0.56c0.29-0.2,0.62-0.3,0.99-0.3c0.42,0,0.75,0.1,1.01,0.31
		c0.14,0.12,0.27,0.29,0.39,0.52c0.2-0.28,0.42-0.49,0.69-0.62c0.26-0.13,0.56-0.2,0.89-0.2c0.7,0,1.18,0.25,1.44,0.76
		c0.14,0.27,0.21,0.64,0.21,1.1v3.48h-0.91v-3.63c0-0.35-0.09-0.59-0.26-0.72c-0.17-0.13-0.39-0.2-0.64-0.2
		c-0.34,0-0.64,0.12-0.89,0.35s-0.37,0.62-0.37,1.16v3.04h-0.89v-3.41c0-0.35-0.04-0.61-0.13-0.78c-0.13-0.24-0.38-0.37-0.75-0.37
		c-0.33,0-0.63,0.13-0.91,0.39c-0.27,0.26-0.41,0.72-0.41,1.4v2.77h-0.88V383.09z"/>
	<path class="st8" d="M656.16,385.16c0.2-0.03,0.34-0.11,0.41-0.25c0.04-0.08,0.06-0.19,0.06-0.34c0-0.3-0.11-0.52-0.32-0.65
		c-0.21-0.13-0.52-0.2-0.92-0.2c-0.46,0-0.78,0.12-0.98,0.37c-0.11,0.14-0.18,0.34-0.21,0.61h-0.82c0.02-0.64,0.23-1.09,0.63-1.35
		c0.4-0.25,0.87-0.38,1.4-0.38c0.62,0,1.12,0.12,1.5,0.35c0.38,0.23,0.57,0.6,0.57,1.09v3.01c0,0.09,0.02,0.16,0.06,0.22
		c0.04,0.06,0.12,0.08,0.24,0.08c0.04,0,0.08,0,0.13-0.01c0.05,0,0.1-0.01,0.16-0.02v0.65c-0.14,0.04-0.24,0.06-0.31,0.07
		c-0.07,0.01-0.17,0.01-0.29,0.01c-0.3,0-0.52-0.11-0.66-0.32c-0.07-0.11-0.12-0.28-0.15-0.48c-0.18,0.23-0.44,0.44-0.77,0.61
		c-0.33,0.17-0.7,0.26-1.11,0.26c-0.48,0-0.88-0.15-1.19-0.44c-0.31-0.29-0.46-0.66-0.46-1.11c0-0.49,0.15-0.86,0.45-1.13
		s0.7-0.43,1.19-0.49L656.16,385.16z M654.31,387.53c0.19,0.15,0.41,0.22,0.66,0.22c0.31,0,0.61-0.07,0.9-0.21
		c0.49-0.24,0.73-0.63,0.73-1.17v-0.71c-0.11,0.07-0.25,0.12-0.42,0.17c-0.17,0.05-0.33,0.08-0.5,0.1l-0.53,0.07
		c-0.32,0.04-0.56,0.11-0.72,0.2c-0.27,0.15-0.41,0.4-0.41,0.73C654.03,387.19,654.12,387.39,654.31,387.53z"/>
	<path class="st8" d="M659.44,386.68c0.03,0.29,0.1,0.52,0.22,0.67c0.22,0.28,0.61,0.42,1.15,0.42c0.33,0,0.61-0.07,0.86-0.21
		c0.25-0.14,0.37-0.36,0.37-0.66c0-0.22-0.1-0.4-0.3-0.51c-0.13-0.07-0.38-0.15-0.75-0.25l-0.7-0.18c-0.45-0.11-0.77-0.23-0.99-0.37
		c-0.38-0.24-0.57-0.57-0.57-0.99c0-0.5,0.18-0.9,0.54-1.2s0.84-0.46,1.44-0.46c0.79,0,1.36,0.23,1.7,0.69
		c0.22,0.29,0.32,0.61,0.32,0.95h-0.83c-0.02-0.2-0.09-0.38-0.21-0.54c-0.2-0.23-0.55-0.35-1.05-0.35c-0.33,0-0.58,0.06-0.75,0.19
		s-0.26,0.29-0.26,0.5c0,0.23,0.11,0.41,0.34,0.55c0.13,0.08,0.32,0.15,0.58,0.21l0.58,0.14c0.63,0.15,1.05,0.3,1.27,0.44
		c0.34,0.22,0.51,0.58,0.51,1.06c0,0.47-0.18,0.87-0.53,1.21c-0.35,0.34-0.89,0.51-1.61,0.51c-0.78,0-1.33-0.18-1.65-0.53
		c-0.32-0.35-0.5-0.79-0.52-1.31H659.44z"/>
	<path class="st8" d="M666.72,385.16c0.2-0.03,0.34-0.11,0.41-0.25c0.04-0.08,0.06-0.19,0.06-0.34c0-0.3-0.11-0.52-0.32-0.65
		c-0.21-0.13-0.52-0.2-0.92-0.2c-0.46,0-0.78,0.12-0.98,0.37c-0.11,0.14-0.18,0.34-0.21,0.61h-0.82c0.02-0.64,0.23-1.09,0.63-1.35
		c0.4-0.25,0.87-0.38,1.4-0.38c0.62,0,1.12,0.12,1.5,0.35c0.38,0.23,0.57,0.6,0.57,1.09v3.01c0,0.09,0.02,0.16,0.06,0.22
		c0.04,0.06,0.12,0.08,0.24,0.08c0.04,0,0.08,0,0.13-0.01c0.05,0,0.1-0.01,0.16-0.02v0.65c-0.14,0.04-0.24,0.06-0.31,0.07
		c-0.07,0.01-0.17,0.01-0.29,0.01c-0.3,0-0.52-0.11-0.66-0.32c-0.07-0.11-0.12-0.28-0.15-0.48c-0.18,0.23-0.44,0.44-0.77,0.61
		c-0.33,0.17-0.7,0.26-1.11,0.26c-0.48,0-0.88-0.15-1.19-0.44c-0.31-0.29-0.46-0.66-0.46-1.11c0-0.49,0.15-0.86,0.45-1.13
		s0.7-0.43,1.19-0.49L666.72,385.16z M664.87,387.53c0.19,0.15,0.41,0.22,0.66,0.22c0.31,0,0.61-0.07,0.9-0.21
		c0.49-0.24,0.73-0.63,0.73-1.17v-0.71c-0.11,0.07-0.25,0.12-0.42,0.17c-0.17,0.05-0.33,0.08-0.5,0.1l-0.53,0.07
		c-0.32,0.04-0.56,0.11-0.72,0.2c-0.27,0.15-0.41,0.4-0.41,0.73C664.59,387.19,664.68,387.39,664.87,387.53z"/>
</g>
<text transform="matrix(1 0 0 1 9.4142 15.2186)" class="st9 st10">Hidroeléctrica</text>
<text transform="matrix(1 0 0 1 10.35 246.7085)" class="st9 st10">Solar</text>
<text transform="matrix(1 0 0 1 344.8928 15.8697)" class="st9 st10">Carbón</text>
<text transform="matrix(1 0 0 1 344.8926 220.8165)" class="st9 st10">Gas Natural</text>
<text transform="matrix(1 0 0 1 628.9259 15.4825)" class="st9 st10">Derivados del Petróleo</text>
<text transform="matrix(1 0 0 1 629.9296 214.8088)" class="st9 st10">Eólico</text>
<text transform="matrix(1 0 0 1 629.9283 388.3239)" class="st9 st10">Biomasa</text>
</svg>
