<?xml version="1.0" encoding="utf-8"?>
<!-- Generator: Adobe Illustrator 22.0.1, SVG Export Plug-In . SVG Version: 6.00 Build 0)  -->
<svg version="1.1" id="Layer_1" xmlns="http://www.w3.org/2000/svg" xmlns:xlink="http://www.w3.org/1999/xlink" x="0px" y="0px"
	 viewBox="0 0 518.6 706.9" style="enable-background:new 0 0 518.6 706.9;" xml:space="preserve">
<style type="text/css">
	.st0{fill:none;stroke:#231F20;stroke-width:3;stroke-miterlimit:10;}
	.st1{fill:#312F81;}
	.st2{fill:#231F20;}
	.st3{font-family:'HelveticaNeueLTStd-BdCn';}
	.st4{font-size:32px;}
	.st5{font-family:'Helvetica';}
	.st6{font-size:11px;}
	.st7{font-family:'HelveticaNeueLTStd-Bd';}
	.st8{font-size:12px;}
	.st9{fill:none;stroke:#231F20;stroke-width:2;stroke-miterlimit:10;}
	.st10{fill:none;stroke:#231F20;stroke-width:0.75;stroke-miterlimit:10;}
	.st11{letter-spacing:-1;}
</style>
<title>cronología alto mapio</title>
<line class="st0" x1="260.1" y1="-35.7" x2="260.1" y2="1434.2"/>
<g>
	<g>
		<path class="st1" d="M246,1299.7c0,7.7,6.2,13.9,13.9,13.9c7.7,0,13.9-6.2,13.9-13.9c0-7.7-6.2-13.9-13.9-13.9c0,0,0,0,0,0
			C252.2,1285.8,246,1292.1,246,1299.7"/>
		<polyline class="st0" points="252.4,-25.7 260.1,-35.7 267.9,-25.7 		"/>
		<polyline class="st0" points="267.8,1424.1 260.1,1434.2 252.3,1424.1 		"/>
	</g>
</g>
<text transform="matrix(1 0 0 1 383.08 56)" class="st2 st3 st4">2007</text>
<text transform="matrix(1 0 0 1 335.17 103.19)" class="st2 st5 st6">Estudio del Impacto</text>
<text transform="matrix(1 0 0 1 431.78 103.19)" class="st2 st5 st6"> </text>
<text transform="matrix(1 0 0 1 434.25 103.19)" class="st2 st5 st6">Ambiental del</text>
<text transform="matrix(1 0 0 1 333.96 116.39)" class="st2 st5 st6">Proyecto Hidroeléctrica</text>
<text transform="matrix(1 0 0 1 447.67 116.39)" class="st2 st5 st6"> </text>
<text transform="matrix(1 0 0 1 450.14 116.39)" class="st2 st5 st6">Alto Maipo.</text>
<text transform="matrix(1 0 0 1 402.78 89.23)" class="st2 st7 st8">Junio</text>
<text transform="matrix(1 0 0 1 339.17 162.84)" class="st2 st5 st6">Suspención de la evaluación del</text>
<text transform="matrix(1 0 0 1 332.46 176.04)" class="st2 st5 st6">Proyecto Hidroeléctrica</text>
<text transform="matrix(1 0 0 1 446.17 176.04)" class="st2 st5 st6"> </text>
<text transform="matrix(1 0 0 1 448.64 176.04)" class="st2 st5 st6">Alto Maipo.</text>
<text transform="matrix(1 0 0 1 396.41 146.77)" class="st2 st7 st8">Octub</text>
<text transform="matrix(1 0 0 1 431.31 146.77)" class="st2 st7 st8">r</text>
<text transform="matrix(1 0 0 1 435.77 146.77)" class="st2 st7 st8">e</text>
<g>
	<g>
		<line class="st9" x1="265.3" y1="59.5" x2="512.5" y2="59.5"/>
		<path class="st1" d="M274,60c0,7.7-6.2,13.9-13.9,13.9c-7.7,0-13.9-6.2-13.9-13.9c0-7.7,6.2-13.9,13.9-13.9c0,0,0,0,0,0
			C267.8,46.1,274,52.3,274,60"/>
		<path class="st2" d="M516.4,59.5c0,2.2-1.8,3.9-3.9,3.9c-2.2,0-3.9-1.8-3.9-3.9c0-2.2,1.8-3.9,3.9-3.9c0,0,0,0,0,0
			C514.6,55.5,516.4,57.3,516.4,59.5C516.4,59.5,516.4,59.5,516.4,59.5"/>
		<path class="st10" d="M516.4,59.5c0,2.2-1.8,3.9-3.9,3.9c-2.2,0-3.9-1.8-3.9-3.9c0-2.2,1.8-3.9,3.9-3.9c0,0,0,0,0,0
			C514.6,55.5,516.4,57.3,516.4,59.5C516.4,59.5,516.4,59.5,516.4,59.5z"/>
	</g>
</g>
<text transform="matrix(1 0 0 1 383.08 234.6)" class="st2 st3 st4">2009</text>
<text transform="matrix(1 0 0 1 337.37 284.41)" class="st2 st5 st6">Se aprueba el estudio de impacto</text>
<text transform="matrix(1 0 0 1 395.47 297.61)" class="st2 st5 st6">ambiental.</text>
<text transform="matrix(1 0 0 1 399.9 268.23)" class="st2 st7 st8">Marzo</text>
<text transform="matrix(1 0 0 1 327.29 343.11)" class="st2 st5 st6">Comisión de recursos naturales de la</text>
<text transform="matrix(1 0 0 1 326.97 356.31)" class="st2 st5 st6">cámara de diputados concluye que el</text>
<text transform="matrix(1 0 0 1 338.7 369.51)" class="st2 st5 st6 st11">P</text>
<text transform="matrix(1 0 0 1 344.63 369.51)" class="st2 st5 st6">.H.A.M. no debió ser aprobado,</text>
<text transform="matrix(1 0 0 1 341.03 382.71)" class="st2 st5 st6">debido a que iba a afectar en la</text>
<text transform="matrix(1 0 0 1 330.65 395.91)" class="st2 st5 st6">calidad, seguridad y abastecimiento</text>
<text transform="matrix(1 0 0 1 347.14 409.11)" class="st2 st5 st6">de agua potable en santiago.</text>
<text transform="matrix(1 0 0 1 392.55 327)" class="st2 st7 st8">Diciemb</text>
<text transform="matrix(1 0 0 1 439.61 327)" class="st2 st7 st8">r</text>
<text transform="matrix(1 0 0 1 444.08 327)" class="st2 st7 st8">e</text>
<g>
	<g>
		<line class="st9" x1="265.3" y1="238.1" x2="512.5" y2="238.1"/>
		<path class="st1" d="M274,238.7c0,7.7-6.2,13.9-13.9,13.9c-7.7,0-13.9-6.2-13.9-13.9c0-7.7,6.2-13.9,13.9-13.9c0,0,0,0,0,0
			C267.8,224.7,274,231,274,238.7"/>
		<path class="st2" d="M516.4,238.1c0,2.2-1.8,3.9-3.9,3.9c-2.2,0-3.9-1.8-3.9-3.9c0-2.2,1.8-3.9,3.9-3.9c0,0,0,0,0,0
			C514.6,234.2,516.4,236,516.4,238.1C516.4,238.1,516.4,238.1,516.4,238.1"/>
		<path class="st10" d="M516.4,238.1c0,2.2-1.8,3.9-3.9,3.9c-2.2,0-3.9-1.8-3.9-3.9c0-2.2,1.8-3.9,3.9-3.9c0,0,0,0,0,0
			C514.6,234.2,516.4,236,516.4,238.1C516.4,238.1,516.4,238.1,516.4,238.1z"/>
	</g>
</g>
<text transform="matrix(1 0 0 1 387.01 472.49)" class="st2 st3 st4">2012</text>
<text transform="matrix(1 0 0 1 332.12 521.08)" class="st2 st5 st6">AES Gener inicia la construcción de</text>
<text transform="matrix(1 0 0 1 327.53 534.29)" class="st2 st5 st6">las obras de deforestación del PHAM.</text>
<text transform="matrix(1 0 0 1 396.98 505.19)" class="st2 st7 st8">Feb</text>
<text transform="matrix(1 0 0 1 418.32 505.19)" class="st2 st7 st8">r</text>
<text transform="matrix(1 0 0 1 422.78 505.19)" class="st2 st7 st8">e</text>
<text transform="matrix(1 0 0 1 429.67 505.19)" class="st2 st7 st8">r</text>
<text transform="matrix(1 0 0 1 434.13 505.19)" class="st2 st7 st8">o</text>
<text transform="matrix(1 0 0 1 341 578.96)" class="st2 st5 st6">AES Gener culmina contratos de</text>
<text transform="matrix(1 0 0 1 330.29 592.16)" class="st2 st5 st6">obras de construcción para el PHAM.</text>
<text transform="matrix(1 0 0 1 400.25 563.16)" class="st2 st7 st8">Agosto</text>
<text transform="matrix(1 0 0 1 387.01 620.63)" class="st2 st7 st8">Noviemb</text>
<text transform="matrix(1 0 0 1 437.66 620.63)" class="st2 st7 st8">r</text>
<text transform="matrix(1 0 0 1 442.13 620.63)" class="st2 st7 st8">e</text>
<text transform="matrix(1 0 0 1 327.35 636.78)" class="st2 st5 st6">El grupo constructor Strabag</text>
<text transform="matrix(1 0 0 1 467.37 636.78)" class="st2 st5 st6"> </text>
<text transform="matrix(1 0 0 1 469.83 636.78)" class="st2 st5 st6">Adjudicó</text>
<text transform="matrix(1 0 0 1 337.45 649.98)" class="st2 st5 st6">un primer contrato parcial para la</text>
<text transform="matrix(1 0 0 1 355.79 663.18)" class="st2 st5 st6">construcción de la central</text>
<text transform="matrix(1 0 0 1 383.92 676.38)" class="st2 st5 st6">hidroeléctrica.</text>
<g>
	<g>
		<line class="st9" x1="267.2" y1="476" x2="514.4" y2="476"/>
		<path class="st1" d="M275.9,476.6c0,7.7-6.2,13.9-13.9,13.9c-7.7,0-13.9-6.2-13.9-13.9c0-7.7,6.2-13.9,13.9-13.9l0,0
			C269.7,462.6,275.9,468.9,275.9,476.6"/>
		<path class="st2" d="M517.8,476c0,2.2-1.7,3.9-3.9,3.9c-2.2,0-3.9-1.7-3.9-3.9c0-2.2,1.7-3.9,3.9-3.9c0,0,0,0,0,0
			C516,472.1,517.8,473.9,517.8,476"/>
		<path class="st10" d="M517.8,476c0,2.2-1.7,3.9-3.9,3.9c-2.2,0-3.9-1.7-3.9-3.9c0-2.2,1.7-3.9,3.9-3.9c0,0,0,0,0,0
			C516,472.1,517.8,473.9,517.8,476z"/>
	</g>
</g>
<g>
	<g>
		<path class="st9" d="M267.1,742.1"/>
		<path class="st1" d="M275.8,742.6c0,7.7-6.2,13.9-13.9,13.9c-7.7,0-13.9-6.2-13.9-13.9c0-7.7,6.2-13.9,13.9-13.9c0,0,0,0,0,0
			C269.6,728.7,275.8,735,275.8,742.6"/>
	</g>
</g>
<g>
	<g>
		<path class="st1" d="M275.7,897.1c0,7.7-6.2,13.9-13.9,13.9c-7.7,0-13.9-6.2-13.9-13.9c0-7.7,6.2-13.9,13.9-13.9l0,0
			C269.5,883.2,275.7,889.4,275.7,897.1"/>
	</g>
</g>
<g>
	<g>
		<path class="st1" d="M274.5,1056.2c0,7.7-6.2,13.9-13.9,13.9c-7.7,0-13.9-6.2-13.9-13.9c0-7.7,6.2-13.9,13.9-13.9
			C268.2,1042.2,274.5,1048.5,274.5,1056.2L274.5,1056.2"/>
	</g>
</g>
<g>
	<g>
		<path class="st1" d="M273.7,1218.7c0,7.7-6.2,13.9-13.9,13.9c-7.7,0-13.9-6.2-13.9-13.9c0-7.7,6.2-13.9,13.9-13.9
			C267.5,1204.7,273.7,1211,273.7,1218.7L273.7,1218.7"/>
	</g>
</g>
<g>
	<g>
		<path class="st1" d="M274.7,1381.3c0,7.7-6.2,13.9-13.9,13.9c-7.7,0-13.9-6.2-13.9-13.9c0-7.7,6.2-13.9,13.9-13.9
			C268.4,1367.4,274.7,1373.6,274.7,1381.3L274.7,1381.3"/>
	</g>
</g>
<text transform="matrix(1 0 0 1 60.89 123.39)" class="st2 st3 st4">2008</text>
<text transform="matrix(1 0 0 1 7.92 175.46)" class="st2 st5 st6">Nuevo estudio del impacto ambiental</text>
<text transform="matrix(1 0 0 1 66.61 188.65)" class="st2 st5 st6">del proyecto.</text>
<text transform="matrix(1 0 0 1 81.46 156.9)" class="st2 st7 st8">Mayo</text>
<text transform="matrix(1 0 0 1 80.02 218.84)" class="st2 st7 st8">Junio</text>
<text transform="matrix(1 0 0 1 28.39 234.57)" class="st2 st5 st6">Estudio es presentado a a la</text>
<text transform="matrix(1 0 0 1 8.22 247.77)" class="st2 st5 st6">municipalidad de San José de Maipo</text>
<text transform="matrix(1 0 0 1 4.87 260.97)" class="st2 st5 st6">para hacer consultas de la disposición</text>
<text transform="matrix(1 0 0 1 57.75 274.17)" class="st2 st5 st6">de la ciudadanía.</text>
<g>
	<g>
		<line class="st9" x1="254.9" y1="127.3" x2="7.7" y2="127.3"/>
		<path class="st1" d="M246.2,127.8c0,7.7,6.2,13.9,13.9,13.9c7.7,0,13.9-6.2,13.9-13.9s-6.2-13.9-13.9-13.9l0,0
			C252.4,113.9,246.2,120.1,246.2,127.8"/>
		<path class="st2" d="M8.7,127.3c0,2.2-1.7,3.9-3.9,3.9c-2.2,0-3.9-1.7-3.9-3.9c0-2.2,1.7-3.9,3.9-3.9c0,0,0,0,0,0
			C7,123.4,8.7,125.1,8.7,127.3"/>
		<path class="st10" d="M8.7,127.3c0,2.2-1.7,3.9-3.9,3.9c-2.2,0-3.9-1.7-3.9-3.9c0-2.2,1.7-3.9,3.9-3.9c0,0,0,0,0,0
			C7,123.4,8.7,125.1,8.7,127.3z"/>
	</g>
</g>
<text transform="matrix(1 0 0 1 66.11 375.39)" class="st2 st3 st4">2011</text>
<text transform="matrix(1 0 0 1 12.2 425.38)" class="st2 st5 st6">Se suscribe convenio secreto entre</text>
<text transform="matrix(1 0 0 1 26.86 438.58)" class="st2 st5 st6">AES Gener y</text>
<text transform="matrix(1 0 0 1 91.06 438.58)" class="st2 st5 st6"> </text>
<text transform="matrix(1 0 0 1 93.52 438.58)" class="st2 st5 st6">Aguas andinas,</text>
<text transform="matrix(1 0 0 1 12.82 451.78)" class="st2 st5 st6">mediante el cual se compromete el</text>
<text transform="matrix(1 0 0 1 15.86 464.98)" class="st2 st5 st6">uso de las aguas para el consumo</text>
<text transform="matrix(1 0 0 1 12.5 478.18)" class="st2 st5 st6"> humano en la generación eléctrica.</text>
<text transform="matrix(1 0 0 1 80.02 409.11)" class="st2 st7 st8">Junio</text>
<g>
	<g>
		<line class="st9" x1="254.9" y1="379.3" x2="7.7" y2="379.3"/>
		<path class="st1" d="M246.2,379.8c0,7.7,6.2,13.9,13.9,13.9c7.7,0,13.9-6.2,13.9-13.9c0-7.7-6.2-13.9-13.9-13.9l0,0
			C252.4,365.9,246.2,372.1,246.2,379.8C246.2,379.8,246.2,379.8,246.2,379.8"/>
		<path class="st2" d="M8.7,379.3c0,2.2-1.7,3.9-3.9,3.9c-2.2,0-3.9-1.7-3.9-3.9c0-2.2,1.7-3.9,3.9-3.9c0,0,0,0,0,0
			C7,375.4,8.7,377.1,8.7,379.3C8.7,379.3,8.7,379.3,8.7,379.3"/>
		<path class="st10" d="M8.7,379.3c0,2.2-1.7,3.9-3.9,3.9c-2.2,0-3.9-1.7-3.9-3.9c0-2.2,1.7-3.9,3.9-3.9c0,0,0,0,0,0
			C7,375.4,8.7,377.1,8.7,379.3C8.7,379.3,8.7,379.3,8.7,379.3z"/>
	</g>
</g>
<g>
	<g>
		<path class="st1" d="M246,819.7c0,7.7,6.2,13.9,13.9,14c7.7,0,13.9-6.2,14-13.9s-6.2-13.9-13.9-14c0,0,0,0-0.1,0
			C252.3,805.9,246,812.1,246,819.7"/>
	</g>
</g>
<g>
	<g>
		<path class="st1" d="M246.6,978.3c0,7.7,6.2,13.9,13.9,13.9c7.7,0,13.9-6.2,13.9-13.9c0-7.7-6.2-13.9-13.9-13.9
			C252.9,964.3,246.6,970.6,246.6,978.3L246.6,978.3"/>
	</g>
</g>
<g>
	<g>
		<path class="st1" d="M245.2,1137.4c0,7.7,6.2,13.9,13.9,13.9c7.7,0,13.9-6.2,13.9-13.9c0-7.7-6.2-13.9-13.9-13.9c0,0,0,0,0,0
			C251.5,1123.5,245.2,1129.7,245.2,1137.4C245.2,1137.4,245.2,1137.4,245.2,1137.4"/>
	</g>
</g>
</svg>
