<?xml version="1.0" encoding="UTF-8"?>
<svg id="Capa_1" data-name="Capa 1" xmlns="http://www.w3.org/2000/svg" viewBox="0 0 661.84 663">
  <path d="m60.73,510.12c42.52-3.05,85.04-6.11,127.65-9.17.23,2.16-.23,3.35-2.02,4.22-3.84,1.88-7.57,4-11.32,6.05-1.01.55-2.04,1.12-2.96,1.82-7.3,5.5-14.65,10.94-21.82,16.6-2.15,1.7-3.92,3.93-5.65,6.09-7.54,9.41-15.77,18.17-24.7,26.27-2.57,2.33-4.89,4.94-7.53,7.19-2.8,2.39-5.78,4.58-8.79,6.72-.9.64-2.11.94-3.22,1.16-1.47.29-2.47-.42-2.73-1.95-.12-.68-.12-1.38-.15-2.07-.18-3.65-1.61-6.76-4.33-9.16-1.73-1.52-3.6-2.93-5.56-4.13-8.58-5.27-17.16-10.54-25.85-15.61-4.19-2.44-7.21-5.66-8.93-10.21-1.43-3.78-3.08-7.48-4.57-11.23-.24-.61-.17-1.34-.24-2.01-.2-2.01-1.05-2.9-2.72-2.84-1.62.06-2.78,1.13-2.84,2.9-.03,1.01.16,2.09.53,3.04,1.68,4.3,3.51,8.55,5.2,12.85,2.07,5.29,5.6,9.2,10.56,11.97,4.54,2.54,8.96,5.3,13.43,7.98.45.27.84.65,1.75,1.37-9.17.94-17.28,4.14-26,4.5-11.24.47-22.31,2.26-33.05,5.81-.74.24-1.58.23-2.37.26-2.92.14-4.59,1.07-5.05,2.84-.5,1.95.82,5.79,2.52,6.81,1.08.65,2.29,1.16,3.5,1.46,5.99,1.47,11.63,3.82,17.17,6.48,8.23,3.95,16.64,7.57,24.69,11.84,6.63,3.52,12.92,7.69,19.24,11.76,3.87,2.49,5,4.17,7.21,8.87-2.08.73-4.13,1.46-6.19,2.16-8.17,2.79-15.8,6.54-22.36,12.28-5.71,4.98-9.35,11.05-10.57,18.61-.32,1.98-1.26,3.91-2.16,5.74-.69,1.4-1,2.61.26,3.75,1.1,1.01,2.77.87,3.99-.53.9-1.02,1.64-2.25,2.17-3.5.57-1.37.98-2.87,1.16-4.34.81-7,4.53-12.22,9.81-16.58,7.29-6.03,15.88-9.38,24.74-12.19.43-.14.93-.34,1.34-.24,5.38,1.35,10.65.29,15.95-.62,2.72-.46,5.49-.76,8.25-.81,7.86-.15,15.75.27,23.75-1.38.79,3.4,2.89,5.96,5.32,8.28,3.14,3.01,4.38,6.86,4.37,11-.02,6.87,2.09,13.21,4.16,19.59.14.44.29.88.38,1.33.04.21-.05.44-.16,1.17-1.23,0-2.57,0-3.9,0-32.64.12-65.29.23-97.93.37-10.88.05-21.76.18-32.64.28-.93,0-1.85.04-2.78-.03-3.12-.21-5.28-1.84-6.08-4.82-.5-1.87-.64-3.88-.65-5.83-.18-34.15-.3-68.3-.47-102.45-.02-3.33.13-6.64-1.15-9.9-.9-2.29-.11-4.6,1.75-6.33.93-.86,1.99-1.59,3.04-2.3,66.51-45.44,133.02-90.87,199.53-136.31.93-.63,1.8-1.35,2.96-2.22-1.01-.66-1.74-1.15-2.48-1.61-8.74-5.44-17.52-10.82-26.21-16.34-5.4-3.43-10.33-7.58-14.27-12.59-6.52-8.31-10.37-17.64-9.69-28.55.42-6.84.94-13.62,2.83-20.23.12-.42.06-.9.12-1.85-1.38.76-2.44,1.35-3.5,1.93-13.87,7.58-28.24,13.9-43.84,16.93-12.81,2.49-25.55,1.94-38.09-1.81-15.95-4.78-29.47-13.85-40.57-25.8-14.34-15.45-23.87-33.69-26.89-54.96-2.94-20.7-.34-40.83,5.67-60.66.63-2.09,1.48-4.18,2.63-6.02,6.03-9.62,12.31-19.05,21.26-26.36,4.12-3.36,7.91-7.13,11.85-10.7,1.72-1.55,3.39-3.17,5.2-4.6,6.91-5.44,13.53-11.35,20.9-16.08,11.27-7.24,22.92-13.95,34.72-20.3,7.48-4.02,16.02-5.2,24.32-6.77,15.69-2.96,31.48-3.52,47.35-1.7,6.89.79,13.81,1.37,20.7,2.18,7.21.85,13.84,3.57,20.4,6.54,9.06,4.1,18.24,7.92,27.26,12.09,8.92,4.12,17.88,8.21,26.48,12.93,7.02,3.85,14.2,7.28,21.48,10.52,1.68.75,3.46,1.41,5.26,1.74,3.06.55,5.66,1.98,8.18,3.63,8.35,5.47,15.21,12.37,20.38,20.95,7.28,12.08,14.55,24.18,22.05,36.13,4.73,7.54,9.71,14.94,14.89,22.17,4.65,6.48,9.75,12.63,14.62,18.96,1.06,1.38,2.18,1.66,3.9,1.22,7.84-1.99,15.68-3.99,23.6-5.66,9.5-2.01,19.07-3.69,28.61-5.49.68-.13,1.45-.33,2.06-.13,2.67.83,4.57-.51,6.61-1.91,68.01-46.51,136.05-93,204.09-139.48.95-.65,1.91-1.32,2.95-1.81,3.08-1.44,6.51-.5,8.3,2.18,1.7,2.55,1.37,6-.92,8.27-.9.89-1.98,1.6-3.02,2.32-99.38,67.89-198.77,135.77-298.16,203.65-1.42.97-2.83,1.98-4.47,3.12.28,1.24.53,2.46.84,3.67,27.18,107.42,54.36,214.84,81.54,322.26,1.45,5.72,2.91,11.43,4.32,17.16.27,1.11.5,2.28.46,3.41-.15,3.85-3.5,6.54-7.32,6.13-2.63-.28-5.29-.52-7.93-.52-22.81.04-45.61.13-68.41.21-1.23,0-2.46,0-4.33,0,1.41-1.44,2.29-2.43,3.28-3.32,4.09-3.7,7.47-7.88,9.46-13.1.4-1.04,1.13-2.02,1.91-2.83,1.63-1.71,2.37-3.37.62-5.47-.37-.44-.25-1.29-.39-2.13,5.42-1.51,10.77-2.09,16.22-1.52,5.21.54,10.16,1.73,14.73,4.62,5.44,3.44,11.56,3.78,17.77,2.44,2.47-.53,4.84-1.39,7.47-.49,1.41.48,2.8-.21,3.24-1.84.45-1.64-.44-2.67-1.88-3.24-2.08-.82-4.2-1.19-6.45-.63-2.01.5-4.07.85-6.11,1.24-4.32.81-8.36-.22-11.96-2.5-7.43-4.71-15.65-5.27-24.05-4.97-2.07.07-4.12.59-6.18.86-1.11.14-2.24.19-3.81.32,0-1.73,0-3.09,0-4.45-.03-7.61-1.31-9.43-8.67-11.66-4.31-1.31-8.74-2.24-13.04-3.58-4.51-1.4-8.93-3.09-13.39-4.65-.02-.26-.05-.51-.07-.77,1.17-.49,2.34-1,3.52-1.45,4.86-1.84,9.79-3.52,14.59-5.51,8.85-3.67,14.19-10.92,18.48-19.01,2.12-4.01,2.08-8.51,1.6-12.92-.58-5.31,1.2-9.83,4.43-13.83,3.76-4.67,8.56-7.72,14.62-8.53,1.72-.23,3.44-.43,5.16-.64,1.98-.24,3.03-1.19,2.95-2.68-.07-1.41-1.4-2.8-3.04-2.8-1.6,0-3.2.36-4.81.57-9.63,1.22-16.76,6.21-21.67,14.49-2.23,3.77-3.7,7.86-3.04,12.25,1.26,8.43-1.91,15.11-7.41,21.13-2.38,2.6-4.86,4.99-8.11,6.38-3.93,1.69-7.92,3.23-11.88,4.84-3.53,1.44-7.09,2.8-10.56,4.37-1.2.54-2.14.67-3.2-.12-1.56-1.15-3.15-2.27-4.67-3.37,2.89-3.81,5.52-7.39,8.28-10.88,2.08-2.63,4.18-5.27,6.53-7.64,5.95-5.98,7.73-13.07,5.59-21.05-1.43-5.34-3.17-10.63-5.16-15.79-1.84-4.77-1.9-9.48-.73-14.29.6-2.47,1.38-4.91,2.3-7.27,3.14-8.11,2.4-16.11-.5-24.08-.55-1.51-1.11-3.01-1.86-5.05,17.4-1.53,34.53-2.44,52.09-3.92-14.33-56.63-28.59-112.97-43.01-169.93-94.29,64.4-188.2,128.55-282.1,192.72.1.22.2.45.3.67Zm32.64-279.42c.95.68,1.65,1.27,2.42,1.72,2.69,1.56,5.29,3.38,8.15,4.54,17.09,6.97,33.18-8.91,31.22-23.23-.56-4.06-1.69-7.89-3.37-11.6-.61-1.35-1.23-2.7-1.97-4.32,5.46-4.97,10.88-9.88,16.51-14.89,3.39,6.5,1.43,11.65-2.62,16.59,3.06,3.39,6.04,6.69,9.01,9.97,4.4-3.81,7.52-8.88,8.54-13.99,1.57-7.83-.67-14.82-5.21-21.29,3.24-3,6.26-5.8,9.4-8.7-1.77-1.91-3.31-3.58-4.93-5.33-3.3,2.91-6.39,5.64-9.4,8.28-2.18-1.52-3.98-3-5.98-4.11-2.11-1.16-4.34-2.21-6.64-2.89-12.7-3.75-25.53,4.2-27.99,17.21-1.06,5.59.37,10.78,2.47,15.86.83,2,1.77,3.96,2.7,6.02-5.99,5.4-11.82,10.66-17.84,16.08-4.67-6.8-3.76-12.99,1.23-18.86-3.13-3.46-6.05-6.68-9.09-10.04-4.43,4.25-7.25,8.9-8.41,14.5-1.81,8.76,1.6,16.06,6.71,23.02-3.1,2.82-6.07,5.52-9.26,8.42,1.68,1.89,3.18,3.58,4.88,5.5,3.27-2.92,6.34-5.67,9.49-8.48Zm215.52,20.21c-2.6,5.84-26.69,88.47-26.59,90.79,5.13-2.78,67.95-46.05,69.62-48.06-15.5-12.8-30.48-26.19-43.03-42.73Z"/>
  <path d="m440.64,454.7c.16-17.26,4.9-33.15,13.15-48.34,5.11-9.41,11.14-18.39,14.66-28.66,1.27-3.7,3.24-7.16,4.87-10.74,3.95-8.68,6.71-17.73,8.31-27.12,1.28-7.52,2.34-15.08,3.46-22.63.48-3.2.8-6.43,1.33-9.62,1.27-7.68,4.94-14.15,10.33-19.66,7.87-8.04,17.59-12.66,28.52-14.77,13.6-2.62,26.72-1.12,39.18,5.1,4.38,2.19,8.32,5.02,11.77,8.5,6.18,6.21,9.72,13.64,10.81,22.37,1.28,10.32,2.64,20.65,4.33,30.91,1.05,6.37,2.81,12.63,4.25,18.93.13.56.41,1.1.49,1.66,1.14,8.56,4.38,16.54,7.22,24.57,3.43,9.68,6.99,19.4,11.47,28.62,18.66,38.43,10.07,84.48-21.53,112.34-17.68,15.59-38.5,23.43-62.03,22.77-42.18-1.18-77.66-30.24-87.77-71.22-1.86-7.55-2.95-15.21-2.83-23.03Zm136.47-5.94c-.23-2.23-.4-6.06-1.04-9.8-1.99-11.68-6.58-22.17-15.11-30.59-14.79-14.6-34.41-15.69-51.01-3.4-4.98,3.69-9.08,8.29-12.18,13.63-11.45,19.73-12.81,40.22-4.01,61.24,3.36,8.03,8.58,14.84,15.78,19.86,12.86,8.97,26.35,9.78,40.23,2.49,6.15-3.23,11.11-7.9,15.18-13.48,8.34-11.42,11.98-24.35,12.16-39.96Z"/>
  <path d="m371.35,59.67c.03,35.18-21.96,60.32-52.46,64.6-38.55,5.4-74.24-25.87-73.22-64.65.6-22.94,11.05-40.73,31.22-51.89,24.25-13.42,54.31-8.99,74.45,10.38,13.07,12.56,19.7,28.01,20.02,41.56Z"/>
  <path d="m248.52,496.59c-1.56-17.01-5.41-32.66-15.48-46.5-.91.59-1.75,1.13-2.6,1.67-13.72,8.88-28.66,13.94-45.08,14.03-3.18.02-6.46-.64-9.53-1.54-2.02-.59-3.98-1.91-5.57-3.34-2.38-2.14-3.05-4.79-2.12-8.17,1.92-6.99,5.69-12.66,11.22-17.13,12.43-10.04,26.51-14.46,42.43-11.38,3.67.71,7.13,2.53,11.06,3.98-.17.1.2,0,.38-.24,6.55-8.69,15.66-13.13,25.94-15.53,6.96-1.62,13.97-1.92,20.96-.05,3.98,1.07,7.55,2.86,10.5,5.82,2.48,2.48,3.18,5.15,1.69,8.5-1.97,4.44-4.84,8.16-8.48,11.28-9.52,8.16-20.71,11.97-33.12,12.51-1.04.05-2.08.06-3.11.1-.11,0-.22.07-.73.25,3.88,6.87,7.36,13.91,9.06,21.6,1.67,7.56,2.95,15.21,4.48,23.25,7.36-.49,14.91-.99,22.45-1.49.07.19.14.37.2.56-1.49.96-3.07,1.81-4.45,2.91-5.15,4.12-10.39,8.14-15.29,12.55-7.36,6.63-9.3,16.98-5.17,25.99,1.4,3.05,3.11,5.95,4.58,8.96,4.25,8.7,3.04,17.07-1.77,25.1-.8,1.34-2.08,2.55-3.41,3.39-6.27,3.96-13.08,6.22-20.47,4.28-10.54-2.76-19.62.14-28.07,6.26-2.14,1.55-4.27,3.12-7,4.42.33-1.1.62-2.21,1.01-3.29,2.53-7.03,2.26-13.92-1.39-20.46-1.44-2.59-3.34-4.98-5.34-7.17-1.62-1.78-3.72-3.11-5.59-4.67-6.38-5.32-13.54-8.75-21.91-9.58-3.8-.38-7.54-1.29-10.84-3.38-.96-.61-1.95-1.32-2.62-2.21-1.56-2.09-1.06-4.63,1.04-6.24,5.42-4.15,10.68-8.54,16.32-12.36,4.87-3.3,9.97-6.41,15.34-8.74,4.59-1.99,5.81-5.78,7.56-10.07,17.35-1.26,34.98-2.55,52.88-3.85Z"/>
  <path d="m312.48,596.58c2.74,5.08,7.7,7.99,13.01,10.47,8.83,4.12,17.99,7.28,27.49,9.51,2.13.5,4.2,1.28,6.3,1.91,1.49.44,2.32,1.34,2.43,2.97.4,5.53,1.4,11.09,1.09,16.58-.17,3.11-2.09,6.33-3.85,9.09-3.53,5.53-8.61,9.64-13.99,13.29-.95.64-2.38.79-3.59.8-26.28.19-52.55.34-78.83.49-2.66.02-5.32,0-8.24,0,.14-.56.11-1.06.35-1.32,3.38-3.64,6.65-7.39,10.24-10.81,1.85-1.76,2.82-3.8,3.85-6.01,2.04-4.4,4.41-8.65,6.63-12.96,2.49-4.83,4.95-9.68,7.48-14.5,2.44-4.65,5.52-8.83,9.29-12.48,5.59-5.41,11.59-9.74,20.32-7.03Z"/>
  <path d="m293.08,493.4c11.71-.84,23.23-1.67,35.12-2.52,1.32,4.48,2.73,8.76,3.8,13.11.84,3.4.77,6.89-.3,10.29-1.01,3.2-2.01,6.4-2.97,9.61-2.13,7.12-1.87,13.99,1.12,20.98,2.16,5.06,3.53,10.51,4.75,15.9.93,4.09-.1,8.11-2.83,11.41-4.71,5.69-9.54,11.28-14.54,17.17-.09-.86-.2-1.57-.21-2.27-.01-.58.04-1.16.14-1.73,1.56-9.09-1.58-15.54-11.85-21.34-4.87-2.75-10.31-4.08-15.8-5.05-4.44-.78-8.92-1.37-13.38-2.06-1.03-.16-2.05-.37-3.06-.59-1.56-.33-2.42-1.3-2.44-2.92-.05-4.93-2.11-9.18-4.44-13.35-1.12-2.02-2.18-4.08-3.14-6.19-3.01-6.65-1.72-14.52,3.68-19.41,4.96-4.5,10.26-8.65,15.61-12.69,1.77-1.34,4.09-2.07,6.26-2.77,3.32-1.07,4.03-1.75,4.46-5.6Z"/>
  <path d="m117.69,570.83c2.71,4.05,5.66,6.44,8.96,8.42,2.75,1.65,4.8,3.92,6.48,6.62,3.3,5.3,6.61,10.6,10.08,15.79,1.65,2.47,3.66,4.69,5.68,7.24-7.91,3.72-15.9,7.06-24.7,7.63-5.76.37-11.56.22-17.34.39-2.19.06-4.38.3-6.55.57-1.37.17-2.71.58-4.07.84-6.7,1.3-7.27,1.21-10.68-4.55-2.43-4.11-5.68-7.25-9.64-9.76-11.73-7.42-23.5-14.76-36.49-19.89-1.18-.47-2.33-1.03-3.5-1.52-6.68-2.83-13.37-5.66-20.22-8.57.51-.92,1.76-1.2,2.9-1.43,6.68-1.34,13.34-2.83,20.07-3.84,5.48-.82,11.05-1.02,16.57-1.56,1.72-.17,3.42-.56,5.12-.88,6.12-1.17,12.24-2.32,18.36-3.54,1.82-.36,3.44-.06,4.97.92,1.36.87,2.74,1.72,4.06,2.66,2.69,1.91,4.19,4.35,4.35,7.83.33,7.09,5.52,10.25,12.06,7.48,4.2-1.78,7.83-4.46,11.06-7.66.82-.81,1.42-1.83,2.44-3.18Z"/>
  <path d="m237.83,583.9c-1.67,9.74,2.55,17.94,6.78,26.02,2.03,3.87,4.57,7.52,7.26,10.97,3.73,4.81,6.26,9.9,6.15,16.16-.05,3.07.85,5.94,3.02,8.13-3.81,4.26-7.93,8.19-11.19,12.75-2.27,3.17-4.66,4.02-8.3,3.91-7.86-.23-15.73-.02-23.6,0-1.13,0-2.27,0-3.43,0-1.07-3.81-1.33-7.24-.14-10.81.47-1.42.22-3.16-.02-4.71-.22-1.47-.88-2.87-1.29-4.31-1.04-3.66-1.87-7.38-3.12-10.96-.98-2.82-2.33-5.53-3.73-8.17-1.95-3.67-4.1-7.24-6.18-10.84-1.5-2.59-2.06-5.36-1.83-8.33.11-1.49-.07-3.05,1.82-3.68.37-.12.8-.65.84-1.03.35-3.08,2.86-4.33,4.95-5.89,2.59-1.94,5.15-3.96,7.93-5.6,2.77-1.63,5.72-3,8.71-4.17,5.1-1.99,10.19-1.08,15.36.56Z"/>
  <path d="m208.65,661.86h-56.34c-2.25-6.02-4.57-12.27-5.2-19.01-.13-1.38-.14-2.77-.24-4.15-.37-5.03-2.18-9.41-5.77-13.02-.9-.9-1.83-1.79-2.58-2.8-1.38-1.88-.87-3.39,1.25-4.31,5.92-2.59,11.89-5.08,17.73-7.85,8.93-4.24,18.48-6.59,27.91-9.29,2.47-.71,5.01-.96,7.38,1.37-1,6.28,2.19,11.57,5.25,16.9,1.15,2,2.37,3.97,3.56,5.95,1.87,3.09,3.1,6.35,3.79,9.96.71,3.71,2.13,7.3,3.38,10.9.52,1.5.42,2.81.11,4.35-.49,2.46-.49,5.02-.59,7.54-.04,1.01.2,2.03.36,3.48Z"/>
  <path d="m149.54,538.67c3.74,6.45,9.87,8.37,16.29,9.76,1.69.37,3.42.54,5.13.83,4.5.77,8.71,2.32,12.4,5.05,2.6,1.92,5.07,4.03,7.69,5.91,4.4,3.16,6.47,7.69,7.88,12.68.73,2.55.54,5.09-.22,7.52-1.66,5.26-3.5,10.46-5.29,15.74-4.19-.9-8.02-.37-11.83.75-9.07,2.68-18.33,4.79-26.95,9.19-2.5-1.99-4.8-4.04-6.49-6.7-3.36-5.25-6.79-10.47-10.06-15.78-2.35-3.82-5.34-6.89-9.18-9.25-1.85-1.14-3.57-2.57-5.07-4.13-1.6-1.65-1.41-3.2.31-4.77,8.92-8.09,17.08-16.89,24.63-26.26.14-.17.37-.26.76-.54Z"/>
  <path d="m263.73,638.83c-.21-1.67-.52-2.92-.51-4.18.06-6.53-2.97-11.76-6.83-16.66-5.4-6.88-9.63-14.37-12.43-22.7-1.26-3.74-1.89-7.32-.17-11.03,19.48-3.66,23.29-10.17,26.71-22.91,9.92,1.8,20.1,2.38,29.63,6.21,3.37,1.36,6.34,3.3,8.84,5.97,2.16,2.32,3.32,5,3.06,8.19-.24,2.97-.57,5.94-.88,9.07-8.09-1.44-14.43,1.75-20.2,6.64-5.64,4.78-10.06,10.53-13.42,17.08-3.48,6.79-6.82,13.65-10.3,20.44-.73,1.43-1.13,3.3-3.52,3.89Z"/>
  <path d="m371.16,182.46c-.4,7.05-1.88,12.13-6.78,15.6-3.38,2.4-6.82,1.98-9.51-1.23-.52-.62-.96-1.3-1.42-1.97-6.07-8.87-12.03-17.81-18.25-26.58-2.55-3.6-2.59-6.93-.55-10.65,1.37-2.51,3.37-3.77,6.16-3.65,1.37.06,2.77.29,4.09.66,10.66,2.98,18.93,9.06,23.69,19.22,1.44,3.08,1.99,6.57,2.58,8.59Z"/>
  <path d="m118.99,207.55c3.41,6.98,2.66,11.87-2,15.47-4.15,3.21-9.13,2.87-13.82-1.19,5.21-4.71,10.38-9.38,15.81-14.28Z"/>
  <path d="m126.52,190.76c-3.77-7.13-3.21-11.89,1.58-15.36,4.09-2.96,8.93-2.32,13.29,1.94-4.95,4.46-9.88,8.91-14.87,13.42Z"/>
  <path d="m528.47,494.29c-1.54-.48-4.46-.96-6.93-2.28-3.19-1.7-3.15-6.08-.11-7.61,1.12-.56,2.78-.72,3.97-.34,4.09,1.31,7.98.7,11.87-.62,5.77-1.96,10.91-5,15.2-9.35,2.04-2.07,3.7-4.33,4.43-7.29.75-3.05,3.03-4.35,5.67-3.7,2.39.59,3.78,2.74,3.17,5.71-.43,2.11-1.25,4.21-2.3,6.09-2.35,4.2-5.83,7.44-9.7,10.24-7.16,5.17-15.02,8.54-25.28,9.15Z"/>
</svg>