<?xml version="1.0" encoding="utf-8"?>
<!-- Generator: Adobe Illustrator 27.5.0, SVG Export Plug-In . SVG Version: 6.00 Build 0)  -->
<svg version="1.1" xmlns="http://www.w3.org/2000/svg" xmlns:xlink="http://www.w3.org/1999/xlink" x="0px" y="0px"
	 viewBox="0 0 792 612" style="enable-background:new 0 0 792 612;" xml:space="preserve">
<style type="text/css">
	.st0{display:none;}
	.st1{fill:#FFFFFF;stroke:#1D1D1B;stroke-width:3;stroke-miterlimit:10;}
	.st2{font-family:'Montserrat-Bold';}
	.st3{font-size:27.1912px;}
	.st4{fill:none;}
	.st5{font-family:'Montserrat-Medium';}
	.st6{font-size:15px;}
</style>
<g id="Capa_1" class="st0">
</g>
<g id="Capa_2">
</g>
<g id="Capa_3">
	<g>
		<g>
			<rect x="62.17" y="271.91" class="st1" width="645.47" height="71.33"/>
			<polyline class="st1" points="693.4,271.23 692.7,235.63 753.42,298.45 693.4,387.79 690.6,342.42 			"/>
		</g>
		<circle class="st1" cx="89.45" cy="304.59" r="50.87"/>
		<circle class="st1" cx="644.25" cy="304.59" r="50.87"/>
		<circle class="st1" cx="505.55" cy="304.59" r="50.87"/>
		<circle class="st1" cx="366.85" cy="304.59" r="50.87"/>
		<circle class="st1" cx="228.15" cy="304.59" r="50.87"/>
		<text transform="matrix(1 0 0 1 55.4285 314.417)" class="st2 st3">2008</text>
		<text transform="matrix(1 0 0 1 199.4679 314.4169)" class="st2 st3">2011</text>
		<text transform="matrix(1 0 0 1 334.182 315.0965)" class="st2 st3">2012</text>
		<text transform="matrix(1 0 0 1 470.2794 314.417)" class="st2 st3">2014</text>
		<text transform="matrix(1 0 0 1 613.2061 314.4171)" class="st2 st3">2018</text>
		<rect x="39.04" y="369.83" class="st4" width="103.33" height="187.78"/>
		<text transform="matrix(1 0 0 1 73.2343 380.9553)"><tspan x="0" y="0" class="st5 st6">DGA </tspan><tspan x="-21.73" y="16" class="st5 st6">empieza a </tspan><tspan x="-25.87" y="32" class="st5 st6">controlar la </tspan><tspan x="-22.45" y="48" class="st5 st6">extracción </tspan><tspan x="-29.59" y="64" class="st5 st6">por parte de </tspan><tspan x="-15.12" y="80" class="st5 st6">privados</tspan></text>
		<rect x="176.25" y="95.23" class="st4" width="103.33" height="147.33"/>
		<text transform="matrix(1 0 0 1 176.7898 146.5148)"><tspan x="0" y="0" class="st5 st6">Senadora Lily </tspan><tspan x="29.55" y="16" class="st5 st6">Peréz </tspan><tspan x="15.27" y="32" class="st5 st6">denuncia </tspan><tspan x="13.79" y="48" class="st5 st6">dreanajes </tspan><tspan x="12.42" y="64" class="st5 st6">ileajes por </tspan><tspan x="3.9" y="80" class="st5 st6">empresarios </tspan><tspan x="16.92" y="96" class="st5 st6">agricolas</tspan></text>
		<rect x="315.21" y="369.39" class="st4" width="103.33" height="187.78"/>
		<text transform="matrix(1 0 0 1 323.2448 380.5207)"><tspan x="0" y="0" class="st5 st6">Alcaldes de </tspan><tspan x="-3.25" y="16" class="st5 st6">Petorca y La </tspan><tspan x="22.34" y="32" class="st5 st6">Ligua </tspan><tspan x="4.69" y="48" class="st5 st6">presentan </tspan><tspan x="-6.79" y="64" class="st5 st6">querella ante </tspan><tspan x="-0.46" y="80" class="st5 st6">Juzgado de </tspan><tspan x="-3.97" y="96" class="st5 st6">Garantia por </tspan><tspan x="-7.05" y="112" class="st5 st6">robo de agua</tspan></text>
		<rect x="452.79" y="54.39" class="st4" width="103.33" height="187.78"/>
		<text transform="matrix(1 0 0 1 459.5719 130.1242)"><tspan x="0" y="0" class="st5 st6">DGA revoca </tspan><tspan x="-4.22" y="16" class="st5 st6">derechos del </tspan><tspan x="19.15" y="32" class="st5 st6">agua a </tspan><tspan x="-2.35" y="48" class="st5 st6">empresarios </tspan><tspan x="8.28" y="64" class="st5 st6">y limita la </tspan><tspan x="-6.77" y="80" class="st5 st6">extracción de </tspan><tspan x="5.35" y="96" class="st5 st6">agua en la </tspan><tspan x="26.62" y="112" class="st5 st6">zona</tspan></text>
		<rect x="590.36" y="369.7" class="st4" width="103.33" height="187.78"/>
		<text transform="matrix(1 0 0 1 594.4142 380.8328)"><tspan x="0" y="0" class="st5 st6">DGA declara </tspan><tspan x="-0.53" y="16" class="st5 st6">la cuenca de </tspan><tspan x="17.9" y="32" class="st5 st6">Petorca </tspan><tspan x="9.19" y="48" class="st5 st6">como una </tspan><tspan x="30.98" y="64" class="st5 st6">área </tspan><tspan x="10.66" y="80" class="st5 st6">prohibida</tspan></text>
	</g>
</g>
</svg>
