<?xml version="1.0" encoding="utf-8"?>
<!-- Generator: Adobe Illustrator 27.7.0, SVG Export Plug-In . SVG Version: 6.00 Build 0)  -->
<svg version="1.1" xmlns="http://www.w3.org/2000/svg" xmlns:xlink="http://www.w3.org/1999/xlink" x="0px" y="0px"
	 viewBox="0 0 768 768" style="enable-background:new 0 0 768 768;" xml:space="preserve">
<style type="text/css">
	.st0{opacity:0.31;fill:#A367AE;}
	.st1{fill:#CF7CB2;}
	.st2{fill:#5437A5;}
	.st3{fill:#A367AE;}
	.st4{fill:#D17CB2;}
	.st5{fill:#FFFFFF;}
	.st6{font-family:'MyriadPro-Regular';}
	.st7{font-size:12px;}
	.st8{fill:#FEFEFB;}
	.st9{font-family:'MyanmarText-Bold';}
	.st10{font-size:27.7686px;}
	.st11{fill:#009F23;}
	.st12{fill:none;stroke:#009F23;stroke-miterlimit:10;}
	.st13{fill:#38B2E8;}
	.st14{fill:#394239;}
	.st15{fill:#71C5E2;}
</style>
<g id="Capa_2">
	<rect x="89" y="76" class="st0" width="608" height="603"/>
	<ellipse class="st1" cx="98" cy="307" rx="41" ry="41"/>
	<polygon class="st2" points="0,239 0,140 624,140 539,239 	"/>
	<path class="st3" d="M475.8,337c-3.5-6.5-43.6-73.9-43.6-73.9L85.2,263l53.2,74H475.8z"/>
	<circle class="st1" cx="98.2" cy="404.2" r="41"/>
	<path class="st3" d="M475,438.7c-3.5-7.3-43.6-82.8-43.6-82.8l-346.9-0.1l53.2,82.9H475z"/>
	<circle class="st4" cx="99.6" cy="507" r="41"/>
	<path class="st3" d="M476.4,539c-3.5-7.2-43.6-81.3-43.6-81.3l-346.9-0.1l53.2,81.4H476.4z"/>
	<circle class="st4" cx="103.6" cy="611" r="41"/>
	<path class="st3" d="M515,643c-3.8-7.2-47.5-81.3-47.5-81.3l-377.7-0.1l57.9,81.4H515z"/>
</g>
<g id="Capa_1">
	<g>
		<text transform="matrix(1 0 0 1 141.876 283.1587)"><tspan x="0" y="0" class="st5 st6 st7">Menor disponibilidad de los </tspan><tspan x="0" y="14.4" class="st5 st6 st7">recursos hídricos  (agotamiento</tspan><tspan x="0" y="28.8" class="st5 st6 st7">de las fuentes de agua dulce más</tspan><tspan x="0" y="43.2" class="st5 st6 st7"> accesibles).</tspan></text>
	</g>
	<g>
		<text transform="matrix(1 0 0 1 25.4658 181.2588)"><tspan x="0" y="0" class="st8 st9 st10">Consecuencias de la</tspan><tspan x="0" y="33.3" class="st8 st9 st10">sobreexplotación del agua</tspan></text>
	</g>
	<g>
		<defs>
			<circle id="SVGID_1_" cx="548.8" cy="439.8" r="216.2"/>
		</defs>
		<clipPath id="SVGID_00000027588064527728088420000000212263106188885159_">
			<use xlink:href="#SVGID_1_"  style="overflow:visible;"/>
		</clipPath>
		<g style="clip-path:url(#SVGID_00000027588064527728088420000000212263106188885159_);">
			
				<image style="overflow:visible;" width="989" height="658" xlink:href="F6817007.jpg"  transform="matrix(0.6672 0 0 0.6672 302.0032 218.8793)">
			</image>
		</g>
	</g>
	<g>
		<ellipse class="st5" cx="98.2" cy="404.6" rx="36" ry="35.6"/>
		<g>
			<g>
				<path class="st11" d="M80.1,404.9c0.2,0,0.4,0,0.5,0.1c1.8,0.4,3.5,0.8,5.3,1.2c2.2,0.6,4.3,1.2,6.4,1.9
					c3.4,1.1,6.6,2.4,9.9,3.8c3.1,1.3,6.1,2.7,9.1,4.2c3.2,1.6,6.4,3.3,9.6,5.1c0.8,0.5,1.6,0.9,2.4,1.4c0.3,0.2,0.3,0.3,0.1,0.5
					c-0.8,1-1.7,2-2.7,3c-1.2,1.2-2.6,2.4-4,3.5c-0.8,0.7-1.8,1.2-2.6,1.8c-0.2,0.1-0.3,0-0.4-0.1c-0.5-0.7-1.1-1.4-1.7-2.1
					c-1-1.3-2.1-2.5-3.3-3.7c-1.2-1.3-2.6-2.6-3.9-3.9c-2-1.8-4.1-3.6-6.3-5.3c-1-0.8-2-1.5-3-2.2c-2.6-1.8-5.2-3.5-8-5.1
					c-2.4-1.4-4.9-2.7-7.5-3.9C80.2,405.1,80.1,405,80.1,404.9z"/>
				<path class="st11" d="M130,407.3c0.1,0.2-0.1,0.4-0.4,0.5c-2.1,1.3-4.1,2.7-6.2,4c-1.3,0.9-2.6,1.8-3.8,2.7
					c-4.2,3.2-3.5,3.2-3.5,3.2s-0.5-0.2-0.7-0.4c-1.8-0.9-3.5-1.8-5.4-2.7c-1.4-0.7-2.8-1.3-4.2-2c-0.1,0-0.3-0.1-0.3-0.2
					c0-0.1,0.2-0.1,0.3-0.2c2.9-1.4,6-2.4,9.2-3.2c2.7-0.7,5.5-1.2,8.3-1.6c1.9-0.2,3.8-0.4,5.7-0.5c0.1,0,0.3,0,0.4,0
					C130,406.9,130,406.9,130,407.3z"/>
				<path class="st11" d="M130.1,405.4c0,0.1,0,0.3-0.1,0.5c0,0.1-0.1,0.2-0.2,0.2c-1,0.1-1.9,0.2-2.9,0.2c-1.6,0.1-3.2,0.3-4.7,0.5
					c-0.8,0.1-1.7,0.3-2.5,0.4c-1,0.2-2,0.4-2.9,0.6c-1.4,0.3-2.8,0.7-4.2,1.1c-2.3,0.7-4.5,1.4-6.7,2.5c-0.3,0.2-0.6,0.2-0.9,0.4
					c-0.2,0.2-0.6,0.2-0.8,0.1c-1-0.5-2.1-0.9-3.1-1.3c-1.1-0.5-2.3-0.9-3.4-1.4c-0.1,0-0.3,0-0.3-0.2c0-0.1,0.2-0.1,0.3-0.1
					c0.5-0.2,1.1-0.4,1.6-0.5c0.1,0,0.2,0,0.3,0c1.1,0.3,2.2,0.1,3-0.7c0.2-0.2,0.3-0.3,0.6-0.3c1.1-0.2,2.2-0.4,3.3-0.6
					c1.7-0.3,3.4-0.5,5-0.7c1.4-0.2,2.8-0.3,4.1-0.4c1.3-0.1,2.6-0.2,4-0.3c0.8-0.1,1.6-0.1,2.4-0.1c1.4-0.1,2.9-0.1,4.3-0.2
					c0.4,0,0.8,0,1.2,0c0.7,0,1.4,0,2.1-0.1C130,404.9,130.1,405,130.1,405.4z"/>
				<path class="st11" d="M129.8,409c-0.1,0.5-0.2,0.9-0.3,1.4c-0.5,2.3-1.3,4.5-2.3,6.7c-0.8,1.6-1.7,3.2-2.8,4.7
					c-0.2,0.2-0.3,0.3-0.6,0.1c-1.3-0.8-2.6-1.5-3.9-2.2c-1-0.6-2-1.1-3.1-1.7c-0.2-0.1-0.2-0.3,0-0.5c1.3-1,2.2-2.1,3.5-3
					c0.2-0.2,0.5-0.4,0.7-0.5c1.9-1.6,3.6-2.5,5.3-3.7c0.9-0.6,1.4-1,2.4-1.6c0.1,0,0.8-0.4,0.9-0.4
					C129.8,408.4,129.8,408.9,129.8,409z"/>
				<path class="st11" d="M128.4,398.4c0.1,0,0.1,0,0.2,0c1,0,0.8-0.1,1,0.7c0.3,1.7,0.5,3.3,0.5,5c0,0.4,0,0.4-0.5,0.4
					c-2.3,0.1-4.6,0.1-6.9,0.2c-1.2,0-2.4,0.1-3.5,0.2c-0.4,0-0.5,0-0.5-0.4c-0.1-1.1,0.5-1.8,1.5-2.4c1-0.6,2.1-0.9,3.3-1.2
					c0.3-0.1,0.4-0.1,0.4-0.4c0.1-0.8,0.7-1.4,1.6-1.7C126.5,398.5,127.4,398.3,128.4,398.4z"/>
				<path class="st11" d="M95.7,404.7c0.1-2.1,2.3-3.6,4.7-3.5c2.4,0.2,4.4,2,4.2,4.1c-0.2,2-2.3,3.6-4.8,3.4
					C97.4,408.6,95.5,406.8,95.7,404.7z M100.2,404c-0.7,0-1.3,0.4-1.3,1c0,0.5,0.5,1,1.1,1.1c0.7,0.1,1.3-0.4,1.3-1
					C101.4,404.5,100.9,404,100.2,404z"/>
				<path class="st11" d="M106.1,402.4c-0.6-0.7-0.8-1.3,0.1-1.8c0.3-0.2,0.4-0.6,0.4-0.9c0-0.4,0.2-0.5,0.7-0.6
					c0.8-0.1,1.6-0.2,2.4-0.3c0.3,0,0.5,0,0.5,0.3c0,0.3,0.1,0.5,0.2,0.8c0.1,0.4,0.4,0.6,0.9,0.6c0.4-0.1,0.6-0.3,0.6-0.7
					c0-0.1,0-0.1,0-0.2c-0.1-1-0.1-1,1-1.1c0.6-0.1,1.1-0.1,1.7-0.2c0.3,0,0.5,0,0.5,0.3c0,0.3-0.2,0.3-0.4,0.4
					c-0.4,0.1-0.8,0.1-1.3,0.1c-0.7,0.1-0.8,0.2-0.4,0.8l0,0c0,0.3,0.3,0.2,0.5,0.2c0.4,0,0.9-0.1,1.3-0.1c0.4-0.1,0.6,0.1,0.6,0.4
					c0,0.1,0,0.2,0,0.3c0.1,0.7,0.1,0.7-0.7,0.7c-2-0.1-3.5,1-3.8,2.8c-0.1,0.4-0.2,0.5-0.7,0.6c-0.9,0.1-1.9,0.2-2.8,0.3
					c-0.5,0.1-0.7-0.1-0.7-0.5C106.8,403.9,106.6,403.1,106.1,402.4L106.1,402.4z"/>
				<path class="st11" d="M106.1,402.4c-0.1,0.2,0.1,0.4,0.1,0.6c0.4,0.8,0.5,1.5,0.5,2.4c0,0.3-0.1,0.7-0.6,0.7
					c-0.5,0-0.6-0.4-0.6-0.7c0-1.2-0.4-2.4-1.4-3.3c-2.1-2.1-5.9-2.2-8-0.2c-0.1,0.1-0.1,0.1-0.2,0.2c-0.3,0.2-0.6,0.3-0.9,0.1
					c-0.3-0.2-0.2-0.5,0-0.8c1-1,2.3-1.7,3.8-1.9c2.7-0.3,5,0.5,6.7,2.4C105.7,402.1,105.8,402.4,106.1,402.4
					C106.1,402.4,106.1,402.4,106.1,402.4z"/>
				<path class="st11" d="M114.5,402.2c1.3,0.1,2.2,1,2.2,2.1c-0.1,1.1-1.2,1.9-2.5,1.8c-1.2-0.1-2.2-1.1-2.1-2.1
					C112.1,403,113.2,402.2,114.5,402.2z"/>
				<path class="st11" d="M98.6,396.1c0.5,0,0.6,0.2,0.7,0.4c0.2,0.6,0.5,1.1,0.7,1.7c0.2,0.4,0.4,0.6,1,0.5
					c0.4-0.1,0.9-0.1,1.3-0.1c0.2,0,0.5,0,0.6,0.3c0.1,0.3,0.2,0.6,0.1,0.9c-0.1,0.1-0.3,0.1-0.4,0c-1.4-0.5-2.8-0.6-4.2-0.3
					c-0.3,0.1-0.5-0.1-0.5-0.3c-0.1-0.8-0.3-1.7-0.5-2.5c-0.1-0.3,0.1-0.4,0.4-0.4C98.2,396.1,98.5,396.1,98.6,396.1z"/>
				<path class="st11" d="M107.3,398.2c0.7-0.1,1.4-0.1,2.1-0.2c0.4,0,0.6,0,0.6,0.4c0.1,0.4-0.3,0.3-0.5,0.3
					c-1,0.1-2.1,0.2-3.1,0.4c-0.5,0.1-0.7-0.1-0.6-0.5c0.1-0.5,0.1-1,0.2-1.5c0-0.4,0.2-0.6,0.6-0.6c0.8-0.1,1.6-0.2,2.4-0.3
					c0.4,0,0.5,0.1,0.6,0.4c0,0,0,0,0,0.1c0.3,1.1,0.3,1.1-1,1.3c-0.5,0.1-1,0.1-1.4,0.2C107.3,398.1,107.3,398.2,107.3,398.2z"/>
				<path class="st11" d="M111.7,399.9c0,0.3-0.1,0.5-0.5,0.5c-0.4,0-0.6-0.2-0.6-0.5c-0.2-1.2-0.5-2.5-0.7-3.7
					c-0.1-0.8-0.3-1.5-0.4-2.3c-0.1-0.3,0.1-0.6,0.5-0.6c0.4-0.1,0.6,0.2,0.7,0.5c0.4,2,0.8,4,1.1,6
					C111.7,399.8,111.7,399.8,111.7,399.9z"/>
				<path class="st11" d="M112.6,397.6c0.6-0.1,1.2-0.1,1.8-0.2c0.3,0,0.6-0.1,0.6,0.2c0.1,0.4-0.2,0.4-0.5,0.4
					c-0.7,0.1-1.5,0.2-2.2,0.3c-0.4,0-0.6-0.1-0.6-0.4c-0.1-0.5-0.2-1-0.3-1.6c-0.1-0.3,0.1-0.4,0.4-0.5c0.6-0.1,1.2-0.1,1.8-0.2
					c0.7,0,1.2,0.3,1.3,0.9c0.1,0.3,0,0.6-0.5,0.6c-0.6,0.1-1.2,0.1-1.8,0.2C112.6,397.5,112.6,397.6,112.6,397.6z"/>
				<path class="st11" d="M110.1,392.7c0,0.1,0,0.3-0.2,0.3c-0.2,0-0.3-0.1-0.3-0.3c-0.1-0.4-0.2-0.9-0.2-1.3
					c-0.1-0.6-0.2-1.1-0.9-1.4c-0.2-0.1-0.4-0.2-0.2-0.4c0.1-0.2,0.3,0,0.5,0.1c0.6,0.3,1,0.7,1,1.3
					C109.8,391.6,110,392.2,110.1,392.7z"/>
				<path class="st11" d="M104.7,396c-0.7,0.7,0.2,0.8,0.5,1.1c0.1,0.1,0.3,0.2,0.4,0.3c0.1,0.1,0.1,0.2,0.1,0.3
					c-0.1,0.1-0.2,0-0.3,0c-0.2-0.1-0.4-0.3-0.6-0.4c-0.4-0.2-0.7-0.6-1.1,0c-0.1,0.1-0.2,0.1-0.3,0c-0.1-0.1-0.1-0.2,0-0.2
					c0.3-0.4,0.7-0.7,1-1.1c0.1-0.1,0.2-0.1,0.3,0C104.7,395.9,104.7,396,104.7,396z"/>
				<path class="st11" d="M113.1,400c-0.1-0.4,0.1-0.7,0.7-0.7c0.4,0,0.8-0.1,1.1-0.1c0.2,0,0.4,0,0.4,0.2c0,0.2-0.1,0.4-0.3,0.4
					C114.4,399.9,113.7,400,113.1,400L113.1,400z"/>
			</g>
			<path class="st11" d="M112.1,432.3c-4.1,1.8-8.6,2.8-13.4,2.8c-17.2,0-31.1-13-31.1-28.9L112.1,432.3z"/>
			<path class="st11" d="M68.3,405.2c0-2,8.2-1.4,10.1-0.5c24.3,11.7,34.7,27.2,34.7,27.2S68.3,406.4,68.3,405.2z"/>
			<ellipse class="st12" cx="98.5" cy="404.2" rx="31.4" ry="30.7"/>
		</g>
	</g>
	<g>
		<ellipse class="st5" cx="99.6" cy="507.4" rx="36" ry="35.6"/>
	</g>
	<g>
		<ellipse class="st5" cx="98.6" cy="307.4" rx="36" ry="35.6"/>
	</g>
	<text transform="matrix(1 0 0 1 141.8541 373.6873)"><tspan x="0" y="0" class="st5 st6 st7">Falta de alimentos. Si no hay </tspan><tspan x="0" y="14.4" class="st5 st6 st7">agua suficiente, esto afecta a la </tspan><tspan x="0" y="28.8" class="st5 st6 st7">agricultura, la ganadería y la </tspan><tspan x="0" y="43.2" class="st5 st6 st7">industria, produciendo escasez </tspan><tspan x="0" y="57.6" class="st5 st6 st7">de alimentos.</tspan></text>
	<g>
		<path class="st13" d="M100.4,275c0.5,0.1,1,0.1,1.5,0.1c2.6,0.3,5.2,0.8,7.7,1.7c2.4,0.9,4.8,2,6.9,3.4c2.4,1.5,4.5,3.4,6.4,5.5
			c1.6,1.8,3,3.7,4.2,5.8c1.2,2.1,2.1,4.2,2.8,6.5c0.7,2.2,1.1,4.4,1.3,6.7c0.2,2.2,0.1,4.4-0.1,6.6c-0.3,2.8-1,5.6-2.1,8.2
			c-1.4,3.5-3.3,6.6-5.8,9.4c-2.4,2.7-5.1,4.9-8.1,6.7c-3.4,1.9-7,3.3-10.9,3.9c-2.5,0.4-5.1,0.5-7.7,0.3c-2.4-0.2-4.7-0.6-6.9-1.2
			c-4.3-1.3-8.1-3.3-11.6-6.2c-3.8-3.2-6.8-7.1-8.8-11.6c-1.3-2.9-2.2-6-2.6-9.2c-0.3-1.9-0.3-3.9-0.2-5.8c0.2-3.3,0.8-6.6,2-9.7
			c1.3-3.6,3.2-6.8,5.7-9.7c2.5-3,5.5-5.4,8.9-7.3c3.1-1.7,6.4-2.9,9.9-3.6c1.3-0.2,2.5-0.4,3.8-0.5c0.1,0,0.3,0,0.4-0.1
			C98.1,275,99.3,275,100.4,275z M98.7,336.7c16.1,0.1,29.5-13.2,29.2-29.7c-0.2-15.8-13.2-28.9-29.5-28.8
			c-15.8,0.1-29.6,13.2-28.9,30.5C70.1,323.9,82.7,336.8,98.7,336.7z"/>
		<path class="st13" d="M84,313.5c-1.2,0-2.5,0-3.7,0c-0.4,0-0.5-0.1-0.5-0.5c0-1.8-0.1-3.7,0-5.5c0.1-3,2-5.5,4.8-6.6
			c0.9-0.4,1.9-0.5,2.9-0.5c1.3,0,2.6,0,3.9,0c0.6,0,0.6,0,0.6-0.6c0-0.2,0-0.4,0-0.6c0-0.7,0.5-1.2,1.2-1.3
			c0.5-0.1,0.9-0.1,1.4-0.1c4,0,7.9,0,11.9,0c1.1,0,1.7,0.6,1.7,1.6c-0.1,1.2-0.2,1,1,1c2,0,4,0,6,0c0.4,0,0.5,0.1,0.5,0.5
			c0,2.5,0,4.9,0,7.4c0,0.4-0.1,0.5-0.5,0.5c-2.2,0-4.4,0-6.5,0c-0.3,0-0.6,0.1-0.9,0.3c-1.2,0.8-2.4,1.6-3.7,2.2
			c-3.4,1.3-6.7,1-9.7-0.9c-0.7-0.4-1.3-0.9-2-1.3c-0.2-0.1-0.4-0.2-0.6-0.2c-1,0-2,0-3,0c-0.4,0-0.5,0.1-0.5,0.5c0,1.2,0,2.4,0,3.6
			c0,0.7,0,0.7-0.6,0.7C86.4,313.5,85.2,313.5,84,313.5z"/>
		<path class="st13" d="M101.4,295.4c0,0.4,0,0.8,0,1.2c0,0.3-0.1,0.4-0.4,0.4c-0.6,0-1.3,0-1.9,0c-0.3,0-0.5-0.1-0.5-0.5
			c0-0.8,0-1.5,0-2.3c0-0.2-0.1-0.4-0.3-0.5c-0.5-0.3-1-0.6-1.3-1.1c-0.1-0.2-0.3-0.2-0.6-0.2c-1.6,0.3-3.3,0.6-5,0.9
			c-0.6,0.1-1-0.1-1.3-0.5c-0.9-1.2-0.9-3.5,0-4.7c0.4-0.5,0.9-0.6,1.5-0.5c1.5,0.3,3,0.5,4.6,0.8c0.5,0.1,0.8-0.1,1.1-0.4
			c1.3-1.6,4.1-1.8,5.5-0.2c0.5,0.6,1,0.7,1.7,0.5c1.3-0.3,2.7-0.5,4.1-0.7c0.9-0.1,1.3,0,1.7,0.8c0.7,1.4,0.7,2.8-0.1,4.2
			c-0.3,0.6-0.9,0.8-1.6,0.7c-1.6-0.3-3.2-0.6-4.8-0.9c-0.3,0-0.4,0-0.6,0.2c-0.3,0.5-0.8,0.9-1.3,1.1c-0.2,0.1-0.3,0.3-0.3,0.5
			C101.4,294.7,101.4,295,101.4,295.4C101.4,295.4,101.4,295.4,101.4,295.4z"/>
		<path class="st13" d="M83.9,328.3c-2.5,0-4.6-2.6-3.5-5.3c0.6-1.5,1.5-2.8,2.4-4.2c0.3-0.4,0.6-0.9,0.9-1.3c0.1-0.2,0.3-0.2,0.4,0
			c1.3,1.8,2.5,3.7,3.4,5.7C88.5,325.5,86.7,328.4,83.9,328.3z"/>
		<path class="st13" d="M83.9,316.3c-1.4,0-2.8,0-4.1,0c-0.4,0-0.5-0.1-0.5-0.5c0-0.4,0-0.7,0-1.1c0-0.4,0.2-0.4,0.5-0.4
			c2,0,3.9,0,5.9,0c0.8,0,1.7,0,2.5,0c0.3,0,0.5,0.1,0.5,0.4c0,0.4,0,0.7,0,1.1c0,0.4-0.2,0.5-0.5,0.5
			C86.7,316.3,85.3,316.3,83.9,316.3C83.9,316.3,83.9,316.3,83.9,316.3z"/>
	</g>
	<g>
		<path class="st14" d="M101.4,475c0.5,0.1,1,0.1,1.5,0.1c2.6,0.3,5.2,0.8,7.7,1.7c2.4,0.9,4.8,2,6.9,3.4c2.4,1.5,4.5,3.4,6.4,5.5
			c1.6,1.8,3,3.7,4.2,5.8c1.2,2.1,2.1,4.2,2.8,6.5c0.7,2.2,1.1,4.4,1.3,6.7c0.2,2.2,0.1,4.4-0.1,6.6c-0.3,2.8-1,5.6-2.1,8.2
			c-1.4,3.5-3.3,6.6-5.8,9.4c-2.4,2.7-5.1,4.9-8.1,6.7c-3.4,1.9-7,3.3-10.9,3.9c-2.5,0.4-5.1,0.5-7.7,0.3c-2.4-0.2-4.7-0.6-6.9-1.2
			c-4.3-1.3-8.1-3.3-11.6-6.2c-3.8-3.2-6.8-7.1-8.8-11.6c-1.3-2.9-2.2-6-2.6-9.2c-0.3-1.9-0.3-3.9-0.2-5.8c0.2-3.3,0.8-6.6,2-9.7
			c1.3-3.6,3.2-6.8,5.7-9.7c2.5-3,5.5-5.4,8.9-7.3c3.1-1.7,6.4-2.9,9.9-3.6c1.3-0.2,2.5-0.4,3.8-0.5c0.1,0,0.3,0,0.4-0.1
			C99.1,475,100.3,475,101.4,475z M99.7,536.7c16.1,0.1,29.5-13.2,29.2-29.7c-0.2-15.8-13.2-28.9-29.5-28.8
			c-15.8,0.1-29.6,13.2-28.9,30.5C71.1,523.9,83.7,536.8,99.7,536.7z"/>
	</g>
	<g>
		<ellipse class="st5" cx="103.6" cy="611.4" rx="36" ry="35.6"/>
	</g>
	<g>
		<text transform="matrix(1 0 0 1 147.7613 577.6873)"><tspan x="0" y="0" class="st5 st6 st7">Aparición de enfermedades. La escasez </tspan><tspan x="0" y="14.4" class="st5 st6 st7">de agua y la falta de sistemas de potabilización </tspan><tspan x="0" y="28.8" class="st5 st6 st7">adecuados obliga a personas de algunos países </tspan><tspan x="0" y="43.2" class="st5 st6 st7">del mundo a recurrir a fuentes de agua contaminadas </tspan><tspan x="0" y="57.6" class="st5 st6 st7">que provocan enfermedades.</tspan></text>
	</g>
	<g>
		<path class="st13" d="M109.6,631.7c-1,0.3-2,0.6-3,0.8c-1.8,0.4-3.6,0.6-5.5,0.5c-1,0-2-0.2-3-0.4c-1.2-0.2-2.4-0.5-3.6-1
			c-1.8-0.7-3.4-1.7-4.7-3.2c-1.7-1.8-2.8-4-3.2-6.4c-0.2-1.4-0.4-2.7-0.5-4.1c0-1.5,0.5-3,1-4.5c1.3-3.5,3-6.9,5-10.1
			c1.9-3.1,3.8-6.2,5.8-9.3c1.3-2,2.7-3.9,4.1-5.9c0-0.1,0.1-0.1,0.2-0.2c1.4,2.1,5.6,10.8,8.3,13.5c0.2,0.3,3.8,5.1,3.6,5.4
			c-2.1,3.3-4.6,6.3-6.3,9.9c-0.8,1.6-5.4,9,1.6,14.7C109.5,631.5,109.5,631.5,109.6,631.7z M89,622c-1,0-1.1,0.3-0.6,1.6
			c0.6,1.5,1.4,2.9,2.5,4.1c1.7,1.9,2.6,0.7,1.1-0.7C91,626,89,622,89,622z"/>
		<path class="st15" d="M116.1,606.9c1.3,2,2.7,3.9,3.9,5.9c1,1.6,2,3.3,2.9,4.9c0.9,1.7,1.7,3.4,2,5.3c0.1,0.7,0,1.5-0.1,2.3
			c-0.1,1.1-0.5,2.1-1.2,3.1c-0.9,1.4-2.3,2.3-3.9,2.9c-1.6,0.6-3.3,0.7-5,0.5c-1.7-0.1-3.3-0.6-4.7-1.7c-1.4-1-2.3-2.4-2.7-4.1
			c-0.2-0.7-0.3-1.5-0.3-2.3c-0.1-0.9,0.2-1.8,0.6-2.7c1.3-3.4,3.2-6.4,5.2-9.4c1-1.5,2.1-3,3.1-4.5
			C115.9,607.1,116,607.1,116.1,606.9z M114.4,631.2c0.7,0,0.9-0.1,1-0.3c0.2-0.5-0.1-1-0.7-1c-0.4,0-0.8-0.1-1.2-0.2
			c-1.5-0.4-2.7-1.2-3.5-2.6c-0.5-0.9-0.8-1.9-0.9-2.9c-0.1-0.4-0.3-0.6-0.8-0.5c-0.4,0-0.5,0.2-0.5,0.6c0,0.1,0,0.3,0,0.4
			c0.3,1.4,0.7,2.7,1.6,3.8C110.6,630.2,112.5,631,114.4,631.2z"/>
		<rect x="100.4" y="610.3" class="st5" width="2.8" height="11.3"/>
		
			<rect x="100.4" y="610.3" transform="matrix(-1.836970e-16 1 -1 -1.836970e-16 717.7908 514.0665)" class="st5" width="2.8" height="11.3"/>
	</g>
	<g>
		<path class="st13" d="M105.4,579c0.5,0.1,1,0.1,1.5,0.1c2.6,0.3,5.2,0.8,7.7,1.7c2.4,0.9,4.8,2,6.9,3.4c2.4,1.5,4.5,3.4,6.4,5.5
			c1.6,1.8,3,3.7,4.2,5.8c1.2,2.1,2.1,4.2,2.8,6.5c0.7,2.2,1.1,4.4,1.3,6.7c0.2,2.2,0.1,4.4-0.1,6.6c-0.3,2.8-1,5.6-2.1,8.2
			c-1.4,3.5-3.3,6.6-5.8,9.4c-2.4,2.7-5.1,4.9-8.1,6.7c-3.4,1.9-7,3.3-10.9,3.9c-2.5,0.4-5.1,0.5-7.7,0.3c-2.4-0.2-4.7-0.6-6.9-1.2
			c-4.3-1.3-8.1-3.3-11.6-6.2c-3.8-3.2-6.8-7.1-8.8-11.6c-1.3-2.9-2.2-6-2.6-9.2c-0.3-1.9-0.3-3.9-0.2-5.8c0.2-3.3,0.8-6.6,2-9.7
			c1.3-3.6,3.2-6.8,5.7-9.7c2.5-3,5.5-5.4,8.9-7.3c3.1-1.7,6.4-2.9,9.9-3.6c1.3-0.2,2.5-0.4,3.8-0.5c0.1,0,0.3,0,0.4-0.1
			C103.1,579,104.3,579,105.4,579z M103.7,640.7c16.1,0.1,29.5-13.2,29.2-29.7c-0.2-15.8-13.2-28.9-29.5-28.8
			c-15.8,0.1-29.6,13.2-28.9,30.5C75.1,627.9,87.7,640.8,103.7,640.7z"/>
	</g>
	<g>
		<path class="st11" d="M100.4,372c0.5,0.1,1,0.1,1.5,0.1c2.6,0.3,5.2,0.8,7.7,1.7c2.4,0.9,4.8,2,6.9,3.4c2.4,1.5,4.5,3.4,6.4,5.5
			c1.6,1.8,3,3.7,4.2,5.8c1.2,2.1,2.1,4.2,2.8,6.5c0.7,2.2,1.1,4.4,1.3,6.7c0.2,2.2,0.1,4.4-0.1,6.6c-0.3,2.8-1,5.6-2.1,8.2
			c-1.4,3.5-3.3,6.6-5.8,9.4c-2.4,2.7-5.1,4.9-8.1,6.7c-3.4,1.9-7,3.3-10.9,3.9c-2.5,0.4-5.1,0.5-7.7,0.3c-2.4-0.2-4.7-0.6-6.9-1.2
			c-4.3-1.3-8.1-3.3-11.6-6.2c-3.8-3.2-6.8-7.1-8.8-11.6c-1.3-2.9-2.2-6-2.6-9.2c-0.3-1.9-0.3-3.9-0.2-5.8c0.2-3.3,0.8-6.6,2-9.7
			c1.3-3.6,3.2-6.8,5.7-9.7c2.5-3,5.5-5.4,8.9-7.3c3.1-1.7,6.4-2.9,9.9-3.6c1.3-0.2,2.5-0.4,3.8-0.5c0.1,0,0.3,0,0.4-0.1
			C98.1,372,99.3,372,100.4,372z M98.7,433.7c16.1,0.1,29.5-13.2,29.2-29.7c-0.2-15.8-13.2-28.9-29.5-28.8
			c-15.8,0.1-29.6,13.2-28.9,30.5C70.1,420.9,82.7,433.8,98.7,433.7z"/>
	</g>
	<g>
		<text transform="matrix(1 0 0 1 145.2892 478.4826)"><tspan x="0" y="0" class="st5 st6 st7">En ocasiones, con la </tspan><tspan x="0" y="14.4" class="st5 st6 st7">sobreexplotación de acuíferos,</tspan><tspan x="0" y="28.8" class="st5 st6 st7">puede tener lugar la liberación de</tspan><tspan x="0" y="43.2" class="st5 st6 st7">gases como el CO2.</tspan></text>
	</g>
	<g>
		<path class="st14" d="M125,515.7c-0.3,1.7-1.1,3.1-2.5,4.1c-1.2,0.8-2.5,1.2-3.9,1.3c-2.2,0-4.5,0-6.7,0c-1.9,0-3.8,0-5.8,0.1
			c-1.6,0-3.2-0.2-4.6-1.2c-1.1-0.8-1.9-1.8-2.5-3.1c-0.1-0.3-0.1-0.5,0.3-0.5c1.6-0.2,3.1-0.7,4.4-1.7c2.8-2.1,4-5.7,3-9
			c-0.1-0.4,0-0.6,0.3-0.9c3.5-2.3,8.2-0.9,9.8,3c0.1,0.3,0.3,0.5,0.6,0.4c3.5-0.4,6.6,1.9,7.3,5.4c0,0.1,0,0.2,0.1,0.3
			C125,514.4,125,515.1,125,515.7z"/>
		<path class="st14" d="M91.8,520c-1.7,0-3.3,0-5,0c-5.9,0-10.6-3.8-12-9.5c-1.2-5.1,1.3-10.7,5.9-13.2c1.3-0.7,2.7-1.2,4.3-1.4
			c0.4-0.1,0.7-0.2,0.9-0.6c1.8-3.8,4.8-6.1,8.9-6.9c5.7-1.1,11.3,2.1,13.4,7.5c0.2,0.5,0.4,0.6,0.9,0.5c3.5-0.4,6.7,0.5,9.4,2.9
			c2,1.7,3.3,3.9,3.9,6.6c0,0.2,0.2,0.4,0,0.5c-0.2,0.1-0.3-0.1-0.5-0.1c-0.8-0.3-1.7-0.6-2.6-0.6c-0.3,0-0.6-0.2-0.8-0.5
			c-1.6-2.3-3.8-3.6-6.5-4c-2.2-0.3-4.2,0.2-6.1,1.4c-0.4,0.2-0.5,0.2-0.8-0.1c-2.3-2.6-5.3-3.5-8.6-2.7c-3.4,0.9-5.5,3.2-6.2,6.6
			c-0.8,4,1.4,8,5.3,9.5c0.4,0.2,0.7,0.4,0.8,0.8c0.2,1,0.6,1.9,1.1,2.7c0.1,0.1,0.2,0.3,0.2,0.4c-0.1,0.2-0.3,0.1-0.4,0.1
			C95.4,519.9,93.6,519.9,91.8,520C91.8,519.9,91.8,520,91.8,520z"/>
		<path class="st14" d="M99.5,504.4c1.8,0,3,1.3,3,3.2c0,1.9-1.3,3.3-3.1,3.3c-1.7,0-2.9-1.3-2.9-3.2
			C96.4,505.7,97.6,504.4,99.5,504.4z M101.2,507.7c0-0.5-0.1-1-0.3-1.4c-0.3-0.6-0.7-0.9-1.4-0.9c-0.7,0-1.2,0.3-1.5,0.8
			c-0.5,1-0.5,2,0,2.9c0.6,1.1,2.1,1.1,2.8,0C101.1,508.7,101.2,508.2,101.2,507.7z"/>
		<path class="st14" d="M95.4,509.8c0.3,0,0.6,0,0.9-0.1c0.2-0.1,0.4-0.2,0.5,0.2c0.1,0.3,0.2,0.6-0.2,0.7c-1.1,0.5-2.8,0.3-3.6-0.5
			c-0.9-0.8-1.2-2.4-0.7-3.7c0.5-1.2,1.6-1.9,2.9-2c0.5,0,1,0.1,1.4,0.2c0.4,0.1,0.2,0.4,0.2,0.6c-0.1,0.3-0.2,0.4-0.5,0.3
			c-0.3-0.1-0.5-0.1-0.8-0.1c-1.1-0.1-2,0.6-2.2,1.7c-0.2,1.3,0.3,2.4,1.4,2.7C94.9,509.8,95.2,509.8,95.4,509.8z"/>
		<path class="st14" d="M103.8,510.1c0.4,0,0.7,0,1.1,0c0.2,0,0.4,0,0.4,0.3c0,0.3-0.2,0.3-0.4,0.3c-0.6,0-1.2,0-1.8,0
			c-0.1,0-0.3,0-0.4-0.2c-0.1-0.2,0-0.3,0.2-0.4c0.4-0.4,0.8-0.8,1.2-1.3c0.2-0.2,0.3-0.4,0.4-0.7c0.1-0.3,0.1-0.6-0.1-0.9
			c-0.3-0.3-0.6-0.2-0.9-0.1c-0.1,0-0.1,0.1-0.2,0.1c-0.1,0.1-0.2,0.1-0.3-0.1c-0.1-0.1-0.1-0.3,0.1-0.4c0.4-0.3,1.3-0.4,1.8-0.1
			c0.4,0.3,0.6,0.9,0.4,1.5c-0.2,0.5-0.5,0.9-0.8,1.2c-0.2,0.2-0.4,0.3-0.6,0.5C103.7,510,103.8,510.1,103.8,510.1z"/>
	</g>
</g>
</svg>
