<?xml version="1.0" encoding="utf-8"?>
<!-- Generator: Adobe Illustrator 27.7.0, SVG Export Plug-In . SVG Version: 6.00 Build 0)  -->
<svg version="1.1" id="Capa_1" xmlns="http://www.w3.org/2000/svg" xmlns:xlink="http://www.w3.org/1999/xlink" x="0px" y="0px"
	 viewBox="0 0 768 768" style="enable-background:new 0 0 768 768;" xml:space="preserve">
<style type="text/css">
	.st0{opacity:0.31;fill:#A367AE;}
	.st1{fill:#CF7CB2;}
	.st2{fill:#5437A5;}
	.st3{fill:#A367AE;}
	.st4{fill:#D17CB2;}
	.st5{fill:#FFFFFF;}
	.st6{fill:#57411D;}
	.st7{fill:#E23A00;}
	.st8{fill:#009F23;}
	.st9{fill:#965C08;}
	.st10{font-family:'MyriadPro-Regular';}
	.st11{font-size:12px;}
	.st12{fill:#FEFEFB;}
	.st13{font-family:'MyanmarText-Bold';}
	.st14{font-size:27.7686px;}
</style>
<rect x="74.4" y="65.5" transform="matrix(-1 -4.489443e-11 4.489443e-11 -1 756.8624 734)" class="st0" width="608" height="603"/>
<ellipse class="st1" cx="673.5" cy="296.5" rx="41" ry="41"/>
<polygon class="st2" points="771.4,228.5 771.4,129.5 147.4,129.5 232.4,228.5 "/>
<path class="st3" d="M295.7,326.5c3.5-6.5,43.6-73.9,43.6-73.9l346.9-0.1l-53.2,74H295.7z"/>
<circle class="st1" cx="673.2" cy="393.7" r="41"/>
<path class="st3" d="M296.4,428.2c3.5-7.3,43.6-82.8,43.6-82.8l346.9-0.1l-53.2,82.9H296.4z"/>
<circle class="st4" cx="671.8" cy="496.5" r="41"/>
<path class="st3" d="M295,528.5c3.5-7.2,43.6-81.3,43.6-81.3l346.9-0.1l-53.2,81.4H295z"/>
<circle class="st4" cx="667.8" cy="600.5" r="41"/>
<path class="st3" d="M256.4,632.5c3.8-7.2,47.5-81.3,47.5-81.3l377.7-0.1l-57.9,81.4H256.4z"/>
<g>
	<defs>
		<circle id="SVGID_1_" cx="222.7" cy="429.2" r="216.2"/>
	</defs>
	<clipPath id="SVGID_00000081638978291286812590000007570574928390160568_">
		<use xlink:href="#SVGID_1_"  style="overflow:visible;"/>
	</clipPath>
	
		<g transform="matrix(1 0 0 1 -3.051758e-05 0)" style="clip-path:url(#SVGID_00000081638978291286812590000007570574928390160568_);">
		
			<image style="overflow:visible;" width="989" height="658" xlink:href="CA78E5BC.jpg"  transform="matrix(-0.6672 0 0 0.6672 469.428 208.3793)">
		</image>
	</g>
</g>
<g>
	<ellipse class="st5" cx="671.8" cy="496.9" rx="36" ry="35.6"/>
</g>
<g>
	<ellipse class="st5" cx="672.8" cy="393.9" rx="36" ry="35.6"/>
</g>
<g>
	<ellipse class="st5" cx="672.8" cy="296.9" rx="36" ry="35.6"/>
</g>
<g>
	<path class="st6" d="M673.4,464.5c0.1,0,0.3,0.1,0.4,0.1c1.3,0.1,2.6,0.2,3.8,0.5c3.5,0.7,6.8,1.8,9.9,3.6c3.4,1.9,6.4,4.4,8.9,7.3
		c2.5,2.9,4.4,6.1,5.7,9.7c1.2,3.1,1.8,6.4,2,9.7c0.1,1.9,0,3.9-0.2,5.8c-0.4,3.2-1.3,6.3-2.6,9.2c-2.1,4.5-5,8.4-8.8,11.6
		c-3.4,2.9-7.3,4.9-11.6,6.2c-2.3,0.7-4.6,1.1-6.9,1.2c-2.6,0.2-5.1,0.1-7.7-0.3c-3.9-0.6-7.5-1.9-10.9-3.9c-3.1-1.8-5.8-4-8.1-6.7
		c-2.5-2.8-4.4-6-5.8-9.4c-1.1-2.6-1.8-5.4-2.1-8.2c-0.3-2.2-0.3-4.4-0.1-6.6c0.2-2.3,0.6-4.5,1.3-6.7c0.7-2.3,1.6-4.4,2.8-6.5
		c1.2-2.1,2.6-4,4.2-5.8c1.9-2.1,4-3.9,6.4-5.5c2.2-1.4,4.5-2.6,6.9-3.4c2.5-0.9,5-1.4,7.7-1.7c0.5-0.1,1,0,1.5-0.1
		C671.2,464.5,672.3,464.5,673.4,464.5z M701,498.3c0.7-17.3-13.2-30.4-28.9-30.5c-16.4-0.1-29.3,13-29.5,28.8
		c-0.2,16.5,13.1,29.7,29.2,29.7C687.8,526.3,700.4,513.4,701,498.3z"/>
</g>
<g>
	<ellipse class="st5" cx="667.8" cy="600.9" rx="36" ry="35.6"/>
</g>
<g>
	<path class="st7" d="M669.4,568.5c0.1,0,0.3,0.1,0.4,0.1c1.3,0.1,2.6,0.2,3.8,0.5c3.5,0.7,6.8,1.8,9.9,3.6c3.4,1.9,6.4,4.4,8.9,7.3
		c2.5,2.9,4.4,6.1,5.7,9.7c1.2,3.1,1.8,6.4,2,9.7c0.1,1.9,0,3.9-0.2,5.8c-0.4,3.2-1.3,6.3-2.6,9.2c-2.1,4.5-5,8.4-8.8,11.6
		c-3.4,2.9-7.3,4.9-11.6,6.2c-2.3,0.7-4.6,1.1-6.9,1.2c-2.6,0.2-5.1,0.1-7.7-0.3c-3.9-0.6-7.5-1.9-10.9-3.9c-3.1-1.8-5.8-4-8.1-6.7
		c-2.5-2.8-4.4-6-5.8-9.4c-1.1-2.6-1.8-5.4-2.1-8.2c-0.3-2.2-0.3-4.4-0.1-6.6c0.2-2.3,0.6-4.5,1.3-6.7c0.7-2.3,1.6-4.4,2.8-6.5
		c1.2-2.1,2.6-4,4.2-5.8c1.9-2.1,4-3.9,6.4-5.5c2.2-1.4,4.5-2.6,6.9-3.4c2.5-0.9,5-1.4,7.7-1.7c0.5-0.1,1,0,1.5-0.1
		C667.2,568.5,668.3,568.5,669.4,568.5z M697,602.3c0.7-17.3-13.2-30.4-28.9-30.5c-16.4-0.1-29.3,13-29.5,28.8
		c-0.2,16.5,13.1,29.7,29.2,29.7C683.8,630.3,696.4,617.4,697,602.3z"/>
</g>
<g>
	<path class="st8" d="M674.4,361.5c0.1,0,0.3,0.1,0.4,0.1c1.3,0.1,2.6,0.2,3.8,0.5c3.5,0.7,6.8,1.8,9.9,3.6c3.4,1.9,6.4,4.4,8.9,7.3
		c2.5,2.9,4.4,6.1,5.7,9.7c1.2,3.1,1.8,6.4,2,9.7c0.1,1.9,0,3.9-0.2,5.8c-0.4,3.2-1.3,6.3-2.6,9.2c-2.1,4.5-5,8.4-8.8,11.6
		c-3.4,2.9-7.3,4.9-11.6,6.2c-2.3,0.7-4.6,1.1-6.9,1.2c-2.6,0.2-5.1,0.1-7.7-0.3c-3.9-0.6-7.5-1.9-10.9-3.9c-3.1-1.8-5.8-4-8.1-6.7
		c-2.5-2.8-4.4-6-5.8-9.4c-1.1-2.6-1.8-5.4-2.1-8.2c-0.3-2.2-0.3-4.4-0.1-6.6c0.2-2.3,0.6-4.5,1.3-6.7c0.7-2.3,1.6-4.4,2.8-6.5
		c1.2-2.1,2.6-4,4.2-5.8c1.9-2.1,4-3.9,6.4-5.5c2.2-1.4,4.5-2.6,6.9-3.4c2.5-0.9,5-1.4,7.7-1.7c0.5-0.1,1,0,1.5-0.1
		C672.2,361.5,673.3,361.5,674.4,361.5z M702,395.3c0.7-17.3-13.2-30.4-28.9-30.5c-16.4-0.1-29.3,13-29.5,28.8
		c-0.2,16.5,13.1,29.7,29.2,29.7C688.8,423.3,701.4,410.4,702,395.3z"/>
</g>
<g>
	<path class="st9" d="M674.4,264c0.1,0,0.3,0.1,0.4,0.1c1.3,0.1,2.6,0.2,3.8,0.5c3.5,0.7,6.8,1.8,9.9,3.6c3.4,1.9,6.4,4.4,8.9,7.3
		c2.5,2.9,4.4,6.1,5.7,9.7c1.2,3.1,1.8,6.4,2,9.7c0.1,1.9,0,3.9-0.2,5.8c-0.4,3.2-1.3,6.3-2.6,9.2c-2.1,4.5-5,8.4-8.8,11.6
		c-3.4,2.9-7.3,4.9-11.6,6.2c-2.3,0.7-4.6,1.1-6.9,1.2c-2.6,0.2-5.1,0.1-7.7-0.3c-3.9-0.6-7.5-1.9-10.9-3.9c-3.1-1.8-5.8-4-8.1-6.7
		c-2.5-2.8-4.4-6-5.8-9.4c-1.1-2.6-1.8-5.4-2.1-8.2c-0.3-2.2-0.3-4.4-0.1-6.6c0.2-2.3,0.6-4.5,1.3-6.7c0.7-2.3,1.6-4.4,2.8-6.5
		c1.2-2.1,2.6-4,4.2-5.8c1.9-2.1,4-3.9,6.4-5.5c2.2-1.4,4.5-2.6,6.9-3.4c2.5-0.9,5-1.4,7.7-1.7c0.5-0.1,1,0,1.5-0.1
		C672.2,264,673.3,264,674.4,264z M702,297.8c0.7-17.3-13.2-30.4-28.9-30.5c-16.4-0.1-29.3,13-29.5,28.8
		c-0.2,16.5,13.1,29.7,29.2,29.7C688.8,325.8,701.4,312.9,702,297.8z"/>
</g>
<g>
	<defs>
		<circle id="SVGID_00000145031738744416008870000008437762123269247158_" cx="222.8" cy="429.5" r="216.2"/>
	</defs>
	<clipPath id="SVGID_00000119103859969718535420000012690383580368052403_">
		<use xlink:href="#SVGID_00000145031738744416008870000008437762123269247158_"  style="overflow:visible;"/>
	</clipPath>
	
		<g transform="matrix(1 0 0 1 0 1.525879e-05)" style="clip-path:url(#SVGID_00000119103859969718535420000012690383580368052403_);">
		
			<image style="overflow:visible;" width="1695" height="1354" xlink:href="CA78E5BD.jpg"  transform="matrix(0.3252 0 0 0.3252 222 213)">
		</image>
	</g>
	<g transform="matrix(1 0 0 1 0 0)" style="clip-path:url(#SVGID_00000119103859969718535420000012690383580368052403_);">
		
			<image style="overflow:visible;" width="1560" height="1366" xlink:href="CA78E5BB.jpg"  transform="matrix(0.3223 0 0 0.3223 -281 213)">
		</image>
	</g>
</g>
<text transform="matrix(1 0 0 1 448.7515 376.333)"><tspan x="0" y="0" class="st5 st10 st11">Las especies nativas y endémicas, </tspan><tspan x="0" y="14.4" class="st5 st10 st11">presentan una gran amenaza por la</tspan><tspan x="0" y="28.8" class="st5 st10 st11">gran devastación de sus habitats.</tspan></text>
<text transform="matrix(1 0 0 1 418.7515 272.333)"><tspan x="0" y="0" class="st5 st10 st11">La baja constante de humedad en el suelo </tspan><tspan x="0" y="14.4" class="st5 st10 st11">afecta en primer lugar a los vegetales, </tspan><tspan x="0" y="28.8" class="st5 st10 st11">alterando sus ciclos de crecimiento y </tspan><tspan x="0" y="43.2" class="st5 st10 st11">reproducción.</tspan></text>
<g>
	<text transform="matrix(1 0 0 1 287.2581 171.3948)"><tspan x="0" y="0" class="st12 st13 st14">Consecuencias de las extracciones</tspan><tspan x="92.1" y="33.3" class="st12 st13 st14">de yodo en la fauna y flora</tspan></text>
</g>
<g>
	<text transform="matrix(1 0 0 1 445.0356 482.9629)"><tspan x="0" y="0" class="st5 st10 st11"> Hay menos agua para el ganado y </tspan><tspan x="0" y="14.4" class="st5 st10 st11">de que los ríos se están secando.</tspan></text>
</g>
<g>
	<text transform="matrix(1 0 0 1 405.8643 577.4275)"><tspan x="0" y="0" class="st5 st10 st11"> El enorme cúmulo de vegetación muerta </tspan><tspan x="0" y="14.4" class="st5 st10 st11">pasa a ser un peligro, para la ocurrencia y </tspan><tspan x="0" y="28.8" class="st5 st10 st11">propagación de incendios forestales.</tspan></text>
</g>
<g>
	<path class="st8" d="M676.3,394.5c-0.1-0.1-0.2-0.1-0.2-0.1c-0.6-0.2-1.1-0.3-1.7-0.5c-0.1,0-0.1-0.1-0.1-0.2
		c0-0.3,0.1-0.6,0.1-0.9c0.1-0.6,0.1-1.3,0.2-1.9c0.1-0.5,0.1-1.1,0.2-1.6c0,0,0-0.1,0-0.1c0-0.1,0.1-0.2,0.2-0.2
		c0.3,0,0.6-0.1,0.8-0.1c0.2,0,0.2,0,0.3-0.2c0.1-0.3,0.1-0.3-0.3-0.3c-0.2,0-0.5,0-0.7,0c-0.2,0-0.2-0.1-0.2-0.2
		c0.1-0.9,0.3-1.8,0.4-2.7c0-0.3,0-0.6,0-0.9c0-0.3,0-0.5,0-0.8c0-0.7,0-1.4-0.1-2.1c0-0.1,0-0.2,0.2-0.2c0.5-0.1,1-0.3,1.5-0.4
		c0,0,0,0,0.1,0c0-0.1-0.1-0.1-0.1-0.1c-0.5-0.2-1-0.3-1.5-0.4c-0.2,0-0.2-0.1-0.2-0.3c0-0.6,0.1-1.1,0.1-1.7c0-0.5,0.1-0.9,0.1-1.4
		c0-0.1,0-0.2,0.2-0.2c0.1,0,0.2,0,0.3,0c0.1,0,0.1,0,0.2-0.1c0-0.1,0-0.2,0.1-0.3c0-0.1,0-0.1-0.1-0.1c-0.1,0-0.3,0-0.4,0
		c-0.1,0-0.1,0-0.1-0.1c0.1-0.6,0.1-1.2,0.1-1.8c0-0.2,0-0.2,0.3-0.2c0.1,0,0.1,0,0.2,0c0.9,0,1.8,0,2.7,0c0.9,0,1.9,0,2.8,0.1
		c1,0,1.9,0,2.9,0.1c0.8,0,1.6,0,2.4,0.1c0,0,0.1,0,0.1,0c0.2,0,0.2,0,0.2,0.2c0,0.5,0,1,0,1.5c0,0.1,0,0.2-0.2,0.3
		c-0.7,0.3-1.3,0.6-2,0.8c0,0-0.1,0-0.1,0.1c0.1,0,0.2,0,0.3,0c0.6,0,1.2,0.1,1.8,0.1c0.1,0,0.2,0.1,0.2,0.2c0,0.5,0,0.9,0,1.4
		c0,0.7,0.1,1.4,0.2,2.1c0.1,0.6,0.1,1.1,0.2,1.7c0.1,0.6,0,1.2-0.1,1.7c-0.1,0.7-0.2,1.5-0.3,2.2c0,0.3,0,0.7,0,1
		c0,0.4,0,0.9,0,1.3c0,0.1,0,0.2-0.2,0.3c-0.2,0.1-0.5,0.2-0.7,0.3c-0.2,0.1-0.4,0.1-0.6,0.1c-0.2,0-0.4,0-0.6,0
		c0.4,0.2,0.7,0.3,1,0.4c0.3,0.1,0.6,0.2,0.9,0.3c0.1,0,0.1,0.1,0.1,0.2c-0.1,0.9,0.1,1.7,0.2,2.6c0.1,0.6,0.1,1.2,0.2,1.8
		c0.1,0.7,0.1,1.4,0.2,2.1c0.1,0.6,0.1,1.2,0.2,1.8c0.1,0.6,0.1,1.2,0.2,1.8c0.1,0.6,0.1,1.2,0.2,1.8c0,0.5,0.1,1,0.1,1.4
		c0,0.1,0.1,0.2,0.1,0.3c0.4,0.9,0.9,1.7,1.4,2.5c0.1,0.2,0.2,0.3,0.4,0.4c1.4,0.9,2.9,1.7,4.3,2.6c0.1,0.1,0.2,0.1,0.2,0.2
		c0,0.1-0.2,0.1-0.3,0.1c-0.9,0.3-1.8,0.7-2.6,1c-0.3,0.1-0.6,0.1-0.9,0c-1.3-0.2-2.5-0.4-3.8-0.6c-0.4-0.1-0.9-0.1-1.3-0.2
		c-0.1,0-0.3,0-0.4,0c-0.9,0.1-1.9,0.3-2.8,0.4c-1.2,0.2-2.4,0.3-3.6,0.5c-0.6,0.1-1.1,0-1.7-0.1c-0.6-0.1-1.2-0.1-1.8-0.2
		c-0.1,0-0.2,0-0.2,0.1c-0.1,0.2-0.2,0.4-0.2,0.6c0,0.1-0.1,0.2-0.3,0.2c-0.3,0-0.5,0-0.8,0c-0.5,0-0.9,0-1.4,0
		c-0.1,0-0.2,0-0.3-0.1c-0.6-0.3-1.2-0.7-1.8-1c-0.1-0.1-0.1-0.1,0-0.2c0.6-0.6,1.1-1.1,1.7-1.7c0.6-0.6,1.1-1.2,1.7-1.7
		c0.6-0.6,1.2-1.3,1.8-1.9c0,0,0,0,0.1-0.1c0.1-0.1,0.2-0.1,0.2-0.2c-0.1-0.1-0.2-0.1-0.3-0.2c-0.1,0-0.1,0-0.1,0.1
		c-0.4,0.5-0.9,1-1.3,1.5c-0.6,0.6-1.2,1.2-1.8,1.8c-0.6,0.6-1.2,1.2-1.7,1.8c-0.3,0.4-0.3,0.3-0.8,0.3c-0.7-0.1-1.4-0.1-2.2-0.2
		c-0.2,0-0.5-0.1-0.7-0.1c-0.1,0-0.1-0.1-0.1-0.1c0,0,0.1-0.1,0.1-0.1c0.7-0.7,1.4-1.4,2.1-2.1c0.5-0.5,1.1-1,1.7-1.5
		c0.2-0.2,0.5-0.4,0.7-0.6c0.1-0.1,0.3-0.3,0.4-0.4c0.5-0.8,0.9-1.7,1.4-2.5c0.2-0.3,0.2-0.6,0.2-0.9c0.1-0.6,0.1-1.1,0.2-1.7
		c0-0.1,0.1-0.1,0.1-0.1c0.2,0,0.3,0,0.5,0c0.9,0,1.7-0.1,2.6-0.1c1,0,1.9-0.1,2.9-0.1c0.4,0,0.9-0.1,1.3-0.1c0.1,0,0.1,0,0.2-0.1
		c0.3-0.5,0.5-1,0.8-1.6c0-0.1,0-0.1-0.1-0.1c-0.5,0-1.1-0.1-1.6-0.1c-0.7-0.1-1.5-0.1-2.2-0.2c-0.6,0-1.1-0.1-1.7-0.1
		c-0.6,0-1.2-0.1-1.8-0.1c-0.2,0-0.3,0-0.5,0c-0.1,0-0.1-0.1-0.1-0.2c0.1-0.5,0.1-0.9,0.1-1.4c0-0.2,0-0.3,0-0.5
		c0-0.2,0.1-0.2,0.2-0.3c0.6-0.1,1.2-0.3,1.8-0.5C676.1,394.5,676.2,394.5,676.3,394.5z"/>
	<path class="st8" d="M663.7,400.6c0.6,0,1.2,0,1.8,0c0.1,0,0.2,0.1,0.3,0.2c0.1,0.1,0.1,0.3,0.2,0.5c0.6,1.9,1.2,3.9,1.8,5.8
		c0.3,1-0.4,2-1.5,2c-0.6,0-1.1-0.4-1.3-0.9c-0.2-0.4-0.3-0.9-0.4-1.3c-0.4-1.4-0.8-2.7-1.3-4.1c0-0.1-0.1-0.1-0.2-0.2
		c-1-0.5-2.1-1.1-3.1-1.6c-0.2-0.1-0.3-0.2-0.5-0.3c0,0-0.1,0-0.1,0c0,0,0,0.1,0,0.1c0.4,0.8,0.7,1.6,1.1,2.4
		c0.1,0.3,0.3,0.6,0.3,0.9c0,0.3,0,0.7-0.2,0.9c-0.3,0.4-0.6,0.7-0.8,1.1c-0.9,1.1-1.7,2.2-2.6,3.4c-0.5,0.6-0.9,1.2-1.4,1.7
		c-0.5,0.7-1.4,0.8-2.1,0.3c-0.6-0.5-0.8-1.4-0.3-2.1c0.3-0.4,0.6-0.8,0.9-1.2c0.7-0.9,1.4-1.8,2.1-2.7c0.3-0.3,0.5-0.6,0.8-1
		c0.1-0.2,0.3-0.3,0.4-0.5c0.1-0.1,0.1-0.1,0-0.2c-0.6-1.3-1.1-2.5-1.7-3.8c-0.3-0.6-0.5-1.1-0.8-1.7c-0.1-0.3-0.1-0.6-0.1-0.9
		c0-0.1,0.1-0.1,0.2-0.1c1.4,0.7,2.8,1.4,4.2,2.1c0.3,0.1,0.5,0.3,0.8,0.2c0.1,0,0.2,0,0.2,0.2c0,0.2,0,0.2,0.2,0.2c0.3,0,0.7,0,1,0
		c0.1,0,0.2,0,0.2,0.2c0,0.4,0,0.4,0.4,0.4C662.6,400.6,663.2,400.6,663.7,400.6z"/>
	<path class="st8" d="M655.8,394.5c0-0.1,0-0.3,0-0.4c0.1-0.5,0.2-1.1,0.2-1.6c0,0,0.1-0.1,0-0.1c-0.1,0-0.1,0-0.2,0.1
		c-0.1,0.4-0.1,0.8-0.2,1.2c0,0.4-0.1,0.8-0.2,1.2c0,0.1,0,0.2,0.1,0.3c0.8,0.4,1.5,0.7,2.3,1.1c0.7,0.4,1.5,0.7,2.2,1.1
		c0.2,0.1,0.3,0.2,0.5,0.3c0.6,0.4,0.5,1.3-0.1,1.6c-0.3,0.2-0.6,0.2-0.9,0c-1.4-0.7-2.8-1.3-4.2-2.1c-0.4-0.2-0.9-0.4-1.3-0.6
		c-0.7-0.3-0.8-0.6-0.7-1.4c0.2-1.4,0.4-2.8,0.6-4.2c0.1-0.4,0.1-0.8,0.2-1.2c0.1-0.6,0.6-0.9,1.2-0.8c0.4,0.1,0.9,0.2,1.3,0.3
		c0.2,0,0.2,0.1,0.2,0.2c0,0.3,0,0.5,0,0.8c-0.1,0.8-0.2,1.5-0.4,2.3C656.4,393.4,656.2,394,655.8,394.5
		C655.8,394.5,655.8,394.5,655.8,394.5z"/>
	<path class="st8" d="M664.2,396.2c0.4,0,0.8,0,1.2,0c0.1,0,0.2,0,0.2,0.2c0,0.2,0,0.4,0,0.5c0,0.1,0,0.1,0.1,0.1c0.2,0,0.4,0,0.6,0
		c0.1,0,0.1,0,0.1,0.1c0,0.3,0,0.6,0,1c0,0.2,0,0.2,0.2,0.2c0.1,0,0.2,0,0.3,0c0.1,0,0.2,0,0.3-0.2c0-0.1,0.1-0.1,0.2-0.1
		c0.1,0,0.1,0,0.1,0.1c0,0.1,0.1,0.2,0.2,0.1c0.1,0,0.1,0,0.2,0c0.1,0,0.2,0,0.2-0.1c0-0.1,0.1-0.1,0.2-0.1c0.1,0,0.2,0,0.2,0.1
		c0,0.1,0.1,0.1,0.1,0.1c0.1,0,0.1,0,0.2,0c0.1,0,0.2,0,0.2-0.1c0-0.1,0.1-0.1,0.2-0.1c0.1,0,0.2,0,0.2,0.1c0,0.1,0,0.1,0.1,0.1
		c0.1,0,0.1,0,0.2,0c0.1,0,0.2,0,0.2-0.1c0-0.1,0.1-0.1,0.2-0.1c0.1,0,0.1,0.1,0.1,0.1c0,0.1,0.1,0.1,0.2,0.1c0.1,0,0.1,0,0.2,0
		c0.1,0,0.2,0,0.2-0.1c0-0.1,0.1-0.1,0.2-0.1c0.1,0,0.2,0,0.2,0.1c0,0.1,0.1,0.1,0.2,0.1c0.1,0,0.1,0,0.2,0c0.1,0,0.2,0,0.2-0.1
		c0-0.1,0.1-0.1,0.1-0.1c0.1,0,0.2,0,0.2,0.1c0,0.1,0.1,0.2,0.2,0.1c0.1,0,0.1,0,0.2,0c0.1,0,0.1,0,0.1-0.1c0-0.1,0-0.2,0.1-0.1
		c0.1,0,0.2,0,0.2,0.1c0,0.1,0.1,0.1,0.1,0.1c0.1,0,0.2,0,0.2,0c0.1,0,0.1,0,0.2-0.1c0-0.1,0.1-0.1,0.2-0.1c0.1,0,0.1,0.1,0.1,0.2
		c0,0.1,0.1,0.1,0.1,0.1c0.1,0,0.1,0,0.2,0c0.1,0,0.2,0,0.2-0.2c0-0.1,0.1-0.1,0.2-0.1c0.1,0,0.1,0,0.1,0.1c0,0.1,0,0.1,0.1,0.1
		c0.1,0,0.1,0,0.2,0c0.1,0,0.2,0,0.2-0.2c0-0.1,0.1-0.1,0.2-0.1c0.1,0,0.1,0,0.2,0.1c0,0.1,0.1,0.2,0.2,0.1c0.1,0,0.1,0,0.2,0
		c0.1,0,0.2,0,0.2-0.1c0-0.1,0.1-0.1,0.2-0.1c0.1,0,0.1,0.1,0.1,0.1c0,0.1,0,0.1,0.1,0.1c0.1,0,0.1,0,0.2,0c0.1,0,0.2,0,0.2-0.2
		c0-0.1,0.1-0.1,0.2-0.1c0.1,0,0.1,0.1,0.1,0.1c0,0.1,0,0.1,0.1,0.1c0.1,0,0.1,0,0.2,0c0.1,0,0.2,0,0.2-0.1c0-0.1,0.1-0.1,0.2-0.1
		c0.1,0,0.2,0,0.2,0.1c0,0.1,0.1,0.1,0.1,0.1c0.1,0,0.1,0,0.2,0c0.1,0,0.1,0,0.2-0.1c0-0.1,0.1-0.1,0.2-0.1c0.1,0,0.1,0,0.1,0.1
		c0,0,0,0,0,0c0.1,0.1,0.3,0,0.4,0.1c0.1,0,0.1,0,0.1-0.1c0-0.2,0.1-0.1,0.2-0.2c0.1,0,0.1,0.1,0.1,0.1c0,0,0,0.1,0.1,0.1
		c0.1,0,0.2,0,0.4,0c0.1,0,0.1-0.1,0.1-0.1c0-0.1,0.1-0.1,0.2-0.1c0.1,0,0.1,0.1,0.1,0.1c0,0.1,0.1,0.1,0.2,0.1c0.1,0,0.2,0,0.3,0
		c0.1,0,0.1,0,0.1,0.1c0,0.1,0,0.3,0,0.4c0,0.1,0,0.2-0.2,0.2c-0.1,0-0.2,0-0.3,0c-0.1,0-0.1,0-0.1,0.1c0,0.1,0,0.1-0.1,0.1
		c-0.1,0-0.2,0-0.2-0.1c0-0.1-0.1-0.1-0.2-0.1c-0.1,0-0.1,0-0.2,0c-0.1,0-0.1,0-0.1,0.1c0,0.1-0.1,0.1-0.2,0.1c-0.1,0-0.2,0-0.2-0.1
		c0-0.1-0.1-0.1-0.2-0.1c-0.1,0-0.1,0-0.2,0c-0.1,0-0.1,0-0.1,0.1c0,0.1,0,0.1-0.1,0.1c-0.1,0-0.2,0-0.2-0.1c0-0.1-0.1-0.1-0.2-0.1
		c-0.1,0-0.1,0-0.2,0c-0.1,0-0.1,0-0.1,0.1c0,0.1,0,0.1-0.1,0.1c-0.1,0-0.2,0-0.2-0.1c0-0.1-0.1-0.1-0.2-0.1c-0.1,0-0.1,0-0.2,0
		c-0.1,0-0.2,0-0.2,0.1c0,0.1-0.1,0.1-0.2,0.1c-0.1,0-0.1,0-0.1-0.1c0-0.1-0.1-0.1-0.2-0.1c-0.1,0-0.1,0-0.2,0c-0.1,0-0.2,0-0.2,0.1
		c0,0.1,0,0.1-0.1,0.1c-0.1,0-0.2,0-0.2-0.1c0-0.2-0.1-0.2-0.2-0.2c0,0-0.1,0-0.1,0c-0.1,0-0.2,0-0.1,0.1c0,0.1,0,0.1-0.1,0.1
		c-0.1,0-0.2,0-0.2-0.1c0-0.1-0.1-0.1-0.2-0.1c-0.1,0-0.1,0-0.2,0c-0.1,0-0.2,0-0.2,0.2c0,0.1-0.1,0.1-0.1,0.1c-0.1,0-0.1,0-0.1-0.1
		c0-0.1-0.1-0.2-0.2-0.2c-0.1,0-0.1,0-0.2,0c-0.1,0-0.1,0-0.1,0.1c0,0.1,0,0.1-0.1,0.1c-0.1,0-0.2,0-0.2-0.1c0-0.1-0.1-0.1-0.1-0.1
		c-0.1,0-0.1,0-0.2,0c-0.1,0-0.2,0-0.2,0.1c0,0.1-0.1,0.1-0.2,0.1c-0.1,0-0.1-0.1-0.1-0.1c0-0.1-0.1-0.1-0.1-0.1c-0.1,0-0.1,0-0.2,0
		c-0.1,0-0.2,0-0.2,0.1c0,0.1-0.1,0.1-0.1,0.1c-0.1,0-0.2,0-0.2-0.1c0-0.1-0.1-0.1-0.2-0.1c-0.1,0-0.1,0-0.2,0c-0.1,0-0.2,0-0.2,0.1
		c0,0.1-0.1,0.1-0.2,0.1c-0.1,0-0.1,0-0.1-0.1c0-0.1-0.1-0.1-0.2-0.1c-0.1,0-0.1,0-0.2,0c-0.1,0-0.2,0-0.2,0.1
		c0,0.1-0.1,0.1-0.1,0.1c-0.1,0-0.2,0-0.2-0.1c0-0.1-0.1-0.1-0.2-0.1c-0.1,0-0.1,0-0.2,0c-0.1,0-0.2,0-0.2,0.1c0,0.1,0,0.1-0.1,0.1
		c-0.1,0-0.2,0-0.2-0.1c0-0.1-0.1-0.2-0.2-0.1c-0.1,0-0.1,0-0.2,0c-0.1,0-0.1,0-0.2,0.1c0,0.1,0,0.1-0.1,0.1c-0.1,0-0.2,0-0.2-0.1
		c0-0.1-0.1-0.1-0.2-0.1c-0.1,0-0.1,0-0.2,0c-0.1,0-0.2,0-0.2,0.1c0,0.1,0,0.1-0.1,0.1c-0.1,0-0.1,0-0.1-0.1c0-0.1-0.1-0.1-0.2-0.1
		c-0.1,0-0.3,0-0.4,0c-0.1,0-0.2,0-0.1,0.2c0,0.3,0,0.7,0,1c0,0.1,0,0.2-0.1,0.2c-0.4,0-0.9,0-1.3,0c-1,0-1.9,0-2.9,0
		c-0.2,0-0.2,0-0.2-0.2c0-0.3,0-0.3-0.3-0.3c-0.3,0-0.6,0-0.9,0c-0.1,0-0.1,0-0.1-0.1c0-0.1,0-0.1,0-0.2c0.1-0.1,0.3-0.2,0.5-0.2
		c0.3,0,0.5,0,0.8,0c0.1,0,0.1,0,0.1-0.1c0-0.4,0-0.8,0-1.2c0-0.1-0.1-0.1-0.1-0.1c-0.2,0-0.3,0-0.5,0c-0.1,0-0.3-0.2-0.3-0.3
		c0-0.1,0.1-0.1,0.1-0.1c0.2,0,0.4,0,0.7,0c0.1,0,0.2,0,0.2-0.2c0,0,0,0,0-0.1c0-0.4,0-0.4,0.4-0.4c0.1,0,0.2,0,0.3,0
		c0.1,0,0.2-0.1,0.1-0.2c0-0.1,0-0.3,0-0.4c0-0.2,0.1-0.2,0.2-0.2c0.2,0,0.5,0,0.7,0C663.9,396.2,664,396.2,664.2,396.2
		C664.2,396.2,664.2,396.2,664.2,396.2z M663.7,397.8C663.7,397.8,663.7,397.8,663.7,397.8c-0.3,0-0.6,0-0.9,0c-0.1,0-0.2,0-0.2,0.2
		c0,0.1,0.1,0.1,0.2,0.1c0.6,0,1.2,0,1.7,0c0,0,0.1,0,0.1,0c0.1,0,0.1-0.1,0.1-0.2c0-0.1-0.1-0.1-0.2-0.1
		C664.3,397.8,664,397.8,663.7,397.8z M663.7,398.5C663.7,398.5,663.7,398.5,663.7,398.5c-0.3,0-0.6,0-1,0c-0.1,0-0.1,0-0.1,0.1
		c0,0.1,0.1,0.1,0.2,0.1c0.6,0,1.3,0,1.9,0c0.1,0,0.1,0,0.1-0.1c0-0.1,0-0.2-0.1-0.2C664.3,398.5,664,398.5,663.7,398.5z M666,399.4
		c0-0.2-0.2-0.4-0.4-0.4c-0.2,0-0.4,0.2-0.4,0.4c0,0.2,0.2,0.4,0.4,0.4C665.8,399.8,666,399.6,666,399.4z"/>
	<path class="st8" d="M662.6,386c0,0.2,0,0.3,0,0.4c0,0.1,0,0.2,0.1,0.2c0.2,0.1,0.3,0.3,0.1,0.5c-0.1,0.1-0.2,0.2-0.4,0.2
		c-0.5-0.1-1-0.2-1.4-0.3c-1.3-0.3-2.7-0.6-4-0.9c-0.3-0.1-0.5-0.4-0.3-0.6c0.1-0.1,0.2-0.2,0.3-0.1c0.1,0,0.2,0,0.2-0.1
		c0.3-0.8,0.7-1.3,1.5-1.7c0,0,0.1-0.1,0.1,0c0,0,0,0.1,0,0.1c0,0.2,0,0.3,0.2,0.4c0.1,0,0.3,0,0.3-0.2c0-0.1,0.1-0.2,0.1-0.3
		c0-0.1,0.1-0.2,0.2-0.2c0.2,0,0.3,0,0.5,0c0.1,0,0.1,0.1,0.1,0.2c0,0.2-0.1,0.3-0.1,0.5c0,0.2,0.1,0.4,0.3,0.3
		c0.1,0,0.2-0.1,0.2-0.2c0.1-0.2,0.1-0.4,0.1-0.6c0-0.1,0.1-0.2,0.2-0.1c0.1,0.1,0.3,0.1,0.4,0.2c0.1,0,0.1,0.1,0.1,0.2
		c0,0.1-0.1,0.3-0.1,0.4c0,0.2,0.1,0.3,0.2,0.3c0.2,0,0.2,0,0.3-0.2c0-0.1,0-0.2,0.1-0.2c0.1,0,0.1,0.1,0.1,0.2
		C662.4,384.8,662.6,385.3,662.6,386z"/>
	<path class="st8" d="M657,387c0-0.2,0-0.4,0.1-0.6c0-0.1,0.1-0.2,0.2-0.1c0.3,0.1,0.6,0.1,0.8,0.2c1.3,0.3,2.7,0.6,4,0.9
		c0.3,0.1,0.3,0.1,0.2,0.3c-0.3,1.1-1.1,1.8-2.2,2c-1.1,0.2-2.3-0.4-2.8-1.4C657.1,387.9,657,387.5,657,387z"/>
	<path class="st8" d="M663.6,396c-0.3,0-0.5,0-0.8,0c-0.1,0-0.2,0-0.2,0.2c0,0.1,0,0.2,0,0.3c0,0,0,0.1,0,0.1c0,0,0,0-0.1,0
		c-0.3-0.4-0.7-0.7-0.9-1.1c-0.2-0.3-0.3-0.7-0.4-1c0-0.1-0.1-0.2-0.1-0.3c0,0,0,0,0-0.1c0,0,0,0-0.1,0.1c0,0.1-0.1,0.2-0.1,0.3
		c0,0,0,0.1-0.1,0.1c-0.1,0,0-0.1,0-0.1c0-0.3,0-0.6,0-0.9c0.1-0.9,0.3-1.9,0.6-2.7c0.1-0.2,0.1-0.2,0.3-0.1
		c0.2,0.2,0.4,0.5,0.5,0.7c0.3,0.8,0.6,1.6,0.9,2.3c0,0.1,0.1,0.2,0.1,0.4c0.1,0.2,0.1,0.3,0.3,0.4c0.4,0.4,0.8,0.8,1.2,1.3
		c0,0,0.1,0.1,0.1,0.1c0,0.1-0.1,0-0.1,0C664.1,396,663.8,396,663.6,396C663.6,396,663.6,396,663.6,396z"/>
	<path class="st8" d="M658.7,392.2c-0.3,0-0.5-0.2-0.7-0.4c-0.2-0.2-0.3-0.5-0.4-0.8c-0.1-0.4-0.2-0.8-0.2-1.1c0-0.1,0-0.2,0.2-0.1
		c1,0.2,2,0.4,3,0.7c0.1,0,0.2,0.1,0.1,0.2c-0.3,0.5-0.6,0.9-1.1,1.3C659.4,392,659,392.2,658.7,392.2z"/>
	<path class="st8" d="M670.1,389.9c0,0,0.1,0.1,0.1,0.1c0.3,0.6,0.5,1.2,0.8,1.8c0.7,1.5,1.4,3,2.1,4.5c0,0,0,0.1,0.1,0.1
		c0.1,0.2,0.1,0.2-0.1,0.3c-0.1,0.1-0.2,0-0.2-0.1c-0.7-1.2-1.4-2.5-2.1-3.7c-0.4-0.7-0.8-1.4-1.2-2.1c-0.1-0.1-0.1-0.2,0-0.3
		C669.7,390.3,669.8,390.2,670.1,389.9C670,390,670.1,389.9,670.1,389.9z"/>
	<path class="st8" d="M666.7,393.9c0-0.2,0.1-0.4,0.1-0.6c0.1-0.3,0.1-0.3,0.3-0.1c1.6,1.2,3.2,2.3,4.7,3.5c0.1,0.1,0.1,0.1,0.2,0.2
		c0.1,0.1,0.1,0.1,0.1,0.3c-0.1,0.1-0.2,0.1-0.2,0c-1.6-1-3.2-1.9-4.8-2.9c-0.1-0.1-0.2-0.1-0.4-0.2
		C666.7,394.1,666.7,394,666.7,393.9z"/>
	<path class="st8" d="M669.7,404.4C669.7,404.4,669.6,404.4,669.7,404.4c-0.3-0.1-0.4-0.2-0.6-0.3c-0.1,0-0.1-0.1,0-0.2
		c0.2-0.2,0.4-0.4,0.6-0.6c1-1,2-2.1,3-3.2c0,0,0.1-0.1,0.1-0.1c0.1,0,0.1,0,0.2,0c0,0,0.1,0.1,0,0.2c-0.1,0.2-0.2,0.3-0.4,0.5
		c-0.9,1.2-1.9,2.3-2.8,3.5C669.8,404.4,669.8,404.4,669.7,404.4z"/>
	<path class="st8" d="M666.7,395.4c0.7,0,1.2,0.5,1.3,1.1c0,0.1,0,0.2-0.1,0.2c-0.1,0-0.2,0-0.2-0.1c0-0.2-0.1-0.3-0.2-0.5
		c-0.2-0.3-0.5-0.4-0.8-0.4c0,0-0.1,0-0.1,0c-0.1,0-0.1,0-0.1-0.1c0-0.1,0-0.1,0.1-0.1C666.5,395.4,666.6,395.4,666.7,395.4
		C666.6,395.4,666.7,395.4,666.7,395.4z"/>
	<path class="st8" d="M689.2,390.4c0,0.2-0.1,0.4-0.2,0.7c0,0.1-0.1,0.1-0.2,0.1c-0.1,0-0.1-0.1-0.1-0.2c0-0.1,0.1-0.2,0.1-0.4
		c0.1-0.4-0.1-0.7-0.4-0.9c-0.1,0-0.1-0.1-0.2-0.1c0,0-0.1-0.1,0-0.2c0-0.1,0.1-0.1,0.2,0c0,0,0,0,0.1,0
		C688.9,389.6,689.2,389.9,689.2,390.4z"/>
	<path class="st8" d="M689.2,383.6c0,0.2-0.1,0.5-0.2,0.7c0,0.1-0.1,0.1-0.2,0.1c-0.1,0-0.1-0.1,0-0.2c0-0.1,0.1-0.3,0.1-0.4
		c0.1-0.3-0.1-0.6-0.3-0.8c-0.1,0-0.1-0.1-0.2-0.1c-0.1,0-0.1-0.1-0.1-0.2c0.1-0.1,0.1-0.1,0.2,0c0.3,0.2,0.6,0.5,0.6,0.8
		C689.2,383.5,689.2,383.6,689.2,383.6z"/>
	<path class="st8" d="M667.8,402.2c0-0.4-0.2-0.6-0.5-0.8c-0.1-0.1-0.2-0.1-0.1-0.2c0.1-0.1,0.2,0,0.3,0c0.6,0.3,0.8,1,0.4,1.7
		c0,0.1-0.1,0.1-0.2,0.1c-0.1,0-0.1-0.1,0-0.2C667.7,402.6,667.8,402.4,667.8,402.2z"/>
	<path class="st8" d="M673.1,388.5c0-0.5,0.4-0.9,0.8-1.1c0.1,0,0.1,0,0.2,0c0,0.1,0,0.1-0.1,0.2c0,0,0,0,0,0
		c-0.6,0.3-0.7,0.7-0.5,1.4c0,0.1,0.1,0.1,0,0.2c-0.1,0-0.2,0-0.2-0.1C673.1,388.9,673.1,388.7,673.1,388.5z"/>
	<path class="st8" d="M673.1,378.1c0-0.5,0.4-0.9,0.8-1.1c0.1,0,0.2-0.1,0.2,0c0,0.1,0,0.1-0.1,0.2c-0.1,0-0.1,0.1-0.2,0.1
		c-0.4,0.3-0.5,0.6-0.3,1.1c0,0,0,0.1,0,0.1c0,0.1,0.1,0.2-0.1,0.2c-0.1,0-0.2,0-0.2-0.1C673.1,378.5,673.1,378.3,673.1,378.1z"/>
	<path class="st8" d="M653.2,389.2c0-0.6,0.4-1.1,1.1-1.2c0,0,0.1,0,0.1,0c0.1,0,0.1,0,0.1,0.1c0,0.1,0,0.1-0.1,0.2
		c-0.1,0-0.2,0-0.2,0.1c-0.4,0.1-0.7,0.4-0.7,0.9c0,0.1,0,0.2,0,0.3c0,0.1,0,0.1-0.1,0.1c-0.1,0-0.1,0-0.1-0.1
		C653.2,389.3,653.2,389.2,653.2,389.2z"/>
	<path class="st8" d="M662,404.7c0-0.1,0-0.2,0-0.3c0-0.1,0-0.1,0.1-0.2c0.1,0,0.1,0,0.2,0.1c0.1,0.2,0.1,0.4,0,0.7
		c-0.1,0.4-0.4,0.7-0.8,0.9c-0.1,0-0.2,0.1-0.3,0c0-0.1,0.1-0.2,0.2-0.2C661.8,405.4,662,405.1,662,404.7z"/>
	<path class="st8" d="M661.7,398.8C661.7,398.8,661.7,398.9,661.7,398.8c0,0.4-0.1,0.5-0.5,0.4c-0.1,0-0.1-0.1-0.1-0.1
		c0.1-0.3,0.1-0.5,0.1-0.8c0-0.1,0.1-0.1,0.1-0.1c0.1,0,0.2,0.1,0.3,0.1c0.1,0,0.1,0.1,0.1,0.2C661.7,398.6,661.7,398.7,661.7,398.8
		C661.7,398.8,661.7,398.8,661.7,398.8z"/>
	<path class="st8" d="M688.6,390.4c0,0.2,0,0.3-0.1,0.4c0,0.1-0.1,0.1-0.2,0.1c-0.1,0-0.1-0.1-0.1-0.2c0-0.1,0-0.1,0.1-0.2
		c0.1-0.3-0.1-0.4-0.3-0.6c-0.1,0-0.1-0.1-0.1-0.2c0-0.1,0.1-0.1,0.2-0.1C688.4,389.9,688.6,390.1,688.6,390.4z"/>
	<path class="st8" d="M688.6,383.8c0,0.1,0,0.3-0.1,0.4c0,0.1-0.1,0.1-0.2,0.1c-0.1,0-0.1-0.1-0.1-0.2c0,0,0-0.1,0-0.1
		c0.1-0.3,0-0.5-0.2-0.7c0,0-0.1-0.1-0.1-0.1c-0.1,0-0.1-0.1-0.1-0.2c0.1-0.1,0.1-0.1,0.2,0C688.4,383.2,688.6,383.4,688.6,383.8z"
		/>
	<path class="st8" d="M666.6,395.9c0.4,0,0.8,0.3,0.8,0.7c0,0.1,0,0.1-0.1,0.2c-0.1,0-0.1,0-0.2-0.1c0,0,0,0,0-0.1
		c-0.1-0.4-0.3-0.5-0.6-0.5c-0.1,0-0.2,0-0.2-0.1C666.3,396,666.4,395.9,666.6,395.9C666.6,395.9,666.6,395.9,666.6,395.9z"/>
	<path class="st8" d="M667.5,402.3c0,0.1,0,0.3-0.1,0.4c0,0.1-0.1,0.1-0.2,0.1c-0.1,0-0.1-0.1-0.1-0.2c0-0.1,0-0.1,0-0.2
		c0.1-0.2,0-0.4-0.2-0.6c0,0-0.1-0.1-0.1-0.1c0,0-0.1-0.1-0.1-0.1c0-0.1,0.1-0.1,0.2,0C667.2,401.7,667.5,402,667.5,402.3z"/>
	<path class="st8" d="M661.6,404.6c0,0.4-0.2,0.7-0.6,0.8c-0.1,0-0.2,0-0.2-0.1c0-0.1,0-0.1,0.1-0.2c0,0,0,0,0,0
		c0.4-0.2,0.5-0.4,0.4-0.8c0-0.1,0-0.1,0.1-0.2c0.1,0,0.1,0,0.2,0.1C661.6,404.4,661.6,404.5,661.6,404.6z"/>
	<path class="st8" d="M653.7,389.3c0-0.4,0.3-0.8,0.8-0.8c0.1,0,0.1,0,0.1,0.1c0,0.1,0,0.1-0.1,0.2c-0.1,0-0.1,0-0.2,0.1
		c-0.2,0.1-0.4,0.3-0.4,0.5c0,0.1,0,0.1,0,0.2c0,0.1,0,0.1-0.1,0.1c-0.1,0-0.1,0-0.1-0.1C653.7,389.4,653.7,389.3,653.7,389.3z"/>
	<path class="st8" d="M673.7,378.2c0-0.3,0.2-0.6,0.4-0.7c0,0,0.1,0,0.1,0c0.1,0,0.1,0,0.2,0.1c0,0.1,0,0.1-0.1,0.1
		c0,0-0.1,0.1-0.1,0.1c-0.2,0.2-0.3,0.4-0.2,0.7c0,0,0,0,0,0c0,0.1,0.1,0.2,0,0.3c-0.1,0-0.2-0.1-0.2-0.2
		C673.7,378.4,673.7,378.3,673.7,378.2z"/>
	<path class="st8" d="M674.2,387.8c0.1,0,0.1,0,0.1,0.1c0,0.1,0,0.1-0.1,0.1c-0.1,0-0.2,0.1-0.2,0.2c-0.1,0.1-0.2,0.3-0.1,0.5
		c0,0.1,0,0.1,0.1,0.2c0,0.1,0,0.1-0.1,0.2c-0.1,0-0.1,0-0.2-0.1c0-0.1-0.1-0.2-0.1-0.3C673.7,388.4,673.8,388.1,674.2,387.8
		C674.1,387.9,674.2,387.8,674.2,387.8z"/>
</g>
<g>
	<path class="st9" d="M663.5,305.3c0,0.3,0,0.7,0,1c0,0.2,0.1,0.2,0.2,0.2c0.2,0,0.4,0,0.6,0c0.3,0,0.4,0.1,0.6,0.2
		c0.2,0.1,0.2,0.4,0.2,0.6c0,0.4-0.2,0.8-0.7,0.9c-0.2,0-0.4,0.1-0.5,0c-0.7-0.3-1.4-0.4-2.1-0.1c-0.7,0.3-1.3,0.2-1.6-0.3
		c-0.2-0.4-0.1-0.7,0.1-1c0.1-0.1,0.3-0.2,0.5-0.2c0.2,0,0.4,0,0.7,0c0.1,0,0.2,0,0.2-0.2c0-0.4,0-0.8,0-1.1 M670.5,306
		c-0.4,0-0.4,0-0.4,0.4c0,1,0,2.1,0,3.1c0,0.2,0,0.5,0.1,0.7c0.3,0.7,0.6,1.4,0.8,2.1c0.2,0.4,0.2,1.4,0.2,0.9c0,0,0,1,0,1.5
		c0,0.1,0,0.3,0,0.4c0,0,0,0.1,0,0.1c0,0.1-0.2,0.3-0.3,0.3c-0.3,0.2-0.6,0.2-0.9,0.1c-0.3-0.1-0.5-0.4-0.5-0.7c0-0.5,0-0.9,0-1.4
		c0-0.3,0-0.5-0.1-0.8c-0.2-0.4-0.3-0.8-0.5-1.2c-0.5,0.5-1,1.1-1.5,1.6c-0.1,0.1-0.2,0.3-0.2,0.4c0,0.9,0,1.8,0,2.7
		c0,0.1,0,0.2,0,0.2c-0.1,0.8-0.7,1-1.3,0.7c-0.4-0.1-0.4-0.5-0.4-0.7c0-1.2,0-2.4,0-3.6c0-0.2,0.1-0.5,0.3-0.7
		c0.6-0.5,1.1-1.1,1.6-1.7c0.2-0.3,0.5-0.5,0.8-0.8c0.2-0.2,0.2-0.4,0.2-0.7c-0.1-0.9-0.2-1.7,0-2.6c0.1-0.5,0.1-0.6-0.2-0.6
		 M684.9,305c-0.2,0-0.3,0.1-0.3,0.3c0,0.4,0.2,0.8,0.1,1.1c0,0.1,0.1,0.1,0.1,0.1c0.2,0,0.4,0,0.6,0c0.6,0,0.9,0.5,0.8,1.1
		c0,0.1-0.4,0.5-0.5,0.5c-0.2,0.1-0.5,0.1-0.7,0.1c-0.9,0-1.8,0-2.6,0c-0.2,0-0.4,0-0.6-0.1c-0.3-0.1-0.5-0.4-0.5-0.8
		c0-0.4,0.2-0.6,0.6-0.8c0.2-0.1,0.5-0.1,0.7-0.1c0.2,0,0.3,0,0.2-0.3c-0.1-0.3-0.1-0.7-0.1-1c0-0.2,0-0.2-0.2-0.2 M690.8,311.4
		c0.6,0,1.1,0.5,1.1,1.1c0,1.5,0,3,0,4.5c0,0.6-0.3,1-0.8,1c-0.5,0-0.8-0.4-0.8-1c0-1,0-2,0-3c0-0.2,0-0.4,0-0.6
		c0-0.2-0.1-0.2-0.3-0.2c-0.8,0-1.7,0-2.5,0c-0.1,0-0.2,0.1-0.3,0.2c-0.2,0.2-0.4,0.3-0.6,0.4c-0.7,0.5-1.4,1-2.1,1.6
		c-0.7,0.4-1.2,0.2-1.3,0.1c-0.3-0.2-0.3-0.5-0.3-0.9c0-0.4,0.3-0.4,0.5-0.6c0.3-0.2,0.6-0.4,0.9-0.6c0.3-0.2,0.7-0.5,1-0.7
		c0.4-0.2,0.7-0.5,1.1-0.8c0.2-0.2,0.5-0.3,0.8-0.3c0.9,0,1.8,0,2.7,0C689.9,311.5,690.4,311.5,690.8,311.4z M652.8,306.2L644,306
		c0-0.5,9.3-1.8,9.8-1.8c2.6,0,5.1,0,7.7,0c0.2,0,0.3-0.1,0.3-0.3c0-3.2,0-6.4,0-9.6c0-0.1,0.1-0.2,0-0.4c0-0.1,0-0.1-0.1-0.1
		c-0.1,0-0.1,0-0.1,0.1c-0.1,0.2-0.2,0.4-0.4,0.6c-0.4,0.5-0.9,1-1.4,1.4c-0.3,0.2-0.7,0.2-0.9,0c-0.6-0.4-1.1-1-1.6-1.6
		c-0.4-0.6-0.7-1.2-1-1.8c0,0,0-0.1-0.1-0.1c-0.1,0-0.1,0.1-0.1,0.1c-0.1,0.2-0.1,0.4-0.1,0.6c0,0.5,0,1.1,0,1.6
		c0,0.1,0.1,0.2,0.1,0.3c0.8,0.8,1.3,1.7,1.5,2.8c0,0.3,0,0.7-0.1,1c-0.3,0.9-0.8,1.7-1.5,2.4c-0.2,0.2-0.4,0.3-0.6,0.4
		c-0.3,0.1-0.6,0-0.8-0.2c-0.7-0.6-1.3-1.3-1.6-2.1c-0.4-1-0.3-1.9,0.2-2.9c0.3-0.5,0.6-1,1-1.4c0.1-0.1,0.2-0.2,0.2-0.4
		c0-0.5,0-0.9,0-1.4c0-1.5,0.6-2.7,1.8-3.6c0.1-0.1,0.2-0.2,0.3-0.4c0.4-0.8,0.9-1.5,1.6-2.1c0.4-0.3,0.5-0.6,0.5-1.1
		c-0.1-0.9-0.1-1.8,0-2.7c0.2-1.4,1.7-2.2,3-1.8c0.5,0.2,0.5,0.2,0.7-0.2c0.4-0.6,0.9-1.2,1.5-1.6c1.1-0.7,2.3-0.9,3.6-0.5
		c1.4,0.4,2.3,1.3,2.9,2.6c0.2,0.5,0.3,1,0.3,1.6c0,1.6,0,3.2,0,4.7c0,0.2,0.1,0.3,0.2,0.5c0.5,0.5,1,1,1.4,1.6
		c0.3,0.5,0.5,1,0.7,1.5c0.2,0.6,0.2,1.3,0.1,1.9c-0.1,0.6-0.4,1.3-0.7,1.8c-0.5,0.7-1,1.3-1.6,1.8c0,0,0,0-0.1,0.1
		c-0.4,0.4-0.9,0.4-1.3,0.1c-0.4-0.3-0.7-0.7-1.1-1.1c-0.6-0.6-1-1.3-1.3-2.1c-0.2-0.7-0.3-1.4-0.2-2.1c0.2-1.4,1.1-2.5,2-3.4
		c0.2-0.2,0.3-0.5,0.3-0.8c0-1.4,0-2.8,0-4.2c0-0.8-0.1-1.5-0.7-2.2c-0.6-0.7-1.5-1-2.4-0.9c-0.9,0.1-1.6,0.5-2.2,1.3
		c-0.3,0.5-0.4,1-0.4,1.6c0,4.4,0,8.9,0,13.3c0,2.3,0,4.7,0,7c0,0.2,0.2,0.3,0.3,0.3c6.3,0,12.6,0,18.9,0c0.2,0,0.4-0.2,0.4-0.4
		c0-2,0-4,0-6.1c0-3,0-6.1,0-9.1c0-0.6,0-1.2-0.2-1.7c-0.4-1.1-1-1.6-2.2-1.4c-1,0.1-1.4,0.8-1.6,1.6c-0.2,0.6-0.1,1.3-0.1,1.9
		c0,0.1,0.1,0.3,0.2,0.4c0.7,0.7,1.2,1.6,1.4,2.6c0.1,0.6,0,1.2-0.3,1.8c-0.2,0.6-0.6,1-1,1.5c-0.2,0.3-0.5,0.5-0.8,0.7
		c-0.2,0.1-0.4,0.1-0.6,0c-0.3-0.1-0.5-0.4-0.8-0.6c-0.6-0.6-1-1.3-1.2-2c-0.2-0.7-0.1-1.4,0.1-2.1c0.3-0.7,0.7-1.3,1.2-1.8
		c0.1-0.1,0.2-0.3,0.2-0.4c0-0.2,0-0.5,0-0.7c0-0.7,0.1-1.3,0.3-2c0.6-1.6,2-2.6,4-2.3c1.3,0.2,2.1,1,2.6,2.2
		c0.2,0.5,0.4,1.1,0.3,1.7c0,0.6,0,1.3,0,1.9c0,0.4,0,0.4,0.3,0.2c1.2-0.7,3.2-0.6,4.3,0.6c0.6,0.7,0.9,1.4,1,2.3
		c0.1,0.9,0.1,1.7,0.1,2.6c0,0.2,0.1,0.3,0.2,0.4c0.7,0.7,1.2,1.5,1.4,2.4c0.1,0.6,0,1.3-0.2,1.9c-0.4,0.9-1,1.6-1.7,2.2
		c-0.2,0.2-0.6,0.2-0.8,0c-0.5-0.4-1-0.9-1.3-1.5c-0.1-0.2-0.3-0.4-0.4-0.6c-0.5-1-0.4-2.1,0.1-3.1c0.3-0.6,0.7-1,1.1-1.5
		c0.1-0.1,0.1-0.2,0.1-0.3c0-0.9,0.1-1.7-0.1-2.6c-0.2-0.8-0.5-1.5-1.3-1.7c-1.2-0.3-2.2,0.2-2.5,1.3c-0.2,0.5-0.2,1-0.2,1.6
		c0,3.2,0,6.4,0,9.7c0,0.4,0,0.4,0.4,0.4c2,0,4,0,6,0c0.5,0,11.1,1.3,11.1,1.8l-10.1-0.2 M654.8,312c0-0.3,0.3-0.5,0.5-0.5
		c1.8,0,3.7,0,5.5,0c0.7,0,1.1,0.6,0.9,1.2c0,0.1-0.6,0.5-0.9,0.5c-0.6,0-1.1,0-1.7,0c0,0,0,0-0.1,0c0,0,0.9,0.7,1,1.1
		c0.2,0.4,0.1,0.8-0.1,1.1c-0.3,0.3-0.7,0.3-1.1,0c-0.2-0.1-0.3-0.3-0.4-0.4c-0.5-0.5-1-1-1.5-1.6c-0.2-0.2-0.4-0.3-0.7-0.3
		c-0.3,0-0.5,0-0.8,0c-0.3,0-0.6-0.3-0.5-0.6L654.8,312z M671.6,292.8c0-0.1,0-0.3,0-0.5c-0.2-1-0.8-1.7-1.5-2.4
		c-0.1-0.1-0.2-0.1-0.3,0c-0.4,0.5-0.9,1-1.2,1.6c-0.2,0.4-0.3,0.8-0.3,1.2c0,0.4,0.1,0.9,0.3,1.3c0.3,0.6,0.7,1.1,1.2,1.6
		c0.1,0.2,0.2,0.2,0.4,0c0.2-0.3,0.5-0.5,0.7-0.8C671.2,294.2,671.6,293.6,671.6,292.8z M661,291.2c0-0.2,0-0.5-0.1-0.7
		c-0.3-0.8-0.7-1.5-1.3-2.1c-0.1-0.1-0.3-0.1-0.5,0c-0.4,0.4-0.8,0.9-1.1,1.5c-0.3,0.5-0.4,1.1-0.3,1.7c0.2,1,0.8,1.8,1.5,2.5
		c0.2,0.2,0.3,0.1,0.4-0.1c0.3-0.3,0.6-0.7,0.8-1C660.8,292.4,661,291.8,661,291.2z M661.8,286C661.8,286,661.8,286,661.8,286
		c0-0.8,0-1.5,0-2.3c0-0.4-0.2-0.7-0.7-0.8c-0.6-0.1-1,0.3-1,0.9c0,0.8,0,1.6,0,2.3c0,0.3,0,0.6,0.3,0.8c0.5,0.3,0.8,0.9,1.2,1.3
		c0,0.1,0.1,0.2,0.2,0.1c0.1,0,0.1-0.1,0.1-0.2C661.8,287.5,661.8,286.8,661.8,286z M678.9,292.5c0-0.8-0.4-1.3-0.7-1.8
		c-0.1-0.1-0.1-0.1-0.2,0c-0.4,0.4-0.7,0.9-0.8,1.5c-0.1,0.7,0.3,1.2,0.7,1.8c0.1,0.1,0.1,0.1,0.2,0c0.2-0.2,0.3-0.4,0.4-0.7
		C678.8,293.1,678.9,292.7,678.9,292.5z M656.1,298.1c0-0.6-0.3-1.1-0.7-1.6c-0.1-0.1-0.2-0.1-0.3,0c-0.1,0.1-0.2,0.3-0.3,0.4
		c-0.7,1-0.4,2,0.3,2.8c0.1,0.1,0.2,0.1,0.3,0C655.8,299.2,656.1,298.7,656.1,298.1z M690.3,298.9c0-0.6-0.3-1.1-0.7-1.5
		c-0.1-0.2-0.2-0.1-0.3,0c-0.2,0.2-0.4,0.4-0.5,0.7c-0.1,0.3-0.2,0.6-0.2,1c0,0.6,0.4,1.1,0.7,1.5c0.1,0.1,0.2,0.1,0.3,0
		C690,300,690.3,299.5,690.3,298.9z"/>
	<path class="st9" d="M681.1,310c0,0,0.1,0.2,0.2,0.4c0.1,0.3,0.1,0.6-0.1,0.9c-0.3,0.3-0.6,0.7-0.8,1.1c-0.1,0.2-1.1,1.4-1.4,1.8
		c-0.1,0.1-0.1,0.2,0,0.4c0.1,0.2,1.2,1.9,1.4,2.1c0.3,0.4,0.2,1-0.2,1.3c-0.4,0.3-0.9,0.2-1.2-0.3c-0.2-0.3-3.2-4.7-3.4-5.1
		c-0.2-0.4,0.1-0.8,0.4-1c0.5-0.2,0.8-0.1,1.1,0.2c0.2,0.2,0.3,0.5,0.5,0.8c0.1,0.1,0.2,0.2,0.3,0c0.1-0.2,1.4-1.9,2-2.5
		c0.1-0.1,0.3-0.2,0.5-0.2C680.7,309.8,681.1,309.9,681.1,310z"/>
</g>
<g>
	<path class="st6" d="M658.9,490.6c-0.8-0.8-1.5-1.6-1.9-2.7c-1-2.3-0.8-4.5,0.6-6.6c0.2-0.3,0.5-0.7,0.8-1c0.1-0.1,0.2-0.3,0.3-0.2
		c0.2,0,0.1,0.2,0.1,0.4c0.1,1.3,0.4,2.5,1.2,3.6c0.7,1,1.7,1.6,2.9,1.9c0.2,0.1,0.4,0,0.6-0.1c2.2-0.8,4.4-1,6.7-1.1
		c2.2-0.1,4.4-0.1,6.6,0.1c1.4,0.1,2.9,0.3,4.2,0.8c1.2,0.5,2.1,0.1,3-0.5c1.4-1,2-2.4,2.2-4c0-0.3,0.1-0.6,0.1-0.8
		c0-0.1,0-0.2,0.1-0.3c0.1,0,0.2,0.1,0.2,0.1c1,1.1,1.8,2.4,2,4c0.3,2.3-0.5,4.2-2.1,5.9c-0.1,0.1-0.3,0.3-0.4,0.5
		c0.8-0.2,1.5-0.3,2.3-0.5c1.6-0.3,3.2-0.5,4.9-0.5c0.7,0,0.7,0.1,0.8,0.7c0.1,1.4,0.1,2.8-0.2,4.2c-0.6,2.4-2.5,4.1-5,4.3
		c-0.9,0.1-1.8-0.1-2.7-0.3c-0.5-0.1-0.6,0-0.7,0.5c-0.6,3.1-1.7,6-2.9,8.9c-0.6,1.5-0.9,3.1-1.3,4.7c-0.2,0.8-0.5,1.7-1.1,2.3
		c-0.6,0.8-1.5,1.1-2.4,1.2c-0.4,0-0.7,0.1-1,0.4c-1,0.9-2.2,1.5-3.6,1.7c-1.3,0.2-2.5-0.1-3.7-0.7c-0.5-0.3-1-0.6-1.5-1
		c-0.2-0.1-0.3-0.2-0.5-0.2c-2.2-0.1-3.2-1.4-3.7-3.4c-0.3-1.1-0.5-2.3-0.9-3.5c-0.6-1.9-1.5-3.7-2.1-5.6c-0.6-1.6-1-3.2-1.3-4.8
		c-0.1-0.4-0.2-0.5-0.7-0.4c-1,0.2-1.9,0.4-2.9,0.3c-2.3-0.3-3.8-1.6-4.6-3.7c-0.5-1.2-0.5-2.4-0.5-3.7c0-0.4,0-0.8,0-1.2
		c0-0.6,0.1-0.7,0.7-0.7c1.7,0,3.4,0.2,5,0.5C657.4,490.3,658.2,490.4,658.9,490.6z"/>
</g>
<g>
	<path class="st7" d="M685,611.6c-0.9-0.6-1.7-1.2-2.4-1.9c-1.3-1.1-2.5-2.3-3.7-3.6c0,0,0,0,0,0c-0.2-0.3-0.6-0.6-0.4-1.1
		c0.2-0.4,0.6-0.3,1-0.3c1.7,0,3.3,0,5,0c0.2,0,0.4,0.1,0.6-0.1c-0.5-0.4-0.9-0.7-1.4-1c-1.8-1.4-3.4-3-5-4.6
		c-0.3-0.3-0.3-0.6-0.2-1c0.1-0.3,0.4-0.3,0.7-0.3c1.3-0.1,2.7,0,4,0c0.3,0,0.7,0.1,0.8-0.1c0.1-0.2-0.3-0.4-0.5-0.5
		c-1.9-1.5-3.5-3.3-5.1-5.1c-0.1-0.1-0.1-0.2-0.2-0.2c-0.3-0.6-0.1-1,0.5-1c0.7,0,1.5,0,2.2,0c0.3,0,0.6,0.1,0.7-0.2
		c0.1-0.2-0.3-0.3-0.5-0.4c-2.3-1.8-4.4-3.8-6-6.2c-1-1.5-1.9-3.2-2.5-4.9c-0.1-0.1-0.1-0.3-0.2-0.4c0-0.1-0.1-0.3-0.2-0.3
		c-0.1,0-0.2,0.2-0.2,0.3c-0.3,0.6-0.5,1.2-0.8,1.8c-1.8,4.1-4.6,7.4-8.2,10c-0.1,0.1-0.3,0.1-0.3,0.3c0,0.2,0.2,0.1,0.4,0.1
		c0.9,0,1.7,0,2.6,0c0.3,0,0.6,0.1,0.7,0.4c0.1,0.3,0,0.6-0.2,0.8c-2.3,2.7-4.7,5.3-7.9,7.1c-0.2,0.1-0.5,0.3-0.8,0.1
		c-0.5-0.3-0.5-0.8,0-1.1c0.9-0.7,1.9-1.2,2.8-2c1.3-1.1,2.5-2.2,3.6-3.5c0.1-0.1,0.2-0.2,0.2-0.3c-0.1-0.1-0.2-0.1-0.3-0.1
		c-1,0-2.1,0-3.1,0c-0.4,0-0.7,0-0.8-0.4c-0.1-0.4,0.1-0.7,0.4-0.9c0.9-0.7,1.8-1.3,2.6-2c4.1-3.1,6.8-7.2,8.4-12
		c0.1-0.3,0.2-0.6,0.3-0.9c0.1-0.3,0.3-0.6,0.7-0.6c0.4,0,0.6,0.3,0.7,0.7c0.3,0.8,0.6,1.7,0.9,2.5c1.7,4.5,4.7,8.2,8.5,11
		c0.6,0.4,1.2,0.9,1.8,1.3c0.3,0.2,0.6,0.5,0.4,0.9c-0.1,0.4-0.5,0.5-0.9,0.5c-1,0-2,0-2.9,0c-0.2,0-0.4-0.1-0.5,0.1
		c-0.1,0.2,0.1,0.3,0.2,0.4c1.8,2.1,3.8,3.8,6.2,5.2c0.3,0.2,0.5,0.4,0.5,0.8c-0.1,0.4-0.4,0.5-0.8,0.6c-0.4,0-0.9,0-1.3,0
		c-1.3,0-2.6,0-3.8,0c-0.2,0-0.3,0-0.6,0c0.3,0.3,0.4,0.4,0.6,0.6c1.9,2.1,4.1,3.7,6.6,5c0.2,0.1,0.4,0.2,0.5,0.4
		c0.2,0.5,0,0.9-0.6,0.9c-2.2,0.2-4.4,0.1-6.6,0.1c-0.1,0-0.3-0.1-0.3,0c-0.1,0.2,0.1,0.2,0.2,0.3c1.8,1.9,3.7,3.5,6,4.8
		c0.4,0.2,0.8,0.4,1.1,0.7c0.2,0.1,0.4,0.3,0.3,0.6c-0.1,0.3-0.2,0.5-0.6,0.5c-0.3,0-0.6,0.1-0.8,0.1c-3.7,0-7.3,0-11,0
		c-0.5,0-0.6,0.1-0.6,0.6c0,2.3,0,4.6,0,6.9c0,0.9-0.2,1.1-1.1,1.1c-1.5,0-2.9,0-4.4,0c-0.1,0-0.2,0-0.3,0c-0.6-0.1-0.6-0.1-0.6-0.7
		c0-0.5,0.2-0.6,0.6-0.6c1.3,0,2.6,0,3.9,0c0.4,0,0.6-0.1,0.6-0.6c-0.1-2-0.1-4,0-6c0-0.4-0.1-0.6-0.6-0.6c-0.4,0-0.8,0-1.3,0
		c-0.4,0-0.7-0.2-0.7-0.6c0-0.4,0.2-0.7,0.7-0.8c0.2,0,0.4,0,0.6,0c3.9,0,7.8,0,11.7,0C684.6,611.7,684.8,611.7,685,611.6z"/>
	<path class="st7" d="M655,607.3c0.1-1,0.1-2,0.2-3c0.2-2.8,1.7-4.7,4-6c0.5-0.3,1-0.5,1.5-0.7c0.3-0.1,0.5-0.2,0.8,0.1
		c0.2,0.2,0.3,0.5,0.1,0.8c-0.2,0.5-0.4,0.9-0.6,1.4c-0.5,1.5-0.3,2.3,0.9,3.4c0.8,0.7,1.6,1.3,2.1,2.2c0.2,0.3,0.3,0.1,0.4-0.1
		c0.5-0.8,1.1-1.5,1.9-2c0.5-0.3,0.9-0.4,1.5-0.4c0.7,0,1,0.5,0.6,1.1c-1.1,1.8-1,3.7-0.3,5.6c0.8,2.3,1.2,4.6,0.6,7
		c-0.4,1.6-1.1,3-2.5,3.9c-0.2,0.1-0.3,0.3-0.3,0.5c-0.1,0.5-0.3,0.6-0.8,0.6c-3.1,0-6.2,0-9.3,0c-1.2,0-2.4,0-3.6,0
		c-0.2,0-0.5,0-0.7,0c-0.4,0-0.6-0.2-0.6-0.7c0-0.5,0.3-0.6,0.6-0.6c0.5-0.1,0.9,0,1.4-0.1c-0.6-0.7-1.1-1.3-1.6-2.1
		c-1.3-2.2-1.5-4.5-0.7-6.9c0.5-1.3,1-2.6,1.5-3.8c0.3-0.7,0.4-1.4,0.4-2.1c0-0.4,0.1-0.7,0.5-0.8c0.4-0.1,0.6,0.1,0.8,0.4
		c0.4,0.6,0.7,1.3,1,2C654.9,607,654.9,607.2,655,607.3z M653.6,607.6c-0.6,1.5-1.1,2.8-1.6,4.2c-0.4,1.2-0.5,2.4-0.2,3.7
		c0.4,1.9,1.6,3.4,3.2,4.5c0.1,0.1,0.3,0.3,0.4,0.2c0.1-0.1,0-0.3-0.1-0.4c-0.3-1-0.5-2.1-0.3-3.1c0.2-1,0.7-1.8,1.3-2.6
		c0.8-1.2,1.5-2.4,1.7-3.9c0-0.4,0.2-0.6,0.6-0.6c0.4,0,0.7,0.1,0.8,0.5c0.4,1.5,0.8,3,0.8,4.5c0,0.1-0.1,0.3,0.1,0.4
		c0.2,0.1,0.3-0.1,0.4-0.2c0.7-0.6,1.4-1.3,1.7-2.3c0.2-0.5,0.7-0.7,1-0.4c0.3,0.2,0.3,0.5,0.2,0.8c-0.3,1.2-0.2,2.3-0.1,3.5
		c0.2,1.2,0.6,2.3,0.8,3.5c0.1,0.3,0.4,0.3,0.6,0.3c0.2,0,0.5-0.1,0.5-0.3c0-0.3,0.1-0.5,0.3-0.7c1.6-1.6,2.1-3.5,2-5.7
		c0-1.4-0.5-2.7-0.9-4c-0.4-1.3-0.6-2.5-0.4-3.9c0-0.2,0.2-0.5,0-0.7c-0.2,0-0.2,0.2-0.2,0.2c-0.7,0.9-1,2-1.3,3.1
		c-0.1,0.5-0.5,0.7-1,0.5c-0.3-0.1-0.3-0.4-0.4-0.6c-0.1-1.5-0.9-2.7-2.1-3.6c-0.4-0.3-0.7-0.6-1.1-0.9c-0.8-0.8-1.1-1.7-1-2.8
		c0-0.3,0.1-0.6,0.1-0.8c0-0.1,0.1-0.2-0.1-0.3c-1.8,1.1-2.6,2.8-2.9,4.9c-0.1,1.2,0,2.5-0.2,3.7c-0.2,1.2-0.4,2.3-1.1,3.2
		c-0.2,0.3-0.5,0.5-0.9,0.4c-0.4-0.2-0.4-0.5-0.4-0.8c0.1-0.5,0.1-1,0-1.4C654,609,654,608.4,653.6,607.6z M658.5,613.1
		c-0.5,1-1.2,1.8-1.7,2.7c-0.4,0.6-0.5,1.3-0.4,2c0.1,0.8,0.4,1.5,0.3,2.3c0,0.3,0.2,0.3,0.4,0.3c1.8,0,3.6,0,5.3,0
		c0.4,0,0.5-0.2,0.4-0.5c-0.4-1.3-0.6-2.5-0.8-3.8c0-0.4-0.2-0.3-0.4-0.1c-0.6,0.5-1.3,1-2,1.3c-0.3,0.1-0.6,0.2-0.8,0
		c-0.3-0.2-0.3-0.5-0.3-0.8c0-0.4,0.1-0.9,0.1-1.3C658.8,614.4,658.8,613.7,658.5,613.1z"/>
</g>
</svg>
