<?xml version="1.0" encoding="UTF-8" standalone="no"?>
<!-- Created with Inkscape (http://www.inkscape.org/) -->

<svg
   width="100"
   height="100"
   viewBox="0 0 26.458331 26.458335"
   version="1.1"
   id="svg5"
   inkscape:version="1.1.1 (3bf5ae0d25, 2021-09-20)"
   sodipodi:docname="picto-8.svg"
   inkscape:export-filename="C:\Users\franc\OneDrive\Escritorio\trabajo janis2.png"
   inkscape:export-xdpi="96"
   inkscape:export-ydpi="96"
   xmlns:inkscape="http://www.inkscape.org/namespaces/inkscape"
   xmlns:sodipodi="http://sodipodi.sourceforge.net/DTD/sodipodi-0.dtd"
   xmlns="http://www.w3.org/2000/svg"
   xmlns:svg="http://www.w3.org/2000/svg">
  <sodipodi:namedview
     id="namedview7"
     pagecolor="#ffffff"
     bordercolor="#666666"
     borderopacity="1.0"
     inkscape:pageshadow="2"
     inkscape:pageopacity="0.0"
     inkscape:pagecheckerboard="0"
     inkscape:document-units="mm"
     showgrid="false"
     units="px"
     inkscape:zoom="3.9408307"
     inkscape:cx="75.872328"
     inkscape:cy="35.144874"
     inkscape:window-width="1920"
     inkscape:window-height="1001"
     inkscape:window-x="-9"
     inkscape:window-y="-9"
     inkscape:window-maximized="1"
     inkscape:current-layer="layer2" />
  <defs
     id="defs2">
    <clipPath
       clipPathUnits="userSpaceOnUse"
       id="clipPath998">
      <path
         d="M 0,1080 H 1080 V 0 H 0 Z"
         id="path996" />
    </clipPath>
    <clipPath
       clipPathUnits="userSpaceOnUse"
       id="clipPath1056">
      <path
         d="M 0,1080 H 1080 V 0 H 0 Z"
         id="path1054" />
    </clipPath>
    <clipPath
       clipPathUnits="userSpaceOnUse"
       id="clipPath998-7">
      <path
         d="M 0,1080 H 1080 V 0 H 0 Z"
         id="path996-8" />
    </clipPath>
    <clipPath
       clipPathUnits="userSpaceOnUse"
       id="clipPath1056-5">
      <path
         d="M 0,1080 H 1080 V 0 H 0 Z"
         id="path1054-9" />
    </clipPath>
  </defs>
  <g
     inkscape:label="Capa 1"
     inkscape:groupmode="layer"
     id="layer1" />
  <g
     inkscape:groupmode="layer"
     id="layer2"
     inkscape:label="Capa 2">
    <path
       style="fill:#000000;stroke:none;stroke-width:0.26458333;stroke-linecap:butt;stroke-linejoin:miter;stroke-miterlimit:4;stroke-dasharray:none;stroke-opacity:1"
       d="M 9.1071252,2.6140787 H 9.2828746 L 9.3404429,0.74384786 H 9.0343956 Z"
       id="path22157-7"
       sodipodi:nodetypes="ccccc" />
    <path
       style="fill:#000000;stroke:none;stroke-width:0.26458333;stroke-linecap:butt;stroke-linejoin:miter;stroke-miterlimit:4;stroke-dasharray:none;stroke-opacity:1"
       d="M 9.6994676,2.7474116 9.869228,2.7803926 10.592435,0.98469556 10.296816,0.92726219 Z"
       id="path22157-6-2"
       sodipodi:nodetypes="ccccc" />
    <path
       style="fill:#000000;stroke:none;stroke-width:0.26458333;stroke-linecap:butt;stroke-linejoin:miter;stroke-miterlimit:4;stroke-dasharray:none;stroke-opacity:1"
       d="M 8.673981,2.7588847 8.5042219,2.7918657 7.7810176,0.99616739 8.0766348,0.93873402 Z"
       id="path22157-6-3-2"
       sodipodi:nodetypes="ccccc" />
    <path
       style="fill:none;stroke:#000000;stroke-width:0.26458333;stroke-linecap:butt;stroke-linejoin:miter;stroke-miterlimit:4;stroke-dasharray:none;stroke-opacity:1"
       d="M 13.242328,5.5133452 C 11.581396,5.4787043 9.8532368,4.968048 8.2590627,5.4354809 7.0732458,5.7831795 5.1704766,7.4858859 5.1704766,7.4858859 L 4.7811604,8.5500199 6.2346106,8.9652918 6.4682022,8.2385653 c 0,0 1.5076584,-1.2946326 2.4397226,-1.5053602 1.4854192,-0.33583 4.5420392,0.4931362 4.5420392,0.4931362 0,0 -1.002608,2.3679997 -0.752682,4.4641737 0.101008,0.847172 0.986272,2.361861 0.986272,2.361861 l 0.363365,10.797073 h 2.465678 v -9.525303 h 0.570997 v 9.499348 h 2.413768 l 0.467182,-11.731435 c 0.02548,-0.639528 0.408998,-1.229502 0.441226,-1.868726 0.03999,-0.793094 -0.311452,-2.3618572 -0.311452,-2.3618572 0,0 0.736707,2.0643602 0.908407,3.1404932 0.117296,0.735182 0.07786,2.232088 0.07786,2.232088 l -0.181682,1.37559 1.557271,0.259545 0.2855,-1.141998 c 0,0 0.03438,-3.68644 -0.648862,-5.3466276 C 21.496779,7.9322806 20.609314,6.3761196 19.211866,5.6690711 17.435739,4.7704291 15.23242,5.5548521 13.242329,5.5133438 Z"
       id="path4471"
       sodipodi:nodetypes="aaccccacscccccccsacaccccaaa" />
    <path
       style="fill:#000000;stroke:#000000;stroke-width:0.26458333;stroke-linecap:butt;stroke-linejoin:miter;stroke-miterlimit:4;stroke-dasharray:none;stroke-opacity:1"
       d="m 15.496389,7.1206118 0.825866,-0.2752875 0.339527,0.7249263 -0.44964,0.679047 -0.706576,-0.4221096 z"
       id="path5014" />
    <path
       style="fill:#000000;stroke:#000000;stroke-width:0.26458333;stroke-linecap:butt;stroke-linejoin:miter;stroke-miterlimit:4;stroke-dasharray:none;stroke-opacity:1"
       d="m 15.753324,8.2676504 0.458818,-0.018339 0.348699,-0.1651735 1.339741,4.0283951 -0.77081,1.413149 -1.202095,-1.073627 z"
       id="path5049" />
    <path
       style="fill:#ffffff;stroke:#000000;stroke-width:0.26458333;stroke-linecap:butt;stroke-linejoin:miter;stroke-miterlimit:4;stroke-dasharray:none;stroke-opacity:1"
       d="m 17.767404,6.0675327 c 0,0 -0.87693,-3.9448588 -1.321789,-4.2464555 -0.519525,-0.3522248 -3.486477,0.1746981 -3.664337,1.0110796 -0.09502,0.4467536 0.403957,3.512867 1.056789,3.8904779 0.572619,0.3312081 3.92933,-0.655098 3.92933,-0.655098 z"
       id="path20571-6-8-1"
       sodipodi:nodetypes="csssc" />
    <path
       style="fill:#ffffff;stroke:#000000;stroke-width:0.26458333;stroke-linecap:butt;stroke-linejoin:miter;stroke-miterlimit:4;stroke-dasharray:none;stroke-opacity:1"
       d="m 7.1057963,6.1207624 c 0,0 0.2845165,-0.35713 0.4839314,-1.018306 0.2542844,-0.8430884 0.5268257,-2.0351035 1.5892594,-2.0378591 0.9877059,-0.00243 1.3399599,1.0953391 1.6220099,1.890817 0.259271,0.7312228 0.486923,1.1653481 0.486923,1.1653481 0,0 -0.717179,1.4218322 -2.1446803,1.3940426 C 7.7157411,7.4870195 7.1057963,6.1207624 7.1057963,6.1207624 Z"
       id="path3229"
       sodipodi:nodetypes="csssczc" />
    <path
       style="fill:#ffffff;stroke:#000000;stroke-width:0.26458333;stroke-linecap:butt;stroke-linejoin:miter;stroke-miterlimit:4;stroke-dasharray:none;stroke-opacity:1"
       d="m 6.2191484,12.039112 -1.1929219,6.184826 c 0,0 0.7994547,0.307115 1.2112733,0.422111 0.3403305,0.09503 1.036922,0.220232 1.036922,0.220232 v 6.258239 h 2.0279647 v -6.019657 h 0.4496361 v 6.028831 h 2.0554944 v -6.313295 c 0,0 0.816394,-0.102654 1.201219,-0.238962 0.350194,-0.124043 0.986273,-0.519091 0.986273,-0.519091 l -1.440475,-6.851987"
       id="path6187"
       sodipodi:nodetypes="ccaccccccccacc" />
    <path
       style="fill:#ffffff;stroke:#000000;stroke-width:0.26458333;stroke-linecap:butt;stroke-linejoin:miter;stroke-miterlimit:4;stroke-dasharray:none;stroke-opacity:1"
       d="m 12.119511,6.9370855 c 0,0 1.492331,0.7532934 1.449855,2.2757231 -0.04303,1.5425004 -1.684942,2.6342214 -2.844653,3.6521684 -0.453399,0.397975 -1.5599736,0.917632 -1.5599736,0.917632 L 8.4306354,13.58073"
       id="path5197"
       sodipodi:nodetypes="csacc" />
    <path
       style="fill:none;stroke:#000000;stroke-width:0.26458333;stroke-linecap:butt;stroke-linejoin:miter;stroke-miterlimit:4;stroke-dasharray:none;stroke-opacity:1"
       d="m 11.605638,8.3502352 c 0,0 0.448896,0.3695357 0.440461,0.6239914 -0.03573,1.0780714 -1.243595,1.7836844 -2.037142,2.5143064 -0.3595034,0.330996 -1.2112703,0.825866 -1.2112703,0.825866"
       id="path5499"
       sodipodi:nodetypes="caac" />
    <path
       style="fill:none;stroke:#000000;stroke-width:0.26458333;stroke-linecap:butt;stroke-linejoin:miter;stroke-miterlimit:4;stroke-dasharray:none;stroke-opacity:1"
       d="m 6.9624288,9.1393988 c 0,0 -0.2492185,0.3088043 -0.1101166,0.9543332 0.1907432,0.885201 1.6792756,2.135341 1.6792756,2.135341 l 0.55802,0.123287 -0.6618387,1.395055 -0.5774874,-0.142751 c 0,0 -1.6036473,-1.365426 -2.1866662,-2.342392 C 4.9461383,10.059997 5.4819298,8.7836142 5.4819298,8.7836142"
       id="path5651"
       sodipodi:nodetypes="csccccsc" />
  </g>
</svg>
