<?xml version="1.0" encoding="utf-8"?>
<!-- Generator: Adobe Illustrator 27.5.0, SVG Export Plug-In . SVG Version: 6.00 Build 0)  -->
<svg version="1.1" id="Capa_1" xmlns="http://www.w3.org/2000/svg" xmlns:xlink="http://www.w3.org/1999/xlink" x="0px" y="0px"
	 viewBox="0 0 100 100" style="enable-background:new 0 0 100 100;" xml:space="preserve">
<style type="text/css">
	.st0{fill:none;stroke:#020203;stroke-width:1.3048;stroke-linecap:round;stroke-linejoin:round;stroke-miterlimit:10;}
	.st1{fill:none;stroke:#020203;stroke-width:1.1609;stroke-linecap:round;stroke-linejoin:round;stroke-miterlimit:10;}
	.st2{fill:none;stroke:#020203;stroke-width:0.679;stroke-miterlimit:10;}
	.st3{fill:none;stroke:#020203;stroke-width:0.679;stroke-linecap:round;stroke-linejoin:round;stroke-miterlimit:10;}
</style>
<g>
	<g>
		<path class="st0" d="M38.58,43.73l-5.01,2.25c-0.75,0.31-1.31,1-1.5,1.81l0,0c-0.25,1.06-0.06,2.19,0.5,3.13l1.13,1.81
			c0.63,1.06,1.75,1.75,2.94,1.94l0,0c0.81,0.13,1.56-0.06,2.25-0.38c1.5-0.81,4.19-2.25,4.19-2.32L38.58,43.73z"/>
		<path class="st1" d="M48.72,69.51c1,4.07-3.82,9.51-3.82,9.51l-2.82,16.65h-8.32v-2.44l4.26-2.63v-9.7l0.63-9.14
			c-1-3.94-1.25-7.26-1.31-9.51c-0.19-5.38,0.75-6.57,1.25-7.01c1.63-1.63,4.32-1.56,6.07-1c3.07,0.94,4.38,3.75,5.01,5.13
			c0.38,0.75,1.94,4.13,0.56,7.76c-0.44,1.19-1.06,2.07-1.56,2.63l-7.7,5.44l-0.19-3.07l4.82-5.38l-0.5-7.45"/>
		<path class="st1" d="M48.97,59.75"/>
		<polygon class="st1" points="47.84,74.77 47.84,84.84 49.09,95.61 42.21,95.61 42.71,92.67 44.09,92.1 43.46,88.29 44.9,79.09 		
			"/>
	</g>
	<g>
		<path class="st2" d="M41.58,30.02l2.82-2.63c0.44-0.38,1-0.56,1.56-0.44l0,0c0.75,0.13,1.44,0.56,1.88,1.19l0.88,1.19
			c0.5,0.69,0.69,1.56,0.44,2.44l0,0c-0.19,0.5-0.44,0.94-0.88,1.31c-0.94,0.75-2.57,2.07-2.63,2.07L41.58,30.02z"/>
		<path class="st2" d="M63.74,11.12l-3.44,1.75c-0.5,0.25-0.88,0.75-0.94,1.31l0,0c-0.13,0.75,0,1.5,0.44,2.19l0.81,1.25
			c0.5,0.69,1.25,1.19,2.13,1.25l0,0c0.5,0.06,1.06-0.06,1.5-0.38c1-0.63,2.94-2,2.94-2L63.74,11.12z"/>
		<path class="st3" d="M54.48,42.98l-3.88-2.5c-1.56-1.06-3.44-2.13-4.19-3.82l-0.06-0.31c-0.06-0.13-0.19-0.44-0.13-0.81
			c0.13-0.31,0.31-0.56,0.44-0.69c0.94-0.88,2.82-1.69,3.57-2.75c0.75-1.06,0.56-2.63,0.13-3.57c-0.75-1.63-2.19-1.56-3.82-3.19
			c-0.75-0.75-1.75-2-2.38-4.13l0,0l1-1.63h1.75l0.63,3.13l4.19,2.44c0.31,0.19,0.56,0.44,0.81,0.69l0,0c0.31,0.38,0.81,1,1.13,1.88
			c0.38,0.94,0.44,1.69,0.5,2.13c0.13,1.25-0.13,2.32-0.38,3.13l2.25,1.94c1.44,1.25,2.57,2.75,3.38,4.51
			c0.19,0.5,0.38,0.94,0.56,1.44"/>
		<path class="st3" d="M69.18,29.33l-2.75-7.45L70,18.44l1.44,2.63l-1.69,1.88l2.07,1.44l2.13-1.44l-0.19-2.13
			c-0.13-1.38-0.44-2.75-1-4.07l-0.56-1.31l-2.38-0.69l-0.94,0.56c-1.25,0.69-2.44,1.69-3.63,2.5"/>
		<polyline class="st3" points="59.3,14.19 57.54,11.18 57.86,6.12 		"/>
		<path class="st3" d="M60.05,30.46l-2.5-7.01l-2-6.82L54.66,15c-0.44-0.75-0.63-1.63-0.56-2.5l0.06-4.69"/>
		<polygon class="st3" points="55.79,4.99 57.04,3.24 57.86,6.18 56.29,7.55 54.85,7.12 54.1,6.18 54.85,5.61 		"/>
		<path class="st3" d="M45.09,19.7l-1.38-0.94l-1.63,0.63v1.44c0,1.81,0.56,3.57,1.56,5.07l1.19,1.25"/>
		<path class="st3" d="M56.35,4.24l-1.06,1.13l-9.07,5.69c0,0,3.32,1.06,4.94-0.5c1.56-1.63,3-2.75,3-2.75l-0.94-1.06"/>
		<circle class="st3" cx="56.6" cy="22.95" r="21.22"/>
		<polyline class="st3" points="40.08,36.22 40.08,41.47 46.28,41.47 		"/>
	</g>
</g>
</svg>
