<?xml version="1.0" encoding="utf-8"?>
<!-- Generator: Adobe Illustrator 27.5.0, SVG Export Plug-In . SVG Version: 6.00 Build 0)  -->
<svg version="1.1" id="Capa_1" xmlns="http://www.w3.org/2000/svg" xmlns:xlink="http://www.w3.org/1999/xlink" x="0px" y="0px"
	 viewBox="0 0 100 100" style="enable-background:new 0 0 100 100;" xml:space="preserve">
<style type="text/css">
	.st0{fill:none;stroke:#030304;stroke-width:0.6975;stroke-miterlimit:10;}
	.st1{fill:none;stroke:#030304;stroke-width:1.0536;stroke-miterlimit:10;}
	.st2{fill:#FFFFFF;stroke:#020203;stroke-width:1.0536;stroke-miterlimit:10;}
	.st3{fill:#020203;stroke:#030304;stroke-width:1.053;stroke-linecap:round;stroke-linejoin:round;stroke-miterlimit:10;}
	.st4{fill:#FFFFFF;stroke:#030304;stroke-width:1.053;stroke-linecap:round;stroke-linejoin:round;stroke-miterlimit:10;}
</style>
<g>
	<path class="st0" d="M62.22,51.8"/>
	<line class="st1" x1="41.33" y1="1.21" x2="60.55" y2="90.63"/>
	<path class="st2" d="M49.49,39.07l14.53-9.13l11.76,14.08l1.16,1.93l-0.32,3.6l-2.64,0.39v-1.8l-0.96,0.13v-2.31l-8.94-9l-10.8,9
		l6.3,18.13l2.57,15.43l9.19,10.93l-5.85,5.53c0,0-2.06-0.96-1.09-2.44l1.8-3.21l-8.81-9.39c-0.45-0.96-6.24-15.17-6.24-15.17
		l1.8,15.94l9.19,10.93l-5.79,5.46c0,0-2.06-0.96-1.09-2.44l1.74-3.15l-8.81-9.39c-0.45-0.96-4.37-13.31-4.37-13.31l-4.56-22.88
		l-11.12-7.07l-8.1,7.59v2.7h-1.03v1.99h-3.28l0.45-6.24l11.31-12.73l11.38,3.86L49.49,39.07z"/>
	<polyline class="st1" points="64.08,36.95 63.95,29.94 54.83,1.21 	"/>
	<polyline class="st1" points="28.15,39.78 27.51,33.16 32.91,1.21 	"/>
	<polyline class="st1" points="66.2,90.3 68.2,86.64 48.4,1.21 	"/>
	<path class="st3" d="M46.66,36.05c-1.54,0.58-2.25,1.03-3.34,0.77c-0.58-0.19-0.96-0.51-1.22-0.77c0.26-0.39,0.71-1.09,0.77-1.93
		c0.26-1.99-1.35-2.83-1.29-4.95c0.06-1.67,1.03-2.76,1.16-2.96c1.54-1.8,3.92-1.74,4.31-1.67c0.45,0,1.93,0.13,3.28,1.22
		c2.19,1.74,2.25,4.5,2.25,4.82c0.06,0.13,0.19,0.58,0.71,0.84c0.51,0.32,0.96,0.26,1.09,0.26c-0.06,0.26-0.19,0.71-0.51,1.09
		c-0.45,0.58-1.03,0.9-1.29,1.03c-1.35,0.64-2.57,1.09-3.79,1.48"/>
	<path class="st4" d="M45.7,27.82c0,0-3.34,1.41-1.99,7.14c0,0,0.9,3.47,4.18,3.15c3.28-0.32,4.31-2.06,4.37-4.82
		C52.26,33.28,52.19,24.61,45.7,27.82z"/>
</g>
</svg>
