<?xml version="1.0" encoding="utf-8"?>
<!-- Generator: Adobe Illustrator 27.5.0, SVG Export Plug-In . SVG Version: 6.00 Build 0)  -->
<svg version="1.1" id="Capa_1" xmlns="http://www.w3.org/2000/svg" xmlns:xlink="http://www.w3.org/1999/xlink" x="0px" y="0px"
	 viewBox="0 0 100 100" style="enable-background:new 0 0 100 100;" xml:space="preserve">
<style type="text/css">
	.st0{fill:none;stroke:#020203;stroke-width:1.5262;stroke-linecap:round;stroke-linejoin:round;stroke-miterlimit:10;}
	.st1{fill:#FFFFFF;}
	.st2{fill:#020203;}
	.st3{fill:#020203;stroke:#020203;stroke-width:1.5262;stroke-linecap:round;stroke-linejoin:round;stroke-miterlimit:10;}
</style>
<g>
	<g>
		<path class="st0" d="M11.25,9.54l8.61-2.32c1.28-0.37,2.69-0.06,3.72,0.73l0,0c1.4,1.1,2.32,2.69,2.56,4.46l0.49,3.42
			c0.31,2.01-0.37,3.97-1.71,5.43l0,0c-0.85,0.98-1.95,1.59-3.17,1.83c-2.75,0.55-7.57,1.47-7.63,1.47L11.25,9.54z"/>
		<path class="st0" d="M77.12,18.02l-7.69-2.08c-1.16-0.31-2.38-0.06-3.36,0.67l0,0c-1.28,0.98-2.08,2.44-2.32,4.03l-0.43,3.05
			c-0.24,1.77,0.31,3.54,1.53,4.88l0,0c0.73,0.79,1.77,1.34,2.87,1.59c2.44,0.49,6.72,1.34,6.84,1.28L77.12,18.02z"/>
		<g>
			<path class="st1" d="M12.71,20.77c-0.49,0-0.92-0.12-1.34-0.31c-0.98-0.55-1.53-1.59-1.53-2.93c0-0.61,0.18-1.04,0.67-2.14
				l1.04-2.38c0.12-0.24,0.37-0.43,0.61-0.43h0.06c0.24,0,0.49,0.12,0.61,0.37c0.61,0.92,1.1,1.71,1.47,2.32
				c0.73,0.98,0.98,1.4,1.1,2.08c0.06,0.55,0.18,1.71-0.67,2.63C14.24,20.46,13.51,20.77,12.71,20.77z"/>
			<path class="st2" d="M12.29,13.26c0.61,0.92,1.1,1.71,1.47,2.32c0.61,1.04,0.79,1.4,0.85,1.95c0.06,0.37,0.18,1.28-0.43,1.89
				c-0.37,0.37-0.92,0.55-1.47,0.55c-0.31,0-0.67-0.06-0.98-0.18c-1.16-0.61-1.1-2.01-1.1-2.26c0-0.49,0.12-0.73,0.61-1.89
				C11.49,15.15,11.86,14.3,12.29,13.26 M12.29,11.73c-0.06,0-0.12,0-0.12,0c-0.55,0.06-1.04,0.43-1.28,0.92l-1.04,2.38
				c-0.55,1.22-0.73,1.71-0.73,2.44c0,1.65,0.73,2.99,1.95,3.6c0.49,0.24,1.1,0.43,1.71,0.43c0.98,0,1.89-0.37,2.56-1.04
				c1.1-1.1,0.85-2.63,0.79-3.17c-0.12-0.85-0.43-1.47-1.1-2.5c-0.37-0.67-0.85-1.47-1.47-2.38C13.26,11.98,12.78,11.73,12.29,11.73
				L12.29,11.73z"/>
		</g>
		<line class="st0" x1="59.97" y1="24.74" x2="58.07" y2="23.94"/>
		<line class="st0" x1="59.97" y1="27.3" x2="57.95" y2="27.79"/>
		<line class="st0" x1="61.49" y1="29.32" x2="60.7" y2="31.15"/>
		<path class="st0" d="M24.74,89.81l4.33,2.63l0.06,3.3l-10.5-0.06L17.9,74.43l-1.28-4.7c-1.77-12.51-3.54-21.31-5.07-28.08
			c-0.73-3.11-2.14-8.73,0.85-12.21c1.47-1.77,3.6-2.5,5.31-3.05c4.46-1.53,8.36-0.98,10.44-0.49l5.13,2.75c0,0,6.1-1.34,8.67-2.38
			c2.63-1.04,8.73-6.35,8.73-6.35l0.43,5.43l-6.23,5.01l-15.26,7.57l3.24,6.65l3.42,21.79l0.85,3.97l-0.79,20.08l3.91,2.44v2.75
			l-9.65,0.12l-1.4-27.65l-2.44,0.06L24.74,89.81z"/>
		<polygon class="st0" points="84.69,95.55 74.5,95.74 74.56,92.68 78.4,90.61 79.99,88.35 72.24,77.36 70.83,73.03 77.12,65.27 
			81.21,74.55 88.41,90.73 		"/>
		<path class="st0" d="M63.81,61.92l-4.52,8.55c-2.87,6.84,0.61,17.58,0.61,17.58l-2.5,2.14l-4.88,2.75v2.87l13.98,0.12l0.43-18.19
			c0,0,4.76-5.43,8.61-10.38c0,0,7.51-8.12,4.33-13.61c-2.63-6.41-3.97-17.83-3.97-17.83c-3.72-3.97-9.1-4.33-11.97-1.83
			c-2.63,2.26-2.26,6.23-2.26,6.72L63.81,61.92z"/>
		<path class="st0" d="M12.9,48.06c0.79,0.24,5.01-1.47,10.07-4.21c0.55-0.31,5.43-3.11,6.47-8.85c0.49-2.44,0.18-5.19-0.12-6.35
			l-2.81-1.1l-2.38,2.93l0.37,5.25l-7.57,2.69l-2.75-3.97"/>
		<polyline class="st0" points="72.3,46.59 67.11,48.79 48.98,42.32 48.98,36.28 53.07,35.6 53.19,38.41 68.7,42.2 70.83,38.35 		
			"/>
	</g>
	<path class="st3" d="M64.54,18.45c1.1,1.16,3.48,2.56,5.74,3.85c2.2,1.28,4.03,2.2,5.56,2.56c0.31-2.32,1.04-4.52,1.34-6.84
		c-2.63-0.49-5.74-1.71-8.36-2.2c-0.37,0-1.53,0.06-2.5,0.73C65.52,17.05,64.67,18.08,64.54,18.45z"/>
	<path class="st3" d="M73.21,12.89c0,2.44,1.34,4.4,2.99,4.4c1.65,0,2.99-1.95,2.99-4.4s-1.34-4.4-2.99-4.4
		C74.56,8.5,73.21,10.51,73.21,12.89z"/>
</g>
</svg>
