<?xml version="1.0" encoding="utf-8"?>
<!-- Generator: Adobe Illustrator 27.5.0, SVG Export Plug-In . SVG Version: 6.00 Build 0)  -->
<svg version="1.1" id="Capa_1" xmlns="http://www.w3.org/2000/svg" xmlns:xlink="http://www.w3.org/1999/xlink" x="0px" y="0px"
	 viewBox="0 0 100 100" style="enable-background:new 0 0 100 100;" xml:space="preserve">
<style type="text/css">
	.st0{fill:none;stroke:#020203;stroke-width:1.509;stroke-linecap:round;stroke-linejoin:round;stroke-miterlimit:10;}
	.st1{fill:#020203;}
</style>
<g>
	<path class="st0" d="M65.51,26.9l-7.48,3.95c-1.16,0.61-1.88,1.7-2.13,2.98l0,0c-0.24,1.7,0.18,3.4,1.16,4.8l1.88,2.68
		c1.09,1.58,2.86,2.55,4.74,2.68l0,0c1.16,0.06,2.37-0.24,3.34-0.85c2.25-1.4,6.2-3.89,6.26-3.95L65.51,26.9z"/>
	<path class="st0" d="M49.27,55.36l6.2,5.78c0.91,0.85,1.4,2.13,1.28,3.4l0,0c-0.18,1.7-1.03,3.22-2.31,4.38l-2.49,2.07
		c-1.46,1.22-3.4,1.7-5.29,1.34l0,0c-1.16-0.24-2.19-0.85-3.04-1.7c-1.82-1.95-4.99-5.35-4.99-5.41L49.27,55.36z"/>
	<path class="st0" d="M79.19,63.14"/>
	<g>
		<path class="st0" d="M83.5,76.09c-0.24-8.03-1.58-16.29-2.31-20.79l9.12-7.66l3.47-4.74V27.7c-0.12-0.36-0.85-3.28-3.71-4.62
			c-2.13-1.03-4.07-0.55-4.68-0.43l-1.22,6.44l4.8,1.46"/>
	</g>
	<path class="st0" d="M40.21,30.19c-0.49-0.24-2.31-1.16-4.26-0.85c-2.49,0.43-3.95,2.43-4.07,2.68C31.15,33.9,31.4,37,30.91,39
		c-2.68-1.03-6.32-2.43-9.06-3.4c-3.04,1.46-6.02,2.92-9.06,4.38c-0.36-2.31-0.79-4.68-1.16-6.99c-2.68-0.18-5.29-0.43-7.96-0.67
		c1.46-2.37,2.92-4.8,4.38-7.17c0.24-0.24,0.24-0.36,0.12-0.55c-0.49-0.67-2.55-3.4-3.04-4.07c0-0.06-0.67-0.91-0.73-0.97
		c3.59-0.79,6.57-2.07,9.12-3.53c0.06-0.06,0.18-0.12,0.24-0.12c0-0.06,0-0.18,0.06-0.24c0.43-2.25,1.4-4.8,3.59-7.48
		c2.43,1.09,4.8,2.19,7.24,3.22c2.98-1.46,5.96-2.92,9-4.44c0.3,1.95,0.67,3.95,0.97,5.9v0.06c0.12,1.28,5.11,1.88,9.18,2.19
		c-1.95,2.31-3.83,4.62-5.72,6.93c4.01,2.74,8.03,5.47,12.04,8.21C46.72,30.25,43.62,30.25,40.21,30.19z"/>
	<g>
		<path class="st1" d="M26.29,26.05c-1.03,1.28-2.92,0.85-3.71-0.67c-0.55-1.09-0.49-2.37,0.24-3.16c0.61-0.67,1.34-0.91,2.19-0.67
			c0.12,0,0.24,0,0.3,0c0.43-0.24,0.85-0.06,0.97,0.43c0.24,0.85,0.49,1.76,0.67,2.61c0.06,0.18,0.12,0.49,0.36,0.49
			c0.3,0,0.55-0.18,0.61-0.43c0.12-0.43,0.18-0.91,0.12-1.34c-0.12-1.58-1.7-2.74-3.4-2.74c-1.95,0.06-3.53,1.76-3.4,3.65
			c0.12,2.01,1.82,3.53,3.77,3.34c0.18,0,0.3-0.06,0.49-0.06c0.36-0.06,0.67,0.12,0.79,0.49c0.06,0.3-0.12,0.61-0.49,0.73
			c-2.07,0.49-4.38-0.61-5.29-2.55c-1.22-2.55-0.06-5.47,2.61-6.51c2.49-0.97,5.53,0.49,6.14,3.1c0.12,0.67,0.12,1.34,0,1.95
			c-0.3,0.97-1.09,1.7-1.95,1.64C27.02,26.3,26.65,26.11,26.29,26.05z M25.62,23.86h-0.06c-0.12-0.24-0.24-0.49-0.36-0.67
			c-0.18-0.3-0.49-0.55-0.85-0.49c-0.36,0.06-0.61,0.3-0.79,0.67c-0.3,0.67,0.06,1.7,0.73,2.07c0.49,0.24,0.97,0.12,1.16-0.43
			C25.56,24.66,25.56,24.23,25.62,23.86z"/>
		<path class="st1" d="M13.4,24.96c0-0.73-0.06-1.46-0.06-2.13c0-0.49,0.3-0.79,0.73-0.73c0.24,0.06,0.43,0.24,0.43,0.55
			c0.06,0.61,0.06,1.16,0.12,1.76c0,0.06,0,0.12,0,0.18c0.43-0.12,0.85-0.18,1.28-0.3c-0.06-0.73-0.06-1.4-0.12-2.13
			c0-0.43,0.18-0.73,0.55-0.73c0.36,0,0.61,0.24,0.67,0.67c0.06,0.61,0.06,1.22,0.12,1.88c0.18-0.06,0.36-0.12,0.61-0.18
			c0.36-0.06,0.73,0.06,0.79,0.43c0.06,0.36-0.12,0.67-0.49,0.73c-0.18,0.12-0.3,0.12-0.43,0.18c-0.12,0-0.24,0.06-0.43,0.12
			c0,0.55,0.06,1.03,0.06,1.64c0.24-0.06,0.43-0.12,0.61-0.18c0.43-0.12,0.73,0.06,0.85,0.43c0.06,0.36-0.12,0.67-0.49,0.79
			C17.9,28,17.47,28,17.35,28.18c-0.12,0.18,0,0.55,0,0.85c0,0.43,0.06,0.85,0.06,1.28c0,0.43-0.24,0.73-0.61,0.73
			c-0.3,0-0.61-0.24-0.61-0.67c-0.06-0.61-0.06-1.22-0.12-1.82c0-0.06,0-0.06,0-0.12c-0.36,0.12-0.73,0.18-1.09,0.3
			c-0.06,0-0.12,0.18-0.12,0.24c0,0.67,0.06,1.34,0.06,2.01c0,0.43-0.24,0.67-0.61,0.67s-0.61-0.24-0.61-0.67
			c0-0.61-0.06-1.22-0.06-1.88c-0.24,0.06-0.43,0.12-0.67,0.12c-0.36,0.12-0.67-0.06-0.79-0.43c-0.06-0.3,0.12-0.61,0.49-0.73
			c0.24-0.06,0.49-0.12,0.67-0.18c0.06,0,0.18-0.12,0.18-0.18c0-0.49-0.06-0.97-0.06-1.46c-0.12,0-0.24,0.06-0.36,0.06
			c-0.61,0.18-0.91,0.06-1.03-0.36c-0.12-0.43,0.12-0.67,0.73-0.85C12.98,25.02,13.22,25.02,13.4,24.96z M15.95,25.57
			c-0.43,0.12-0.85,0.24-1.28,0.36c0,0.55,0.06,1.03,0.06,1.58c0.36-0.12,0.73-0.18,1.09-0.3c0.06,0,0.12-0.12,0.12-0.12
			C16.02,26.6,15.95,26.11,15.95,25.57z"/>
		<path class="st1" d="M33.95,25.69c0-0.06,0-0.24,0.06-0.36c0.36-1.28,0.73-2.55,1.09-3.89c0.06-0.18,0-0.3-0.12-0.43
			c-0.97-0.91-1.88-1.82-2.86-2.8c-0.24-0.12-0.3-0.36-0.18-0.67c0.06-0.24,0.24-0.36,0.55-0.36c0.18,0,0.36,0.06,0.49,0.18
			c1.03,1.03,2.13,2.13,3.28,3.22c0.18,0.18,0.24,0.43,0.18,0.67c-0.43,1.52-0.85,3.04-1.28,4.56c-0.12,0.3-0.36,0.49-0.61,0.43
			C34.25,26.24,34.01,26.05,33.95,25.69z"/>
		<path class="st1" d="M30.3,21.43c-0.24-0.91-0.49-1.82-0.67-2.74c-0.12-0.36,0-0.67,0.3-0.73c0.36-0.12,0.73,0,0.85,0.43
			c0.18,0.61,0.3,1.22,0.49,1.88c0.3,1.16,0.61,2.37,0.91,3.59c0.06,0.3,0,0.49-0.24,0.73c-0.12,0.12-0.36,0.12-0.61,0
			c-0.12-0.12-0.24-0.3-0.3-0.49C30.79,23.2,30.55,22.34,30.3,21.43z"/>
		<path class="st1" d="M31.64,26.54c-0.06-0.36,0.12-0.67,0.49-0.73c0.3-0.06,0.67,0.12,0.73,0.43c0.06,0.3-0.12,0.67-0.43,0.73
			C32.07,27.09,31.76,26.9,31.64,26.54z"/>
	</g>
	<path class="st0" d="M86.06,30.13l-0.91,9.91l-7.11,5.78H69.7l-9.42,1.76c-0.18,0.12-8.51,0-8.51,0L40.46,35.42l-0.24-5.23
		c-2.13-1.22-4.68-1.22-6.57,0c-1.58,1.03-2.19,2.55-2.43,3.16v3.77l12.77,15.56l4.92,2.25"/>
	<path class="st0" d="M55.47,84c-0.06,0.91-3.83,6.63-6.99,8.57c-1.46,0.91-3.47,1.34-7.54,0.43c-3.34-0.73-5.96-4.8-13.13-11.37
		l3.4-5.53"/>
	<path class="st0" d="M50.06,78.95l1.82-2.13l2.43-3.59l4.32,1.03l-0.49,2.68l-2.07,1.03l-9.61,1.58l-5.05-2.98L39,80.35l2.13,2.61
		l2.49,0.55l3.1,0.18c12.34,1.16,21.22-0.97,21.95-4.44c0.67-3.1-4.99-8.21-12.77-11.8"/>
	<polyline class="st0" points="41.13,82.9 45.08,86.91 47.27,83.69 	"/>
	<path class="st0" d="M38.63,65.21c-2.37,0.3-10.52,1.76-17.08,8.88c-5.59,6.08-6.87,12.89-7.24,15.44"/>
</g>
</svg>
