<?xml version="1.0" encoding="utf-8"?>
<!-- Generator: Adobe Illustrator 27.1.1, SVG Export Plug-In . SVG Version: 6.00 Build 0)  -->
<svg version="1.1" id="Layer_1" xmlns="http://www.w3.org/2000/svg" xmlns:xlink="http://www.w3.org/1999/xlink" x="0px" y="0px"
	 viewBox="0 0 100 100" style="enable-background:new 0 0 100 100;" xml:space="preserve">
<path d="M67.37,21.36c-0.79-3.27-0.47-4.81-0.2-7.96c0.2-2.32,2.11-4.29,4.01-5.1C72.9,7.56,74,7.59,75.9,7.6
	c1.94,0.01,3.49,1.64,3.42,3.58c-0.16,4.5,0.95,6.53,1.68,10.74c0.44,2.51-0.69,3.87-3.31,4.29c-1.15,0.19-1.18,0.72-0.77,1.58
	c1.07,2.25,2.41,4.33,3.77,6.41c0.42,0.64,1.28,1.39,0.15,2.07c-0.94,0.57-1.55-0.2-2.01-0.89c-2.24-3.34-3.89-7-5.64-10.6
	c-0.13-0.28-0.29-0.54-0.48-0.91c-1.53,1.87-2.08,3.47-0.77,5.83c1.97,3.54,3.37,7.39,5.04,11.1c0.28,0.63,0.64,1.25,1.03,1.82
	c0.73,1.05,1.85,0.96,2.94,0.93c1.13-0.03,1.26-0.94,1.45-1.72c0.72-2.83,1.09-5.73,1.48-8.62c0.22-1.64-0.6-2.65-1.77-3.53
	c-0.87-0.65-1.77-1.25-2.64-1.88c-0.35-0.26-0.84-0.53-0.54-1.05c0.28-0.48,0.81-0.55,1.35-0.44c2.9,0.55,5.67,4.5,5.48,7.45
	c-0.17,2.81-0.58,5.55-1.31,8.26c-0.34,1.29-0.68,2.79-2.34,2.89c-2.1,0.13-4.38,0.62-5.84-1.7c-0.95-1.51-1.71-3.12-2.42-4.75
	c-1.26-2.9-2.49-5.82-3.87-9.06c-1.2,2.98-2.61,5.8-1.72,8.6c1.56,4.94,0.02,9.08-2.29,13.2c-1,1.77-2.02,3.53-3.06,5.28
	c-0.72,1.21-0.6,2.12,0.95,2.27c6.07,0.58,12.04,1.97,18.16,2.05c1.55,0.02,2.07-0.33,1.56-1.98c-1.16-3.69-2.15-7.44-3.23-11.16
	c-0.27-0.92-0.5-1.82,0.72-2.15c1.12-0.31,1.25,0.69,1.44,1.36c1.24,4.33,2.38,8.69,3.67,13.01c0.48,1.61-0.12,2.28-1.58,2.53
	c-1.58,0.27-3.18,0.23-4.75-0.03c-0.98-0.16-1.31,0.02-1.48,1.06c-1.21,7.39-1.62,14.88-2.66,22.28c-0.13,0.93-0.19,1.89-0.42,2.8
	c-0.3,1.22-1.59,2.1-2.85,2.02c-2.41-0.17-4.82,0.06-7.21-0.17c-1-0.1-2.36,0.1-2.68-1.29c-0.31-1.37-0.43-2.79,1.13-3.67
	c2.53-1.43,2.31-4.03,2.6-6.38c0.69-5.75,0.1-11.57,1-17.31c0.16-1.03-0.57-0.88-0.99-0.97c-1.25-0.27-2.56-0.31-3.8-0.62
	c-1.96-0.48-2.74-2.33-1.73-4.07c1.71-2.97,3.5-5.9,4.86-9.07c0.59-1.37,1.69-2.58-0.89-3.25c-1.34-0.35-2.39-1.65-3.29-2.82
	c-0.64-0.82-0.96-1.74-0.71-2.85c1.17-5.34,2.99-10.5,4.42-15.76C65.49,21.06,66.39,21.48,67.37,21.36z M76.56,62.26
	c-2.03-0.32-4.05-0.52-6.01-0.97c-1.23-0.28-1.3,0.12-1.34,1.16c-0.2,5.52-0.39,11.03-0.78,16.54c-0.2,2.91-0.56,5.88-3.55,7.57
	c-0.51,0.29-0.74,0.86-0.79,1.46c-0.06,0.62,0.13,0.92,1.48,0.62c1.81-0.41,3.7-0.36,5.48,0.17c1.42,0.42,2.35,0.17,2.47-1
	c0.4-3.59,0.85-7.18,1.16-10.77C75.11,72.11,75.41,67.18,76.56,62.26z M70.73,23.31c2.51-3.03,2.67-3,4.47,0.6
	c0.03,0.06,0.06,0.11,0.08,0.17c0.24,0.78,0.67,0.98,1.56,0.91c1.9-0.14,2.2-1.44,2.02-2.78c-0.54-4.08-0.17-5.58-0.73-8.58
	c0.02-0.84-1.35-4.21-2.31-4.39c-3.83-0.69-7.51,2.43-6.78,6.23c0.12,0.62,0.07,1.27,0.22,1.88C69.75,19.32,69.11,21.58,70.73,23.31
	z M66.38,24.33c-1.13,4.12-2.24,8.19-3.35,12.27c-0.73,2.69-0.26,3.95,2.07,5.48c0.42,0.27,1.01,1.04,1.41,0.3
	c0.38-0.72,0.57-2.22-0.26-2.36c-2.25-0.4-1.2-1.68-0.92-2.65C66.56,33.14,68.96,29.05,66.38,24.33z"/>
<path d="M43.11,69.36c3.39,1.32,3.98,2.19,3.98,5.63c0,2.1,0.04,4.2-0.03,6.3c-0.04,1.19,0.37,1.87,1.51,2.3
	c0.94,0.35,1.82,0.9,2.65,1.48c0.51,0.36,0.92,0.96,0.63,1.66c-0.26,0.61-0.78,1.02-1.48,1.04c-0.83,0.02-1.66,0.06-2.48-0.04
	c-4.52-0.57-8.92,0.98-13.41,0.72c-3.36-0.19-6.71-0.53-10.07-0.63c-2.15-0.06-4.31,0.23-6.46,0.32c-0.88,0.04-1.78,0.09-2.64-0.26
	c-1.89-0.78-2.36-2.07-1.18-3.72c1.32-1.85,1.8-4.25,3.76-5.67c0.55-0.4,0.21-0.75-0.02-1.13c-0.42-0.71-0.8-1.44-1.22-2.16
	c-4.13-7.04-1.54-13.46,1.86-19.79c1.3-2.43,3.04-4.57,5.04-6.43c1.7-1.58,3.4-2.39,6.25-1.86c5.89,1.1,8.87,4.55,10.67,9.79
	c1.03,3,1.26,3.07,3.73,0.98c2.56-2.18,5.34-1.97,8.26-1.28c0.7,0.16,1.35,0.58,1.53,1.29c0.16,0.64-0.45,1.02-0.91,1.32
	C49.05,61.81,46.44,65.79,43.11,69.36z M51.38,58.13c-1.78-0.8-3.16-0.71-4.45,0.2c-1.35,0.95-2.62,2-3.95,2.98
	c-1.75,1.29-2.8,1.08-3.79-0.89c-0.77-1.53-1.43-3.12-2.04-4.72c-1.33-3.52-3.06-6.31-7.28-7.18c-2.09-0.43-3.48-0.18-4.76,1.16
	c-4.37,4.58-6.87,10.17-8.44,16.21c-0.17,0.65-0.14,1.41,0.02,2.07c0.55,2.29,1.32,4.51,2.25,6.67c1.09,2.53,2.83,3.81,5.71,3.73
	c2.53-0.07,5.07,0.22,7.61,0.38c0.64,0.04,1.49,0.19,1.44,0.93c-0.05,0.8-0.97,0.76-1.54,0.65c-2.2-0.42-4.43-0.19-6.65-0.49
	c-3.76-0.52-7.58-0.76-8.7,4.29c-0.05,0.24-0.25,0.44-0.37,0.66c-0.26,0.48-0.88,0.89-0.53,1.52c0.39,0.69,1.15,0.46,1.74,0.39
	c2.01-0.24,4-0.52,6.05-0.42c4.44,0.22,8.88,0.59,13.33,0.48c2.01-0.05,3.1-1.07,3.54-2.82c0.47-1.9,0.18-3.78-0.67-5.57
	c-2.35-4.98-6.88-8.48-9.14-13.52c-0.21-0.46-1.11-0.7-0.64-1.36c0.46-0.65,1.19-0.27,1.74-0.01c0.56,0.27,1.07,0.68,1.56,1.07
	c1.84,1.46,3.68,2.93,5.79,4.01c0.62,0.32,1.12,0.63,1.84-0.06C44.53,65.17,46.99,60.89,51.38,58.13z M49.48,86.37
	c0.04-0.17,0.08-0.35,0.11-0.52c-0.66-0.36-1.29-0.8-1.99-1.06c-1.63-0.59-2.21-1.66-2.45-3.4c-0.37-2.64,0.39-5.18,0.17-7.78
	c-0.07-0.87-0.09-1.73-1.04-2.04c-2.04-0.66-4.14-0.92-6.69-1.02c0.81,1.12,1.44,1.89,1.95,2.73c1.41,2.29,3.42,4.24,3.66,7.18
	c0.12,1.5-0.35,2.89-0.35,4.35c0,0.65-0.02,1.12,0.82,1.14C45.61,86.02,47.55,85.89,49.48,86.37z"/>
<path d="M30.71,30.62c3.46-0.14,5.12,1.01,6.12,3.06c1.5,3.1,2.58,6.35,2.96,9.79c0.22,2.06-0.81,3.28-2.86,3.48
	c-0.31,0.03-0.66,0.19-0.84-0.16c-0.18-0.34,0.08-0.65,0.36-0.77c1.64-0.65,1.36-2.01,1.12-3.23c-0.56-2.81-1.46-5.53-2.71-8.11
	c-1.5-3.07-5.45-3.64-7.87-1.2c-0.75,0.75-0.68,1.59-0.39,2.47c0.82,2.55,1.84,5.01,3.16,7.34c0.31,0.55,0.61,1.11,0.91,1.67
	c0.32,0.58,0.33,1.12-0.35,1.43c-0.62,0.29-0.93-0.16-1.21-0.61c-1.92-3.16-3.43-6.51-4.67-9.99c-0.47-1.31,0.11-2.34,1.14-3.17
	C27.39,31.17,29.53,30.7,30.71,30.62z"/>
<path d="M48.97,56.07c-1.71,0.48-2.68-0.72-3.24-2.48c-0.44-1.39-0.82-2.79-1.22-4.2c-0.11-0.4-0.44-0.88,0.19-1.13
	c0.61-0.23,1.18-0.06,1.48,0.51c0.37,0.73,0.72,1.5,0.93,2.29c0.49,1.79,1.61,2.31,3.32,1.88c0.5-0.13,0.99-0.09,1.5,0.03
	c0.93,0.21,0.86,0.91,0.98,1.61c0.14,0.8-0.32,0.97-0.9,1.18C51.14,56.07,50.25,55.99,48.97,56.07z"/>
</svg>
