<?xml version="1.0" encoding="UTF-8"?>
<svg id="Layer_1" data-name="Layer 1" xmlns="http://www.w3.org/2000/svg" viewBox="0 0 52.77 84.46">
  <path d="m27.87,31.11c-.07.22-.13.44-.2.66-.37,1.15-.82,2.28-1.13,3.45-.38,1.41-.58,2.84-.65,4.3-.03.74.03,1.47.08,2.21.04.53.02,1.06.07,1.6.04.56.13,1.11.21,1.66.21,1.45.46,2.89.69,4.34.16.97.31,1.94.47,2.9.13.81.25,1.63.41,2.44.55,2.71,1.14,5.4,1.81,8.08.26,1.03.43,2.09.64,3.13.16.8.32,1.59.48,2.39.18.91.37,1.83.55,2.74.05.26.13.51.28.74.34.55.47,1.19.68,1.8.2.57.4,1.14.61,1.71.11.3.3.56.51.79.51.57,1.02,1.13,1.61,1.62.65.54,1.29,1.1,1.94,1.64.34.28.5.63.49,1.08-.02,1.03-.08,2.06-.24,3.07-.04.26-.12.52-.3.73-.2.23-.45.33-.75.24-.58-.17-1.17-.31-1.73-.52-.52-.19-1.07-.31-1.62-.41-.85-.15-1.67-.41-2.49-.64-.75-.21-1.49-.44-2.21-.71-.21-.08-.4-.18-.53-.36-.18-.23-.4-.39-.66-.48-.37-.13-.6-.4-.77-.73-.29-.57-.54-1.16-.76-1.77-.34-.94-.64-1.91-.94-2.87-.31-1.01-.66-2-1-2.99-.15-.46-.35-.9-.51-1.36-.25-.7-.45-1.41-.69-2.1-.27-.79-.51-1.59-.78-2.38-.45-1.28-.78-2.6-1.12-3.91-.38-1.46-.7-2.94-1.16-4.39-.31-.97-.63-1.94-.74-2.96-.02-.22-.09-.43-.17-.63-.06-.17-.18-.25-.36-.25-.76,0-1.53,0-2.29.02-.44.01-.51.11-.56.55-.03.29-.03.58-.04.87,0,.65-.01,1.31-.06,1.96-.03.5.09.99.15,1.48.04.42.1.84.12,1.27.04.76.06,1.52.07,2.29,0,.34.05.68.07,1.01.1,1.69.2,3.38.29,5.08.05.93.06,1.86.11,2.79.04.7.09,1.4.09,2.1,0,.48.15.73.53,1.01.77.56,1.51,1.17,2.33,1.67.28.17.54.37.78.59.16.15.35.27.54.36.26.12.38.32.42.59.12.9.05,1.79-.13,2.67-.05.25-.1.5-.14.75-.03.18-.09.35-.16.52-.14.31-.38.47-.71.49-.4.02-.79.02-1.19-.1-.65-.2-1.33-.27-2.01-.32-.38-.03-.73-.15-1.11-.19-.51-.04-1.01-.07-1.52-.1-.8-.06-1.54-.27-2.27-.6-.31-.14-.61-.26-.96-.31-.44-.05-.75-.31-.92-.73-.2-.51-.28-1.05-.37-1.59-.16-.99-.24-1.99-.37-2.99-.06-.5-.16-1-.23-1.51-.09-.6-.19-1.2-.27-1.8-.11-.82-.18-1.64-.32-2.45-.13-.74-.16-1.49-.26-2.24-.21-1.56-.4-3.12-.6-4.68-.04-.28-.08-.55-.13-.82-.04-.2-.07-.4-.07-.61,0-.51-.17-1-.19-1.51-.02-.45-.08-.89-.1-1.34-.01-.27-.07-.53-.1-.79-.02-.13-.04-.26-.04-.4.01-.99-.2-1.95-.27-2.93-.08-1.22-.31-2.43-.4-3.64-.04-.56-.07-1.11-.07-1.67,0-.56-.08-1.11-.11-1.67-.03-.65-.04-1.31-.05-1.96-.01-.42-.03-.85-.03-1.27,0-.55,0-1.11.2-1.65.14-.39.25-.78.35-1.18.14-.53.41-1.01.66-1.49.18-.34.37-.36.8-.17.23-.52.57-.97.95-1.39.12-.14.26-.2.45-.2.24,0,.48,0,.72.04.65.11,1.23,0,1.77-.44.45-.38.95-.71,1.41-1.08.2-.17.43-.2.68-.17.17.02.34.07.39.27.06.2,0,.35-.16.48-.25.19-.49.39-.75.58-.38.28-.77.54-1.16.82-.32.23-.67.32-1.06.33-.32,0-.63,0-.94-.05-.52-.08-.7.02-.93.48-.09.17-.09.32.06.46.19.18.38.37.58.55.42.36.86.71,1.22,1.14.18.21.38.27.65.2.39-.1.78-.18,1.15-.32.51-.19,1.02-.37,1.56-.48.45-.09.86-.33,1.27-.54.42-.21.83-.45,1.25-.67.31-.17.52-.43.69-.73.57-.99,1.06-2.02,1.52-3.06.05-.12.09-.25.09-.38-.04-.06-.09-.05-.13-.02-.6.33-1.23.37-1.9.3-1.59-.18-3.17-.43-4.72-.82-.6-.15-1.17-.4-1.75-.6-.53-.18-1.05-.37-1.59-.53-.35-.1-.67-.28-1.01-.41-.34-.13-.35-.13-.57.16-.52.67-1,1.37-1.52,2.04-.63.8-1.4,1.39-2.37,1.73-.39.14-.76.31-1.17.39-.06.01-.12.03-.17.06-.29.19-.28,1.02,0,1.21.1.07.21.13.32.16.55.16,1.1.28,1.67.35.17.02.34-.02.5-.08.59-.22,1.18-.44,1.75-.7.23-.11.48-.18.72-.25.21-.06.36,0,.44.15.09.15.05.29-.11.45-.09.09-.19.15-.3.2-.79.35-1.6.63-2.41.92-.5.18-1.01.1-1.51.02-.47-.07-.93-.17-1.36-.39-.29-.15-.62-.2-.91-.37-.21-.12-.32-.27-.36-.51-.05-.36-.06-.72-.01-1.09,0-.07.05-.14,0-.21-.1-.03-.12.06-.16.12-.04.05-.07.11-.14.06-.06-.04-.03-.11-.01-.17.11-.28.22-.52.57-.59.27-.06.53-.16.8-.21.8-.14,1.53-.45,2.22-.87.34-.21.6-.53.84-.85.6-.78,1.22-1.53,1.87-2.26.04-.04.09-.09.08-.18-.16-.12-.33-.25-.49-.39-.24-.2-.4-.45-.5-.74-.15-.41-.32-.81-.32-1.26,0-.25-.05-.3-.3-.32-.73-.06-1.26-.45-1.68-1.02-.17-.22-.34-.44-.51-.66-.28-.37-.41-.79-.52-1.23-.05-.21.1-.34.25-.44.28-.19.6-.31.92-.42.65-.22,1.28-.51,1.95-.7.15-.04.3-.11.43-.19.52-.33,1.06-.64,1.43-1.16.15-.21.15-.21-.04-.38-.08-.07-.16-.15-.26-.2-.64-.32-1.01-.85-1.23-1.5-.19-.56-.51-1.07-.72-1.63-.23-.64-.33-1.29-.27-1.96.03-.35.16-.68.31-1,.33-.69.7-1.35,1.18-1.95.34-.42.73-.78,1.13-1.12.36-.3.84-.42,1.29-.57.78-.26,1.56-.26,2.36-.1.43.09.79.3,1.13.56.63.48,1.17,1.05,1.66,1.68.16.2.17.2.37.03.4-.35.85-.66,1.31-.91.82-.44,1.71-.59,2.64-.5,1.57.15,3.1.54,4.62.95,1.13.31,2.18.79,3.28,1.18.78.28,1.49.68,2.18,1.14.86.57,1.69,1.18,2.42,1.91.09.08.19.17.23.28.2.44.49.84.7,1.27.29.57.62,1.12.92,1.69.36.67.71,1.35,1.04,2.03.23.48.43.97.64,1.46.12.29.15.3.42.17.2-.1.4-.16.62-.2.17-.03.29-.12.32-.3.08-.42.35-.74.56-1.09.16-.26.29-.53.35-.83.17-.79.41-1.57.64-2.34.21-.67.42-1.34.65-2,.14-.41.35-.8.58-1.17.11-.17.12-.29,0-.45-.32-.41-.62-.84-.96-1.23-.76-.88-1.46-1.8-2.15-2.74-.46-.63-.76-1.32-1.08-2.01-.29-.63-.19-1.23.23-1.8.54-.75,1.29-1.23,2.03-1.72.19-.13.38-.26.56-.4.33-.27.71-.46,1.12-.56.33-.08.6,0,.83.23.12.12.24.24.34.37.54.64,1.06,1.29,1.61,1.93.4.48.71,1,.98,1.57.2.43.44.84.71,1.23.32.47.58.98.78,1.51.19.5.09.97-.19,1.38-.47.7-1.09,1.26-1.74,1.79-.57.46-1.16.88-1.88,1.07-.12.03-.18.11-.23.22-.06.16-.14.31-.19.47-.4,1.36-.8,2.72-1.19,4.08-.08.29-.17.57,0,.88.09.17.04.4.07.61.11.6.26,1.18.44,1.76.24.8.51,1.59.67,2.41.09.43.25.83.41,1.25.13-.05.13-.15.14-.24.1-1.01.33-2.01.47-3.01.09-.61.26-1.21.33-1.82.12-1.11.48-2.17.71-3.26.16-.74.5-1.41.92-2.04.37-.55.65-1.16,1.05-1.7.27-.37.57-.73.87-1.07.23-.27.29-.55.2-.87-.05-.19-.12-.37-.2-.55-.33-.77-.54-1.58-.84-2.36-.08-.2-.04-.38.11-.54.22-.24.39-.22.65-.02.46.35.61.87.76,1.37.16.51.3,1.02.5,1.52.12.32.19.64.15.99-.04.45-.29.77-.58,1.06-.7.73-1.25,1.57-1.79,2.42-.16.25-.21.54-.35.79-.35.61-.38,1.29-.53,1.95-.23,1.02-.32,2.06-.5,3.08-.25,1.4-.47,2.79-.7,4.19-.12.72-.27,1.43-.32,2.15-.04.49,0,.95.18,1.42.36.91.68,1.84,1.12,2.72.21.42.45.83.74,1.21.1.14.23.25.37.34.23.16.48.22.76.12.4-.14.79-.31,1.13-.56.26-.19.51-.34.86-.33.34.02.44.32.28.57-.07.11-.17.17-.27.24-.82.56-1.72.93-2.72,1.03-.28.03-.52-.04-.77-.17-.56-.29-.95-.73-1.24-1.29-.5-.97-.98-1.95-1.3-2.99-.11-.35-.28-.67-.41-1.01-.3-.84-.59-1.69-.89-2.54-.07-.21-.15-.41-.23-.61-.35-.88-.51-1.82-.71-2.74-.11-.51-.2-1.02-.31-1.53-.01-.07-.01-.15-.12-.19-.15.19-.26.39-.27.64-.02.59-.04,1.19.02,1.78,0,.07.01.15,0,.22-.08.58.03,1.16.07,1.74.05.69.2,1.36.19,2.06,0,.58.12,1.16.17,1.74.07.89.13,1.79.21,2.68.05.55.14,1.11.19,1.66.08.81.17,1.62.21,2.42.03.63.15,1.25.19,1.88.1,1.27.31,2.52.56,3.77.21,1.02.28,2.07.58,3.07.11.36.27.7.47,1.02.37.6.94.93,1.63.96.85.04,1.7.07,2.54-.07.7-.12,1.42-.19,2.12-.33.86-.18,1.73-.38,2.45-.96.3-.24.64-.44.99-.61,1.05-.51,1.7-1.38,2.23-2.36.15-.29.2-.62.13-.92-.11-.46-.11-.93-.23-1.39-.16-.61-.43-1.18-.66-1.77-.39-1.03-.9-2.01-1.41-2.99-.52-1.02-1.05-2.05-1.63-3.04-.6-1.02-1.25-2.02-1.92-2.99-.34-.49-.65-.99-.98-1.48-.24-.35-.5-.68-.76-1.01-.53-.67-1.18-1.25-1.64-1.99-.35-.57-.67-1.15-1.01-1.72-.09-.15-.09-.33-.07-.5.01-.21.13-.36.32-.45.2-.09.38-.05.54.1.26.26.52.51.75.79.48.59.92,1.21,1.42,1.8.95,1.12,1.65,2.41,2.48,3.62.51.74,1.02,1.47,1.49,2.24.64,1.04,1.26,2.1,1.79,3.2.35.73.75,1.44,1.11,2.17.67,1.36,1.33,2.72,1.64,4.22.03.16.05.31.05.47,0,.24-.01.49,0,.73.04.51-.04.99-.3,1.43-.25.43-.5.86-.79,1.26-.33.44-.79.71-1.24.98-.19.11-.38.22-.55.35-.59.43-1.23.77-1.86,1.13-.17.1-.36.15-.55.18-.34.05-.65.15-.97.29-.24.1-.51.14-.78.15-.67.03-1.31.22-1.98.27-.36.03-.72.09-1.08.1-.69.02-1.38.05-2.07.01-.84-.04-1.58-.4-2.13-1.04-.36-.42-.61-.93-.77-1.47-.19-.65-.3-1.32-.39-1.99-.13-.95-.32-1.89-.51-2.82-.14-.69-.18-1.39-.26-2.09-.03-.22-.06-.43-.08-.65-.02-.18-.11-.28-.28-.33-.3-.08-.6-.2-.91-.25-.33-.06-.63-.18-.89-.38-.54-.41-.74-.99-.79-1.61-.07-.89-.05-1.79.11-2.68.06-.36.07-.72.1-1.08,0-.08,0-.17.02-.25.03-.16.01-.37.18-.45.23-.12.47-.25.76-.19.22.05.33.16.34.4.02.21,0,.41-.04.62-.18.98-.22,1.97-.23,2.97,0,.45.1.88.28,1.3.2.46.6.57,1.03.63.1.02.17-.04.18-.14.01-.12.02-.24.01-.36-.03-.82-.12-1.64-.24-2.46-.1-.72-.16-1.44-.21-2.17-.07-.88-.14-1.76-.23-2.64-.04-.44-.04-.87-.05-1.31,0-.17,0-.35-.04-.51-.14-.52-.12-1.06-.17-1.59-.06-.77-.1-1.55-.09-2.32,0-.14,0-.29-.04-.43-.05-.21-.14-.24-.3-.1-.27.22-.46.5-.6.81-.21.48-.37.97-.43,1.49-.07.56-.19,1.12-.3,1.68-.18.92-.27,1.84-.37,2.77-.12,1.07-.32,2.13-.5,3.19-.13.78-.26,1.55-.5,2.31-.12.37-.24.74-.37,1.1-.32.91-.56,1.85-.8,2.79-.27,1.09-.53,2.19-.71,3.3-.12.79-.21,1.59-.09,2.39.02.11.02.22.02.33-.01.67.24,1.23.69,1.7.27.28.53.56.85.79.05.03.1.07.14.11.43.45.99.65,1.54.85.84.31,1.7.57,2.6.67.6.07,1.21.07,1.81.01.42-.04.84-.07,1.27-.09.3-.01.49.12.53.33.04.24-.14.47-.42.55-.37.1-.75.09-1.12.12-.97.05-1.94.04-2.9-.14-.65-.12-1.29-.33-1.93-.5-.64-.17-1.21-.49-1.8-.77-.28-.13-.5-.35-.72-.55-.36-.33-.72-.64-1.05-1-.48-.54-.7-1.17-.77-1.88-.04-.4-.06-.8-.08-1.2-.03-.9.12-1.79.25-2.67.18-1.18.5-2.32.78-3.47.28-1.17.69-2.29,1.03-3.44.24-.83.38-1.67.52-2.52.09-.56.19-1.12.29-1.68.02-.13.03-.26.05-.4.04-.29-.02-.5-.3-.67-.25-.15-.43-.41-.66-.61-.59-.51-1.19-.99-1.79-1.47-.28-.22-.54-.48-.84-.69-.18-.12-.3-.31-.39-.54Zm-12.73-9.28c.2.11.37.11.54.11.46,0,.86.18,1.21.44.71.51,1.25,1.16,1.62,1.97.52,1.13.85,2.32,1.07,3.54.04.19.09.38.16.56.1.27.17.3.43.2.07-.03.13-.06.2-.08.45-.13.68-.04.9.37.17.31.27.64.34.99.08.43.12.87.25,1.28.2.61.24,1.23.26,1.86.01.33-.09.61-.29.88-.36.47-.83.83-1.32,1.13-.46.29-.69.64-.8,1.16-.2.98-.56,1.9-.98,2.8-.12.25-.23.51-.37.75-.44.73-1.08,1.24-1.81,1.63-.51.28-.99.61-1.55.78-1.09.33-2.16.72-3.26,1.03-.29.08-.32.1-.31.36.01.62-.06,1.23-.06,1.85,0,.96.01,1.91.04,2.87.04,1.42.19,2.83.24,4.24,0,.24.11.44.3.59.43.34.93.46,1.45.51.6.06,1.21.09,1.8.22.21.05.43.08.65.08.57,0,1.14-.01,1.71,0,.28,0,.51-.05.72-.27.2-.21.34-.21.52,0,.15.17.31.21.51.21.79-.03,1.57-.11,2.34-.28.43-.09.86-.16,1.29-.23.21-.03.44-.02.65-.07.75-.19,1.5-.41,2.26-.53.2-.03.26-.15.26-.33,0-.28-.01-.56-.08-.83-.15-.57-.25-1.16-.35-1.74-.18-1-.3-2.01-.51-3-.16-.75-.23-1.51-.32-2.27-.05-.49-.16-.98-.06-1.48.03-.13-.01-.26-.02-.4-.05-.61-.19-1.22-.19-1.84,0-.7,0-1.4.06-2.1.12-1.19.21-2.39.59-3.54.26-.77.47-1.55.75-2.31.32-.85.62-1.7.83-2.59.08-.36.09-.72.19-1.07.22-.85.18-1.73.33-2.59.06-.33,0-.36-.33-.49-.47-.18-.97-.31-1.45-.48-.99-.36-2-.68-3.02-.94-.59-.15-1.16-.33-1.73-.54-.54-.2-1.08-.42-1.67-.46-.25-.02-.45-.26-.5-.56-.03-.17-.02-.34-.02-.51,0-.34-.01-.69-.11-1.01-.25-.81-.26-1.65-.39-2.47-.13-.84-.15-1.69-.29-2.52-.03-.2-.12-.27-.31-.27-.28,0-.56-.03-.83.03-.61.13-1.26.13-1.75.61-.06.06-.15.07-.23.11-.09.04-.18.08-.25.14-.17.13-.19.22-.09.4.28.5.49,1.03.8,1.51.28.45.42.95.56,1.45.09.32,0,.6-.24.83-.11.1-.21.2-.34.32Zm-7.78,18.71c-.26.76-.42,1.48-.57,2.2-.11.55-.14,1.1-.15,1.66-.01,1.99.04,3.97.2,5.95.12,1.42.31,2.84.41,4.26.07,1.06.23,2.12.33,3.18.08.75.14,1.49.2,2.24.05.64.18,1.27.25,1.91.13,1.25.3,2.5.46,3.75.18,1.45.31,2.91.54,4.36.04.29.12.57.13.86.04.93.27,1.84.37,2.77.06.59.22,1.17.29,1.76.09.71.17,1.42.25,2.13.07.58.18,1.15.28,1.72.1.54.31.99.88,1.18.23.08.44.21.67.29.79.28,1.58.55,2.43.53.41,0,.83,0,1.23.1.89.21,1.8.26,2.69.44.16.03.31.05.47.03.22-.02.31-.1.3-.32,0-.16,0-.32.06-.47.19-.56.19-1.14.18-1.72,0-.3-.13-.58-.4-.74-.51-.31-.97-.68-1.5-.95-.25-.12-.49-.26-.69-.47-.19-.2-.41-.37-.65-.51-.22-.13-.42-.29-.6-.47-.2-.2-.35-.44-.34-.74,0-.14-.04-.22-.16-.29-.26-.16-.36-.42-.37-.71-.01-.41-.06-.82-.06-1.23,0-1.2-.14-2.39-.11-3.59,0-.27,0-.53-.03-.8-.06-.86-.19-1.71-.18-2.57,0-.19,0-.39-.02-.58-.14-1.25-.12-2.51-.2-3.77-.03-.46-.05-.92-.13-1.37-.22-1.17-.16-2.34-.04-3.51.06-.64.11-1.28.15-1.92.02-.28-.05-.36-.32-.37-.27-.01-.53-.11-.79-.12-.73-.04-1.34-.38-1.97-.7-.19-.1-.29-.24-.35-.44-.09-.31-.13-.62-.12-.93,0-.45,0-.9-.09-1.34-.09-.44-.1-.89-.12-1.34-.04-1.2-.11-2.4-.07-3.6.02-.52.03-1.04.1-1.56.05-.37.07-.75.1-1.12.01-.13.01-.28-.12-.36-.3-.17-.51-.44-.76-.67-.71-.64-1.45-1.25-2.09-2.04Zm28.87,40.92c0-.11-.02-.22,0-.33.1-.58-.23-.97-.63-1.26-.55-.38-1.04-.83-1.56-1.24-.68-.53-1.17-1.25-1.78-1.84-.03-.03-.06-.08-.08-.12-.27-.54-.6-1.05-.84-1.61-.23-.54-.38-1.12-.74-1.61-.03-.04-.03-.09-.05-.14-.27-.83-.43-1.69-.6-2.54-.15-.76-.29-1.52-.44-2.28-.2-.99-.41-1.97-.61-2.95-.17-.84-.25-1.7-.47-2.54-.31-1.14-.55-2.31-.85-3.45-.21-.79-.36-1.61-.54-2.41-.22-.98-.43-1.96-.59-2.95-.02-.11-.06-.21-.1-.31-.05-.13-.14-.2-.28-.15-.47.17-.98.17-1.46.28-.6.14-1.2.3-1.81.38-1.01.14-1.99.43-3.01.46-.31,0-.37.12-.32.43.09.6.29,1.18.47,1.75.13.42.32.82.43,1.24.31,1.2.64,2.38.99,3.57.12.43.21.88.39,1.28.16.35.35.68.26,1.08-.01.05,0,.12.03.18.23.42.23.91.42,1.35.25.56.37,1.15.53,1.73.31,1.06.65,2.11.99,3.15.36,1.08.73,2.16,1.12,3.22.62,1.69,1.04,3.45,1.76,5.11.13.29.21.59.34.88.14.3.34.53.64.66.16.07.29.16.35.34.04.12.14.19.26.23.57.2,1.14.42,1.72.59.72.2,1.46.36,2.17.59.11.04.24.07.35.07.54.02,1.05.18,1.56.33.44.13.88.27,1.32.39.41.11.43.1.53-.33.1-.4.11-.81.11-1.23ZM20.1,30.17c-.38-.29-.38-.28-.78-.03-.41.25-.81.53-1.18.84-.18.15-.38.26-.62.28-.28.01-.41-.14-.35-.41.04-.2.14-.36.31-.47.3-.21.59-.42.89-.63.11-.08.22-.16.25-.3.05-.24.11-.47.07-.72-.19-1.35-.51-2.66-1.14-3.88-.37-.72-.88-1.29-1.53-1.76-.19-.14-.4-.22-.63-.27-.34-.07-.68-.04-1.01-.06-.26-.02-.47.05-.66.23-.79.71-1.67,1.28-2.62,1.75-.81.39-1.67.62-2.57.38-.33-.08-.53-.02-.75.25-.68.86-1.53,1.46-2.6,1.77-.51.15-1.01.34-1.51.53-.28.1-.31.16-.18.43.29.6.69,1.11,1.21,1.53.26.21.58.29.93.2.62-.16,1.16-.48,1.65-.89.44-.36.86-.75,1.28-1.13.19-.17.41-.26.63-.35.14-.05.26-.04.36.08.11.14.07.27-.04.4-.06.07-.13.15-.2.21-.28.25-.56.5-.84.75-.71.64-1.45,1.25-2.37,1.57-.23.08-.23.14-.2.4.08.76.56,1.23,1.16,1.62.71.46,1.53.67,2.31.96.63.23,1.27.39,1.9.62.71.25,1.43.46,2.16.63,1.26.3,2.54.5,3.84.59.34.02.66,0,.96-.14.97-.45,1.9-.95,2.72-1.65.27-.23.39-.49.27-.83-.11-.32-.15-.66-.39-.93-.08-.08-.07-.2-.09-.31-.08-.42-.07-.85-.18-1.26-.04-.14-.06-.3-.19-.39-.17.1-.15.27-.24.41Zm-10.44-14.91c-.55-.04-1.04.1-1.51.3-.14.06-.25.13-.27.3-.03.18-.13.32-.3.38-.39.14-.61.46-.85.76-.38.48-.57,1.03-.58,1.65,0,.45-.01.9.09,1.34.13.59.13,1.2.41,1.76.17.35.42.65.61.99.35.62.86.96,1.53,1.17.84.27,1.61.24,2.39-.16.94-.49,1.78-1.13,2.56-1.83.73-.66.73-1.33.39-2.06-.34-.72-.78-1.37-1.17-2.05-.45-.78-1.08-1.43-1.79-1.98-.45-.35-.91-.66-1.49-.56Zm17.98,5.11c0-.43.02-.48-.1-.58-.35-.3-.67-.64-1.1-.81-.41-.17-.84-.31-1.27-.44-.47-.14-.89-.39-1.33-.58-1.02-.42-2.1-.66-3.17-.93-.4-.1-.8-.19-1.2-.27-.23-.05-.3,0-.27.24.03.25.04.51.06.76.05.57.08,1.14.17,1.7.18,1.04.3,2.08.46,3.12.03.21.12.36.32.44.67.26,1.33.52,2.03.69,1.35.33,2.69.72,4,1.19.3.11.59.22.88.34.29.11.33.08.32-.24-.01-.22-.05-.43-.06-.65-.03-.67,0-1.33.09-1.99.07-.47,0-.95.13-1.41.05-.2.07-.41.06-.58Zm4.4,12.92c.09-.46.18-.84.25-1.23.11-.66.25-1.31.34-1.97.06-.49.3-.92.5-1.36.11-.23.11-.43-.02-.65-.11-.19-.21-.38-.3-.58-.33-.77-.58-1.57-1.01-2.29-.43-.73-.65-1.56-1.06-2.3-.09-.16-.16-.33-.21-.5-.06-.17-.13-.35-.27-.47-.39-.36-.78-.72-1.19-1.06-.12-.1-.25-.31-.42-.22-.15.08-.11.3-.11.47-.01.4.1.8.04,1.2-.05.37-.05.75-.04,1.12,0,.35.05.7.06,1.05.01.74.01,1.47-.05,2.21-.08.9-.14,1.81-.33,2.7-.04.21-.08.43-.12.64-.04.3-.02.32.27.39.18.04.35.09.5.2.76.6,1.54,1.17,2.24,1.84.27.26.56.49.91.8Zm10.14-17.19c0-.12-.03-.24-.08-.35-.26-.57-.51-1.15-.85-1.68-.24-.36-.46-.74-.69-1.11-.3-.48-.57-.97-.97-1.4-.58-.61-1.08-1.3-1.62-1.95-.22-.27-.32-.29-.61-.09-.2.14-.38.3-.58.44-.45.34-.93.66-1.33,1.06-.21.21-.37.45-.48.71-.08.19-.15.41-.05.6.18.36.29.75.48,1.1.33.61.73,1.17,1.14,1.72.79,1.07,1.71,2.04,2.48,3.12.27.37.57.42.94.14.31-.23.62-.46.91-.72.33-.29.61-.62.94-.91.2-.18.36-.4.36-.69Z"/>
  <path d="m19.46,6.15c.08-.07.08-.17.1-.26.15-.57.29-1.15.51-1.7,0-.01,0-.02.01-.03.48-.78.83-1.64,1.48-2.32.72-.74,1.56-1.25,2.57-1.49.5-.12.99-.21,1.51-.14.16.02.36.07.46-.16.03-.06.14-.03.18.04.05.08.11.16.22.17.05,0,.13,0,.11-.05-.08-.27.12-.2.24-.21.36-.02.68.16,1.04.17.02,0,.06.01.06.03.15.39.53.23.84.4-.12-.23-.35-.12-.46-.29.19-.12.38-.04.54.03.32.16.65.31.94.54.26.21.57.37.87.53.46.25.83.63,1.21.97.14.12.24.28.29.45.16.52.37,1.03.48,1.56.26,1.25.37,2.51.14,3.79-.28,1.57-.74,3.08-1.48,4.5-.13.26-.29.5-.47.73-.95,1.25-1.94,1.8-3.4,2-.37.05-.74.11-1.12.13-.68.04-1.35-.03-2.02-.17-.81-.18-1.59-.42-2.37-.68-.69-.23-1.34-.56-2.01-.85-.3-.13-.59-.27-.88-.44-.32-.19-.67-.32-1.06-.36-.32-.03-.64-.14-.95-.25-.49-.17-.99-.3-1.47-.52-.56-.26-1.02-.64-1.44-1.08-.08-.09-.14-.2-.18-.31-.29-.76-.35-1.56-.26-2.36.04-.39.22-.74.45-1.06.31-.44.62-.9.98-1.3.28-.32.69-.5,1.1-.61.44-.12.9-.15,1.37-.11.57.04,1.07.29,1.56.55.07.04.14.09.22.13.02.01.05,0,.07,0Zm12.48.06h0c0-.31.02-.63,0-.94-.04-.52-.03-1.04-.38-1.48-.06-.07-.09-.17-.11-.27-.1-.4-.39-.63-.72-.82-.12-.07-.21-.03-.25.1-.02.06-.03.12-.04.18-.18.71-.51,1.36-1.04,1.85-.74.67-1.58,1.21-2.62,1.31-.27.03-.45.15-.6.4-.6,1.01-1.34,1.92-2.25,2.68-.32.26-.67.42-1.08.46-.46.05-.91.06-1.38.02-.37-.03-.75-.07-1.12-.12-.32-.04-.32-.04-.39.26-.04.16-.09.33-.14.49-.19.6-.38,1.2-.49,1.82-.06.35-.05.35.26.54.81.49,1.69.84,2.57,1.18.53.21,1.07.39,1.62.54,1.18.31,2.36.35,3.56.15.79-.13,1.45-.49,1.98-1.05.74-.78,1.27-1.7,1.61-2.73.04-.11.06-.24.12-.34.4-.85.54-1.78.82-2.67.07-.22.09-.45.09-.68,0-.29,0-.58,0-.87Zm-10.13,2.73c.58.05,1.01-.25,1.4-.6.75-.68,1.36-1.48,1.83-2.38.19-.37.44-.52.84-.58,1.33-.19,2.38-.84,3.12-1.96.24-.36.44-.75.53-1.19.05-.24.02-.3-.19-.41-.14-.07-.29-.13-.43-.18-.4-.15-.78-.35-1.21-.37-.83-.05-1.67-.13-2.5-.09-.67.03-1.25.29-1.77.68-.49.37-.89.82-1.24,1.36-.71,1.11-1.15,2.31-1.47,3.57-.09.34-.1.7-.23,1.03-.08.2-.16.4-.23.61-.07.22-.03.3.19.33.45.07.91.12,1.37.18Zm-6.85.58c0,.1,0,.26,0,.42,0,.61.3,1.04.79,1.38.62.43,1.35.53,2.03.76.17.06.24-.02.27-.19.04-.25.09-.5.16-.75.34-1.16.64-2.33.95-3.5.04-.16.05-.28-.1-.38-.12-.09-.19-.22-.23-.36-.06-.22-.21-.34-.41-.43-.44-.21-.9-.14-1.36-.11-.43.04-.85.18-1.14.51-.65.74-1.11,1.56-.98,2.66Z"/>
  <path d="m14.5,26.88c-.03.46-.17.87-.31,1.28-.31.87-.67,1.71-1.24,2.46-.26.35-.57.66-.92.93-.24.19-.3.43-.05.67.28.27.59.51.96.65.25.09.47.06.67-.11.89-.74,1.6-1.61,1.92-2.75.03-.1.09-.2.12-.3.1-.4.39-.55.77-.61.25-.04.39.05.45.3.04.17,0,.33-.07.49-.34.81-.78,1.56-1.35,2.23-.52.62-1.1,1.19-1.88,1.51-.41.17-.82.21-1.23.04-.36-.15-.72-.29-1.04-.51-.35-.25-.61-.58-.77-.99-.09-.24-.05-.45.14-.63.24-.22.46-.46.72-.67.51-.41.85-.94,1.14-1.53.38-.78.67-1.61,1.06-2.39.06-.13.13-.26.21-.38.1-.15.26-.23.44-.18.19.05.25.21.26.39,0,.04,0,.07,0,.1Z"/>
  <path d="m41.83,15.59c-.06.28-.24.54-.5.76-.38.33-.82.57-1.16.93-.13.13-.28.23-.44.31-.56.28-.88.19-1.25-.31-.66-.88-1.24-1.82-1.87-2.72-.42-.59-.85-1.18-1.28-1.76-.16-.22-.19-.42-.12-.67.14-.5.44-.86.9-1.08.35-.17.68-.4.92-.7.37-.48.81-.3,1.18.04.22.2.37.47.56.71.42.55.89,1.05,1.29,1.62.45.63.85,1.29,1.28,1.94.11.17.23.34.34.52.07.11.14.22.15.42Z"/>
</svg>