<?xml version="1.0" encoding="UTF-8"?>
<svg id="Layer_1" data-name="Layer 1" xmlns="http://www.w3.org/2000/svg" viewBox="0 0 377.86 528.54">
  <g>
    <path d="m141.61,528.5c-9.05,0-18.1,0-27.15,0-2.73,0-2.85-.14-2.89-2.91-.15-11.54-.33-23.08-.46-34.62-.18-16.88-.33-33.76-.49-50.65q-.03-3.64-3.65-3.78c-1.71-.07-3.43-.05-5.12-.28-1.76-.23-2.19.48-2.24,2.12-.32,11.18-.26,22.36-.33,33.55-.11,18.02-.3,36.05-.39,54.07,0,1.79-.52,2.54-2.43,2.53-18.31-.06-36.62-.04-54.93-.06-2.54,0-3.41-.8-3.41-3.31,0-4.06.12-8.12.24-12.17.06-1.86,1.13-2.95,2.86-3.57,5.64-2,11.23-4.12,16.9-6.03,1.94-.65,2.64-1.63,2.63-3.69-.09-20.23-.11-40.47-.09-60.7,0-1.62-.31-2.68-2.08-3.13-10.12-2.54-16.13-9.45-19.57-18.89-3.6-9.87-4.74-20.2-5.37-30.61-.91-14.96-.4-29.91.61-44.84,1.47-21.55,3.97-42.98,9.35-63.96,2.79-10.87,6.6-21.38,13.45-30.5,4.79-6.37,11.37-10.02,18.85-12.22,12.4-3.65,25.09-4.14,37.89-3.31,2.75.18,2.83.06,2.69-2.72-.21-3.98-.29-7.97-.29-11.96,0-1.67-.56-2.23-2.25-2.17-9.55.35-19.07-.42-28.58-1.08-3.46-.24-6.76.86-10.13,1.36-16.4,2.42-32.67,2.2-48.69-2.47-11.28-3.29-19.94-9.75-24.02-21.18-4.2-11.75-2.85-23.23,1.94-34.55,5.66-13.39,15.46-22.6,28.28-29.02,15.04-7.53,31.07-11.91,47.42-15.37,15.78-3.34,31.78-4.92,47.85-6.08,15.19-1.09,30.37-2.44,45.56-3.6,4.26-.33,8.53-.31,12.8-.31,7.48-.01,14.95,0,22.4.6,10.93.88,21.86,1.74,32.78,2.64,9.36.77,18.73,1.56,28.09,2.41,10.79.99,21.46,2.82,32.04,5.17,12.74,2.83,25.31,6.25,37.26,11.61,10.56,4.73,20.54,10.3,27.55,19.93,7.1,9.74,11.57,20.52,11.37,32.72-.19,11.64-3.99,21.81-13.78,28.99-6.49,4.76-14.05,6.8-21.8,8.22-15.04,2.77-30.05,2.25-45.02-.67-1.9-.37-3.77-.46-5.71-.32-9.16.65-18.33,1.33-27.53,1.01-1.64-.06-2.3.42-2.32,2.13-.04,3.63.09,7.27-.34,10.89-.22,1.85.55,2.18,2.35,2.12,14.34-.53,28.64-.47,42.42,4.48,8.73,3.14,15.05,8.99,19.46,17.06,6.26,11.44,9.75,23.81,12.25,36.52,2.71,13.78,4.53,27.69,5.81,41.66.67,7.3,1.1,14.63,1.42,21.95.29,6.83.52,13.66.43,20.5-.15,11.2-.74,22.35-3.01,33.35-1.6,7.73-3.88,15.19-9.41,21.2-3.84,4.18-8.52,6.87-14.09,7.92-2.03.38-2.65,1.26-2.43,3.34.29,2.68.19,5.4.21,8.11.08,12.04.12,24.08.22,36.12.05,5.63.24,11.25.27,16.88,0,1.58.57,2.4,2.06,3.02,6.32,2.6,12.57,5.38,18.89,7.99,2.46,1.02,3.77,2.47,3.57,5.31-.21,2.98-.01,5.98-.03,8.97-.01,2.46-.94,3.48-3.38,3.75-.63.07-1.28.05-1.92.04-17.67-.02-35.34-.03-53.01-.06-3.48,0-3.44-.02-3.48-3.41-.16-15.53-.22-31.06-.57-46.58-.21-9.4-.24-18.8-.35-28.21-.05-3.84-.23-7.69-.26-11.53-.01-1.5-.53-2.13-2.1-2.25-2.2-.18-4.41-.18-6.61-.32-1.84-.11-2.28.68-2.28,2.38,0,14.18.12,28.36-.2,42.53-.31,13.82-.16,27.64-.34,41.45-.01,1.07-.27,2.15-.15,3.2.28,2.43-.96,2.79-3.02,2.76-11.61-.19-23.22.11-34.83-.23-6.4-.19-12.82.42-19.22.08-2.94-.16-3.51-.73-3.52-3.6-.02-3.56-.01-7.13.04-10.69.04-3.01.78-3.97,3.67-5.01,5.62-2.04,11.24-4.11,16.88-6.08,1.52-.53,2.04-1.38,2.04-2.98-.07-20.8-.09-41.61-.09-62.41,0-1.46-.29-2.36-1.91-2.77-10.36-2.59-16.47-9.63-19.94-19.34-3.09-8.66-4.25-17.69-5.01-26.8-.49-5.9-.6-11.81-.52-17.72.02-1.67-.57-2.25-2.24-2.24-6.63.05-13.25.07-19.88-.05-1.87-.03-2.5.52-2.46,2.41.21,9.84-.33,19.66-1.7,29.4-1.02,7.28-2.48,14.47-5.8,21.13-3.79,7.6-9.59,12.8-17.98,14.86-3.24.8-3.23.84-3.22,4.25.03,8.98-.12,17.96.14,26.93.32,10.83.15,21.65.33,32.48.02,1.49.48,2.29,1.9,2.88,6.57,2.74,13.08,5.64,19.65,8.37,2.05.85,3,2.09,2.95,4.37-.08,3.06.17,6.12.18,9.18,0,3.05-1.09,4.12-4.14,4.13-9.26.02-18.52,0-27.79,0v-.03Zm47.73-163.99v.02c3.35,0,6.7-.05,10.04.02,1.62.04,2.27-.49,2.29-2.2.13-10.54.75-21.05,1.64-31.56,1.29-15.2,3.33-30.28,6.35-45.23,2.34-11.58,5.71-22.78,11.24-33.28,4.5-8.55,10.97-14.8,20.18-18.07,4.72-1.67,9.57-2.79,14.51-3.49,1.44-.21,2.13-.76,2.17-2.3.09-3.84.24-7.69.5-11.52.13-1.86-.51-2.6-2.39-2.91-9.43-1.57-15.97-7.03-20.25-15.42-1.96-3.84-3.12-7.96-3.97-12.15-2.64-12.91-1.27-25.68,1.77-38.31,1.78-7.41,5.83-13.24,13.03-16.5,3.07-1.39,6.23-2.49,9.54-3.06,15.06-2.6,29.87-1.36,44.14,4.01,9.52,3.58,14.91,10.87,16.21,21.03.7,5.48.32,10.96-.44,16.39-.28,2.04.47,2.28,2.14,2.24,4.56-.1,8.89-1.01,12.92-3.24,1.07-.59,2.29-.81,3.02.43.78,1.31-.22,2.16-1.21,2.78-2.07,1.29-4.33,2.15-6.69,2.75-6.7,1.69-13.41,1.2-20.14.22-7.02-1.03-13.61-3.62-20.42-5.4-3.42-.89-4.7-.4-6.42,2.58-3.07,5.35-5.24,11.06-6.16,17.2-.85,5.71,1.2,10.13,5.85,13.52,3.76,2.74,7.98,4.43,12.39,5.6,17.98,4.78,36.11,5.57,54.34,1.54,6.94-1.53,13.63-3.83,18.92-8.88,8.59-8.2,10.87-18.65,9.21-29.82-2.69-18.06-12.52-31.26-28.82-39.66-18.93-9.75-39.36-14.47-60.13-18-11.03-1.88-22.17-2.79-33.33-3.61-13.06-.97-26.1-2.2-39.16-3.19-7.87-.6-15.7-1.39-23.65-1.15-4.39.14-8.82.05-13.21.37-11.15.82-22.27,1.89-33.41,2.78-14.26,1.14-28.57,1.85-42.74,3.92-20.64,3.01-40.94,7.33-60.09,15.96-8.63,3.89-16.83,8.49-22.95,15.96-8.03,9.8-12.75,20.91-12.27,33.76.42,11.1,4.53,20.36,14.44,26.33,4.39,2.64,9.22,4.14,14.16,5.25,15.45,3.47,30.95,3.24,46.45.28,6.45-1.23,12.79-2.84,18.49-6.34,6.41-3.94,8.53-8.43,7.32-15.81-.74-4.53-2.35-8.8-4.29-12.94-3.09-6.58-4.4-7.11-11.28-4.8-5.61,1.89-11.26,3.6-17.12,4.51-7.37,1.15-14.72,1.6-21.99-.69-1.71-.54-3.34-1.26-4.85-2.2-.99-.61-2.01-1.42-1.29-2.76.7-1.28,1.88-1.03,2.99-.51.26.12.51.25.77.38,3.8,2,7.88,2.78,12.14,2.91,1.78.05,2.38-.42,2.15-2.27-.63-5.23-1.02-10.48-.46-15.76.99-9.36,5.52-16.29,13.93-20.63,5.2-2.68,10.83-3.92,16.54-4.83,11.19-1.79,22.37-2.37,33.48.65,9.5,2.58,16.22,8.07,18.78,17.91.59,2.27,1.18,4.55,1.57,6.87,2.04,12.1,2.84,24.16-.52,36.21-3.56,12.77-10.67,21.77-24.54,23.85-.99.15-1.3.56-1.24,1.55.26,4.62.52,9.24.64,13.87.04,1.65.59,2.41,2.27,2.64,3.81.52,7.58,1.28,11.29,2.33,9.41,2.66,17.07,7.64,22.21,16.2,3.17,5.28,5.71,10.84,7.72,16.63,5.86,16.94,8.28,34.58,10.45,52.27,1.74,14.22,2.49,28.51,2.96,42.81.05,1.45.54,2.04,2.01,2.01,3.42-.06,6.84-.02,10.26-.02Zm121.51,159.6v.02c8.26,0,16.53-.04,24.79.03,1.83.01,2.62-.55,2.48-2.45-.13-1.77-.1-3.56-.05-5.34.05-1.62-.53-2.61-2.11-3.27-6.05-2.51-12.04-5.16-18.07-7.73-4.4-1.87-4.46-1.95-4.49-6.8-.06-11.26.01-22.52-.23-33.77-.22-9.97-.26-19.94-.34-29.91-.02-1.77.4-2.96,2.49-3.24,9.6-1.29,16.21-6.58,19.92-15.43,4.71-11.23,5.76-23.18,6.19-35.15.46-12.74.17-25.49-.62-38.22-.99-15.86-2.69-31.63-5.4-47.3-2.09-12.1-4.99-23.94-9.59-35.39-5.7-14.18-15.61-22.74-30.85-25.07-5.71-.87-11.4-1.2-17.17-1.4-9.52-.33-18.91-.1-28.24,1.93-10.57,2.31-19.28,7.2-24.6,17.06-4.15,7.69-7.27,15.77-9.43,24.22-2.79,10.92-4.63,22.01-6.17,33.16-2.28,16.53-3.39,33.14-3.94,49.8-.34,10.4-.21,20.8.79,31.17.75,7.81,1.94,15.55,4.66,22.97,2.94,8.02,7.8,14.19,16.4,16.68q5.48,1.59,5.48,7.39c.01,20.87.03,41.75.04,62.62,0,3.67-.07,3.74-3.6,5-5.57,1.98-11.1,4.05-16.69,5.98-1.54.53-2.15,1.36-2.09,2.96.08,2.35.06,4.7-.06,7.05-.09,1.75.55,2.37,2.33,2.37,16.1-.03,32.2,0,48.3.06,1.73,0,2.38-.55,2.39-2.33.05-9.47.23-18.94.31-28.42.17-19.09.31-38.18.47-57.27,0-.43,0-.86.02-1.28.14-2.25.94-3.14,3.19-3.08,4.05.11,8.11.3,12.15.61,2.77.21,3.1.7,3.15,3.46.13,8.19.14,16.38.3,24.57.4,20.37.49,40.74.62,61.12.01,2.07.67,2.69,2.7,2.67,8.19-.09,16.39-.04,24.58-.04Zm-168.28.74v.02c7.91,0,15.82,0,23.72,0,3.46,0,3.52,0,3.41-3.55-.26-8.47,1.32-5.91-6.36-9.37-5-2.25-10.06-4.35-15.13-6.46-2.06-.86-3.15-2.1-3.05-4.52.13-3.19-.15-6.4-.17-9.61-.08-11.47-.01-22.94-.25-34.41-.14-6.69-.26-13.39-.29-20.08-.02-2.88.24-3.13,3.02-3.57,2.69-.43,5.28-1.21,7.72-2.4,7.6-3.7,11.23-10.4,13.57-18.05,3.82-12.48,4.27-25.37,4.64-38.26.23-8.12-.27-16.23-.64-24.34-.74-16.16-2.31-32.24-4.89-48.21-2.35-14.51-5.35-28.81-11.38-42.37-5.46-12.28-14.33-19.9-27.6-22.39-6.3-1.18-12.6-1.74-19.04-1.9-9.81-.24-19.49-.12-29.09,2.03-10.83,2.42-19.43,7.76-24.69,17.93-4.45,8.6-7.66,17.62-9.82,27.03-3.04,13.2-4.99,26.58-6.52,40.04-1.66,14.66-2.36,29.38-2.79,44.11-.25,8.55.12,17.09.89,25.61.75,8.31,1.95,16.56,4.99,24.41,3.4,8.77,9.26,14.74,18.82,16.51,2.45.46,2.93,1.15,2.93,3.88,0,11.54,0,23.08,0,34.63,0,10.12-.03,20.23.03,30.35.01,2.21-.72,3.47-2.98,4.21-5.88,1.93-11.66,4.18-17.5,6.24-1.49.52-2.18,1.35-2.12,2.98.09,2.2-.02,4.42-.04,6.62-.02,2.86-.02,2.87,2.81,2.87,15.89.01,31.78.02,47.66.03.43,0,.85-.02,1.28-.01.99,0,1.42-.46,1.34-1.46-.28-3.85.13-7.68.16-11.53.2-24.43.34-48.87.51-73.3,0-.93,0-1.85.04-2.78.11-2.56.83-3.34,3.4-3.28,3.91.09,7.83.31,11.74.48,2.79.12,3.32.65,3.36,3.48.11,6.62.24,13.24.31,19.87.2,18.23.36,36.47.56,54.7.04,3.77.27,7.55.21,11.32-.04,2.17.93,2.57,2.85,2.56,8.12-.08,16.24-.03,24.37-.03Zm-48.6-314.49c7.53.33,15.04,1.08,22.57.47,4.13-.34,8.22-.81,11.95-2.85,7.04-3.85,10.76-10.13,12.92-17.57,4.07-14,2.65-27.93-.68-41.79-1.98-8.25-7.47-13.09-15.55-15.41-8.45-2.42-17-2.52-25.62-1.7-7.18.68-14.29,1.8-20.96,4.71-7.4,3.22-11.94,8.75-13.12,16.88-.85,5.85-.37,11.64.38,17.45.16,1.28.73,1.51,1.84,1.32,1.75-.29,3.52-.48,5.28-.78,5.64-.94,11.03-2.81,16.46-4.52,7.06-2.22,10.21-.92,13.61,5.61,2.25,4.31,3.96,8.85,5.07,13.58,1.69,7.16.95,13.74-5.07,18.89-2.73,2.34-5.79,4.11-9.08,5.71Zm190.05.02c-2.41-1.25-4.82-2.41-6.97-4.01-4.24-3.16-7.63-6.88-7.86-12.57-.37-9.36,3.08-17.54,7.97-25.22,1.34-2.1,3.52-2.99,6.09-2.91,2.09.06,4.09.5,6.06,1.16,6.62,2.22,13.31,4.18,20.29,5,1.65.19,2.54-.09,2.57-1.99.03-1.77.44-3.53.55-5.3.3-4.99.44-9.99-1.01-14.84-2.41-8.09-8.38-12.43-16.05-14.88-5.73-1.83-11.62-2.77-17.59-3.33-8.42-.79-16.77-.66-25,1.61-8.39,2.32-13.95,7.36-16.04,16-1.47,6.04-2.27,12.16-2.73,18.35-.72,9.67.31,19.08,4.09,28.05,3.14,7.45,8.47,12.72,16.54,14.44,9.63,2.05,19.37.92,29.11.44Z"/>
    <path d="m201.42,89.94c-10.74-.21-21.92-.39-32.99-2.22-4.03-.67-7.93-1.77-11.57-3.62-5.38-2.73-8.42-7.33-9.21-13.12-2.3-16.74-2.6-33.48,1.01-50.12,2.13-9.83,8.46-15.5,17.95-17.98,5.68-1.49,11.51-1.9,17.32-2.41,9.54-.84,19.05-.49,28.54.72,2.34.3,4.63.86,6.85,1.62,5,1.71,8.17,5.25,9.91,10.18,1.88,5.36,2.61,10.96,2.92,16.57.64,11.44,1.23,22.89,1.03,34.37-.07,4.06-.3,8.11-.94,12.13-1.19,7.54-5.22,11.57-12.69,13.03-5.87,1.14-11.78.73-18.11.87Zm2.55-3.66c5.27,0,10.53-.02,15.74-1.1,4.83-1,7.59-3.85,8.54-8.64.81-4.07,1.02-8.19,1.17-12.32.39-10.62-.51-21.2-.89-31.8-.18-5.04-.71-10.08-1.9-15.02-1.9-7.88-5.17-10.96-13.13-12.21-8.89-1.39-17.83-1.8-26.8-1.26-6.46.39-12.94.92-19.22,2.61-6.33,1.7-11.54,4.87-13.98,11.38-.92,2.47-1.63,5-2.07,7.61-.86,5.06-1.27,10.16-1.44,15.29-.34,9.9-.3,19.78,1.38,29.58.95,5.53,4.05,9.3,9.28,11.31,2.19.84,4.43,1.54,6.75,1.97,12.1,2.27,24.36,2.14,36.58,2.58Z"/>
  </g>
  <g>
    <path d="m71.96,411.12c-.94,0-1.72-.39-2.38-1.04-3.9-3.91-7.81-7.81-11.71-11.72-2.5-2.5-5.01-5.01-7.51-7.51-1.24-1.24-1.46-2.64-.62-4.18,1.71-3.13,4.14-5.54,7.29-7.23,1.39-.74,2.83-.54,3.94.57,6.47,6.46,12.93,12.92,19.39,19.39,1.09,1.09,1.31,2.53.59,3.88-1.72,3.24-4.2,5.72-7.44,7.44-.54.29-.99.39-1.56.4Zm-9.99-24.11c-.11.02-.17.11-.24.18-1.44,1.43-2.87,2.87-4.31,4.3-.2.2-.17.3.01.48,3.65,3.65,7.3,7.3,10.95,10.95.2.2.31.2.51,0,1.4-1.42,2.81-2.83,4.23-4.23.26-.25.22-.38-.01-.61-2.61-2.59-5.2-5.19-7.8-7.79-1.03-1.03-2.06-2.06-3.09-3.08-.08-.08-.14-.18-.26-.21Z"/>
    <path d="m72.11,379.01c.39-.01.88.12,1.34.36,3.3,1.73,5.83,4.25,7.55,7.55.66,1.26.45,2.69-.55,3.72-1.2,1.24-2.44,2.44-3.65,3.67-.25.25-.38.09-.54-.08-3.03-3.03-6.06-6.06-9.09-9.09-.37-.37-.74-.75-1.13-1.12-.16-.15-.16-.26,0-.41,1.24-1.23,2.47-2.48,3.71-3.7.61-.6,1.37-.9,2.36-.9Z"/>
    <path d="m58.49,411.12c-.39.01-.89-.13-1.35-.38-3.28-1.74-5.8-4.25-7.52-7.54-.66-1.27-.43-2.71.58-3.74,1.19-1.21,2.41-2.41,3.6-3.62.2-.21.33-.18.52.01,3.4,3.41,6.8,6.81,10.21,10.21.2.2.19.32,0,.51-1.2,1.18-2.38,2.37-3.57,3.56-.64.64-1.42.98-2.48.98Z"/>
  </g>
  <g>
    <path d="m319.5,316.08c-.94-.01-1.71-.4-2.37-1.06-3.9-3.91-7.81-7.81-11.71-11.72-2.49-2.49-4.99-4.99-7.48-7.48-1.26-1.26-1.47-2.64-.61-4.21,1.71-3.12,4.13-5.52,7.27-7.2,1.4-.75,2.84-.54,3.97.58,6.45,6.44,12.9,12.89,19.34,19.34,1.13,1.13,1.35,2.57.6,3.96-1.72,3.21-4.19,5.67-7.41,7.38-.56.3-1,.4-1.59.4Zm-9.97-24.11c-.1.02-.16.11-.23.18-1.44,1.43-2.87,2.87-4.31,4.3-.19.19-.19.29,0,.48,3.66,3.65,7.32,7.31,10.97,10.97.2.2.3.17.48-.01,1.41-1.43,2.83-2.85,4.26-4.25.22-.22.23-.34,0-.56-1.84-1.82-3.67-3.66-5.5-5.49-1.8-1.8-3.6-3.6-5.4-5.4-.08-.08-.14-.18-.27-.21Z"/>
    <path d="m319.69,283.97c.38,0,.87.13,1.32.36,3.29,1.73,5.81,4.24,7.53,7.53.66,1.27.47,2.69-.53,3.72-1.21,1.25-2.45,2.46-3.67,3.69-.23.24-.36.09-.52-.07-2.21-2.21-4.41-4.42-6.62-6.62-1.18-1.18-2.35-2.36-3.54-3.53-.2-.2-.23-.32-.01-.54,1.19-1.17,2.36-2.35,3.54-3.53.65-.65,1.43-1.01,2.5-1Z"/>
    <path d="m306.23,316.08c-.58.01-1.07-.13-1.54-.38-3.27-1.73-5.78-4.24-7.5-7.52-.67-1.27-.45-2.71.56-3.75,1.2-1.23,2.42-2.42,3.63-3.64.19-.19.31-.18.5,0,3.42,3.42,6.84,6.84,10.26,10.26.16.16.17.27,0,.44-1.23,1.21-2.44,2.44-3.66,3.65-.64.63-1.41.93-2.24.93Z"/>
  </g>
</svg>