<?xml version="1.0" encoding="UTF-8"?>
<svg id="Layer_1" data-name="Layer 1" xmlns="http://www.w3.org/2000/svg" viewBox="0 0 49.63 69.05">
  <defs>
    <style>
      .cls-1 {
        fill: #fff;
      }

      .cls-1, .cls-2 {
        stroke-miterlimit: 10;
      }

      .cls-1, .cls-2, .cls-3, .cls-4 {
        stroke: #000;
        stroke-width: 1.5px;
      }

      .cls-2, .cls-4 {
        fill: none;
        stroke-linecap: round;
      }

      .cls-3 {
        stroke-linecap: square;
      }

      .cls-3, .cls-4 {
        stroke-linejoin: round;
      }
    </style>
  </defs>
  <circle class="cls-3" cx="2.98" cy="14.87" r="1.44"/>
  <circle class="cls-3" cx="4.42" cy="21.3" r=".79"/>
  <g>
    <circle class="cls-3" cx="6.79" cy="28.65" r=".79"/>
    <circle class="cls-3" cx="8.76" cy="17.49" r=".39"/>
    <circle class="cls-3" cx="15.94" cy="13.85" r=".39"/>
    <circle class="cls-3" cx="12.04" cy="22.09" r=".79"/>
    <circle class="cls-3" cx="8.15" cy="10.09" r=".05"/>
    <path class="cls-3" d="m16.76,25.76l-6.96,6.87-6.96-.31s-1.84.5,0,1.56c0,0-.26,4.74,4.2,4.74,0,0,4.46,1.31,5.25-4.46,0,0,1.57-.52,0-1.57l5.73-5.77-1.27-1.05Z"/>
    <polygon class="cls-3" points="1.01 38.62 .75 44.4 4.69 44.66 4.69 67.83 7.71 67.83 7.84 64.08 22.27 64.35 22.27 68.3 25.51 68.3 25.73 45.4 28.05 45.19 28.05 39.67 1.01 38.62"/>
    <polygon class="cls-1" points="8.62 44.92 8.36 59.88 22.54 60.41 22.54 45.26 8.62 44.92"/>
    <path class="cls-4" d="m20.44,33.64s-3.74-.14-4.5,1.5v3.48l8.7.52s1.05-1.31.52-2.89c0,0-3.41-2.62-4.72-2.62Z"/>
    <path class="cls-4" d="m38.29,55.95v7.85c-1.05.71-2.1,1.42-3.15,2.13l-.52,2.1h8.34l.32-13.12h1.2l-.79-28.09s-.53-4.2-3.75-4.72c0,0-6.11-1.05-7.43,7.61,0,0-.26,2.36-3.67,1.84,0,0-6.87-1.18-6.98.72l-.49,1.62s6.95,4.74,10.36,4.22c0,0,5.77-3.67,8.14-6.82"/>
    <path class="cls-4" d="m32.92,37.3s-1.46,16.55-.41,17.34l1.84.52v8.18l-5.51,2.84-.79,1.72,6.56.12"/>
    <path class="cls-4" d="m35.5,23.43c-1.79-.47-3.88-.9-6.24-1.16-2.73-.3-5.18-.3-7.25-.18-2.21-.02-3.64.96-3.67,1.84-.03.79,1.09,1.45,1.31,1.57,4.35,1.05,8.7,2.1,13.06,3.15"/>
    <path class="cls-2" d="m41.7,12.64l.52,6.82s-11.29,1.84-7.09-7.09l7.61.26.52-3.94"/>
    <path class="cls-2" d="m43.13,9.75c2.3.7,4.65-.39,5.44-2.21.94-2.16-.39-5.16-3.2-5.93-1.17-.29-2.46-.54-3.87-.69-4.13-.45-7.68.05-10.3.69-1.7.91-2.51,2.92-1.91,4.73.62,1.87,2.57,3.01,4.54,2.62.09,1.14.17,2.27.26,3.41h1.05"/>
  </g>
</svg>