<?xml version="1.0" encoding="utf-8"?>
<!-- Generator: Adobe Illustrator 27.1.1, SVG Export Plug-In . SVG Version: 6.00 Build 0)  -->
<svg version="1.1" id="Layer_1" xmlns="http://www.w3.org/2000/svg" xmlns:xlink="http://www.w3.org/1999/xlink" x="0px" y="0px"
	 viewBox="0 0 100 100" style="enable-background:new 0 0 100 100;" xml:space="preserve">
<style type="text/css">
	.st0{fill:#FFFFFF;stroke:#000000;stroke-miterlimit:10;}
	.st1{stroke:#000000;stroke-miterlimit:10;}
</style>
<polyline class="st0" points="12.17,46.35 21.91,46.35 21.91,50.61 31.64,50.61 31.64,54.99 41.6,54.99 41.6,59.25 51.34,59.25 
	51.34,63.64 61.3,63.64 61.3,67.9 71.03,67.9 71.03,72.28 80.99,72.28 80.99,76.54 90.73,76.54 90.73,80.93 "/>
<path class="st1" d="M37.61,21c0.73,0.63,1.22,0.69,1.53,0.63c0.41-0.09,0.48-0.38,1-0.48c0.54-0.1,0.69,0.17,1.19,0.05
	c0.25-0.06,0.23-0.14,0.85-0.54c0.69-0.44,0.81-0.41,0.92-0.61c0.22-0.39-0.17-0.63-0.1-1.21c0.09-0.71,0.71-0.73,0.78-1.34
	c0.08-0.74-0.83-0.95-0.81-1.83c0.02-0.6,0.45-0.82,0.27-1.23c-0.16-0.39-0.57-0.3-0.94-0.67c-0.73-0.74,0.04-1.95-0.55-2.32
	c-0.39-0.24-0.81,0.23-1.41-0.03c-0.62-0.27-0.58-0.94-1.04-1c-0.45-0.05-0.63,0.57-1.14,0.56c-0.62-0.01-0.76-0.94-1.41-0.97
	c-0.64,0.13-0.63,1.07-1.24,1.17c-0.5,0.09-0.78-0.5-1.22-0.38c-0.45,0.13-0.3,0.79-0.87,1.14c-0.55,0.35-1.04-0.06-1.39,0.24
	c-0.53,0.45,0.42,1.53-0.18,2.37c-0.31,0.42-0.73,0.4-0.83,0.8c-0.11,0.44,0.35,0.59,0.46,1.18c0.16,0.86-0.72,1.2-0.51,1.93
	c0.16,0.59,0.79,0.52,0.98,1.21c0.16,0.56-0.18,0.86,0.1,1.21c0.14,0.18,0.25,0.13,1,0.46c0.68,0.3,0.67,0.38,0.92,0.4
	c0.51,0.05,0.62-0.24,1.17-0.22c0.53,0.02,0.64,0.3,1.06,0.32C36.51,21.87,36.98,21.73,37.61,21"/>
<path class="st0" d="M37.46,12.62L37.46,12.62c0.02,0.24-0.13,0.46-0.36,0.55l-0.66,0.25c-0.23,0.09-0.38,0.31-0.36,0.55v0
	c0.04,0.49-0.34,0.91-0.84,0.95l-0.43,0.03c-0.59,0.04-0.98,0.62-0.8,1.17l0.82,2.39c0.08,0.24,0.27,0.44,0.52,0.54l1.81,0.72
	c0.26,0.1,0.54,0.09,0.78-0.04l1.85-0.99c0.26-0.14,0.43-0.39,0.46-0.67l0.47-3.67c0.05-0.36-0.14-0.72-0.47-0.89l-1.02-0.53
	c-0.09-0.04-0.16-0.1-0.23-0.17l-0.58-0.6C38.07,11.83,37.43,12.11,37.46,12.62z"/>
<polyline class="st0" points="34.71,38.07 29.42,40.06 28.04,48.94 24.96,48.94 24.96,50.4 31.22,50.4 32.65,43.41 40.41,40.2 "/>
<polygon class="st0" points="41.65,40.51 45.93,57.72 43.11,57.72 43.11,59 49.62,59 47.77,40.73 "/>
<path class="st0" d="M36.5,20.8l2.03-0.64c0.85-0.27,1.74,0.21,2.09,1.11l7.66,19.52c0.55,1.4-15.12-1.12-14.99-2.23l1.94-16.11
	C35.33,21.67,35.83,21.02,36.5,20.8z"/>
<path class="st0" d="M65.16,35.23l3.22,3.03c0.2,0.19,0.47,0.27,0.74,0.22l1.85-0.34c0.18-0.03,0.35-0.13,0.48-0.26l1.12-1.22
	c0.13-0.14,0.2-0.31,0.22-0.5l0.34-3.72c0.02-0.2-0.03-0.39-0.14-0.56L71.02,29c-0.19-0.28-0.53-0.42-0.86-0.36l-2.71,0.49
	c-0.07,0.01-0.14,0.03-0.21,0.06l-3.32,1.53c-0.15,0.07-0.28,0.18-0.36,0.32l-0.87,1.38c-0.15,0.23-0.17,0.52-0.07,0.77l0.55,1.38
	c0.17,0.44,0.67,0.65,1.11,0.48l0,0C64.57,34.93,64.92,35,65.16,35.23z"/>
<polyline class="st0" points="72.92,34.75 71.36,34.83 68.87,32.78 64.77,34.86 "/>
<g>
	<path class="st0" d="M82.87,57.5l0.51,1.45l-12.39-5.04l0.57-1.76c0.09-0.29,0.12-0.6,0.06-0.9l-0.29-1.62l-2.11,1.34
		c-1.71,1.53-6.38,2.05-6.38,2.05l-0.29-2.62l3.54-1.3c0.76,0,1.91-2.12,1.99-2.87l0.53-4.81c0.07-0.62,0.44-1.17,1-1.47l4.07-2.17
		c0.6-0.32,1.34-0.21,1.82,0.27l7.35,7.39c0.29,0.29,0.47,0.68,0.5,1.08l0.24,8.09l-2.31-0.97l-0.9-5.75
		c-0.05-0.33-0.2-0.63-0.43-0.87l-4.48-4.7"/>
</g>
<polygon class="st1" points="71.49,53.82 65.89,56 68.69,66.26 66.36,66.26 66.36,67.76 71.49,67.76 71.08,59.53 76.68,57.43 
	83.36,74.64 81.51,74.69 81.58,76.49 86.57,76.56 83.24,57.13 "/>
<polygon class="st1" points="70.69,42.72 71.27,43.99 72.3,43.99 72.3,42.35 "/>
<polygon class="st1" points="72.24,51.85 71.21,49.77 71.21,43.99 72.24,43.99 73.38,49.77 "/>
<polygon class="st0" points="12.17,46.34 12.17,26.39 90.73,61.18 90.73,59.31 10.55,23.81 10.55,46.39 "/>
<path class="st0" d="M81.39,53.82l-1.43,1.39c-0.13,0.16-0.28,0.69-0.28,0.89v0.71c0,0.35,0.46,0.58,0.77,0.75l0.52,0.29
	c0.42,0.24,0.96,0.09,1.2-0.33l1.41-2.9"/>
<line class="st0" x1="83.35" y1="54.52" x2="81.39" y2="53.82"/>
<polygon class="st0" points="54.28,52.2 59.48,51.15 59.5,51.71 54.33,52.8 "/>
<path class="st0" d="M62.35,50.64l-1.15-0.12l-0.47-0.16c-0.44-0.15-0.93-0.09-1.31,0.18l0,0c-0.37,0.26-0.53,0.73-0.38,1.15
	l0.25,0.73c0.1,0.28,0.32,0.51,0.6,0.62l0.76,0.3c0.27,0.11,0.57,0.13,0.86,0.08l1.26-0.51L62.35,50.64z"/>
<line class="st0" x1="53.81" y1="49.63" x2="54.13" y2="50.8"/>
<line class="st0" x1="55.38" y1="49.62" x2="55.1" y2="50.81"/>
<line class="st0" x1="52.38" y1="50.59" x2="53.33" y2="51.35"/>
<line class="st0" x1="45.51" y1="12.38" x2="44.33" y2="12.71"/>
<line class="st0" x1="45.52" y1="13.95" x2="44.34" y2="13.68"/>
<line class="st0" x1="44.53" y1="10.96" x2="43.78" y2="11.92"/>
<polyline class="st0" points="72.44,38.75 74,38.06 73.42,40.35 71.19,43.12 69.72,41.81 69.18,40.62 74.35,37.9 "/>
<polygon class="st0" points="72.63,38.99 71.29,42.52 70.36,40.34 "/>
<path class="st0" d="M36.83,29.42c0.27-0.24,0.32-0.37,0.49-0.79l0.45-5.58l0.21-0.22c0.75-0.79,2.2-0.83,2.76,0.23l0.05-0.35
	l-0.85,7.65c-0.07,0.45-0.73,1.18-1.18,1.3l-4.33,1.73l-1.5,1.61c-0.34,0.23-1.23,0.29-1.6,0.11l-0.58-0.35
	c-0.3-0.14-0.41-0.43-0.49-0.76l-0.02-0.08c-0.1-0.41,0.08-0.83,0.45-1.04l3.13-1.52L36.83,29.42z"/>
</svg>
