<?xml version="1.0" encoding="utf-8"?>
<!-- Generator: Adobe Illustrator 27.5.0, SVG Export Plug-In . SVG Version: 6.00 Build 0)  -->
<svg version="1.1" id="Capa_1" xmlns="http://www.w3.org/2000/svg" xmlns:xlink="http://www.w3.org/1999/xlink" x="0px" y="0px"
	 viewBox="0 0 100 100" style="enable-background:new 0 0 100 100;" xml:space="preserve">
<style type="text/css">
	.st0{fill:#020203;stroke:#030304;stroke-width:0.7644;stroke-linecap:round;stroke-linejoin:round;stroke-miterlimit:10;}
	.st1{fill:none;stroke:#030304;stroke-width:1.8173;stroke-linecap:round;stroke-linejoin:round;stroke-miterlimit:10;}
	.st2{fill:none;stroke:#030304;stroke-width:1.4548;stroke-linecap:round;stroke-linejoin:round;stroke-miterlimit:10;}
	.st3{fill:#FFFFFF;stroke:#030304;stroke-width:1.8173;stroke-linecap:round;stroke-linejoin:round;stroke-miterlimit:10;}
</style>
<g>
	<path class="st0" d="M25.64,25.14c-2.38,0.06-3.64,0.24-4.89-0.72c-0.72-0.54-1.07-1.19-1.31-1.67c0.6-0.42,1.49-1.13,2.09-2.21
		c1.31-2.56-0.36-4.53,0.83-7.39c0.89-2.21,2.8-3.28,3.1-3.46c2.98-1.55,6.14-0.24,6.62,0c0.66,0.3,2.56,1.19,3.82,3.34
		c2.09,3.52,0.78,7.21,0.54,7.75c0,0.18,0,0.89,0.48,1.55c0.6,0.66,1.25,0.83,1.43,0.83c-0.24,0.36-0.66,0.89-1.25,1.25
		c-0.89,0.6-1.85,0.66-2.33,0.72c-2.21,0.18-4.05,0.12-5.9,0.06"/>
	<path class="st1" d="M68.98,12.15c0,0-4.89,2.03-3.04,10.31c0,0,1.25,5.07,6.02,4.65c4.77-0.42,6.32-2.92,6.44-6.92
		C78.4,20.14,78.46,7.56,68.98,12.15z"/>
	<g>
		<path class="st1" d="M64.15,58.77c-1.79,1.91-4.59,2.62-6.02,3.88c-1.07,0.83-1.07,3.28-1.07,3.28l0.06,13.36L41.8,79.1
			c0,0,1.13-14.67-0.95-16.28c-1.31-1.01-5.78-2.09-7.93-3.99c-0.72-0.66-1.19-1.37-1.31-2.09c-0.36-2.86-1.01-11.51-1.01-11.51"/>
		<line class="st1" x1="68.39" y1="87.93" x2="67.19" y2="50.54"/>
		<polyline class="st1" points="68.39,87.93 63.74,89.78 63.74,93.65 72.86,93.47 76.26,70.94 78.05,69.68 80.79,76.6 81.09,93.65 
			90.39,93.47 90.39,90.25 86.15,87.93 		"/>
		<path class="st1" d="M31.6,56.74l1.37,18.07l-20.09-0.66l2.09-30.41c0.12-1.91-0.3-3.88-1.31-5.54C10.91,33.79,5.54,23,6.02,8.99
			l6.32,0.12c0,0,2.03,21.82,9.48,22.72c7.45,0.89,14.67-0.24,14.55,11.87c0,0-1.55,11.51,7.39,12.82c0,0,6.74,1.97,10.55,0.42
			c3.76-1.55,6.26-4.11,6.86-10.73c0.6-6.62-0.42-14.49,6.14-14.85c6.56-0.3,13.71,2.44,15.14-2.86c0,0,4.59-9.42,4.83-19.32
			l5.54,0.12c0,0-0.78,13.65-3.99,22.66c-1.07,3.04-1.85,6.2-1.91,9.48l-0.72,46.51"/>
		<path class="st2" d="M49.96,42.26c0,0-4.23,0.18-5.13,6.92c0,0-0.48,4.11,3.22,5.13c3.7,1.01,5.54-0.42,6.74-3.4
			C54.79,50.84,58.31,41.42,49.96,42.26z"/>
		<path class="st1" d="M68.39,44.16c0,0-1.73,12.4-4.23,14.61"/>
		<polyline class="st1" points="14.61,74.21 13.53,89.36 10.08,92.1 9.66,94.13 18.42,94.13 18.84,89.36 21.52,74.45 		"/>
		<polyline class="st1" points="30.76,74.75 31.78,89.36 35.24,92.1 35.65,94.13 26.89,94.13 26.47,89.36 23.91,74.93 		"/>
		<polyline class="st1" points="43.88,79.82 43.17,90.19 40.78,92.1 40.48,93.47 46.51,93.47 46.8,90.19 48.59,80 		"/>
		<polyline class="st1" points="54.91,79.82 55.63,90.19 58.01,92.1 58.31,93.47 52.29,93.47 51.99,90.19 50.2,80 		"/>
	</g>
	<path class="st3" d="M28.62,13.52c0,0-5.31,0.18-6.44,8.65c0,0-0.6,5.19,4.05,6.44c4.59,1.19,6.92-0.6,8.41-4.29
		C34.64,24.31,39.05,12.5,28.62,13.52z"/>
</g>
</svg>
