<?xml version="1.0" encoding="utf-8"?>
<!-- Generator: Adobe Illustrator 27.5.0, SVG Export Plug-In . SVG Version: 6.00 Build 0)  -->
<svg version="1.1" id="Capa_1" xmlns="http://www.w3.org/2000/svg" xmlns:xlink="http://www.w3.org/1999/xlink" x="0px" y="0px"
	 viewBox="0 0 100 100" style="enable-background:new 0 0 100 100;" xml:space="preserve">
<style type="text/css">
	.st0{fill:none;stroke:#020203;stroke-width:1.5584;stroke-linecap:round;stroke-linejoin:round;stroke-miterlimit:10;}
	.st1{fill:#FFFFFF;stroke:#020203;stroke-width:1.5584;stroke-linecap:round;stroke-linejoin:round;stroke-miterlimit:10;}
	.st2{fill:#020203;stroke:#020203;stroke-width:1.5584;stroke-linecap:round;stroke-linejoin:round;stroke-miterlimit:10;}
</style>
<g>
	<path class="st0" d="M26.2,18l15.65-1.18c2.31-0.12,4.61,0.81,6.17,2.56l0,0c2.06,2.37,3.12,5.42,2.99,8.6l-0.31,6.05
		c-0.19,3.55-1.93,6.79-4.8,8.85l0,0c-1.75,1.31-3.86,1.99-6.05,1.99c-4.92,0-13.46,0.06-13.65,0V18z"/>
	<polyline class="st1" points="54.75,65.5 53.63,83.7 16.04,83.7 	"/>
	<path class="st1" d="M45.34,62.82v7.54l-6.55,13.4h-9.48l4.49-20.88c0,0,3.12-9.79,9.91-9.6c3.24,0.06,34.72,0.06,37.9,0
		c6.79-0.19,9.91,9.6,9.91,9.6l2.43,20.88H83.49l-3.86-17.39l-2.06,2.18l2.06,15.21H47.4"/>
	<path class="st1" d="M76.69,46.8l-2.12,1.99c-1.75,1.31-3.86,1.99-6.05,1.99c-4.92,0-13.46,0.06-13.65,0.06V24.05l15.65-1.31
		c2.37-0.19,4.61,0.75,6.17,2.56l0,0c1.25,1.43,1.75,5.98,2.18,7.79"/>
	<path class="st0" d="M21.34,60.51l-0.25,6.98L15.98,83.7H4.26l4.49-27.68c0.37-1.06,1.75-4.92,5.86-7.42
		c3.3-1.99,6.55-1.93,7.79-1.87c10.85,0,21.69,0,32.48,0"/>
	<line class="st0" x1="49.27" y1="39.07" x2="54.75" y2="37.14"/>
	<path class="st0" d="M79.31,33.21l9.1,1.31c0.37,0.31,2.74,2.18,2.81,5.24c0.06,3.12-2.24,6.05-5.74,7.04H63.48l-8.66-1.81v-3.68
		c0.06-2.68,2.18-4.86,4.86-4.92l5.98-0.19c0,0,2.99,1.43,3.74,4.11c0.81,2.87-2.74,4.61-5.98,6.55"/>
	<line class="st0" x1="65.72" y1="36.2" x2="79.31" y2="33.21"/>
	<path class="st2" d="M45.84,17.69c-1.12,2.81-3.18,6.98-7.11,11.16c-4.68,4.99-9.72,7.48-12.72,8.66c0-6.48,0-12.97,0-19.45
		C26.08,18,43.9,15.82,45.84,17.69z"/>
	<circle class="st2" cx="18.84" cy="25.67" r="7.23"/>
</g>
</svg>
