<?xml version="1.0" encoding="utf-8"?>
<!-- Generator: Adobe Illustrator 27.5.0, SVG Export Plug-In . SVG Version: 6.00 Build 0)  -->
<svg version="1.1" id="Capa_1" xmlns="http://www.w3.org/2000/svg" xmlns:xlink="http://www.w3.org/1999/xlink" x="0px" y="0px"
	 viewBox="0 0 100 100" style="enable-background:new 0 0 100 100;" xml:space="preserve">
<style type="text/css">
	.st0{fill:none;stroke:#020203;stroke-width:1.6793;stroke-linecap:round;stroke-linejoin:round;stroke-miterlimit:10;}
	.st1{fill:#FFFFFF;stroke:#030304;stroke-width:1.8913;stroke-linecap:round;stroke-linejoin:round;stroke-miterlimit:10;}
	.st2{fill:none;stroke:#030304;stroke-width:1.8913;stroke-linecap:round;stroke-linejoin:round;stroke-miterlimit:10;}
	.st3{fill:none;stroke:#030304;stroke-width:1.9835;stroke-linecap:round;stroke-linejoin:round;stroke-miterlimit:10;}
	.st4{fill:#020203;stroke:#020203;stroke-width:1.6793;stroke-linecap:round;stroke-linejoin:round;stroke-miterlimit:10;}
	.st5{fill:#020203;stroke:#020203;stroke-width:1.217;stroke-linecap:round;stroke-linejoin:round;stroke-miterlimit:10;}
</style>
<g>
	<path class="st0" d="M67.4,6.45l-9.16-1.82c-1.38-0.31-2.82,0.13-3.89,1.07l0,0c-1.38,1.25-2.26,3.01-2.38,4.83l-0.25,3.64
		c-0.13,2.13,0.63,4.14,2.2,5.58l0,0c0.94,0.94,2.13,1.51,3.45,1.63c2.89,0.38,7.97,1,8.09,1L67.4,6.45z"/>
	<path class="st1" d="M44.5,3.63c0,0-6.4,0.38-7.46,10.6c0,0-0.5,6.27,5.08,7.65s8.34-0.88,10.04-5.46
		C52.16,16.43,57.11,2.06,44.5,3.63z"/>
	<path class="st2" d="M31.33,38.76C31.14,44.28,28,60.28,27.75,65.8c0,0-5.39,6.15-5.39-6.9c0,0,2.32-17.82,3.01-27.98l0,0
		c1.63-4.77,5.21-8.15,9.22-8.47c1.94-0.19,3.64,0.38,4.77,0.94c3.7,2.13,6.59,2.45,8.59,2.32c3.45-0.19,5.9-1.69,11.29-1.57
		c2.32,0.06,2.89,0.5,3.45,0.63c4.77,1.44,2.82,8.47,2.82,8.47s-4.2,15.56-11.42,16c-7.21,0.44-11.73,0.25-11.73,0.25
		s-1.88-3.26-0.63-4.89c0.38-0.44,0.82-0.63,1.07-0.69c3.01-1.07,12.67-3.32,13.55-3.51"/>
	<path class="st2" d="M52.72,57.64l-1.94,18.07l18.51-0.5c0.94-7.59,1.38-8.09,0.44-18.32c-0.44-5.14-1.19-9.91-2.07-14.24
		c-0.69-2.57-1.38-5.21-2.07-7.78l0.5-5.65c0,0,3.2-1,3.58,0.38c0.38,1.38,1.82,3.39,0.38,4.58c-1.44,1.19-3.95,2.57-3.95,2.57"/>
	<polyline class="st2" points="27.94,63.91 27.63,88.25 22.74,90.57 22.74,95.72 31.64,95.72 38.61,69.75 41.18,66.24 41.93,77.97 
		42.68,95.72 52.78,95.91 52.78,92.33 47.95,88.82 51.53,67.24 	"/>
	<line class="st2" x1="52.78" y1="49.86" x2="52.72" y2="57.64"/>
	<line class="st2" x1="53.16" y1="36" x2="53.1" y2="41.02"/>
	<polyline class="st3" points="69.03,75.27 70.16,91.2 73.92,94.21 74.36,96.47 64.83,96.47 64.33,91.2 61.57,75.46 	"/>
	<path class="st4" d="M53.54,6.58c4.2,2.76,8.72,5.21,12.86,8.03l1-8.09c-3.07-0.63-6.15-1.25-9.16-1.82
		c-0.44-0.13-1.44-0.25-2.51,0.19C54.73,5.26,53.79,6.2,53.54,6.58z"/>
	<path class="st5" d="M75.3,11.35c0.82,2.07-1.94,3.95-4.33,3.95s-4.33-1.57-4.33-3.95s1.94-4.33,4.33-4.33S74.36,9.15,75.3,11.35z"
		/>
	<polyline class="st2" points="57.3,75.77 56.92,95.91 52.78,95.91 	"/>
	<line class="st2" x1="49.46" y1="89.63" x2="50.71" y2="75.77"/>
</g>
</svg>
