<?xml version="1.0" encoding="utf-8"?>
<!-- Generator: Adobe Illustrator 27.5.0, SVG Export Plug-In . SVG Version: 6.00 Build 0)  -->
<svg version="1.1" id="Capa_1" xmlns="http://www.w3.org/2000/svg" xmlns:xlink="http://www.w3.org/1999/xlink" x="0px" y="0px"
	 viewBox="0 0 100 100" style="enable-background:new 0 0 100 100;" xml:space="preserve">
<style type="text/css">
	.st0{fill:none;stroke:#020203;stroke-width:1.7003;stroke-miterlimit:10;}
	.st1{fill:none;stroke:#020203;stroke-width:1.7003;stroke-linecap:round;stroke-linejoin:round;stroke-miterlimit:10;}
	.st2{fill:none;stroke:#020203;stroke-width:1.9435;stroke-miterlimit:10;}
</style>
<g>
	<path class="st0" d="M36.63,61.89L19.43,89.59c0,0-1.56,1.22-0.81,2.71c0.75,1.42,2.98,5.42,2.98,5.42l11.11-0.41l-0.14-3.66
		l-4.06-1.42c0,0-2.71-1.35-1.63-2.37l20.12-17l0.75-0.75"/>
	<g>
		<path class="st0" d="M45.51,40.28c0,0,3.12,0.14,6.77,0.27c3.73,0.14,7.99,0.2,9.82,0.2c3.66,0,4.34-3.12,4.34-3.12l5.83-13.41
			l5.55-3.18l-1.22-5.08l-9.82,3.05l-5.35,10.16c-1.9-2.57-12.26-4.47-12.26-4.47c-10.64-1.96-15.99,2.91-15.99,2.91
			c-5.22,4.47,1.02,27.71,1.02,27.71s4.88,15.44,14.5,17.21l1.02,25.2l14.23-0.34l-0.14-3.45l-6.23-2.71l1.9-20.53
			c0,0,0.34-2.17-0.81-3.45c-1.15-1.22-6.03-7.18-6.03-7.18s-1.02-4.27-0.75-8.6c0.27-4.34,0.14-10.3,0.14-10.3"/>
		<path class="st1" d="M68.95,18.33c-0.95,0.95-2.37,1.29-3.59,0.75c-1.15-0.47-1.9-1.56-2.03-2.78c1.96-0.75,3.93-1.49,5.89-2.24
			c0,0,1.63-0.61,3.52-1.22c0,0,4.13-1.22,4.81-0.07l2.91,7.45c0,0,1.02,1.96-0.41,4.06c-1.42,2.1-2.37,3.05-2.37,3.05
			s0.41,1.08-0.54,1.63l0.81,2.98l-4.67,2.17l-0.68-1.76l1.49-1.76c0,0,0.34-0.27,0.47-0.68c0.14-0.47,0-0.95-0.07-1.22
			c-0.27-0.81-0.81-2.37-1.56-4.34"/>
		<path class="st2" d="M31.08,6.75L41.65,3.9c1.56-0.41,3.25-0.07,4.61,0.95l0,0c1.76,1.35,2.85,3.32,3.18,5.49l0.61,4.2
			c0.34,2.44-0.41,4.88-2.1,6.71l0,0c-1.15,1.08-2.51,1.83-4,2.1c-3.39,0.68-9.21,1.83-9.35,1.76L31.08,6.75z"/>
		<path class="st0" d="M76.13,2.14L70.5,2c-0.81,0-1.63,0.34-2.17,1.02l0,0c-0.68,0.88-1.02,2.03-0.88,3.12l0.27,2.24
			c0.14,1.29,0.81,2.37,1.9,3.05l0,0c0.68,0.41,1.42,0.61,2.24,0.61c1.76-0.07,4.81-0.27,4.88-0.27L76.13,2.14z"/>
	</g>
</g>
</svg>
