<?xml version="1.0" encoding="utf-8"?>
<!-- Generator: Adobe Illustrator 27.5.0, SVG Export Plug-In . SVG Version: 6.00 Build 0)  -->
<svg version="1.1" id="Capa_1" xmlns="http://www.w3.org/2000/svg" xmlns:xlink="http://www.w3.org/1999/xlink" x="0px" y="0px"
	 viewBox="0 0 100 100" style="enable-background:new 0 0 100 100;" xml:space="preserve">
<style type="text/css">
	.st0{fill:none;stroke:#020203;stroke-width:1.3687;stroke-linecap:round;stroke-linejoin:round;stroke-miterlimit:10;}
	.st1{fill:none;stroke:#020203;stroke-width:1.3687;stroke-miterlimit:10;}
</style>
<g>
	<path class="st0" d="M32.02,49.14l1.07-15.53l4.48-4.9c1.73-1.85,3.17-3.88,4.42-6.09l0,0v-9.67c0-1.55-0.54-2.99-1.49-4.18
		l-1.43-1.91h-3.34l-1.13,4.6l3.11,1.31l-1.67,8.72l-8.24,4.6h-6.87c-2.69,0-5.31,0.42-7.88,1.19l0,0
		c-1.37,0.48-2.63,1.37-3.46,2.63l0,0c-0.84,1.13-1.25,2.51-1.25,3.94v4.24c0,1.61,0.42,3.17,1.19,4.54l0,0
		c0.84,1.49,2.03,2.69,3.46,3.58l7.7,4.48l2.93-0.72l0.9-2.75l-9.91-6.63v-6.57"/>
	<path class="st1" d="M17.51,9.37l7.7-0.6c1.13-0.06,2.21,0.36,2.99,1.25l0,0c1.02,1.19,1.55,2.69,1.49,4.24l-0.12,2.99
		c-0.12,1.73-1.02,3.34-2.39,4.36l0,0c-0.9,0.66-1.91,0.96-2.99,0.96c-2.39,0-6.63,0.06-6.69,0C17.51,22.57,17.51,9.37,17.51,9.37z"
		/>
	<g>
		<g>
			<path class="st1" d="M87.2,46.99l-4.96-0.36c-0.72-0.06-1.49,0.24-1.97,0.78l0,0c-0.66,0.78-1.02,1.73-0.96,2.69l0.12,1.91
				c0.06,1.13,0.6,2.15,1.49,2.81l0,0c0.54,0.42,1.25,0.6,1.91,0.66c1.55,0,4.24,0,4.3,0L87.2,46.99z"/>
			<path class="st0" d="M82.73,91.01l4.72,0.12V77.75l-2.99,2.45c-0.36,0.3-0.66,0.6-0.9,0.96l0,0c-0.48,0.72-0.72,1.55-0.78,2.39
				L82.73,91.01h-7.11l-0.96-1.85l2.81-2.39l0.12-7.05c0-1.02,0.24-2.09,0.66-2.99l0,0c0.42-0.96-0.6-4.3-0.6-5.37
				c0.06-3.11,1.49-10.15,2.39-13.44l4.42-0.06c0.9,0,1.79,0.36,2.51,0.96l0,0c0.6,0.54,1.07,1.25,1.19,2.09l1.79,8.54l-3.34,4.3
				c-1.07,1.37-2.63,2.39-4.3,2.81l0,0l-1.67-1.19l0.18-2.27l3.34-3.34l0.18-4.3"/>
		</g>
		<line class="st0" x1="89.89" y1="69.63" x2="87.44" y2="77.75"/>
	</g>
	<path class="st0" d="M55.91,65.39l5.49,1.49c1.79,0.48,3.64,0.36,5.31-0.42l0,0l7.46-3.17l4.42-1.97l1.43-3.46L74.19,59l-6.63,1.73
		c-0.96,0.24-1.91,0.3-2.87,0.24l0,0c-0.54-0.06-1.13-0.18-1.61-0.36l-5.79-1.73c-0.9-0.3-1.85-0.36-2.81-0.24l0,0
		c-1.67,0.24-3.17,1.13-4.12,2.45l0,0c-2.27,3.05-3.82,6.57-4.42,10.27v0.06c-0.6,3.05-0.6,6.15-0.12,9.14l0,0l0,0
		c1.91,1.67,4.24,2.81,6.75,3.22l6.03,0.96"/>
	<path class="st0" d="M55.55,75.72l1.19,0.48c2.99,1.13,5.67,2.81,8.06,4.96l0.78,0.72l0.84,1.55c0.66,1.25,0.78,2.75,0.24,4l0,0
		c-0.42,0.96-1.13,1.73-2.03,2.27l0,0c-2.21,1.19-4.78,1.67-7.23,1.25l-3.64-0.6c-1.91-0.36-3.82-0.78-5.73-1.31l0,0l-1.85,2.21
		l-2.21-0.42l3.17-8.78"/>
	<line class="st0" x1="60.51" y1="66.88" x2="57.82" y2="76.55"/>
	<path class="st0" d="M60.75,47.05l5.43,1.85c0.84,0.3,1.49,0.96,1.73,1.73l0,0c0.36,1.07,0.3,2.27-0.24,3.34l-0.96,2.03
		c-0.54,1.19-1.61,2.03-2.93,2.33l0,0c-0.78,0.18-1.61,0.12-2.33-0.18c-1.61-0.72-4.54-1.91-4.54-1.97L60.75,47.05z"/>
	<polyline class="st0" points="76.39,17.37 65.77,28 51.25,30.45 52.45,37.08 43.91,42.34 48.45,56.97 36.74,53.5 35.19,65.09 
		22.41,65.09 30.59,79.18 17.51,72.91 8.02,82.41 	"/>
</g>
</svg>
