<?xml version="1.0" encoding="UTF-8" standalone="no"?>
<!-- Generator: Adobe Illustrator 27.1.1, SVG Export Plug-In . SVG Version: 6.00 Build 0)  -->

<svg
   version="1.1"
   id="Layer_1"
   x="0px"
   y="0px"
   viewBox="0 0 100 100"
   style="enable-background:new 0 0 100 100;"
   xml:space="preserve"
   sodipodi:docname="picto-10.svg"
   inkscape:version="1.1.1 (3bf5ae0d25, 2021-09-20)"
   xmlns:inkscape="http://www.inkscape.org/namespaces/inkscape"
   xmlns:sodipodi="http://sodipodi.sourceforge.net/DTD/sodipodi-0.dtd"
   xmlns="http://www.w3.org/2000/svg"
   xmlns:svg="http://www.w3.org/2000/svg"><defs
   id="defs9919"><clipPath
     clipPathUnits="userSpaceOnUse"
     id="clipPath1056"><path
       d="M 0,1080 H 1080 V 0 H 0 Z"
       id="path1054" /></clipPath><clipPath
     clipPathUnits="userSpaceOnUse"
     id="clipPath1056-0"><path
       d="M 0,1080 H 1080 V 0 H 0 Z"
       id="path1054-8" /></clipPath></defs><sodipodi:namedview
   id="namedview9917"
   pagecolor="#ffffff"
   bordercolor="#666666"
   borderopacity="1.0"
   inkscape:pageshadow="2"
   inkscape:pageopacity="0.0"
   inkscape:pagecheckerboard="0"
   showgrid="false"
   inkscape:zoom="3.595"
   inkscape:cx="58.970793"
   inkscape:cy="21.835883"
   inkscape:window-width="1920"
   inkscape:window-height="1001"
   inkscape:window-x="-9"
   inkscape:window-y="-9"
   inkscape:window-maximized="1"
   inkscape:current-layer="Layer_1" />
<style
   type="text/css"
   id="style9884">
	.st0{stroke:#000000;stroke-width:3;stroke-miterlimit:10;}
	.st1{fill:none;stroke:#000000;stroke-width:3;stroke-miterlimit:10;}
	.st2{fill:#FFFFFF;stroke:#000000;stroke-width:3;stroke-miterlimit:10;}
</style>
<polygon
   class="st0"
   points="471.03,-761.66 -831.04,-761.66 -831.04,-781.22 485.01,-781.22 "
   id="polygon9886"
   transform="matrix(0.05181889,0,0,0.05181889,46.945545,69.233133)"
   style="stroke-width:19.29798187;stroke-miterlimit:10;stroke-dasharray:none" />
<path
   class="st1"
   d="m 17.070921,54.062116 c 0,0 -0.130067,5.354447 0,5.68194 0.273085,0.687637 4.328952,-5.297962 5.732726,-7.402327 0.309357,-0.463261 0.473621,-1.007877 0.473621,-1.56493 V 45.58092 c 0,-0.485544 0.267907,-0.927559 0.688158,-1.134316 l 0.851902,-0.419733 c 0.160122,-0.07876 0.344079,0.04353 0.344079,0.228521 v 1.341591 l 4.039797,-2.061874 c 0.298996,-0.152347 0.658619,-0.08084 0.882996,0.176186 v 0 c 0.166859,0.19121 0.181883,0.478288 0.03629,0.687117 -0.01812,0.02591 -0.03678,0.05285 -0.05649,0.08032 -0.328009,0.465853 -1.41776,1.084051 -1.858223,1.303245 -0.853457,0.424397 -0.85864,0.312469 -0.775731,0.205722"
   id="path9888"
   style="stroke-width:1;stroke-miterlimit:10;stroke-dasharray:none" />
<path
   class="st1"
   d="m 28.261209,47.389397 c 1.166962,-0.654472 2.540683,-1.417763 2.52099,-1.400664 0,0 0.265312,-0.258576 0.466888,-0.454968 0.09068,-0.0881 0.174111,-0.205723 0.225412,-0.360143 0.01554,-0.04664 0.02539,-0.09379 0.03005,-0.141466 0.05183,-0.502125 -0.442533,-0.888174 -0.92704,-0.747226 l -0.513527,0.149238"
   id="path9890"
   style="stroke-width:1;stroke-miterlimit:10;stroke-dasharray:none" />
<path
   class="st1"
   d="m 31.339769,45.445154 c 0,0 0.744637,0.116074 0.800086,0.50368 0.05544,0.387604 -0.245624,0.942066 -0.400043,0.997514 -0.0451,0.01606 -0.278782,0.126438 -0.594882,0.274639 -0.07098,0.03316 -0.146126,0.0684 -0.224377,0.104674 -0.766919,0.35807 -1.816248,0.839465 -1.994508,0.839465"
   id="path9892"
   style="stroke-width:1;stroke-miterlimit:10;stroke-dasharray:none" />
<path
   class="st1"
   d="m 30.998804,47.28887 c 0,0 0.488651,-0.01037 0.510413,0.432688 0.02123,0.443052 -0.510413,1.108406 -0.510413,1.108406 0,0 -2.404917,1.21878 -2.626701,1.274226 -0.221783,0.05544 -2.659343,6.427096 -2.659343,6.427096 0,0 -1.606906,4.654373 -2.382636,5.485548 -0.775731,0.831176 -5.873149,7.351028 -7.42461,7.313717 -1.264381,-0.03006 -4.155356,-2.160847 -5.319209,-3.878643 -1.1633323,-1.717796 -1.5514542,-7.42461 -1.5514542,-7.42461 0,0 -0.2772338,-4.765265 1.5514542,-8.920623 1.82869,-4.155356 5.20832,-3.66204 5.20832,-3.66204 0,0 1.457665,-0.659654 4.469894,0.559127 3.012235,1.218779 3.012749,1.773241 3.012749,1.773241"
   id="path9894"
   style="stroke-width:1;stroke-miterlimit:10;stroke-dasharray:none" />
<path
   class="st1"
   d="m 20.559886,37.471263 v 4.854394 c 0,0.373097 0.12333,0.736346 0.350816,1.032231 l 1.559748,2.027674 c 0.192763,0.250286 0.490724,0.397451 0.806818,0.397451 v 0"
   id="path9896"
   style="stroke-width:1;stroke-miterlimit:10;stroke-dasharray:none" />
<path
   class="st1"
   d="m 31.509736,44.895874 8.054729,-1.235882 1.87999,-0.703181 c 0.827026,-0.309359 1.431235,-1.030678 1.590321,-1.899163 l 2.070165,-11.292889"
   id="path9898"
   style="stroke-width:1;stroke-miterlimit:10;stroke-dasharray:none" />
<path
   class="st1"
   d="m 49.482599,29.764759 -2.341696,16.003743 c -0.0969,0.661728 -0.461705,1.254018 -1.008913,1.638515 l -10.181893,7.151524 c -0.480879,0.33786 -0.789201,0.87004 -0.84309,1.455594 l -0.69541,7.554675 1.076275,7.687332 c 0.057,0.40885 0.0049,0.824956 -0.15079,1.206862 l -0.882476,2.161365 c -0.293817,0.719247 -0.99389,1.189762 -1.77117,1.189762 H 13.606313 c -0.841542,0 -1.523476,-0.681937 -1.523476,-1.523475 v -7.324601"
   id="path9900"
   style="stroke-width:1;stroke-miterlimit:10;stroke-dasharray:none" />
<path
   class="st0"
   d="m 12.04708,37.368144 -1.017722,-0.888695 8.925805,-0.310395 c 0,0 -0.250288,-2.180019 0.820809,-3.270289 0.711993,-0.72443 2.915329,-1.328636 4.311852,-1.652505 0.75966,-0.176184 1.55353,-0.116073 2.280028,0.172038 l 2.559336,1.015652 c 0.618717,0.245622 1.099076,0.757591 1.311533,1.398073 0.202096,0.609391 0.36947,1.344182 0.201062,1.791896 -0.328015,0.872113 -1.543169,1.744225 -1.543169,1.744225"
   id="path9902"
   style="stroke-width:1;stroke-miterlimit:10;stroke-dasharray:none" />
<path
   class="st1"
   d="m 29.411072,43.455826 0.652915,-0.758628 c 0.186032,-0.216086 0.310396,-0.477769 0.361177,-0.75811 l 0.114004,-0.632191 c 0.04351,-0.242513 0.03733,-0.491243 -0.01867,-0.730646 l -0.753448,-3.23298"
   id="path9904"
   style="stroke-width:1;stroke-miterlimit:10;stroke-dasharray:none" />
<polygon
   class="st2"
   points="-456.75,-653.57 -456.75,-634.32 -347.74,-630.37 -347.74,-653.57 "
   id="polygon9906"
   transform="matrix(0.05181889,0,0,0.05181889,46.945545,69.233133)"
   style="stroke-width:19.29798187;stroke-miterlimit:10;stroke-dasharray:none" />
<path
   class="st1"
   d="m 75.634555,42.51324 c 0.09845,1.443674 0.196913,2.887348 0.295366,4.330506 0.02436,0.356514 0.146647,0.699037 0.353926,0.990259 l 2.316304,3.258372 c 0.39693,0.558607 1.04933,0.878329 1.733859,0.850347 l 7.712204,-0.316095 c 0,0 0.110895,0.250285 1.496014,-1.024459 1.385122,-1.274228 2.43808,-9.363674 2.43808,-9.363674 0,0 0.221783,-0.942066 -0.720286,-3.158361 -0.942064,-2.215776 -2.992539,-6.260239 -2.992539,-6.260239 0,0 -1.440566,1.551458 -2.770238,2.438078 -1.329672,0.886621 -1.639554,0.481916 -1.678414,1.708988 -0.03886,1.22707 0.736865,1.781531 -0.482433,3.443882 -0.689192,0.939994 -0.794383,1.560267 -0.869006,1.644732 -0.666391,0.758109 -1.698621,0.747228 -2.898746,0.848276 -1.143645,0.09638 -2.741739,0.319722 -4.709822,0.886621"
   id="path9908"
   style="stroke-width:1;stroke-miterlimit:10;stroke-dasharray:none" />
<path
   class="st1"
   d="m 66.501478,73.984924 1.884133,-7.709097 c 0.617683,-2.528242 1.626078,-4.944557 2.987879,-7.162405 l 1.615711,-2.630328 c 0.421805,-0.687118 1.059177,-1.215152 1.812625,-1.50171 l 2.662452,-1.013061 c 0.819775,-0.311949 1.725572,-0.311429 2.544826,0.0016 l 5.627015,2.149447 c 0.693335,0.264794 1.258683,0.785056 1.580995,1.453521 l 3.585866,7.442229 c 0.192249,0.399005 0.453934,0.7607 0.772102,1.068504 l 2.290399,2.211113 c 0.292778,0.282412 0.541506,0.607316 0.737899,0.963829 v 0 c 0.38346,0.69541 0.539438,1.493422 0.446162,2.282105 l -0.07151,0.60369 c -0.107266,0.902167 -0.676237,1.683595 -1.502234,2.061874 v 0"
   id="path9910"
   style="stroke-width:1;stroke-miterlimit:10;stroke-dasharray:none" />
<path
   class="st1"
   d="m 72.137814,73.984924 c 0,0 -0.215566,-0.831175 0.172556,-5.540993 0.388128,-4.709819 3.601413,-6.38927 3.601413,-6.38927 0,0 1.66235,-1.180951 3.823202,-0.27723 2.160847,0.903721 3.490519,4.449687 3.490519,4.449687 0,0 0.925485,4.931085 1.163332,7.480056"
   id="path9912"
   style="stroke-width:1;stroke-miterlimit:10;stroke-dasharray:none" />
<path
   class="st0"
   d="m 90.03969,31.11464 c 0.09949,-0.370505 0.154938,-0.933259 0.101563,-1.788269 -0.132651,-2.124573 -1.718312,-3.450101 -2.049955,-3.712306 -1.218783,-0.963312 -2.639137,-1.116696 -5.430102,-1.385118 -1.246762,-0.119701 -2.578509,-0.247695 -4.377143,-0.110894 -2.223029,0.169448 -4.791171,0.364806 -7.258271,1.883618 -3.335066,2.053065 -4.614991,5.3731 -4.82019,5.9286 -1.309985,3.543374 0.289663,4.740908 -0.831176,11.136914 -0.508863,2.904449 -1.108923,4.198366 -2.216297,4.986531 -1.298058,0.923931 -2.167064,0.351333 -3.767746,1.38512 -2.05877,1.329673 -2.73811,3.644941 -2.936578,4.321695 -0.608876,2.074828 -0.263243,3.852215 0,5.208315 0.612495,3.152143 1.724532,3.544414 1.385117,5.208318 -0.324906,1.592393 -1.412582,1.567521 -2.659344,3.989534 -0.69645,1.352475 -1.506377,2.925696 -1.052959,4.26625 1.045701,3.090997 8.518503,4.103021 10.250293,1.66235 0.486062,-0.685046 0.5726,-1.716241 0.609392,-2.160847 0.02693,-0.321277 0.06425,-1.091307 -0.553947,-3.435074 -0.54617,-2.070684 -0.777285,-2.233912 -0.664837,-2.825684 0.222824,-1.172661 1.357657,-1.736451 2.60442,-2.548972 2.088298,-1.360245 5.28293,-3.440773 5.984043,-6.150383 0.475701,-1.837497 -0.613014,-2.353614 -0.553941,-5.097424 0.0658,-3.074934 1.427606,-5.201579 1.773239,-5.762261 0.667945,-1.08405 3.778633,-3.718524 4.321698,-4.232567 0,0 4.716034,0.34667 5.317134,-0.478805 0.6011,-0.825476 0.981449,-1.653023 1.370612,-3.43352 0.388637,-1.779978 5.244592,-6.073172 5.454975,-6.855121 z"
   id="path9914"
   style="stroke-width:1;stroke-miterlimit:10;stroke-dasharray:none" />
<g
   id="g1000"
   transform="matrix(-0.0561766,0,0,-0.0561766,48.011193,43.959929)"
   style="fill:#ffffff;stroke-width:12.8442;stroke-miterlimit:4;stroke-dasharray:none"><path
     d="m 0,0 c 0,62.684 50.816,113.5 113.5,113.5 65.997,0 84.431,-42.553 129.89,-67 C 297.177,17.575 339,6 339,6 339,6 306.296,2.125 257.757,-27.75 209.217,-57.625 187.397,-114.078 113.5,-113.5 50.816,-113.5 0,-62.685 0,0 Z"
     style="fill:#ffffff;stroke:#000000;stroke-width:12.8442;stroke-linecap:butt;stroke-linejoin:miter;stroke-miterlimit:4;stroke-dasharray:none;stroke-opacity:1"
     id="path1002" /></g><g
   id="g1050"
   transform="matrix(-0.0561766,0,0,-0.0561766,70.388462,82.279518)"
   style="stroke-width:12.8442;stroke-miterlimit:4;stroke-dasharray:none"><g
     id="g1052"
     clip-path="url(#clipPath1056)"
     style="stroke-width:12.8442;stroke-miterlimit:4;stroke-dasharray:none"
     transform="rotate(-15,505.80327,675.07185)"><g
       id="g1070"
       transform="translate(456.7246,632.7607)"
       style="stroke-width:12.8442;stroke-miterlimit:4;stroke-dasharray:none"><path
         d="m 0,0 c 0,0 -7.271,60.417 9.537,67.521 10.535,4.451 31.28,1.144 31.28,1.144 0,0 -1.169,18.636 4.959,27.847 10.769,16.187 73.624,-5.722 73.624,-5.722 0,0 -6.552,-65.903 -34.713,-85.449 C 60.724,-11.291 0,0 0,0"
         style="fill:#000000;fill-opacity:1;fill-rule:nonzero;stroke:none;stroke-width:12.8442;stroke-miterlimit:4;stroke-dasharray:none"
         id="path1072" /></g><g
       id="g1074"
       transform="translate(456.7246,632.7607)"
       style="stroke-width:12.8442;stroke-miterlimit:4;stroke-dasharray:none"><path
         d="m 0,0 c 0,0 -7.271,60.417 9.537,67.521 10.535,4.451 31.28,1.144 31.28,1.144 0,0 -1.169,18.636 4.959,27.847 10.769,16.187 73.624,-5.722 73.624,-5.722 0,0 -6.552,-65.903 -34.713,-85.449 C 60.724,-11.291 0,0 0,0 Z"
         style="fill:none;stroke:#000000;stroke-width:12.8442;stroke-linecap:butt;stroke-linejoin:miter;stroke-miterlimit:4;stroke-dasharray:none;stroke-opacity:1"
         id="path1076" /></g><g
       id="g1078"
       transform="translate(492.7256,661.0571)"
       style="stroke-width:12.8442;stroke-miterlimit:4;stroke-dasharray:none"><path
         d="m 0,0 c 0,0 7.601,19.364 18.884,28.45 11.09,8.93 32.419,8.639 32.419,8.639 0,0 -12.69,-18.374 -21.444,-24.703 C 21.513,6.352 0,0 0,0"
         style="fill:#ffffff;fill-opacity:1;fill-rule:nonzero;stroke:none;stroke-width:12.8442;stroke-miterlimit:4;stroke-dasharray:none"
         id="path1080" /></g><g
       id="g1082"
       transform="translate(492.7256,661.0571)"
       style="stroke-width:12.8442;stroke-miterlimit:4;stroke-dasharray:none"><path
         d="m 0,0 c 0,0 7.601,19.364 18.884,28.45 11.09,8.93 32.419,8.639 32.419,8.639 0,0 -12.69,-18.374 -21.444,-24.703 C 21.513,6.352 0,0 0,0 Z"
         style="fill:none;stroke:#ffffff;stroke-width:12.8442;stroke-linecap:butt;stroke-linejoin:miter;stroke-miterlimit:4;stroke-dasharray:none;stroke-opacity:1"
         id="path1084" /></g><g
       id="g1086"
       transform="translate(809.4893,706.2056)"
       style="stroke-width:12.8442;stroke-miterlimit:4;stroke-dasharray:none"><path
         d="m 0,0 c -0.172,-1.909 -6.947,-7.649 -14.605,-6.96 -7.66,0.689 -13.301,7.546 -13.13,9.455 0.172,1.908 6.092,-1.855 13.751,-2.544 C -6.325,-0.738 0.172,1.909 0,0"
         style="fill:#ffffff;fill-opacity:1;fill-rule:nonzero;stroke:none;stroke-width:12.8442;stroke-miterlimit:4;stroke-dasharray:none"
         id="path1088" /></g></g></g><path
   style="fill:#000000;stroke:none;stroke-width:0.999999;stroke-linecap:butt;stroke-linejoin:miter;stroke-miterlimit:4;stroke-dasharray:none;stroke-opacity:1"
   d="m 80.088575,22.391643 h 0.66425 l 0.217581,-7.068589 h -1.156714 z"
   id="path22157-7"
   sodipodi:nodetypes="ccccc" /><path
   style="fill:#000000;stroke:none;stroke-width:0.999999;stroke-linecap:butt;stroke-linejoin:miter;stroke-miterlimit:4;stroke-dasharray:none;stroke-opacity:1"
   d="m 82.327349,22.895578 0.641615,0.124653 2.73338,-6.786887 -1.1173,-0.217071 z"
   id="path22157-6-2"
   sodipodi:nodetypes="ccccc" /><path
   style="fill:#000000;stroke:none;stroke-width:0.999999;stroke-linecap:butt;stroke-linejoin:miter;stroke-miterlimit:4;stroke-dasharray:none;stroke-opacity:1"
   d="m 78.451495,22.938941 -0.64161,0.124652 -2.73337,-6.786891 1.117293,-0.217071 z"
   id="path22157-6-3-2"
   sodipodi:nodetypes="ccccc" /></svg>
