<?xml version="1.0" encoding="utf-8"?>
<!-- Generator: Adobe Illustrator 22.0.1, SVG Export Plug-In . SVG Version: 6.00 Build 0)  -->
<svg version="1.1" id="Layer_1" xmlns="http://www.w3.org/2000/svg" xmlns:xlink="http://www.w3.org/1999/xlink" x="0px" y="0px"
	 viewBox="0 0 100 100" style="enable-background:new 0 0 100 100;" xml:space="preserve">
<g>
	<path d="M54,37.8c-0.1,0.2-0.1,0.5-0.2,0.7c-0.4,1.3-0.9,2.6-1.3,3.9c-0.4,1.6-0.7,3.2-0.7,4.8c0,0.8,0,1.7,0.1,2.5
		c0,0.6,0,1.2,0.1,1.8c0,0.6,0.1,1.2,0.2,1.9c0.2,1.6,0.5,3.3,0.8,4.9c0.2,1.1,0.3,2.2,0.5,3.3c0.1,0.9,0.3,1.8,0.5,2.7
		c0.6,3,1.3,6.1,2,9.1c0.3,1.2,0.5,2.4,0.7,3.5c0.2,0.9,0.4,1.8,0.5,2.7c0.2,1,0.4,2.1,0.6,3.1c0.1,0.3,0.1,0.6,0.3,0.8
		c0.4,0.6,0.5,1.3,0.8,2c0.2,0.6,0.4,1.3,0.7,1.9c0.1,0.3,0.3,0.6,0.6,0.9c0.6,0.6,1.1,1.3,1.8,1.8c0.7,0.6,1.5,1.2,2.2,1.8
		c0.4,0.3,0.6,0.7,0.6,1.2c0,1.2-0.1,2.3-0.3,3.5c0,0.3-0.1,0.6-0.3,0.8c-0.2,0.3-0.5,0.4-0.8,0.3c-0.7-0.2-1.3-0.3-1.9-0.6
		c-0.6-0.2-1.2-0.3-1.8-0.5c-1-0.2-1.9-0.5-2.8-0.7c-0.8-0.2-1.7-0.5-2.5-0.8c-0.2-0.1-0.4-0.2-0.6-0.4c-0.2-0.3-0.4-0.4-0.7-0.5
		c-0.4-0.1-0.7-0.4-0.9-0.8c-0.3-0.6-0.6-1.3-0.9-2c-0.4-1.1-0.7-2.1-1.1-3.2c-0.3-1.1-0.7-2.2-1.1-3.4c-0.2-0.5-0.4-1-0.6-1.5
		c-0.3-0.8-0.5-1.6-0.8-2.4c-0.3-0.9-0.6-1.8-0.9-2.7c-0.5-1.4-0.9-2.9-1.3-4.4c-0.4-1.6-0.8-3.3-1.3-4.9c-0.3-1.1-0.7-2.2-0.8-3.3
		c0-0.2-0.1-0.5-0.2-0.7c-0.1-0.2-0.2-0.3-0.4-0.3c-0.9,0-1.7,0-2.6,0c-0.5,0-0.6,0.1-0.6,0.6c0,0.3,0,0.7,0,1c0,0.7,0,1.5-0.1,2.2
		c0,0.6,0.1,1.1,0.2,1.7c0,0.5,0.1,0.9,0.1,1.4c0,0.9,0.1,1.7,0.1,2.6c0,0.4,0.1,0.8,0.1,1.1c0.1,1.9,0.2,3.8,0.3,5.7
		c0.1,1,0.1,2.1,0.1,3.1c0,0.8,0.1,1.6,0.1,2.4c0,0.5,0.2,0.8,0.6,1.1c0.9,0.6,1.7,1.3,2.6,1.9c0.3,0.2,0.6,0.4,0.9,0.7
		c0.2,0.2,0.4,0.3,0.6,0.4c0.3,0.1,0.4,0.4,0.5,0.7c0.1,1,0.1,2-0.1,3c-0.1,0.3-0.1,0.6-0.2,0.8c0,0.2-0.1,0.4-0.2,0.6
		c-0.2,0.3-0.4,0.5-0.8,0.6c-0.4,0-0.9,0-1.3-0.1c-0.7-0.2-1.5-0.3-2.3-0.4c-0.4,0-0.8-0.2-1.2-0.2c-0.6,0-1.1-0.1-1.7-0.1
		c-0.9-0.1-1.7-0.3-2.6-0.7c-0.3-0.2-0.7-0.3-1.1-0.3c-0.5-0.1-0.8-0.3-1-0.8c-0.2-0.6-0.3-1.2-0.4-1.8c-0.2-1.1-0.3-2.2-0.4-3.4
		c-0.1-0.6-0.2-1.1-0.3-1.7c-0.1-0.7-0.2-1.3-0.3-2c-0.1-0.9-0.2-1.8-0.4-2.8c-0.1-0.8-0.2-1.7-0.3-2.5c-0.2-1.8-0.4-3.5-0.7-5.3
		c0-0.3-0.1-0.6-0.1-0.9c0-0.2-0.1-0.4-0.1-0.7c0-0.6-0.2-1.1-0.2-1.7c0-0.5-0.1-1-0.1-1.5c0-0.3-0.1-0.6-0.1-0.9c0-0.1,0-0.3,0-0.4
		c0-1.1-0.2-2.2-0.3-3.3c-0.1-1.4-0.3-2.7-0.4-4.1c0-0.6-0.1-1.2-0.1-1.9c0-0.6-0.1-1.2-0.1-1.9c0-0.7,0-1.5-0.1-2.2
		c0-0.5,0-1,0-1.4c0-0.6,0-1.2,0.2-1.9c0.2-0.4,0.3-0.9,0.4-1.3c0.2-0.6,0.5-1.1,0.7-1.7c0.2-0.4,0.4-0.4,0.9-0.2
		c0.3-0.6,0.6-1.1,1.1-1.6c0.1-0.2,0.3-0.2,0.5-0.2c0.3,0,0.5,0,0.8,0c0.7,0.1,1.4,0,2-0.5c0.5-0.4,1.1-0.8,1.6-1.2
		c0.2-0.2,0.5-0.2,0.8-0.2c0.2,0,0.4,0.1,0.4,0.3c0.1,0.2,0,0.4-0.2,0.5c-0.3,0.2-0.6,0.4-0.8,0.7c-0.4,0.3-0.9,0.6-1.3,0.9
		c-0.4,0.3-0.8,0.4-1.2,0.4c-0.4,0-0.7,0-1.1-0.1c-0.6-0.1-0.8,0-1,0.5c-0.1,0.2-0.1,0.4,0.1,0.5c0.2,0.2,0.4,0.4,0.7,0.6
		c0.5,0.4,1,0.8,1.4,1.3c0.2,0.2,0.4,0.3,0.7,0.2c0.4-0.1,0.9-0.2,1.3-0.4c0.6-0.2,1.1-0.4,1.8-0.5c0.5-0.1,1-0.4,1.4-0.6
		c0.5-0.2,0.9-0.5,1.4-0.8c0.3-0.2,0.6-0.5,0.8-0.8c0.6-1.1,1.2-2.3,1.7-3.4c0.1-0.1,0.1-0.3,0.1-0.4c0-0.1-0.1-0.1-0.1,0
		c-0.7,0.4-1.4,0.4-2.1,0.3c-1.8-0.2-3.6-0.5-5.3-0.9c-0.7-0.2-1.3-0.4-2-0.7c-0.6-0.2-1.2-0.4-1.8-0.6c-0.4-0.1-0.8-0.3-1.1-0.5
		s-0.4-0.1-0.6,0.2c-0.6,0.8-1.1,1.5-1.7,2.3c-0.7,0.9-1.6,1.6-2.7,1.9c-0.4,0.2-0.9,0.3-1.3,0.4c-0.1,0-0.1,0-0.2,0.1
		c-0.3,0.2-0.3,1.1,0,1.4c0.1,0.1,0.2,0.1,0.4,0.2c0.6,0.2,1.2,0.3,1.9,0.4c0.2,0,0.4,0,0.6-0.1c0.7-0.2,1.3-0.5,2-0.8
		c0.3-0.1,0.5-0.2,0.8-0.3c0.2-0.1,0.4,0,0.5,0.2c0.1,0.2,0.1,0.3-0.1,0.5c-0.1,0.1-0.2,0.2-0.3,0.2c-0.9,0.4-1.8,0.7-2.7,1
		c-0.6,0.2-1.1,0.1-1.7,0c-0.5-0.1-1-0.2-1.5-0.4c-0.3-0.2-0.7-0.2-1-0.4c-0.2-0.1-0.4-0.3-0.4-0.6c-0.1-0.4-0.1-0.8,0-1.2
		c0-0.1,0.1-0.2,0-0.2c-0.1,0-0.1,0.1-0.2,0.1c0,0.1-0.1,0.1-0.2,0.1c-0.1,0,0-0.1,0-0.2c0.1-0.3,0.2-0.6,0.6-0.7
		c0.3-0.1,0.6-0.2,0.9-0.2c0.9-0.2,1.7-0.5,2.5-1c0.4-0.2,0.7-0.6,0.9-1c0.7-0.9,1.4-1.7,2.1-2.5c0,0,0.1-0.1,0.1-0.2
		c-0.2-0.1-0.4-0.3-0.6-0.4c-0.3-0.2-0.4-0.5-0.6-0.8c-0.2-0.5-0.4-0.9-0.4-1.4c0-0.3-0.1-0.3-0.3-0.4c-0.8-0.1-1.4-0.5-1.9-1.1
		c-0.2-0.2-0.4-0.5-0.6-0.7C25.2,35,25.1,34.5,25,34c-0.1-0.2,0.1-0.4,0.3-0.5c0.3-0.2,0.7-0.3,1-0.5c0.7-0.2,1.4-0.6,2.2-0.8
		c0.2,0,0.3-0.1,0.5-0.2c0.6-0.4,1.2-0.7,1.6-1.3c0.2-0.2,0.2-0.2,0-0.4c-0.1-0.1-0.2-0.2-0.3-0.2c-0.7-0.4-1.1-1-1.4-1.7
		c-0.2-0.6-0.6-1.2-0.8-1.8c-0.3-0.7-0.4-1.5-0.3-2.2c0-0.4,0.2-0.8,0.3-1.1c0.4-0.8,0.8-1.5,1.3-2.2c0.4-0.5,0.8-0.9,1.3-1.3
		c0.4-0.3,0.9-0.5,1.5-0.6c0.9-0.3,1.8-0.3,2.7-0.1c0.5,0.1,0.9,0.3,1.3,0.6c0.7,0.5,1.3,1.2,1.9,1.9c0.2,0.2,0.2,0.2,0.4,0
		c0.4-0.4,1-0.7,1.5-1c0.9-0.5,1.9-0.7,3-0.6c1.8,0.2,3.5,0.6,5.2,1.1c1.3,0.3,2.5,0.9,3.7,1.3c0.9,0.3,1.7,0.8,2.5,1.3
		c1,0.6,1.9,1.3,2.7,2.1c0.1,0.1,0.2,0.2,0.3,0.3c0.2,0.5,0.6,0.9,0.8,1.4c0.3,0.6,0.7,1.3,1,1.9c0.4,0.8,0.8,1.5,1.2,2.3
		c0.3,0.5,0.5,1.1,0.7,1.6c0.1,0.3,0.2,0.3,0.5,0.2c0.2-0.1,0.4-0.2,0.7-0.2c0.2,0,0.3-0.1,0.4-0.3c0.1-0.5,0.4-0.8,0.6-1.2
		c0.2-0.3,0.3-0.6,0.4-0.9c0.2-0.9,0.5-1.8,0.7-2.6c0.2-0.8,0.5-1.5,0.7-2.2c0.2-0.5,0.4-0.9,0.7-1.3c0.1-0.2,0.1-0.3,0-0.5
		c-0.4-0.5-0.7-0.9-1.1-1.4c-0.9-1-1.6-2-2.4-3.1c-0.5-0.7-0.9-1.5-1.2-2.3c-0.3-0.7-0.2-1.4,0.3-2c0.6-0.8,1.5-1.4,2.3-1.9
		c0.2-0.1,0.4-0.3,0.6-0.4c0.4-0.3,0.8-0.5,1.3-0.6c0.4-0.1,0.7,0,0.9,0.3c0.1,0.1,0.3,0.3,0.4,0.4c0.6,0.7,1.2,1.5,1.8,2.2
		c0.4,0.5,0.8,1.1,1.1,1.8c0.2,0.5,0.5,0.9,0.8,1.4c0.4,0.5,0.7,1.1,0.9,1.7c0.2,0.6,0.1,1.1-0.2,1.6c-0.5,0.8-1.2,1.4-2,2
		c-0.6,0.5-1.3,1-2.1,1.2c-0.1,0-0.2,0.1-0.3,0.2c-0.1,0.2-0.2,0.3-0.2,0.5c-0.4,1.5-0.9,3.1-1.3,4.6c-0.1,0.3-0.2,0.6,0,1
		c0.1,0.2,0,0.4,0.1,0.7c0.1,0.7,0.3,1.3,0.5,2c0.3,0.9,0.6,1.8,0.8,2.7c0.1,0.5,0.3,0.9,0.5,1.4c0.1-0.1,0.1-0.2,0.2-0.3
		c0.1-1.1,0.4-2.3,0.5-3.4c0.1-0.7,0.3-1.4,0.4-2c0.1-1.2,0.5-2.4,0.8-3.7c0.2-0.8,0.6-1.6,1-2.3c0.4-0.6,0.7-1.3,1.2-1.9
		c0.3-0.4,0.6-0.8,1-1.2c0.3-0.3,0.3-0.6,0.2-1c-0.1-0.2-0.1-0.4-0.2-0.6c-0.4-0.9-0.6-1.8-0.9-2.7c-0.1-0.2,0-0.4,0.1-0.6
		c0.2-0.3,0.4-0.2,0.7,0c0.5,0.4,0.7,1,0.9,1.5c0.2,0.6,0.3,1.1,0.6,1.7c0.1,0.4,0.2,0.7,0.2,1.1c0,0.5-0.3,0.9-0.7,1.2
		c-0.8,0.8-1.4,1.8-2,2.7c-0.2,0.3-0.2,0.6-0.4,0.9c-0.4,0.7-0.4,1.5-0.6,2.2c-0.3,1.1-0.4,2.3-0.6,3.5c-0.3,1.6-0.5,3.1-0.8,4.7
		c-0.1,0.8-0.3,1.6-0.4,2.4c0,0.6,0,1.1,0.2,1.6c0.4,1,0.8,2.1,1.3,3.1c0.2,0.5,0.5,0.9,0.8,1.4c0.1,0.2,0.3,0.3,0.4,0.4
		c0.3,0.2,0.5,0.2,0.9,0.1c0.4-0.2,0.9-0.3,1.3-0.6c0.3-0.2,0.6-0.4,1-0.4c0.4,0,0.5,0.4,0.3,0.6c-0.1,0.1-0.2,0.2-0.3,0.3
		c-0.9,0.6-1.9,1-3.1,1.2c-0.3,0-0.6,0-0.9-0.2c-0.6-0.3-1.1-0.8-1.4-1.5c-0.6-1.1-1.1-2.2-1.5-3.4c-0.1-0.4-0.3-0.8-0.5-1.1
		c-0.3-0.9-0.7-1.9-1-2.9c-0.1-0.2-0.2-0.5-0.3-0.7c-0.4-1-0.6-2-0.8-3.1c-0.1-0.6-0.2-1.1-0.3-1.7c0-0.1,0-0.2-0.1-0.2
		c-0.2,0.2-0.3,0.4-0.3,0.7c0,0.7,0,1.3,0,2c0,0.1,0,0.2,0,0.2c-0.1,0.7,0,1.3,0.1,2c0.1,0.8,0.2,1.5,0.2,2.3c0,0.7,0.1,1.3,0.2,2
		c0.1,1,0.1,2,0.2,3c0.1,0.6,0.2,1.2,0.2,1.9c0.1,0.9,0.2,1.8,0.2,2.7c0,0.7,0.2,1.4,0.2,2.1c0.1,1.4,0.3,2.8,0.6,4.2
		c0.2,1.1,0.3,2.3,0.7,3.5c0.1,0.4,0.3,0.8,0.5,1.1c0.4,0.7,1.1,1,1.8,1.1c1,0,1.9,0.1,2.9-0.1c0.8-0.1,1.6-0.2,2.4-0.4
		c1-0.2,1.9-0.4,2.8-1.1c0.3-0.3,0.7-0.5,1.1-0.7c1.2-0.6,1.9-1.6,2.5-2.7c0.2-0.3,0.2-0.7,0.1-1c-0.1-0.5-0.1-1-0.3-1.6
		c-0.2-0.7-0.5-1.3-0.7-2c-0.4-1.2-1-2.3-1.6-3.4c-0.6-1.1-1.2-2.3-1.8-3.4c-0.7-1.1-1.4-2.3-2.2-3.4c-0.4-0.6-0.7-1.1-1.1-1.7
		c-0.3-0.4-0.6-0.8-0.9-1.1c-0.6-0.8-1.3-1.4-1.8-2.2c-0.4-0.6-0.8-1.3-1.1-1.9c-0.1-0.2-0.1-0.4-0.1-0.6c0-0.2,0.1-0.4,0.4-0.5
		c0.2-0.1,0.4-0.1,0.6,0.1c0.3,0.3,0.6,0.6,0.8,0.9c0.5,0.7,1,1.4,1.6,2c1.1,1.3,1.9,2.7,2.8,4.1c0.6,0.8,1.1,1.7,1.7,2.5
		c0.7,1.2,1.4,2.4,2,3.6c0.4,0.8,0.8,1.6,1.2,2.4c0.8,1.5,1.5,3.1,1.8,4.7c0,0.2,0.1,0.3,0.1,0.5c0,0.3,0,0.6,0,0.8
		c0,0.6,0,1.1-0.3,1.6c-0.3,0.5-0.6,1-0.9,1.4c-0.4,0.5-0.9,0.8-1.4,1.1c-0.2,0.1-0.4,0.2-0.6,0.4c-0.7,0.5-1.4,0.9-2.1,1.3
		c-0.2,0.1-0.4,0.2-0.6,0.2c-0.4,0.1-0.7,0.2-1.1,0.3c-0.3,0.1-0.6,0.2-0.9,0.2c-0.8,0-1.5,0.2-2.2,0.3c-0.4,0-0.8,0.1-1.2,0.1
		c-0.8,0-1.6,0.1-2.3,0c-0.9,0-1.8-0.4-2.4-1.2c-0.4-0.5-0.7-1-0.9-1.7c-0.2-0.7-0.3-1.5-0.4-2.2c-0.1-1.1-0.4-2.1-0.6-3.2
		c-0.2-0.8-0.2-1.6-0.3-2.4c0-0.2-0.1-0.5-0.1-0.7c0-0.2-0.1-0.3-0.3-0.4c-0.3-0.1-0.7-0.2-1-0.3c-0.4-0.1-0.7-0.2-1-0.4
		c-0.6-0.5-0.8-1.1-0.9-1.8c-0.1-1-0.1-2,0.1-3c0.1-0.4,0.1-0.8,0.1-1.2c0-0.1,0-0.2,0-0.3c0-0.2,0-0.4,0.2-0.5
		c0.3-0.1,0.5-0.3,0.9-0.2c0.2,0.1,0.4,0.2,0.4,0.4c0,0.2,0,0.5,0,0.7c-0.2,1.1-0.2,2.2-0.3,3.3c0,0.5,0.1,1,0.3,1.5
		c0.2,0.5,0.7,0.6,1.2,0.7c0.1,0,0.2,0,0.2-0.2c0-0.1,0-0.3,0-0.4c0-0.9-0.1-1.8-0.3-2.8c-0.1-0.8-0.2-1.6-0.2-2.4
		c-0.1-1-0.2-2-0.3-3c0-0.5,0-1-0.1-1.5c0-0.2,0-0.4,0-0.6c-0.2-0.6-0.1-1.2-0.2-1.8c-0.1-0.9-0.1-1.7-0.1-2.6c0-0.2,0-0.3,0-0.5
		c-0.1-0.2-0.2-0.3-0.3-0.1c-0.3,0.2-0.5,0.6-0.7,0.9c-0.2,0.5-0.4,1.1-0.5,1.7c-0.1,0.6-0.2,1.3-0.3,1.9c-0.2,1-0.3,2.1-0.4,3.1
		c-0.1,1.2-0.4,2.4-0.6,3.6c-0.1,0.9-0.3,1.7-0.6,2.6c-0.1,0.4-0.3,0.8-0.4,1.2c-0.4,1-0.6,2.1-0.9,3.1c-0.3,1.2-0.6,2.5-0.8,3.7
		c-0.1,0.9-0.2,1.8-0.1,2.7c0,0.1,0,0.2,0,0.4c0,0.8,0.3,1.4,0.8,1.9c0.3,0.3,0.6,0.6,1,0.9c0.1,0,0.1,0.1,0.2,0.1
		c0.5,0.5,1.1,0.7,1.7,1c0.9,0.3,1.9,0.6,2.9,0.8c0.7,0.1,1.4,0.1,2,0c0.5,0,0.9-0.1,1.4-0.1c0.3,0,0.6,0.1,0.6,0.4
		c0,0.3-0.2,0.5-0.5,0.6C66.4,65,66,65,65.6,65.1c-1.1,0.1-2.2,0-3.3-0.2c-0.7-0.1-1.5-0.4-2.2-0.6c-0.7-0.2-1.4-0.6-2-0.9
		c-0.3-0.1-0.6-0.4-0.8-0.6c-0.4-0.4-0.8-0.7-1.2-1.1c-0.5-0.6-0.8-1.3-0.9-2.1c0-0.4-0.1-0.9-0.1-1.3c0-1,0.1-2,0.3-3
		c0.2-1.3,0.6-2.6,0.9-3.9c0.3-1.3,0.8-2.6,1.2-3.9c0.3-0.9,0.4-1.9,0.6-2.8c0.1-0.6,0.2-1.3,0.3-1.9c0-0.1,0-0.3,0.1-0.4
		c0-0.3,0-0.6-0.3-0.8c-0.3-0.2-0.5-0.5-0.7-0.7c-0.7-0.6-1.3-1.1-2-1.7c-0.3-0.2-0.6-0.5-0.9-0.8C54.2,38.3,54.1,38.1,54,37.8
		L54,37.8z M39.7,27.3c0.2,0.1,0.4,0.1,0.6,0.1c0.5,0,1,0.2,1.4,0.5c0.8,0.6,1.4,1.3,1.8,2.2c0.6,1.3,1,2.6,1.2,4
		c0,0.2,0.1,0.4,0.2,0.6c0.1,0.3,0.2,0.3,0.5,0.2c0.1,0,0.1-0.1,0.2-0.1c0.5-0.1,0.8,0,1,0.4c0.2,0.3,0.3,0.7,0.4,1.1
		c0.1,0.5,0.1,1,0.3,1.4c0.2,0.7,0.3,1.4,0.3,2.1c0,0.4-0.1,0.7-0.3,1c-0.4,0.5-0.9,0.9-1.5,1.3c-0.5,0.3-0.8,0.7-0.9,1.3
		c-0.2,1.1-0.6,2.1-1.1,3.1c-0.1,0.3-0.3,0.6-0.4,0.8c-0.5,0.8-1.2,1.4-2,1.8c-0.6,0.3-1.1,0.7-1.7,0.9c-1.2,0.4-2.4,0.8-3.7,1.2
		c-0.3,0.1-0.4,0.1-0.3,0.4c0,0.7-0.1,1.4-0.1,2.1c0,1.1,0,2.1,0,3.2c0,1.6,0.2,3.2,0.3,4.8c0,0.3,0.1,0.5,0.3,0.7
		c0.5,0.4,1,0.5,1.6,0.6c0.7,0.1,1.4,0.1,2,0.2c0.2,0.1,0.5,0.1,0.7,0.1c0.6,0,1.3,0,1.9,0c0.3,0,0.6-0.1,0.8-0.3
		c0.2-0.2,0.4-0.2,0.6,0c0.2,0.2,0.3,0.2,0.6,0.2c0.9,0,1.8-0.1,2.6-0.3c0.5-0.1,1-0.2,1.5-0.3c0.2,0,0.5,0,0.7-0.1
		c0.8-0.2,1.7-0.5,2.5-0.6c0.2,0,0.3-0.2,0.3-0.4c0-0.3,0-0.6-0.1-0.9c-0.2-0.6-0.3-1.3-0.4-2c-0.2-1.1-0.3-2.3-0.6-3.4
		c-0.2-0.8-0.3-1.7-0.4-2.6c-0.1-0.6-0.2-1.1-0.1-1.7c0-0.1,0-0.3,0-0.4c-0.1-0.7-0.2-1.4-0.2-2.1c0-0.8,0-1.6,0.1-2.4
		c0.1-1.3,0.2-2.7,0.7-4c0.3-0.9,0.5-1.7,0.8-2.6c0.4-1,0.7-1.9,0.9-2.9c0.1-0.4,0.1-0.8,0.2-1.2c0.2-1,0.2-1.9,0.4-2.9
		c0.1-0.4,0-0.4-0.4-0.6c-0.5-0.2-1.1-0.3-1.6-0.5c-1.1-0.4-2.2-0.8-3.4-1.1c-0.7-0.2-1.3-0.4-1.9-0.6c-0.6-0.2-1.2-0.5-1.9-0.5
		c-0.3,0-0.5-0.3-0.6-0.6c0-0.2,0-0.4,0-0.6c0-0.4,0-0.8-0.1-1.1c-0.3-0.9-0.3-1.9-0.4-2.8c-0.1-0.9-0.2-1.9-0.3-2.8
		c0-0.2-0.1-0.3-0.3-0.3c-0.3,0-0.6,0-0.9,0c-0.7,0.1-1.4,0.1-2,0.7c-0.1,0.1-0.2,0.1-0.3,0.1c-0.1,0-0.2,0.1-0.3,0.2
		c-0.2,0.1-0.2,0.2-0.1,0.4c0.3,0.6,0.6,1.2,0.9,1.7c0.3,0.5,0.5,1.1,0.6,1.6c0.1,0.4,0,0.7-0.3,0.9C40,27.1,39.8,27.2,39.7,27.3
		L39.7,27.3z M31,48.4c-0.3,0.9-0.5,1.7-0.6,2.5c-0.1,0.6-0.2,1.2-0.2,1.9c0,2.2,0,4.5,0.2,6.7c0.1,1.6,0.3,3.2,0.5,4.8
		c0.1,1.2,0.3,2.4,0.4,3.6c0.1,0.8,0.2,1.7,0.2,2.5c0.1,0.7,0.2,1.4,0.3,2.1c0.1,1.4,0.3,2.8,0.5,4.2c0.2,1.6,0.3,3.3,0.6,4.9
		c0,0.3,0.1,0.6,0.1,1c0,1,0.3,2.1,0.4,3.1c0.1,0.7,0.2,1.3,0.3,2c0.1,0.8,0.2,1.6,0.3,2.4c0.1,0.7,0.2,1.3,0.3,1.9
		c0.1,0.6,0.3,1.1,1,1.3c0.3,0.1,0.5,0.2,0.8,0.3c0.9,0.3,1.8,0.6,2.7,0.6c0.5,0,0.9,0,1.4,0.1c1,0.2,2,0.3,3,0.5
		c0.2,0,0.3,0.1,0.5,0c0.2,0,0.3-0.1,0.3-0.4c0-0.2,0-0.4,0.1-0.5c0.2-0.6,0.2-1.3,0.2-1.9c0-0.3-0.1-0.7-0.4-0.8
		c-0.6-0.3-1.1-0.8-1.7-1.1c-0.3-0.1-0.6-0.3-0.8-0.5c-0.2-0.2-0.5-0.4-0.7-0.6c-0.2-0.1-0.5-0.3-0.7-0.5c-0.2-0.2-0.4-0.5-0.4-0.8
		c0-0.2,0-0.2-0.2-0.3c-0.3-0.2-0.4-0.5-0.4-0.8c0-0.5-0.1-0.9-0.1-1.4c0-1.3-0.2-2.7-0.1-4c0-0.3,0-0.6,0-0.9
		c-0.1-1-0.2-1.9-0.2-2.9c0-0.2,0-0.4,0-0.7c-0.2-1.4-0.1-2.8-0.2-4.2c0-0.5-0.1-1-0.1-1.5c-0.2-1.3-0.2-2.6,0-3.9
		c0.1-0.7,0.1-1.4,0.2-2.2c0-0.3-0.1-0.4-0.4-0.4c-0.3,0-0.6-0.1-0.9-0.1c-0.8,0-1.5-0.4-2.2-0.8c-0.2-0.1-0.3-0.3-0.4-0.5
		c-0.1-0.3-0.1-0.7-0.1-1c0-0.5,0-1-0.1-1.5c-0.1-0.5-0.1-1-0.1-1.5c0-1.3-0.1-2.7-0.1-4c0-0.6,0-1.2,0.1-1.8
		c0.1-0.4,0.1-0.8,0.1-1.3c0-0.1,0-0.3-0.1-0.4c-0.3-0.2-0.6-0.5-0.9-0.8C32.5,49.9,31.6,49.3,31,48.4L31,48.4z M63.4,94.4
		c0-0.1,0-0.2,0-0.4c0.1-0.7-0.3-1.1-0.7-1.4c-0.6-0.4-1.2-0.9-1.8-1.4c-0.8-0.6-1.3-1.4-2-2.1c0,0-0.1-0.1-0.1-0.1
		c-0.3-0.6-0.7-1.2-0.9-1.8c-0.3-0.6-0.4-1.3-0.8-1.8c0,0,0-0.1-0.1-0.2c-0.3-0.9-0.5-1.9-0.7-2.9c-0.2-0.9-0.3-1.7-0.5-2.6
		c-0.2-1.1-0.5-2.2-0.7-3.3c-0.2-0.9-0.3-1.9-0.5-2.9c-0.3-1.3-0.6-2.6-1-3.9c-0.2-0.9-0.4-1.8-0.6-2.7c-0.2-1.1-0.5-2.2-0.7-3.3
		c0-0.1-0.1-0.2-0.1-0.3c-0.1-0.1-0.2-0.2-0.3-0.2c-0.5,0.2-1.1,0.2-1.6,0.3c-0.7,0.2-1.3,0.3-2,0.4c-1.1,0.2-2.2,0.5-3.4,0.5
		c-0.3,0-0.4,0.1-0.4,0.5c0.1,0.7,0.3,1.3,0.5,2c0.1,0.5,0.4,0.9,0.5,1.4c0.3,1.3,0.7,2.7,1.1,4c0.1,0.5,0.2,1,0.4,1.4
		c0.2,0.4,0.4,0.8,0.3,1.2c0,0.1,0,0.1,0,0.2c0.3,0.5,0.3,1,0.5,1.5c0.3,0.6,0.4,1.3,0.6,1.9c0.3,1.2,0.7,2.4,1.1,3.5
		c0.4,1.2,0.8,2.4,1.3,3.6c0.7,1.9,1.2,3.9,2,5.7c0.1,0.3,0.2,0.7,0.4,1c0.2,0.3,0.4,0.6,0.7,0.7c0.2,0.1,0.3,0.2,0.4,0.4
		c0,0.1,0.2,0.2,0.3,0.3c0.6,0.2,1.3,0.5,1.9,0.7c0.8,0.2,1.6,0.4,2.4,0.7c0.1,0,0.3,0.1,0.4,0.1c0.6,0,1.2,0.2,1.8,0.4
		c0.5,0.1,1,0.3,1.5,0.4c0.5,0.1,0.5,0.1,0.6-0.4C63.4,95.3,63.4,94.9,63.4,94.4L63.4,94.4z M45.3,36.7c-0.4-0.3-0.4-0.3-0.9,0
		c-0.5,0.3-0.9,0.6-1.3,0.9c-0.2,0.2-0.4,0.3-0.7,0.3c-0.3,0-0.5-0.2-0.4-0.5c0-0.2,0.2-0.4,0.3-0.5c0.3-0.2,0.7-0.5,1-0.7
		c0.1-0.1,0.2-0.2,0.3-0.3c0.1-0.3,0.1-0.5,0.1-0.8c-0.2-1.5-0.6-3-1.3-4.4c-0.4-0.8-1-1.5-1.7-2c-0.2-0.2-0.4-0.2-0.7-0.3
		c-0.4-0.1-0.8,0-1.1-0.1c-0.3,0-0.5,0.1-0.7,0.3c-0.9,0.8-1.9,1.4-2.9,2c-0.9,0.4-1.9,0.7-2.9,0.4c-0.4-0.1-0.6,0-0.8,0.3
		c-0.8,1-1.7,1.6-2.9,2c-0.6,0.2-1.1,0.4-1.7,0.6c-0.3,0.1-0.3,0.2-0.2,0.5c0.3,0.7,0.8,1.2,1.4,1.7c0.3,0.2,0.7,0.3,1,0.2
		c0.7-0.2,1.3-0.5,1.9-1c0.5-0.4,1-0.8,1.4-1.3c0.2-0.2,0.5-0.3,0.7-0.4c0.2-0.1,0.3,0,0.4,0.1c0.1,0.2,0.1,0.3,0,0.4
		c-0.1,0.1-0.1,0.2-0.2,0.2c-0.3,0.3-0.6,0.6-0.9,0.8c-0.8,0.7-1.6,1.4-2.7,1.8c-0.3,0.1-0.3,0.2-0.2,0.4c0.1,0.9,0.6,1.4,1.3,1.8
		c0.8,0.5,1.7,0.8,2.6,1.1c0.7,0.3,1.4,0.4,2.1,0.7c0.8,0.3,1.6,0.5,2.4,0.7c1.4,0.3,2.9,0.6,4.3,0.7c0.4,0,0.7,0,1.1-0.2
		c1.1-0.5,2.1-1.1,3.1-1.9c0.3-0.3,0.4-0.6,0.3-0.9c-0.1-0.4-0.2-0.7-0.4-1C46,38.4,46,38.2,46,38.1c-0.1-0.5-0.1-1-0.2-1.4
		c0-0.2-0.1-0.3-0.2-0.4C45.4,36.4,45.4,36.6,45.3,36.7L45.3,36.7z M33.5,19.9c-0.6,0-1.2,0.1-1.7,0.3c-0.2,0.1-0.3,0.1-0.3,0.3
		c0,0.2-0.1,0.4-0.3,0.4c-0.4,0.2-0.7,0.5-1,0.9c-0.4,0.5-0.6,1.2-0.7,1.9c0,0.5,0,1,0.1,1.5c0.1,0.7,0.1,1.3,0.5,2
		c0.2,0.4,0.5,0.7,0.7,1.1c0.4,0.7,1,1.1,1.7,1.3c0.9,0.3,1.8,0.3,2.7-0.2c1.1-0.6,2-1.3,2.9-2.1c0.8-0.7,0.8-1.5,0.4-2.3
		c-0.4-0.8-0.9-1.5-1.3-2.3c-0.5-0.9-1.2-1.6-2-2.2C34.7,20.2,34.2,19.8,33.5,19.9L33.5,19.9z M53.8,25.7c0-0.5,0-0.5-0.1-0.7
		c-0.4-0.3-0.8-0.7-1.2-0.9c-0.5-0.2-0.9-0.3-1.4-0.5c-0.5-0.2-1-0.4-1.5-0.7c-1.1-0.5-2.4-0.7-3.6-1c-0.4-0.1-0.9-0.2-1.3-0.3
		c-0.3-0.1-0.3,0-0.3,0.3c0,0.3,0,0.6,0.1,0.9c0.1,0.6,0.1,1.3,0.2,1.9c0.2,1.2,0.3,2.3,0.5,3.5c0,0.2,0.1,0.4,0.4,0.5
		c0.8,0.3,1.5,0.6,2.3,0.8c1.5,0.4,3,0.8,4.5,1.3c0.3,0.1,0.7,0.2,1,0.4c0.3,0.1,0.4,0.1,0.4-0.3c0-0.2-0.1-0.5-0.1-0.7
		c0-0.8,0-1.5,0.1-2.2c0.1-0.5,0-1.1,0.1-1.6C53.8,26.1,53.8,25.9,53.8,25.7L53.8,25.7z M58.7,40.2c0.1-0.5,0.2-0.9,0.3-1.4
		c0.1-0.7,0.3-1.5,0.4-2.2c0.1-0.6,0.3-1,0.6-1.5c0.1-0.3,0.1-0.5,0-0.7c-0.1-0.2-0.2-0.4-0.3-0.7c-0.4-0.9-0.7-1.8-1.1-2.6
		c-0.5-0.8-0.7-1.8-1.2-2.6c-0.1-0.2-0.2-0.4-0.2-0.6c-0.1-0.2-0.1-0.4-0.3-0.5c-0.4-0.4-0.9-0.8-1.3-1.2c-0.1-0.1-0.3-0.3-0.5-0.2
		c-0.2,0.1-0.1,0.3-0.1,0.5c0,0.4,0.1,0.9,0,1.3c-0.1,0.4-0.1,0.8,0,1.3c0,0.4,0.1,0.8,0.1,1.2c0,0.8,0,1.7-0.1,2.5
		c-0.1,1-0.2,2-0.4,3c0,0.2-0.1,0.5-0.1,0.7c0,0.3,0,0.4,0.3,0.4c0.2,0,0.4,0.1,0.6,0.2c0.9,0.7,1.7,1.3,2.5,2.1
		C58,39.6,58.3,39.9,58.7,40.2L58.7,40.2z M70.1,20.9c0-0.1,0-0.3-0.1-0.4c-0.3-0.6-0.6-1.3-1-1.9c-0.3-0.4-0.5-0.8-0.8-1.2
		c-0.3-0.5-0.6-1.1-1.1-1.6c-0.7-0.7-1.2-1.5-1.8-2.2c-0.2-0.3-0.4-0.3-0.7-0.1c-0.2,0.2-0.4,0.3-0.7,0.5c-0.5,0.4-1,0.7-1.5,1.2
		c-0.2,0.2-0.4,0.5-0.5,0.8c-0.1,0.2-0.2,0.5-0.1,0.7c0.2,0.4,0.3,0.8,0.5,1.2c0.4,0.7,0.8,1.3,1.3,1.9c0.9,1.2,1.9,2.3,2.8,3.5
		c0.3,0.4,0.6,0.5,1.1,0.2c0.3-0.3,0.7-0.5,1-0.8c0.4-0.3,0.7-0.7,1.1-1C69.9,21.4,70.1,21.2,70.1,20.9L70.1,20.9z"/>
	<path d="M44.6,9.7c0.1-0.1,0.1-0.2,0.1-0.3c0.2-0.6,0.3-1.3,0.6-1.9c0,0,0,0,0,0c0.5-0.9,0.9-1.8,1.7-2.6c0.8-0.8,1.8-1.4,2.9-1.7
		C50.4,3,50.9,2.9,51.5,3c0.2,0,0.4,0.1,0.5-0.2c0-0.1,0.2,0,0.2,0c0.1,0.1,0.1,0.2,0.2,0.2c0.1,0,0.1,0,0.1-0.1
		c-0.1-0.3,0.1-0.2,0.3-0.2c0.4,0,0.8,0.2,1.2,0.2c0,0,0.1,0,0.1,0c0.2,0.4,0.6,0.3,0.9,0.4c-0.1-0.3-0.4-0.1-0.5-0.3
		c0.2-0.1,0.4,0,0.6,0c0.4,0.2,0.7,0.3,1.1,0.6c0.3,0.2,0.6,0.4,1,0.6c0.5,0.3,0.9,0.7,1.4,1.1c0.2,0.1,0.3,0.3,0.3,0.5
		c0.2,0.6,0.4,1.2,0.5,1.8c0.3,1.4,0.4,2.8,0.2,4.3c-0.3,1.8-0.8,3.5-1.7,5.1c-0.1,0.3-0.3,0.6-0.5,0.8c-1.1,1.4-2.2,2-3.8,2.2
		c-0.4,0.1-0.8,0.1-1.3,0.1c-0.8,0-1.5,0-2.3-0.2c-0.9-0.2-1.8-0.5-2.7-0.8c-0.8-0.3-1.5-0.6-2.3-1c-0.3-0.1-0.7-0.3-1-0.5
		c-0.4-0.2-0.8-0.4-1.2-0.4c-0.4,0-0.7-0.2-1.1-0.3c-0.6-0.2-1.1-0.3-1.7-0.6c-0.6-0.3-1.1-0.7-1.6-1.2c-0.1-0.1-0.2-0.2-0.2-0.3
		c-0.3-0.9-0.4-1.8-0.3-2.7c0-0.4,0.2-0.8,0.5-1.2c0.3-0.5,0.7-1,1.1-1.5C40,9.3,40.5,9.1,40.9,9c0.5-0.1,1-0.2,1.5-0.1
		c0.6,0,1.2,0.3,1.8,0.6c0.1,0,0.2,0.1,0.2,0.1C44.5,9.7,44.5,9.7,44.6,9.7L44.6,9.7z M58.6,9.8L58.6,9.8c0-0.3,0-0.7,0-1.1
		c0-0.6,0-1.2-0.4-1.7C58.1,7,58.1,6.8,58,6.7c-0.1-0.4-0.4-0.7-0.8-0.9c-0.1-0.1-0.2,0-0.3,0.1c0,0.1,0,0.1,0,0.2
		c-0.2,0.8-0.6,1.5-1.2,2.1C54.9,9,54,9.6,52.8,9.7c-0.3,0-0.5,0.2-0.7,0.4c-0.7,1.1-1.5,2.2-2.5,3c-0.4,0.3-0.8,0.5-1.2,0.5
		c-0.5,0.1-1,0.1-1.6,0c-0.4,0-0.8-0.1-1.3-0.1c-0.4,0-0.4,0-0.4,0.3c0,0.2-0.1,0.4-0.2,0.6c-0.2,0.7-0.4,1.3-0.6,2
		c-0.1,0.4-0.1,0.4,0.3,0.6c0.9,0.6,1.9,0.9,2.9,1.3c0.6,0.2,1.2,0.4,1.8,0.6c1.3,0.3,2.7,0.4,4,0.2c0.9-0.1,1.6-0.6,2.2-1.2
		c0.8-0.9,1.4-1.9,1.8-3.1c0-0.1,0.1-0.3,0.1-0.4c0.4-1,0.6-2,0.9-3c0.1-0.2,0.1-0.5,0.1-0.8C58.6,10.4,58.6,10.1,58.6,9.8L58.6,9.8
		z M47.2,12.8c0.7,0.1,1.1-0.3,1.6-0.7c0.8-0.8,1.5-1.7,2.1-2.7c0.2-0.4,0.5-0.6,0.9-0.7c1.5-0.2,2.7-0.9,3.5-2.2
		c0.3-0.4,0.5-0.8,0.6-1.3c0.1-0.3,0-0.3-0.2-0.5c-0.2-0.1-0.3-0.1-0.5-0.2c-0.4-0.2-0.9-0.4-1.4-0.4C52.9,4.1,52,4.1,51,4.1
		c-0.8,0-1.4,0.3-2,0.8c-0.6,0.4-1,0.9-1.4,1.5c-0.8,1.2-1.3,2.6-1.7,4c-0.1,0.4-0.1,0.8-0.3,1.2c-0.1,0.2-0.2,0.4-0.3,0.7
		c-0.1,0.2,0,0.3,0.2,0.4C46.2,12.7,46.7,12.8,47.2,12.8L47.2,12.8z M39.5,13.5c0,0.1,0,0.3,0,0.5c0,0.7,0.3,1.2,0.9,1.6
		c0.7,0.5,1.5,0.6,2.3,0.9c0.2,0.1,0.3,0,0.3-0.2c0-0.3,0.1-0.6,0.2-0.8c0.4-1.3,0.7-2.6,1.1-3.9c0-0.2,0.1-0.3-0.1-0.4
		c-0.1-0.1-0.2-0.2-0.3-0.4c-0.1-0.2-0.2-0.4-0.5-0.5c-0.5-0.2-1-0.2-1.5-0.1c-0.5,0-1,0.2-1.3,0.6C39.8,11.3,39.3,12.3,39.5,13.5
		L39.5,13.5z"/>
	<path d="M39,33c0,0.5-0.2,1-0.3,1.4c-0.3,1-0.8,1.9-1.4,2.8c-0.3,0.4-0.6,0.7-1,1c-0.3,0.2-0.3,0.5-0.1,0.8
		c0.3,0.3,0.7,0.6,1.1,0.7c0.3,0.1,0.5,0.1,0.8-0.1c1-0.8,1.8-1.8,2.2-3.1c0-0.1,0.1-0.2,0.1-0.3c0.1-0.4,0.4-0.6,0.9-0.7
		c0.3,0,0.4,0.1,0.5,0.3c0,0.2,0,0.4-0.1,0.6c-0.4,0.9-0.9,1.8-1.5,2.5c-0.6,0.7-1.2,1.3-2.1,1.7c-0.5,0.2-0.9,0.2-1.4,0
		c-0.4-0.2-0.8-0.3-1.2-0.6c-0.4-0.3-0.7-0.7-0.9-1.1c-0.1-0.3-0.1-0.5,0.2-0.7c0.3-0.2,0.5-0.5,0.8-0.8c0.6-0.5,1-1.1,1.3-1.7
		c0.4-0.9,0.8-1.8,1.2-2.7c0.1-0.1,0.1-0.3,0.2-0.4c0.1-0.2,0.3-0.3,0.5-0.2c0.2,0.1,0.3,0.2,0.3,0.4C39,32.9,39,33,39,33z"/>
	<path d="M69.7,20.3c-0.1,0.3-0.3,0.6-0.6,0.9c-0.4,0.4-0.9,0.6-1.3,1c-0.1,0.1-0.3,0.3-0.5,0.3c-0.6,0.3-1,0.2-1.4-0.3
		c-0.7-1-1.4-2-2.1-3.1c-0.5-0.7-1-1.3-1.4-2c-0.2-0.2-0.2-0.5-0.1-0.8c0.2-0.6,0.5-1,1-1.2c0.4-0.2,0.8-0.4,1-0.8
		c0.4-0.5,0.9-0.3,1.3,0c0.2,0.2,0.4,0.5,0.6,0.8c0.5,0.6,1,1.2,1.5,1.8c0.5,0.7,1,1.5,1.4,2.2c0.1,0.2,0.3,0.4,0.4,0.6
		C69.6,20,69.7,20.1,69.7,20.3L69.7,20.3z"/>
</g>
</svg>
