<?xml version="1.0" encoding="utf-8"?>
<!-- Generator: Adobe Illustrator 27.5.0, SVG Export Plug-In . SVG Version: 6.00 Build 0)  -->
<svg version="1.1" id="Capa_1" xmlns="http://www.w3.org/2000/svg" xmlns:xlink="http://www.w3.org/1999/xlink" x="0px" y="0px"
	 viewBox="0 0 100 100" style="enable-background:new 0 0 100 100;" xml:space="preserve">
<style type="text/css">
	.st0{fill:none;stroke:#020203;stroke-width:1.4987;stroke-linejoin:round;stroke-miterlimit:10;}
	.st1{fill:none;stroke:#020203;stroke-width:1.4987;stroke-miterlimit:10;}
	.st2{fill:#FCEB25;stroke:#020203;stroke-width:1.4987;stroke-miterlimit:10;}
	.st3{fill:#020203;stroke:#020203;stroke-width:1.4987;stroke-linejoin:round;stroke-miterlimit:10;}
	.st4{fill:none;stroke:#020203;stroke-width:0.8992;stroke-linejoin:round;stroke-miterlimit:10;}
	.st5{fill:none;stroke:#020203;stroke-width:0.8992;stroke-linejoin:round;stroke-miterlimit:10.0003;}
	.st6{fill:none;stroke:#020203;stroke-width:1.4741;stroke-linecap:round;stroke-linejoin:round;stroke-miterlimit:10;}
</style>
<path class="st0" d="M19.97,23.2l7.91-1.56c1.2-0.24,2.4,0.12,3.36,0.9l0,0c1.2,1.08,1.92,2.58,2.04,4.2l0.24,3.12
	c0.12,1.8-0.6,3.6-1.92,4.86l0,0c-0.84,0.78-1.86,1.26-3,1.38c-2.46,0.3-6.83,0.84-6.95,0.84L19.97,23.2z"/>
<path class="st0" d="M77.28,37.53"/>
<path class="st0" d="M67.38,35.43"/>
<path class="st0" d="M67.38,40.59c0.12,2.94,0.18,8.03,1.44,13.19l-0.78,11.87v12.59l-5.58,3.42v3.12h10.91l3.66-21.64
	c0.78-0.84,1.86-2.1,2.82-3.9c1.68-3.18,1.92-6.05,2.1-8.45c0.66-9.59-0.06-13.25-0.36-16.19c0,0-6.89-8.63-14.21,0.84"/>
<path class="st0" d="M82.31,38.07"/>
<line class="st0" x1="25.9" y1="56.83" x2="29.26" y2="48.98"/>
<path class="st0" d="M23.32,55.69"/>
<path class="st0" d="M22.9,54.85l11.99,6.95c2.82,1.14,4.14,4.8,3.36,8.21l-1.62,8.75l4.56,1.8l0.18,4.26L29.8,84.77l-0.06-17.08
	l-10.13-0.06c-2.58,0.12-5.52-1.08-6.47-3.9l0,0c-1.44-4.2-1.08-9.11,0.9-12.89l6.35-11.57c0.96-1.86,2.64-2.7,4.26-2.28l6.65,1.92
	l3.78,5.93l16.55-0.48c0,0,1.98,4.86-2.52,5.46s-13.79,1.56-13.79,1.56s-2.28,0.3-4.98-1.8c-0.66-0.48-2.88-2.64-3.36-3.3"/>
<path class="st1" d="M37.47,78.05"/>
<path class="st2" d="M27.76,86.86"/>
<path class="st3" d="M51.32,43.76l-4.26,0.12c-0.78,0-1.44-0.84-1.44-1.92v-1.56c0-1.08,0.6-1.98,1.38-1.98l4.26-0.12
	c0.78,0,1.44,0.84,1.44,1.92v1.56C52.76,42.86,52.1,43.7,51.32,43.76z"/>
<path class="st3" d="M47.18,38.19l-0.78,0.9c-0.36,0.36-0.96,0.18-1.38-0.48l-1.86-3.06c-0.42-0.72-0.48-1.56-0.12-1.98l0.78-0.84
	c0.36-0.42,0.96-0.18,1.38,0.48l1.86,3.06C47.48,36.93,47.48,37.77,47.18,38.19z"/>
<line class="st4" x1="51.68" y1="37.11" x2="54.14" y2="36.27"/>
<line class="st4" x1="50.96" y1="35.97" x2="52.7" y2="33.75"/>
<ellipse transform="matrix(7.609925e-03 -1 1 7.609925e-03 11.6494 87.4341)" class="st5" cx="49.88" cy="37.85" rx="1.62" ry="1.44"/>
<line class="st4" x1="50.12" y1="35.43" x2="50.12" y2="32.13"/>
<path class="st0" d="M12.23,57.49c0,0-0.3,13.73,7.73,20.5"/>
<path class="st6" d="M15.77,73.08H6l1.5,12.05h3.54l0.84-5.46l7.79,4.44c1.02,0.48,1.92,0.6,2.76,0.36
	c4.8-1.2,2.52-14.51,2.76-16.49"/>
<polyline class="st0" points="76.32,69.24 80.33,73.08 85.55,73.08 91.84,62.23 96.22,63.01 96.82,59.83 89.63,56.29 83.63,64.86 
	81.41,55.09 "/>
<path class="st0" d="M77.28,41.9l-8.15-0.9c-2.7-0.3-5.1-1.98-6.23-4.44l-0.54-1.14c-1.62-3.48-2.22-5.04-2.22-8.87l2.88-2.7
	l2.58,0.24l-1.8,3.6l3.6,7.73l9.35,1.26"/>
<path class="st0" d="M81.17,18.94l-7.01-1.38c-1.08-0.24-2.16,0.06-2.94,0.78l0,0c-1.08,0.96-1.74,2.28-1.8,3.72l-0.18,2.76
	c-0.12,1.62,0.48,3.18,1.68,4.26l0,0c0.72,0.66,1.68,1.08,2.64,1.26c2.22,0.3,6.11,0.78,6.17,0.72L81.17,18.94z"/>
<path class="st3" d="M70.2,19.54c1.02,1.08,2.58,2.52,4.68,3.78c2.1,1.26,4.02,1.92,5.46,2.28c0.3-2.22,0.54-4.44,0.84-6.65
	c-2.52-0.48-5.04-0.96-7.49-1.44c-0.36,0-1.26,0.06-2.22,0.66C70.74,18.65,70.38,19.24,70.2,19.54z"/>
<path class="st3" d="M77.7,14.39c0,2.28,1.26,4.14,2.88,4.14c1.62,0,2.88-1.86,2.88-4.14s-1.26-4.14-2.88-4.14
	C78.95,10.25,77.7,12.11,77.7,14.39z"/>
</svg>
