<?xml version="1.0" encoding="utf-8"?>
<!-- Generator: Adobe Illustrator 22.0.1, SVG Export Plug-In . SVG Version: 6.00 Build 0)  -->
<svg version="1.1" id="Capa_1" xmlns="http://www.w3.org/2000/svg" xmlns:xlink="http://www.w3.org/1999/xlink" x="0px" y="0px"
	 viewBox="0 0 400 140" style="enable-background:new 0 0 400 140;" xml:space="preserve">
<style type="text/css">
	.st0{fill:none;stroke:#000000;stroke-width:0.8623;stroke-miterlimit:10;}
	.st1{fill:none;stroke:#020203;stroke-width:0.8623;stroke-linecap:round;stroke-linejoin:round;stroke-miterlimit:10;}
	.st2{fill:none;stroke:#020203;stroke-width:0.8623;stroke-miterlimit:10;}
	.st3{fill:#FFFFFF;stroke:#020203;stroke-width:0.8623;stroke-linecap:round;stroke-linejoin:round;stroke-miterlimit:10;}
	.st4{fill:#FFFFFF;}
	.st5{fill:#020203;}
	.st6{fill:none;stroke:#000000;stroke-width:0.8623;stroke-linecap:round;stroke-linejoin:round;stroke-miterlimit:10;}
</style>
<g>
	<g>
		<path class="st0" d="M122.3,5.3l5.8-1.6c0.9-0.2,1.8-0.1,2.5,0.5l0,0c1,0.7,1.6,1.8,1.8,3l0.3,2.3c0.2,1.3-0.2,2.7-1.2,3.7l0,0
			c-0.6,0.6-1.3,1-2.2,1.2c-1.8,0.4-5.1,1-5.1,1L122.3,5.3z"/>
		<path class="st0" d="M163.9,15.9l-4.7-1.3c-0.7-0.2-1.5,0-2.1,0.4l0,0c-0.8,0.6-1.3,1.5-1.4,2.5l-0.3,1.9c-0.2,1.1,0.2,2.2,0.9,3
			l0,0c0.5,0.5,1.1,0.8,1.8,1c1.5,0.3,4.1,0.8,4.2,0.8L163.9,15.9z"/>
		<g>
			<path d="M162.8,18.3c0,0.6,0,1.1,0,1.5c0,0.7-0.1,0.9-0.2,1.1c-0.1,0.2-0.3,0.7-0.8,0.8c-0.1,0-0.1,0-0.2,0c-0.4,0-0.8-0.3-1-0.6
				c-0.3-0.6,0.1-1.3,0.2-1.4c0.1-0.2,0.3-0.3,0.8-0.7C161.9,18.9,162.3,18.6,162.8,18.3 M162.8,17.3c-0.2,0-0.4,0.1-0.5,0.2
				l-1.2,0.8c-0.6,0.4-0.9,0.6-1.1,0.9c-0.5,0.8-0.6,1.7-0.2,2.3c0.4,0.7,1.1,1.1,1.8,1.1c0.1,0,0.3,0,0.4,0c0.9-0.2,1.3-1,1.4-1.3
				c0.2-0.4,0.2-0.8,0.3-1.5c0-0.5,0-1,0-1.5c0-0.3-0.2-0.7-0.5-0.8C163.1,17.4,163,17.3,162.8,17.3L162.8,17.3z"/>
		</g>
		<line class="st1" x1="135" y1="9" x2="136.1" y2="8.2"/>
		<line class="st1" x1="135.4" y1="10.7" x2="136.9" y2="10.7"/>
		<line class="st1" x1="134.8" y1="12.2" x2="135.6" y2="13.3"/>
		<path class="st1" d="M131.4,59.5l2.9,1.8l0.1,2.2l-7.1,0L126,49.6l-0.5-3.6c-1.2-8.4-1.9-14.4-3-19c-0.5-2.1-1.4-5.9,0.6-8.3
			c1-1.2,2.4-1.7,3.6-2.1c3-1,5.7-0.6,7.1-0.3l3.4,1.8c0,0,4.1-0.9,5.9-1.6c1.8-0.7,4.7-3.9,4.7-3.9l0.3,3.7l-3,3.1l-10.3,5.1
			c1.1,2.8,2.1,5.9,2.9,9.4c1.2,4.6,1.8,8.8,2.1,12.5L139.2,60l2.6,1.6v1.8l-6.5,0.1l-0.9-18.7l-1.7,0L131.4,59.5z"/>
		<polygon class="st2" points="168.6,63.6 162.3,63.7 162.4,61.8 164.7,60.5 165.7,59.1 160.9,52.4 160,49.7 163.9,44.9 166.4,50.7 
			170.9,60.6 		"/>
		<path class="st2" d="M155.7,42.9l-2.8,5.3c-1.8,4.2,0.4,10.8,0.4,10.8l-1.6,1.3l-3,1.7v1.8l8.6,0.1l0.3-11.2c0,0,2.9-3.3,5.3-6.4
			c0,0,4.6-5,2.7-8.4c-1.6-3.9-2.5-11-2.5-11c-2.3-2.4-5.6-2.7-7.4-1.1c-1.6,1.4-1.4,3.8-1.4,4.1L155.7,42.9z"/>
		<path class="st1" d="M123.4,31.3c0.5,0.2,3.4-1,6.8-2.8c0.4-0.2,3.7-2.1,4.4-6c0.3-1.7,0.1-3.5-0.1-4.3l-1.9-0.8l-1.6,2l0.2,3.6
			l-5.1,1.8l-1.8-2.7"/>
		<path class="st3" d="M161.7,30.9l-0.7,0.3c-2.1,0.8-4.4,0-5.5-1.9l-4.2-6.9l-0.2-2.9l2.5-0.4l0.1,1.7l5,6.2l2.6-1.5"/>
	</g>
	<g>
		<path class="st0" d="M64,5.3l5.8-1.6c0.9-0.2,1.8-0.1,2.5,0.5l0,0c1,0.7,1.6,1.8,1.8,3l0.3,2.3c0.2,1.3-0.2,2.7-1.2,3.7l0,0
			c-0.6,0.6-1.3,1-2.2,1.2c-1.8,0.4-5.1,1-5.1,1L64,5.3z"/>
		<path class="st0" d="M105.6,15.9l-4.7-1.3c-0.7-0.2-1.5,0-2.1,0.4l0,0c-0.8,0.6-1.3,1.5-1.4,2.5l-0.3,1.9c-0.2,1.1,0.2,2.2,0.9,3
			l0,0c0.5,0.5,1.1,0.8,1.8,1c1.5,0.3,4.1,0.8,4.2,0.8L105.6,15.9z"/>
		<g>
			<path class="st4" d="M103.4,22.2c-0.6,0-1.1-0.3-1.4-0.8c-0.3-0.5-0.3-1.2,0.2-1.9c0.2-0.3,0.4-0.4,0.9-0.8l1.2-0.8
				c0.1-0.1,0.2-0.1,0.3-0.1c0.1,0,0.2,0,0.2,0.1c0.2,0.1,0.3,0.2,0.3,0.4c0,0.6,0,1.1,0,1.5c0,0.7-0.1,1-0.2,1.3
				c-0.1,0.3-0.4,0.9-1.1,1C103.6,22.1,103.5,22.2,103.4,22.2L103.4,22.2z"/>
			<path class="st5" d="M104.6,18.3c0,0.6,0,1.1,0,1.5c0,0.7-0.1,0.9-0.2,1.1c-0.1,0.2-0.3,0.7-0.8,0.8c-0.1,0-0.1,0-0.2,0
				c-0.4,0-0.8-0.3-1-0.6c-0.3-0.6,0.1-1.3,0.2-1.4c0.1-0.2,0.3-0.3,0.8-0.7C103.6,18.9,104,18.6,104.6,18.3 M104.6,17.3
				c-0.2,0-0.4,0.1-0.5,0.2l-1.2,0.8c-0.6,0.4-0.9,0.6-1.1,0.9c-0.5,0.8-0.6,1.7-0.2,2.3c0.4,0.7,1.1,1.1,1.8,1.1c0.1,0,0.3,0,0.4,0
				c0.9-0.2,1.3-1,1.4-1.3c0.2-0.4,0.2-0.8,0.3-1.5c0-0.5,0-1,0-1.5c0-0.3-0.2-0.7-0.5-0.8C104.9,17.4,104.7,17.3,104.6,17.3
				L104.6,17.3z"/>
		</g>
		<line class="st1" x1="76.7" y1="9" x2="77.8" y2="8.2"/>
		<line class="st1" x1="77.2" y1="10.7" x2="78.6" y2="10.7"/>
		<line class="st1" x1="76.5" y1="12.2" x2="77.3" y2="13.3"/>
		<path class="st1" d="M73.1,59.5l2.9,1.8l0.1,2.2l-7.1,0l-1.4-13.9L67.2,46c-1.2-8.4-1.9-14.4-3-19c-0.5-2.1-1.4-5.9,0.6-8.3
			c1-1.2,2.4-1.7,3.6-2.1c3-1,5.7-0.6,7.1-0.3l3.4,1.8c0,0,4.1-0.9,5.9-1.6c1.8-0.7,4.7-3.9,4.7-3.9l0.3,3.7l-3,3.1l-10.3,5.1
			c1.1,2.8,2.1,5.9,2.9,9.4c1.2,4.6,1.8,8.8,2.1,12.5L81,60l2.6,1.7v1.8l-6.5,0.1l-0.9-18.7l-1.7,0L73.1,59.5z"/>
		<polygon class="st2" points="110.3,63.6 104,63.7 104.1,61.8 106.4,60.5 107.4,59.1 102.6,52.4 101.8,49.7 105.6,44.9 108.2,50.7 
			112.6,60.6 		"/>
		<path class="st2" d="M97.4,42.9l-2.8,5.3C92.9,52.3,95,58.9,95,58.9l-1.6,1.3l-3,1.7v1.8l8.6,0.1l0.3-11.2c0,0,2.9-3.3,5.3-6.4
			c0,0,4.6-5,2.7-8.4c-1.6-3.9-2.5-11-2.5-11c-2.3-2.4-5.6-2.7-7.4-1.1c-1.6,1.4-1.4,3.8-1.4,4.1L97.4,42.9z"/>
		<path class="st1" d="M65.2,31.3c0.5,0.2,3.4-1,6.8-2.8c0.4-0.2,3.7-2.1,4.4-6c0.3-1.7,0.1-3.5-0.1-4.3l-1.9-0.8l-1.6,2l0.2,3.6
			l-5.1,1.8L66,22.1"/>
		<path class="st3" d="M103.4,30.9l-0.7,0.3c-2.1,0.8-4.4,0-5.5-1.9l-4.2-6.9l-0.2-2.9l2.5-0.4l0.1,1.7l5,6.2l2.6-1.5"/>
	</g>
	<g>
		<path class="st0" d="M6.4,5.3l5.8-1.6c0.9-0.2,1.8-0.1,2.5,0.5l0,0c1,0.7,1.6,1.8,1.8,3l0.3,2.3c0.2,1.3-0.2,2.7-1.2,3.7l0,0
			c-0.6,0.6-1.3,1-2.2,1.2c-1.8,0.4-5.1,1-5.1,1L6.4,5.3z"/>
		<path class="st0" d="M48.1,15.9l-4.7-1.3c-0.7-0.2-1.5,0-2.1,0.4l0,0c-0.8,0.6-1.3,1.5-1.4,2.5l-0.3,1.9c-0.2,1.1,0.2,2.2,0.9,3
			l0,0c0.5,0.5,1.1,0.8,1.8,1c1.5,0.3,4.1,0.8,4.2,0.8L48.1,15.9z"/>
		<g>
			<path class="st4" d="M45.8,22.2c-0.6,0-1.1-0.3-1.4-0.8c-0.3-0.5-0.3-1.2,0.2-1.9c0.2-0.3,0.4-0.4,1-0.8l1.2-0.8
				c0.1-0.1,0.2-0.1,0.3-0.1c0.1,0,0.2,0,0.2,0.1c0.2,0.1,0.3,0.2,0.3,0.4c0,0.6,0,1.1,0,1.5c0,0.7-0.1,1-0.2,1.3
				c-0.1,0.3-0.4,0.9-1.1,1C46,22.1,45.9,22.2,45.8,22.2L45.8,22.2z"/>
			<path class="st5" d="M47,18.3c0,0.6,0,1.1,0,1.5c0,0.7-0.1,0.9-0.2,1.1c-0.1,0.2-0.3,0.7-0.8,0.8c-0.1,0-0.1,0-0.2,0
				c-0.4,0-0.8-0.3-1-0.6c-0.3-0.6,0.1-1.3,0.2-1.4c0.1-0.2,0.3-0.3,0.8-0.7C46.1,18.9,46.5,18.6,47,18.3 M47,17.3
				c-0.2,0-0.4,0.1-0.5,0.2l-1.2,0.8c-0.6,0.4-0.9,0.6-1.1,0.9c-0.5,0.8-0.6,1.7-0.2,2.3c0.4,0.7,1.1,1.1,1.8,1.1c0.1,0,0.3,0,0.4,0
				c0.9-0.2,1.3-1,1.4-1.3c0.2-0.4,0.2-0.8,0.3-1.5c0-0.5,0-1,0-1.5c0-0.3-0.2-0.7-0.5-0.8C47.3,17.4,47.1,17.3,47,17.3L47,17.3z"/>
		</g>
		<line class="st1" x1="19.2" y1="9" x2="20.3" y2="8.2"/>
		<line class="st1" x1="19.6" y1="10.7" x2="21" y2="10.7"/>
		<line class="st1" x1="18.9" y1="12.2" x2="19.7" y2="13.3"/>
		<path class="st1" d="M15.6,59.5l2.9,1.8l0.1,2.2l-7.1,0l-1.4-13.9L9.6,46c-1.2-8.4-1.9-14.4-3-19c-0.5-2.1-1.4-5.9,0.6-8.3
			c1-1.2,2.4-1.7,3.6-2.1c3-1,5.7-0.6,7.1-0.3l3.4,1.8c0,0,4.1-0.9,5.9-1.6c1.8-0.7,4.7-3.9,4.7-3.9l0.3,3.7l-3,3.1l-10.3,5.1
			c1.1,2.8,2.1,5.9,2.9,9.4c1.2,4.6,1.8,8.8,2.1,12.5L23.4,60l2.6,1.6v1.8l-6.5,0.1l-0.9-18.7l-1.7,0L15.6,59.5z"/>
		<polygon class="st2" points="52.7,63.6 46.4,63.7 46.5,61.8 48.9,60.5 49.8,59.1 45.1,52.4 44.2,49.7 48.1,44.9 50.6,50.7 
			55,60.6 		"/>
		<path class="st2" d="M39.9,42.9l-2.8,5.3c-1.8,4.2,0.4,10.8,0.4,10.8l-1.6,1.3l-3,1.7v1.8l8.6,0.1l0.3-11.2c0,0,2.9-3.3,5.3-6.4
			c0,0,4.6-5,2.7-8.4c-1.6-3.9-2.5-11-2.5-11c-2.3-2.4-5.6-2.7-7.4-1.1c-1.6,1.4-1.4,3.8-1.4,4.1L39.9,42.9z"/>
		<path class="st1" d="M7.6,31.3c0.5,0.2,3.4-1,6.8-2.8c0.4-0.2,3.7-2.1,4.4-6c0.3-1.7,0.1-3.5-0.1-4.3l-1.9-0.8l-1.6,2l0.2,3.6
			l-5.1,1.8l-1.8-2.7"/>
		<path class="st3" d="M45.8,30.9l-0.7,0.3c-2.1,0.8-4.4,0-5.5-1.9l-4.2-6.9l-0.2-2.9l2.5-0.4l0.1,1.7l5,6.2l2.6-1.5"/>
	</g>
</g>
<g>
	<path class="st0" d="M47.4,86.8l-4.7-1.3c-0.7-0.2-1.5,0-2.1,0.4l0,0c-0.8,0.6-1.3,1.5-1.4,2.5l-0.3,1.9c-0.2,1.1,0.2,2.2,0.9,3
		l0,0c0.5,0.5,1.1,0.8,1.8,1c1.5,0.3,4.1,0.8,4.2,0.8L47.4,86.8z"/>
	<g>
		<path class="st4" d="M45.1,93.1c-0.6,0-1.1-0.3-1.4-0.8c-0.3-0.5-0.3-1.2,0.2-1.9c0.2-0.3,0.4-0.4,0.9-0.8l1.2-0.8
			c0.1-0.1,0.2-0.1,0.3-0.1c0.1,0,0.2,0,0.2,0.1c0.2,0.1,0.3,0.2,0.3,0.4c0,0.6,0,1.1,0,1.5c0,0.7-0.1,1-0.2,1.3
			c-0.1,0.3-0.4,0.9-1.1,1C45.3,93.1,45.2,93.1,45.1,93.1L45.1,93.1z"/>
		<path class="st5" d="M46.3,89.2c0,0.6,0,1.1,0,1.5c0,0.7-0.1,0.9-0.2,1.1c-0.1,0.2-0.3,0.7-0.8,0.8c-0.1,0-0.1,0-0.2,0
			c-0.4,0-0.8-0.3-1-0.6c-0.3-0.6,0.1-1.3,0.2-1.4c0.1-0.2,0.3-0.3,0.8-0.7C45.4,89.8,45.8,89.6,46.3,89.2 M46.3,88.3
			c-0.2,0-0.4,0.1-0.5,0.2c-0.5,0.3-0.9,0.6-1.2,0.8c-0.6,0.4-0.9,0.6-1.1,0.9c-0.5,0.8-0.6,1.7-0.2,2.3c0.4,0.7,1.1,1.1,1.8,1.1
			c0.1,0,0.3,0,0.4,0c0.9-0.2,1.3-1,1.4-1.3c0.2-0.4,0.2-0.8,0.3-1.5c0-0.5,0-1,0-1.5c0-0.3-0.2-0.7-0.5-0.8
			C46.6,88.3,46.5,88.3,46.3,88.3L46.3,88.3z"/>
	</g>
	<polygon class="st2" points="52,134.5 45.7,134.6 45.8,132.8 48.2,131.4 49.1,130.1 44.4,123.3 43.5,120.6 47.4,115.9 49.9,121.6 
		54.3,131.5 	"/>
	<path class="st2" d="M39.2,113.8l-2.8,5.3c-1.8,4.2,0.4,10.8,0.4,10.8l-1.6,1.3l-3,1.7v1.8l8.6,0.1l0.3-11.2c0,0,2.9-3.3,5.3-6.4
		c0,0,4.6-5,2.7-8.4c-1.6-3.9-2.5-11-2.5-11c-2.3-2.4-5.6-2.7-7.4-1.1c-1.6,1.4-1.4,3.8-1.4,4.1L39.2,113.8z"/>
	<path class="st3" d="M45.1,101.9l-0.7,0.3c-2.1,0.8-4.4,0-5.5-1.9l-4.2-6.9l-0.2-2.9L37,90l0.1,1.7l5,6.2l2.6-1.5"/>
	<path class="st0" d="M13.4,77.5l5.6-0.4c0.8-0.1,1.7,0.3,2.2,0.9l0,0c0.8,0.9,1.1,2,1.1,3.1l-0.1,2.2c-0.1,1.3-0.7,2.4-1.7,3.2l0,0
		c-0.6,0.5-1.4,0.7-2.2,0.7c-1.8,0-4.9,0-4.9,0C13.4,87.2,13.4,77.5,13.4,77.5z"/>
	<path class="st6" d="M10.1,103.6v31.1h5.7v-2l-2.4-1.3l2.4-14l3.3-1l0.9,2l2.3,16.3h5.6v-2l-2.3-1.6l1-12.3
		c0.1-1.1,0.1-2.2-0.2-3.2l-2.4-9.9l0.8-11.4l3.3-3.6c1.3-1.4,2.3-2.9,3.3-4.5v-7.1c0-1.1-0.4-2.2-1.1-3.1l-1.1-1.4h-2.5L26,78.1
		l2.3,1L27,85.4L21,88.8h-5c-2,0-3.9,0.3-5.8,0.9l0,0c-1,0.3-2,1-2.6,1.9c-0.6,0.8-0.9,1.9-0.9,2.9v3.1c0,1.2,0.3,2.3,0.9,3.3
		C8.1,102.1,9,103,10.1,103.6l5.7,3.3l2.2-0.5l0.7-2l-7.3-4.9v-4.8"/>
</g>
<g>
	<path class="st0" d="M105,86.8l-4.7-1.3c-0.7-0.2-1.5,0-2.1,0.4l0,0c-0.8,0.6-1.3,1.5-1.4,2.5l-0.3,1.9c-0.2,1.1,0.2,2.2,0.9,3l0,0
		c0.5,0.5,1.1,0.8,1.8,1c1.5,0.3,4.1,0.8,4.2,0.8L105,86.8z"/>
	<g>
		<path class="st4" d="M102.7,93.1c-0.6,0-1.1-0.3-1.4-0.8c-0.3-0.5-0.3-1.2,0.2-1.9c0.2-0.3,0.4-0.4,1-0.8l1.2-0.8
			c0.1-0.1,0.2-0.1,0.3-0.1c0.1,0,0.2,0,0.2,0.1c0.2,0.1,0.3,0.2,0.3,0.4c0,0.6,0,1.1,0,1.5c0,0.7-0.1,1-0.2,1.3
			c-0.1,0.3-0.4,0.9-1.1,1C102.9,93.1,102.8,93.1,102.7,93.1z"/>
		<path class="st5" d="M103.9,89.2c0,0.6,0,1.1,0,1.5c0,0.7-0.1,0.9-0.2,1.1c-0.1,0.2-0.3,0.7-0.8,0.8c-0.1,0-0.1,0-0.2,0
			c-0.4,0-0.8-0.3-1-0.6c-0.3-0.6,0.1-1.3,0.2-1.4c0.1-0.2,0.3-0.3,0.8-0.7C102.9,89.8,103.3,89.6,103.9,89.2 M103.9,88.3
			c-0.2,0-0.4,0.1-0.5,0.2c-0.5,0.3-0.9,0.6-1.2,0.8c-0.6,0.4-0.9,0.6-1.1,0.9c-0.5,0.8-0.6,1.7-0.2,2.3c0.4,0.7,1.1,1.1,1.8,1.1
			c0.1,0,0.3,0,0.4,0c0.9-0.2,1.3-1,1.4-1.3c0.2-0.4,0.2-0.8,0.3-1.5c0-0.5,0-1,0-1.5c0-0.3-0.2-0.7-0.5-0.8
			C104.2,88.3,104,88.3,103.9,88.3L103.9,88.3z"/>
	</g>
	<polygon class="st2" points="109.6,134.5 103.3,134.6 103.4,132.8 105.7,131.4 106.7,130.1 102,123.3 101.1,120.6 105,115.9 
		107.5,121.6 111.9,131.5 	"/>
	<path class="st2" d="M96.8,113.8l-2.8,5.3c-1.8,4.2,0.4,10.8,0.4,10.8l-1.6,1.3l-3,1.7v1.8l8.6,0.1l0.3-11.2c0,0,2.9-3.3,5.3-6.4
		c0,0,4.6-5,2.7-8.4c-1.6-3.9-2.5-11-2.5-11c-2.3-2.4-5.6-2.7-7.4-1.1c-1.6,1.4-1.4,3.8-1.4,4.1L96.8,113.8z"/>
	<path class="st3" d="M102.7,101.9l-0.7,0.3c-2.1,0.8-4.4,0-5.5-1.9l-4.2-6.9L92,90.4l2.5-0.4l0.1,1.7l5,6.2l2.6-1.5"/>
	<path class="st0" d="M71,77.5l5.6-0.4c0.8-0.1,1.7,0.3,2.2,0.9l0,0c0.8,0.9,1.1,2,1.1,3.1l-0.1,2.2c-0.1,1.3-0.7,2.4-1.7,3.2l0,0
		c-0.6,0.5-1.4,0.7-2.2,0.7c-1.8,0-4.9,0-4.9,0C71,87.2,71,77.5,71,77.5z"/>
	<path class="st6" d="M67.6,103.6v31.1h5.7v-2l-2.4-1.3l2.4-14l3.3-1l0.9,2l2.3,16.3h5.6v-2l-2.3-1.6l1-12.3
		c0.1-1.1,0.1-2.2-0.2-3.2l-2.4-9.9l0.8-11.4l3.3-3.6c1.3-1.4,2.3-2.9,3.3-4.5v-7.1c0-1.1-0.4-2.2-1.1-3.1l-1.1-1.4h-2.5l-0.8,3.4
		l2.3,1l-1.3,6.4l-6.1,3.4h-5c-2,0-3.9,0.3-5.8,0.9l0,0c-1,0.3-2,1-2.6,1.9c-0.6,0.8-0.9,1.9-0.9,2.9v3.1c0,1.2,0.3,2.3,0.9,3.3
		C65.7,102.1,66.5,103,67.6,103.6l5.7,3.3l2.2-0.5l0.7-2l-7.3-4.9v-4.8"/>
</g>
<g>
	<path class="st0" d="M163.2,86.8l-4.7-1.3c-0.7-0.2-1.5,0-2.1,0.4l0,0c-0.8,0.6-1.3,1.5-1.4,2.5l-0.3,1.9c-0.2,1.1,0.2,2.2,0.9,3
		l0,0c0.5,0.5,1.1,0.8,1.8,1c1.5,0.3,4.1,0.8,4.2,0.8L163.2,86.8z"/>
	<g>
		<path class="st4" d="M161,93.1c-0.6,0-1.1-0.3-1.4-0.8c-0.3-0.5-0.3-1.2,0.2-1.9c0.2-0.3,0.4-0.4,1-0.8l1.2-0.8
			c0.1-0.1,0.2-0.1,0.3-0.1c0.1,0,0.2,0,0.2,0.1c0.2,0.1,0.3,0.2,0.3,0.4c0,0.6,0,1.1,0,1.5c0,0.7-0.1,1-0.2,1.3
			c-0.1,0.3-0.4,0.9-1.1,1C161.2,93.1,161.1,93.1,161,93.1z"/>
		<path class="st5" d="M162.1,89.2c0,0.6,0,1.1,0,1.5c0,0.7-0.1,0.9-0.2,1.1c-0.1,0.2-0.3,0.7-0.8,0.8c-0.1,0-0.1,0-0.2,0
			c-0.4,0-0.8-0.3-1-0.6c-0.3-0.6,0.1-1.3,0.2-1.4c0.1-0.2,0.3-0.3,0.8-0.7C161.2,89.8,161.6,89.6,162.1,89.2 M162.1,88.3
			c-0.2,0-0.4,0.1-0.5,0.2c-0.5,0.3-0.9,0.6-1.2,0.8c-0.6,0.4-0.9,0.6-1.1,0.9c-0.5,0.8-0.6,1.7-0.2,2.3c0.4,0.7,1.1,1.1,1.8,1.1
			c0.1,0,0.3,0,0.4,0c0.9-0.2,1.3-1,1.4-1.3c0.2-0.4,0.2-0.8,0.3-1.5c0-0.5,0-1,0-1.5c0-0.3-0.2-0.7-0.5-0.8
			C162.5,88.3,162.3,88.3,162.1,88.3L162.1,88.3z"/>
	</g>
	<polygon class="st2" points="167.9,134.5 161.6,134.6 161.7,132.8 164,131.4 165,130.1 160.2,123.3 159.4,120.6 163.2,115.9 
		165.7,121.6 170.2,131.5 	"/>
	<path class="st2" d="M155,113.8l-2.8,5.3c-1.8,4.2,0.4,10.8,0.4,10.8l-1.6,1.3l-3,1.7v1.8l8.6,0.1l0.3-11.2c0,0,2.9-3.3,5.3-6.4
		c0,0,4.6-5,2.7-8.4c-1.6-3.9-2.5-11-2.5-11c-2.3-2.4-5.6-2.7-7.4-1.1c-1.6,1.4-1.4,3.8-1.4,4.1L155,113.8z"/>
	<path class="st3" d="M161,101.9l-0.7,0.3c-2.1,0.8-4.4,0-5.5-1.9l-4.2-6.9l-0.2-2.9l2.5-0.4l0.1,1.7l5,6.2l2.6-1.5"/>
	<path class="st0" d="M129.2,77.5l5.6-0.4c0.8-0.1,1.7,0.3,2.2,0.9l0,0c0.8,0.9,1.1,2,1.1,3.1l-0.1,2.2c-0.1,1.3-0.7,2.4-1.7,3.2
		l0,0c-0.6,0.5-1.4,0.7-2.2,0.7c-1.8,0-4.9,0-4.9,0V77.5z"/>
	<path class="st6" d="M125.9,103.6v31.1h5.7v-2l-2.4-1.3l2.4-14l3.3-1l0.9,2l2.3,16.3h5.6v-2l-2.3-1.6l1-12.3
		c0.1-1.1,0.1-2.2-0.2-3.2l-2.4-9.9l0.8-11.4l3.3-3.6c1.3-1.4,2.3-2.9,3.3-4.5v-7.1c0-1.1-0.4-2.2-1.1-3.1l-1.1-1.4h-2.5l-0.8,3.4
		l2.3,1l-1.3,6.4l-6.1,3.4h-5c-2,0-3.9,0.3-5.8,0.9l0,0c-1,0.3-2,1-2.6,1.9c-0.6,0.8-0.9,1.9-0.9,2.9v3.1c0,1.2,0.3,2.3,0.9,3.3
		C123.9,102.1,124.8,103,125.9,103.6l5.7,3.3l2.2-0.5l0.7-2l-7.3-4.9v-4.8"/>
</g>
<g>
	<path class="st0" d="M388.8,86.8l-4.7-1.3c-0.7-0.2-1.5,0-2.1,0.4l0,0c-0.8,0.6-1.3,1.5-1.4,2.5l-0.3,1.9c-0.2,1.1,0.2,2.2,0.9,3
		l0,0c0.5,0.5,1.1,0.8,1.8,1c1.5,0.3,4.1,0.8,4.2,0.8L388.8,86.8z"/>
	<g>
		<path class="st4" d="M386.5,93.1c-0.6,0-1.1-0.3-1.4-0.8c-0.3-0.5-0.3-1.2,0.2-1.8c0.2-0.3,0.4-0.4,0.9-0.8l1.2-0.8
			c0.1-0.1,0.2-0.1,0.3-0.1c0.1,0,0.2,0,0.2,0.1c0.2,0.1,0.3,0.2,0.3,0.4c0,0.6,0,1.1,0,1.5c0,0.7-0.1,1-0.2,1.3
			c-0.1,0.3-0.4,0.9-1.1,1C386.7,93.1,386.6,93.1,386.5,93.1L386.5,93.1z"/>
		<path class="st5" d="M387.7,89.2c0,0.6,0,1.1,0,1.5c0,0.7-0.1,0.9-0.2,1.1c-0.1,0.2-0.3,0.7-0.8,0.8c-0.1,0-0.1,0-0.2,0
			c-0.4,0-0.8-0.3-1-0.6c-0.3-0.6,0.1-1.3,0.2-1.4c0.1-0.2,0.3-0.3,0.8-0.7C386.7,89.8,387.2,89.6,387.7,89.2 M387.7,88.3
			c-0.2,0-0.4,0.1-0.5,0.2c-0.5,0.3-0.9,0.6-1.2,0.8c-0.6,0.4-0.9,0.6-1.1,0.9c-0.5,0.8-0.6,1.7-0.2,2.3c0.4,0.7,1.1,1.1,1.8,1.1
			c0.1,0,0.3,0,0.4,0c0.9-0.2,1.3-1,1.4-1.3c0.2-0.4,0.2-0.8,0.3-1.5c0-0.5,0-1,0-1.5c0-0.3-0.2-0.7-0.5-0.8
			C388,88.3,387.8,88.3,387.7,88.3L387.7,88.3z"/>
	</g>
	<polygon class="st2" points="393.4,134.5 387.1,134.6 387.2,132.8 389.5,131.4 390.5,130.1 385.8,123.3 384.9,120.6 388.8,115.9 
		391.3,121.6 395.7,131.5 	"/>
	<path class="st2" d="M380.6,113.8l-2.8,5.3c-1.8,4.2,0.4,10.8,0.4,10.8l-1.6,1.3l-3,1.7v1.8l8.6,0.1l0.3-11.2c0,0,2.9-3.3,5.3-6.4
		c0,0,4.6-5,2.7-8.4c-1.6-3.9-2.5-11-2.5-11c-2.3-2.4-5.6-2.7-7.4-1.1c-1.6,1.4-1.4,3.8-1.4,4.1L380.6,113.8z"/>
	<path class="st3" d="M386.5,101.9l-0.7,0.3c-2.1,0.8-4.4,0-5.5-1.9l-4.2-6.9l-0.2-2.9l2.5-0.4l0.1,1.7l5,6.2l2.6-1.5"/>
	<path class="st0" d="M354.8,77.5l5.6-0.4c0.8-0.1,1.7,0.3,2.2,0.9l0,0c0.8,0.9,1.1,2,1.1,3.1l-0.1,2.2c-0.1,1.3-0.7,2.4-1.7,3.2
		l0,0c-0.6,0.5-1.4,0.7-2.2,0.7c-1.8,0-4.9,0-4.9,0V77.5z"/>
	<path class="st6" d="M351.4,103.6v31.1h5.7v-2l-2.4-1.3l2.4-14l3.3-1l0.9,2l2.3,16.3h5.6v-2l-2.3-1.6l1-12.3
		c0.1-1.1,0.1-2.2-0.2-3.2l-2.4-9.9l0.8-11.4l3.3-3.6c1.3-1.4,2.3-2.9,3.3-4.5v-7.1c0-1.1-0.4-2.2-1.1-3.1l-1.1-1.4h-2.5l-0.8,3.4
		l2.3,1l-1.3,6.4l-6.1,3.4h-5c-2,0-3.9,0.3-5.8,0.9l0,0c-1,0.3-2,1-2.6,1.9c-0.6,0.8-0.9,1.9-0.9,2.9v3.1c0,1.2,0.3,2.3,0.9,3.3
		C349.5,102.1,350.3,103,351.4,103.6l5.7,3.3l2.2-0.5l0.7-2l-7.3-4.9v-4.8"/>
</g>
<g>
	<path class="st0" d="M222.3,86.8l-4.7-1.3c-0.7-0.2-1.5,0-2.1,0.4l0,0c-0.8,0.6-1.3,1.5-1.4,2.5l-0.3,1.9c-0.2,1.1,0.2,2.2,0.9,3
		l0,0c0.5,0.5,1.1,0.8,1.8,1c1.5,0.3,4.1,0.8,4.2,0.8L222.3,86.8z"/>
	<g>
		<path class="st4" d="M220,93.1c-0.6,0-1.1-0.3-1.4-0.8c-0.3-0.5-0.3-1.2,0.2-1.8c0.2-0.3,0.4-0.4,0.9-0.8l1.2-0.8
			c0.1-0.1,0.2-0.1,0.3-0.1c0.1,0,0.2,0,0.2,0.1c0.2,0.1,0.3,0.2,0.3,0.4c0,0.6,0,1.1,0,1.5c0,0.7-0.1,1-0.2,1.3
			c-0.1,0.3-0.4,0.9-1.1,1C220.2,93.1,220.1,93.1,220,93.1L220,93.1z"/>
		<path class="st5" d="M221.2,89.2c0,0.6,0,1.1,0,1.5c0,0.7-0.1,0.9-0.2,1.1c-0.1,0.2-0.3,0.7-0.8,0.8c-0.1,0-0.1,0-0.2,0
			c-0.4,0-0.8-0.3-1-0.6c-0.3-0.6,0.1-1.3,0.2-1.4c0.1-0.2,0.3-0.3,0.8-0.7C220.3,89.8,220.7,89.6,221.2,89.2 M221.2,88.3
			c-0.2,0-0.4,0.1-0.5,0.2c-0.5,0.3-0.9,0.6-1.2,0.8c-0.6,0.4-0.9,0.6-1.1,0.9c-0.5,0.8-0.6,1.7-0.2,2.3c0.4,0.7,1.1,1.1,1.8,1.1
			c0.1,0,0.3,0,0.4,0c0.9-0.2,1.3-1,1.4-1.3c0.2-0.4,0.2-0.8,0.3-1.5c0-0.5,0-1,0-1.5c0-0.3-0.2-0.7-0.5-0.8
			C221.5,88.3,221.4,88.3,221.2,88.3L221.2,88.3z"/>
	</g>
	<polygon class="st2" points="227,134.5 220.7,134.6 220.7,132.8 223.1,131.4 224,130.1 219.3,123.3 218.4,120.6 222.3,115.9 
		224.8,121.6 229.3,131.5 	"/>
	<path class="st2" d="M214.1,113.8l-2.8,5.3c-1.8,4.2,0.4,10.8,0.4,10.8l-1.6,1.3l-3,1.7v1.8l8.6,0.1l0.3-11.2c0,0,2.9-3.3,5.3-6.4
		c0,0,4.6-5,2.7-8.4c-1.6-3.9-2.5-11-2.5-11c-2.3-2.4-5.6-2.7-7.4-1.1c-1.6,1.4-1.4,3.8-1.4,4.1L214.1,113.8z"/>
	<path class="st3" d="M220.1,101.9l-0.7,0.3c-2.1,0.8-4.4,0-5.5-1.9l-4.2-6.9l-0.2-2.9l2.5-0.4l0.1,1.7l5,6.2l2.6-1.5"/>
	<path class="st0" d="M188.3,77.5l5.6-0.4c0.8-0.1,1.7,0.3,2.2,0.9l0,0c0.8,0.9,1.1,2,1.1,3.1l-0.1,2.2c-0.1,1.3-0.7,2.4-1.7,3.2
		l0,0c-0.6,0.5-1.4,0.7-2.2,0.7c-1.8,0-4.9,0-4.9,0V77.5z"/>
	<path class="st6" d="M185,103.6v31.1h5.7v-2l-2.4-1.3l2.4-14l3.3-1l0.9,2l2.3,16.3h5.6v-2l-2.3-1.6l1-12.3c0.1-1.1,0.1-2.2-0.2-3.2
		l-2.4-9.9l0.8-11.4l3.3-3.6c1.3-1.4,2.3-2.9,3.3-4.5v-7.1c0-1.1-0.4-2.2-1.1-3.1l-1.1-1.4h-2.5l-0.8,3.4l2.3,1l-1.3,6.4l-6.1,3.4
		h-5c-2,0-3.9,0.3-5.8,0.9l0,0c-1,0.3-2,1-2.6,1.9c-0.6,0.8-0.9,1.9-0.9,2.9v3.1c0,1.2,0.3,2.3,0.9,3.3
		C183,102.1,183.9,103,185,103.6l5.7,3.3l2.2-0.5l0.7-2l-7.3-4.9v-4.8"/>
</g>
<g>
	<path class="st0" d="M277.8,86.8l-4.7-1.3c-0.7-0.2-1.5,0-2.1,0.4l0,0c-0.8,0.6-1.3,1.5-1.4,2.5l-0.3,1.9c-0.2,1.1,0.2,2.2,0.9,3
		l0,0c0.5,0.5,1.1,0.8,1.8,1c1.5,0.3,4.1,0.8,4.2,0.8L277.8,86.8z"/>
	<g>
		<path class="st4" d="M275.5,93.1c-0.6,0-1.1-0.3-1.4-0.8c-0.3-0.5-0.3-1.2,0.2-1.8c0.2-0.3,0.4-0.4,0.9-0.8l1.2-0.8
			c0.1-0.1,0.2-0.1,0.3-0.1c0.1,0,0.2,0,0.2,0.1c0.2,0.1,0.3,0.2,0.3,0.4c0,0.6,0,1.1,0,1.5c0,0.7-0.1,1-0.2,1.3
			c-0.1,0.3-0.4,0.9-1.1,1C275.7,93.1,275.6,93.1,275.5,93.1L275.5,93.1z"/>
		<path class="st5" d="M276.7,89.2c0,0.6,0,1.1,0,1.5c0,0.7-0.1,0.9-0.2,1.1c-0.1,0.2-0.3,0.7-0.8,0.8c-0.1,0-0.1,0-0.2,0
			c-0.4,0-0.8-0.3-1-0.6c-0.3-0.6,0.1-1.3,0.2-1.4c0.1-0.2,0.3-0.3,0.8-0.7C275.8,89.8,276.2,89.6,276.7,89.2 M276.7,88.3
			c-0.2,0-0.4,0.1-0.5,0.2c-0.5,0.3-0.9,0.6-1.2,0.8c-0.6,0.4-0.9,0.6-1.1,0.9c-0.5,0.8-0.6,1.7-0.2,2.3c0.4,0.7,1.1,1.1,1.8,1.1
			c0.1,0,0.3,0,0.4,0c0.9-0.2,1.3-1,1.4-1.3c0.2-0.4,0.2-0.8,0.3-1.5c0-0.5,0-1,0-1.5c0-0.3-0.2-0.7-0.5-0.8
			C277,88.3,276.9,88.3,276.7,88.3L276.7,88.3z"/>
	</g>
	<polygon class="st2" points="282.4,134.5 276.2,134.6 276.2,132.8 278.6,131.4 279.5,130.1 274.8,123.3 273.9,120.6 277.8,115.9 
		280.3,121.6 284.7,131.5 	"/>
	<path class="st2" d="M269.6,113.8l-2.8,5.3c-1.8,4.2,0.4,10.8,0.4,10.8l-1.6,1.3l-3,1.7v1.8l8.6,0.1l0.3-11.2c0,0,2.9-3.3,5.3-6.4
		c0,0,4.6-5,2.7-8.4c-1.6-3.9-2.5-11-2.5-11c-2.3-2.4-5.6-2.7-7.4-1.1c-1.6,1.4-1.4,3.8-1.4,4.1L269.6,113.8z"/>
	<path class="st3" d="M275.5,101.9l-0.7,0.3c-2.1,0.8-4.4,0-5.5-1.9l-4.2-6.9l-0.2-2.9l2.5-0.4l0.1,1.7l5,6.2l2.6-1.5"/>
	<path class="st0" d="M243.8,77.5l5.6-0.4c0.8-0.1,1.7,0.3,2.2,0.9l0,0c0.8,0.9,1.1,2,1.1,3.1l-0.1,2.2c-0.1,1.3-0.7,2.4-1.7,3.2
		l0,0c-0.6,0.5-1.4,0.7-2.2,0.7c-1.8,0-4.9,0-4.9,0V77.5z"/>
	<path class="st6" d="M240.5,103.6v31.1h5.7v-2l-2.4-1.3l2.4-14l3.3-1l0.9,2l2.3,16.3h5.6v-2l-2.3-1.6l1-12.3
		c0.1-1.1,0.1-2.2-0.2-3.2l-2.4-9.9l0.8-11.4l3.3-3.6c1.3-1.4,2.3-2.9,3.3-4.5v-7.1c0-1.1-0.4-2.2-1.1-3.1l-1.1-1.4h-2.5l-0.8,3.4
		l2.3,1l-1.3,6.4l-6.1,3.4h-5c-2,0-3.9,0.3-5.8,0.9l0,0c-1,0.3-2,1-2.6,1.9c-0.6,0.8-0.9,1.9-0.9,2.9v3.1c0,1.2,0.3,2.3,0.9,3.3
		C238.5,102.1,239.4,103,240.5,103.6l5.7,3.3l2.2-0.5l0.7-2l-7.3-4.9v-4.8"/>
</g>
<g>
	<path class="st0" d="M333.3,86.8l-4.7-1.3c-0.7-0.2-1.5,0-2.1,0.4l0,0c-0.8,0.6-1.3,1.5-1.4,2.5l-0.3,1.9c-0.2,1.1,0.2,2.2,0.9,3
		l0,0c0.5,0.5,1.1,0.8,1.8,1c1.5,0.3,4.1,0.8,4.2,0.8L333.3,86.8z"/>
	<g>
		<path class="st4" d="M331,93.1c-0.6,0-1.1-0.3-1.4-0.8c-0.3-0.5-0.3-1.2,0.2-1.8c0.2-0.3,0.4-0.4,0.9-0.8l1.2-0.8
			c0.1-0.1,0.2-0.1,0.3-0.1c0.1,0,0.2,0,0.2,0.1c0.2,0.1,0.3,0.2,0.3,0.4c0,0.6,0,1.1,0,1.5c0,0.7-0.1,1-0.2,1.3
			c-0.1,0.3-0.4,0.9-1.1,1C331.2,93.1,331.1,93.1,331,93.1L331,93.1z"/>
		<path class="st5" d="M332.2,89.2c0,0.6,0,1.1,0,1.5c0,0.7-0.1,0.9-0.2,1.1c-0.1,0.2-0.3,0.7-0.8,0.8c-0.1,0-0.1,0-0.2,0
			c-0.4,0-0.8-0.3-1-0.6c-0.3-0.6,0.1-1.3,0.2-1.4c0.1-0.2,0.3-0.3,0.8-0.7C331.3,89.8,331.7,89.6,332.2,89.2 M332.2,88.3
			c-0.2,0-0.4,0.1-0.5,0.2l-1.2,0.8c-0.6,0.4-0.9,0.6-1.1,0.9c-0.5,0.8-0.6,1.7-0.2,2.3c0.4,0.7,1.1,1.1,1.8,1.1c0.1,0,0.3,0,0.4,0
			c0.9-0.2,1.3-1,1.4-1.3c0.2-0.4,0.2-0.8,0.3-1.5c0-0.5,0-1,0-1.5c0-0.3-0.2-0.7-0.5-0.8C332.5,88.3,332.3,88.3,332.2,88.3
			L332.2,88.3z"/>
	</g>
	<polygon class="st2" points="337.9,134.5 331.6,134.6 331.7,132.8 334.1,131.4 335,130.1 330.3,123.3 329.4,120.6 333.3,115.9 
		335.8,121.6 340.2,131.5 	"/>
	<path class="st2" d="M325.1,113.8l-2.8,5.3c-1.8,4.2,0.4,10.8,0.4,10.8l-1.6,1.3l-3,1.7v1.8l8.6,0.1l0.3-11.2c0,0,2.9-3.3,5.3-6.4
		c0,0,4.6-5,2.7-8.4c-1.6-3.9-2.5-11-2.5-11c-2.3-2.4-5.6-2.7-7.4-1.1c-1.6,1.4-1.4,3.8-1.4,4.1L325.1,113.8z"/>
	<path class="st3" d="M331,101.9l-0.7,0.3c-2.1,0.8-4.4,0-5.5-1.9l-4.2-6.9l-0.2-2.9l2.5-0.4l0.1,1.7l5,6.2l2.6-1.5"/>
	<path class="st0" d="M299.3,77.5l5.6-0.4c0.8-0.1,1.7,0.3,2.2,0.9l0,0c0.8,0.9,1.1,2,1.1,3.1l-0.1,2.2c-0.1,1.3-0.7,2.4-1.7,3.2
		l0,0c-0.6,0.5-1.4,0.7-2.2,0.7c-1.8,0-4.9,0-4.9,0V77.5z"/>
	<path class="st6" d="M295.9,103.6v31.1h5.7v-2l-2.4-1.3l2.4-14l3.3-1l0.9,2l2.3,16.3h5.6v-2l-2.3-1.6l1-12.3
		c0.1-1.1,0.1-2.2-0.2-3.2l-2.4-9.9l0.8-11.4l3.3-3.6c1.3-1.4,2.3-2.9,3.3-4.5v-7.1c0-1.1-0.4-2.2-1.1-3.1l-1.1-1.4h-2.5l-0.8,3.4
		l2.3,1l-1.3,6.4l-6.1,3.4h-5c-2,0-3.9,0.3-5.8,0.9l0,0c-1,0.3-2,1-2.6,1.9c-0.6,0.8-0.9,1.9-0.9,2.9v3.1c0,1.2,0.3,2.3,0.9,3.3
		C294,102.1,294.9,103,295.9,103.6l5.7,3.3l2.2-0.5l0.7-2l-7.3-4.9v-4.8"/>
</g>
</svg>
