<?xml version="1.0" encoding="utf-8"?>
<!-- Generator: Adobe Illustrator 22.0.1, SVG Export Plug-In . SVG Version: 6.00 Build 0)  -->
<svg version="1.1" id="Layer_1" xmlns="http://www.w3.org/2000/svg" xmlns:xlink="http://www.w3.org/1999/xlink" x="0px" y="0px"
	 viewBox="0 0 400 100" style="enable-background:new 0 0 400 100;" xml:space="preserve">
<style type="text/css">
	.st0{fill:none;stroke:#000000;stroke-width:1.5;stroke-miterlimit:10;}
</style>
<g>
	<path d="M111.7,60.1c0,1.2,0,2.4,0,3.6c0,1.9-1.2,3.3-3.2,3.8c-1.6,0.4-3.4-0.6-4.2-2.2c-0.4-0.9-0.5-1.9-0.4-2.9
		c0.2-1.9,0-3.8,0-5.7s-0.8-3.2-2.3-4.1c-0.5-0.3-1-1.2-1.5-0.8c-0.5,0.3-0.2,1.2-0.1,1.8c0.8,8.4,0.4,16.8-1.1,25
		c-0.4,2-1.2,2.6-3.2,2.3c-2.1-0.3-4.2-0.8-6.2-1.5c-1.3-0.5-1.8,0.4-2.4,1.1c-0.6,0.8,0,1.2,0.4,1.7c1.8,2.2,3.7,4.4,5.9,6.3
		c1.6,1.4,2.2,1.6,1.8,3.6c-0.8,3.3-4.7,6.3-7.3,4.1c-3.7-3.2-7-6.7-9.6-10.9c-1.9-3.1-1.8-6.1,0.2-9.1c0.2-0.4,0.9-0.8,0.3-1.3
		c-0.5-0.4-1.1-0.9-1.9-0.6c-1.4,0.6-2.6,1.4-3.3,2.8c-2.2,4.6-4,9.4-5.6,14.2c-0.3,1-0.6,1.9-1,2.8c-1,2.3-3.5,2.1-5.8,1.3
		s-3.7-1.9-3-4.3c1.9-6.5,4.1-12.9,7.3-18.9c0.6-1.1,1.3-2.2,2.2-3.2c0.6-0.6,0.5-1-0.2-1.5c-1.3-0.9-2.6-2-3.9-2.9
		c-0.7-0.5-1.7-1.2-1.5-2.1s1.3-1.4,2.2-1.7c4.4-1.4,8.6-3.3,12.2-6.3c1.7-1.4,4.4-3.1,5.5-5c0.5-0.9-0.9-1.3-1.8-1.7
		c-3.5-1.6-6.6-3.8-9.4-6.5c-1.8-1.8-2.7-3.9-2.7-6.5c0.1-3.8-0.1-7.7,0.2-11.6c0.2-2.3,1.8-4,4-4c2.2,0,3.9,1.8,3.9,4.2
		c0,3.4-0.1,6.7-0.2,10.1c0,1.4,0.4,2.6,1.6,3.4c0.5,0.3,0.9,0.7,1.4,1.1c2.8,2.3,5.9,3.6,9.7,3.2c2.2-0.2,4.6,0,6.8,0
		c1.4,0,2.7,0.2,4,0.8c3.4,1.6,6.3,3.8,9,6.4c2.3,2.2,2.9,5,3,7.9C111.7,57.6,111.7,58.8,111.7,60.1
		C111.7,60.1,111.7,60.1,111.7,60.1z"/>
	<path d="M26.2,75.2c-0.2,0.5-0.4,1.1-0.6,1.6c-1,3.1-2.9,5.7-4.9,8.2c-2.4,2.9-4.7,5.9-7,8.9c-1.9,2.4-4.9,1.2-7.2-0.7
		c-2.1-1.7-2.4-3.1-0.6-5.4c2.6-3.4,5.3-6.8,8-10.1c1.4-1.8,2.4-3.8,2.9-6c0.4-1.8,0.8-3.6,1.2-5.3c0.2-0.8,0.1-1.4-0.5-2
		c-0.5-0.6-1-1.2-1.4-1.8c-1.6-2.6-1.8-5.3-0.6-8.1c1.7-3.8,3.3-7.6,5-11.4c0.2-0.3,0.4-0.6,0.3-1.2c-1.6,0.1-3,0.8-4.1,2
		c-2,2.2-4.1,4.5-6.2,6.7c-2,2.1-4.2,2.2-6.2,0.5c-1.8-1.6-2-4.2-0.3-6.2c2.4-2.7,4.8-5.3,7.3-7.9c1.5-1.6,3.4-2.6,5.6-3.2
		c3.4-0.9,6.8-1.8,10.3-2.4c2.1-0.4,4.1-0.1,6.1,0.7c2.3,0.9,4.4,2,6.9,2.5c4.7,0.9,9.1,0.6,13-2.6c1-0.9,2.2-1.6,3.4-2.3
		c0.8-0.5,1-1,0.8-2c-1.8-7-3.5-14-5.2-21C52.1,6.4,52,6,52,5.6c-0.2-1.2,0.4-2.3,1.4-2.5c1.2-0.3,2.2,0.3,2.6,1.6
		c0.9,3.3,1.7,6.7,2.5,10c1,4,2,8,3,12.1c0.2,0.8,0.5,1.4,1.3,1.8c2.2,1.2,2.8,3.9,1.5,6c-0.4,0.7-0.6,1.3-0.3,2.1
		c0.2,0.6,0.3,1.2,0.3,1.8c0.1,1-0.3,1.8-1.4,2.1s-2-0.2-2.3-1.2c-0.4-1.2-0.9-1.1-1.7-0.4c-3.2,2.4-6.7,4.3-10.8,4.8
		c-2.2,0.3-4.4,0.3-6.6,0c-0.9-0.1-1.3,0.1-1.7,0.8c-3.2,6-6.4,11.9-9.6,17.9c-0.3,0.6-0.3,1,0.2,1.4c0.8,0.9,1.5,1.9,2.3,2.8
		c3.6,4.1,5.5,8.9,6.1,14.3c0.3,2.9,0.8,5.8,1.2,8.6c0.4,2.7-0.4,3-2.3,4.1c-2.9,1.7-6.8,1.7-7.4-1.8c-0.6-3.5-1-7-1.5-10.6
		c-0.2-1.8-0.7-3.6-1.6-5.2C26.9,75.8,26.8,75.4,26.2,75.2z"/>
	<path d="M30.2,22c-0.1-4.5,1.8-6.2,5.6-6.2c3.8,0,5.7,1.8,5.4,5.4c-0.2,2.2-0.5,4.4-1,6.5c-0.5,2.2-2,3.1-4.7,3
		c-2.7,0-4.1-1-4.6-3.2C30.6,25.4,30.4,23.2,30.2,22z"/>
	<path d="M87.1,30.4c-0.1-4.5,2-6.2,6.5-6.2c4.4,0,6.6,1.8,6.3,5.4c-0.2,2.2-0.6,4.4-1.1,6.5c-0.6,2.2-2.3,3.1-5.4,3
		c-3.1,0-4.8-1-5.3-3.2C87.6,33.8,87.3,31.6,87.1,30.4z"/>
</g>
<g>
	<path class="st0" d="M254.3,60.1c0,1.2,0,2.4,0,3.6c0,1.9-1.2,3.3-3.2,3.8c-1.6,0.4-3.4-0.6-4.2-2.2c-0.4-0.9-0.5-1.9-0.4-2.9
		c0.2-1.9,0-3.8,0-5.7s-0.8-3.2-2.3-4.1c-0.5-0.3-1-1.2-1.5-0.8c-0.5,0.3-0.2,1.2-0.1,1.8c0.8,8.4,0.4,16.8-1.1,25
		c-0.4,2-1.2,2.6-3.2,2.3s-4.2-0.8-6.2-1.5c-1.3-0.5-1.8,0.4-2.4,1.1c-0.6,0.8,0,1.2,0.4,1.7c1.8,2.2,3.7,4.4,5.9,6.3
		c1.6,1.4,2.2,1.6,1.8,3.6c-0.8,3.3-4.7,6.3-7.3,4.1c-3.7-3.2-7-6.7-9.6-10.9c-1.9-3.1-1.8-6.1,0.2-9.1c0.2-0.4,0.9-0.8,0.3-1.3
		c-0.5-0.4-1.1-0.9-1.9-0.6c-1.4,0.6-2.6,1.4-3.3,2.8c-2.2,4.6-4,9.4-5.6,14.2c-0.3,1-0.6,1.9-1,2.8c-1,2.3-3.5,2.1-5.8,1.3
		s-3.7-1.9-3-4.3c1.9-6.5,4.1-12.9,7.3-18.9c0.6-1.1,1.3-2.2,2.2-3.2c0.6-0.6,0.5-1-0.2-1.5c-1.3-0.9-2.6-2-3.9-2.9
		c-0.7-0.5-1.7-1.2-1.5-2.1c0.2-0.9,1.3-1.4,2.2-1.7c4.4-1.4,8.6-3.3,12.2-6.3c1.7-1.4,4.4-3.1,5.5-5c0.5-0.9-0.9-1.3-1.8-1.7
		c-3.5-1.6-6.6-3.8-9.4-6.5c-1.8-1.8-2.7-3.9-2.7-6.5c0.1-3.8-0.1-7.7,0.2-11.6c0.2-2.3,1.8-4,4-4c2.2,0,3.9,1.8,3.9,4.2
		c0,3.4-0.1,6.7-0.2,10.1c0,1.4,0.4,2.6,1.6,3.4c0.5,0.3,0.9,0.7,1.4,1.1c2.8,2.3,5.9,3.6,9.7,3.2c2.2-0.2,4.6,0,6.8,0
		c1.4,0,2.7,0.2,4,0.8c3.4,1.6,6.3,3.8,9,6.4c2.3,2.2,2.9,5,3,7.9C254.3,57.6,254.3,58.8,254.3,60.1L254.3,60.1z"/>
	<path class="st0" d="M168.8,75.2c-0.2,0.5-0.4,1.1-0.6,1.6c-1,3.1-2.9,5.7-4.9,8.2c-2.4,3-4.7,5.9-7,8.9c-1.9,2.4-4.9,1.2-7.2-0.7
		c-2.1-1.7-2.4-3.1-0.6-5.4c2.6-3.4,5.3-6.8,8-10.1c1.4-1.8,2.4-3.8,2.9-6c0.4-1.8,0.8-3.6,1.2-5.3c0.2-0.8,0.1-1.4-0.5-2
		c-0.5-0.6-1-1.2-1.4-1.8c-1.6-2.6-1.8-5.3-0.6-8.1c1.7-3.8,3.3-7.6,5-11.4c0.2-0.3,0.4-0.6,0.3-1.2c-1.6,0.1-3,0.8-4.1,2
		c-2,2.2-4.1,4.5-6.2,6.7c-2,2.1-4.2,2.2-6.2,0.5c-1.8-1.6-2-4.2-0.3-6.2c2.4-2.7,4.8-5.3,7.3-7.9c1.5-1.6,3.4-2.6,5.6-3.2
		c3.4-0.9,6.8-1.8,10.3-2.4c2.1-0.4,4.1-0.1,6.1,0.7c2.3,0.9,4.4,2,6.9,2.5c4.7,0.9,9.1,0.6,13-2.6c1-0.9,2.2-1.6,3.4-2.3
		c0.8-0.5,1-1,0.8-2c-1.8-7-3.5-14-5.2-21c-0.1-0.4-0.2-0.7-0.2-1.1c-0.2-1.2,0.4-2.3,1.4-2.5c1.2-0.3,2.2,0.3,2.6,1.6
		c0.9,3.3,1.7,6.7,2.5,10c1,4,2,8,3,12.1c0.2,0.8,0.5,1.4,1.3,1.8c2.2,1.2,2.8,3.9,1.5,6c-0.4,0.7-0.6,1.3-0.3,2.1
		c0.2,0.6,0.3,1.2,0.3,1.8c0.1,1-0.3,1.8-1.4,2.1s-2-0.2-2.3-1.2c-0.4-1.2-0.9-1.1-1.7-0.4c-3.2,2.4-6.7,4.3-10.8,4.8
		c-2.2,0.3-4.4,0.3-6.6,0c-0.9-0.1-1.3,0.1-1.7,0.8c-3.2,6-6.4,11.9-9.6,17.9c-0.3,0.6-0.3,1,0.2,1.4c0.8,0.9,1.5,1.9,2.3,2.8
		c3.6,4.1,5.5,8.9,6.1,14.3c0.3,2.9,0.8,5.8,1.2,8.6c0.4,2.7-0.4,3-2.3,4.1c-2.9,1.7-6.8,1.7-7.4-1.8c-0.6-3.5-1-7-1.5-10.6
		c-0.2-1.8-0.7-3.6-1.6-5.2C169.5,75.8,169.4,75.4,168.8,75.2z"/>
	<path class="st0" d="M172.8,22c-0.1-4.5,1.8-6.2,5.6-6.2c3.8,0,5.7,1.8,5.4,5.4c-0.2,2.2-0.5,4.4-1,6.5c-0.5,2.2-2,3.1-4.7,3
		c-2.7,0-4.1-1-4.6-3.2C173.2,25.4,172.9,23.2,172.8,22z"/>
	<path class="st0" d="M229.7,30.4c-0.1-4.5,2-6.2,6.5-6.2c4.4,0,6.6,1.8,6.3,5.4c-0.2,2.2-0.6,4.4-1.1,6.5c-0.6,2.2-2.3,3.1-5.4,3
		c-3.1,0-4.8-1-5.3-3.2C230.1,33.8,229.9,31.6,229.7,30.4z"/>
</g>
<g>
	<path class="st0" d="M396.9,60.1c0,1.2,0,2.4,0,3.6c0,1.9-1.2,3.3-3.2,3.8c-1.6,0.4-3.4-0.6-4.2-2.2c-0.4-0.9-0.5-1.9-0.4-2.9
		c0.2-1.9,0-3.8,0-5.7s-0.8-3.2-2.3-4.1c-0.5-0.3-1-1.2-1.5-0.8c-0.5,0.3-0.2,1.2-0.1,1.8c0.8,8.4,0.4,16.8-1.1,25
		c-0.4,2-1.2,2.6-3.2,2.3s-4.2-0.8-6.2-1.5c-1.3-0.5-1.8,0.4-2.4,1.1c-0.6,0.8,0,1.2,0.4,1.7c1.8,2.2,3.7,4.4,5.9,6.3
		c1.6,1.4,2.2,1.6,1.8,3.6c-0.8,3.3-4.7,6.3-7.3,4.1c-3.7-3.2-7-6.7-9.6-10.9c-1.9-3.1-1.8-6.1,0.2-9.1c0.2-0.4,0.9-0.8,0.3-1.3
		c-0.5-0.4-1.1-0.9-1.9-0.6c-1.4,0.6-2.6,1.4-3.3,2.8c-2.2,4.6-4,9.4-5.6,14.2c-0.3,1-0.6,1.9-1,2.8c-1,2.3-3.5,2.1-5.8,1.3
		c-2.3-0.8-3.7-1.9-3-4.3c1.9-6.5,4.1-12.9,7.3-18.9c0.6-1.1,1.3-2.2,2.2-3.2c0.6-0.6,0.5-1-0.2-1.5c-1.3-0.9-2.6-2-3.9-2.9
		c-0.7-0.5-1.7-1.2-1.5-2.1s1.3-1.4,2.2-1.7c4.4-1.4,8.6-3.3,12.2-6.3c1.7-1.4,4.4-3.1,5.5-5c0.5-0.9-0.9-1.3-1.8-1.7
		c-3.5-1.6-6.6-3.8-9.4-6.5c-1.8-1.8-2.7-3.9-2.7-6.5c0.1-3.8-0.1-7.7,0.2-11.6c0.2-2.3,1.8-4,4-4c2.2,0,3.9,1.8,3.9,4.2
		c0,3.4-0.1,6.7-0.2,10.1c0,1.4,0.4,2.6,1.6,3.4c0.5,0.3,0.9,0.7,1.4,1.1c2.8,2.3,5.9,3.6,9.7,3.2c2.2-0.2,4.6,0,6.8,0
		c1.4,0,2.7,0.2,4,0.8c3.4,1.6,6.3,3.8,9,6.4c2.3,2.2,2.9,5,3,7.9C396.9,57.6,396.9,58.8,396.9,60.1
		C396.9,60.1,396.9,60.1,396.9,60.1z"/>
	<path class="st0" d="M311.4,75.2c-0.2,0.5-0.4,1.1-0.6,1.6c-1,3.1-2.9,5.7-4.9,8.2c-2.4,3-4.7,5.9-7,8.9c-1.9,2.4-4.9,1.2-7.2-0.7
		c-2.1-1.7-2.4-3.1-0.6-5.4c2.6-3.4,5.3-6.8,8-10.1c1.4-1.8,2.4-3.8,2.9-6c0.4-1.8,0.8-3.6,1.2-5.3c0.2-0.8,0.1-1.4-0.5-2
		c-0.5-0.6-1-1.2-1.4-1.8c-1.6-2.6-1.8-5.3-0.6-8.1c1.7-3.8,3.3-7.6,5-11.4c0.2-0.3,0.4-0.6,0.3-1.2c-1.6,0.1-3,0.8-4.1,2
		c-2,2.2-4.1,4.5-6.2,6.7c-2,2.1-4.2,2.2-6.2,0.5c-1.8-1.6-2-4.2-0.3-6.2c2.4-2.7,4.8-5.3,7.3-7.9c1.5-1.6,3.4-2.6,5.6-3.2
		c3.4-0.9,6.8-1.8,10.3-2.4c2.1-0.4,4.1-0.1,6.1,0.7c2.3,0.9,4.4,2,6.9,2.5c4.7,0.9,9.1,0.6,13-2.6c1-0.9,2.2-1.6,3.4-2.3
		c0.8-0.5,1-1,0.8-2c-1.8-7-3.5-14-5.2-21c-0.1-0.4-0.2-0.7-0.2-1.1c-0.2-1.2,0.4-2.3,1.4-2.5c1.2-0.3,2.2,0.3,2.6,1.6
		c0.9,3.3,1.7,6.7,2.5,10c1,4,2,8,3,12.1c0.2,0.8,0.5,1.4,1.3,1.8c2.2,1.2,2.8,3.9,1.5,6c-0.4,0.7-0.6,1.3-0.3,2.1
		c0.2,0.6,0.3,1.2,0.3,1.8c0.1,1-0.3,1.8-1.4,2.1c-1,0.3-2-0.2-2.3-1.2c-0.4-1.2-0.9-1.1-1.7-0.4c-3.2,2.4-6.7,4.3-10.8,4.8
		c-2.2,0.3-4.4,0.3-6.6,0c-0.9-0.1-1.3,0.1-1.7,0.8c-3.2,6-6.4,11.9-9.6,17.9c-0.3,0.6-0.3,1,0.2,1.4c0.8,0.9,1.5,1.9,2.3,2.8
		c3.6,4.1,5.5,8.9,6.1,14.3c0.3,2.9,0.8,5.8,1.2,8.6c0.4,2.7-0.4,3-2.3,4.1c-2.9,1.7-6.8,1.7-7.4-1.8c-0.6-3.5-1-7-1.5-10.6
		c-0.2-1.8-0.7-3.6-1.6-5.2C312,75.8,312,75.4,311.4,75.2z"/>
	<path class="st0" d="M315.4,22c-0.1-4.5,1.8-6.2,5.6-6.2c3.8,0,5.7,1.8,5.4,5.4c-0.2,2.2-0.5,4.4-1,6.5c-0.5,2.2-2,3.1-4.7,3
		c-2.7,0-4.1-1-4.6-3.2C315.8,25.4,315.6,23.2,315.4,22z"/>
	<path class="st0" d="M372.3,30.4c-0.1-4.5,2-6.2,6.5-6.2c4.4,0,6.6,1.8,6.3,5.4c-0.2,2.2-0.6,4.4-1.1,6.5c-0.6,2.2-2.3,3.1-5.4,3
		c-3.1,0-4.8-1-5.3-3.2C372.8,33.8,372.5,31.6,372.3,30.4z"/>
</g>
</svg>
