<svg id="Capa_2" data-name="Capa 2" xmlns="http://www.w3.org/2000/svg" viewBox="0 0 333.01 165.03"><defs><style>.cls-1{fill:none;}.cls-1,.cls-2{stroke:#000;stroke-miterlimit:10;stroke-width:2px;}.cls-3{fill:#fff;}</style></defs><circle class="cls-1" cx="236.5" cy="148.15" r="12.02"/><circle class="cls-1" cx="180.84" cy="148.15" r="12.02"/><circle class="cls-1" cx="155.6" cy="148.15" r="12.02"/><polygon class="cls-1" points="181.87 115.27 201.37 115.27 201.37 74.73 245 74.73 267.27 98.87 266.04 134.91 148.22 135.67 181.87 115.27"/><polygon class="cls-2" points="133.29 86.18 170.11 68.54 191.31 108.25 110.7 162.92 116.89 121.45 129.88 115.73 133.29 86.18"/><path class="cls-1" d="M230.3,352.72S307,228.22,351.6,257l79.21,63.43" transform="translate(-229.45 -224.04)"/><path class="cls-1" d="M381.92,281.28s77.67-63.58,92.21-55.54,87.57,92.53,87.57,92.53" transform="translate(-229.45 -224.04)"/><path class="cls-2" d="M256.08,379.33s.83-36.31,35.49-33.42c0,0,13.82-18.77,33.41-12,0,0,11.76-19,27.24-13.41l-2.69,12.79s-11.14-4.12-19,44.36Z" transform="translate(-229.45 -224.04)"/><path class="cls-3" d="M275.68,353.75h8.15V359l-3.3,1.29,3.3,10.73-12.27,3.91-1-8.46-5.15,2.48-2.58-6.4,4.85-2.8S275.37,361.69,275.68,353.75Z" transform="translate(-229.45 -224.04)"/><polygon class="cls-3" points="61.09 132.8 65.11 139.5 84.81 123.52 70.47 143.94 76.15 148.89 93.58 118.98 85.02 114.23 61.09 132.8"/></svg>