<svg xmlns="http://www.w3.org/2000/svg" xmlns:xlink="http://www.w3.org/1999/xlink" viewBox="0 0 3000 3000"><defs><clipPath id="a"><rect width="3000" height="3000" fill="none"/></clipPath></defs><title>Artboard 1</title><image width="2000" height="2000" transform="scale(1.5 1.5)" xlink:href="grafica-06-fauna.jpg"/><text transform="translate(2302.78 2526.08)" font-size="40" font-family="WorkSans-Bold, WorkSans Bold" font-weight="700">Cururo</text><text transform="translate(2302.78 2562.1)" font-size="36" font-family="WorkSans-Light, WorkSans Light" font-weight="300">Spalacopus cyanus</text><g clip-path="url(#a)"><path d="M2288.23,2517.78a30,30,0,1,1-30-30,30,30,0,0,1,30,30" fill="#329428"/></g><text transform="translate(2239.32 2525.16)" font-size="30" fill="#f8f9fa" font-family="WorkSans-Medium, WorkSans Medium" font-weight="500">LC</text><text transform="translate(1542.49 2444.69)" font-size="40" font-family="WorkSans-Bold, WorkSans Bold" font-weight="700">Queltehue</text><text transform="translate(1542.49 2480.71)" font-size="36" font-family="WorkSans-Light, WorkSans Light" font-weight="300">Vanellus chilensis</text><g clip-path="url(#a)"><path d="M1527.93,2436.38a30,30,0,1,1-30-30,30,30,0,0,1,30,30" fill="#329428"/></g><text transform="translate(1479.02 2443.76)" font-size="30" fill="#f8f9fa" font-family="WorkSans-Medium, WorkSans Medium" font-weight="500">LC</text><text transform="translate(1069 2713.09)" font-size="40" font-family="WorkSans-Bold, WorkSans Bold" font-weight="700">Perdiz chilena</text><text transform="translate(1069 2749.1)" font-size="36" font-family="WorkSans-Light, WorkSans Light" font-weight="300">Nothoprocta perdicaria</text><g clip-path="url(#a)"><path d="M1054.45,2704.78a30,30,0,1,1-30-30,30,30,0,0,1,30,30" fill="#329428"/></g><text transform="translate(1005.53 2712.16)" font-size="30" fill="#f8f9fa" font-family="WorkSans-Medium, WorkSans Medium" font-weight="500">LC</text><text transform="translate(337.1 2370.37)" font-size="40" font-family="WorkSans-Bold, WorkSans Bold" font-weight="700">Lagartija esbelta</text><text transform="translate(337.1 2406.38)" font-size="36" font-family="WorkSans-Light, WorkSans Light" font-weight="300">Liolaemus tenuis</text><g clip-path="url(#a)"><path d="M322.55,2362.06a30,30,0,1,1-30-30,30,30,0,0,1,30,30" fill="#329428"/></g><text transform="translate(273.63 2369.44)" font-size="30" fill="#f8f9fa" font-family="WorkSans-Medium, WorkSans Medium" font-weight="500">LC</text><text transform="translate(469.38 1967.78)" font-size="40" font-family="WorkSans-Bold, WorkSans Bold" font-weight="700">Vizcacha</text><text transform="translate(469.38 2003.8)" font-size="36" font-family="WorkSans-Light, WorkSans Light" font-weight="300">Lagidium viscacia</text><g clip-path="url(#a)"><path d="M454.83,1959.47a30,30,0,1,1-30-30,30,30,0,0,1,30,30" fill="#329428"/></g><text transform="translate(405.92 1966.85)" font-size="30" fill="#f8f9fa" font-family="WorkSans-Medium, WorkSans Medium" font-weight="500">LC</text><text transform="translate(1242.78 1326.02)" font-size="40" font-family="WorkSans-Bold, WorkSans Bold" font-weight="700">Zorro culpeo</text><text transform="translate(1242.78 1362.03)" font-size="36" font-family="WorkSans-Light, WorkSans Light" font-weight="300">Lycalopex culpaeus</text><g clip-path="url(#a)"><path d="M1228.23,1317.71a30,30,0,1,1-30-30,30,30,0,0,1,30,30" fill="#329428"/></g><text transform="translate(1179.31 1325.09)" font-size="30" fill="#f8f9fa" font-family="WorkSans-Medium, WorkSans Medium" font-weight="500">LC</text><text transform="translate(2153 1481.29)" font-size="40" font-family="WorkSans-Bold, WorkSans Bold" font-weight="700">Iguana chilena</text><text transform="translate(2153.01 1517.31)" font-size="36" font-family="WorkSans-Light, WorkSans Light" font-weight="300">Callopistes maculatus</text><g clip-path="url(#a)"><path d="M2139.8,1473a30,30,0,1,1-30-30,30,30,0,0,1,30,30" fill="#949494"/></g><text transform="translate(2088.2 1480.37)" font-size="30" fill="#f8f9fa" font-family="WorkSans-Medium, WorkSans Medium" font-weight="500">DD</text><text transform="translate(869.85 1097.36)" font-size="40" font-family="WorkSans-Bold, WorkSans Bold" font-weight="700">Degú</text><text transform="translate(869.85 1133.38)" font-size="36" font-family="WorkSans-Light, WorkSans Light" font-weight="300">Octodon degus</text><g clip-path="url(#a)"><path d="M855.3,1089.06a30,30,0,1,1-30-30,30,30,0,0,1,30,30" fill="#329428"/></g><text transform="translate(806.38 1096.44)" font-size="30" fill="#f8f9fa" font-family="WorkSans-Medium, WorkSans Medium" font-weight="500">LC</text><text transform="translate(606.88 739.15)" font-size="40" font-family="WorkSans-Bold, WorkSans Bold" font-weight="700">Carpintero</text><text transform="translate(606.89 775.16)" font-size="36" font-family="WorkSans-Light, WorkSans Light" font-weight="300">Veniliornis mixtus</text><g clip-path="url(#a)"><path d="M592.33,730.84a30,30,0,1,1-30-30,30,30,0,0,1,30,30" fill="#329428"/></g><text transform="translate(543.42 738.22)" font-size="30" fill="#f8f9fa" font-family="WorkSans-Medium, WorkSans Medium" font-weight="500">LC</text><text transform="translate(1595.7 323.15)" font-size="40" font-family="WorkSans-Bold, WorkSans Bold" font-weight="700">Tiuque</text><text transform="translate(1595.7 359.16)" font-size="30" font-family="WorkSans-Light, WorkSans Light" font-weight="300">Phalcoboenus chimango</text><g clip-path="url(#a)"><path d="M1581.15,314.84a30,30,0,1,1-30-30,30,30,0,0,1,30,30" fill="#329428"/></g><text transform="translate(1532.23 322.22)" font-size="30" fill="#f8f9fa" font-family="WorkSans-Medium, WorkSans Medium" font-weight="500">LC</text><text transform="translate(2069.97 868.6)" font-size="38" font-family="WorkSans-Bold, WorkSans Bold" font-weight="700">Culebra de cola larga</text><text transform="translate(2069.97 904.61)" font-size="30" font-family="WorkSans-Light, WorkSans Light" font-weight="300">Philodryas chamissonis</text><g clip-path="url(#a)"><path d="M2055.42,860.29a30,30,0,1,1-30-30,30,30,0,0,1,30,30" fill="#329428"/></g><text transform="translate(2006.51 867.67)" font-size="30" fill="#f8f9fa" font-family="WorkSans-Medium, WorkSans Medium" font-weight="500">LC</text></svg>