<?xml version="1.0" encoding="UTF-8"?>
<svg id="Capa_1" data-name="Capa 1" xmlns="http://www.w3.org/2000/svg" viewBox="0 0 458.04 456.51">
  <defs>
    <style>
      .cls-1 {
        fill: #282620;
      }
    </style>
  </defs>
  <path class="cls-1" d="m330.11,119.56c-.34.12-.55.39-.56.73-.05,1.56-.32,3.14,0,4.68.46,2.21.38,4.4.08,6.6-.2,1.44-.06,2.83.09,4.27.25,2.44.87,4.86.3,7.36-.27,1.18-.12,2.46-.11,3.7,0,.47.12.92.73.97-.15.95-.07,1.88.32,2.77-.18.71-.11,1.37.36,1.95-.05.21-.11.43-.16.64-.78.62-.81,1.34-.27,2.13,0,.39,0,.79-.01,1.18-.41.4-.43.79.04,1.17.05.66-.07,1.35.36,1.94-.45.6-.42,1.26-.19,1.93-.19.47-.24.92.27,1.24-.94,2.29-.56,4.72-.68,7.09-.72.44-.79,1.18-.76,1.89.05,1.07.21,2.13.32,3.2-.2,1.05-.25,2.1-.01,3.15-.21.18-.39.41-.3.68.83,2.58-.09,5.2.17,7.79.05.51-.03,1.08-.36,1.5-.44.55-.45,1.18-.57,1.83-.38,2.05-.63,4.15-1.32,6.09-.87,2.46-1.58,4.96-2.18,7.49-.28,1.18,0,1.58,1.28,1.58,1.84,0,3.66.18,5.48.37,3.15.32,6.34-.04,9.47.86,2.44.7,5.06.21,7.59.39.64.05,1.31.12,1.93-.2.38.01.77.02,1.15.03.98.54,1.9.25,2.81-.21.25.04.49.09.74.13.89.68,1.84.54,2.81.2,1.17.34,2.33.14,3.5-.05.43.32.84.27,1.25-.04.5.11,1,.41,1.51.04.48.2.97.06,1.46.03.7.29,1.38.32,2.04-.13,1.63.09,3.26.18,4.88.27.6.49,1.2.62,1.8,0,.4,0,.79,0,1.19,0,.15.24.36.36.65.3,1.29-.26,2.58-.19,3.87.04.92.17,1.81.08,2.57-.54.51-.06,1.02-.12,1.53-.19,1.68.8,3.23,1.95,5.24,1.79l.08.1c-.01.26-.13.59-.02.75.7.96.91,2.09,1.31,3.17,1,2.69.96,3.12-1.22,4.68-.12-.02-.23,0-.34.06-1.22.36-.95,1.22-.68,2.07-.14,1.29-.07,2.57.19,3.84-.4.68-.45,1.37,0,2.05.03.49-.12,1.03.45,1.34-.16.33-.21.67-.03,1.01-.53.56-.19,1.27-.3,1.9-.41.33-.43.62.09.85.04.23.08.47.12.7-.15,1.53-.17,3.05.02,4.58.39,3.02,1.31,5.97,1.05,9.06-.13,1.58.32,3.06.96,4.49.06.66.12,1.32.17,1.98-.93.73-.41,1.71-.32,2.53.26,2.28.41,4.57.32,6.84-.1,2.42.03,4.82.16,7.21.17,3.18.55,6.34.96,9.5.46,3.51,1.33,7,.68,10.64-.47,2.64.13,5.33.6,7.96.45,2.52.18,4.93-.71,7.29-.32.83-.5,1.71-.3,2.49.74,2.9.34,5.81.34,8.72,0,.45-.08.93.36,1.25-.01.27.01.53.22.74-.3.41-.23.89-.28,1.35-.13-.1-.29-.07-.29.07,0,.14.16.16.29.07l.04.05c-.72,2.99-.7,6.02-.55,9.08.19,3.77.22,7.54.32,11.31.02.7-.17,1.48.74,1.83.06.21.12.41.18.62-.32,1.86-.56,3.73-.55,5.63.01,1.51-.1,2.99-.53,4.45-.16.55-.18,1.16-.24,1.74-.18,1.68-.02,3.38-.34,5.05-.1.53-.16,1.19.37,1.64-.01.25-.03.5-.04.75-.66.48-.42,1.05-.16,1.63-.01.37-.02.74-.03,1.11-.27.95-.3,1.88.09,2.8-.05.26-.02.5.15.71l-.04-.13-.13.02c-.85.47-.47,1.26-.49,1.93-.04,1.04.46,2.25-.12,3.08-.83,1.18-.62,2.34-.57,3.55.06,1.71.07,1.71-1.51,2.16-.44.13-.89.24-1.3.43-.99.44-2.4,2.62-2.12,3.42.45,1.28.95,2.55,2.24,3.32,1.08.64,2.17,1.23,3.43,1.37,1.4.16,2.38.93,3.24,1.98.52.64.95,1.45,1.93,1.53,1,.73,2.43.45,3.31,1.45.12.76.34,1.44,1.29,1.46.26.26.52.53.78.79-.09.62.34,1.11.45,1.68.11.61-.02,1.02-.67,1.19-1.76.45-3.46,1.17-5.29,1.31-1.72.13-3.31.56-4.86,1.34-1.15.58-2.32,1.12-3.72.89-.91-.15-1.78.23-2.48.86.95,1.87,1.26,2.29,2.27,3.08.02.1.08.19.15.25-.22.81,0,1.66-.37,2.48-.45,1.01.18,1.41,1.11,1.5.07.08.16.14.26.18.17.43.46.67.95.57.08.06.17.11.27.13.09.51.41.71.9.66.23.16.46.33.68.49.16.7.53,1.13,1.32,1.03.08.07.16.13.26.17.15.49.43.83.99.84,0,0,.13.09.13.09,0,.51.16.92.73,1.05l.11.05c.06,1.02.03,1.98-1.25,2.29-.51.12-.41.55-.36.96.22,1.9.2,1.86-1.57,2.57-1.87.75-3.69.54-5.53-.06-1.24-.4-2.43-.93-3.66-1.36-1.46-.5-2.65-1.59-3.77-2.64-.87-.81-1.72-1.54-2.86-1.94-.55-.19-1.09-.47-1.56-.81-.97-.72-1.86-1.4-3.17-.63-.56.33-1.29-.06-1.86-.37-2.57-1.39-5.36-2.3-7.9-3.85-2.17-1.33-4.74-2.15-7.26-2.89-.65-.19-1.12-.09-1.56.44-.29.35-.65.63-1.01.92-1.44,1.15-3.07,1.65-4.92,1.37-.23.02-.45.03-.68.05-.9-.08-1.93.35-2.21.9-.74,1.43-1.57,1.23-2.81.86-1.27-.37-1.89.29-1.97,1.69-.02.37-.05.73-.07,1.1-.54.23-.83.62-.78,1.23-.13.07-.25.14-.38.2-.28-.21-.66-.34-.9-.12-.88.8-2.04,1.4-2.23,2.78-.09.65-.42,1.22-.74,1.78-.29.52-.71.77-1.28.54-1.24-.5-2.24-.03-3.18.72-.23-.05-.46-.09-.69-.14-.05-.99-.21-2.01-1.11-2.56-.93-.58-1.07-1.36-1.01-2.31.05-.9.15-1.78.37-2.67.17-.69.67-1.43.17-2.2.05-.2.09-.4.14-.6,1.28-.44,1.1-1.83,1.72-2.71.87-1.22,1.3-2.7,1.75-4.12.56-1.76-.17-2.61-1.97-2.47-.52.04-1.11-.03-1.54.19-2.3,1.2-4.85.76-7.26,1.19-1.99.35-4.02-.03-6.03-.11-.94-.04-1.28-.31-1.41-1.15-.29-1.78-1.32-3.23-2.23-4.72-.44-.72-1.06-.92-1.82-.47-.21,0-.42,0-.62,0-2.27-.15-4.53-.27-6.81-.2-2.31.07-4.65.17-6.87-.73-.59-.24-1.05.04-1.36.48-.49.68-1.04,1.34-1.06,2.26,0,.53-.25.92-.85.78-1.06-.24-2.2.42-3.22-.37-.41-.31-.81.03-1.2.33-1.53,1.16-2.12,1.1-3.33-.49-.99-1.31-2.37-1.25-3.73-1.21-.72.02-.7.68-.55,1.21.2.67.76,1.06,1.33,1.38.71.4,1.12.91,1.42,1.73.61,1.67,1.69,3.04,3.12,4.17,1.78,1.4,3.52,2.83,4.54,5.01.71,1.5,2.25,2.22,3.82,2.71.09.09.19.16.31.2.62,1.2,1.04,2.48,1.99,3.54.72.8.99,1.97.88,3.13-.16,1.64-1.41,2.53-2.99,2.11-.38-.1-.75-.23-1.12-.37-1.68-.63-3.5-.95-5.25-.66-2.03.34-4.2.1-6,1.43-.42.31-1,.3-1.53.25-2.82-.25-5.59.48-8.41.41-1.22-.03-1.75.96-1.13,2.01.39.65.82,1.33,1.47,1.79.1.4.21.79.58,1.04.03.49.26.79.77.81l.03.03c.62,1.15,3.66,4.14,4.74,4.65.31.81.79,1.5,1.47,2.04.54.9.78,2.08,2.1,2.24.12.14.23.27.35.41.05.67.47.92,1.08.94.16.21.32.42.48.63-.04,1.33-.16,2.67.52,3.92.27.49.2.98-.25,1.38-.33.29-.71.55-.76,1.05l-.08.09c-.66.47-1.44.1-2.14.29-.09-.07-.2-.12-.32-.13-.09-.48-.52-.72-.76-1.09-2.1-3.34-5.38-3.49-8.81-3.22-.48-.17-.97-.17-1.46-.06-.28-.53-.75-.58-1.14-.26-.72.58-1.45.37-2.23.27-4.47-.59-8.85-1.64-13.1-3.08-4.37-1.48-8.46-3.65-11.98-6.74-.91-.8-1.91-1.02-3.17-1.12-3.8-.31-7.71.14-11.39-1.28-.18-.07-.43-.22-.55-.16-1.16.61-2.34-.02-3.48.1-1.61.16-3.17.28-4.8.25-1.72-.03-3.46.58-5.18.95-1.4.3-2.78.69-4.18.99-1.81.39-3.17,1.39-4.27,2.87-1.46,1.95-3.57,3.22-5.29,4.89-1.64,1.58-3.23,3.22-4.79,4.88-.58.61-1.04,1.36-.91,2.29-.13.11-.26.23-.39.34-1.18-.14-.64.88-.84,1.34-.41.95-1.01,1.43-2.06,1.44-1.5.01-1.67-.08-2.21-1.32-.25-.57-.2-1.3-.93-1.62-.7-.31-1.38-.67-2.06-1.01-.1-.22-.2-.43-.31-.65.25-1.25,0-2.49-.51-3.58-.55-1.17-.21-1.99.57-2.8.64-.65,1.27-1.3,1.93-1.93.38-.37.77-.71.68-1.32.09-.12.09-.24,0-.37.55-.37.84-.89.89-1.55.47-.11.47-.46.44-.83-.23-1.38.47-2.61.68-3.92.21-.51.41-1.02.04-1.55.19-.58.31-1.16-.2-1.66-.02-.35-.04-.71-.07-1.06.07-2.13-.37-2.96-2.18-3.49-1.01-.3-1.91-.78-2.84-1.23-.73-.35-1.27-.89-1.14-1.84.14-1.02-.48-1.55-1.34-1.88-1.76-.67-3.52-1.32-5.38-1.62-.75-.12-1.48-.57-2.27-.19-.41-.18-.81-.49-1.24-.53-2.39-.22-4.78-.4-7.17-.55-.43-.03-.88.19-1.32.29-1.03-.23-2.12-.21-3.07-.82-.77-.49-1.16-.06-1.33.69-.23.03-.46.06-.69.09-.69-.66-1.15-.02-1.66.3-.25-.34-.51-.67-.76-1.01,0-.63-.28-1.08-.95-.81-1.1.44-2.18.13-3.27.09-1.94-.06-1.94-.1-2.34-2.07-.41-2.01-.59-2.13-2.55-1.72-.93.2-1.1.04-1.1-.94,0-.82.64-1.6.15-2.45.12-.23.24-.46.35-.69.69,0,1.46.25,1.91-.56.29-.06.57-.13.86-.19.5.36.94.36,1.29-.21.11-.04.14-.12.08-.22.12.04.2,0,.23-.13.47.06.85-.09,1.15-.47.52.03.96-.22,1.41-.42.68.26.93-.12,1.06-.69l.04-.11-.1-.06c1.23-.24,2.2-.89,2.99-1.85.21.09.34.02.43-.18,1.16-.12,1.92-1,2.86-1.53,1.17-.21,1.81-1.17,2.64-1.86,2.06-.8,3.29-2.43,4.24-4.33,1.2-1.53,1.74-3.28,1.79-5.2.4-.51.76-1.04.67-1.74,1.92-2.04,2.45-4.53,2.28-7.23-.03-.53-.07-1.16-.71-1.23-1.29-.14-2.77-.44-3.76.46-.88.8-1.76.85-2.77,1.07-1.68.36-3.32.27-5,.16-1.67-.11-3.39-.2-5.05.3-.63-.07-1.22.08-1.82.25-.33-.23-.71-.28-1.1-.28-1.99.02-3.97.04-5.96.06-.33,0-.63.1-.85.37-.9,0-1.81-.1-2.7.14-1.74-.57-3.47-.41-5.19.09-.26,0-.53,0-.79,0-1.53-.66-2.96-.03-4.41.36-.39-.05-.78-.1-1.17-.15-1.12-.75-2.49-.56-3.71-.94-1.93-.6-3.88-1.17-5.9-1.36-1.55-.15-2.45.66-1.82,1.87.73,1.38.6,2.77.76,4.18.18,1.57.92,2.79,2.55,3.05,1.43.22,2.77.74,4.17.98.96.17,1.78.19,2.01,1.39.12.6.74.82,1.31,1.06,1.41.59,1.73,2.17.66,3.27-.32.33-.74.56-.86,1.04-.19.74-.77.92-1.4,1.18-1.84.77-3.8.92-5.73,1.22-1.11.17-2.18.41-2.95,1.32v.05c-.4-.09-.78-.06-1.1.24-.38-.17-.65-.03-.84.31-.83-.06-1.6.14-2.33.51-.41-.16-.77.02-1.12.18-1.48.66-2.91,1.49-4.46,1.96-1.58.48-3.31,1.57-4.88-.18-.22-.24-.62-.22-.93-.11-1.11.37-2.3.32-3.42.78-2.14.88-3.27,4.05-1.95,5.95.8,1.16,1.35,2.37,1.38,3.79,0,.4,0,.79.4,1.03.04.5.08,1,.12,1.5-.22.78-.84,1.72-.13,2.33.63.54,1.22,1.39,2.25,1.36.06.09.13.16.22.2.04.65.08,1.31.12,1.96-.1.23-.21.46-.31.69-.63.82-.48,1.72-.23,2.62-.81,2.1-1.59,4.2-1.74,6.47-.61.32-.28.67-.03,1.02-.3.57-.63,1.07-1.39,1.06-.44,0-.9.05-1,.63l-.62.27c-.37-.17-.66-.1-.83.29-.46.04-.72.31-.84.74-.48,0-.95,0-1.43-.01-.36-.42-.8-.42-1.27-.22-.34-.26-.75-.27-1.15-.26-.66-1.39-2.13-2.28-2.33-3.96-.04-.36-.39-.62-.74-.85-1.39-.89-2.01-2.24-2.32-3.84-.37-1.93-.06-3.91-.53-5.83-.22-.91-.39-1.79-1.47-2.1-.76-.22-.71-1.28-1.43-1.51-2.13-.69-3.44-2.15-4.28-4.18-.29-.7-1.74-1.17-2.18-.74-1.46,1.44-3.23,2.58-4.38,4.33-.14.12-.28.25-.42.37-.49.03-.74.31-.78.79-.56.4-1.05.86-1.46,1.41-1.32.13-1.9,1.11-2.49,2.1-.32.19-.62.41-.78.76l-.37.07c-1.79.89-3.47,1.91-4.71,3.53h0c-1.06.24-1.35,1.1-1.63,1.98-.5,1.62-1.25,3.13-1.93,4.67-.35.79-.87,1.25-1.75,1.32-.45.04-.92.1-1.32.28-.69.32-1.25.17-1.8-.26-1.27-1.01-2.73-1.7-4.1-2.55-.03-.18-.08-.36-.3-.39-.08-.22-.15-.45-.23-.67-.06-.7-.59-.74-1.11-.81-.11-.24-.23-.49-.34-.73,1.37-2.73,1.54-5.51.39-8.35-.12-.4-.24-.81-.36-1.21-.11-1.33.14-2.64.22-3.96,0-.61,0-1.23,0-1.84.28-.55.28-1.11.04-1.68l.07-.74c.63-2.01-.27-3.47-2.54-4.07l-.04-.06c.06-.65-.23-1.09-.73-1.5-1.54-1.3-3.41-2.15-4.78-3.67-.33-.36-.8-.44-1.27-.39-.68.07-1.08-.15-1.33-.83-.48-1.32-1.97-1.65-2.79-2.66-.21-.26-.65-.2-.91.03-1.28,1.11-3,1.55-4.24,2.72-.18.11-.37.22-.55.34-.4-.16-.84-.09-1.1.19-1.85,1.98-4.64,2.16-6.78,3.59-.72.48-1.66.53-2.39-.06-.68-.54-1.18-.36-1.67.17-.78.84-1.81,1.48-2.2,2.65-.25,0-.5,0-.75,0-1.75-.69-3.34-1.81-4.56-3.1-.81-.86-1.42-1.23-2.48-1.21-.29,0-.59-.23-.88-.36.14-.33.27-.65.41-.98.51-.97,1.27-1.8,1.62-2.87.44-.49.87-.98,1.31-1.48,2.6-1.41,4.33-3.55,5.63-6.2,1.26-2.57,1.68-5.34,2.46-8.03,1.18-4.04,1.24-8.21,1.31-12.38.2-2.22.02-4.42-.18-6.63.37-.42.26-.85.01-1.26-.31-.52-.49-1.06-.37-1.67,0,0,.05-.07.05-.07,1.53-.35,2.49-1.09,2.26-2.35-.57-3.09,1.47-4.65,3.39-6.24,1.09-.9,2.25-1.77,3.59-2.32.72-.3,1.25-.78,1.78-1.41.86-1.02,1.89-1.95,3.36-2.13.84-.1,1.63-.42,2.15-1.17.33-.1.66-.19.99-.29.95,0,1.88-.07,2.39-1.06.68-.18,1.45-.08,2.01-.65.73.11,1.33-.29,1.97-.5,1.41-.27,2.82-.53,4.22-.82.17-.03.31-.2.46-.31.77-.19,1.54-.39,2.31-.58.46.19.88.16,1.22-.24.25-.04.5-.08.75-.12.57.18,1.13.29,1.61-.21.38-.05.77-.11,1.15-.16.22.2.46.26.71.07.68-.06,1.36-.12,2.04-.19,1.13.24,2.28.63,3.31-.31l.05-.09-.07-.08c.58.18,1.17.3,1.79.15,1.2.1,2.34.83,3.61.36.79.06,1.59.37,2.34-.15.53.1,1.05.1,1.56-.07.52.17,1.03.08,1.54-.05l-.1.02v.1c.35.75.76.86,1.27.15l1.12-.04c1.13.38,2.32.13,3.47.26l.03.02c.1.35.36.58.7.57,2.1-.09,4.1.54,6.13.86.49.08,1.02.27,1.5-.09.83-.03,1.56.54,2.41.37.48.23.84-.02.84-.44,0-1.13.36-2.33-.39-3.38,0-.39,0-.78,0-1.17.35-.26.33-.52.02-.8l-.02-1.95c.45-.53.51-1.06,0-1.58.06-.66.12-1.32.18-1.98.24-.34.18-.6-.2-.77,0-.28,0-.55-.01-.83.21-.77.56-1.52.23-2.34,0-.24.01-.48.02-.71.28-.74-.15-1.36-.35-2.02-.02-.37-.05-.74-.07-1.11.27-.65.28-1.31.13-1.99.16-.66.08-1.32-.06-1.98.19-.67.16-1.33-.02-2,.02-.26.04-.52.07-.78-.04-2.71.57-5.41.1-8.12.28-1.99-.1-4,.11-5.99.61-1.64-.09-3.21-.4-4.74-.21-1.08-.38-2.14-.49-3.23-.15-1.45.45-2.95-.4-4.36-.33-.55.52-1.19.17-1.86,0-.37,0-.73,0-1.1.23-.42.23-.85-.02-1.26,0-.23-.01-.45-.02-.68.05-1.07-.03-2.11-.69-3.01-.02-.2-.05-.4-.07-.6.37-1.58-.11-3.13-.14-4.7.07-.9.13-1.79.2-2.69.63-.33.45-.82.26-1.32.12-1.05.49-2.11-.2-3.1.51-1.01.44-2.07.22-3.13.43-1.44-.22-2.66-.83-3.88.16-.42.21-.83-.04-1.23.16-.49.17-.98-.02-1.46l.05.11s.11-.04.11-.04c.7-.44.42-1.13.41-1.73,0-1.07-.31-2.13-.1-3.2.16-.34.13-.69.02-1.04.49-1.79.54-2.78.29-4.82-.06-.51-.17-1.06-.06-1.55.36-1.59.13-3.22.45-4.81.13-.64.31-1.27-.16-1.85,0-.54,0-1.07,0-1.61.39-.11.92-.33.81-.71-.43-1.54.37-2.81.78-4.15.26-.83.4-1.49-.44-2.05-.57-.37-.58-1.01-.51-1.59.22-1.75-.29-3.51.12-5.25.07-.3.03-.68-.11-.96-1.01-2.1-.62-4.36-.82-6.55-.05-.51-.14-1.1.25-1.51.86-.91.54-1.86.06-2.71-.47-.85-.58-1.71-.58-2.63,0-4.3.02-8.6-.01-12.9,0-.77-.19-1.55-.33-2.32-.35-1.97.44-3.87.35-5.84-.09-1.89-1.4-3.5-1.15-5.48.12-.89-.08-1.82-.13-2.73,0-.22.02-.44.03-.67-.3-1.32-.38-2.62-.24-3.99.15-1.41.25-2.89.1-4.28-.34-2.99-.35-5.96-.14-8.95.08-1.23-.03-2.48-.11-3.71-.05-.77-.09-1.6-.98-1.97-.02-.24-.04-.49-.06-.73.55-.52.43-1.19.33-1.81-.17-1.01-.4-2.01-.61-3.01.04-.2.08-.4.12-.61.42-.87.17-1.71-.09-2.56.29-.38.46-.8.5-1.27.59-.37.52-.97.55-1.54.04-.83.08-1.65.12-2.48.04-.16.08-.32.12-.48.27-1.79-.47-3.49-.52-5.25,0-.1-.3-.19-.46-.28,0,0,0,0,0,0-.04-1.37.11-1.66,1.19-1.56,1.26.12,2.42-.15,3.61-.44,1.73-.43,2.28-.7,2.22-2.32-.06-1.58.6-2.51,1.71-3.36.14-.11.21-.32.31-.48.12-.05.24-.1.35-.15.79.19,1.44-.03,1.96-.66l.78-.02c.69.51,1.35.64,1.93-.16.24-.06.48-.12.72-.17.89.36,1.73.19,2.55-.23.18-.05.36-.1.54-.16.77.31,1.51.4,2.13-.3.52.19,1.05.18,1.58.09.74.85,1.58,1.09,2.58.44.45-.29.99-.31,1.48-.45,1.49-.43,3.09-.38,4.54-.98.92.1,1.84.13,2.75-.06,1.27.63,2.85.15,4.05,1.17.33.28.97.09,1.19-.36.39-.79,1.01-.9,1.78-.89,1.37.02,2.74,0,4.12-.02,1.04-.01,2.09.21,3.1-.24.25.05.5.1.75.15.13.45.37.56.73.21.26,0,.53.01.79.02.32.36.57.25.79-.11.79-.07,1.63.16,2.36-.35.65.16,1.29.15,1.94-.03.27.15.54.15.82.03.91.34,1.82.16,2.74.05.31.36.71.27,1.11.21.46.32.92.62,1.35-.05.49-.05.98-.11,1.47-.16,1.29.69,2.63.67,4,.28.83.29,1.6.26,2.27-.38.37.25.77.27,1.19.15,3.21.32,6.39.08,9.52-.7.34.04.67.08,1.01.12.78.22,1.56.02,2.33-.05,1.62-.15,2.28-.79,2.56-2.41.17-.96.08-1.97.33-2.9.68-2.48.69-5,.68-7.53,0-.51.1-1.05-.31-1.48.05-.25.1-.5.16-.75,1.01-.73,1.1-1.7.69-2.79-.04-.13-.07-.26-.11-.39.26-.78.13-1.57.06-2.35.58-1.46.71-2.99.71-4.54,0-3.55-.02-7.11-.1-10.66-.02-.79,0-1.73-.97-2.15-.01-.24-.02-.48-.03-.72.23-.16.31-.39.37-.66.38-1.81.01-3.59-.21-5.38-.01-.09-.19-.16-.29-.23-.03-.29.01-.6-.25-.82.33-.93.19-1.84-.12-2.74.37-.77.33-1.55.09-2.35.7-.98.42-2.06.36-3.13-.22-1.45.5-2.93-.16-4.36,0-.39,0-.78.01-1.17.42-.69.32-1.28-.32-1.77-.03-.45-.06-.9-.08-1.35.4-.46.39-.99.26-1.54,0-.27,0-.55,0-.82.46-.64.54-1.29.09-1.97l-.05-1.56c.37-.46.41-.87-.19-1.17-.05-.78-.1-1.56-.15-2.34.47-1.02.26-2.07.08-3.11.3-1.36.49-2.72-.29-4,.26-.28.51-.56.76-.84,1.21-.57,1.83-1.42,1.35-2.8.34-.36.69-.73,1.03-1.09,1.81-.52,3.64-.82,5.54-.82,3.18-.01,6.36-.29,9.52-.74,3.18-.45,6.36-.52,9.55-.38,1.19.05,2.44,1.02,3.53-.29.06-.07.25-.07.38-.05,2.08.34,4.14-.24,6.23-.12,3.4.19,6.74-.53,10.09-.95.17-.02.31-.22.46-.33.23-.03.45-.06.68-.09,1.14.27,2.27.5,3.32-.3.12,0,.2-.05.23-.17.54.15,1.06-.03,1.57-.15.49.57,1.02.57,1.57.09,1.19.09,2.37.35,3.55-.09,1.04.01,2.09.02,3.13.03,3.38.93,6.72.08,10.07-.23.11,0,.2-.15.3-.23.73-.04,1.47-.07,2.2-.11.76.54,1.57.43,2.38.17.23-.02.47-.05.7-.07,1.54.28,3.11.12,4.65.16.96.02,1.91.37,2.87.18,2.48-.48,5.01-.46,7.52-.86,2.51-.39,5.16-.59,7.76-.58,3.59.02,7.17.04,10.76,0,.89,0,1.84.18,2.64-.45l.82-.2c1.04.32,2.08.37,3.13,0,.39.24.77.21,1.14-.03.75.22,1.52.2,2.29.18.45.28.87.3,1.26-.1,1.51.07,3.03.13,4.54.2.24.42.59.49,1.02.31l1.15.08c.15.12.3.25.46.37.39,1.01,1.31.79,2,.71,2.51-.32,4.87,1.21,7.39.52,1.38,1.14,3.18.96,4.74,1.51,1.18.42,1.31.33,1.89-1.06.28-.06.56-.13.83-.19.48.27.96.23,1.43,0,1.81.02,3.62,0,5.27.93.58.33,1.23.39,1.88.09.08.11.17.11.26.02-.05.26.03.48.18.68-.06.6-.01,1.23.42,1.66,1.24,1.23,1.05,3.23,2.42,4.39.17.14.24.48.24.73-.06,1.7.4,3.36.37,5.07-.05,2.94-.11,5.89.15,8.81.32,3.44.11,6.89.44,10.33.28,3.04.11,6.09-.17,9.15-.27,2.91-.05,5.87-.06,8.81-.02,4.96.17,9.92-.6,14.85-.26,1.66-.44,3.44-.27,5.06.31,2.99.38,5.96.3,8.95-.03.98.05,2.1.95,2.85.08.23.15.46.23.69-.36,1.32-.34,2.64-.06,3.96l-.03-.1-.1.02Zm-73.1,226.04c.04.61.3.85.89.5.18.04.37.08.55.13.25.35.55.59,1.01.46.27.12.54.25.81.37.08.31.07.76.27.9,1.11.78,1.57,2.01,2.34,3.03.45.6.83,1.33,1.58,1.67l.03.03c-.23,1,.88,1.4,1,2.17.3,1.85,1.61,2.97,2.77,4.22.52,1.25.83,2.66,1.61,3.72,1.52,2.09,2.65,4.36,3.68,6.69-.13.39-.19.78.02,1.16.01.97-.02,1.94.04,2.9.05.88-.29,1.81.33,2.62-.02.82.11,1.61.49,2.34-.54.44-.32.96-.15,1.47-.31.6-.2.92.54.8.29.06.59.13.76-.22,1.24.53,2.56.34,3.85.38,1.38.83,2.89.35,4.34.45.97.07,1.44-.48,1.47-1.41.03-.84.08-1.69.04-2.53-.15-2.98-.17-5.96-.7-8.93-.46-2.61-.45-5.3-.65-7.95-.05-.7.05-1.47-.77-1.86-.04-.35-.07-.7-.11-1.05.29-.67.18-1.35-.31-1.81-.64-.6-.66-1.38-.9-2.1.09-.19.18-.38.27-.58.54-.16.68-.61.76-1.09.59-.05,1.39-.11,1.24-.86-.34-1.71.42-3.29.38-4.94.42-1.4-.32-2.63-.58-3.93-.04-.51-.08-1.03-.12-1.54.21-.57.18-1.12-.12-1.65l.02-1.07c.27-.58.3-1.14-.19-1.63-.01-.7-.04-1.41-.36-2.06-.04-.49-.36-.67-.79-.62-.83.09-1.65.23-2.47.35-.19-.09-.38-.17-.57-.25-.24-.48-.53-.78-1.01-.23-.65.03-1.3.06-1.95.09-.79-.14-1.56-.46-2.38-.37-.52,0-1.04-.02-1.55-.03-1.2-.97-2.58-1.73-3.55-2.97-.02-.78-.03-1.55-.05-2.33.74-1.64.3-3.28-.04-4.91,0-.19,0-.38.01-.58.71-.43,1.41-.81,2.3-.9.86-.09,1.8-.17,2.52-.82.64-.05,1.29,0,1.89-.29l-.12.04s.04.12.04.12c.82.85,1.97.72,2.99.93.59.12,1.06-.34,1.28-.94.47,0,.95,0,1.42,0,.58.33,1.11.2,1.02-.49-.17-1.38.07-2.8-.37-4.16-.03-.39-.07-.77-.1-1.16.14-1.83-.14-3.64-.45-5.43-.21-1.19-.8-1.67-2.03-1.69-.39,0-.78.1-1.16.15-.39.05-.77.05-1.14-.15-.47-.26.06-.88-.42-1.14-.81,1.26-2.09,1.43-3.27,1.13-1-.25-1.4-1.29-1.43-2.35-.01-.54-.08-1.09-.41-1.49-1.11-1.33-.71-2.75-.15-4.06.32-.75.61-1.37.37-2.2-.27-.94.16-1.4,1.17-1.57,1.74-.29,3.41-.88,5.08-1.43.73-.24,1.1-.63,1.17-1.36.06-.58.25-1.17.21-1.75-.09-1.26.12-2.63-1.06-3.58-.07-.21-.13-.42-.2-.62.11-1.22-.3-2.44-.9-3.33-1.39-2.06-1.66-3.11-4.24-1.39-1.32.88-2.9.67-4.36.96-.57.11-.95-.3-1.28-.74-1.07-1.44-1.91-2.95-1.72-4.85.09-.92-.19-1.81-.41-2.69.12-.22.25-.43.37-.65.1-.08.26-.16.28-.25.17-1.45.66-2.57,2.36-2.74.5-.05.98-.47,1.03-1.03.19-1.93,1.64-2.06,3.07-2.21.69-.07,1.44.15,1.95-.54.22-.04.44-.08.66-.11,1.38.64,2.8,0,4.2.08.42.03.61-.43.55-.87.22-.54.24-1.07-.04-1.59.26-.52.29-1.05,0-1.57.15-.24.17-.51.1-.78.67-1.3.1-2.54-.23-3.76-.18-.67-.81-.95-1.58-.79-1.77.37-3.55.7-5.32,1.05-.55.09-1.1.18-1.65.28-.99-.04-1.96-.95-2.72-.74-1.45.39-2.09-.51-2.97-1.15-.08-.37-.16-.74-.24-1.11.3-1.25.36-2.46-.72-3.42.02-.12,0-.23-.06-.34.46-.2.68-.5.38-.99,0-.28,0-.57,0-.85.2-.87.4-1.74.6-2.6.08-.44.16-.88.24-1.32.35-.53.7-1.06,1.05-1.58.21-.09.42-.18.63-.27.52.16.97.04,1.34-.37l2.16-.18c.44.21.83.2,1.16-.21.52-.03,1.04-.06,1.57-.1.46.25.95.25,1.45.14.91.46,1.9.33,2.86.37.56.49,1.03.49,1.38-.24.08-.28.17-.55.25-.83.58-1.51.81-3.02.09-4.56l-.16-2.33c.17-.66.25-1.32-.08-1.97-.03-.53-.06-1.06-.09-1.6.39-.64.33-1.26-.08-1.87-.02-.31-.04-.62-.06-.92.37-1.19-.04-2.37-.06-3.55,0-.27-.28-.38-.57-.34.14-.33.06-.64-.12-.94-.15-1-.82-.84-1.39-.53-.96.51-1.93.49-2.94.29-.14-.76-.26-1.53-.89-2.08.09-.54-.27-.96-.42-1.43.57-1.04-.45-1.83-.43-2.78,1.27-.76.47-1.69.18-2.54-.3-.89-.98-.62-1.62-.46-.97.24-1.94.46-2.93.69-.06-.58.47-.92.27-1.4,0,0-.07-.11-.07-.11.38.14.74.02,1.09-.13.87.06,1.62-.41,2.44-.57q1.64-.11,1.74-2.13c.25-.56.5-1.12.76-1.67l.57-.28c.32.03.47-.08.34-.42-.7-.93-1.46-1.84-.95-3.14.34-.1.44-.33.36-.66.09-.04.17-.09.23-.16.3.12.59.11.86-.08.41.07.81.15,1.22.22.19.04.38.13.56.11,1.24-.17,2.63.2,3.68-.74,1.25-1.12,2.35,1.05,3.55.09.66.14,1.31.15,1.94-.11,1.42.42,2.83.15,4.24-.06.59.32,1.09.31,1.44-.35,2.27.4,4.55.06,6.83.03.83.21,1.65.32,2.43-.2.41.06.81.1,1.19-.14.18.29.43.23.68.12.67.3,1.3.42,1.72-.38.49-.05.97-.11,1.46-.16.88.07,1.77.15,2.65.22,1.4-.1,2.79-.18,4.18-.31.75-.07,1.4-.32,1.27-1.29.36-.23.37-.52.17-.86.32-.57.22-1.19.24-1.79.51-.2.63-.55.4-1.04.38-.73.32-1.51.3-2.29.34-.22.33-.5.16-.82.19-.5.26-1,.11-1.52.46-.89.3-1.82.14-2.74.13.01.19-.05.2-.18.52-.65.99-1.31.54-2.19.05-.66.1-1.32-.07-1.97.57-1.18.58-2.36,0-3.54-.09-1.31-.17-2.62-.26-3.93.38-.54.39-1.06-.07-1.57,0-.39.02-.78.03-1.18.58-.9.35-1.83.09-2.76-.03-.25-.06-.51-.09-.76.49-.55.38-1.01-.22-1.39-.07-.46-.14-.92-.22-1.38.51-.53.11-1.04-.05-1.55.05-.22.1-.44.15-.66.84-1.22.88-2.76.11-4.26,0-.21,0-.42,0-.63.42-.9-.45-1.72-.13-2.63.47-1.32.18-2.7.31-4.05.37-3.92-1.01-7.69-.87-11.58,0-.05-.06-.11-.1-.17-.02-.36-.04-.71-.06-1.07.83-1.06.74-2.41,1.13-3.61.08-.25-.13-.63-.28-.9-.71-1.31-.9-2.7-.83-4.17.1-2.15.4-4.4.07-6.43-.39-2.42-.44-4.78-.42-7.18.01-1.29.13-2.62.34-3.89.11-.66.33-1.2-.02-1.81-1.01-1.77-1.11-3.72-1.09-5.69.02-1.77-.07-3.53-.05-5.3.04-3.64-.51-7.29.38-10.91.23-.93.22-1.95.15-2.91-.08-1.12-.17-2.21.13-3.31.12-.46.02-.9-.04-1.36-.29-2.19-.7-4.36-.26-6.62.26-1.32.41-2.79.21-4.07-.3-1.85.08-3.54.35-5.28.16-.99.25-1.88-.02-2.88-.46-1.68-.49-3.47-.61-5.18-.26-3.56-.01-7.16-.7-10.71-.04-.19-.04-.39-.02-.58.14-1.47.14-2.94.44-4.4.14-.68.01-1.44-.14-2.14-.19-.86-.76-1.36-1.71-1.24-.45.06-.9.17-1.36.21-2.02.2-4.05.46-6.04-.06-.84-.22-1.52-.56-2.37.05-.44.32-1.17.27-1.62-.26-.46-.53-.9-.69-1.5-.22-.44.34-.99.3-1.51.29-2.94-.07-5.88-.26-8.82-.18-1.7.05-3.38-.47-5.06-.16-1.43.26-2.86.27-4.3.27-3,0-6.01-.01-9.01.02-.6,0-1.36-.25-1.66.63v.11s.09.04.09.04c-.42-.22-.83-.19-1.23.02-.62-.33-1.28-.27-1.94-.16-.5-.73-.69-.68-1.31.33-.76.11-1.51.22-2.27.32-.22-.57-.52-.68-.91-.14-.86-.16-1.72-.37-2.56.08-.52-.33-1.07-.17-1.61-.09-.97-.43-1.93-.83-2.75.27-1.26.04-2.52.08-3.78.12-.39-.49-.95-.4-1.45-.37-1.63.08-3.25.26-4.88.3-4.08.08-8.16.09-12.24.15-1.17.02-2.38.37-3.5.18-2.71-.48-5.08.56-7.53,1.34-.27,0-.54,0-.81,0-.49-.45-.71-.26-.78.32-.41-.03-.83-.15-1.19.15-.56-.25-1.09-.2-1.58.19-.79-.17-1.57.04-2.35.12-1.34-.69-2.8-.61-4.14-.3-2.45.57-4.91.19-7.36.34-.81.05-1.63-.29-2.51-.15-.76.12-1.76.25-2.3-.13-1.11-.78-1.41.58-2.16.55-.2,0-.39.04-.59.02-1.83-.17-3.61.42-5.45.36-1.33-.05-1.61.28-1.44,1.69.25,2.15-.7,4.39.53,6.47.21.35.04.9.1,1.35.07.64-.1,1.32.23,1.93,0,.5.02.99.02,1.49-.29.63-.22,1.3-.09,1.92.24,1.18.26,2.26-.21,3.43-.44,1.1-.31,2.31.38,3.37-.12.91-.27,1.81-.17,2.73-.38.49-.68.99-.16,1.57-.06.5.09.92.49,1.24-.09.27-.04.52.12.74-.83.85-.68,1.76-.18,2.69-.37,1.78.07,3.47.58,5.14,0,.93.14,1.84.36,2.75-.15-.01-.24.05-.28.19-.71.53-.65,1.17-.27,1.86-.14.53-.23,1.05.14,1.53-.43.71-.29,1.5-.29,2.27-.43.35-.66.73-.24,1.24-.03.42-.07.83.25,1.17-.2.83-.06,1.61.32,2.35-.28.52-.2,1.04-.03,1.56-.15-.02-.24.05-.27.2-.37.24-.76.48-.28.97-.04.2-.09.41-.13.61-.58.37-.72.82-.22,1.37-.07.26-.12.52.03.77-.14.02-.22.09-.25.22-.69.67-.49,1.45-.26,2.22,0,.21-.01.42-.02.62-.3.73-.29,1.45.11,2.14-.2.6-.48,1.19-.33,1.86-.41.74-.44,1.53-.32,2.34-.49.67-.46,1.45-.54,2.23-.26,2.71.29,5.45-.33,8.15-.06.27.09.5.32.66.03.26.06.53.1.79-.35.29-.62.62-.44,1.12-.01.3-.02.6-.03.9-.47.42-.52.93-.32,1.49-.13.52-.08,1.04.07,1.55-.28.67-.34,1.33-.03,2.01-.01.78-.13,1.57.13,2.33-.46,1.13-.21,2.23.11,3.33-.06.81.02,1.63-.48,2.36-.22.32-.3.71.06,1.03-.02.37-.05.75-.07,1.12-1.2.41-.66,1.43-.65,2.16.01.86.08,1.57-.62,2.27-.64.64-.69,1.54-.67,2.52.06,3.31.58,6.63-.11,9.93-.09.44-.15.92.35,1.21.04,1.05.09,2.1.13,3.16-.39.41-.28.73.18.99.04.21.09.41.13.62-.33.24-.28.48-.02.74.05.18.09.37.14.55.26,1.12-.32,2.36.48,3.4.07.38.13.75.2,1.13-.46,1.76-.74,3.52-.52,5.38.18,1.54.04,3.1.11,4.66.05,1.11-.48,2.25,0,3.39,0,.24,0,.48,0,.72-.27,1.62-.21,3.2.19,4.83.4,1.67.77,3.47-.32,5.12-.2.3-.17.76-.21,1.15-.25,2.27-.54,4.52-.44,6.82.1,2.33-.34,4.71-.18,6.99.23,3.14.22,6.26.3,9.39.06,2.55-.2,5.1.09,7.65.36,3.18.86,6.35.69,9.57-.02.39-.02.79.07,1.17.63,2.59.42,5.2.05,7.78-.23,1.61-.61,3.17-.24,4.84.21.93.14,1.97,0,2.93-.45,3.01-.06,5.99.31,8.95.24,1.93.25,3.76-.24,5.62-.45,1.74-.48,3.51-.27,5.27.49,4.16.49,8.31.1,12.49-.19,2.01-.71,4.03-.44,6.04.33,2.45.03,4.82-.46,7.2-.25,1.21-.77,2.42-.78,3.63-.04,2.9-.73,5.7-1.09,8.54-.28,2.19-.68,4.38-.29,6.63.21,1.21.14,2.49,0,3.72-.16,1.32-.14,2.6.05,3.9.26,1.8.56,2.22,2.35,2.51.77.12,1.57.07,2.35.12.39.02.81-.01,1.16.12.83.31,1.13,1.57.41,1.85-1.3.52-1.8,1.87-2.9,2.48-.79.44-1.01.97-.89,1.73.18,1.16-.26,2.02-1.13,2.74-.51.42-.82.98-.95,1.67-.41,2.11-1.09,4.19-.33,6.37.16.47.1,1.04.06,1.56-.1,1.7.14,3.41-.25,5.09-.18.78.33,1.05.98,1.15.48.08.97-.04,1.28-.36,1.27-1.33,3.3-1.19,4.6-2.44.17-.17.48-.2.73-.27,2.17-.61,4.36-1.04,6.31-2.33,2.41-1.6,5.33-1.62,8.06-2.2.82-.17,1.7.26,2.48-.27.91,0,1.82-.01,2.72-.02.17.06.4.22.52.17,1.67-.78,3.42-.76,5.19-.65.58.04,1.19,0,1.75-.13,1.81-.47,3.61-.39,5.45-.2,1.27.13,2.69.29,3.81-.15,1.54-.6,2.99-.74,4.56-.49.66.1,1.3-.08,1.93-.27,1.82-.56,3.67-.9,5.59-.79.62.04,1.32.24,1.86-.31,1.05.44,2.16.56,3.29.56.36.61.84.7,1.42.32.26-.06.51-.11.77-.17.5.25,1.02.37,1.57.38.19.42.45.5.78.15.72.01,1.44.03,2.15.04.36.76.92,1.08,1.75.78.39-.02.78-.04,1.17-.06.65.92,1.75.82,2.65,1.16.15.68.63.81,1.24.75h-.01Zm31.57-120.28c-.27.26-.28.51.03.74-.03.79-.12,1.58.17,2.35-.36,2.73.56,5.23,1.43,7.72.48,1.36,1.34,2.51,2.26,3.63.71.86,1.65,1.88.26,3.01-.36.29-.03.57.04.86.28,1.17.13,1.67-1,1.85-1.19.19-1.33.78-1.5,1.82-.32,2-.35,4.01-.59,6-.49,3.92-.33,7.79.1,11.69.22,1.94.34,3.88.14,5.85-.26,2.52-.39,5.07-.37,7.61,0,2.15.32,4.29.26,6.44-.02.51-.07,1.06.47,1.4.14.84.28,1.69.42,2.53-.34.49-.38.93.2,1.27l.22.7c-.19,1.11-.67,2.25.32,3.24.18.89-.19,1.85.3,2.71-.57.9-.25,1.85-.15,2.79-.41.5-.32.88.27,1.14,0,.29.02.57.02.86-.94.67-.69,1.38-.06,2.1.09.33.17.67.26,1-.54,1.65-.67,3.28.18,4.88.04.47.09.93.13,1.4-.5.81-.3,1.63-.02,2.46-.34.61-.14,1.24-.09,1.87-.3.33-.17.61.11.88-.14.46-.14.92.03,1.37-.36.79-.11,1.54.15,2.28.22.62.38,1.24.42,1.9.18,2.99.71,5.96.71,8.97,0,.59.16,1.16.58,1.62.14.57.2,1.13.01,1.72-.42,1.29-.26,2.55.38,3.74-.19,1.25-.28,2.51.01,3.76-.25.41-.16.68.3.83-.14.91-.15,1.81.07,2.7-.48,1.81-.24,3.56.42,5.28-.36,1.04-.17,2.03.28,2.99-.39,1.08-.25,2.17-.08,3.26-.03.25-.05.49-.08.74-.29.2-.39.5-.4.83-.09,2.84.06,5.67.71,8.45.1.44.16.9.62,1.14l.02.56c-.06,2.31.67,4.56.25,6.95-.21,1.2-.45,2.22-1.15,3.19-.92,1.26-.56,2.02.98,2.17.26.03.52.02.78,0,3.34-.26,6.74.31,10.04-.68.17-.05.38.03.58.05,2.6.35,5.19.42,7.79-.08.77-.15,1.56-.13,2.33.08.96.26,1.95.16,2.93.08.41-.03.78-.14.87-.62,1.3.07,2.61.17,3.89-.14.27.28.59.32.74-.06.27-.69.31-1.36-.59-1.67-.39-1.11-.07-2.27-.21-3.39.73-1.47,1.7-2.74,3.02-3.72.48-.36.8-.9,1.25-1.22,1.59-1.11,2.79-2.67,4.59-3.57,3.31-1.66,6.87-2.07,10.43-2.31,4.61-.31,9.25-.33,13.87-.49.51-.02,1.06.1,1.49-.31.59.02,1.17.04,1.76.06,1.36.97,2.91.76,4.31.37,2.83-.79,5.64-1.54,8.61-1.37.72.04,1.44.04,2.15.06.33.28.74.32,1.15.39.04.73.6.93,1.15,1.17.79.34,1.33,1.02,1.28,1.82-.07,1.27.5,2.41.5,3.67,0,.99.37,1.99.67,2.95.14.47.4,1.07,1.1.84.59-.2.35-.72.33-1.17-.11-2.41-.75-4.74-.66-7.19.12-3.26.25-6.53.1-9.8-.04-.91-.21-1.8-.13-2.73.2-2.34.2-4.69-.08-7.04-.2-1.68-.53-3.4-.34-5.05.14-1.24.17-2.45.22-3.69.13-3.31-.62-6.55-.52-9.88.05-1.86-.29-3.76-.15-5.65.03-.39.1-.8.02-1.16-.58-2.68-.61-5.44-1.05-8.13-.79-4.77-1.11-9.56-1.28-14.38-.04-1.13.06-2.36-.61-3.42-.03-.26-.05-.52-.08-.77.69-2.72.37-3.59-1.75-5.08-.41-.29-.76-.67-1.14-1.01-.04-.19-.07-.38-.11-.56.5-.88.47-2.13,1.64-2.52,1.64-.53,2.17-2.58,4.01-2.85.37-.06.45-.61.37-1.02-.09-.45-.23-.89-.32-1.33-.99-4.8-1.75-9.63-1.46-14.56.03-.52,0-1.05,0-1.57-.03-8.23-.08-16.47-1.08-24.66-.27-2.21-.25-4.44-.5-6.64-.35-3.11-.57-6.21-.48-9.33.03-1.03-.03-2.11-.31-3.1-.47-1.7-.19-1.79-2.17-1.78-1.87.01-3.8.28-5.58-.63-.21-.11-.51-.05-.77-.07-5.01-.3-10.06.12-15.04-.76-.31-.06-.67-.06-.97.02-1.17.31-2.35.23-3.51.14-3.33-.27-6.66.2-9.99-.03-.3-.02-.62.15-.93.24-.51-.12-1.02-.22-1.54-.09-.23-.25-.5-.18-.77-.1-.43-.21-.86-.2-1.28.01-.24-.06-.48-.11-.72-.17-1.15-.6-2.33-.43-3.52-.13-.79,0-1.58,0-2.37-.01-.27-.24-.55-.25-.84-.04-1.3.02-2.63-.48-3.87.26-.38-.25-.78-.28-1.2-.12-.65-.24-1.3-.35-1.97-.1-.66-.13-1.31-.04-1.96.11-1.04.08-2.1-.5-3.13.1-.78-.19-1.58-.22-2.38-.17-.66-.41-1.34-.28-2.02-.04-.23-.03-.45-.06-.68-.09-.59-.29-1.13.1-1.7.12-.84.03-1.6.45-2.48.3-2.32-.38-4.6.19-6.89.43-.64.02-1.29.03-1.93.05-.69-.41-1.32-.04-1.96.17-.39-.03-.79-.05-1.18-.08-.41-.41-.81-.44-1.19.03-.92.07-1.85.14-2.77.2-1.28.08-1.46.28-1.62,1.75-.48,1.17-.17,2.42-.39,3.62-.56,1.02-.78,2.01.22,2.91l-.09,1.04Zm-80.58,129.78c-1.06-.5-1.85,0-2.57.72-1.25.02-2.49.04-3.74.06-.65-.28-1.27-.48-1.57.44-.25.15-.5.3-.75.46-1.12-.73-1.84.32-2.73.6-.62-.16-1.21-.27-1.26.66-.63.16-1.37-.14-1.9.44-.14.01-.28.02-.42.03-.23-.44-.51-.2-.78-.06-.61-.07-1.16.02-1.54.57-.41.04-.8.15-1.12.44-.47-.13-.78.04-.89.53-.22.1-.44.2-.66.3-.33-.15-.65-.08-.94.08-2.46,1.38-5.31,2.38-5.66,5.81-1.22,1.25-.31,2.59-.08,3.86.14.75.66,1.58,1.47,1.7,1.63.24,3.18.55,4.48,1.65.13.11.38.07.57.11,4.47.85,8.96,1.39,13.51,1.64,3.7.2,7.38.52,11.1.25,1.11-.08,2.18-.37,3.3-.39,2.87-.06,5.67-.68,8.47-1.29.47-.1,1.08-.04,1.37-.61.66.05,1.34.23,1.98-.1.26.05.51.09.77.14,1.43.54,2.83.72,4.17-.27.31-.04.63-.07.94-.11.63.47,1.09.41,1.31-.42,0,0,.04-.04.04-.04.61-.17,1.21-.33,1.82-.5.64.31,1.29.35,1.97.13.51.43.75.1.93-.35.21-.05.42-.1.63-.15.25.4.66.48,1.03.35,2.11-.71,4.47-.63,6.41-1.7,2.52-1.39,5.59-1.41,7.88-3.3,2.54-.39,3.1-2.77,4.38-4.41.31-.39.11-.89-.03-1.32-.26-.77-.8-1.31-1.42-1.82-2.03-1.68-4.44-2.62-6.86-3.53-.18-.28-.45-.41-.76-.45-.16-.33-.45-.47-.79-.48-1.12-.01-1.83-.7-2.69-1.32-.86-.63-2.14.45-3.21-.24-.56-.36-1.22-.37-1.89-.35-1.37.03-2.74,0-4.1-.05-.99-.04-1.61.38-1.92,1.3-.14.4.08.95-.63,1.28-1.49-1.01-3.22-1.31-5.05-.69-.06.02-.13,0-.19,0-3.02-.23-6.01.38-9.02.39-.49-.07-.99-.13-1.48-.2-.74-.85-1.65-.69-2.43-.22-.75.45-1.4.43-2.2.24-.72-.17-1.53-.38-2.12.39-.25.03-.5.05-.74.08-.9-.3-1.83-.22-2.75-.17-.52-.2-1.06-.16-1.6-.14Zm-57.06-166.65c.85.19,1.7.42,2.42-.32.64.1,1.26.05,1.87-.16,1.22.33,2.44.16,3.68.03,1.94-.21,3.89-.45,5.83-.45,1.77,0,3.46-.21,5.23-.89-.42-.66-.74-1.26-.73-2.01.01-1.95-.15-3.91.27-5.84.12-.56.17-1.18.07-1.74-.26-1.43-.34-2.83,0-4.26.19-.79-.04-1.25-.98-1.2-1.73.08-3.49-.4-5.2.37-.45.2-1.04.13-1.53-.08-1.3-.56-2.75-.85-3.7-2.04-1.07-1.74-2.79-.25-4.09-.82-1.39,1.12-2.92.09-4.37.28-.71.09-1.02-.36-1.12-1.06-.26-1.78-.33-3.59-.78-5.36-.16-.62-.06-1.3-.05-1.95.01-.52.29-.97.81-.92,1.99.21,3.8-.98,5.79-.72.58.08,1.35.06,1.64-.44.73-1.31,1.94-1.07,3.07-1.18,1.17-.12,2.36.02,3.51-.32.46-.14.87.04,1.31.23,1.01.44,2.04.87,3.1,1.16,1.13.31,1.56-.06,1.61-1.21.15-3.11.34-6.22.4-9.34.03-1.56.23-3.15-.14-4.69-.33-1.37-.23-2.74-.07-4.1.29-2.57.33-2.56-1.91-3.67-.18-.09-.35-.17-.52-.27-.86-.5-.97.18-1.15.74-.6-.09-1.17,0-1.74.18-.72.02-1.44.04-2.16.05-.06-.09-.14-.14-.24-.16-.54-.71-1.13-.8-1.77-.13-.27.03-.54.06-.82.09-.41-.67-.67-.38-.89.14-1.92-.3-3.83.17-5.75.09-.39-.43-.79-.42-1.19-.01-1.22-.03-2.44-.13-3.66-.09-2.18.08-4.36-.38-6.54-.03-.82-.35-1.62-.48-2.37.16l-1.36.17c-.21-.45-.49-.73-1.01-.4-4.32.09-8.63-.1-12.94-.24-.44-.46-.76-.26-1.02.2-1.83.7-3.78.33-5.66.58-.27-.41-.54-.4-.81,0-2.07.1-4.14.19-6.21.29-.25-.04-.53-.18-.75-.12-2.53.76-5.18.5-7.74,1-1.95.39-3.24,2.29-2.63,4.16.06.17.43.24.65.36.11.21.21.43.32.64-.07.1-.23.25-.2.28.87,1.42.57,2.95.47,4.47.12.4.24.8.37,1.2-.23.79.11,1.19.89,1.25.43.03.87.04,1.3.06.12.31.25.63.37.94-.39.46-.34,1-.13,1.48.94,2.17.97,4.45.79,6.75-.04.45-.06.91-.16,1.36-.14.63-1.07-.09-1.22.79,1.67.66,1.53,2.13,1.39,3.56-.08.91-.12,1.87-.45,2.69-.39.95-.95,1.75-.04,2.72.19.2.06.76-.03,1.13-.26,1.01-.56,2.01-.88,3.01-.53,1.7.26,3.21.66,4.78.03.11.33.15.51.22l.12,1.05c-.56.54-.55.98.21,1.29l.18.05.1-.16c-.24.28-.18.63-.19.96-.51.86-.07,1.52.43,2.18l-.15,1.18c-.42,1.01-.27,2.07-.25,3.12,0,.8.01,1.59.02,2.39-.49.35-.36.68.04,1,.03.48.13.94.37,1.35-.06.19-.12.39-.18.58-.42.17-.62.55-.53.93.27,1.18.09,2.43.55,3.57-.04.93-.11,1.85.13,2.76-.41.44-.42.84.12,1.18,0,.26,0,.52,0,.78-.27.67-.27,1.34.02,2.01-.3,1.62.11,3.2.22,4.8-.19.6.51,1.02.25,1.68-.92,2.27-.84,4.56.03,6.84.13.35.12.77.13,1.16.05,2.56-.11,5.1-.59,7.62-.17.89-.4,1.8.17,2.66-.03.45-.06.9-.09,1.35-.72.5-.65,1.04-.07,1.59.02.31.03.62.05.93-.24,2.72-.5,5.43-.71,8.15-.13,1.62-.33,3.26-.24,4.87.09,1.44.02,2.84-.09,4.28-.19,2.58-.13,5.18.07,7.78.25,3.17.7,6.36.06,9.53-.52,2.55-.26,5.06.18,7.58.53,3.02,1.04,6.03.4,9.1-.16.77-.1,1.56.12,2.33.1.38.3.79.12,1.15-.68,1.31-.28,2.7-.31,4.05-.05,1.69.54,2.19,2.22,2.21,1.15,0,1.8-.44,2.21-1.8.21-.7.45-1.21,1.25-1.25,2.47-.13,4.88-.76,7.36-.88,1.93-.09,3.8-.7,5.4-1.9.21-.02.42-.03.63-.05.53.4.99.26,1.42-.17,1.1-.05,2.21.11,3.3-.15,1.73.27,3.45.54,5.18.82.23,0,.45.01.68.02.25.05.5.15.75.15,2.4-.03,4.8-.12,7.21-.11,2.09.01,4.05.33,4.64,2.86.1.43.38.82.57,1.23-.17.5-.18,1-.1,1.52-.56,1.11-2.03,1.47-2.29,2.81-.55.26-1.1.52-1.65.77-1.19.27-2.38.52-3.57.8-.46.11-.83.35-.99.82-.19.11-.38.21-.57.32-.67-.24-1.02.34-1.5.58-.92-.21-1.86-.62-2.64.32-.1.02-.18.08-.23.17-.71-.02-1.42-.03-2.13-.06-.54-.02-1.04.03-1.36.54-2.73.39-5.46.78-8.19,1.17-.56-.36-1.13-.12-1.71-.06-2.28.21-4.56.6-6.83.52-2.61-.1-5.33-.23-7.08-2.77-.51-.74-1.26-.6-1.71.24-.44.82-.6,1.75-.62,2.65-.07,2.94-.05,5.89-.08,8.83,0,.72.07,1.46-.08,2.15-.37,1.7-.24,3.37-.04,5.07.21,1.82.31,3.67.01,5.48-.67,4.1-.18,8.23-.37,12.34-.04.91.44,1.48,1.45,1.41.14.04.28.08.42.12l-.08.13s.05.14.05.14c.95,1.08,1.61,2.27,1.61,3.78,0,.7.37,1.24,1.16,1.33.03.1.09.18.18.23-.09.79.31,1.17,1.05,1.27l.36.41c.04.6.46.92.93,1.15,1.66.8,3.02,1.99,4.27,3.31.19.2.43.27.7.25h0c-.1.76.26,1.25.92,1.53.95.41,1.27,1.22,1.45,2.14.09.44.18.88.32,1.31.29.9.75,1.48,1.85,1.09.82-.29,1.5.05,2.08.66.3.32.57.71,1.04.83.03.2.07.41.1.61-.4.8-.47,1.55.3,2.19-.04.79-.21,1.64.82,1.99.13.14.24.36.4.4,2.63.64,5.34.94,8.01,1.22,3.66.38,7.38.12,11.07.14.55,0,1.03-.11,1.34-.62.19,0,.38-.02.57-.03,1.23.43,2.62.77,3.79.52,2.1-.45,4.16-.25,6.22-.24,3.78.02,7.5-.6,11.25-.88,1.18-.07,2.35-.14,3.53-.21,1.55.06,1.72-.11,1.41-1.41-.07-.31-.25-.67-.16-.92.7-1.84-.41-3.32-.93-4.91.08-.37.11-.74-.05-1.1-.11-1.19-.05-2.37.04-3.57.1-1.2.42-2.39.3-3.61.27-2.58.02-5.16.03-7.75.03-1.58-.26-1.82-1.88-1.74-2.05.1-4.12,1.02-6.15-.16-.28-.16-.76-.03-1.13.05-.39.09-.79.25-1.12,0-.73-.53-1.46-.24-2.2-.11-.24.01-.47.03-.71.04-.38.02-.77.06-1.15.06-1.17,0-2.67-.94-2.87-1.93-.29-1.46-.64-2.93-.28-4.44.15-.64.29-1.32.05-1.92-.52-1.28-.08-2.24.82-3.11.34-.02.68-.03,1.02-.05,1.16.45,2.28.6,3.31-.31.2-.01.41-.03.61-.04,1.52.55,3.14.49,4.14-.7.88-1.05,1.83-1.2,2.96-1.26.38.11.75.09,1.12-.02,3.13.59,4.5-.63,4.15-3.73-.04-.39-.17-.77-.2-1.16-.18-2.33-.49-2.23-2.79-1.8-.25.05-.48.19-.73.28-3.08,1.05-6.25,1.03-9.41.62-.99-.13-1.89-.76-2.96-.89-1.82-.23-2.18-.72-2.21-2.59-.03-1.94.53-3.84.06-5.82-.23-.99.38-1.53,1.46-1.69.77-.11,1.56-.07,2.35-.11,2.19-.11,4.28-.45,5.79-2.28l.37-.1c.58.14,1.14-.59,1.64-.21,1.34,1.01,2.52.45,3.73-.21.3.01.59.02.89.03,1.05-.2.85-1.04.77-1.7-.25-2.25-.56-4.49-.9-6.73-.08-.56-.24-1.17-.98-1.3l-.05-.05c-.59-.98-1.27-.66-1.96-.13-.24.07-.48.13-.72.2-2.53.19-5.08-.2-7.58.6-1.94.62-3.98.72-6.01.44-1.76-.25-2.27-.84-2.63-2.58-.21-1.04-.31-2.06-.24-3.11.05-.79-.07-1.54-.43-2.28-.64-1.34-.05-2.42,1.42-2.58.52-.06,1.05-.02,1.51-.31,1.16-.75,2.45-.77,3.77-.86,2.93-.2,5.81-.68,8.44-2.1.56-.3.9-.37,1.51.09.89.68,1.82.39,2.59-.49.81-.92,1.06-2.02.55-3.1-.58-1.24-.66-2.49-.59-3.81.04-.84-.18-1.69-.24-2.53-.06-.8-.54-1.07-1.2-.85-2.4.8-4.94.38-7.37.93-1.22.28-2.41.24-3.53-.64-.69-.55-1.62-.73-2.6-.64-1.73.16-2.81-.95-3.14-2.7-.36-1.96.1-3.95-.72-5.93-.64-1.53.27-2.24,2.01-1.96.58.09,1.13.27,1.73.03,1.78-.72,3.69-.81,5.56-.9,3.25-.15,6.41-1.24,9.7-.79.06,0,.13-.02.19-.02.99-.08,1.42-.64,1.25-1.59-.43-2.31-.18-4.7-.81-6.98,0-.24,0-.49,0-.73.55-1.32.74-2.97-.17-3.83-1.03-.98-2.45.06-3.54.73-.54.34-1,.43-1.62.36-1.1-.12-2.21-.1-3.32-.11-.52,0-1.06,0-1.37.54l-.72.14c-.36-.15-.7-.14-.99.15-.49-.12-.97-.24-1.46-.36-.33-.53-.77-.48-1.25-.24-.74-.31-.74-1.04-.94-1.65.24-1.15.33-2.3-.1-3.42-.29-.76-.16-1.53-.16-2.3,0-1.01.33-1.52,1.46-1.55,1.77-.04,3.31-.92,4.88-1.63.8-.07,1.63.22,2.38-.24,1.53-.64,2.98-1.51,4.74-.44.72.44,1.31-.12,1.28-1.12-.07-1.76-.19-3.51.04-5.26.11-.84.19-1.68.3-2.52.13-.97-.32-1.46-1.25-1.61-.6-.1-1.16.02-1.72.2-.74.23-1.49.43-2.24.64-.51-.56-1.02-.25-1.53-.01-1.03-.55-2.07-.43-3.12-.05-.94.35-1.9.47-2.81-.06-1.13-.65-2.33-.66-3.59-.63-2.03.05-2.93-.79-3.37-2.77-.3-1.36.04-2.79-.57-4.13-.25-.54,0-1.29-.07-1.94-.09-.91.26-1.36,1.12-1.77,1.23-.58,2.54-.4,3.79-.71.25-.01.5-.02.75-.04.87.31,1.63-.16,2.43-.36,1.96.5,3.87.1,5.78-.3.24.12.52.2.74.06,1.01-.66,1.94-.3,2.94.05.62.22.94.62,1.25,1.12.28.45.66.91,1.24.77.77-.19.55-.91.59-1.46.02-.26-.01-.52-.02-.78-.06-1.88-.23-3.75-.06-5.63.03-.39.02-.78-.27-1.1-.03-.39-.07-.78-.1-1.16.54-1.56-.02-3.11-.03-4.66-.02-2.03-.05-2-2.03-2.2-.62-.06-1.16.05-1.7.31-.59.28-1.17.24-1.64-.21-.83-.8-1.74-.65-2.74-.43-1.61.35-3.2.43-4.74-.52-.94-.58-2.09-.72-3.21-.79-1.92-.12-2.02-.22-2.33-2.09-.08-.46-.13-.91.08-1.35.33-.7.26-1.39,0-2.1-.28-.75-.23-1.55-.3-2.32-.11-1.12.36-1.74,1.45-1.92.21-.03.42-.06.63-.1Zm185.32,189.07c.31.59.72.82,1.33.4.21.03.42.07.63.1.29.43.6.67.99.09,1.31.07,2.62.39,3.93,0,.28.12.55.1.79-.1.48.34.99.41,1.55.22.59.53,1.3.34,1.98.35.49.53.77.23,1-.25.54.14,1.08.29,1.62.43.75.19,1.48.29,2.05-.4.37.26.75.23,1.14.04.98.57,1.9.08,2.84-.13.53.31,1.05.3,1.56-.03.47.32.83.14,1.14-.27,1.53.23,3.03-.2,4.55-.24.99.72,1.67.04,2.38-.52.33-.01.65-.02.98-.03,1.73-.05,3.46-.08,5.19-.15.57-.02,1-.38,1.24-.85.52-.98.95-2.02,1.08-3.13.16-1.32-.49-1.88-1.75-1.41-1,.37-2,.54-3.05.62-.37-.17-.76-.17-1.16-.11-1.71-.52-3.43-.79-5.17-.15-.24,0-.48,0-.73,0-.47-.49-1.08-.44-1.65-.37-4.64.57-9.29,1-13.96,1.02-2.66,0-5.17.67-7.68,1.36-1.33.37-2.49,1.08-3.13,2.41-.37.5-.11.83.31,1.1Zm-234.11-19.17c.83-.11,1.66-.22,2.49-.34,1.28.26,2-.79,2.92-1.32.47-.27.38-.76-.09-1.12-.53-.4-1.29-.32-1.74-.85-1.38-1.66-3.57-2.04-5.21-3.28-.92-.69-2.02-1.25-2.69-2.12-.52-.68.44-1.55.5-2.39.03-.45.16-.9.17-1.36.01-.35-.19-.61-.59-.63-.03-.07-.08-.11-.15-.13-2.12-2.25-5.25-2.68-7.57-1-.42.3-.84.41-1.28.27-.65-.21-1.26-.07-1.91,0-1.52.17-3.06-.52-4.61.05-.23.08-.59-.23-.9-.32-.95-.26-1.96-.5-2.89-.26-.79.2-1.53.2-2.31.14-2.28-.17-4.56-.34-6.84-.47-1.1-.06-2.23.07-3.32-.07-2.08-.27-4.13-.53-6.11.44-.21.1-.51.06-.77.04-1.86-.14-3.72.03-5.53.38-2.69.51-5.3,1.41-7.94,2.11-3.68.97-7.14,2.44-10.68,3.76-.76.28-1.49.56-1.51,1.55-.43.18-.8.44-1.11.79-.82-.36-1.17.39-1.66.73-1.98,1.38-2.13,4.13-.39,5.84.51.5,1.03.72,1.74.71,1.04-.01,2.11-.06,3.12.11,5.21.91,10.48,1.19,15.74,1.53.58.04,1.21.1,1.47-.64.21,0,.41.02.62.03,1.13,1.06,2.39.7,3.64.32.2.05.41.11.61.16.77.67,1.53.81,2.26-.06.22-.03.43-.05.65-.08.63.45.9.04,1.11-.48.31-.22.61-.44.92-.66.3.07.55,0,.77-.22,1.01.18,1.95.88,3.04.38.44.23.86.31,1.25-.11,1.39-.36,2.68-.49,3.6,1,.32.51,1.07.59,1.62.31,1.08-.54,2.16-.27,3.26-.19,2.4.19,4.8.54,7.21.14.9.32,1.59-.2,2.32-.56.49-.09.98-.17,1.47-.26.13.13.29.41.38.38,1.33-.32,2.77.06,4.02-.53.8-.37,1.47-.32,2.24-.04.54.2,1.12.31,1.68.46.85.29,1.62-.12,2.42-.26.77.48,1.3.22,1.65-.55.47-.35.96-.66,1.55-.76.59.13,1.07-.02,1.35-.59ZM183.38,39.27c.32-.03.54-.29.42-.51-.44-.76-.95-1.48-1.46-2.19-.05-.06-.38.01-.52.11-.25.16-.34.48-.04.62.64.29.73.86.88,1.42.09.34.37.52.72.55Zm1.86,9.36c-.03.65.31.96.93.96.4,0,.85-.08.83-.59-.03-.72-.61-.95-1.21-1.01-.39-.04-.53.29-.54.64Z"/>
  <path class="cls-1" d="m367.13,237.56c.25.1.5.19.75.29,0,.63.94.82.78,1.48-.4,1.63-.81,3.32-2.57,4.05-.95.39-1.73.98-2.3,1.73-1.23,1.6-2.85,1.8-4.64,1.66-.5-.04-1.02-.28-1.48.15-.26-.13-.52-.17-.78-.02-.52-.16-1.05-.08-1.57-.01-.94-.37-1.86-.53-2.67.31-.49-.03-1.03-.23-1.29.42-.27-.07-.52-.02-.74.15-1.51-.02-2.94.28-4.25,1.05-.37-.23-.76-.2-1.13-.03-2.94,1.31-4.68.74-6.91-1.95-.17-.2-.32-.51-.57-.47-1.2.16-1.93-.86-2.97-1.11-.11-.1-.23-.19-.34-.29-.46-1.52-.53-1.58-2.45-1.71-.03-.07-.07-.11-.13-.15-.2-2.88-.19-2.04,2.21-3.28.56-.29,1.2-.44,1.87-.51,2-.2,3.91-.92,5.95-.93.76,0,1.53-.3,2.24-.65,1.01-.5,2.09-.62,3.2-.74,3.17-.34,6.37.24,9.53-.39.7-.14,1.43.08,2,.59.25.23.51.41.85.17.45.32.93.53,1.5.39.35.41.81.39,1.25.27,1.06-.27,2.1-.59,3.14-.9.47.28.99.4,1.54.43Z"/>
  <path class="cls-1" d="m340.74,263.63c.74-.01,1.49-.03,2.23-.04.35.77,1.06.91,1.79.99.97.11,1.96.15,2.93-.01,2.06-.35,4.13-.61,6.23-.55.91.03,1.94.1,2.7-.29,1.05-.54,1.86-.28,2.77.1,1.27.53,2.61,1.02,3.98.8,1.12-.18,2.05.06,3.01.51,1.36.63,1.24.62,1.1,2.23-.12,1.43-.64,2.37-1.87,3.15-.66.42-1.2.87-2.02,1-.83.14-1.72.33-2.41.76-1.6,1-3.32,1.43-5.17,1.5-2.84-.4-5.69-.19-8.54-.1-1.13-.37-2.28-.1-3.41-.11-1.33-.01-2.69.12-3.93-.54-.41-.76-.82-1.52-1.23-2.28-.18-1.07-.52-1.99-1.26-2.9-1.27-1.54-.8-2.65,1.09-3.22,1.01.35,1.68.01,1.99-1.01Z"/>
  <path class="cls-1" d="m252.67,298.85c.98,2.18.3,4.77-1.44,6.53-1.05,1.07-2.17,1.36-3.62,1.49-3,.26-6.02-.03-8.99.51-.45.08-.98.05-1.33.28-1.04.67-1.95.87-2.85-.22-.16-.2-.63-.27-.92-.21-1.87.37-3.73-.22-5.59-.02-.13.01-.27.05-.39.02-2.5-.58-5.05.07-7.57-.29-2.34-.34-4.7-.08-7.05-.2-2.02-.1-4.04-.21-6.06-.28-.63-.02-1.08-.3-1.56-.69-1.3-1.06-2.03-2.55-2.11-4.07-.09-1.7-.31-3.49.31-5.19.07-.18.09-.38.12-.57.34-2.06.34-2.05,2.45-1.94.98.05,1.96.07,2.94.07.45,0,.93-.05,1.12-.6,1.21-.09,2.08-1.1,3.29-1.22.44.32.86.35,1.26-.06,1.18-.09,2.37.33,3.54-.09,1.45.31,2.91.51,4.34-.1.62.43,1.28.53,1.97.18.26.15.52.14.77-.04.64.26.99-.47,1.57-.46.7.22,1.37.11,2.04-.14.61.24,1.22.3,1.83-.02.43.26.85.34,1.25-.06.8.17,1.58.12,2.36-.15.86.04,1.73.09,2.59.13.63.5,1.37.43,2.1.38.59.49,1.27.4,1.95.3.73.57,1.57.34,2.39.32,1.29.61,2.66.87,4.08.88,1.29,0,2.19.44,2.61,1.81.29.97,1.05,1.76,1.23,2.82.09.53.49.92,1.15.76.07.07.16.12.25.16Z"/>
  <path class="cls-1" d="m142.29,320.28c-.1.03-.18.09-.24.17-2.12.39-3.82,1.8-5.92,2.36-1.75.47-3.48,1.03-5.28,1.31-3.28.53-6.6.75-9.92,1-2.95.22-3.24.01-3.1-3.01.07-1.44.15-2.83-.53-4.2-.37-.75-.3-1.65.41-2.35.31-.31.7-.61.65-1.14,0,0,.01-.01.01-.01.56.11,1.08.11,1.4-.48.47-.07.93-.14,1.4-.22.62.65,1.31.3,1.98.12.81-.21,1.6-.46,2.4-.7.24.05.48.11.72.16.25.42.51.43.79.02.66.06,1.21-.11,1.6-.68.25-.02.5-.03.74-.05.84.23,1.38,1.35,2.47.83l.11-.04s-.03-.11-.03-.11c.73-.09,1.45-.18,2.18-.27.6.43,1.14.52,1.57-.23.31.01.61,0,.86-.21-.08.1-.06.18.04.25.93,1.71,2.02,3.29,3.49,4.59.45.4.79.9,1.49.62.27.25.54.51.81.76-.04.5-.07,1-.11,1.5Z"/>
  <path class="cls-1" d="m132.21,228.52c-3.72-.05-7.44-.1-11.16-.13-1.7-.02-3.44-.26-5.08.06-2.28.44-4.47-.69-6.72-.11-.73.19-1.07-.27-1.02-1.02.06-.82-.11-1.52-.92-2-.58-.35-.45-1.04-.46-1.62-.02-1.04-.06-2.03-.56-3.03-.62-1.22-.17-1.92,1.15-2.24.63-.16,1.31-.2,1.67-.86,1.05.06,2.05-.14,3-.57.24.17.5.19.77.1,1.2.61,2.38-.31,3.58-.04.83.3,1.39-.2,1.97-.65.28,0,.57-.02.85-.03.2.13.4.14.6.02.3.02.59.04.89.06.52.43,1.07.34,1.63.08,1.24.46,2.45,1.12,3.83.53.7.47,1.54.23,2.29.46.19.52.57.98,1.05,1.09,1.05.24,1.58.97,2.19,1.75,1.11,1.42,2.5,2.55,4.33,2.96h0c.05.68.09,1.37.14,2.05-.34.26-.56.59-.62,1.02-.36.06-.56.31-.58.64-.04.9-.63,1.3-1.37,1.58-.48-.16-.97-.19-1.46-.08Z"/>
  <path class="cls-1" d="m119.12,252.94c-.06-.02-.12-.05-.18-.06-2.47-.27-2.46-.27-2.79-2.77-.04-.3-.26-.58-.39-.87.23-.52.21-1.04-.04-1.55.36-.34.21-.72.09-1.09.22-.41.09-.68-.32-.86,0-.53.02-1.06.03-1.58.48-.73.94-1.43,1.93-1.57.42-.06.83-.3.98-.78.4-.03.84.08,1.19-.21.26.13.5.12.74-.06.29.14.58.13.85-.06.89.32,1.66.12,2.32-.56.54.11,1.08.13,1.6-.08.98.35,1.95.18,2.92-.06,1.31-.24,2.54.32,3.83.36.76.02,1.49.55,1.64,1.2.3,1.35,1.36,1.98,2.19,2.84,1.14,1.17,1.19,1.6.23,3.03-.36.54-.89,1.07-.81,1.72.2,1.7-.81,2.3-2.17,2.67-.31.08-.62.19-.78.52-1.31.05-2.64-.11-3.93.31-.76-.42-1.54-.56-2.35-.13-.38-.04-.75-.07-1.13-.11-.19-.31-.5-.4-.82-.4-1.61-.03-3.22-.19-4.81.15Z"/>
  <path class="cls-1" d="m242.21,145.75c.09.19.18.38.27.57-.32.2-.31.5-.26.81-.06.09-.1.19-.12.29-.68.49-1.06,1.12-2.3.72-1.46-.47-3.02.57-4.35,1.34-1.24.72-2.33.96-3.65.29-1.32-.67-2.76-.21-4.04.07-2.41.52-4.82.31-7.23.37-2.48.06-4.97-.12-7.43.38-.87.18-1.63-.41-2.5-.39-1.5.04-3.01-.06-4.51.02-1.22.07-2.34-.32-3.43-.71-.91-.33-1.58-1.03-1.93-2.07-.6-1.82-1.25-3.59-.38-5.51.2-.43.16-.96-.12-1.32-.68-.87-.55-1.66.04-2.5.49-.69-.23-1.75.64-2.35.72-.5,1.52.36,2.25-.12.05-.03.08-.1.12-.15.53,0,1.05-.02,1.58-.03,1.41.77,1.75.76,2.78-.1.38-.03.76-.06,1.14-.09,1.32.55,2.49.25,3.54-.65.8-.1,1.65.39,2.39-.26.75-.22,1.57.11,2.31-.25.65.27,1.27.06,1.9-.11,1.22-.08,2.35.98,3.61.26.27,0,.53,0,.8.01,2.59.75,5.27.72,7.93.79l1.1.22c1.13.54,2.34.59,3.55.57.25.03.5.05.75.08.3.7.97.53,1.51.64h0c.12.49.39.74.91.59.12.07.24.11.37.11-.02.25.11.37.35.41-.03,1.44.21,2.78.99,4.05.5.81.76,1.77.73,2.77-.02.53.07,1.04.68,1.25Z"/>
  <path class="cls-1" d="m279.11,64.07c1.19.32,2.37.5,3.62.31,1.02-.16,2.07-.17,3.11-.13,1.46.05,2.86.1,3.87-1.26.39-.53,1.04-.48,1.62-.43,1.67.16,3.33.35,5,.53.32.79,1.01,1.06,1.75.99,1.65-.17,2.34.94,2.95,2.12.48.92.84,1.91,1.21,2.88.21.55.36,1.23-.18,1.63-.61.44-.75-.59-1.43-.58-.05.71,1.16,1.41.16,2.14-.62.46-1.12,1.05-1.9,1.34-2.05.76-4.2.91-6.33.93-3.2.02-6.37.53-9.57.38-2.02-.09-4.05,0-6.07,0-1.79,0-3.05-1.03-4.25-2.16-.17-.16-.32-.46-.31-.69.03-1.47-.98-2.5-1.51-3.74-.31-.71-.79-.99-1.49-1.04-.06-.24-.12-.47-.19-.71.18-.23.2-.5.16-.78,1.11.16,2.07-.48,3.14-.57.37-.03.64-.39.68-.81.78.09,1.56.2,2.33-.06.8.31,1.57.37,2.24-.3.46,0,.93.01,1.39.02Z"/>
  <path class="cls-1" d="m268.13,124.58c.39,0,.79-.01,1.18-.02,2.97.36,5.95.45,8.94.42,2.02-.02,4.06-.1,6.06.13,2.07.23,4.07-.34,6.13-.33,1.71.01,2.53.37,3.03,1.87.16.47.51.76,1.07.57.21.31.41.63.62.94-.5,1.4-.32,2.86-.2,4.27.13,1.46-.37,2.49-1.36,3.47-.64.64-1.28.72-2.12.63-4.26-.41-8.54-1.02-12.8-.28-1.75.31-3.58.31-5.26,1.03-.21.09-.57.09-.75-.03-1.54-1.04-3.14-1.98-4.78-2.84-.65-.34-.82-1.09-.65-1.73.55-2.06.32-4.16.41-6.23.03-.68.37-1.24.49-1.87Z"/>
  <path class="cls-1" d="m300.61,297.34c-.08-.08-.18-.14-.29-.17-.39-1.27-1.28-2.33-1.6-3.64,0-.04-.11-.05-.17-.08-.5-.4-.44-1.3-1.25-1.43.03-.54.02-1.06-.36-1.5.25-.33.22-.73.27-1.11.46.04.88.01,1.13-.46.44.05.98-.04,1.3.19,1.83,1.3,3.76.92,5.7.43.57.25.87.06.92-.56h.01c.82-.18,1.61-.21,2.43.11,1.21.48,2.37.33,3.39-.53.64-.03,1.29-.07,1.93-.1.64.22,1.36.3,1.91.02,1.5-.75,2.91-.28,4.35.09.06.08.13.13.23.15,1.08,1.67,1.21,3.67,1.88,5.49.38,1.03-.02,1.85-1,2.46-.93.58-1.96.69-2.98.81-1.93.24-3.85.6-5.8.69-2.82.13-5.64,1.1-8.46-.02-.08-.03-.22.1-.33.16-.38-.05-.76-.11-1.14-.16-.54-.67-1.28-.83-2.09-.83Z"/>
  <path class="cls-1" d="m303.48,264.45c-.67.19-1.26.23-1.39-.6-.12-.75.25-1.22.93-1.53,1.22-.56,2.58-.55,3.82-.62,2.34-.13,4.66-.49,7.01-.46,1.96.02,1.91.14,2.55,1.95.49,1.41.75,2.72.13,4.12-.31.69.02,1.2.46,1.76.78,1.01.63,2.02-.47,2.6-1.34.71-2.66,1.74-4.37.99-.49-.21-1.03-.09-1.55-.03-1.52.16-2.99-.2-4.44-.55-1.18-.29-1.54-1.04-1.14-2.27.22-.67-.09-1.02-.54-1.29-.38-.23-.88-.24-1.28-.45-.85-.45-.88-1.57-.06-2.04.33-.19.73-.29,1.1-.42.27-.09.47-.26.44-.56-.04-.37-.29-.57-.65-.61-.19-.02-.39.01-.53.02Z"/>
  <path class="cls-1" d="m317.8,241.75c-.21.92-.43,1.84-.64,2.75,0,0-.06.11-.06.11,0,0,.1.08.1.08-.09-.09-.2-.1-.3-.03-2.95.7-5.96-.09-8.92.42-.53.09-1.03-.11-1.54-.22-.95-.21-1.88-.34-2.89-.2-1.88.27-2.63-.3-3.01-2.17-.18-.92-.58-1.31-1.44-1.07-.95.27-1.48-.23-1.95-.91-.72-1.04-.52-1.53.74-1.57,1.58-.06,2.83-.44,3.12-2.26.12-.75.72-.89,1.35-.73,1.65.4,3.36.61,5,.74,2.08.17,4,1.18,6.1,1,1.11-.1,1.59,1.11,2.6,1.16.6.74,1.2,1.47,1.79,2.21.18.23.12.47-.04.69Z"/>
  <path class="cls-1" d="m205.86,72.65c-.14-.14-.27-.28-.41-.41-.56-.52-.25-1.6-1.2-1.88,0,0-.05-.04-.05-.04,0-.36-.2-.54-.54-.6.04-.52.08-1.05.12-1.57.48-1.49,1.65-1.93,3.05-2.26,2.99-.71,6.1-.54,9.05-1.41.95-.28,1.9-.23,2.88.06,2.08.63,4.16.16,6.21-.23,2.21-.41,4.46-.42,6.64-.23,1.48.13,3.02.74,4.47,1.33.72.29,1.36.94,1.46,1.74.17,1.34.91,2.42,1.39,3.62.26.66.43,1.24-.03,1.84-.47.62-.54,1.26-.44,2.03.17,1.37,0,1.54-1.28,1.93-.37.12-.9.12-1.1.37-1.11,1.42-2.51.9-3.92.78-1.81-.16-3.66.16-5.45-.38-.44-.13-.91.02-1.16.51-.11,0-.22.03-.31.09-.93-.03-1.79-.29-2.62-.71-.47-.24-.94-.4-1.5-.31-3.79.6-7.53-.08-11.23-.65-1.65-.26-3.43-.99-3.64-3.21-.01-.14-.27-.26-.41-.39Z"/>
  <path class="cls-1" d="m253.83,211.4c.84,1.36,2.44,1.82,3.5,2.93.47.49.93.9.91,1.63-.03.94.48,1.72,1.12,2.19.99.72.86,1.58.89,2.58.06,2.37-1.58,3.39-3.25,4.43-.4.25-.87.19-1.33.13-1.08-.15-2.05.1-2.89.82-.39-.01-.79-.03-1.18-.04-.55-.5-1.24-.33-1.87-.33-2.67.02-5.35-.04-8,.18-1.3.11-2.57-.27-3.85.01-1.57.35-3.14.85-4.77.22-.27-.11-.66-.04-.96.05-1.48.41-2.97.25-4.46.21-.39-.17-.8-.21-1.21-.16-.27-.31-.54-.3-.81.01-.38-.09-.76-.11-1.14.04-3.12-.37-6.25-.33-9.38-.26-2.75.06-5.48-.31-8.21-.5-1.81-.13-3.63.13-5.44-.24-.82-.17-1.36-.28-1.77-1.18-.56-1.22-.86-2.4-.83-3.74.05-1.89-.09-3.79-.1-5.69,0-1.6.32-1.86,1.86-1.62,1.68.26,3.3.23,4.96-.3,1.24-.39,2.58-.26,3.89-.17.98.07,1.96.07,2.93.14.42.03.88,0,1.1-.29.82-1.07,2.09-1.26,3.2-1.75,1.17.23,2.33.42,3.47-.12.61.46,1.3.34,1.99.25,1.04.67,2.06.97,3.02-.14.3,0,.6,0,.9.01.32.83.74.69,1.19.11.24-.02.48-.04.72-.06.02.12.1.19.23.19.97.7,1.73.02,2.54-.37.99.14,1.98.34,3,.24,1.84.42,3.72.16,5.58.24,1.2.05,2.44.35,3.65-.05.5.04,1,.07,1.5.11.91.23,1.83.17,2.75.04.38-.05.75-.11,1.13-.16,1.43.56,2.86,1.16,4.38.24l1.06.15Z"/>
  <path class="cls-1" d="m215.45,264.81c.27.03.55.05.82.08.95.23,1.83-.16,2.73-.33.26.06.51.13.77.19.61.44,1.29.37,1.97.23,1.56-.04,3.12-.07,4.68-.11.54.21,1.09.23,1.64.05.58.17,1.11.02,1.62-.24.66.05,1.33.1,1.99.15.6.22,1.22.24,1.85.13.89-.09,1.79-.19,2.68-.28,1.24.8,2.61.75,4,.67,1.28.87,2.64.59,4,.28.76.5,1.54.92,2.5.74.98.57,1.55,1.6,2.45,2.26.16.23.32.46.48.7-.1,1.06.07,1.95.8,2.88,1.79,2.28,1.07,5.4-1.33,7.45-.37.32-.85.32-1.3.32-1.64,0-3.24.23-4.84.55-1.41.28-2.82-.18-4.27-.03-1.28.13-2.48.12-3.04,1.44-.85-.21-1.05-1.3-1.96-.95-.97-.17-1.93.03-2.89.05-.27-.41-.54-.44-.8.01-.26,0-.51.01-.77.02-.67-.54-1.34-1.03-2.19-.31-.95.21-1.91.27-2.88.19-.07-.63-.56-.64-1.01-.66-1.36-.04-2.72-.08-4.08-.07-.69,0-1.44-.2-2.04.38-.18-.05-.37-.1-.55-.16-.67-.8-1.4-.84-2.19-.19-.79-.04-1.57-.08-2.36-.12-1.25-1.11-1.88-2.7-2.07-4.17-.2-1.5-.95-3.11-.14-4.69.03-.07-.1-.22-.16-.33,0-.2,0-.39.01-.59.63-.28.71-.91.79-1.45.19-1.26.58-2.24,2.08-2.33.28-.02.66-.26.77-.51.47-.99,1.46-.91,2.27-1.2Z"/>
  <path class="cls-1" d="m326.33,312.34c.18.31.36.61.54.92-.34.63-.13,1.21.09,1.84.34.95.77,1.94.08,2.94-.55-.09-.79.19-.86.7h0c-.79-.14-1.44.11-1.93.75-.24.07-.48.14-.72.21-.64-.24-1.26-.42-1.66.37-.51.03-1.04-.04-1.52.2-.84-.37-1.74-.1-2.61-.21-1.3-.28-2.57-.47-3.43.89-.15.04-.22.14-.21.3-1.31-.64-2.61-.24-3.92.01-1.24-.55-2.57.02-3.83-.29-.16-.86-.74-1.35-1.48-1.71.15-.33.2-.65-.18-.87.02-.26.04-.52.06-.78.27-.88.09-1.09-.97-1.1,0,0-.04-.02-.04-.02.16-.5.03-.86-.51-1.01l-.18-.63c.58-1.18,1.64-1.76,2.76-2.3,1.22-.58,2.41-.93,3.68-.13.25.15.67.17.96.09,2.09-.62,4.27-.28,6.39-.64,3.17-.55,6.4-1.17,9.49.47Z"/>
  <path class="cls-1" d="m292.09,196.3c-.1-.04-.19-.09-.29-.11-.04,0-.09.05-.14.07,0,0-.04-.11-.04-.11h-.12c-.49-.39-.9-.37-1.23.19-.19,0-.38,0-.57-.01-.73-.3-1.33.13-1.98.31-.38,0-.76-.02-1.14-.02-3.01.12-6.02.23-9.03.35-.28,0-.55-.01-.83-.02-.48-.15-.82.02-1.02.47-.17.02-.35.04-.52.06-.38-.4-.89-.52-1.38-.7-.54-.66-1.28-.78-2.08-.84-1.07-.08-.56-1.55-1.49-1.8-.25-.07-.49-.18-.72-.29-.54-.26-.96-.67-1.23-1.2-.52-1.05-.76-2.18-.6-3.35.06-.46.17-.91-.42-1.12-.03-.07-.07-.12-.13-.17.03-1.06.23-2.13-.25-3.15-.08-.25-.16-.5-.24-.74.22-.03.36-.14.36-.37,0,0,.03,0,.03,0,.58-.06,1.16-.15,1.74-.17.62-.03,1.22-.12,1.5-.72.45-.94,1.33-.97,2.14-1.12,1.53-.28,3.12-.36,4.61-.79,1.47-.43,3.06-.43,4.43-1.2.93-.11,1.87-.23,2.8-.34.05.26.1.52.16.78-.17.64-.11,1.11.72,1.13.68.02,1.37.08,2.05.13.59.9,1.38.71,2.2.41.75.12,1.45.52,2.24.4,0,0,.09-.02.09-.02.13.61.51.8,1.09.68,0,0-.02-.02-.02-.02.15.51.29,1.02.44,1.53-.02,1.16.69,2.07,1.07,3.09.99,2.62,1.35,5.14-.84,7.39-.11.12-.1.37-.14.55-.08.23-.15.46-.23.69-.35-.07-.69-.02-1.01.14Z"/>
  <path class="cls-1" d="m212.99,325.04c.6-1.37.26-2.82.31-4.23.03-.78-.03-1.56.17-2.34.68-2.67.72-2.46,3.44-3.1,4.35-1.02,8.71-.44,13.06-.51,2.8-.05,5.61-.12,8.42.26,2,.27,3.94.83,5.94,1.06,1.68.2,2.66,1.31,3.24,2.79.41,1.04.84,2.05,1.5,2.96.47.64.6,1.45.71,2.23.23,1.61-.23,2.11-1.79,2.72-2.37.92-4.76,1.32-7.29,1.02-1.11-.13-2.2-.02-3.24.53-.75.39-1.59.62-2.41,0-.18-.14-.54-.24-.74-.17-1.31.5-2.58.02-3.87-.08-3.62-.28-7.24-.48-10.86-.77-1.8-.14-3.58-.42-5.02-1.67-.53-.23-1.06-.46-1.58-.69Z"/>
  <path class="cls-1" d="m109.49,156.28c.23-.02.45-.04.68-.06,1.2.38,2.38.55,3.51-.19.31-.01.61-.07.86-.29.22.14.44.18.68.05.48.36,1.02.27,1.56.18.34.14.63.09.85-.23,1.04-.03,2.09.35,3.13-.04.78.32,1.57.17,2.36.07.29.28.59.32.91.05.86.27,1.74.13,2.61.17.22.34.52.42.89.26.26.01.52.03.78.04,1.47,1.01,2.54,2.35,3.27,3.97.05.11.17.19.26.29.22.25.31.55.36.88.49,3.1-.54,4.8-3.5,5.7-.43.13-.91.07-1.34.21-1.31.41-2.77.39-3.93,1.28-.24.05-.47.1-.71.15-.66-.51-1.39-.47-2.19-.5-1.94-.09-3.88,0-5.81-.03-2.17-.03-4.12-.91-6.23-1.13-1.32-.13-1.46-.52-1.57-1.94-.1-1.34-.08-2.66-.67-3.99-.57-1.26-.9-2.74-.37-4.19l-.06-.09c.39.14.78.12,1.17,0,.84-.14,1.77.07,2.48-.61Z"/>
  <path class="cls-1" d="m306.01,351.6c-.12-.31-.25-.61-.37-.92.34-.71.01-1.14-.66-1.27-.62-.12-1.27-.18-1.91,0-.27-.25-.54-.51-.8-.76.09-.46-.08-.72-.56-.74.15-.52.3-1.04.12-1.59.15-.7-.19-.84-.78-.69-.55-.1-.77-.57-1.06-.96-.09-.89.15-1.71.52-2.51,1.41-.07,2.84,0,4.03-1,.36-.31.84-.29,1.3-.24.48.05.89-.07,1.19-.48,1.97.27,3.93.53,5.9.79.12.02.25-.06.38-.09.24,0,.49-.02.73-.02.59.18,1.16.18,1.69-.2,1.64.55,3.3.37,4.96.12.76.26,1.4-.13,2.07-.37.52.27,1.09.46,1.49.92-.07.57-.22,1.15.36,1.56-.06.52-.21,1.05.07,1.56.1.64.21,1.28.31,1.92l-.78,1.16c-.34.06-.62.27-.76.55-.48,1.01-1.15,1.28-2.29,1.1-.9-.15-1.92-.33-2.84.15-.23-.04-.47-.07-.7-.11-.59-.25-.95.13-1.39.43-2.42,1.64-5.21,2.35-7.99,3.05-.39.1-.59-.09-.83-.33-.41-.41-.78-.89-1.39-1.04Z"/>
  <path class="cls-1" d="m231.96,160.08c.31-.07,4.75.38,5.22.42.62.05,1.23.57,1.86.07.73.03,1.45.05,2.18.08.64.89,1.29,1.78,1.9,2.69,1.51,2.23,1.63,3.82-.05,5.8-.63.74-1.05,1.48-1.14,2.42-.05.55-.17,1.05-.8,1.2-2.25.53-4.32,1.8-6.74,1.62-.58-.04-.91.37-1.29.77-1.41,1.47-3.12,2.44-5.2,2.24-2.16-.21-4.3.21-6.44-.03-2.13-.24-4.26.65-6.39-.01-1.26.69-2.53.29-3.81.06-.55-.1-1.17-.24-1.72.12-1.3-.01-2.61-.03-3.91-.04-.81-.22-1.05-1.18-1.85-1.41-.04-.1-.08-.19-.14-.27-.09-1.06.62-2.2-.33-3.16-.02-.26-.04-.52-.05-.78.61-1.05.94-2.1-.02-3.14,0-.26,0-.52,0-.78.86-.95.52-2.06.42-3.13,0,0,0,0,0,0,.78-.04,1.56-.15,2.34-.12,1.5.07,2.38-.61,2.57-2.06.12-.88.64-1.07,1.36-.97.97.14,1.88-.06,2.83-.17,1.85-.23,3.63-1.02,5.54-.78,1.44.18,2.86-.09,4.26-.42.23.02.45.04.68.06,2.67.6,5.28-.41,7.94-.32.25.02.51.05.76.07Z"/>
  <path class="cls-1" d="m129.46,346.36c-1.36,0-3.19-1.65-3.49-3.22-.23-1.21-.32-2.43-.73-3.63-.32-.93.03-1.88,1.02-2.52.98-.63,2.05-.85,3.13-1.03.77-.12,1.57-.06,2.32-.33.38-.14.8-.14,1.12.14.61.54,1.34.43,2.05.48,1.23.09,1.65.43,1.75,1.65.09,1.17.14,2.29.7,3.4.46.91-.18,1.97-1.28,2.27-1.91.51-3.67,1.32-5.28,2.45-.39.27-.84.36-1.3.35Z"/>
  <path class="cls-1" d="m241.62,112.33c-.55.45-1.2.47-1.86.39-.66-.07-1.3-.02-1.92.2-.65-.43-1.31-.06-1.97,0-.88.1-1.77.2-2.65.31-.81-.37-1.63-.4-2.47-.12-1.01-.59-2.06-.49-3.12-.17-.78-.14-1.54-.93-2.37-.09-2.47.52-4.98-.03-7.45.34-1.13-.51-2.34-.68-3.56-.7-.63-.01-1.32-.08-1.74.59-.2.02-.41.04-.61.07-.98-.46-2.13-.4-3.05-1.13-1.13-.9-1.64-2.08-1.99-3.4-.01-.39-.03-.79-.04-1.18.51-.15.73-.53.79-1.01.23-1.88,1.43-3.3,2.29-4.89.53-.99,1.33-1.38,2.43-1.2.13.02.27,0,.39.04,2.95.77,5.95.29,8.93.41.78.03,1.55.28,2.32.28.72,0,1.63.29,1.99-.74.09-.06.15-.15.19-.25,1.18-.34,2.31.51,3.49.17.72.34,1.45.5,2.22.21,1.74.03,3.39.98,5.18.55.26-.06.52.03.72.22.97.88,2.38,1.21,2.83,2.77.29.99,1.16,1.81,1.76,2.71.02.38.04.76.07,1.14-.35.47-.24.98-.04,1.43.39.86.26,1.58-.39,2.24-.22.23-.39.49-.37.83Z"/>
  <path class="cls-1" d="m275.22,153.3c.62.12,1.24.12,1.87,0,2.66.57,5.29-.41,7.95-.12.29.03.64-.16.9-.33.84-.57,1.81-.65,2.76-.88,1.14-.27,2.35-.06,3.45-.53.37.14.74.21,1.14.13.2.36.49.48.88.32.26.22.52.44.78.66.15,1.76.92,3.01,2.21,3.6.02.11.07.22.15.31.02,1-.38,2.08.55,2.91.01.23.03.45.04.68-.5.72-.8,1.5-.55,2.39.14.49.19.96-.38,1.14-1.18.36-2.11.99-2.74,2.08-.11.19-.44.33-.67.34-1.04.05-2.04.37-3.11.3-3-.2-5.99-.2-9,.06-2.3.2-4.63.33-6.95.12-1.58-.14-2.25-.71-2.63-2.27-.16-.66-.47-1.21-.99-1.65-1.12-.96-1.59-2.2-1.57-3.65h0c1.16-.6.89-1.66.67-2.56-.17-.71-.05-1.1.38-1.7.83-1.14,1.73-1.64,3.13-1.3.54.13,1.15-.03,1.73-.05Z"/>
  <path class="cls-1" d="m372.62,338.44c-.27.02-.54.03-.81.05-.2-.24-.51-.29-.68-.1-.82.92-1.87.98-3,.99-1.48.01-1.84.21-2.14,1.71-.21,1.05-.65,1.23-1.55,1.16-.93-.06-1.78.22-2.44.92-.24.07-.47.15-.71.22-.42-.27-.78-.2-1.09.19-.69.17-1.38.35-2.07.52-1.06-.28-2.14-.73-3,.43-.64.47-1.44-.01-2.1.34-.31-.23-.6-.24-.85.1-.26.02-.52.04-.79.06-.9-.67-1.65,0-2.45.27-.79-.13-1.57-.23-2.27.3-.93-.14-1.85.12-2.77.17-.48-.48-1.09-.36-1.65-.29-1,.12-1.92-.08-2.81-.51l-.14-.02s-.03.13-.03.13c.28-.53.04-1.01-.15-1.5-.12-1.21-.18-1.25-1.5-1.19-.52-.13-1.04-.27-1.56-.4-.74-.53-1.59-.98-1.77-2.01.28-1.23-.69-1.7-1.42-2.32.27-.65.06-1.09-.57-1.37-.02-.33-.05-.67-.07-1,.51-.16.75-.54.86-1.03.53.03,1.05.06,1.58.09.25.44.67.57,1.14.6,2.13.17,4.19-.42,6.28-.66.09-.01.16-.19.23-.29.55-.02,1.14.24,1.6-.28,1.04.25,2.08.34,3.14.15,1.63.5,3.17.47,4.54-.71.19-.08.38-.16.57-.24,1.37.55,2.83.64,4.19.23,1.6-.48,3.18-.68,4.83-.69.61,0,1.36.24,1.69-.6l.02-.12s-.12-.03-.12-.03c.37.23.78.15,1.18.12.52.5,1.05.47,1.57.01.79.05,1.58.06,2.36-.1,1.36.37,2.71.17,3.9-.58.29.04.59.08.88.12.19,1.2.25,2.44.61,3.59.43,1.37.26,2.49-.66,3.55Z"/>
  <path class="cls-1" d="m202.45,198.23c-.11-.07-.22-.11-.35-.1-.46-2.42-.13-4.89-.45-7.33-.03-.25,0-.52.02-.78.17-1.52.44-1.78,1.93-1.83,3.9-.14,7.65-1.41,11.56-1.43.23,0,.45-.22.68-.33.39-.03.77-.06,1.16-.09.46.39,1,.62,1.6.56,1.97-.19,3.97-.16,5.91-.68.31-.02.61-.05.92-.07,1.28-.03,2.54.54,3.83.14.37.07.73.14,1.1.22.97.88,2.03.45,3.03.11,1.07-.37,2.09-.93,3.21-.12.16.12.5,0,.75,0,.68.3,1.36.38,2.05.05.77.34,1.53.12,2.29-.05.28.19.59.25.93.19.83.39,1.9.48,2.12,1.65.76,1.8,1.32,3.68,2.6,5.26,1.48,1.83.38,5.35-1.82,6.22-.66.26-1.35.43-2.08.45-.73.02-1.43.18-1.74.98-.63.2-1.18.51-1.57,1.06-1.54-.06-3.11-.57-4.61.25-.35-.2-.73-.24-1.12-.17-.7-.22-1.37-.15-2.04.13-1.39-.51-2.78-.81-4.15.07-.11.02-.18.09-.2.2-.53-.17-1.04-.17-1.55.06-.93-.63-1.84.14-2.76.04-.62-.67-1.29-.54-1.98-.12-.33-.02-.67-.05-1-.07-.26-.68-.78-.73-1.38-.55-.2-.08-.39-.16-.59-.24-.19-.61-.64-.78-1.22-.75-.67-.3-1.31-.7-2.07-.76-1.42-.96-2.89-.67-4.36-.19-.25,0-.5-.02-.75-.03-.25-.55-.73-.48-1.17-.37-.9.21-1.82.16-2.73.21-1.37.08-2.63-.01-3.3-1.48-.11-.24-.41-.3-.69-.31Z"/>
  <path class="cls-1" d="m242.67,253.49c-3.35-.72-6.76.03-10.16-.38-3.55-.42-7.18-.25-10.77-.19-1.63.03-3.23-.62-4.87-.14-.31.09-.7-.05-.89-.31-.83-1.1-2-1.11-3.2-1.05-.75.04-1.2-.3-1.51-.99-.52-1.19-1.26-2.26-.54-3.7.35-.71.38-1.7.24-2.51-.23-1.35.45-2.56.35-3.88-.05-.65.42-.85,1.04-.86,3.38-.06,6.77-.16,10.15-.22.58-.01,1.19.03,1.75.16,1.37.33,2.74.3,4.1.07,1.43-.24,2.83-.18,4.28-.09,1.74.1,3.5.03,5.26.03,1.51,0,3,.12,4.5.26,1.24.12,2.01.7,2.82,1.75,1.07,1.39,1.4,3.23,2.84,4.35.49.38.51,1,.51,1.62,0,1.1-.45,2.18-.13,3.31.14.49-.21.98-.63,1.11-1.72.52-3.11,2.08-5.14,1.65Z"/>
  <path class="cls-1" d="m347.42,299.91c-.39.03-.77.06-1.16.09-.1-.08-.19-.21-.3-.23-1.95-.21-3.88.19-5.82.31-.03,0-.05.11-.08.17-.31-.02-.62-.04-.93-.06-.46-.66-.8-1.55-1.89-.98-.28-.15-.56-.29-.84-.44-.12-.43-.6-.8-.42-1.27.7-1.79-.12-3.32-.83-4.85-.3-.65-.25-.91.46-1.11,1.98-.56,3.99-.68,6.01-.39,2.22.32,4.41-.33,6.63-.12.28.03.61-.21.89-.36.86-.45,1.9-.62,2.67-.3,1.87.8,3.72.26,5.55.19,1.32-.05,2.59.22,3.89.15.72-.04,1.24.37,1.62.93.29.43.61.87.75,1.36.24.83,1.42,1.54.7,2.46-.81,1.04-1.63,2.09-3.18,2.39-2.75.55-5.5.97-8.3,1.06-1.56.05-3.07.57-4.66.47-.33-.02-.63.16-.77.5Z"/>
  <path class="cls-1" d="m355.33,317.81c-.45-.04-.88,0-1.21.37-.51,0-1.03.01-1.54.02-.45.08-.94.05-1.33.25-2.39,1.2-5.04,1.23-7.58,1.7-1.94.35-3.75-.26-5.29-1.5-.5-.4-.98-.83-.99-1.6-.01-1.11-.74-1.59-1.75-1.75-.08-.08-.18-.12-.29-.12-.2-.48-.43-.95-.61-1.43-.41-1.12.02-1.84,1.16-1.85,3.05-.03,6.06-.53,9.1-.65,2.62-.1,5.23-.62,7.73-1.68,1.14-.48,2.56-.31,3.85-.43.38-.04.88.1,1.14-.09,1.2-.9,2.52-.8,3.88-.64.58.07,1.17-.07,1.69-.38.58-.35,1.19-.51,1.87-.43.18.3.26.62.19.97-.83.53-.91,1.14-.31,1.95.44.59,1,1,1.54,1.47.83.72.78,1.22-.15,1.84-1.07.71-2.18,1.37-3.27,2.05-.35.05-.71.1-1.06.15-.59-.25-1.19-.02-1.69.18-1.27.51-2.74.48-3.82,1.48-.42.05-.84.09-1.25.14Z"/>
  <path class="cls-1" d="m130.4,188.33c.68,1.26,1.49,2.44,2.84,3.03.82.36,1.02.9.97,1.7-.07,1.11-.46,2.17-.4,3.3.03.58-.37.96-.87,1.21-2.13,1.07-4.35,1.72-6.76,1.55-.8-.06-1.56.08-2.3.33-.29-.04-.59-.11-.76.24-1.04-.26-2.09,0-3.14-.03-.81-.52-1.63-.38-2.45-.02-.46-.14-.92-.16-1.38,0-1.21-.33-2.42-.46-3.65-.14-.65-.17-1.3-.34-1.96-.51-.7-1.18-1.04-2.44-.93-3.83.04-.5.07-1.05-.53-1.31-.03-.4.04-.83-.3-1.16.53-.83-.03-1.7.08-2.58.29-2.38.18-2.39,2.61-2.75.24-.03.45-.22.67-.34.8-.02,1.5-.54,2.32-.42,1.83-.25,3.73.13,5.52-.53.23.02.45.03.68.05.22.36.48.59.89.24.26.02.53.04.79.06,1.1,1.07,2.39.54,3.62.43.26.07.51.06.73-.12.25.23.5.27.74-.02.23.09.46.18.69.27.45.58,1.07.59,1.72.51.13.03.26.05.38.08.06.26.12.51.18.77Z"/>
  <path class="cls-1" d="m111.88,271.48c.11-.96.13-1.85-.16-2.76-.69-2.2.42-3.73,2.69-3.33,1.38.24,2.25-.21,3.18-.9.61-.45,1.28-.62,2-.72,1.61-.23,3.24-.42,4.84-.72,1.11-.21,2.21-.29,3.3-.04.6.14,1.16.05,1.75-.05.93-.16,1.86-.09,2.69.33,1.34.66,2.74.84,4.2.73,1.32-.1,2.36.49,2.94,1.58.58,1.08,1.36,1.9,2.33,2.58.89.62.87,1.37.7,2.4-.38,2.2-1.46,3.23-3.73,3.14-3.13-.13-6.17,1.05-9.33.72-.3-.03-.62.14-.93.24-.31.1-.63.36-.91.32-4.24-.67-8.35.91-12.56.68-.2-.01-.39-.01-.59-.03-1.77-.16-2.14-.51-2.3-2.25-.06-.65-.07-1.3-.1-1.91Z"/>
  <path class="cls-1" d="m294.84,94.66c1.04.21,1.99.88,3.12.6,1.49.23,2.27,1.26,2.94,2.5.75,1.4.98,2.97,1.47,4.45.27.81-.21,1.35-1.06,1.56-1.27.31-2.51.68-3.85.65-1.97-.04-3.82.58-5.58,1.36-.65.29-1.18.39-1.85.25-1.1-.22-2.22-.28-3.3.11-2.22.8-4.51.32-6.77.42-.45.02-.97-.21-1.35-.06-2.2.9-3.93-.41-5.76-1.17-.55-.23-1.97-2.75-2.18-3.59-.24-.99-.29-1.99-.93-2.93-.69-1.01.29-2.58,1.72-2.66,1.76-.09,3.29-.6,4.82-1.4.67-.36,1.49-.49,2.29-.47,2.81.08,5.62.18,8.44.23,1.5.03,2.95.2,4.41.6,1.12.3,2.35.16,3.43-.44Z"/>
</svg>