<svg xmlns="http://www.w3.org/2000/svg" viewBox="0 0 1080 1080"><g stroke-width="2" fill="none"><path stroke="#a0a0a0" vector-effect="non-scaling-stroke" d="M269.56 0q-.65.11-1.32.38-.22.09.01.17l2.94 1a1.06 1.06 0 0 1 .71.97q.26 8.62 8.15 10.98.54.16.94.56l5.79 5.94a1.18 1.15-22.2 0 0 .86.35l17.55-.45a.55.55 0 0 1 .56.55v.3a.38.38 0 0 1-.38.38c-7.28-.09-22.59-1.9-26.8 5.19-1.46 2.47-.2 5.37 2.68 5.44q9.13.23 18.73.8a1.56 1.56 0 0 1 1.44 1.26l1.03 5.38a.96.94 9.5 0 0 .49.67q7.2 3.88 9.27 11.68a2.05 2.04-87.8 0 0 1.28 1.39q5.83 2.15 11.85 3.4c9.25 1.91 15.48 6.64 23.46 11.07 3.79 2.1 5.76-.52 5.66-4.24-.23-8.39.99-18.21 11.26-18.36 6.94-.1 10.42 9.87 16.87 6.65a.44.44 0 0 0 .16-.65c-6.05-8.39-19.36-22.44-26.93-5.16a1.42 1.4 88.3 0 1-.64.69c-10.87 5.71-22.27 3.25-29.86-6.45-4.41-5.63-17.46-16.92-17.58-24.07q-.13-7.93.57-15.82M490.31 0c-2.05 10.95-2.38 12.82-13.52 15.23a1.15 1.13-81.3 0 0-.74.55l-5.72 10a1.38 1.38 0 0 0 .37 1.79q8.63 6.47 2.58 16.08a1.67 1.67 0 0 1-2.44.42q-5.95-4.62-13.06-6.26a1.21 1.21 0 0 1-.94-1.26q.8-10.71 7.21-18.94a1.23 1.23 0 0 0 .25-.9c-.52-4.11-11.67-2.83-13.75-2.42a1.47 1.47 0 0 0-.87.52q-7.5 9.05-19.43 8.93a1.03 1-72.7 0 0-.87.47c-1.03 1.62-1.19 3.68-2.24 5.01q-2.47 3.12-6.77 3.18a1.43 1.43 0 0 0-.89.31c-1.12.9-1.15 2.63-1.57 3.51-3.19 6.66-10.11 6.65-12.52 14.46a.9.9 0 0 1-.6.6l-3.66 1.11a1.69 1.61 9.8 0 0-.79.53q-1.96 2.42-1.95 5.6a.6.59-1 0 1-.58.59l-3.97.11a1.77 1.77 0 0 1-1.82-1.7q-.1-2.6-1.37-4.65a1.7 1.67 84.2 0 0-.78-.65q-4.51-1.79-6.82 2.1a1.46 1.46 0 0 1-.78.65l-5.63 2.06a1.35 1.34-24 0 0-.73 1.89q2.03 3.84 5.07 7.03c4.12 4.32 10.97 7.36 11.99 13.81.88 5.55-.31 12.88 2.63 19.22a2.17 2.17 0 0 1 0 1.82c-1.2 2.54-3.77 5.58-3.51 8.23.39 4.04 3.35 5.08 6.45 6.79a1.53 1.47 3.7 0 1 .65.71q1.9 4.41-1.65 7.51-3.88 3.39-15.83 12.54c-7.35 5.62-7.84 12.22-3.17 19.92"/><path stroke="#d6d6d6" vector-effect="non-scaling-stroke" d="m378.54 156.5-.29.71"/><path stroke="#a0a0a0" vector-effect="non-scaling-stroke" d="M378.25 157.21c-3.88-.04-11.05-1.06-14.18.73-6.29 3.59-2.27 9.61-5.65 14.65-2.42 3.61-5.91 2.3-6.56 8.12a1.19 1.14-16.7 0 1-.45.8c-3.9 3.05-7.67 3.91-5.01 9.92 2.21 5.02.02 6.65-.62 11.35a.95.92 23.8 0 0 .35.87q7.22 5.69 15.88 8.81a1.93 1.93 0 0 1 1.2 2.34q-1.91 6.72-6.71 10.74"/><path stroke="#d6d6d6" vector-effect="non-scaling-stroke" d="M356.5 225.54h-1.25"/><path stroke="#a0a0a0" vector-effect="non-scaling-stroke" d="M355.25 225.54c-4.5-1.56-9.51-.19-10.15 5.07q-1.17 9.58 4.67 17.16a1.03 1.03 0 0 1-.38 1.56l-5.78 2.64a1.23 1.23 0 0 0-.66 1.47c1.67 5.41 8.32 8.27 13.08 10.44a1.88 1.82 85.1 0 1 .76.66q6.03 9.19 14.78 15.86a1.96 1.95-82 0 1 .65.87l8.26 22.43a1.49 1.45-85 0 0 .64.78c5.17 3.04 10.94 5.18 16.31 7.91a1.49 1.44 89.6 0 1 .66.67c4.64 9.34-.68 19.72 5.42 28.42 6.41 9.16 11.65 18.16 14.04 28.57q.94 4.1 1.83 8.25a1.51 1.48 13.7 0 0 .54.87l6.65 5.28a1.63 1.6 10.1 0 1 .49.69c1.97 5.54 5.99 10.78 12.04 11.94q9.48 1.82 13.49 10.42a2.64 2.62-8.8 0 0 2.03 1.48c10.63 1.4 16.27 7.03 21.38 15.87a1.62 1.58-2.2 0 0 .7.63q5.05 2.32 10.17 4.5c2.98 1.27 6.56-4.5 8.17-6.48"/><path stroke="#d6d6d6" vector-effect="non-scaling-stroke" d="m495.04 423.5 2.21-.29"/><path stroke="#a0a0a0" vector-effect="non-scaling-stroke" d="M497.25 423.21q9.8 3.45 9.95 13.86 0 .54.27 1.01 6.26 11.09 2.27 23.35a1.91 1.84-43.9 0 0-.04 1.04l.36 1.53q.11.46.41.83c6.51 8.11 10.14 20.32 14.32 29.92"/><path stroke="#d6d6d6" vector-effect="non-scaling-stroke" d="m524.79 494.75 2.5 5"/><path stroke="#a0a0a0" vector-effect="non-scaling-stroke" d="M527.29 499.75c1 2 2.53 4.18 2.74 6.26.66 6.63-8.44 9.28-11.94 13.6q-4.78 5.88-3.61 14.94c1.1 8.65 1.98 17.23-.8 24.39q-2.16 5.56-6.7 12.74-9.32 14.75-11.58 32.09c-.6 4.57-1.01 9.06-2.73 13.36-1.54 3.87-3.91 8.24-4.44 11.99-1.32 9.21 4.63 15.01 6.06 23.37 2.14 12.55 1.11 24.73-5.16 36.3a1.54 1.53-35.4 0 0-.16.93q2 13.51-7 22.92c-2.39 2.5-3.62 4-2.56 7.28 2.59 8.03 5.68 27.89.28 34.95-5.06 6.59-7.64 16.15-10.39 23.96a2.35 2.33 41.8 0 0 .11 1.84c1.86 3.74 4.85 7.89 5.17 12.09q.65 8.71-1.55 17.15c-1.32 5.06-.53 8.69 1.89 12.99a1.59 1.56 32.7 0 1 .21.92l-.85 12.62a1.53 1.49 31 0 0 .24.91c1.88 2.84 6.29 9.38 4.14 12.56-1.94 2.87-3.39 5.11-3.52 8.74-.32 9.41-.15 17.82-3.42 27.48-3.63 10.72-9.21 17.7-8.44 29.87a1.15 1.12-26.6 0 1-.3.86q-3.25 3.57-5.15 7.94c-1.87 4.3-4.71 7.05-7.58 10.48a.71.7-44 0 0-.02.89q9.3 12.22 18.01 24.78 3.14 4.52 4.69 9.61a1.74 1.73 88.2 0 0 1.26 1.19c11.84 2.81 23.93 2.92 35.69 7.96a.9.89 38.3 0 0 .88-.1q.53-.39.53-1.26a2.18 2.16-77.2 0 0-1.19-1.91c-7.53-3.81-5.68-10.5-5.03-17.46q.41-4.46-.63-6.18c-1.75-2.86-3.84-6.24.18-8.66q3.98-2.39 7.96-4.88a1.44 1.41 84.5 0 0 .59-.73q1.68-4.49 5.44-7.38c2.76-2.13.27-6.03 3.52-9.06 1.17-1.09 4.26-1.64 4.85-2.88q5.9-12.51 15.75-22.23 2.19-2.16 4.33-4.4c6.5-6.79-7.49-9.6-11.59-9.97a1.65 1.63-23.2 0 1-.89-.35c-2.7-2.17-10.3-7.01-10.31-10.5-.03-8.35.22-15.5 8.78-19.79q3.37-1.69 4.19-2.73 6.17-7.79 16.13-9.43a1.44 1.44 0 0 0 1.2-1.33l1.12-18.74a1.49 1.43-23.7 0 1 .36-.87q4.09-4.61 3.82-10.16a1.36 1.35-80.8 0 1 1.84-1.33c4.96 1.9 11.07 5.08 15.08-.31 1.49-2 1.3-4.57-1.38-5.24-2.91-.74-4.57 2.33-7.24 2.68-4.8.62-11.02-5.23-13.79-8.74a1.79 1.78-59.6 0 1-.37-1.43l2.94-16.86a1.44 1.42-16.6 0 1 .46-.84q3.6-3.25 7.92-1.2c1.42.67 2.91 2.82 4 3.22q6.55 2.39 13.25 4.62a2.21 2.2-53.5 0 0 1.99-.3q5.56-4.01 8.89-10.64a.74.74 0 0 0-.09-.82q-3.44-4.16-3.11-9.6a1.8 1.78 66.5 0 1 .38-.98c1.34-1.71 3.3-4.39 3.01-6.66-.66-5.02-6.46-6.29-2.59-12.01 2.23-3.29 4.52-3.13 7.41-.59 6.33 5.55 13.48 5.18 21.25 1.99q14.88-6.13 28.21-15.06c6.73-4.51 10.16-11.32 16.75-15.84 14.34-9.84-17.64-13.18-6.36-24.34a1.63 1.62-16.5 0 0 .46-.84c1.77-8.2-12.17-7.33-16.53-7.35a.88.86-13.5 0 1-.75-.45c-1.98-3.64 1.66-6.23 1.53-9.87q-.23-6.22-.49-12.42"/><path stroke="#d6d6d6" vector-effect="non-scaling-stroke" d="M642.54 657.5h.42"/><path stroke="#a0a0a0" vector-effect="non-scaling-stroke" d="M642.96 657.5q7.49 5.67 11.29 14.34a.96.96 0 0 0 .69.56q4.72 1.01 9.55 1.77c3.33.53 4.93 1.98 6.33 4.83a1.11 1.1-9.2 0 0 .84.6l1.47.19a.73.72-76.9 0 0 .78-.49l1.82-5.43a1.7 1.69 10.2 0 1 1.68-1.16c13.14.55 24.68-2.83 29.84-16"/><path stroke="#d6d6d6" vector-effect="non-scaling-stroke" d="M707.25 656.71q1.46.08 2.5-1"/><path stroke="#a0a0a0" vector-effect="non-scaling-stroke" d="M709.75 655.71q7.94-3.12 9.21-11.61a1.26 1.25-13.4 0 1 .52-.84l5.33-3.83a1.38 1.35 77.8 0 0 .55-.87q1.43-8.26 2.84-16.53c.72-4.24-.96-9.59 2.87-12.45q1.2-.89 5.58-3.71c2.03-1.31 1.99-3.38 2.81-4.79 5.18-8.87 15.55-16.73 23.01-23.86 2.46-2.35 6.07-3.18 7.89-5.94q3.86-5.84.33-12.79c-4.12-8.13-3.32-13.72-.44-22.56q4.02-12.36 17-14.25 2.64-.39 3.62-1.3 10.43-9.71 23.87-14.39a1.58 1.54-81 0 0 .75-.56c2.3-3.17 3.8-6.81 5.78-10.23a.89.88-75.6 0 1 .75-.45c4.44-.04 8.67.86 13.11.69a1.28 1.25 20.5 0 0 .86-.38q6.97-7.16 16.32-6.64c2.03.12 2.73.47 4.3-1.21q5.17-5.52 12.28-8.12c1.83-.67 2.27-1.52 2.68-3.28q3.77-16.02 4.91-30.87c.44-5.73 7.33-15.56 10.34-20.6a2.52 2.52 0 0 1 1.56-1.15c8.24-1.93 4.14-19.75 3.43-25.27-.88-6.9.46-13.18 1.96-19.74.85-3.7-3.51-6.98-5.5-9.82a1.52 1.5 28 0 1-.27-.86v-8.68a1.39 1.38-23.9 0 1 .37-.94q4.04-4.36 4.56-10.33a1.51 1.47-22.8 0 1 .36-.85c11.24-12.98 19.87-20.19 30.77-29.88q5.02-4.47 6.22-8.1 4.73-14.33 10.62-28.21c3.87-9.13 5.64-20.51-1.06-28.84q-3.4-4.24-13.54-11.25c-12.85-8.9-23.69-15.59-35.92-28.34-7.83-8.16-23.9-2.19-33.71 1.22a1.32 1.32 0 0 1-1.63-.68c-1.34-2.75-2.01-6.57-6.37-5.01-4.99 1.78-7.08 5.57-13.02 6.51a1.13 1.12 59.3 0 1-.85-.22q-6.28-4.77-11.66.84a1 1 0 0 1-.97.29l-.86-.2a.78.77-82.8 0 1-.6-.78c.07-3.14 1.96-11.11.27-12.74a1.36 1.33 67.3 0 0-.87-.37q-11.94-.56-23.03-4.66c-5.26-1.94-11.87-6.04-17.81-8.05-7.03-2.38-10.22 2.69-12.32 8.59a1.46 1.46 0 0 1-.6.75c-3.68 2.31-12.47 3.07-11.84-3.87a2.07 2.06 72.6 0 1 .71-1.37l12.95-11.12a1.16 1.16 0 0 0-.02-1.79c-5.33-4.31-21.94-14.26-26.67-4.67-.7 1.43-.74 3.45-1.23 5.14a.77.76 4.5 0 1-.65.55c-5.2.63-16.94-5.01-6.92-9.75 3.19-1.51 25.92-16.61 12.38-19.43q-5.01-1.04-4.38-6.99a.64.63 13 0 0-.42-.66q-9.76-3.63-12.43-13.55c-.46-1.71-1.34-3.25-3.3-2.49q-8.78 3.4-10.26 12.25a.92.9-87.1 0 1-.83.76q-5.52.45-10.27 1.09c-6.58.9-11.07.97-12.25-6.5a1.46 1.45 81.3 0 0-1.64-1.21l-12.76 1.88a2.61 2.59 7.3 0 0-2.02 1.55l-3.34 7.82a1.81 1.8-62.2 0 1-2.63.82l-6.55-4.16a1.32 1.27-33.8 0 0-.94-.17q-5.7 1.16-11.07 3.4a1.47 1.45-88.1 0 0-.73.69c-1.07 2.17-2.94 7.33-5.67 7.53-11.56.82-16.75-7.7-23.64-16.4a1.48 1.47-65 0 1-.32-.89q-.12-7.76 2.15-17.03 1.22-5.01-.5-10.83a1.21 1.2 6.2 0 0-.58-.72c-7.45-4.04-15.42-12.09-16.65-20.79-.67-4.78-1.54-10.07 3.29-13.18q8.16-5.24 5.56-15.64a.64.63-11.9 0 1 .52-.79l2.12-.32a.67.67 0 0 1 .77.64q.35 12.24-9.38 19.12a1.42 1.4 81.1 0 0-.51.71c-6.27 20.75 21.22 24.61 17.87 38.62q-1.87 7.85-2.51 16.68c-.31 4.24 4.52 9.06 7.85 13.11q5.8 7.05 14.15 4.64a1 .97 1.6 0 0 .65-.6l1.97-5.44a2.33 2.32 1.7 0 1 1.55-1.45l10.78-3.11a1.9 1.9 0 0 0 1.18-2.68l-7.46-14.9a1.88 1.84-87.8 0 0-.65-.72c-6.75-4.31-3.58-13.59-3.29-20.11a1.28 1.27 76 0 1 .62-1.04q11.56-7.02 6.31-19.94a1.38 1.36 81.9 0 0-1.11-.84q-5.2-.63-10.59-1.25c-5.9-.67-4.28-2.95-4.51-7.35q-.48-8.96-8.36-11.67c-5.88-2.02-9.13-3.95-12.95-8.71a.75.74 62.8 0 0-.78-.26c-2.69.75-7.94 3.73-10.4 2.79-10.28-3.93-20.16-9.63-20.5-22.12a.85.84 12.8 0 0-.47-.74l-5.95-3.05a.77.77 0 0 1-.03-1.35l6.19-3.49a.97.95-86.7 0 0 .33-.3q.81-1.09-.05-1.84a1.29 1.27-25.2 0 0-.89-.31c-13.7.54-22.6 6.45-34.14 12.65a1.39 1.37-52.5 0 1-.92.13q-5.09-1.08-6.09-6.63a.69.69 0 0 0-1.24-.29c-5.53 7.54-17.05 5.68-25.19 4.46-4.07-.6-15.22-9.69-17.16-13.34q-2.24-4.18-6.19-6.98a1.4 1.38 10.4 0 1-.54-.77l-2.32-9"/><path stroke="#a0a0a0" vector-effect="non-scaling-stroke" d="m698.19 97.61-5.34 8.31a1.09 1.08-36.5 0 0-.13.83c1.11 4.55 2.72 9.36 2.56 13.78q-.2 5.43-2.23 12.27-1.21 4.09 2.83 7.12a1.33 1.31 59.9 0 0 .91.25l15.09-1.58a.97.97 0 0 0 .8-.6l2.37-5.75q.17-.43.5-.75c1.67-1.66 7.16-4.72 6.97-6.99q-.49-5.93 2.13-10.41a1.71 1.7-49.8 0 0-.16-1.96c-7.12-8.49-13.79-13.38-23.25-18.71-4.71-2.66-9.29-6.76-14.78-9.3a.69.69 0 0 0-.79.15c-2.45 2.63-4.88 5.07-8.25 5.31-3.81.29-14.86-8.4-16.75-3.35q-3.18 8.49-7.77 13.76c-3 3.44-3.36 9.83-3.6 14.21a1.51 1.49 30.2 0 0 .25.92q8.25 12.37 14.55 25.83c1.65 3.52 5.52 4.09 7.07-.05q1.16-3.09 1.66-5.95a1.87 1.86-83 0 1 1.97-1.54q7.36.54 13.74-2.21c11.87-5.12-5.19-24.99 9.31-33.93q.92-.57.34.34"/><path stroke="#e18081" vector-effect="non-scaling-stroke" d="M447.92 961.99c.94 4.21-1.66 4.43-2.49 7.66-2.48 9.64 9.6 1.78 13.47 2.42a1.22 1.21-11.2 0 1 .83.55q.89 1.38.46 2.92a.84.83 1.1 0 1-.63.6l-12.27 2.8a1.09 1.07 5.6 0 0-.74.6q-2.25 4.83-.07 9.68a1.26 1.25-2.1 0 0 .75.69c1.47.49 9.96 1.98 9.17 3.87a1 .98 4.1 0 1-.68.58l-4.83 1.15a2.08 2.06-2 0 0-1.56 1.66q-.87 5.13 3.37 6.76a1.54 1.54 0 0 0 2.05-1.07q1.13-4.58 4.73-7.24c1.06-.77 3.09-.87 3.7-2.78a1.33 1.31-51.2 0 0-.1-1.01q-2.44-4.37-7.5-4.88a.85.84 81.9 0 1-.7-.53q-.74-1.82-.17-3.64a.95.95 0 0 1 .76-.65c10.7-1.68 15.78 2.55 23.3 9.14 1.18 1.03 2.53 1 3.79.3a1.46 1.43-4.1 0 0 .64-.72q3.01-7.28 10.91-8.76a1.06 1.06 0 0 0 .01-2.09l-23.99-4.79a2.49 2.49 0 0 1-1.99-2.23c-.27-3.27-.45-6.67-2.87-9.29-6.7-7.27-10.66-14.9-17.04-22.42q-2.02-2.37-2.48-5.78a1.64 1.6-36.5 0 1 .15-.94q1.75-3.52 4.41-6.37c3.38-3.61 7.72-11.36 8.04-16.32q.57-8.68 5.11-18.41c4.66-9.98 6.36-22.14 7.67-34.45.51-4.78 2.08-8.26 4.18-12.34a.88.87 39.3 0 0-.1-.96l-5.18-6.35a1.37 1.35 26.2 0 1-.31-.89c.08-4.47 1.45-12.87-.18-16.8-3.93-9.44 1.43-20.46.27-29.88a1.5 1.46 20.1 0 0-.41-.85c-11.42-11.31 4.77-30.85 7.59-42.7 1.71-7.17.73-15.03-.64-22.22-1.72-9.03-.39-15.77 7.32-21.33a2.13 2.12-16.6 0 0 .88-1.62c.21-4.92-.47-13.29 1.66-17.59 4.4-8.91 6.65-18.37 4.77-28.23-1.64-8.58-7.21-17.15-7.05-25.7.09-5.06 2.7-10.63 4.27-15.65 3.2-10.29 3.98-21.29 7.76-31.29q3.89-10.3 9.64-19.69c7.31-11.93 5.32-22.56 5.1-35.58q-.16-8.92 6.01-14.62c2.32-2.15 9.38-4.55 7.77-8.42q-7.15-17.14-11.05-28.48-1.69-4.91-6.26-10.93c-2.95-3.9-.43-11.73.12-16.4a1.76 1.72 36.2 0 0-.16-.96q-3.69-7.46-4.45-15.7c-.28-3.01-1.42-4.9-4.52-5.06q-12.04-.64-11.1 11.74 2.18 28.81-4.36 56.82c-.96 4.12 1.14 6.83 3.62 10.51a1.31 1.29-57.9 0 1 .2.9q-1.09 7.45-.63 14.92c.7 11.14-.98 17.7-6.77 27.4a1.81 1.74-31.3 0 0-.25.94q.19 10.02-3.53 19.19c-.53 1.3-.43 3.24-.11 4.32 3.5 11.61 6.46 27.06-4.67 36.52a2.39 2.38 65.6 0 0-.82 2.18c.99 6.58.44 12.87 1.41 19.42 2.03 13.54-.09 25.5-5.4 38.03-4.93 11.66-4.59 23.63-5.22 36.03-.06 1.19-.64 3.4-1.24 4.08-7.93 8.77-22.18 28.66-8.27 38.52 9.58 6.81-6.47 15.94-8.4 22.76-.71 2.53-.1 8.81 3.11 10 7.4 2.75 11.08 8.96 14.98 15.26a1 .99 41 0 1 .07.91c-2.9 6.76-5.38 13.72-5.25 21.29.23 13.59.53 26.51-4.9 39.02q-2.25 5.18-3.58 10.38a.82.81-61.5 0 1-1.34.4q-3.41-3.18-5.79-6.72c-5.23-7.77-10.64 3.39-13.91 8.78-4.2 6.91 9.76 9.85 14 11.43a.93.93 0 0 1 .61.86l.12 4.99a1.09 1.07 75.6 0 1-.56.97l-3.67 1.98a1.51 1.51 0 0 0-.67.76c-3.07 7.68 8.81 7.01 12.98 8a.67.66 6.2 0 1 .51.63l.08 7.8a.46.46 0 0 1-.84.26c-5.84-8.4-10.94-5.53-19.62-5.81a1.59 1.54-59.5 0 0-.91.25q-5.19 3.42-1.26 9.02c3.62 5.17 12.51-4.17 13.12 2.7a.99.97-9.3 0 1-.75 1.03q-10.97 2.6-14.62 13.24a1.38 1.35 44.4 0 0 .02.96q2.01 5.17 7.82 5.79a2.11 2.11 0 0 0 2.22-1.41c1.13-3.23 3.61-11.61 8.15-10.89a1.34 1.33-77 0 1 1.06 1.71c-1.47 4.82-3.52 15.36-6.74 18.81-4.31 4.62-8.56 10.64-5.06 17.11 2.82 5.2 11.58 1.62 15.07-.88a.55.54-24.2 0 1 .85.32"/><path stroke="#e18081" vector-effect="non-scaling-stroke" d="M441.69 819.06q3.11 2.54 5.3-.72a1.62 1.57-29.1 0 0 .26-.87v-28.96a.92.91-73.3 0 0-.4-.76c-1.91-1.28-4.51-1.51-5.34 1.45-2.52 8.97-7.19 23.84.18 29.86M435.794 855.43a6.42 5.03 127.7 0 0 7.906-2.004 6.42 5.03 127.7 0 0-.054-8.156 6.42 5.03 127.7 0 0-7.906 2.004 6.42 5.03 127.7 0 0 .054 8.156"/><path stroke="#a0a0a0" vector-effect="non-scaling-stroke" d="M619.14 978.4q1.51-.56 2.56-2.03c2.38-3.37 6.37-4.82 7.82-8.69q1.42-3.79 2.52-7.75a1.01 1.01 0 0 0-1.63-1.04c-4.42 3.79-12.5 12.04-13.08 18.11a1.36 1.35-7.2 0 0 1.81 1.4M637.12 971.47c3.68.06 7.45.43 11.14.51q4.71.1 4.44-4.88a1.5 1.49-4.5 0 0-1.66-1.41q-7.46.83-14.1 5.12a.36.36 0 0 0 .18.66M510.29 1011.5l3.22 14.07a1.71 1.65 16.5 0 0 .47.83l13.58 12.98a1.59 1.58 45.4 0 0 2.17.02l2.66-2.45a1.07 1.04-61.3 0 1 .88-.27q6.15.91 8.99-4.38a1.15 1.15 0 0 1 .82-.58q5.78-1.01 11.65-1.38c1.27-.07 2.24-.63 2.07-2.01a1.21 1.2 15.2 0 0-.47-.82c-4.5-3.41-15.67-1.73-20.47-2.87q-13.85-3.3-13.74-19.13a1.74 1.73-83.7 0 0-1.36-1.71c-2.45-.54-8.23-1-9.12-3.63"/><path stroke="#e18081" vector-effect="non-scaling-stroke" d="M511.64 1000.17q.48-4.7-.21-9.66a.97.95 8.5 0 0-.57-.75l-12.7-5.41a.67.67 0 0 0-.91.47l-1.32 5.62a.92.91-6.2 0 1-.5.62c-5.18 2.39-13.21 2.28-10.85 10.86.98 3.56 11.77 2.44 14.89 1.88a1.5 1.43 53.8 0 1 1.01.18q1.33.77.91 2.21a.85.84-1.4 0 1-.56.58c-6 1.92-6.38 5.83-7.38 11.36a1.02 1.02 0 0 1-1.15.83l-10.33-1.45a1.54 1.53-54.6 0 0-.93.16q-4.91 2.55-9.61 5.52-1.63 1.03-1.24 2.47a1.04 1.04 0 0 0 .61.68c5.8 2.32 11.04-.01 13.02 7.93a1.6 1.59-9.5 0 0 1.69 1.2c5.16-.46 2.31-5.18 4.61-7.26a1.01 1 60.6 0 1 1.63.46c1.21 4.02 3.28 10.19 7.55 11.85a2.09 2.08-67.1 0 0 2.65-1.08l2.47-5.35a.72.71 33.2 0 1 1.13-.23l8.21 7.52a1.05 1.04-28.1 0 0 .87.26c3.09-.49 3.97-2.7 2.6-5.55-4.17-8.68-7.73-15.38-6.94-24.59"/><path stroke="#812021" vector-effect="non-scaling-stroke" d="M511.64 1000.17q-2.18 5.43-1.35 11.33"/><path stroke="#e18081" vector-effect="non-scaling-stroke" d="M473.628 989.723a3.52 2.94-21.8 0 0-4.36-1.423 3.52 2.94-21.8 0 0-2.176 4.037 3.52 2.94-21.8 0 0 4.36 1.423 3.52 2.94-21.8 0 0 2.176-4.037M467.22 998.77c-5.36 5.14-13.71 20.25-.64 22.73a1.21 1.2-85.9 0 0 1.43-1.24l-.26-5.84a.86.85 82.3 0 1 .66-.87c6.75-1.6 18.13-10.85 10.1-17.94a1.33 1.33 0 0 0-2.12.51q-.97 2.46-2.95 4.2a.8.8 0 0 1-.84.13l-4.21-1.88a1.08 1.06 34.7 0 0-1.17.2M487.681 1013.948a3.28 2.66 76.4 0 0 1.814-3.813 3.28 2.66 76.4 0 0-3.356-2.563 3.28 2.66 76.4 0 0-1.814 3.813 3.28 2.66 76.4 0 0 3.356 2.563"/><path stroke="#777676" vector-effect="non-scaling-stroke" d="M321.163 53.072a4.93 1.2 103.1 0 0 2.286-4.53 4.93 1.2 103.1 0 0-.052-5.074 4.93 1.2 103.1 0 0-2.286 4.53 4.93 1.2 103.1 0 0 .052 5.074M709.75 655.71q-1.96-12.27-4.95-20.98c-1.26-3.66-4.02-5.8-7.92-7.14-3.86-1.33-18.79-7.39-19.81-11.37q-2.31-9.02-12.1-7.64a1.44 1.44 0 0 1-1.62-1.68q3.25-18.04 18.97-27.83 1.66-1.03 2.02-1.75 3.93-8.02 11.94-11.85a1.74 1.67-85.5 0 0 .72-.64q3.26-5.24 6.47-10.51c4.98-8.19-4.51-8.86-6.66-14.83a1.72 1.71-48.8 0 1-.06-.96c1.15-5.22 3.11-18.27-.15-22.7-4.72-6.4-16.13 2.09-17.21-10.43q-.86-9.82-5.71-18.38a2.1 2.1 0 0 0-1.44-1.03q-7.09-1.36-14.33-.99c-2.38.12-5.12-1.04-5.19-3.5-.3-10.82-2.97-21.14-1.49-31.97q1.71-12.65 3.19-25.35c1.01-8.78-10.13-8.45-7.96-17.05 2.38-9.41-12.39-8.76-17.81-6.87a1.17 1.15 48.3 0 1-.92-.06c-9.95-5.11-9.71-23.79-7.26-32.59a1.89 1.88-70.2 0 0-1.04-2.23c-10.11-4.52-20.65-5.84-30.7-10.21a1.32 1.31 88 0 1-.68-.64c-2.08-4.3-3.37-8.01-8.82-9.5-8.2-2.24-15.59 1.37-21.18-7.58q-3.46-5.53-7.1-11.01a1.12 1.12 0 0 1-.15-.91c1.23-4.57 4.58-13.96.13-17.75-4.29-3.65-15.15.61-19.5 2.83-9.17 4.69-15.51 13.19-25.2 17.69-2.45 1.14-5.13-1.03-7.36-1.33q-4.62-.62-8.72 1.12a1.97 1.96 70 0 1-2.65-1.24l-5.93-19.44a.59.59 0 0 0-1.08-.1c-1.36 2.59-3.18 4.71-6.4 4.86-12.74.58-21.88-11.46-26.79-21.25-5.58-11.13-1.27-23.81 3.43-34.59 5-11.48 11.75-19.32 23.03-24.07 6.06-2.55 14.68-3.13 16.76-10.76q2.65-9.75 5.38-16.75c4.06-10.41 1.21-21.49-4.74-30.46-6.86-10.35 8.59-6.74 10.94-13.12a1.21 1.2 43.3 0 0-.03-.93c-1.37-3.07-4.05-2.23-6.06-3.21-3.86-1.88-4.89-9.1.8-9.26q10.27-.3 20.54-.71c2.89-.12 4.8-.41 6.37 1.46q4.04 4.83 8.29 9.47c2.35 2.56 14.3 2.93 18.01 3.31 1.65.16 4.25-4.85 6.69-6 1.4-.66 5.32-.84 6.25-1.83q5.03-5.35 10.13-10.63c3.36-3.49 1.58-6.58-1.54-9.59q-7.29-7-8.05-17.49c-.38-5.25 4.68-4.29 7.49-2.14q5 3.84 10.04 7.63c1.71 1.28 3.55 1.39 4.38-.85q3.79-10.19 14.72-8.55a1.05 1.03 27.5 0 0 .85-.26l9.76-8.85a.62.62 0 0 0 .08-.84c-1.59-2.12-9.94 5.73-11.49 7.01a1.67 1.66-68.3 0 1-.87.38c-6.81.93-10.8.72-14.76 7.17a2.12 2.12 0 0 1-3.1.57c-5.41-4.16-10.27-9.38-17.82-7.55q-1.8.44-1.96 2.52c-.87 11.44 4.27 16.77 9.95 25.36 1.22 1.84.57 3.6-1.34 4.67q-5.54 3.1-8.13 9.05a.93.93 0 0 1-.66.54l-7.38 1.59a1.03.99-80.1 0 0-.67.49c-3.7 6.69-10.44 3.94-16.28 3.11a1.63 1.63 0 0 1-.95-.49l-9.32-9.91a1.41 1.38-65.8 0 1-.37-1q.38-7.87-3.03-14.85a1.34 1.33-47.3 0 1-.04-1.06l3.36-8.48a1.79 1.78-52.2 0 0-.21-1.7c-3.59-4.96-11.3-13.57-7.77-20.21 1.46-2.75 8.75-15.95 1.02-15.63q-7.81.33-15.64.68c-3.21.14-5.42-2.59-8.25-3.56q-2.52-.85-5.09-1.61a1.52 1.49-8.8 0 1-.81-.58q-2.97-4.16-7.72-6.03a1.36 1.33 47.8 0 0-.83-.05l-13.17 3.4a1.17 1.15 55.6 0 1-.96-.19c-10.25-7.53-6.38-18.22-12.14-27.29-1.74-2.74-6.62-4.12-9.54-5.45a.76.76 0 0 1-.34-1.08c2.9-4.79 4.03-7.81 4.55-14.53a1.2 1.19 72.5 0 1 .42-.82c2.34-1.98 9.19-6.77 6.58-9.45a.73.73 0 0 0-.82-.15c-4.15 1.85-10.8 7.19-9.7 12.46.93 4.49-.59 8.39-4.25 11.11-2.64 1.96-1.53 4.36 1.52 4.64 8.68.81 12.35 6.3 12.87 14.41.52 7.99 4.7 19.73 15.04 18.39 4.09-.53 8.05-5.41 12.27-1.93 4.21 3.47 6.12 4.57 11.23 6.44a1.54 1.51 82.7 0 1 .75.59l2.06 3.14a2.16 2.15 70.7 0 0 2 .97q8.31-.73 16.5-1.26c2.5-.16 4.18.42 4.66 2.98a1.32 1.29 55.4 0 1-.16.93q-3.67 6.22-4.47 8.18c-3.55 8.62 3.16 15.55 8.01 21.99a.72.72 0 0 1 .03.82l-4.12 6.23a1.85 1.83-40.4 0 0-.15 1.75c1.85 4.22 7.75 14.96-1.12 15.64q-15.37 1.19-21.53 1.13c-11.18-.11-8.59 10.62-1.2 14.07a1.33 1.33 0 0 1-.15 2.47c-10.87 3.51-8.36 10.35-4.24 18.69q6.75 13.67.2 27.24c-3.21 6.65-8.36-5.12-13.3-4.92q-11.65.47-23.32 1.03c-2.18.1-4.45.21-5.41-1.97-2.75-6.24-4.48-9.91-9.73-14.48-5.96-5.19-11.89-10.18-19.42-13.17q-9.32-3.69-18.29-8.16c-2.23-1.12-4.62-.76-6.79-2.19-5.66-3.72-9.4-6.79-16.49-7.49"/><path stroke="#777676" vector-effect="non-scaling-stroke" d="M707.25 656.71c-1.24-11.03-2.67-28.35-16.29-28.64q-.51-.01-.94-.26-6.07-3.53-11.92-7.45c-2.78-1.87-3.84-5.31-5.31-8.16a1.25 1.24-9.9 0 0-.96-.67c-11.01-1.25-20.85-5.98-21.43 9.92q-.43 11.98-1.76 23.86c-.46 4.08-3.82 8.51-5.68 12.19"/><path stroke="#777676" vector-effect="non-scaling-stroke" d="M642.54 657.5c-.46-4.68 1.19-6.98 4.04-11.01a1.8 1.75 66 0 0 .33-.9q1.14-12.39.9-24.84c-.15-7.74 5.13-11.56 11.56-14.75.64-.31 1.68-1.27 1.82-1.81q3.88-14.51 14.94-24.68a1.7 1.7 0 0 0 .43-1.85q-1.72-4.49-3.76-9.25c-.7-1.64-1.32-1.89-3.05-1.63q-13.3 1.99-23.9-6.05a2.09 2.08 21 0 1-.81-1.82l1.02-13.6a1.28 1.22-22.4 0 1 .34-.77l6.58-6.97a1.36 1.35-52.5 0 0-.27-2.08q-22.15-13.64-45.02-25.53-.74-.38-1.92-.59c-4.36-.77-3.29-3.01-5.79-5.1-6.17-5.17-11.64-8.97-14.42-17.55a1.03 1.02 88.8 0 0-.69-.67q-6.46-1.95-12.69.57a1.37 1.35-89.3 0 0-.73.72c-.78 1.83-1.29 4.07-2.43 5.45-1.31 1.6-4.35 3.87-6.61 2.3q-9.65-6.69-21.64-7.62a2.02 2 17.2 0 0-1.88.98q-4.23 7.12-11.6 11.3"/><path stroke="#777676" vector-effect="non-scaling-stroke" d="M524.79 494.75q1.98-1.58 4.29-2.63c3.64-1.65 5.69-4.07 8.57-6.49a1.25 1.22-62.9 0 1 .87-.29c8.53.52 19.2 1.51 25.17 7.86a1.05 1.03-23.7 0 0 .84.32c3.22-.3 4.88-6.96 6.01-9.57a1.21 1.18-88.5 0 1 .67-.65c3.39-1.31 10.44-.54 14-.56a1.48 1.47-83.5 0 0 1.42-1.13q2.6-10.71 5.69-21.08c2.15-7.25 11.41-20.49 20.28-13.49a1.29 1.22-27 0 0 .88.26q8.47-.8 16.7.97c6.26 1.34 10.93 1.64 16.6 1.72a2.18 2.17 1.6 0 0 2.2-2.07q.45-9.23 2.81-17.62 3-10.7-6.48-14.12a.86.85 5.3 0 1-.56-.67c-1.07-6.68 1.49-16.71-10.24-13.98-4.78 1.12-9.78 1.55-12.7-3.35q-7.68-12.84-4.5-28.17c.87-4.2-9.96-6.46-13.01-6.76-3.52-.36-16.67-4.43-18.11-7.6q-2.72-5.99-8.54-8.93c-1.64-.83-3.1-.43-4.82-.21-6.43.85-13.59-1.12-17.09-7q-3-5.04-5.97-10.11c-3.07-5.25 4.61-15.77-.6-19.13-3.62-2.34-10.92-.29-14.59 1.29q-2.67 1.15-8.11 5.22-6.33 4.74-17.66 12.57c-5.29 3.66-1.56 7.18-1.3 11.65q.32 5.54-2.37 10.55a1.15 1.12 50.2 0 0-.07.9q4.63 12.93-.79 25.57c-3.81 8.89-1.92 19.72 1.68 28.36a2.06 2.06 0 0 1-.52 2.33q-6.26 5.69-8.19 14.5"/><path stroke="#777676" vector-effect="non-scaling-stroke" d="M495.04 423.5q1.11-6.71 5.41-11.88c2.11-2.55 4.58-2.38 3.02-6.72-3.17-8.85-4.18-18.11-1.06-26.91 3.21-9.03 3.88-16.31.53-25.55a1.47 1.44 46 0 1 .01-1.03l2.15-5.39q.2-.49.16-1.02-.38-5.14-1.18-10.26c-1.8-11.51-12.37-3.24-17.86-6.22a1.37 1.36-86.3 0 1-.62-.71q-2.25-6.08-4.61-12.11c-.63-1.62-1.8-2.5-3.5-2.12q-11.62 2.57-19.95-5.39c-6.6-6.3-15.47-17.89-15.84-27.31-.28-7 2.21-13.55 4.9-20.89 4.51-12.24 9.97-20.75 21.2-27.27 5.02-2.91 10.88-3.66 15.7-6.65 3.68-2.28 8.34-7.34 4.34-11.17q-5.09-4.86-7.18-8.45a.85.84 74.4 0 0-.75-.43c-6.55.11-14.01 1.38-20.4.73-7.74-.79-11.73-1.24-15.53-8.64-4.03-7.85-11-11.79-16.77-18.4-2.17-2.49-5.08-1.33-6.54 1.25q-3.79 6.68-3.09 14.6a1.67 1.65 73.1 0 1-.84 1.59q-7.44 4.16-10.59 12.02a2.15 2.14-87 0 1-1.39 1.26q-8.68 2.5-17.06 5.7-3.91 1.49-5.39 5.4-3.63 9.58-6.1 19.56a1.55 1.51 77.4 0 1-.5.81c-3.75 3.27-10.28-1.03-12.65-4.31a.8.79 67.6 0 0-.78-.33c-9.71 1.55-8.64-5.65-7.03-11.72"/><path stroke="#777676" vector-effect="non-scaling-stroke" d="M356.5 225.54c.15 3.43-1.33 8.45 3.72 8.76a1.59 1.55-58.8 0 0 .93-.24l3.47-2.21a1.24 1.23 76 0 1 1.89 1.14q-.47 6.13 5.14 6.6a2.02 2.02 0 0 0 2.12-1.49c1.55-5.82 4.28-21.95 11.54-23.32 6.02-1.13 10.72-4.82 16.99-5.92a2.46 2.43-86.9 0 0 1.93-1.75l1.93-6.79a.99.98-3.1 0 1 .61-.67c5.14-1.95 9.05-3.92 8.86-10.12-.06-2.12-.93-2.75.57-4.83q2.44-3.38 3.29-7.52a1.14 1.13 14.7 0 0-.77-1.31q-8.57-2.65-16.36-7.65a1.65 1.6 60 0 0-.91-.26q-7.58.16-12.06-5.78a2.09 2.02 82 0 0-.82-.64l-10.32-4.33M648.73 554.19c-4.34 11.15 17.93 10.57 23.4 10.57 4.43.01 4.34 6.56 4.89 9.61 1.31 7.25 9.17-2.88 10.76-5.35q1.21-1.89 6.19-4.43a1.64 1.61-87.8 0 0 .7-.66l7.99-13.71a1.18 1.18 0 0 0-.26-1.5l-7.19-6.09a2.14 2.13-67.7 0 1-.74-1.78q.69-9.6 1.61-18.83c1.2-12.16-17.13-1.01-19.14-15-1.21-8.49-.24-21-12.84-20.09-3.02.22-14.69 1.91-14.34-3.19q.88-12.95-2.99-23.75a1.43 1.41 44.7 0 1-.01-.94c2.73-8.1-5.85-7.09-10.32-7.09-4.39.01-9.48-2.32-12.95-2.04q-8.38.66-16.27-2.55a.94.93-51.4 0 0-.87.1q-9.66 6.57-13.36 19.31-3.76 12.92-4.26 16.49c-1.24 8.8 8.84 16.2 14.63 20.36 16.65 11.96 35.17 21.69 53.31 30.86a.91.91 0 0 1 .28 1.41l-9.31 10.65a1.12 1.12 0 0 0-.25 1.01l1.4 5.73a1.52 1.51 48.9 0 1-.06.9"/></g><path fill="#fff" d="M0 0h269.56q-.65.11-1.32.38-.22.09.01.17l2.94 1a1.06 1.06 0 0 1 .71.97q.26 8.62 8.15 10.98.54.16.94.56l5.79 5.94a1.18 1.15-22.2 0 0 .86.35l17.55-.45a.55.55 0 0 1 .56.55v.3a.38.38 0 0 1-.38.38c-7.28-.09-22.59-1.9-26.8 5.19-1.46 2.47-.2 5.37 2.68 5.44q9.13.23 18.73.8a1.56 1.56 0 0 1 1.44 1.26l1.03 5.38a.96.94 9.5 0 0 .49.67q7.2 3.88 9.27 11.68a2.05 2.04-87.8 0 0 1.28 1.39q5.83 2.15 11.85 3.4c9.25 1.91 15.48 6.64 23.46 11.07 3.79 2.1 5.76-.52 5.66-4.24-.23-8.39.99-18.21 11.26-18.36 6.94-.1 10.42 9.87 16.87 6.65a.44.44 0 0 0 .16-.65c-6.05-8.39-19.36-22.44-26.93-5.16a1.42 1.4 88.3 0 1-.64.69c-10.87 5.71-22.27 3.25-29.86-6.45-4.41-5.63-17.46-16.92-17.58-24.07q-.13-7.93.57-15.82h182c-2.05 10.95-2.38 12.82-13.52 15.23a1.15 1.13-81.3 0 0-.74.55l-5.72 10a1.38 1.38 0 0 0 .37 1.79q8.63 6.47 2.58 16.08a1.67 1.67 0 0 1-2.44.42q-5.95-4.62-13.06-6.26a1.21 1.21 0 0 1-.94-1.26q.8-10.71 7.21-18.94a1.23 1.23 0 0 0 .25-.9c-.52-4.11-11.67-2.83-13.75-2.42a1.47 1.47 0 0 0-.87.52q-7.5 9.05-19.43 8.93a1.03 1-72.7 0 0-.87.47c-1.03 1.62-1.19 3.68-2.24 5.01q-2.47 3.12-6.77 3.18a1.43 1.43 0 0 0-.89.31c-1.12.9-1.15 2.63-1.57 3.51-3.19 6.66-10.11 6.65-12.52 14.46a.9.9 0 0 1-.6.6l-3.66 1.11a1.69 1.61 9.8 0 0-.79.53q-1.96 2.42-1.95 5.6a.6.59-1 0 1-.58.59l-3.97.11a1.77 1.77 0 0 1-1.82-1.7q-.1-2.6-1.37-4.65a1.7 1.67 84.2 0 0-.78-.65q-4.51-1.79-6.82 2.1a1.46 1.46 0 0 1-.78.65l-5.63 2.06a1.35 1.34-24 0 0-.73 1.89q2.03 3.84 5.07 7.03c4.12 4.32 10.97 7.36 11.99 13.81.88 5.55-.31 12.88 2.63 19.22a2.17 2.17 0 0 1 0 1.82c-1.2 2.54-3.77 5.58-3.51 8.23.39 4.04 3.35 5.08 6.45 6.79a1.53 1.47 3.7 0 1 .65.71q1.9 4.41-1.65 7.51-3.88 3.39-15.83 12.54c-7.35 5.62-7.84 12.22-3.17 19.92l-.29.71c-3.88-.04-11.05-1.06-14.18.73-6.29 3.59-2.27 9.61-5.65 14.65-2.42 3.61-5.91 2.3-6.56 8.12a1.19 1.14-16.7 0 1-.45.8c-3.9 3.05-7.67 3.91-5.01 9.92 2.21 5.02.02 6.65-.62 11.35a.95.92 23.8 0 0 .35.87q7.22 5.69 15.88 8.81a1.93 1.93 0 0 1 1.2 2.34q-1.91 6.72-6.71 10.74h-1.25c-4.5-1.56-9.51-.19-10.15 5.07q-1.17 9.58 4.67 17.16a1.03 1.03 0 0 1-.38 1.56l-5.78 2.64a1.23 1.23 0 0 0-.66 1.47c1.67 5.41 8.32 8.27 13.08 10.44a1.88 1.82 85.1 0 1 .76.66q6.03 9.19 14.78 15.86a1.96 1.95-82 0 1 .65.87l8.26 22.43a1.49 1.45-85 0 0 .64.78c5.17 3.04 10.94 5.18 16.31 7.91a1.49 1.44 89.6 0 1 .66.67c4.64 9.34-.68 19.72 5.42 28.42 6.41 9.16 11.65 18.16 14.04 28.57q.94 4.1 1.83 8.25a1.51 1.48 13.7 0 0 .54.87l6.65 5.28a1.63 1.6 10.1 0 1 .49.69c1.97 5.54 5.99 10.78 12.04 11.94q9.48 1.82 13.49 10.42a2.64 2.62-8.8 0 0 2.03 1.48c10.63 1.4 16.27 7.03 21.38 15.87a1.62 1.58-2.2 0 0 .7.63q5.05 2.32 10.17 4.5c2.98 1.27 6.56-4.5 8.17-6.48l2.21-.29q9.8 3.45 9.95 13.86 0 .54.27 1.01 6.26 11.09 2.27 23.35a1.91 1.84-43.9 0 0-.04 1.04l.36 1.53q.11.46.41.83c6.51 8.11 10.14 20.32 14.32 29.92l2.5 5c1 2 2.53 4.18 2.74 6.26.66 6.63-8.44 9.28-11.94 13.6q-4.78 5.88-3.61 14.94c1.1 8.65 1.98 17.23-.8 24.39q-2.16 5.56-6.7 12.74-9.32 14.75-11.58 32.09c-.6 4.57-1.01 9.06-2.73 13.36-1.54 3.87-3.91 8.24-4.44 11.99-1.32 9.21 4.63 15.01 6.06 23.37 2.14 12.55 1.11 24.73-5.16 36.3a1.54 1.53-35.4 0 0-.16.93q2 13.51-7 22.92c-2.39 2.5-3.62 4-2.56 7.28 2.59 8.03 5.68 27.89.28 34.95-5.06 6.59-7.64 16.15-10.39 23.96a2.35 2.33 41.8 0 0 .11 1.84c1.86 3.74 4.85 7.89 5.17 12.09q.65 8.71-1.55 17.15c-1.32 5.06-.53 8.69 1.89 12.99a1.59 1.56 32.7 0 1 .21.92l-.85 12.62a1.53 1.49 31 0 0 .24.91c1.88 2.84 6.29 9.38 4.14 12.56-1.94 2.87-3.39 5.11-3.52 8.74-.32 9.41-.15 17.82-3.42 27.48-3.63 10.72-9.21 17.7-8.44 29.87a1.15 1.12-26.6 0 1-.3.86q-3.25 3.57-5.15 7.94c-1.87 4.3-4.71 7.05-7.58 10.48a.71.7-44 0 0-.02.89q9.3 12.22 18.01 24.78 3.14 4.52 4.69 9.61a1.74 1.73 88.2 0 0 1.26 1.19c11.84 2.81 23.93 2.92 35.69 7.96a.9.89 38.3 0 0 .88-.1q.53-.39.53-1.26a2.18 2.16-77.2 0 0-1.19-1.91c-7.53-3.81-5.68-10.5-5.03-17.46q.41-4.46-.63-6.18c-1.75-2.86-3.84-6.24.18-8.66q3.98-2.39 7.96-4.88a1.44 1.41 84.5 0 0 .59-.73q1.68-4.49 5.44-7.38c2.76-2.13.27-6.03 3.52-9.06 1.17-1.09 4.26-1.64 4.85-2.88q5.9-12.51 15.75-22.23 2.19-2.16 4.33-4.4c6.5-6.79-7.49-9.6-11.59-9.97a1.65 1.63-23.2 0 1-.89-.35c-2.7-2.17-10.3-7.01-10.31-10.5-.03-8.35.22-15.5 8.78-19.79q3.37-1.69 4.19-2.73 6.17-7.79 16.13-9.43a1.44 1.44 0 0 0 1.2-1.33l1.12-18.74a1.49 1.43-23.7 0 1 .36-.87q4.09-4.61 3.82-10.16a1.36 1.35-80.8 0 1 1.84-1.33c4.96 1.9 11.07 5.08 15.08-.31 1.49-2 1.3-4.57-1.38-5.24-2.91-.74-4.57 2.33-7.24 2.68-4.8.62-11.02-5.23-13.79-8.74a1.79 1.78-59.6 0 1-.37-1.43l2.94-16.86a1.44 1.42-16.6 0 1 .46-.84q3.6-3.25 7.92-1.2c1.42.67 2.91 2.82 4 3.22q6.55 2.39 13.25 4.62a2.21 2.2-53.5 0 0 1.99-.3q5.56-4.01 8.89-10.64a.74.74 0 0 0-.09-.82q-3.44-4.16-3.11-9.6a1.8 1.78 66.5 0 1 .38-.98c1.34-1.71 3.3-4.39 3.01-6.66-.66-5.02-6.46-6.29-2.59-12.01 2.23-3.29 4.52-3.13 7.41-.59 6.33 5.55 13.48 5.18 21.25 1.99q14.88-6.13 28.21-15.06c6.73-4.51 10.16-11.32 16.75-15.84 14.34-9.84-17.64-13.18-6.36-24.34a1.63 1.62-16.5 0 0 .46-.84c1.77-8.2-12.17-7.33-16.53-7.35a.88.86-13.5 0 1-.75-.45c-1.98-3.64 1.66-6.23 1.53-9.87q-.23-6.22-.49-12.42h.42q7.49 5.67 11.29 14.34a.96.96 0 0 0 .69.56q4.72 1.01 9.55 1.77c3.33.53 4.93 1.98 6.33 4.83a1.11 1.1-9.2 0 0 .84.6l1.47.19a.73.72-76.9 0 0 .78-.49l1.82-5.43a1.7 1.69 10.2 0 1 1.68-1.16c13.14.55 24.68-2.83 29.84-16q1.46.08 2.5-1 7.94-3.12 9.21-11.61a1.26 1.25-13.4 0 1 .52-.84l5.33-3.83a1.38 1.35 77.8 0 0 .55-.87q1.43-8.26 2.84-16.53c.72-4.24-.96-9.59 2.87-12.45q1.2-.89 5.58-3.71c2.03-1.31 1.99-3.38 2.81-4.79 5.18-8.87 15.55-16.73 23.01-23.86 2.46-2.35 6.07-3.18 7.89-5.94q3.86-5.84.33-12.79c-4.12-8.13-3.32-13.72-.44-22.56q4.02-12.36 17-14.25 2.64-.39 3.62-1.3 10.43-9.71 23.87-14.39a1.58 1.54-81 0 0 .75-.56c2.3-3.17 3.8-6.81 5.78-10.23a.89.88-75.6 0 1 .75-.45c4.44-.04 8.67.86 13.11.69a1.28 1.25 20.5 0 0 .86-.38q6.97-7.16 16.32-6.64c2.03.12 2.73.47 4.3-1.21q5.17-5.52 12.28-8.12c1.83-.67 2.27-1.52 2.68-3.28q3.77-16.02 4.91-30.87c.44-5.73 7.33-15.56 10.34-20.6a2.52 2.52 0 0 1 1.56-1.15c8.24-1.93 4.14-19.75 3.43-25.27-.88-6.9.46-13.18 1.96-19.74.85-3.7-3.51-6.98-5.5-9.82a1.52 1.5 28 0 1-.27-.86v-8.68a1.39 1.38-23.9 0 1 .37-.94q4.04-4.36 4.56-10.33a1.51 1.47-22.8 0 1 .36-.85c11.24-12.98 19.87-20.19 30.77-29.88q5.02-4.47 6.22-8.1 4.73-14.33 10.62-28.21c3.87-9.13 5.64-20.51-1.06-28.84q-3.4-4.24-13.54-11.25c-12.85-8.9-23.69-15.59-35.92-28.34-7.83-8.16-23.9-2.19-33.71 1.22a1.32 1.32 0 0 1-1.63-.68c-1.34-2.75-2.01-6.57-6.37-5.01-4.99 1.78-7.08 5.57-13.02 6.51a1.13 1.12 59.3 0 1-.85-.22q-6.28-4.77-11.66.84a1 1 0 0 1-.97.29l-.86-.2a.78.77-82.8 0 1-.6-.78c.07-3.14 1.96-11.11.27-12.74a1.36 1.33 67.3 0 0-.87-.37q-11.94-.56-23.03-4.66c-5.26-1.94-11.87-6.04-17.81-8.05-7.03-2.38-10.22 2.69-12.32 8.59a1.46 1.46 0 0 1-.6.75c-3.68 2.31-12.47 3.07-11.84-3.87a2.07 2.06 72.6 0 1 .71-1.37l12.95-11.12a1.16 1.16 0 0 0-.02-1.79c-5.33-4.31-21.94-14.26-26.67-4.67-.7 1.43-.74 3.45-1.23 5.14a.77.76 4.5 0 1-.65.55c-5.2.63-16.94-5.01-6.92-9.75 3.19-1.51 25.92-16.61 12.38-19.43q-5.01-1.04-4.38-6.99a.64.63 13 0 0-.42-.66q-9.76-3.63-12.43-13.55c-.46-1.71-1.34-3.25-3.3-2.49q-8.78 3.4-10.26 12.25a.92.9-87.1 0 1-.83.76q-5.52.45-10.27 1.09c-6.58.9-11.07.97-12.25-6.5a1.46 1.45 81.3 0 0-1.64-1.21l-12.76 1.88a2.61 2.59 7.3 0 0-2.02 1.55l-3.34 7.82a1.81 1.8-62.2 0 1-2.63.82l-6.55-4.16a1.32 1.27-33.8 0 0-.94-.17q-5.7 1.16-11.07 3.4a1.47 1.45-88.1 0 0-.73.69c-1.07 2.17-2.94 7.33-5.67 7.53-11.56.82-16.75-7.7-23.64-16.4a1.48 1.47-65 0 1-.32-.89q-.12-7.76 2.15-17.03 1.22-5.01-.5-10.83a1.21 1.2 6.2 0 0-.58-.72c-7.45-4.04-15.42-12.09-16.65-20.79-.67-4.78-1.54-10.07 3.29-13.18q8.16-5.24 5.56-15.64a.64.63-11.9 0 1 .52-.79l2.12-.32a.67.67 0 0 1 .77.64q.35 12.24-9.38 19.12a1.42 1.4 81.1 0 0-.51.71c-6.27 20.75 21.22 24.61 17.87 38.62q-1.87 7.85-2.51 16.68c-.31 4.24 4.52 9.06 7.85 13.11q5.8 7.05 14.15 4.64a1 .97 1.6 0 0 .65-.6l1.97-5.44a2.33 2.32 1.7 0 1 1.55-1.45l10.78-3.11a1.9 1.9 0 0 0 1.18-2.68l-7.46-14.9a1.88 1.84-87.8 0 0-.65-.72c-6.75-4.31-3.58-13.59-3.29-20.11a1.28 1.27 76 0 1 .62-1.04q11.56-7.02 6.31-19.94a1.38 1.36 81.9 0 0-1.11-.84q-5.2-.63-10.59-1.25c-5.9-.67-4.28-2.95-4.51-7.35q-.48-8.96-8.36-11.67c-5.88-2.02-9.13-3.95-12.95-8.71a.75.74 62.8 0 0-.78-.26c-2.69.75-7.94 3.73-10.4 2.79-10.28-3.93-20.16-9.63-20.5-22.12a.85.84 12.8 0 0-.47-.74l-5.95-3.05a.77.77 0 0 1-.03-1.35l6.19-3.49a.97.95-86.7 0 0 .33-.3q.81-1.09-.05-1.84a1.29 1.27-25.2 0 0-.89-.31c-13.7.54-22.6 6.45-34.14 12.65a1.39 1.37-52.5 0 1-.92.13q-5.09-1.08-6.09-6.63a.69.69 0 0 0-1.24-.29c-5.53 7.54-17.05 5.68-25.19 4.46-4.07-.6-15.22-9.69-17.16-13.34q-2.24-4.18-6.19-6.98a1.4 1.38 10.4 0 1-.54-.77l-2.32-9H1080v1080H0V0Zm698.19 97.61-5.34 8.31a1.09 1.08-36.5 0 0-.13.83c1.11 4.55 2.72 9.36 2.56 13.78q-.2 5.43-2.23 12.27-1.21 4.09 2.83 7.12a1.33 1.31 59.9 0 0 .91.25l15.09-1.58a.97.97 0 0 0 .8-.6l2.37-5.75q.17-.43.5-.75c1.67-1.66 7.16-4.72 6.97-6.99q-.49-5.93 2.13-10.41a1.71 1.7-49.8 0 0-.16-1.96c-7.12-8.49-13.79-13.38-23.25-18.71-4.71-2.66-9.29-6.76-14.78-9.3a.69.69 0 0 0-.79.15c-2.45 2.63-4.88 5.07-8.25 5.31-3.81.29-14.86-8.4-16.75-3.35q-3.18 8.49-7.77 13.76c-3 3.44-3.36 9.83-3.6 14.21a1.51 1.49 30.2 0 0 .25.92q8.25 12.37 14.55 25.83c1.65 3.52 5.52 4.09 7.07-.05q1.16-3.09 1.66-5.95a1.87 1.86-83 0 1 1.97-1.54q7.36.54 13.74-2.21c11.87-5.12-5.19-24.99 9.31-33.93q.92-.57.34.34ZM447.92 961.99c.94 4.21-1.66 4.43-2.49 7.66-2.48 9.64 9.6 1.78 13.47 2.42a1.22 1.21-11.2 0 1 .83.55q.89 1.38.46 2.92a.84.83 1.1 0 1-.63.6l-12.27 2.8a1.09 1.07 5.6 0 0-.74.6q-2.25 4.83-.07 9.68a1.26 1.25-2.1 0 0 .75.69c1.47.49 9.96 1.98 9.17 3.87a1 .98 4.1 0 1-.68.58l-4.83 1.15a2.08 2.06-2 0 0-1.56 1.66q-.87 5.13 3.37 6.76a1.54 1.54 0 0 0 2.05-1.07q1.13-4.58 4.73-7.24c1.06-.77 3.09-.87 3.7-2.78a1.33 1.31-51.2 0 0-.1-1.01q-2.44-4.37-7.5-4.88a.85.84 81.9 0 1-.7-.53q-.74-1.82-.17-3.64a.95.95 0 0 1 .76-.65c10.7-1.68 15.78 2.55 23.3 9.14 1.18 1.03 2.53 1 3.79.3a1.46 1.43-4.1 0 0 .64-.72q3.01-7.28 10.91-8.76a1.06 1.06 0 0 0 .01-2.09l-23.99-4.79a2.49 2.49 0 0 1-1.99-2.23c-.27-3.27-.45-6.67-2.87-9.29-6.7-7.27-10.66-14.9-17.04-22.42q-2.02-2.37-2.48-5.78a1.64 1.6-36.5 0 1 .15-.94q1.75-3.52 4.41-6.37c3.38-3.61 7.72-11.36 8.04-16.32q.57-8.68 5.11-18.41c4.66-9.98 6.36-22.14 7.67-34.45.51-4.78 2.08-8.26 4.18-12.34a.88.87 39.3 0 0-.1-.96l-5.18-6.35a1.37 1.35 26.2 0 1-.31-.89c.08-4.47 1.45-12.87-.18-16.8-3.93-9.44 1.43-20.46.27-29.88a1.5 1.46 20.1 0 0-.41-.85c-11.42-11.31 4.77-30.85 7.59-42.7 1.71-7.17.73-15.03-.64-22.22-1.72-9.03-.39-15.77 7.32-21.33a2.13 2.12-16.6 0 0 .88-1.62c.21-4.92-.47-13.29 1.66-17.59 4.4-8.91 6.65-18.37 4.77-28.23-1.64-8.58-7.21-17.15-7.05-25.7.09-5.06 2.7-10.63 4.27-15.65 3.2-10.29 3.98-21.29 7.76-31.29q3.89-10.3 9.64-19.69c7.31-11.93 5.32-22.56 5.1-35.58q-.16-8.92 6.01-14.62c2.32-2.15 9.38-4.55 7.77-8.42q-7.15-17.14-11.05-28.48-1.69-4.91-6.26-10.93c-2.95-3.9-.43-11.73.12-16.4a1.76 1.72 36.2 0 0-.16-.96q-3.69-7.46-4.45-15.7c-.28-3.01-1.42-4.9-4.52-5.06q-12.04-.64-11.1 11.74 2.18 28.81-4.36 56.82c-.96 4.12 1.14 6.83 3.62 10.51a1.31 1.29-57.9 0 1 .2.9q-1.09 7.45-.63 14.92c.7 11.14-.98 17.7-6.77 27.4a1.81 1.74-31.3 0 0-.25.94q.19 10.02-3.53 19.19c-.53 1.3-.43 3.24-.11 4.32 3.5 11.61 6.46 27.06-4.67 36.52a2.39 2.38 65.6 0 0-.82 2.18c.99 6.58.44 12.87 1.41 19.42 2.03 13.54-.09 25.5-5.4 38.03-4.93 11.66-4.59 23.63-5.22 36.03-.06 1.19-.64 3.4-1.24 4.08-7.93 8.77-22.18 28.66-8.27 38.52 9.58 6.81-6.47 15.94-8.4 22.76-.71 2.53-.1 8.81 3.11 10 7.4 2.75 11.08 8.96 14.98 15.26a1 .99 41 0 1 .07.91c-2.9 6.76-5.38 13.72-5.25 21.29.23 13.59.53 26.51-4.9 39.02q-2.25 5.18-3.58 10.38a.82.81-61.5 0 1-1.34.4q-3.41-3.18-5.79-6.72c-5.23-7.77-10.64 3.39-13.91 8.78-4.2 6.91 9.76 9.85 14 11.43a.93.93 0 0 1 .61.86l.12 4.99a1.09 1.07 75.6 0 1-.56.97l-3.67 1.98a1.51 1.51 0 0 0-.67.76c-3.07 7.68 8.81 7.01 12.98 8a.67.66 6.2 0 1 .51.63l.08 7.8a.46.46 0 0 1-.84.26c-5.84-8.4-10.94-5.53-19.62-5.81a1.59 1.54-59.5 0 0-.91.25q-5.19 3.42-1.26 9.02c3.62 5.17 12.51-4.17 13.12 2.7a.99.97-9.3 0 1-.75 1.03q-10.97 2.6-14.62 13.24a1.38 1.35 44.4 0 0 .02.96q2.01 5.17 7.82 5.79a2.11 2.11 0 0 0 2.22-1.41c1.13-3.23 3.61-11.61 8.15-10.89a1.34 1.33-77 0 1 1.06 1.71c-1.47 4.82-3.52 15.36-6.74 18.81-4.31 4.62-8.56 10.64-5.06 17.11 2.82 5.2 11.58 1.62 15.07-.88a.55.54-24.2 0 1 .85.32Zm-6.23-142.93q3.11 2.54 5.3-.72a1.62 1.57-29.1 0 0 .26-.87v-28.96a.92.91-73.3 0 0-.4-.76c-1.91-1.28-4.51-1.51-5.34 1.45-2.52 8.97-7.19 23.84.18 29.86Zm-5.896 36.37a6.42 5.03 127.7 0 0 7.906-2.004 6.42 5.03 127.7 0 0-.054-8.156 6.42 5.03 127.7 0 0-7.906 2.004 6.42 5.03 127.7 0 0 .054 8.156ZM619.14 978.4q1.51-.56 2.56-2.03c2.38-3.37 6.37-4.82 7.82-8.69q1.42-3.79 2.52-7.75a1.01 1.01 0 0 0-1.63-1.04c-4.42 3.79-12.5 12.04-13.08 18.11a1.36 1.35-7.2 0 0 1.81 1.4Zm17.98-6.93c3.68.06 7.45.43 11.14.51q4.71.1 4.44-4.88a1.5 1.49-4.5 0 0-1.66-1.41q-7.46.83-14.1 5.12a.36.36 0 0 0 .18.66Zm-126.83 40.03 3.22 14.07a1.71 1.65 16.5 0 0 .47.83l13.58 12.98a1.59 1.58 45.4 0 0 2.17.02l2.66-2.45a1.07 1.04-61.3 0 1 .88-.27q6.15.91 8.99-4.38a1.15 1.15 0 0 1 .82-.58q5.78-1.01 11.65-1.38c1.27-.07 2.24-.63 2.07-2.01a1.21 1.2 15.2 0 0-.47-.82c-4.5-3.41-15.67-1.73-20.47-2.87q-13.85-3.3-13.74-19.13a1.74 1.73-83.7 0 0-1.36-1.71c-2.45-.54-8.23-1-9.12-3.63q.48-4.7-.21-9.66a.97.95 8.5 0 0-.57-.75l-12.7-5.41a.67.67 0 0 0-.91.47l-1.32 5.62a.92.91-6.2 0 1-.5.62c-5.18 2.39-13.21 2.28-10.85 10.86.98 3.56 11.77 2.44 14.89 1.88a1.5 1.43 53.8 0 1 1.01.18q1.33.77.91 2.21a.85.84-1.4 0 1-.56.58c-6 1.92-6.38 5.83-7.38 11.36a1.02 1.02 0 0 1-1.15.83l-10.33-1.45a1.54 1.53-54.6 0 0-.93.16q-4.91 2.55-9.61 5.52-1.63 1.03-1.24 2.47a1.04 1.04 0 0 0 .61.68c5.8 2.32 11.04-.01 13.02 7.93a1.6 1.59-9.5 0 0 1.69 1.2c5.16-.46 2.31-5.18 4.61-7.26a1.01 1 60.6 0 1 1.63.46c1.21 4.02 3.28 10.19 7.55 11.85a2.09 2.08-67.1 0 0 2.65-1.08l2.47-5.35a.72.71 33.2 0 1 1.13-.23l8.21 7.52a1.05 1.04-28.1 0 0 .87.26c3.09-.49 3.97-2.7 2.6-5.55-4.17-8.68-7.73-15.38-6.94-24.59Zm-36.662-21.777a3.52 2.94-21.8 0 0-4.36-1.423 3.52 2.94-21.8 0 0-2.176 4.037 3.52 2.94-21.8 0 0 4.36 1.423 3.52 2.94-21.8 0 0 2.176-4.037Zm-6.408 9.047c-5.36 5.14-13.71 20.25-.64 22.73a1.21 1.2-85.9 0 0 1.43-1.24l-.26-5.84a.86.85 82.3 0 1 .66-.87c6.75-1.6 18.13-10.85 10.1-17.94a1.33 1.33 0 0 0-2.12.51q-.97 2.46-2.95 4.2a.8.8 0 0 1-.84.13l-4.21-1.88a1.08 1.06 34.7 0 0-1.17.2Zm20.461 15.178a3.28 2.66 76.4 0 0 1.814-3.813 3.28 2.66 76.4 0 0-3.356-2.563 3.28 2.66 76.4 0 0-1.814 3.813 3.28 2.66 76.4 0 0 3.356 2.563Z"/><path fill="#404040" d="M269.56 0h38.75q-.7 7.89-.57 15.82c.12 7.15 13.17 18.44 17.58 24.07 7.59 9.7 18.99 12.16 29.86 6.45a1.42 1.4 88.3 0 0 .64-.69c7.57-17.28 20.88-3.23 26.93 5.16a.44.44 0 0 1-.16.65c-6.45 3.22-9.93-6.75-16.87-6.65-10.27.15-11.49 9.97-11.26 18.36.1 3.72-1.87 6.34-5.66 4.24-7.98-4.43-14.21-9.16-23.46-11.07q-6.02-1.25-11.85-3.4a2.05 2.04-87.8 0 1-1.28-1.39q-2.07-7.8-9.27-11.68a.96.94 9.5 0 1-.49-.67l-1.03-5.38a1.56 1.56 0 0 0-1.44-1.26q-9.6-.57-18.73-.8c-2.88-.07-4.14-2.97-2.68-5.44 4.21-7.09 19.52-5.28 26.8-5.19a.38.38 0 0 0 .38-.38v-.3a.55.55 0 0 0-.56-.55l-17.55.45a1.18 1.15-22.2 0 1-.86-.35l-5.79-5.94q-.4-.4-.94-.56-7.89-2.36-8.15-10.98a1.06 1.06 0 0 0-.71-.97l-2.94-1q-.23-.08-.01-.17.67-.27 1.32-.38Zm51.603 53.072a4.93 1.2 103.1 0 0 2.286-4.53 4.93 1.2 103.1 0 0-.052-5.074 4.93 1.2 103.1 0 0-2.286 4.53 4.93 1.2 103.1 0 0 .052 5.074ZM490.31 0h1.25l2.32 9a1.4 1.38 10.4 0 0 .54.77q3.95 2.8 6.19 6.98c1.94 3.65 13.09 12.74 17.16 13.34 8.14 1.22 19.66 3.08 25.19-4.46a.69.69 0 0 1 1.24.29q1 5.55 6.09 6.63a1.39 1.37-52.5 0 0 .92-.13c11.54-6.2 20.44-12.11 34.14-12.65a1.29 1.27-25.2 0 1 .89.31q.86.75.05 1.84a.97.95-86.7 0 1-.33.3l-6.19 3.49a.77.77 0 0 0 .03 1.35l5.95 3.05a.85.84 12.8 0 1 .47.74c.34 12.49 10.22 18.19 20.5 22.12 2.46.94 7.71-2.04 10.4-2.79a.75.74 62.8 0 1 .78.26c3.82 4.76 7.07 6.69 12.95 8.71q7.88 2.71 8.36 11.67c.23 4.4-1.39 6.68 4.51 7.35q5.39.62 10.59 1.25a1.38 1.36 81.9 0 1 1.11.84q5.25 12.92-6.31 19.94a1.28 1.27 76 0 0-.62 1.04c-.29 6.52-3.46 15.8 3.29 20.11a1.88 1.84-87.8 0 1 .65.72l7.46 14.9a1.9 1.9 0 0 1-1.18 2.68l-10.78 3.11a2.33 2.32 1.7 0 0-1.55 1.45l-1.97 5.44a1 .97 1.6 0 1-.65.6q-8.35 2.41-14.15-4.64c-3.33-4.05-8.16-8.87-7.85-13.11q.64-8.83 2.51-16.68c3.35-14.01-24.14-17.87-17.87-38.62a1.42 1.4 81.1 0 1 .51-.71q9.73-6.88 9.38-19.12a.67.67 0 0 0-.77-.64l-2.12.32a.64.63-11.9 0 0-.52.79q2.6 10.4-5.56 15.64c-4.83 3.11-3.96 8.4-3.29 13.18 1.23 8.7 9.2 16.75 16.65 20.79a1.21 1.2 6.2 0 1 .58.72q1.72 5.82.5 10.83-2.27 9.27-2.15 17.03a1.48 1.47-65 0 0 .32.89c6.89 8.7 12.08 17.22 23.64 16.4 2.73-.2 4.6-5.36 5.67-7.53a1.47 1.45-88.1 0 1 .73-.69q5.37-2.24 11.07-3.4a1.32 1.27-33.8 0 1 .94.17l6.55 4.16a1.81 1.8-62.2 0 0 2.63-.82l3.34-7.82a2.61 2.59 7.3 0 1 2.02-1.55l12.76-1.88a1.46 1.45 81.3 0 1 1.64 1.21c1.18 7.47 5.67 7.4 12.25 6.5q4.75-.64 10.27-1.09a.92.9-87.1 0 0 .83-.76q1.48-8.85 10.26-12.25c1.96-.76 2.84.78 3.3 2.49q2.67 9.92 12.43 13.55a.64.63 13 0 1 .42.66q-.63 5.95 4.38 6.99c13.54 2.82-9.19 17.92-12.38 19.43-10.02 4.74 1.72 10.38 6.92 9.75a.77.76 4.5 0 0 .65-.55c.49-1.69.53-3.71 1.23-5.14 4.73-9.59 21.34.36 26.67 4.67a1.16 1.16 0 0 1 .02 1.79l-12.95 11.12a2.07 2.06 72.6 0 0-.71 1.37c-.63 6.94 8.16 6.18 11.84 3.87a1.46 1.46 0 0 0 .6-.75c2.1-5.9 5.29-10.97 12.32-8.59 5.94 2.01 12.55 6.11 17.81 8.05q11.09 4.1 23.03 4.66a1.36 1.33 67.3 0 1 .87.37c1.69 1.63-.2 9.6-.27 12.74a.78.77-82.8 0 0 .6.78l.86.2a1 1 0 0 0 .97-.29q5.38-5.61 11.66-.84a1.13 1.12 59.3 0 0 .85.22c5.94-.94 8.03-4.73 13.02-6.51 4.36-1.56 5.03 2.26 6.37 5.01a1.32 1.32 0 0 0 1.63.68c9.81-3.41 25.88-9.38 33.71-1.22 12.23 12.75 23.07 19.44 35.92 28.34q10.14 7.01 13.54 11.25c6.7 8.33 4.93 19.71 1.06 28.84q-5.89 13.88-10.62 28.21-1.2 3.63-6.22 8.1c-10.9 9.69-19.53 16.9-30.77 29.88a1.51 1.47-22.8 0 0-.36.85q-.52 5.97-4.56 10.33a1.39 1.38-23.9 0 0-.37.94v8.68a1.52 1.5 28 0 0 .27.86c1.99 2.84 6.35 6.12 5.5 9.82-1.5 6.56-2.84 12.84-1.96 19.74.71 5.52 4.81 23.34-3.43 25.27a2.52 2.52 0 0 0-1.56 1.15c-3.01 5.04-9.9 14.87-10.34 20.6q-1.14 14.85-4.91 30.87c-.41 1.76-.85 2.61-2.68 3.28q-7.11 2.6-12.28 8.12c-1.57 1.68-2.27 1.33-4.3 1.21q-9.35-.52-16.32 6.64a1.28 1.25 20.5 0 1-.86.38c-4.44.17-8.67-.73-13.11-.69a.89.88-75.6 0 0-.75.45c-1.98 3.42-3.48 7.06-5.78 10.23a1.58 1.54-81 0 1-.75.56q-13.44 4.68-23.87 14.39-.98.91-3.62 1.3-12.98 1.89-17 14.25c-2.88 8.84-3.68 14.43.44 22.56q3.53 6.95-.33 12.79c-1.82 2.76-5.43 3.59-7.89 5.94-7.46 7.13-17.83 14.99-23.01 23.86-.82 1.41-.78 3.48-2.81 4.79q-4.38 2.82-5.58 3.71c-3.83 2.86-2.15 8.21-2.87 12.45q-1.41 8.27-2.84 16.53a1.38 1.35 77.8 0 1-.55.87l-5.33 3.83a1.26 1.25-13.4 0 0-.52.84q-1.27 8.49-9.21 11.61-1.96-12.27-4.95-20.98c-1.26-3.66-4.02-5.8-7.92-7.14-3.86-1.33-18.79-7.39-19.81-11.37q-2.31-9.02-12.1-7.64a1.44 1.44 0 0 1-1.62-1.68q3.25-18.04 18.97-27.83 1.66-1.03 2.02-1.75 3.93-8.02 11.94-11.85a1.74 1.67-85.5 0 0 .72-.64q3.26-5.24 6.47-10.51c4.98-8.19-4.51-8.86-6.66-14.83a1.72 1.71-48.8 0 1-.06-.96c1.15-5.22 3.11-18.27-.15-22.7-4.72-6.4-16.13 2.09-17.21-10.43q-.86-9.82-5.71-18.38a2.1 2.1 0 0 0-1.44-1.03q-7.09-1.36-14.33-.99c-2.38.12-5.12-1.04-5.19-3.5-.3-10.82-2.97-21.14-1.49-31.97q1.71-12.65 3.19-25.35c1.01-8.78-10.13-8.45-7.96-17.05 2.38-9.41-12.39-8.76-17.81-6.87a1.17 1.15 48.3 0 1-.92-.06c-9.95-5.11-9.71-23.79-7.26-32.59a1.89 1.88-70.2 0 0-1.04-2.23c-10.11-4.52-20.65-5.84-30.7-10.21a1.32 1.31 88 0 1-.68-.64c-2.08-4.3-3.37-8.01-8.82-9.5-8.2-2.24-15.59 1.37-21.18-7.58q-3.46-5.53-7.1-11.01a1.12 1.12 0 0 1-.15-.91c1.23-4.57 4.58-13.96.13-17.75-4.29-3.65-15.15.61-19.5 2.83-9.17 4.69-15.51 13.19-25.2 17.69-2.45 1.14-5.13-1.03-7.36-1.33q-4.62-.62-8.72 1.12a1.97 1.96 70 0 1-2.65-1.24l-5.93-19.44a.59.59 0 0 0-1.08-.1c-1.36 2.59-3.18 4.71-6.4 4.86-12.74.58-21.88-11.46-26.79-21.25-5.58-11.13-1.27-23.81 3.43-34.59 5-11.48 11.75-19.32 23.03-24.07 6.06-2.55 14.68-3.13 16.76-10.76q2.65-9.75 5.38-16.75c4.06-10.41 1.21-21.49-4.74-30.46-6.86-10.35 8.59-6.74 10.94-13.12a1.21 1.2 43.3 0 0-.03-.93c-1.37-3.07-4.05-2.23-6.06-3.21-3.86-1.88-4.89-9.1.8-9.26q10.27-.3 20.54-.71c2.89-.12 4.8-.41 6.37 1.46q4.04 4.83 8.29 9.47c2.35 2.56 14.3 2.93 18.01 3.31 1.65.16 4.25-4.85 6.69-6 1.4-.66 5.32-.84 6.25-1.83q5.03-5.35 10.13-10.63c3.36-3.49 1.58-6.58-1.54-9.59q-7.29-7-8.05-17.49c-.38-5.25 4.68-4.29 7.49-2.14q5 3.84 10.04 7.63c1.71 1.28 3.55 1.39 4.38-.85q3.79-10.19 14.72-8.55a1.05 1.03 27.5 0 0 .85-.26l9.76-8.85a.62.62 0 0 0 .08-.84c-1.59-2.12-9.94 5.73-11.49 7.01a1.67 1.66-68.3 0 1-.87.38c-6.81.93-10.8.72-14.76 7.17a2.12 2.12 0 0 1-3.1.57c-5.41-4.16-10.27-9.38-17.82-7.55q-1.8.44-1.96 2.52c-.87 11.44 4.27 16.77 9.95 25.36 1.22 1.84.57 3.6-1.34 4.67q-5.54 3.1-8.13 9.05a.93.93 0 0 1-.66.54l-7.38 1.59a1.03.99-80.1 0 0-.67.49c-3.7 6.69-10.44 3.94-16.28 3.11a1.63 1.63 0 0 1-.95-.49l-9.32-9.91a1.41 1.38-65.8 0 1-.37-1q.38-7.87-3.03-14.85a1.34 1.33-47.3 0 1-.04-1.06l3.36-8.48a1.79 1.78-52.2 0 0-.21-1.7c-3.59-4.96-11.3-13.57-7.77-20.21 1.46-2.75 8.75-15.95 1.02-15.63q-7.81.33-15.64.68c-3.21.14-5.42-2.59-8.25-3.56q-2.52-.85-5.09-1.61a1.52 1.49-8.8 0 1-.81-.58q-2.97-4.16-7.72-6.03a1.36 1.33 47.8 0 0-.83-.05l-13.17 3.4a1.17 1.15 55.6 0 1-.96-.19c-10.25-7.53-6.38-18.22-12.14-27.29-1.74-2.74-6.62-4.12-9.54-5.45a.76.76 0 0 1-.34-1.08c2.9-4.79 4.03-7.81 4.55-14.53a1.2 1.19 72.5 0 1 .42-.82c2.34-1.98 9.19-6.77 6.58-9.45a.73.73 0 0 0-.82-.15c-4.15 1.85-10.8 7.19-9.7 12.46.93 4.49-.59 8.39-4.25 11.11-2.64 1.96-1.53 4.36 1.52 4.64 8.68.81 12.35 6.3 12.87 14.41.52 7.99 4.7 19.73 15.04 18.39 4.09-.53 8.05-5.41 12.27-1.93 4.21 3.47 6.12 4.57 11.23 6.44a1.54 1.51 82.7 0 1 .75.59l2.06 3.14a2.16 2.15 70.7 0 0 2 .97q8.31-.73 16.5-1.26c2.5-.16 4.18.42 4.66 2.98a1.32 1.29 55.4 0 1-.16.93q-3.67 6.22-4.47 8.18c-3.55 8.62 3.16 15.55 8.01 21.99a.72.72 0 0 1 .03.82l-4.12 6.23a1.85 1.83-40.4 0 0-.15 1.75c1.85 4.22 7.75 14.96-1.12 15.64q-15.37 1.19-21.53 1.13c-11.18-.11-8.59 10.62-1.2 14.07a1.33 1.33 0 0 1-.15 2.47c-10.87 3.51-8.36 10.35-4.24 18.69q6.75 13.67.2 27.24c-3.21 6.65-8.36-5.12-13.3-4.92q-11.65.47-23.32 1.03c-2.18.1-4.45.21-5.41-1.97-2.75-6.24-4.48-9.91-9.73-14.48-5.96-5.19-11.89-10.18-19.42-13.17q-9.32-3.69-18.29-8.16c-2.23-1.12-4.62-.76-6.79-2.19-5.66-3.72-9.4-6.79-16.49-7.49-4.67-7.7-4.18-14.3 3.17-19.92q11.95-9.15 15.83-12.54 3.55-3.1 1.65-7.51a1.53 1.47 3.7 0 0-.65-.71c-3.1-1.71-6.06-2.75-6.45-6.79-.26-2.65 2.31-5.69 3.51-8.23a2.17 2.17 0 0 0 0-1.82c-2.94-6.34-1.75-13.67-2.63-19.22-1.02-6.45-7.87-9.49-11.99-13.81q-3.04-3.19-5.07-7.03a1.35 1.34-24 0 1 .73-1.89l5.63-2.06a1.46 1.46 0 0 0 .78-.65q2.31-3.89 6.82-2.1a1.7 1.67 84.2 0 1 .78.65q1.27 2.05 1.37 4.65a1.77 1.77 0 0 0 1.82 1.7l3.97-.11a.6.59-1 0 0 .58-.59q-.01-3.18 1.95-5.6a1.69 1.61 9.8 0 1 .79-.53l3.66-1.11a.9.9 0 0 0 .6-.6c2.41-7.81 9.33-7.8 12.52-14.46.42-.88.45-2.61 1.57-3.51a1.43 1.43 0 0 1 .89-.31q4.3-.06 6.77-3.18c1.05-1.33 1.21-3.39 2.24-5.01a1.03 1-72.7 0 1 .87-.47q11.93.12 19.43-8.93a1.47 1.47 0 0 1 .87-.52c2.08-.41 13.23-1.69 13.75 2.42a1.23 1.23 0 0 1-.25.9q-6.41 8.23-7.21 18.94a1.21 1.21 0 0 0 .94 1.26q7.11 1.64 13.06 6.26a1.67 1.67 0 0 0 2.44-.42q6.05-9.61-2.58-16.08a1.38 1.38 0 0 1-.37-1.79l5.72-10a1.15 1.13-81.3 0 1 .74-.55c11.14-2.41 11.47-4.28 13.52-15.23Z"/><path fill="#adacac" d="M709.75 655.71q-1.04 1.08-2.5 1c-1.24-11.03-2.67-28.35-16.29-28.64q-.51-.01-.94-.26-6.07-3.53-11.92-7.45c-2.78-1.87-3.84-5.31-5.31-8.16a1.25 1.24-9.9 0 0-.96-.67c-11.01-1.25-20.85-5.98-21.43 9.92q-.43 11.98-1.76 23.86c-.46 4.08-3.82 8.51-5.68 12.19h-.42c-.46-4.68 1.19-6.98 4.04-11.01a1.8 1.75 66 0 0 .33-.9q1.14-12.39.9-24.84c-.15-7.74 5.13-11.56 11.56-14.75.64-.31 1.68-1.27 1.82-1.81q3.88-14.51 14.94-24.68a1.7 1.7 0 0 0 .43-1.85q-1.72-4.49-3.76-9.25c-.7-1.64-1.32-1.89-3.05-1.63q-13.3 1.99-23.9-6.05a2.09 2.08 21 0 1-.81-1.82l1.02-13.6a1.28 1.22-22.4 0 1 .34-.77l6.58-6.97a1.36 1.35-52.5 0 0-.27-2.08q-22.15-13.64-45.02-25.53-.74-.38-1.92-.59c-4.36-.77-3.29-3.01-5.79-5.1-6.17-5.17-11.64-8.97-14.42-17.55a1.03 1.02 88.8 0 0-.69-.67q-6.46-1.95-12.69.57a1.37 1.35-89.3 0 0-.73.72c-.78 1.83-1.29 4.07-2.43 5.45-1.31 1.6-4.35 3.87-6.61 2.3q-9.65-6.69-21.64-7.62a2.02 2 17.2 0 0-1.88.98q-4.23 7.12-11.6 11.3l-2.5-5q1.98-1.58 4.29-2.63c3.64-1.65 5.69-4.07 8.57-6.49a1.25 1.22-62.9 0 1 .87-.29c8.53.52 19.2 1.51 25.17 7.86a1.05 1.03-23.7 0 0 .84.32c3.22-.3 4.88-6.96 6.01-9.57a1.21 1.18-88.5 0 1 .67-.65c3.39-1.31 10.44-.54 14-.56a1.48 1.47-83.5 0 0 1.42-1.13q2.6-10.71 5.69-21.08c2.15-7.25 11.41-20.49 20.28-13.49a1.29 1.22-27 0 0 .88.26q8.47-.8 16.7.97c6.26 1.34 10.93 1.64 16.6 1.72a2.18 2.17 1.6 0 0 2.2-2.07q.45-9.23 2.81-17.62 3-10.7-6.48-14.12a.86.85 5.3 0 1-.56-.67c-1.07-6.68 1.49-16.71-10.24-13.98-4.78 1.12-9.78 1.55-12.7-3.35q-7.68-12.84-4.5-28.17c.87-4.2-9.96-6.46-13.01-6.76-3.52-.36-16.67-4.43-18.11-7.6q-2.72-5.99-8.54-8.93c-1.64-.83-3.1-.43-4.82-.21-6.43.85-13.59-1.12-17.09-7q-3-5.04-5.97-10.11c-3.07-5.25 4.61-15.77-.6-19.13-3.62-2.34-10.92-.29-14.59 1.29q-2.67 1.15-8.11 5.22-6.33 4.74-17.66 12.57c-5.29 3.66-1.56 7.18-1.3 11.65q.32 5.54-2.37 10.55a1.15 1.12 50.2 0 0-.07.9q4.63 12.93-.79 25.57c-3.81 8.89-1.92 19.72 1.68 28.36a2.06 2.06 0 0 1-.52 2.33q-6.26 5.69-8.19 14.5l-2.21.29q1.11-6.71 5.41-11.88c2.11-2.55 4.58-2.38 3.02-6.72-3.17-8.85-4.18-18.11-1.06-26.91 3.21-9.03 3.88-16.31.53-25.55a1.47 1.44 46 0 1 .01-1.03l2.15-5.39q.2-.49.16-1.02-.38-5.14-1.18-10.26c-1.8-11.51-12.37-3.24-17.86-6.22a1.37 1.36-86.3 0 1-.62-.71q-2.25-6.08-4.61-12.11c-.63-1.62-1.8-2.5-3.5-2.12q-11.62 2.57-19.95-5.39c-6.6-6.3-15.47-17.89-15.84-27.31-.28-7 2.21-13.55 4.9-20.89 4.51-12.24 9.97-20.75 21.2-27.27 5.02-2.91 10.88-3.66 15.7-6.65 3.68-2.28 8.34-7.34 4.34-11.17q-5.09-4.86-7.18-8.45a.85.84 74.4 0 0-.75-.43c-6.55.11-14.01 1.38-20.4.73-7.74-.79-11.73-1.24-15.53-8.64-4.03-7.85-11-11.79-16.77-18.4-2.17-2.49-5.08-1.33-6.54 1.25q-3.79 6.68-3.09 14.6a1.67 1.65 73.1 0 1-.84 1.59q-7.44 4.16-10.59 12.02a2.15 2.14-87 0 1-1.39 1.26q-8.68 2.5-17.06 5.7-3.91 1.49-5.39 5.4-3.63 9.58-6.1 19.56a1.55 1.51 77.4 0 1-.5.81c-3.75 3.27-10.28-1.03-12.65-4.31a.8.79 67.6 0 0-.78-.33c-9.71 1.55-8.64-5.65-7.03-11.72h1.25c.15 3.43-1.33 8.45 3.72 8.76a1.59 1.55-58.8 0 0 .93-.24l3.47-2.21a1.24 1.23 76 0 1 1.89 1.14q-.47 6.13 5.14 6.6a2.02 2.02 0 0 0 2.12-1.49c1.55-5.82 4.28-21.95 11.54-23.32 6.02-1.13 10.72-4.82 16.99-5.92a2.46 2.43-86.9 0 0 1.93-1.75l1.93-6.79a.99.98-3.1 0 1 .61-.67c5.14-1.95 9.05-3.92 8.86-10.12-.06-2.12-.93-2.75.57-4.83q2.44-3.38 3.29-7.52a1.14 1.13 14.7 0 0-.77-1.31q-8.57-2.65-16.36-7.65a1.65 1.6 60 0 0-.91-.26q-7.58.16-12.06-5.78a2.09 2.02 82 0 0-.82-.64l-10.32-4.33.29-.71c7.09.7 10.83 3.77 16.49 7.49 2.17 1.43 4.56 1.07 6.79 2.19q8.97 4.47 18.29 8.16c7.53 2.99 13.46 7.98 19.42 13.17 5.25 4.57 6.98 8.24 9.73 14.48.96 2.18 3.23 2.07 5.41 1.97q11.67-.56 23.32-1.03c4.94-.2 10.09 11.57 13.3 4.92q6.55-13.57-.2-27.24c-4.12-8.34-6.63-15.18 4.24-18.69a1.33 1.33 0 0 0 .15-2.47c-7.39-3.45-9.98-14.18 1.2-14.07q6.16.06 21.53-1.13c8.87-.68 2.97-11.42 1.12-15.64a1.85 1.83-40.4 0 1 .15-1.75l4.12-6.23a.72.72 0 0 0-.03-.82c-4.85-6.44-11.56-13.37-8.01-21.99q.8-1.96 4.47-8.18a1.32 1.29 55.4 0 0 .16-.93c-.48-2.56-2.16-3.14-4.66-2.98q-8.19.53-16.5 1.26a2.16 2.15 70.7 0 1-2-.97l-2.06-3.14a1.54 1.51 82.7 0 0-.75-.59c-5.11-1.87-7.02-2.97-11.23-6.44-4.22-3.48-8.18 1.4-12.27 1.93-10.34 1.34-14.52-10.4-15.04-18.39-.52-8.11-4.19-13.6-12.87-14.41-3.05-.28-4.16-2.68-1.52-4.64 3.66-2.72 5.18-6.62 4.25-11.11-1.1-5.27 5.55-10.61 9.7-12.46a.73.73 0 0 1 .82.15c2.61 2.68-4.24 7.47-6.58 9.45a1.2 1.19 72.5 0 0-.42.82c-.52 6.72-1.65 9.74-4.55 14.53a.76.76 0 0 0 .34 1.08c2.92 1.33 7.8 2.71 9.54 5.45 5.76 9.07 1.89 19.76 12.14 27.29a1.17 1.15 55.6 0 0 .96.19l13.17-3.4a1.36 1.33 47.8 0 1 .83.05q4.75 1.87 7.72 6.03a1.52 1.49-8.8 0 0 .81.58q2.57.76 5.09 1.61c2.83.97 5.04 3.7 8.25 3.56q7.83-.35 15.64-.68c7.73-.32.44 12.88-1.02 15.63-3.53 6.64 4.18 15.25 7.77 20.21a1.79 1.78-52.2 0 1 .21 1.7l-3.36 8.48a1.34 1.33-47.3 0 0 .04 1.06q3.41 6.98 3.03 14.85a1.41 1.38-65.8 0 0 .37 1l9.32 9.91a1.63 1.63 0 0 0 .95.49c5.84.83 12.58 3.58 16.28-3.11a1.03.99-80.1 0 1 .67-.49l7.38-1.59a.93.93 0 0 0 .66-.54q2.59-5.95 8.13-9.05c1.91-1.07 2.56-2.83 1.34-4.67-5.68-8.59-10.82-13.92-9.95-25.36q.16-2.08 1.96-2.52c7.55-1.83 12.41 3.39 17.82 7.55a2.12 2.12 0 0 0 3.1-.57c3.96-6.45 7.95-6.24 14.76-7.17a1.67 1.66-68.3 0 0 .87-.38c1.55-1.28 9.9-9.13 11.49-7.01a.62.62 0 0 1-.08.84l-9.76 8.85a1.05 1.03 27.5 0 1-.85.26q-10.93-1.64-14.72 8.55c-.83 2.24-2.67 2.13-4.38.85q-5.04-3.79-10.04-7.63c-2.81-2.15-7.87-3.11-7.49 2.14q.76 10.49 8.05 17.49c3.12 3.01 4.9 6.1 1.54 9.59q-5.1 5.28-10.13 10.63c-.93.99-4.85 1.17-6.25 1.83-2.44 1.15-5.04 6.16-6.69 6-3.71-.38-15.66-.75-18.01-3.31q-4.25-4.64-8.29-9.47c-1.57-1.87-3.48-1.58-6.37-1.46q-10.27.41-20.54.71c-5.69.16-4.66 7.38-.8 9.26 2.01.98 4.69.14 6.06 3.21a1.21 1.2 43.3 0 1 .03.93c-2.35 6.38-17.8 2.77-10.94 13.12 5.95 8.97 8.8 20.05 4.74 30.46q-2.73 7-5.38 16.75c-2.08 7.63-10.7 8.21-16.76 10.76-11.28 4.75-18.03 12.59-23.03 24.07-4.7 10.78-9.01 23.46-3.43 34.59 4.91 9.79 14.05 21.83 26.79 21.25 3.22-.15 5.04-2.27 6.4-4.86a.59.59 0 0 1 1.08.1l5.93 19.44a1.97 1.96 70 0 0 2.65 1.24q4.1-1.74 8.72-1.12c2.23.3 4.91 2.47 7.36 1.33 9.69-4.5 16.03-13 25.2-17.69 4.35-2.22 15.21-6.48 19.5-2.83 4.45 3.79 1.1 13.18-.13 17.75a1.12 1.12 0 0 0 .15.91q3.64 5.48 7.1 11.01c5.59 8.95 12.98 5.34 21.18 7.58 5.45 1.49 6.74 5.2 8.82 9.5a1.32 1.31 88 0 0 .68.64c10.05 4.37 20.59 5.69 30.7 10.21a1.89 1.88-70.2 0 1 1.04 2.23c-2.45 8.8-2.69 27.48 7.26 32.59a1.17 1.15 48.3 0 0 .92.06c5.42-1.89 20.19-2.54 17.81 6.87-2.17 8.6 8.97 8.27 7.96 17.05q-1.48 12.7-3.19 25.35c-1.48 10.83 1.19 21.15 1.49 31.97.07 2.46 2.81 3.62 5.19 3.5q7.24-.37 14.33.99a2.1 2.1 0 0 1 1.44 1.03q4.85 8.56 5.71 18.38c1.08 12.52 12.49 4.03 17.21 10.43 3.26 4.43 1.3 17.48.15 22.7a1.72 1.71-48.8 0 0 .06.96c2.15 5.97 11.64 6.64 6.66 14.83q-3.21 5.27-6.47 10.51a1.74 1.67-85.5 0 1-.72.64q-8.01 3.83-11.94 11.85-.36.72-2.02 1.75-15.72 9.79-18.97 27.83a1.44 1.44 0 0 0 1.62 1.68q9.79-1.38 12.1 7.64c1.02 3.98 15.95 10.04 19.81 11.37 3.9 1.34 6.66 3.48 7.92 7.14q2.99 8.71 4.95 20.98Zm-61.02-101.52c-4.34 11.15 17.93 10.57 23.4 10.57 4.43.01 4.34 6.56 4.89 9.61 1.31 7.25 9.17-2.88 10.76-5.35q1.21-1.89 6.19-4.43a1.64 1.61-87.8 0 0 .7-.66l7.99-13.71a1.18 1.18 0 0 0-.26-1.5l-7.19-6.09a2.14 2.13-67.7 0 1-.74-1.78q.69-9.6 1.61-18.83c1.2-12.16-17.13-1.01-19.14-15-1.21-8.49-.24-21-12.84-20.09-3.02.22-14.69 1.91-14.34-3.19q.88-12.95-2.99-23.75a1.43 1.41 44.7 0 1-.01-.94c2.73-8.1-5.85-7.09-10.32-7.09-4.39.01-9.48-2.32-12.95-2.04q-8.38.66-16.27-2.55a.94.93-51.4 0 0-.87.1q-9.66 6.57-13.36 19.31-3.76 12.92-4.26 16.49c-1.24 8.8 8.84 16.2 14.63 20.36 16.65 11.96 35.17 21.69 53.31 30.86a.91.91 0 0 1 .28 1.41l-9.31 10.65a1.12 1.12 0 0 0-.25 1.01l1.4 5.73a1.52 1.51 48.9 0 1-.06.9Z"/><ellipse fill="#adacac" transform="rotate(103.1 141.977 152.082)" rx="4.93" ry="1.2"/><path fill="#404040" d="M697.85 97.27c-14.5 8.94 2.56 28.81-9.31 33.93q-6.38 2.75-13.74 2.21a1.87 1.86-83 0 0-1.97 1.54q-.5 2.86-1.66 5.95c-1.55 4.14-5.42 3.57-7.07.05q-6.3-13.46-14.55-25.83a1.51 1.49 30.2 0 1-.25-.92c.24-4.38.6-10.77 3.6-14.21q4.59-5.27 7.77-13.76c1.89-5.05 12.94 3.64 16.75 3.35 3.37-.24 5.8-2.68 8.25-5.31a.69.69 0 0 1 .79-.15c5.49 2.54 10.07 6.64 14.78 9.3 9.46 5.33 16.13 10.22 23.25 18.71a1.71 1.7-49.8 0 1 .16 1.96q-2.62 4.48-2.13 10.41c.19 2.27-5.3 5.33-6.97 6.99q-.33.32-.5.75l-2.37 5.75a.97.97 0 0 1-.8.6l-15.09 1.58a1.33 1.31 59.9 0 1-.91-.25q-4.04-3.03-2.83-7.12 2.03-6.84 2.23-12.27c.16-4.42-1.45-9.23-2.56-13.78a1.09 1.08-36.5 0 1 .13-.83l5.34-8.31q.58-.91-.34-.34ZM378.25 157.21l10.32 4.33a2.09 2.02 82 0 1 .82.64q4.48 5.94 12.06 5.78a1.65 1.6 60 0 1 .91.26q7.79 5 16.36 7.65a1.14 1.13 14.7 0 1 .77 1.31q-.85 4.14-3.29 7.52c-1.5 2.08-.63 2.71-.57 4.83.19 6.2-3.72 8.17-8.86 10.12a.99.98-3.1 0 0-.61.67l-1.93 6.79a2.46 2.43-86.9 0 1-1.93 1.75c-6.27 1.1-10.97 4.79-16.99 5.92-7.26 1.37-9.99 17.5-11.54 23.32a2.02 2.02 0 0 1-2.12 1.49q-5.61-.47-5.14-6.6a1.24 1.23 76 0 0-1.89-1.14l-3.47 2.21a1.59 1.55-58.8 0 1-.93.24c-5.05-.31-3.57-5.33-3.72-8.76q4.8-4.02 6.71-10.74a1.93 1.93 0 0 0-1.2-2.34q-8.66-3.12-15.88-8.81a.95.92 23.8 0 1-.35-.87c.64-4.7 2.83-6.33.62-11.35-2.66-6.01 1.11-6.87 5.01-9.92a1.19 1.14-16.7 0 0 .45-.8c.65-5.82 4.14-4.51 6.56-8.12 3.38-5.04-.64-11.06 5.65-14.65 3.13-1.79 10.3-.77 14.18-.73Z"/><path fill="#404040" d="M495.04 423.5c-1.61 1.98-5.19 7.75-8.17 6.48q-5.12-2.18-10.17-4.5a1.62 1.58-2.2 0 1-.7-.63c-5.11-8.84-10.75-14.47-21.38-15.87a2.64 2.62-8.8 0 1-2.03-1.48q-4.01-8.6-13.49-10.42c-6.05-1.16-10.07-6.4-12.04-11.94a1.63 1.6 10.1 0 0-.49-.69l-6.65-5.28a1.51 1.48 13.7 0 1-.54-.87q-.89-4.15-1.83-8.25c-2.39-10.41-7.63-19.41-14.04-28.57-6.1-8.7-.78-19.08-5.42-28.42a1.49 1.44 89.6 0 0-.66-.67c-5.37-2.73-11.14-4.87-16.31-7.91a1.49 1.45-85 0 1-.64-.78l-8.26-22.43a1.96 1.95-82 0 0-.65-.87q-8.75-6.67-14.78-15.86a1.88 1.82 85.1 0 0-.76-.66c-4.76-2.17-11.41-5.03-13.08-10.44a1.23 1.23 0 0 1 .66-1.47l5.78-2.64a1.03 1.03 0 0 0 .38-1.56q-5.84-7.58-4.67-17.16c.64-5.26 5.65-6.63 10.15-5.07-1.61 6.07-2.68 13.27 7.03 11.72a.8.79 67.6 0 1 .78.33c2.37 3.28 8.9 7.58 12.65 4.31a1.55 1.51 77.4 0 0 .5-.81q2.47-9.98 6.1-19.56 1.48-3.91 5.39-5.4 8.38-3.2 17.06-5.7a2.15 2.14-87 0 0 1.39-1.26q3.15-7.86 10.59-12.02a1.67 1.65 73.1 0 0 .84-1.59q-.7-7.92 3.09-14.6c1.46-2.58 4.37-3.74 6.54-1.25 5.77 6.61 12.74 10.55 16.77 18.4 3.8 7.4 7.79 7.85 15.53 8.64 6.39.65 13.85-.62 20.4-.73a.85.84 74.4 0 1 .75.43q2.09 3.59 7.18 8.45c4 3.83-.66 8.89-4.34 11.17-4.82 2.99-10.68 3.74-15.7 6.65-11.23 6.52-16.69 15.03-21.2 27.27-2.69 7.34-5.18 13.89-4.9 20.89.37 9.42 9.24 21.01 15.84 27.31q8.33 7.96 19.95 5.39c1.7-.38 2.87.5 3.5 2.12q2.36 6.03 4.61 12.11a1.37 1.36-86.3 0 0 .62.71c5.49 2.98 16.06-5.29 17.86 6.22q.8 5.12 1.18 10.26.04.53-.16 1.02l-2.15 5.39a1.47 1.44 46 0 0-.01 1.03c3.35 9.24 2.68 16.52-.53 25.55-3.12 8.8-2.11 18.06 1.06 26.91 1.56 4.34-.91 4.17-3.02 6.72q-4.3 5.17-5.41 11.88Z"/><path fill="#404040" d="M524.79 494.75c-4.18-9.6-7.81-21.81-14.32-29.92q-.3-.37-.41-.83l-.36-1.53a1.91 1.84-43.9 0 1 .04-1.04q3.99-12.26-2.27-23.35-.27-.47-.27-1.01-.15-10.41-9.95-13.86 1.93-8.81 8.19-14.5a2.06 2.06 0 0 0 .52-2.33c-3.6-8.64-5.49-19.47-1.68-28.36q5.42-12.64.79-25.57a1.15 1.12 50.2 0 1 .07-.9q2.69-5.01 2.37-10.55c-.26-4.47-3.99-7.99 1.3-11.65q11.33-7.83 17.66-12.57 5.44-4.07 8.11-5.22c3.67-1.58 10.97-3.63 14.59-1.29 5.21 3.36-2.47 13.88.6 19.13q2.97 5.07 5.97 10.11c3.5 5.88 10.66 7.85 17.09 7 1.72-.22 3.18-.62 4.82.21q5.82 2.94 8.54 8.93c1.44 3.17 14.59 7.24 18.11 7.6 3.05.3 13.88 2.56 13.01 6.76q-3.18 15.33 4.5 28.17c2.92 4.9 7.92 4.47 12.7 3.35 11.73-2.73 9.17 7.3 10.24 13.98a.86.85 5.3 0 0 .56.67q9.48 3.42 6.48 14.12-2.36 8.39-2.81 17.62a2.18 2.17 1.6 0 1-2.2 2.07c-5.67-.08-10.34-.38-16.6-1.72q-8.23-1.77-16.7-.97a1.29 1.22-27 0 1-.88-.26c-8.87-7-18.13 6.24-20.28 13.49q-3.09 10.37-5.69 21.08a1.48 1.47-83.5 0 1-1.42 1.13c-3.56.02-10.61-.75-14 .56a1.21 1.18-88.5 0 0-.67.65c-1.13 2.61-2.79 9.27-6.01 9.57a1.05 1.03-23.7 0 1-.84-.32c-5.97-6.35-16.64-7.34-25.17-7.86a1.25 1.22-62.9 0 0-.87.29c-2.88 2.42-4.93 4.84-8.57 6.49q-2.31 1.05-4.29 2.63Z"/><path fill="#c20002" d="M447.92 961.99a.55.54-24.2 0 0-.85-.32c-3.49 2.5-12.25 6.08-15.07.88-3.5-6.47.75-12.49 5.06-17.11 3.22-3.45 5.27-13.99 6.74-18.81a1.34 1.33-77 0 0-1.06-1.71c-4.54-.72-7.02 7.66-8.15 10.89a2.11 2.11 0 0 1-2.22 1.41q-5.81-.62-7.82-5.79a1.38 1.35 44.4 0 1-.02-.96q3.65-10.64 14.62-13.24a.99.97-9.3 0 0 .75-1.03c-.61-6.87-9.5 2.47-13.12-2.7q-3.93-5.6 1.26-9.02a1.59 1.54-59.5 0 1 .91-.25c8.68.28 13.78-2.59 19.62 5.81a.46.46 0 0 0 .84-.26l-.08-7.8a.67.66 6.2 0 0-.51-.63c-4.17-.99-16.05-.32-12.98-8a1.51 1.51 0 0 1 .67-.76l3.67-1.98a1.09 1.07 75.6 0 0 .56-.97l-.12-4.99a.93.93 0 0 0-.61-.86c-4.24-1.58-18.2-4.52-14-11.43 3.27-5.39 8.68-16.55 13.91-8.78q2.38 3.54 5.79 6.72a.82.81-61.5 0 0 1.34-.4q1.33-5.2 3.58-10.38c5.43-12.51 5.13-25.43 4.9-39.02-.13-7.57 2.35-14.53 5.25-21.29a1 .99 41 0 0-.07-.91c-3.9-6.3-7.58-12.51-14.98-15.26-3.21-1.19-3.82-7.47-3.11-10 1.93-6.82 17.98-15.95 8.4-22.76-13.91-9.86.34-29.75 8.27-38.52.6-.68 1.18-2.89 1.24-4.08.63-12.4.29-24.37 5.22-36.03 5.31-12.53 7.43-24.49 5.4-38.03-.97-6.55-.42-12.84-1.41-19.42a2.39 2.38 65.6 0 1 .82-2.18c11.13-9.46 8.17-24.91 4.67-36.52-.32-1.08-.42-3.02.11-4.32q3.72-9.17 3.53-19.19a1.81 1.74-31.3 0 1 .25-.94c5.79-9.7 7.47-16.26 6.77-27.4q-.46-7.47.63-14.92a1.31 1.29-57.9 0 0-.2-.9c-2.48-3.68-4.58-6.39-3.62-10.51q6.54-28.01 4.36-56.82-.94-12.38 11.1-11.74c3.1.16 4.24 2.05 4.52 5.06q.76 8.24 4.45 15.7a1.76 1.72 36.2 0 1 .16.96c-.55 4.67-3.07 12.5-.12 16.4q4.57 6.02 6.26 10.93 3.9 11.34 11.05 28.48c1.61 3.87-5.45 6.27-7.77 8.42q-6.17 5.7-6.01 14.62c.22 13.02 2.21 23.65-5.1 35.58q-5.75 9.39-9.64 19.69c-3.78 10-4.56 21-7.76 31.29-1.57 5.02-4.18 10.59-4.27 15.65-.16 8.55 5.41 17.12 7.05 25.7 1.88 9.86-.37 19.32-4.77 28.23-2.13 4.3-1.45 12.67-1.66 17.59a2.13 2.12-16.6 0 1-.88 1.62c-7.71 5.56-9.04 12.3-7.32 21.33 1.37 7.19 2.35 15.05.64 22.22-2.82 11.85-19.01 31.39-7.59 42.7a1.5 1.46 20.1 0 1 .41.85c1.16 9.42-4.2 20.44-.27 29.88 1.63 3.93.26 12.33.18 16.8a1.37 1.35 26.2 0 0 .31.89l5.18 6.35a.88.87 39.3 0 1 .1.96c-2.1 4.08-3.67 7.56-4.18 12.34-1.31 12.31-3.01 24.47-7.67 34.45q-4.54 9.73-5.11 18.41c-.32 4.96-4.66 12.71-8.04 16.32q-2.66 2.85-4.41 6.37a1.64 1.6-36.5 0 0-.15.94q.46 3.41 2.48 5.78c6.38 7.52 10.34 15.15 17.04 22.42 2.42 2.62 2.6 6.02 2.87 9.29a2.49 2.49 0 0 0 1.99 2.23l23.99 4.79a1.06 1.06 0 0 1-.01 2.09q-7.9 1.48-10.91 8.76a1.46 1.43-4.1 0 1-.64.72c-1.26.7-2.61.73-3.79-.3-7.52-6.59-12.6-10.82-23.3-9.14a.95.95 0 0 0-.76.65q-.57 1.82.17 3.64a.85.84 81.9 0 0 .7.53q5.06.51 7.5 4.88a1.33 1.31-51.2 0 1 .1 1.01c-.61 1.91-2.64 2.01-3.7 2.78q-3.6 2.66-4.73 7.24a1.54 1.54 0 0 1-2.05 1.07q-4.24-1.63-3.37-6.76a2.08 2.06-2 0 1 1.56-1.66l4.83-1.15a1 .98 4.1 0 0 .68-.58c.79-1.89-7.7-3.38-9.17-3.87a1.26 1.25-2.1 0 1-.75-.69q-2.18-4.85.07-9.68a1.09 1.07 5.6 0 1 .74-.6l12.27-2.8a.84.83 1.1 0 0 .63-.6q.43-1.54-.46-2.92a1.22 1.21-11.2 0 0-.83-.55c-3.87-.64-15.95 7.22-13.47-2.42.83-3.23 3.43-3.45 2.49-7.66Z"/><path fill="#404040" d="m648.79 553.29-1.4-5.73a1.12 1.12 0 0 1 .25-1.01l9.31-10.65a.91.91 0 0 0-.28-1.41c-18.14-9.17-36.66-18.9-53.31-30.86-5.79-4.16-15.87-11.56-14.63-20.36q.5-3.57 4.26-16.49 3.7-12.74 13.36-19.31a.94.93-51.4 0 1 .87-.1q7.89 3.21 16.27 2.55c3.47-.28 8.56 2.05 12.95 2.04 4.47 0 13.05-1.01 10.32 7.09a1.43 1.41 44.7 0 0 .01.94q3.87 10.8 2.99 23.75c-.35 5.1 11.32 3.41 14.34 3.19 12.6-.91 11.63 11.6 12.84 20.09 2.01 13.99 20.34 2.84 19.14 15q-.92 9.23-1.61 18.83a2.14 2.13-67.7 0 0 .74 1.78l7.19 6.09a1.18 1.18 0 0 1 .26 1.5l-7.99 13.71a1.64 1.61-87.8 0 1-.7.66q-4.98 2.54-6.19 4.43c-1.59 2.47-9.45 12.6-10.76 5.35-.55-3.05-.46-9.6-4.89-9.61-5.47 0-27.74.58-23.4-10.57a1.52 1.51 48.9 0 0 .06-.9Z"/><path fill="#404040" d="M642.54 657.5q.26 6.2.49 12.42c.13 3.64-3.51 6.23-1.53 9.87a.88.86-13.5 0 0 .75.45c4.36.02 18.3-.85 16.53 7.35a1.63 1.62-16.5 0 1-.46.84c-11.28 11.16 20.7 14.5 6.36 24.34-6.59 4.52-10.02 11.33-16.75 15.84q-13.33 8.93-28.21 15.06c-7.77 3.19-14.92 3.56-21.25-1.99-2.89-2.54-5.18-2.7-7.41.59-3.87 5.72 1.93 6.99 2.59 12.01.29 2.27-1.67 4.95-3.01 6.66a1.8 1.78 66.5 0 0-.38.98q-.33 5.44 3.11 9.6a.74.74 0 0 1 .09.82q-3.33 6.63-8.89 10.64a2.21 2.2-53.5 0 1-1.99.3q-6.7-2.23-13.25-4.62c-1.09-.4-2.58-2.55-4-3.22q-4.32-2.05-7.92 1.2a1.44 1.42-16.6 0 0-.46.84l-2.94 16.86a1.79 1.78-59.6 0 0 .37 1.43c2.77 3.51 8.99 9.36 13.79 8.74 2.67-.35 4.33-3.42 7.24-2.68 2.68.67 2.87 3.24 1.38 5.24-4.01 5.39-10.12 2.21-15.08.31a1.36 1.35-80.8 0 0-1.84 1.33q.27 5.55-3.82 10.16a1.49 1.43-23.7 0 0-.36.87l-1.12 18.74a1.44 1.44 0 0 1-1.2 1.33q-9.96 1.64-16.13 9.43-.82 1.04-4.19 2.73c-8.56 4.29-8.81 11.44-8.78 19.79.01 3.49 7.61 8.33 10.31 10.5a1.65 1.63-23.2 0 0 .89.35c4.1.37 18.09 3.18 11.59 9.97q-2.14 2.24-4.33 4.4-9.85 9.72-15.75 22.23c-.59 1.24-3.68 1.79-4.85 2.88-3.25 3.03-.76 6.93-3.52 9.06q-3.76 2.89-5.44 7.38a1.44 1.41 84.5 0 1-.59.73q-3.98 2.49-7.96 4.88c-4.02 2.42-1.93 5.8-.18 8.66q1.04 1.72.63 6.18c-.65 6.96-2.5 13.65 5.03 17.46a2.18 2.16-77.2 0 1 1.19 1.91q0 .87-.53 1.26a.9.89 38.3 0 1-.88.1c-11.76-5.04-23.85-5.15-35.69-7.96a1.74 1.73 88.2 0 1-1.26-1.19q-1.55-5.09-4.69-9.61-8.71-12.56-18.01-24.78a.71.7-44 0 1 .02-.89c2.87-3.43 5.71-6.18 7.58-10.48q1.9-4.37 5.15-7.94a1.15 1.12-26.6 0 0 .3-.86c-.77-12.17 4.81-19.15 8.44-29.87 3.27-9.66 3.1-18.07 3.42-27.48.13-3.63 1.58-5.87 3.52-8.74 2.15-3.18-2.26-9.72-4.14-12.56a1.53 1.49 31 0 1-.24-.91l.85-12.62a1.59 1.56 32.7 0 0-.21-.92c-2.42-4.3-3.21-7.93-1.89-12.99q2.2-8.44 1.55-17.15c-.32-4.2-3.31-8.35-5.17-12.09a2.35 2.33 41.8 0 1-.11-1.84c2.75-7.81 5.33-17.37 10.39-23.96 5.4-7.06 2.31-26.92-.28-34.95-1.06-3.28.17-4.78 2.56-7.28q9-9.41 7-22.92a1.54 1.53-35.4 0 1 .16-.93c6.27-11.57 7.3-23.75 5.16-36.3-1.43-8.36-7.38-14.16-6.06-23.37.53-3.75 2.9-8.12 4.44-11.99 1.72-4.3 2.13-8.79 2.73-13.36q2.26-17.34 11.58-32.09 4.54-7.18 6.7-12.74c2.78-7.16 1.9-15.74.8-24.39q-1.17-9.06 3.61-14.94c3.5-4.32 12.6-6.97 11.94-13.6-.21-2.08-1.74-4.26-2.74-6.26q7.37-4.18 11.6-11.3a2.02 2 17.2 0 1 1.88-.98q11.99.93 21.64 7.62c2.26 1.57 5.3-.7 6.61-2.3 1.14-1.38 1.65-3.62 2.43-5.45a1.37 1.35-89.3 0 1 .73-.72q6.23-2.52 12.69-.57a1.03 1.02 88.8 0 1 .69.67c2.78 8.58 8.25 12.38 14.42 17.55 2.5 2.09 1.43 4.33 5.79 5.1q1.18.21 1.92.59 22.87 11.89 45.02 25.53a1.36 1.35-52.5 0 1 .27 2.08l-6.58 6.97a1.28 1.22-22.4 0 0-.34.77l-1.02 13.6a2.09 2.08 21 0 0 .81 1.82q10.6 8.04 23.9 6.05c1.73-.26 2.35-.01 3.05 1.63q2.04 4.76 3.76 9.25a1.7 1.7 0 0 1-.43 1.85q-11.06 10.17-14.94 24.68c-.14.54-1.18 1.5-1.82 1.81-6.43 3.19-11.71 7.01-11.56 14.75q.24 12.45-.9 24.84a1.8 1.75 66 0 1-.33.9c-2.85 4.03-4.5 6.33-4.04 11.01Z"/><path fill="#404040" d="M707.25 656.71c-5.16 13.17-16.7 16.55-29.84 16a1.7 1.69 10.2 0 0-1.68 1.16l-1.82 5.43a.73.72-76.9 0 1-.78.49l-1.47-.19a1.11 1.1-9.2 0 1-.84-.6c-1.4-2.85-3-4.3-6.33-4.83q-4.83-.76-9.55-1.77a.96.96 0 0 1-.69-.56q-3.8-8.67-11.29-14.34c1.86-3.68 5.22-8.11 5.68-12.19q1.33-11.88 1.76-23.86c.58-15.9 10.42-11.17 21.43-9.92a1.25 1.24-9.9 0 1 .96.67c1.47 2.85 2.53 6.29 5.31 8.16q5.85 3.92 11.92 7.45.43.25.94.26c13.62.29 15.05 17.61 16.29 28.64Z"/><path fill="#c20002" d="M441.69 819.06c-7.37-6.02-2.7-20.89-.18-29.86.83-2.96 3.43-2.73 5.34-1.45a.92.91-73.3 0 1 .4.76v28.96a1.62 1.57-29.1 0 1-.26.87q-2.19 3.26-5.3.72Z"/><ellipse fill="#c20002" transform="rotate(127.7 11.109 533.121)" rx="6.42" ry="5.03"/><path fill="#404040" d="M619.14 978.4a1.36 1.35-7.2 0 1-1.81-1.4c.58-6.07 8.66-14.32 13.08-18.11a1.01 1.01 0 0 1 1.63 1.04q-1.1 3.96-2.52 7.75c-1.45 3.87-5.44 5.32-7.82 8.69q-1.05 1.47-2.56 2.03ZM648.26 971.98c-3.69-.08-7.46-.45-11.14-.51a.36.36 0 0 1-.18-.66q6.64-4.29 14.1-5.12a1.5 1.49-4.5 0 1 1.66 1.41q.27 4.98-4.44 4.88Z"/><path fill="#c20002" d="M511.64 1000.17q-2.18 5.43-1.35 11.33c-.79 9.21 2.77 15.91 6.94 24.59 1.37 2.85.49 5.06-2.6 5.55a1.05 1.04-28.1 0 1-.87-.26l-8.21-7.52a.72.71 33.2 0 0-1.13.23l-2.47 5.35a2.09 2.08-67.1 0 1-2.65 1.08c-4.27-1.66-6.34-7.83-7.55-11.85a1.01 1 60.6 0 0-1.63-.46c-2.3 2.08.55 6.8-4.61 7.26a1.6 1.59-9.5 0 1-1.69-1.2c-1.98-7.94-7.22-5.61-13.02-7.93a1.04 1.04 0 0 1-.61-.68q-.39-1.44 1.24-2.47 4.7-2.97 9.61-5.52a1.54 1.53-54.6 0 1 .93-.16l10.33 1.45a1.02 1.02 0 0 0 1.15-.83c1-5.53 1.38-9.44 7.38-11.36a.85.84-1.4 0 0 .56-.58q.42-1.44-.91-2.21a1.5 1.43 53.8 0 0-1.01-.18c-3.12.56-13.91 1.68-14.89-1.88-2.36-8.58 5.67-8.47 10.85-10.86a.92.91-6.2 0 0 .5-.62l1.32-5.62a.67.67 0 0 1 .91-.47l12.7 5.41a.97.95 8.5 0 1 .57.75q.69 4.96.21 9.66Z"/><ellipse fill="#c20002" transform="rotate(-21.8 2808.353 -725.757)" rx="3.52" ry="2.94"/><path fill="#c20002" d="M466.58 1021.5c-13.07-2.48-4.72-17.59.64-22.73a1.08 1.06 34.7 0 1 1.17-.2l4.21 1.88a.8.8 0 0 0 .84-.13q1.98-1.74 2.95-4.2a1.33 1.33 0 0 1 2.12-.51c8.03 7.09-3.35 16.34-10.1 17.94a.86.85 82.3 0 0-.66.87l.26 5.84a1.21 1.2-85.9 0 1-1.43 1.24Z"/><path fill="#404040" d="M511.64 1000.17c.89 2.63 6.67 3.09 9.12 3.63a1.74 1.73-83.7 0 1 1.36 1.71q-.11 15.83 13.74 19.13c4.8 1.14 15.97-.54 20.47 2.87a1.21 1.2 15.2 0 1 .47.82c.17 1.38-.8 1.94-2.07 2.01q-5.87.37-11.65 1.38a1.15 1.15 0 0 0-.82.58q-2.84 5.29-8.99 4.38a1.07 1.04-61.3 0 0-.88.27l-2.66 2.45a1.59 1.58 45.4 0 1-2.17-.02l-13.58-12.98a1.71 1.65 16.5 0 1-.47-.83l-3.22-14.07q-.83-5.9 1.35-11.33Z"/><ellipse fill="#c20002" transform="rotate(76.4 -398.768 814.756)" rx="3.28" ry="2.66"/></svg>