<?xml version="1.0" encoding="utf-8"?>
<!-- Generator: Adobe Illustrator 27.6.1, SVG Export Plug-In . SVG Version: 6.00 Build 0)  -->
<svg version="1.1" id="Capa_1" xmlns="http://www.w3.org/2000/svg" xmlns:xlink="http://www.w3.org/1999/xlink" x="0px" y="0px"
	 viewBox="0 0 1280 720" style="enable-background:new 0 0 1280 720;" xml:space="preserve">
<style type="text/css">
	.st0{fill-rule:evenodd;clip-rule:evenodd;fill:#FFFFFF;stroke:#172C51;stroke-width:1.3333;stroke-miterlimit:8;}
	.st1{fill:#595959;stroke:#172C51;stroke-width:1.3333;stroke-miterlimit:8;}
	.st2{fill:#7F7F7F;stroke:#172C51;stroke-width:1.3333;stroke-miterlimit:8;}
	.st3{fill:#A6A6A6;stroke:#172C51;stroke-width:1.3333;stroke-miterlimit:8;}
	.st4{fill:#BFBFBF;stroke:#172C51;stroke-width:1.3333;stroke-miterlimit:8;}
	.st5{fill:#D9D9D9;stroke:#172C51;stroke-width:1.3333;stroke-miterlimit:8;}
	.st6{font-family:'Calibri';}
	.st7{font-size:18px;}
	.st8{enable-background:new    ;}
</style>
<g>
	<path class="st0" d="M27,111.5h1042v-94l188,188l-188,188v-94H27V111.5z"/>
	<rect x="27" y="111.5" class="st1" width="625" height="189"/>
	<rect x="652" y="111.5" class="st2" width="106" height="189"/>
	<rect x="758" y="111.5" class="st3" width="93" height="189"/>
	<rect x="851" y="111.5" class="st4" width="133" height="189"/>
	<rect x="984" y="111.5" class="st5" width="73" height="189"/>
	<path d="M1057.7,300.5v151.6h-1.3V300.5H1057.7z M1053,300.5c0-2.2,1.8-4,4-4s4,1.8,4,4s-1.8,4-4,4S1053,302.7,1053,300.5z
		 M1061,450.8l-4,8l-4-8H1061z"/>
	<path d="M984.7,300.5v151.6h-1.3V300.5H984.7z M980,300.5c0-2.2,1.8-4,4-4s4,1.8,4,4s-1.8,4-4,4S980,302.7,980,300.5z M988,450.8
		l-4,8l-4-8H988z"/>
	<path d="M851.7,300.5v151.6h-1.3V300.5H851.7z M847,300.5c0-2.2,1.8-4,4-4s4,1.8,4,4s-1.8,4-4,4S847,302.7,847,300.5z M855,450.8
		l-4,8l-4-8H855z"/>
	<path d="M758.7,300.5v151.6h-1.3V300.5H758.7z M754,300.5c0-2.2,1.8-4,4-4s4,1.8,4,4s-1.8,4-4,4S754,302.7,754,300.5z M762,450.8
		l-4,8l-4-8H762z"/>
	<path d="M652.7,300.5v151.6h-1.3V300.5H652.7z M648,300.5c0-2.2,1.8-4,4-4s4,1.8,4,4s-1.8,4-4,4S648,302.7,648,300.5z M656,450.8
		l-4,8l-4-8H656z"/>
	<path d="M27.7,300.5l0,151.6h-1.3l0-151.6H27.7z M23,300.5c0-2.2,1.8-4,4-4c2.2,0,4,1.8,4,4s-1.8,4-4,4
		C24.8,304.5,23,302.7,23,300.5z M31,450.8l-4,8l-4-8H31z"/>
</g>
<text transform="matrix(1 0 0 1 23 482.1852)" class="st6 st7">1857:</text>
<text transform="matrix(1 0 0 1 23 503.7852)" class="st6 st7">C贸digo civil</text>
<text transform="matrix(1 0 0 1 602.4446 476.282)" class="st6 st7">1951:</text>
<text transform="matrix(1 0 0 1 602.4446 497.882)" class="st6 st7">Primer C贸digo </text>
<text transform="matrix(1 0 0 1 602.4446 519.482)" class="st6 st7">de aguas</text>
<text transform="matrix(1 0 0 1 735.5924 490.2861)" class="st6 st7">1967:</text>
<text transform="matrix(1 0 0 1 735.5924 511.8861)" class="st6 st7">Segundo </text>
<text transform="matrix(1 0 0 1 735.5924 533.4861)" class="st6 st7">C贸digo de </text>
<text transform="matrix(1 0 0 1 735.5924 555.0861)" class="st6 st7">aguas</text>
<text transform="matrix(1 0 0 1 831.1999 475.5795)" class="st6 st7">1981:</text>
<text transform="matrix(1 0 0 1 831.1999 497.1795)" class="st6 st7">Nuevo c贸digo </text>
<text transform="matrix(1 0 0 1 831.1999 518.7795)" class="st6 st7">de aguas </text>
<text transform="matrix(1 0 0 1 831.1999 540.3795)" class="st6 st7">(vigente hoy)</text>
<text transform="matrix(1 0 0 1 1044.1797 476.2826)" class="st6 st7">2022:</text>
<text transform="matrix(1 0 0 1 1044.1797 497.8826)" class="st6 st7">Reforma </text>
<text transform="matrix(1 0 0 1 1044.1797 519.4826)" class="st8"><tspan x="0" y="0" class="st6 st7">7543-12 </tspan><tspan x="0" y="21.6" class="st6 st7">es aprobada</tspan><tspan x="0" y="43.2" class="st6 st7">por el senado </tspan></text>
<text transform="matrix(1 0 0 1 1044.1797 541.0826)" class="st6 st7"> </text>
<text transform="matrix(1 0 0 1 956.2812 486.3794)" class="st6 st7">2011:</text>
<text transform="matrix(1 0 0 1 956.2812 507.9794)" class="st8"><tspan x="0" y="0" class="st6 st7">Reforma</tspan><tspan x="0" y="21.6" class="st6 st7">7543-12</tspan><tspan x="0" y="43.2" class="st6 st7">entra al</tspan><tspan x="0" y="64.8" class="st6 st7">senado</tspan></text>
<text transform="matrix(1 0 0 1 956.2812 529.5793)" class="st6 st7"> </text>
</svg>
