<svg id="Layer_1" data-name="Layer 1" xmlns="http://www.w3.org/2000/svg" xmlns:xlink="http://www.w3.org/1999/xlink" viewBox="0 0 518.57 1436.6"><defs><style>.cls-1,.cls-10,.cls-15,.cls-2{fill:none;}.cls-10,.cls-15,.cls-2{stroke:#231f20;stroke-miterlimit:10;}.cls-2{stroke-width:3px;}.cls-3{font-size:24px;}.cls-14,.cls-19,.cls-21,.cls-3,.cls-4,.cls-5,.cls-7{fill:#231f20;}.cls-3,.cls-4{font-family:HelveticaNeueLTStd-BdCn, Helvetica Neue LT Std;}.cls-4{font-size:32px;}.cls-5{font-size:11px;}.cls-19,.cls-5{font-family:Helvetica;}.cls-6{letter-spacing:-0.05em;}.cls-7{font-size:12px;}.cls-21,.cls-7{font-family:HelveticaNeueLTStd-Bd, Helvetica Neue LT Std;}.cls-8{letter-spacing:-0.02em;}.cls-9{letter-spacing:0em;}.cls-10{stroke-width:2px;}.cls-11{clip-path:url(#clip-path);}.cls-12{fill:#312f81;}.cls-13{letter-spacing:-0.05em;}.cls-15{stroke-width:0.75px;}.cls-16{letter-spacing:-0.13em;}.cls-17{letter-spacing:-0.05em;}.cls-18{letter-spacing:-0.07em;}.cls-19{font-size:10.21px;}.cls-20{letter-spacing:-0.05em;}.cls-21{font-size:11.14px;}.cls-22{letter-spacing:-0.05em;}</style><clipPath id="clip-path" transform="translate(-45.08 -60.26)"><rect class="cls-1" y="0.01" width="612" height="1559.06"/></clipPath></defs><title>cronología alto mapio</title><line class="cls-2" x1="260.07" y1="4.27" x2="260.07" y2="1434.15"/><text class="cls-3" transform="translate(7.79 19.92)">Cronología</text><text class="cls-3" transform="translate(7.79 48.72)">Alto Maipo</text><text class="cls-4" transform="translate(62.97 1295.76)">2021</text><text class="cls-5" transform="translate(37.6 1347.21)">Inauguración<tspan class="cls-6" x="63.6" y="0"> </tspan><tspan x="66.08" y="0">Alto Maipo.</tspan></text><text class="cls-7" transform="translate(68.95 1329.51)">Septiemb<tspan class="cls-8" x="54.42" y="0">r</tspan><tspan class="cls-9" x="58.88" y="0">e</tspan></text><line class="cls-10" x1="254.72" y1="1299.21" x2="7.55" y2="1299.21"/><g class="cls-11"><path class="cls-12" d="M291.1,1360A13.93,13.93,0,1,0,305,1346.06,13.92,13.92,0,0,0,291.1,1360" transform="translate(-45.08 -60.26)"/><polyline class="cls-2" points="252.44 14.3 260.07 4.27 267.9 14.3"/><polyline class="cls-2" points="267.75 1424.12 260.12 1434.15 252.29 1424.12"/></g><text class="cls-4" transform="translate(383.08 56)">2007</text><text class="cls-5" transform="translate(335.17 103.19)">Estudio del Impacto<tspan class="cls-13" x="96.61" y="0"> </tspan><tspan x="99.08" y="0">Ambiental del </tspan></text><text class="cls-5" transform="translate(333.96 116.39)">Proyecto Hidroeléctrica<tspan class="cls-6" x="113.71" y="0"> </tspan><tspan x="116.18" y="0">Alto Maipo.</tspan></text><text class="cls-7" transform="translate(402.78 89.23)">Junio</text><text class="cls-5" transform="translate(339.17 162.84)">Suspención de la evaluación del </text><text class="cls-5" transform="translate(332.46 176.04)">Proyecto Hidroeléctrica<tspan class="cls-13" x="113.71" y="0"> </tspan><tspan x="116.18" y="0">Alto Maipo. </tspan></text><text class="cls-7" transform="translate(396.41 146.77)">Octub<tspan class="cls-8" x="34.9" y="0">r</tspan><tspan x="39.36" y="0">e</tspan></text><g class="cls-11"><line class="cls-10" x1="265.29" y1="59.46" x2="512.46" y2="59.46"/><path class="cls-12" d="M319.08,120.24a13.93,13.93,0,1,1-13.92-13.93,13.93,13.93,0,0,1,13.92,13.93" transform="translate(-45.08 -60.26)"/><path class="cls-14" d="M561.46,119.72a3.92,3.92,0,1,1-3.91-3.92,3.91,3.91,0,0,1,3.91,3.92" transform="translate(-45.08 -60.26)"/><path class="cls-15" d="M561.46,119.72a3.92,3.92,0,1,1-3.91-3.92A3.91,3.91,0,0,1,561.46,119.72Z" transform="translate(-45.08 -60.26)"/></g><text class="cls-4" transform="translate(383.08 234.6)">2009</text><text class="cls-5" transform="translate(337.37 284.41)">Se aprueba el estudio de impacto </text><text class="cls-5" transform="translate(395.47 297.61)">ambiental.</text><text class="cls-7" transform="translate(399.9 268.23)">Marzo</text><text class="cls-5" transform="translate(327.29 343.11)">Comisión de recursos naturales de la </text><text class="cls-5" transform="translate(326.97 356.31)">cámara de diputados concluye que el </text><text class="cls-5" transform="translate(338.7 369.51)"><tspan class="cls-16">P</tspan><tspan x="5.93" y="0">.H.A.M. no debió ser aprobado, </tspan></text><text class="cls-5" transform="translate(341.03 382.71)">debido a que iba a afectar en la </text><text class="cls-5" transform="translate(330.65 395.91)">calidad, seguridad y abastecimiento </text><text class="cls-5" transform="translate(347.14 409.11)">de agua potable en santiago. </text><text class="cls-7" transform="translate(392.55 327)">Diciemb<tspan class="cls-8" x="47.06" y="0">r</tspan><tspan x="51.53" y="0">e</tspan></text><g class="cls-11"><line class="cls-10" x1="265.29" y1="238.13" x2="512.46" y2="238.13"/><path class="cls-12" d="M319.08,298.91A13.93,13.93,0,1,1,305.16,285a13.93,13.93,0,0,1,13.92,13.93" transform="translate(-45.08 -60.26)"/><path class="cls-14" d="M561.46,298.39a3.92,3.92,0,1,1-3.91-3.92,3.91,3.91,0,0,1,3.91,3.92" transform="translate(-45.08 -60.26)"/><path class="cls-15" d="M561.46,298.39a3.92,3.92,0,1,1-3.91-3.92A3.91,3.91,0,0,1,561.46,298.39Z" transform="translate(-45.08 -60.26)"/></g><text class="cls-4" transform="translate(387.01 472.49)">2012</text><text class="cls-5" transform="translate(332.12 521.08)">AES Gener inicia la construcción de </text><text class="cls-5" transform="translate(327.53 534.29)">las obras de deforestación del PHAM. </text><text class="cls-7" transform="translate(396.98 505.19)">Feb<tspan class="cls-8" x="21.34" y="0">r</tspan><tspan x="25.8" y="0">e</tspan><tspan class="cls-8" x="32.69" y="0">r</tspan><tspan x="37.15" y="0">o</tspan></text><text class="cls-5" transform="translate(338.54 578.96)"><tspan class="cls-17"> </tspan><tspan x="2.46" y="0">AES Gener culmina contratos de </tspan></text><text class="cls-5" transform="translate(330.29 592.16)">obras de construcción para el PHAM.</text><text class="cls-7" transform="translate(400.25 563.16)">Agosto</text><text class="cls-7" transform="translate(387.01 620.63)">Noviemb<tspan class="cls-8" x="50.65" y="0">r</tspan><tspan x="55.12" y="0">e</tspan></text><text class="cls-5" transform="translate(327.35 636.78)">El grupo constructor Strabag<tspan class="cls-17" x="140.02" y="0"> </tspan><tspan x="142.48" y="0">Adjudicó</tspan></text><text class="cls-5" transform="translate(337.45 649.98)">un primer contrato parcial para la </text><text class="cls-5" transform="translate(355.79 663.18)">construcción de la central </text><text class="cls-5" transform="translate(383.92 676.38)">hidroeléctrica. </text><g class="cls-11"><line class="cls-10" x1="267.23" y1="476.04" x2="514.4" y2="476.04"/><path class="cls-12" d="M321,536.82a13.93,13.93,0,1,1-13.93-13.93A13.93,13.93,0,0,1,321,536.82" transform="translate(-45.08 -60.26)"/><path class="cls-14" d="M562.88,536.3a3.92,3.92,0,1,1-3.91-3.91,3.91,3.91,0,0,1,3.91,3.91" transform="translate(-45.08 -60.26)"/><path class="cls-15" d="M562.88,536.3a3.92,3.92,0,1,1-3.91-3.91A3.91,3.91,0,0,1,562.88,536.3Z" transform="translate(-45.08 -60.26)"/></g><text class="cls-4" transform="translate(387.81 738.6)">2014</text><text class="cls-5" transform="translate(331.72 788.02)">Se encuentran restos de cementerio </text><text class="cls-5" transform="translate(341.2 801.22)">indígena mientras se realizaba la</text><text class="cls-5" transform="translate(387.98 814.42)">construcción. </text><text class="cls-7" transform="translate(404.06 771.95)">Junio</text><g class="cls-11"><line class="cls-10" x1="267.11" y1="742.13" x2="514.28" y2="742.13"/><path class="cls-12" d="M320.9,802.91A13.93,13.93,0,1,1,307,789a13.93,13.93,0,0,1,13.92,13.93" transform="translate(-45.08 -60.26)"/><path class="cls-14" d="M563.28,802.38a3.92,3.92,0,1,1-3.91-3.91,3.91,3.91,0,0,1,3.91,3.91" transform="translate(-45.08 -60.26)"/><path class="cls-15" d="M563.28,802.38a3.92,3.92,0,1,1-3.91-3.91A3.91,3.91,0,0,1,563.28,802.38Z" transform="translate(-45.08 -60.26)"/></g><text class="cls-4" transform="translate(387.16 893.02)">2016</text><text class="cls-5" transform="translate(345.82 942.12)">Contraloría revisa legalidad del </text><text class="cls-5" transform="translate(330.62 955.32)">convenio del 20<tspan class="cls-18" x="77.06" y="0">1</tspan><tspan x="82.38" y="0">1, debido a descarga</tspan></text><text class="cls-5" transform="translate(350.7 968.52)">de aguas residuales fuera de </text><text class="cls-5" transform="translate(368.14 981.72)">temporada autorizada.</text><text class="cls-7" transform="translate(399.6 926.04)">Feb<tspan class="cls-8" x="21.34" y="0">r</tspan><tspan x="25.8" y="0">e</tspan><tspan class="cls-8" x="32.69" y="0">r</tspan><tspan x="37.15" y="0">o</tspan></text><g class="cls-11"><line class="cls-10" x1="266.97" y1="896.61" x2="514.14" y2="896.61"/><path class="cls-12" d="M320.77,957.39a13.93,13.93,0,1,1-13.93-13.93,13.93,13.93,0,0,1,13.93,13.93" transform="translate(-45.08 -60.26)"/><path class="cls-14" d="M563.14,956.87a3.91,3.91,0,1,1-3.91-3.91,3.91,3.91,0,0,1,3.91,3.91" transform="translate(-45.08 -60.26)"/><path class="cls-15" d="M563.14,956.87a3.91,3.91,0,1,1-3.91-3.91A3.91,3.91,0,0,1,563.14,956.87Z" transform="translate(-45.08 -60.26)"/></g><text class="cls-4" transform="translate(386.48 1052.17) scale(1.08 1)">2018</text><text class="cls-19" transform="translate(327.84 1100.05) scale(1.08 1)"><tspan xml:space="preserve"> Superintendencia del medioambiente </tspan></text><text class="cls-19" transform="translate(327.54 1112.3) scale(1.08 1)">aprueba el programa de cumplimiento </text><text class="cls-19" transform="translate(383.8 1124.55) scale(1.08 1)">de<tspan class="cls-20" x="11.36" y="0"> </tspan><tspan x="13.64" y="0" xml:space="preserve">Alto Maipo.  </tspan></text><text class="cls-21" transform="translate(412.05 1084.92) scale(1.08 1)">Abril</text><g class="cls-11"><line class="cls-10" x1="265.76" y1="1055.64" x2="512.94" y2="1055.64"/><path class="cls-12" d="M319.56,1116.42a13.93,13.93,0,1,1-13.93-13.93,13.93,13.93,0,0,1,13.93,13.93" transform="translate(-45.08 -60.26)"/><path class="cls-14" d="M562.46,1115.9a3.92,3.92,0,1,1-3.92-3.92,3.92,3.92,0,0,1,3.92,3.92" transform="translate(-45.08 -60.26)"/><path class="cls-15" d="M562.46,1115.9a3.92,3.92,0,1,1-3.92-3.92A3.92,3.92,0,0,1,562.46,1115.9Z" transform="translate(-45.08 -60.26)"/></g><text class="cls-4" transform="translate(382.7 1214.51)">2020</text><text class="cls-5" transform="translate(340.67 1266.01)">Se lleva más del 90% de avance </text><text class="cls-5" transform="translate(374.6 1279.21)">de la construcción. </text><text class="cls-7" transform="translate(399.59 1248.53)">Agosto</text><g class="cls-11"><line class="cls-10" x1="265.02" y1="1218.15" x2="512.19" y2="1218.15"/><path class="cls-12" d="M318.82,1278.93A13.93,13.93,0,1,1,304.89,1265a13.93,13.93,0,0,1,13.93,13.93" transform="translate(-45.08 -60.26)"/><path class="cls-14" d="M561.2,1278.41a3.91,3.91,0,1,1-3.91-3.91,3.91,3.91,0,0,1,3.91,3.91" transform="translate(-45.08 -60.26)"/><path class="cls-15" d="M561.2,1278.41a3.91,3.91,0,1,1-3.91-3.91A3.91,3.91,0,0,1,561.2,1278.41Z" transform="translate(-45.08 -60.26)"/></g><text class="cls-4" transform="translate(383.62 1377.24)">2023</text><text class="cls-5" transform="translate(355.73 1426.6)">Detención funcionamiento.</text><text class="cls-7" transform="translate(396.95 1410.78)">Feb<tspan class="cls-8" x="21.34" y="0">r</tspan><tspan x="25.8" y="0">e</tspan><tspan class="cls-8" x="32.69" y="0">r</tspan><tspan x="37.15" y="0">o</tspan></text><g class="cls-11"><line class="cls-10" x1="265.95" y1="1380.82" x2="513.12" y2="1380.82"/><path class="cls-12" d="M319.75,1441.6a13.93,13.93,0,1,1-13.93-13.93,13.93,13.93,0,0,1,13.93,13.93" transform="translate(-45.08 -60.26)"/><path class="cls-14" d="M562.12,1441.08a3.91,3.91,0,1,1-3.91-3.91,3.91,3.91,0,0,1,3.91,3.91" transform="translate(-45.08 -60.26)"/><circle class="cls-15" cx="558.21" cy="1441.08" r="3.91" transform="translate(-99.98 -37.78) rotate(-2.2)"/></g><text class="cls-4" transform="translate(60.89 123.39)">2008</text><text class="cls-5" transform="translate(7.92 175.46)">Nuevo estudio del impacto ambiental </text><text class="cls-5" transform="translate(66.61 188.65)">del proyecto. </text><text class="cls-7" transform="translate(81.46 156.9)">Mayo</text><text class="cls-7" transform="translate(80.02 218.84)">Junio</text><text class="cls-5" transform="translate(28.39 234.57)">Estudio es presentado a a la </text><text class="cls-5" transform="translate(8.22 247.77)">municipalidad de San José de Maipo </text><text class="cls-5" transform="translate(4.87 260.97)">para hacer consultas de la disposición </text><text class="cls-5" transform="translate(57.75 274.17)">de la ciudadanía.</text><g class="cls-11"><line class="cls-10" x1="254.85" y1="127.3" x2="7.68" y2="127.3"/><path class="cls-12" d="M291.23,188.09a13.93,13.93,0,1,0,13.93-13.93,13.93,13.93,0,0,0-13.93,13.93" transform="translate(-45.08 -60.26)"/><path class="cls-14" d="M53.81,187.56a3.92,3.92,0,1,1-3.92-3.91,3.92,3.92,0,0,1,3.92,3.91" transform="translate(-45.08 -60.26)"/><path class="cls-15" d="M53.81,187.56a3.92,3.92,0,1,1-3.92-3.91A3.92,3.92,0,0,1,53.81,187.56Z" transform="translate(-45.08 -60.26)"/></g><text class="cls-4" transform="translate(66.11 375.39)">2011</text><text class="cls-5" transform="translate(12.2 425.38)">Se suscribe convenio secreto entre </text><text class="cls-5" transform="translate(26.86 438.58)">AES Gener y<tspan class="cls-22" x="64.2" y="0"> </tspan><tspan x="66.66" y="0">Aguas andinas, </tspan></text><text class="cls-5" transform="translate(12.82 451.78)">mediante el cual se compromete el </text><text class="cls-5" transform="translate(15.86 464.98)">uso de las aguas para el consumo</text><text class="cls-5" transform="translate(12.5 478.18)"><tspan xml:space="preserve"> humano en la generación eléctrica.</tspan></text><text class="cls-7" transform="translate(80.02 409.11)">Junio</text><g class="cls-11"><line class="cls-10" x1="254.85" y1="379.3" x2="7.68" y2="379.3"/><path class="cls-12" d="M291.23,440.08a13.93,13.93,0,1,0,13.93-13.93,13.92,13.92,0,0,0-13.93,13.93" transform="translate(-45.08 -60.26)"/><path class="cls-14" d="M53.81,439.56a3.92,3.92,0,1,1-3.92-3.91,3.91,3.91,0,0,1,3.92,3.91" transform="translate(-45.08 -60.26)"/><path class="cls-15" d="M53.81,439.56a3.92,3.92,0,1,1-3.92-3.91A3.91,3.91,0,0,1,53.81,439.56Z" transform="translate(-45.08 -60.26)"/></g><text class="cls-4" transform="translate(62.68 618.83)">2013</text><text class="cls-5" transform="translate(4.85 669.44)">Comunidad accede de forma parcial a</text><text class="cls-5" transform="translate(3.92 682.64)">convenio firmado. Ingresa<tspan class="cls-6" x="126.57" y="0"> </tspan><tspan x="129.04" y="0">Antofagasta</tspan></text><text class="cls-5" transform="translate(24.74 695.84)">Minerals (luksic) a<tspan class="cls-6" x="88.63" y="0"> </tspan><tspan x="91.1" y="0">Alto Maipo.</tspan></text><text class="cls-7" transform="translate(79.5 652.19)">Ene<tspan class="cls-8" x="21.78" y="0">r</tspan><tspan x="26.24" y="0">o</tspan></text><g class="cls-11"><line class="cls-10" x1="254.33" y1="622.37" x2="7.16" y2="622.37"/><path class="cls-12" d="M290.71,683.15a13.93,13.93,0,1,0,13.92-13.93,13.93,13.93,0,0,0-13.92,13.93" transform="translate(-45.08 -60.26)"/><path class="cls-14" d="M53.29,682.63a3.92,3.92,0,1,1-3.92-3.92,3.92,3.92,0,0,1,3.92,3.92" transform="translate(-45.08 -60.26)"/><path class="cls-15" d="M53.29,682.63a3.92,3.92,0,1,1-3.92-3.92A3.92,3.92,0,0,1,53.29,682.63Z" transform="translate(-45.08 -60.26)"/></g><text class="cls-4" transform="translate(62.96 815.67)">2015</text><text class="cls-5" transform="translate(27.04 866.32)">Marcha pacífica No<tspan class="cls-6" x="94.76" y="0"> </tspan><tspan x="97.24" y="0" xml:space="preserve">Alto Maipo  </tspan></text><text class="cls-7" transform="translate(70.78 849.66)">Diciemb<tspan class="cls-8" x="47.06" y="0">r</tspan><tspan x="51.53" y="0">e</tspan></text><g class="cls-11"><line class="cls-10" x1="254.71" y1="819.26" x2="7.54" y2="819.26"/><path class="cls-12" d="M291.09,880A13.93,13.93,0,1,0,305,866.11,13.93,13.93,0,0,0,291.09,880" transform="translate(-45.08 -60.26)"/><path class="cls-14" d="M53.56,879.52a3.91,3.91,0,1,1-3.91-3.92,3.91,3.91,0,0,1,3.91,3.92" transform="translate(-45.08 -60.26)"/><path class="cls-15" d="M53.56,879.52a3.91,3.91,0,1,1-3.91-3.92A3.91,3.91,0,0,1,53.56,879.52Z" transform="translate(-45.08 -60.26)"/></g><text class="cls-4" transform="translate(63.57 974.2)">2017</text><text class="cls-5" transform="translate(11.67 1027.05)"><tspan xml:space="preserve">Minera los pelambres  y</tspan><tspan class="cls-6" x="116.77" y="0"> </tspan><tspan x="119.24" y="0">Antofagasta </tspan></text><text class="cls-5" transform="translate(18.71 1040.25)">Minerals(Luksic) deja el proyecto. </text><text class="cls-5" transform="translate(10.76 1053.45)">Proceso administrativo sancionatorio </text><text class="cls-5" transform="translate(56.6 1066.65)">contra<tspan class="cls-22" x="30.57" y="0"> </tspan><tspan x="33.03" y="0">Alto Maipo. </tspan></text><text class="cls-7" transform="translate(81.39 1007.62)">Ene<tspan class="cls-8" x="21.78" y="0">r</tspan><tspan x="26.24" y="0">o</tspan></text><g class="cls-11"><line class="cls-10" x1="255.33" y1="977.74" x2="8.15" y2="977.74"/><path class="cls-12" d="M291.7,1038.53a13.93,13.93,0,1,0,13.93-13.93,13.93,13.93,0,0,0-13.93,13.93" transform="translate(-45.08 -60.26)"/><path class="cls-14" d="M54.17,1038a3.91,3.91,0,1,1-3.91-3.91,3.92,3.92,0,0,1,3.91,3.91" transform="translate(-45.08 -60.26)"/><path class="cls-15" d="M54.17,1038a3.91,3.91,0,1,1-3.91-3.91A3.92,3.92,0,0,1,54.17,1038Z" transform="translate(-45.08 -60.26)"/></g><text class="cls-4" transform="translate(64.13 1133.14)">2019</text><text class="cls-5" transform="translate(11.9 1182.68)">Se rechaza la solicitud para detener </text><text class="cls-5" transform="translate(41.56 1195.88)">faenas de construcción. </text><text class="cls-7" transform="translate(81.56 1166.56)">Ene<tspan class="cls-8" x="21.78" y="0">r</tspan><tspan x="26.24" y="0">o</tspan></text><g class="cls-11"><line class="cls-10" x1="253.93" y1="1136.9" x2="6.76" y2="1136.9"/><path class="cls-12" d="M290.31,1197.68a13.93,13.93,0,1,0,13.92-13.93,13.92,13.92,0,0,0-13.92,13.93" transform="translate(-45.08 -60.26)"/><path class="cls-14" d="M54.34,1197.16a3.91,3.91,0,1,1-3.91-3.91,3.91,3.91,0,0,1,3.91,3.91" transform="translate(-45.08 -60.26)"/><circle class="cls-15" cx="50.43" cy="1197.16" r="3.91" transform="translate(-1178.11 949.36) rotate(-78.58)"/></g></svg>