<?xml version="1.0" encoding="utf-8"?>
<!-- Generator: Adobe Illustrator 26.1.0, SVG Export Plug-In . SVG Version: 6.00 Build 0)  -->
<svg version="1.1" id="Capa_1" xmlns="http://www.w3.org/2000/svg" xmlns:xlink="http://www.w3.org/1999/xlink" x="0px" y="0px"
	 viewBox="0 0 841.89 595.28" style="enable-background:new 0 0 841.89 595.28;" xml:space="preserve">
<g>
	<path d="M390.25,196.56c8,0,15.99-0.04,23.99,0.01c7.9,0.04,12.06,3.96,13.17,11.82c4.28,30.46,8.68,60.9,12.94,91.35
		c0.36,2.59,1.38,3.32,3.92,3.24c6.85-0.21,13.72-0.2,20.53,0.7c2.61,0.35,3.54-0.58,3.88-3.19c4.55-34.91,9.2-69.81,13.83-104.71
		c1.37-10.33,2.8-20.66,4.15-30.99c1.25-9.52,4.95-12.86,14.48-12.87c15.61-0.01,31.22-0.02,46.84,0
		c8.21,0.01,12.12,3.38,13.23,11.57c4.72,34.89,9.37,69.79,14.07,104.68c3.9,28.97,7.85,57.93,11.73,86.91
		c0.29,2.18,1.41,3.71,2.82,5.23c10.81,11.66,19.52,24.68,25.42,39.52c1.63,4.09,0.86,6.87-2.4,8.36c-3.32,1.52-6.25,0.03-8-4.16
		c-11.87-28.46-31.97-49.57-58.48-64.59c-38.22-21.65-79.52-28.24-122.78-23.5c-28.23,3.09-54.8,11.48-78.94,26.83
		c-23.7,15.07-41.49,35.2-52.23,61.36c-2.08,5.05-7.24,6.15-10.02,2.3c-1.63-2.27-0.99-4.62-0.08-6.91
		c3.92-9.85,9.02-19.06,15.23-27.63c10.48-14.45,23.27-26.5,38.08-36.39c1.93-1.29,2.62-2.87,2.87-5
		c2.22-19.32,4.46-38.64,6.76-57.96c2.6-21.84,5.2-43.67,7.92-65.49c0.82-6.58,5.22-10.36,11.94-10.46
		C373.5,196.48,381.88,196.57,390.25,196.56z M573.38,344.86c1.22-1.59,0.65-2.87,0.5-4.07c-1.43-10.84-2.9-21.67-4.36-32.5
		c-4.16-30.74-8.33-61.47-12.47-92.21c-2.17-16.13-4.34-32.25-6.33-48.4c-0.43-3.46-1.69-4.65-5.27-4.6
		c-14.22,0.2-28.44,0.16-42.65,0.03c-3.21-0.03-4.68,0.7-5.09,4.27c-1.5,13.13-3.37,26.23-5.12,39.33
		c-4.16,31.12-8.34,62.25-12.47,93.37c-0.69,5.18-0.57,5.07,4.74,6.02c19.84,3.57,38.89,9.58,56.94,18.65
		C552.95,330.34,563.41,337.02,573.38,344.86z M350.68,322.27c-0.64,4.16,0.88,3.58,2.82,2.58c22.82-11.77,47.07-18.65,72.61-20.89
		c3.06-0.27,3.39-1.42,2.97-4.13c-1.7-10.92-3.19-21.87-4.73-32.81c-2.55-18.11-5.15-36.22-7.58-54.34
		c-0.52-3.86-2.03-5.15-6.1-5.04c-12.17,0.33-24.35,0.12-36.52,0.12c-9.97,0-9.89,0.01-11.05,9.87
		c-2.68,22.83-5.47,45.65-8.19,68.48C353.45,298.47,352.02,310.84,350.68,322.27z"/>
	<path d="M454.29,365.81c1.58,8.06-1.64,14.93-5.3,21.72c-2.11,3.91-3.99,7.93-6.1,11.84c-1.94,3.6-4.65,4.58-7.8,3.03
		c-3.05-1.51-3.89-4.36-2.08-8.14c2.74-5.72,5.44-11.48,8.55-16.99c2.11-3.74,1.55-7.61,1.64-11.49c0.07-3.17,0-6.35,0.01-9.53
		c0.01-2.46-1-2.58-2.74-1.27c-3.34,2.52-6.65,5.09-10.07,7.5c-3.45,2.43-6.16,2.11-8.32-0.72c-2.05-2.69-1.48-5.76,1.74-8.21
		c6.97-5.3,14.01-10.49,21-15.75c2.73-2.06,5.35-1.89,8.01,0.12c6.99,5.26,14.02,10.47,20.99,15.77c2.91,2.21,3.49,5.38,1.65,7.98
		c-1.94,2.74-4.9,3.25-7.99,1.12c-3.34-2.3-6.54-4.81-9.79-7.24c-0.8-0.6-1.57-1.63-2.61-1.22c-1.15,0.45-0.76,1.75-0.77,2.72
		C454.26,359.97,454.29,362.89,454.29,365.81z"/>
	<path d="M381.79,383.24c1.62,7.75-2.04,15.14-6.22,22.38c-1.73,2.99-4.65,3.96-7.41,2.46c-2.91-1.58-3.62-4.07-2.57-7.13
		c0.16-0.48,0.33-0.99,0.63-1.39c5.96-8.09,4.15-17.44,4.33-26.47c0.05-2.62-1.23-2.39-2.79-1.24c-3.26,2.41-6.44,4.96-9.74,7.31
		c-3.43,2.44-6.67,2.07-8.67-0.8c-1.91-2.75-1.23-5.62,2.09-8.15c6.76-5.15,13.58-10.23,20.35-15.37c2.93-2.22,5.79-2.23,8.72-0.02
		c6.78,5.13,13.6,10.21,20.36,15.36c3.56,2.72,4.14,5.54,1.9,8.44c-2.06,2.67-5.1,2.94-8.43,0.57c-3.1-2.2-6.08-4.58-9.14-6.85
		c-0.79-0.58-1.58-1.67-2.61-1.22c-1.32,0.57-0.74,2-0.77,3.07C381.74,376.86,381.79,379.53,381.79,383.24z"/>
	<path d="M526.74,383.53c1.66,7.38-1.71,14.7-5.87,21.82c-1.8,3.09-4.44,4.15-7.3,2.89c-2.96-1.31-4.54-4.64-2.56-7.61
		c5.39-8.09,5.06-17.01,4.77-26.02c-0.02-0.51-0.02-1.02-0.01-1.52c0.05-2.46-1.07-2.59-2.76-1.33c-3.05,2.27-6.05,4.62-9.11,6.87
		c-3.94,2.91-7.19,2.83-9.31-0.14c-2.04-2.86-1.21-5.86,2.5-8.67c6.56-4.98,13.17-9.91,19.72-14.9c3.06-2.33,5.96-2.28,9.01,0.06
		c6.64,5.08,13.38,10.04,20.04,15.12c3.46,2.64,4.12,5.67,2.04,8.45c-2.12,2.84-5.16,3.05-8.69,0.49
		c-3.38-2.46-6.69-5.02-10.04-7.53c-1.69-1.27-2.48-0.86-2.45,1.28C526.77,375.95,526.74,379.12,526.74,383.53z"/>
	<path d="M561.69,91.91c0.06,5.71-1.53,11.05-3.89,16.16c-3.83,8.3-5.89,16.49-0.28,24.96c1.5,2.27,0.03,5.95-2.49,7.08
		c-2.94,1.32-5.5,0.55-7.28-2.17c-5.16-7.91-6.63-16.39-3.54-25.44c1.39-4.08,2.94-8.11,4.61-12.09c2.52-5.98,2.65-11.72-0.67-17.52
		c-1.99-3.48-1.3-6.31,1.38-8.03c2.7-1.74,5.62-1.14,7.67,1.56C559.91,79.99,561.71,86.23,561.69,91.91z"/>
	<path d="M387.92,185.39c-2.05-0.08-3.72-1.02-4.76-3.02c-1.11-2.13-1.2-4.47,0.57-6c6.06-5.25,4.36-11.33,2.18-17.47
		c-1.78-5.03-3.54-10.07-4.01-15.43c-0.58-6.71,1.33-12.53,6.37-17.18c2.92-2.7,6.12-2.97,8.43-0.64c2.17,2.2,2.29,5.65-0.31,8.17
		c-3.78,3.68-4.23,7.83-2.81,12.57c1.67,5.59,3.89,11.01,4.98,16.77c1.48,7.81-0.32,14.58-6.16,20.14
		C391.17,184.48,389.83,185.34,387.92,185.39z"/>
	<path d="M513.96,125.91c0.17-5,1.76-9.27,3.76-13.42c1.1-2.29,2.24-4.56,3.2-6.91c1.58-3.84,1.09-7.38-1.49-10.74
		c-2.89-3.76-2.61-6.49,0.56-8.83c2.83-2.09,5.56-1.38,8.41,2.25c5.16,6.58,6.21,13.76,2.89,21.47c-1.51,3.5-3.17,6.93-4.78,10.39
		c-1.85,3.97-1.93,7.73,0.72,11.52c2.2,3.14,1.65,6.06-1.04,8.02c-2.55,1.86-5.68,1.24-7.97-1.67
		C515.37,134.36,514.06,130.18,513.96,125.91z"/>
	<path d="M416.15,174.52c0.2-3.79-0.94-6.23-2.24-8.55c-4.35-7.71-2.71-14.9,1.73-21.87c2.03-3.18,5.33-4.08,8.14-2.34
		c2.75,1.71,3.54,4.84,1.41,7.92c-3.13,4.55-3.06,8.82-0.3,13.47c3.22,5.45,3.4,11.34,1.61,17.31c-1.17,3.89-3.74,5.52-7.04,4.66
		c-3.33-0.87-4.63-3.42-3.83-7.46C415.88,176.29,416.08,174.91,416.15,174.52z"/>
	<path d="M359.38,185.33c-3.6-0.09-6.45-3.23-5.39-6.68c1.43-4.63,0.8-8.76-1.51-12.8c-4.31-7.55-2.69-14.67,1.61-21.55
		c2.13-3.42,5.5-4.36,8.39-2.49c2.77,1.8,3.37,4.96,1.06,8.32c-2.87,4.18-2.89,8.16-0.34,12.44c3.4,5.7,3.62,11.8,1.84,18.05
		C364.24,183.44,362.55,185.3,359.38,185.33z"/>
	<path d="M504.25,111.63c-0.17,4-1.36,7.49-3.19,10.71c-1.88,3.32-2.21,6.59-1.03,10.24c1.23,3.81-0.19,6.9-3.2,7.86
		c-3.35,1.07-6.09-0.64-7.38-4.68c-1.94-6.08-1.86-12.17,1.33-17.73c2.65-4.61,2.74-8.62-0.17-13.13c-2.21-3.42-0.94-6.84,2.43-8.21
		c2.54-1.03,4.78-0.47,6.43,1.73C502.47,102.38,503.95,106.91,504.25,111.63z"/>
	<path d="M444.86,493.04c1.3,0.84,3.99-1.66,4.78,1.49c1.16,4.61,0.04,7.88-3.16,9.41c-5.06,2.42-10.17,2.57-14.64-1.1
		c-4.44-3.64-4.93-8.69-3.45-13.91c2.08-7.31,12.28-10.6,17.96-5.9c1.1,0.91,1.92,2.03,2.41,3.36c0.27,0.74,0.4,1.53-0.56,1.9
		c-0.76,0.3-1.33,0.13-1.97-0.55c-4.15-4.41-8.39-5.2-12.02-2.36c-3.36,2.63-4.29,9.73-1.79,13.66c2.29,3.6,7.4,4.66,11.91,2.75
		c2.25-0.95,2.62-2.53,2.3-4.55c-0.35-2.22-2.18-1.04-3.36-1.31c-0.6-0.14-1.26-0.04-1.89-0.04c-1.03,0-1.67-0.33-1.67-1.53
		c0.01-1.33,0.9-1.3,1.8-1.31C442.52,493.03,443.54,493.04,444.86,493.04z"/>
	<path d="M313.61,505.22c-8.9,0-8.9,0-8.9-8.81c0-4.2,0.06-8.39-0.02-12.59c-0.04-1.79,0.57-2.49,2.4-2.45
		c4.19,0.09,8.37,0.02,12.56,0.04c1,0,2.18-0.1,2.06,1.47c-0.1,1.29-1.15,1.16-1.99,1.17c-3.17,0.04-6.35,0.11-9.52,0.01
		c-3.38-0.1-2.19,2.37-2.32,4.01c-0.13,1.7-0.56,3.69,2.42,3.45c2.52-0.2,5.08-0.13,7.61,0.01c1.04,0.06,2.88-0.91,2.93,1.22
		c0.06,2.34-1.92,1.5-3.12,1.55c-2.53,0.12-5.08,0.1-7.61,0.03c-3.42-0.1-2.17,2.48-2.19,4.05c-0.02,1.59-1.16,4.11,2.24,4.01
		c3.3-0.1,6.6-0.02,9.9-0.01c1.16,0,2.41-0.1,2.31,1.66c-0.1,1.68-1.41,1.12-2.29,1.16C317.93,505.27,315.77,505.22,313.61,505.22z"
		/>
	<path d="M385.43,503.72c-4.91,2.16-8.11,1.62-10.36-1.59c-2.37-3.38-2.18-9.16,0.47-12.13c2.07-2.33,4.69-2.94,7.59-1.97
		c1.25,0.42,2.18,1.33,3.65,0.12c0.92-0.75,1.87,0.01,1.85,1.4c-0.08,5.58,0,11.18-0.29,16.75c-0.15,2.91-2.01,4.98-4.92,5.59
		c-2.91,0.61-5.86,0.58-8.17-1.77c-0.79-0.8-1.75-2.02-0.78-2.95c0.94-0.9,2.05-0.12,2.78,0.94c1.51,2.2,3.7,2.07,5.78,1.27
		C385.44,508.46,385.86,506.37,385.43,503.72z M385.83,496.44c-0.02-4.06-1.88-6.54-4.84-6.45c-2.77,0.09-4.54,2.56-4.53,6.36
		c0.01,3.98,1.97,6.59,4.86,6.46C384.16,502.68,385.84,500.3,385.83,496.44z"/>
	<path d="M530.09,496.38c0-1.78-0.03-3.56,0-5.34c0.04-2.61,0.54-1.23,2.65-1.97c3.93-1.38,7.12-1.93,10.49,0.73
		c0.05,0.04,0.37-0.31,0.59-0.43c6.36-3.45,9.52-1.62,9.58,5.57c0.02,2.54,0.05,5.09-0.02,7.63c-0.03,1.01,0.51,2.52-1.31,2.59
		c-1.85,0.07-1.45-1.42-1.47-2.47c-0.07-2.8,0.01-5.6-0.07-8.39c-0.06-2.15-0.44-4.28-3.25-4.18c-2.59,0.09-3.86,1.81-3.97,4.26
		c-0.13,2.92-0.06,5.85-0.08,8.77c-0.01,1.03,0.05,2.06-1.5,2.06c-1.59,0-1.45-1.07-1.45-2.07c-0.02-3.05-0.03-6.1-0.02-9.16
		c0-1.97-0.53-3.7-2.77-3.84c-2.1-0.13-3.68,0.96-4.19,3.12c-0.74,3.13-0.23,6.34-0.4,9.5c-0.06,1.07,0.3,2.5-1.54,2.39
		c-1.55-0.09-1.22-1.36-1.25-2.29C530.06,500.7,530.09,498.54,530.09,496.38z"/>
	<path d="M507.92,505.5c-5.46,0.08-8.67-3.52-8.4-9.4c0.26-5.64,3.82-8.98,8.99-8.45c2.45,0.25,4.31,1.44,5.53,3.55
		c0.96,1.68,1.84,3.64,0.91,5.4c-0.8,1.51-2.76,0.63-4.2,0.73c-1.64,0.12-3.3-0.05-4.94,0.06c-1.03,0.07-2.5-0.63-2.93,0.9
		c-0.37,1.31,0.41,2.46,1.32,3.39c1.95,2,5.08,1.99,7.01-0.28c1.02-1.21,2.25-2.37,3.34-1.2c1.11,1.19-0.55,2.43-1.43,3.37
		C511.74,505.06,509.87,505.46,507.92,505.5z M507.8,495.17c1.05-1.37,3.89,1.28,4.06-1.68c0.12-2.25-1.98-3.43-4.23-3.49
		c-2.47-0.06-4.67,1.31-4.47,3.63C503.37,496.12,506.11,494.18,507.8,495.17z"/>
	<path d="M351.93,487.62c2.59-0.11,4.75,0.8,6.27,2.91c1.3,1.8,2.34,4,1.36,6.02c-0.8,1.64-2.98,0.66-4.54,0.78
		c-1.64,0.13-3.3-0.03-4.94,0.06c-0.92,0.05-2.19-0.5-2.59,0.86c-0.31,1.02,0.2,1.97,0.81,2.82c1.9,2.65,5.33,2.8,7.72,0.06
		c1-1.15,2.12-1.86,3.14-0.96c1.05,0.93-0.24,2.03-0.87,2.83c-1.91,2.43-6.17,3.24-9.44,1.92c-3.67-1.48-5.42-5.66-4.47-10.66
		C345.15,490.13,347.93,487.69,351.93,487.62z M352.27,495.16c1.15-1.29,3.97,1.2,4.19-1.55c0.2-2.43-2.07-3.63-4.48-3.6
		c-2.29,0.02-4.36,1.37-4.21,3.52C347.95,496.08,350.64,494.2,352.27,495.16z"/>
	<path d="M453.28,496.72c-0.01-5.3,2.72-8.75,7.21-9.07c4.5-0.33,7.76,2.44,8.43,6.94c0.29,1.94-0.11,2.88-2.27,2.8
		c-2.79-0.1-5.58,0.02-8.37-0.02c-1.9-0.03-2.09,0.94-1.58,2.44c1.19,3.54,5.67,4.5,8.25,1.6c1.05-1.18,2.17-2.34,3.34-1.13
		c1.02,1.06-0.44,2.31-1.28,3.13c-2.7,2.64-5.99,2.66-9.2,1.38C454.28,503.37,453.23,500.28,453.28,496.72z M461.11,495.02
		c1.47-0.78,4.11,1.03,4.41-1.46c0.27-2.29-1.89-3.45-4.11-3.56c-2.48-0.12-4.67,1.31-4.55,3.58
		C456.97,496.05,459.7,494.21,461.11,495.02z"/>
	<path d="M414.49,497.93c0.12,1.77,0.01,3.59,0.41,5.29c0.61,2.59-1.31,2.55-2.12,1.63c-1.41-1.6-2.31-0.69-3.48-0.13
		c-1.78,0.85-3.64,1.01-5.55,0.62c-2.21-0.45-3.68-1.69-3.96-4c-0.29-2.43,0.71-4.34,3-5.13c2.01-0.69,4.19-0.86,6.27-1.37
		c0.99-0.24,2.47,0.08,2.51-1.66c0.04-1.64-0.85-2.72-2.35-3.02c-2.15-0.42-4.41-0.59-5.69,1.77c-0.74,1.36-1.93,1.53-2.78,0.76
		c-0.85-0.77,0.08-1.88,0.68-2.58c2.58-3.06,6.07-2.85,9.46-2.16c3.24,0.66,3.85,3.27,3.72,6.18c-0.06,1.27-0.01,2.54-0.01,3.8
		C414.56,497.93,414.52,497.93,414.49,497.93z M406.36,503.28c2.81-0.25,4.86-1.4,5.2-4.5c0.11-1.04,0.09-2.39-1.47-1.72
		c-2.45,1.05-6.43-0.58-7.11,3.55C402.64,502.77,404.63,503.12,406.36,503.28z"/>
	<path d="M589.04,487.61c5.22-0.05,6.76,1.49,6.85,6.75c0.05,3.04-0.02,6.1,0.37,9.1c0.32,2.45-1.57,2.12-2.09,1.47
		c-1.44-1.77-2.5-0.72-3.8-0.11c-1.4,0.66-2.92,0.83-4.45,0.65c-2.48-0.28-4.43-1.31-4.82-4.02c-0.4-2.79,0.9-4.71,3.55-5.49
		c1.93-0.57,3.97-0.75,5.94-1.18c0.91-0.2,2.19,0.01,2.27-1.48c0.08-1.42-0.51-2.57-1.88-2.97c-2.26-0.66-4.62-0.93-6.08,1.49
		c-0.76,1.26-1.85,1.72-2.75,0.93c-1.07-0.94,0.07-2.05,0.72-2.85C584.44,487.97,586.69,487.6,589.04,487.61z M587.66,503.28
		c2.82-0.25,4.86-1.41,5.19-4.51c0.11-1.06,0.06-2.38-1.48-1.71c-2.44,1.06-6.44-0.58-7.09,3.56
		C583.93,502.78,585.93,503.12,587.66,503.28z"/>
	<path d="M487.8,496.72c-0.04,5.45-2.99,8.74-7.86,8.79c-5.03,0.05-8.18-3.37-8.21-8.9c-0.03-5.52,3.14-9.03,8.12-8.98
		C484.87,487.67,487.84,491.06,487.8,496.72z M484.82,496.58c-0.01-4.17-2.01-6.72-5.19-6.6c-2.96,0.11-4.87,2.68-4.89,6.57
		c-0.01,4.17,1.96,6.62,5.23,6.52C483.07,502.98,484.82,500.63,484.82,496.58z"/>
	<path d="M326.56,496.65c0-2.28-0.01-4.57,0.01-6.85c0.01-0.94,0.74-2.35,1.28-1.75c2.32,2.54,4-0.28,5.93-0.42
		c3.87-0.3,6.56,1.61,6.77,5.42c0.2,3.41,0.04,6.85,0.08,10.27c0.01,1.17-0.22,1.96-1.66,1.89c-1.3-0.07-1.31-0.92-1.31-1.84
		c-0.01-2.92-0.02-5.84-0.02-8.75c0-2.41-0.73-4.43-3.49-4.49c-2.64-0.06-4.35,1.47-4.55,4.13c-0.22,2.9-0.12,5.83-0.2,8.74
		c-0.03,0.94,0.28,2.15-1.33,2.19c-1.54,0.04-1.5-1.04-1.51-2.07C326.55,500.97,326.56,498.81,326.56,496.65z"/>
	<path d="M572.24,487.63c2.48-0.08,4.48,0.85,5.76,3c0.39,0.66,1.25,1.6,0.16,2.29c-0.7,0.44-1.5,0.46-2.35-0.35
		c-3.31-3.13-5.51-3.26-7.4-0.67c-2.05,2.81-1.51,8.99,1.13,10.47c2.54,1.42,5,1.17,6.31-1.83c0.61-1.39,1.52-1.85,2.62-1.22
		c1.29,0.74,0.22,1.83-0.18,2.62c-1.69,3.36-6.32,4.62-9.93,2.79c-3.32-1.68-4.88-6.22-3.8-11.08
		C565.39,489.86,568.25,487.63,572.24,487.63z"/>
	<path d="M494.24,482.52c0.97,2.21-1.12,5.27,2.73,5.68c0.82,0.09,0.73,1.64,0,1.68c-3.47,0.18-2.19,2.72-2.35,4.46
		c-0.15,1.63-0.07,3.29-0.02,4.93c0.05,1.58-0.42,3.49,2.11,3.67c0.81,0.06,0.96,0.7,0.95,1.36c-0.01,1.04-0.8,1.17-1.56,1.23
		c-2.57,0.19-4.2-0.93-4.34-3.58c-0.15-2.9-0.04-5.82-0.14-8.73c-0.04-1.15,0.53-2.62-1.19-3.22c-0.27-0.1-0.43-0.54-0.64-0.82
		C492.67,487.92,490.25,483.01,494.24,482.52z"/>
	<path d="M518.94,496.29c0-1.78-0.1-3.57,0.03-5.34c0.11-1.64-0.75-4.75,2.8-2.07c1.15,0.87,1.65-1.24,2.85-1.2
		c1.25,0.04,2.89-0.39,3.26,1.13c0.42,1.72-0.93,1.93-2.41,1.86c-2.77-0.13-3.34,1.95-3.47,4.06c-0.17,2.79-0.07,5.59-0.1,8.38
		c-0.01,1.02,0.08,2.06-1.48,2.08c-1.58,0.02-1.47-1.04-1.47-2.05C518.93,500.87,518.94,498.58,518.94,496.29z"/>
	<path d="M363.43,496.64c0-2.28-0.01-4.56,0.01-6.83c0.01-0.74,0.42-2.11,0.83-1.74c2.28,2.04,4.03-0.71,6.03-0.41
		c0.96,0.15,2.21,0.13,2.08,1.58c-0.11,1.19-0.9,1.62-2.15,1.46c-2.72-0.34-3.59,1.47-3.73,3.69c-0.18,2.9-0.12,5.82-0.17,8.72
		c-0.02,1.03,0.01,2.07-1.51,2.08c-1.61,0.01-1.37-1.15-1.39-2.1C363.41,500.94,363.43,498.79,363.43,496.64z"/>
	<path d="M560.67,496.71c0,2.28,0,4.55,0.01,6.83c0,1.03-0.33,1.65-1.52,1.67c-1.27,0.03-1.42-0.73-1.42-1.69
		c0-4.68,0-9.36,0.01-14.03c0-0.8,0.18-1.52,1.23-1.53c1.06-0.01,1.68,0.43,1.68,1.55C560.67,491.91,560.66,494.31,560.67,496.71z"
		/>
	<path d="M396.14,496.9c0,2.28,0,4.55,0,6.83c0,1.16-0.67,1.48-1.71,1.47c-1.06-0.01-1.21-0.69-1.21-1.5
		c-0.01-4.68-0.01-9.36,0-14.03c0-0.96,0.18-1.77,1.43-1.71c1.14,0.05,1.5,0.72,1.5,1.74C396.14,492.1,396.14,494.5,396.14,496.9z"
		/>
	<path d="M510.78,481.72c-0.32,0.6-0.42,0.99-0.67,1.23c-1.09,1.06-1.5,3.2-3.64,2.58c-0.73-0.21-0.3-1.02-0.07-1.61
		C507.15,482.02,508.06,480.47,510.78,481.72z"/>
	<path d="M397.71,482.43c-1.01,1.1-1.49,2.92-3.36,3.23c-0.73,0.12-1.31-0.4-0.93-1.16c0.7-1.37,0.81-3.41,3.13-3.22
		C397.18,481.33,397.84,481.38,397.71,482.43z"/>
</g>
</svg>
