<?xml version="1.0" encoding="UTF-8" standalone="no"?>
<!DOCTYPE svg PUBLIC "-//W3C//DTD SVG 1.1//EN" "http://www.w3.org/Graphics/SVG/1.1/DTD/svg11.dtd">
<svg xmlns="http://www.w3.org/2000/svg" version="1.1" viewBox="0 0 100 100">
<g stroke-width="2.00" fill="none" stroke-linecap="butt">
<path stroke="#818282" vector-effect="non-scaling-stroke" d="
  M 77.68 9.49
  L 78.24 8.48
  Q 79.07 7.01 77.41 7.30
  Q 72.38 8.18 67.27 7.50
  A 1.00 1.00 0.0 0 1 66.58 5.94
  L 67.08 5.23
  Q 68.40 3.35 66.12 3.67
  C 58.96 4.67 53.29 7.31 46.36 9.86
  C 44.91 10.39 35.68 14.38 36.88 16.51
  A 0.80 0.80 0.0 0 1 36.32 17.69
  L 36.06 17.74
  Q 34.17 18.06 35.52 19.42
  Q 40.20 24.14 47.02 25.46
  Q 53.61 26.73 66.44 25.46
  A 1.07 1.05 59.4 0 1 67.12 25.64
  Q 70.26 27.86 74.08 28.33
  A 1.00 1.00 0.0 0 0 75.12 26.95
  L 74.05 24.38
  A 1.00 1.00 0.0 0 1 74.64 23.05
  L 82.62 20.25
  A 1.03 1.01 -32.9 0 1 83.63 20.46
  Q 87.93 24.44 93.14 26.91
  Q 95.91 28.23 94.44 25.53
  L 89.92 17.21
  A 1.01 0.99 47.3 0 1 89.95 16.20
  C 90.37 15.53 98.47 4.99 94.20 6.17
  Q 89.82 7.38 86.03 11.06
  A 1.04 1.01 -64.7 0 1 85.28 11.34
  L 78.50 10.98
  A 1.00 1.00 0.0 0 1 77.68 9.49"
/>
<path stroke="#818282" vector-effect="non-scaling-stroke" d="
  M 51.44 34.40
  Q 52.69 32.91 53.17 30.88
  A 1.01 1.00 -87.0 0 0 52.07 29.65
  Q 39.03 31.32 27.31 36.99
  Q 24.51 38.34 20.87 39.37
  Q 11.02 42.16 3.32 49.28
  A 1.00 1.00 0.0 0 0 3.48 50.87
  Q 6.62 52.78 1.58 52.49
  A 0.99 0.97 33.4 0 0 1.07 52.59
  Q -0.80 53.54 0.80 55.20
  Q 9.77 64.53 23.51 65.69
  Q 37.61 66.87 51.66 65.25
  A 1.08 1.03 57.6 0 1 52.35 65.42
  Q 58.10 69.47 65.09 70.17
  A 1.00 1.00 0.0 0 0 66.12 68.81
  L 63.89 63.08
  A 1.00 1.00 0.0 0 1 64.44 61.80
  Q 68.57 60.08 72.80 58.60
  C 76.55 57.29 79.98 57.40 82.95 59.80
  Q 89.01 64.70 93.84 67.13
  Q 95.32 67.88 96.42 68.10
  Q 98.19 68.45 97.55 66.76
  Q 94.56 58.80 89.52 51.93
  A 1.01 1.00 44.1 0 1 89.50 50.78
  L 99.55 35.57
  Q 100.59 34.00 98.71 34.02
  C 92.32 34.10 88.17 38.28 83.43 42.01
  A 1.02 0.98 -63.7 0 1 82.85 42.22
  Q 76.47 42.48 70.18 41.44
  A 1.00 1.00 0.0 0 1 69.51 39.91
  L 71.38 37.05
  Q 72.90 34.72 70.24 35.55
  Q 65.72 36.96 61.01 36.62
  Q 56.58 36.30 52.15 36.04
  Q 50.17 35.93 51.44 34.40"
/>
<path stroke="#818282" vector-effect="non-scaling-stroke" d="
  M 44.98 77.41
  L 45.23 76.99
  Q 46.34 75.09 44.18 75.50
  Q 39.39 76.42 34.55 75.55
  A 1.01 1.00 22.3 0 1 33.90 74.00
  L 34.45 73.19
  Q 35.82 71.16 33.43 71.65
  C 30.80 72.17 27.98 72.50 25.48 73.44
  C 18.78 75.99 11.27 78.11 5.34 82.36
  Q 3.99 83.33 4.08 84.76
  A 0.80 0.80 0.0 0 1 3.26 85.60
  Q 2.86 85.59 2.73 85.68
  A 1.26 1.26 0.0 0 0 2.67 87.70
  C 11.87 95.04 22.05 94.86 33.45 93.44
  A 1.00 1.00 0.0 0 1 34.16 93.62
  Q 37.30 95.94 41.23 96.29
  A 1.00 1.00 0.0 0 0 42.26 94.96
  L 41.35 92.41
  A 1.00 0.99 -20.0 0 1 41.95 91.14
  L 49.83 88.28
  A 1.00 0.99 56.8 0 1 50.86 88.50
  Q 55.13 92.53 60.35 95.02
  Q 63.11 96.34 61.66 93.64
  L 57.10 85.15
  A 1.01 1.00 -41.9 0 1 57.16 84.12
  L 62.64 75.98
  Q 63.61 74.54 61.88 74.42
  C 56.97 74.11 55.40 79.64 50.55 79.44
  Q 48.08 79.33 45.67 78.90
  A 1.00 1.00 0.0 0 1 44.98 77.41"
/>
<path stroke="#818282" vector-effect="non-scaling-stroke" d="
  M 48.58 16.16
  A 1.55 1.55 0.0 0 0 47.03 14.61
  A 1.55 1.55 0.0 0 0 45.48 16.16
  A 1.55 1.55 0.0 0 0 47.03 17.71
  A 1.55 1.55 0.0 0 0 48.58 16.16"
/>
<path stroke="#818282" vector-effect="non-scaling-stroke" d="
  M 22.63 49.99
  A 2.26 2.26 0.0 0 0 20.37 47.73
  A 2.26 2.26 0.0 0 0 18.11 49.99
  A 2.26 2.26 0.0 0 0 20.37 52.25
  A 2.26 2.26 0.0 0 0 22.63 49.99"
/>
<path stroke="#818282" vector-effect="non-scaling-stroke" d="
  M 16.40 84.52
  A 1.54 1.54 0.0 0 0 14.86 82.98
  A 1.54 1.54 0.0 0 0 13.32 84.52
  A 1.54 1.54 0.0 0 0 14.86 86.06
  A 1.54 1.54 0.0 0 0 16.40 84.52"
/>
</g>
<path fill="#ffffff" d="
  M 0.00 0.00
  L 100.00 0.00
  L 100.00 100.00
  L 0.00 100.00
  L 0.00 0.00
  Z
  M 77.68 9.49
  L 78.24 8.48
  Q 79.07 7.01 77.41 7.30
  Q 72.38 8.18 67.27 7.50
  A 1.00 1.00 0.0 0 1 66.58 5.94
  L 67.08 5.23
  Q 68.40 3.35 66.12 3.67
  C 58.96 4.67 53.29 7.31 46.36 9.86
  C 44.91 10.39 35.68 14.38 36.88 16.51
  A 0.80 0.80 0.0 0 1 36.32 17.69
  L 36.06 17.74
  Q 34.17 18.06 35.52 19.42
  Q 40.20 24.14 47.02 25.46
  Q 53.61 26.73 66.44 25.46
  A 1.07 1.05 59.4 0 1 67.12 25.64
  Q 70.26 27.86 74.08 28.33
  A 1.00 1.00 0.0 0 0 75.12 26.95
  L 74.05 24.38
  A 1.00 1.00 0.0 0 1 74.64 23.05
  L 82.62 20.25
  A 1.03 1.01 -32.9 0 1 83.63 20.46
  Q 87.93 24.44 93.14 26.91
  Q 95.91 28.23 94.44 25.53
  L 89.92 17.21
  A 1.01 0.99 47.3 0 1 89.95 16.20
  C 90.37 15.53 98.47 4.99 94.20 6.17
  Q 89.82 7.38 86.03 11.06
  A 1.04 1.01 -64.7 0 1 85.28 11.34
  L 78.50 10.98
  A 1.00 1.00 0.0 0 1 77.68 9.49
  Z
  M 51.44 34.40
  Q 52.69 32.91 53.17 30.88
  A 1.01 1.00 -87.0 0 0 52.07 29.65
  Q 39.03 31.32 27.31 36.99
  Q 24.51 38.34 20.87 39.37
  Q 11.02 42.16 3.32 49.28
  A 1.00 1.00 0.0 0 0 3.48 50.87
  Q 6.62 52.78 1.58 52.49
  A 0.99 0.97 33.4 0 0 1.07 52.59
  Q -0.80 53.54 0.80 55.20
  Q 9.77 64.53 23.51 65.69
  Q 37.61 66.87 51.66 65.25
  A 1.08 1.03 57.6 0 1 52.35 65.42
  Q 58.10 69.47 65.09 70.17
  A 1.00 1.00 0.0 0 0 66.12 68.81
  L 63.89 63.08
  A 1.00 1.00 0.0 0 1 64.44 61.80
  Q 68.57 60.08 72.80 58.60
  C 76.55 57.29 79.98 57.40 82.95 59.80
  Q 89.01 64.70 93.84 67.13
  Q 95.32 67.88 96.42 68.10
  Q 98.19 68.45 97.55 66.76
  Q 94.56 58.80 89.52 51.93
  A 1.01 1.00 44.1 0 1 89.50 50.78
  L 99.55 35.57
  Q 100.59 34.00 98.71 34.02
  C 92.32 34.10 88.17 38.28 83.43 42.01
  A 1.02 0.98 -63.7 0 1 82.85 42.22
  Q 76.47 42.48 70.18 41.44
  A 1.00 1.00 0.0 0 1 69.51 39.91
  L 71.38 37.05
  Q 72.90 34.72 70.24 35.55
  Q 65.72 36.96 61.01 36.62
  Q 56.58 36.30 52.15 36.04
  Q 50.17 35.93 51.44 34.40
  Z
  M 44.98 77.41
  L 45.23 76.99
  Q 46.34 75.09 44.18 75.50
  Q 39.39 76.42 34.55 75.55
  A 1.01 1.00 22.3 0 1 33.90 74.00
  L 34.45 73.19
  Q 35.82 71.16 33.43 71.65
  C 30.80 72.17 27.98 72.50 25.48 73.44
  C 18.78 75.99 11.27 78.11 5.34 82.36
  Q 3.99 83.33 4.08 84.76
  A 0.80 0.80 0.0 0 1 3.26 85.60
  Q 2.86 85.59 2.73 85.68
  A 1.26 1.26 0.0 0 0 2.67 87.70
  C 11.87 95.04 22.05 94.86 33.45 93.44
  A 1.00 1.00 0.0 0 1 34.16 93.62
  Q 37.30 95.94 41.23 96.29
  A 1.00 1.00 0.0 0 0 42.26 94.96
  L 41.35 92.41
  A 1.00 0.99 -20.0 0 1 41.95 91.14
  L 49.83 88.28
  A 1.00 0.99 56.8 0 1 50.86 88.50
  Q 55.13 92.53 60.35 95.02
  Q 63.11 96.34 61.66 93.64
  L 57.10 85.15
  A 1.01 1.00 -41.9 0 1 57.16 84.12
  L 62.64 75.98
  Q 63.61 74.54 61.88 74.42
  C 56.97 74.11 55.40 79.64 50.55 79.44
  Q 48.08 79.33 45.67 78.90
  A 1.00 1.00 0.0 0 1 44.98 77.41
  Z"
/>
<path fill="#030405" d="
  M 78.50 10.98
  L 85.28 11.34
  A 1.04 1.01 -64.7 0 0 86.03 11.06
  Q 89.82 7.38 94.20 6.17
  C 98.47 4.99 90.37 15.53 89.95 16.20
  A 1.01 0.99 47.3 0 0 89.92 17.21
  L 94.44 25.53
  Q 95.91 28.23 93.14 26.91
  Q 87.93 24.44 83.63 20.46
  A 1.03 1.01 -32.9 0 0 82.62 20.25
  L 74.64 23.05
  A 1.00 1.00 0.0 0 0 74.05 24.38
  L 75.12 26.95
  A 1.00 1.00 0.0 0 1 74.08 28.33
  Q 70.26 27.86 67.12 25.64
  A 1.07 1.05 59.4 0 0 66.44 25.46
  Q 53.61 26.73 47.02 25.46
  Q 40.20 24.14 35.52 19.42
  Q 34.17 18.06 36.06 17.74
  L 36.32 17.69
  A 0.80 0.80 0.0 0 0 36.88 16.51
  C 35.68 14.38 44.91 10.39 46.36 9.86
  C 53.29 7.31 58.96 4.67 66.12 3.67
  Q 68.40 3.35 67.08 5.23
  L 66.58 5.94
  A 1.00 1.00 0.0 0 0 67.27 7.50
  Q 72.38 8.18 77.41 7.30
  Q 79.07 7.01 78.24 8.48
  L 77.68 9.49
  A 1.00 1.00 0.0 0 0 78.50 10.98
  Z
  M 48.58 16.16
  A 1.55 1.55 0.0 0 0 47.03 14.61
  A 1.55 1.55 0.0 0 0 45.48 16.16
  A 1.55 1.55 0.0 0 0 47.03 17.71
  A 1.55 1.55 0.0 0 0 48.58 16.16
  Z"
/>
<circle fill="#ffffff" cx="47.03" cy="16.16" r="1.55"/>
<path fill="#030405" d="
  M 52.15 36.04
  Q 56.58 36.30 61.01 36.62
  Q 65.72 36.96 70.24 35.55
  Q 72.90 34.72 71.38 37.05
  L 69.51 39.91
  A 1.00 1.00 0.0 0 0 70.18 41.44
  Q 76.47 42.48 82.85 42.22
  A 1.02 0.98 -63.7 0 0 83.43 42.01
  C 88.17 38.28 92.32 34.10 98.71 34.02
  Q 100.59 34.00 99.55 35.57
  L 89.50 50.78
  A 1.01 1.00 44.1 0 0 89.52 51.93
  Q 94.56 58.80 97.55 66.76
  Q 98.19 68.45 96.42 68.10
  Q 95.32 67.88 93.84 67.13
  Q 89.01 64.70 82.95 59.80
  C 79.98 57.40 76.55 57.29 72.80 58.60
  Q 68.57 60.08 64.44 61.80
  A 1.00 1.00 0.0 0 0 63.89 63.08
  L 66.12 68.81
  A 1.00 1.00 0.0 0 1 65.09 70.17
  Q 58.10 69.47 52.35 65.42
  A 1.08 1.03 57.6 0 0 51.66 65.25
  Q 37.61 66.87 23.51 65.69
  Q 9.77 64.53 0.80 55.20
  Q -0.80 53.54 1.07 52.59
  A 0.99 0.97 33.4 0 1 1.58 52.49
  Q 6.62 52.78 3.48 50.87
  A 1.00 1.00 0.0 0 1 3.32 49.28
  Q 11.02 42.16 20.87 39.37
  Q 24.51 38.34 27.31 36.99
  Q 39.03 31.32 52.07 29.65
  A 1.01 1.00 -87.0 0 1 53.17 30.88
  Q 52.69 32.91 51.44 34.40
  Q 50.17 35.93 52.15 36.04
  Z
  M 22.63 49.99
  A 2.26 2.26 0.0 0 0 20.37 47.73
  A 2.26 2.26 0.0 0 0 18.11 49.99
  A 2.26 2.26 0.0 0 0 20.37 52.25
  A 2.26 2.26 0.0 0 0 22.63 49.99
  Z"
/>
<circle fill="#ffffff" cx="20.37" cy="49.99" r="2.26"/>
<path fill="#030405" d="
  M 45.67 78.90
  Q 48.08 79.33 50.55 79.44
  C 55.40 79.64 56.97 74.11 61.88 74.42
  Q 63.61 74.54 62.64 75.98
  L 57.16 84.12
  A 1.01 1.00 -41.9 0 0 57.10 85.15
  L 61.66 93.64
  Q 63.11 96.34 60.35 95.02
  Q 55.13 92.53 50.86 88.50
  A 1.00 0.99 56.8 0 0 49.83 88.28
  L 41.95 91.14
  A 1.00 0.99 -20.0 0 0 41.35 92.41
  L 42.26 94.96
  A 1.00 1.00 0.0 0 1 41.23 96.29
  Q 37.30 95.94 34.16 93.62
  A 1.00 1.00 0.0 0 0 33.45 93.44
  C 22.05 94.86 11.87 95.04 2.67 87.70
  A 1.26 1.26 0.0 0 1 2.73 85.68
  Q 2.86 85.59 3.26 85.60
  A 0.80 0.80 0.0 0 0 4.08 84.76
  Q 3.99 83.33 5.34 82.36
  C 11.27 78.11 18.78 75.99 25.48 73.44
  C 27.98 72.50 30.80 72.17 33.43 71.65
  Q 35.82 71.16 34.45 73.19
  L 33.90 74.00
  A 1.01 1.00 22.3 0 0 34.55 75.55
  Q 39.39 76.42 44.18 75.50
  Q 46.34 75.09 45.23 76.99
  L 44.98 77.41
  A 1.00 1.00 0.0 0 0 45.67 78.90
  Z
  M 16.40 84.52
  A 1.54 1.54 0.0 0 0 14.86 82.98
  A 1.54 1.54 0.0 0 0 13.32 84.52
  A 1.54 1.54 0.0 0 0 14.86 86.06
  A 1.54 1.54 0.0 0 0 16.40 84.52
  Z"
/>
<circle fill="#ffffff" cx="14.86" cy="84.52" r="1.54"/>
</svg>
