<?xml version="1.0" encoding="UTF-8"?>
<svg id="Capa_1" data-name="Capa 1" xmlns="http://www.w3.org/2000/svg" viewBox="0 0 635.37 648.06">
  <defs>
    <style>
      .cls-1 {
        fill: #006837;
      }
    </style>
  </defs>
  <path class="cls-1" d="m382.65,597.04c-.7,12.41-1.46,24.16-1.99,35.93-.27,6.14-3.53,9.79-9.74,10.09-23.21,1.13-46.42,2.2-69.62,3.33-9.77.48-19.54,1.03-29.3,1.63-5.3.33-9.31-2.84-9.93-8.6-.51-4.68-.5-9.42-.69-14.14-.39-9.4-.76-18.79-1.15-28.62-3.73-.52-7.27-1.1-10.82-1.5-20.38-2.32-40.78-4.45-61.13-7.03-3.73-.47-5.73.95-7.87,3.27-7.25,7.88-14.54,15.73-21.83,23.57-1.11,1.2-2.23,2.42-3.5,3.42-4.09,3.23-8.53,2.94-12.27-.62-23.78-22.67-47.57-45.34-71.36-68-5.03-4.8-5.04-9.42-.8-14.79,8.32-10.53,16.34-21.29,24.68-32.21-25.34-23.99-40.43-53.54-49.74-86.99-1.96,0-3.9-.02-5.84,0-8.35.1-16.71.28-25.06.3-7.22.02-9.77-1.86-11.78-8.75-.7-2.4-1.09-4.97-1.15-7.48-.65-25.6-1.24-51.2-1.77-76.8-.16-7.8,3.35-11.53,10.46-11.44,38.13.46,76.27.92,114.4,1.36,15.32.18,16.55,1.48,17.82,16.61,3.21,38.22,14.88,73.54,37.13,104.99,22.55,31.87,51.97,54.63,90.01,64.92,39.9,10.79,78.16,5.37,114.4-14.02,34.99-18.72,60.86-46.67,79.81-81.2,14.12-25.74,22.95-53.26,26.62-82.41.23-1.8.47-3.62.97-5.35,1.21-4.19,4.64-6.67,8.9-6.65,13.42.08,26.85.3,40.27.21,25.24-.17,50.48-.53,75.73-.82,2.54-.03,5.08-.1,7.62-.25,7.36-.45,11.25,3.08,11.23,10.56-.02,6.72-.29,13.43-.44,20.15-.43,19.06-.82,38.13-1.31,57.19-.07,2.51-.39,5.08-1.08,7.49-2.05,7.17-4.28,8.82-11.65,8.82-8.54,0-17.07-.16-25.61-.24-1.79-.02-3.59,0-5.49,0-9.2,33.26-24.24,62.84-49.64,86.95,1.86,2.51,3.65,5,5.51,7.43,6.62,8.65,13.23,17.29,19.9,25.9,3.49,4.5,3.09,9.27-1.41,13.56-11.04,10.53-22.13,21-33.16,31.53-12.87,12.28-25.7,24.59-38.57,36.87-3.5,3.34-7.95,3.61-11.87.68-1.15-.86-2.18-1.92-3.17-2.98-7.29-7.85-14.65-15.62-21.75-23.64-2.47-2.78-4.98-3.57-8.58-2.96-18.78,3.21-37.59,6.24-56.39,9.33-2.48.41-4.96.86-8.03,1.39Zm-234.5,1.15c1.79-1.71,3.11-2.92,4.39-4.19,6.93-6.93,13.95-13.79,20.73-20.87,3.02-3.15,6.14-4.68,10.6-3.74,4.24.89,8.6,1.23,12.91,1.73,22.54,2.59,45.08,5.14,67.62,7.73,8.79,1.01,12.8,5.2,13.51,14.16.46,5.79.75,11.59,1.19,17.38.48,6.27,1.04,12.54,1.6,19.25,27.65-1.4,54.74-2.78,82.1-4.17,1.15-15.28,2.24-29.89,3.34-44.49,1.14-.45,1.94-.9,2.8-1.08,11.9-2.4,23.81-4.77,35.71-7.13,11.57-2.29,23.1-4.81,34.73-6.72,5.07-.83,10.52-3.91,15.26-1.53,4.54,2.29,7.98,6.75,11.89,10.26.27.24.46.56.72.82,6.51,6.53,13.03,13.05,19.89,19.93,19.98-19.1,39.6-37.87,59.48-56.87-1.4-1.94-2.53-3.55-3.71-5.13-7.38-9.9-14.79-19.77-22.14-29.7-3.17-4.28-3-4.25,0-8.44,3.39-4.74,7.18-9.04,11.47-13.02,3.84-3.56,7.33-7.59,10.48-11.79,14.57-19.42,24.79-40.9,30.06-64.67,1.83-8.26,5.12-10.89,13.62-10.92,4.9-.02,9.8.21,14.71.26,4.67.05,9.35.01,14.62.01.5-22.86.99-45.24,1.49-68.13-36.87.4-72.91.79-108.79,1.17-.38,1.06-.62,1.55-.74,2.07-.29,1.24-.55,2.48-.76,3.73-4.85,28.73-14.27,55.87-28.59,81.24-20.35,36.05-47.77,65.24-84.36,85.15-34.53,18.8-71.3,26.37-110.41,20.24-36.87-5.79-68.46-22.33-94.98-48.38-33.67-33.08-52.72-73.75-61.01-119.81-1.25-6.93-2.03-13.95-3.01-20.83-7.69-1.42-101.82-2.12-106.41-.73.5,22.14,1.01,44.38,1.51,66.66,1.86.12,2.94.26,4.02.25,8.72-.05,17.43-.24,26.15-.17,7.6.06,10.67,2.87,12.63,10.12,2.18,8.04,4.25,16.17,7.24,23.93,7.7,20,18.12,38.44,33.64,53.53,4.05,3.94,7.82,8.02,11.12,12.6,3.18,4.41,3.32,4.39,0,8.87-7.57,10.21-15.21,20.37-22.79,30.57-.94,1.26-1.73,2.63-2.76,4.19,19.76,18.89,39.28,37.56,59.24,56.64Z"/>
  <path class="cls-1" d="m378.39,222.5c3.17,4.18,5.47,7.36,7.93,10.43,3.63,4.52,7.44,8.9,11.06,13.44,15.85,19.84,31.68,39.7,47.44,59.61,2.57,3.25,3.92,7.01,2.05,11.14-1.9,4.19-5.49,5.45-9.82,5.43-26.88-.09-53.76-.16-80.64-.23-1.96,0-3.91,0-6.52,0,0,2.61-.04,4.73,0,6.85.61,30.14,1.31,60.28,1.77,90.43.05,3.52-.89,7.15-1.89,10.58-1.06,3.63-3.88,5.59-7.71,5.89-1.63.12-3.26.16-4.9.16-21.25,0-42.5-.02-63.75-.04-1.27,0-2.55.02-3.81-.09-5.72-.49-8.9-3.92-8.96-9.57-.26-24.33-.51-48.67-.81-73-.13-10.33-.36-20.67-.55-31.34-1.65-.18-3.05-.46-4.44-.47-19.25-.09-38.5-.15-57.76-.18-2.17,0-4.38.02-6.51.4-4.42.78-7.22-1.82-9.89-4.56-.63-.64-.95-2.17-.66-3.03.98-2.86,1.9-5.89,3.59-8.34,2.45-3.55,5.72-6.53,8.34-9.98,17.17-22.53,34.26-45.13,51.38-67.7,1.19-1.57,2.35-3.16,4-5.38-2.07-.19-3.4-.46-4.72-.42-7.26.19-14.52.56-21.78.66-7.03.1-8.79-1.91-11.7-8.17-2.83-6.09-1.23-10.56,2.32-15.52,14.46-20.24,28.7-40.64,43.01-60.99,1.02-1.46,1.97-2.97,3.58-5.4-4.38.47-7.9.55-11.28,1.28-4.63,1-8.67-.67-12.58-2.44-4.32-1.95-5.78-7.13-3.71-11.69.67-1.48,1.67-2.81,2.56-4.17,23.62-36.19,47.24-72.38,70.89-108.55,1.55-2.37,3.39-4.56,5.62-7.52,2.64,3.01,5,5.21,6.8,7.81,12.39,17.89,24.68,35.84,36.97,53.79,11.17,16.32,22.29,32.67,33.48,48.97,1.64,2.39,3.65,4.52,5.31,6.9,4.43,6.34,2.14,12.97-5.09,15.58-3.68,1.33-7.26,1.94-11.17,1.12-2.92-.61-5.96-.59-10.15-.96,2.27,2.87,3.83,4.72,5.25,6.67,14.76,20.23,29.48,40.48,44.24,60.7,4.07,5.58,3.75,13.88-.77,18.99-2.28,2.57-5.26,2.98-8.43,2.97-7.43-.03-14.87-.03-22.3-.04-1.26,0-2.51,0-5.3,0Zm-148.49-17.69c2.81,0,4.61.04,6.39,0,8.35-.23,16.7-.59,25.05-.71,7.43-.1,11.71,4.18,11.66,11.34-.02,3.31-1.84,5.79-3.72,8.27-14.72,19.38-29.41,38.77-44.11,58.17-.98,1.3-2.27,2.54-2.76,4.02-1.87,5.7-5.75,10.03-9.36,14.57-.61.76-1.04,1.67-2.15,3.49h65.11c.31,3.04.67,5.36.77,7.69.32,7.98.66,15.96.79,23.95.44,25.6.79,51.21,1.19,76.81.03,1.91.23,3.82.36,6,18.5-.12,36.38.2,54.69-.2-1.09-38.42-1.66-76.1.45-114.04,6.01,0,11.45,0,16.88,0,5.45.01,10.9.03,16.35.06,5.63.03,11.26.06,16.89.1,5.45.04,10.9.13,16.34.12,5.34-.01,10.7.37,17.11-.18-3.06-5.11-5.2-9.54-8.12-13.38-8.01-10.55-16.32-20.86-24.55-31.24-6.2-7.82-12.45-15.59-18.67-23.39-3.73-4.68-7.46-9.36-11.17-14.06-3.42-4.32-2.56-9.04-.51-13.39,1.75-3.71,5.58-4.17,9.4-4.13,7.98.09,15.96.1,23.94.07,2.25,0,4.5-.29,7.34-.49-1.1-1.82-1.66-2.93-2.39-3.92-13.97-19-27.93-37.99-41.94-56.95-3.44-4.66-7.3-9.04-10.51-13.85-4.07-6.09-1.24-13.1,5.85-14.97,2.06-.54,4.31-.61,6.46-.5,3.08.15,6.13.74,9.2.99,1.88.15,3.78.03,6.45.03-1.58-2.05-2.71-3.37-3.68-4.8-14.64-21.64-29.22-43.32-43.91-64.92-3.32-4.88-7.04-9.49-10.63-14.29-6.24,7.57-53.08,80.09-54.22,84.04,4.42-.53,8.71-1.3,13.01-1.48,3.2-.13,6.59-.02,9.61.89,5.96,1.8,8.01,7.58,5.03,13.11-.94,1.75-2.19,3.34-3.34,4.97-15.67,22.28-31.35,44.55-47.02,66.83-1.02,1.46-1.97,2.96-3.56,5.37Z"/>
</svg>