<?xml version="1.0" encoding="utf-8"?>
<!-- Generator: Adobe Illustrator 22.0.1, SVG Export Plug-In . SVG Version: 6.00 Build 0)  -->
<svg version="1.1" id="Capa_1" xmlns="http://www.w3.org/2000/svg" xmlns:xlink="http://www.w3.org/1999/xlink" x="0px" y="0px"
	 viewBox="0 0 1000 1300" style="enable-background:new 0 0 1000 1300;" xml:space="preserve">
<style type="text/css">
	.st0{fill:#327700;}
	.st1{font-family:'Helvetica-Bold';}
	.st2{font-size:24px;}
	.st3{font-family:'Helvetica';}
	.st4{font-size:18px;}
	.st5{letter-spacing:-5;}
</style>
<image style="overflow:visible;enable-background:new    ;" width="2000" height="2600" xlink:href="grafica-flora-grande-fondo.png"  transform="matrix(0.5 0 0 0.5 0 0)">
</image>
<text transform="matrix(1 0 0 1 46.3829 673.4178)" class="st0 st1 st2">Lithraea Cáustica</text>
<text transform="matrix(1 0 0 1 46.3829 711.4178)" class="st3 st4">El litre es una especie leñosa </text>
<text transform="matrix(1 0 0 1 46.3829 733.0178)" class="st3 st4">de la familia de las anacardiáceas, </text>
<text transform="matrix(1 0 0 1 46.3829 754.6178)" class="st3 st4">endémica de Chile, distribuido entre </text>
<text transform="matrix(1 0 0 1 46.3829 776.2178)" class="st3 st4">las regiones de Coquimbo y Biobío.</text>
<text transform="matrix(1 0 0 1 632.088 603.9711)" class="st0 st1 st2">Quillaja saponaria</text>
<text transform="matrix(1 0 0 1 632.088 633.9711)" class="st3 st4">El quillay es un árbol endémico de la </text>
<text transform="matrix(1 0 0 1 704.088 633.9711)" class="st3 st4 st5">​</text>
<text transform="matrix(1 0 0 1 714.088 633.9711)" class="st3 st4 st5">​</text>
<text transform="matrix(1 0 0 1 632.088 657.9711)" class="st3 st4">Zona Central de Chile. Hay poblaciones </text>
<text transform="matrix(1 0 0 1 632.088 681.9711)" class="st3 st4">que llegan hasta los 20 m de altura.</text>
<text transform="matrix(1 0 0 1 450.0001 1136.1219)" class="st0 st1 st2">Kageneckia oblonga</text>
<text transform="matrix(1 0 0 1 450.0001 1166.1219)" class="st3 st4">El bollén, guayo, huayo o huayu, es un pequeño árbol </text>
<text transform="matrix(1 0 0 1 450.0001 1196.1219)" class="st3 st4">endémico de Chile que crece entre las regiones de </text>
<text transform="matrix(1 0 0 1 450.0001 1226.1219)" class="st3 st4">Coquimbo y La Araucanía. Habita en terrenos pobres </text>
<text transform="matrix(1 0 0 1 450.0001 1256.1219)" class="st3 st4">cerca de las quebradas.</text>
</svg>
