<?xml version="1.0" encoding="utf-8"?>
<!-- Generator: Adobe Illustrator 27.5.0, SVG Export Plug-In . SVG Version: 6.00 Build 0)  -->
<svg version="1.1" id="Capa_1" xmlns="http://www.w3.org/2000/svg" xmlns:xlink="http://www.w3.org/1999/xlink" x="0px" y="0px"
	 viewBox="0 0 300 150" style="enable-background:new 0 0 300 150;" xml:space="preserve">
<style type="text/css">
	.st0{fill:#FFFFFF;}
	.st1{fill:none;stroke:#000000;stroke-miterlimit:10;}
	.st2{fill:#8D8178;}
</style>
<image style="overflow:visible;" width="1356" height="892" xlink:href="../../../Downloads/Tesis - Alberto Zaror Germany.pdf - Google Chrome 08_07_2023 18_01_26 (2).png"  transform="matrix(0.1475 0 0 0.1475 84 -140)">
</image>
<g>
	<path d="M150,5.7c2.5,4.3,5,8.6,7.5,13c-5,0-9.9,0-15,0C145,14.3,147.5,10,150,5.7z M143.2,18.3c0.6,0,1.1,0,1.7,0
		c0.1,0,0.3-0.1,0.4-0.2c0.3-0.5,0.6-1,0.9-1.5c0.1-0.2,0.2-0.2,0.4-0.2c2.3,0,4.6,0,6.9,0c0.2,0,0.3,0.1,0.5,0.3
		c0.3,0.5,0.6,1,0.9,1.5c0.1,0.1,0.2,0.2,0.2,0.2c0.6,0,1.2,0,1.8,0c-0.1-0.1-0.1-0.2-0.2-0.3c-0.5-0.9-1.1-1.9-1.6-2.8
		c-0.1-0.2-0.3-0.3-0.5-0.3c-3,0-6,0-9,0c-0.2,0-0.4,0.1-0.5,0.3c-0.5,0.9-1.1,1.9-1.6,2.8C143.3,18,143.3,18.1,143.2,18.3z
		 M152.4,13.4c-0.8-1.5-1.6-2.9-2.4-4.4c-0.8,1.5-1.6,2.9-2.4,4.4C149.2,13.4,150.8,13.4,152.4,13.4z"/>
	<path d="M163.4,25.9c-0.3,0.1-0.5,0-0.7-0.2c-0.7-0.8-1.4-1.6-2.1-2.3c-0.1-0.1-0.1-0.1-0.2-0.2c0,1,0,1.8,0,2.7
		c-0.2,0-0.3,0-0.4,0c0-1.3,0-2.6,0-3.9c0.4-0.1,0.6,0,0.8,0.3c0.6,0.7,1.3,1.4,2,2.1c0.1,0.1,0.1,0.2,0.1,0.2c0,0,0.1,0,0.1-0.1
		c0-0.9,0-1.7,0-2.6c0.2,0,0.3,0,0.5,0C163.4,23.3,163.4,24.6,163.4,25.9z"/>
	<path d="M139.4,23.2c0,0.9,0,1.8,0,2.7c-0.2,0-0.3,0-0.4,0c0-1.3,0-2.6,0-3.9c0.3-0.1,0.6-0.1,0.8,0.2c0.7,0.8,1.4,1.5,2.1,2.2
		c0,0,0.1,0.1,0.2,0.2c0-0.9,0-1.8,0-2.6c0.2,0,0.3,0,0.4,0c0,1.3,0,2.6,0,3.9c-0.3,0.1-0.5,0-0.7-0.2C141,24.8,140.3,24,139.4,23.2
		C139.5,23.2,139.5,23.2,139.4,23.2z"/>
	<path d="M147.8,22.2c-0.1,0.2-0.1,0.4-0.2,0.6c-0.3-0.4-0.7-0.6-1.2-0.6c-0.5,0-0.9,0.2-1.1,0.6c-0.4,0.6-0.4,1.3-0.2,2
		c0.2,0.6,1,1,1.6,0.8c0.2-0.1,0.3-0.1,0.3-0.4c0-0.4,0-0.7,0-1.1c0.3,0,0.6,0,0.9,0c0,0.5,0,1,0,1.4c0,0.1-0.1,0.1-0.1,0.2
		c-0.8,0.2-1.7,0.3-2.5,0c-1.6-0.6-1.4-2.7-0.5-3.4C145.6,21.8,147,21.7,147.8,22.2z"/>
	<path d="M134.4,25.9c-0.2,0-0.3,0-0.5,0c0.4-0.9,0.7-1.7,1.1-2.6c0.2-0.4,0.3-0.8,0.5-1.2c0-0.1,0.2-0.2,0.3-0.2
		c0.1,0,0.3,0.1,0.3,0.2c0.5,1.2,1,2.5,1.5,3.8c-0.3,0-0.6,0-0.8,0c-0.1,0-0.1-0.1-0.2-0.1c0,0,0-0.1,0-0.1
		c-0.4-1.1-0.4-1.1-1.5-0.9c-0.1,0-0.2,0.1-0.3,0.2C134.6,25.2,134.5,25.6,134.4,25.9z M135,24.3c0.4,0,0.7,0,1.1,0
		c-0.2-0.4-0.3-0.8-0.5-1.3C135.3,23.5,135.1,23.9,135,24.3z"/>
	<path d="M149.7,22c0.7,0,1.4,0,2.1,0c0,0.2,0,0.3,0,0.4c-0.4,0-0.7,0-1-0.1c-0.2,0-0.3,0.1-0.3,0.3c0,0.3,0,0.6,0,1
		c0.4,0,0.9,0,1.3,0c0,0.2,0,0.3,0,0.4c-0.4,0-0.8,0-1.3,0c0,0.5,0,1,0,1.4c0.4,0,0.8,0,1.3,0c0,0.1,0,0.3,0,0.4c-0.7,0-1.4,0-2.1,0
		C149.7,24.6,149.7,23.3,149.7,22z"/>
	<path d="M154.2,25.5c0.5,0,0.9,0,1.3-0.1c0,0.2,0,0.3,0,0.4c-0.7,0-1.4,0-2.1,0c0-1.3,0-2.6,0-3.9c0.3,0,0.5,0,0.8,0
		C154.2,23.1,154.2,24.3,154.2,25.5z"/>
	<path d="M158,25.9c-0.3,0-0.5,0-0.8,0c0-1.3,0-2.6,0-3.9c0.3,0,0.5,0,0.8,0C158,23.3,158,24.6,158,25.9z"/>
	<path d="M165.4,22c0.3,0,0.5,0,0.8,0c0,1.3,0,2.6,0,3.9c-0.3,0-0.5,0-0.8,0C165.4,24.6,165.4,23.3,165.4,22z"/>
	<path class="st0" d="M143.2,18.3c0.1-0.2,0.1-0.3,0.2-0.3c0.5-0.9,1.1-1.9,1.6-2.8c0.1-0.2,0.3-0.3,0.5-0.3c3,0,6,0,9,0
		c0.2,0,0.4,0.1,0.5,0.3c0.5,1,1.1,1.9,1.6,2.8c0,0.1,0.1,0.2,0.2,0.3c-0.6,0-1.2,0-1.8,0c-0.1,0-0.2-0.1-0.2-0.2
		c-0.3-0.5-0.6-1-0.9-1.5c-0.1-0.2-0.2-0.3-0.5-0.3c-2.3,0-4.6,0-6.9,0c-0.2,0-0.3,0.1-0.4,0.2c-0.3,0.5-0.6,1-0.9,1.5
		c-0.1,0.1-0.2,0.2-0.4,0.2C144.3,18.3,143.8,18.3,143.2,18.3z"/>
	<path class="st0" d="M152.4,13.4c-1.6,0-3.2,0-4.8,0c0.8-1.5,1.6-2.9,2.4-4.4C150.8,10.5,151.6,11.9,152.4,13.4z"/>
</g>
<rect x="4" y="33.4" width="71.7" height="7.2"/>
<rect x="77.4" y="33.4" width="71.7" height="7.2"/>
<rect x="150.9" y="33.4" width="71.7" height="7.2"/>
<rect x="224.3" y="33.4" width="71.7" height="7.2"/>
<g>
	<path class="st0" d="M31.1,34.8h-1.3v1.4h1v0.7h-1V39h-0.7v-4.9h2.1V34.8z"/>
	<path class="st0" d="M33.6,34.4c0.2,0.2,0.3,0.5,0.3,0.9v2.6c0,0.4-0.1,0.7-0.3,0.9c-0.2,0.2-0.5,0.3-0.9,0.3
		c-0.4,0-0.7-0.1-0.9-0.3c-0.2-0.2-0.3-0.5-0.3-0.9v-2.6c0-0.4,0.1-0.7,0.3-0.9c0.2-0.2,0.5-0.3,0.9-0.3
		C33.1,34,33.4,34.1,33.6,34.4z M32.4,34.9c-0.1,0.1-0.1,0.2-0.1,0.4v2.5c0,0.2,0,0.3,0.1,0.4c0.1,0.1,0.2,0.1,0.3,0.1
		s0.3,0,0.3-0.1c0.1-0.1,0.1-0.2,0.1-0.4v-2.5c0-0.2,0-0.3-0.1-0.4c-0.1-0.1-0.2-0.1-0.3-0.1S32.5,34.8,32.4,34.9z"/>
	<path class="st0" d="M36.3,39l-0.6-2.1h-0.3V39h-0.7v-4.9h1.1c0.4,0,0.7,0.1,0.9,0.3c0.2,0.2,0.3,0.5,0.3,0.9v0.4
		c0,0.5-0.2,0.9-0.5,1.1l0.7,2.2H36.3z M35.4,34.8v1.5h0.3c0.2,0,0.3,0,0.4-0.1c0.1-0.1,0.1-0.2,0.1-0.5v-0.3c0-0.2,0-0.4-0.1-0.5
		c-0.1-0.1-0.2-0.1-0.4-0.1H35.4z"/>
	<path class="st0" d="M39.7,34.8h-1.3v1.4h1.1v0.7h-1.1v1.5h1.3V39h-2.1v-4.9h2.1V34.8z"/>
	<path class="st0" d="M42,34.3c0.2,0.2,0.3,0.5,0.3,0.8v0.1l-0.7,0.1v-0.2c0-0.1,0-0.2-0.1-0.3s-0.2-0.1-0.3-0.1
		c-0.1,0-0.2,0-0.3,0.1s-0.1,0.2-0.1,0.3v0.1c0,0.1,0,0.3,0.1,0.4c0.1,0.1,0.3,0.3,0.5,0.5c0.3,0.3,0.6,0.6,0.7,0.8s0.2,0.5,0.2,0.8
		V38c0,0.3-0.1,0.6-0.3,0.8c-0.2,0.2-0.5,0.3-0.9,0.3s-0.7-0.1-0.9-0.3s-0.3-0.5-0.3-0.8v-0.3l0.7-0.1v0.4c0,0.3,0.1,0.5,0.4,0.5
		c0.3,0,0.4-0.2,0.4-0.5v-0.2c0-0.2,0-0.3-0.1-0.5c-0.1-0.1-0.3-0.3-0.5-0.5c-0.3-0.3-0.6-0.5-0.7-0.8c-0.1-0.2-0.2-0.5-0.2-0.8
		v-0.1c0-0.4,0.1-0.6,0.3-0.8c0.2-0.2,0.5-0.3,0.8-0.3C41.6,34,41.8,34.1,42,34.3z"/>
	<path class="st0" d="M44.8,34.8h-0.8V39h-0.7v-4.2h-0.8v-0.7h2.3V34.8z"/>
	<path class="st0" d="M47.4,39h-0.8l-0.2-1.1h-0.8L45.6,39h-0.7l0.8-4.9h0.9L47.4,39z M46.1,35.2l-0.3,2.1h0.6L46.1,35.2L46.1,35.2z
		"/>
	<path class="st0" d="M48.7,38.3H50V39h-2v-4.9h0.7V38.3z"/>
</g>
<g>
	<path class="st0" d="M101.3,34.4c0.2,0.2,0.3,0.5,0.3,0.9v0.4l-0.7,0v-0.4c0-0.4-0.1-0.6-0.4-0.6c-0.1,0-0.2,0-0.3,0.1
		s-0.1,0.2-0.1,0.4V38c0,0.2,0,0.3,0.1,0.4s0.2,0.1,0.3,0.1c0.3,0,0.4-0.2,0.4-0.6v-0.5l0.7,0V38c0,0.4-0.1,0.7-0.3,0.9
		c-0.2,0.2-0.5,0.3-0.9,0.3c-0.4,0-0.6-0.1-0.8-0.3c-0.2-0.2-0.3-0.5-0.3-0.9v-2.7c0-0.4,0.1-0.7,0.3-0.9c0.2-0.2,0.5-0.3,0.8-0.3
		C100.8,34.1,101.1,34.2,101.3,34.4z"/>
	<path class="st0" d="M104.3,34.4c0.2,0.2,0.3,0.5,0.3,0.9v2.6c0,0.4-0.1,0.7-0.3,0.9c-0.2,0.2-0.5,0.3-0.9,0.3
		c-0.4,0-0.7-0.1-0.9-0.3c-0.2-0.2-0.3-0.5-0.3-0.9v-2.6c0-0.4,0.1-0.7,0.3-0.9c0.2-0.2,0.5-0.3,0.9-0.3
		C103.8,34.1,104,34.2,104.3,34.4z M103,34.9c-0.1,0.1-0.1,0.2-0.1,0.4v2.5c0,0.2,0,0.3,0.1,0.4c0.1,0.1,0.2,0.1,0.3,0.1
		s0.3,0,0.3-0.1c0.1-0.1,0.1-0.2,0.1-0.4v-2.5c0-0.2,0-0.3-0.1-0.4c-0.1-0.1-0.2-0.1-0.3-0.1S103.1,34.8,103,34.9z"/>
	<path class="st0" d="M108.4,39.1h-0.7v-3.4h0l-0.6,2.7h-0.4l-0.6-2.7h0v3.4h-0.7v-4.9h1l0.6,2.6h0l0.6-2.6h1V39.1z"/>
	<path class="st0" d="M111.2,34.5c0.2,0.2,0.3,0.5,0.3,0.9v0.1c0,0.3,0,0.5-0.1,0.7c-0.1,0.2-0.2,0.3-0.4,0.3v0
		c0.2,0.1,0.4,0.2,0.5,0.4c0.1,0.2,0.2,0.4,0.2,0.8v0.2c0,0.4-0.1,0.7-0.3,0.9s-0.5,0.3-0.9,0.3h-1.1v-4.9h1
		C110.7,34.2,111,34.3,111.2,34.5z M110,34.9v1.3h0.2c0.2,0,0.3,0,0.4-0.1c0.1-0.1,0.1-0.2,0.1-0.5v-0.2c0-0.2,0-0.3-0.1-0.4
		c-0.1-0.1-0.2-0.1-0.4-0.1H110z M110,36.9v1.5h0.3c0.2,0,0.3,0,0.4-0.1s0.1-0.2,0.1-0.5v-0.3c0-0.2,0-0.4-0.1-0.5
		c-0.1-0.1-0.2-0.2-0.4-0.2H110z"/>
	<path class="st0" d="M114.4,38c0,0.4-0.1,0.7-0.3,0.9c-0.2,0.2-0.5,0.3-0.9,0.3c-0.4,0-0.6-0.1-0.8-0.3c-0.2-0.2-0.3-0.5-0.3-0.9
		v-3.8h0.7v3.8c0,0.3,0.1,0.5,0.4,0.5c0.3,0,0.4-0.2,0.4-0.5v-3.8h0.7V38z"/>
	<path class="st0" d="M116.9,34.4c0.2,0.2,0.3,0.5,0.3,0.8v0.1l-0.7,0.1v-0.2c0-0.1,0-0.2-0.1-0.3s-0.2-0.1-0.3-0.1
		c-0.1,0-0.2,0-0.3,0.1s-0.1,0.2-0.1,0.3v0.1c0,0.1,0,0.3,0.1,0.4c0.1,0.1,0.3,0.3,0.5,0.5c0.3,0.3,0.6,0.6,0.7,0.8s0.2,0.5,0.2,0.8
		V38c0,0.3-0.1,0.6-0.3,0.8c-0.2,0.2-0.5,0.3-0.9,0.3s-0.7-0.1-0.9-0.3s-0.3-0.5-0.3-0.8v-0.3l0.7-0.1V38c0,0.3,0.1,0.5,0.4,0.5
		c0.3,0,0.4-0.2,0.4-0.5v-0.2c0-0.2,0-0.3-0.1-0.5c-0.1-0.1-0.3-0.3-0.5-0.5c-0.3-0.3-0.6-0.5-0.7-0.8c-0.1-0.2-0.2-0.5-0.2-0.8
		v-0.1c0-0.4,0.1-0.6,0.3-0.8c0.2-0.2,0.5-0.3,0.8-0.3C116.4,34.1,116.7,34.2,116.9,34.4z"/>
	<path class="st0" d="M119.7,34.9h-0.8v4.2h-0.7v-4.2h-0.8v-0.7h2.3V34.9z"/>
	<path class="st0" d="M120.9,39.1h-0.7v-4.9h0.7V39.1z"/>
	<path class="st0" d="M123.6,34.5c0.2,0.2,0.3,0.5,0.3,0.9v0.1c0,0.3,0,0.5-0.1,0.7c-0.1,0.2-0.2,0.3-0.4,0.3v0
		c0.2,0.1,0.4,0.2,0.5,0.4c0.1,0.2,0.2,0.4,0.2,0.8v0.2c0,0.4-0.1,0.7-0.3,0.9s-0.5,0.3-0.9,0.3h-1.1v-4.9h1
		C123.1,34.2,123.4,34.3,123.6,34.5z M122.4,34.9v1.3h0.2c0.2,0,0.3,0,0.4-0.1c0.1-0.1,0.1-0.2,0.1-0.5v-0.2c0-0.2,0-0.3-0.1-0.4
		c-0.1-0.1-0.2-0.1-0.4-0.1H122.4z M122.4,36.9v1.5h0.3c0.2,0,0.3,0,0.4-0.1s0.1-0.2,0.1-0.5v-0.3c0-0.2,0-0.4-0.1-0.5
		c-0.1-0.1-0.2-0.2-0.4-0.2H122.4z"/>
	<path class="st0" d="M125.3,38.4h1.2v0.7h-2v-4.9h0.7V38.4z"/>
	<path class="st0" d="M129.1,34.9h-1.3v1.4h1.1v0.7h-1.1v1.5h1.3v0.7h-2.1v-4.9h2.1V34.9z"/>
</g>
<g>
	<path class="st0" d="M182.6,34.5c0.2,0.2,0.3,0.5,0.3,0.9v0.4c0,0.4-0.1,0.7-0.3,0.9c-0.2,0.2-0.5,0.3-0.9,0.3h-0.3v2h-0.7v-4.9
		h1.1C182.1,34.2,182.4,34.3,182.6,34.5z M181.4,34.9v1.5h0.3c0.2,0,0.3,0,0.4-0.1c0.1-0.1,0.1-0.2,0.1-0.5v-0.3
		c0-0.2,0-0.4-0.1-0.5c-0.1-0.1-0.2-0.1-0.4-0.1H181.4z"/>
	<path class="st0" d="M185.6,34.9h-1.3v1.4h1.1v0.7h-1.1v1.5h1.3v0.7h-2.1v-4.9h2.1V34.9z"/>
	<path class="st0" d="M187.9,34.4c0.2,0.2,0.3,0.5,0.3,0.8v0.1l-0.7,0.1v-0.2c0-0.1,0-0.2-0.1-0.3s-0.2-0.1-0.3-0.1
		c-0.1,0-0.2,0-0.3,0.1s-0.1,0.2-0.1,0.3v0.1c0,0.1,0,0.3,0.1,0.4c0.1,0.1,0.3,0.3,0.5,0.5c0.3,0.3,0.6,0.6,0.7,0.8
		c0.1,0.2,0.2,0.5,0.2,0.8V38c0,0.3-0.1,0.6-0.3,0.8s-0.5,0.3-0.9,0.3c-0.4,0-0.7-0.1-0.9-0.3S186,38.4,186,38v-0.3l0.7-0.1V38
		c0,0.3,0.1,0.5,0.4,0.5s0.4-0.2,0.4-0.5v-0.2c0-0.2,0-0.3-0.1-0.5c-0.1-0.1-0.3-0.3-0.5-0.5c-0.3-0.3-0.6-0.5-0.7-0.8
		c-0.1-0.2-0.2-0.5-0.2-0.8v-0.1c0-0.4,0.1-0.6,0.3-0.8c0.2-0.2,0.5-0.3,0.8-0.3S187.7,34.2,187.9,34.4z"/>
	<path class="st0" d="M190.7,34.4c0.2,0.2,0.3,0.5,0.3,0.9v0.4l-0.7,0v-0.4c0-0.4-0.1-0.6-0.4-0.6c-0.1,0-0.2,0-0.3,0.1
		s-0.1,0.2-0.1,0.4V38c0,0.2,0,0.3,0.1,0.4s0.2,0.1,0.3,0.1c0.3,0,0.4-0.2,0.4-0.6v-0.5l0.7,0V38c0,0.4-0.1,0.7-0.3,0.9
		c-0.2,0.2-0.5,0.3-0.9,0.3c-0.4,0-0.6-0.1-0.8-0.3c-0.2-0.2-0.3-0.5-0.3-0.9v-2.7c0-0.4,0.1-0.7,0.3-0.9c0.2-0.2,0.5-0.3,0.8-0.3
		C190.2,34.1,190.5,34.2,190.7,34.4z"/>
	<path class="st0" d="M194,39.1h-0.8L193,38h-0.8l-0.2,1.1h-0.7l0.8-4.9h0.9L194,39.1z M192.6,35.2l-0.3,2.1h0.6L192.6,35.2
		L192.6,35.2z"/>
</g>
<g>
	<path class="st0" d="M254.5,39.1h-0.7v-3.4h0l-0.6,2.7h-0.4l-0.6-2.7h0v3.4h-0.7v-4.9h1l0.6,2.6h0l0.6-2.6h1V39.1z"/>
	<path class="st0" d="M256.1,39.1h-0.7v-4.9h0.7V39.1z"/>
	<path class="st0" d="M259.3,39.1h-0.7l-1-3.2h0v3.2h-0.7v-4.9h0.8l0.9,2.9h0v-2.9h0.7V39.1z"/>
	<path class="st0" d="M262.2,34.9h-1.3v1.4h1.1v0.7h-1.1v1.5h1.3v0.7h-2.1v-4.9h2.1V34.9z"/>
	<path class="st0" d="M264.5,39.1l-0.6-2.1h-0.3v2.1h-0.7v-4.9h1.1c0.4,0,0.7,0.1,0.9,0.3s0.3,0.5,0.3,0.9v0.4
		c0,0.5-0.2,0.9-0.5,1.1l0.7,2.2H264.5z M263.6,34.9v1.5h0.3c0.2,0,0.3,0,0.4-0.1c0.1-0.1,0.1-0.2,0.1-0.5v-0.3c0-0.2,0-0.4-0.1-0.5
		c-0.1-0.1-0.2-0.1-0.4-0.1H263.6z"/>
	<path class="st0" d="M266.5,39.1h-0.7v-4.9h0.7V39.1z"/>
	<path class="st0" d="M269.7,39.1H269l-0.2-1.1H268l-0.2,1.1h-0.7l0.8-4.9h0.9L269.7,39.1z M268.4,35.2l-0.3,2.1h0.6L268.4,35.2
		L268.4,35.2z"/>
</g>
<g>
	<path d="M96.3,54.5c-0.1-2.9,2.4-5.5,5.5-5.5c3.2,0,5.4,2.7,5.5,5.3c0.1,3.3-2.4,5.7-5.5,5.7C98.6,60,96.3,57.4,96.3,54.5z
		 M105.3,54.5c0-2-1.6-3.5-3.6-3.5c-2,0-3.5,1.5-3.4,3.5c0,1.8,1.7,3.4,3.5,3.4C103.7,58,105.4,56.3,105.3,54.5z"/>
	<path d="M109.2,54.6c0-1.5,0-3,0-4.5c0-0.7,0.2-0.9,0.8-0.9c1.5,0,3.1,0,4.6,0c1.5,0,2.7,0.7,3.4,2c0.9,1.6,0.4,4-1.5,5.1
		c-0.7,0.4-1.4,0.6-2.2,0.6c-0.9,0-1.9,0-2.8,0c-0.2,0-0.3,0.1-0.3,0.3c0,0.7,0,1.3,0,2c0,0.4-0.1,0.6-0.5,0.6c-0.4,0-0.7,0-1.1,0
		c-0.3,0-0.4-0.2-0.4-0.5c0-0.2,0-0.3,0-0.5C109.2,57.5,109.2,56,109.2,54.6C109.2,54.6,109.2,54.6,109.2,54.6z M113.1,51.3
		c-0.5,0-1,0-1.5,0c-0.2,0-0.4,0.1-0.3,0.3c0,1,0,1.9,0,2.9c0,0.2,0.1,0.3,0.3,0.3c1,0,2.1,0,3.1,0c0.9,0,1.7-0.7,1.8-1.5
		c0.1-1-0.7-2-1.8-2C114.1,51.3,113.6,51.3,113.1,51.3z"/>
	<path d="M91.3,60.1c-2.5-0.1-4.6-1.8-5.3-4.2c-0.6-2.3,0.6-5.3,3.2-6.4c2-0.8,4-0.5,5.7,0.8c0.3,0.2,0.3,0.6,0.1,0.9c0,0,0,0,0,0
		c-0.8,0.9-0.8,0.9-1.9,0.3c-1.5-0.9-3.8-0.6-4.8,1.5c-1.1,2.3,0.5,4.9,3.1,5c0.7,0,1.4-0.2,2.1-0.6c0.6-0.4,0.7-0.3,1.2,0.2
		c0.1,0.1,0.2,0.2,0.3,0.3c0.3,0.3,0.3,0.6,0,0.9c-0.7,0.7-1.6,1-2.6,1.2C92,60,91.7,60,91.3,60.1z"/>
	<path d="M134.9,48.9c1.6,0,2.7,0.4,3.7,1.2c0.5,0.4,0.5,0.7,0.1,1.1c-0.8,0.8-0.8,0.8-1.7,0.3c-2.1-1.2-4.6-0.1-5.2,2.2
		c-0.5,2,1,4.3,3.4,4.3c0.7,0,1.4-0.2,2-0.7c0.3-0.3,0.6-0.2,1,0c0.2,0.2,0.4,0.3,0.6,0.5c0.3,0.3,0.3,0.6,0,0.9
		c-0.8,0.7-1.8,1-2.9,1.2c-2.3,0.4-5.5-1.3-6.1-4.4c-0.5-2.6,0.8-5.3,3.6-6.3C134,49,134.6,49,134.9,48.9z"/>
	<path d="M124.1,49.2c1.2,0,2.3,0,3.5,0c0.6,0,0.8,0.2,0.8,0.8c0,0.2,0,0.3,0,0.5c0,0.6-0.2,0.8-0.8,0.8c-0.6,0-1.2,0-1.8,0
		c-1.7,0-3.3,0-5,0c-0.7,0-0.9-0.2-0.9-0.9c0-0.2,0-0.4,0-0.6c0-0.4,0.2-0.6,0.6-0.6C121.7,49.2,122.9,49.2,124.1,49.2
		C124.1,49.2,124.1,49.2,124.1,49.2z"/>
	<path d="M124,59.8c-1.2,0-2.3,0-3.5,0c-0.5,0-0.7-0.1-0.7-0.7c0-0.3,0-0.6,0-0.8c0-0.4,0.2-0.5,0.6-0.5c0.3,0,0.6,0,0.9,0
		c2,0,4,0,5.9,0c0.1,0,0.2,0,0.2,0c0.7,0,0.8,0.2,0.8,0.9c0,0.2,0,0.3,0,0.5c0,0.5-0.2,0.7-0.6,0.7C126.4,59.8,125.2,59.8,124,59.8
		C124,59.8,124,59.8,124,59.8z"/>
	<path d="M125.1,53.5c0.7,0,1.4,0,2,0c0.5,0,0.7,0.2,0.7,0.7c0,0.3,0,0.5,0,0.8c0,0.4-0.2,0.6-0.6,0.6c-0.6,0-1.1,0-1.7,0
		c-0.8,0-1.6,0-2.4,0c-0.6,0-0.8-0.2-0.8-0.8c0-1.2,0-1.3,1.2-1.3C124.1,53.5,124.6,53.5,125.1,53.5
		C125.1,53.5,125.1,53.5,125.1,53.5z"/>
</g>
<g>
	<path d="M17.1,51.2C17.1,51.2,17.1,51.2,17.1,51.2c0.5-0.7,1.2-0.8,1.9-0.7c0.3,0,0.6,0,0.9,0c0,2.8,0,5.5,0,8.3
		c-0.6,0-1.3,0-1.9,0c-0.2,0-0.4-0.3-0.6-0.5c-0.2-0.2-0.3-0.2-0.5,0c-1.4,1.2-3.3,0.8-4.4-0.6c-1.4-1.7-1.2-4.3-0.2-5.9
		C13.4,50.2,15.6,49.7,17.1,51.2z M17.4,54.6C17.4,54.6,17.4,54.6,17.4,54.6c0-0.3,0-0.5,0-0.8c0-0.6-0.1-0.9-0.8-1.1
		c-1.3-0.4-2.6,0.8-2.4,2.2c0.2,1.3,1.6,2,2.7,1.4c0.3-0.2,0.5-0.4,0.5-0.8C17.3,55.3,17.4,55,17.4,54.6z"/>
	<path d="M34,51.2c0.3-0.7,0.9-0.8,1.6-0.7c0.3,0,0.6,0,0.9,0c0.2,0,0.3,0.1,0.3,0.3c0,0.6,0,1.1,0,1.7c0,2,0,4,0,5.9
		c0,0.3-0.1,0.4-0.4,0.4c-0.3,0-0.6,0-0.9,0c-0.5,0.1-0.9-0.1-1.2-0.6c-0.1-0.2-0.3-0.2-0.5-0.1c-1.4,1.2-3.2,0.8-4.3-0.5
		c-0.7-0.8-1-1.8-1-2.9c0-1,0.2-2,0.7-2.9c1-1.7,3.1-2.1,4.7-0.9C33.8,51.1,33.9,51.1,34,51.2z M34.2,54.6c0-0.3,0-0.6,0-1
		c0-0.3-0.1-0.6-0.4-0.7c-1.1-0.7-2.5-0.1-2.8,1.3c-0.2,0.8,0.2,1.6,0.8,2c0.6,0.4,1.4,0.4,2,0c0.2-0.2,0.4-0.4,0.4-0.7
		C34.2,55.3,34.2,55,34.2,54.6z"/>
	<path d="M60.7,59c-2.4,0-4.4-2-4.4-4.3c0.1-2.7,2-4.4,4.4-4.4c2.4,0,4.3,1.9,4.3,4.3C65,57,63.1,59,60.7,59z M58.9,54.5
		c0,1.2,0.9,2.2,1.9,2c0.8-0.1,1.4-0.6,1.6-1.4c0.2-0.8-0.1-1.7-0.7-2.2c-0.6-0.4-1.2-0.4-1.8-0.1C59.2,53.3,58.9,53.9,58.9,54.5z"
		/>
	<path d="M41,56.4c0.8,0,1.6,0,2.4,0c0.1,0,0.2-0.1,0.2-0.2c0-0.1,0-0.2,0-0.4c0-1.6,0-3.2,0-4.8c0-0.4,0.1-0.4,0.4-0.4
		c0.6,0,1.2,0,1.8,0c0.3,0,0.4,0.1,0.4,0.4c0,2.5,0,4.9,0,7.4c0,0.7,0.1,0.6-0.6,0.6c-1.6,0-3.2,0-4.8,0c-0.3,0-0.5-0.1-0.7-0.3
		c-0.5-0.5-1-1-1.5-1.5c-0.1-0.1-0.2-0.3-0.2-0.5c0-1.9,0-3.8,0-5.7c0-0.3,0.1-0.4,0.4-0.4c0.6,0,1.2,0,1.8,0c0.3,0,0.4,0.1,0.4,0.4
		c0,1.7,0,3.3,0,5C41,56.1,41,56.2,41,56.4z"/>
	<path d="M55.6,52c-0.6,0.6-1.2,1.2-1.8,1.8c-0.4-0.7-0.9-1.1-1.7-1.1c-0.5,0-0.9,0.2-1.2,0.5c-0.8,1-0.7,2.1,0.1,2.9
		c0.8,0.8,1.7,0.5,2.8-0.7c0.6,0.6,1.1,1.2,1.7,1.9c-0.6,1.2-2.7,2-4.3,1.6c-1.6-0.4-3.3-1.8-3.4-4c-0.1-1.8,0.8-3.4,2.7-4.2
		C52.3,49.9,54.4,50.4,55.6,52z"/>
	<path d="M24.2,58.8c-0.8,0-1.6,0-2.4,0c-0.1,0-0.2-0.2-0.2-0.2c0-0.3,0-0.6,0-0.9c0-2.3,0-4.6,0-6.9c0-0.1,0-0.2,0-0.4
		c0.9,0,1.7,0,2.6,0c0,0.4,0,0.9,0,1.3c0,0,0.1,0,0.1,0c0.3-0.3,0.7-0.6,1-1c0.3-0.3,0.6-0.5,1.1-0.5c0.5,0,1,0,1.5,0
		c0,0.8,0,1.6,0,2.4c0,0.1-0.2,0.2-0.3,0.2c-1,0-2,0-3,0c-0.1,0-0.2,0-0.3,0C24.2,55,24.2,56.9,24.2,58.8z"/>
</g>
<g>
	<path d="M122.7,71.9c0,1.4,0,2.8,0,4.2c0.3-0.1,0.5-0.2,0.7-0.3c0.5-0.3,1.1-0.4,1.7-0.3c1.1,0.1,1.8,0.7,1.8,1.9
		c0,1.7,0,3.5-0.1,5.2c0,0.7-0.4,1.3-1.1,1.7c-0.6,0.3-1.2,0.5-1.8,0.5c-1,0.1-2.1,0-3.1-0.3c-0.2-0.1-0.2-0.2-0.2-0.4
		c0-1.3,0-2.5,0-3.8c0-2.1,0-4.2,0-6.3c0-0.6,0-1.2,0-1.7c0-0.2,0.1-0.3,0.3-0.3C121.5,71.9,122.1,71.9,122.7,71.9z M122.7,80.3
		C122.7,80.3,122.7,80.3,122.7,80.3c0,0.8,0,1.6,0,2.4c0,0.1,0,0.3,0.2,0.3c0.4,0,0.9,0,1.3,0c0.6-0.1,0.8-0.3,0.8-0.9
		c0-1.3,0-2.5,0-3.8c0-0.2,0-0.4,0-0.5c0-0.3-0.2-0.4-0.4-0.5c-0.5-0.1-0.9,0-1.4,0.1c-0.3,0.1-0.4,0.3-0.4,0.6
		C122.7,78.8,122.7,79.5,122.7,80.3z"/>
	<path d="M91,71.9c0.6,0,1.2,0,1.8,0c0.2,0,0.2,0.2,0.2,0.3c0,1.2,0,2.4,0,3.5c0,0.1,0,0.2,0,0.4c0.2-0.1,0.3-0.1,0.4-0.2
		c0.6-0.3,1.2-0.5,1.9-0.5c1.2,0.1,1.9,0.8,1.9,2c0,1.7,0,3.3,0,5c0,0.6-0.3,1.1-0.7,1.5c-0.6,0.5-1.3,0.8-2.1,0.8
		c-0.8,0-1.6,0-2.4-0.1c-0.9-0.1-0.9-0.2-0.9-1.1c0-3.6,0-7.3-0.1-10.9C91,72.4,91,72.2,91,71.9z M93,80.3c0,0.8,0,1.6,0,2.5
		c0,0.2,0,0.3,0.2,0.3c0.4,0,0.8,0,1.2,0c0.6-0.1,0.9-0.4,0.9-0.9c0-1.4,0-2.7,0-4.1c0-0.5-0.2-0.8-0.7-0.8
		c-0.5-0.1-0.9,0.1-1.3,0.3c-0.2,0.1-0.3,0.2-0.3,0.5C93,78.7,93,79.5,93,80.3z"/>
	<path d="M102.5,84c-0.4,0.2-0.7,0.4-1,0.5c-0.6,0.2-1.2,0.3-1.7,0.1c-0.7-0.1-1.2-0.6-1.4-1.2c-0.3-0.8-0.3-1.7-0.1-2.5
		c0.3-1,1.1-1.6,2.1-1.6c0.6,0,1.1,0,1.7,0c0.2,0,0.3-0.1,0.3-0.3c0-0.3,0-0.6,0-0.9c0-0.5-0.2-0.7-0.6-0.8c-0.7-0.2-1.4-0.1-2,0.1
		c-0.2,0.1-0.5,0.2-0.7,0.3c-0.1-0.3-0.1-0.6-0.2-0.9c-0.2-0.8-0.2-0.8,0.6-1.1c1.1-0.3,2.2-0.4,3.3-0.2c1,0.2,1.7,0.8,1.7,1.9
		c0.1,1.5,0,2.9,0,4.4c0,0.8,0,1.6,0,2.5c0,0.2-0.1,0.3-0.3,0.3c-0.3,0-0.6,0-0.8,0c-0.3,0-0.5,0-0.6-0.3
		C102.7,84.2,102.6,84.1,102.5,84z M102.3,81.9C102.3,81.9,102.3,81.9,102.3,81.9c0-0.2,0-0.5,0-0.7c0-0.2-0.1-0.3-0.2-0.2
		c-0.4,0-0.7,0-1.1,0c-0.3,0-0.5,0.1-0.6,0.4c-0.1,0.4-0.2,0.7-0.2,1.1c0,0.4,0.3,0.7,0.7,0.7c0.3,0,0.7,0,1-0.1
		c0.3,0,0.4-0.2,0.4-0.5C102.3,82.3,102.3,82.1,102.3,81.9z"/>
	<path d="M89.9,80.8c0,1.1,0,2.3,0,3.4c0,0.3-0.1,0.3-0.3,0.3c-0.3,0-0.6,0-0.9,0c-0.2,0-0.4,0-0.5-0.3c-0.1-0.2-0.2-0.2-0.4-0.1
		c-0.7,0.6-1.6,0.7-2.5,0.6c-0.7-0.1-1.2-0.5-1.5-1.2c-0.3-0.7-0.4-1.5-0.2-2.3c0.2-1.2,1.3-2,2.4-2c0.5,0,1,0,1.5,0
		c0.2,0,0.3-0.1,0.3-0.2c0-0.3,0-0.7,0-1c0-0.4-0.2-0.7-0.6-0.8c-0.7-0.3-1.4-0.1-2.1,0.1c-0.1,0-0.3,0.1-0.4,0.2
		c-0.2,0.1-0.3,0-0.3-0.1c-0.1-0.4-0.2-0.9-0.2-1.3c0-0.1,0.1-0.2,0.1-0.3c1.2-0.4,2.5-0.7,3.8-0.4c1.1,0.2,1.7,1,1.7,2.1
		C89.9,78.6,89.9,79.7,89.9,80.8C89.9,80.8,89.9,80.8,89.9,80.8z M87.9,81.9C87.9,81.9,87.9,81.9,87.9,81.9c0-0.2,0-0.5,0-0.7
		c0-0.2-0.1-0.3-0.3-0.3c-0.3,0-0.7,0-1,0c-0.5,0-0.8,0.3-0.9,0.8c0,0.2,0,0.3,0,0.5c0,0.6,0.5,1,1.1,1c0.2,0,0.5-0.1,0.7-0.2
		c0.2-0.1,0.3-0.2,0.3-0.5C87.9,82.4,87.9,82.2,87.9,81.9z"/>
	<path d="M137.4,80.8c-0.3,0-0.5,0-0.8,0c-1,0-1.9,0-2.9,0c-0.2,0-0.3,0.1-0.3,0.3c0,0.3,0,0.6,0,0.8c0,0.6,0.3,1,0.9,1.1
		c0.8,0.2,1.6,0.1,2.4-0.2c0.4-0.1,0.4-0.1,0.4,0.2c0.1,0.4,0.2,0.7,0.2,1.1c0,0.2,0,0.3-0.2,0.3c-1.1,0.3-2.3,0.4-3.5,0.2
		c-1.2-0.2-2.3-1-2.3-2.4c0-1.4,0-2.9,0-4.3c0-1.1,0.7-1.9,1.7-2.4c0.9-0.4,1.9-0.3,2.8,0.1c0.9,0.4,1.4,1.1,1.4,2.1
		C137.5,78.7,137.4,79.8,137.4,80.8z M134.5,79.2C134.5,79.2,134.5,79.2,134.5,79.2c0.3,0,0.6,0,0.8,0c0.2,0,0.3-0.1,0.3-0.3
		c0-0.3,0-0.6,0-0.9c0-0.7-0.3-1-1-1c-0.7,0-1.1,0.3-1.1,1c0,0.3,0,0.6,0,0.9c0,0.2,0.1,0.3,0.3,0.2C134,79.2,134.2,79.2,134.5,79.2
		z"/>
	<path d="M105.8,82.7c0.5,0.1,0.9,0.3,1.4,0.3c0.3,0.1,0.5,0,0.8,0.1c0.7,0,1-0.6,0.9-1.1c-0.1-0.4-0.4-0.5-0.6-0.7
		c-0.4-0.2-0.9-0.4-1.3-0.6c-1-0.4-1.5-1.2-1.5-2.2c-0.1-0.7,0-1.4,0.4-2c0.4-0.6,1-0.8,1.6-1c1-0.2,2,0,3,0.3
		c0.1,0,0.2,0.2,0.2,0.2c-0.1,0.5-0.2,1-0.2,1.5c-0.2-0.1-0.5-0.1-0.7-0.2c-0.5-0.1-0.9-0.1-1.4-0.1c-0.5,0-0.8,0.2-1,0.7
		c-0.1,0.4,0.1,0.8,0.5,1c0.3,0.2,0.7,0.3,1.1,0.4c1.5,0.5,2.2,1.5,1.9,3.2c-0.1,0.3-0.1,0.7-0.2,1c-0.4,1.1-1.4,1.6-2.5,1.5
		c-0.8-0.1-1.6-0.3-2.4-0.4c-0.1,0-0.2-0.1-0.1-0.2C105.6,83.7,105.7,83.2,105.8,82.7z"/>
	<path d="M116.4,75.6c0,0.4-0.1,0.8-0.1,1.2c0,0.2,0,0.5-0.1,0.6c-0.1,0.1-0.4,0-0.6,0c-0.2,0-0.5,0-0.7,0c-0.2,0-0.3,0.1-0.3,0.3
		c0,1.5,0,3,0,4.5c0,0.6,0.5,0.9,1.1,0.7c0.1,0,0.2-0.1,0.4-0.2c0,0.1,0.1,0.1,0.1,0.2c0,0.4,0,0.7,0.1,1.1c0,0.2,0,0.3-0.2,0.3
		c-0.6,0.1-1.2,0.2-1.8,0.2c-1-0.1-1.6-0.7-1.6-1.8c0-1.4,0-2.8,0-4.3c0-0.3,0-0.6,0-0.9c0-0.2-0.1-0.3-0.3-0.3c-0.2,0-0.5,0-0.7,0
		c0-0.6,0-1.2,0-1.9c0.2,0,0.5,0,0.7,0c0.2,0,0.3-0.1,0.3-0.3c0-0.7,0-1.3,0-2c0.7-0.1,1.3-0.2,2-0.3c0,0.8,0,1.5,0,2.2
		c0,0.3,0.1,0.4,0.4,0.4C115.4,75.5,115.8,75.6,116.4,75.6z"/>
	<path d="M128.2,78.2c0-2,0-4,0-6c0-0.2,0-0.3,0.3-0.3c0.5,0,1,0,1.4,0c0.2,0,0.3,0,0.3,0.3c0,4,0,8,0,12c0,0.3-0.1,0.3-0.3,0.3
		c-0.5,0-1,0-1.4,0c-0.2,0-0.3-0.1-0.3-0.3C128.2,82.3,128.2,80.2,128.2,78.2z"/>
	<path d="M119.4,80c0,1.4,0,2.8,0,4.2c0,0.2-0.1,0.3-0.3,0.3c-0.5,0-1,0-1.5,0c-0.2,0-0.2-0.1-0.2-0.2c0-2.8,0-5.6,0-8.4
		c0-0.2,0.1-0.3,0.3-0.3c0.5,0,1,0,1.5,0c0.2,0,0.3,0.1,0.3,0.3C119.4,77.2,119.4,78.6,119.4,80C119.4,80,119.4,80,119.4,80z"/>
	<path d="M117.4,74.4c0-0.8,0-1.5,0-2.3c0-0.1,0.1-0.2,0.2-0.2c0.6,0,1.2,0,1.9,0c0,0.8,0,1.5,0,2.3c0,0.1-0.1,0.2-0.2,0.2
		C118.6,74.4,118,74.4,117.4,74.4z"/>
</g>
<g>
	
		<image style="overflow:visible;" width="356" height="142" xlink:href="../../../Downloads/abastible logo.png"  transform="matrix(3.738831e-04 0 0 3.738831e-04 165.5203 55.1291)">
	</image>
	<path d="M192.8,56.4c0.1,0,0.1-0.1,0.2-0.1c0.5-0.3,0.9-0.6,1.5-0.7c0.8-0.1,1.5,0.1,2,0.8c0,0,0.1,0.1,0.1,0.1
		c0.1,0.1,0.1,0.1,0.2,0c0.4-0.3,0.8-0.6,1.3-0.8c0.4-0.2,0.9-0.3,1.4-0.2c0.7,0.1,1,0.6,1.2,1.2c0.1,0.5,0,1-0.1,1.4
		c-0.2,0.9-0.4,1.7-0.6,2.6c-0.1,0.4-0.2,0.8-0.3,1.2c0,0.1-0.1,0.1-0.2,0.1c-0.5,0-1,0-1.4,0c-0.1,0-0.2,0-0.1-0.2
		c0.2-1,0.3-1.9,0.5-2.9c0.1-0.4,0.2-0.8,0.2-1.3c0-0.3,0-0.6-0.1-0.9c-0.1-0.3-0.4-0.4-0.7-0.4c-0.7,0.1-1.1,0.4-1.4,1.2
		c-0.2,0.7-0.4,1.4-0.5,2.1c-0.2,0.7-0.3,1.4-0.5,2c0,0.1-0.1,0.2-0.2,0.2c-0.4,0-0.8,0-1.3,0c-0.2,0-0.2,0-0.2-0.2
		c0.1-0.5,0.2-1,0.3-1.5c0.2-1,0.3-1.9,0.5-2.9c0-0.3-0.1-0.6-0.3-0.9c-0.2-0.2-0.4-0.2-0.6-0.1c-0.6,0.2-1.1,0.6-1.2,1.3
		c-0.2,0.7-0.4,1.5-0.5,2.2c-0.1,0.6-0.3,1.3-0.4,1.9c0,0.1-0.1,0.1-0.1,0.1c-0.6,0-1.2,0-1.8,0c0-0.1,0.1-0.2,0.1-0.3
		c0.2-1.2,0.5-2.4,0.7-3.6c0.2-0.8,0.3-1.5,0.4-2.3c0-0.2,0-0.2,0.3-0.2c0.5,0,1,0,1.6-0.1c0.1,0,0.1,0,0.1,0.1
		c0,0.2-0.1,0.4-0.1,0.5C192.8,56.3,192.8,56.3,192.8,56.4C192.8,56.4,192.8,56.4,192.8,56.4z"/>
	<path d="M192.9,48.5c-0.3,0.1-0.6,0-0.8,0.3c-0.2-0.1-0.3-0.1-0.4-0.2c-0.1-0.1-0.2,0-0.3,0.1c-0.1,0.1-0.1,0.3-0.1,0.4
		c0,0.1-0.1,0.2-0.2,0.1c-0.2,0-0.4-0.1-0.7-0.1c-0.1,0-0.1,0-0.2,0c-0.1,0.1-0.2,0.1-0.3,0.1c-0.2,0-0.4,0-0.6,0
		c-0.2,0-0.4,0-0.6-0.1c-0.1-0.1-0.3-0.1-0.4,0c-0.1,0.1-0.3,0.1-0.4,0.1c-0.1,0-0.2,0-0.4,0c-0.2-0.1-0.5,0.1-0.6,0.3
		c0,0.1-0.1,0.2-0.2,0.1c-0.1,0-0.1,0-0.2,0c-0.3-0.1-0.5,0-0.8,0.1c-0.4,0.2-0.8,0.3-1.3,0.3c-0.2,0-0.4,0-0.6,0
		c-0.1,0-0.1,0-0.2,0.1c-0.3,0.4-0.8,0.4-1.2,0.5c-0.4,0.1-0.8,0.2-1.1,0.4c-0.3,0.2-0.6,0.3-1,0.3c-0.2,0-0.4,0.1-0.5,0.2
		c-0.2,0.1-0.4,0.2-0.6,0.2c-0.2,0-0.4,0.1-0.6,0.3c-0.2,0.2-0.3,0.2-0.6,0.2c-0.2,0-0.4-0.1-0.7-0.1c-0.1,0-0.1-0.1-0.2-0.1
		c-0.2-0.3-0.2-0.7-0.2-1.1c0-0.1,0-0.2,0-0.4c0-0.2,0-0.4,0.2-0.6c0.3-0.2,0.4-0.5,0.7-0.8c0.1-0.1,0.2-0.2,0.3-0.3
		c0.1-0.1,0.2-0.4,0.1-0.6c-0.1-0.1-0.1-0.3-0.1-0.4c0-0.1,0-0.1,0.1-0.1c0.1,0,0.2,0,0.4,0.1c0.2,0.1,0.3,0,0.5,0
		c0.5-0.1,0.9-0.2,1.4,0c0.3,0.1,0.7,0,0.9-0.2c0.1-0.1,0.2-0.3,0.4-0.4c0.2-0.1,0.3-0.1,0.5,0c0.3,0.2,0.6,0.3,0.9,0.2
		c0.4-0.1,0.8-0.2,1.3-0.3c0.1,0,0.2,0,0.3,0.1c0.1,0.1,0.1,0.1,0.2,0.1c0.2,0.1,0.2,0.1,0.4-0.1c0.1-0.1,0.3-0.1,0.4-0.2
		c0,0,0.1,0,0.1,0c0.1,0,0.2,0,0.2,0.2c0,0.1-0.1,0.2-0.1,0.3c-0.1,0.3,0,0.4,0.3,0.4c0.6,0,1.1-0.2,1.7-0.3c0.3-0.1,0.6-0.1,0.9,0
		c0.4,0.1,0.8,0.1,1.2,0.2c0.2,0,0.3,0.1,0.5,0.2c0.1,0.1,0.3,0.3,0.4,0.4c0.1,0.1,0.2,0.1,0.3,0c0.2-0.1,0.4-0.2,0.6-0.5
		c0-0.1,0.1-0.1,0.1-0.2c0-0.2,0.1-0.2,0.3-0.3c0.2,0,0.4-0.1,0.6-0.2C192.6,47.7,192.8,48.1,192.9,48.5z"/>
	<path d="M172.7,57.4c-0.1,0.5-0.2,1-0.3,1.5c-0.2,0.8-0.3,1.5-0.5,2.3c0,0.1-0.1,0.2-0.2,0.2c-0.7,0.1-1.4,0.3-2.1,0.4
		c-0.8,0.1-1.6,0.2-2.3,0.1c-1.3-0.1-2.4-0.5-3.1-1.6c-0.4-0.5-0.6-1.1-0.6-1.8c-0.1-1.4,0.3-2.6,1.1-3.7c0.9-1.2,2-1.9,3.4-2.3
		c0.5-0.2,1-0.3,1.5-0.4c0.6-0.1,1.1,0,1.7,0.1c0.7,0.1,1.4,0.4,2,0.8c0.1,0.1,0.2,0.2,0.1,0.3c-0.1,0.2-0.2,0.5-0.3,0.8
		c0,0.1-0.1,0.1-0.1,0.2c-0.1-0.1-0.2-0.2-0.3-0.3c-0.6-0.5-1.3-0.8-2.1-0.9c-1-0.1-1.9,0.2-2.8,0.9c-0.8,0.7-1.3,1.6-1.6,2.6
		c-0.2,0.7-0.3,1.4-0.3,2.1c0,0.5,0.1,0.9,0.3,1.4c0.2,0.5,0.6,0.9,1.2,1.1c0.8,0.3,1.6,0.3,2.4,0c0.1,0,0.1,0,0.2-0.1
		c0.3,0,0.3-0.2,0.4-0.4c0.1-0.7,0.2-1.3,0.3-2c0-0.2,0-0.3-0.2-0.3c-0.4,0-0.9,0-1.3,0c-0.2,0-0.2-0.1-0.2-0.2c0-0.2,0-0.4,0.1-0.5
		c0,0,0.1-0.1,0.1-0.1c0,0,0.1,0,0.1,0c1.1,0,2.3,0,3.4,0C172.6,57.4,172.6,57.4,172.7,57.4z"/>
	<path d="M177.2,53.5c0.1,0,0.2,0.1,0.2,0.1c0.2,0.1,0.5,0.1,0.7,0c0.2-0.1,0.5-0.2,0.8-0.3c0.1,0,0.2,0,0.3,0.1
		c0.2,0,0.4,0,0.5-0.2c0.1-0.2,0.2-0.4,0.4-0.4c0.1,0,0.2,0,0.2,0.1c0,0,0,0.1,0,0.1c0,0.1,0,0.3,0.1,0.3c0.1,0,0.3,0,0.4-0.1
		c0.1-0.1,0.2-0.2,0.2-0.3c0-0.1,0.1-0.2,0.2-0.2c0.2,0,0.4,0,0.6-0.1c0.1,0,0.2-0.1,0.2-0.2c0.1-0.1,0.1-0.1,0.2-0.1
		c0.3,0.2,0.6,0.1,0.9,0.1c0.1,0,0.1-0.1,0.2-0.1c0.1-0.1,0.2-0.1,0.3-0.1c-0.1,0.2-0.2,0.3-0.3,0.4c-0.1,0.2-0.1,0.2,0.1,0.2
		c0.4,0,0.7-0.1,1-0.3c0.4-0.2,0.8-0.3,1.2-0.5c0.1,0,0.1,0,0.2,0c0.2,0,0.5,0,0.7,0c0.2,0,0.4,0,0.7,0c0.4,0,0.6,0.2,0.8,0.4
		c0,0,0,0.1,0,0.1c0,0.2-0.1,0.4-0.1,0.7c-0.1,0-0.2,0-0.3,0c-0.2,0-0.4,0-0.6,0.1c-0.2,0.1-0.4,0.2-0.7,0.2c-0.4,0-0.7,0.1-1,0.3
		c-0.1,0.1-0.3,0.1-0.4,0c-0.1-0.1-0.3-0.1-0.4,0c0,0-0.1,0.1-0.1,0.1c-0.3,0.4-0.7,0.6-1.1,0.6c-0.4,0.1-0.8,0.2-1.2,0.3
		c-0.1,0-0.2,0.1-0.3,0.2c-0.1,0.2-0.2,0.2-0.4,0.3c-0.5,0.1-0.9,0.3-1.2,0.7c0,0-0.1,0.1-0.1,0.1c-0.2,0-0.5,0.1-0.7,0.1
		c-0.1,0-0.2,0.1-0.3,0.2c-0.3,0.2-0.5,0.4-0.8,0.5c-0.2,0.2-0.4,0.3-0.7,0.5c-0.1,0-0.2,0.1-0.3,0.1c-0.1,0-0.2,0-0.3-0.1
		c-0.3,0-0.4-0.2-0.4-0.5c0-0.3-0.1-0.7-0.1-1c0-0.1,0-0.1,0-0.2c0.1-0.1,0.1-0.3,0.1-0.5c0-0.1,0.1-0.2,0.2-0.3
		c0.1-0.3,0.2-0.5,0.3-0.8c0,0,0-0.1,0-0.1C177.1,53.9,177.1,53.7,177.2,53.5z"/>
	<path d="M202.7,57c-0.1-0.3-0.1-0.5,0.2-0.7c0.7-0.5,1.4-0.8,2.3-0.8c0.6,0,1.1,0.1,1.7,0.4c0.5,0.2,0.8,0.6,0.8,1.2
		c0,0.3-0.1,0.6-0.1,0.9c-0.1,0.9-0.4,1.7-0.6,2.5c-0.1,0.3-0.1,0.6,0,0.9c0.1,0.2,0.2,0.3,0.3,0.4c0.1,0.1,0.1,0.1,0,0.2
		c-0.2,0.2-0.5,0.3-0.7,0.3c-0.2,0-0.4,0-0.7,0c-0.3,0-0.4-0.1-0.6-0.3c-0.1-0.1-0.2-0.3-0.3-0.4c-0.1-0.1-0.2-0.1-0.3,0
		c-0.3,0.3-0.6,0.5-1,0.6c-0.2,0.1-0.3,0.1-0.5,0.1c-0.3,0-0.7,0-1,0c-0.5-0.1-0.9-0.5-0.9-1c0-1.1,0.5-1.8,1.5-2.2
		c0.7-0.3,1.4-0.5,2.1-0.8c0.2-0.1,0.3-0.1,0.5-0.2c0.3-0.1,0.4-0.4,0.4-0.7c0-0.1,0-0.1,0-0.2c-0.1-0.2-0.1-0.5-0.3-0.6
		c-0.3-0.2-0.7-0.3-1.1-0.3c-0.6,0.1-1,0.3-1.5,0.6C202.8,56.9,202.8,57,202.7,57z M203.3,60.6c0,0.1,0,0.3,0.1,0.4
		c0.1,0.4,0.4,0.6,0.8,0.5c0.4-0.1,0.7-0.4,0.9-0.8c0.3-0.5,0.4-1.1,0.5-1.7c0-0.2-0.1-0.2-0.2-0.1c-0.3,0.1-0.7,0.2-1,0.3
		C203.7,59.4,203.3,59.9,203.3,60.6z"/>
	<path d="M161.4,52.3c0.3,0,0.6,0,0.8,0c0.1,0,0.1,0,0.1,0.1c-0.2,1-0.4,2-0.6,3c-0.2,1-0.4,1.9-0.6,2.9c-0.2,1-0.4,2-0.6,3
		c-0.1,0.3-0.1,0.3-0.4,0.3c-0.4,0-0.9,0-1.3,0c-0.1,0-0.2,0-0.1-0.2c0.1-0.4,0.1-0.8,0.2-1.2c0.1-0.7,0.3-1.4,0.4-2.1
		c0.2-1.2,0.5-2.4,0.7-3.6c0.1-0.7,0.3-1.4,0.4-2c0-0.2,0.1-0.2,0.3-0.2C160.9,52.3,161.2,52.3,161.4,52.3z"/>
	<path d="M181.9,57.7c0.4,0,0.7-0.2,1-0.3c0,0,0.1,0,0.2,0c0.2,0.1,0.3,0.1,0.5,0.2c0.1,0,0.1,0.1,0.1,0.2c-0.1,0.2-0.2,0.3-0.4,0.3
		c-0.3,0.1-0.7,0.2-1,0.3c-0.1,0.1-0.2,0.2-0.4,0.3c-0.1,0.1-0.2,0.2-0.3,0.2c-0.3,0.1-0.5,0.3-0.6,0.6c-0.1,0.1-0.1,0.2-0.2,0.3
		c0,0.1-0.1,0.1-0.2,0.1c-0.1,0-0.2,0.1-0.2,0.2c-0.1,0.2-0.2,0.3-0.3,0.4c-0.2,0.1-0.4,0.3-0.5,0.4c-0.1,0.1-0.2,0.2-0.2,0.3
		c-0.1,0.1-0.2,0.3-0.4,0.2c-0.1,0-0.1,0-0.2,0.1c-0.3,0.2-0.5,0.4-0.9,0.5c-0.1,0-0.2,0.1-0.3,0.2c-0.2,0.2-0.7,0.1-0.8-0.2
		c-0.1-0.4-0.3-0.7-0.5-1c-0.2-0.4,0-0.8,0-1.1c0-0.1,0.1-0.2,0.2-0.2c0.1-0.1,0.2-0.3,0.3-0.4c0-0.1,0.1-0.1,0.1-0.2
		c0.2-0.1,0.3-0.3,0.5-0.4c0.1,0,0.1,0,0.2-0.1c0.2-0.1,0.5-0.2,0.5-0.5c0,0,0.1-0.1,0.1-0.1c0.5,0.2,0.9-0.1,1.3-0.3
		c0.3-0.2,0.6-0.2,1-0.1c0.3,0.1,0.4,0.1,0.5-0.2c0,0,0,0,0-0.1c0.1-0.1,0.1-0.2,0.2-0.2c0.2,0,0.3,0.2,0.3,0.3c0,0.1,0,0.2,0,0.2
		c0,0.2,0,0.2,0.2,0.2C181.8,57.7,181.8,57.7,181.9,57.7z"/>
	<path d="M211.9,55.7c-0.1,0.5-0.1,0.9-0.2,1.4c0,0,0,0,0,0c0.2-0.4,0.6-0.8,1-1c0.4-0.2,0.9-0.4,1.4-0.5c-0.1,0.3-0.2,0.6-0.2,0.8
		c-0.1,0.3-0.2,0.5-0.2,0.8c0,0.1-0.1,0.2-0.2,0.1c-0.6-0.1-1.2,0.1-1.7,0.5c-0.2,0.2-0.3,0.4-0.3,0.6c-0.2,0.9-0.4,1.7-0.6,2.6
		c-0.1,0.4-0.2,0.7-0.2,1.1c0,0.1-0.1,0.2-0.2,0.2c-0.5,0-0.9,0-1.4,0c-0.1,0-0.2,0-0.1-0.2c0.2-1.2,0.5-2.3,0.7-3.5
		c0.2-0.9,0.4-1.8,0.6-2.7c0-0.1,0.1-0.2,0.2-0.2c0.5,0,0.9,0,1.4-0.1C211.7,55.7,211.8,55.7,211.9,55.7z"/>
	<path d="M188.8,51.7c0,0-0.1,0.1-0.1,0.1c-0.1,0.1-0.1,0.1,0,0.2c0.1,0.1,0.2,0.2,0.3,0.4c0.1,0.1,0.1,0.2,0,0.3
		c-0.1,0.1-0.2,0-0.3-0.1c-0.1-0.2-0.2-0.4-0.4-0.5c-0.1,0-0.1-0.1-0.1-0.2c0,0,0.1,0,0.2-0.1c0.1,0,0.1-0.1,0.2-0.1
		C188.6,51.7,188.7,51.7,188.8,51.7C188.7,51.7,188.8,51.7,188.8,51.7z"/>
	<path d="M190,52.1c0.2,0.4,0.1,0.5-0.1,0.7c-0.1,0.1-0.2,0.1-0.3,0c0,0,0-0.1,0-0.1C189.7,52.5,189.8,52.3,190,52.1z"/>
	<path d="M183.9,57.2c0.1-0.1,0.2-0.2,0.4-0.1c0.1,0.1,0.1,0.1,0,0.2C184.2,57.4,184,57.4,183.9,57.2z"/>
	<path d="M189.9,51.7c0,0.1,0,0.2-0.2,0.2c0,0-0.1-0.1-0.1-0.1c0-0.1,0-0.2,0.1-0.2C189.8,51.6,189.8,51.7,189.9,51.7z"/>
	<path d="M182.2,57c-0.1,0-0.1,0.1-0.2,0.1c0,0-0.1-0.1-0.1-0.1c0.1-0.1,0.1-0.1,0.2-0.2C182.1,56.9,182.2,56.9,182.2,57z"/>
	<path d="M190.8,52.4c-0.1-0.1-0.2-0.2-0.1-0.3c0,0,0.1,0,0.1,0c0,0,0.1,0,0.1,0.1C190.8,52.2,190.8,52.3,190.8,52.4z"/>
	<path d="M183.4,56.7c0-0.1,0-0.2,0-0.3c0.1,0.1,0.2,0.1,0.2,0.1C183.6,56.6,183.5,56.7,183.4,56.7z"/>
</g>
<g>
	<path d="M189.7,81.9c0,0,0.1,0,0.1,0c0.7-0.2,1.5-0.3,2.2-0.3c0.1,0,0.1,0,0.1-0.2c-0.1-1,0.2-2,0.9-2.7c0.7-0.8,1.6-1.2,2.7-1.2
		c1.4,0,2.7,0.8,3.3,2.1c0.6,1.3,0.4,2.5-0.3,3.6c0,0,0,0.1-0.1,0.1c0,0,0,0,0,0.1c0.3,0,0.7-0.1,1-0.2c0.5-0.3,0.7-0.7,0.7-1.2
		c0-0.2,0.1-0.5,0.1-0.7c0-1.1,0-2.3,0-3.4c0-0.1,0-0.1,0.2-0.1c0.4,0,0.8,0,1.2,0c0.1,0,0.2,0,0.3,0.2c1,1.4,2.1,2.7,3.1,4.1
		c0.1,0.1,0.1,0.2,0.2,0.2c0,0,0,0,0,0c0,0,0-0.1,0-0.1c0-1.4,0-2.8,0-4.2c0-0.1,0-0.1,0.1-0.1c0.4,0,0.8,0,1.3,0
		c0.1,0,0.2,0,0.2,0.1c0,2.2,0,4.4,0,6.6c0,0.1,0,0.2-0.2,0.2c-0.4,0-0.8,0-1.2,0c-0.1,0-0.2,0-0.2-0.1c-1-1.3-2.1-2.7-3.1-4
		c-0.1-0.1-0.1-0.2-0.2-0.3c0,0,0,0-0.1,0c0,0.1,0,0.2,0,0.3c0,0.5,0,1,0,1.5c-0.1,1-0.4,1.9-1.3,2.5c-0.6,0.4-1.2,0.5-1.9,0.6
		c-0.5,0-1,0-1.4,0c-0.9-0.2-1.7-0.5-2.5-0.9c-0.6-0.3-1.3-0.6-2-0.7c-1.7-0.3-3.1,0.1-4.5,1.1c-0.2,0.1-0.4,0.2-0.6,0.2
		c-0.4,0-0.8,0-1.3,0c-0.1,0-0.1,0-0.2,0c1.1-1.8,2.2-3.7,3.3-5.5c-0.1,0-0.1,0-0.1,0c-0.9,0-1.9,0-2.8,0c-0.1,0-0.2,0-0.2-0.1
		c0-0.3,0-0.7,0-1c0-0.2,0-0.2,0.2-0.2c1.4,0,2.9,0,4.3,0c0.4,0,0.8,0,1.2,0C191.4,79,190.5,80.4,189.7,81.9
		C189.7,81.8,189.7,81.9,189.7,81.9z M193.6,81.1c0,0.1,0,0.2,0,0.3c0,0.3,0.1,0.3,0.4,0.4c0.4,0.2,0.9,0.3,1.3,0.5
		c0.4,0.2,0.9,0.4,1.3,0.7c0.1,0,0.2,0.1,0.3,0c0.5-0.3,0.9-0.7,1.1-1.3c0.4-1.4-0.6-2.6-1.9-2.8C194.6,78.8,193.6,80,193.6,81.1z"
		/>
	<path d="M177.2,81.1c0,1.9-1.5,3.5-3.4,3.6c-2.2,0.1-3.9-1.6-3.9-3.6c0-1.9,1.5-3.6,3.6-3.6C175.6,77.5,177.2,79.1,177.2,81.1z
		 M171.4,81.1c0,1.2,1,2.2,2.2,2.2c1.2,0,2.2-1,2.2-2.2c0-1.2-1-2.2-2.2-2.2C172.3,78.9,171.4,79.9,171.4,81.1z"/>
	<path d="M179.4,84.4c-0.5,0-1,0-1.6,0c0-2.3,0-4.6,0-6.9c0,0,0.1,0,0.2,0c0.8,0,1.6,0,2.4,0c0.5,0,0.9,0.1,1.3,0.4
		c0.5,0.3,0.7,0.7,0.8,1.3c0.1,0.9-0.3,1.6-1.1,2c0,0,0,0-0.1,0c0.1,0.1,0.2,0.2,0.3,0.4c0.5,0.8,1,1.5,1.4,2.3
		c0.1,0.1,0.2,0.3,0.2,0.4c-0.4,0-0.8,0-1.2,0c-0.1,0-0.3,0-0.4,0c-0.1,0-0.2,0-0.2-0.1c-0.3-0.6-0.6-1.1-1-1.7
		c-0.1-0.2-0.3-0.4-0.4-0.6c-0.1-0.2-0.3-0.2-0.5-0.2c-0.3,0-0.3,0-0.3,0.3c0,0.7,0,1.4,0,2.2C179.4,84.3,179.4,84.4,179.4,84.4z
		 M179.4,79.8C179.4,79.8,179.4,79.8,179.4,79.8c0,0.3,0,0.6,0,0.8c0,0.1,0,0.1,0.1,0.1c0.2,0,0.3,0,0.5,0c0.4,0,0.7-0.2,0.8-0.5
		c0.3-0.5,0.2-1.2-0.5-1.4c-0.3-0.1-0.6,0-0.9,0c0,0-0.1,0.1-0.1,0.1C179.4,79.2,179.4,79.5,179.4,79.8z"/>
	<path d="M184.1,77.6c0.5,0,1,0,1.5,0c0,0,0.1,0.1,0.1,0.1c0,1.5,0,2.9,0,4.4c0,0.8,0,1.5,0,2.3c0,0.1,0,0.1-0.1,0.1
		c-0.4,0-0.9,0-1.3,0c-0.1,0-0.1,0-0.1-0.1c0-0.1,0-0.1,0-0.2c0-2.1,0-4.3,0-6.4C184.1,77.7,184.1,77.6,184.1,77.6z"/>
</g>
<polyline class="st1" points="159.8,69.6 159.8,81.5 165.5,81.5 "/>
<polyline class="st1" points="159.8,81.1 159.8,95.9 165.5,95.9 "/>
<g>
	<path d="M180.3,95.1c0,1.3-0.9,2.6-2.2,3c-0.2,0-0.4,0-0.5,0c-0.4,0-0.8,0-1.2,0c-1.1,0-2-0.5-2.4-1.6c-0.8-2,0.3-4.2,2.6-4.5
		c1-0.1,1.9,0.1,2.7,0.7C179.9,93.2,180.3,94.1,180.3,95.1z M178.9,94.8c0-0.2,0-0.5-0.1-0.8c-0.2-0.8-0.6-1.3-1.4-1.5
		c-0.9-0.2-1.8,0.4-2.1,1.4c-0.3,0.8-0.3,1.7,0,2.5c0.2,0.7,0.6,1.1,1.3,1.3c0.7,0.1,1.3-0.1,1.7-0.7
		C178.7,96.4,178.8,95.7,178.9,94.8z"/>
	<path d="M181.3,98c0-2,0-4,0-5.9c0.2,0,0.4,0,0.6,0c0.5,0,0.9,0,1.4,0c0.3,0,0.6,0,0.9,0c0.6,0.1,1.1,0.6,1.1,1.2
		c0.1,0.8-0.2,1.5-1.2,1.8c0,0-0.1,0-0.2,0.1c0.6,1,1.2,1.9,1.8,2.9c-0.5,0-1,0-1.5,0c-0.1,0-0.1-0.1-0.2-0.2
		c-0.5-0.8-0.9-1.6-1.4-2.4c0,0-0.1-0.1-0.1-0.2c0,0.2,0,0.3,0,0.4c0,0.7,0,1.4,0.1,2.1c0,0.1,0,0.2-0.2,0.2
		C182.1,98,181.7,98,181.3,98z M182.6,92.5c0,0.8,0,1.5,0,2.3c0,0.1,0.1,0.1,0.1,0.1c0.2,0,0.5,0,0.7-0.2c0.5-0.3,0.6-0.9,0.5-1.5
		c-0.1-0.4-0.3-0.6-0.6-0.6C183.1,92.6,182.9,92.6,182.6,92.5z"/>
	<path d="M186.6,98c0-2,0-3.9,0-5.9c0.2,0,0.3,0,0.5,0c0.5,0,1.1,0,1.6,0c0.3,0,0.5,0,0.8,0.1c0.9,0.2,1.3,0.9,1.1,1.8
		c-0.2,0.9-0.7,1.3-1.6,1.4c-0.3,0.1-0.6,0.1-0.9,0c-0.2,0-0.3,0.1-0.3,0.3c0,0.7,0.1,1.5,0.1,2.2c0,0,0,0,0,0.1
		C187.5,98,187,98,186.6,98z M187.9,93.8C187.9,93.8,187.9,93.8,187.9,93.8c0,0.3,0,0.7,0,1c0,0.1,0.1,0.2,0.1,0.2
		c0.5,0.1,1-0.2,1.1-0.7c0.1-0.2,0.1-0.5,0.1-0.7c0-0.7-0.4-1-1.1-1c-0.2,0-0.2,0.1-0.2,0.2C187.9,93.1,187.9,93.5,187.9,93.8z"/>
	<path d="M210.5,98c-0.3,0-0.6,0-0.9,0c-0.5,0-0.5,0-0.7-0.5c-0.1-0.4-0.3-0.7-0.4-1.1c0-0.1-0.1-0.1-0.2-0.1c-0.6,0-1.1,0-1.7,0
		c-0.2,0-0.2,0.1-0.3,0.2c-0.1,0.4-0.3,0.9-0.4,1.3c0,0.2-0.1,0.2-0.3,0.2c-0.2,0-0.4,0-0.6,0c0.1-0.3,0.2-0.6,0.4-0.9
		c0.6-1.5,1.2-3,1.9-4.5c0,0,0,0,0-0.1c0.1-0.2,0.1-0.4,0.2-0.5c0.1-0.1,0.4,0,0.5,0c0.1,0,0.1,0.1,0.1,0.1c0.6,1.5,1.2,3,1.7,4.6
		C210.1,97.1,210.3,97.6,210.5,98z M208.3,95.8c-0.3-0.7-0.5-1.4-0.8-2.1c-0.4,0.7-0.6,1.4-0.9,2.1
		C207.3,95.8,207.8,95.8,208.3,95.8z"/>
	<path d="M191.4,92.1c1.1,0,2.2,0,3.3,0c0,0.2,0,0.5,0,0.7c-0.6,0-1.3-0.1-1.9-0.1c0,0.2,0,0.5,0,0.7c0,0.3,0,0.7,0,1
		c0,0.2,0,0.2,0.2,0.2c0.5,0,1.1,0,1.6-0.1c0.1,0,0.2,0,0.2,0.1c0,0.2,0,0.4,0,0.6c-0.6,0-1.1,0-1.7-0.1c-0.2,0-0.3,0.1-0.3,0.3
		c0,0.6,0,1.1,0,1.7c0,0.2,0.1,0.3,0.3,0.3c0.6,0,1.1-0.1,1.7-0.1c0,0.2,0,0.4,0,0.5c0,0-0.1,0.1-0.1,0.1c-1,0-2.1,0-3.1,0
		c0,0-0.1,0-0.1,0c0-1,0-2,0-3C191.5,94.1,191.4,93.1,191.4,92.1z"/>
	<path d="M205,97.1c-0.1,0.2-0.1,0.5-0.2,0.7c0,0.1-0.1,0.2-0.2,0.2c-0.3,0.1-0.6,0.1-0.9,0.1c-0.3,0-0.7,0-1,0
		c-1,0.1-1.8-0.3-2.3-1.1c-0.6-0.8-0.6-1.7-0.4-2.6c0.3-1.3,1.1-2.1,2.5-2.3c0.8-0.2,1.7,0,2.5,0.2c0.2,0.1,0.2,0.1,0.1,0.3
		c-0.1,0.2-0.1,0.5-0.2,0.7c-0.1-0.1-0.2-0.3-0.4-0.4c-1.1-0.9-2.3-0.4-2.9,0.8c-0.4,0.8-0.4,1.7-0.1,2.6c0.5,1.3,1.9,1.8,3.1,1
		C204.6,97.2,204.8,97.1,205,97.1C204.9,97.1,204.9,97.1,205,97.1z"/>
	<path d="M198.5,93.3c-0.1-0.1-0.1-0.2-0.2-0.3c-0.4-0.6-1.2-0.7-1.7-0.2c-0.2,0.2-0.2,0.6,0,0.8c0.2,0.2,0.4,0.4,0.7,0.5
		c0.4,0.2,0.8,0.4,1.1,0.6c1,0.6,0.8,2.3,0,2.8c-0.4,0.3-0.8,0.4-1.3,0.3c-0.2,0-0.4,0-0.6,0c-0.3,0-0.6,0-0.9-0.1
		c-0.2,0-0.2-0.2-0.2-0.3c0.1-0.2,0.1-0.5,0.2-0.7c0-0.1,0.1-0.1,0.1-0.2c0,0,0.1,0.1,0.1,0.1c0.1,0.3,0.3,0.5,0.6,0.7
		c0.5,0.3,1.4,0.1,1.5-0.5c0.1-0.4,0-0.9-0.4-1.1c-0.4-0.2-0.8-0.4-1.3-0.7c-0.6-0.3-0.9-0.9-0.8-1.5c0-0.7,0.3-1.3,1-1.6
		c0.7-0.4,1.5-0.3,2.2,0.1c0.1,0,0.1,0.2,0.1,0.2C198.8,92.8,198.7,93,198.5,93.3C198.6,93.3,198.5,93.3,198.5,93.3z"/>
	<path d="M173.1,97c-0.1,0.2-0.1,0.5-0.2,0.7c0,0.1-0.1,0.2-0.2,0.2c-0.3,0.1-0.6,0.1-0.9,0.1c-0.3,0-0.7,0-1,0
		c-1,0.1-1.8-0.3-2.3-1.1c-0.6-0.8-0.6-1.7-0.4-2.6c0.3-1.3,1.1-2.1,2.5-2.3c0.8-0.2,1.7,0,2.5,0.2c0.2,0.1,0.2,0.1,0.1,0.3
		c-0.1,0.2-0.1,0.5-0.2,0.7c-0.1-0.1-0.2-0.3-0.4-0.4c-1.1-0.9-2.3-0.4-2.9,0.8c-0.4,0.8-0.4,1.7-0.1,2.6c0.5,1.3,1.9,1.8,3.1,1
		C172.7,97.2,172.9,97.1,173.1,97C173,97,173.1,97,173.1,97z"/>
</g>
<g>
	<path d="M208.3,113.1c0.1,0,0.1,0,0.2,0c0.3,0,0.5,0,0.8,0c0.1,0,0.1,0,0.2,0.1c0.1,0.2,0.4,0.3,0.6,0.4c0.1,0,0.2,0,0.4,0
		c0.5-0.1,0.8-0.5,0.8-0.9c0-0.1,0-0.2,0-0.3c0,0,0,0,0,0c-0.1,0-0.1,0-0.1,0.1c-0.6,0.5-1.6,0.4-2.2-0.1c-0.4-0.4-0.7-0.8-0.8-1.4
		c-0.1-0.6,0.1-1.2,0.4-1.7c0.4-0.5,0.9-0.7,1.5-0.7c0.6,0,1.1,0.1,1.7,0.1c0.1,0,0.3,0,0.4,0c0.1,0,0.1,0,0.1,0.1c0,0,0,0.1,0,0.1
		c0,1.2,0,2.5,0,3.7c0,0.5-0.1,1-0.4,1.4c-0.3,0.4-0.7,0.6-1.2,0.7c-0.4,0.1-0.8,0.1-1.2-0.1c-0.4-0.1-0.8-0.4-1.1-0.8
		C208.4,113.5,208.3,113.3,208.3,113.1z M210.3,109.4c-0.3,0-0.5,0.1-0.7,0.3c-0.4,0.4-0.5,1.2-0.1,1.7c0.4,0.5,1.1,0.5,1.5,0
		c0.4-0.4,0.4-1.1,0-1.6C210.9,109.5,210.6,109.4,210.3,109.4z"/>
	<path d="M169.5,108.4C169.5,108.4,169.5,108.4,169.5,108.4c0.9,0,1.7,0,2.6,0.1c0,0,0,0.1,0,0.1c0,1.2,0,2.5,0,3.7
		c0,0.3,0,0.5-0.1,0.8c-0.2,0.8-0.8,1.2-1.5,1.3c-0.2,0-0.4,0-0.7,0c0,0,0,0,0,0c-0.1,0-0.2,0-0.2,0c-0.4-0.1-0.7-0.2-1-0.5
		c-0.2-0.2-0.4-0.4-0.5-0.7c0-0.1,0-0.1,0-0.2c0.4,0,0.7,0,1.1,0c0.1,0.2,0.3,0.3,0.6,0.4c0,0,0.1,0,0.1,0c0.1,0,0.1,0,0.2,0
		c0.1,0,0.1,0,0.2,0c0.4-0.1,0.6-0.3,0.7-0.7c0.1-0.2,0.1-0.4,0.1-0.7c-0.3,0.2-0.6,0.4-0.9,0.4c-0.2,0-0.3,0-0.5,0
		c-0.8-0.1-1.4-0.7-1.6-1.6c-0.2-0.7,0-1.3,0.4-1.9c0.3-0.3,0.6-0.5,1-0.7C169.4,108.5,169.4,108.5,169.5,108.4z M170.2,111.6
		c0.2,0,0.4-0.2,0.5-0.3c0.4-0.5,0.4-1.2,0-1.7c-0.4-0.4-0.9-0.4-1.3-0.1c-0.4,0.3-0.5,0.7-0.4,1.2c0.1,0.5,0.3,0.8,0.8,0.9
		C169.9,111.7,170,111.7,170.2,111.6z"/>
	<path d="M196.9,110.5c0-0.6,0-1.2,0-1.8c0,0,0-0.1,0-0.1c0,0,0-0.1,0.1-0.1c0,0,0.1,0,0.1,0c0.5,0,0.9,0,1.4-0.1c0.2,0,0.5,0,0.7,0
		c0.3,0.1,0.6,0.2,0.8,0.4c0.1,0.1,0.1,0.1,0.2,0c0.6-0.6,1.7-0.6,2.3-0.1c0.3,0.3,0.4,0.6,0.5,0.9c0,0.2,0,0.3,0,0.5
		c0,0.7,0,1.4,0,2.1c0,0,0,0,0,0.1c0,0.1,0,0.1-0.1,0.1c-0.2,0-0.5,0-0.7,0c-0.2,0-0.2,0-0.2-0.2c0-0.7,0-1.4,0-2.1
		c0-0.1,0-0.2,0-0.3c-0.1-0.5-0.5-0.6-0.9-0.6c-0.4,0.1-0.6,0.4-0.6,0.8c0,0.7,0,1.4,0,2.2c0,0,0,0.1,0,0.1c0,0.1,0,0.1-0.1,0.1
		c-0.3,0-0.6,0-0.8,0c-0.1,0-0.1,0-0.1-0.1c0-0.1,0-0.3,0-0.4c0-0.6,0-1.2,0-1.8c0-0.1,0-0.2,0-0.3c-0.1-0.3-0.3-0.5-0.6-0.6
		c-0.4,0-0.7,0.1-0.8,0.5c-0.1,0.1-0.1,0.2-0.1,0.4c0,0.7,0,1.4,0,2.1c0,0,0,0.1,0,0.1c0,0.1,0,0.1-0.1,0.1c-0.3,0-0.6,0-0.9,0
		c-0.1,0-0.1,0-0.1-0.1c0-0.2,0-0.4,0-0.5C196.9,111.4,196.9,111,196.9,110.5z"/>
	<path d="M181.9,108.8c0-0.1,0-0.1,0-0.2c0-0.6,0-1.3,0-1.9c0.3,0,0.7,0,1,0c0,0.1,0,0.1,0,0.2c0,1.8,0,3.6,0,5.5
		c0,0.2,0,0.2-0.2,0.2c-0.3,0-0.6,0-0.8,0c-0.1,0-0.2,0-0.3,0c0,0,0,0,0,0c-0.4,0-0.8,0.1-1.1,0c-0.8-0.1-1.5-0.8-1.6-1.7
		c0-0.1,0-0.2,0-0.3c0,0,0,0,0-0.1c0-0.7,0.2-1.2,0.8-1.7c0.2-0.2,0.5-0.3,0.8-0.4c0.2,0,0.4,0,0.7,0
		C181.3,108.5,181.6,108.6,181.9,108.8C181.9,108.9,181.9,108.9,181.9,108.8z M180.7,111.6c0.1,0.1,0.2,0,0.4,0
		c0.4-0.1,0.6-0.3,0.8-0.6c0.1-0.4,0.1-0.7,0-1c-0.2-0.3-0.4-0.5-0.8-0.6c-0.4,0-0.7,0.1-0.9,0.4c-0.2,0.3-0.3,0.6-0.2,0.9
		C179.9,111.1,180.2,111.6,180.7,111.6z"/>
	<path d="M217,110.5c0,0.6,0,1.2,0,1.8c0,0,0,0.1,0,0.1c0,0.1,0,0.1-0.1,0.1c-0.2,0-0.4,0-0.6,0c-0.3,0-0.6,0-0.9,0.1
		c-0.3,0-0.6,0-0.9,0c-0.7-0.1-1.1-0.5-1.4-1.1c-0.1-0.3-0.2-0.6-0.2-0.9c0-0.8,0.4-1.6,1.2-2c0.2-0.1,0.4-0.1,0.6-0.1
		c0.3,0,0.7,0,1,0c0.4,0,0.8,0,1.1,0c0.1,0,0.1,0,0.1,0.1C217,109.3,217,109.9,217,110.5z M213.9,110.6c0,0.1,0,0.3,0.2,0.5
		c0.3,0.6,1.1,0.7,1.6,0.2c0.4-0.5,0.4-1,0-1.5c-0.3-0.5-1-0.6-1.4-0.2C214,109.8,213.9,110.2,213.9,110.6z"/>
	<path d="M184.6,110.9c0.1,0.3,0.4,0.7,0.9,0.8c0.3,0,0.6,0,0.8-0.2c0.3,0,0.7,0,1,0c0.1,0,0.1,0,0.2,0c-0.3,0.6-0.7,0.9-1.3,1.1
		c-0.1,0-0.1,0-0.2,0c0,0,0,0,0,0c-0.2,0-0.5,0-0.7,0c-0.8-0.1-1.6-0.8-1.7-1.7c-0.2-1.3,0.7-2.4,1.8-2.5c0.2,0,0.3,0,0.5,0
		c0.9,0.1,1.5,0.7,1.7,1.5c0.1,0.3,0.1,0.6,0.1,1c-0.1,0-0.1,0-0.2,0c-0.9,0-1.8,0-2.7,0C184.7,110.9,184.6,110.9,184.6,110.9z
		 M185.3,109.3c-0.4,0.1-0.7,0.4-0.7,0.7c0.2,0,1.8,0,1.9,0c0-0.3-0.3-0.6-0.7-0.7C185.6,109.3,185.5,109.3,185.3,109.3z"/>
	<path d="M207.6,111.4c-0.1,0.3-0.3,0.6-0.5,0.7c-0.7,0.6-1.9,0.6-2.6,0c-0.5-0.4-0.7-1-0.8-1.6c0-0.9,0.6-1.8,1.4-2
		c1-0.3,2.2,0.1,2.6,1.2c0.1,0.3,0.2,0.7,0.1,1.1c0,0.1,0,0.1-0.1,0.1c-0.3,0-0.6,0-0.9,0c-0.6,0-1.2,0-1.8,0c-0.1,0-0.1,0-0.2,0
		c0,0.1,0.1,0.2,0.1,0.4c0.4,0.5,1.1,0.6,1.5,0.2c0,0,0.1-0.1,0.1-0.1C206.8,111.4,207.2,111.4,207.6,111.4z M204.7,110.1
		c0,0,0.1,0,0.1,0c0.6,0,1.2,0,1.7,0c0,0,0,0,0.1,0c0.1,0,0.1,0,0.1-0.1c0,0,0-0.1,0-0.1c-0.3-0.7-1.2-0.8-1.7-0.3
		C204.8,109.7,204.7,109.9,204.7,110.1z"/>
	<path d="M174.2,112.6c-1-0.2-1.7-1.1-1.7-2.1c0-0.8,0.4-1.5,1.1-1.9c0.2-0.1,0.5-0.2,0.7-0.2c0.2,0,0.3,0,0.5,0c0.1,0,0.2,0,0.3,0
		c0.8,0.2,1.4,0.8,1.5,1.6c0.1,0.4,0.1,0.8-0.1,1.2c-0.3,0.8-0.8,1.2-1.6,1.4C174.7,112.6,174.5,112.6,174.2,112.6z M174.4,109.4
		c-0.3,0.1-0.5,0.2-0.6,0.5c-0.2,0.4-0.2,0.8,0,1.2c0.2,0.4,0.5,0.6,0.9,0.6c0.4,0,0.7-0.2,0.9-0.6c0.2-0.4,0.2-0.8,0-1.1
		c-0.1-0.3-0.3-0.5-0.7-0.6C174.6,109.3,174.5,109.3,174.4,109.4z"/>
	<path d="M192.3,110.6c0-0.7,0.2-1.2,0.7-1.7c0.4-0.3,0.8-0.5,1.3-0.5c0.8,0,1.5,0.3,1.9,1c0.4,0.8,0.4,1.7-0.2,2.4
		c-0.4,0.5-0.9,0.7-1.5,0.7c-0.9,0-1.6-0.5-1.9-1.3C192.3,111.1,192.3,110.8,192.3,110.6z M195.3,110.5c0-0.3-0.1-0.6-0.2-0.8
		c-0.3-0.5-1-0.5-1.4-0.1c-0.4,0.4-0.5,1.2-0.1,1.6c0.4,0.6,1.2,0.6,1.6,0C195.3,111,195.3,110.8,195.3,110.5z"/>
	<path d="M189.8,109.4c-0.4,0.1-0.6,0.4-0.6,0.8c0,0.8,0,1.6,0,2.3c-0.1,0-0.1,0-0.2,0c-0.3,0-0.6,0-0.8,0c0,0,0-0.1,0-0.1
		c0-1.3,0-2.5,0-3.8c0,0,0-0.1,0-0.1c0.3,0,0.6,0,0.9,0c0.1,0,0.1,0,0.2,0c0,0,0.1,0,0.1,0c0.1,0,0.2,0,0.2,0c0,0,0,0,0,0
		c0.1,0,0.2,0,0.3,0c0,0,0,0,0.1,0c0.2,0,0.3,0,0.5,0c0.1,0,0.2,0,0.3,0.1c0.5,0.1,0.8,0.5,0.9,0.9c0.1,0.2,0.1,0.5,0.1,0.7
		c0,0.7,0,1.5,0,2.2c0,0.1,0,0.2-0.2,0.2c-0.2,0-0.5,0-0.7,0c-0.2,0-0.2,0-0.2-0.2c0-0.7,0-1.4,0-2.1c0-0.1,0-0.2,0-0.3
		c-0.1-0.3-0.2-0.5-0.5-0.6C190.1,109.4,189.9,109.3,189.8,109.4z"/>
	<path d="M178.2,106.7c0,0.1,0,0.1,0,0.2c0,1.8,0,3.6,0,5.4c0,0.2,0,0.2-0.2,0.2c-0.2,0-0.5,0-0.7,0c-0.1,0-0.1,0-0.1-0.1
		c0,0,0,0,0,0c0-1.8,0-3.7,0-5.5c0,0,0-0.1,0-0.1C177.5,106.7,177.9,106.7,178.2,106.7z"/>
	<path d="M184.6,110.9c0-0.1,0.1,0,0.1,0c0.9,0,1.8,0,2.7,0c0.1,0,0.1,0,0.2,0c0,0.1-0.1,0-0.2,0c-0.7,0-1.3,0-2,0
		C185.1,110.9,184.9,110.9,184.6,110.9z"/>
	<path d="M172,108.5c-0.8,0-1.7-0.1-2.5-0.1c0.1,0,0.1,0,0.2,0c0.7,0,1.3,0,2,0.1c0.1,0,0.2,0,0.2,0C172,108.5,172,108.5,172,108.5z
		"/>
	<path d="M187.4,111.5c0-0.1-0.1,0-0.2,0c-0.3,0-0.7,0-1,0c0,0,0.1,0,0.1,0C186.7,111.4,187,111.4,187.4,111.5
		C187.4,111.4,187.5,111.4,187.4,111.5z"/>
	<path d="M180.4,112.6c0.4,0,0.8,0,1.1,0c-0.1,0.1-0.3,0-0.4,0c-0.2,0-0.4,0-0.5,0C180.6,112.6,180.5,112.6,180.4,112.6z"/>
	<path d="M169.1,113.1c-0.4,0-0.7,0-1.1,0c0,0,0,0,0.1,0C168.4,113.1,168.7,113.1,169.1,113.1C169.1,113.1,169.1,113.1,169.1,113.1z
		"/>
	<path d="M182.9,106.7c-0.3,0-0.7,0-1,0c0,0,0,0,0.1,0C182.3,106.7,182.6,106.7,182.9,106.7C182.9,106.7,182.9,106.7,182.9,106.7z"
		/>
	<path d="M189.2,108.5c-0.1,0-0.1,0-0.2,0c-0.3,0-0.6,0-0.9,0c0-0.1,0.1,0,0.1,0C188.6,108.5,188.9,108.5,189.2,108.5z"/>
	<path d="M188.2,112.5c0.3,0,0.6,0,0.8,0c0.1,0,0.1,0,0.2,0c0,0,0,0-0.1,0C188.8,112.5,188.5,112.5,188.2,112.5
		C188.2,112.5,188.2,112.5,188.2,112.5z"/>
	<path d="M178.2,106.7c-0.3,0-0.7,0-1,0c0,0,0,0,0.1,0C177.5,106.7,177.8,106.7,178.2,106.7C178.2,106.7,178.2,106.7,178.2,106.7z"
		/>
	<path d="M169.7,114.5c0.2,0,0.4,0,0.7,0C170.2,114.5,170,114.6,169.7,114.5z"/>
	<path d="M185.2,112.6c0.2,0,0.5,0,0.7,0C185.7,112.7,185.5,112.7,185.2,112.6z"/>
	<path d="M181,108.4c-0.2,0-0.4,0-0.7,0C180.6,108.4,180.8,108.4,181,108.4z"/>
	<path d="M174.2,112.6c0.2,0,0.4,0,0.6,0C174.7,112.7,174.5,112.7,174.2,112.6z"/>
	<path d="M190.4,108.4c-0.2,0-0.3,0-0.5,0C190.1,108.4,190.2,108.4,190.4,108.4z"/>
	<path d="M169.6,112.6c0.2,0,0.3,0,0.5,0C169.9,112.7,169.7,112.7,169.6,112.6z"/>
	<path d="M185.8,108.4c-0.2,0-0.3,0-0.5,0C185.5,108.4,185.7,108.4,185.8,108.4z"/>
	<path d="M174.8,108.4c-0.2,0-0.3,0-0.5,0C174.5,108.4,174.7,108.4,174.8,108.4z"/>
	<path d="M189.8,109.4c0.1-0.1,0.3-0.1,0.4,0C190.1,109.4,189.9,109.4,189.8,109.4z"/>
	<path d="M181.6,112.6c0.1,0,0.2,0,0.3,0C181.8,112.6,181.7,112.6,181.6,112.6z"/>
	<path d="M189.8,108.4c-0.1,0-0.2,0-0.3,0C189.6,108.4,189.7,108.4,189.8,108.4z"/>
	<path d="M169.5,114.5c0.1,0,0.2,0,0.2,0C169.7,114.5,169.6,114.5,169.5,114.5z"/>
	<path d="M189.5,108.4c-0.1,0-0.2,0-0.2,0C189.4,108.4,189.5,108.4,189.5,108.4z"/>
	<path d="M170.2,113.5c-0.1,0-0.1,0-0.2,0C170.1,113.5,170.2,113.5,170.2,113.5z"/>
	<path d="M185.9,112.6c0,0,0.1,0,0.2,0C186.1,112.6,186,112.6,185.9,112.6z"/>
	<path d="M178.8,110.5C178.8,110.5,178.8,110.6,178.8,110.5C178.8,110.6,178.8,110.5,178.8,110.5z"/>
	<path d="M169.5,108.4c0,0-0.1,0-0.1,0C169.4,108.4,169.4,108.4,169.5,108.4z"/>
	<path d="M169.8,113.5c0,0-0.1,0-0.1,0C169.8,113.5,169.8,113.5,169.8,113.5z"/>
	<path d="M181.9,108.8C181.9,108.9,181.9,108.9,181.9,108.8C181.9,108.8,181.9,108.8,181.9,108.8z"/>
	<path d="M169.8,111.6c0.1,0,0.3,0,0.4,0C170,111.7,169.9,111.7,169.8,111.6z"/>
	<path d="M180.7,111.6c0.1,0,0.2,0,0.4,0C180.9,111.7,180.8,111.7,180.7,111.6z"/>
	<path d="M185.8,109.3c-0.2,0-0.3,0-0.5,0C185.5,109.3,185.6,109.3,185.8,109.3z"/>
	<path d="M174.8,109.4c-0.1,0-0.3,0-0.4,0C174.5,109.3,174.6,109.3,174.8,109.4z"/>
</g>
<polyline class="st1" points="159.8,95.9 159.8,110.9 165.5,110.9 "/>
<g>
	<path d="M242.7,47.1c0.3,0,0.4,0.1,0.4,0.4c0,0.3-0.1,0.5-0.4,0.4c-0.3,0-0.5-0.2-0.5-0.4C242.2,47.3,242.4,47.1,242.7,47.1z"/>
	<g>
		<path d="M280.8,58.2c0-1,0.1-1.8,0.6-2.6c0.5-0.9,1.2-1.5,2.3-1.8c1.3-0.3,2.5-0.3,3.6,0.5c0.5,0.3,0.9,0.8,1.2,1.3
			c0.5,1,0.6,2,0.5,3.1c-0.1,1.1-0.5,2-1.4,2.7c-1,0.8-2.1,1.1-3.3,0.9c-1.6-0.2-2.6-1.1-3.1-2.6C280.9,59.3,280.7,58.7,280.8,58.2z
			 M282.3,58c0.1,0.7,0.1,1.4,0.5,2c0.5,0.7,1.1,1.2,1.9,1.2c1.1,0.1,2-0.7,2.4-1.7c0.2-0.7,0.4-1.3,0.2-2c-0.1-0.6-0.2-1.1-0.5-1.6
			c-0.8-1.5-2.9-1.5-3.8-0.3C282.6,56.3,282.4,57.1,282.3,58z"/>
		<path d="M261.1,58.3c-0.9,0-1.8,0-2.6,0c-0.2,0-0.3,0-0.3,0.3c0.1,0.6,0.2,1.1,0.5,1.5c0.3,0.4,0.8,0.7,1.2,0.8
			c0.8,0.3,1.6,0.2,2.4,0.1c0.2,0,0.4-0.1,0.7-0.2c0.2-0.1,0.3-0.1,0.4,0.2c0,0.2,0.1,0.4,0.1,0.6c0.1,0.2,0,0.3-0.2,0.4
			c-1,0.3-2.1,0.4-3.1,0.4c-1.3,0-2.7-1.1-3.2-2.5c-0.3-0.9-0.4-1.8-0.2-2.7c0.2-1.2,0.8-2.2,1.6-2.8c1.2-1,3.5-1,4.6,0
			c0.6,0.6,1,1.4,1.1,2.2c0.1,0.5,0.1,0.9,0.1,1.4c0,0.2-0.1,0.3-0.4,0.3C262.9,58.3,262,58.3,261.1,58.3
			C261.1,58.3,261.1,58.3,261.1,58.3z M260.5,57.1C260.5,57.1,260.5,57.1,260.5,57.1c0.6,0,1.3,0,1.9,0c0.2,0,0.3-0.1,0.3-0.3
			c-0.1-0.9-0.4-1.8-1.6-2.1c-0.9-0.2-1.6,0.1-2.2,0.8c-0.3,0.4-0.5,0.8-0.6,1.2c-0.1,0.3-0.1,0.3,0.3,0.3
			C259.2,57.1,259.8,57.1,260.5,57.1z"/>
		<path d="M273.3,62.2c-0.5,0-1,0-1.5,0c-0.1,0-0.1-0.1-0.1-0.2c0-0.1,0-0.1,0-0.2c0-2.5,0-5.1,0-7.6c0-0.1,0-0.2,0-0.2
			c-0.1-0.3,0-0.3,0.3-0.3c0.3,0,0.6,0,0.9,0c0.2,0,0.2,0.1,0.2,0.2c0,0.3,0,0.7,0,1c0.2-0.1,0.3-0.2,0.4-0.3c1-1.1,2.7-1.4,4-0.7
			c0.9,0.5,1.3,1.4,1.4,2.4c0.1,1.8,0,3.6,0.1,5.5c0,0.3-0.1,0.4-0.4,0.4c-0.3,0-0.6,0-1,0c-0.2,0-0.3,0-0.3-0.3c0-1.6,0-3.1,0-4.7
			c0-0.5-0.1-1.1-0.4-1.5c-0.7-1.2-2.3-1-3-0.1c-0.4,0.4-0.5,0.9-0.6,1.5c-0.1,0.6,0,1.1,0,1.7c0,0.8,0,1.6,0,2.4
			C273.3,61.5,273.2,61.9,273.3,62.2z"/>
		<path d="M235.6,58.7c0-1,0-2,0-3c0-0.6-0.1-1.2-0.1-1.8c0-0.2,0-0.3,0.2-0.2c0.3,0,0.6,0,1,0c0.2,0,0.2,0.1,0.2,0.2
			c0,0.3,0,0.5,0,0.8c0,0.1-0.1,0.2,0.1,0.2c0.1,0,0.1,0,0.2-0.1c0.2-0.2,0.4-0.4,0.6-0.6c0.8-0.5,1.6-0.7,2.5-0.5
			c0.6,0.1,1.1,0.3,1.6,0.8c0.5,0.5,0.7,1.1,0.8,1.8c0.2,1.9,0.1,3.8,0.1,5.7c0,0.2-0.1,0.3-0.3,0.3c-0.3,0-0.6,0-1,0
			c-0.4,0-0.4-0.1-0.4-0.4c0.1-1.5,0-3,0-4.5c0-0.5-0.1-1.1-0.4-1.6c-0.3-0.4-0.6-0.7-1.2-0.7c-0.3,0-0.6-0.1-1,0
			c-0.9,0.3-1.6,1.2-1.5,2.2c0.1,1,0,2.1,0,3.1c0,0.3,0,0.5,0,0.8c0,0.3,0,0.6,0,0.8c0,0.2-0.1,0.3-0.3,0.3c-0.4,0-0.7,0-1.1,0
			c-0.2,0-0.3-0.1-0.3-0.3c0-0.5,0-1.1,0-1.6C235.6,59.8,235.6,59.3,235.6,58.7C235.6,58.7,235.6,58.7,235.6,58.7z"/>
		<path d="M247.9,60.5c0.2-0.6,0.3-1.1,0.5-1.6c0.2-0.6,0.4-1.2,0.7-1.8c0.4-1.1,0.8-2.2,1.1-3.3c0-0.1,0.1-0.2,0.2-0.2
			c0.4,0,0.8,0,1.2,0c0.2,0,0.2,0.2,0.2,0.3c-0.2,0.4-0.3,0.8-0.5,1.2c-0.7,1.7-1.3,3.4-2,5.1c-0.2,0.6-0.4,1.1-0.6,1.7
			c-0.1,0.1-0.1,0.2-0.3,0.2c-0.3,0-0.7,0-1,0c-0.2,0-0.3-0.1-0.4-0.3c-0.4-1-0.8-2-1.1-3c-0.4-1-0.8-2-1.1-3
			c-0.2-0.6-0.5-1.2-0.7-1.9c-0.1-0.2-0.1-0.3,0.2-0.3c0.4,0,0.8,0,1.2,0c0.1,0,0.2,0,0.2,0.1c0.4,1.2,0.8,2.5,1.3,3.7
			c0.3,0.8,0.6,1.7,0.8,2.5C247.8,60.2,247.8,60.4,247.9,60.5z"/>
		<path d="M266,58.1c0-1.2,0-2.4,0-3.6c0-0.2,0-0.3,0-0.5c-0.1-0.2,0-0.3,0.3-0.3c0.3,0,0.6,0,0.9,0c0.2,0,0.2,0.1,0.2,0.2
			c0,0.3,0,0.6,0,0.9c0,0.1-0.1,0.2,0.1,0.3c0.1,0,0.2-0.1,0.2-0.2c0.2-0.3,0.3-0.5,0.5-0.7c0.5-0.5,1-0.7,1.7-0.7
			c0.3,0,0.3,0.1,0.3,0.3c0,0.4,0,0.7,0,1.1c0,0.2-0.1,0.1-0.2,0.1c-0.2,0-0.5,0-0.7,0c-0.9,0.2-1.5,0.9-1.6,1.9
			c-0.1,0.4-0.1,0.7-0.1,1.1c0,1.3,0,2.6,0,3.9c0,0.2-0.1,0.3-0.3,0.3c-0.4,0-0.7,0-1.1,0c-0.2,0-0.2,0-0.2-0.2
			C266,60.7,266,59.4,266,58.1C266,58.1,266,58.1,266,58.1z"/>
		<path d="M254.1,53.8c0.8,0,0.8,0,0.8,0.8c0,2.5,0,4.9,0,7.4c0,0.3-0.1,0.4-0.4,0.4c-0.3,0-0.7,0-1,0c-0.2,0-0.2-0.1-0.2-0.2
			c0-0.5,0-1,0-1.5c0-1,0-2,0-3c0-0.5,0-0.9,0-1.4c0-0.7,0-1.5,0-2.2c0-0.1,0.1-0.2,0.2-0.2c0.2,0,0.3,0,0.5,0
			C253.9,53.8,254,53.8,254.1,53.8C254.1,53.8,254.1,53.8,254.1,53.8z"/>
		<path d="M231.5,58c0-1.3,0-2.7,0-4c0-0.2,0.1-0.3,0.3-0.3c0.3,0,0.7,0,1,0c0.2,0,0.3,0,0.3,0.3c0,2.6,0,5.3,0,7.9
			c0,0.2-0.1,0.3-0.3,0.3c-0.3,0-0.7,0-1.1,0c-0.2,0-0.2-0.1-0.2-0.2C231.5,60.7,231.5,59.3,231.5,58z"/>
		<path d="M235.6,50.7c0-0.6,0-1.1,0-1.7c0-0.3,0.2-0.3,0.4-0.3c0.2,0,0.4,0,0.3,0.3c0,0.1,0,0.1,0.1,0.1c0.1-0.1,0.2-0.1,0.3-0.2
			c0.6-0.4,1.4-0.4,1.9,0.2c0.1,0.2,0.2,0.2,0.4,0c0.3-0.5,0.8-0.5,1.3-0.5c0.4,0.1,0.7,0.4,0.9,0.8c0.1,0.3,0.2,0.6,0.2,0.9
			c0,0.7,0,1.4,0,2.1c0,0.2,0,0.2-0.2,0.2c-0.6,0-0.5,0.1-0.5-0.5c0-0.6,0-1.2,0-1.8c0-0.2,0-0.3-0.1-0.5c-0.1-0.4-0.4-0.7-0.8-0.7
			c-0.3,0-0.7,0.3-0.8,0.7c0,0.2-0.1,0.3-0.1,0.5c0,0.7,0,1.3,0,2c0,0.2-0.1,0.3-0.3,0.3c-0.1,0-0.2,0-0.2,0c-0.2,0-0.2-0.1-0.2-0.2
			c0-0.7,0-1.5,0-2.2c0-0.5-0.3-0.9-0.7-1c-0.4-0.1-0.8,0.2-1,0.7c-0.1,0.2-0.1,0.3-0.1,0.5c0,0.7,0,1.3,0,2c0,0.2-0.1,0.3-0.3,0.3
			c-0.1,0-0.2,0-0.2,0c-0.2,0-0.2-0.1-0.2-0.2C235.6,51.8,235.6,51.2,235.6,50.7C235.6,50.7,235.6,50.7,235.6,50.7z"/>
		<path d="M251.5,51.2c0,0.4,0,0.8,0,1.1c0,0.1,0.1,0.3-0.1,0.2c-0.2,0-0.4,0.1-0.5-0.1c-0.1-0.3-0.2-0.2-0.3-0.1
			c-0.4,0.2-0.8,0.4-1.3,0.2c-0.4-0.1-0.7-0.4-0.8-0.8c-0.1-0.5,0-1,0.5-1.3c0.4-0.3,0.9-0.4,1.4-0.4c0.2,0,0.4,0,0.5-0.1
			c0.1-0.2,0-0.4-0.2-0.6c-0.3-0.4-0.7-0.3-1.1-0.2c-0.1,0-0.3,0.1-0.4,0.1c-0.1,0-0.2,0.1-0.3-0.1c0-0.2-0.1-0.3,0.1-0.4
			c0.6-0.3,1.2-0.3,1.9-0.1c0.6,0.2,0.8,0.8,0.8,1.4C251.5,50.5,251.5,50.9,251.5,51.2C251.5,51.2,251.5,51.2,251.5,51.2z M250.8,51
			c0-0.1,0.1-0.3-0.1-0.4c-0.4-0.1-1.1,0.1-1.3,0.4c-0.2,0.2-0.2,0.5-0.1,0.8c0.1,0.2,0.3,0.3,0.5,0.3
			C250.4,52.1,250.8,51.8,250.8,51z"/>
		<path d="M244.2,50.7c0-0.6,0-1.1,0-1.7c0-0.2,0-0.3,0.2-0.3c0.2,0,0.4-0.1,0.4,0.2c0,0.1,0,0.2,0.1,0.2c0.1,0,0.1-0.1,0.2-0.1
			c0.4-0.4,0.9-0.5,1.5-0.3c0.5,0.1,0.8,0.6,0.9,1.1c0,0.1,0.1,0.3,0.1,0.4c0,0.8,0,1.5,0,2.3c0,0.2,0,0.2-0.2,0.2
			c-0.7,0-0.5,0.1-0.5-0.5c0-0.6,0-1.3,0-1.9c0-0.4-0.1-0.7-0.5-0.9c-0.7-0.3-1.4,0.2-1.4,0.9c0,0.7,0,1.4,0,2.1
			c0,0.2,0,0.3-0.3,0.3c-0.5,0-0.5,0-0.5-0.5C244.2,51.7,244.2,51.2,244.2,50.7C244.2,50.7,244.2,50.7,244.2,50.7z"/>
		<path d="M242.4,50.6c0-0.6,0-1.2,0-1.8c0-0.2,0-0.2,0.2-0.2c0.7,0,0.5-0.1,0.6,0.5c0,1.1,0,2.1,0,3.2c0,0.2-0.1,0.3-0.3,0.3
			c-0.1,0-0.1,0-0.2,0c-0.2,0-0.3,0-0.3-0.3C242.4,51.8,242.4,51.2,242.4,50.6z"/>
		<path d="M255,51.5c0,0.5-0.4,0.9-0.9,0.9c-0.5,0-1-0.4-1-1c0-0.5,0.5-1,1-1C254.6,50.5,255,50.7,255,51.5z"/>
		<path d="M232.2,52.4c-0.5,0.1-0.9-0.5-0.9-1c0-0.5,0.5-1,1-1c0.6,0,1,0.4,1,1C233.2,52.2,232.7,52.4,232.2,52.4z"/>
		<path d="M254.1,53.8C254.1,53.8,254.1,53.8,254.1,53.8c-0.1,0.1-0.2,0.1-0.1,0C254,53.8,254,53.8,254.1,53.8z"/>
	</g>
</g>
<g>
	<path d="M251,74c0.8,0,1.6,0,2.3,0c0.2,0,0.2,0.1,0.3,0.2c0.7,1,1.4,2,2.1,3c0.3,0.4,0.6,0.8,0.9,1.1c0.4,0.3,1.1,0.2,1.5-0.3
		c0.7-0.9,1.3-1.8,1.9-2.8c0.3-0.4,0.5-0.7,0.8-1.1c0.1-0.1,0.2-0.1,0.4-0.1c0.6,0,1.3,0,1.9,0c0.1,0,0.2-0.1,0.3,0.1
		c0,0.1,0,0.2-0.1,0.3c-0.5,0.7-1,1.3-1.4,2c-0.6,0.9-1.1,1.8-1.8,2.6c-0.3,0.4-0.3,0.6,0,1c0.6,0.8,1.2,1.6,1.7,2.5
		c0.5,0.7,1,1.5,1.5,2.2c0.1,0.2,0.1,0.3-0.2,0.3c-0.6,0-1.3,0-1.9,0c-0.4,0-0.5-0.3-0.7-0.5c-0.8-1.1-1.5-2.2-2.3-3.3
		c-0.2-0.4-0.6-0.5-1.1-0.6c-0.5,0-0.9,0.2-1.2,0.6c-0.8,1.2-1.6,2.3-2.4,3.5c-0.1,0.2-0.3,0.3-0.5,0.3c-0.6,0-1.2,0-1.7,0
		c-0.1,0-0.3,0.1-0.3-0.1c-0.1-0.1,0.1-0.2,0.1-0.3c0.8-1.2,1.6-2.4,2.4-3.5c0.3-0.4,0.5-0.9,0.9-1.2c0.2-0.2,0.1-0.4,0-0.6
		c-0.9-1.2-1.6-2.4-2.5-3.5C251.6,75.1,251.3,74.6,251,74z"/>
	<path d="M277.6,79.6c0-1.6,0-3.2,0-4.8c0-0.2-0.2-0.5,0-0.7c0.2-0.2,0.5-0.1,0.8-0.1c1.4,0,2.9,0,4.3,0c1,0,1.8,0.3,2.5,1
		c0.6,0.5,0.8,1.2,1,2c0.3,1-0.5,2.5-1.5,3c-0.5,0.3-0.5,0.3-0.2,0.8c0.8,1.3,1.6,2.5,2.4,3.8c0.1,0.2,0.1,0.3-0.2,0.3
		c-0.3,0-0.6,0-0.9,0c-0.7,0-1.1-0.3-1.4-0.8c-0.4-0.7-0.8-1.3-1.2-1.9c-0.5-0.8-1.3-1.2-2.2-1.3c-0.4,0-0.8-0.1-1.2,0
		c-0.2,0.1-0.4,0.2-0.4,0.5c0,0.7,0,1.5,0,2.2c0,0.7-0.4,1.3-1.3,1.3c-0.6,0-0.6,0-0.6-0.6C277.6,82.7,277.6,81.1,277.6,79.6z
		 M279.4,77.3C279.4,77.3,279.4,77.3,279.4,77.3c0,0.5,0,0.9,0,1.4c0,0.3,0.1,0.4,0.4,0.5c0.8,0.3,1.6,0.3,2.5,0.1
		c0.8-0.2,1.5-0.6,1.8-1.4c0.5-1.2-0.4-2.4-1.7-2.4c-0.9,0-1.8,0-2.7,0c-0.2,0-0.2,0.1-0.2,0.3C279.4,76.2,279.4,76.7,279.4,77.3z"
		/>
	<path d="M276.2,84.9c-0.5,0-1.1,0-1.6,0c-0.3,0-0.4-0.3-0.6-0.6c-0.5-1-1.3-1.7-2.3-2.2c-1-0.4-2.1-0.6-3.2-0.4
		c-0.7,0.1-1.3,0.6-1.7,1.2c-0.2,0.4-0.4,0.8-0.6,1.2c-0.2,0.4-0.5,0.7-1,0.7c-0.2,0-0.5,0-0.7,0c-0.4,0-0.4-0.1-0.3-0.4
		c0.2-0.5,0.5-1.1,0.7-1.6c0.6-1.4,1.3-2.7,1.9-4.1c0.4-0.9,0.9-1.8,1.2-2.7c0.2-0.6,0.7-1.2,0.9-1.8c0.1-0.2,0.3-0.2,0.4-0.2
		c0.5,0,0.9,0,1.4,0c0.2,0,0.3,0.1,0.4,0.3c0.5,1,0.9,2,1.4,3c1.1,2.4,2.3,4.8,3.4,7.3C276.1,84.7,276.1,84.8,276.2,84.9z
		 M272.2,80.6c0.1-0.1,0-0.2,0-0.3c-0.7-1.3-1.2-2.7-1.8-4c0-0.1,0-0.2-0.1-0.2c-0.1,0-0.1,0.1-0.2,0.2c-0.5,1-1,2-1.4,3
		c-0.2,0.5-0.2,0.5,0.3,0.5C270.1,79.8,271.2,79.9,272.2,80.6z"/>
	<path d="M235.4,74c0.7-0.2,1.1,0.1,1.4,0.8c0.6,1.4,1.2,2.7,1.8,4.1c0.8,1.9,1.7,3.8,2.6,5.6c0.1,0.2,0.2,0.4-0.2,0.3
		c-0.4,0-0.7,0-1.1,0c-0.3,0-0.5-0.1-0.6-0.4c-0.2-0.4-0.4-0.9-0.7-1.3c-0.5-1-1.3-1.4-2.3-1.4c-1.4-0.1-2.6,0.3-3.7,1.1
		c-0.5,0.4-0.9,0.8-1.1,1.4c-0.2,0.6-0.4,0.6-1,0.6c-0.3,0-0.6,0-0.9,0c-0.3,0-0.4,0-0.2-0.3c0.5-1.1,1-2.1,1.5-3.2
		c0.3-0.7,0.6-1.3,0.9-2c0.5-1,0.9-2,1.4-3c0.3-0.6,0.5-1.3,0.9-1.9c0.2-0.3,0.4-0.5,0.8-0.4C235.1,74,235.3,74,235.4,74z
		 M233.3,80.6c1.2-0.7,2.5-0.8,3.9-0.7c-0.6-1.2-1.1-2.4-1.6-3.6c0-0.1-0.1-0.1-0.1-0.1c-0.1,0-0.1,0.1-0.1,0.2
		c-0.4,0.8-0.7,1.6-1.1,2.3C233.9,79.3,233.6,79.9,233.3,80.6z"/>
	<path d="M242.5,78.3c0-1.3,0-2.6,0-3.9c0-0.3,0.1-0.4,0.4-0.4c0.4,0,0.8,0,1.2,0c0.3,0,0.4,0.1,0.4,0.4c0,2.3,0,4.7,0,7
		c0,0.4,0,0.8,0.3,1.2c0.3,0.4,0.8,0.6,1.3,0.6c1,0,2,0,3.1,0c0.4,0,0.7,0.1,1,0.3c0.3,0.1,0.5,0.9,0.3,1.2
		c-0.1,0.1-0.2,0.1-0.3,0.1c-1.7,0-3.4,0.1-5.1,0c-1.5-0.1-2.6-1.4-2.6-2.8C242.5,80.8,242.5,79.6,242.5,78.3z"/>
</g>
<path class="st2" d="M313.1-43.6c0-0.2,0-0.5,0-0.7C313.2-44.1,313.2-43.9,313.1-43.6z"/>
<path class="st2" d="M313.1-41.7c-0.1-0.1-0.1-0.1,0-0.2C313.2-41.8,313.2-41.7,313.1-41.7z"/>
<path class="st2" d="M313.1-40.7L313.1-40.7c-0.1-0.1,0-0.2,0-0.2C313.2-40.8,313.2-40.7,313.1-40.7z"/>
<g>
	<path d="M97.5,110.4c0-0.1,0-0.2,0-0.3c0-0.4,0.1-0.8,0.2-1.2c0.2-1,0.5-1.9,0.7-2.9c0-0.1,0-0.1,0.1-0.1c0.6,0,1.1,0,1.7,0
		c0,0,0.1,0,0.1,0c0,2,0,3.9,0,5.9c-0.4,0-0.8,0-1.2,0c0-1.7,0-3.4,0-5c-0.1,0.3-0.1,0.5-0.2,0.8c-0.3,1.2-0.6,2.4-0.9,3.7
		c0,0.2-0.1,0.3-0.1,0.5c0,0,0,0.1-0.1,0.1c-0.4,0-0.7,0-1.1,0c0,0,0,0,0,0c-0.1-0.3-0.1-0.6-0.2-0.9c-0.3-1.1-0.6-2.3-0.9-3.4
		c-0.1-0.3-0.1-0.5-0.2-0.8c0.1,1.7,0,3.3,0,5c-0.4,0-0.7,0-1.1,0c0-2,0-3.9,0-5.9c0.6,0,1.3,0,1.9,0c0,0.2,0.1,0.4,0.1,0.6
		c0.2,1,0.5,2,0.7,3C97.4,109.8,97.4,110.1,97.5,110.4z"/>
	<path d="M111.1,109.7c0-0.5,0.1-0.9,0.3-1.3c0.3-0.6,0.7-0.9,1.4-1c0.4-0.1,0.8,0,1.1,0.1c0.5,0.2,0.9,0.6,1.1,1.1
		c0.3,0.8,0.3,1.6-0.1,2.3c-0.3,0.6-0.7,0.9-1.4,1c-0.4,0.1-0.8,0-1.2-0.1c-0.5-0.2-0.9-0.6-1.1-1.1
		C111.1,110.4,111.1,110.1,111.1,109.7z M112.3,109.7c0,0.1,0,0.3,0,0.4c0,0.2,0.1,0.4,0.3,0.6c0.3,0.3,0.7,0.3,0.9,0
		c0.1-0.1,0.2-0.3,0.2-0.4c0.1-0.4,0.1-0.7,0-1.1c0-0.2-0.1-0.4-0.2-0.6c-0.3-0.3-0.7-0.3-0.9,0c-0.1,0.1-0.1,0.2-0.2,0.3
		C112.4,109.2,112.3,109.4,112.3,109.7z"/>
	<path d="M104.7,110.1c-0.8,0-1.6,0-2.5,0c0,0.1,0,0.1,0,0.2c0.1,0.4,0.4,0.6,0.8,0.7c0.4,0,0.8-0.1,1.2-0.3c0,0,0.1,0,0.1-0.1
		c0,0,0,0,0,0.1c0,0.3,0,0.6,0,0.9c0,0,0,0.1,0,0.1c-0.6,0.2-1.2,0.3-1.8,0.2c-0.7-0.2-1.1-0.6-1.3-1.2c-0.2-0.4-0.2-0.9-0.2-1.4
		c0-0.4,0.1-0.7,0.3-1.1c0.3-0.5,0.7-0.8,1.3-0.9c0.4,0,0.7,0,1,0.2c0.4,0.2,0.6,0.5,0.7,0.9c0.1,0.3,0.2,0.6,0.2,0.9
		C104.7,109.6,104.7,109.9,104.7,110.1C104.7,110.1,104.7,110.1,104.7,110.1z M103.6,109.3c0-0.2-0.1-0.5-0.2-0.7
		c-0.3-0.3-0.7-0.3-1,0c-0.1,0.1-0.1,0.3-0.2,0.4c0,0.1,0,0.2-0.1,0.3C102.7,109.3,103.1,109.3,103.6,109.3z"/>
	<path d="M118.6,110.2c-0.2,0-0.4,0-0.6,0c0-0.3,0-0.5,0-0.8c0.5,0,1.1,0,1.7,0c0,0,0,0.1,0,0.1c0,0.8,0,1.5,0,2.3
		c0,0.1,0,0.1-0.1,0.1c-0.7,0.2-1.4,0.2-2.1,0.1c-0.5-0.1-0.9-0.3-1.2-0.7c-0.2-0.3-0.3-0.6-0.4-1c-0.1-0.5-0.1-0.9,0.1-1.4
		c0.2-0.7,0.7-1.1,1.4-1.3c0.4-0.1,0.8-0.1,1.2-0.1c0.3,0,0.6,0.1,0.9,0.2c0,0,0,0,0,0c0,0.3-0.1,0.6-0.1,0.9
		c-0.1-0.1-0.2-0.1-0.4-0.2c-0.5-0.2-0.9-0.2-1.4,0c-0.5,0.2-0.7,0.6-0.8,1c-0.1,0.3,0,0.7,0.1,1c0.2,0.5,0.6,0.7,1.1,0.7
		c0.1,0,0.3,0,0.4,0c0,0,0,0,0,0C118.6,110.7,118.6,110.5,118.6,110.2z"/>
	<path d="M124.4,111.9C124.4,111.9,124.4,111.9,124.4,111.9c-0.4,0-0.8,0-1.1,0c0,0-0.1,0-0.1-0.1c-0.1-0.3-0.2-0.5-0.3-0.8
		c0,0,0-0.1-0.1-0.1c-0.5,0-1,0-1.5,0c-0.1,0-0.1,0-0.1,0.1c-0.1,0.3-0.2,0.5-0.3,0.8c0,0,0,0.1-0.1,0.1c-0.3,0-0.6,0-1,0
		c0,0,0,0-0.1,0c0,0,0,0,0-0.1c0.5-1.4,1-2.8,1.5-4.2c0-0.1,0-0.1,0.1-0.1c0.4,0,0.8,0,1.2,0c0.1,0,0.1,0,0.1,0.1
		C123.4,109,123.9,110.4,124.4,111.9C124.4,111.8,124.4,111.8,124.4,111.9z M122.7,110.1c-0.2-0.5-0.3-1.1-0.5-1.6c0,0,0,0,0,0
		c-0.2,0.5-0.4,1.1-0.5,1.6C122,110.1,122.3,110.1,122.7,110.1z"/>
	<path d="M107.7,108.6c-0.3,0-0.6,0-0.8,0c0,0,0,0,0,0.1c0,0.5,0,1,0,1.5c0,0.1,0,0.3,0,0.4c0.1,0.4,0.4,0.5,0.7,0.4
		c0,0,0.1,0,0.2,0c0,0.3,0,0.6,0,1c-0.1,0-0.2,0-0.3,0.1c-0.3,0-0.5,0-0.8,0c-0.4-0.1-0.7-0.4-0.8-0.8c-0.1-0.3-0.1-0.6-0.1-1
		c0-0.5,0-1,0-1.5c0,0,0-0.1,0-0.1c-0.2,0-0.4,0-0.7,0c0-0.4,0-0.7,0-1.1c0.2,0,0.5,0,0.7,0c0,0,0-0.1,0-0.1c0-0.3,0-0.6,0-0.9
		c0,0,0-0.1,0-0.1c0.3-0.1,0.7-0.3,1-0.4c0,0,0,0,0,0c0,0.5,0,1,0,1.5c0.3,0,0.6,0,0.9,0C107.7,107.9,107.7,108.2,107.7,108.6z"/>
	<path d="M127.3,108.5c-0.2,0-0.3-0.1-0.4-0.1c-0.3-0.1-0.5-0.1-0.8,0c-0.1,0-0.2,0.1-0.2,0.1c-0.2,0.1-0.2,0.4,0,0.5
		c0.1,0.1,0.2,0.1,0.2,0.1c0.2,0.1,0.5,0.2,0.7,0.2c0.1,0.1,0.3,0.1,0.4,0.2c0.3,0.2,0.5,0.5,0.5,0.8c0,0.3,0,0.6-0.2,0.9
		c-0.2,0.4-0.5,0.6-0.9,0.6c-0.4,0.1-0.9,0.1-1.3,0c-0.2,0-0.4-0.1-0.6-0.1c0-0.3,0.1-0.6,0.1-1c0.1,0,0.2,0.1,0.3,0.1
		c0.3,0.1,0.6,0.2,1,0.2c0.1,0,0.3-0.1,0.4-0.1c0.2-0.1,0.3-0.5,0-0.6c-0.2-0.1-0.3-0.1-0.5-0.2c-0.3-0.1-0.5-0.2-0.8-0.4
		c-0.3-0.2-0.4-0.5-0.5-0.9c0-0.3,0-0.5,0.2-0.8c0.2-0.3,0.5-0.5,0.8-0.6c0.3-0.1,0.7-0.1,1-0.1c0.3,0,0.5,0.1,0.8,0.1
		c0,0,0,0,0.1,0C127.4,107.9,127.4,108.2,127.3,108.5z"/>
	<path d="M108.3,111.9c0-1.4,0-2.9,0-4.3c0.4,0,0.7,0,1.1,0c0,0.3,0,0.5,0,0.8c0,0,0,0,0,0c0,0,0-0.1,0.1-0.1
		c0.1-0.2,0.2-0.4,0.3-0.5c0.3-0.2,0.6-0.3,0.9-0.2c0,0,0.1,0,0.1,0c0,0.4,0,0.8-0.1,1.3c-0.1-0.1-0.3-0.1-0.4-0.1
		c-0.3,0-0.5,0.1-0.6,0.4c-0.1,0.2-0.1,0.4-0.2,0.6c0,0.2,0,0.4,0,0.6c0,0.5,0,1,0,1.5c0,0,0,0.1,0,0.1
		C109.1,111.9,108.7,111.9,108.3,111.9z"/>
</g>
<g>
	<path d="M103.8,95.7c-0.3,0-0.6,0-0.9,0c-0.1,0-0.1,0-0.1-0.1c0-0.2,0-0.4,0-0.6c0-0.1,0-0.1,0.1-0.1c0.6,0,1.1,0,1.7,0
		c0.1,0,0.1,0,0.1,0.1c0,0.6,0,1.3,0,1.9c0,0.3-0.1,0.5-0.3,0.7c-0.1,0.1-0.3,0.1-0.5,0.2c-0.5,0.1-0.9,0.1-1.4,0.1
		c-0.7,0-1.4-0.3-1.9-0.8c-0.3-0.3-0.4-0.7-0.5-1c-0.1-0.5-0.1-1-0.1-1.5c0.1-0.5,0.3-1,0.6-1.4c0.5-0.5,1.2-0.8,1.9-0.9
		c0.6-0.1,1.1,0,1.7,0.1c0.1,0,0.1,0,0.1,0.1c0,0.2,0,0.5,0,0.7c0,0,0,0,0,0c-0.2,0-0.4-0.1-0.6-0.1c-0.5-0.1-1-0.1-1.5,0
		c-0.6,0.2-1,0.5-1.2,1.1c-0.2,0.6-0.2,1.2,0.1,1.8c0.2,0.5,0.6,0.7,1.1,0.8c0.5,0.1,0.9,0,1.4,0c0,0,0.1-0.1,0.1-0.1
		C103.8,96.5,103.8,96.1,103.8,95.7z"/>
	<path d="M114.1,97.7c0.1-0.4,0.2-0.7,0.4-1.1c0.2-0.5,0.4-1,0.5-1.6c0.2-0.7,0.5-1.4,0.7-2.1c0.1-0.3,0.3-0.6,0.7-0.6
		c0.4,0,0.7,0.1,0.8,0.4c0.1,0.1,0.1,0.3,0.2,0.4c0.4,1.1,0.8,2.3,1.2,3.4c0.1,0.3,0.2,0.7,0.3,1c0,0,0,0,0,0.1c0,0,0,0-0.1,0
		c-0.3,0-0.6,0-0.8,0c-0.1,0-0.1,0-0.2-0.1c-0.1-0.4-0.3-0.8-0.4-1.2c0-0.1,0-0.1-0.1-0.1c-0.6,0-1.1,0-1.7,0c-0.1,0-0.1,0-0.1,0.1
		c-0.1,0.4-0.2,0.8-0.4,1.2c0,0,0,0,0,0c0,0.1,0,0.1,0,0.1c0,0-0.1,0-0.2,0C114.7,97.7,114.4,97.7,114.1,97.7z M115.9,95.4
		c0.5,0,0.9,0,1.4,0c-0.2-0.7-0.4-1.4-0.7-2.1c0,0,0,0,0,0C116.3,94,116.1,94.7,115.9,95.4z"/>
	<path d="M99.7,97.7c-0.1,0-0.1,0-0.1,0c-0.3,0-0.5,0-0.8,0c-0.1,0-0.1,0-0.1-0.1c-0.1-0.4-0.3-0.8-0.4-1.3c0-0.1-0.1-0.1-0.2-0.1
		c-0.6,0-1.1,0-1.7,0c-0.1,0-0.1,0-0.2,0.1c-0.1,0.4-0.2,0.8-0.4,1.2c-0.1,0.2-0.1,0.2-0.3,0.2c-0.3,0-0.5,0-0.8,0c0,0,0-0.1,0-0.1
		c0.4-1.1,0.7-2.1,1.1-3.2c0.2-0.5,0.3-0.9,0.5-1.4c0.1-0.2,0.1-0.3,0.3-0.4c0.3-0.3,1-0.3,1.3,0.2c0.1,0.2,0.2,0.5,0.3,0.7
		c0.1,0.3,0.2,0.7,0.4,1c0.3,0.8,0.5,1.5,0.8,2.3C99.5,97.1,99.6,97.4,99.7,97.7z M97.9,95.4c-0.2-0.7-0.4-1.4-0.7-2.1c0,0,0,0,0,0
		c-0.2,0.7-0.4,1.4-0.7,2.1C97,95.4,97.5,95.4,97.9,95.4z"/>
	<path d="M109.1,94.6c0,0.2,0,0.5,0,0.7c0,0.1,0,0.1-0.1,0.1c-0.6,0-1.3,0-1.9,0c-0.1,0-0.1,0-0.1,0.1c0,0.4,0,0.9,0,1.3
		c0,0.1,0,0.1,0.1,0.1c0.5,0,1,0,1.5,0c0.3,0,0.6,0,0.9,0c0.1,0,0.1,0,0.1,0.1c0,0.2,0,0.4,0,0.6c0,0.1,0,0.1-0.1,0.1
		c-0.9,0-1.7,0-2.6,0c-0.2,0-0.3,0-0.5-0.1c-0.3-0.1-0.4-0.4-0.5-0.7c0-1.1,0-2.3,0-3.4c0-0.2,0-0.3,0-0.5c0.1-0.4,0.4-0.6,0.7-0.6
		c0.8,0,1.7,0,2.5,0c0.2,0,0.2,0,0.2,0.2c0,0.2,0,0.3,0,0.5c0,0.1,0,0.1-0.1,0.1c-0.7,0-1.5,0-2.2,0c-0.2,0-0.2,0-0.2,0.2
		c0,0.4,0,0.7,0,1.1c0,0.1,0,0.1,0.1,0.1c0.3,0,0.6,0,0.9,0C108.3,94.6,108.7,94.6,109.1,94.6C109,94.6,109.1,94.6,109.1,94.6z"/>
	<path d="M110.4,96.5c0.2,0.1,0.5,0.2,0.7,0.3c0.3,0.1,0.7,0.2,1,0.1c0.2,0,0.4-0.1,0.5-0.3c0.2-0.3,0.2-0.7-0.2-0.9
		c-0.2-0.1-0.4-0.2-0.6-0.3c-0.2-0.1-0.5-0.2-0.7-0.3c-0.8-0.4-0.9-1.5-0.5-2.1c0.3-0.4,0.6-0.5,1-0.6c0.5-0.1,1.1-0.1,1.6,0.1
		c0.1,0,0.1,0.1,0.1,0.2c0,0.2,0,0.4,0,0.6c0,0,0,0.1,0,0.1c-0.2-0.1-0.4-0.1-0.6-0.2c-0.3-0.1-0.6-0.1-1,0
		c-0.2,0.1-0.4,0.2-0.4,0.4c-0.1,0.2,0,0.4,0.2,0.6c0.2,0.1,0.4,0.2,0.6,0.3c0.2,0.1,0.5,0.2,0.7,0.3c0.5,0.2,0.7,0.6,0.8,1.1
		c0,0.2,0,0.5-0.1,0.7c-0.2,0.5-0.6,0.8-1,1c-0.6,0.2-1.2,0.1-1.8,0c-0.1,0-0.2-0.1-0.3-0.1c0,0-0.1-0.1-0.1-0.1
		C110.4,97.1,110.4,96.8,110.4,96.5z"/>
</g>
<g>
	<polyline class="st1" points="85.2,96.3 85.2,95.9 91,95.9 	"/>
	<polyline class="st1" points="85.2,95.9 85.2,110.9 91,110.9 	"/>
</g>
</svg>
