<?xml version="1.0" encoding="utf-8"?>
<!-- Generator: Adobe Illustrator 27.5.0, SVG Export Plug-In . SVG Version: 6.00 Build 0)  -->
<svg version="1.1" id="Capa_1" xmlns="http://www.w3.org/2000/svg" xmlns:xlink="http://www.w3.org/1999/xlink" x="0px" y="0px"
	 viewBox="0 0 300 150" style="enable-background:new 0 0 300 150;" xml:space="preserve">
<style type="text/css">
	.st0{enable-background:new    ;}
	.st1{fill:#999999;}
	.st2{fill:#006837;stroke:#999999;stroke-miterlimit:10;}
	.st3{fill:#666666;stroke:#999999;stroke-miterlimit:10;}
	.st4{fill:none;stroke:#999999;stroke-miterlimit:10;}
	.st5{fill:#D9E021;}
	.st6{fill:#8CC63F;}
	.st7{fill:#006837;}
</style>
<g class="st0">
	<path class="st1" d="M19.4,137.4c0.2,0.2,0.3,0.5,0.3,0.9v2.6c0,0.4-0.1,0.7-0.3,0.9s-0.5,0.3-0.9,0.3c-0.4,0-0.7-0.1-0.9-0.3
		s-0.3-0.5-0.3-0.9v-2.6c0-0.4,0.1-0.7,0.3-0.9s0.5-0.3,0.9-0.3C18.9,137.1,19.2,137.2,19.4,137.4z M18.2,137.9
		c-0.1,0.1-0.1,0.2-0.1,0.4v2.5c0,0.2,0,0.3,0.1,0.4c0.1,0.1,0.2,0.1,0.3,0.1s0.3,0,0.3-0.1c0.1-0.1,0.1-0.2,0.1-0.4v-2.5
		c0-0.2,0-0.3-0.1-0.4c-0.1-0.1-0.2-0.1-0.3-0.1S18.3,137.8,18.2,137.9z"/>
</g>
<g class="st0">
	<path class="st1" d="M7.6,117.3c0.2,0.2,0.3,0.5,0.3,0.8v0.2c0,0.2,0,0.5-0.1,0.7c-0.1,0.2-0.2,0.5-0.5,0.9l-0.8,1.3h1.4v0.7H5.7
		v-0.6l1.1-1.7c0.2-0.3,0.3-0.5,0.3-0.7c0.1-0.2,0.1-0.4,0.1-0.6v-0.1c0-0.3-0.1-0.5-0.4-0.5c-0.1,0-0.2,0-0.3,0.1
		c-0.1,0.1-0.1,0.2-0.1,0.4v0.2l-0.7,0v-0.3c0-0.4,0.1-0.6,0.3-0.8c0.2-0.2,0.5-0.3,0.8-0.3C7.2,117,7.4,117.1,7.6,117.3z"/>
	<path class="st1" d="M10.5,117.3c0.2,0.2,0.3,0.5,0.3,0.9v2.5c0,0.4-0.1,0.7-0.3,0.9c-0.2,0.2-0.5,0.3-0.9,0.3
		c-0.4,0-0.7-0.1-0.9-0.3c-0.2-0.2-0.3-0.5-0.3-0.9v-2.5c0-0.4,0.1-0.7,0.3-0.9c0.2-0.2,0.5-0.3,0.9-0.3
		C10,117,10.3,117.1,10.5,117.3z M9.3,117.8c-0.1,0.1-0.1,0.2-0.1,0.4v2.5c0,0.2,0,0.3,0.1,0.4c0.1,0.1,0.2,0.1,0.3,0.1
		s0.3,0,0.3-0.1c0.1-0.1,0.1-0.2,0.1-0.4v-2.5c0-0.2,0-0.3-0.1-0.4c-0.1-0.1-0.2-0.1-0.3-0.1S9.4,117.7,9.3,117.8z"/>
	<path class="st1" d="M13.5,117.3c0.2,0.2,0.3,0.5,0.3,0.9v2.5c0,0.4-0.1,0.7-0.3,0.9c-0.2,0.2-0.5,0.3-0.9,0.3
		c-0.4,0-0.7-0.1-0.9-0.3c-0.2-0.2-0.3-0.5-0.3-0.9v-2.5c0-0.4,0.1-0.7,0.3-0.9c0.2-0.2,0.5-0.3,0.9-0.3
		C13,117,13.3,117.1,13.5,117.3z M12.3,117.8c-0.1,0.1-0.1,0.2-0.1,0.4v2.5c0,0.2,0,0.3,0.1,0.4c0.1,0.1,0.2,0.1,0.3,0.1
		s0.3,0,0.3-0.1c0.1-0.1,0.1-0.2,0.1-0.4v-2.5c0-0.2,0-0.3-0.1-0.4c-0.1-0.1-0.2-0.1-0.3-0.1S12.4,117.7,12.3,117.8z"/>
	<path class="st1" d="M16.5,117.3c0.2,0.2,0.3,0.5,0.3,0.9v2.5c0,0.4-0.1,0.7-0.3,0.9c-0.2,0.2-0.5,0.3-0.9,0.3
		c-0.4,0-0.7-0.1-0.9-0.3c-0.2-0.2-0.3-0.5-0.3-0.9v-2.5c0-0.4,0.1-0.7,0.3-0.9c0.2-0.2,0.5-0.3,0.9-0.3
		C16,117,16.3,117.1,16.5,117.3z M15.3,117.8c-0.1,0.1-0.1,0.2-0.1,0.4v2.5c0,0.2,0,0.3,0.1,0.4c0.1,0.1,0.2,0.1,0.3,0.1
		c0.1,0,0.3,0,0.3-0.1c0.1-0.1,0.1-0.2,0.1-0.4v-2.5c0-0.2,0-0.3-0.1-0.4c-0.1-0.1-0.2-0.1-0.3-0.1
		C15.5,117.7,15.3,117.7,15.3,117.8z"/>
	<path class="st1" d="M19.5,117.3c0.2,0.2,0.3,0.5,0.3,0.9v2.5c0,0.4-0.1,0.7-0.3,0.9c-0.2,0.2-0.5,0.3-0.9,0.3
		c-0.4,0-0.7-0.1-0.9-0.3s-0.3-0.5-0.3-0.9v-2.5c0-0.4,0.1-0.7,0.3-0.9s0.5-0.3,0.9-0.3C19,117,19.2,117.1,19.5,117.3z M18.3,117.8
		c-0.1,0.1-0.1,0.2-0.1,0.4v2.5c0,0.2,0,0.3,0.1,0.4c0.1,0.1,0.2,0.1,0.3,0.1c0.1,0,0.3,0,0.3-0.1c0.1-0.1,0.1-0.2,0.1-0.4v-2.5
		c0-0.2,0-0.3-0.1-0.4c-0.1-0.1-0.2-0.1-0.3-0.1C18.4,117.7,18.3,117.7,18.3,117.8z"/>
</g>
<g class="st0">
	<path class="st1" d="M7.7,101.9H8v0.7H7.7v1H6.9v-1H5.4V102L7,98.8h0.7V101.9z M6.9,100.2l-0.8,1.7h0.8L6.9,100.2L6.9,100.2z"/>
	<path class="st1" d="M10.5,99.1c0.2,0.2,0.3,0.5,0.3,0.9v2.5c0,0.4-0.1,0.7-0.3,0.9c-0.2,0.2-0.5,0.3-0.9,0.3
		c-0.4,0-0.7-0.1-0.9-0.3c-0.2-0.2-0.3-0.5-0.3-0.9V100c0-0.4,0.1-0.7,0.3-0.9c0.2-0.2,0.5-0.3,0.9-0.3C10,98.8,10.3,98.9,10.5,99.1
		z M9.3,99.6c-0.1,0.1-0.1,0.2-0.1,0.4v2.5c0,0.2,0,0.3,0.1,0.4c0.1,0.1,0.2,0.1,0.3,0.1s0.3,0,0.3-0.1c0.1-0.1,0.1-0.2,0.1-0.4V100
		c0-0.2,0-0.3-0.1-0.4c-0.1-0.1-0.2-0.1-0.3-0.1S9.4,99.5,9.3,99.6z"/>
	<path class="st1" d="M13.5,99.1c0.2,0.2,0.3,0.5,0.3,0.9v2.5c0,0.4-0.1,0.7-0.3,0.9c-0.2,0.2-0.5,0.3-0.9,0.3
		c-0.4,0-0.7-0.1-0.9-0.3c-0.2-0.2-0.3-0.5-0.3-0.9V100c0-0.4,0.1-0.7,0.3-0.9c0.2-0.2,0.5-0.3,0.9-0.3C13,98.8,13.3,98.9,13.5,99.1
		z M12.3,99.6c-0.1,0.1-0.1,0.2-0.1,0.4v2.5c0,0.2,0,0.3,0.1,0.4c0.1,0.1,0.2,0.1,0.3,0.1s0.3,0,0.3-0.1c0.1-0.1,0.1-0.2,0.1-0.4
		V100c0-0.2,0-0.3-0.1-0.4c-0.1-0.1-0.2-0.1-0.3-0.1S12.4,99.5,12.3,99.6z"/>
	<path class="st1" d="M16.5,99.1c0.2,0.2,0.3,0.5,0.3,0.9v2.5c0,0.4-0.1,0.7-0.3,0.9c-0.2,0.2-0.5,0.3-0.9,0.3
		c-0.4,0-0.7-0.1-0.9-0.3c-0.2-0.2-0.3-0.5-0.3-0.9V100c0-0.4,0.1-0.7,0.3-0.9c0.2-0.2,0.5-0.3,0.9-0.3C16,98.8,16.3,98.9,16.5,99.1
		z M15.3,99.6c-0.1,0.1-0.1,0.2-0.1,0.4v2.5c0,0.2,0,0.3,0.1,0.4c0.1,0.1,0.2,0.1,0.3,0.1c0.1,0,0.3,0,0.3-0.1
		c0.1-0.1,0.1-0.2,0.1-0.4V100c0-0.2,0-0.3-0.1-0.4c-0.1-0.1-0.2-0.1-0.3-0.1C15.5,99.4,15.3,99.5,15.3,99.6z"/>
	<path class="st1" d="M19.5,99.1c0.2,0.2,0.3,0.5,0.3,0.9v2.5c0,0.4-0.1,0.7-0.3,0.9c-0.2,0.2-0.5,0.3-0.9,0.3
		c-0.4,0-0.7-0.1-0.9-0.3s-0.3-0.5-0.3-0.9V100c0-0.4,0.1-0.7,0.3-0.9s0.5-0.3,0.9-0.3C19,98.8,19.2,98.9,19.5,99.1z M18.3,99.6
		c-0.1,0.1-0.1,0.2-0.1,0.4v2.5c0,0.2,0,0.3,0.1,0.4c0.1,0.1,0.2,0.1,0.3,0.1c0.1,0,0.3,0,0.3-0.1c0.1-0.1,0.1-0.2,0.1-0.4V100
		c0-0.2,0-0.3-0.1-0.4c-0.1-0.1-0.2-0.1-0.3-0.1C18.4,99.4,18.3,99.5,18.3,99.6z"/>
</g>
<g class="st0">
	<path class="st1" d="M7.6,77.2c0.2,0.2,0.3,0.5,0.3,0.8v0.2l-0.7,0v-0.2c0-0.2,0-0.3-0.1-0.4c-0.1-0.1-0.2-0.1-0.3-0.1
		c-0.3,0-0.4,0.2-0.4,0.5v1h0c0.1-0.1,0.2-0.1,0.3-0.2c0.1,0,0.2-0.1,0.4-0.1c0.3,0,0.5,0.1,0.7,0.3c0.2,0.2,0.3,0.5,0.3,0.9v0.7
		c0,0.4-0.1,0.7-0.3,0.9c-0.2,0.2-0.5,0.3-0.9,0.3c-0.4,0-0.6-0.1-0.8-0.3c-0.2-0.2-0.3-0.5-0.3-0.9V78c0-0.4,0.1-0.6,0.3-0.9
		c0.2-0.2,0.5-0.3,0.8-0.3C7.1,76.9,7.4,77,7.6,77.2z M6.4,79.6c-0.1,0.1-0.1,0.2-0.1,0.4v0.6c0,0.2,0,0.3,0.1,0.4
		c0.1,0.1,0.2,0.1,0.3,0.1c0.1,0,0.3,0,0.3-0.1c0.1-0.1,0.1-0.2,0.1-0.4V80c0-0.2,0-0.3-0.1-0.4c-0.1-0.1-0.2-0.1-0.3-0.1
		C6.6,79.4,6.5,79.5,6.4,79.6z"/>
	<path class="st1" d="M10.5,77.2c0.2,0.2,0.3,0.5,0.3,0.9v2.5c0,0.4-0.1,0.7-0.3,0.9c-0.2,0.2-0.5,0.3-0.9,0.3
		c-0.4,0-0.7-0.1-0.9-0.3c-0.2-0.2-0.3-0.5-0.3-0.9v-2.5c0-0.4,0.1-0.7,0.3-0.9C9,77,9.3,76.9,9.6,76.9C10,76.9,10.3,77,10.5,77.2z
		 M9.3,77.7c-0.1,0.1-0.1,0.2-0.1,0.4v2.5c0,0.2,0,0.3,0.1,0.4c0.1,0.1,0.2,0.1,0.3,0.1s0.3,0,0.3-0.1c0.1-0.1,0.1-0.2,0.1-0.4v-2.5
		c0-0.2,0-0.3-0.1-0.4c-0.1-0.1-0.2-0.1-0.3-0.1S9.4,77.6,9.3,77.7z"/>
	<path class="st1" d="M13.5,77.2c0.2,0.2,0.3,0.5,0.3,0.9v2.5c0,0.4-0.1,0.7-0.3,0.9c-0.2,0.2-0.5,0.3-0.9,0.3
		c-0.4,0-0.7-0.1-0.9-0.3c-0.2-0.2-0.3-0.5-0.3-0.9v-2.5c0-0.4,0.1-0.7,0.3-0.9c0.2-0.2,0.5-0.3,0.9-0.3C13,76.9,13.3,77,13.5,77.2z
		 M12.3,77.7c-0.1,0.1-0.1,0.2-0.1,0.4v2.5c0,0.2,0,0.3,0.1,0.4c0.1,0.1,0.2,0.1,0.3,0.1s0.3,0,0.3-0.1c0.1-0.1,0.1-0.2,0.1-0.4
		v-2.5c0-0.2,0-0.3-0.1-0.4c-0.1-0.1-0.2-0.1-0.3-0.1S12.4,77.6,12.3,77.7z"/>
	<path class="st1" d="M16.5,77.2c0.2,0.2,0.3,0.5,0.3,0.9v2.5c0,0.4-0.1,0.7-0.3,0.9c-0.2,0.2-0.5,0.3-0.9,0.3
		c-0.4,0-0.7-0.1-0.9-0.3c-0.2-0.2-0.3-0.5-0.3-0.9v-2.5c0-0.4,0.1-0.7,0.3-0.9c0.2-0.2,0.5-0.3,0.9-0.3C16,76.9,16.3,77,16.5,77.2z
		 M15.3,77.7c-0.1,0.1-0.1,0.2-0.1,0.4v2.5c0,0.2,0,0.3,0.1,0.4c0.1,0.1,0.2,0.1,0.3,0.1c0.1,0,0.3,0,0.3-0.1
		c0.1-0.1,0.1-0.2,0.1-0.4v-2.5c0-0.2,0-0.3-0.1-0.4c-0.1-0.1-0.2-0.1-0.3-0.1C15.5,77.5,15.3,77.6,15.3,77.7z"/>
	<path class="st1" d="M19.5,77.2c0.2,0.2,0.3,0.5,0.3,0.9v2.5c0,0.4-0.1,0.7-0.3,0.9c-0.2,0.2-0.5,0.3-0.9,0.3
		c-0.4,0-0.7-0.1-0.9-0.3c-0.2-0.2-0.3-0.5-0.3-0.9v-2.5c0-0.4,0.1-0.7,0.3-0.9s0.5-0.3,0.9-0.3C19,76.9,19.2,77,19.5,77.2z
		 M18.3,77.7c-0.1,0.1-0.1,0.2-0.1,0.4v2.5c0,0.2,0,0.3,0.1,0.4c0.1,0.1,0.2,0.1,0.3,0.1c0.1,0,0.3,0,0.3-0.1
		c0.1-0.1,0.1-0.2,0.1-0.4v-2.5c0-0.2,0-0.3-0.1-0.4c-0.1-0.1-0.2-0.1-0.3-0.1C18.4,77.5,18.3,77.6,18.3,77.7z"/>
</g>
<g class="st0">
	<path class="st1" d="M7.6,56.8c0.2,0.2,0.3,0.5,0.3,0.9V58c0,0.5-0.2,0.8-0.5,0.9v0c0.4,0.2,0.6,0.5,0.6,1v0.4
		c0,0.4-0.1,0.7-0.3,0.9c-0.2,0.2-0.5,0.3-0.9,0.3s-0.7-0.1-0.9-0.3c-0.2-0.2-0.3-0.5-0.3-0.9v-0.4c0-0.5,0.2-0.9,0.6-1v0
		c-0.3-0.1-0.5-0.4-0.5-0.9v-0.3c0-0.4,0.1-0.7,0.3-0.9c0.2-0.2,0.5-0.3,0.9-0.3S7.4,56.6,7.6,56.8z M6.4,59.4
		c-0.1,0.1-0.1,0.2-0.1,0.4v0.4c0,0.2,0,0.3,0.1,0.4c0.1,0.1,0.2,0.1,0.3,0.1c0.1,0,0.3,0,0.3-0.1c0.1-0.1,0.1-0.2,0.1-0.4v-0.4
		c0-0.2,0-0.3-0.1-0.4c-0.1-0.1-0.2-0.1-0.3-0.1C6.6,59.3,6.5,59.3,6.4,59.4z M6.4,57.3c-0.1,0.1-0.1,0.2-0.1,0.4v0.3
		c0,0.2,0,0.3,0.1,0.4c0.1,0.1,0.2,0.1,0.3,0.1s0.2,0,0.3-0.1c0.1-0.1,0.1-0.2,0.1-0.4v-0.3c0-0.2,0-0.3-0.1-0.4
		c-0.1-0.1-0.2-0.1-0.3-0.1S6.5,57.3,6.4,57.3z"/>
	<path class="st1" d="M10.5,56.9c0.2,0.2,0.3,0.5,0.3,0.9v2.5c0,0.4-0.1,0.7-0.3,0.9c-0.2,0.2-0.5,0.3-0.9,0.3
		c-0.4,0-0.7-0.1-0.9-0.3c-0.2-0.2-0.3-0.5-0.3-0.9v-2.5c0-0.4,0.1-0.7,0.3-0.9c0.2-0.2,0.5-0.3,0.9-0.3
		C10,56.5,10.3,56.6,10.5,56.9z M9.3,57.3c-0.1,0.1-0.1,0.2-0.1,0.4v2.5c0,0.2,0,0.3,0.1,0.4c0.1,0.1,0.2,0.1,0.3,0.1s0.3,0,0.3-0.1
		c0.1-0.1,0.1-0.2,0.1-0.4v-2.5c0-0.2,0-0.3-0.1-0.4c-0.1-0.1-0.2-0.1-0.3-0.1S9.4,57.3,9.3,57.3z"/>
	<path class="st1" d="M13.5,56.9c0.2,0.2,0.3,0.5,0.3,0.9v2.5c0,0.4-0.1,0.7-0.3,0.9c-0.2,0.2-0.5,0.3-0.9,0.3
		c-0.4,0-0.7-0.1-0.9-0.3c-0.2-0.2-0.3-0.5-0.3-0.9v-2.5c0-0.4,0.1-0.7,0.3-0.9c0.2-0.2,0.5-0.3,0.9-0.3
		C13,56.5,13.3,56.6,13.5,56.9z M12.3,57.3c-0.1,0.1-0.1,0.2-0.1,0.4v2.5c0,0.2,0,0.3,0.1,0.4c0.1,0.1,0.2,0.1,0.3,0.1
		s0.3,0,0.3-0.1c0.1-0.1,0.1-0.2,0.1-0.4v-2.5c0-0.2,0-0.3-0.1-0.4c-0.1-0.1-0.2-0.1-0.3-0.1S12.4,57.3,12.3,57.3z"/>
	<path class="st1" d="M16.5,56.9c0.2,0.2,0.3,0.5,0.3,0.9v2.5c0,0.4-0.1,0.7-0.3,0.9c-0.2,0.2-0.5,0.3-0.9,0.3
		c-0.4,0-0.7-0.1-0.9-0.3c-0.2-0.2-0.3-0.5-0.3-0.9v-2.5c0-0.4,0.1-0.7,0.3-0.9c0.2-0.2,0.5-0.3,0.9-0.3
		C16,56.5,16.3,56.6,16.5,56.9z M15.3,57.3c-0.1,0.1-0.1,0.2-0.1,0.4v2.5c0,0.2,0,0.3,0.1,0.4c0.1,0.1,0.2,0.1,0.3,0.1
		s0.3,0,0.3-0.1c0.1-0.1,0.1-0.2,0.1-0.4v-2.5c0-0.2,0-0.3-0.1-0.4c-0.1-0.1-0.2-0.1-0.3-0.1S15.3,57.3,15.3,57.3z"/>
	<path class="st1" d="M19.5,56.9c0.2,0.2,0.3,0.5,0.3,0.9v2.5c0,0.4-0.1,0.7-0.3,0.9c-0.2,0.2-0.5,0.3-0.9,0.3
		c-0.4,0-0.7-0.1-0.9-0.3c-0.2-0.2-0.3-0.5-0.3-0.9v-2.5c0-0.4,0.1-0.7,0.3-0.9s0.5-0.3,0.9-0.3C19,56.5,19.2,56.6,19.5,56.9z
		 M18.3,57.3c-0.1,0.1-0.1,0.2-0.1,0.4v2.5c0,0.2,0,0.3,0.1,0.4c0.1,0.1,0.2,0.1,0.3,0.1c0.1,0,0.3,0,0.3-0.1
		c0.1-0.1,0.1-0.2,0.1-0.4v-2.5c0-0.2,0-0.3-0.1-0.4c-0.1-0.1-0.2-0.1-0.3-0.1C18.4,57.2,18.3,57.3,18.3,57.3z"/>
</g>
<g class="st0">
	<path class="st1" d="M4.7,42.1H4v-3.7H3v-0.5c0.3,0,0.6-0.1,0.8-0.2c0.2-0.1,0.4-0.2,0.4-0.4h0.5V42.1z"/>
	<path class="st1" d="M7.5,37.5c0.2,0.2,0.3,0.5,0.3,0.9v2.5c0,0.4-0.1,0.7-0.3,0.9C7.3,42,7,42.1,6.7,42.1c-0.4,0-0.7-0.1-0.9-0.3
		c-0.2-0.2-0.3-0.5-0.3-0.9v-2.5c0-0.4,0.1-0.7,0.3-0.9s0.5-0.3,0.9-0.3C7,37.2,7.3,37.3,7.5,37.5z M6.3,38
		c-0.1,0.1-0.1,0.2-0.1,0.4v2.5c0,0.2,0,0.3,0.1,0.4c0.1,0.1,0.2,0.1,0.3,0.1s0.3,0,0.3-0.1c0.1-0.1,0.1-0.2,0.1-0.4v-2.5
		c0-0.2,0-0.3-0.1-0.4c-0.1-0.1-0.2-0.1-0.3-0.1S6.4,37.9,6.3,38z"/>
	<path class="st1" d="M10.5,37.5c0.2,0.2,0.3,0.5,0.3,0.9v2.5c0,0.4-0.1,0.7-0.3,0.9c-0.2,0.2-0.5,0.3-0.9,0.3
		c-0.4,0-0.7-0.1-0.9-0.3c-0.2-0.2-0.3-0.5-0.3-0.9v-2.5c0-0.4,0.1-0.7,0.3-0.9c0.2-0.2,0.5-0.3,0.9-0.3
		C10,37.2,10.3,37.3,10.5,37.5z M9.3,38c-0.1,0.1-0.1,0.2-0.1,0.4v2.5c0,0.2,0,0.3,0.1,0.4c0.1,0.1,0.2,0.1,0.3,0.1s0.3,0,0.3-0.1
		c0.1-0.1,0.1-0.2,0.1-0.4v-2.5c0-0.2,0-0.3-0.1-0.4c-0.1-0.1-0.2-0.1-0.3-0.1S9.4,37.9,9.3,38z"/>
	<path class="st1" d="M13.5,37.5c0.2,0.2,0.3,0.5,0.3,0.9v2.5c0,0.4-0.1,0.7-0.3,0.9c-0.2,0.2-0.5,0.3-0.9,0.3
		c-0.4,0-0.7-0.1-0.9-0.3c-0.2-0.2-0.3-0.5-0.3-0.9v-2.5c0-0.4,0.1-0.7,0.3-0.9c0.2-0.2,0.5-0.3,0.9-0.3
		C13,37.2,13.3,37.3,13.5,37.5z M12.3,38c-0.1,0.1-0.1,0.2-0.1,0.4v2.5c0,0.2,0,0.3,0.1,0.4c0.1,0.1,0.2,0.1,0.3,0.1s0.3,0,0.3-0.1
		c0.1-0.1,0.1-0.2,0.1-0.4v-2.5c0-0.2,0-0.3-0.1-0.4c-0.1-0.1-0.2-0.1-0.3-0.1S12.4,37.9,12.3,38z"/>
	<path class="st1" d="M16.5,37.5c0.2,0.2,0.3,0.5,0.3,0.9v2.5c0,0.4-0.1,0.7-0.3,0.9c-0.2,0.2-0.5,0.3-0.9,0.3
		c-0.4,0-0.7-0.1-0.9-0.3c-0.2-0.2-0.3-0.5-0.3-0.9v-2.5c0-0.4,0.1-0.7,0.3-0.9c0.2-0.2,0.5-0.3,0.9-0.3
		C16,37.2,16.3,37.3,16.5,37.5z M15.3,38c-0.1,0.1-0.1,0.2-0.1,0.4v2.5c0,0.2,0,0.3,0.1,0.4c0.1,0.1,0.2,0.1,0.3,0.1
		c0.1,0,0.3,0,0.3-0.1c0.1-0.1,0.1-0.2,0.1-0.4v-2.5c0-0.2,0-0.3-0.1-0.4c-0.1-0.1-0.2-0.1-0.3-0.1C15.5,37.9,15.3,37.9,15.3,38z"/>
	<path class="st1" d="M19.5,37.5c0.2,0.2,0.3,0.5,0.3,0.9v2.5c0,0.4-0.1,0.7-0.3,0.9c-0.2,0.2-0.5,0.3-0.9,0.3
		c-0.4,0-0.7-0.1-0.9-0.3c-0.2-0.2-0.3-0.5-0.3-0.9v-2.5c0-0.4,0.1-0.7,0.3-0.9s0.5-0.3,0.9-0.3C19,37.2,19.2,37.3,19.5,37.5z
		 M18.3,38c-0.1,0.1-0.1,0.2-0.1,0.4v2.5c0,0.2,0,0.3,0.1,0.4c0.1,0.1,0.2,0.1,0.3,0.1c0.1,0,0.3,0,0.3-0.1c0.1-0.1,0.1-0.2,0.1-0.4
		v-2.5c0-0.2,0-0.3-0.1-0.4c-0.1-0.1-0.2-0.1-0.3-0.1C18.4,37.9,18.3,37.9,18.3,38z"/>
</g>
<g class="st0">
	<path class="st1" d="M5.1,22.1H4.4v-3.7h-1v-0.5c0.3,0,0.6-0.1,0.8-0.2c0.2-0.1,0.4-0.2,0.4-0.4h0.5V22.1z"/>
	<path class="st1" d="M7.6,17.5c0.2,0.2,0.3,0.5,0.3,0.8v0.2c0,0.2,0,0.5-0.1,0.7c-0.1,0.2-0.2,0.5-0.5,0.9l-0.8,1.3h1.4v0.7H5.7
		v-0.6l1.1-1.7c0.2-0.3,0.3-0.5,0.3-0.7c0.1-0.2,0.1-0.4,0.1-0.6v-0.1c0-0.3-0.1-0.5-0.4-0.5c-0.1,0-0.2,0-0.3,0.1
		c-0.1,0.1-0.1,0.2-0.1,0.4v0.2l-0.7,0v-0.3c0-0.4,0.1-0.6,0.3-0.8c0.2-0.2,0.5-0.3,0.8-0.3C7.2,17.2,7.4,17.3,7.6,17.5z"/>
	<path class="st1" d="M10.5,17.5c0.2,0.2,0.3,0.5,0.3,0.9v2.5c0,0.4-0.1,0.7-0.3,0.9c-0.2,0.2-0.5,0.3-0.9,0.3
		c-0.4,0-0.7-0.1-0.9-0.3c-0.2-0.2-0.3-0.5-0.3-0.9v-2.5c0-0.4,0.1-0.7,0.3-0.9c0.2-0.2,0.5-0.3,0.9-0.3
		C10,17.2,10.3,17.3,10.5,17.5z M9.3,18c-0.1,0.1-0.1,0.2-0.1,0.4v2.5c0,0.2,0,0.3,0.1,0.4c0.1,0.1,0.2,0.1,0.3,0.1s0.3,0,0.3-0.1
		c0.1-0.1,0.1-0.2,0.1-0.4v-2.5c0-0.2,0-0.3-0.1-0.4c-0.1-0.1-0.2-0.1-0.3-0.1S9.4,17.9,9.3,18z"/>
	<path class="st1" d="M13.5,17.5c0.2,0.2,0.3,0.5,0.3,0.9v2.5c0,0.4-0.1,0.7-0.3,0.9c-0.2,0.2-0.5,0.3-0.9,0.3
		c-0.4,0-0.7-0.1-0.9-0.3c-0.2-0.2-0.3-0.5-0.3-0.9v-2.5c0-0.4,0.1-0.7,0.3-0.9c0.2-0.2,0.5-0.3,0.9-0.3
		C13,17.2,13.3,17.3,13.5,17.5z M12.3,18c-0.1,0.1-0.1,0.2-0.1,0.4v2.5c0,0.2,0,0.3,0.1,0.4c0.1,0.1,0.2,0.1,0.3,0.1s0.3,0,0.3-0.1
		c0.1-0.1,0.1-0.2,0.1-0.4v-2.5c0-0.2,0-0.3-0.1-0.4c-0.1-0.1-0.2-0.1-0.3-0.1S12.4,17.9,12.3,18z"/>
	<path class="st1" d="M16.5,17.5c0.2,0.2,0.3,0.5,0.3,0.9v2.5c0,0.4-0.1,0.7-0.3,0.9c-0.2,0.2-0.5,0.3-0.9,0.3
		c-0.4,0-0.7-0.1-0.9-0.3c-0.2-0.2-0.3-0.5-0.3-0.9v-2.5c0-0.4,0.1-0.7,0.3-0.9c0.2-0.2,0.5-0.3,0.9-0.3
		C16,17.2,16.3,17.3,16.5,17.5z M15.3,18c-0.1,0.1-0.1,0.2-0.1,0.4v2.5c0,0.2,0,0.3,0.1,0.4c0.1,0.1,0.2,0.1,0.3,0.1
		c0.1,0,0.3,0,0.3-0.1c0.1-0.1,0.1-0.2,0.1-0.4v-2.5c0-0.2,0-0.3-0.1-0.4c-0.1-0.1-0.2-0.1-0.3-0.1C15.5,17.9,15.3,17.9,15.3,18z"/>
	<path class="st1" d="M19.5,17.5c0.2,0.2,0.3,0.5,0.3,0.9v2.5c0,0.4-0.1,0.7-0.3,0.9c-0.2,0.2-0.5,0.3-0.9,0.3
		c-0.4,0-0.7-0.1-0.9-0.3c-0.2-0.2-0.3-0.5-0.3-0.9v-2.5c0-0.4,0.1-0.7,0.3-0.9c0.2-0.2,0.5-0.3,0.9-0.3
		C19,17.2,19.2,17.3,19.5,17.5z M18.3,18c-0.1,0.1-0.1,0.2-0.1,0.4v2.5c0,0.2,0,0.3,0.1,0.4c0.1,0.1,0.2,0.1,0.3,0.1
		c0.1,0,0.3,0,0.3-0.1c0.1-0.1,0.1-0.2,0.1-0.4v-2.5c0-0.2,0-0.3-0.1-0.4c-0.1-0.1-0.2-0.1-0.3-0.1C18.4,17.9,18.3,17.9,18.3,18z"/>
</g>
<line class="st2" x1="22.8" y1="117.8" x2="26" y2="117.8"/>
<line class="st3" x1="22.8" y1="98.1" x2="26" y2="98.1"/>
<line class="st3" x1="22.8" y1="78.4" x2="26" y2="78.4"/>
<line class="st3" x1="22.8" y1="58.6" x2="26" y2="58.6"/>
<line class="st3" x1="22.8" y1="38.9" x2="26" y2="38.9"/>
<line class="st3" x1="22.6" y1="19" x2="25.7" y2="19"/>
<g class="st0">
	<path class="st1" d="M29.8,141.5c0.2,0.2,0.3,0.5,0.3,0.9v0.2c0,0.3-0.1,0.6-0.2,0.8c-0.1,0.3-0.3,0.6-0.5,1.1l-0.9,1.5h1.6v0.8
		h-2.6v-0.7l1.3-2c0.2-0.3,0.3-0.6,0.4-0.8c0.1-0.2,0.1-0.5,0.1-0.7v-0.1c0-0.4-0.2-0.6-0.5-0.6c-0.2,0-0.3,0.1-0.4,0.2
		c-0.1,0.1-0.1,0.3-0.1,0.5v0.3l-0.8,0v-0.4c0-0.4,0.1-0.7,0.3-1s0.5-0.3,1-0.3S29.5,141.2,29.8,141.5z"/>
	<path class="st1" d="M33.1,141.5c0.2,0.3,0.4,0.6,0.4,1v2.9c0,0.4-0.1,0.8-0.4,1c-0.2,0.3-0.6,0.4-1,0.4s-0.8-0.1-1-0.4
		c-0.2-0.3-0.4-0.6-0.4-1v-2.9c0-0.4,0.1-0.8,0.4-1c0.2-0.3,0.6-0.4,1-0.4S32.8,141.2,33.1,141.5z M31.7,142.1
		c-0.1,0.1-0.1,0.3-0.1,0.5v2.9c0,0.2,0,0.4,0.1,0.5c0.1,0.1,0.2,0.2,0.4,0.2c0.2,0,0.3-0.1,0.4-0.2s0.1-0.3,0.1-0.5v-2.9
		c0-0.2,0-0.4-0.1-0.5s-0.2-0.2-0.4-0.2C31.9,141.9,31.8,142,31.7,142.1z"/>
	<path class="st1" d="M36.6,141.5c0.2,0.3,0.4,0.6,0.4,1v2.9c0,0.4-0.1,0.8-0.4,1c-0.2,0.3-0.6,0.4-1,0.4s-0.8-0.1-1-0.4
		c-0.2-0.3-0.4-0.6-0.4-1v-2.9c0-0.4,0.1-0.8,0.4-1c0.2-0.3,0.6-0.4,1-0.4S36.3,141.2,36.6,141.5z M35.2,142.1
		c-0.1,0.1-0.1,0.3-0.1,0.5v2.9c0,0.2,0,0.4,0.1,0.5c0.1,0.1,0.2,0.2,0.4,0.2c0.2,0,0.3-0.1,0.4-0.2s0.1-0.3,0.1-0.5v-2.9
		c0-0.2,0-0.4-0.1-0.5s-0.2-0.2-0.4-0.2C35.4,141.9,35.3,142,35.2,142.1z"/>
	<path class="st1" d="M38,146.5c-0.2-0.2-0.3-0.6-0.3-1v-0.2l0.8,0v0.2c0,0.2,0,0.4,0.1,0.5c0.1,0.1,0.2,0.2,0.4,0.2
		c0.3,0,0.5-0.2,0.5-0.6v-1.2h0c-0.1,0.1-0.2,0.2-0.3,0.2c-0.1,0.1-0.3,0.1-0.4,0.1c-0.3,0-0.6-0.1-0.8-0.4s-0.3-0.6-0.3-1v-0.8
		c0-0.4,0.1-0.8,0.4-1c0.2-0.3,0.6-0.4,1-0.4c0.4,0,0.7,0.1,1,0.4c0.2,0.3,0.4,0.6,0.4,1v3c0,0.4-0.1,0.8-0.4,1s-0.6,0.4-1,0.4
		S38.2,146.8,38,146.5z M39.3,143.7c0.1-0.1,0.1-0.3,0.1-0.5v-0.7c0-0.2,0-0.4-0.1-0.5s-0.2-0.2-0.4-0.2c-0.2,0-0.3,0.1-0.4,0.2
		s-0.1,0.3-0.1,0.5v0.7c0,0.2,0,0.4,0.1,0.5s0.2,0.2,0.4,0.2C39.1,143.9,39.2,143.8,39.3,143.7z"/>
</g>
<g class="st0">
	<path class="st1" d="M55.9,141.5c0.2,0.2,0.3,0.5,0.3,0.9v0.2c0,0.3-0.1,0.6-0.2,0.8c-0.1,0.3-0.3,0.6-0.5,1.1l-0.9,1.5h1.6v0.8
		h-2.6v-0.7l1.3-2c0.2-0.3,0.3-0.6,0.4-0.8c0.1-0.2,0.1-0.5,0.1-0.7v-0.1c0-0.4-0.2-0.6-0.5-0.6c-0.2,0-0.3,0.1-0.4,0.2
		c-0.1,0.1-0.1,0.3-0.1,0.5v0.3l-0.8,0v-0.4c0-0.4,0.1-0.7,0.3-1s0.5-0.3,1-0.3S55.7,141.2,55.9,141.5z"/>
	<path class="st1" d="M59.2,141.5c0.2,0.3,0.4,0.6,0.4,1v2.9c0,0.4-0.1,0.8-0.4,1c-0.2,0.3-0.6,0.4-1,0.4s-0.8-0.1-1-0.4
		c-0.2-0.3-0.4-0.6-0.4-1v-2.9c0-0.4,0.1-0.8,0.4-1c0.2-0.3,0.6-0.4,1-0.4S59,141.2,59.2,141.5z M57.9,142.1
		c-0.1,0.1-0.1,0.3-0.1,0.5v2.9c0,0.2,0,0.4,0.1,0.5c0.1,0.1,0.2,0.2,0.4,0.2c0.2,0,0.3-0.1,0.4-0.2s0.1-0.3,0.1-0.5v-2.9
		c0-0.2,0-0.4-0.1-0.5s-0.2-0.2-0.4-0.2C58.1,141.9,57.9,142,57.9,142.1z"/>
	<path class="st1" d="M62.2,146.8h-0.8v-4.3h-1.2v-0.6c0.4,0,0.7-0.1,0.9-0.2c0.3-0.1,0.4-0.3,0.5-0.5h0.6V146.8z"/>
	<path class="st1" d="M65.4,141.5c0.2,0.3,0.4,0.6,0.4,1v2.9c0,0.4-0.1,0.8-0.4,1c-0.2,0.3-0.6,0.4-1,0.4s-0.8-0.1-1-0.4
		c-0.2-0.3-0.4-0.6-0.4-1v-2.9c0-0.4,0.1-0.8,0.4-1c0.2-0.3,0.6-0.4,1-0.4S65.2,141.2,65.4,141.5z M64,142.1
		c-0.1,0.1-0.1,0.3-0.1,0.5v2.9c0,0.2,0,0.4,0.1,0.5c0.1,0.1,0.2,0.2,0.4,0.2c0.2,0,0.3-0.1,0.4-0.2s0.1-0.3,0.1-0.5v-2.9
		c0-0.2,0-0.4-0.1-0.5s-0.2-0.2-0.4-0.2C64.2,141.9,64.1,142,64,142.1z"/>
</g>
<g class="st0">
	<path class="st1" d="M105.3,141.5c0.2,0.2,0.3,0.5,0.3,0.9v0.2c0,0.3-0.1,0.6-0.2,0.8c-0.1,0.3-0.3,0.6-0.5,1.1L104,146h1.6v0.8
		h-2.6v-0.7l1.3-2c0.2-0.3,0.3-0.6,0.4-0.8c0.1-0.2,0.1-0.5,0.1-0.7v-0.1c0-0.4-0.2-0.6-0.5-0.6c-0.2,0-0.3,0.1-0.4,0.2
		c-0.1,0.1-0.1,0.3-0.1,0.5v0.3l-0.8,0v-0.4c0-0.4,0.1-0.7,0.3-1s0.5-0.3,1-0.3S105.1,141.2,105.3,141.5z"/>
	<path class="st1" d="M108.7,141.5c0.2,0.3,0.4,0.6,0.4,1v2.9c0,0.4-0.1,0.8-0.4,1c-0.2,0.3-0.6,0.4-1,0.4s-0.8-0.1-1-0.4
		c-0.2-0.3-0.4-0.6-0.4-1v-2.9c0-0.4,0.1-0.8,0.4-1c0.2-0.3,0.6-0.4,1-0.4S108.4,141.2,108.7,141.5z M107.3,142.1
		c-0.1,0.1-0.1,0.3-0.1,0.5v2.9c0,0.2,0,0.4,0.1,0.5c0.1,0.1,0.2,0.2,0.4,0.2c0.2,0,0.3-0.1,0.4-0.2c0.1-0.1,0.1-0.3,0.1-0.5v-2.9
		c0-0.2,0-0.4-0.1-0.5s-0.2-0.2-0.4-0.2C107.5,141.9,107.3,142,107.3,142.1z"/>
	<path class="st1" d="M111.6,146.8h-0.8v-4.3h-1.2v-0.6c0.4,0,0.7-0.1,0.9-0.2c0.3-0.1,0.4-0.3,0.5-0.5h0.6V146.8z"/>
	<path class="st1" d="M114.5,141.5c0.2,0.2,0.3,0.5,0.3,0.9v0.2c0,0.3-0.1,0.6-0.2,0.8c-0.1,0.3-0.3,0.6-0.5,1.1l-0.9,1.5h1.6v0.8
		h-2.6v-0.7l1.3-2c0.2-0.3,0.3-0.6,0.4-0.8c0.1-0.2,0.1-0.5,0.1-0.7v-0.1c0-0.4-0.2-0.6-0.5-0.6c-0.2,0-0.3,0.1-0.4,0.2
		c-0.1,0.1-0.1,0.3-0.1,0.5v0.3l-0.8,0v-0.4c0-0.4,0.1-0.7,0.3-1s0.5-0.3,1-0.3S114.3,141.2,114.5,141.5z"/>
</g>
<g class="st0">
	<path class="st1" d="M130.8,141.5c0.2,0.2,0.3,0.5,0.3,0.9v0.2c0,0.3-0.1,0.6-0.2,0.8c-0.1,0.3-0.3,0.6-0.5,1.1l-0.9,1.5h1.6v0.8
		h-2.6v-0.7l1.3-2c0.2-0.3,0.3-0.6,0.4-0.8c0.1-0.2,0.1-0.5,0.1-0.7v-0.1c0-0.4-0.2-0.6-0.5-0.6c-0.2,0-0.3,0.1-0.4,0.2
		c-0.1,0.1-0.1,0.3-0.1,0.5v0.3l-0.8,0v-0.4c0-0.4,0.1-0.7,0.3-1s0.5-0.3,1-0.3S130.5,141.2,130.8,141.5z"/>
	<path class="st1" d="M134.1,141.5c0.2,0.3,0.4,0.6,0.4,1v2.9c0,0.4-0.1,0.8-0.4,1c-0.2,0.3-0.6,0.4-1,0.4s-0.8-0.1-1-0.4
		c-0.2-0.3-0.4-0.6-0.4-1v-2.9c0-0.4,0.1-0.8,0.4-1c0.2-0.3,0.6-0.4,1-0.4S133.8,141.2,134.1,141.5z M132.7,142.1
		c-0.1,0.1-0.1,0.3-0.1,0.5v2.9c0,0.2,0,0.4,0.1,0.5c0.1,0.1,0.2,0.2,0.4,0.2c0.2,0,0.3-0.1,0.4-0.2s0.1-0.3,0.1-0.5v-2.9
		c0-0.2,0-0.4-0.1-0.5s-0.2-0.2-0.4-0.2C132.9,141.9,132.8,142,132.7,142.1z"/>
	<path class="st1" d="M137,146.8h-0.8v-4.3H135v-0.6c0.4,0,0.7-0.1,0.9-0.2c0.3-0.1,0.4-0.3,0.5-0.5h0.6V146.8z"/>
	<path class="st1" d="M140.1,141.5c0.2,0.2,0.3,0.6,0.3,1v0.3c0,0.5-0.2,0.9-0.6,1v0c0.4,0.2,0.7,0.6,0.7,1.2v0.4
		c0,0.4-0.1,0.8-0.4,1c-0.2,0.2-0.6,0.4-1,0.4c-0.4,0-0.8-0.1-1-0.4c-0.2-0.2-0.4-0.6-0.4-1v-0.3l0.8,0v0.3c0,0.2,0,0.4,0.1,0.5
		c0.1,0.1,0.2,0.2,0.4,0.2c0.2,0,0.3-0.1,0.4-0.2c0.1-0.1,0.1-0.3,0.1-0.5V145c0-0.3,0-0.4-0.1-0.5c-0.1-0.1-0.3-0.2-0.5-0.2h-0.4
		v-0.8h0.4c0.2,0,0.3-0.1,0.4-0.2s0.1-0.3,0.1-0.5v-0.3c0-0.2,0-0.4-0.1-0.5s-0.2-0.2-0.4-0.2s-0.3,0.1-0.4,0.2
		c-0.1,0.1-0.1,0.3-0.1,0.5v0.3l-0.8,0v-0.3c0-0.4,0.1-0.8,0.3-1s0.6-0.4,1-0.4S139.8,141.2,140.1,141.5z"/>
</g>
<g class="st0">
	<path class="st1" d="M155.3,141.5c0.2,0.2,0.3,0.5,0.3,0.9v0.2c0,0.3-0.1,0.6-0.2,0.8c-0.1,0.3-0.3,0.6-0.5,1.1L154,146h1.6v0.8
		H153v-0.7l1.3-2c0.2-0.3,0.3-0.6,0.4-0.8c0.1-0.2,0.1-0.5,0.1-0.7v-0.1c0-0.4-0.2-0.6-0.5-0.6c-0.2,0-0.3,0.1-0.4,0.2
		c-0.1,0.1-0.1,0.3-0.1,0.5v0.3l-0.8,0v-0.4c0-0.4,0.1-0.7,0.3-1s0.5-0.3,1-0.3C154.8,141.1,155.1,141.2,155.3,141.5z"/>
	<path class="st1" d="M158.6,141.5c0.2,0.3,0.4,0.6,0.4,1v2.9c0,0.4-0.1,0.8-0.4,1c-0.2,0.3-0.6,0.4-1,0.4s-0.8-0.1-1-0.4
		c-0.2-0.3-0.4-0.6-0.4-1v-2.9c0-0.4,0.1-0.8,0.4-1c0.2-0.3,0.6-0.4,1-0.4S158.4,141.2,158.6,141.5z M157.2,142.1
		c-0.1,0.1-0.1,0.3-0.1,0.5v2.9c0,0.2,0,0.4,0.1,0.5c0.1,0.1,0.2,0.2,0.4,0.2s0.3-0.1,0.4-0.2s0.1-0.3,0.1-0.5v-2.9
		c0-0.2,0-0.4-0.1-0.5c-0.1-0.1-0.2-0.2-0.4-0.2S157.3,142,157.2,142.1z"/>
	<path class="st1" d="M161.5,146.8h-0.8v-4.3h-1.2v-0.6c0.4,0,0.7-0.1,0.9-0.2s0.4-0.3,0.5-0.5h0.6V146.8z"/>
	<path class="st1" d="M164.8,144.8h0.4v0.8h-0.4v1.2h-0.8v-1.2h-1.8v-0.7l1.8-3.7h0.8V144.8z M163.9,142.8l-0.9,2h0.9L163.9,142.8
		L163.9,142.8z"/>
</g>
<g class="st0">
	<path class="st1" d="M179,141.5c0.2,0.2,0.3,0.5,0.3,0.9v0.2c0,0.3-0.1,0.6-0.2,0.8c-0.1,0.3-0.3,0.6-0.5,1.1l-0.9,1.5h1.6v0.8
		h-2.6v-0.7l1.3-2c0.2-0.3,0.3-0.6,0.4-0.8c0.1-0.2,0.1-0.5,0.1-0.7v-0.1c0-0.4-0.2-0.6-0.5-0.6c-0.2,0-0.3,0.1-0.4,0.2
		c-0.1,0.1-0.1,0.3-0.1,0.5v0.3l-0.8,0v-0.4c0-0.4,0.1-0.7,0.3-1s0.5-0.3,1-0.3C178.4,141.1,178.8,141.2,179,141.5z"/>
	<path class="st1" d="M182.3,141.5c0.2,0.3,0.4,0.6,0.4,1v2.9c0,0.4-0.1,0.8-0.4,1c-0.2,0.3-0.6,0.4-1,0.4s-0.8-0.1-1-0.4
		c-0.2-0.3-0.4-0.6-0.4-1v-2.9c0-0.4,0.1-0.8,0.4-1c0.2-0.3,0.6-0.4,1-0.4S182.1,141.2,182.3,141.5z M180.9,142.1
		c-0.1,0.1-0.1,0.3-0.1,0.5v2.9c0,0.2,0,0.4,0.1,0.5s0.2,0.2,0.4,0.2c0.2,0,0.3-0.1,0.4-0.2s0.1-0.3,0.1-0.5v-2.9
		c0-0.2,0-0.4-0.1-0.5c-0.1-0.1-0.2-0.2-0.4-0.2C181.1,141.9,181,142,180.9,142.1z"/>
	<path class="st1" d="M185.2,146.8h-0.8v-4.3h-1.2v-0.6c0.4,0,0.7-0.1,0.9-0.2c0.3-0.1,0.4-0.3,0.5-0.5h0.6V146.8z"/>
	<path class="st1" d="M186.4,146.5c-0.2-0.2-0.4-0.6-0.4-1v-0.2l0.8,0v0.2c0,0.4,0.2,0.7,0.5,0.7c0.2,0,0.3-0.1,0.4-0.2
		c0.1-0.1,0.1-0.3,0.1-0.5v-0.9c0-0.2,0-0.4-0.1-0.5c-0.1-0.1-0.2-0.2-0.4-0.2c-0.1,0-0.3,0-0.3,0.1c-0.1,0.1-0.1,0.2-0.2,0.3l0,0.1
		l-0.8,0l0.2-3.2h2.3v0.8H187l-0.1,1.3h0c0.1-0.2,0.4-0.2,0.7-0.2c0.4,0,0.6,0.1,0.8,0.4c0.2,0.2,0.3,0.6,0.3,1v1.1
		c0,0.4-0.1,0.8-0.4,1c-0.2,0.2-0.6,0.4-1,0.4C186.9,146.9,186.6,146.8,186.4,146.5z"/>
</g>
<g class="st0">
	<path class="st1" d="M202.6,141.5c0.2,0.2,0.3,0.5,0.3,0.9v0.2c0,0.3-0.1,0.6-0.2,0.8c-0.1,0.3-0.3,0.6-0.5,1.1l-0.9,1.5h1.6v0.8
		h-2.6v-0.7l1.3-2c0.2-0.3,0.3-0.6,0.4-0.8c0.1-0.2,0.1-0.5,0.1-0.7v-0.1c0-0.4-0.2-0.6-0.5-0.6c-0.2,0-0.3,0.1-0.4,0.2
		c-0.1,0.1-0.1,0.3-0.1,0.5v0.3l-0.8,0v-0.4c0-0.4,0.1-0.7,0.3-1s0.5-0.3,1-0.3C202.1,141.1,202.4,141.2,202.6,141.5z"/>
	<path class="st1" d="M205.9,141.5c0.2,0.3,0.4,0.6,0.4,1v2.9c0,0.4-0.1,0.8-0.4,1c-0.2,0.3-0.6,0.4-1,0.4s-0.8-0.1-1-0.4
		c-0.2-0.3-0.4-0.6-0.4-1v-2.9c0-0.4,0.1-0.8,0.4-1c0.2-0.3,0.6-0.4,1-0.4S205.7,141.2,205.9,141.5z M204.6,142.1
		c-0.1,0.1-0.1,0.3-0.1,0.5v2.9c0,0.2,0,0.4,0.1,0.5s0.2,0.2,0.4,0.2c0.2,0,0.3-0.1,0.4-0.2s0.1-0.3,0.1-0.5v-2.9
		c0-0.2,0-0.4-0.1-0.5c-0.1-0.1-0.2-0.2-0.4-0.2C204.8,141.9,204.6,142,204.6,142.1z"/>
	<path class="st1" d="M208.9,146.8H208v-4.3h-1.2v-0.6c0.4,0,0.7-0.1,0.9-0.2c0.3-0.1,0.4-0.3,0.5-0.5h0.6V146.8z"/>
	<path class="st1" d="M212.1,141.5c0.2,0.2,0.3,0.6,0.3,1v0.2l-0.8,0v-0.2c0-0.2,0-0.4-0.1-0.5s-0.2-0.2-0.4-0.2
		c-0.3,0-0.5,0.2-0.5,0.6v1.2h0c0.1-0.1,0.2-0.2,0.3-0.2c0.1-0.1,0.3-0.1,0.4-0.1c0.3,0,0.6,0.1,0.8,0.4c0.2,0.2,0.3,0.6,0.3,1v0.8
		c0,0.4-0.1,0.8-0.4,1c-0.2,0.3-0.6,0.4-1,0.4c-0.4,0-0.7-0.1-1-0.4c-0.2-0.3-0.4-0.6-0.4-1v-3c0-0.4,0.1-0.8,0.4-1
		c0.2-0.2,0.6-0.4,1-0.4C211.5,141.1,211.8,141.2,212.1,141.5z M210.7,144.3c-0.1,0.1-0.1,0.3-0.1,0.5v0.7c0,0.2,0,0.4,0.1,0.5
		s0.2,0.2,0.4,0.2s0.3-0.1,0.4-0.2s0.1-0.3,0.1-0.5v-0.7c0-0.2,0-0.4-0.1-0.5s-0.2-0.2-0.4-0.2S210.8,144.2,210.7,144.3z"/>
</g>
<g class="st0">
	<path class="st1" d="M227.9,141.5c0.2,0.2,0.3,0.5,0.3,0.9v0.2c0,0.3-0.1,0.6-0.2,0.8c-0.1,0.3-0.3,0.6-0.5,1.1l-0.9,1.5h1.6v0.8
		h-2.6v-0.7l1.3-2c0.2-0.3,0.3-0.6,0.4-0.8c0.1-0.2,0.1-0.5,0.1-0.7v-0.1c0-0.4-0.2-0.6-0.5-0.6c-0.2,0-0.3,0.1-0.4,0.2
		c-0.1,0.1-0.1,0.3-0.1,0.5v0.3l-0.8,0v-0.4c0-0.4,0.1-0.7,0.3-1s0.5-0.3,1-0.3C227.3,141.1,227.6,141.2,227.9,141.5z"/>
	<path class="st1" d="M231.2,141.5c0.2,0.3,0.4,0.6,0.4,1v2.9c0,0.4-0.1,0.8-0.4,1c-0.2,0.3-0.6,0.4-1,0.4s-0.8-0.1-1-0.4
		c-0.2-0.3-0.4-0.6-0.4-1v-2.9c0-0.4,0.1-0.8,0.4-1c0.2-0.3,0.6-0.4,1-0.4S231,141.2,231.2,141.5z M229.8,142.1
		c-0.1,0.1-0.1,0.3-0.1,0.5v2.9c0,0.2,0,0.4,0.1,0.5s0.2,0.2,0.4,0.2c0.2,0,0.3-0.1,0.4-0.2s0.1-0.3,0.1-0.5v-2.9
		c0-0.2,0-0.4-0.1-0.5c-0.1-0.1-0.2-0.2-0.4-0.2C230,141.9,229.9,142,229.8,142.1z"/>
	<path class="st1" d="M234.1,146.8h-0.8v-4.3h-1.2v-0.6c0.4,0,0.7-0.1,0.9-0.2c0.3-0.1,0.4-0.3,0.5-0.5h0.6V146.8z"/>
	<path class="st1" d="M237.4,142l-1.6,4.8h-0.9l1.6-4.8h-1.8v-0.8h2.6V142z"/>
</g>
<g class="st0">
	<path class="st1" d="M252.3,141.5c0.2,0.2,0.3,0.5,0.3,0.9v0.2c0,0.3-0.1,0.6-0.2,0.8c-0.1,0.3-0.3,0.6-0.5,1.1L251,146h1.6v0.8
		H250v-0.7l1.3-2c0.2-0.3,0.3-0.6,0.4-0.8c0.1-0.2,0.1-0.5,0.1-0.7v-0.1c0-0.4-0.2-0.6-0.5-0.6c-0.2,0-0.3,0.1-0.4,0.2
		c-0.1,0.1-0.1,0.3-0.1,0.5v0.3l-0.8,0v-0.4c0-0.4,0.1-0.7,0.3-1s0.5-0.3,1-0.3C251.8,141.1,252.1,141.2,252.3,141.5z"/>
	<path class="st1" d="M255.6,141.5c0.2,0.3,0.4,0.6,0.4,1v2.9c0,0.4-0.1,0.8-0.4,1c-0.2,0.3-0.6,0.4-1,0.4s-0.8-0.1-1-0.4
		c-0.2-0.3-0.4-0.6-0.4-1v-2.9c0-0.4,0.1-0.8,0.4-1c0.2-0.3,0.6-0.4,1-0.4S255.4,141.2,255.6,141.5z M254.2,142.1
		c-0.1,0.1-0.1,0.3-0.1,0.5v2.9c0,0.2,0,0.4,0.1,0.5s0.2,0.2,0.4,0.2c0.2,0,0.3-0.1,0.4-0.2s0.1-0.3,0.1-0.5v-2.9
		c0-0.2,0-0.4-0.1-0.5c-0.1-0.1-0.2-0.2-0.4-0.2C254.5,141.9,254.3,142,254.2,142.1z"/>
	<path class="st1" d="M258.6,146.8h-0.8v-4.3h-1.2v-0.6c0.4,0,0.7-0.1,0.9-0.2c0.3-0.1,0.4-0.3,0.5-0.5h0.6V146.8z"/>
	<path class="st1" d="M261.7,141.5c0.2,0.2,0.4,0.6,0.4,1v0.3c0,0.5-0.2,0.9-0.6,1v0c0.4,0.2,0.7,0.6,0.7,1.2v0.4
		c0,0.4-0.1,0.8-0.4,1c-0.2,0.2-0.6,0.4-1,0.4s-0.8-0.1-1-0.4c-0.2-0.2-0.4-0.6-0.4-1v-0.4c0-0.6,0.2-1,0.7-1.2v0
		c-0.4-0.2-0.6-0.5-0.6-1v-0.3c0-0.4,0.1-0.8,0.4-1c0.2-0.2,0.6-0.4,1-0.4S261.5,141.2,261.7,141.5z M260.3,144.5
		c-0.1,0.1-0.1,0.3-0.1,0.5v0.5c0,0.2,0,0.4,0.1,0.5c0.1,0.1,0.2,0.2,0.4,0.2s0.3-0.1,0.4-0.2s0.1-0.3,0.1-0.5v-0.5
		c0-0.2,0-0.4-0.1-0.5s-0.2-0.2-0.4-0.2S260.4,144.4,260.3,144.5z M260.3,142.1c-0.1,0.1-0.1,0.3-0.1,0.4v0.4c0,0.2,0,0.3,0.1,0.4
		c0.1,0.1,0.2,0.2,0.4,0.2s0.3-0.1,0.4-0.2c0.1-0.1,0.1-0.3,0.1-0.4v-0.4c0-0.2,0-0.3-0.1-0.4c-0.1-0.1-0.2-0.2-0.4-0.2
		S260.4,142,260.3,142.1z"/>
</g>
<g class="st0">
	<path class="st1" d="M278.2,141.5c0.2,0.2,0.3,0.5,0.3,0.9v0.2c0,0.3-0.1,0.6-0.2,0.8c-0.1,0.3-0.3,0.6-0.5,1.1l-0.9,1.5h1.6v0.8
		H276v-0.7l1.3-2c0.2-0.3,0.3-0.6,0.4-0.8c0.1-0.2,0.1-0.5,0.1-0.7v-0.1c0-0.4-0.2-0.6-0.5-0.6c-0.2,0-0.3,0.1-0.4,0.2
		c-0.1,0.1-0.1,0.3-0.1,0.5v0.3l-0.8,0v-0.4c0-0.4,0.1-0.7,0.3-1s0.5-0.3,1-0.3C277.7,141.1,278,141.2,278.2,141.5z"/>
	<path class="st1" d="M281.6,141.5c0.2,0.3,0.4,0.6,0.4,1v2.9c0,0.4-0.1,0.8-0.4,1c-0.2,0.3-0.6,0.4-1,0.4s-0.8-0.1-1-0.4
		c-0.2-0.3-0.4-0.6-0.4-1v-2.9c0-0.4,0.1-0.8,0.4-1c0.2-0.3,0.6-0.4,1-0.4S281.3,141.2,281.6,141.5z M280.2,142.1
		c-0.1,0.1-0.1,0.3-0.1,0.5v2.9c0,0.2,0,0.4,0.1,0.5s0.2,0.2,0.4,0.2c0.2,0,0.3-0.1,0.4-0.2s0.1-0.3,0.1-0.5v-2.9
		c0-0.2,0-0.4-0.1-0.5c-0.1-0.1-0.2-0.2-0.4-0.2C280.4,141.9,280.3,142,280.2,142.1z"/>
	<path class="st1" d="M284.5,146.8h-0.8v-4.3h-1.2v-0.6c0.4,0,0.7-0.1,0.9-0.2c0.3-0.1,0.4-0.3,0.5-0.5h0.6V146.8z"/>
	<path class="st1" d="M285.7,146.5c-0.2-0.2-0.3-0.6-0.3-1v-0.2l0.8,0v0.2c0,0.2,0,0.4,0.1,0.5c0.1,0.1,0.2,0.2,0.4,0.2
		c0.3,0,0.5-0.2,0.5-0.6v-1.2h0c-0.1,0.1-0.2,0.2-0.3,0.2c-0.1,0.1-0.3,0.1-0.4,0.1c-0.3,0-0.6-0.1-0.8-0.4c-0.2-0.2-0.3-0.6-0.3-1
		v-0.8c0-0.4,0.1-0.8,0.4-1c0.2-0.3,0.6-0.4,1-0.4c0.4,0,0.7,0.1,1,0.4c0.2,0.3,0.4,0.6,0.4,1v3c0,0.4-0.1,0.8-0.4,1
		c-0.2,0.2-0.6,0.4-1,0.4C286.2,146.9,285.9,146.8,285.7,146.5z M287,143.7c0.1-0.1,0.1-0.3,0.1-0.5v-0.7c0-0.2,0-0.4-0.1-0.5
		c-0.1-0.1-0.2-0.2-0.4-0.2c-0.2,0-0.3,0.1-0.4,0.2c-0.1,0.1-0.1,0.3-0.1,0.5v0.7c0,0.2,0,0.4,0.1,0.5s0.2,0.2,0.4,0.2
		C286.8,143.9,286.9,143.8,287,143.7z"/>
</g>
<g class="st0">
	<path class="st1" d="M81.5,141.5c0.2,0.2,0.3,0.5,0.3,0.9v0.2c0,0.3-0.1,0.6-0.2,0.8c-0.1,0.3-0.3,0.6-0.5,1.1l-0.9,1.5h1.6v0.8
		h-2.6v-0.7l1.3-2c0.2-0.3,0.3-0.6,0.4-0.8c0.1-0.2,0.1-0.5,0.1-0.7v-0.1c0-0.4-0.2-0.6-0.5-0.6c-0.2,0-0.3,0.1-0.4,0.2
		c-0.1,0.1-0.1,0.3-0.1,0.5v0.3l-0.8,0v-0.4c0-0.4,0.1-0.7,0.3-1s0.5-0.3,1-0.3S81.3,141.2,81.5,141.5z"/>
	<path class="st1" d="M84.8,141.5c0.2,0.3,0.4,0.6,0.4,1v2.9c0,0.4-0.1,0.8-0.4,1c-0.2,0.3-0.6,0.4-1,0.4s-0.8-0.1-1-0.4
		c-0.2-0.3-0.4-0.6-0.4-1v-2.9c0-0.4,0.1-0.8,0.4-1c0.2-0.3,0.6-0.4,1-0.4S84.6,141.2,84.8,141.5z M83.5,142.1
		c-0.1,0.1-0.1,0.3-0.1,0.5v2.9c0,0.2,0,0.4,0.1,0.5c0.1,0.1,0.2,0.2,0.4,0.2c0.2,0,0.3-0.1,0.4-0.2s0.1-0.3,0.1-0.5v-2.9
		c0-0.2,0-0.4-0.1-0.5s-0.2-0.2-0.4-0.2C83.7,141.9,83.5,142,83.5,142.1z"/>
	<path class="st1" d="M87.8,146.8h-0.8v-4.3h-1.2v-0.6c0.4,0,0.7-0.1,0.9-0.2c0.3-0.1,0.4-0.3,0.5-0.5h0.6V146.8z"/>
	<path class="st1" d="M90.5,146.8h-0.8v-4.3h-1.2v-0.6c0.4,0,0.7-0.1,0.9-0.2c0.3-0.1,0.4-0.3,0.5-0.5h0.6V146.8z"/>
</g>
<polyline class="st4" points="23.1,19.1 23.1,137.7 290,137.7 "/>
<g>
	<rect x="26.5" y="40.1" class="st5" width="17.7" height="27.4"/>
	<rect x="26.5" y="66.2" class="st6" width="17.7" height="32"/>
	<rect x="26.5" y="98.2" class="st7" width="17.7" height="39.5"/>
</g>
<rect x="51.2" y="36.3" class="st5" width="17.7" height="29.4"/>
<rect x="51.2" y="65.7" class="st6" width="17.7" height="31.3"/>
<rect x="51.2" y="96.5" class="st7" width="17.7" height="41.2"/>
<g>
	<rect x="75.7" y="32" class="st5" width="17.7" height="29.8"/>
	<rect x="75.7" y="61.8" class="st6" width="17.7" height="34.7"/>
	<rect x="75.7" y="94.6" class="st7" width="17.7" height="43.1"/>
</g>
<g>
	<rect x="100.2" y="34" class="st5" width="17.7" height="30.1"/>
	<rect x="100.2" y="64.2" class="st6" width="17.7" height="32.6"/>
	<rect x="100.2" y="95.7" class="st7" width="17.7" height="41.9"/>
</g>
<g>
	<rect x="124.8" y="32.9" class="st5" width="17.7" height="30.4"/>
	<rect x="124.8" y="63.3" class="st6" width="17.7" height="32.5"/>
	<rect x="124.8" y="93.1" class="st7" width="17.7" height="44.6"/>
</g>
<g>
	<rect x="149.4" y="24.9" class="st5" width="17.7" height="30.1"/>
	<rect x="149.4" y="55" class="st6" width="17.7" height="35.1"/>
	<rect x="149.4" y="90.1" class="st7" width="17.7" height="47.6"/>
</g>
<g>
	<rect x="174" y="20.8" class="st5" width="17.7" height="29.8"/>
	<rect x="174" y="50.6" class="st6" width="17.7" height="36.7"/>
	<rect x="174" y="87.3" class="st7" width="17.7" height="50.4"/>
</g>
<g>
	<rect x="198.6" y="25.7" class="st5" width="17.7" height="29.5"/>
	<rect x="198.6" y="55.2" class="st6" width="17.7" height="36.1"/>
	<rect x="198.6" y="91.3" class="st7" width="17.7" height="46.4"/>
</g>
<g>
	<rect x="223.1" y="25.1" class="st5" width="17.7" height="29.5"/>
	<rect x="223.1" y="54.6" class="st6" width="17.7" height="35.8"/>
	<rect x="223.1" y="90.4" class="st7" width="17.7" height="47.3"/>
</g>
<g>
	<rect x="247.7" y="25.4" class="st5" width="17.7" height="29.5"/>
	<rect x="247.7" y="54.8" class="st6" width="17.7" height="35.1"/>
	<rect x="247.7" y="89.4" class="st7" width="17.7" height="48.3"/>
</g>
<g>
	<rect x="272.3" y="27.9" class="st5" width="17.7" height="28.7"/>
	<rect x="272.3" y="56.6" class="st6" width="17.7" height="33.3"/>
	<rect x="272.3" y="89.8" class="st7" width="17.7" height="47.8"/>
</g>
<g>
	<rect x="41" y="6" class="st7" width="5" height="5"/>
	<g>
		<path d="M48.7,7.2c0.2,0.2,0.2,0.4,0.2,0.7V8l-0.6,0.1V7.9c0-0.1,0-0.2-0.1-0.3S48.1,7.5,48,7.5s-0.2,0-0.2,0.1s-0.1,0.2-0.1,0.3
			v0.1c0,0.1,0,0.3,0.1,0.4c0.1,0.1,0.2,0.3,0.4,0.4c0.3,0.2,0.5,0.5,0.6,0.7c0.1,0.2,0.2,0.4,0.2,0.7v0.2c0,0.3-0.1,0.5-0.3,0.7
			s-0.4,0.2-0.7,0.2s-0.6-0.1-0.7-0.2S47,10.6,47,10.3V10l0.6-0.1v0.3c0,0.3,0.1,0.4,0.4,0.4c0.2,0,0.4-0.1,0.4-0.4v-0.1
			c0-0.1,0-0.3-0.1-0.4c-0.1-0.1-0.2-0.3-0.4-0.4c-0.3-0.2-0.5-0.5-0.6-0.7C47.1,8.4,47,8.2,47,8V7.9c0-0.3,0.1-0.5,0.2-0.7
			C47.4,7,47.7,6.9,48,6.9S48.5,7,48.7,7.2z"/>
		<path d="M50,11.2h-0.6V7H50V11.2z"/>
		<path d="M51.3,10.6h1.1v0.6h-1.7V7h0.6V10.6z"/>
		<path d="M53.9,11.2H53L52.3,7H53l0.5,3.2h0L53.9,7h0.6L53.9,11.2z"/>
		<path d="M55.7,11.2H55V7h0.6V11.2z"/>
		<path d="M58,7.2c0.2,0.2,0.3,0.4,0.3,0.7v0.4l-0.6,0V8c0-0.3-0.1-0.5-0.4-0.5c-0.1,0-0.2,0-0.3,0.1c-0.1,0.1-0.1,0.2-0.1,0.3v2.3
			c0,0.1,0,0.2,0.1,0.3c0.1,0.1,0.2,0.1,0.3,0.1c0.2,0,0.4-0.2,0.4-0.5V9.7l0.6,0v0.5c0,0.3-0.1,0.6-0.3,0.7
			c-0.2,0.2-0.4,0.3-0.7,0.3c-0.3,0-0.5-0.1-0.7-0.3c-0.2-0.2-0.3-0.4-0.3-0.7V7.9c0-0.3,0.1-0.6,0.3-0.7c0.2-0.2,0.4-0.3,0.7-0.3
			C57.6,6.9,57.8,7,58,7.2z"/>
		<path d="M60.7,10.3c0,0.3-0.1,0.6-0.3,0.7c-0.2,0.2-0.4,0.3-0.7,0.3c-0.3,0-0.5-0.1-0.7-0.3c-0.2-0.2-0.3-0.4-0.3-0.7V7h0.6v3.2
			c0,0.3,0.1,0.4,0.4,0.4c0.2,0,0.4-0.1,0.4-0.4V7h0.6V10.3z"/>
		<path d="M62,10.6h1.1v0.6h-1.7V7H62V10.6z"/>
		<path d="M64.9,7.6h-0.7v3.6h-0.6V7.6h-0.7V7h2V7.6z"/>
		<path d="M67.2,10.3c0,0.3-0.1,0.6-0.3,0.7c-0.2,0.2-0.4,0.3-0.7,0.3c-0.3,0-0.5-0.1-0.7-0.3c-0.2-0.2-0.3-0.4-0.3-0.7V7h0.6v3.2
			c0,0.3,0.1,0.4,0.4,0.4c0.2,0,0.4-0.1,0.4-0.4V7h0.6V10.3z"/>
		<path d="M69.3,11.2l-0.5-1.8h-0.3v1.8h-0.6V7h0.9c0.3,0,0.6,0.1,0.8,0.3c0.2,0.2,0.3,0.4,0.3,0.8v0.3c0,0.4-0.1,0.8-0.4,0.9
			l0.6,1.9H69.3z M68.5,7.6v1.2h0.3c0.2,0,0.3,0,0.3-0.1c0.1-0.1,0.1-0.2,0.1-0.4V8.1c0-0.2,0-0.3-0.1-0.4c-0.1-0.1-0.2-0.1-0.3-0.1
			H68.5z"/>
		<path d="M72.5,11.2h-0.6l-0.1-1H71l-0.1,1h-0.6L70.9,7h0.8L72.5,11.2z M71.3,7.9l-0.3,1.8h0.5L71.3,7.9L71.3,7.9z"/>
		<path d="M75,9.3v1.9h-0.6V9.3L73.5,7h0.7l0.5,1.5h0L75.2,7h0.7L75,9.3z"/>
		<path d="M78.9,7.6h-1.2v1.2h0.9v0.6h-0.9v1.2h1.2v0.6h-1.8V7h1.8V7.6z"/>
		<path d="M80.7,9l0.8,2.2h-0.7l-0.5-1.5h0l-0.5,1.5h-0.7L80,9l-0.8-2h0.7l0.5,1.3h0L80.8,7h0.7L80.7,9z"/>
		<path d="M83.6,7.6H83v3.6h-0.6V7.6h-0.7V7h2V7.6z"/>
		<path d="M85.5,11.2L85,9.4h-0.3v1.8H84V7H85c0.3,0,0.6,0.1,0.8,0.3C85.9,7.5,86,7.7,86,8.1v0.3c0,0.4-0.1,0.8-0.4,0.9l0.6,1.9
			H85.5z M84.7,7.6v1.2h0.3c0.2,0,0.3,0,0.3-0.1c0.1-0.1,0.1-0.2,0.1-0.4V8.1c0-0.2,0-0.3-0.1-0.4c-0.1-0.1-0.2-0.1-0.3-0.1H84.7z"
			/>
		<path d="M88.6,11.2H88l-0.1-1h-0.7l-0.1,1h-0.6L87.1,7h0.8L88.6,11.2z M87.5,7.9l-0.3,1.8h0.5L87.5,7.9L87.5,7.9z"/>
		<path d="M90.7,7.2C90.9,7.4,91,7.6,91,7.9v0.4l-0.6,0V8c0-0.3-0.1-0.5-0.4-0.5c-0.1,0-0.2,0-0.3,0.1c-0.1,0.1-0.1,0.2-0.1,0.3v2.3
			c0,0.1,0,0.2,0.1,0.3c0.1,0.1,0.2,0.1,0.3,0.1c0.2,0,0.4-0.2,0.4-0.5V9.7l0.6,0v0.5c0,0.3-0.1,0.6-0.3,0.7
			c-0.2,0.2-0.4,0.3-0.7,0.3c-0.3,0-0.5-0.1-0.7-0.3c-0.2-0.2-0.3-0.4-0.3-0.7V7.9c0-0.3,0.1-0.6,0.3-0.7C89.4,7,89.7,6.9,90,6.9
			C90.3,6.9,90.5,7,90.7,7.2z"/>
		<path d="M93.2,7.2c0.2,0.2,0.3,0.4,0.3,0.7v0.4l-0.6,0V8c0-0.3-0.1-0.5-0.4-0.5c-0.1,0-0.2,0-0.3,0.1c-0.1,0.1-0.1,0.2-0.1,0.3
			v2.3c0,0.1,0,0.2,0.1,0.3c0.1,0.1,0.2,0.1,0.3,0.1c0.2,0,0.4-0.2,0.4-0.5V9.7l0.6,0v0.5c0,0.3-0.1,0.6-0.3,0.7
			c-0.2,0.2-0.4,0.3-0.7,0.3c-0.3,0-0.5-0.1-0.7-0.3c-0.2-0.2-0.3-0.4-0.3-0.7V7.9c0-0.3,0.1-0.6,0.3-0.7c0.2-0.2,0.4-0.3,0.7-0.3
			C92.8,6.9,93,7,93.2,7.2z"/>
		<path d="M94.6,11.2H94V7h0.6V11.2z"/>
		<path d="M97,7.2c0.2,0.2,0.3,0.4,0.3,0.8v2.2c0,0.3-0.1,0.6-0.3,0.8c-0.2,0.2-0.4,0.3-0.8,0.3c-0.3,0-0.6-0.1-0.8-0.3
			s-0.3-0.4-0.3-0.8V8c0-0.3,0.1-0.6,0.3-0.8s0.4-0.3,0.8-0.3C96.6,6.9,96.8,7,97,7.2z M96,7.7c-0.1,0.1-0.1,0.2-0.1,0.4v2.2
			c0,0.2,0,0.3,0.1,0.4c0.1,0.1,0.2,0.1,0.3,0.1c0.1,0,0.2,0,0.3-0.1c0.1-0.1,0.1-0.2,0.1-0.4V8c0-0.2,0-0.3-0.1-0.4
			c-0.1-0.1-0.2-0.1-0.3-0.1C96.1,7.5,96,7.6,96,7.7z M96.4,6.8h-0.5l0.3-0.7h0.6L96.4,6.8z"/>
		<path d="M100,11.2h-0.6l-0.8-2.8h0v2.8h-0.6V7h0.7l0.8,2.5h0V7h0.6V11.2z"/>
	</g>
</g>
<g>
	<rect x="135" y="6" class="st6" width="5" height="5"/>
	<g>
		<path d="M142.8,11.1h-0.6V6.9h0.6V11.1z"/>
		<path d="M145.6,11.1h-0.6l-0.8-2.8h0v2.8h-0.6V6.9h0.7l0.8,2.5h0V6.9h0.6V11.1z"/>
		<path d="M147.9,7.2c0.2,0.2,0.3,0.4,0.3,0.8V10c0,0.3-0.1,0.6-0.3,0.8s-0.4,0.3-0.8,0.3h-0.9V6.9h0.9C147.5,6.9,147.8,7,147.9,7.2
			z M146.9,7.5v3h0.3c0.2,0,0.3,0,0.3-0.1c0.1-0.1,0.1-0.2,0.1-0.4V8c0-0.2,0-0.3-0.1-0.4c-0.1-0.1-0.2-0.1-0.3-0.1H146.9z"/>
		<path d="M150.8,10.2c0,0.3-0.1,0.6-0.3,0.7c-0.2,0.2-0.4,0.3-0.7,0.3c-0.3,0-0.5-0.1-0.7-0.3c-0.2-0.2-0.3-0.4-0.3-0.7V6.9h0.6
			v3.2c0,0.3,0.1,0.4,0.4,0.4c0.2,0,0.4-0.1,0.4-0.4V6.9h0.6V10.2z"/>
		<path d="M152.9,7.1c0.2,0.2,0.2,0.4,0.2,0.7v0.1L152.5,8V7.8c0-0.1,0-0.2-0.1-0.3c-0.1-0.1-0.1-0.1-0.2-0.1c-0.1,0-0.2,0-0.2,0.1
			c-0.1,0.1-0.1,0.2-0.1,0.3v0.1c0,0.1,0,0.3,0.1,0.4s0.2,0.3,0.4,0.4c0.3,0.2,0.5,0.5,0.6,0.7c0.1,0.2,0.2,0.4,0.2,0.7v0.2
			c0,0.3-0.1,0.5-0.3,0.7s-0.4,0.2-0.7,0.2c-0.3,0-0.6-0.1-0.7-0.2s-0.3-0.4-0.3-0.7V9.9l0.6-0.1v0.3c0,0.3,0.1,0.4,0.4,0.4
			c0.2,0,0.4-0.1,0.4-0.4V10c0-0.1,0-0.3-0.1-0.4c-0.1-0.1-0.2-0.3-0.4-0.4c-0.3-0.2-0.5-0.5-0.6-0.7c-0.1-0.2-0.2-0.4-0.2-0.7V7.8
			c0-0.3,0.1-0.5,0.2-0.7c0.2-0.2,0.4-0.2,0.7-0.2C152.5,6.8,152.7,6.9,152.9,7.1z"/>
		<path d="M155.3,7.5h-0.7v3.6H154V7.5h-0.7V6.9h2V7.5z"/>
		<path d="M157.1,11.1l-0.5-1.8h-0.3v1.8h-0.6V6.9h0.9c0.3,0,0.6,0.1,0.8,0.3c0.2,0.2,0.3,0.4,0.3,0.8v0.3c0,0.4-0.2,0.8-0.5,0.9
			l0.6,1.9H157.1z M156.3,7.5v1.2h0.3c0.2,0,0.3,0,0.3-0.1c0.1-0.1,0.1-0.2,0.1-0.4V8c0-0.2,0-0.3-0.1-0.4s-0.2-0.1-0.3-0.1H156.3z"
			/>
		<path d="M158.9,11.1h-0.6V6.9h0.6V11.1z"/>
		<path d="M161.6,11.1H161l-0.1-1h-0.7l-0.1,1h-0.6l0.7-4.2h0.8L161.6,11.1z M160.5,7.8l-0.3,1.8h0.5L160.5,7.8L160.5,7.8z"/>
		<path d="M164.8,7.2c0.2,0.2,0.3,0.4,0.3,0.8v0.3c0,0.3-0.1,0.6-0.3,0.8c-0.2,0.2-0.4,0.3-0.8,0.3h-0.3v1.7h-0.6V6.9h0.9
			C164.4,6.9,164.7,7,164.8,7.2z M163.8,7.5v1.3h0.3c0.2,0,0.3,0,0.3-0.1c0.1-0.1,0.1-0.2,0.1-0.4V8c0-0.2,0-0.3-0.1-0.4
			c-0.1-0.1-0.2-0.1-0.3-0.1H163.8z"/>
		<path d="M167,11.1l-0.5-1.8h-0.3v1.8h-0.6V6.9h0.9c0.3,0,0.6,0.1,0.8,0.3c0.2,0.2,0.3,0.4,0.3,0.8v0.3c0,0.4-0.2,0.8-0.5,0.9
			l0.6,1.9H167z M166.2,7.5v1.2h0.3c0.2,0,0.3,0,0.3-0.1c0.1-0.1,0.1-0.2,0.1-0.4V8c0-0.2,0-0.3-0.1-0.4s-0.2-0.1-0.3-0.1H166.2z"/>
		<path d="M168.8,11.1h-0.6V6.9h0.6V11.1z"/>
		<path d="M172.2,11.1h-0.6V8.2h0l-0.5,2.3h-0.4l-0.5-2.3h0v2.9h-0.6V6.9h0.8l0.5,2.3h0l0.5-2.3h0.9V11.1z"/>
		<path d="M174.9,11.1h-0.6l-0.1-1h-0.7l-0.1,1h-0.6l0.7-4.2h0.8L174.9,11.1z M173.7,7.8l-0.3,1.8h0.5L173.7,7.8L173.7,7.8z"/>
		<path d="M176.8,11.1l-0.5-1.8H176v1.8h-0.6V6.9h0.9c0.3,0,0.6,0.1,0.8,0.3c0.2,0.2,0.3,0.4,0.3,0.8v0.3c0,0.4-0.1,0.8-0.4,0.9
			l0.6,1.9H176.8z M176,7.5v1.2h0.3c0.2,0,0.3,0,0.3-0.1c0.1-0.1,0.1-0.2,0.1-0.4V8c0-0.2,0-0.3-0.1-0.4c-0.1-0.1-0.2-0.1-0.3-0.1
			H176z"/>
		<path d="M178.5,11.1h-0.6V6.9h0.6V11.1z"/>
		<path d="M181.3,11.1h-0.6l-0.1-1h-0.7l-0.1,1H179l0.7-4.2h0.8L181.3,11.1z M180.1,7.8l-0.3,1.8h0.5L180.1,7.8L180.1,7.8z"/>
	</g>
</g>
<g>
	<rect x="227" y="6" class="st5" width="5" height="5"/>
	<g>
		<path d="M234.3,11.1h-0.6V6.9h0.6V11.1z"/>
		<path d="M237,11.1h-0.6l-0.8-2.8h0v2.8H235V6.9h0.7l0.8,2.5h0V6.9h0.6V11.1z"/>
		<path d="M239.4,7.2c0.2,0.2,0.3,0.4,0.3,0.8V10c0,0.3-0.1,0.6-0.3,0.8c-0.2,0.2-0.4,0.3-0.8,0.3h-0.9V6.9h0.9
			C239,6.9,239.2,7,239.4,7.2z M238.4,7.5v3h0.3c0.2,0,0.3,0,0.3-0.1s0.1-0.2,0.1-0.4V8c0-0.2,0-0.3-0.1-0.4s-0.2-0.1-0.3-0.1H238.4
			z"/>
		<path d="M242.2,10.2c0,0.3-0.1,0.6-0.3,0.7c-0.2,0.2-0.4,0.3-0.7,0.3c-0.3,0-0.5-0.1-0.7-0.3c-0.2-0.2-0.3-0.4-0.3-0.7V6.9h0.6
			v3.2c0,0.3,0.1,0.4,0.4,0.4s0.4-0.1,0.4-0.4V6.9h0.6V10.2z"/>
		<path d="M244.3,7.1c0.2,0.2,0.2,0.4,0.2,0.7v0.1L244,8V7.8c0-0.1,0-0.2-0.1-0.3c-0.1-0.1-0.1-0.1-0.2-0.1c-0.1,0-0.2,0-0.2,0.1
			c-0.1,0.1-0.1,0.2-0.1,0.3v0.1c0,0.1,0,0.3,0.1,0.4c0.1,0.1,0.2,0.3,0.4,0.4c0.3,0.2,0.5,0.5,0.6,0.7c0.1,0.2,0.2,0.4,0.2,0.7v0.2
			c0,0.3-0.1,0.5-0.3,0.7s-0.4,0.2-0.7,0.2c-0.3,0-0.6-0.1-0.7-0.2s-0.3-0.4-0.3-0.7V9.9l0.6-0.1v0.3c0,0.3,0.1,0.4,0.4,0.4
			s0.4-0.1,0.4-0.4V10c0-0.1,0-0.3-0.1-0.4c-0.1-0.1-0.2-0.3-0.4-0.4c-0.3-0.2-0.5-0.5-0.6-0.7c-0.1-0.2-0.2-0.4-0.2-0.7V7.8
			c0-0.3,0.1-0.5,0.2-0.7c0.2-0.2,0.4-0.2,0.7-0.2C243.9,6.8,244.2,6.9,244.3,7.1z"/>
		<path d="M246.7,7.5h-0.7v3.6h-0.6V7.5h-0.7V6.9h2V7.5z"/>
		<path d="M248.6,11.1l-0.5-1.8h-0.3v1.8h-0.6V6.9h0.9c0.3,0,0.6,0.1,0.8,0.3c0.2,0.2,0.3,0.4,0.3,0.8v0.3c0,0.4-0.1,0.8-0.4,0.9
			l0.6,1.9H248.6z M247.8,7.5v1.2h0.3c0.2,0,0.3,0,0.3-0.1c0.1-0.1,0.1-0.2,0.1-0.4V8c0-0.2,0-0.3-0.1-0.4c-0.1-0.1-0.2-0.1-0.3-0.1
			H247.8z"/>
		<path d="M250.4,11.1h-0.6V6.9h0.6V11.1z"/>
		<path d="M253.1,11.1h-0.6l-0.1-1h-0.7l-0.1,1h-0.6l0.7-4.2h0.8L253.1,11.1z M251.9,7.8l-0.3,1.8h0.5L251.9,7.8L251.9,7.8z"/>
		<path d="M256,7.1c0.2,0.2,0.2,0.4,0.2,0.7v0.1L255.6,8V7.8c0-0.1,0-0.2-0.1-0.3c-0.1-0.1-0.1-0.1-0.2-0.1c-0.1,0-0.2,0-0.2,0.1
			C255,7.6,255,7.7,255,7.8v0.1c0,0.1,0,0.3,0.1,0.4s0.2,0.3,0.4,0.4c0.3,0.2,0.5,0.5,0.6,0.7c0.1,0.2,0.2,0.4,0.2,0.7v0.2
			c0,0.3-0.1,0.5-0.3,0.7s-0.4,0.2-0.7,0.2c-0.3,0-0.6-0.1-0.7-0.2s-0.3-0.4-0.3-0.7V9.9l0.6-0.1v0.3c0,0.3,0.1,0.4,0.4,0.4
			c0.2,0,0.4-0.1,0.4-0.4V10c0-0.1,0-0.3-0.1-0.4c-0.1-0.1-0.2-0.3-0.4-0.4c-0.3-0.2-0.5-0.5-0.6-0.7c-0.1-0.2-0.2-0.4-0.2-0.7V7.8
			c0-0.3,0.1-0.5,0.2-0.7c0.2-0.2,0.4-0.2,0.7-0.2C255.6,6.8,255.8,6.9,256,7.1z"/>
		<path d="M258.5,7.5h-1.2v1.2h0.9v0.6h-0.9v1.2h1.2v0.6h-1.8V6.9h1.8V7.5z"/>
		<path d="M260.7,7.1c0.2,0.2,0.3,0.4,0.3,0.7v0.4l-0.6,0V7.9c0-0.3-0.1-0.5-0.4-0.5c-0.1,0-0.2,0-0.3,0.1c-0.1,0.1-0.1,0.2-0.1,0.3
			v2.3c0,0.1,0,0.2,0.1,0.3c0.1,0.1,0.2,0.1,0.3,0.1c0.2,0,0.4-0.2,0.4-0.5V9.6l0.6,0v0.5c0,0.3-0.1,0.6-0.3,0.7
			c-0.2,0.2-0.4,0.3-0.7,0.3c-0.3,0-0.5-0.1-0.7-0.3c-0.2-0.2-0.3-0.4-0.3-0.7V7.9c0-0.3,0.1-0.6,0.3-0.7c0.2-0.2,0.4-0.3,0.7-0.3
			C260.3,6.8,260.5,6.9,260.7,7.1z"/>
		<path d="M263.4,10.2c0,0.3-0.1,0.6-0.3,0.7c-0.2,0.2-0.4,0.3-0.7,0.3c-0.3,0-0.5-0.1-0.7-0.3c-0.2-0.2-0.3-0.4-0.3-0.7V6.9h0.6
			v3.2c0,0.3,0.1,0.4,0.4,0.4c0.2,0,0.4-0.1,0.4-0.4V6.9h0.6V10.2z"/>
		<path d="M266.1,11.1h-0.6l-0.8-2.8h0v2.8H264V6.9h0.7l0.8,2.5h0V6.9h0.6V11.1z"/>
		<path d="M268.5,7.2c0.2,0.2,0.3,0.4,0.3,0.8V10c0,0.3-0.1,0.6-0.3,0.8c-0.2,0.2-0.4,0.3-0.8,0.3h-0.9V6.9h0.9
			C268.1,6.9,268.3,7,268.5,7.2z M267.4,7.5v3h0.3c0.2,0,0.3,0,0.3-0.1c0.1-0.1,0.1-0.2,0.1-0.4V8c0-0.2,0-0.3-0.1-0.4
			c-0.1-0.1-0.2-0.1-0.3-0.1H267.4z"/>
		<path d="M271.4,11.1h-0.6l-0.1-1h-0.7l-0.1,1h-0.6l0.7-4.2h0.8L271.4,11.1z M270.2,7.8L270,9.6h0.5L270.2,7.8L270.2,7.8z"/>
		<path d="M273.3,11.1l-0.5-1.8h-0.3v1.8h-0.6V6.9h0.9c0.3,0,0.6,0.1,0.8,0.3c0.2,0.2,0.3,0.4,0.3,0.8v0.3c0,0.4-0.1,0.8-0.4,0.9
			l0.6,1.9H273.3z M272.5,7.5v1.2h0.3c0.2,0,0.3,0,0.3-0.1c0.1-0.1,0.1-0.2,0.1-0.4V8c0-0.2,0-0.3-0.1-0.4c-0.1-0.1-0.2-0.1-0.3-0.1
			H272.5z"/>
		<path d="M275.1,11.1h-0.6V6.9h0.6V11.1z"/>
		<path d="M277.8,11.1h-0.6l-0.1-1h-0.7l-0.1,1h-0.6l0.7-4.2h0.8L277.8,11.1z M276.6,7.8l-0.3,1.8h0.5L276.6,7.8L276.6,7.8z"/>
	</g>
</g>
<g>
	<g>
		<path d="M31,38.1c-0.2-0.2-0.3-0.4-0.3-0.7v-0.2l0.6,0v0.1c0,0.2,0,0.3,0.1,0.4c0.1,0.1,0.2,0.1,0.3,0.1c0.3,0,0.4-0.1,0.4-0.4
			v-0.9h0c-0.1,0.1-0.1,0.1-0.2,0.2c-0.1,0-0.2,0.1-0.3,0.1c-0.2,0-0.5-0.1-0.6-0.3c-0.2-0.2-0.2-0.4-0.2-0.8v-0.6
			c0-0.3,0.1-0.6,0.3-0.8c0.2-0.2,0.4-0.3,0.8-0.3c0.3,0,0.6,0.1,0.7,0.3c0.2,0.2,0.3,0.4,0.3,0.8v2.2c0,0.3-0.1,0.6-0.3,0.7
			c-0.2,0.2-0.4,0.3-0.7,0.3C31.4,38.4,31.1,38.3,31,38.1z M32,36c0.1-0.1,0.1-0.2,0.1-0.4v-0.5c0-0.2,0-0.3-0.1-0.4
			c-0.1-0.1-0.2-0.1-0.3-0.1c-0.1,0-0.2,0-0.3,0.1s-0.1,0.2-0.1,0.4v0.5c0,0.2,0,0.3,0.1,0.4s0.2,0.1,0.3,0.1
			C31.8,36.1,31.9,36.1,32,36z"/>
		<path d="M33.5,38.1c-0.2-0.2-0.3-0.4-0.3-0.7v-0.2l0.6,0v0.1c0,0.2,0,0.3,0.1,0.4c0.1,0.1,0.2,0.1,0.3,0.1c0.3,0,0.4-0.1,0.4-0.4
			v-0.9h0c-0.1,0.1-0.1,0.1-0.2,0.2c-0.1,0-0.2,0.1-0.3,0.1c-0.2,0-0.5-0.1-0.6-0.3c-0.2-0.2-0.2-0.4-0.2-0.8v-0.6
			c0-0.3,0.1-0.6,0.3-0.8c0.2-0.2,0.4-0.3,0.8-0.3c0.3,0,0.6,0.1,0.7,0.3c0.2,0.2,0.3,0.4,0.3,0.8v2.2c0,0.3-0.1,0.6-0.3,0.7
			c-0.2,0.2-0.4,0.3-0.7,0.3S33.7,38.3,33.5,38.1z M34.5,36c0.1-0.1,0.1-0.2,0.1-0.4v-0.5c0-0.2,0-0.3-0.1-0.4s-0.2-0.1-0.3-0.1
			c-0.1,0-0.2,0-0.3,0.1s-0.1,0.2-0.1,0.4v0.5c0,0.2,0,0.3,0.1,0.4s0.2,0.1,0.3,0.1C34.3,36.1,34.4,36.1,34.5,36z"/>
		<path d="M36.5,38.3h-0.7v-0.7h0.7V38.3z"/>
		<path d="M38.9,34.3c0.2,0.2,0.3,0.4,0.3,0.8v0.2c0,0.4-0.2,0.7-0.5,0.8v0c0.3,0.1,0.5,0.4,0.5,0.9v0.3c0,0.3-0.1,0.6-0.3,0.8
			s-0.4,0.3-0.8,0.3c-0.3,0-0.6-0.1-0.8-0.3s-0.3-0.4-0.3-0.8V37c0-0.5,0.2-0.8,0.5-0.9v0c-0.3-0.1-0.5-0.4-0.5-0.8v-0.2
			c0-0.3,0.1-0.6,0.3-0.8c0.2-0.2,0.4-0.3,0.7-0.3C38.4,34.1,38.7,34.2,38.9,34.3z M37.8,36.6c-0.1,0.1-0.1,0.2-0.1,0.4v0.4
			c0,0.2,0,0.3,0.1,0.4c0.1,0.1,0.2,0.1,0.3,0.1s0.2,0,0.3-0.1c0.1-0.1,0.1-0.2,0.1-0.4v-0.4c0-0.2,0-0.3-0.1-0.4
			c-0.1-0.1-0.2-0.1-0.3-0.1S37.9,36.5,37.8,36.6z M37.8,34.8c-0.1,0.1-0.1,0.2-0.1,0.3v0.3c0,0.1,0,0.3,0.1,0.3s0.2,0.1,0.3,0.1
			c0.1,0,0.2,0,0.3-0.1s0.1-0.2,0.1-0.3v-0.3c0-0.1,0-0.3-0.1-0.3c-0.1-0.1-0.2-0.1-0.3-0.1C38,34.7,37.9,34.7,37.8,34.8z"/>
		<path d="M41.4,36.9h0.3v0.6h-0.3v0.9h-0.6v-0.9h-1.3v-0.5l1.3-2.8h0.6V36.9z M40.7,35.4L40,36.9h0.7L40.7,35.4L40.7,35.4z"/>
		<path d="M43.9,36.9h0.3v0.6h-0.3v0.9h-0.6v-0.9h-1.3v-0.5l1.3-2.8h0.6V36.9z M43.2,35.4l-0.7,1.5h0.7L43.2,35.4L43.2,35.4z"/>
	</g>
</g>
<g>
	<g>
		<path d="M55.6,34.6h-0.6v-3.2H54V31c0.3,0,0.5-0.1,0.7-0.2s0.3-0.2,0.4-0.4h0.4V34.6z"/>
		<path d="M58,30.7c0.2,0.2,0.3,0.4,0.3,0.8v2.2c0,0.3-0.1,0.6-0.3,0.8c-0.2,0.2-0.4,0.3-0.8,0.3c-0.3,0-0.6-0.1-0.8-0.3
			s-0.3-0.4-0.3-0.8v-2.2c0-0.3,0.1-0.6,0.3-0.8s0.4-0.3,0.8-0.3C57.6,30.4,57.8,30.5,58,30.7z M56.9,31.1c-0.1,0.1-0.1,0.2-0.1,0.4
			v2.2c0,0.2,0,0.3,0.1,0.4c0.1,0.1,0.2,0.1,0.3,0.1c0.1,0,0.2,0,0.3-0.1c0.1-0.1,0.1-0.2,0.1-0.4v-2.2c0-0.2,0-0.3-0.1-0.4
			C57.5,31,57.4,31,57.2,31C57.1,31,57,31,56.9,31.1z"/>
		<path d="M60.4,30.6c0.2,0.2,0.3,0.4,0.3,0.7v0.2c0,0.2,0,0.4-0.1,0.6c-0.1,0.2-0.2,0.5-0.4,0.8L59.4,34h1.2v0.6h-2v-0.5l0.9-1.5
			c0.1-0.2,0.2-0.4,0.3-0.6c0.1-0.2,0.1-0.3,0.1-0.5v-0.1c0-0.3-0.1-0.4-0.4-0.4c-0.1,0-0.2,0-0.3,0.1c-0.1,0.1-0.1,0.2-0.1,0.4v0.2
			l-0.6,0v-0.3c0-0.3,0.1-0.5,0.3-0.7c0.2-0.2,0.4-0.3,0.7-0.3S60.2,30.5,60.4,30.6z"/>
		<path d="M61.8,34.6h-0.7V34h0.7V34.6z"/>
		<path d="M64.2,30.6c0.2,0.2,0.3,0.4,0.3,0.7v0.2l-0.6,0v-0.1c0-0.2,0-0.3-0.1-0.4C63.7,31,63.6,31,63.5,31c-0.3,0-0.4,0.1-0.4,0.4
			v0.9h0c0.1-0.1,0.1-0.1,0.2-0.2c0.1,0,0.2-0.1,0.3-0.1c0.2,0,0.4,0.1,0.6,0.3c0.2,0.2,0.2,0.4,0.2,0.8v0.6c0,0.3-0.1,0.6-0.3,0.8
			s-0.4,0.3-0.8,0.3c-0.3,0-0.6-0.1-0.7-0.3s-0.3-0.4-0.3-0.8v-2.2c0-0.3,0.1-0.6,0.3-0.7c0.2-0.2,0.4-0.3,0.7-0.3
			C63.8,30.4,64,30.5,64.2,30.6z M63.2,32.8c-0.1,0.1-0.1,0.2-0.1,0.4v0.5c0,0.2,0,0.3,0.1,0.4c0.1,0.1,0.2,0.1,0.3,0.1
			s0.2,0,0.3-0.1s0.1-0.2,0.1-0.4v-0.5c0-0.2,0-0.3-0.1-0.4c-0.1-0.1-0.2-0.1-0.3-0.1S63.3,32.7,63.2,32.8z"/>
		<path d="M66.7,30.6c0.2,0.2,0.3,0.4,0.3,0.7v0.2l-0.6,0v-0.1c0-0.2,0-0.3-0.1-0.4C66.2,31,66.1,31,66,31c-0.3,0-0.4,0.1-0.4,0.4
			v0.9h0c0.1-0.1,0.1-0.1,0.2-0.2c0.1,0,0.2-0.1,0.3-0.1c0.2,0,0.4,0.1,0.6,0.3c0.2,0.2,0.2,0.4,0.2,0.8v0.6c0,0.3-0.1,0.6-0.3,0.8
			s-0.4,0.3-0.8,0.3c-0.3,0-0.6-0.1-0.7-0.3S65,34,65,33.6v-2.2c0-0.3,0.1-0.6,0.3-0.7c0.2-0.2,0.4-0.3,0.7-0.3
			C66.3,30.4,66.6,30.5,66.7,30.6z M65.7,32.8c-0.1,0.1-0.1,0.2-0.1,0.4v0.5c0,0.2,0,0.3,0.1,0.4c0.1,0.1,0.2,0.1,0.3,0.1
			s0.2,0,0.3-0.1s0.1-0.2,0.1-0.4v-0.5c0-0.2,0-0.3-0.1-0.4c-0.1-0.1-0.2-0.1-0.3-0.1S65.8,32.7,65.7,32.8z"/>
		<path d="M68.9,34.6h-0.6v-3.2h-0.9V31c0.3,0,0.5-0.1,0.7-0.2s0.3-0.2,0.4-0.4h0.4V34.6z"/>
	</g>
</g>
<g>
	<g>
		<path d="M103.9,32.8h-0.6v-3.2h-0.9v-0.4c0.3,0,0.5-0.1,0.7-0.2s0.3-0.2,0.4-0.4h0.4V32.8z"/>
		<path d="M106.4,28.8c0.2,0.2,0.3,0.4,0.3,0.8v2.2c0,0.3-0.1,0.6-0.3,0.8c-0.2,0.2-0.4,0.3-0.8,0.3c-0.3,0-0.6-0.1-0.8-0.3
			s-0.3-0.4-0.3-0.8v-2.2c0-0.3,0.1-0.6,0.3-0.8s0.4-0.3,0.8-0.3C105.9,28.5,106.2,28.6,106.4,28.8z M105.3,29.2
			c-0.1,0.1-0.1,0.2-0.1,0.4v2.2c0,0.2,0,0.3,0.1,0.4c0.1,0.1,0.2,0.1,0.3,0.1c0.1,0,0.2,0,0.3-0.1c0.1-0.1,0.1-0.2,0.1-0.4v-2.2
			c0-0.2,0-0.3-0.1-0.4c-0.1-0.1-0.2-0.1-0.3-0.1C105.5,29.1,105.4,29.1,105.3,29.2z"/>
		<path d="M109,31.3h0.3v0.6H109v0.9h-0.6v-0.9H107v-0.5l1.3-2.8h0.6V31.3z M108.3,29.8l-0.7,1.5h0.7L108.3,29.8L108.3,29.8z"/>
		<path d="M110.4,32.8h-0.7v-0.7h0.7V32.8z"/>
		<path d="M111.3,32.6c-0.2-0.2-0.3-0.4-0.3-0.7v-0.2l0.6,0v0.1c0,0.2,0,0.3,0.1,0.4c0.1,0.1,0.2,0.1,0.3,0.1c0.3,0,0.4-0.1,0.4-0.4
			v-0.9h0c-0.1,0.1-0.1,0.1-0.2,0.2c-0.1,0-0.2,0.1-0.3,0.1c-0.2,0-0.5-0.1-0.6-0.3c-0.2-0.2-0.2-0.4-0.2-0.8v-0.6
			c0-0.3,0.1-0.6,0.3-0.8c0.2-0.2,0.4-0.3,0.8-0.3c0.3,0,0.6,0.1,0.7,0.3c0.2,0.2,0.3,0.4,0.3,0.8v2.2c0,0.3-0.1,0.6-0.3,0.7
			c-0.2,0.2-0.4,0.3-0.7,0.3S111.4,32.7,111.3,32.6z M112.3,30.4c0.1-0.1,0.1-0.2,0.1-0.4v-0.5c0-0.2,0-0.3-0.1-0.4
			s-0.2-0.1-0.3-0.1c-0.1,0-0.2,0-0.3,0.1s-0.1,0.2-0.1,0.4v0.5c0,0.2,0,0.3,0.1,0.4s0.2,0.1,0.3,0.1
			C112.1,30.6,112.2,30.5,112.3,30.4z"/>
		<path d="M113.8,32.6c-0.2-0.2-0.3-0.4-0.3-0.7v-0.2l0.6,0v0.1c0,0.2,0,0.3,0.1,0.4c0.1,0.1,0.2,0.1,0.3,0.1c0.3,0,0.4-0.1,0.4-0.4
			v-0.9h0c-0.1,0.1-0.1,0.1-0.2,0.2c-0.1,0-0.2,0.1-0.3,0.1c-0.2,0-0.5-0.1-0.6-0.3c-0.2-0.2-0.2-0.4-0.2-0.8v-0.6
			c0-0.3,0.1-0.6,0.3-0.8c0.2-0.2,0.4-0.3,0.8-0.3c0.3,0,0.6,0.1,0.7,0.3c0.2,0.2,0.3,0.4,0.3,0.8v2.2c0,0.3-0.1,0.6-0.3,0.7
			c-0.2,0.2-0.4,0.3-0.7,0.3S114,32.7,113.8,32.6z M114.8,30.4c0.1-0.1,0.1-0.2,0.1-0.4v-0.5c0-0.2,0-0.3-0.1-0.4s-0.2-0.1-0.3-0.1
			c-0.1,0-0.2,0-0.3,0.1s-0.1,0.2-0.1,0.4v0.5c0,0.2,0,0.3,0.1,0.4s0.2,0.1,0.3,0.1C114.7,30.6,114.7,30.5,114.8,30.4z"/>
		<path d="M117.7,28.7c0.2,0.2,0.3,0.4,0.3,0.7v0.2c0,0.2,0,0.4-0.1,0.6c-0.1,0.2-0.2,0.5-0.4,0.8l-0.7,1.1h1.2v0.6h-2v-0.5l0.9-1.5
			c0.1-0.2,0.2-0.4,0.3-0.6c0.1-0.2,0.1-0.3,0.1-0.5v-0.1c0-0.3-0.1-0.4-0.4-0.4c-0.1,0-0.2,0-0.3,0.1c-0.1,0.1-0.1,0.2-0.1,0.4v0.2
			l-0.6,0v-0.3c0-0.3,0.1-0.5,0.3-0.7c0.2-0.2,0.4-0.3,0.7-0.3S117.5,28.6,117.7,28.7z"/>
	</g>
</g>
<g>
	<g>
		<path d="M130,30.9h-0.6v-3.2h-0.9v-0.4c0.3,0,0.5-0.1,0.7-0.2s0.3-0.2,0.4-0.4h0.4V30.9z"/>
		<path d="M132.4,26.9c0.2,0.2,0.3,0.4,0.3,0.8v2.2c0,0.3-0.1,0.6-0.3,0.8c-0.2,0.2-0.4,0.3-0.8,0.3c-0.3,0-0.6-0.1-0.8-0.3
			s-0.3-0.4-0.3-0.8v-2.2c0-0.3,0.1-0.6,0.3-0.8s0.4-0.3,0.8-0.3C132,26.7,132.3,26.8,132.4,26.9z M131.4,27.4
			c-0.1,0.1-0.1,0.2-0.1,0.4v2.2c0,0.2,0,0.3,0.1,0.4c0.1,0.1,0.2,0.1,0.3,0.1c0.1,0,0.2,0,0.3-0.1c0.1-0.1,0.1-0.2,0.1-0.4v-2.2
			c0-0.2,0-0.3-0.1-0.4c-0.1-0.1-0.2-0.1-0.3-0.1C131.6,27.3,131.5,27.3,131.4,27.4z"/>
		<path d="M135,26.9c0.2,0.2,0.3,0.4,0.3,0.7v0.2l-0.6,0v-0.1c0-0.2,0-0.3-0.1-0.4c-0.1-0.1-0.2-0.1-0.3-0.1c-0.3,0-0.4,0.1-0.4,0.4
			v0.9h0c0.1-0.1,0.1-0.1,0.2-0.2c0.1,0,0.2-0.1,0.3-0.1c0.2,0,0.4,0.1,0.6,0.3c0.2,0.2,0.2,0.4,0.2,0.8v0.6c0,0.3-0.1,0.6-0.3,0.8
			s-0.4,0.3-0.8,0.3c-0.3,0-0.6-0.1-0.7-0.3s-0.3-0.4-0.3-0.8v-2.2c0-0.3,0.1-0.6,0.3-0.7c0.2-0.2,0.4-0.3,0.7-0.3
			C134.6,26.7,134.8,26.8,135,26.9z M134,29c-0.1,0.1-0.1,0.2-0.1,0.4v0.5c0,0.2,0,0.3,0.1,0.4c0.1,0.1,0.2,0.1,0.3,0.1
			s0.2,0,0.3-0.1s0.1-0.2,0.1-0.4v-0.5c0-0.2,0-0.3-0.1-0.4c-0.1-0.1-0.2-0.1-0.3-0.1S134.1,29,134,29z"/>
		<path d="M136.5,30.9h-0.7v-0.7h0.7V30.9z"/>
		<path d="M138.1,30.9h-0.6v-3.2h-0.9v-0.4c0.3,0,0.5-0.1,0.7-0.2s0.3-0.2,0.4-0.4h0.4V30.9z"/>
		<path d="M140.4,26.9c0.2,0.2,0.3,0.4,0.3,0.8v0.2c0,0.4-0.2,0.7-0.5,0.8v0c0.3,0.1,0.5,0.4,0.5,0.9V30c0,0.3-0.1,0.6-0.3,0.8
			c-0.2,0.2-0.4,0.3-0.8,0.3c-0.3,0-0.6-0.1-0.8-0.3c-0.2-0.2-0.3-0.4-0.3-0.7v-0.3l0.6,0v0.2c0,0.2,0,0.3,0.1,0.4s0.2,0.1,0.3,0.1
			c0.1,0,0.2,0,0.3-0.1c0.1-0.1,0.1-0.2,0.1-0.4v-0.3c0-0.2,0-0.3-0.1-0.4c-0.1-0.1-0.2-0.1-0.4-0.1h-0.3v-0.6h0.3
			c0.1,0,0.3,0,0.3-0.1s0.1-0.2,0.1-0.4v-0.2c0-0.2,0-0.3-0.1-0.3c-0.1-0.1-0.2-0.1-0.3-0.1c-0.1,0-0.2,0-0.3,0.1
			c-0.1,0.1-0.1,0.2-0.1,0.4V28l-0.6,0v-0.3c0-0.3,0.1-0.6,0.3-0.7c0.2-0.2,0.4-0.3,0.7-0.3S140.2,26.8,140.4,26.9z"/>
		<path d="M142.5,30.9h-0.6v-3.2H141v-0.4c0.3,0,0.5-0.1,0.7-0.2s0.3-0.2,0.4-0.4h0.4V30.9z"/>
	</g>
</g>
<g>
	<path d="M153,23.5h-0.6v-3.2h-0.9v-0.4c0.3,0,0.5-0.1,0.7-0.2s0.3-0.2,0.4-0.4h0.4V23.5z"/>
	<path d="M155,23.5h-0.6v-3.2h-0.9v-0.4c0.3,0,0.5-0.1,0.7-0.2s0.3-0.2,0.4-0.4h0.4V23.5z"/>
	<path d="M157.5,22.1h0.3v0.6h-0.3v0.9h-0.6v-0.9h-1.3v-0.5l1.3-2.8h0.6V22.1z M156.8,20.6l-0.7,1.5h0.7L156.8,20.6L156.8,20.6z"/>
	<path d="M158.9,23.5h-0.7v-0.7h0.7V23.5z"/>
	<path d="M161.1,19.5c0.2,0.2,0.3,0.4,0.3,0.7v0.2c0,0.2,0,0.4-0.1,0.6c-0.1,0.2-0.2,0.5-0.4,0.8l-0.7,1.1h1.2v0.6h-2V23l0.9-1.5
		c0.1-0.2,0.2-0.4,0.3-0.6c0.1-0.2,0.1-0.3,0.1-0.5v-0.1c0-0.3-0.1-0.4-0.4-0.4c-0.1,0-0.2,0-0.3,0.1c-0.1,0.1-0.1,0.2-0.1,0.4v0.2
		l-0.6,0v-0.3c0-0.3,0.1-0.5,0.3-0.7c0.2-0.2,0.4-0.3,0.7-0.3S160.9,19.4,161.1,19.5z"/>
	<path d="M163.6,19.6c0.2,0.2,0.3,0.4,0.3,0.8v2.2c0,0.3-0.1,0.6-0.3,0.8c-0.2,0.2-0.4,0.3-0.8,0.3c-0.3,0-0.6-0.1-0.8-0.3
		s-0.3-0.4-0.3-0.8v-2.2c0-0.3,0.1-0.6,0.3-0.8s0.4-0.3,0.8-0.3C163.2,19.3,163.4,19.4,163.6,19.6z M162.5,20
		c-0.1,0.1-0.1,0.2-0.1,0.4v2.2c0,0.2,0,0.3,0.1,0.4c0.1,0.1,0.2,0.1,0.3,0.1c0.1,0,0.2,0,0.3-0.1c0.1-0.1,0.1-0.2,0.1-0.4v-2.2
		c0-0.2,0-0.3-0.1-0.4c-0.1-0.1-0.2-0.1-0.3-0.1C162.7,19.9,162.6,19.9,162.5,20z"/>
	<path d="M166.1,19.6c0.2,0.2,0.3,0.4,0.3,0.8v0.2c0,0.4-0.2,0.7-0.5,0.8v0c0.3,0.1,0.5,0.4,0.5,0.9v0.3c0,0.3-0.1,0.6-0.3,0.8
		s-0.4,0.3-0.8,0.3c-0.3,0-0.6-0.1-0.8-0.3s-0.3-0.4-0.3-0.8v-0.3c0-0.5,0.2-0.8,0.5-0.9v0c-0.3-0.1-0.5-0.4-0.5-0.8v-0.2
		c0-0.3,0.1-0.6,0.3-0.8c0.2-0.2,0.4-0.3,0.7-0.3C165.7,19.3,165.9,19.4,166.1,19.6z M165.1,21.8c-0.1,0.1-0.1,0.2-0.1,0.4v0.4
		c0,0.2,0,0.3,0.1,0.4c0.1,0.1,0.2,0.1,0.3,0.1s0.2,0,0.3-0.1c0.1-0.1,0.1-0.2,0.1-0.4v-0.4c0-0.2,0-0.3-0.1-0.4
		c-0.1-0.1-0.2-0.1-0.3-0.1S165.1,21.7,165.1,21.8z M165.1,20c-0.1,0.1-0.1,0.2-0.1,0.3v0.3c0,0.1,0,0.3,0.1,0.3s0.2,0.1,0.3,0.1
		c0.1,0,0.2,0,0.3-0.1s0.1-0.2,0.1-0.3v-0.3c0-0.1,0-0.3-0.1-0.3c-0.1-0.1-0.2-0.1-0.3-0.1C165.3,19.9,165.2,19.9,165.1,20z"/>
</g>
<g>
	<path d="M178.1,19.2h-0.6V16h-0.9v-0.4c0.3,0,0.5-0.1,0.7-0.2s0.3-0.2,0.4-0.4h0.4V19.2z"/>
	<path d="M180.1,19.2h-0.6V16h-0.9v-0.4c0.3,0,0.5-0.1,0.7-0.2s0.3-0.2,0.4-0.4h0.4V19.2z"/>
	<path d="M182.5,15.2c0.2,0.2,0.3,0.4,0.3,0.8v0.2c0,0.4-0.2,0.7-0.5,0.8v0c0.3,0.1,0.5,0.4,0.5,0.9v0.3c0,0.3-0.1,0.6-0.3,0.8
		s-0.4,0.3-0.8,0.3c-0.3,0-0.6-0.1-0.8-0.3s-0.3-0.4-0.3-0.8v-0.3c0-0.5,0.2-0.8,0.5-0.9v0c-0.3-0.1-0.5-0.4-0.5-0.8V16
		c0-0.3,0.1-0.6,0.3-0.8c0.2-0.2,0.4-0.3,0.7-0.3C182,15,182.3,15.1,182.5,15.2z M181.4,17.5c-0.1,0.1-0.1,0.2-0.1,0.4v0.4
		c0,0.2,0,0.3,0.1,0.4c0.1,0.1,0.2,0.1,0.3,0.1s0.2,0,0.3-0.1c0.1-0.1,0.1-0.2,0.1-0.4v-0.4c0-0.2,0-0.3-0.1-0.4
		c-0.1-0.1-0.2-0.1-0.3-0.1S181.5,17.4,181.4,17.5z M181.4,15.7c-0.1,0.1-0.1,0.2-0.1,0.3v0.3c0,0.1,0,0.3,0.1,0.3s0.2,0.1,0.3,0.1
		c0.1,0,0.2,0,0.3-0.1s0.1-0.2,0.1-0.3V16c0-0.1,0-0.3-0.1-0.3c-0.1-0.1-0.2-0.1-0.3-0.1C181.6,15.5,181.5,15.6,181.4,15.7z"/>
	<path d="M184,19.2h-0.7v-0.7h0.7V19.2z"/>
	<path d="M186.2,15.2c0.2,0.2,0.3,0.4,0.3,0.8v0.2c0,0.4-0.2,0.7-0.5,0.8v0c0.3,0.1,0.5,0.4,0.5,0.9v0.3c0,0.3-0.1,0.6-0.3,0.8
		c-0.2,0.2-0.4,0.3-0.8,0.3c-0.3,0-0.6-0.1-0.8-0.3c-0.2-0.2-0.3-0.4-0.3-0.7V18l0.6,0v0.2c0,0.2,0,0.3,0.1,0.4s0.2,0.1,0.3,0.1
		c0.1,0,0.2,0,0.3-0.1c0.1-0.1,0.1-0.2,0.1-0.4v-0.3c0-0.2,0-0.3-0.1-0.4c-0.1-0.1-0.2-0.1-0.4-0.1h-0.3v-0.6h0.3
		c0.1,0,0.3,0,0.3-0.1s0.1-0.2,0.1-0.4V16c0-0.2,0-0.3-0.1-0.3c-0.1-0.1-0.2-0.1-0.3-0.1c-0.1,0-0.2,0-0.3,0.1
		c-0.1,0.1-0.1,0.2-0.1,0.4v0.2l-0.6,0V16c0-0.3,0.1-0.6,0.3-0.7c0.2-0.2,0.4-0.3,0.7-0.3S186,15.1,186.2,15.2z"/>
	<path d="M188.7,15.6l-1.2,3.6h-0.7l1.2-3.6h-1.3V15h2V15.6z"/>
	<path d="M190.5,17.7h0.3v0.6h-0.3v0.9h-0.6v-0.9h-1.3v-0.5l1.3-2.8h0.6V17.7z M189.8,16.2l-0.7,1.5h0.7L189.8,16.2L189.8,16.2z"/>
</g>
<g>
	<g>
		<path d="M80,30.5h-0.6v-3.2h-0.9v-0.4c0.3,0,0.5-0.1,0.7-0.2s0.3-0.2,0.4-0.4H80V30.5z"/>
		<path d="M82.5,26.5c0.2,0.2,0.3,0.4,0.3,0.8v2.2c0,0.3-0.1,0.6-0.3,0.8c-0.2,0.2-0.4,0.3-0.8,0.3c-0.3,0-0.6-0.1-0.8-0.3
			s-0.3-0.4-0.3-0.8v-2.2c0-0.3,0.1-0.6,0.3-0.8s0.4-0.3,0.8-0.3C82,26.2,82.3,26.3,82.5,26.5z M81.4,26.9c-0.1,0.1-0.1,0.2-0.1,0.4
			v2.2c0,0.2,0,0.3,0.1,0.4c0.1,0.1,0.2,0.1,0.3,0.1c0.1,0,0.2,0,0.3-0.1c0.1-0.1,0.1-0.2,0.1-0.4v-2.2c0-0.2,0-0.3-0.1-0.4
			c-0.1-0.1-0.2-0.1-0.3-0.1C81.6,26.8,81.5,26.9,81.4,26.9z"/>
		<path d="M85,26.9l-1.2,3.6h-0.7l1.2-3.6h-1.3v-0.6h2V26.9z"/>
		<path d="M85.6,30.5H85v-0.7h0.7V30.5z"/>
		<path d="M88,26.5c0.2,0.2,0.3,0.4,0.3,0.8v2.2c0,0.3-0.1,0.6-0.3,0.8c-0.2,0.2-0.4,0.3-0.8,0.3c-0.3,0-0.6-0.1-0.8-0.3
			s-0.3-0.4-0.3-0.8v-2.2c0-0.3,0.1-0.6,0.3-0.8s0.4-0.3,0.8-0.3C87.6,26.2,87.9,26.3,88,26.5z M87,26.9c-0.1,0.1-0.1,0.2-0.1,0.4
			v2.2c0,0.2,0,0.3,0.1,0.4c0.1,0.1,0.2,0.1,0.3,0.1c0.1,0,0.2,0,0.3-0.1c0.1-0.1,0.1-0.2,0.1-0.4v-2.2c0-0.2,0-0.3-0.1-0.4
			c-0.1-0.1-0.2-0.1-0.3-0.1C87.2,26.8,87.1,26.9,87,26.9z"/>
		<path d="M89.1,30.3c-0.2-0.2-0.3-0.4-0.3-0.7v-0.2l0.6,0v0.1c0,0.2,0,0.3,0.1,0.4c0.1,0.1,0.2,0.1,0.3,0.1c0.3,0,0.4-0.1,0.4-0.4
			v-0.9h0c-0.1,0.1-0.1,0.1-0.2,0.2c-0.1,0-0.2,0.1-0.3,0.1c-0.2,0-0.5-0.1-0.6-0.3c-0.2-0.2-0.2-0.4-0.2-0.8v-0.6
			c0-0.3,0.1-0.6,0.3-0.8c0.2-0.2,0.4-0.3,0.8-0.3c0.3,0,0.6,0.1,0.7,0.3c0.2,0.2,0.3,0.4,0.3,0.8v2.2c0,0.3-0.1,0.6-0.3,0.7
			c-0.2,0.2-0.4,0.3-0.7,0.3S89.3,30.5,89.1,30.3z M90.1,28.2c0.1-0.1,0.1-0.2,0.1-0.4v-0.5c0-0.2,0-0.3-0.1-0.4s-0.2-0.1-0.3-0.1
			c-0.1,0-0.2,0-0.3,0.1s-0.1,0.2-0.1,0.4v0.5c0,0.2,0,0.3,0.1,0.4s0.2,0.1,0.3,0.1C89.9,28.3,90,28.3,90.1,28.2z"/>
		<path d="M91.6,30.3c-0.2-0.2-0.3-0.4-0.3-0.7v-0.2l0.6,0v0.1c0,0.3,0.1,0.5,0.4,0.5c0.1,0,0.2,0,0.3-0.1c0.1-0.1,0.1-0.2,0.1-0.4
			v-0.7c0-0.2,0-0.3-0.1-0.4c-0.1-0.1-0.2-0.1-0.3-0.1c-0.1,0-0.2,0-0.3,0.1c-0.1,0.1-0.1,0.1-0.1,0.3l0,0.1l-0.6,0l0.1-2.4h1.7v0.6
			H92l-0.1,1h0c0.1-0.1,0.3-0.2,0.5-0.2c0.3,0,0.5,0.1,0.6,0.3c0.2,0.2,0.2,0.4,0.2,0.8v0.8c0,0.3-0.1,0.6-0.3,0.8
			c-0.2,0.2-0.4,0.3-0.7,0.3S91.8,30.5,91.6,30.3z"/>
	</g>
</g>
<g>
	<path d="M202.8,23.4h-0.6v-3.2h-0.9v-0.4c0.3,0,0.5-0.1,0.7-0.2s0.3-0.2,0.4-0.4h0.4V23.4z"/>
	<path d="M204.8,23.4h-0.6v-3.2h-0.9v-0.4c0.3,0,0.5-0.1,0.7-0.2s0.3-0.2,0.4-0.4h0.4V23.4z"/>
	<path d="M207.1,19.4c0.2,0.2,0.3,0.4,0.3,0.8v0.2c0,0.4-0.2,0.7-0.5,0.8v0c0.3,0.1,0.5,0.4,0.5,0.9v0.3c0,0.3-0.1,0.6-0.3,0.8
		c-0.2,0.2-0.4,0.3-0.8,0.3c-0.3,0-0.6-0.1-0.8-0.3c-0.2-0.2-0.3-0.4-0.3-0.7v-0.3l0.6,0v0.2c0,0.2,0,0.3,0.1,0.4s0.2,0.1,0.3,0.1
		c0.1,0,0.2,0,0.3-0.1c0.1-0.1,0.1-0.2,0.1-0.4v-0.3c0-0.2,0-0.3-0.1-0.4c-0.1-0.1-0.2-0.1-0.4-0.1h-0.3V21h0.3c0.1,0,0.3,0,0.3-0.1
		s0.1-0.2,0.1-0.4v-0.2c0-0.2,0-0.3-0.1-0.3c-0.1-0.1-0.2-0.1-0.3-0.1c-0.1,0-0.2,0-0.3,0.1c-0.1,0.1-0.1,0.2-0.1,0.4v0.2l-0.6,0
		v-0.3c0-0.3,0.1-0.6,0.3-0.7c0.2-0.2,0.4-0.3,0.7-0.3S206.9,19.3,207.1,19.4z"/>
	<path d="M208.6,23.4h-0.7v-0.7h0.7V23.4z"/>
	<path d="M211,22h0.3v0.6H211v0.9h-0.6v-0.9H209V22l1.3-2.8h0.6V22z M210.4,20.5l-0.7,1.5h0.7L210.4,20.5L210.4,20.5z"/>
	<path d="M213.4,19.4c0.2,0.2,0.3,0.4,0.3,0.7v0.2l-0.6,0v-0.1c0-0.2,0-0.3-0.1-0.4c-0.1-0.1-0.2-0.1-0.3-0.1
		c-0.3,0-0.4,0.1-0.4,0.4v0.9h0c0.1-0.1,0.1-0.1,0.2-0.2c0.1,0,0.2-0.1,0.3-0.1c0.2,0,0.4,0.1,0.6,0.3c0.2,0.2,0.2,0.4,0.2,0.8v0.6
		c0,0.3-0.1,0.6-0.3,0.8s-0.4,0.3-0.8,0.3c-0.3,0-0.6-0.1-0.7-0.3s-0.3-0.4-0.3-0.8v-2.2c0-0.3,0.1-0.6,0.3-0.7
		c0.2-0.2,0.4-0.3,0.7-0.3C213,19.2,213.3,19.3,213.4,19.4z M212.4,21.5c-0.1,0.1-0.1,0.2-0.1,0.4v0.5c0,0.2,0,0.3,0.1,0.4
		c0.1,0.1,0.2,0.1,0.3,0.1s0.2,0,0.3-0.1s0.1-0.2,0.1-0.4v-0.5c0-0.2,0-0.3-0.1-0.4c-0.1-0.1-0.2-0.1-0.3-0.1S212.5,21.5,212.4,21.5
		z"/>
	<path d="M215.9,19.4c0.2,0.2,0.3,0.4,0.3,0.8v0.2c0,0.4-0.2,0.7-0.5,0.8v0c0.3,0.1,0.5,0.4,0.5,0.9v0.3c0,0.3-0.1,0.6-0.3,0.8
		s-0.4,0.3-0.8,0.3c-0.3,0-0.6-0.1-0.8-0.3s-0.3-0.4-0.3-0.8v-0.3c0-0.5,0.2-0.8,0.5-0.9v0c-0.3-0.1-0.5-0.4-0.5-0.8v-0.2
		c0-0.3,0.1-0.6,0.3-0.8c0.2-0.2,0.4-0.3,0.7-0.3C215.5,19.2,215.8,19.3,215.9,19.4z M214.9,21.7c-0.1,0.1-0.1,0.2-0.1,0.4v0.4
		c0,0.2,0,0.3,0.1,0.4c0.1,0.1,0.2,0.1,0.3,0.1s0.2,0,0.3-0.1c0.1-0.1,0.1-0.2,0.1-0.4V22c0-0.2,0-0.3-0.1-0.4
		c-0.1-0.1-0.2-0.1-0.3-0.1S215,21.6,214.9,21.7z M214.9,19.9c-0.1,0.1-0.1,0.2-0.1,0.3v0.3c0,0.1,0,0.3,0.1,0.3s0.2,0.1,0.3,0.1
		c0.1,0,0.2,0,0.3-0.1s0.1-0.2,0.1-0.3v-0.3c0-0.1,0-0.3-0.1-0.3c-0.1-0.1-0.2-0.1-0.3-0.1C215.1,19.8,215,19.8,214.9,19.9z"/>
</g>
<g>
	<path d="M227.2,23.5h-0.6v-3.2h-0.9v-0.4c0.3,0,0.5-0.1,0.7-0.2c0.2-0.1,0.3-0.2,0.4-0.4h0.4V23.5z"/>
	<path d="M229.2,23.5h-0.6v-3.2h-0.9v-0.4c0.3,0,0.5-0.1,0.7-0.2c0.2-0.1,0.3-0.2,0.4-0.4h0.4V23.5z"/>
	<path d="M231.6,22h0.3v0.6h-0.3v0.9H231v-0.9h-1.3V22l1.3-2.8h0.6V22z M231,20.5l-0.7,1.5h0.7L231,20.5L231,20.5z"/>
	<path d="M233.1,23.5h-0.7v-0.7h0.7V23.5z"/>
	<path d="M235.5,19.5c0.2,0.2,0.3,0.4,0.3,0.8v2.2c0,0.3-0.1,0.6-0.3,0.8c-0.2,0.2-0.4,0.3-0.8,0.3c-0.3,0-0.6-0.1-0.8-0.3
		c-0.2-0.2-0.3-0.4-0.3-0.8v-2.2c0-0.3,0.1-0.6,0.3-0.8c0.2-0.2,0.4-0.3,0.8-0.3C235,19.2,235.3,19.3,235.5,19.5z M234.4,19.9
		c-0.1,0.1-0.1,0.2-0.1,0.4v2.2c0,0.2,0,0.3,0.1,0.4c0.1,0.1,0.2,0.1,0.3,0.1s0.2,0,0.3-0.1c0.1-0.1,0.1-0.2,0.1-0.4v-2.2
		c0-0.2,0-0.3-0.1-0.4c-0.1-0.1-0.2-0.1-0.3-0.1S234.5,19.8,234.4,19.9z"/>
	<path d="M238.1,19.5c0.2,0.2,0.3,0.4,0.3,0.8v2.2c0,0.3-0.1,0.6-0.3,0.8c-0.2,0.2-0.4,0.3-0.8,0.3c-0.3,0-0.6-0.1-0.8-0.3
		c-0.2-0.2-0.3-0.4-0.3-0.8v-2.2c0-0.3,0.1-0.6,0.3-0.8c0.2-0.2,0.4-0.3,0.8-0.3C237.6,19.2,237.9,19.3,238.1,19.5z M237,19.9
		c-0.1,0.1-0.1,0.2-0.1,0.4v2.2c0,0.2,0,0.3,0.1,0.4c0.1,0.1,0.2,0.1,0.3,0.1s0.2,0,0.3-0.1c0.1-0.1,0.1-0.2,0.1-0.4v-2.2
		c0-0.2,0-0.3-0.1-0.4c-0.1-0.1-0.2-0.1-0.3-0.1S237.1,19.8,237,19.9z"/>
	<path d="M239.1,23.2c-0.2-0.2-0.3-0.4-0.3-0.7v-0.2l0.6,0v0.1c0,0.3,0.1,0.5,0.4,0.5c0.1,0,0.2,0,0.3-0.1c0.1-0.1,0.1-0.2,0.1-0.4
		v-0.7c0-0.2,0-0.3-0.1-0.4c-0.1-0.1-0.2-0.1-0.3-0.1c-0.1,0-0.2,0-0.3,0.1c-0.1,0.1-0.1,0.1-0.1,0.3l0,0.1l-0.6,0l0.1-2.4h1.7v0.6
		h-1.2l-0.1,1h0c0.1-0.1,0.3-0.2,0.5-0.2c0.3,0,0.5,0.1,0.6,0.3c0.2,0.2,0.2,0.4,0.2,0.8v0.8c0,0.3-0.1,0.6-0.3,0.8
		s-0.4,0.3-0.7,0.3S239.2,23.4,239.1,23.2z"/>
</g>
<g>
	<path d="M252.4,23.2h-0.6v-3.2h-0.9v-0.4c0.3,0,0.5-0.1,0.7-0.2c0.2-0.1,0.3-0.2,0.4-0.4h0.4V23.2z"/>
	<path d="M254.4,23.2h-0.6v-3.2h-0.9v-0.4c0.3,0,0.5-0.1,0.7-0.2c0.2-0.1,0.3-0.2,0.4-0.4h0.4V23.2z"/>
	<path d="M256.7,19.2c0.2,0.2,0.3,0.4,0.3,0.8v0.2c0,0.4-0.2,0.7-0.5,0.8v0c0.3,0.1,0.5,0.4,0.5,0.9v0.3c0,0.3-0.1,0.6-0.3,0.8
		c-0.2,0.2-0.4,0.3-0.8,0.3c-0.3,0-0.6-0.1-0.8-0.3c-0.2-0.2-0.3-0.4-0.3-0.7V22l0.6,0v0.2c0,0.2,0,0.3,0.1,0.4
		c0.1,0.1,0.2,0.1,0.3,0.1c0.1,0,0.2,0,0.3-0.1c0.1-0.1,0.1-0.2,0.1-0.4v-0.3c0-0.2,0-0.3-0.1-0.4s-0.2-0.1-0.4-0.1h-0.3v-0.6h0.3
		c0.1,0,0.3,0,0.3-0.1c0.1-0.1,0.1-0.2,0.1-0.4V20c0-0.2,0-0.3-0.1-0.3c-0.1-0.1-0.2-0.1-0.3-0.1c-0.1,0-0.2,0-0.3,0.1
		c-0.1,0.1-0.1,0.2-0.1,0.4v0.2l-0.6,0v-0.3c0-0.3,0.1-0.6,0.3-0.7c0.2-0.2,0.4-0.3,0.7-0.3C256.3,18.9,256.5,19,256.7,19.2z"/>
	<path d="M258.2,23.2h-0.7v-0.7h0.7V23.2z"/>
	<path d="M260.6,19.5l-1.2,3.6h-0.7l1.2-3.6h-1.3V19h2V19.5z"/>
	<path d="M262.7,19.2c0.2,0.2,0.3,0.4,0.3,0.7v0.2l-0.6,0V20c0-0.2,0-0.3-0.1-0.4c-0.1-0.1-0.2-0.1-0.3-0.1c-0.3,0-0.4,0.1-0.4,0.4
		v0.9h0c0.1-0.1,0.1-0.1,0.2-0.2c0.1,0,0.2-0.1,0.3-0.1c0.2,0,0.5,0.1,0.6,0.3c0.2,0.2,0.2,0.4,0.2,0.8v0.6c0,0.3-0.1,0.6-0.3,0.8
		s-0.4,0.3-0.8,0.3c-0.3,0-0.6-0.1-0.7-0.3c-0.2-0.2-0.3-0.4-0.3-0.8v-2.2c0-0.3,0.1-0.6,0.3-0.7c0.2-0.2,0.4-0.3,0.7-0.3
		C262.2,18.9,262.5,19,262.7,19.2z M261.7,21.3c-0.1,0.1-0.1,0.2-0.1,0.4v0.5c0,0.2,0,0.3,0.1,0.4c0.1,0.1,0.2,0.1,0.3,0.1
		s0.2,0,0.3-0.1s0.1-0.2,0.1-0.4v-0.5c0-0.2,0-0.3-0.1-0.4c-0.1-0.1-0.2-0.1-0.3-0.1S261.7,21.2,261.7,21.3z"/>
	<path d="M263.7,23c-0.2-0.2-0.3-0.4-0.3-0.7V22l0.6,0v0.1c0,0.2,0,0.3,0.1,0.4c0.1,0.1,0.2,0.1,0.3,0.1c0.3,0,0.4-0.1,0.4-0.4v-0.9
		h0c-0.1,0.1-0.1,0.1-0.2,0.2c-0.1,0-0.2,0.1-0.3,0.1c-0.2,0-0.4-0.1-0.6-0.3c-0.2-0.2-0.2-0.4-0.2-0.8V20c0-0.3,0.1-0.6,0.3-0.8
		c0.2-0.2,0.4-0.3,0.8-0.3c0.3,0,0.6,0.1,0.7,0.3c0.2,0.2,0.3,0.4,0.3,0.8v2.2c0,0.3-0.1,0.6-0.3,0.7s-0.4,0.3-0.7,0.3
		S263.8,23.1,263.7,23z M264.7,20.8c0.1-0.1,0.1-0.2,0.1-0.4V20c0-0.2,0-0.3-0.1-0.4c-0.1-0.1-0.2-0.1-0.3-0.1s-0.2,0-0.3,0.1
		S264,19.8,264,20v0.5c0,0.2,0,0.3,0.1,0.4s0.2,0.1,0.3,0.1S264.6,20.9,264.7,20.8z"/>
</g>
<g>
	<path d="M277.3,25.8h-0.6v-3.2h-0.9v-0.4c0.3,0,0.5-0.1,0.7-0.2c0.2-0.1,0.3-0.2,0.4-0.4h0.4V25.8z"/>
	<path d="M279.3,25.8h-0.6v-3.2h-0.9v-0.4c0.3,0,0.5-0.1,0.7-0.2c0.2-0.1,0.3-0.2,0.4-0.4h0.4V25.8z"/>
	<path d="M281.3,25.8h-0.6v-3.2h-0.9v-0.4c0.3,0,0.5-0.1,0.7-0.2c0.2-0.1,0.3-0.2,0.4-0.4h0.4V25.8z"/>
	<path d="M282.7,25.8H282v-0.7h0.7V25.8z"/>
	<path d="M284.9,21.8c0.2,0.2,0.3,0.4,0.3,0.7v0.2c0,0.2,0,0.4-0.1,0.6s-0.2,0.5-0.4,0.8l-0.7,1.1h1.2v0.6h-2v-0.5l0.9-1.5
		c0.1-0.2,0.2-0.4,0.3-0.6c0.1-0.2,0.1-0.3,0.1-0.5v-0.1c0-0.3-0.1-0.4-0.4-0.4c-0.1,0-0.2,0-0.3,0.1c-0.1,0.1-0.1,0.2-0.1,0.4v0.2
		l-0.6,0v-0.3c0-0.3,0.1-0.5,0.3-0.7s0.4-0.3,0.7-0.3S284.7,21.6,284.9,21.8z"/>
	<path d="M287.2,24.3h0.3v0.6h-0.3v0.9h-0.6v-0.9h-1.3v-0.5l1.3-2.8h0.6V24.3z M286.6,22.8l-0.7,1.5h0.7L286.6,22.8L286.6,22.8z"/>
	<path d="M289.7,24.3h0.3v0.6h-0.3v0.9h-0.6v-0.9h-1.3v-0.5l1.3-2.8h0.6V24.3z M289.1,22.8l-0.7,1.5h0.7L289.1,22.8L289.1,22.8z"/>
</g>
</svg>
