<?xml version="1.0" encoding="utf-8"?>
<!-- Generator: Adobe Illustrator 27.5.0, SVG Export Plug-In . SVG Version: 6.00 Build 0)  -->
<svg version="1.1" id="Capa_1" xmlns="http://www.w3.org/2000/svg" xmlns:xlink="http://www.w3.org/1999/xlink" x="0px" y="0px"
	 viewBox="0 0 300 150" style="enable-background:new 0 0 300 150;" xml:space="preserve">
<style type="text/css">
	.st0{fill:#999999;}
	.st1{fill:none;stroke:#999999;stroke-miterlimit:10;}
	.st2{fill:#006837;}
	.st3{enable-background:new    ;}
	.st4{fill:#FFFFFF;}
</style>
<g>
	<path class="st0" d="M33,140.1c0.2,0.2,0.3,0.5,0.3,0.9v2.6c0,0.4-0.1,0.7-0.3,0.9s-0.5,0.3-0.9,0.3c-0.4,0-0.7-0.1-0.9-0.3
		s-0.3-0.5-0.3-0.9V141c0-0.4,0.1-0.7,0.3-0.9s0.5-0.3,0.9-0.3C32.5,139.8,32.8,139.9,33,140.1z M31.8,140.6
		c-0.1,0.1-0.1,0.2-0.1,0.4v2.5c0,0.2,0,0.3,0.1,0.4c0.1,0.1,0.2,0.1,0.3,0.1c0.1,0,0.3,0,0.3-0.1c0.1-0.1,0.1-0.2,0.1-0.4V141
		c0-0.2,0-0.3-0.1-0.4c-0.1-0.1-0.2-0.1-0.3-0.1C32,140.5,31.8,140.5,31.8,140.6z"/>
</g>
<g>
	<path class="st0" d="M79.3,140.1c0.2,0.2,0.3,0.5,0.3,0.9v0.3c0,0.5-0.2,0.8-0.5,0.9v0c0.4,0.2,0.6,0.5,0.6,1v0.4
		c0,0.4-0.1,0.7-0.3,0.9c-0.2,0.2-0.5,0.3-0.9,0.3s-0.7-0.1-0.9-0.3c-0.2-0.2-0.3-0.5-0.3-0.9v-0.3l0.7,0v0.2c0,0.2,0,0.3,0.1,0.4
		s0.2,0.1,0.3,0.1c0.2,0,0.3,0,0.4-0.1c0.1-0.1,0.1-0.2,0.1-0.4v-0.4c0-0.2,0-0.4-0.1-0.5c-0.1-0.1-0.2-0.2-0.4-0.2h-0.3v-0.7h0.3
		c0.2,0,0.3,0,0.4-0.1c0.1-0.1,0.1-0.2,0.1-0.5V141c0-0.2,0-0.3-0.1-0.4c-0.1-0.1-0.2-0.1-0.3-0.1c-0.1,0-0.3,0-0.3,0.1
		c-0.1,0.1-0.1,0.2-0.1,0.4v0.2l-0.7,0V141c0-0.4,0.1-0.7,0.3-0.9c0.2-0.2,0.5-0.3,0.9-0.3S79.1,139.9,79.3,140.1z"/>
	<path class="st0" d="M82.3,140.1c0.2,0.2,0.3,0.5,0.3,0.9v2.6c0,0.4-0.1,0.7-0.3,0.9s-0.5,0.3-0.9,0.3c-0.4,0-0.7-0.1-0.9-0.3
		s-0.3-0.5-0.3-0.9V141c0-0.4,0.1-0.7,0.3-0.9s0.5-0.3,0.9-0.3C81.8,139.8,82.1,139.9,82.3,140.1z M81.1,140.6
		c-0.1,0.1-0.1,0.2-0.1,0.4v2.5c0,0.2,0,0.3,0.1,0.4c0.1,0.1,0.2,0.1,0.3,0.1s0.3,0,0.3-0.1c0.1-0.1,0.1-0.2,0.1-0.4V141
		c0-0.2,0-0.3-0.1-0.4c-0.1-0.1-0.2-0.1-0.3-0.1S81.1,140.5,81.1,140.6z"/>
	<path class="st0" d="M85.3,140.1c0.2,0.2,0.3,0.5,0.3,0.9v2.6c0,0.4-0.1,0.7-0.3,0.9s-0.5,0.3-0.9,0.3c-0.4,0-0.7-0.1-0.9-0.3
		s-0.3-0.5-0.3-0.9V141c0-0.4,0.1-0.7,0.3-0.9s0.5-0.3,0.9-0.3C84.8,139.8,85.1,139.9,85.3,140.1z M84.1,140.6
		c-0.1,0.1-0.1,0.2-0.1,0.4v2.5c0,0.2,0,0.3,0.1,0.4c0.1,0.1,0.2,0.1,0.3,0.1s0.3,0,0.3-0.1c0.1-0.1,0.1-0.2,0.1-0.4V141
		c0-0.2,0-0.3-0.1-0.4c-0.1-0.1-0.2-0.1-0.3-0.1S84.2,140.5,84.1,140.6z"/>
	<path class="st0" d="M88.4,140.1c0.2,0.2,0.3,0.5,0.3,0.9v2.6c0,0.4-0.1,0.7-0.3,0.9s-0.5,0.3-0.9,0.3c-0.4,0-0.7-0.1-0.9-0.3
		s-0.3-0.5-0.3-0.9V141c0-0.4,0.1-0.7,0.3-0.9s0.5-0.3,0.9-0.3C87.9,139.8,88.2,139.9,88.4,140.1z M87.1,140.6
		c-0.1,0.1-0.1,0.2-0.1,0.4v2.5c0,0.2,0,0.3,0.1,0.4c0.1,0.1,0.2,0.1,0.3,0.1s0.3,0,0.3-0.1c0.1-0.1,0.1-0.2,0.1-0.4V141
		c0-0.2,0-0.3-0.1-0.4c-0.1-0.1-0.2-0.1-0.3-0.1S87.2,140.5,87.1,140.6z"/>
	<path class="st0" d="M91.4,140.1c0.2,0.2,0.3,0.5,0.3,0.9v2.6c0,0.4-0.1,0.7-0.3,0.9s-0.5,0.3-0.9,0.3c-0.4,0-0.7-0.1-0.9-0.3
		s-0.3-0.5-0.3-0.9V141c0-0.4,0.1-0.7,0.3-0.9s0.5-0.3,0.9-0.3C90.9,139.8,91.2,139.9,91.4,140.1z M90.2,140.6
		c-0.1,0.1-0.1,0.2-0.1,0.4v2.5c0,0.2,0,0.3,0.1,0.4c0.1,0.1,0.2,0.1,0.3,0.1s0.3,0,0.3-0.1c0.1-0.1,0.1-0.2,0.1-0.4V141
		c0-0.2,0-0.3-0.1-0.4c-0.1-0.1-0.2-0.1-0.3-0.1S90.3,140.5,90.2,140.6z"/>
</g>
<g>
	<path class="st0" d="M131.7,140.1c0.2,0.2,0.3,0.5,0.3,0.9v0.2l-0.7,0V141c0-0.2,0-0.3-0.1-0.4c-0.1-0.1-0.2-0.1-0.3-0.1
		c-0.3,0-0.4,0.2-0.4,0.5v1h0c0.1-0.1,0.2-0.1,0.3-0.2c0.1,0,0.2-0.1,0.4-0.1c0.3,0,0.5,0.1,0.7,0.3c0.2,0.2,0.3,0.5,0.3,0.9v0.7
		c0,0.4-0.1,0.7-0.3,0.9s-0.5,0.3-0.9,0.3c-0.4,0-0.7-0.1-0.9-0.3s-0.3-0.5-0.3-0.9V141c0-0.4,0.1-0.7,0.3-0.9
		c0.2-0.2,0.5-0.3,0.9-0.3S131.5,139.9,131.7,140.1z M130.5,142.6c-0.1,0.1-0.1,0.2-0.1,0.4v0.6c0,0.2,0,0.3,0.1,0.4
		c0.1,0.1,0.2,0.1,0.3,0.1c0.1,0,0.3,0,0.3-0.1c0.1-0.1,0.1-0.2,0.1-0.4V143c0-0.2,0-0.3-0.1-0.4c-0.1-0.1-0.2-0.1-0.3-0.1
		C130.7,142.4,130.6,142.5,130.5,142.6z"/>
	<path class="st0" d="M134.7,140.1c0.2,0.2,0.3,0.5,0.3,0.9v2.6c0,0.4-0.1,0.7-0.3,0.9s-0.5,0.3-0.9,0.3c-0.4,0-0.7-0.1-0.9-0.3
		s-0.3-0.5-0.3-0.9V141c0-0.4,0.1-0.7,0.3-0.9s0.5-0.3,0.9-0.3C134.2,139.8,134.5,139.9,134.7,140.1z M133.5,140.6
		c-0.1,0.1-0.1,0.2-0.1,0.4v2.5c0,0.2,0,0.3,0.1,0.4c0.1,0.1,0.2,0.1,0.3,0.1s0.3,0,0.3-0.1c0.1-0.1,0.1-0.2,0.1-0.4V141
		c0-0.2,0-0.3-0.1-0.4c-0.1-0.1-0.2-0.1-0.3-0.1S133.6,140.5,133.5,140.6z"/>
	<path class="st0" d="M137.7,140.1c0.2,0.2,0.3,0.5,0.3,0.9v2.6c0,0.4-0.1,0.7-0.3,0.9s-0.5,0.3-0.9,0.3c-0.4,0-0.7-0.1-0.9-0.3
		s-0.3-0.5-0.3-0.9V141c0-0.4,0.1-0.7,0.3-0.9s0.5-0.3,0.9-0.3C137.2,139.8,137.5,139.9,137.7,140.1z M136.5,140.6
		c-0.1,0.1-0.1,0.2-0.1,0.4v2.5c0,0.2,0,0.3,0.1,0.4c0.1,0.1,0.2,0.1,0.3,0.1s0.3,0,0.3-0.1c0.1-0.1,0.1-0.2,0.1-0.4V141
		c0-0.2,0-0.3-0.1-0.4c-0.1-0.1-0.2-0.1-0.3-0.1S136.6,140.5,136.5,140.6z"/>
	<path class="st0" d="M140.8,140.1c0.2,0.2,0.3,0.5,0.3,0.9v2.6c0,0.4-0.1,0.7-0.3,0.9s-0.5,0.3-0.9,0.3c-0.4,0-0.7-0.1-0.9-0.3
		s-0.3-0.5-0.3-0.9V141c0-0.4,0.1-0.7,0.3-0.9s0.5-0.3,0.9-0.3C140.3,139.8,140.6,139.9,140.8,140.1z M139.6,140.6
		c-0.1,0.1-0.1,0.2-0.1,0.4v2.5c0,0.2,0,0.3,0.1,0.4c0.1,0.1,0.2,0.1,0.3,0.1s0.3,0,0.3-0.1c0.1-0.1,0.1-0.2,0.1-0.4V141
		c0-0.2,0-0.3-0.1-0.4c-0.1-0.1-0.2-0.1-0.3-0.1S139.6,140.5,139.6,140.6z"/>
	<path class="st0" d="M143.8,140.1c0.2,0.2,0.3,0.5,0.3,0.9v2.6c0,0.4-0.1,0.7-0.3,0.9s-0.5,0.3-0.9,0.3c-0.4,0-0.7-0.1-0.9-0.3
		s-0.3-0.5-0.3-0.9V141c0-0.4,0.1-0.7,0.3-0.9s0.5-0.3,0.9-0.3C143.3,139.8,143.6,139.9,143.8,140.1z M142.6,140.6
		c-0.1,0.1-0.1,0.2-0.1,0.4v2.5c0,0.2,0,0.3,0.1,0.4c0.1,0.1,0.2,0.1,0.3,0.1s0.3,0,0.3-0.1c0.1-0.1,0.1-0.2,0.1-0.4V141
		c0-0.2,0-0.3-0.1-0.4c-0.1-0.1-0.2-0.1-0.3-0.1S142.7,140.5,142.6,140.6z"/>
</g>
<g>
	<path class="st0" d="M182.8,144.5c-0.2-0.2-0.3-0.5-0.3-0.9v-0.2l0.7,0v0.2c0,0.2,0,0.3,0.1,0.4s0.2,0.1,0.3,0.1
		c0.3,0,0.4-0.2,0.4-0.5v-1h0c-0.1,0.1-0.2,0.1-0.3,0.2c-0.1,0-0.2,0.1-0.4,0.1c-0.3,0-0.5-0.1-0.7-0.3c-0.2-0.2-0.3-0.5-0.3-0.9
		V141c0-0.4,0.1-0.7,0.3-0.9c0.2-0.2,0.5-0.3,0.9-0.3c0.4,0,0.7,0.1,0.9,0.3c0.2,0.2,0.3,0.5,0.3,0.9v2.6c0,0.4-0.1,0.7-0.3,0.9
		c-0.2,0.2-0.5,0.3-0.9,0.3C183.3,144.8,183,144.7,182.8,144.5z M183.9,142.1c0.1-0.1,0.1-0.2,0.1-0.4V141c0-0.2,0-0.3-0.1-0.4
		s-0.2-0.1-0.3-0.1s-0.3,0-0.3,0.1s-0.1,0.2-0.1,0.4v0.6c0,0.2,0,0.3,0.1,0.4s0.2,0.1,0.3,0.1S183.9,142.1,183.9,142.1z"/>
	<path class="st0" d="M187.5,140.1c0.2,0.2,0.3,0.5,0.3,0.9v2.6c0,0.4-0.1,0.7-0.3,0.9s-0.5,0.3-0.9,0.3c-0.4,0-0.7-0.1-0.9-0.3
		c-0.2-0.2-0.3-0.5-0.3-0.9V141c0-0.4,0.1-0.7,0.3-0.9c0.2-0.2,0.5-0.3,0.9-0.3C187,139.8,187.3,139.9,187.5,140.1z M186.3,140.6
		c-0.1,0.1-0.1,0.2-0.1,0.4v2.5c0,0.2,0,0.3,0.1,0.4s0.2,0.1,0.3,0.1s0.3,0,0.3-0.1s0.1-0.2,0.1-0.4V141c0-0.2,0-0.3-0.1-0.4
		s-0.2-0.1-0.3-0.1S186.4,140.5,186.3,140.6z"/>
	<path class="st0" d="M190.6,140.1c0.2,0.2,0.3,0.5,0.3,0.9v2.6c0,0.4-0.1,0.7-0.3,0.9s-0.5,0.3-0.9,0.3c-0.4,0-0.7-0.1-0.9-0.3
		c-0.2-0.2-0.3-0.5-0.3-0.9V141c0-0.4,0.1-0.7,0.3-0.9c0.2-0.2,0.5-0.3,0.9-0.3C190.1,139.8,190.3,139.9,190.6,140.1z M189.3,140.6
		c-0.1,0.1-0.1,0.2-0.1,0.4v2.5c0,0.2,0,0.3,0.1,0.4s0.2,0.1,0.3,0.1s0.3,0,0.3-0.1s0.1-0.2,0.1-0.4V141c0-0.2,0-0.3-0.1-0.4
		s-0.2-0.1-0.3-0.1S189.4,140.5,189.3,140.6z"/>
	<path class="st0" d="M193.6,140.1c0.2,0.2,0.3,0.5,0.3,0.9v2.6c0,0.4-0.1,0.7-0.3,0.9s-0.5,0.3-0.9,0.3c-0.4,0-0.7-0.1-0.9-0.3
		c-0.2-0.2-0.3-0.5-0.3-0.9V141c0-0.4,0.1-0.7,0.3-0.9c0.2-0.2,0.5-0.3,0.9-0.3C193.1,139.8,193.4,139.9,193.6,140.1z M192.4,140.6
		c-0.1,0.1-0.1,0.2-0.1,0.4v2.5c0,0.2,0,0.3,0.1,0.4s0.2,0.1,0.3,0.1s0.3,0,0.3-0.1s0.1-0.2,0.1-0.4V141c0-0.2,0-0.3-0.1-0.4
		s-0.2-0.1-0.3-0.1S192.5,140.5,192.4,140.6z"/>
	<path class="st0" d="M196.6,140.1c0.2,0.2,0.3,0.5,0.3,0.9v2.6c0,0.4-0.1,0.7-0.3,0.9s-0.5,0.3-0.9,0.3c-0.4,0-0.7-0.1-0.9-0.3
		c-0.2-0.2-0.3-0.5-0.3-0.9V141c0-0.4,0.1-0.7,0.3-0.9c0.2-0.2,0.5-0.3,0.9-0.3C196.1,139.8,196.4,139.9,196.6,140.1z M195.4,140.6
		c-0.1,0.1-0.1,0.2-0.1,0.4v2.5c0,0.2,0,0.3,0.1,0.4s0.2,0.1,0.3,0.1s0.3,0,0.3-0.1s0.1-0.2,0.1-0.4V141c0-0.2,0-0.3-0.1-0.4
		s-0.2-0.1-0.3-0.1S195.5,140.5,195.4,140.6z"/>
</g>
<g>
	<path class="st0" d="M235.1,144.8h-0.7V141h-1v-0.5c0.3,0,0.6-0.1,0.8-0.2c0.2-0.1,0.4-0.2,0.4-0.4h0.5V144.8z"/>
	<path class="st0" d="M237.7,140.1c0.2,0.2,0.3,0.5,0.3,0.8v0.2c0,0.2,0,0.5-0.1,0.7c-0.1,0.2-0.2,0.5-0.5,0.9l-0.8,1.3h1.4v0.7
		h-2.3v-0.6l1.1-1.8c0.2-0.3,0.3-0.5,0.3-0.7c0.1-0.2,0.1-0.4,0.1-0.6V141c0-0.3-0.1-0.5-0.4-0.5c-0.1,0-0.2,0-0.3,0.1
		c-0.1,0.1-0.1,0.2-0.1,0.4v0.2l-0.7,0v-0.3c0-0.4,0.1-0.6,0.3-0.8c0.2-0.2,0.5-0.3,0.8-0.3S237.5,139.9,237.7,140.1z"/>
	<path class="st0" d="M240.6,140.1c0.2,0.2,0.3,0.5,0.3,0.9v2.6c0,0.4-0.1,0.7-0.3,0.9s-0.5,0.3-0.9,0.3c-0.4,0-0.7-0.1-0.9-0.3
		c-0.2-0.2-0.3-0.5-0.3-0.9V141c0-0.4,0.1-0.7,0.3-0.9c0.2-0.2,0.5-0.3,0.9-0.3C240.1,139.8,240.4,139.9,240.6,140.1z M239.4,140.6
		c-0.1,0.1-0.1,0.2-0.1,0.4v2.5c0,0.2,0,0.3,0.1,0.4s0.2,0.1,0.3,0.1s0.3,0,0.3-0.1s0.1-0.2,0.1-0.4V141c0-0.2,0-0.3-0.1-0.4
		s-0.2-0.1-0.3-0.1S239.5,140.5,239.4,140.6z"/>
	<path class="st0" d="M243.7,140.1c0.2,0.2,0.3,0.5,0.3,0.9v2.6c0,0.4-0.1,0.7-0.3,0.9s-0.5,0.3-0.9,0.3c-0.4,0-0.7-0.1-0.9-0.3
		c-0.2-0.2-0.3-0.5-0.3-0.9V141c0-0.4,0.1-0.7,0.3-0.9c0.2-0.2,0.5-0.3,0.9-0.3C243.2,139.8,243.5,139.9,243.7,140.1z M242.5,140.6
		c-0.1,0.1-0.1,0.2-0.1,0.4v2.5c0,0.2,0,0.3,0.1,0.4s0.2,0.1,0.3,0.1s0.3,0,0.3-0.1s0.1-0.2,0.1-0.4V141c0-0.2,0-0.3-0.1-0.4
		s-0.2-0.1-0.3-0.1S242.5,140.5,242.5,140.6z"/>
	<path class="st0" d="M246.7,140.1c0.2,0.2,0.3,0.5,0.3,0.9v2.6c0,0.4-0.1,0.7-0.3,0.9s-0.5,0.3-0.9,0.3c-0.4,0-0.7-0.1-0.9-0.3
		c-0.2-0.2-0.3-0.5-0.3-0.9V141c0-0.4,0.1-0.7,0.3-0.9c0.2-0.2,0.5-0.3,0.9-0.3C246.2,139.8,246.5,139.9,246.7,140.1z M245.5,140.6
		c-0.1,0.1-0.1,0.2-0.1,0.4v2.5c0,0.2,0,0.3,0.1,0.4s0.2,0.1,0.3,0.1s0.3,0,0.3-0.1s0.1-0.2,0.1-0.4V141c0-0.2,0-0.3-0.1-0.4
		s-0.2-0.1-0.3-0.1S245.6,140.5,245.5,140.6z"/>
	<path class="st0" d="M249.7,140.1c0.2,0.2,0.3,0.5,0.3,0.9v2.6c0,0.4-0.1,0.7-0.3,0.9s-0.5,0.3-0.9,0.3c-0.4,0-0.7-0.1-0.9-0.3
		c-0.2-0.2-0.3-0.5-0.3-0.9V141c0-0.4,0.1-0.7,0.3-0.9c0.2-0.2,0.5-0.3,0.9-0.3C249.2,139.8,249.5,139.9,249.7,140.1z M248.5,140.6
		c-0.1,0.1-0.1,0.2-0.1,0.4v2.5c0,0.2,0,0.3,0.1,0.4s0.2,0.1,0.3,0.1s0.3,0,0.3-0.1s0.1-0.2,0.1-0.4V141c0-0.2,0-0.3-0.1-0.4
		s-0.2-0.1-0.3-0.1S248.6,140.5,248.5,140.6z"/>
</g>
<g>
	<path class="st0" d="M280.3,144.8h-0.7V141h-1v-0.5c0.3,0,0.6-0.1,0.8-0.2c0.2-0.1,0.4-0.2,0.4-0.4h0.5V144.8z"/>
	<path class="st0" d="M281.3,144.5c-0.2-0.2-0.3-0.5-0.3-0.9v-0.2l0.7,0v0.1c0,0.4,0.1,0.6,0.4,0.6c0.2,0,0.3,0,0.3-0.1
		c0.1-0.1,0.1-0.2,0.1-0.4v-0.8c0-0.2,0-0.3-0.1-0.4c-0.1-0.1-0.2-0.1-0.3-0.1c-0.1,0-0.2,0-0.3,0.1c-0.1,0.1-0.1,0.2-0.1,0.3l0,0.1
		l-0.7,0l0.2-2.8h2v0.7h-1.4l-0.1,1.2h0c0.1-0.1,0.3-0.2,0.6-0.2c0.3,0,0.6,0.1,0.7,0.3c0.2,0.2,0.3,0.5,0.3,0.9v0.9
		c0,0.4-0.1,0.7-0.3,0.9c-0.2,0.2-0.5,0.3-0.9,0.3S281.5,144.7,281.3,144.5z"/>
	<path class="st0" d="M285.9,140.1c0.2,0.2,0.3,0.5,0.3,0.9v2.6c0,0.4-0.1,0.7-0.3,0.9s-0.5,0.3-0.9,0.3c-0.4,0-0.7-0.1-0.9-0.3
		c-0.2-0.2-0.3-0.5-0.3-0.9V141c0-0.4,0.1-0.7,0.3-0.9c0.2-0.2,0.5-0.3,0.9-0.3C285.4,139.8,285.7,139.9,285.9,140.1z M284.7,140.6
		c-0.1,0.1-0.1,0.2-0.1,0.4v2.5c0,0.2,0,0.3,0.1,0.4s0.2,0.1,0.3,0.1s0.3,0,0.3-0.1s0.1-0.2,0.1-0.4V141c0-0.2,0-0.3-0.1-0.4
		s-0.2-0.1-0.3-0.1S284.8,140.5,284.7,140.6z"/>
	<path class="st0" d="M289,140.1c0.2,0.2,0.3,0.5,0.3,0.9v2.6c0,0.4-0.1,0.7-0.3,0.9s-0.5,0.3-0.9,0.3c-0.4,0-0.7-0.1-0.9-0.3
		c-0.2-0.2-0.3-0.5-0.3-0.9V141c0-0.4,0.1-0.7,0.3-0.9c0.2-0.2,0.5-0.3,0.9-0.3C288.5,139.8,288.8,139.9,289,140.1z M287.8,140.6
		c-0.1,0.1-0.1,0.2-0.1,0.4v2.5c0,0.2,0,0.3,0.1,0.4s0.2,0.1,0.3,0.1s0.3,0,0.3-0.1s0.1-0.2,0.1-0.4V141c0-0.2,0-0.3-0.1-0.4
		s-0.2-0.1-0.3-0.1S287.8,140.5,287.8,140.6z"/>
	<path class="st0" d="M292,140.1c0.2,0.2,0.3,0.5,0.3,0.9v2.6c0,0.4-0.1,0.7-0.3,0.9s-0.5,0.3-0.9,0.3c-0.4,0-0.7-0.1-0.9-0.3
		c-0.2-0.2-0.3-0.5-0.3-0.9V141c0-0.4,0.1-0.7,0.3-0.9c0.2-0.2,0.5-0.3,0.9-0.3C291.5,139.8,291.8,139.9,292,140.1z M290.8,140.6
		c-0.1,0.1-0.1,0.2-0.1,0.4v2.5c0,0.2,0,0.3,0.1,0.4s0.2,0.1,0.3,0.1s0.3,0,0.3-0.1s0.1-0.2,0.1-0.4V141c0-0.2,0-0.3-0.1-0.4
		s-0.2-0.1-0.3-0.1S290.9,140.5,290.8,140.6z"/>
	<path class="st0" d="M295,140.1c0.2,0.2,0.3,0.5,0.3,0.9v2.6c0,0.4-0.1,0.7-0.3,0.9s-0.5,0.3-0.9,0.3c-0.4,0-0.7-0.1-0.9-0.3
		c-0.2-0.2-0.3-0.5-0.3-0.9V141c0-0.4,0.1-0.7,0.3-0.9c0.2-0.2,0.5-0.3,0.9-0.3C294.5,139.8,294.8,139.9,295,140.1z M293.8,140.6
		c-0.1,0.1-0.1,0.2-0.1,0.4v2.5c0,0.2,0,0.3,0.1,0.4s0.2,0.1,0.3,0.1s0.3,0,0.3-0.1s0.1-0.2,0.1-0.4V141c0-0.2,0-0.3-0.1-0.4
		s-0.2-0.1-0.3-0.1S293.9,140.5,293.8,140.6z"/>
</g>
<line class="st1" x1="31.6" y1="136" x2="294.6" y2="136"/>
<line class="st1" x1="32.1" y1="136" x2="32.1" y2="8.4"/>
<line class="st1" x1="84.5" y1="136" x2="84.5" y2="132.8"/>
<line class="st1" x1="136.9" y1="136" x2="136.9" y2="132.8"/>
<line class="st1" x1="189.3" y1="136" x2="189.3" y2="132.8"/>
<line class="st1" x1="241.7" y1="136" x2="241.7" y2="132.8"/>
<line class="st1" x1="294.1" y1="136" x2="294.1" y2="132.8"/>
<rect x="32.1" y="120.9" class="st2" width="187.6" height="6.7"/>
<rect x="32.1" y="112.2" class="st2" width="176.2" height="6.7"/>
<rect x="32.1" y="103.6" class="st2" width="146.4" height="6.7"/>
<rect x="32.1" y="94.9" class="st2" width="172" height="6.7"/>
<rect x="32.1" y="86.3" class="st2" width="158.2" height="6.7"/>
<rect x="32.1" y="77.6" class="st2" width="172.9" height="6.7"/>
<rect x="32.1" y="69" class="st2" width="166.6" height="6.7"/>
<rect x="32.1" y="60.3" class="st2" width="180.9" height="6.7"/>
<rect x="32.1" y="51.7" class="st2" width="174.5" height="6.7"/>
<rect x="32.1" y="43" class="st2" width="160.6" height="6.7"/>
<rect x="32.1" y="34.4" class="st2" width="156.3" height="6.7"/>
<rect x="32.1" y="25.7" class="st2" width="185.4" height="6.7"/>
<rect x="32.1" y="17.1" class="st2" width="201.8" height="6.7"/>
<rect x="32.1" y="8.4" class="st2" width="213.1" height="6.7"/>
<g>
	<path class="st0" d="M13.4,9.8c0.2,0.2,0.3,0.5,0.3,0.9v0.2c0,0.3-0.1,0.6-0.2,0.8c-0.1,0.3-0.3,0.6-0.5,1.1l-0.9,1.5h1.6v0.8h-2.6
		v-0.7l1.3-2c0.2-0.3,0.3-0.6,0.4-0.8c0.1-0.2,0.1-0.5,0.1-0.7v-0.1c0-0.4-0.2-0.6-0.5-0.6c-0.2,0-0.3,0.1-0.4,0.2
		c-0.1,0.1-0.1,0.3-0.1,0.5v0.3l-0.8,0v-0.4c0-0.4,0.1-0.7,0.3-1s0.5-0.3,1-0.3S13.2,9.5,13.4,9.8z"/>
	<path class="st0" d="M16.7,9.8c0.2,0.3,0.4,0.6,0.4,1v2.9c0,0.4-0.1,0.8-0.4,1c-0.2,0.3-0.6,0.4-1,0.4s-0.8-0.1-1-0.4
		s-0.4-0.6-0.4-1v-2.9c0-0.4,0.1-0.8,0.4-1s0.6-0.4,1-0.4S16.5,9.5,16.7,9.8z M15.3,10.4c-0.1,0.1-0.1,0.3-0.1,0.5v2.9
		c0,0.2,0,0.4,0.1,0.5c0.1,0.1,0.2,0.2,0.4,0.2c0.2,0,0.3-0.1,0.4-0.2c0.1-0.1,0.1-0.3,0.1-0.5v-2.9c0-0.2,0-0.4-0.1-0.5
		s-0.2-0.2-0.4-0.2C15.5,10.2,15.4,10.3,15.3,10.4z"/>
	<path class="st0" d="M20.2,9.8c0.2,0.3,0.4,0.6,0.4,1v2.9c0,0.4-0.1,0.8-0.4,1c-0.2,0.3-0.6,0.4-1,0.4s-0.8-0.1-1-0.4
		s-0.4-0.6-0.4-1v-2.9c0-0.4,0.1-0.8,0.4-1s0.6-0.4,1-0.4S19.9,9.5,20.2,9.8z M18.8,10.4c-0.1,0.1-0.1,0.3-0.1,0.5v2.9
		c0,0.2,0,0.4,0.1,0.5c0.1,0.1,0.2,0.2,0.4,0.2c0.2,0,0.3-0.1,0.4-0.2c0.1-0.1,0.1-0.3,0.1-0.5v-2.9c0-0.2,0-0.4-0.1-0.5
		s-0.2-0.2-0.4-0.2C19,10.2,18.9,10.3,18.8,10.4z"/>
	<path class="st0" d="M23.6,9.8c0.2,0.2,0.3,0.6,0.3,1V11l-0.8,0v-0.2c0-0.2,0-0.4-0.1-0.5c-0.1-0.1-0.2-0.2-0.4-0.2
		c-0.3,0-0.5,0.2-0.5,0.6v1.2h0c0.1-0.1,0.2-0.2,0.3-0.2c0.1-0.1,0.3-0.1,0.4-0.1c0.3,0,0.6,0.1,0.8,0.4c0.2,0.2,0.3,0.6,0.3,1v0.8
		c0,0.4-0.1,0.8-0.4,1s-0.6,0.4-1,0.4c-0.4,0-0.7-0.1-1-0.4s-0.4-0.6-0.4-1v-3c0-0.4,0.1-0.8,0.4-1c0.2-0.2,0.6-0.4,1-0.4
		S23.4,9.5,23.6,9.8z M22.3,12.6c-0.1,0.1-0.1,0.3-0.1,0.5v0.7c0,0.2,0,0.4,0.1,0.5c0.1,0.1,0.2,0.2,0.4,0.2c0.2,0,0.3-0.1,0.4-0.2
		c0.1-0.1,0.1-0.3,0.1-0.5v-0.7c0-0.2,0-0.4-0.1-0.5s-0.2-0.2-0.4-0.2C22.5,12.4,22.3,12.5,22.3,12.6z"/>
</g>
<g class="st3">
	<path class="st4" d="M47.9,35.5c0.2,0.2,0.3,0.5,0.3,0.9v0.3c0,0.5-0.2,0.8-0.5,0.9v0c0.4,0.2,0.6,0.5,0.6,1.1v0.4
		c0,0.4-0.1,0.7-0.3,0.9c-0.2,0.2-0.5,0.3-0.9,0.3s-0.7-0.1-0.9-0.3s-0.3-0.5-0.3-0.9v-0.4c0-0.5,0.2-0.9,0.6-1.1v0
		c-0.4-0.1-0.5-0.5-0.5-0.9v-0.3c0-0.4,0.1-0.7,0.3-0.9c0.2-0.2,0.5-0.3,0.9-0.3S47.7,35.3,47.9,35.5z M46.7,38.1
		c-0.1,0.1-0.1,0.2-0.1,0.4V39c0,0.2,0,0.3,0.1,0.4c0.1,0.1,0.2,0.1,0.4,0.1s0.3,0,0.4-0.1c0.1-0.1,0.1-0.2,0.1-0.4v-0.4
		c0-0.2,0-0.3-0.1-0.4S47.2,38,47.1,38S46.8,38,46.7,38.1z M46.7,36c-0.1,0.1-0.1,0.2-0.1,0.4v0.4c0,0.2,0,0.3,0.1,0.4
		c0.1,0.1,0.2,0.1,0.3,0.1s0.2,0,0.3-0.1c0.1-0.1,0.1-0.2,0.1-0.4v-0.4c0-0.2,0-0.3-0.1-0.4s-0.2-0.1-0.3-0.1S46.8,35.9,46.7,36z"/>
	<path class="st4" d="M49.1,40c-0.2-0.2-0.3-0.5-0.3-0.9v-0.2l0.7,0V39c0,0.2,0,0.3,0.1,0.4c0.1,0.1,0.2,0.1,0.3,0.1
		c0.3,0,0.4-0.2,0.4-0.5v-1h0c-0.1,0.1-0.2,0.1-0.3,0.2c-0.1,0-0.2,0.1-0.4,0.1c-0.3,0-0.5-0.1-0.7-0.3c-0.2-0.2-0.3-0.5-0.3-0.9
		v-0.7c0-0.4,0.1-0.7,0.3-0.9c0.2-0.2,0.5-0.3,0.9-0.3c0.4,0,0.7,0.1,0.9,0.3c0.2,0.2,0.3,0.5,0.3,0.9v2.6c0,0.4-0.1,0.7-0.3,0.9
		c-0.2,0.2-0.5,0.3-0.9,0.3S49.3,40.2,49.1,40z M50.3,37.5c0.1-0.1,0.1-0.2,0.1-0.4v-0.6c0-0.2,0-0.3-0.1-0.4
		c-0.1-0.1-0.2-0.1-0.3-0.1c-0.1,0-0.3,0-0.3,0.1c-0.1,0.1-0.1,0.2-0.1,0.4v0.6c0,0.2,0,0.3,0.1,0.4c0.1,0.1,0.2,0.1,0.3,0.1
		C50.1,37.6,50.2,37.6,50.3,37.5z"/>
	<path class="st4" d="M52.6,40.2h-0.8v-0.8h0.8V40.2z"/>
	<path class="st4" d="M55.4,38.5h0.3v0.7h-0.3v1h-0.7v-1h-1.6v-0.6l1.6-3.2h0.7V38.5z M54.7,36.7l-0.8,1.8h0.8L54.7,36.7L54.7,36.7z
		"/>
	<path class="st4" d="M58.3,35.5c0.2,0.2,0.3,0.5,0.3,0.9v0.2l-0.7,0v-0.2c0-0.2,0-0.3-0.1-0.4c-0.1-0.1-0.2-0.1-0.3-0.1
		c-0.3,0-0.4,0.2-0.4,0.5v1h0c0.1-0.1,0.2-0.1,0.3-0.2c0.1,0,0.2-0.1,0.4-0.1c0.3,0,0.5,0.1,0.7,0.3c0.2,0.2,0.3,0.5,0.3,0.9V39
		c0,0.4-0.1,0.7-0.3,0.9c-0.2,0.2-0.5,0.3-0.9,0.3c-0.4,0-0.7-0.1-0.9-0.3c-0.2-0.2-0.3-0.5-0.3-0.9v-2.6c0-0.4,0.1-0.7,0.3-0.9
		c0.2-0.2,0.5-0.3,0.9-0.3S58.1,35.3,58.3,35.5z M57.1,38C57,38.1,57,38.2,57,38.4V39c0,0.2,0,0.3,0.1,0.4c0.1,0.1,0.2,0.1,0.3,0.1
		c0.1,0,0.3,0,0.3-0.1c0.1-0.1,0.1-0.2,0.1-0.4v-0.6c0-0.2,0-0.3-0.1-0.4c-0.1-0.1-0.2-0.1-0.3-0.1C57.3,37.8,57.2,37.9,57.1,38z"/>
	<path class="st4" d="M61.2,35.5c0.2,0.2,0.3,0.5,0.3,0.9v0.3c0,0.5-0.2,0.8-0.5,0.9v0c0.4,0.2,0.6,0.5,0.6,1.1v0.4
		c0,0.4-0.1,0.7-0.3,0.9c-0.2,0.2-0.5,0.3-0.9,0.3s-0.7-0.1-0.9-0.3s-0.3-0.5-0.3-0.9v-0.4c0-0.5,0.2-0.9,0.6-1.1v0
		c-0.4-0.1-0.5-0.5-0.5-0.9v-0.3c0-0.4,0.1-0.7,0.3-0.9c0.2-0.2,0.5-0.3,0.9-0.3S61,35.3,61.2,35.5z M60,38.1
		c-0.1,0.1-0.1,0.2-0.1,0.4V39c0,0.2,0,0.3,0.1,0.4c0.1,0.1,0.2,0.1,0.4,0.1s0.3,0,0.4-0.1c0.1-0.1,0.1-0.2,0.1-0.4v-0.4
		c0-0.2,0-0.3-0.1-0.4S60.5,38,60.3,38S60.1,38,60,38.1z M60,36c-0.1,0.1-0.1,0.2-0.1,0.4v0.4c0,0.2,0,0.3,0.1,0.4
		c0.1,0.1,0.2,0.1,0.3,0.1s0.2,0,0.3-0.1c0.1-0.1,0.1-0.2,0.1-0.4v-0.4c0-0.2,0-0.3-0.1-0.4s-0.2-0.1-0.3-0.1S60.1,35.9,60,36z"/>
	<path class="st4" d="M62.9,40.1L62.6,41h-0.4l0.3-0.8h-0.3v-0.8h0.8V40.1z"/>
	<path class="st4" d="M65.6,35.5c0.2,0.2,0.3,0.5,0.3,0.9v0.3c0,0.5-0.2,0.8-0.5,0.9v0c0.4,0.2,0.6,0.5,0.6,1.1v0.4
		c0,0.4-0.1,0.7-0.3,0.9s-0.5,0.3-0.9,0.3s-0.7-0.1-0.9-0.3c-0.2-0.2-0.3-0.5-0.3-0.9v-0.3l0.7,0V39c0,0.2,0,0.3,0.1,0.4
		s0.2,0.1,0.3,0.1c0.2,0,0.3,0,0.4-0.1c0.1-0.1,0.1-0.2,0.1-0.4v-0.4c0-0.2,0-0.4-0.1-0.5C65,38,64.8,38,64.7,38h-0.3v-0.7h0.3
		c0.2,0,0.3,0,0.4-0.1c0.1-0.1,0.1-0.2,0.1-0.5v-0.3c0-0.2,0-0.3-0.1-0.4c-0.1-0.1-0.2-0.1-0.3-0.1c-0.1,0-0.3,0-0.3,0.1
		c-0.1,0.1-0.1,0.2-0.1,0.4v0.2l-0.7,0v-0.3c0-0.4,0.1-0.7,0.3-0.9c0.2-0.2,0.5-0.3,0.9-0.3S65.4,35.3,65.6,35.5z"/>
</g>
<g class="st3">
	<path class="st4" d="M46.2,48.7c-0.2-0.2-0.3-0.5-0.3-0.9v-0.2l0.7,0v0.2c0,0.2,0,0.3,0.1,0.4c0.1,0.1,0.2,0.1,0.3,0.1
		c0.3,0,0.4-0.2,0.4-0.5v-1h0c-0.1,0.1-0.2,0.1-0.3,0.2c-0.1,0-0.2,0.1-0.4,0.1c-0.3,0-0.5-0.1-0.7-0.3c-0.2-0.2-0.3-0.5-0.3-0.9
		v-0.7c0-0.4,0.1-0.7,0.3-0.9c0.2-0.2,0.5-0.3,0.9-0.3c0.4,0,0.7,0.1,0.9,0.3c0.2,0.2,0.3,0.5,0.3,0.9v2.6c0,0.4-0.1,0.7-0.3,0.9
		c-0.2,0.2-0.5,0.3-0.9,0.3S46.4,48.9,46.2,48.7z M47.4,46.2c0.1-0.1,0.1-0.2,0.1-0.4v-0.6c0-0.2,0-0.3-0.1-0.4
		c-0.1-0.1-0.2-0.1-0.3-0.1c-0.1,0-0.3,0-0.3,0.1c-0.1,0.1-0.1,0.2-0.1,0.4v0.6c0,0.2,0,0.3,0.1,0.4c0.1,0.1,0.2,0.1,0.3,0.1
		C47.2,46.4,47.3,46.3,47.4,46.2z"/>
	<path class="st4" d="M50.5,48.9h-0.7v-3.8h-1v-0.5c0.3,0,0.6-0.1,0.8-0.2c0.2-0.1,0.4-0.2,0.4-0.4h0.5V48.9z"/>
	<path class="st4" d="M52.1,48.9h-0.8v-0.8h0.8V48.9z"/>
	<path class="st4" d="M53.1,48.7c-0.2-0.2-0.3-0.5-0.3-0.9v-0.2l0.7,0v0.2c0,0.2,0,0.3,0.1,0.4c0.1,0.1,0.2,0.1,0.3,0.1
		c0.3,0,0.4-0.2,0.4-0.5v-1h0c-0.1,0.1-0.2,0.1-0.3,0.2c-0.1,0-0.2,0.1-0.4,0.1c-0.3,0-0.5-0.1-0.7-0.3c-0.2-0.2-0.3-0.5-0.3-0.9
		v-0.7c0-0.4,0.1-0.7,0.3-0.9c0.2-0.2,0.5-0.3,0.9-0.3c0.4,0,0.7,0.1,0.9,0.3c0.2,0.2,0.3,0.5,0.3,0.9v2.6c0,0.4-0.1,0.7-0.3,0.9
		C54.6,48.9,54.4,49,54,49S53.3,48.9,53.1,48.7z M54.3,46.2c0.1-0.1,0.1-0.2,0.1-0.4v-0.6c0-0.2,0-0.3-0.1-0.4
		c-0.1-0.1-0.2-0.1-0.3-0.1c-0.1,0-0.3,0-0.3,0.1c-0.1,0.1-0.1,0.2-0.1,0.4v0.6c0,0.2,0,0.3,0.1,0.4c0.1,0.1,0.2,0.1,0.3,0.1
		C54.1,46.4,54.2,46.3,54.3,46.2z"/>
	<path class="st4" d="M56,48.7c-0.2-0.2-0.3-0.5-0.3-0.9v-0.2l0.7,0v0.1c0,0.4,0.1,0.6,0.4,0.6c0.2,0,0.3,0,0.3-0.1
		c0.1-0.1,0.1-0.2,0.1-0.4v-0.8c0-0.2,0-0.3-0.1-0.4c-0.1-0.1-0.2-0.1-0.3-0.1c-0.1,0-0.2,0-0.3,0.1c-0.1,0.1-0.1,0.2-0.1,0.3l0,0.1
		l-0.7,0l0.2-2.8h2v0.7h-1.4l-0.1,1.2h0c0.1-0.1,0.3-0.2,0.6-0.2c0.3,0,0.6,0.1,0.7,0.3c0.2,0.2,0.3,0.5,0.3,0.9v0.9
		c0,0.4-0.1,0.7-0.3,0.9c-0.2,0.2-0.5,0.3-0.9,0.3C56.5,49,56.2,48.9,56,48.7z"/>
	<path class="st4" d="M58.9,48.7c-0.2-0.2-0.3-0.5-0.3-0.9v-0.2l0.7,0v0.2c0,0.2,0,0.3,0.1,0.4c0.1,0.1,0.2,0.1,0.3,0.1
		c0.3,0,0.4-0.2,0.4-0.5v-1h0C60.1,46.9,60,47,59.9,47c-0.1,0-0.2,0.1-0.4,0.1c-0.3,0-0.5-0.1-0.7-0.3c-0.2-0.2-0.3-0.5-0.3-0.9
		v-0.7c0-0.4,0.1-0.7,0.3-0.9c0.2-0.2,0.5-0.3,0.9-0.3c0.4,0,0.7,0.1,0.9,0.3c0.2,0.2,0.3,0.5,0.3,0.9v2.6c0,0.4-0.1,0.7-0.3,0.9
		c-0.2,0.2-0.5,0.3-0.9,0.3S59.1,48.9,58.9,48.7z M60.1,46.2c0.1-0.1,0.1-0.2,0.1-0.4v-0.6c0-0.2,0-0.3-0.1-0.4
		c-0.1-0.1-0.2-0.1-0.3-0.1c-0.1,0-0.3,0-0.3,0.1c-0.1,0.1-0.1,0.2-0.1,0.4v0.6c0,0.2,0,0.3,0.1,0.4c0.1,0.1,0.2,0.1,0.3,0.1
		C59.9,46.4,60,46.3,60.1,46.2z"/>
	<path class="st4" d="M62.4,48.9L62,49.7h-0.4l0.3-0.8h-0.3v-0.8h0.8V48.9z"/>
	<path class="st4" d="M65.1,44.3c0.2,0.2,0.3,0.5,0.3,0.9v0.3c0,0.5-0.2,0.8-0.5,0.9v0c0.4,0.2,0.6,0.5,0.6,1.1v0.4
		c0,0.4-0.1,0.7-0.3,0.9S64.6,49,64.2,49s-0.7-0.1-0.9-0.3c-0.2-0.2-0.3-0.5-0.3-0.9v-0.3l0.7,0v0.2c0,0.2,0,0.3,0.1,0.4
		s0.2,0.1,0.3,0.1c0.2,0,0.3,0,0.4-0.1c0.1-0.1,0.1-0.2,0.1-0.4v-0.4c0-0.2,0-0.4-0.1-0.5c-0.1-0.1-0.2-0.2-0.4-0.2h-0.3v-0.7h0.3
		c0.2,0,0.3,0,0.4-0.1c0.1-0.1,0.1-0.2,0.1-0.5v-0.3c0-0.2,0-0.3-0.1-0.4c-0.1-0.1-0.2-0.1-0.3-0.1c-0.1,0-0.3,0-0.3,0.1
		c-0.1,0.1-0.1,0.2-0.1,0.4v0.2l-0.7,0v-0.3c0-0.4,0.1-0.7,0.3-0.9c0.2-0.2,0.5-0.3,0.9-0.3S64.9,44.1,65.1,44.3z"/>
</g>
<g class="st3">
	<path class="st4" d="M46.2,57.2c-0.2-0.2-0.3-0.5-0.3-0.9v-0.2l0.7,0v0.2c0,0.2,0,0.3,0.1,0.4c0.1,0.1,0.2,0.1,0.3,0.1
		c0.3,0,0.4-0.2,0.4-0.5v-1h0c-0.1,0.1-0.2,0.1-0.3,0.2c-0.1,0-0.2,0.1-0.4,0.1c-0.3,0-0.5-0.1-0.7-0.3c-0.2-0.2-0.3-0.5-0.3-0.9
		v-0.7c0-0.4,0.1-0.7,0.3-0.9c0.2-0.2,0.5-0.3,0.9-0.3c0.4,0,0.7,0.1,0.9,0.3c0.2,0.2,0.3,0.5,0.3,0.9v2.6c0,0.4-0.1,0.7-0.3,0.9
		c-0.2,0.2-0.5,0.3-0.9,0.3S46.4,57.4,46.2,57.2z M47.4,54.7c0.1-0.1,0.1-0.2,0.1-0.4v-0.6c0-0.2,0-0.3-0.1-0.4
		c-0.1-0.1-0.2-0.1-0.3-0.1c-0.1,0-0.3,0-0.3,0.1c-0.1,0.1-0.1,0.2-0.1,0.4v0.6c0,0.2,0,0.3,0.1,0.4c0.1,0.1,0.2,0.1,0.3,0.1
		C47.2,54.8,47.3,54.8,47.4,54.7z"/>
	<path class="st4" d="M49.2,57.2c-0.2-0.2-0.3-0.5-0.3-0.9v-0.2l0.7,0v0.2c0,0.2,0,0.3,0.1,0.4c0.1,0.1,0.2,0.1,0.3,0.1
		c0.3,0,0.4-0.2,0.4-0.5v-1h0c-0.1,0.1-0.2,0.1-0.3,0.2c-0.1,0-0.2,0.1-0.4,0.1c-0.3,0-0.5-0.1-0.7-0.3c-0.2-0.2-0.3-0.5-0.3-0.9
		v-0.7c0-0.4,0.1-0.7,0.3-0.9c0.2-0.2,0.5-0.3,0.9-0.3c0.4,0,0.7,0.1,0.9,0.3c0.2,0.2,0.3,0.5,0.3,0.9v2.6c0,0.4-0.1,0.7-0.3,0.9
		c-0.2,0.2-0.5,0.3-0.9,0.3S49.4,57.4,49.2,57.2z M50.4,54.7c0.1-0.1,0.1-0.2,0.1-0.4v-0.6c0-0.2,0-0.3-0.1-0.4
		c-0.1-0.1-0.2-0.1-0.3-0.1c-0.1,0-0.3,0-0.3,0.1c-0.1,0.1-0.1,0.2-0.1,0.4v0.6c0,0.2,0,0.3,0.1,0.4c0.1,0.1,0.2,0.1,0.3,0.1
		C50.2,54.8,50.3,54.8,50.4,54.7z"/>
	<path class="st4" d="M52.7,57.4h-0.8v-0.8h0.8V57.4z"/>
	<path class="st4" d="M53.7,57.2c-0.2-0.2-0.3-0.5-0.3-0.9v-0.2l0.7,0v0.2c0,0.2,0,0.3,0.1,0.4c0.1,0.1,0.2,0.1,0.3,0.1
		c0.3,0,0.4-0.2,0.4-0.5v-1h0c-0.1,0.1-0.2,0.1-0.3,0.2c-0.1,0-0.2,0.1-0.4,0.1c-0.3,0-0.5-0.1-0.7-0.3c-0.2-0.2-0.3-0.5-0.3-0.9
		v-0.7c0-0.4,0.1-0.7,0.3-0.9c0.2-0.2,0.5-0.3,0.9-0.3c0.4,0,0.7,0.1,0.9,0.3c0.2,0.2,0.3,0.5,0.3,0.9v2.6c0,0.4-0.1,0.7-0.3,0.9
		c-0.2,0.2-0.5,0.3-0.9,0.3S53.9,57.4,53.7,57.2z M54.9,54.7c0.1-0.1,0.1-0.2,0.1-0.4v-0.6c0-0.2,0-0.3-0.1-0.4
		c-0.1-0.1-0.2-0.1-0.3-0.1c-0.1,0-0.3,0-0.3,0.1c-0.1,0.1-0.1,0.2-0.1,0.4v0.6c0,0.2,0,0.3,0.1,0.4c0.1,0.1,0.2,0.1,0.3,0.1
		C54.7,54.8,54.8,54.8,54.9,54.7z"/>
	<path class="st4" d="M58,57.4h-0.7v-3.8h-1v-0.5c0.3,0,0.6-0.1,0.8-0.2c0.2-0.1,0.4-0.2,0.4-0.4H58V57.4z"/>
	<path class="st4" d="M59,57.2c-0.2-0.2-0.3-0.5-0.3-0.9v-0.2l0.7,0v0.2c0,0.2,0,0.3,0.1,0.4c0.1,0.1,0.2,0.1,0.3,0.1
		c0.3,0,0.4-0.2,0.4-0.5v-1h0c-0.1,0.1-0.2,0.1-0.3,0.2c-0.1,0-0.2,0.1-0.4,0.1c-0.3,0-0.5-0.1-0.7-0.3c-0.2-0.2-0.3-0.5-0.3-0.9
		v-0.7c0-0.4,0.1-0.7,0.3-0.9c0.2-0.2,0.5-0.3,0.9-0.3c0.4,0,0.7,0.1,0.9,0.3c0.2,0.2,0.3,0.5,0.3,0.9v2.6c0,0.4-0.1,0.7-0.3,0.9
		c-0.2,0.2-0.5,0.3-0.9,0.3S59.3,57.4,59,57.2z M60.2,54.7c0.1-0.1,0.1-0.2,0.1-0.4v-0.6c0-0.2,0-0.3-0.1-0.4
		c-0.1-0.1-0.2-0.1-0.3-0.1c-0.1,0-0.3,0-0.3,0.1c-0.1,0.1-0.1,0.2-0.1,0.4v0.6c0,0.2,0,0.3,0.1,0.4c0.1,0.1,0.2,0.1,0.3,0.1
		C60,54.8,60.1,54.8,60.2,54.7z"/>
	<path class="st4" d="M62.6,57.3l-0.4,0.9h-0.4l0.3-0.8h-0.3v-0.8h0.8V57.3z"/>
	<path class="st4" d="M65.1,52.7c0.2,0.2,0.3,0.5,0.3,0.8v0.2c0,0.2,0,0.5-0.1,0.7c-0.1,0.2-0.2,0.5-0.5,0.9L64,56.7h1.4v0.7h-2.3
		v-0.6l1.1-1.8c0.2-0.3,0.3-0.5,0.3-0.7c0.1-0.2,0.1-0.4,0.1-0.6v-0.1c0-0.3-0.1-0.5-0.4-0.5c-0.1,0-0.2,0-0.3,0.1
		c-0.1,0.1-0.1,0.2-0.1,0.4v0.2l-0.7,0v-0.3c0-0.4,0.1-0.6,0.3-0.8s0.5-0.3,0.8-0.3S64.9,52.5,65.1,52.7z"/>
</g>
<g class="st3">
	<path class="st4" d="M46.2,74.8c-0.2-0.2-0.3-0.5-0.3-0.9v-0.2l0.7,0v0.2c0,0.2,0,0.3,0.1,0.4c0.1,0.1,0.2,0.1,0.3,0.1
		c0.3,0,0.4-0.2,0.4-0.5v-1h0c-0.1,0.1-0.2,0.1-0.3,0.2c-0.1,0-0.2,0.1-0.4,0.1c-0.3,0-0.5-0.1-0.7-0.3c-0.2-0.2-0.3-0.5-0.3-0.9
		v-0.7c0-0.4,0.1-0.7,0.3-0.9c0.2-0.2,0.5-0.3,0.9-0.3c0.4,0,0.7,0.1,0.9,0.3c0.2,0.2,0.3,0.5,0.3,0.9v2.6c0,0.4-0.1,0.7-0.3,0.9
		c-0.2,0.2-0.5,0.3-0.9,0.3S46.4,75,46.2,74.8z M47.4,72.3c0.1-0.1,0.1-0.2,0.1-0.4v-0.6c0-0.2,0-0.3-0.1-0.4
		c-0.1-0.1-0.2-0.1-0.3-0.1c-0.1,0-0.3,0-0.3,0.1c-0.1,0.1-0.1,0.2-0.1,0.4v0.6c0,0.2,0,0.3,0.1,0.4c0.1,0.1,0.2,0.1,0.3,0.1
		C47.2,72.4,47.3,72.4,47.4,72.3z"/>
	<path class="st4" d="M49.1,74.8c-0.2-0.2-0.3-0.5-0.3-0.9v-0.2l0.7,0v0.1c0,0.4,0.1,0.6,0.4,0.6c0.2,0,0.3,0,0.3-0.1
		c0.1-0.1,0.1-0.2,0.1-0.4V73c0-0.2,0-0.3-0.1-0.4c-0.1-0.1-0.2-0.1-0.3-0.1c-0.1,0-0.2,0-0.3,0.1c-0.1,0.1-0.1,0.2-0.1,0.3l0,0.1
		l-0.7,0l0.2-2.8h2v0.7h-1.4L49.6,72h0c0.1-0.1,0.3-0.2,0.6-0.2c0.3,0,0.6,0.1,0.7,0.3c0.2,0.2,0.3,0.5,0.3,0.9v0.9
		c0,0.4-0.1,0.7-0.3,0.9c-0.2,0.2-0.5,0.3-0.9,0.3C49.6,75.1,49.3,75,49.1,74.8z"/>
	<path class="st4" d="M52.6,75h-0.8v-0.8h0.8V75z"/>
	<path class="st4" d="M55.2,70.3c0.2,0.2,0.3,0.5,0.3,0.9v0.3c0,0.5-0.2,0.8-0.5,0.9v0c0.4,0.2,0.6,0.5,0.6,1.1v0.4
		c0,0.4-0.1,0.7-0.3,0.9s-0.5,0.3-0.9,0.3s-0.7-0.1-0.9-0.3c-0.2-0.2-0.3-0.5-0.3-0.9v-0.3l0.7,0v0.2c0,0.2,0,0.3,0.1,0.4
		s0.2,0.1,0.3,0.1c0.2,0,0.3,0,0.4-0.1c0.1-0.1,0.1-0.2,0.1-0.4v-0.4c0-0.2,0-0.4-0.1-0.5c-0.1-0.1-0.2-0.2-0.4-0.2H54v-0.7h0.3
		c0.2,0,0.3,0,0.4-0.1c0.1-0.1,0.1-0.2,0.1-0.5v-0.3c0-0.2,0-0.3-0.1-0.4c-0.1-0.1-0.2-0.1-0.3-0.1c-0.1,0-0.3,0-0.3,0.1
		c-0.1,0.1-0.1,0.2-0.1,0.4v0.2l-0.7,0v-0.3c0-0.4,0.1-0.7,0.3-0.9c0.2-0.2,0.5-0.3,0.9-0.3S55,70.1,55.2,70.3z"/>
	<path class="st4" d="M58.2,73.3h0.3V74h-0.3v1h-0.7v-1h-1.6v-0.6l1.6-3.2h0.7V73.3z M57.4,71.5l-0.8,1.8h0.8L57.4,71.5L57.4,71.5z"
		/>
	<path class="st4" d="M61,70.4c0.2,0.2,0.3,0.5,0.3,0.9v2.6c0,0.4-0.1,0.7-0.3,0.9c-0.2,0.2-0.5,0.3-0.9,0.3c-0.4,0-0.7-0.1-0.9-0.3
		c-0.2-0.2-0.3-0.5-0.3-0.9v-2.6c0-0.4,0.1-0.7,0.3-0.9c0.2-0.2,0.5-0.3,0.9-0.3C60.5,70,60.8,70.1,61,70.4z M59.8,70.9
		c-0.1,0.1-0.1,0.2-0.1,0.4v2.5c0,0.2,0,0.3,0.1,0.4c0.1,0.1,0.2,0.1,0.3,0.1s0.3,0,0.3-0.1c0.1-0.1,0.1-0.2,0.1-0.4v-2.5
		c0-0.2,0-0.3-0.1-0.4c-0.1-0.1-0.2-0.1-0.3-0.1S59.9,70.8,59.8,70.9z"/>
	<path class="st4" d="M62.9,74.9l-0.4,0.9h-0.4l0.3-0.8h-0.3v-0.8h0.8V74.9z"/>
	<path class="st4" d="M65.4,70.3c0.2,0.2,0.3,0.5,0.3,0.8v0.2c0,0.2,0,0.5-0.1,0.7c-0.1,0.2-0.2,0.5-0.5,0.9l-0.8,1.3h1.4V75h-2.3
		v-0.6l1.1-1.8c0.2-0.3,0.3-0.5,0.3-0.7c0.1-0.2,0.1-0.4,0.1-0.6v-0.1c0-0.3-0.1-0.5-0.4-0.5c-0.1,0-0.2,0-0.3,0.1
		c-0.1,0.1-0.1,0.2-0.1,0.4v0.2l-0.7,0v-0.3c0-0.4,0.1-0.6,0.3-0.8s0.5-0.3,0.8-0.3S65.2,70.1,65.4,70.3z"/>
</g>
<g class="st3">
	<path class="st4" d="M46.2,83.5c-0.2-0.2-0.3-0.5-0.3-0.9v-0.2l0.7,0v0.2c0,0.2,0,0.3,0.1,0.4c0.1,0.1,0.2,0.1,0.3,0.1
		c0.3,0,0.4-0.2,0.4-0.5v-1h0c-0.1,0.1-0.2,0.1-0.3,0.2c-0.1,0-0.2,0.1-0.4,0.1c-0.3,0-0.5-0.1-0.7-0.3c-0.2-0.2-0.3-0.5-0.3-0.9V80
		c0-0.4,0.1-0.7,0.3-0.9s0.5-0.3,0.9-0.3c0.4,0,0.7,0.1,0.9,0.3s0.3,0.5,0.3,0.9v2.6c0,0.4-0.1,0.7-0.3,0.9
		c-0.2,0.2-0.5,0.3-0.9,0.3S46.4,83.7,46.2,83.5z M47.4,81.1c0.1-0.1,0.1-0.2,0.1-0.4V80c0-0.2,0-0.3-0.1-0.4
		c-0.1-0.1-0.2-0.1-0.3-0.1c-0.1,0-0.3,0-0.3,0.1c-0.1,0.1-0.1,0.2-0.1,0.4v0.6c0,0.2,0,0.3,0.1,0.4c0.1,0.1,0.2,0.1,0.3,0.1
		C47.2,81.2,47.3,81.2,47.4,81.1z"/>
	<path class="st4" d="M50.9,79.1c0.2,0.2,0.3,0.5,0.3,0.9v0.3c0,0.5-0.2,0.8-0.5,0.9v0c0.4,0.2,0.6,0.5,0.6,1v0.4
		c0,0.4-0.1,0.7-0.3,0.9c-0.2,0.2-0.5,0.3-0.9,0.3s-0.7-0.1-0.9-0.3c-0.2-0.2-0.3-0.5-0.3-0.9v-0.4c0-0.5,0.2-0.9,0.6-1v0
		c-0.4-0.1-0.5-0.5-0.5-0.9V80c0-0.4,0.1-0.7,0.3-0.9c0.2-0.2,0.5-0.3,0.9-0.3S50.7,78.9,50.9,79.1z M49.7,81.7
		c-0.1,0.1-0.1,0.2-0.1,0.4v0.4c0,0.2,0,0.3,0.1,0.4c0.1,0.1,0.2,0.1,0.4,0.1s0.3,0,0.4-0.1c0.1-0.1,0.1-0.2,0.1-0.4v-0.4
		c0-0.2,0-0.3-0.1-0.4s-0.2-0.1-0.4-0.1S49.8,81.6,49.7,81.7z M49.7,79.6c-0.1,0.1-0.1,0.2-0.1,0.4v0.4c0,0.2,0,0.3,0.1,0.4
		c0.1,0.1,0.2,0.1,0.3,0.1s0.2,0,0.3-0.1s0.1-0.2,0.1-0.4V80c0-0.2,0-0.3-0.1-0.4s-0.2-0.1-0.3-0.1S49.8,79.5,49.7,79.6z"/>
	<path class="st4" d="M52.6,83.8h-0.8V83h0.8V83.8z"/>
	<path class="st4" d="M53.7,83.5c-0.2-0.2-0.3-0.5-0.3-0.9v-0.2l0.7,0v0.2c0,0.2,0,0.3,0.1,0.4c0.1,0.1,0.2,0.1,0.3,0.1
		c0.3,0,0.4-0.2,0.4-0.5v-1h0c-0.1,0.1-0.2,0.1-0.3,0.2c-0.1,0-0.2,0.1-0.4,0.1c-0.3,0-0.5-0.1-0.7-0.3c-0.2-0.2-0.3-0.5-0.3-0.9V80
		c0-0.4,0.1-0.7,0.3-0.9s0.5-0.3,0.9-0.3c0.4,0,0.7,0.1,0.9,0.3s0.3,0.5,0.3,0.9v2.6c0,0.4-0.1,0.7-0.3,0.9
		c-0.2,0.2-0.5,0.3-0.9,0.3S53.9,83.7,53.7,83.5z M54.8,81.1c0.1-0.1,0.1-0.2,0.1-0.4V80c0-0.2,0-0.3-0.1-0.4
		c-0.1-0.1-0.2-0.1-0.3-0.1c-0.1,0-0.3,0-0.3,0.1C54.1,79.7,54,79.9,54,80v0.6c0,0.2,0,0.3,0.1,0.4c0.1,0.1,0.2,0.1,0.3,0.1
		C54.6,81.2,54.7,81.2,54.8,81.1z"/>
	<path class="st4" d="M58.4,79.1c0.2,0.2,0.3,0.5,0.3,0.9v0.2l-0.7,0V80c0-0.2,0-0.3-0.1-0.4c-0.1-0.1-0.2-0.1-0.3-0.1
		c-0.3,0-0.4,0.2-0.4,0.5v1h0c0.1-0.1,0.2-0.1,0.3-0.2c0.1,0,0.2-0.1,0.4-0.1c0.3,0,0.5,0.1,0.7,0.3c0.2,0.2,0.3,0.5,0.3,0.9v0.7
		c0,0.4-0.1,0.7-0.3,0.9s-0.5,0.3-0.9,0.3c-0.4,0-0.7-0.1-0.9-0.3s-0.3-0.5-0.3-0.9V80c0-0.4,0.1-0.7,0.3-0.9
		c0.2-0.2,0.5-0.3,0.9-0.3S58.2,78.9,58.4,79.1z M57.2,81.6c-0.1,0.1-0.1,0.2-0.1,0.4v0.6c0,0.2,0,0.3,0.1,0.4
		c0.1,0.1,0.2,0.1,0.3,0.1c0.1,0,0.3,0,0.3-0.1c0.1-0.1,0.1-0.2,0.1-0.4V82c0-0.2,0-0.3-0.1-0.4c-0.1-0.1-0.2-0.1-0.3-0.1
		C57.4,81.4,57.3,81.5,57.2,81.6z"/>
	<path class="st4" d="M61.3,79.1c0.2,0.2,0.3,0.5,0.3,0.9v0.2l-0.7,0V80c0-0.2,0-0.3-0.1-0.4c-0.1-0.1-0.2-0.1-0.3-0.1
		c-0.3,0-0.4,0.2-0.4,0.5v1h0c0.1-0.1,0.2-0.1,0.3-0.2c0.1,0,0.2-0.1,0.4-0.1c0.3,0,0.5,0.1,0.7,0.3c0.2,0.2,0.3,0.5,0.3,0.9v0.7
		c0,0.4-0.1,0.7-0.3,0.9s-0.5,0.3-0.9,0.3c-0.4,0-0.7-0.1-0.9-0.3s-0.3-0.5-0.3-0.9V80c0-0.4,0.1-0.7,0.3-0.9
		c0.2-0.2,0.5-0.3,0.9-0.3S61.1,78.9,61.3,79.1z M60.1,81.6C60.1,81.7,60,81.8,60,82v0.6c0,0.2,0,0.3,0.1,0.4
		c0.1,0.1,0.2,0.1,0.3,0.1c0.1,0,0.3,0,0.3-0.1c0.1-0.1,0.1-0.2,0.1-0.4V82c0-0.2,0-0.3-0.1-0.4c-0.1-0.1-0.2-0.1-0.3-0.1
		C60.3,81.4,60.2,81.5,60.1,81.6z"/>
	<path class="st4" d="M63.1,83.7l-0.4,0.9h-0.4l0.3-0.8h-0.3V83h0.8V83.7z"/>
	<path class="st4" d="M65.9,79.1c0.2,0.2,0.3,0.5,0.3,0.9v0.2l-0.7,0V80c0-0.2,0-0.3-0.1-0.4c-0.1-0.1-0.2-0.1-0.3-0.1
		c-0.3,0-0.4,0.2-0.4,0.5v1h0c0.1-0.1,0.2-0.1,0.3-0.2c0.1,0,0.2-0.1,0.4-0.1c0.3,0,0.5,0.1,0.7,0.3c0.2,0.2,0.3,0.5,0.3,0.9v0.7
		c0,0.4-0.1,0.7-0.3,0.9s-0.5,0.3-0.9,0.3c-0.4,0-0.7-0.1-0.9-0.3s-0.3-0.5-0.3-0.9V80c0-0.4,0.1-0.7,0.3-0.9
		c0.2-0.2,0.5-0.3,0.9-0.3S65.7,78.9,65.9,79.1z M64.7,81.6c-0.1,0.1-0.1,0.2-0.1,0.4v0.6c0,0.2,0,0.3,0.1,0.4
		c0.1,0.1,0.2,0.1,0.3,0.1c0.1,0,0.3,0,0.3-0.1c0.1-0.1,0.1-0.2,0.1-0.4V82c0-0.2,0-0.3-0.1-0.4c-0.1-0.1-0.2-0.1-0.3-0.1
		C64.9,81.4,64.8,81.5,64.7,81.6z"/>
</g>
<g class="st3">
	<path class="st4" d="M46.2,92.2c-0.2-0.2-0.3-0.5-0.3-0.9v-0.2l0.7,0v0.2c0,0.2,0,0.3,0.1,0.4c0.1,0.1,0.2,0.1,0.3,0.1
		c0.3,0,0.4-0.2,0.4-0.5v-1h0c-0.1,0.1-0.2,0.1-0.3,0.2c-0.1,0-0.2,0.1-0.4,0.1c-0.3,0-0.5-0.1-0.7-0.3c-0.2-0.2-0.3-0.5-0.3-0.9
		v-0.7c0-0.4,0.1-0.7,0.3-0.9s0.5-0.3,0.9-0.3c0.4,0,0.7,0.1,0.9,0.3s0.3,0.5,0.3,0.9v2.6c0,0.4-0.1,0.7-0.3,0.9
		c-0.2,0.2-0.5,0.3-0.9,0.3S46.4,92.4,46.2,92.2z M47.4,89.7c0.1-0.1,0.1-0.2,0.1-0.4v-0.6c0-0.2,0-0.3-0.1-0.4
		c-0.1-0.1-0.2-0.1-0.3-0.1c-0.1,0-0.3,0-0.3,0.1c-0.1,0.1-0.1,0.2-0.1,0.4v0.6c0,0.2,0,0.3,0.1,0.4c0.1,0.1,0.2,0.1,0.3,0.1
		C47.2,89.9,47.3,89.8,47.4,89.7z"/>
	<path class="st4" d="M51,87.8c0.2,0.2,0.3,0.5,0.3,0.9v2.6c0,0.4-0.1,0.7-0.3,0.9s-0.5,0.3-0.9,0.3c-0.4,0-0.7-0.1-0.9-0.3
		s-0.3-0.5-0.3-0.9v-2.6c0-0.4,0.1-0.7,0.3-0.9s0.5-0.3,0.9-0.3C50.5,87.4,50.8,87.6,51,87.8z M49.8,88.3c-0.1,0.1-0.1,0.2-0.1,0.4
		v2.5c0,0.2,0,0.3,0.1,0.4c0.1,0.1,0.2,0.1,0.3,0.1s0.3,0,0.3-0.1c0.1-0.1,0.1-0.2,0.1-0.4v-2.5c0-0.2,0-0.3-0.1-0.4
		c-0.1-0.1-0.2-0.1-0.3-0.1S49.8,88.2,49.8,88.3z"/>
	<path class="st4" d="M52.8,92.4H52v-0.8h0.8V92.4z"/>
	<path class="st4" d="M53.7,92.2c-0.2-0.2-0.3-0.5-0.3-0.9v-0.2l0.7,0v0.1c0,0.4,0.1,0.6,0.4,0.6c0.2,0,0.3,0,0.3-0.1
		c0.1-0.1,0.1-0.2,0.1-0.4v-0.8c0-0.2,0-0.3-0.1-0.4c-0.1-0.1-0.2-0.1-0.3-0.1c-0.1,0-0.2,0-0.3,0.1c-0.1,0.1-0.1,0.2-0.1,0.3l0,0.1
		l-0.7,0l0.2-2.8h2v0.7h-1.4l-0.1,1.2h0c0.1-0.1,0.3-0.2,0.6-0.2c0.3,0,0.6,0.1,0.7,0.3s0.3,0.5,0.3,0.9v0.9c0,0.4-0.1,0.7-0.3,0.9
		c-0.2,0.2-0.5,0.3-0.9,0.3C54.2,92.5,53.9,92.4,53.7,92.2z"/>
	<path class="st4" d="M58.3,87.8c0.2,0.2,0.3,0.5,0.3,0.9v0.3c0,0.5-0.2,0.8-0.5,0.9v0c0.4,0.2,0.6,0.5,0.6,1v0.4
		c0,0.4-0.1,0.7-0.3,0.9c-0.2,0.2-0.5,0.3-0.9,0.3s-0.7-0.1-0.9-0.3c-0.2-0.2-0.3-0.5-0.3-0.9v-0.4c0-0.5,0.2-0.9,0.6-1v0
		c-0.4-0.1-0.5-0.5-0.5-0.9v-0.3c0-0.4,0.1-0.7,0.3-0.9c0.2-0.2,0.5-0.3,0.9-0.3S58.1,87.6,58.3,87.8z M57.1,90.4
		C57,90.5,57,90.6,57,90.8v0.4c0,0.2,0,0.3,0.1,0.4c0.1,0.1,0.2,0.1,0.4,0.1s0.3,0,0.4-0.1c0.1-0.1,0.1-0.2,0.1-0.4v-0.4
		c0-0.2,0-0.3-0.1-0.4s-0.2-0.1-0.4-0.1S57.2,90.3,57.1,90.4z M57.1,88.3C57,88.4,57,88.5,57,88.7V89c0,0.2,0,0.3,0.1,0.4
		c0.1,0.1,0.2,0.1,0.3,0.1s0.2,0,0.3-0.1s0.1-0.2,0.1-0.4v-0.4c0-0.2,0-0.3-0.1-0.4s-0.2-0.1-0.3-0.1S57.2,88.2,57.1,88.3z"/>
	<path class="st4" d="M61.3,87.8c0.2,0.2,0.3,0.5,0.3,0.9v2.6c0,0.4-0.1,0.7-0.3,0.9s-0.5,0.3-0.9,0.3c-0.4,0-0.7-0.1-0.9-0.3
		s-0.3-0.5-0.3-0.9v-2.6c0-0.4,0.1-0.7,0.3-0.9s0.5-0.3,0.9-0.3C60.8,87.4,61.1,87.6,61.3,87.8z M60.1,88.3
		c-0.1,0.1-0.1,0.2-0.1,0.4v2.5c0,0.2,0,0.3,0.1,0.4c0.1,0.1,0.2,0.1,0.3,0.1s0.3,0,0.3-0.1c0.1-0.1,0.1-0.2,0.1-0.4v-2.5
		c0-0.2,0-0.3-0.1-0.4c-0.1-0.1-0.2-0.1-0.3-0.1S60.1,88.2,60.1,88.3z"/>
	<path class="st4" d="M63.1,92.3l-0.4,0.9h-0.4l0.3-0.8h-0.3v-0.8h0.8V92.3z"/>
	<path class="st4" d="M64,92.2c-0.2-0.2-0.3-0.5-0.3-0.9v-0.2l0.7,0v0.1c0,0.4,0.1,0.6,0.4,0.6c0.2,0,0.3,0,0.3-0.1
		c0.1-0.1,0.1-0.2,0.1-0.4v-0.8c0-0.2,0-0.3-0.1-0.4c-0.1-0.1-0.2-0.1-0.3-0.1c-0.1,0-0.2,0-0.3,0.1c-0.1,0.1-0.1,0.2-0.1,0.3l0,0.1
		l-0.7,0l0.2-2.8h2v0.7h-1.4l-0.1,1.2h0c0.1-0.1,0.3-0.2,0.6-0.2c0.3,0,0.6,0.1,0.7,0.3s0.3,0.5,0.3,0.9v0.9c0,0.4-0.1,0.7-0.3,0.9
		c-0.2,0.2-0.5,0.3-0.9,0.3C64.5,92.5,64.3,92.4,64,92.2z"/>
</g>
<g class="st3">
	<path class="st4" d="M46.2,100.8c-0.2-0.2-0.3-0.5-0.3-0.9v-0.2l0.7,0v0.2c0,0.2,0,0.3,0.1,0.4c0.1,0.1,0.2,0.1,0.3,0.1
		c0.3,0,0.4-0.2,0.4-0.5v-1h0c-0.1,0.1-0.2,0.1-0.3,0.2c-0.1,0-0.2,0.1-0.4,0.1c-0.3,0-0.5-0.1-0.7-0.3c-0.2-0.2-0.3-0.5-0.3-0.9
		v-0.7c0-0.4,0.1-0.7,0.3-0.9s0.5-0.3,0.9-0.3c0.4,0,0.7,0.1,0.9,0.3s0.3,0.5,0.3,0.9v2.6c0,0.4-0.1,0.7-0.3,0.9
		c-0.2,0.2-0.5,0.3-0.9,0.3S46.4,101,46.2,100.8z M47.4,98.4c0.1-0.1,0.1-0.2,0.1-0.4v-0.6c0-0.2,0-0.3-0.1-0.4
		c-0.1-0.1-0.2-0.1-0.3-0.1c-0.1,0-0.3,0-0.3,0.1c-0.1,0.1-0.1,0.2-0.1,0.4v0.6c0,0.2,0,0.3,0.1,0.4c0.1,0.1,0.2,0.1,0.3,0.1
		C47.2,98.5,47.3,98.5,47.4,98.4z"/>
	<path class="st4" d="M50.9,96.4c0.2,0.2,0.3,0.5,0.3,0.9v0.3c0,0.5-0.2,0.8-0.5,0.9v0c0.4,0.2,0.6,0.5,0.6,1v0.4
		c0,0.4-0.1,0.7-0.3,0.9c-0.2,0.2-0.5,0.3-0.9,0.3s-0.7-0.1-0.9-0.3c-0.2-0.2-0.3-0.5-0.3-0.9v-0.4c0-0.5,0.2-0.9,0.6-1v0
		c-0.4-0.1-0.5-0.5-0.5-0.9v-0.3c0-0.4,0.1-0.7,0.3-0.9c0.2-0.2,0.5-0.3,0.9-0.3S50.7,96.2,50.9,96.4z M49.7,99
		c-0.1,0.1-0.1,0.2-0.1,0.4v0.4c0,0.2,0,0.3,0.1,0.4c0.1,0.1,0.2,0.1,0.4,0.1s0.3,0,0.4-0.1c0.1-0.1,0.1-0.2,0.1-0.4v-0.4
		c0-0.2,0-0.3-0.1-0.4s-0.2-0.1-0.4-0.1S49.8,98.9,49.7,99z M49.7,96.9c-0.1,0.1-0.1,0.2-0.1,0.4v0.4c0,0.2,0,0.3,0.1,0.4
		c0.1,0.1,0.2,0.1,0.3,0.1s0.2,0,0.3-0.1s0.1-0.2,0.1-0.4v-0.4c0-0.2,0-0.3-0.1-0.4s-0.2-0.1-0.3-0.1S49.8,96.8,49.7,96.9z"/>
	<path class="st4" d="M52.6,101.1h-0.8v-0.8h0.8V101.1z"/>
	<path class="st4" d="M55.4,99.3h0.3v0.7h-0.3v1h-0.7v-1h-1.6v-0.6l1.6-3.2h0.7V99.3z M54.7,97.6l-0.8,1.8h0.8L54.7,97.6L54.7,97.6z
		"/>
	<path class="st4" d="M58.3,96.4c0.2,0.2,0.3,0.5,0.3,0.9v0.2l-0.7,0v-0.2c0-0.2,0-0.3-0.1-0.4c-0.1-0.1-0.2-0.1-0.3-0.1
		c-0.3,0-0.4,0.2-0.4,0.5v1h0c0.1-0.1,0.2-0.1,0.3-0.2c0.1,0,0.2-0.1,0.4-0.1c0.3,0,0.5,0.1,0.7,0.3c0.2,0.2,0.3,0.5,0.3,0.9v0.7
		c0,0.4-0.1,0.7-0.3,0.9s-0.5,0.3-0.9,0.3c-0.4,0-0.7-0.1-0.9-0.3s-0.3-0.5-0.3-0.9v-2.6c0-0.4,0.1-0.7,0.3-0.9
		c0.2-0.2,0.5-0.3,0.9-0.3S58.1,96.2,58.3,96.4z M57.1,98.9C57,99,57,99.1,57,99.3v0.6c0,0.2,0,0.3,0.1,0.4c0.1,0.1,0.2,0.1,0.3,0.1
		c0.1,0,0.3,0,0.3-0.1c0.1-0.1,0.1-0.2,0.1-0.4v-0.6c0-0.2,0-0.3-0.1-0.4c-0.1-0.1-0.2-0.1-0.3-0.1C57.3,98.7,57.2,98.8,57.1,98.9z"
		/>
	<path class="st4" d="M61.3,99.3h0.3v0.7h-0.3v1h-0.7v-1H59v-0.6l1.6-3.2h0.7V99.3z M60.5,97.6l-0.8,1.8h0.8L60.5,97.6L60.5,97.6z"
		/>
	<path class="st4" d="M62.9,101l-0.4,0.9h-0.4l0.3-0.8h-0.3v-0.8h0.8V101z"/>
	<path class="st4" d="M65.5,96.4c0.2,0.2,0.3,0.5,0.3,0.8v0.2c0,0.2,0,0.5-0.1,0.7c-0.1,0.2-0.2,0.5-0.5,0.9l-0.8,1.3h1.4v0.7h-2.3
		v-0.6l1.1-1.8c0.2-0.3,0.3-0.5,0.3-0.7c0.1-0.2,0.1-0.4,0.1-0.6v-0.1c0-0.3-0.1-0.5-0.4-0.5c-0.1,0-0.2,0-0.3,0.1
		c-0.1,0.1-0.1,0.2-0.1,0.4v0.2l-0.7,0v-0.3c0-0.4,0.1-0.6,0.3-0.8s0.5-0.3,0.8-0.3S65.3,96.2,65.5,96.4z"/>
</g>
<g class="st3">
	<path class="st4" d="M47.9,105.1c0.2,0.2,0.3,0.5,0.3,0.9v0.3c0,0.5-0.2,0.8-0.5,0.9v0c0.4,0.2,0.6,0.5,0.6,1v0.4
		c0,0.4-0.1,0.7-0.3,0.9c-0.2,0.2-0.5,0.3-0.9,0.3s-0.7-0.1-0.9-0.3c-0.2-0.2-0.3-0.5-0.3-0.9v-0.4c0-0.5,0.2-0.9,0.6-1v0
		c-0.4-0.1-0.5-0.5-0.5-0.9V106c0-0.4,0.1-0.7,0.3-0.9c0.2-0.2,0.5-0.3,0.9-0.3S47.7,104.9,47.9,105.1z M46.7,107.7
		c-0.1,0.1-0.1,0.2-0.1,0.4v0.4c0,0.2,0,0.3,0.1,0.4c0.1,0.1,0.2,0.1,0.4,0.1s0.3,0,0.4-0.1c0.1-0.1,0.1-0.2,0.1-0.4v-0.4
		c0-0.2,0-0.3-0.1-0.4s-0.2-0.1-0.4-0.1S46.8,107.6,46.7,107.7z M46.7,105.6c-0.1,0.1-0.1,0.2-0.1,0.4v0.4c0,0.2,0,0.3,0.1,0.4
		c0.1,0.1,0.2,0.1,0.3,0.1s0.2,0,0.3-0.1s0.1-0.2,0.1-0.4V106c0-0.2,0-0.3-0.1-0.4s-0.2-0.1-0.3-0.1S46.8,105.5,46.7,105.6z"/>
	<path class="st4" d="M50.7,105.1c0.2,0.2,0.3,0.5,0.3,0.9v0.3c0,0.5-0.2,0.8-0.5,0.9v0c0.4,0.2,0.6,0.5,0.6,1v0.4
		c0,0.4-0.1,0.7-0.3,0.9c-0.2,0.2-0.5,0.3-0.9,0.3s-0.7-0.1-0.9-0.3c-0.2-0.2-0.3-0.5-0.3-0.9v-0.3l0.7,0v0.2c0,0.2,0,0.3,0.1,0.4
		s0.2,0.1,0.3,0.1c0.2,0,0.3,0,0.4-0.1c0.1-0.1,0.1-0.2,0.1-0.4v-0.4c0-0.2,0-0.4-0.1-0.5c-0.1-0.1-0.2-0.2-0.4-0.2h-0.3v-0.7h0.3
		c0.2,0,0.3,0,0.4-0.1c0.1-0.1,0.1-0.2,0.1-0.5V106c0-0.2,0-0.3-0.1-0.4c-0.1-0.1-0.2-0.1-0.3-0.1c-0.1,0-0.3,0-0.3,0.1
		c-0.1,0.1-0.1,0.2-0.1,0.4v0.2l-0.7,0v-0.3c0-0.4,0.1-0.7,0.3-0.9c0.2-0.2,0.5-0.3,0.9-0.3S50.5,104.9,50.7,105.1z"/>
	<path class="st4" d="M52.5,109.7h-0.8v-0.8h0.8V109.7z"/>
	<path class="st4" d="M55.2,105.1c0.2,0.2,0.3,0.5,0.3,0.9v0.3c0,0.5-0.2,0.8-0.5,0.9v0c0.4,0.2,0.6,0.5,0.6,1v0.4
		c0,0.4-0.1,0.7-0.3,0.9c-0.2,0.2-0.5,0.3-0.9,0.3s-0.7-0.1-0.9-0.3c-0.2-0.2-0.3-0.5-0.3-0.9v-0.4c0-0.5,0.2-0.9,0.6-1v0
		c-0.4-0.1-0.5-0.5-0.5-0.9V106c0-0.4,0.1-0.7,0.3-0.9c0.2-0.2,0.5-0.3,0.9-0.3S55,104.9,55.2,105.1z M54,107.7
		c-0.1,0.1-0.1,0.2-0.1,0.4v0.4c0,0.2,0,0.3,0.1,0.4c0.1,0.1,0.2,0.1,0.4,0.1s0.3,0,0.4-0.1c0.1-0.1,0.1-0.2,0.1-0.4v-0.4
		c0-0.2,0-0.3-0.1-0.4s-0.2-0.1-0.4-0.1S54.1,107.6,54,107.7z M54,105.6c-0.1,0.1-0.1,0.2-0.1,0.4v0.4c0,0.2,0,0.3,0.1,0.4
		c0.1,0.1,0.2,0.1,0.3,0.1s0.2,0,0.3-0.1s0.1-0.2,0.1-0.4V106c0-0.2,0-0.3-0.1-0.4s-0.2-0.1-0.3-0.1S54.1,105.5,54,105.6z"/>
	<path class="st4" d="M58.2,105.1c0.2,0.2,0.3,0.5,0.3,0.9v2.6c0,0.4-0.1,0.7-0.3,0.9s-0.5,0.3-0.9,0.3c-0.4,0-0.7-0.1-0.9-0.3
		s-0.3-0.5-0.3-0.9V106c0-0.4,0.1-0.7,0.3-0.9s0.5-0.3,0.9-0.3C57.7,104.7,58,104.9,58.2,105.1z M56.9,105.6
		c-0.1,0.1-0.1,0.2-0.1,0.4v2.5c0,0.2,0,0.3,0.1,0.4c0.1,0.1,0.2,0.1,0.3,0.1s0.3,0,0.3-0.1c0.1-0.1,0.1-0.2,0.1-0.4V106
		c0-0.2,0-0.3-0.1-0.4c-0.1-0.1-0.2-0.1-0.3-0.1S57,105.5,56.9,105.6z"/>
	<path class="st4" d="M61,105.1c0.2,0.2,0.3,0.5,0.3,0.9v0.3c0,0.5-0.2,0.8-0.5,0.9v0c0.4,0.2,0.6,0.5,0.6,1v0.4
		c0,0.4-0.1,0.7-0.3,0.9c-0.2,0.2-0.5,0.3-0.9,0.3s-0.7-0.1-0.9-0.3c-0.2-0.2-0.3-0.5-0.3-0.9v-0.3l0.7,0v0.2c0,0.2,0,0.3,0.1,0.4
		s0.2,0.1,0.3,0.1c0.2,0,0.3,0,0.4-0.1c0.1-0.1,0.1-0.2,0.1-0.4v-0.4c0-0.2,0-0.4-0.1-0.5c-0.1-0.1-0.2-0.2-0.4-0.2h-0.3v-0.7h0.3
		c0.2,0,0.3,0,0.4-0.1c0.1-0.1,0.1-0.2,0.1-0.5V106c0-0.2,0-0.3-0.1-0.4c-0.1-0.1-0.2-0.1-0.3-0.1c-0.1,0-0.3,0-0.3,0.1
		c-0.1,0.1-0.1,0.2-0.1,0.4v0.2l-0.7,0v-0.3c0-0.4,0.1-0.7,0.3-0.9c0.2-0.2,0.5-0.3,0.9-0.3S60.8,104.9,61,105.1z"/>
	<path class="st4" d="M62.8,109.6l-0.4,0.9H62l0.3-0.8H62v-0.8h0.8V109.6z"/>
	<path class="st4" d="M65.6,105.1c0.2,0.2,0.3,0.5,0.3,0.9v2.6c0,0.4-0.1,0.7-0.3,0.9s-0.5,0.3-0.9,0.3c-0.4,0-0.7-0.1-0.9-0.3
		s-0.3-0.5-0.3-0.9V106c0-0.4,0.1-0.7,0.3-0.9s0.5-0.3,0.9-0.3C65.1,104.7,65.4,104.9,65.6,105.1z M64.4,105.6
		c-0.1,0.1-0.1,0.2-0.1,0.4v2.5c0,0.2,0,0.3,0.1,0.4c0.1,0.1,0.2,0.1,0.3,0.1s0.3,0,0.3-0.1c0.1-0.1,0.1-0.2,0.1-0.4V106
		c0-0.2,0-0.3-0.1-0.4c-0.1-0.1-0.2-0.1-0.3-0.1S64.4,105.5,64.4,105.6z"/>
</g>
<g class="st3">
	<path class="st4" d="M47.5,118.4h-0.7v-3.8h-1v-0.5c0.3,0,0.6-0.1,0.8-0.2c0.2-0.1,0.4-0.2,0.4-0.4h0.5V118.4z"/>
	<path class="st4" d="M50.4,113.7c0.2,0.2,0.3,0.5,0.3,0.9v2.6c0,0.4-0.1,0.7-0.3,0.9s-0.5,0.3-0.9,0.3c-0.4,0-0.7-0.1-0.9-0.3
		s-0.3-0.5-0.3-0.9v-2.6c0-0.4,0.1-0.7,0.3-0.9s0.5-0.3,0.9-0.3C49.9,113.4,50.2,113.5,50.4,113.7z M49.2,114.2
		c-0.1,0.1-0.1,0.2-0.1,0.4v2.5c0,0.2,0,0.3,0.1,0.4c0.1,0.1,0.2,0.1,0.3,0.1s0.3,0,0.3-0.1c0.1-0.1,0.1-0.2,0.1-0.4v-2.5
		c0-0.2,0-0.3-0.1-0.4c-0.1-0.1-0.2-0.1-0.3-0.1S49.2,114.1,49.2,114.2z"/>
	<path class="st4" d="M53.4,113.7c0.2,0.2,0.3,0.5,0.3,0.9v2.6c0,0.4-0.1,0.7-0.3,0.9s-0.5,0.3-0.9,0.3c-0.4,0-0.7-0.1-0.9-0.3
		s-0.3-0.5-0.3-0.9v-2.6c0-0.4,0.1-0.7,0.3-0.9s0.5-0.3,0.9-0.3C52.9,113.4,53.2,113.5,53.4,113.7z M52.2,114.2
		c-0.1,0.1-0.1,0.2-0.1,0.4v2.5c0,0.2,0,0.3,0.1,0.4c0.1,0.1,0.2,0.1,0.3,0.1s0.3,0,0.3-0.1c0.1-0.1,0.1-0.2,0.1-0.4v-2.5
		c0-0.2,0-0.3-0.1-0.4c-0.1-0.1-0.2-0.1-0.3-0.1S52.3,114.1,52.2,114.2z"/>
	<path class="st4" d="M55.2,118.4h-0.8v-0.8h0.8V118.4z"/>
	<path class="st4" d="M57.9,113.7c0.2,0.2,0.3,0.5,0.3,0.9v0.3c0,0.5-0.2,0.8-0.5,0.9v0c0.4,0.2,0.6,0.5,0.6,1v0.4
		c0,0.4-0.1,0.7-0.3,0.9c-0.2,0.2-0.5,0.3-0.9,0.3s-0.7-0.1-0.9-0.3c-0.2-0.2-0.3-0.5-0.3-0.9v-0.4c0-0.5,0.2-0.9,0.6-1v0
		c-0.4-0.1-0.5-0.5-0.5-0.9v-0.3c0-0.4,0.1-0.7,0.3-0.9c0.2-0.2,0.5-0.3,0.9-0.3S57.7,113.5,57.9,113.7z M56.7,116.3
		c-0.1,0.1-0.1,0.2-0.1,0.4v0.4c0,0.2,0,0.3,0.1,0.4c0.1,0.1,0.2,0.1,0.4,0.1s0.3,0,0.4-0.1c0.1-0.1,0.1-0.2,0.1-0.4v-0.4
		c0-0.2,0-0.3-0.1-0.4s-0.2-0.1-0.4-0.1S56.8,116.2,56.7,116.3z M56.8,114.2c-0.1,0.1-0.1,0.2-0.1,0.4v0.4c0,0.2,0,0.3,0.1,0.4
		c0.1,0.1,0.2,0.1,0.3,0.1s0.2,0,0.3-0.1s0.1-0.2,0.1-0.4v-0.4c0-0.2,0-0.3-0.1-0.4s-0.2-0.1-0.3-0.1S56.8,114.1,56.8,114.2z"/>
	<path class="st4" d="M60.9,113.7c0.2,0.2,0.3,0.5,0.3,0.9v0.2l-0.7,0v-0.2c0-0.2,0-0.3-0.1-0.4c-0.1-0.1-0.2-0.1-0.3-0.1
		c-0.3,0-0.4,0.2-0.4,0.5v1h0c0.1-0.1,0.2-0.1,0.3-0.2c0.1,0,0.2-0.1,0.4-0.1c0.3,0,0.5,0.1,0.7,0.3c0.2,0.2,0.3,0.5,0.3,0.9v0.7
		c0,0.4-0.1,0.7-0.3,0.9s-0.5,0.3-0.9,0.3c-0.4,0-0.7-0.1-0.9-0.3s-0.3-0.5-0.3-0.9v-2.6c0-0.4,0.1-0.7,0.3-0.9
		c0.2-0.2,0.5-0.3,0.9-0.3S60.7,113.5,60.9,113.7z M59.7,116.2c-0.1,0.1-0.1,0.2-0.1,0.4v0.6c0,0.2,0,0.3,0.1,0.4
		c0.1,0.1,0.2,0.1,0.3,0.1c0.1,0,0.3,0,0.3-0.1c0.1-0.1,0.1-0.2,0.1-0.4v-0.6c0-0.2,0-0.3-0.1-0.4c-0.1-0.1-0.2-0.1-0.3-0.1
		C59.9,116,59.8,116.1,59.7,116.2z"/>
	<path class="st4" d="M62,118.1c-0.2-0.2-0.3-0.5-0.3-0.9v-0.2l0.7,0v0.1c0,0.4,0.1,0.6,0.4,0.6c0.2,0,0.3,0,0.3-0.1
		c0.1-0.1,0.1-0.2,0.1-0.4v-0.8c0-0.2,0-0.3-0.1-0.4c-0.1-0.1-0.2-0.1-0.3-0.1c-0.1,0-0.2,0-0.3,0.1c-0.1,0.1-0.1,0.2-0.1,0.3l0,0.1
		l-0.7,0l0.2-2.8h2v0.7h-1.4l-0.1,1.2h0c0.1-0.1,0.3-0.2,0.6-0.2c0.3,0,0.6,0.1,0.7,0.3s0.3,0.5,0.3,0.9v0.9c0,0.4-0.1,0.7-0.3,0.9
		c-0.2,0.2-0.5,0.3-0.9,0.3C62.5,118.4,62.2,118.3,62,118.1z"/>
	<path class="st4" d="M65.5,118.3l-0.4,0.9h-0.4l0.3-0.8h-0.3v-0.8h0.8V118.3z"/>
	<path class="st4" d="M68.2,113.7c0.2,0.2,0.3,0.5,0.3,0.9v0.3c0,0.5-0.2,0.8-0.5,0.9v0c0.4,0.2,0.6,0.5,0.6,1v0.4
		c0,0.4-0.1,0.7-0.3,0.9c-0.2,0.2-0.5,0.3-0.9,0.3s-0.7-0.1-0.9-0.3c-0.2-0.2-0.3-0.5-0.3-0.9v-0.4c0-0.5,0.2-0.9,0.6-1v0
		c-0.4-0.1-0.5-0.5-0.5-0.9v-0.3c0-0.4,0.1-0.7,0.3-0.9c0.2-0.2,0.5-0.3,0.9-0.3S68,113.5,68.2,113.7z M67,116.3
		c-0.1,0.1-0.1,0.2-0.1,0.4v0.4c0,0.2,0,0.3,0.1,0.4c0.1,0.1,0.2,0.1,0.4,0.1s0.3,0,0.4-0.1c0.1-0.1,0.1-0.2,0.1-0.4v-0.4
		c0-0.2,0-0.3-0.1-0.4s-0.2-0.1-0.4-0.1S67,116.2,67,116.3z M67,114.2c-0.1,0.1-0.1,0.2-0.1,0.4v0.4c0,0.2,0,0.3,0.1,0.4
		c0.1,0.1,0.2,0.1,0.3,0.1s0.2,0,0.3-0.1s0.1-0.2,0.1-0.4v-0.4c0-0.2,0-0.3-0.1-0.4s-0.2-0.1-0.3-0.1S67.1,114.1,67,114.2z"/>
</g>
<g>
	<path class="st0" d="M13.4,18.4c0.2,0.2,0.3,0.5,0.3,0.9v0.2c0,0.3-0.1,0.6-0.2,0.8c-0.1,0.3-0.3,0.6-0.5,1.1L12.1,23h1.6v0.8h-2.6
		V23l1.3-2c0.2-0.3,0.3-0.6,0.4-0.8c0.1-0.2,0.1-0.5,0.1-0.7v-0.1c0-0.4-0.2-0.6-0.5-0.6c-0.2,0-0.3,0.1-0.4,0.2
		c-0.1,0.1-0.1,0.3-0.1,0.5v0.3l-0.8,0v-0.4c0-0.4,0.1-0.7,0.3-1s0.5-0.3,1-0.3S13.2,18.2,13.4,18.4z"/>
	<path class="st0" d="M16.7,18.5c0.2,0.3,0.4,0.6,0.4,1v2.9c0,0.4-0.1,0.8-0.4,1c-0.2,0.3-0.6,0.4-1,0.4s-0.8-0.1-1-0.4
		s-0.4-0.6-0.4-1v-2.9c0-0.4,0.1-0.8,0.4-1s0.6-0.4,1-0.4S16.5,18.2,16.7,18.5z M15.3,19c-0.1,0.1-0.1,0.3-0.1,0.5v2.9
		c0,0.2,0,0.4,0.1,0.5c0.1,0.1,0.2,0.2,0.4,0.2c0.2,0,0.3-0.1,0.4-0.2c0.1-0.1,0.1-0.3,0.1-0.5v-2.9c0-0.2,0-0.4-0.1-0.5
		s-0.2-0.2-0.4-0.2C15.5,18.9,15.4,18.9,15.3,19z"/>
	<path class="st0" d="M20.2,18.5c0.2,0.3,0.4,0.6,0.4,1v2.9c0,0.4-0.1,0.8-0.4,1c-0.2,0.3-0.6,0.4-1,0.4s-0.8-0.1-1-0.4
		s-0.4-0.6-0.4-1v-2.9c0-0.4,0.1-0.8,0.4-1s0.6-0.4,1-0.4S19.9,18.2,20.2,18.5z M18.8,19c-0.1,0.1-0.1,0.3-0.1,0.5v2.9
		c0,0.2,0,0.4,0.1,0.5C18.9,23,19,23,19.2,23c0.2,0,0.3-0.1,0.4-0.2c0.1-0.1,0.1-0.3,0.1-0.5v-2.9c0-0.2,0-0.4-0.1-0.5
		s-0.2-0.2-0.4-0.2C19,18.9,18.9,18.9,18.8,19z"/>
	<path class="st0" d="M23.6,18.9l-1.6,4.8h-0.9l1.6-4.8H21v-0.8h2.6V18.9z"/>
</g>
<g>
	<path class="st0" d="M13.4,27.1c0.2,0.2,0.3,0.5,0.3,0.9v0.2c0,0.3-0.1,0.6-0.2,0.8c-0.1,0.3-0.3,0.6-0.5,1.1l-0.9,1.5h1.6v0.8
		h-2.6v-0.7l1.3-2c0.2-0.3,0.3-0.6,0.4-0.8c0.1-0.2,0.1-0.5,0.1-0.7v-0.1c0-0.4-0.2-0.6-0.5-0.6c-0.2,0-0.3,0.1-0.4,0.2
		c-0.1,0.1-0.1,0.3-0.1,0.5v0.3l-0.8,0V28c0-0.4,0.1-0.7,0.3-1s0.5-0.3,1-0.3S13.2,26.8,13.4,27.1z"/>
	<path class="st0" d="M16.7,27.1c0.2,0.3,0.4,0.6,0.4,1v2.9c0,0.4-0.1,0.8-0.4,1c-0.2,0.3-0.6,0.4-1,0.4s-0.8-0.1-1-0.4
		s-0.4-0.6-0.4-1v-2.9c0-0.4,0.1-0.8,0.4-1s0.6-0.4,1-0.4S16.5,26.8,16.7,27.1z M15.3,27.7c-0.1,0.1-0.1,0.3-0.1,0.5v2.9
		c0,0.2,0,0.4,0.1,0.5c0.1,0.1,0.2,0.2,0.4,0.2c0.2,0,0.3-0.1,0.4-0.2c0.1-0.1,0.1-0.3,0.1-0.5v-2.9c0-0.2,0-0.4-0.1-0.5
		s-0.2-0.2-0.4-0.2C15.5,27.5,15.4,27.6,15.3,27.7z"/>
	<path class="st0" d="M20.2,27.1c0.2,0.3,0.4,0.6,0.4,1v2.9c0,0.4-0.1,0.8-0.4,1c-0.2,0.3-0.6,0.4-1,0.4s-0.8-0.1-1-0.4
		s-0.4-0.6-0.4-1v-2.9c0-0.4,0.1-0.8,0.4-1s0.6-0.4,1-0.4S19.9,26.8,20.2,27.1z M18.8,27.7c-0.1,0.1-0.1,0.3-0.1,0.5v2.9
		c0,0.2,0,0.4,0.1,0.5c0.1,0.1,0.2,0.2,0.4,0.2c0.2,0,0.3-0.1,0.4-0.2c0.1-0.1,0.1-0.3,0.1-0.5v-2.9c0-0.2,0-0.4-0.1-0.5
		s-0.2-0.2-0.4-0.2C19,27.5,18.9,27.6,18.8,27.7z"/>
	<path class="st0" d="M23.6,27.1c0.2,0.2,0.4,0.6,0.4,1v0.3c0,0.5-0.2,0.9-0.6,1v0c0.4,0.2,0.7,0.6,0.7,1.2v0.4c0,0.4-0.1,0.8-0.4,1
		c-0.2,0.2-0.6,0.4-1,0.4s-0.8-0.1-1-0.4c-0.2-0.2-0.4-0.6-0.4-1v-0.4c0-0.6,0.2-1,0.7-1.2v0c-0.4-0.2-0.6-0.5-0.6-1v-0.3
		c0-0.4,0.1-0.8,0.4-1s0.6-0.4,1-0.4S23.3,26.8,23.6,27.1z M22.2,30.1c-0.1,0.1-0.1,0.3-0.1,0.5V31c0,0.2,0,0.4,0.1,0.5
		c0.1,0.1,0.2,0.2,0.4,0.2s0.3-0.1,0.4-0.2c0.1-0.1,0.1-0.3,0.1-0.5v-0.5c0-0.2,0-0.4-0.1-0.5c-0.1-0.1-0.2-0.2-0.4-0.2
		S22.3,30,22.2,30.1z M22.2,27.7c-0.1,0.1-0.1,0.3-0.1,0.4v0.4c0,0.2,0,0.3,0.1,0.4s0.2,0.2,0.4,0.2s0.3-0.1,0.4-0.2
		s0.1-0.3,0.1-0.4v-0.4c0-0.2,0-0.3-0.1-0.4s-0.2-0.2-0.4-0.2S22.3,27.6,22.2,27.7z"/>
</g>
<g>
	<path class="st0" d="M13.4,35.7c0.2,0.2,0.3,0.5,0.3,0.9v0.2c0,0.3-0.1,0.6-0.2,0.8c-0.1,0.3-0.3,0.6-0.5,1.1l-0.9,1.5h1.6v0.8
		h-2.6v-0.7l1.3-2c0.2-0.3,0.3-0.6,0.4-0.8c0.1-0.2,0.1-0.5,0.1-0.7v-0.1c0-0.4-0.2-0.6-0.5-0.6c-0.2,0-0.3,0.1-0.4,0.2
		c-0.1,0.1-0.1,0.3-0.1,0.5v0.3l-0.8,0v-0.4c0-0.4,0.1-0.7,0.3-1s0.5-0.3,1-0.3S13.2,35.5,13.4,35.7z"/>
	<path class="st0" d="M16.7,35.8c0.2,0.3,0.4,0.6,0.4,1v2.9c0,0.4-0.1,0.8-0.4,1c-0.2,0.3-0.6,0.4-1,0.4s-0.8-0.1-1-0.4
		s-0.4-0.6-0.4-1v-2.9c0-0.4,0.1-0.8,0.4-1s0.6-0.4,1-0.4S16.5,35.5,16.7,35.8z M15.3,36.3c-0.1,0.1-0.1,0.3-0.1,0.5v2.9
		c0,0.2,0,0.4,0.1,0.5c0.1,0.1,0.2,0.2,0.4,0.2c0.2,0,0.3-0.1,0.4-0.2c0.1-0.1,0.1-0.3,0.1-0.5v-2.9c0-0.2,0-0.4-0.1-0.5
		s-0.2-0.2-0.4-0.2C15.5,36.2,15.4,36.2,15.3,36.3z"/>
	<path class="st0" d="M20.2,35.8c0.2,0.3,0.4,0.6,0.4,1v2.9c0,0.4-0.1,0.8-0.4,1c-0.2,0.3-0.6,0.4-1,0.4s-0.8-0.1-1-0.4
		s-0.4-0.6-0.4-1v-2.9c0-0.4,0.1-0.8,0.4-1s0.6-0.4,1-0.4S19.9,35.5,20.2,35.8z M18.8,36.3c-0.1,0.1-0.1,0.3-0.1,0.5v2.9
		c0,0.2,0,0.4,0.1,0.5c0.1,0.1,0.2,0.2,0.4,0.2c0.2,0,0.3-0.1,0.4-0.2c0.1-0.1,0.1-0.3,0.1-0.5v-2.9c0-0.2,0-0.4-0.1-0.5
		s-0.2-0.2-0.4-0.2C19,36.2,18.9,36.2,18.8,36.3z"/>
	<path class="st0" d="M21.6,40.8c-0.2-0.2-0.3-0.6-0.3-1v-0.2l0.8,0v0.2c0,0.2,0,0.4,0.1,0.5c0.1,0.1,0.2,0.2,0.4,0.2
		c0.3,0,0.5-0.2,0.5-0.6v-1.2h0c-0.1,0.1-0.2,0.2-0.3,0.2c-0.1,0.1-0.3,0.1-0.4,0.1c-0.3,0-0.6-0.1-0.8-0.4c-0.2-0.2-0.3-0.6-0.3-1
		v-0.8c0-0.4,0.1-0.8,0.4-1s0.6-0.4,1-0.4c0.4,0,0.7,0.1,1,0.4s0.4,0.6,0.4,1v3c0,0.4-0.1,0.8-0.4,1c-0.2,0.2-0.6,0.4-1,0.4
		S21.8,41,21.6,40.8z M22.9,38c0.1-0.1,0.1-0.3,0.1-0.5v-0.7c0-0.2,0-0.4-0.1-0.5s-0.2-0.2-0.4-0.2c-0.2,0-0.3,0.1-0.4,0.2
		s-0.1,0.3-0.1,0.5v0.7c0,0.2,0,0.4,0.1,0.5s0.2,0.2,0.4,0.2C22.7,38.1,22.9,38.1,22.9,38z"/>
</g>
<g>
	<path class="st0" d="M13.4,44.4c0.2,0.2,0.3,0.5,0.3,0.9v0.2c0,0.3-0.1,0.6-0.2,0.8c-0.1,0.3-0.3,0.6-0.5,1.1l-0.9,1.5h1.6v0.8
		h-2.6V49l1.3-2c0.2-0.3,0.3-0.6,0.4-0.8c0.1-0.2,0.1-0.5,0.1-0.7v-0.1c0-0.4-0.2-0.6-0.5-0.6c-0.2,0-0.3,0.1-0.4,0.2
		c-0.1,0.1-0.1,0.3-0.1,0.5v0.3l-0.8,0v-0.4c0-0.4,0.1-0.7,0.3-1s0.5-0.3,1-0.3S13.2,44.2,13.4,44.4z"/>
	<path class="st0" d="M16.7,44.4c0.2,0.3,0.4,0.6,0.4,1v2.9c0,0.4-0.1,0.8-0.4,1c-0.2,0.3-0.6,0.4-1,0.4s-0.8-0.1-1-0.4
		s-0.4-0.6-0.4-1v-2.9c0-0.4,0.1-0.8,0.4-1s0.6-0.4,1-0.4S16.5,44.2,16.7,44.4z M15.3,45c-0.1,0.1-0.1,0.3-0.1,0.5v2.9
		c0,0.2,0,0.4,0.1,0.5c0.1,0.1,0.2,0.2,0.4,0.2c0.2,0,0.3-0.1,0.4-0.2c0.1-0.1,0.1-0.3,0.1-0.5v-2.9c0-0.2,0-0.4-0.1-0.5
		s-0.2-0.2-0.4-0.2C15.5,44.8,15.4,44.9,15.3,45z"/>
	<path class="st0" d="M19.6,49.7h-0.8v-4.3h-1.2v-0.6c0.4,0,0.7-0.1,0.9-0.2c0.3-0.1,0.4-0.3,0.5-0.5h0.6V49.7z"/>
	<path class="st0" d="M22.9,44.4c0.2,0.3,0.4,0.6,0.4,1v2.9c0,0.4-0.1,0.8-0.4,1c-0.2,0.3-0.6,0.4-1,0.4s-0.8-0.1-1-0.4
		s-0.4-0.6-0.4-1v-2.9c0-0.4,0.1-0.8,0.4-1s0.6-0.4,1-0.4S22.6,44.2,22.9,44.4z M21.5,45c-0.1,0.1-0.1,0.3-0.1,0.5v2.9
		c0,0.2,0,0.4,0.1,0.5c0.1,0.1,0.2,0.2,0.4,0.2c0.2,0,0.3-0.1,0.4-0.2c0.1-0.1,0.1-0.3,0.1-0.5v-2.9c0-0.2,0-0.4-0.1-0.5
		s-0.2-0.2-0.4-0.2C21.7,44.8,21.6,44.9,21.5,45z"/>
</g>
<g>
	<path class="st0" d="M13.4,61.7c0.2,0.2,0.3,0.5,0.3,0.9v0.2c0,0.3-0.1,0.6-0.2,0.8c-0.1,0.3-0.3,0.6-0.5,1.1l-0.9,1.5h1.6V67h-2.6
		v-0.7l1.3-2c0.2-0.3,0.3-0.6,0.4-0.8c0.1-0.2,0.1-0.5,0.1-0.7v-0.1c0-0.4-0.2-0.6-0.5-0.6c-0.2,0-0.3,0.1-0.4,0.2
		c-0.1,0.1-0.1,0.3-0.1,0.5v0.3l-0.8,0v-0.4c0-0.4,0.1-0.7,0.3-1s0.5-0.3,1-0.3S13.2,61.4,13.4,61.7z"/>
	<path class="st0" d="M16.7,61.7c0.2,0.3,0.4,0.6,0.4,1v2.9c0,0.4-0.1,0.8-0.4,1c-0.2,0.3-0.6,0.4-1,0.4s-0.8-0.1-1-0.4
		s-0.4-0.6-0.4-1v-2.9c0-0.4,0.1-0.8,0.4-1s0.6-0.4,1-0.4S16.5,61.5,16.7,61.7z M15.3,62.3c-0.1,0.1-0.1,0.3-0.1,0.5v2.9
		c0,0.2,0,0.4,0.1,0.5c0.1,0.1,0.2,0.2,0.4,0.2c0.2,0,0.3-0.1,0.4-0.2c0.1-0.1,0.1-0.3,0.1-0.5v-2.9c0-0.2,0-0.4-0.1-0.5
		s-0.2-0.2-0.4-0.2C15.5,62.1,15.4,62.2,15.3,62.3z"/>
	<path class="st0" d="M19.6,67h-0.8v-4.3h-1.2v-0.6c0.4,0,0.7-0.1,0.9-0.2c0.3-0.1,0.4-0.3,0.5-0.5h0.6V67z"/>
	<path class="st0" d="M22.6,61.7c0.2,0.2,0.3,0.5,0.3,0.9v0.2c0,0.3-0.1,0.6-0.2,0.8c-0.1,0.3-0.3,0.6-0.5,1.1l-0.9,1.5h1.6V67h-2.6
		v-0.7l1.3-2c0.2-0.3,0.3-0.6,0.4-0.8c0.1-0.2,0.1-0.5,0.1-0.7v-0.1c0-0.4-0.2-0.6-0.5-0.6c-0.2,0-0.3,0.1-0.4,0.2
		c-0.1,0.1-0.1,0.3-0.1,0.5v0.3l-0.8,0v-0.4c0-0.4,0.1-0.7,0.3-1s0.5-0.3,1-0.3S22.4,61.4,22.6,61.7z"/>
</g>
<g>
	<path class="st0" d="M13.4,70.3c0.2,0.2,0.3,0.5,0.3,0.9v0.2c0,0.3-0.1,0.6-0.2,0.8c-0.1,0.3-0.3,0.6-0.5,1.1l-0.9,1.5h1.6v0.8
		h-2.6v-0.7l1.3-2c0.2-0.3,0.3-0.6,0.4-0.8c0.1-0.2,0.1-0.5,0.1-0.7v-0.1c0-0.4-0.2-0.6-0.5-0.6c-0.2,0-0.3,0.1-0.4,0.2
		c-0.1,0.1-0.1,0.3-0.1,0.5v0.3l-0.8,0v-0.4c0-0.4,0.1-0.7,0.3-1s0.5-0.3,1-0.3S13.2,70.1,13.4,70.3z"/>
	<path class="st0" d="M16.7,70.4c0.2,0.3,0.4,0.6,0.4,1v2.9c0,0.4-0.1,0.8-0.4,1c-0.2,0.3-0.6,0.4-1,0.4s-0.8-0.1-1-0.4
		c-0.2-0.3-0.4-0.6-0.4-1v-2.9c0-0.4,0.1-0.8,0.4-1s0.6-0.4,1-0.4S16.5,70.1,16.7,70.4z M15.3,70.9c-0.1,0.1-0.1,0.3-0.1,0.5v2.9
		c0,0.2,0,0.4,0.1,0.5c0.1,0.1,0.2,0.2,0.4,0.2c0.2,0,0.3-0.1,0.4-0.2c0.1-0.1,0.1-0.3,0.1-0.5v-2.9c0-0.2,0-0.4-0.1-0.5
		s-0.2-0.2-0.4-0.2C15.5,70.8,15.4,70.8,15.3,70.9z"/>
	<path class="st0" d="M19.6,75.7h-0.8v-4.3h-1.2v-0.6c0.4,0,0.7-0.1,0.9-0.2c0.3-0.1,0.4-0.3,0.5-0.5h0.6V75.7z"/>
	<path class="st0" d="M22.7,70.3c0.2,0.2,0.3,0.6,0.3,1v0.3c0,0.5-0.2,0.9-0.6,1v0c0.4,0.2,0.7,0.6,0.7,1.2v0.4c0,0.4-0.1,0.8-0.4,1
		c-0.2,0.2-0.6,0.4-1,0.4c-0.4,0-0.8-0.1-1-0.4c-0.2-0.2-0.4-0.6-0.4-1v-0.3l0.8,0v0.3c0,0.2,0,0.4,0.1,0.5c0.1,0.1,0.2,0.2,0.4,0.2
		c0.2,0,0.3-0.1,0.4-0.2c0.1-0.1,0.1-0.3,0.1-0.5v-0.4c0-0.3,0-0.4-0.1-0.5s-0.3-0.2-0.5-0.2h-0.4v-0.8h0.4c0.2,0,0.3-0.1,0.4-0.2
		c0.1-0.1,0.1-0.3,0.1-0.5v-0.3c0-0.2,0-0.4-0.1-0.5c-0.1-0.1-0.2-0.2-0.4-0.2s-0.3,0.1-0.4,0.2c-0.1,0.1-0.1,0.3-0.1,0.5v0.3
		l-0.8,0v-0.3c0-0.4,0.1-0.8,0.3-1c0.2-0.2,0.6-0.4,1-0.4S22.4,70.1,22.7,70.3z"/>
</g>
<g>
	<path class="st0" d="M13.4,79c0.2,0.2,0.3,0.5,0.3,0.9v0.2c0,0.3-0.1,0.6-0.2,0.8c-0.1,0.3-0.3,0.6-0.5,1.1l-0.9,1.5h1.6v0.8h-2.6
		v-0.7l1.3-2c0.2-0.3,0.3-0.6,0.4-0.8c0.1-0.2,0.1-0.5,0.1-0.7V80c0-0.4-0.2-0.6-0.5-0.6c-0.2,0-0.3,0.1-0.4,0.2
		c-0.1,0.1-0.1,0.3-0.1,0.5v0.3l-0.8,0v-0.4c0-0.4,0.1-0.7,0.3-1s0.5-0.3,1-0.3S13.2,78.7,13.4,79z"/>
	<path class="st0" d="M16.7,79c0.2,0.3,0.4,0.6,0.4,1V83c0,0.4-0.1,0.8-0.4,1c-0.2,0.3-0.6,0.4-1,0.4s-0.8-0.1-1-0.4
		c-0.2-0.3-0.4-0.6-0.4-1V80c0-0.4,0.1-0.8,0.4-1c0.2-0.3,0.6-0.4,1-0.4S16.5,78.8,16.7,79z M15.3,79.6c-0.1,0.1-0.1,0.3-0.1,0.5V83
		c0,0.2,0,0.4,0.1,0.5c0.1,0.1,0.2,0.2,0.4,0.2c0.2,0,0.3-0.1,0.4-0.2s0.1-0.3,0.1-0.5v-2.9c0-0.2,0-0.4-0.1-0.5
		c-0.1-0.1-0.2-0.2-0.4-0.2C15.5,79.4,15.4,79.5,15.3,79.6z"/>
	<path class="st0" d="M19.6,84.3h-0.8V80h-1.2v-0.6c0.4,0,0.7-0.1,0.9-0.2c0.3-0.1,0.4-0.3,0.5-0.5h0.6V84.3z"/>
	<path class="st0" d="M22.9,82.3h0.4v0.8h-0.4v1.2H22v-1.2h-1.8v-0.7l1.8-3.7h0.8V82.3z M22,80.3l-0.9,2H22L22,80.3L22,80.3z"/>
</g>
<g>
	<path class="st0" d="M13.4,87.6c0.2,0.2,0.3,0.5,0.3,0.9v0.2c0,0.3-0.1,0.6-0.2,0.8c-0.1,0.3-0.3,0.6-0.5,1.1l-0.9,1.5h1.6V93h-2.6
		v-0.7l1.3-2c0.2-0.3,0.3-0.6,0.4-0.8c0.1-0.2,0.1-0.5,0.1-0.7v-0.1c0-0.4-0.2-0.6-0.5-0.6c-0.2,0-0.3,0.1-0.4,0.2
		c-0.1,0.1-0.1,0.3-0.1,0.5V89l-0.8,0v-0.4c0-0.4,0.1-0.7,0.3-1s0.5-0.3,1-0.3S13.2,87.4,13.4,87.6z"/>
	<path class="st0" d="M16.7,87.7c0.2,0.3,0.4,0.6,0.4,1v2.9c0,0.4-0.1,0.8-0.4,1c-0.2,0.3-0.6,0.4-1,0.4s-0.8-0.1-1-0.4
		c-0.2-0.3-0.4-0.6-0.4-1v-2.9c0-0.4,0.1-0.8,0.4-1c0.2-0.3,0.6-0.4,1-0.4S16.5,87.4,16.7,87.7z M15.3,88.2
		c-0.1,0.1-0.1,0.3-0.1,0.5v2.9c0,0.2,0,0.4,0.1,0.5c0.1,0.1,0.2,0.2,0.4,0.2c0.2,0,0.3-0.1,0.4-0.2s0.1-0.3,0.1-0.5v-2.9
		c0-0.2,0-0.4-0.1-0.5c-0.1-0.1-0.2-0.2-0.4-0.2C15.5,88.1,15.4,88.1,15.3,88.2z"/>
	<path class="st0" d="M19.6,93h-0.8v-4.3h-1.2v-0.6c0.4,0,0.7-0.1,0.9-0.2c0.3-0.1,0.4-0.3,0.5-0.5h0.6V93z"/>
	<path class="st0" d="M20.8,92.7c-0.2-0.2-0.4-0.6-0.4-1v-0.2l0.8,0v0.2c0,0.4,0.2,0.7,0.5,0.7c0.2,0,0.3-0.1,0.4-0.2
		c0.1-0.1,0.1-0.3,0.1-0.5v-0.9c0-0.2,0-0.4-0.1-0.5C22,90.1,21.9,90,21.7,90c-0.1,0-0.3,0-0.3,0.1c-0.1,0.1-0.1,0.2-0.2,0.3l0,0.1
		l-0.8,0l0.2-3.2h2.3v0.8h-1.5l-0.1,1.3h0c0.1-0.2,0.4-0.2,0.7-0.2c0.4,0,0.6,0.1,0.8,0.4s0.3,0.6,0.3,1v1.1c0,0.4-0.1,0.8-0.4,1
		c-0.2,0.2-0.6,0.4-1,0.4C21.3,93,21,92.9,20.8,92.7z"/>
</g>
<g>
	<path class="st0" d="M13.4,96.3c0.2,0.2,0.3,0.5,0.3,0.9v0.2c0,0.3-0.1,0.6-0.2,0.8c-0.1,0.3-0.3,0.6-0.5,1.1l-0.9,1.5h1.6v0.8
		h-2.6v-0.7l1.3-2c0.2-0.3,0.3-0.6,0.4-0.8c0.1-0.2,0.1-0.5,0.1-0.7v-0.1c0-0.4-0.2-0.6-0.5-0.6c-0.2,0-0.3,0.1-0.4,0.2
		c-0.1,0.1-0.1,0.3-0.1,0.5v0.3l-0.8,0v-0.4c0-0.4,0.1-0.7,0.3-1s0.5-0.3,1-0.3S13.2,96,13.4,96.3z"/>
	<path class="st0" d="M16.7,96.3c0.2,0.3,0.4,0.6,0.4,1v2.9c0,0.4-0.1,0.8-0.4,1c-0.2,0.3-0.6,0.4-1,0.4s-0.8-0.1-1-0.4
		c-0.2-0.3-0.4-0.6-0.4-1v-2.9c0-0.4,0.1-0.8,0.4-1c0.2-0.3,0.6-0.4,1-0.4S16.5,96.1,16.7,96.3z M15.3,96.9
		c-0.1,0.1-0.1,0.3-0.1,0.5v2.9c0,0.2,0,0.4,0.1,0.5c0.1,0.1,0.2,0.2,0.4,0.2c0.2,0,0.3-0.1,0.4-0.2s0.1-0.3,0.1-0.5v-2.9
		c0-0.2,0-0.4-0.1-0.5c-0.1-0.1-0.2-0.2-0.4-0.2C15.5,96.7,15.4,96.8,15.3,96.9z"/>
	<path class="st0" d="M19.6,101.6h-0.8v-4.3h-1.2v-0.6c0.4,0,0.7-0.1,0.9-0.2c0.3-0.1,0.4-0.3,0.5-0.5h0.6V101.6z"/>
	<path class="st0" d="M22.8,96.3c0.2,0.2,0.3,0.6,0.3,1v0.2l-0.8,0v-0.2c0-0.2,0-0.4-0.1-0.5s-0.2-0.2-0.4-0.2
		c-0.3,0-0.5,0.2-0.5,0.6v1.2h0c0.1-0.1,0.2-0.2,0.3-0.2c0.1-0.1,0.3-0.1,0.4-0.1c0.3,0,0.6,0.1,0.8,0.4c0.2,0.2,0.3,0.6,0.3,1v0.8
		c0,0.4-0.1,0.8-0.4,1c-0.2,0.3-0.6,0.4-1,0.4c-0.4,0-0.7-0.1-1-0.4c-0.2-0.3-0.4-0.6-0.4-1v-3c0-0.4,0.1-0.8,0.4-1
		c0.2-0.2,0.6-0.4,1-0.4S22.6,96,22.8,96.3z M21.5,99.1c-0.1,0.1-0.1,0.3-0.1,0.5v0.7c0,0.2,0,0.4,0.1,0.5c0.1,0.1,0.2,0.2,0.4,0.2
		c0.2,0,0.3-0.1,0.4-0.2s0.1-0.3,0.1-0.5v-0.7c0-0.2,0-0.4-0.1-0.5s-0.2-0.2-0.4-0.2C21.7,98.9,21.6,99,21.5,99.1z"/>
</g>
<g>
	<path class="st0" d="M13.4,104.9c0.2,0.2,0.3,0.5,0.3,0.9v0.2c0,0.3-0.1,0.6-0.2,0.8c-0.1,0.3-0.3,0.6-0.5,1.1l-0.9,1.5h1.6v0.8
		h-2.6v-0.7l1.3-2c0.2-0.3,0.3-0.6,0.4-0.8c0.1-0.2,0.1-0.5,0.1-0.7v-0.1c0-0.4-0.2-0.6-0.5-0.6c-0.2,0-0.3,0.1-0.4,0.2
		c-0.1,0.1-0.1,0.3-0.1,0.5v0.3l-0.8,0v-0.4c0-0.4,0.1-0.7,0.3-1s0.5-0.3,1-0.3S13.2,104.7,13.4,104.9z"/>
	<path class="st0" d="M16.7,105c0.2,0.3,0.4,0.6,0.4,1v2.9c0,0.4-0.1,0.8-0.4,1c-0.2,0.3-0.6,0.4-1,0.4s-0.8-0.1-1-0.4
		c-0.2-0.3-0.4-0.6-0.4-1V106c0-0.4,0.1-0.8,0.4-1c0.2-0.3,0.6-0.4,1-0.4S16.5,104.7,16.7,105z M15.3,105.5
		c-0.1,0.1-0.1,0.3-0.1,0.5v2.9c0,0.2,0,0.4,0.1,0.5c0.1,0.1,0.2,0.2,0.4,0.2c0.2,0,0.3-0.1,0.4-0.2s0.1-0.3,0.1-0.5V106
		c0-0.2,0-0.4-0.1-0.5c-0.1-0.1-0.2-0.2-0.4-0.2C15.5,105.4,15.4,105.4,15.3,105.5z"/>
	<path class="st0" d="M19.6,110.3h-0.8V106h-1.2v-0.6c0.4,0,0.7-0.1,0.9-0.2c0.3-0.1,0.4-0.3,0.5-0.5h0.6V110.3z"/>
	<path class="st0" d="M22.9,105.4l-1.6,4.8h-0.9l1.6-4.8h-1.8v-0.8h2.6V105.4z"/>
</g>
<g>
	<path class="st0" d="M13.4,113.6c0.2,0.2,0.3,0.5,0.3,0.9v0.2c0,0.3-0.1,0.6-0.2,0.8c-0.1,0.3-0.3,0.6-0.5,1.1l-0.9,1.5h1.6v0.8
		h-2.6v-0.7l1.3-2c0.2-0.3,0.3-0.6,0.4-0.8c0.1-0.2,0.1-0.5,0.1-0.7v-0.1c0-0.4-0.2-0.6-0.5-0.6c-0.2,0-0.3,0.1-0.4,0.2
		c-0.1,0.1-0.1,0.3-0.1,0.5v0.3l-0.8,0v-0.4c0-0.4,0.1-0.7,0.3-1s0.5-0.3,1-0.3S13.2,113.4,13.4,113.6z"/>
	<path class="st0" d="M16.7,113.6c0.2,0.3,0.4,0.6,0.4,1v2.9c0,0.4-0.1,0.8-0.4,1c-0.2,0.3-0.6,0.4-1,0.4s-0.8-0.1-1-0.4
		c-0.2-0.3-0.4-0.6-0.4-1v-2.9c0-0.4,0.1-0.8,0.4-1c0.2-0.3,0.6-0.4,1-0.4S16.5,113.4,16.7,113.6z M15.3,114.2
		c-0.1,0.1-0.1,0.3-0.1,0.5v2.9c0,0.2,0,0.4,0.1,0.5c0.1,0.1,0.2,0.2,0.4,0.2c0.2,0,0.3-0.1,0.4-0.2s0.1-0.3,0.1-0.5v-2.9
		c0-0.2,0-0.4-0.1-0.5c-0.1-0.1-0.2-0.2-0.4-0.2C15.5,114,15.4,114.1,15.3,114.2z"/>
	<path class="st0" d="M19.6,118.9h-0.8v-4.3h-1.2V114c0.4,0,0.7-0.1,0.9-0.2c0.3-0.1,0.4-0.3,0.5-0.5h0.6V118.9z"/>
	<path class="st0" d="M22.8,113.6c0.2,0.2,0.4,0.6,0.4,1v0.3c0,0.5-0.2,0.9-0.6,1v0c0.4,0.2,0.7,0.6,0.7,1.2v0.4
		c0,0.4-0.1,0.8-0.4,1c-0.2,0.2-0.6,0.4-1,0.4s-0.8-0.1-1-0.4c-0.2-0.2-0.4-0.6-0.4-1v-0.4c0-0.6,0.2-1,0.7-1.2v0
		c-0.4-0.2-0.6-0.5-0.6-1v-0.3c0-0.4,0.1-0.8,0.4-1c0.2-0.2,0.6-0.4,1-0.4S22.5,113.4,22.8,113.6z M21.4,116.6
		c-0.1,0.1-0.1,0.3-0.1,0.5v0.5c0,0.2,0,0.4,0.1,0.5c0.1,0.1,0.2,0.2,0.4,0.2s0.3-0.1,0.4-0.2s0.1-0.3,0.1-0.5v-0.5
		c0-0.2,0-0.4-0.1-0.5s-0.2-0.2-0.4-0.2S21.5,116.5,21.4,116.6z M21.4,114.2c-0.1,0.1-0.1,0.3-0.1,0.4v0.4c0,0.2,0,0.3,0.1,0.4
		c0.1,0.1,0.2,0.2,0.4,0.2s0.3-0.1,0.4-0.2c0.1-0.1,0.1-0.3,0.1-0.4v-0.4c0-0.2,0-0.3-0.1-0.4c-0.1-0.1-0.2-0.2-0.4-0.2
		S21.5,114.1,21.4,114.2z"/>
</g>
<g>
	<path class="st0" d="M13.4,122.2c0.2,0.2,0.3,0.5,0.3,0.9v0.2c0,0.3-0.1,0.6-0.2,0.8c-0.1,0.3-0.3,0.6-0.5,1.1l-0.9,1.5h1.6v0.8
		h-2.6v-0.7l1.3-2c0.2-0.3,0.3-0.6,0.4-0.8c0.1-0.2,0.1-0.5,0.1-0.7v-0.1c0-0.4-0.2-0.6-0.5-0.6c-0.2,0-0.3,0.1-0.4,0.2
		c-0.1,0.1-0.1,0.3-0.1,0.5v0.3l-0.8,0v-0.4c0-0.4,0.1-0.7,0.3-1s0.5-0.3,1-0.3S13.2,122,13.4,122.2z"/>
	<path class="st0" d="M16.7,122.3c0.2,0.3,0.4,0.6,0.4,1v2.9c0,0.4-0.1,0.8-0.4,1c-0.2,0.3-0.6,0.4-1,0.4s-0.8-0.1-1-0.4
		c-0.2-0.3-0.4-0.6-0.4-1v-2.9c0-0.4,0.1-0.8,0.4-1c0.2-0.3,0.6-0.4,1-0.4S16.5,122,16.7,122.3z M15.3,122.8
		c-0.1,0.1-0.1,0.3-0.1,0.5v2.9c0,0.2,0,0.4,0.1,0.5c0.1,0.1,0.2,0.2,0.4,0.2c0.2,0,0.3-0.1,0.4-0.2s0.1-0.3,0.1-0.5v-2.9
		c0-0.2,0-0.4-0.1-0.5c-0.1-0.1-0.2-0.2-0.4-0.2C15.5,122.7,15.4,122.7,15.3,122.8z"/>
	<path class="st0" d="M19.6,127.6h-0.8v-4.3h-1.2v-0.6c0.4,0,0.7-0.1,0.9-0.2c0.3-0.1,0.4-0.3,0.5-0.5h0.6V127.6z"/>
	<path class="st0" d="M20.8,127.3c-0.2-0.2-0.3-0.6-0.3-1v-0.2l0.8,0v0.2c0,0.2,0,0.4,0.1,0.5c0.1,0.1,0.2,0.2,0.4,0.2
		c0.3,0,0.5-0.2,0.5-0.6v-1.2h0c-0.1,0.1-0.2,0.2-0.3,0.2c-0.1,0.1-0.3,0.1-0.4,0.1c-0.3,0-0.6-0.1-0.8-0.4c-0.2-0.2-0.3-0.6-0.3-1
		v-0.8c0-0.4,0.1-0.8,0.4-1c0.2-0.3,0.6-0.4,1-0.4c0.4,0,0.7,0.1,1,0.4c0.2,0.3,0.4,0.6,0.4,1v3c0,0.4-0.1,0.8-0.4,1
		c-0.2,0.2-0.6,0.4-1,0.4S21.1,127.5,20.8,127.3z M22.2,124.5c0.1-0.1,0.1-0.3,0.1-0.5v-0.7c0-0.2,0-0.4-0.1-0.5
		c-0.1-0.1-0.2-0.2-0.4-0.2c-0.2,0-0.3,0.1-0.4,0.2c-0.1,0.1-0.1,0.3-0.1,0.5v0.7c0,0.2,0,0.4,0.1,0.5s0.2,0.2,0.4,0.2
		C22,124.6,22.1,124.6,22.2,124.5z"/>
</g>
<g class="st3">
	<path class="st4" d="M47.5,126.3h-0.7v-3.8h-1V122c0.3,0,0.6-0.1,0.8-0.2c0.2-0.1,0.4-0.2,0.4-0.4h0.5V126.3z"/>
	<path class="st4" d="M50.4,121.7c0.2,0.2,0.3,0.5,0.3,0.9v2.6c0,0.4-0.1,0.7-0.3,0.9s-0.5,0.3-0.9,0.3c-0.4,0-0.7-0.1-0.9-0.3
		s-0.3-0.5-0.3-0.9v-2.6c0-0.4,0.1-0.7,0.3-0.9s0.5-0.3,0.9-0.3C49.9,121.4,50.2,121.5,50.4,121.7z M49.2,122.2
		c-0.1,0.1-0.1,0.2-0.1,0.4v2.5c0,0.2,0,0.3,0.1,0.4c0.1,0.1,0.2,0.1,0.3,0.1s0.3,0,0.3-0.1c0.1-0.1,0.1-0.2,0.1-0.4v-2.5
		c0-0.2,0-0.3-0.1-0.4c-0.1-0.1-0.2-0.1-0.3-0.1S49.2,122.1,49.2,122.2z"/>
	<path class="st4" d="M53.4,122.1l-1.4,4.2h-0.8l1.4-4.2h-1.5v-0.7h2.3V122.1z"/>
	<path class="st4" d="M54.1,126.3h-0.8v-0.8h0.8V126.3z"/>
	<path class="st4" d="M56.9,124.6h0.3v0.7h-0.3v1h-0.7v-1h-1.6v-0.6l1.6-3.2h0.7V124.6z M56.1,122.9l-0.8,1.8h0.8L56.1,122.9
		L56.1,122.9z"/>
	<path class="st4" d="M59.3,126.3h-0.7v-3.8h-1V122c0.3,0,0.6-0.1,0.8-0.2c0.2-0.1,0.4-0.2,0.4-0.4h0.5V126.3z"/>
	<path class="st4" d="M60.3,126.1c-0.2-0.2-0.3-0.5-0.3-0.9V125l0.7,0v0.2c0,0.2,0,0.3,0.1,0.4c0.1,0.1,0.2,0.1,0.3,0.1
		c0.3,0,0.4-0.2,0.4-0.5v-1h0c-0.1,0.1-0.2,0.1-0.3,0.2c-0.1,0-0.2,0.1-0.4,0.1c-0.3,0-0.5-0.1-0.7-0.3c-0.2-0.2-0.3-0.5-0.3-0.9
		v-0.7c0-0.4,0.1-0.7,0.3-0.9s0.5-0.3,0.9-0.3c0.4,0,0.7,0.1,0.9,0.3s0.3,0.5,0.3,0.9v2.6c0,0.4-0.1,0.7-0.3,0.9
		c-0.2,0.2-0.5,0.3-0.9,0.3S60.5,126.3,60.3,126.1z M61.5,123.6c0.1-0.1,0.1-0.2,0.1-0.4v-0.6c0-0.2,0-0.3-0.1-0.4
		c-0.1-0.1-0.2-0.1-0.3-0.1c-0.1,0-0.3,0-0.3,0.1c-0.1,0.1-0.1,0.2-0.1,0.4v0.6c0,0.2,0,0.3,0.1,0.4c0.1,0.1,0.2,0.1,0.3,0.1
		C61.3,123.8,61.4,123.7,61.5,123.6z"/>
	<path class="st4" d="M63.8,126.3l-0.4,0.9h-0.4l0.3-0.8h-0.3v-0.8h0.8V126.3z"/>
	<path class="st4" d="M65.6,126.3h-0.7v-3.8h-1V122c0.3,0,0.6-0.1,0.8-0.2c0.2-0.1,0.4-0.2,0.4-0.4h0.5V126.3z"/>
</g>
<g class="st3">
	<path class="st4" d="M47.5,22.5h-0.7v-3.8h-1v-0.5c0.3,0,0.6-0.1,0.8-0.2c0.2-0.1,0.4-0.2,0.4-0.4h0.5V22.5z"/>
	<path class="st4" d="M49.9,22.5h-0.7v-3.8h-1v-0.5c0.3,0,0.6-0.1,0.8-0.2c0.2-0.1,0.4-0.2,0.4-0.4h0.5V22.5z"/>
	<path class="st4" d="M50.9,22.3c-0.2-0.2-0.3-0.5-0.3-0.9v-0.2l0.7,0v0.1c0,0.4,0.1,0.6,0.4,0.6c0.2,0,0.3,0,0.3-0.1
		c0.1-0.1,0.1-0.2,0.1-0.4v-0.8c0-0.2,0-0.3-0.1-0.4c-0.1-0.1-0.2-0.1-0.3-0.1c-0.1,0-0.2,0-0.3,0.1c-0.1,0.1-0.1,0.2-0.1,0.3l0,0.1
		l-0.7,0l0.2-2.8h2v0.7h-1.4l-0.1,1.2h0c0.1-0.1,0.3-0.2,0.6-0.2c0.3,0,0.6,0.1,0.7,0.3s0.3,0.5,0.3,0.9v0.9c0,0.4-0.1,0.7-0.3,0.9
		c-0.2,0.2-0.5,0.3-0.9,0.3C51.4,22.6,51.1,22.5,50.9,22.3z"/>
	<path class="st4" d="M54.3,22.5h-0.8v-0.8h0.8V22.5z"/>
	<path class="st4" d="M55.3,22.3c-0.2-0.2-0.3-0.5-0.3-0.9v-0.2l0.7,0v0.1c0,0.4,0.1,0.6,0.4,0.6c0.2,0,0.3,0,0.3-0.1
		c0.1-0.1,0.1-0.2,0.1-0.4v-0.8c0-0.2,0-0.3-0.1-0.4c-0.1-0.1-0.2-0.1-0.3-0.1c-0.1,0-0.2,0-0.3,0.1c-0.1,0.1-0.1,0.2-0.1,0.3l0,0.1
		l-0.7,0l0.2-2.8h2v0.7h-1.4l-0.1,1.2h0c0.1-0.1,0.3-0.2,0.6-0.2c0.3,0,0.6,0.1,0.7,0.3s0.3,0.5,0.3,0.9v0.9c0,0.4-0.1,0.7-0.3,0.9
		c-0.2,0.2-0.5,0.3-0.9,0.3C55.8,22.6,55.5,22.5,55.3,22.3z"/>
	<path class="st4" d="M59.4,22.5h-0.7v-3.8h-1v-0.5c0.3,0,0.6-0.1,0.8-0.2c0.2-0.1,0.4-0.2,0.4-0.4h0.5V22.5z"/>
	<path class="st4" d="M62.1,17.9c0.2,0.2,0.3,0.5,0.3,0.9V19c0,0.5-0.2,0.8-0.5,0.9v0c0.4,0.2,0.6,0.5,0.6,1v0.4
		c0,0.4-0.1,0.7-0.3,0.9c-0.2,0.2-0.5,0.3-0.9,0.3s-0.7-0.1-0.9-0.3c-0.2-0.2-0.3-0.5-0.3-0.9v-0.3l0.7,0v0.2c0,0.2,0,0.3,0.1,0.4
		s0.2,0.1,0.3,0.1c0.2,0,0.3,0,0.4-0.1c0.1-0.1,0.1-0.2,0.1-0.4v-0.4c0-0.2,0-0.4-0.1-0.5c-0.1-0.1-0.2-0.2-0.4-0.2h-0.3v-0.7h0.3
		c0.2,0,0.3,0,0.4-0.1c0.1-0.1,0.1-0.2,0.1-0.5v-0.3c0-0.2,0-0.3-0.1-0.4c-0.1-0.1-0.2-0.1-0.3-0.1c-0.1,0-0.3,0-0.3,0.1
		c-0.1,0.1-0.1,0.2-0.1,0.4v0.2L60,19v-0.3c0-0.4,0.1-0.7,0.3-0.9c0.2-0.2,0.5-0.3,0.9-0.3S61.9,17.6,62.1,17.9z"/>
	<path class="st4" d="M63.8,22.4l-0.4,0.9H63l0.3-0.8H63v-0.8h0.8V22.4z"/>
	<path class="st4" d="M66.6,17.9c0.2,0.2,0.3,0.5,0.3,0.9v2.6c0,0.4-0.1,0.7-0.3,0.9s-0.5,0.3-0.9,0.3c-0.4,0-0.7-0.1-0.9-0.3
		s-0.3-0.5-0.3-0.9v-2.6c0-0.4,0.1-0.7,0.3-0.9s0.5-0.3,0.9-0.3C66.1,17.5,66.4,17.7,66.6,17.9z M65.4,18.4
		c-0.1,0.1-0.1,0.2-0.1,0.4v2.5c0,0.2,0,0.3,0.1,0.4c0.1,0.1,0.2,0.1,0.3,0.1s0.3,0,0.3-0.1c0.1-0.1,0.1-0.2,0.1-0.4v-2.5
		c0-0.2,0-0.3-0.1-0.4c-0.1-0.1-0.2-0.1-0.3-0.1S65.5,18.3,65.4,18.4z"/>
</g>
<g class="st3">
	<path class="st4" d="M47.5,31.7h-0.7v-3.8h-1v-0.5c0.3,0,0.6-0.1,0.8-0.2c0.2-0.1,0.4-0.2,0.4-0.4h0.5V31.7z"/>
	<path class="st4" d="M50.4,27c0.2,0.2,0.3,0.5,0.3,0.9v2.6c0,0.4-0.1,0.7-0.3,0.9s-0.5,0.3-0.9,0.3c-0.4,0-0.7-0.1-0.9-0.3
		s-0.3-0.5-0.3-0.9v-2.6c0-0.4,0.1-0.7,0.3-0.9s0.5-0.3,0.9-0.3C49.9,26.7,50.2,26.8,50.4,27z M49.2,27.5c-0.1,0.1-0.1,0.2-0.1,0.4
		v2.5c0,0.2,0,0.3,0.1,0.4c0.1,0.1,0.2,0.1,0.3,0.1s0.3,0,0.3-0.1c0.1-0.1,0.1-0.2,0.1-0.4v-2.5c0-0.2,0-0.3-0.1-0.4
		c-0.1-0.1-0.2-0.1-0.3-0.1S49.2,27.4,49.2,27.5z"/>
	<path class="st4" d="M53.4,27c0.2,0.2,0.3,0.5,0.3,0.9v0.2l-0.7,0v-0.2c0-0.2,0-0.3-0.1-0.4c-0.1-0.1-0.2-0.1-0.3-0.1
		c-0.3,0-0.4,0.2-0.4,0.5v1h0c0.1-0.1,0.2-0.1,0.3-0.2c0.1,0,0.2-0.1,0.4-0.1c0.3,0,0.5,0.1,0.7,0.3c0.2,0.2,0.3,0.5,0.3,0.9v0.7
		c0,0.4-0.1,0.7-0.3,0.9s-0.5,0.3-0.9,0.3c-0.4,0-0.7-0.1-0.9-0.3s-0.3-0.5-0.3-0.9v-2.6c0-0.4,0.1-0.7,0.3-0.9
		c0.2-0.2,0.5-0.3,0.9-0.3S53.2,26.8,53.4,27z M52.2,29.5c-0.1,0.1-0.1,0.2-0.1,0.4v0.6c0,0.2,0,0.3,0.1,0.4
		c0.1,0.1,0.2,0.1,0.3,0.1c0.1,0,0.3,0,0.3-0.1c0.1-0.1,0.1-0.2,0.1-0.4v-0.6c0-0.2,0-0.3-0.1-0.4c-0.1-0.1-0.2-0.1-0.3-0.1
		C52.4,29.3,52.3,29.4,52.2,29.5z"/>
	<path class="st4" d="M55.2,31.7h-0.8v-0.8h0.8V31.7z"/>
	<path class="st4" d="M57,31.7h-0.7v-3.8h-1v-0.5c0.3,0,0.6-0.1,0.8-0.2c0.2-0.1,0.4-0.2,0.4-0.4H57V31.7z"/>
	<path class="st4" d="M59.3,31.7h-0.7v-3.8h-1v-0.5c0.3,0,0.6-0.1,0.8-0.2c0.2-0.1,0.4-0.2,0.4-0.4h0.5V31.7z"/>
	<path class="st4" d="M60.3,31.4c-0.2-0.2-0.3-0.5-0.3-0.9v-0.2l0.7,0v0.1c0,0.4,0.1,0.6,0.4,0.6c0.2,0,0.3,0,0.3-0.1
		c0.1-0.1,0.1-0.2,0.1-0.4v-0.8c0-0.2,0-0.3-0.1-0.4c-0.1-0.1-0.2-0.1-0.3-0.1c-0.1,0-0.2,0-0.3,0.1c-0.1,0.1-0.1,0.2-0.1,0.3l0,0.1
		l-0.7,0l0.2-2.8h2v0.7h-1.4l-0.1,1.2h0c0.1-0.1,0.3-0.2,0.6-0.2c0.3,0,0.6,0.1,0.7,0.3s0.3,0.5,0.3,0.9v0.9c0,0.4-0.1,0.7-0.3,0.9
		c-0.2,0.2-0.5,0.3-0.9,0.3C60.8,31.7,60.5,31.6,60.3,31.4z"/>
	<path class="st4" d="M63.7,31.6l-0.4,0.9h-0.4l0.3-0.8h-0.3v-0.8h0.8V31.6z"/>
	<path class="st4" d="M66.5,27c0.2,0.2,0.3,0.5,0.3,0.9v2.6c0,0.4-0.1,0.7-0.3,0.9s-0.5,0.3-0.9,0.3c-0.4,0-0.7-0.1-0.9-0.3
		s-0.3-0.5-0.3-0.9v-2.6c0-0.4,0.1-0.7,0.3-0.9s0.5-0.3,0.9-0.3C66,26.7,66.3,26.8,66.5,27z M65.3,27.5c-0.1,0.1-0.1,0.2-0.1,0.4
		v2.5c0,0.2,0,0.3,0.1,0.4c0.1,0.1,0.2,0.1,0.3,0.1s0.3,0,0.3-0.1c0.1-0.1,0.1-0.2,0.1-0.4v-2.5c0-0.2,0-0.3-0.1-0.4
		c-0.1-0.1-0.2-0.1-0.3-0.1S65.4,27.4,65.3,27.5z"/>
</g>
<g class="st3">
	<path class="st4" d="M47.5,65.9h-0.7v-3.8h-1v-0.5c0.3,0,0.6-0.1,0.8-0.2c0.2-0.1,0.4-0.2,0.4-0.4h0.5V65.9z"/>
	<path class="st4" d="M50.4,61.2c0.2,0.2,0.3,0.5,0.3,0.9v2.6c0,0.4-0.1,0.7-0.3,0.9s-0.5,0.3-0.9,0.3c-0.4,0-0.7-0.1-0.9-0.3
		s-0.3-0.5-0.3-0.9v-2.6c0-0.4,0.1-0.7,0.3-0.9s0.5-0.3,0.9-0.3C49.9,60.9,50.2,61,50.4,61.2z M49.2,61.7C49.1,61.8,49,62,49,62.1
		v2.5c0,0.2,0,0.3,0.1,0.4c0.1,0.1,0.2,0.1,0.3,0.1s0.3,0,0.3-0.1c0.1-0.1,0.1-0.2,0.1-0.4v-2.5c0-0.2,0-0.3-0.1-0.4
		c-0.1-0.1-0.2-0.1-0.3-0.1S49.2,61.6,49.2,61.7z"/>
	<path class="st4" d="M53.2,61.2c0.2,0.2,0.3,0.5,0.3,0.9v0.3c0,0.5-0.2,0.8-0.5,0.9v0c0.4,0.2,0.6,0.5,0.6,1v0.4
		c0,0.4-0.1,0.7-0.3,0.9c-0.2,0.2-0.5,0.3-0.9,0.3s-0.7-0.1-0.9-0.3c-0.2-0.2-0.3-0.5-0.3-0.9v-0.3l0.7,0v0.2c0,0.2,0,0.3,0.1,0.4
		s0.2,0.1,0.3,0.1c0.2,0,0.3,0,0.4-0.1c0.1-0.1,0.1-0.2,0.1-0.4v-0.4c0-0.2,0-0.4-0.1-0.5c-0.1-0.1-0.2-0.2-0.4-0.2H52V63h0.3
		c0.2,0,0.3,0,0.4-0.1c0.1-0.1,0.1-0.2,0.1-0.5v-0.3c0-0.2,0-0.3-0.1-0.4c-0.1-0.1-0.2-0.1-0.3-0.1c-0.1,0-0.3,0-0.3,0.1
		c-0.1,0.1-0.1,0.2-0.1,0.4v0.2l-0.7,0v-0.3c0-0.4,0.1-0.7,0.3-0.9c0.2-0.2,0.5-0.3,0.9-0.3S53,61,53.2,61.2z"/>
	<path class="st4" d="M55,65.9h-0.8v-0.8H55V65.9z"/>
	<path class="st4" d="M55.9,65.6c-0.2-0.2-0.3-0.5-0.3-0.9v-0.2l0.7,0v0.1c0,0.4,0.1,0.6,0.4,0.6c0.2,0,0.3,0,0.3-0.1
		c0.1-0.1,0.1-0.2,0.1-0.4v-0.8c0-0.2,0-0.3-0.1-0.4c-0.1-0.1-0.2-0.1-0.3-0.1c-0.1,0-0.2,0-0.3,0.1c-0.1,0.1-0.1,0.2-0.1,0.3l0,0.1
		l-0.7,0l0.2-2.8h2v0.7h-1.4l-0.1,1.2h0c0.1-0.1,0.3-0.2,0.6-0.2c0.3,0,0.6,0.1,0.7,0.3s0.3,0.5,0.3,0.9v0.9c0,0.4-0.1,0.7-0.3,0.9
		c-0.2,0.2-0.5,0.3-0.9,0.3C56.4,65.9,56.1,65.8,55.9,65.6z"/>
	<path class="st4" d="M60.6,61.2c0.2,0.2,0.3,0.5,0.3,0.9v0.2l-0.7,0v-0.2c0-0.2,0-0.3-0.1-0.4c-0.1-0.1-0.2-0.1-0.3-0.1
		c-0.3,0-0.4,0.2-0.4,0.5v1h0c0.1-0.1,0.2-0.1,0.3-0.2c0.1,0,0.2-0.1,0.4-0.1c0.3,0,0.5,0.1,0.7,0.3c0.2,0.2,0.3,0.5,0.3,0.9v0.7
		c0,0.4-0.1,0.7-0.3,0.9s-0.5,0.3-0.9,0.3c-0.4,0-0.7-0.1-0.9-0.3s-0.3-0.5-0.3-0.9v-2.6c0-0.4,0.1-0.7,0.3-0.9
		c0.2-0.2,0.5-0.3,0.9-0.3S60.3,61,60.6,61.2z M59.4,63.7c-0.1,0.1-0.1,0.2-0.1,0.4v0.6c0,0.2,0,0.3,0.1,0.4
		c0.1,0.1,0.2,0.1,0.3,0.1c0.1,0,0.3,0,0.3-0.1c0.1-0.1,0.1-0.2,0.1-0.4v-0.6c0-0.2,0-0.3-0.1-0.4c-0.1-0.1-0.2-0.1-0.3-0.1
		C59.6,63.5,59.5,63.6,59.4,63.7z"/>
	<path class="st4" d="M63.5,61.6l-1.4,4.2h-0.8l1.4-4.2h-1.5V61h2.3V61.6z"/>
	<path class="st4" d="M64.2,65.8l-0.4,0.9h-0.4l0.3-0.8h-0.3v-0.8h0.8V65.8z"/>
	<path class="st4" d="M66.8,61.2c0.2,0.2,0.3,0.5,0.3,0.9v0.3c0,0.5-0.2,0.8-0.5,0.9v0c0.4,0.2,0.6,0.5,0.6,1v0.4
		c0,0.4-0.1,0.7-0.3,0.9c-0.2,0.2-0.5,0.3-0.9,0.3s-0.7-0.1-0.9-0.3c-0.2-0.2-0.3-0.5-0.3-0.9v-0.3l0.7,0v0.2c0,0.2,0,0.3,0.1,0.4
		s0.2,0.1,0.3,0.1c0.2,0,0.3,0,0.4-0.1c0.1-0.1,0.1-0.2,0.1-0.4v-0.4c0-0.2,0-0.4-0.1-0.5c-0.1-0.1-0.2-0.2-0.4-0.2h-0.3V63h0.3
		c0.2,0,0.3,0,0.4-0.1c0.1-0.1,0.1-0.2,0.1-0.5v-0.3c0-0.2,0-0.3-0.1-0.4c-0.1-0.1-0.2-0.1-0.3-0.1c-0.1,0-0.3,0-0.3,0.1
		c-0.1,0.1-0.1,0.2-0.1,0.4v0.2l-0.7,0v-0.3c0-0.4,0.1-0.7,0.3-0.9c0.2-0.2,0.5-0.3,0.9-0.3S66.6,61,66.8,61.2z"/>
</g>
<g class="st3">
	<path class="st4" d="M47.5,13.9h-0.7v-3.8h-1V9.6c0.3,0,0.6-0.1,0.8-0.2C46.8,9.3,46.9,9.1,47,9h0.5V13.9z"/>
	<path class="st4" d="M50.1,9.2c0.2,0.2,0.3,0.5,0.3,0.8v0.2c0,0.2,0,0.5-0.1,0.7c-0.1,0.2-0.2,0.5-0.5,0.9L49,13.2h1.4v0.7h-2.3
		v-0.6l1.1-1.8c0.2-0.3,0.3-0.5,0.3-0.7c0.1-0.2,0.1-0.4,0.1-0.6v-0.1c0-0.3-0.1-0.5-0.4-0.5c-0.1,0-0.2,0-0.3,0.1
		c-0.1,0.1-0.1,0.2-0.1,0.4v0.2l-0.7,0V10c0-0.4,0.1-0.6,0.3-0.8s0.5-0.3,0.8-0.3S49.9,9,50.1,9.2z"/>
	<path class="st4" d="M52.8,9.2c0.2,0.2,0.3,0.5,0.3,0.8v0.2c0,0.2,0,0.5-0.1,0.7c-0.1,0.2-0.2,0.5-0.5,0.9l-0.8,1.3h1.4v0.7h-2.3
		v-0.6l1.1-1.8c0.2-0.3,0.3-0.5,0.3-0.7c0.1-0.2,0.1-0.4,0.1-0.6v-0.1c0-0.3-0.1-0.5-0.4-0.5c-0.1,0-0.2,0-0.3,0.1
		c-0.1,0.1-0.1,0.2-0.1,0.4v0.2l-0.7,0V10c0-0.4,0.1-0.6,0.3-0.8s0.5-0.3,0.8-0.3S52.6,9,52.8,9.2z"/>
	<path class="st4" d="M54.5,13.9h-0.8v-0.8h0.8V13.9z"/>
	<path class="st4" d="M57.3,9.2c0.2,0.2,0.3,0.5,0.3,0.9v2.6c0,0.4-0.1,0.7-0.3,0.9s-0.5,0.3-0.9,0.3c-0.4,0-0.7-0.1-0.9-0.3
		s-0.3-0.5-0.3-0.9v-2.6c0-0.4,0.1-0.7,0.3-0.9s0.5-0.3,0.9-0.3C56.8,8.9,57.1,9,57.3,9.2z M56.1,9.7C56,9.8,56,10,56,10.1v2.5
		c0,0.2,0,0.3,0.1,0.4c0.1,0.1,0.2,0.1,0.3,0.1s0.3,0,0.3-0.1c0.1-0.1,0.1-0.2,0.1-0.4v-2.5c0-0.2,0-0.3-0.1-0.4
		c-0.1-0.1-0.2-0.1-0.3-0.1S56.1,9.6,56.1,9.7z"/>
	<path class="st4" d="M60.3,9.2c0.2,0.2,0.3,0.5,0.3,0.9v2.6c0,0.4-0.1,0.7-0.3,0.9s-0.5,0.3-0.9,0.3c-0.4,0-0.7-0.1-0.9-0.3
		s-0.3-0.5-0.3-0.9v-2.6c0-0.4,0.1-0.7,0.3-0.9s0.5-0.3,0.9-0.3C59.8,8.9,60.1,9,60.3,9.2z M59.1,9.7C59,9.8,59,10,59,10.1v2.5
		c0,0.2,0,0.3,0.1,0.4c0.1,0.1,0.2,0.1,0.3,0.1s0.3,0,0.3-0.1c0.1-0.1,0.1-0.2,0.1-0.4v-2.5c0-0.2,0-0.3-0.1-0.4
		c-0.1-0.1-0.2-0.1-0.3-0.1S59.2,9.6,59.1,9.7z"/>
	<path class="st4" d="M63.4,12.1h0.3v0.7h-0.3v1h-0.7v-1h-1.6v-0.6L62.6,9h0.7V12.1z M62.6,10.4l-0.8,1.8h0.8L62.6,10.4L62.6,10.4z"
		/>
	<path class="st4" d="M65,13.8l-0.4,0.9h-0.4l0.3-0.8h-0.3v-0.8H65V13.8z"/>
	<path class="st4" d="M67.8,9.2c0.2,0.2,0.3,0.5,0.3,0.9v0.2l-0.7,0v-0.2c0-0.2,0-0.3-0.1-0.4c-0.1-0.1-0.2-0.1-0.3-0.1
		c-0.3,0-0.4,0.2-0.4,0.5v1h0c0.1-0.1,0.2-0.1,0.3-0.2c0.1,0,0.2-0.1,0.4-0.1c0.3,0,0.5,0.1,0.7,0.3c0.2,0.2,0.3,0.5,0.3,0.9v0.7
		c0,0.4-0.1,0.7-0.3,0.9s-0.5,0.3-0.9,0.3c-0.4,0-0.7-0.1-0.9-0.3s-0.3-0.5-0.3-0.9v-2.6c0-0.4,0.1-0.7,0.3-0.9
		c0.2-0.2,0.5-0.3,0.9-0.3S67.6,9,67.8,9.2z M66.6,11.7c-0.1,0.1-0.1,0.2-0.1,0.4v0.6c0,0.2,0,0.3,0.1,0.4c0.1,0.1,0.2,0.1,0.3,0.1
		c0.1,0,0.3,0,0.3-0.1c0.1-0.1,0.1-0.2,0.1-0.4v-0.6c0-0.2,0-0.3-0.1-0.4c-0.1-0.1-0.2-0.1-0.3-0.1C66.8,11.5,66.7,11.6,66.6,11.7z"
		/>
</g>
<g>
	<path class="st0" d="M13.4,53c0.2,0.2,0.3,0.5,0.3,0.9v0.2c0,0.3-0.1,0.6-0.2,0.8c-0.1,0.3-0.3,0.6-0.5,1.1l-0.9,1.5h1.6v0.8h-2.6
		v-0.7l1.3-2c0.2-0.3,0.3-0.6,0.4-0.8c0.1-0.2,0.1-0.5,0.1-0.7V54c0-0.4-0.2-0.6-0.5-0.6c-0.2,0-0.3,0.1-0.4,0.2
		c-0.1,0.1-0.1,0.3-0.1,0.5v0.3l-0.8,0V54c0-0.4,0.1-0.7,0.3-1s0.5-0.3,1-0.3S13.2,52.8,13.4,53z"/>
	<path class="st0" d="M16.7,53.1c0.2,0.3,0.4,0.6,0.4,1V57c0,0.4-0.1,0.8-0.4,1c-0.2,0.3-0.6,0.4-1,0.4s-0.8-0.1-1-0.4
		s-0.4-0.6-0.4-1v-2.9c0-0.4,0.1-0.8,0.4-1s0.6-0.4,1-0.4S16.5,52.8,16.7,53.1z M15.3,53.6c-0.1,0.1-0.1,0.3-0.1,0.5V57
		c0,0.2,0,0.4,0.1,0.5c0.1,0.1,0.2,0.2,0.4,0.2c0.2,0,0.3-0.1,0.4-0.2c0.1-0.1,0.1-0.3,0.1-0.5v-2.9c0-0.2,0-0.4-0.1-0.5
		s-0.2-0.2-0.4-0.2C15.5,53.5,15.4,53.5,15.3,53.6z"/>
	<path class="st0" d="M19.6,58.4h-0.8v-4.3h-1.2v-0.6c0.4,0,0.7-0.1,0.9-0.2c0.3-0.1,0.4-0.3,0.5-0.5h0.6V58.4z"/>
	<path class="st0" d="M22.3,58.4h-0.8v-4.3h-1.2v-0.6c0.4,0,0.7-0.1,0.9-0.2c0.3-0.1,0.4-0.3,0.5-0.5h0.6V58.4z"/>
</g>
<g class="st3">
	<path class="st0" d="M-40.6,32h-0.7v-3.7h-1v-0.5c0.3,0,0.6-0.1,0.8-0.2c0.2-0.1,0.4-0.2,0.4-0.4h0.5V32z"/>
	<path class="st0" d="M-38.1,27.4c0.2,0.2,0.3,0.5,0.3,0.8v0.2c0,0.2,0,0.5-0.1,0.7c-0.1,0.2-0.2,0.5-0.5,0.9l-0.8,1.3h1.4V32H-40
		v-0.6l1.1-1.7c0.2-0.3,0.3-0.5,0.3-0.7c0.1-0.2,0.1-0.4,0.1-0.6v-0.1c0-0.3-0.1-0.5-0.4-0.5c-0.1,0-0.2,0-0.3,0.1
		c-0.1,0.1-0.1,0.2-0.1,0.4v0.2l-0.7,0v-0.3c0-0.4,0.1-0.6,0.3-0.8c0.2-0.2,0.5-0.3,0.8-0.3C-38.5,27.1-38.3,27.2-38.1,27.4z"/>
	<path class="st0" d="M-35.2,27.4c0.2,0.2,0.3,0.5,0.3,0.9v2.5c0,0.4-0.1,0.7-0.3,0.9c-0.2,0.2-0.5,0.3-0.9,0.3
		c-0.4,0-0.7-0.1-0.9-0.3c-0.2-0.2-0.3-0.5-0.3-0.9v-2.5c0-0.4,0.1-0.7,0.3-0.9c0.2-0.2,0.5-0.3,0.9-0.3
		C-35.7,27.1-35.4,27.2-35.2,27.4z M-36.4,27.9c-0.1,0.1-0.1,0.2-0.1,0.4v2.5c0,0.2,0,0.3,0.1,0.4c0.1,0.1,0.2,0.1,0.3,0.1
		s0.3,0,0.3-0.1c0.1-0.1,0.1-0.2,0.1-0.4v-2.5c0-0.2,0-0.3-0.1-0.4c-0.1-0.1-0.2-0.1-0.3-0.1S-36.3,27.8-36.4,27.9z"/>
	<path class="st0" d="M-32.2,27.4c0.2,0.2,0.3,0.5,0.3,0.9v2.5c0,0.4-0.1,0.7-0.3,0.9c-0.2,0.2-0.5,0.3-0.9,0.3
		c-0.4,0-0.7-0.1-0.9-0.3c-0.2-0.2-0.3-0.5-0.3-0.9v-2.5c0-0.4,0.1-0.7,0.3-0.9c0.2-0.2,0.5-0.3,0.9-0.3
		C-32.7,27.1-32.4,27.2-32.2,27.4z M-33.4,27.9c-0.1,0.1-0.1,0.2-0.1,0.4v2.5c0,0.2,0,0.3,0.1,0.4c0.1,0.1,0.2,0.1,0.3,0.1
		s0.3,0,0.3-0.1c0.1-0.1,0.1-0.2,0.1-0.4v-2.5c0-0.2,0-0.3-0.1-0.4c-0.1-0.1-0.2-0.1-0.3-0.1S-33.3,27.8-33.4,27.9z"/>
	<path class="st0" d="M-29.2,27.4c0.2,0.2,0.3,0.5,0.3,0.9v2.5c0,0.4-0.1,0.7-0.3,0.9s-0.5,0.3-0.9,0.3c-0.4,0-0.7-0.1-0.9-0.3
		c-0.2-0.2-0.3-0.5-0.3-0.9v-2.5c0-0.4,0.1-0.7,0.3-0.9c0.2-0.2,0.5-0.3,0.9-0.3C-29.7,27.1-29.5,27.2-29.2,27.4z M-30.4,27.9
		c-0.1,0.1-0.1,0.2-0.1,0.4v2.5c0,0.2,0,0.3,0.1,0.4c0.1,0.1,0.2,0.1,0.3,0.1c0.1,0,0.3,0,0.3-0.1c0.1-0.1,0.1-0.2,0.1-0.4v-2.5
		c0-0.2,0-0.3-0.1-0.4c-0.1-0.1-0.2-0.1-0.3-0.1C-30.3,27.8-30.4,27.8-30.4,27.9z"/>
	<path class="st0" d="M-26.3,27.4c0.2,0.2,0.3,0.5,0.3,0.9v2.5c0,0.4-0.1,0.7-0.3,0.9s-0.5,0.3-0.9,0.3c-0.4,0-0.7-0.1-0.9-0.3
		c-0.2-0.2-0.3-0.5-0.3-0.9v-2.5c0-0.4,0.1-0.7,0.3-0.9c0.2-0.2,0.5-0.3,0.9-0.3C-26.8,27.1-26.5,27.2-26.3,27.4z M-27.5,27.9
		c-0.1,0.1-0.1,0.2-0.1,0.4v2.5c0,0.2,0,0.3,0.1,0.4c0.1,0.1,0.2,0.1,0.3,0.1c0.1,0,0.3,0,0.3-0.1c0.1-0.1,0.1-0.2,0.1-0.4v-2.5
		c0-0.2,0-0.3-0.1-0.4c-0.1-0.1-0.2-0.1-0.3-0.1C-27.3,27.8-27.4,27.8-27.5,27.9z"/>
</g>
</svg>
