<?xml version="1.0" encoding="utf-8"?>
<!-- Generator: Adobe Illustrator 27.5.0, SVG Export Plug-In . SVG Version: 6.00 Build 0)  -->
<svg version="1.1" id="Capa_1" xmlns="http://www.w3.org/2000/svg" xmlns:xlink="http://www.w3.org/1999/xlink" x="0px" y="0px"
	 viewBox="0 0 300 150" style="enable-background:new 0 0 300 150;" xml:space="preserve">
<style type="text/css">
	.st0{fill:#FFFFFF;}
	.st1{opacity:0.18;fill:#95C11F;enable-background:new    ;}
	.st2{fill:#FFFFFF;stroke:#000000;stroke-width:0.5;stroke-miterlimit:10;}
	.st3{fill:none;stroke:#FFFFFF;stroke-width:0.25;stroke-miterlimit:10;}
	.st4{fill:none;stroke:#000000;stroke-width:0.5;stroke-miterlimit:10;}
	.st5{fill:none;stroke:#000000;stroke-miterlimit:10;}
	.st6{fill:#FFFFFF;stroke:#000000;stroke-miterlimit:10;}
	.st7{stroke:#000000;stroke-miterlimit:10;}
	.st8{fill:none;stroke:#000000;stroke-width:2;stroke-miterlimit:10;}
	.st9{fill:none;stroke:#000000;stroke-width:1.5;stroke-miterlimit:10;}
	.st10{fill:none;stroke:#000000;stroke-width:0.75;stroke-miterlimit:10;}
	.st11{stroke:#000000;stroke-width:0.75;stroke-miterlimit:10;}
	.st12{fill:#FFFFFF;stroke:#000000;stroke-width:0.75;stroke-miterlimit:10;}
	.st13{fill:none;stroke:#FFED00;stroke-miterlimit:10;}
	.st14{fill:#FFED00;}
	.st15{fill:none;stroke:#008D36;stroke-width:0.6;stroke-miterlimit:10;}
	.st16{fill:#008D36;stroke:#008D36;stroke-width:0.25;stroke-miterlimit:10;}
	.st17{fill:none;stroke:#008D36;stroke-width:0.5;stroke-miterlimit:10;}
	.st18{fill:#95C11F;}
	.st19{fill:none;}
	.st20{enable-background:new    ;}
	.st21{fill:#006633;}
</style>
<rect x="250" y="97.9" class="st0" width="10.3" height="21.6"/>
<rect x="5.8" y="6.1" class="st1" width="288.5" height="137.9"/>
<g>
	<g>
		<path d="M40,35.7c-0.2,0-0.3,0-0.5,0c-0.1,0-0.2,0-0.3,0s-0.2,0-0.2-0.2c0-0.1,0-0.3,0-0.4c0.4-0.7,0.7-1.5,1.1-2.2
			c0.3-0.6,0.6-1.2,0.9-1.9c0,0,0-0.1,0.1-0.1c-0.1,0-0.3,0-0.4,0c-0.1,0-0.2,0-0.3-0.2s0-0.3,0.1-0.4c0.7-1.1,1.3-2.2,2-3.2
			c0.1-0.2,0.3-0.2,0.4,0c0.7,1.1,1.3,2.2,2,3.3c0.1,0.1,0.1,0.3,0.1,0.4S44.9,31,44.8,31c-0.1,0-0.3,0-0.4,0c0,0.1,0.1,0.2,0.1,0.2
			c0.6,1.3,1.3,2.6,1.9,3.9c0.1,0.1,0.1,0.3,0,0.4c0,0.1-0.1,0.2-0.2,0.2c-0.3,0-0.5,0-0.8,0c0,0.1,0.1,0.1,0.1,0.2
			c0.8,1.3,1.5,2.6,2.3,3.9v0.1c0.1,0.1,0.1,0.2,0,0.4c0,0.1-0.1,0.2-0.2,0.2c-0.4,0-0.7,0-1.1,0c-0.1,0-0.2,0-0.3,0
			c0.1,0.1,0.1,0.2,0.2,0.3c0.3,0.6,0.6,1.3,1,1.9c0.4,0.8,0.9,1.7,1.3,2.5c0,0,0,0.1,0.1,0.1c0.1,0.2,0,0.5-0.2,0.5
			c-0.4,0.1-0.9,0.1-1.3,0.2c-0.8,0.1-1.6,0.2-2.3,0.3s-1.3,0.2-2,0.2c-0.3,0-0.6,0-0.8-0.1c-0.6-0.1-1.1-0.1-1.7-0.2
			c-0.8-0.1-1.6-0.2-2.3-0.3c-0.3,0-0.6-0.1-0.9-0.1c-0.1,0-0.2-0.1-0.2-0.2c0-0.1,0-0.3,0-0.4c0.5-1,1.1-2.1,1.6-3.1
			c0.3-0.5,0.5-1,0.8-1.5c0,0,0-0.1,0.1-0.2c-0.1,0-0.1,0-0.2,0c-0.4,0-0.8,0-1.1,0c-0.1,0-0.2,0-0.2-0.2s0-0.3,0.1-0.4
			c0.8-1.3,1.5-2.7,2.3-4C39.9,35.9,39.9,35.8,40,35.7z"/>
		<path d="M44.5,51v-4.3c-1.4,0.4-2.5,0.5-3.9,0v4.2C41.4,51,43.5,51,44.5,51z"/>
	</g>
	<g>
		<path d="M31,29.4c-0.1,0-0.3,0-0.4,0s-0.2,0-0.3,0c-0.1,0-0.1,0-0.2-0.1c0-0.1,0-0.2,0-0.3c0.3-0.6,0.5-1.2,0.8-1.8
			c0.2-0.5,0.5-1,0.7-1.5v-0.1c-0.1,0-0.2,0-0.3,0c-0.1,0-0.2,0-0.2-0.2c0-0.1,0-0.3,0.1-0.4c0.5-0.9,1-1.8,1.5-2.7
			c0.1-0.2,0.2-0.2,0.3,0c0.5,0.9,1,1.8,1.6,2.7c0.1,0.1,0.1,0.2,0,0.3c0,0.1-0.1,0.2-0.2,0.2c-0.1,0-0.2,0-0.3,0
			c0,0.1,0,0.1,0.1,0.2c0.5,1.1,1,2.2,1.5,3.3c0,0.1,0.1,0.2,0,0.3c0,0.1-0.1,0.2-0.2,0.2c-0.2,0-0.4,0-0.6,0c0,0.1,0,0.1,0.1,0.1
			c0.6,1.1,1.2,2.2,1.8,3.3c0,0,0,0,0,0.1s0.1,0.2,0,0.3c0,0.1-0.1,0.2-0.2,0.2c-0.3,0-0.6,0-0.8,0c-0.1,0-0.1,0-0.2,0
			c0,0.1,0.1,0.2,0.1,0.3c0.3,0.5,0.5,1.1,0.8,1.6c0.3,0.7,0.7,1.4,1,2.1v0.1c0.1,0.2,0,0.4-0.1,0.4c-0.3,0-0.7,0.1-1,0.1
			c-0.6,0.1-1.2,0.2-1.8,0.2c-0.5,0.1-1,0.1-1.5,0.2c-0.2,0-0.4,0-0.7-0.1c-0.4-0.1-0.9-0.1-1.3-0.2c-0.6-0.1-1.2-0.2-1.8-0.2
			c-0.2,0-0.5-0.1-0.7-0.1c-0.1,0-0.1-0.1-0.2-0.2c0-0.1,0-0.2,0-0.3c0.4-0.9,0.8-1.7,1.2-2.6c0.2-0.4,0.4-0.9,0.6-1.3
			c0,0,0-0.1,0.1-0.1c-0.1,0-0.1,0-0.1,0c-0.3,0-0.6,0-0.9,0c-0.1,0-0.2,0-0.2-0.2c0-0.1,0-0.2,0-0.3c0.6-1.1,1.2-2.2,1.8-3.3
			C30.9,29.5,30.9,29.4,31,29.4z"/>
		<path d="M34.4,42v-3.6c-1.1,0.4-1.9,0.4-3,0V42C32.1,42,33.7,42,34.4,42z"/>
	</g>
	<g>
		<path d="M50.1,29.4c-0.1,0-0.3,0-0.4,0c-0.1,0-0.2,0-0.3,0s-0.1,0-0.2-0.1c0-0.1,0-0.2,0-0.3c0.3-0.6,0.5-1.2,0.8-1.8
			c0.2-0.5,0.5-1,0.7-1.5v-0.1c-0.1,0-0.2,0-0.3,0s-0.2,0-0.2-0.2c0-0.1,0-0.3,0.1-0.4c0.5-0.9,1-1.8,1.5-2.7c0.1-0.2,0.2-0.2,0.3,0
			c0.5,0.9,1,1.8,1.6,2.7c0.1,0.1,0.1,0.2,0,0.3c0,0.1-0.1,0.2-0.2,0.2c-0.1,0-0.2,0-0.3,0c0,0.1,0,0.1,0.1,0.2
			c0.5,1.1,1,2.2,1.5,3.3c0,0.1,0.1,0.2,0,0.3c0,0.1-0.1,0.2-0.2,0.2c-0.2,0-0.4,0-0.6,0c0,0.1,0,0.1,0.1,0.1
			c0.6,1.1,1.2,2.2,1.8,3.3c0,0,0,0,0,0.1s0.1,0.2,0,0.3c0,0.1-0.1,0.2-0.2,0.2c-0.3,0-0.6,0-0.8,0c-0.1,0-0.1,0-0.2,0
			c0,0.1,0.1,0.2,0.1,0.3c0.3,0.5,0.5,1.1,0.8,1.6c0.3,0.7,0.7,1.4,1,2.1v0.1c0.1,0.2,0,0.4-0.1,0.4c-0.3,0-0.7,0.1-1,0.1
			c-0.6,0.1-1.2,0.2-1.8,0.2c-0.5,0.1-1,0.1-1.5,0.2c-0.2,0-0.4,0-0.7-0.1c-0.4-0.1-0.9-0.1-1.3-0.2C49.6,38,49,38,48.4,37.9
			c-0.2,0-0.5-0.1-0.7-0.1c-0.1,0-0.1-0.1-0.2-0.2c0-0.1,0-0.2,0-0.3c0.4-0.9,0.8-1.7,1.2-2.6c0.2-0.4,0.4-0.9,0.6-1.3
			c0,0,0-0.1,0.1-0.1c-0.1,0-0.1,0-0.1,0c-0.3,0-0.6,0-0.9,0c-0.1,0-0.2,0-0.2-0.2c0-0.1,0-0.2,0-0.3c0.6-1.1,1.2-2.2,1.8-3.3
			C50.1,29.5,50.1,29.4,50.1,29.4z"/>
		<path d="M53.6,42v-3.6c-1.1,0.4-1.9,0.4-3,0V42C51.3,42,52.9,42,53.6,42z"/>
	</g>
</g>
<g>
	<g>
		<path class="st2" d="M109.1,46H96c-1.6,0-2.9-1.3-2.9-2.9v-1.8c0-1.6,1.3-2.9,2.9-2.9h13.1c1.6,0,2.9,1.3,2.9,2.9v1.8
			C112.1,44.7,110.7,46,109.1,46z"/>
		<g>
			<ellipse class="st0" cx="113.6" cy="42" rx="2.3" ry="3.3"/>
			<g>
				<g>
					<g id="XMLID_2_">
						<g>
							<path class="st0" d="M109.8,41.8C109.8,41.8,109.8,41.7,109.8,41.8c0.1-1.9,0.8-3.7,2.2-4.5c0.1-0.1,0.3-0.2,0.5-0.2
								c0.1-0.1,0.3-0.1,0.5-0.1c0.2-0.1,0.5-0.1,0.8-0.1l0,0c2.4,0.1,3.6,2.8,3.6,5.2c-0.1,2.5-1.4,5.1-3.8,5.1l0,0
								c-0.4,0-0.8-0.1-1.2-0.3c-0.2-0.1-0.3-0.2-0.5-0.3c-0.5-0.3-0.9-0.8-1.2-1.4c0-0.1-0.1-0.2-0.1-0.3c-0.1-0.1-0.1-0.2-0.1-0.3
								c-0.2-0.4-0.3-0.8-0.4-1.2c0-0.1,0-0.2,0-0.3c0-0.3-0.1-0.6-0.1-1l0,0V42C109.8,42,109.8,41.9,109.8,41.8
								C109.8,41.9,109.8,41.8,109.8,41.8z M116.5,42c0-2.4-1.3-4.3-2.9-4.3c-1.7,0-3.1,1.8-3.1,4.2s1.3,4.3,2.9,4.3
								C115.1,46.2,116.5,44.4,116.5,42z"/>
							<path class="st0" d="M113.6,37.7c1.7,0,3,2,2.9,4.3c-0.1,2.4-1.4,4.2-3.1,4.2s-3-2-2.9-4.3C110.5,39.5,111.9,37.7,113.6,37.7
								z M115.6,42c0-1.6-0.9-3-2-3c-1.2,0-2.1,1.3-2.2,2.9c0,1.6,0.9,3,2,3S115.6,43.6,115.6,42z"/>
							<path d="M113.4,47.2l-19.5-0.4c-2.4,0-3.7-2.7-3.6-5.2s1.4-5.1,3.8-5.1l18.8,0.4c-0.2,0-0.3,0.1-0.5,0.1
								c-0.2,0.1-0.3,0.1-0.5,0.2c-1.3,0.8-2.1,2.7-2.2,4.5v0.1l-14-0.3c-0.2,0-0.3,0.1-0.3,0.2c0,0.1,0.1,0.2,0.3,0.2l14,0.3
								c0,0.3,0,0.7,0.1,1c0,0.1,0,0.2,0,0.3c0.1,0.5,0.2,0.9,0.4,1.3L95,44.4c-0.2,0-0.3,0.1-0.3,0.2c0,0.1,0.1,0.2,0.3,0.2
								l15.4,0.3c0,0.1,0.1,0.1,0.1,0.2c0.3,0.6,0.7,1.1,1.3,1.5c0.1,0.1,0.3,0.2,0.5,0.3C112.6,47.1,112.9,47.2,113.4,47.2z
								 M108.3,39.4L108.3,39.4c0-0.1-0.1-0.2-0.3-0.2l-14.6-0.3c-0.1,0.1-0.1,0.2-0.2,0.3h0.1c0,0.1,0,0.1-0.1,0.2l14.8,0.3
								C108.2,39.7,108.3,39.6,108.3,39.4C108.3,39.5,108.3,39.5,108.3,39.4z"/>
							<path class="st0" d="M109.8,42.1c0,0.3,0,0.7,0.1,1C109.8,42.8,109.8,42.5,109.8,42.1L109.8,42.1z"/>
							<path class="st0" d="M108.3,39.3c0.2,0,0.3,0.1,0.3,0.3c0,0.1-0.2,0.2-0.3,0.2l-15.1-0.5c0-0.2,0.1-0.4,0.1-0.5L108.3,39.3z"
								/>
						</g>
						<path class="st3" d="M109.8,43.1c0-0.3-0.1-0.6-0.1-1l0,0l-14-0.3c-0.2,0-0.3-0.1-0.3-0.2c0-0.1,0.2-0.2,0.3-0.2l14,0.3l0,0
							c0.1-1.8,0.8-3.6,2.2-4.5c0.1-0.1,0.3-0.2,0.5-0.2c0.2-0.1,0.4-0.1,0.7-0.2"/>
						<path class="st3" d="M113.4,47.2L113.4,47.2c-0.5,0-0.9-0.1-1.2-0.3c-0.2-0.1-0.3-0.2-0.5-0.3c-0.5-0.4-1-0.9-1.3-1.5
							c0-0.1-0.1-0.1-0.1-0.2L95,44.7c-0.2,0-0.3-0.1-0.3-0.2c0-0.1,0.1-0.2,0.3-0.2l15.2,0.3c-0.2-0.4-0.3-0.9-0.4-1.3"/>
						<path class="st3" d="M113.1,36.9h-0.3L94,36.5c-2.4-0.1-3.8,2.6-3.8,5.1c-0.1,2.5,1.2,5.2,3.6,5.2l19.5,0.4"/>
						<path class="st4" d="M112.9,36.9c0.2-0.1,0.5-0.1,0.8-0.1l0,0c2.4,0.1,3.6,2.8,3.6,5.2c-0.1,2.5-1.4,5.1-3.8,5.1l0,0
							c-0.4,0-0.8-0.1-1.2-0.3c-0.2-0.1-0.3-0.2-0.5-0.3c-0.5-0.3-0.9-0.8-1.2-1.4c0-0.1-0.1-0.2-0.1-0.3c-0.1-0.1-0.1-0.2-0.1-0.3
							c-0.2-0.4-0.3-0.8-0.4-1.2c0-0.1,0-0.2,0-0.3c-0.1-0.3-0.1-0.6-0.1-1v-0.1c0-0.1,0-0.1,0-0.2v-0.1v-0.1
							c0.1-1.8,0.8-3.6,2.2-4.5c0.1-0.1,0.3-0.2,0.5-0.2C112.5,37,112.7,36.9,112.9,36.9z"/>
						<path class="st4" d="M116.2,42c0,2-1.2,3.6-2.6,3.6s-2.5-1.7-2.5-3.7s1.2-3.6,2.6-3.6C115.1,38.4,116.2,40,116.2,42z"/>
						<path class="st4" d="M114.6,42c0,0.8-0.5,1.5-1.1,1.4c-0.6,0-1-0.7-1-1.5s0.5-1.5,1.1-1.5C114.1,40.5,114.6,41.2,114.6,42z"/>
					</g>
				</g>
			</g>
		</g>
	</g>
	<g>
		<path class="st2" d="M105.2,36.7H92.1c-1.6,0-2.9-1.3-2.9-2.9V32c0-1.6,1.3-2.9,2.9-2.9h13.1c1.6,0,2.9,1.3,2.9,2.9v1.8
			C108.1,35.4,106.8,36.7,105.2,36.7z"/>
		<g>
			<ellipse class="st0" cx="109.6" cy="32.7" rx="2.3" ry="3.3"/>
			<g>
				<g>
					<g id="XMLID_3_">
						<g>
							<path class="st0" d="M105.8,32.5C105.8,32.5,105.8,32.4,105.8,32.5c0.1-1.9,0.8-3.7,2.2-4.5c0.1-0.1,0.3-0.2,0.5-0.2
								c0.1-0.1,0.3-0.1,0.5-0.1c0.2-0.1,0.5-0.1,0.8-0.1l0,0c2.4,0.1,3.6,2.8,3.6,5.2c-0.1,2.5-1.4,5.1-3.8,5.1l0,0
								c-0.4,0-0.8-0.1-1.2-0.3c-0.2-0.1-0.3-0.2-0.5-0.3c-0.5-0.3-0.9-0.8-1.2-1.4c0-0.1-0.1-0.2-0.1-0.3c-0.1-0.1-0.1-0.2-0.1-0.3
								c-0.2-0.4-0.3-0.8-0.4-1.2c0-0.1,0-0.2,0-0.3c0-0.3-0.1-0.6-0.1-1l0,0v-0.1C105.8,32.7,105.8,32.6,105.8,32.5L105.8,32.5z
								 M112.6,32.7c0-2.4-1.3-4.3-2.9-4.3c-1.7,0-3.1,1.8-3.1,4.2s1.3,4.3,2.9,4.3S112.5,35.1,112.6,32.7z"/>
							<path class="st0" d="M109.6,28.4c1.7,0,3,2,2.9,4.3c-0.1,2.4-1.4,4.2-3.1,4.2s-3-2-2.9-4.3C106.6,30.2,108,28.4,109.6,28.4z
								 M111.7,32.7c0-1.6-0.9-3-2-3c-1.2,0-2.1,1.3-2.2,2.9c0,1.6,0.9,3,2,3S111.6,34.3,111.7,32.7z"/>
							<path d="M109.4,37.9l-19.5-0.4c-2.4,0-3.7-2.7-3.6-5.2s1.4-5.1,3.8-5.1l18.8,0.4c-0.2,0-0.3,0.1-0.5,0.1
								c-0.2,0.1-0.3,0.1-0.5,0.2c-1.3,0.8-2.1,2.7-2.2,4.5v0.1l-14-0.3c-0.2,0-0.3,0.1-0.3,0.2c0,0.1,0.1,0.2,0.3,0.2l14,0.3
								c0,0.3,0,0.7,0.1,1c0,0.1,0,0.2,0,0.3c0.1,0.5,0.2,0.9,0.4,1.3L91,35.2c-0.2,0-0.3,0.1-0.3,0.2c0,0.1,0.1,0.2,0.3,0.2
								l15.4,0.3c0,0.1,0.1,0.1,0.1,0.2c0.3,0.6,0.7,1.1,1.3,1.5c0.1,0.1,0.3,0.2,0.5,0.3C108.6,37.8,109,37.9,109.4,37.9z
								 M104.4,30.1L104.4,30.1c0-0.1-0.1-0.2-0.3-0.2l-14.6-0.3c-0.1,0.1-0.1,0.2-0.2,0.3h0.1c0,0.1,0,0.1-0.1,0.2l14.8,0.3
								C104.2,30.4,104.4,30.3,104.4,30.1C104.4,30.2,104.4,30.2,104.4,30.1z"/>
							<path class="st0" d="M105.8,32.8c0,0.3,0,0.7,0.1,1C105.8,33.5,105.8,33.2,105.8,32.8L105.8,32.8z"/>
							<path class="st0" d="M104.3,30c0.2,0,0.3,0.1,0.3,0.3c0,0.1-0.2,0.2-0.3,0.2L89.2,30c0-0.2,0.1-0.4,0.1-0.5L104.3,30z"/>
						</g>
						<path class="st3" d="M105.9,33.8c0-0.3-0.1-0.6-0.1-1l0,0l-14-0.3c-0.2,0-0.3-0.1-0.3-0.2c0-0.1,0.2-0.2,0.3-0.2l14,0.3l0,0
							c0.1-1.8,0.8-3.6,2.2-4.5c0.1-0.1,0.3-0.2,0.5-0.2c0.2-0.1,0.4-0.1,0.7-0.2"/>
						<path class="st3" d="M109.5,37.9L109.5,37.9c-0.5,0-0.9-0.1-1.2-0.3c-0.2-0.1-0.3-0.2-0.5-0.3c-0.5-0.4-1-0.9-1.3-1.5
							c0-0.1-0.1-0.1-0.1-0.2L91,35.3c-0.2,0-0.3-0.1-0.3-0.2c0-0.1,0.1-0.2,0.3-0.2l15.2,0.3c-0.2-0.4-0.3-0.9-0.4-1.3"/>
						<path class="st3" d="M109.4,37.9"/>
						<path class="st3" d="M109.2,27.6h-0.3l-18.8-0.4c-2.4-0.1-3.8,2.6-3.8,5.1c-0.1,2.5,1.2,5.2,3.6,5.2"/>
						<path class="st4" d="M108.9,27.6c0.2-0.1,0.5-0.1,0.8-0.1l0,0c2.4,0.1,3.6,2.8,3.6,5.2c-0.1,2.5-1.4,5.1-3.8,5.1l0,0
							c-0.4,0-0.8-0.1-1.2-0.3c-0.2-0.1-0.3-0.2-0.5-0.3c-0.5-0.3-0.9-0.8-1.2-1.4c0-0.1-0.1-0.2-0.1-0.3c-0.1-0.1-0.1-0.2-0.1-0.3
							c-0.2-0.4-0.3-0.8-0.4-1.2c0-0.1,0-0.2,0-0.3c-0.1-0.3-0.1-0.6-0.1-1v-0.1c0-0.1,0-0.1,0-0.2v-0.1v-0.1
							c0.1-1.8,0.8-3.6,2.2-4.5c0.1-0.1,0.3-0.2,0.5-0.2C108.6,27.7,108.7,27.6,108.9,27.6z"/>
						<path class="st4" d="M112.2,32.7c0,2-1.2,3.6-2.6,3.6s-2.5-1.7-2.5-3.7s1.2-3.6,2.6-3.6C111.2,29.1,112.3,30.7,112.2,32.7z"/>
						<path class="st4" d="M110.6,32.7c0,0.8-0.5,1.5-1.1,1.4c-0.6,0-1-0.7-1-1.5s0.5-1.5,1.1-1.5C110.2,31.2,110.6,31.9,110.6,32.7
							z"/>
					</g>
				</g>
			</g>
		</g>
	</g>
	<g>
		<path class="st2" d="M100.5,46H87.4c-1.6,0-2.9-1.3-2.9-2.9v-1.8c0-1.6,1.3-2.9,2.9-2.9h13.1c1.6,0,2.9,1.3,2.9,2.9v1.8
			C103.4,44.7,102.1,46,100.5,46z"/>
		<g>
			<ellipse class="st0" cx="104.9" cy="42" rx="2.3" ry="3.3"/>
			<g>
				<g>
					<g id="XMLID_1_">
						<g>
							<path class="st0" d="M101.1,41.8C101.1,41.8,101.1,41.7,101.1,41.8c0.1-1.9,0.8-3.7,2.2-4.5c0.1-0.1,0.3-0.2,0.5-0.2
								c0.1-0.1,0.3-0.1,0.5-0.1c0.2-0.1,0.5-0.1,0.8-0.1l0,0c2.4,0.1,3.6,2.8,3.6,5.2c-0.1,2.5-1.4,5.1-3.8,5.1l0,0
								c-0.4,0-0.8-0.1-1.2-0.3c-0.2-0.1-0.3-0.2-0.5-0.3c-0.5-0.3-0.9-0.8-1.2-1.4c0-0.1-0.1-0.2-0.1-0.3c-0.1-0.1-0.1-0.2-0.1-0.3
								c-0.2-0.4-0.3-0.8-0.4-1.2c0-0.1,0-0.2,0-0.3c0-0.3-0.1-0.6-0.1-1l0,0V42C101.1,42,101.1,41.9,101.1,41.8
								C101.1,41.9,101.1,41.8,101.1,41.8z M107.9,42c0-2.4-1.3-4.3-2.9-4.3c-1.7,0-3.1,1.8-3.1,4.2s1.3,4.3,2.9,4.3
								S107.8,44.4,107.9,42z"/>
							<path class="st0" d="M104.9,37.7c1.7,0,3,2,2.9,4.3c-0.1,2.4-1.4,4.2-3.1,4.2s-3-2-2.9-4.3C101.9,39.5,103.3,37.7,104.9,37.7
								z M107,42c0-1.6-0.9-3-2-3c-1.2,0-2.1,1.3-2.2,2.9c0,1.6,0.9,3,2,3C106,44.9,106.9,43.6,107,42z"/>
							<path d="M104.7,47.2l-19.5-0.4c-2.4,0-3.7-2.7-3.6-5.2s1.4-5.1,3.8-5.1l18.8,0.4c-0.2,0-0.3,0.1-0.5,0.1
								c-0.2,0.1-0.3,0.1-0.5,0.2c-1.3,0.8-2.1,2.7-2.2,4.5v0.1l-14-0.3c-0.2,0-0.3,0.1-0.3,0.2c0,0.1,0.1,0.2,0.3,0.2l14,0.3
								c0,0.3,0,0.7,0.1,1c0,0.1,0,0.2,0,0.3c0.1,0.5,0.2,0.9,0.4,1.3l-15.2-0.3c-0.2,0-0.3,0.1-0.3,0.2c0,0.1,0.1,0.2,0.3,0.2
								l15.4,0.3c0,0.1,0.1,0.1,0.1,0.2c0.3,0.6,0.7,1.1,1.3,1.5c0.1,0.1,0.3,0.2,0.5,0.3C103.9,47.1,104.3,47.2,104.7,47.2z
								 M99.7,39.4L99.7,39.4c0-0.1-0.1-0.2-0.3-0.2l-14.6-0.3c-0.1,0.1-0.1,0.2-0.2,0.3h0.1c0,0.1,0,0.1-0.1,0.2l14.8,0.3
								C99.5,39.7,99.7,39.6,99.7,39.4C99.7,39.5,99.7,39.5,99.7,39.4z"/>
							<path class="st0" d="M101.1,42.1c0,0.3,0,0.7,0.1,1C101.1,42.8,101.1,42.5,101.1,42.1L101.1,42.1z"/>
							<path class="st0" d="M99.6,39.3c0.2,0,0.3,0.1,0.3,0.3c0,0.1-0.2,0.2-0.3,0.2l-15.1-0.5c0-0.2,0.1-0.4,0.1-0.5L99.6,39.3z"/>
						</g>
						<path class="st3" d="M101.2,43.1c0-0.3-0.1-0.6-0.1-1l0,0l-14-0.3c-0.2,0-0.3-0.1-0.3-0.2c0-0.1,0.2-0.2,0.3-0.2l14,0.3l0,0
							c0.1-1.8,0.8-3.6,2.2-4.5c0.1-0.1,0.3-0.2,0.5-0.2c0.2-0.1,0.4-0.1,0.7-0.2"/>
						<path class="st3" d="M104.8,47.2L104.8,47.2c-0.5,0-0.9-0.1-1.2-0.3c-0.2-0.1-0.3-0.2-0.5-0.3c-0.5-0.4-1-0.9-1.3-1.5
							c0-0.1-0.1-0.1-0.1-0.2l-15.4-0.3c-0.2,0-0.3-0.1-0.3-0.2c0-0.1,0.1-0.2,0.3-0.2l15.2,0.3c-0.2-0.4-0.3-0.9-0.4-1.3"/>
						<path class="st3" d="M104.5,36.9h-0.3l-18.8-0.4c-2.4-0.1-3.8,2.6-3.8,5.1c-0.1,2.5,1.2,5.2,3.6,5.2l19.5,0.4"/>
						<path class="st4" d="M104.2,36.9c0.2-0.1,0.5-0.1,0.8-0.1l0,0c2.4,0.1,3.6,2.8,3.6,5.2c-0.1,2.5-1.4,5.1-3.8,5.1l0,0
							c-0.4,0-0.8-0.1-1.2-0.3c-0.2-0.1-0.3-0.2-0.5-0.3c-0.5-0.3-0.9-0.8-1.2-1.4c0-0.1-0.1-0.2-0.1-0.3c-0.1-0.1-0.1-0.2-0.1-0.3
							c-0.2-0.4-0.3-0.8-0.4-1.2c0-0.1,0-0.2,0-0.3c-0.1-0.3-0.1-0.6-0.1-1v-0.1c0-0.1,0-0.1,0-0.2v-0.1v-0.1
							c0.1-1.8,0.8-3.6,2.2-4.5c0.1-0.1,0.3-0.2,0.5-0.2C103.9,37,104,36.9,104.2,36.9z"/>
						<path class="st4" d="M107.5,42c0,2-1.2,3.6-2.6,3.6s-2.5-1.7-2.5-3.7s1.2-3.6,2.6-3.6C106.5,38.4,107.6,40,107.5,42z"/>
						<path class="st4" d="M105.9,42c0,0.8-0.5,1.5-1.1,1.4c-0.6,0-1-0.7-1-1.5s0.5-1.5,1.1-1.5C105.5,40.5,105.9,41.2,105.9,42z"/>
					</g>
				</g>
			</g>
		</g>
	</g>
</g>
<g>
	<g>
		<path class="st2" d="M170.7,38.2l-10.2,0.1c-1.9,0-3.5-1.5-3.5-3.4l0,0c0-1.9,1.5-3.5,3.4-3.5l10.2-0.1c1.9,0,3.5,1.5,3.5,3.4l0,0
			C174.2,36.6,172.6,38.2,170.7,38.2z"/>
		<g>
			
				<ellipse transform="matrix(0.9999 -1.461722e-02 1.461722e-02 0.9999 -0.4855 2.569)" class="st0" cx="175.5" cy="34.5" rx="2.1" ry="3"/>
			<g>
				<g>
					<g id="XMLID_4_">
						<g>
							<path class="st0" d="M172.1,34.4C172.1,34.4,172.1,34.3,172.1,34.4c0.1-1.7,0.7-3.4,1.9-4.1c0.1-0.1,0.3-0.2,0.4-0.2
								c0.1-0.1,0.3-0.1,0.4-0.1c0.2-0.1,0.4-0.1,0.7-0.1l0,0c2.2,0,3.3,2.4,3.3,4.7s-1.2,4.6-3.4,4.6l0,0c-0.4,0-0.8-0.1-1.1-0.2
								c-0.1-0.1-0.3-0.1-0.4-0.2c-0.5-0.3-0.8-0.7-1.1-1.3c0-0.1-0.1-0.2-0.1-0.2c0-0.1-0.1-0.2-0.1-0.3c-0.1-0.3-0.3-0.7-0.3-1.1
								c0-0.1,0-0.2,0-0.2c0-0.3-0.1-0.6-0.1-0.9l0,0v-0.1C172.1,34.5,172.1,34.5,172.1,34.4L172.1,34.4z M178.2,34.5
								c0-2.1-1.2-3.9-2.7-3.9s-2.7,1.7-2.8,3.8c0,2.1,1.2,3.9,2.7,3.9C176.9,38.3,178.2,36.6,178.2,34.5z"/>
							<path class="st0" d="M175.5,30.6c1.5,0,2.7,1.7,2.7,3.9c0,2.1-1.2,3.8-2.8,3.8c-1.5,0-2.7-1.7-2.7-3.9
								C172.7,32.3,174,30.6,175.5,30.6z M177.4,34.5c0-1.5-0.8-2.7-1.9-2.7c-1.1,0-1.9,1.2-1.9,2.7s0.8,2.7,1.9,2.7
								C176.5,37.2,177.3,36,177.4,34.5z"/>
							<path d="M175.4,39.2l-17.7-0.1c-2.2,0-3.4-2.4-3.3-4.7c0-2.3,1.2-4.7,3.4-4.6l17,0.1c-0.1,0-0.3,0.1-0.4,0.1
								c-0.1,0.1-0.3,0.1-0.4,0.2c-1.2,0.8-1.8,2.4-1.9,4.1v0.1l-12.7-0.1c-0.2,0-0.3,0.1-0.3,0.1c0,0.1,0.1,0.2,0.3,0.2l12.7,0.1
								c0,0.3,0,0.6,0.1,0.9c0,0.1,0,0.2,0,0.2c0.1,0.4,0.2,0.8,0.3,1.2l-13.8-0.1c-0.2,0-0.3,0.1-0.3,0.1c0,0.1,0.1,0.1,0.3,0.2
								l13.9,0.1c0,0.1,0.1,0.1,0.1,0.2c0.3,0.5,0.7,1,1.2,1.3c0.1,0.1,0.3,0.2,0.4,0.2C174.7,39.1,175,39.2,175.4,39.2z
								 M170.7,32.3C170.7,32.3,170.7,32.2,170.7,32.3c0-0.1-0.1-0.2-0.3-0.2L157.2,32c-0.1,0.1-0.1,0.2-0.2,0.3l0,0
								c0,0,0,0.1-0.1,0.1l13.4,0.1C170.6,32.5,170.7,32.4,170.7,32.3L170.7,32.3z"/>
							<path class="st0" d="M172.1,34.7c0,0.3,0,0.6,0.1,0.9C172.1,35.3,172.1,35,172.1,34.7L172.1,34.7z"/>
							<path class="st0" d="M170.7,32.1c0.1,0,0.3,0.1,0.3,0.3c0,0.1-0.1,0.2-0.3,0.2L157,32.4c0-0.2,0.1-0.3,0.1-0.5L170.7,32.1z"
								/>
						</g>
						<path class="st3" d="M172.2,35.6c0-0.3-0.1-0.6-0.1-0.9l0,0l-12.7-0.1c-0.2,0-0.3-0.1-0.3-0.2c0-0.1,0.1-0.1,0.3-0.1l12.7,0.1
							l0,0c0-1.6,0.7-3.3,1.9-4.1c0.1-0.1,0.3-0.2,0.4-0.2c0.2-0.1,0.4-0.1,0.6-0.2"/>
						<path class="st3" d="M175.4,39.2L175.4,39.2c-0.4,0-0.8-0.1-1.1-0.2c-0.1-0.1-0.3-0.1-0.4-0.2c-0.5-0.3-0.9-0.8-1.2-1.3
							c0-0.1-0.1-0.1-0.1-0.2l-13.9-0.1c-0.2,0-0.3-0.1-0.3-0.2c0-0.1,0.1-0.1,0.3-0.1l13.8,0.1c-0.2-0.4-0.3-0.8-0.3-1.2"/>
						<path class="st3" d="M175,29.9h-0.2l-17-0.1c-2.2,0-3.4,2.4-3.4,4.6c0,2.3,1.2,4.7,3.3,4.7l17.7,0.1"/>
						<path class="st4" d="M174.8,29.9c0.2-0.1,0.4-0.1,0.7-0.1l0,0c2.2,0,3.3,2.4,3.3,4.7s-1.2,4.6-3.4,4.6l0,0
							c-0.4,0-0.8-0.1-1.1-0.2c-0.1-0.1-0.3-0.1-0.4-0.2c-0.5-0.3-0.8-0.7-1.1-1.3c0-0.1-0.1-0.2-0.1-0.2c0-0.1-0.1-0.2-0.1-0.3
							c-0.1-0.3-0.3-0.7-0.3-1.1c0-0.1,0-0.2,0-0.2c-0.1-0.3-0.1-0.6-0.1-0.9v-0.1c0-0.1,0-0.1,0-0.2c0,0,0,0,0-0.1v-0.1
							c0-1.6,0.7-3.3,1.9-4.1c0.1-0.1,0.3-0.2,0.4-0.2C174.5,30,174.6,29.9,174.8,29.9z"/>
						<path class="st4" d="M177.9,34.5c0,1.8-1.1,3.3-2.3,3.3c-1.3,0-2.3-1.5-2.3-3.3s1.1-3.3,2.3-3.3
							C176.8,31.2,177.9,32.7,177.9,34.5z"/>
						<path class="st4" d="M176.4,34.5c0,0.7-0.4,1.3-1,1.3c-0.5,0-0.9-0.6-0.9-1.3s0.4-1.3,1-1.3C176,33.1,176.4,33.7,176.4,34.5z"
							/>
					</g>
				</g>
			</g>
		</g>
	</g>
	<g>
		<g id="XMLID_5_">
			<g id="XMLID_6_">
				<g>
					<path class="st2" d="M193.2,37.2L193.2,37.2"/>
					<path class="st2" d="M178.4,32.7C178.4,32.7,178.4,32.6,178.4,32.7"/>
					<path class="st2" d="M195.8,38.8"/>
					<path class="st2" d="M195.2,30.3l-17-0.1c-2.2,0-3.4,2.2-3.4,4.2s1.2,4.2,3.3,4.2h17.4"/>
					<path class="st2" d="M195.2,30.3c0.2-0.1,0.4-0.1,0.7-0.1l0,0c2.2,0,3.3,2.2,3.3,4.2s-1.2,4.2-3.4,4.2l0,0
						c-0.4,0-0.8-0.1-1.1-0.2c-0.1-0.1-0.3-0.1-0.4-0.2c-0.4-0.3-0.8-0.6-1.1-1.1l0,0c0,0,0,0,0-0.1s-0.1-0.1-0.1-0.2
						c0-0.1-0.1-0.2-0.1-0.3c-0.1-0.2-0.2-0.4-0.3-0.7c0-0.1-0.1-0.2-0.1-0.3s0-0.1,0-0.2c-0.1-0.3-0.1-0.5-0.1-0.8v-0.1v-0.1
						c0,0,0,0,0-0.1c0,0,0,0,0-0.1c0-0.8,0.2-1.5,0.6-2.2c0.3-0.6,1.2-1.3,1.8-1.7c0.1-0.1-0.1,0.1,0,0
						C194.9,30.4,195.1,30.4,195.2,30.3z"/>
					<path class="st2" d="M194,33c0.4-0.9,1.2-1.5,2-1.5c1.3,0,2.3,1.3,2.3,3c0,1.6-1.1,2.9-2.3,2.9c-0.8,0-1.4-0.5-1.8-1.2
						c-0.3-0.5-0.5-1.1-0.5-1.8C193.7,34,193.8,33.4,194,33z"/>
					<path class="st2" d="M196.8,34.5c0,0.7-0.4,1.2-1,1.2c-0.5,0-0.9-0.5-0.9-1.2s0.4-1.2,1-1.2C196.4,33.3,196.8,33.8,196.8,34.5z
						"/>
				</g>
			</g>
		</g>
	</g>
	<polyline class="st5" points="167.3,53.6 167.3,49.6 184.6,49.6 185.3,49.6 185.3,53.8 	"/>
	<path class="st6" d="M184.4,28.6v21H168v-21c0-0.7,0.5-1.2,1.2-1.2h14.1C183.9,27.4,184.4,27.9,184.4,28.6z"/>
	<rect x="171" y="31.1" class="st5" width="10.4" height="9.2"/>
	<line class="st5" x1="172.3" y1="43" x2="180.3" y2="43"/>
	<line class="st5" x1="197.6" y1="40.3" x2="187.4" y2="40.3"/>
	<line class="st5" x1="164.5" y1="40.3" x2="155.3" y2="40.3"/>
	<circle class="st6" cx="166" cy="40.3" r="1.3"/>
	<circle class="st6" cx="186.1" cy="40.4" r="1.3"/>
	<circle class="st6" cx="186.3" cy="28.7" r="1.3"/>
	<circle class="st6" cx="166.1" cy="28.6" r="1.3"/>
</g>
<g>
	<path class="st7" d="M240.3,120.3H227v-14.6c0-2.9,2.4-5.3,5.3-5.3h2.9c2.8,0,5.1,2.3,5.1,5.1V120.3z"/>
	<polyline class="st8" points="249.2,96.5 233.8,96.5 233.8,100.1 	"/>
	<polygon class="st7" points="255.7,95.3 261.9,95.3 258.8,87.6 255.7,79.8 252.6,87.6 249.6,95.3 	"/>
	<rect x="253" y="78.4" class="st7" width="5.2" height="7.9"/>
	<path d="M249,95.7v25h13.4v-25H249z M258.2,101.2c0.7,0,1.3,0.6,1.3,1.4s-0.6,1.4-1.3,1.4c-0.7,0-1.3-0.6-1.3-1.4
		S257.4,101.2,258.2,101.2z M258.5,105.8c0,0.3-0.2,0.6-0.5,0.6s-0.5-0.2-0.5-0.6c0-0.3,0.2-0.6,0.5-0.6S258.5,105.5,258.5,105.8z
		 M255.7,104.6c0.3,0,0.5,0.2,0.5,0.6c0,0.3-0.2,0.6-0.5,0.6c-0.3,0-0.5-0.2-0.5-0.6C255.2,104.8,255.4,104.6,255.7,104.6z
		 M254.7,106.5c0.5,0,1,0.4,1,1s-0.4,1-1,1c-0.5,0-1-0.4-1-1C253.7,107,254.1,106.5,254.7,106.5z M252,107.8c0.5,0,0.8,0.4,0.8,0.9
		s-0.4,0.9-0.8,0.9c-0.5,0-0.8-0.4-0.8-0.9C251.2,108.1,251.6,107.8,252,107.8z M260.5,119h-9.6v-8.2c0.4,0.2,1.1,0.4,1.8,0.3
		c1.9-0.2,2.5-2.3,4.5-3.1c0.7-0.3,1.7-0.5,3.3-0.1V119z M260.1,105.3c-0.2,0-0.4-0.2-0.4-0.4c0-0.2,0.2-0.4,0.4-0.4
		s0.4,0.2,0.4,0.4C260.5,105.2,260.3,105.3,260.1,105.3z"/>
	<polyline class="st5" points="260.5,78.2 260.5,79.8 260.5,85.4 265.1,95.4 265.1,120.7 	"/>
	<line class="st5" x1="258" y1="79.8" x2="260.5" y2="79.8"/>
	<line class="st5" x1="258.2" y1="83.8" x2="260.4" y2="83.8"/>
	<line class="st5" x1="258.6" y1="87.6" x2="261.3" y2="87.6"/>
	<line class="st5" x1="259.7" y1="91.2" x2="263" y2="91.2"/>
	<path class="st5" d="M261.4,95c0.6,0,3.4,0,3.4,0"/>
	<line class="st5" x1="262.3" y1="98.7" x2="265" y2="98.7"/>
	<line class="st5" x1="262.3" y1="102.4" x2="265.2" y2="102.4"/>
	<line class="st5" x1="261.6" y1="106.4" x2="265" y2="106.4"/>
	<line class="st5" x1="261.4" y1="110.1" x2="265" y2="110.1"/>
	<line class="st5" x1="262.4" y1="114" x2="264.9" y2="114"/>
	<line class="st5" x1="261.5" y1="117.7" x2="264.9" y2="117.7"/>
</g>
<g>
	<rect x="156.9" y="116.9" width="24.2" height="2.4"/>
	<ellipse cx="174.9" cy="115.6" rx="4.3" ry="2.7"/>
	<ellipse cx="162.8" cy="115.6" rx="4.3" ry="2.7"/>
	<rect x="199" y="82.8" width="5.2" height="36.8"/>
	<line class="st5" x1="206.1" y1="82.8" x2="206.1" y2="119.5"/>
	<line class="st5" x1="202.2" y1="85.6" x2="206.2" y2="85.6"/>
	<line class="st5" x1="203" y1="88.2" x2="206.2" y2="88.2"/>
	<path class="st5" d="M202.6,90.9c0.5,0,3.3,0,3.3,0"/>
	<line class="st5" x1="202.9" y1="93.7" x2="206.2" y2="93.7"/>
	<line class="st5" x1="202.8" y1="97.1" x2="205.9" y2="97.1"/>
	<line class="st5" x1="202.9" y1="99.8" x2="206.2" y2="99.8"/>
	<line class="st5" x1="203.2" y1="103" x2="206.2" y2="103"/>
	<path class="st5" d="M203.5,105.6c0.3,0,2.5,0,2.5,0"/>
	<line class="st5" x1="203.5" y1="108.5" x2="206.1" y2="108.5"/>
	<path class="st5" d="M203.2,111.2c0.2,0,2.9,0,2.9,0"/>
	<line class="st5" x1="203.1" y1="114.3" x2="206.1" y2="114.3"/>
	<line class="st5" x1="202.7" y1="117" x2="205.8" y2="117"/>
	<polyline class="st9" points="200,89.8 194,89.8 194,98.9 	"/>
	<rect x="183.2" y="98.8" class="st7" width="13.6" height="13.4"/>
	<path class="st7" d="M189.1,118.7c0.3,0,0.5,0,0.8,0.1c0.2,0,0.3,0,0.5,0s0.3,0,0.5,0.1h0.1l0,0l0,0c0.2,0,0.3,0.1,0.5,0.1
		c0.1,0,0.3,0,0.4,0l1.3-1.7l3.2-4.3h-12.8l3.2,4.3l1.1,1.5C188.2,118.7,188.6,118.7,189.1,118.7z"/>
	<rect x="187.1" y="117.4" class="st7" width="6" height="1.7"/>
	<rect x="184.7" y="108.9" class="st7" width="9.7" height="4.1"/>
	<line class="st10" x1="180.4" y1="118.1" x2="187.8" y2="118.1"/>
	<polyline class="st0" points="196.5,112.4 183.5,112.4 186.2,116.1 187.1,117.1 187.4,118.8 192.6,118.9 192.6,117.3 	"/>
	<path class="st0" d="M189.7,107.4c0,0.1,0.1,0.1,0.1,0.2c0.2,0.3,0.4,0.6,0.4,0.9s0.1,0.6-0.1,0.9c-0.1,0.1-0.1,0.2-0.3,0.2
		c-0.1,0-0.2,0-0.3,0s-0.2-0.1-0.3-0.1c-0.1-0.1-0.2-0.2-0.2-0.3c0-0.1,0-0.2,0.1-0.3c0.1-0.1,0.1-0.3,0.1-0.4
		C189.5,108,189.6,107.7,189.7,107.4L189.7,107.4z"/>
	<path class="st0" d="M187.9,105.9c0,0.1-0.1,0.1-0.1,0.2c-0.1,0.3-0.3,0.5-0.4,0.8c-0.1,0.3-0.1,0.5,0.1,0.8c0,0.1,0.1,0.1,0.2,0.1
		c0.1,0,0.2,0,0.3,0s0.2-0.1,0.3-0.1c0.1-0.1,0.1-0.2,0.1-0.2c0-0.1,0-0.2-0.1-0.2c0-0.1-0.1-0.3-0.1-0.4
		C188.1,106.4,188,106.2,187.9,105.9L187.9,105.9z"/>
	<path class="st0" d="M191.7,105.9c0,0.1,0.1,0.1,0.1,0.2c0.1,0.3,0.3,0.6,0.3,0.8c0.1,0.3,0,0.6-0.1,0.8c-0.1,0.1-0.1,0.2-0.2,0.2
		c-0.1,0-0.2,0-0.3,0s-0.2-0.1-0.3-0.1c-0.1-0.1-0.1-0.2-0.1-0.3c0-0.1,0-0.2,0.1-0.3c0-0.1,0.1-0.3,0.1-0.4
		C191.5,106.5,191.6,106.3,191.7,105.9L191.7,105.9z"/>
</g>
<g>
	<polyline class="st11" points="69.9,109.3 70.3,113.1 55.9,117.5 23,118.1 32.6,113.8 	"/>
	<path class="st12" d="M35.8,104.2c-0.7,0.2-11.5,4.3-11.4,4.8c0.2,0.4,5.2,2.7,5.2,2.7l-6.5,1.3l9,0.8l23.4,2l15.4-6.7l-3.7-0.6"/>
	<path class="st6" d="M56.4,113.9l17.1-8.9l-0.1-0.2c0,0-12.7,1-20-6.1c-3.9-3.8-5.4-8.2-5.9-10.6c0-0.1-0.1-0.1-0.1-0.1
		c-5.2,2.1-10.5,4.3-15.7,6.4l-0.1,0.1c0.5,2.3,2.1,8.1,7.4,12.9c7.1,6.5,15.7,6.4,17.5,6.3"/>
</g>
<g>
	<rect x="253.3" y="31.3" class="st7" width="10" height="24.7"/>
	<rect x="241.1" y="39.8" class="st7" width="8.6" height="8.8"/>
	<rect x="249.4" y="43.1" class="st7" width="3.7" height="2.4"/>
	<rect x="252.7" y="18.6" class="st7" width="5.5" height="0.8"/>
	<rect x="253.3" y="19.1" class="st7" width="4.2" height="12"/>
	<polyline class="st13" points="236.6,20.6 245.5,20.6 245.6,44.5 260.6,44.5 	"/>
	<path class="st14" d="M259.3,51.5c0,0.5-0.2,0.8-0.2,0.8c0-1.2-1.2-2.5-1.2-2.5c0.4,0.8-1.4,1.8-1.4,3.3c0,0.9,1.1,1.6,1.7,1.5
		C260.6,54,259.3,51.5,259.3,51.5z M258,54.2c0,0-1.3-0.6,0-2c0,0,0.6,0.6,0.5,1.2c0,0,0.2,0,0.4-0.3
		C258.9,53.1,258.9,53.9,258,54.2z"/>
	<polygon class="st14" points="258.1,44.8 260.6,44.8 259.4,46.5 258.1,48.3 256.9,46.5 255.7,44.8 	"/>
	<polyline class="st13" points="265.9,34.1 255.5,34.1 255.5,35.6 262.1,35.6 262.1,37.5 255.5,37.5 255.5,39.3 262,39.3 262,40.9 
		255.4,40.9 255.4,42.9 259.2,42.9 	"/>
	<line class="st13" x1="262" y1="40.9" x2="265.9" y2="40.9"/>
	<path class="st6" d="M274.2,29.3c0,0.8-0.6,1.4-1.4,1.4c-0.3,0-0.5-0.1-0.8-0.2c0,0.1,0,0.3,0,0.4c0,1.1-1,2.1-2.1,2.1
		c-0.1,0-0.1,0-0.2,0c0,0.1,0,0.2,0,0.3c0,0.7-0.6,1.3-1.3,1.3c-0.7,0-1.3-0.6-1.3-1.3c0-0.6,0.4-1.1,1-1.3
		c-0.2-0.3-0.3-0.7-0.3-1.1c0-1.1,1-2.1,2.1-2.1l0,0c-0.4-0.4-0.6-1-0.6-1.5c0-0.9,0.5-1.6,1.2-2c0-0.1-0.1-0.3-0.1-0.4
		c0-0.8,0.6-1.4,1.4-1.4s1.4,0.6,1.4,1.4c0,0.2,0,0.3-0.1,0.5c0.6,0.4,1.1,1.1,1.1,2c0,0.4-0.1,0.8-0.3,1.1
		C274,28.7,274.2,29,274.2,29.3z"/>
	<g>
		<path class="st14" d="M270,35.5c-0.8,1.3-1.8,2.5-2.8,3.7l-0.4-0.7c0.9-0.2,1.9-0.3,2.8-0.5l1.2-0.2l-0.8,0.9
			c-1.2,1.5-2.5,2.9-4,4.2c0.9-1.7,2.1-3.3,3.2-4.8l0.4,0.8c-0.9,0.2-1.9,0.3-2.9,0.4l-1.2,0.1l0.8-0.8
			C267.7,37.5,268.8,36.4,270,35.5z"/>
	</g>
	<circle cx="230.5" cy="20.4" r="0.7"/>
	<circle cx="232.9" cy="20.4" r="0.7"/>
	<circle cx="233" cy="22.8" r="0.7"/>
	<circle cx="231.7" cy="19.2" r="0.5"/>
	<circle cx="231.7" cy="21.6" r="0.4"/>
	<circle cx="234.2" cy="21.6" r="0.4"/>
	<circle cx="234.1" cy="19.4" r="0.3"/>
	<circle cx="235.1" cy="20.6" r="0.4"/>
	<circle cx="231.1" cy="22.5" r="0.3"/>
	<circle cx="232.9" cy="18.5" r="0.3"/>
</g>
<g>
	<line class="st8" x1="92.6" y1="118.6" x2="131.5" y2="118.6"/>
	<line class="st5" x1="131" y1="98.4" x2="131" y2="118.7"/>
	<polyline class="st5" points="97.9,110.8 97.9,98.3 108,98.3 108,110.8 	"/>
	<rect x="87.5" y="113.4" width="2.7" height="6.3"/>
	<path class="st15" d="M86.2,111.4h6.6c0.5,0,1.1,0.1,1.5,0.4c0.3,0.2,0.6,0.5,0.7,0.8c0.4,0.8-0.1,1.3,0.3,2.1
		c0.3,0.8,1.3,1.5,2.4,1.6c0.4,0,0.9-0.1,1.3-0.2c0.9-0.4,1.4-1.3,1.4-2.3c0-3.7,0-7.5-0.1-11.2c0-0.9,0.5-1.8,1.3-2.2
		c0.4-0.2,0.8-0.3,1.3-0.3c0.1,0,0.2,0,0.3,0c1.3,0.1,2.3,1.3,2.3,2.6v12c0.1,1.2,1.1,2.2,2.2,2.3c1.3,0.2,2.7-0.8,2.9-2.3v-6.8
		c0-0.3,0.1-0.7,0.2-1c0.3-0.8,1-1.3,1.8-1.5c1-0.2,2.2,0.3,2.8,1.2c0.3,0.4,0.4,0.9,0.4,1.3v6.5c0,0.1,0,0.1,0,0.2
		c0.3,1.1,1.3,1.8,2.5,1.8l7.7,0.1"/>
	<g>
		<path class="st16" d="M128.5,115c0.2-0.2,0.4-0.5,0.5-0.8c0.6-1.2,0.6-2.5,0.2-3.8c-0.4-1.2-1.3-2.2-2.4-2.8
			c-1.1-0.6-2.4-0.7-3.6-0.3c-1.1,0.3-2,1.1-2.5,2.1s-0.6,2.2-0.2,3.3c0.4,1,1.1,1.9,2.1,2.4s2.1,0.6,3.1,0.3
			c0.7-0.2,1.3-0.6,1.8-1.2c0.1-0.2,0.3-0.4,0.4-0.6c0.4-0.9,0.5-1.9,0.1-2.9c-0.3-0.9-1-1.6-1.8-2.1c-0.9-0.4-1.8-0.5-2.7-0.3
			c-1.7,0.5-2.6,2.3-2,4.1c0.3,0.8,0.8,1.4,1.6,1.8c0.7,0.4,1.6,0.5,2.4,0.2c1.5-0.5,2.3-2,1.7-3.5c-0.5-1.4-2-2.2-3.4-1.8
			c-1.3,0.4-2,1.8-1.5,3.1c0.4,1.2,1.8,1.9,3,1.5c1.1-0.3,1.7-1.5,1.3-2.7c-0.2-0.5-0.6-0.9-1-1.2c-0.5-0.3-1-0.3-1.5-0.1
			c-1,0.3-1.5,1.3-1.1,2.3c0.2,0.4,0.5,0.8,0.9,1s0.9,0.2,1.3,0.1s0.7-0.4,0.8-0.8c0.2-0.4,0.2-0.8,0-1.1c-0.1-0.3-0.4-0.6-0.7-0.8
			c-0.3-0.2-0.7-0.2-1-0.1c-0.7,0.2-1,0.9-0.8,1.6c0,0.1,0.1,0.1,0.2,0.1s0.1-0.1,0.1-0.1c-0.2-0.5,0.1-1.1,0.6-1.3
			c0.3-0.1,0.6-0.1,0.9,0.1c0.3,0.1,0.5,0.4,0.6,0.7c0.1,0.3,0.1,0.7,0,1s-0.4,0.5-0.7,0.6l0,0c-0.4,0.1-0.8,0.1-1.2-0.1
			c-0.4-0.2-0.6-0.5-0.8-0.8c-0.3-0.9,0.1-1.8,1-2c0.4-0.1,0.9-0.1,1.4,0.1c0.4,0.2,0.8,0.6,0.9,1c0.4,1-0.2,2.1-1.2,2.4
			c-1.1,0.3-2.3-0.3-2.7-1.4c-0.4-1.2,0.2-2.4,1.4-2.8c1.3-0.4,2.7,0.3,3.1,1.6c0.5,1.4-0.2,2.8-1.6,3.2c-0.7,0.2-1.5,0.1-2.2-0.2
			s-1.2-0.9-1.5-1.7c-0.6-1.6,0.3-3.3,1.8-3.8c0.8-0.3,1.7-0.2,2.5,0.2c0.8,0.4,1.4,1.1,1.7,1.9c0.3,0.9,0.3,1.9-0.1,2.7
			c-0.4,0.8-1.1,1.4-2,1.7c-1,0.3-2,0.2-2.9-0.3s-1.6-1.3-2-2.2c-0.4-1-0.3-2.2,0.1-3.1c0.5-1,1.3-1.7,2.4-2s2.3-0.2,3.4,0.3
			c1.1,0.6,1.9,1.5,2.3,2.6c0.4,1.2,0.4,2.5-0.2,3.6c-0.5,1.1-2.1,2.2-2.9,2.2c-0.1,0-0.1,0.1-0.1,0.2s0.1,0.2,0.2,0.2
			C126.7,116.6,127.9,115.7,128.5,115z"/>
	</g>
	<circle cx="93.2" cy="114.2" r="1.1"/>
	<circle cx="97.9" cy="114.3" r="1.1"/>
	<circle cx="108.1" cy="114.4" r="1.1"/>
	<circle cx="118.4" cy="114.6" r="1.1"/>
	<circle cx="112.9" cy="108" r="1.1"/>
	<circle cx="103" cy="102.8" r="1.1"/>
	<line class="st17" x1="132.4" y1="117" x2="139" y2="117"/>
	<line class="st17" x1="132.4" y1="118.1" x2="139" y2="118.1"/>
	<line class="st17" x1="132.4" y1="119.2" x2="139" y2="119.2"/>
</g>
<path class="st18" d="M78.3,36.5c0.2,0,0.3-0.4,0.2-0.5c-0.3-0.7-0.8-1.3-1.3-1.8c-0.1-0.1-0.2-0.1-0.3-0.1c-0.1,0-0.1,0-0.2,0.1
	l0,0c-0.1,0.1-0.1,0.2,0,0.3c0.2,0.2,0.3,0.5,0.5,0.7c-2.4-1.2-5.6-0.7-8,0.3c-1.3,0.6-2.5,1.4-3.6,2.4c-0.5,0.5-1,1-1.4,1.6
	c-0.5,0.6-0.9,1.3-1,2c0,0.2,0.2,0.4,0.4,0.2c0.5-0.4,0.8-1,1.2-1.5c0.4-0.6,0.9-1.1,1.4-1.6c1-0.9,2.1-1.7,3.3-2.3
	c1.3-0.6,2.7-1.1,4.2-1.2c1.4-0.1,2.7,0.2,4,0.6l0,0c-0.3,0.1-0.6,0.1-1,0.2c-0.4,0.1-1,0.2-1.2,0.6c-0.1,0.2,0,0.4,0.2,0.4
	c0.4,0.1,0.8-0.2,1.2-0.3C77.3,36.7,77.8,36.6,78.3,36.5z"/>
<path class="st18" d="M146.6,36.6c0.2,0,0.3-0.4,0.2-0.5c-0.3-0.7-0.8-1.3-1.3-1.8c-0.1-0.1-0.2-0.1-0.3-0.1s-0.1,0-0.2,0.1l0,0
	c-0.1,0.1-0.1,0.2,0,0.3c0.2,0.2,0.3,0.5,0.5,0.7c-2.4-1.2-5.6-0.7-8,0.3c-1.3,0.6-2.5,1.4-3.6,2.4c-0.5,0.5-1,1-1.4,1.6
	c-0.5,0.6-0.9,1.3-1,2c0,0.2,0.2,0.4,0.4,0.2c0.5-0.4,0.8-1,1.2-1.5c0.4-0.6,0.9-1.1,1.4-1.6c1-0.9,2.1-1.7,3.3-2.3
	c1.3-0.6,2.7-1.1,4.2-1.2c1.4-0.1,2.7,0.2,4,0.6l0,0c-0.3,0.1-0.6,0.1-1,0.2c-0.4,0.1-1,0.2-1.2,0.6c-0.1,0.2,0,0.4,0.2,0.4
	c0.4,0.1,0.8-0.2,1.2-0.3C145.6,36.7,146.1,36.6,146.6,36.6z"/>
<path class="st18" d="M219.4,36.6c0.2,0,0.3-0.4,0.2-0.5c-0.3-0.7-0.8-1.3-1.3-1.8c-0.1-0.1-0.2-0.1-0.3-0.1s-0.1,0-0.2,0.1l0,0
	c-0.1,0.1-0.1,0.2,0,0.3c0.2,0.2,0.3,0.5,0.5,0.7c-2.4-1.2-5.6-0.7-8,0.3c-1.3,0.6-2.5,1.4-3.6,2.4c-0.5,0.5-1,1-1.4,1.6
	c-0.5,0.6-0.9,1.3-1,2c0,0.2,0.2,0.4,0.4,0.2c0.5-0.4,0.8-1,1.2-1.5c0.4-0.6,0.9-1.1,1.4-1.6c1-0.9,2.1-1.7,3.3-2.3
	c1.3-0.6,2.7-1.1,4.2-1.2c1.4-0.1,2.7,0.2,4,0.6l0,0c-0.3,0.1-0.6,0.1-1,0.2c-0.4,0.1-1,0.2-1.2,0.6c-0.1,0.2,0,0.4,0.2,0.4
	c0.4,0.1,0.8-0.2,1.2-0.3C218.4,36.7,218.9,36.6,219.4,36.6z"/>
<path class="st18" d="M270.4,76.4c0,0.2,0.2,0.4,0.4,0.4c0.7-0.1,1.5-0.3,2.1-0.7c0.1,0,0.2-0.1,0.2-0.2s0-0.1,0-0.2l0,0
	c-0.1-0.1-0.2-0.1-0.3-0.1c-0.3,0.1-0.6,0.1-0.8,0.2c1.9-1.9,2.6-5,2.4-7.6c-0.1-1.4-0.5-2.9-1.1-4.2c-0.3-0.7-0.6-1.3-1-1.9
	c-0.4-0.6-0.9-1.3-1.5-1.7c-0.2-0.1-0.5,0.1-0.4,0.3c0.2,0.6,0.7,1.1,1,1.7c0.4,0.6,0.7,1.2,1,1.8c0.5,1.2,0.9,2.5,1,3.9
	c0.2,1.4,0.1,2.9-0.3,4.3c-0.4,1.3-1.1,2.5-1.9,3.5l0,0c0.1-0.3,0.1-0.6,0.2-1c0-0.4,0.1-1-0.2-1.3c-0.1-0.1-0.4-0.2-0.5,0
	c-0.2,0.4-0.1,0.8-0.1,1.3C270.6,75.4,270.5,75.9,270.4,76.4z"/>
<path class="st18" d="M143,123.6c-0.3,0-0.4,0.3-0.4,0.5c0.1,0.7,0.4,1.5,0.8,2.1c0.1,0.1,0.2,0.2,0.3,0.2s0.1,0,0.2,0l0,0
	c0.1-0.1,0.1-0.2,0.1-0.3c-0.1-0.3-0.2-0.5-0.3-0.8c2,1.8,5.2,2.2,7.8,1.9c1.4-0.2,2.8-0.7,4.1-1.4c0.6-0.3,1.2-0.7,1.8-1.2
	c0.6-0.4,1.2-1,1.5-1.6c0.1-0.2-0.1-0.5-0.3-0.4c-0.6,0.3-1.1,0.8-1.6,1.2c-0.5,0.4-1.1,0.8-1.7,1.1c-1.2,0.6-2.5,1.1-3.8,1.3
	c-1.4,0.3-2.9,0.3-4.3,0c-1.4-0.3-2.5-0.9-3.7-1.6l0,0c0.3,0,0.6,0.1,1,0.1s1,0,1.3-0.3c0.1-0.1,0.1-0.4-0.1-0.5
	c-0.4-0.2-0.8,0-1.3,0C144,123.7,143.5,123.6,143,123.6z"/>
<path class="st18" d="M72.3,123.6c-0.3,0-0.4,0.3-0.4,0.5c0.1,0.7,0.4,1.5,0.8,2.1c0.1,0.1,0.2,0.2,0.3,0.2c0.1,0,0.1,0,0.2,0l0,0
	c0.1-0.1,0.1-0.2,0.1-0.3c-0.1-0.3-0.2-0.5-0.3-0.8c2,1.8,5.2,2.2,7.8,1.9c1.4-0.2,2.8-0.7,4.1-1.4c0.6-0.3,1.2-0.7,1.8-1.2
	c0.6-0.4,1.2-1,1.5-1.6c0.1-0.2-0.1-0.5-0.3-0.4c-0.6,0.3-1.1,0.8-1.6,1.2c-0.5,0.4-1.1,0.8-1.7,1.1c-1.2,0.6-2.5,1.1-3.8,1.3
	c-1.4,0.3-2.9,0.3-4.3,0s-2.5-0.9-3.7-1.6l0,0c0.3,0,0.6,0.1,1,0.1s1,0,1.3-0.3c0.1-0.1,0.1-0.4-0.1-0.5c-0.4-0.2-0.8,0-1.3,0
	C73.3,123.7,72.8,123.6,72.3,123.6z"/>
<path class="st18" d="M36.6,61.4c0-0.2-0.2-0.4-0.4-0.4c-0.7,0.1-1.5,0.3-2.1,0.7c-0.1,0-0.2,0.1-0.2,0.2c0,0.1,0,0.1,0,0.2l0,0
	c0.1,0.1,0.2,0.1,0.3,0.1c0.3-0.1,0.6-0.1,0.8-0.2c-1.9,1.9-2.6,5-2.4,7.6c0.1,1.4,0.5,2.9,1.1,4.2c0.3,0.7,0.6,1.3,1,1.9
	s0.9,1.3,1.5,1.7c0.2,0.1,0.5-0.1,0.4-0.3c-0.2-0.6-0.7-1.1-1-1.7c-0.4-0.6-0.7-1.2-1-1.8c-0.5-1.2-0.9-2.5-1-3.9
	c-0.2-1.4-0.1-2.9,0.3-4.3c0.4-1.3,1.1-2.5,1.9-3.5l0,0c-0.1,0.3-0.1,0.6-0.2,1c0,0.4-0.1,1,0.2,1.3c0.1,0.1,0.4,0.2,0.5,0
	c0.2-0.4,0.1-0.8,0.1-1.3C36.4,62.4,36.5,61.9,36.6,61.4z"/>
<path class="st18" d="M205.6,123.6c-0.3,0-0.4,0.3-0.4,0.5c0.1,0.7,0.4,1.5,0.8,2.1c0.1,0.1,0.2,0.2,0.3,0.2s0.1,0,0.2,0l0,0
	c0.1-0.1,0.1-0.2,0.1-0.3c-0.1-0.3-0.2-0.5-0.3-0.8c2,1.8,5.2,2.2,7.8,1.9c1.4-0.2,2.8-0.7,4.1-1.4c0.6-0.3,1.2-0.7,1.8-1.2
	c0.6-0.4,1.2-1,1.5-1.6c0.1-0.2-0.1-0.5-0.3-0.4c-0.6,0.3-1.1,0.8-1.6,1.2c-0.5,0.4-1.1,0.8-1.7,1.1c-1.2,0.6-2.5,1.1-3.8,1.3
	c-1.4,0.3-2.9,0.3-4.3,0c-1.4-0.3-2.5-0.9-3.7-1.6l0,0c0.3,0,0.6,0.1,1,0.1s1,0,1.3-0.3c0.1-0.1,0.1-0.4-0.1-0.5
	c-0.4-0.2-0.8,0-1.3,0C206.6,123.7,206.1,123.6,205.6,123.6z"/>
<rect x="19.7" y="9.6" class="st19" width="94.2" height="9.5"/>
<g class="st20">
	<path class="st21" d="M21.9,15.2h-0.8v-4.3h-1.2v-0.6c0.4,0,0.7-0.1,0.9-0.2c0.3-0.1,0.4-0.3,0.5-0.5h0.6V15.2z"/>
	<path class="st21" d="M23.8,15.2h-0.9v-0.9h0.9V15.2z"/>
	<path class="st21" d="M28.4,9.9c0.2,0.2,0.3,0.6,0.3,1v0.5l-0.8,0V11c0-0.4-0.2-0.6-0.5-0.6c-0.2,0-0.3,0-0.4,0.1
		C27,10.6,27,10.7,27,10.9v3.1c0,0.2,0,0.3,0.1,0.4c0.1,0.1,0.2,0.1,0.4,0.1c0.3,0,0.5-0.2,0.5-0.6v-0.6l0.8,0V14
		c0,0.4-0.1,0.8-0.3,1s-0.6,0.4-1,0.4c-0.4,0-0.7-0.1-1-0.4c-0.2-0.2-0.3-0.6-0.3-1v-3.1c0-0.4,0.1-0.8,0.3-1c0.2-0.2,0.5-0.4,1-0.4
		C27.8,9.5,28.2,9.7,28.4,9.9z"/>
	<path class="st21" d="M32,14c0,0.4-0.1,0.8-0.3,1s-0.6,0.3-1,0.3c-0.4,0-0.7-0.1-1-0.3s-0.3-0.6-0.3-1V9.6h0.8v4.3
		c0,0.4,0.2,0.6,0.5,0.6c0.3,0,0.5-0.2,0.5-0.6V9.6H32V14z"/>
	<path class="st21" d="M33.8,14.4h1.4v0.8h-2.3V9.6h0.8V14.4z"/>
	<path class="st21" d="M37.6,10.4h-0.9v4.8h-0.8v-4.8h-0.9V9.6h2.7V10.4z"/>
	<path class="st21" d="M39,15.2h-0.8V9.6H39V15.2z"/>
	<path class="st21" d="M41.6,15.2h-1.1l-0.9-5.6h0.9l0.6,4.3h0l0.6-4.3h0.8L41.6,15.2z"/>
	<path class="st21" d="M45.4,9.9c0.2,0.3,0.4,0.6,0.4,1v2.9c0,0.4-0.1,0.8-0.4,1c-0.2,0.3-0.6,0.4-1,0.4s-0.8-0.1-1-0.4
		c-0.2-0.3-0.4-0.6-0.4-1V11c0-0.4,0.1-0.8,0.4-1c0.2-0.3,0.6-0.4,1-0.4S45.2,9.7,45.4,9.9z M44,10.5c-0.1,0.1-0.1,0.3-0.1,0.5v2.9
		c0,0.2,0,0.4,0.1,0.5c0.1,0.1,0.2,0.2,0.4,0.2c0.2,0,0.3-0.1,0.4-0.2s0.1-0.3,0.1-0.5V11c0-0.2,0-0.4-0.1-0.5
		c-0.1-0.1-0.2-0.2-0.4-0.2C44.2,10.3,44.1,10.4,44,10.5z"/>
	<path class="st21" d="M49.4,12.7v2.5h-0.8v-2.5l-1.2-3.1h0.9l0.7,2h0l0.7-2h0.9L49.4,12.7z"/>
	<path class="st21" d="M54.5,9.9c0.2,0.2,0.3,0.6,0.3,1v0.5l-0.8,0V11c0-0.4-0.2-0.6-0.5-0.6c-0.2,0-0.3,0-0.4,0.1
		c-0.1,0.1-0.1,0.2-0.1,0.4v3.1c0,0.2,0,0.3,0.1,0.4c0.1,0.1,0.2,0.1,0.4,0.1c0.3,0,0.5-0.2,0.5-0.6v-0.6l0.8,0V14
		c0,0.4-0.1,0.8-0.3,1s-0.6,0.4-1,0.4c-0.4,0-0.7-0.1-1-0.4c-0.2-0.2-0.3-0.6-0.3-1v-3.1c0-0.4,0.1-0.8,0.3-1c0.2-0.2,0.5-0.4,1-0.4
		C54,9.5,54.3,9.7,54.5,9.9z"/>
	<path class="st21" d="M57.9,9.9c0.2,0.3,0.4,0.6,0.4,1v2.9c0,0.4-0.1,0.8-0.4,1c-0.2,0.3-0.6,0.4-1,0.4s-0.8-0.1-1-0.4
		c-0.2-0.3-0.4-0.6-0.4-1V11c0-0.4,0.1-0.8,0.4-1c0.2-0.3,0.6-0.4,1-0.4S57.6,9.7,57.9,9.9z M56.5,10.5c-0.1,0.1-0.1,0.3-0.1,0.5
		v2.9c0,0.2,0,0.4,0.1,0.5c0.1,0.1,0.2,0.2,0.4,0.2c0.2,0,0.3-0.1,0.4-0.2s0.1-0.3,0.1-0.5V11c0-0.2,0-0.4-0.1-0.5
		c-0.1-0.1-0.2-0.2-0.4-0.2C56.7,10.3,56.6,10.4,56.5,10.5z"/>
	<path class="st21" d="M62.7,15.2h-0.8v-3.9h0l-0.7,3.1h-0.5l-0.7-3.1h0v3.9h-0.8V9.6h1.1l0.7,3h0l0.7-3h1.1V15.2z"/>
	<path class="st21" d="M65.8,10c0.2,0.2,0.4,0.6,0.4,1.1v0.4c0,0.5-0.1,0.8-0.4,1.1c-0.2,0.2-0.6,0.4-1,0.4h-0.4v2.3h-0.8V9.6h1.2
		C65.3,9.6,65.6,9.7,65.8,10z M64.4,10.4v1.7h0.3c0.2,0,0.4-0.1,0.4-0.2c0.1-0.1,0.1-0.3,0.1-0.5v-0.3c0-0.2,0-0.4-0.1-0.5
		c-0.1-0.1-0.2-0.2-0.4-0.2H64.4z"/>
	<path class="st21" d="M68.7,15.2l-0.7-2.4h-0.4v2.4h-0.8V9.6h1.2c0.5,0,0.8,0.1,1,0.4c0.2,0.2,0.4,0.6,0.4,1.1v0.4
		c0,0.6-0.2,1-0.6,1.2l0.8,2.6H68.7z M67.7,10.4v1.7H68c0.2,0,0.4-0.1,0.4-0.2c0.1-0.1,0.1-0.3,0.1-0.5v-0.3c0-0.2,0-0.4-0.1-0.5
		c-0.1-0.1-0.2-0.2-0.4-0.2H67.7z"/>
	<path class="st21" d="M73,15.2h-0.9l-0.2-1.3H71l-0.2,1.3H70l1-5.6H72L73,15.2z M71.4,10.8l-0.3,2.4h0.7L71.4,10.8L71.4,10.8z"/>
	<path class="st21" d="M77.3,10c0.2,0.2,0.4,0.6,0.4,1.1v2.8c0,0.5-0.1,0.8-0.4,1.1c-0.2,0.2-0.6,0.4-1,0.4H75V9.6h1.2
		C76.7,9.6,77,9.7,77.3,10z M75.9,10.4v4h0.3c0.2,0,0.4-0.1,0.4-0.2c0.1-0.1,0.1-0.3,0.1-0.5v-2.7c0-0.2,0-0.4-0.1-0.5
		c-0.1-0.1-0.2-0.2-0.4-0.2H75.9z"/>
	<path class="st21" d="M80.8,10.4h-1.5V12h1.2v0.8h-1.2v1.7h1.5v0.8h-2.4V9.6h2.4V10.4z"/>
	<path class="st21" d="M86.7,15.2h-0.8v-3.9h0l-0.7,3.1h-0.5l-0.7-3.1h0v3.9h-0.8V9.6h1.1l0.7,3h0l0.7-3h1.1V15.2z"/>
	<path class="st21" d="M90.3,15.2h-0.9l-0.2-1.3h-0.9l-0.2,1.3h-0.8l1-5.6h1.1L90.3,15.2z M88.8,10.8l-0.3,2.4h0.7L88.8,10.8
		L88.8,10.8z"/>
	<path class="st21" d="M93.2,10c0.2,0.2,0.4,0.6,0.4,1.1v2.8c0,0.5-0.1,0.8-0.4,1.1c-0.2,0.2-0.6,0.4-1,0.4h-1.2V9.6h1.2
		C92.6,9.6,92.9,9.7,93.2,10z M91.8,10.4v4h0.3c0.2,0,0.4-0.1,0.4-0.2c0.1-0.1,0.1-0.3,0.1-0.5v-2.7c0-0.2,0-0.4-0.1-0.5
		c-0.1-0.1-0.2-0.2-0.4-0.2H91.8z"/>
	<path class="st21" d="M96.7,10.4h-1.5V12h1.2v0.8h-1.2v1.7h1.5v0.8h-2.4V9.6h2.4V10.4z"/>
	<path class="st21" d="M99.4,15.2l-0.7-2.4h-0.4v2.4h-0.8V9.6h1.2c0.5,0,0.8,0.1,1,0.4c0.2,0.2,0.4,0.6,0.4,1.1v0.4
		c0,0.6-0.2,1-0.6,1.2l0.8,2.6H99.4z M98.3,10.4v1.7h0.3c0.2,0,0.4-0.1,0.4-0.2c0.1-0.1,0.1-0.3,0.1-0.5v-0.3c0-0.2,0-0.4-0.1-0.5
		c-0.1-0.1-0.2-0.2-0.4-0.2H98.3z"/>
	<path class="st21" d="M103.6,15.2h-0.9l-0.2-1.3h-0.9l-0.2,1.3h-0.8l1-5.6h1.1L103.6,15.2z M102.1,10.8l-0.3,2.4h0.7L102.1,10.8
		L102.1,10.8z"/>
</g>
<rect x="133.9" y="9.6" class="st19" width="94.2" height="9.5"/>
<g class="st20">
	<path class="st21" d="M136.4,9.9c0.2,0.2,0.3,0.5,0.3,0.9V11c0,0.3-0.1,0.6-0.2,0.8c-0.1,0.3-0.3,0.6-0.5,1.1l-0.9,1.5h1.6v0.8
		h-2.6v-0.7l1.3-2c0.2-0.3,0.3-0.6,0.4-0.8c0.1-0.2,0.1-0.5,0.1-0.7v-0.1c0-0.4-0.2-0.6-0.5-0.6c-0.2,0-0.3,0.1-0.4,0.2
		c-0.1,0.1-0.1,0.3-0.1,0.5v0.3l-0.8,0v-0.4c0-0.4,0.1-0.7,0.3-1s0.5-0.3,1-0.3S136.1,9.7,136.4,9.9z"/>
	<path class="st21" d="M138.3,15.2h-0.9v-0.9h0.9V15.2z"/>
	<path class="st21" d="M143,10c0.2,0.2,0.4,0.6,0.4,1.1v2.8c0,0.5-0.1,0.8-0.4,1.1c-0.2,0.2-0.6,0.4-1,0.4h-1.2V9.6h1.2
		C142.4,9.6,142.8,9.7,143,10z M141.6,10.4v4h0.3c0.2,0,0.4-0.1,0.4-0.2c0.1-0.1,0.1-0.3,0.1-0.5v-2.7c0-0.2,0-0.4-0.1-0.5
		c-0.1-0.1-0.2-0.2-0.4-0.2H141.6z"/>
	<path class="st21" d="M146.6,10.4H145V12h1.2v0.8H145v1.7h1.5v0.8h-2.4V9.6h2.4V10.4z"/>
	<path class="st21" d="M149.2,9.9c0.2,0.2,0.3,0.5,0.3,0.9v0.1l-0.8,0.1v-0.2c0-0.2,0-0.3-0.1-0.4c-0.1-0.1-0.2-0.1-0.3-0.1
		s-0.2,0-0.3,0.1c-0.1,0.1-0.1,0.2-0.1,0.4v0.1c0,0.2,0.1,0.3,0.2,0.5c0.1,0.2,0.3,0.4,0.6,0.6c0.4,0.3,0.7,0.6,0.8,0.9
		c0.2,0.3,0.2,0.6,0.2,0.9V14c0,0.4-0.1,0.7-0.3,0.9c-0.2,0.2-0.6,0.3-1,0.3s-0.7-0.1-1-0.3S147,14.4,147,14v-0.4l0.8-0.1V14
		c0,0.4,0.2,0.5,0.5,0.5s0.5-0.2,0.5-0.5v-0.2c0-0.2-0.1-0.4-0.2-0.5c-0.1-0.2-0.3-0.4-0.6-0.6c-0.4-0.3-0.7-0.6-0.8-0.9
		s-0.2-0.6-0.2-0.9v-0.1c0-0.4,0.1-0.7,0.3-0.9c0.2-0.2,0.5-0.3,0.9-0.3C148.7,9.5,149,9.7,149.2,9.9z"/>
	<path class="st21" d="M152.4,9.9c0.2,0.2,0.3,0.6,0.3,1v0.5l-0.8,0V11c0-0.4-0.2-0.6-0.5-0.6c-0.2,0-0.3,0-0.4,0.1
		s-0.1,0.2-0.1,0.4v3.1c0,0.2,0,0.3,0.1,0.4c0.1,0.1,0.2,0.1,0.4,0.1c0.3,0,0.5-0.2,0.5-0.6v-0.6l0.8,0V14c0,0.4-0.1,0.8-0.3,1
		c-0.2,0.2-0.6,0.4-1,0.4c-0.4,0-0.7-0.1-1-0.4c-0.2-0.2-0.3-0.6-0.3-1v-3.1c0-0.4,0.1-0.8,0.3-1c0.2-0.2,0.5-0.4,1-0.4
		C151.8,9.5,152.1,9.7,152.4,9.9z"/>
	<path class="st21" d="M155.7,9.9c0.2,0.3,0.4,0.6,0.4,1v2.9c0,0.4-0.1,0.8-0.4,1c-0.2,0.3-0.6,0.4-1,0.4s-0.8-0.1-1-0.4
		c-0.2-0.3-0.4-0.6-0.4-1V11c0-0.4,0.1-0.8,0.4-1c0.2-0.3,0.6-0.4,1-0.4S155.5,9.7,155.7,9.9z M154.3,10.5c-0.1,0.1-0.1,0.3-0.1,0.5
		v2.9c0,0.2,0,0.4,0.1,0.5s0.2,0.2,0.4,0.2c0.2,0,0.3-0.1,0.4-0.2s0.1-0.3,0.1-0.5V11c0-0.2,0-0.4-0.1-0.5c-0.1-0.1-0.2-0.2-0.4-0.2
		C154.6,10.3,154.4,10.4,154.3,10.5z"/>
	<path class="st21" d="M158.8,15.2l-0.7-2.4h-0.4v2.4h-0.8V9.6h1.2c0.5,0,0.8,0.1,1,0.4c0.2,0.2,0.4,0.6,0.4,1.1v0.4
		c0,0.6-0.2,1-0.6,1.2l0.8,2.6H158.8z M157.8,10.4v1.7h0.3c0.2,0,0.4-0.1,0.4-0.2c0.1-0.1,0.1-0.3,0.1-0.5v-0.3c0-0.2,0-0.4-0.1-0.5
		c-0.1-0.1-0.2-0.2-0.4-0.2H157.8z"/>
	<path class="st21" d="M162.6,10.4h-0.9v4.8h-0.8v-4.8h-0.9V9.6h2.7V10.4z"/>
	<path class="st21" d="M165.5,10.4H164V12h1.2v0.8H164v1.7h1.5v0.8h-2.4V9.6h2.4V10.4z"/>
	<path class="st21" d="M168.4,10.3l-1.6,4.1h1.6v0.8h-2.5v-0.7l1.6-4.1H166V9.6h2.4V10.3z"/>
	<path class="st21" d="M171.7,15.2h-0.9l-0.2-1.3h-0.9l-0.2,1.3h-0.8l1-5.6h1.1L171.7,15.2z M170.2,10.8l-0.3,2.4h0.7L170.2,10.8
		L170.2,10.8z"/>
	<path class="st21" d="M174.6,10c0.2,0.2,0.4,0.6,0.4,1.1v2.8c0,0.5-0.1,0.8-0.4,1.1c-0.2,0.2-0.6,0.4-1,0.4h-1.2V9.6h1.2
		C174,9.6,174.4,9.7,174.6,10z M173.2,10.4v4h0.3c0.2,0,0.4-0.1,0.4-0.2c0.1-0.1,0.1-0.3,0.1-0.5v-2.7c0-0.2,0-0.4-0.1-0.5
		c-0.1-0.1-0.2-0.2-0.4-0.2H173.2z"/>
	<path class="st21" d="M178.1,9.9c0.2,0.3,0.4,0.6,0.4,1v2.9c0,0.4-0.1,0.8-0.4,1c-0.2,0.3-0.6,0.4-1,0.4s-0.8-0.1-1-0.4
		c-0.2-0.3-0.4-0.6-0.4-1V11c0-0.4,0.1-0.8,0.4-1c0.2-0.3,0.6-0.4,1-0.4S177.8,9.7,178.1,9.9z M176.7,10.5c-0.1,0.1-0.1,0.3-0.1,0.5
		v2.9c0,0.2,0,0.4,0.1,0.5c0.1,0.1,0.2,0.2,0.4,0.2s0.3-0.1,0.4-0.2s0.1-0.3,0.1-0.5V11c0-0.2,0-0.4-0.1-0.5
		c-0.1-0.1-0.2-0.2-0.4-0.2S176.8,10.4,176.7,10.5z"/>
	<path class="st21" d="M182.1,12.7v2.5h-0.8v-2.5l-1.2-3.1h0.9l0.7,2h0l0.7-2h0.9L182.1,12.7z"/>
	<path class="st21" d="M187.6,15.2h-0.9l-0.2-1.3h-0.9l-0.2,1.3h-0.8l1-5.6h1.1L187.6,15.2z M186.1,10.8l-0.3,2.4h0.7L186.1,10.8
		L186.1,10.8z"/>
	<path class="st21" d="M190.2,9.9c0.2,0.2,0.3,0.5,0.3,0.9v0.1l-0.8,0.1v-0.2c0-0.2,0-0.3-0.1-0.4c-0.1-0.1-0.2-0.1-0.3-0.1
		s-0.2,0-0.3,0.1c-0.1,0.1-0.1,0.2-0.1,0.4v0.1c0,0.2,0,0.3,0.2,0.5s0.3,0.4,0.6,0.6c0.4,0.3,0.7,0.6,0.8,0.9
		c0.2,0.3,0.2,0.6,0.2,0.9V14c0,0.4-0.1,0.7-0.3,0.9s-0.6,0.3-1,0.3c-0.4,0-0.7-0.1-1-0.3S188,14.4,188,14v-0.4l0.8-0.1V14
		c0,0.4,0.2,0.5,0.5,0.5c0.3,0,0.5-0.2,0.5-0.5v-0.2c0-0.2-0.1-0.4-0.2-0.5c-0.1-0.2-0.3-0.4-0.6-0.6c-0.4-0.3-0.7-0.6-0.8-0.9
		c-0.2-0.3-0.2-0.6-0.2-0.9v-0.1c0-0.4,0.1-0.7,0.3-0.9s0.5-0.3,0.9-0.3C189.6,9.5,189.9,9.7,190.2,9.9z"/>
	<path class="st21" d="M193.4,10.4h-0.9v4.8h-0.8v-4.8h-0.9V9.6h2.7V10.4z"/>
	<path class="st21" d="M194.8,15.2h-0.8V9.6h0.8V15.2z"/>
	<path class="st21" d="M196.5,14.4h1.4v0.8h-2.3V9.6h0.8V14.4z"/>
	<path class="st21" d="M199.3,14.4h1.4v0.8h-2.3V9.6h0.8V14.4z"/>
	<path class="st21" d="M204,15.2h-0.9l-0.2-1.3H202l-0.2,1.3H201l1-5.6h1.1L204,15.2z M202.5,10.8l-0.3,2.4h0.7L202.5,10.8
		L202.5,10.8z"/>
	<path class="st21" d="M206.9,10c0.2,0.2,0.4,0.6,0.4,1.1v2.8c0,0.5-0.1,0.8-0.4,1.1c-0.2,0.2-0.6,0.4-1,0.4h-1.2V9.6h1.2
		C206.3,9.6,206.6,9.7,206.9,10z M205.5,10.4v4h0.3c0.2,0,0.4-0.1,0.4-0.2s0.1-0.3,0.1-0.5v-2.7c0-0.2,0-0.4-0.1-0.5
		c-0.1-0.1-0.2-0.2-0.4-0.2H205.5z"/>
	<path class="st21" d="M210.3,9.9c0.2,0.3,0.4,0.6,0.4,1v2.9c0,0.4-0.1,0.8-0.4,1c-0.2,0.3-0.6,0.4-1,0.4s-0.8-0.1-1-0.4
		c-0.2-0.3-0.4-0.6-0.4-1V11c0-0.4,0.1-0.8,0.4-1c0.2-0.3,0.6-0.4,1-0.4S210.1,9.7,210.3,9.9z M209,10.5c-0.1,0.1-0.1,0.3-0.1,0.5
		v2.9c0,0.2,0,0.4,0.1,0.5c0.1,0.1,0.2,0.2,0.4,0.2s0.3-0.1,0.4-0.2s0.1-0.3,0.1-0.5V11c0-0.2,0-0.4-0.1-0.5
		c-0.1-0.1-0.2-0.2-0.4-0.2S209,10.4,209,10.5z"/>
	<path class="st21" d="M220.7,12.8H219V12h1.7V12.8z"/>
</g>
<rect x="221.5" y="9.6" class="st19" width="94.2" height="9.5"/>
<g class="st20">
	<path class="st21" d="M224.2,9.9c0.2,0.2,0.4,0.6,0.4,1v0.4l-0.8,0V11c0-0.4-0.2-0.6-0.5-0.6c-0.2,0-0.3,0-0.4,0.1
		s-0.1,0.2-0.1,0.4v3.1c0,0.4,0.2,0.6,0.5,0.6c0.2,0,0.3-0.1,0.4-0.2c0.1-0.1,0.1-0.3,0.1-0.5v-1h-0.5v-0.8h1.3V14
		c0,0.4-0.1,0.8-0.4,1c-0.2,0.2-0.6,0.4-1,0.4c-0.4,0-0.7-0.1-1-0.4c-0.2-0.2-0.3-0.6-0.3-1v-3.1c0-0.4,0.1-0.8,0.3-1
		c0.2-0.2,0.6-0.4,1-0.4C223.6,9.5,223.9,9.7,224.2,9.9z"/>
	<path class="st21" d="M227.7,10.4h-1.5V12h1.2v0.8h-1.2v1.7h1.5v0.8h-2.4V9.6h2.4V10.4z"/>
	<path class="st21" d="M231.2,15.2h-0.8l-1.1-3.7h0v3.7h-0.8V9.6h0.9l1,3.3h0V9.6h0.8V15.2z"/>
	<path class="st21" d="M234.5,10.4H233V12h1.2v0.8H233v1.7h1.5v0.8h-2.4V9.6h2.4V10.4z"/>
	<path class="st21" d="M237.1,15.2l-0.7-2.4h-0.4v2.4h-0.8V9.6h1.2c0.5,0,0.8,0.1,1,0.4c0.2,0.2,0.4,0.6,0.4,1.1v0.4
		c0,0.6-0.2,1-0.6,1.2l0.8,2.6H237.1z M236.1,10.4v1.7h0.3c0.2,0,0.4-0.1,0.4-0.2c0.1-0.1,0.1-0.3,0.1-0.5v-0.3c0-0.2,0-0.4-0.1-0.5
		c-0.1-0.1-0.2-0.2-0.4-0.2H236.1z"/>
	<path class="st21" d="M241.3,15.2h-0.9l-0.2-1.3h-0.9l-0.2,1.3h-0.8l1-5.6h1.1L241.3,15.2z M239.8,10.8l-0.3,2.4h0.7L239.8,10.8
		L239.8,10.8z"/>
	<path class="st21" d="M244.1,9.9c0.2,0.2,0.3,0.6,0.3,1v0.5l-0.8,0V11c0-0.4-0.2-0.6-0.5-0.6c-0.2,0-0.3,0-0.4,0.1
		c-0.1,0.1-0.1,0.2-0.1,0.4v3.1c0,0.2,0,0.3,0.1,0.4c0.1,0.1,0.2,0.1,0.4,0.1c0.3,0,0.5-0.2,0.5-0.6v-0.6l0.8,0V14
		c0,0.4-0.1,0.8-0.3,1c-0.2,0.2-0.6,0.4-1,0.4c-0.4,0-0.7-0.1-1-0.4c-0.2-0.2-0.3-0.6-0.3-1v-3.1c0-0.4,0.1-0.8,0.3-1
		c0.2-0.2,0.5-0.4,1-0.4C243.5,9.5,243.9,9.7,244.1,9.9z"/>
	<path class="st21" d="M246,15.2h-0.8V9.6h0.8V15.2z"/>
	<path class="st21" d="M249.2,9.9c0.2,0.3,0.4,0.6,0.4,1v2.9c0,0.4-0.1,0.8-0.4,1c-0.2,0.3-0.6,0.4-1,0.4s-0.8-0.1-1-0.4
		c-0.2-0.3-0.4-0.6-0.4-1V11c0-0.4,0.1-0.8,0.4-1c0.2-0.3,0.6-0.4,1-0.4S249,9.7,249.2,9.9z M247.8,10.5c-0.1,0.1-0.1,0.3-0.1,0.5
		v2.9c0,0.2,0,0.4,0.1,0.5s0.2,0.2,0.4,0.2c0.2,0,0.3-0.1,0.4-0.2s0.1-0.3,0.1-0.5V11c0-0.2,0-0.4-0.1-0.5c-0.1-0.1-0.2-0.2-0.4-0.2
		C248,10.3,247.9,10.4,247.8,10.5z M248.4,9.3h-0.6l0.5-0.9h0.9L248.4,9.3z"/>
	<path class="st21" d="M253.2,15.2h-0.8l-1.1-3.7h0v3.7h-0.8V9.6h0.9l1,3.3h0V9.6h0.8V15.2z"/>
	<path class="st21" d="M257.9,10c0.2,0.2,0.4,0.6,0.4,1.1v2.8c0,0.5-0.1,0.8-0.4,1.1c-0.2,0.2-0.6,0.4-1,0.4h-1.2V9.6h1.2
		C257.3,9.6,257.6,9.7,257.9,10z M256.4,10.4v4h0.3c0.2,0,0.4-0.1,0.4-0.2c0.1-0.1,0.1-0.3,0.1-0.5v-2.7c0-0.2,0-0.4-0.1-0.5
		c-0.1-0.1-0.2-0.2-0.4-0.2H256.4z"/>
	<path class="st21" d="M261.4,10.4h-1.5V12h1.2v0.8h-1.2v1.7h1.5v0.8H259V9.6h2.4V10.4z"/>
	<path class="st21" d="M266.1,10.4h-1.5V12h1.2v0.8h-1.2v1.7h1.5v0.8h-2.4V9.6h2.4V10.4z"/>
	<path class="st21" d="M269.5,15.2h-0.8l-1.1-3.7h0v3.7h-0.8V9.6h0.9l1,3.3h0V9.6h0.8V15.2z"/>
	<path class="st21" d="M272.8,10.4h-1.5V12h1.2v0.8h-1.2v1.7h1.5v0.8h-2.4V9.6h2.4V10.4z"/>
	<path class="st21" d="M275.5,15.2l-0.7-2.4h-0.4v2.4h-0.8V9.6h1.2c0.5,0,0.8,0.1,1,0.4c0.2,0.2,0.4,0.6,0.4,1.1v0.4
		c0,0.6-0.2,1-0.6,1.2l0.8,2.6H275.5z M274.4,10.4v1.7h0.3c0.2,0,0.4-0.1,0.4-0.2c0.1-0.1,0.1-0.3,0.1-0.5v-0.3c0-0.2,0-0.4-0.1-0.5
		c-0.1-0.1-0.2-0.2-0.4-0.2H274.4z"/>
	<path class="st21" d="M279.2,9.9c0.2,0.2,0.4,0.6,0.4,1v0.4l-0.8,0V11c0-0.4-0.2-0.6-0.5-0.6c-0.2,0-0.3,0-0.4,0.1
		s-0.1,0.2-0.1,0.4v3.1c0,0.4,0.2,0.6,0.5,0.6c0.2,0,0.3-0.1,0.4-0.2c0.1-0.1,0.1-0.3,0.1-0.5v-1h-0.5v-0.8h1.3V14
		c0,0.4-0.1,0.8-0.4,1c-0.2,0.2-0.6,0.4-1,0.4c-0.4,0-0.7-0.1-1-0.4c-0.2-0.2-0.3-0.6-0.3-1v-3.1c0-0.4,0.1-0.8,0.3-1
		c0.2-0.2,0.6-0.4,1-0.4C278.6,9.5,278.9,9.7,279.2,9.9z"/>
	<path class="st21" d="M281.2,15.2h-0.8V9.6h0.8V15.2z M281,9.3h-0.6l0.5-0.9h0.9L281,9.3z"/>
	<path class="st21" d="M284.8,15.2h-0.9l-0.2-1.3h-0.9l-0.2,1.3h-0.8l1-5.6h1.1L284.8,15.2z M283.3,10.8l-0.3,2.4h0.7L283.3,10.8
		L283.3,10.8z"/>
</g>
<rect x="236.5" y="128.6" class="st19" width="94.2" height="9.5"/>
<g class="st20">
	<path class="st21" d="M239,128.9c0.2,0.2,0.3,0.6,0.3,1v0.3c0,0.5-0.2,0.9-0.6,1v0c0.4,0.2,0.7,0.6,0.7,1.2v0.4
		c0,0.4-0.1,0.8-0.4,1c-0.2,0.2-0.6,0.4-1,0.4s-0.8-0.1-1-0.4c-0.2-0.2-0.4-0.6-0.4-1v-0.3l0.8,0v0.3c0,0.2,0,0.4,0.1,0.5
		c0.1,0.1,0.2,0.2,0.4,0.2c0.2,0,0.3-0.1,0.4-0.2s0.1-0.3,0.1-0.5v-0.4c0-0.2,0-0.4-0.1-0.5c-0.1-0.1-0.3-0.2-0.5-0.2h-0.4v-0.8h0.4
		c0.2,0,0.3-0.1,0.4-0.2s0.1-0.3,0.1-0.5v-0.3c0-0.2,0-0.4-0.1-0.5c-0.1-0.1-0.2-0.2-0.4-0.2c-0.2,0-0.3,0.1-0.4,0.2
		c-0.1,0.1-0.1,0.3-0.1,0.5v0.3l-0.8,0v-0.3c0-0.4,0.1-0.8,0.3-1c0.2-0.2,0.6-0.4,1-0.4C238.4,128.5,238.8,128.6,239,128.9z"/>
	<path class="st21" d="M241,134.2h-0.9v-0.9h0.9V134.2z"/>
	<path class="st21" d="M245.6,128.8c0.2,0.2,0.3,0.6,0.3,1v0.5l-0.8,0v-0.5c0-0.4-0.2-0.6-0.5-0.6c-0.2,0-0.3,0-0.4,0.1
		c-0.1,0.1-0.1,0.2-0.1,0.4v3.1c0,0.2,0,0.3,0.1,0.4c0.1,0.1,0.2,0.1,0.4,0.1c0.3,0,0.5-0.2,0.5-0.6v-0.6l0.8,0v0.7
		c0,0.4-0.1,0.8-0.3,1c-0.2,0.2-0.6,0.4-1,0.4c-0.4,0-0.7-0.1-1-0.4c-0.2-0.2-0.3-0.6-0.3-1v-3.1c0-0.4,0.1-0.8,0.3-1
		c0.2-0.2,0.5-0.4,1-0.4C245.1,128.5,245.4,128.6,245.6,128.8z"/>
	<path class="st21" d="M249,128.9c0.2,0.3,0.4,0.6,0.4,1v2.9c0,0.4-0.1,0.8-0.4,1c-0.2,0.3-0.6,0.4-1,0.4s-0.8-0.1-1-0.4
		c-0.2-0.3-0.4-0.6-0.4-1v-2.9c0-0.4,0.1-0.8,0.4-1c0.2-0.3,0.6-0.4,1-0.4S248.8,128.6,249,128.9z M247.6,129.4
		c-0.1,0.1-0.1,0.3-0.1,0.5v2.9c0,0.2,0,0.4,0.1,0.5s0.2,0.2,0.4,0.2c0.2,0,0.3-0.1,0.4-0.2s0.1-0.3,0.1-0.5v-2.9
		c0-0.2,0-0.4-0.1-0.5c-0.1-0.1-0.2-0.2-0.4-0.2C247.8,129.3,247.7,129.3,247.6,129.4z"/>
	<path class="st21" d="M252.4,128.8c0.2,0.2,0.3,0.6,0.3,1v0.5l-0.8,0v-0.5c0-0.4-0.2-0.6-0.5-0.6c-0.2,0-0.3,0-0.4,0.1
		s-0.1,0.2-0.1,0.4v3.1c0,0.2,0,0.3,0.1,0.4c0.1,0.1,0.2,0.1,0.4,0.1c0.3,0,0.5-0.2,0.5-0.6v-0.6l0.8,0v0.7c0,0.4-0.1,0.8-0.3,1
		c-0.2,0.2-0.6,0.4-1,0.4c-0.4,0-0.7-0.1-1-0.4c-0.2-0.2-0.3-0.6-0.3-1v-3.1c0-0.4,0.1-0.8,0.3-1c0.2-0.2,0.5-0.4,1-0.4
		C251.8,128.5,252.1,128.6,252.4,128.8z"/>
	<path class="st21" d="M255.6,128.8c0.2,0.2,0.3,0.6,0.3,1v0.5l-0.8,0v-0.5c0-0.4-0.2-0.6-0.5-0.6c-0.2,0-0.3,0-0.4,0.1
		s-0.1,0.2-0.1,0.4v3.1c0,0.2,0,0.3,0.1,0.4c0.1,0.1,0.2,0.1,0.4,0.1c0.3,0,0.5-0.2,0.5-0.6v-0.6l0.8,0v0.7c0,0.4-0.1,0.8-0.3,1
		c-0.2,0.2-0.6,0.4-1,0.4c-0.4,0-0.7-0.1-1-0.4c-0.2-0.2-0.3-0.6-0.3-1v-3.1c0-0.4,0.1-0.8,0.3-1c0.2-0.2,0.5-0.4,1-0.4
		C255.1,128.5,255.4,128.6,255.6,128.8z"/>
	<path class="st21" d="M257.6,134.2h-0.8v-5.6h0.8V134.2z"/>
	<path class="st21" d="M260.8,128.9c0.2,0.3,0.4,0.6,0.4,1v2.9c0,0.4-0.1,0.8-0.4,1c-0.2,0.3-0.6,0.4-1,0.4s-0.8-0.1-1-0.4
		c-0.2-0.3-0.4-0.6-0.4-1v-2.9c0-0.4,0.1-0.8,0.4-1c0.2-0.3,0.6-0.4,1-0.4S260.5,128.6,260.8,128.9z M259.4,129.4
		c-0.1,0.1-0.1,0.3-0.1,0.5v2.9c0,0.2,0,0.4,0.1,0.5s0.2,0.2,0.4,0.2c0.2,0,0.3-0.1,0.4-0.2s0.1-0.3,0.1-0.5v-2.9
		c0-0.2,0-0.4-0.1-0.5c-0.1-0.1-0.2-0.2-0.4-0.2C259.6,129.3,259.5,129.3,259.4,129.4z M260,128.2h-0.6l0.5-0.9h0.9L260,128.2z"/>
	<path class="st21" d="M264.7,134.2h-0.8l-1.1-3.7h0v3.7h-0.8v-5.6h0.9l1,3.3h0v-3.3h0.8V134.2z"/>
</g>
<rect x="167.9" y="128.6" class="st19" width="94.2" height="9.5"/>
<g class="st20">
	<path class="st21" d="M170.6,132.2h0.4v0.8h-0.4v1.2h-0.8V133H168v-0.7l1.8-3.7h0.8V132.2z M169.8,130.2l-0.9,2h0.9L169.8,130.2
		L169.8,130.2z"/>
	<path class="st21" d="M172.6,134.2h-0.9v-0.9h0.9V134.2z"/>
	<path class="st21" d="M175.8,133.4h1.4v0.8H175v-5.6h0.8V133.4z"/>
	<path class="st21" d="M180.5,134.2h-0.9l-0.2-1.3h-0.9l-0.2,1.3h-0.8l1-5.6h1.1L180.5,134.2z M179,129.8l-0.3,2.4h0.7L179,129.8
		L179,129.8z"/>
	<path class="st21" d="M182.7,134.2h-1.1l-0.9-5.6h0.9l0.6,4.3h0l0.6-4.3h0.8L182.7,134.2z"/>
	<path class="st21" d="M186.7,134.2h-0.9l-0.2-1.3h-0.9l-0.2,1.3h-0.8l1-5.6h1.1L186.7,134.2z M185.2,129.8l-0.3,2.4h0.7
		L185.2,129.8L185.2,129.8z"/>
	<path class="st21" d="M189.6,128.9c0.2,0.2,0.4,0.6,0.4,1.1v2.8c0,0.5-0.1,0.8-0.4,1.1c-0.2,0.2-0.6,0.4-1,0.4h-1.2v-5.6h1.2
		C189,128.6,189.4,128.7,189.6,128.9z M188.2,129.4v4h0.3c0.2,0,0.4-0.1,0.4-0.2s0.1-0.3,0.1-0.5V130c0-0.2,0-0.4-0.1-0.5
		c-0.1-0.1-0.2-0.2-0.4-0.2H188.2z"/>
	<path class="st21" d="M193.1,128.9c0.2,0.3,0.4,0.6,0.4,1v2.9c0,0.4-0.1,0.8-0.4,1c-0.2,0.3-0.6,0.4-1,0.4s-0.8-0.1-1-0.4
		c-0.2-0.3-0.4-0.6-0.4-1v-2.9c0-0.4,0.1-0.8,0.4-1c0.2-0.3,0.6-0.4,1-0.4S192.8,128.6,193.1,128.9z M191.7,129.4
		c-0.1,0.1-0.1,0.3-0.1,0.5v2.9c0,0.2,0,0.4,0.1,0.5s0.2,0.2,0.4,0.2c0.2,0,0.3-0.1,0.4-0.2s0.1-0.3,0.1-0.5v-2.9
		c0-0.2,0-0.4-0.1-0.5c-0.1-0.1-0.2-0.2-0.4-0.2C191.9,129.3,191.8,129.3,191.7,129.4z"/>
</g>
<rect x="96.4" y="128.6" class="st19" width="94.2" height="9.5"/>
<g class="st20">
	<path class="st21" d="M97,133.9c-0.2-0.2-0.4-0.6-0.4-1v-0.2l0.8,0v0.2c0,0.4,0.2,0.7,0.5,0.7c0.2,0,0.3-0.1,0.4-0.2
		c0.1-0.1,0.1-0.3,0.1-0.5v-0.9c0-0.2,0-0.4-0.1-0.5c-0.1-0.1-0.2-0.2-0.4-0.2c-0.1,0-0.3,0-0.3,0.1c-0.1,0.1-0.1,0.2-0.2,0.3l0,0.1
		l-0.8,0l0.2-3.2h2.3v0.8h-1.5l-0.1,1.3h0c0.1-0.2,0.4-0.2,0.7-0.2c0.4,0,0.6,0.1,0.8,0.4s0.3,0.6,0.3,1v1.1c0,0.4-0.1,0.8-0.4,1
		c-0.2,0.2-0.6,0.4-1,0.4C97.6,134.2,97.2,134.1,97,133.9z"/>
	<path class="st21" d="M100.9,134.2H100v-0.9h0.9V134.2z"/>
	<path class="st21" d="M105.2,128.8c0.2,0.2,0.3,0.5,0.3,0.9v0.1l-0.8,0.1v-0.2c0-0.2,0-0.3-0.1-0.4c-0.1-0.1-0.2-0.1-0.3-0.1
		s-0.2,0-0.3,0.1c-0.1,0.1-0.1,0.2-0.1,0.4v0.1c0,0.2,0.1,0.3,0.2,0.5c0.1,0.2,0.3,0.4,0.6,0.6c0.4,0.3,0.7,0.6,0.8,0.9
		c0.2,0.3,0.2,0.6,0.2,0.9v0.3c0,0.4-0.1,0.7-0.3,0.9c-0.2,0.2-0.6,0.3-1,0.3s-0.7-0.1-1-0.3s-0.3-0.5-0.3-0.9v-0.4l0.8-0.1v0.4
		c0,0.4,0.2,0.5,0.5,0.5s0.5-0.2,0.5-0.5v-0.2c0-0.2-0.1-0.4-0.2-0.5c-0.1-0.2-0.3-0.4-0.6-0.6c-0.4-0.3-0.7-0.6-0.8-0.9
		s-0.2-0.6-0.2-0.9v-0.1c0-0.4,0.1-0.7,0.3-0.9c0.2-0.2,0.5-0.3,0.9-0.3C104.7,128.5,105,128.6,105.2,128.8z"/>
	<path class="st21" d="M108.5,129.4H107v1.6h1.2v0.8H107v1.7h1.5v0.8h-2.4v-5.6h2.4V129.4z"/>
	<path class="st21" d="M111.4,128.8c0.2,0.2,0.3,0.6,0.3,1v0.5l-0.8,0v-0.5c0-0.4-0.2-0.6-0.5-0.6c-0.2,0-0.3,0-0.4,0.1
		c-0.1,0.1-0.1,0.2-0.1,0.4v3.1c0,0.2,0,0.3,0.1,0.4c0.1,0.1,0.2,0.1,0.4,0.1c0.3,0,0.5-0.2,0.5-0.6v-0.6l0.8,0v0.7
		c0,0.4-0.1,0.8-0.3,1s-0.6,0.4-1,0.4c-0.4,0-0.7-0.1-1-0.4c-0.2-0.2-0.3-0.6-0.3-1v-3.1c0-0.4,0.1-0.8,0.3-1c0.2-0.2,0.5-0.4,1-0.4
		C110.9,128.5,111.2,128.6,111.4,128.8z"/>
	<path class="st21" d="M115.2,134.2h-0.9l-0.2-1.3h-0.9l-0.2,1.3h-0.8l1-5.6h1.1L115.2,134.2z M113.7,129.8l-0.3,2.4h0.7
		L113.7,129.8L113.7,129.8z"/>
	<path class="st21" d="M118.1,128.9c0.2,0.2,0.4,0.6,0.4,1.1v2.8c0,0.5-0.1,0.8-0.4,1.1c-0.2,0.2-0.6,0.4-1,0.4h-1.2v-5.6h1.2
		C117.5,128.6,117.8,128.7,118.1,128.9z M116.7,129.4v4h0.3c0.2,0,0.4-0.1,0.4-0.2c0.1-0.1,0.1-0.3,0.1-0.5V130c0-0.2,0-0.4-0.1-0.5
		c-0.1-0.1-0.2-0.2-0.4-0.2H116.7z"/>
	<path class="st21" d="M121.5,128.9c0.2,0.3,0.4,0.6,0.4,1v2.9c0,0.4-0.1,0.8-0.4,1c-0.2,0.3-0.6,0.4-1,0.4s-0.8-0.1-1-0.4
		c-0.2-0.3-0.4-0.6-0.4-1v-2.9c0-0.4,0.1-0.8,0.4-1c0.2-0.3,0.6-0.4,1-0.4S121.3,128.6,121.5,128.9z M120.1,129.4
		c-0.1,0.1-0.1,0.3-0.1,0.5v2.9c0,0.2,0,0.4,0.1,0.5c0.1,0.1,0.2,0.2,0.4,0.2c0.2,0,0.3-0.1,0.4-0.2s0.1-0.3,0.1-0.5v-2.9
		c0-0.2,0-0.4-0.1-0.5c-0.1-0.1-0.2-0.2-0.4-0.2C120.4,129.3,120.2,129.3,120.1,129.4z"/>
</g>
<rect x="24.6" y="128.6" class="st19" width="94.2" height="9.5"/>
<g class="st20">
	<path class="st21" d="M27.3,128.8c0.2,0.2,0.3,0.6,0.3,1v0.2l-0.8,0v-0.2c0-0.2,0-0.4-0.1-0.5s-0.2-0.2-0.4-0.2
		c-0.3,0-0.5,0.2-0.5,0.6v1.2h0c0.1-0.1,0.2-0.2,0.3-0.2c0.1-0.1,0.3-0.1,0.4-0.1c0.3,0,0.6,0.1,0.8,0.4c0.2,0.2,0.3,0.6,0.3,1v0.8
		c0,0.4-0.1,0.8-0.4,1c-0.2,0.3-0.6,0.4-1,0.4c-0.4,0-0.7-0.1-1-0.4c-0.2-0.3-0.4-0.6-0.4-1v-3c0-0.4,0.1-0.8,0.4-1
		c0.2-0.2,0.6-0.4,1-0.4S27.1,128.6,27.3,128.8z M26,131.7c-0.1,0.1-0.1,0.3-0.1,0.5v0.7c0,0.2,0,0.4,0.1,0.5
		c0.1,0.1,0.2,0.2,0.4,0.2c0.2,0,0.3-0.1,0.4-0.2s0.1-0.3,0.1-0.5v-0.7c0-0.2,0-0.4-0.1-0.5s-0.2-0.2-0.4-0.2
		C26.2,131.5,26.1,131.5,26,131.7z"/>
	<path class="st21" d="M29.4,134.2h-0.9v-0.9h0.9V134.2z"/>
	<path class="st21" d="M34.2,129.4h-1.5v1.6h1.2v0.8h-1.2v1.7h1.5v0.8h-2.4v-5.6h2.4V129.4z"/>
	<path class="st21" d="M36.6,131.3l1.1,2.9h-0.9l-0.7-2h0l-0.7,2h-0.9l1.1-2.9l-1-2.7h0.9l0.6,1.8h0l0.6-1.8h0.9L36.6,131.3z"/>
	<path class="st21" d="M40.5,128.9c0.2,0.2,0.4,0.6,0.4,1.1v0.4c0,0.5-0.1,0.8-0.4,1.1c-0.2,0.2-0.6,0.4-1,0.4H39v2.3h-0.8v-5.6h1.2
		C39.9,128.6,40.2,128.7,40.5,128.9z M39,129.4v1.7h0.3c0.2,0,0.4-0.1,0.4-0.2c0.1-0.1,0.1-0.3,0.1-0.5V130c0-0.2,0-0.4-0.1-0.5
		c-0.1-0.1-0.2-0.2-0.4-0.2H39z"/>
	<path class="st21" d="M43.8,128.9c0.2,0.3,0.4,0.6,0.4,1v2.9c0,0.4-0.1,0.8-0.4,1c-0.2,0.3-0.6,0.4-1,0.4s-0.8-0.1-1-0.4
		c-0.2-0.3-0.4-0.6-0.4-1v-2.9c0-0.4,0.1-0.8,0.4-1c0.2-0.3,0.6-0.4,1-0.4S43.5,128.6,43.8,128.9z M42.4,129.4
		c-0.1,0.1-0.1,0.3-0.1,0.5v2.9c0,0.2,0,0.4,0.1,0.5c0.1,0.1,0.2,0.2,0.4,0.2c0.2,0,0.3-0.1,0.4-0.2s0.1-0.3,0.1-0.5v-2.9
		c0-0.2,0-0.4-0.1-0.5c-0.1-0.1-0.2-0.2-0.4-0.2C42.6,129.3,42.5,129.3,42.4,129.4z"/>
	<path class="st21" d="M46.9,134.2l-0.7-2.4h-0.4v2.4H45v-5.6h1.2c0.5,0,0.8,0.1,1,0.4c0.2,0.2,0.4,0.6,0.4,1.1v0.4
		c0,0.6-0.2,1-0.6,1.2l0.8,2.6H46.9z M45.8,129.4v1.7h0.3c0.2,0,0.4-0.1,0.4-0.2c0.1-0.1,0.1-0.3,0.1-0.5V130c0-0.2,0-0.4-0.1-0.5
		c-0.1-0.1-0.2-0.2-0.4-0.2H45.8z"/>
	<path class="st21" d="M50.6,129.4h-0.9v4.8h-0.8v-4.8H48v-0.8h2.7V129.4z"/>
	<path class="st21" d="M53.6,134.2h-0.9l-0.2-1.3h-0.9l-0.2,1.3h-0.8l1-5.6h1.1L53.6,134.2z M52.1,129.8l-0.3,2.4h0.7L52.1,129.8
		L52.1,129.8z"/>
	<path class="st21" d="M56.3,128.8c0.2,0.2,0.3,0.6,0.3,1v0.5l-0.8,0v-0.5c0-0.4-0.2-0.6-0.5-0.6c-0.2,0-0.3,0-0.4,0.1
		c-0.1,0.1-0.1,0.2-0.1,0.4v3.1c0,0.2,0,0.3,0.1,0.4c0.1,0.1,0.2,0.1,0.4,0.1c0.3,0,0.5-0.2,0.5-0.6v-0.6l0.8,0v0.7
		c0,0.4-0.1,0.8-0.3,1s-0.6,0.4-1,0.4c-0.4,0-0.7-0.1-1-0.4c-0.2-0.2-0.3-0.6-0.3-1v-3.1c0-0.4,0.1-0.8,0.3-1c0.2-0.2,0.5-0.4,1-0.4
		C55.8,128.5,56.1,128.6,56.3,128.8z"/>
	<path class="st21" d="M58.3,134.2h-0.8v-5.6h0.8V134.2z"/>
	<path class="st21" d="M61.5,128.9c0.2,0.3,0.4,0.6,0.4,1v2.9c0,0.4-0.1,0.8-0.4,1c-0.2,0.3-0.6,0.4-1,0.4s-0.8-0.1-1-0.4
		c-0.2-0.3-0.4-0.6-0.4-1v-2.9c0-0.4,0.1-0.8,0.4-1c0.2-0.3,0.6-0.4,1-0.4S61.2,128.6,61.5,128.9z M60.1,129.4
		c-0.1,0.1-0.1,0.3-0.1,0.5v2.9c0,0.2,0,0.4,0.1,0.5c0.1,0.1,0.2,0.2,0.4,0.2c0.2,0,0.3-0.1,0.4-0.2s0.1-0.3,0.1-0.5v-2.9
		c0-0.2,0-0.4-0.1-0.5c-0.1-0.1-0.2-0.2-0.4-0.2C60.3,129.3,60.1,129.3,60.1,129.4z M60.7,128.2H60l0.5-0.9h0.9L60.7,128.2z"/>
	<path class="st21" d="M65.4,134.2h-0.8l-1.1-3.7h0v3.7h-0.8v-5.6h0.9l1,3.3h0v-3.3h0.8V134.2z"/>
</g>
<g>
	<path class="st0" d="M229.4,77.1h-159c-3.7,0-6.6-3-6.6-6.6l0,0c0-3.7,3-6.6,6.6-6.6h159.1c3.7,0,6.6,3,6.6,6.6l0,0
		C236.1,74.2,233.1,77.1,229.4,77.1z"/>
	<g class="st20">
		<path d="M71.6,67.6c0.4,0.4,0.5,0.9,0.5,1.6v0.7c0,0.7-0.2,1.2-0.5,1.6c-0.4,0.4-0.9,0.5-1.6,0.5h-0.6v3.5h-1.3v-8.4h1.8
			C70.8,67.1,71.3,67.3,71.6,67.6z M69.5,68.2v2.6H70c0.3,0,0.5-0.1,0.7-0.3s0.2-0.4,0.2-0.8v-0.5c0-0.4-0.1-0.6-0.2-0.8
			s-0.4-0.3-0.7-0.3H69.5z"/>
		<path d="M76,75.5l-1-3.6h-0.6v3.6h-1.3v-8.4H75c0.7,0,1.2,0.2,1.6,0.5c0.4,0.4,0.5,0.9,0.5,1.6v0.6c0,0.9-0.3,1.5-0.9,1.8l1.2,3.8
			H76z M74.4,68.2v2.5h0.5c0.3,0,0.5-0.1,0.7-0.3c0.1-0.2,0.2-0.4,0.2-0.8v-0.4c0-0.4-0.1-0.6-0.2-0.8s-0.4-0.3-0.7-0.3H74.4z"/>
		<path d="M81.7,67.5c0.4,0.4,0.5,0.9,0.5,1.6v4.4c0,0.7-0.2,1.2-0.5,1.6c-0.4,0.4-0.9,0.6-1.5,0.6S79,75.4,78.7,75
			c-0.4-0.4-0.5-0.9-0.5-1.6v-4.4c0-0.7,0.2-1.2,0.5-1.6c0.4-0.4,0.9-0.6,1.5-0.6S81.3,67.1,81.7,67.5z M79.6,68.4
			c-0.1,0.2-0.2,0.4-0.2,0.7v4.4c0,0.3,0.1,0.5,0.2,0.7s0.3,0.2,0.6,0.2c0.3,0,0.5-0.1,0.6-0.2s0.2-0.4,0.2-0.7v-4.4
			c0-0.3-0.1-0.5-0.2-0.7s-0.3-0.2-0.6-0.2C79.9,68.1,79.7,68.2,79.6,68.4z"/>
		<path d="M86.7,67.5c0.3,0.4,0.5,0.9,0.5,1.5v0.8L86,69.8v-0.7c0-0.6-0.2-1-0.7-1c-0.2,0-0.4,0.1-0.5,0.2c-0.1,0.1-0.2,0.4-0.2,0.6
			v4.6c0,0.3,0.1,0.5,0.2,0.6c0.1,0.1,0.3,0.2,0.5,0.2c0.5,0,0.7-0.3,0.7-1v-0.9l1.2,0.1v1c0,0.6-0.2,1.1-0.5,1.5
			c-0.3,0.4-0.8,0.5-1.5,0.5c-0.6,0-1.1-0.2-1.4-0.5c-0.3-0.4-0.5-0.8-0.5-1.5V69c0-0.6,0.2-1.1,0.5-1.5c0.3-0.4,0.8-0.5,1.4-0.5
			C85.9,66.9,86.4,67.1,86.7,67.5z"/>
		<path d="M91.9,68.2h-2.3v2.4h1.9v1.2h-1.9v2.5h2.3v1.2h-3.6v-8.4h3.6V68.2z"/>
		<path d="M95.9,67.4c0.3,0.3,0.5,0.8,0.5,1.4V69l-1.2,0.1v-0.3c0-0.2-0.1-0.4-0.2-0.5c-0.1-0.1-0.3-0.2-0.5-0.2s-0.4,0.1-0.5,0.2
			c-0.1,0.1-0.2,0.3-0.2,0.5V69c0,0.3,0.1,0.5,0.2,0.8s0.4,0.5,0.8,0.9c0.6,0.5,1,0.9,1.2,1.3c0.2,0.4,0.4,0.8,0.4,1.3v0.4
			c0,0.6-0.2,1.1-0.5,1.4c-0.3,0.3-0.8,0.5-1.5,0.5c-0.6,0-1.1-0.2-1.5-0.5c-0.3-0.3-0.5-0.8-0.5-1.4v-0.6l1.2-0.1v0.6
			c0,0.5,0.2,0.8,0.7,0.8s0.7-0.3,0.7-0.8v-0.3c0-0.3-0.1-0.5-0.2-0.8c-0.2-0.2-0.4-0.5-0.9-0.9c-0.6-0.5-1-0.9-1.2-1.3
			c-0.2-0.4-0.3-0.8-0.3-1.3v-0.2c0-0.6,0.2-1.1,0.5-1.4c0.3-0.3,0.8-0.5,1.4-0.5S95.5,67.1,95.9,67.4z"/>
		<path d="M100.8,67.5c0.4,0.4,0.5,0.9,0.5,1.6v4.4c0,0.7-0.2,1.2-0.5,1.6c-0.4,0.4-0.9,0.6-1.5,0.6s-1.1-0.2-1.5-0.6
			c-0.4-0.4-0.5-0.9-0.5-1.6v-4.4c0-0.7,0.2-1.2,0.5-1.6c0.4-0.4,0.9-0.6,1.5-0.6S100.4,67.1,100.8,67.5z M98.7,68.4
			c-0.1,0.2-0.2,0.4-0.2,0.7v4.4c0,0.3,0.1,0.5,0.2,0.7s0.3,0.2,0.6,0.2c0.3,0,0.5-0.1,0.6-0.2s0.2-0.4,0.2-0.7v-4.4
			c0-0.3-0.1-0.5-0.2-0.7s-0.3-0.2-0.6-0.2C99,68.1,98.8,68.2,98.7,68.4z"/>
		<path d="M108.2,67.6c0.4,0.4,0.5,0.9,0.5,1.6v4.2c0,0.7-0.2,1.2-0.5,1.6c-0.4,0.4-0.9,0.5-1.6,0.5h-1.8v-8.4h1.8
			C107.3,67.1,107.9,67.3,108.2,67.6z M106.1,68.2v6h0.5c0.3,0,0.5-0.1,0.7-0.3s0.2-0.4,0.2-0.8v-4c0-0.4-0.1-0.6-0.2-0.8
			s-0.4-0.3-0.7-0.3H106.1z"/>
		<path d="M113.6,68.2h-2.3v2.4h1.9v1.2h-1.9v2.5h2.3v1.2H110v-8.4h3.6V68.2z"/>
		<path d="M120.5,68.2h-2.3v2.4h1.9v1.2h-1.9v2.5h2.3v1.2h-3.6v-8.4h3.6V68.2z"/>
		<path d="M122.9,74.3h2.1v1.2h-3.4v-8.4h1.3V74.3z"/>
		<path d="M129.9,75.5h-1.3l-0.3-1.9h-1.4l-0.3,1.9h-1.3l1.5-8.4h1.6L129.9,75.5z M127.6,68.9l-0.5,3.5h1.1L127.6,68.9L127.6,68.9z"
			/>
		<path d="M134.1,67.6c0.3,0.4,0.5,0.9,0.5,1.6v0.2c0,0.5-0.1,0.8-0.2,1.1c-0.2,0.3-0.4,0.5-0.7,0.6v0c0.4,0.1,0.7,0.3,0.9,0.7
			c0.2,0.3,0.3,0.8,0.3,1.3v0.3c0,0.7-0.2,1.2-0.5,1.6c-0.4,0.4-0.9,0.5-1.6,0.5h-1.9v-8.4h1.8C133.2,67.1,133.7,67.3,134.1,67.6z
			 M132,68.2v2.3h0.4c0.3,0,0.5-0.1,0.7-0.2c0.1-0.2,0.2-0.4,0.2-0.8v-0.3c0-0.3-0.1-0.6-0.2-0.8c-0.1-0.2-0.3-0.2-0.6-0.2H132z
			 M132,71.7v2.6h0.6c0.3,0,0.5-0.1,0.7-0.3s0.2-0.4,0.2-0.8v-0.5c0-0.4-0.1-0.7-0.2-0.8s-0.4-0.3-0.7-0.3H132z"/>
		<path d="M139.2,67.5c0.4,0.4,0.5,0.9,0.5,1.6v4.4c0,0.7-0.2,1.2-0.5,1.6c-0.4,0.4-0.9,0.6-1.5,0.6s-1.1-0.2-1.5-0.6
			c-0.4-0.4-0.5-0.9-0.5-1.6v-4.4c0-0.7,0.2-1.2,0.5-1.6c0.4-0.4,0.9-0.6,1.5-0.6S138.8,67.1,139.2,67.5z M137.1,68.4
			c-0.1,0.2-0.2,0.4-0.2,0.7v4.4c0,0.3,0.1,0.5,0.2,0.7s0.3,0.2,0.6,0.2c0.3,0,0.5-0.1,0.6-0.2s0.2-0.4,0.2-0.7v-4.4
			c0-0.3-0.1-0.5-0.2-0.7s-0.3-0.2-0.6-0.2C137.4,68.1,137.3,68.2,137.1,68.4z"/>
		<path d="M143.9,75.5l-1-3.6h-0.6v3.6H141v-8.4h1.8c0.7,0,1.2,0.2,1.6,0.5c0.4,0.4,0.5,0.9,0.5,1.6v0.6c0,0.9-0.3,1.5-0.9,1.8
			l1.2,3.8H143.9z M142.3,68.2v2.5h0.5c0.3,0,0.5-0.1,0.7-0.3c0.1-0.2,0.2-0.4,0.2-0.8v-0.4c0-0.4-0.1-0.6-0.2-0.8s-0.4-0.3-0.7-0.3
			H142.3z"/>
		<path d="M150.2,75.5h-1.3l-0.3-1.9h-1.4l-0.3,1.9h-1.3l1.5-8.4h1.6L150.2,75.5z M147.9,68.9l-0.5,3.5h1.1L147.9,68.9L147.9,68.9z"
			/>
		<path d="M154.3,67.5c0.3,0.4,0.5,0.9,0.5,1.5v0.8l-1.2,0.1v-0.7c0-0.6-0.2-1-0.7-1c-0.2,0-0.4,0.1-0.5,0.2
			c-0.1,0.1-0.2,0.4-0.2,0.6v4.6c0,0.3,0.1,0.5,0.2,0.6c0.1,0.1,0.3,0.2,0.5,0.2c0.5,0,0.7-0.3,0.7-1v-0.9l1.2,0.1v1
			c0,0.6-0.2,1.1-0.5,1.5c-0.3,0.4-0.8,0.5-1.5,0.5c-0.6,0-1.1-0.2-1.4-0.5c-0.3-0.4-0.5-0.8-0.5-1.5V69c0-0.6,0.2-1.1,0.5-1.5
			c0.3-0.4,0.8-0.5,1.4-0.5C153.5,66.9,154,67.1,154.3,67.5z"/>
		<path d="M157.2,75.5h-1.3v-8.4h1.3V75.5z"/>
		<path d="M162,67.5c0.4,0.4,0.5,0.9,0.5,1.6v4.4c0,0.7-0.2,1.2-0.5,1.6c-0.4,0.4-0.9,0.6-1.5,0.6c-0.6,0-1.1-0.2-1.5-0.6
			c-0.4-0.4-0.5-0.9-0.5-1.6v-4.4c0-0.7,0.2-1.2,0.5-1.6s0.9-0.6,1.5-0.6C161.1,66.9,161.6,67.1,162,67.5z M159.9,68.4
			c-0.1,0.2-0.2,0.4-0.2,0.7v4.4c0,0.3,0.1,0.5,0.2,0.7s0.3,0.2,0.6,0.2s0.5-0.1,0.6-0.2s0.2-0.4,0.2-0.7v-4.4
			c0-0.3-0.1-0.5-0.2-0.7s-0.3-0.2-0.6-0.2S160,68.2,159.9,68.4z M160.8,66.6h-0.9l0.7-1.3h1.3L160.8,66.6z"/>
		<path d="M167.9,75.5h-1.2l-1.7-5.6h0v5.6h-1.2v-8.4h1.4l1.5,5h0v-5h1.2V75.5z"/>
		<path d="M175,67.6c0.4,0.4,0.5,0.9,0.5,1.6v4.2c0,0.7-0.2,1.2-0.5,1.6c-0.4,0.4-0.9,0.5-1.6,0.5h-1.8v-8.4h1.8
			C174.1,67.1,174.6,67.3,175,67.6z M172.8,68.2v6h0.5c0.3,0,0.5-0.1,0.7-0.3c0.1-0.2,0.2-0.4,0.2-0.8v-4c0-0.4-0.1-0.6-0.2-0.8
			c-0.1-0.2-0.4-0.3-0.7-0.3H172.8z"/>
		<path d="M180.3,68.2H178v2.4h1.9v1.2H178v2.5h2.3v1.2h-3.6v-8.4h3.6V68.2z"/>
		<path d="M184.9,74.3h2.1v1.2h-3.4v-8.4h1.3V74.3z"/>
		<path d="M192,75.5h-1.3l-0.3-1.9H189l-0.3,1.9h-1.3l1.5-8.4h1.6L192,75.5z M189.7,68.9l-0.5,3.5h1.1L189.7,68.9L189.7,68.9z"/>
		<path d="M198.3,67.5c0.3,0.4,0.5,0.9,0.5,1.5v0.8l-1.2,0.1v-0.7c0-0.6-0.2-1-0.7-1c-0.2,0-0.4,0.1-0.5,0.2
			c-0.1,0.1-0.2,0.4-0.2,0.6v4.6c0,0.3,0.1,0.5,0.2,0.6c0.1,0.1,0.3,0.2,0.5,0.2c0.5,0,0.7-0.3,0.7-1v-0.9l1.2,0.1v1
			c0,0.6-0.2,1.1-0.5,1.5c-0.3,0.4-0.8,0.5-1.5,0.5c-0.6,0-1.1-0.2-1.4-0.5c-0.3-0.4-0.5-0.8-0.5-1.5V69c0-0.6,0.2-1.1,0.5-1.5
			c0.3-0.4,0.8-0.5,1.4-0.5C197.5,66.9,198,67.1,198.3,67.5z"/>
		<path d="M203.5,68.2h-2.3v2.4h1.9v1.2h-1.9v2.5h2.3v1.2h-3.6v-8.4h3.6V68.2z"/>
		<path d="M205.8,74.3h2.1v1.2h-3.4v-8.4h1.3V74.3z"/>
		<path d="M212.6,73.6c0,0.6-0.2,1.1-0.5,1.5c-0.3,0.3-0.8,0.5-1.5,0.5c-0.6,0-1.1-0.2-1.4-0.5c-0.3-0.3-0.5-0.8-0.5-1.5v-6.5h1.2
			v6.5c0,0.6,0.2,0.8,0.7,0.8c0.5,0,0.7-0.3,0.7-0.8v-6.5h1.3V73.6z"/>
		<path d="M215.2,74.3h2.1v1.2h-3.4v-8.4h1.3V74.3z"/>
		<path d="M221.6,67.5c0.4,0.4,0.5,0.9,0.5,1.6v4.4c0,0.7-0.2,1.2-0.5,1.6c-0.4,0.4-0.9,0.6-1.5,0.6c-0.6,0-1.1-0.2-1.5-0.6
			c-0.4-0.4-0.5-0.9-0.5-1.6v-4.4c0-0.7,0.2-1.2,0.5-1.6c0.4-0.4,0.9-0.6,1.5-0.6C220.7,66.9,221.2,67.1,221.6,67.5z M219.5,68.4
			c-0.1,0.2-0.2,0.4-0.2,0.7v4.4c0,0.3,0.1,0.5,0.2,0.7c0.1,0.2,0.3,0.2,0.6,0.2c0.3,0,0.5-0.1,0.6-0.2c0.1-0.2,0.2-0.4,0.2-0.7
			v-4.4c0-0.3-0.1-0.5-0.2-0.7c-0.1-0.2-0.3-0.2-0.6-0.2C219.8,68.1,219.6,68.2,219.5,68.4z"/>
		<path d="M226.3,67.4c0.3,0.3,0.5,0.8,0.5,1.4V69l-1.2,0.1v-0.3c0-0.2-0.1-0.4-0.2-0.5s-0.3-0.2-0.5-0.2s-0.4,0.1-0.5,0.2
			s-0.2,0.3-0.2,0.5V69c0,0.3,0.1,0.5,0.2,0.8c0.2,0.2,0.4,0.5,0.8,0.9c0.6,0.5,1,0.9,1.2,1.3c0.2,0.4,0.4,0.8,0.4,1.3v0.4
			c0,0.6-0.2,1.1-0.5,1.4c-0.3,0.3-0.8,0.5-1.5,0.5s-1.1-0.2-1.5-0.5c-0.3-0.3-0.5-0.8-0.5-1.4v-0.6l1.2-0.1v0.6
			c0,0.5,0.2,0.8,0.7,0.8c0.5,0,0.7-0.3,0.7-0.8v-0.3c0-0.3-0.1-0.5-0.2-0.8c-0.2-0.2-0.4-0.5-0.9-0.9c-0.6-0.5-1-0.9-1.2-1.3
			c-0.2-0.4-0.3-0.8-0.3-1.3v-0.2c0-0.6,0.2-1.1,0.5-1.4c0.3-0.3,0.8-0.5,1.4-0.5S225.9,67.1,226.3,67.4z"/>
		<path d="M231.8,75.5h-1.3l-0.3-1.9h-1.4l-0.3,1.9h-1.3l1.5-8.4h1.6L231.8,75.5z M229.5,68.9l-0.5,3.5h1.1L229.5,68.9L229.5,68.9z"
			/>
	</g>
</g>
</svg>
