<svg width="2161" height="1210" xmlns="http://www.w3.org/2000/svg" xmlns:xlink="http://www.w3.org/1999/xlink" xml:space="preserve" overflow="hidden"><defs><clipPath id="clip0"><rect x="804" y="-1" width="2161" height="1210"/></clipPath><clipPath id="clip1"><path d="M601.724 1124.74 1151.64 574.822 1183.29 606.469 633.371 1156.39Z" fill-rule="evenodd" clip-rule="evenodd"/></clipPath><clipPath id="clip2"><path d="M226.127 1646.35 1705.96 166.516 1737.6 198.164 257.775 1677.99Z" fill-rule="evenodd" clip-rule="evenodd"/></clipPath><clipPath id="clip3"><path d="M357.231 1661.25 1863.15 155.335 1894.8 186.982 388.878 1692.9Z" fill-rule="evenodd" clip-rule="evenodd"/></clipPath><clipPath id="clip4"><path d="M357.231 1661.25 1863.15 155.335 1894.8 186.982 388.878 1692.9Z" fill-rule="evenodd" clip-rule="evenodd"/></clipPath><clipPath id="clip5"><path d="M-17.2476 2181.74 2399.53-235.032 2431.18-203.385 14.3999 2213.39Z" fill-rule="evenodd" clip-rule="evenodd"/></clipPath><clipPath id="clip6"><path d="M1075.17 1235.33 1835.73 474.774 1867.38 506.422 1106.82 1266.98Z" fill-rule="evenodd" clip-rule="evenodd"/></clipPath><clipPath id="clip7"><path d="M797.208 1659.31 2299.72 156.793 2331.37 188.441 828.856 1690.96Z" fill-rule="evenodd" clip-rule="evenodd"/></clipPath><clipPath id="clip8"><path d="M1135.66 1466.87 2301.4 301.127 2333.05 332.774 1167.31 1498.51Z" fill-rule="evenodd" clip-rule="evenodd"/></clipPath><clipPath id="clip9"><path d="M1371.9 1376.64 2379.74 368.797 2411.39 400.445 1403.55 1408.29Z" fill-rule="evenodd" clip-rule="evenodd"/></clipPath><clipPath id="clip10"><path d="M1734.41 1160.15 2363.39 531.166 2395.03 562.814 1766.05 1191.79Z" fill-rule="evenodd" clip-rule="evenodd"/></clipPath><clipPath id="clip11"><path d="M1120.68 1919.88 3079.2-38.6328 3110.84-6.98535 1152.33 1951.53Z" fill-rule="evenodd" clip-rule="evenodd"/></clipPath><clipPath id="clip12"><path d="M1577.89 1608.69 2991.81 194.76 3023.46 226.408 1609.54 1640.33Z" fill-rule="evenodd" clip-rule="evenodd"/></clipPath><clipPath id="clip13"><path d="M1518.1 1814.48 3292.17 40.4126 3323.82 72.0602 1549.75 1846.13Z" fill-rule="evenodd" clip-rule="evenodd"/></clipPath><clipPath id="clip14"><path d="M1420.4 2058.2 3620.97-142.375 3652.62-110.727 1452.04 2089.85Z" fill-rule="evenodd" clip-rule="evenodd"/></clipPath><clipPath id="clip15"><path d="M1420.4 2058.2 3620.97-142.375 3652.62-110.727 1452.04 2089.85Z" fill-rule="evenodd" clip-rule="evenodd"/></clipPath><clipPath id="clip16"><path d="M1633.43 1991.18 3716.72-92.108 3748.36-60.4606 1665.08 2022.83Z" fill-rule="evenodd" clip-rule="evenodd"/></clipPath></defs><g clip-path="url(#clip0)" transform="translate(-804 1)"><rect x="805" y="0" width="2158" height="1207" fill="#FFFFFF"/><g><path d="M868.5 181.5 868.5 777.5M1014.53 181.5 1014.53 777.5M1160.54 181.5 1160.54 777.5M1306.54 181.5 1306.54 777.5M1452.55 181.5 1452.55 777.5M1598.55 181.5 1598.55 777.5M1744.56 181.5 1744.56 777.5M1890.56 181.5 1890.56 777.5M2036.57 181.5 2036.57 777.5M2182.57 181.5 2182.57 777.5M2328.58 181.5 2328.58 777.5M2474.58 181.5 2474.58 777.5M2620.59 181.5 2620.59 777.5M2766.59 181.5 2766.59 777.5M2912.5 181.5 2912.5 777.5" stroke="#D9D9D9" stroke-width="3.4375" stroke-linejoin="round" stroke-miterlimit="10" fill="none"/></g><g><path d="M928.03 225.007 955.031 225.007 955.031 777 928.03 777ZM1074.04 775.025 1101.04 775.025 1101.04 777 1074.04 777ZM1220.04 650.021 1247.04 650.021 1247.04 777 1220.04 777ZM1366.04 776.025 1393.05 776.025 1393.05 777 1366.04 777ZM1512.05 770.025 1539.05 770.025 1539.05 777 1512.05 777ZM1658.05 774.025 1685.06 774.025 1685.06 777 1658.05 777ZM1804.06 752.025 1831.06 752.025 1831.06 777 1804.06 777ZM1950.06 760.025 1977.06 760.025 1977.06 777 1950.06 777ZM2096.07 774.025 2123.07 774.025 2123.07 777 2096.07 777ZM2242.07 771.025 2269.07 771.025 2269.07 777 2242.07 777ZM2388.08 766.025 2415.08 766.025 2415.08 777 2388.08 777ZM2534.08 765.025 2561.08 765.025 2561.08 777 2534.08 777ZM2680.09 774.025 2707.09 774.025 2707.09 777 2680.09 777ZM2826.09 774.025 2853.09 774.025 2853.09 777 2826.09 777Z" fill="#5F5F5F"/></g><g><path d="M868.5 777.5 2912.5 777.5" stroke="#D9D9D9" stroke-width="3.4375" stroke-linejoin="round" stroke-miterlimit="10" fill="none" fill-rule="evenodd"/></g><g><text fill="#7F7F7F" font-family="Calibri,Calibri_MSFontService,sans-serif" font-weight="400" font-size="37" transform="matrix(6.12323e-17 -1 1 6.12323e-17 954.172 198)">741</text></g><g><text fill="#7F7F7F" font-family="Calibri,Calibri_MSFontService,sans-serif" font-weight="400" font-size="37" transform="matrix(6.12323e-17 -1 1 6.12323e-17 1100.18 748)">3</text></g><g><text fill="#7F7F7F" font-family="Calibri,Calibri_MSFontService,sans-serif" font-weight="400" font-size="37" transform="matrix(6.12323e-17 -1 1 6.12323e-17 1246.19 623)">171</text></g><g><text fill="#7F7F7F" font-family="Calibri,Calibri_MSFontService,sans-serif" font-weight="400" font-size="37" transform="matrix(6.12323e-17 -1 1 6.12323e-17 1392.21 748)">2</text></g><g><text fill="#7F7F7F" font-family="Calibri,Calibri_MSFontService,sans-serif" font-weight="400" font-size="37" transform="matrix(6.12323e-17 -1 1 6.12323e-17 1538.22 743)">10</text></g><g><text fill="#7F7F7F" font-family="Calibri,Calibri_MSFontService,sans-serif" font-weight="400" font-size="37" transform="matrix(6.12323e-17 -1 1 6.12323e-17 1684.23 747)">4</text></g><g><text fill="#7F7F7F" font-family="Calibri,Calibri_MSFontService,sans-serif" font-weight="400" font-size="37" transform="matrix(6.12323e-17 -1 1 6.12323e-17 1830.24 725)">34</text></g><g><text fill="#7F7F7F" font-family="Calibri,Calibri_MSFontService,sans-serif" font-weight="400" font-size="37" transform="matrix(6.12323e-17 -1 1 6.12323e-17 1976.25 732)">24</text></g><g><text fill="#7F7F7F" font-family="Calibri,Calibri_MSFontService,sans-serif" font-weight="400" font-size="37" transform="matrix(6.12323e-17 -1 1 6.12323e-17 2122.26 747)">4</text></g><g><text fill="#7F7F7F" font-family="Calibri,Calibri_MSFontService,sans-serif" font-weight="400" font-size="37" transform="matrix(6.12323e-17 -1 1 6.12323e-17 2268.27 744)">8</text></g><g><text fill="#7F7F7F" font-family="Calibri,Calibri_MSFontService,sans-serif" font-weight="400" font-size="37" transform="matrix(6.12323e-17 -1 1 6.12323e-17 2414.28 738)">16</text></g><g><text fill="#7F7F7F" font-family="Calibri,Calibri_MSFontService,sans-serif" font-weight="400" font-size="37" transform="matrix(6.12323e-17 -1 1 6.12323e-17 2560.3 737)">17</text></g><g><text fill="#7F7F7F" font-family="Calibri,Calibri_MSFontService,sans-serif" font-weight="400" font-size="37" transform="matrix(6.12323e-17 -1 1 6.12323e-17 2706.31 746)">5</text></g><g><text fill="#7F7F7F" font-family="Calibri,Calibri_MSFontService,sans-serif" font-weight="400" font-size="37" transform="matrix(6.12323e-17 -1 1 6.12323e-17 2852.32 747)">4</text></g><g><g clip-path="url(#clip1)"><text fill="#595959" font-family="Calibri,Calibri_MSFontService,sans-serif" font-weight="400" font-size="37" transform="matrix(0.707107 -0.707107 0.707107 0.707107 862.147 914)">AGUA </text></g></g><g><g clip-path="url(#clip2)"><text fill="#595959" font-family="Calibri,Calibri_MSFontService,sans-serif" font-weight="400" font-size="37" transform="matrix(0.707107 -0.707107 0.707107 0.707107 885.084 1037)">AGUA POTABLE</text></g></g><g><g clip-path="url(#clip3)"><text fill="#595959" font-family="Calibri,Calibri_MSFontService,sans-serif" font-weight="400" font-size="37" transform="matrix(0.707107 -0.707107 0.707107 0.707107 1027.37 1041)">DERECHO(S) DE </text></g></g><g><g clip-path="url(#clip4)"><text fill="#595959" font-family="Calibri,Calibri_MSFontService,sans-serif" font-weight="400" font-size="37" transform="matrix(0.707107 -0.707107 0.707107 0.707107 1242.26 826)">…</text></g></g><g><g clip-path="url(#clip5)"><text fill="#595959" font-family="Calibri,Calibri_MSFontService,sans-serif" font-weight="400" font-size="37" transform="matrix(0.707107 -0.707107 0.707107 0.707107 1043.26 1171)">DERECHO(S) HUMANO(S)</text></g></g><g><g clip-path="url(#clip6)"><text fill="#595959" font-family="Calibri,Calibri_MSFontService,sans-serif" font-weight="400" font-size="37" transform="matrix(0.707107 -0.707107 0.707107 0.707107 1425.87 934)">ESTADO</text></g></g><g><g clip-path="url(#clip7)"><text fill="#595959" font-family="Calibri,Calibri_MSFontService,sans-serif" font-weight="400" font-size="37" transform="matrix(0.707107 -0.707107 0.707107 0.707107 1465.89 1040)">ECOSISTEMA(S)</text></g></g><g><g clip-path="url(#clip8)"><text fill="#595959" font-family="Calibri,Calibri_MSFontService,sans-serif" font-weight="400" font-size="37" transform="matrix(0.707107 -0.707107 0.707107 0.707107 1660.01 992)">TERRENO(S)</text></g></g><g><g clip-path="url(#clip9)"><text fill="#595959" font-family="Calibri,Calibri_MSFontService,sans-serif" font-weight="400" font-size="37" transform="matrix(0.707107 -0.707107 0.707107 0.707107 1828.58 969)">PERSONAS</text></g></g><g><g clip-path="url(#clip10)"><text fill="#595959" font-family="Calibri,Calibri_MSFontService,sans-serif" font-weight="400" font-size="37" transform="matrix(0.707107 -0.707107 0.707107 0.707107 2028.71 915)">SALUD</text></g></g><g><g clip-path="url(#clip11)"><text fill="#595959" font-family="Calibri,Calibri_MSFontService,sans-serif" font-weight="400" font-size="37" transform="matrix(0.707107 -0.707107 0.707107 0.707107 1984.79 1105)">CONSUMO HUMANO</text></g></g><g><g clip-path="url(#clip12)"><text fill="#595959" font-family="Calibri,Calibri_MSFontService,sans-serif" font-weight="400" font-size="37" transform="matrix(0.707107 -0.707107 0.707107 0.707107 2208.6 1027)">SANEAMIENTO</text></g></g><g><g clip-path="url(#clip13)"><text fill="#595959" font-family="Calibri,Calibri_MSFontService,sans-serif" font-weight="400" font-size="37" transform="matrix(0.707107 -0.707107 0.707107 0.707107 2303.16 1079)">SUSTENTABILIDAD</text></g></g><g><g clip-path="url(#clip14)"><text fill="#595959" font-family="Calibri,Calibri_MSFontService,sans-serif" font-weight="400" font-size="37" transform="matrix(0.707107 -0.707107 0.707107 0.707107 2388.24 1140)">SUSTENTABILIDAD DEL </text></g></g><g><g clip-path="url(#clip15)"><text fill="#595959" font-family="Calibri,Calibri_MSFontService,sans-serif" font-weight="400" font-size="37" transform="matrix(0.707107 -0.707107 0.707107 0.707107 2702.95 825)">…</text></g></g><g><g clip-path="url(#clip16)"><text fill="#595959" font-family="Calibri,Calibri_MSFontService,sans-serif" font-weight="400" font-size="37" transform="matrix(0.707107 -0.707107 0.707107 0.707107 2551.01 1123)">ANIMALES Y GANADO</text></g></g><g><text fill="#595959" font-family="Calibri,Calibri_MSFontService,sans-serif" font-weight="700" font-size="73" transform="matrix(1 0 0 1 1220.36 104)">PALABRA X FRECUENCIA DE MENCIÓN</text></g><rect x="805.5" y="0.499836" width="2158" height="1207" stroke="#D9D9D9" stroke-width="3.4375" stroke-linejoin="round" stroke-miterlimit="10" fill="none"/></g></svg>