<svg id="Capa_1" data-name="Capa 1" xmlns="http://www.w3.org/2000/svg" viewBox="0 0 800 800"><defs><style>.cls-1,.cls-4,.cls-5{fill:#063f5c;}.cls-2{fill:#f27f0c;}.cls-10,.cls-11,.cls-12,.cls-15,.cls-3,.cls-4,.cls-5,.cls-6,.cls-7,.cls-8,.cls-9{isolation:isolate;}.cls-3,.cls-4,.cls-5{font-size:20.43px;}.cls-10,.cls-11,.cls-12,.cls-3,.cls-4,.cls-5,.cls-6,.cls-7,.cls-9{font-family:HelveticaNeueLTStd-Lt, Helvetica Neue LT Std;}.cls-5{letter-spacing:-0.02em;}.cls-6{font-size:20.07px;}.cls-7{font-size:20.51px;}.cls-10,.cls-9{font-size:20.65px;}.cls-10{letter-spacing:-0.02em;}.cls-11,.cls-12{font-size:20.26px;}.cls-12{letter-spacing:-0.02em;}.cls-13,.cls-14{fill:none;stroke-miterlimit:10;stroke-width:2px;}.cls-13{stroke:#f27f0c;}.cls-14{stroke:#063f5c;}.cls-15{font-size:36px;font-family:HelveticaNeueLTStd-Bd, Helvetica Neue LT Std;}</style></defs><path class="cls-1" d="M190,346.66c1.33-3.2,2.49-6.42,4.57-9.21a7.88,7.88,0,0,1,9.23-2.57c2.7,1.21,2.45,3.64,2.48,6,0,1.23-1.3,2.84.73,3.64,1.79.71,3.1,0,4.45-1.31,6.34-6.31,13.93-8.5,22.82-7.27,14.16,2,24,10.31,32,21.3,10.82,14.87,12.73,31.53,9.51,49.19-2.54,13.88-7.05,27.14-12.46,40.1a67.6,67.6,0,0,1-11.39,17.93c-1.57,1.82-1.87,3.17-.78,5.58,5.29,11.84,5.6,24,.57,36-9.1,21.57-25.15,35.15-48.17,40-6.45,1.36-13,.44-19.57.25-5.14-.15-10.28-.4-15.37.68-7.29,1.55-12.79,7.7-12.08,14,.38,3.32,1.23,6.36,4.62,8.41,5.65,3.42,5.86,9.21,5.13,15-1.11,8.74-4.56,16.73-8.36,24.59-.61,1.27-2.24,2.54-.63,4.26s3.17,1.92,5.45,1a53,53,0,0,1,32.14-2.88c4.2.92,8.46,1.48,12.5,3,2.64,1,4.26-1,5.91-2.31s0-2.76-.59-4c-3.51-7.37-6.59-14.87-7.85-23-2-12.74,6.42-21.17,19.21-19.08,2.15.35,1.88-.5,1.63-1.89a45,45,0,0,1-.77-5.54c-.41-7.73,9.43-13.11,15.42-11.14a24,24,0,0,1,14.22,12.32c4,7.59,5.8,15.64,3,24.09-1.79,5.49-5.39,9.37-11.3,10.55a10.63,10.63,0,0,1-12.69-8l0-.15c-.29-1.18-.5-2.38-.72-3.57-.88-4.69-4.5-7.2-10-6.9a8.05,8.05,0,0,0-7.42,7.84c-.27,8.11,2.17,15.67,5.17,23.08.77,1.89,2.23,1,3.34.52,6.14-2.49,11.94-1.24,17.53,1.64,6.81,3.51,9.86,12.94,6.37,19.85A33.1,33.1,0,0,1,235,642.7a2.73,2.73,0,0,0-1.65,2.89c.56,5.65-.17,11-3.58,15.75a3.38,3.38,0,0,0-.22,2.71c3.81,22.91-9.9,43.64-32.43,48.78-2.68.61-3.4,1.82-3,4.23a11.87,11.87,0,0,1,0,5.56c-.66,2-1.73,2.31-3.18.77-.57-.62-1.07-1.3-1.65-1.91-1.74-1.8-3.61-2.16-5.71-.54-1,.74-2,1.42-3,2.08-2.18,1.41-3.76.73-4.17-1.88a15.65,15.65,0,0,1-.28-4.73c.35-2.25-.37-3-2.57-3.63-12.89-3.51-23-10.77-28.86-23a41.25,41.25,0,0,1-3.4-25.16,5.72,5.72,0,0,0-.87-4.44,20.29,20.29,0,0,1-2.94-12.89c.16-2.23-.09-3.56-2.41-4.86-6-3.39-10.83-8.53-12.88-15-3.28-10.41,1.74-19.92,15.1-21.16a20.58,20.58,0,0,1,9.9,1.48c1.83.77,2.68.2,3.37-1.56a71.37,71.37,0,0,0,4.89-18.37,13.85,13.85,0,0,0-.59-7.19,7.7,7.7,0,0,0-8.86-4.7c-.91.17-1.81.47-2.73.63-3.16.56-5,2.22-5.09,5.62a16.24,16.24,0,0,1-.62,3.31c-2,8.63-11.32,11.9-18.38,6.49-5.43-4.16-7.24-10-7-16.36a33.4,33.4,0,0,1,8.38-21.81,23.09,23.09,0,0,1,7.91-5.63c5.31-2.42,9.9-1,14.05,2.3,3.9,3.15,4,7.58,3.18,12.1-.09.55-.29,1.09-.36,1.64s-.57,1.53.16,1.75a4.81,4.81,0,0,0,2.43-.34c.87-.24.76-1,.54-1.61-2.37-6.91-1.29-14.13-1.6-21.16-.5-11.2,4.21-20.7,12.14-28.57a52.65,52.65,0,0,1,12.08-9c6.11-3.29,10.24-8.59,14.33-14,3.66-4.83,6.67-10.19,11.32-14.23a1.37,1.37,0,0,0,.5-1.86,1.48,1.48,0,0,0-.25-.31c-3.79-4.42-3.23-9.57-2.29-14.68,1.54-8.36,3.45-16.66,4.86-25,1.45-8.58,1.43-17.31,2.11-26a3.84,3.84,0,0,0-2-3.71,71,71,0,0,1-8.7-7.06,15.65,15.65,0,0,1-4.94-8.61,4.34,4.34,0,0,0-2-2.92c-4.45-3.08-7.55-6.78-5.41-13.14-4.07,1.93-7.1,4.48-10.77,5.86-.79.3-.75,1.21-.79,2-1,19.54-1,39.05,2.28,58.42,1.13,6.72,2.75,13.36,4.08,20.06a26.71,26.71,0,0,1,.64,7.51c-.63,7.07-5.35,10.89-11.49,12.64-14.51,4.15-27.72,1.38-39.28-8.54-11.22-9.62-17.88-22.08-22.7-35.79-4.23-12-8-24.16-9.21-36.91-2.39-24.49,6.87-43.67,27-57.48a33.53,33.53,0,0,1,23.3-5.6c9.31,1.15,16.44,6,19.77,15.21,1.26,3.5,2,7.18,3,10.79.9,3.35,2.1,3.92,4.85,1.71a24.24,24.24,0,0,0,9.14-16.2c1.86-14.89,1.64-29.88,1.06-44.82-.72-18.29-1.57-36.6-4.33-54.74-.71-4.68-2-6-6.44-7.29-8.58-2.49-17.26-1.42-25.9-.86a209.6,209.6,0,0,0-25.79,3.69c-4,.78-4.07.7-3,4.78a68.39,68.39,0,0,0,2,6.73,9.14,9.14,0,0,0,8.74,6.29c7.41.4,14.44-1.64,21.55-3.18,3.84-.83,7.63-1.86,11.49-2.57,3.14-.59,4.19.34,4.18,3.48,0,6.16.55,12.35-.54,18.47-1,5.45-3.27,10-8.27,13-4.57,2.78-9.31,5.19-14,7.72-14.65,7.9-29.4,15.6-43.85,23.83-8.06,4.59-13.68,11.62-17.55,20.2-13,28.79-21.62,58.9-27.93,89.77-1.7,8.3-6,15.7-10.45,22.85A460,460,0,0,0,8.85,513C2.61,527.46-1.74,542.55-6.22,557.6a278.87,278.87,0,0,1-13.51,35c-3.37,7.49-6.79,14.93-8.82,23-3.12,12.43-8.81,23.85-15.2,34.87a43.72,43.72,0,0,0-5.68,22.24c0,5.61.06,11.23,0,16.83a10.42,10.42,0,0,0,4.3,8.7c.94.76,2.17,1.39,2.72,2.38,2.78,5,7.82,8,11.21,12.38A4.9,4.9,0,0,0-30,714.19c.7.43,1.53,1.1,2.31.7,1-.49.37-1.51.23-2.28-1.51-8.43-2.12-16.87-.28-25.34q.29-1.51.72-3c.46-1.41,1.25-2.64,2.91-2.61,1.85,0,2.18,1.54,2.39,3,.91,6.29,1.77,12.58,2.64,18.88A44.84,44.84,0,0,0-17,713.67c1.27,3.27,2.93,3.51,5.32.93a7.09,7.09,0,0,0,1.7-5.45c-.34-7.93-.74-15.87-.93-23.81-.11-4.62,1.18-9.07,2.47-13.46C-7,667-5.72,662.16-4.64,657.23c.33-1.52.55-3.45,2.46-3.71,2.16-.3,2.7,1.76,3.35,3.21,2.26,5.07,3.31,10.5,4.43,15.91a16.8,16.8,0,0,0,4.83,9,8.63,8.63,0,0,0,3.57,2.1c1.3.38,2.63.62,3.68-.48s.2-2.23-.32-3.31c-2.59-5.36-1.79-11-1-16.53.65-4.8,1.73-9.56,2.76-14.31a20,20,0,0,0-.58-10.74c-1.69-5.14-3.9-10.08-5.07-15.43-1.48-6.73-.23-13,2.13-19.18,3.69-9.77,10.1-17.88,16-26.24,7.37-10.35,15.12-20.44,21.92-31.2A177.93,177.93,0,0,0,73.74,500c3-10.49,8.17-20.07,14.4-29,2.29-3.27,3.94-7,7.21-9.58,1-.81,1.93-1.93,3.41-1.43s1.35,1.88,1.65,3a284.94,284.94,0,0,1,8.14,48.9c1.14,14.4-.28,28.54-6,42.06-7.08,16.6-14,33.33-19.14,50.61-7.22,24.15-15.54,48-19.13,73.17-1.71,12-1.47,24-1,36.09.69,18.31,2.24,36.56,3.83,54.81,1.23,14,2.24,28.13,4,42.13,2.14,16.69,4.37,33.36,8.63,49.68.31,1.2.34,2.37-1.11,2.69s-2.28-.7-2.56-2c-1.19-5.58-2.42-11.15-3.47-16.75-4.25-22.72-6.6-45.67-8.54-68.68-1.9-22.54-3.72-45.07-4.77-67.67-.82-17.53,1.73-34.64,5.54-51.68,6.71-30,16.6-59,27.74-87.6,3.59-9.23,7.65-18.29,10.46-27.8a70.81,70.81,0,0,0,2.45-25,302.64,302.64,0,0,0-7.25-47.34c-.24-1.05,0-2.73-1.13-3-1.33-.3-1.76,1.41-2.47,2.31A104.13,104.13,0,0,0,75.53,506C70.39,525,61,541.77,50.18,558,43.06,568.61,34.7,578.39,28,589.33A144.51,144.51,0,0,0,18.29,607a25.73,25.73,0,0,0,.47,21.52c4.49,9.76,5.37,19.39,2.15,29.63-1.46,4.63-1.63,9.56-1.52,14.45a14.25,14.25,0,0,0,1.77,7c1.88,3.27.42,6.56-3.28,7.66s-6.69-.22-9.35-2.48a17.83,17.83,0,0,1-6.18-10.1c-1-4.91-1.88-9.88-4-15.12C-3,667.22-6,674-6.88,681.21c-1,8.4.15,16.78.43,25.17.13,4.1.22,8-3.09,11.15-3.83,3.66-8.08,3.12-10.52-1.61a25.92,25.92,0,0,1-2.12-8.11c-.83-5.35-1.56-10.72-2.45-16.87a41.33,41.33,0,0,0,0,15.52c.44,2.49.9,5,1.32,7.46a4.17,4.17,0,0,1-3.07,5,4.11,4.11,0,0,1-2.09,0,6.77,6.77,0,0,1-4.2-2.11c-3.3-4.28-8.36-6.9-11-11.79a12,12,0,0,0-3.61-3.86A13.74,13.74,0,0,1-53,689.89c-.08-8.41-.14-16.83.62-25.22.55-6.12,3.22-11.5,6.14-16.73a166.41,166.41,0,0,0,16.13-39c1.85-7.08,5.72-13.39,8.48-20.14,6.19-15.16,11.48-30.65,16.25-46.29,8.6-28.18,21-54.6,36.15-79.74,5-8.18,9.26-16.66,13.45-25.23,2.93-6,3.88-12.49,5.2-18.87a406,406,0,0,1,23.37-74.26,104.83,104.83,0,0,1,4.84-9.8c4.4-7.94,10.94-13.53,19-17.59,17.13-8.59,33.48-18.65,50.61-27.25a34.08,34.08,0,0,0,6.39-4.53,7.5,7.5,0,0,0,2.67-4.19,88.46,88.46,0,0,0,2.22-19.46c0-2.08-.6-2.47-2.67-2-9.13,1.93-18.1,4.63-27.48,5.34-8.16.61-13.5-2.64-16.13-10.38-2.08-6.13-3-12.53-4.31-18.84a14.88,14.88,0,0,0-5.36-9.21,36.62,36.62,0,0,1-4.74-5.14,5,5,0,0,1-.63-5.31,36.81,36.81,0,0,1,5.11-9.93,55.9,55.9,0,0,0,4.37-7.18c2-3.57,2.09-7.16,1.13-11.07-3.86-15.68-3.83-31.28,1.35-46.72,4.29-12.8,11.84-23.24,23.38-30.18,7.24-4.35,15-7.6,23.79-8.57,13.73-1.53,27.17-1.31,40.4,3,15.65,5.15,28.22,14.42,37.21,28.2,5.17,7.91,7.39,17,8.2,26.28a118.43,118.43,0,0,1-7.45,53.94A95.9,95.9,0,0,1,213.75,246a10.06,10.06,0,0,0-3.22,6.61c-.54,8.68-.93,17.36-.66,26.05.18,6,3.81,9.83,8.64,12.55,6.85,3.84,13.91,7.3,20.79,11.07,11.31,6.2,22.43,12.75,34,18.54,8,4,13.49,10.36,17.33,18.13,7.6,15.37,13.24,31.53,18.35,47.87a414.21,414.21,0,0,1,10.23,41.37c2.15,10.55,7.19,19.92,12.64,28.89a466.43,466.43,0,0,1,31.81,62.1C369,532,372.42,545.42,377,558.49c5.56,16.08,11,32.21,18.54,47.52,1.58,3.2,2.19,6.75,3.16,10.16a153.15,153.15,0,0,0,13.87,32.42c4,7.18,7.13,14.48,7.33,23,.16,7,.29,14,.22,21a13.24,13.24,0,0,1-5.71,10.77,15.75,15.75,0,0,0-4.1,4.54c-2.78,4.63-7.57,7.35-10.92,11.46a6.21,6.21,0,0,1-3.47,1.73c-3.59.87-6.08-1.51-5.49-5.14.88-5.43,2.3-10.81,2-16.38a29.33,29.33,0,0,0-.74-5.6c-1,6.25-1.88,12.5-2.9,18.74-.44,2.68-1,5.34-3,7.42-2.4,2.51-5.25,2.71-8,.63a10.56,10.56,0,0,1-4.27-10.1c.73-6.72.18-13.46.91-20.17.47-4.32-.41-8.58-1.5-12.75-1.34-5.15-2.79-10.27-4.28-15.7a64.76,64.76,0,0,0-3.41,12.83,19.22,19.22,0,0,1-6.36,11.86c-2.79,2.44-6,3.86-9.82,2.66-3.21-1-5-4.2-3.48-6.76,3.11-5.19,2.35-10.7,1.67-16.12-.74-5.92-2.09-11.77-3.21-17.64a13.59,13.59,0,0,1,.42-6.64,89.37,89.37,0,0,1,3.6-10.32c4.43-10.15,3.07-19.69-2.27-29.21-6.43-11.46-14.26-21.91-21.88-32.56-10.61-14.84-20.84-30-27.33-47.2-3.22-8.57-5.48-17.49-8.73-26.05a89.5,89.5,0,0,0-13.42-24.2c-.48-.6-.77-1.8-1.75-1.51s-.78,1.43-.94,2.2c-2.52,12.84-4.64,25.74-5.88,38.79a84.25,84.25,0,0,0,1.31,25.1c1.45,7,4.14,13.57,6.81,20.16,8.66,21.31,16.7,42.85,23.34,64.89a434.84,434.84,0,0,1,13.2,56.19c1.67,10.38,1.5,20.86,1.09,31.33q-.62,16-1.82,31.91c-1.32,17.61-2.87,35.2-4.47,52.79a549.74,549.74,0,0,1-8.52,58.51c-.9,4.49-1.93,9-3,13.41-.29,1.24-.63,2.91-2.38,2.5s-1.69-1.9-1.27-3.42c3.81-13.63,5.93-27.58,8-41.54,3.4-22.66,4.9-45.51,6.89-68.32,1.5-17.23,2.46-34.48,3.16-51.76s-2.69-34.21-6.39-51c-2.71-12.36-7.49-24.09-10.69-36.3-5.76-22-14.59-42.79-23.07-63.76a78.46,78.46,0,0,1-5.69-26.17c-.87-19.8,2.83-39.08,6.95-58.3.26-1.21.53-2.34,2.11-2.57s2.55.79,3.45,1.91a112.75,112.75,0,0,1,20.43,40.55c4.74,17.15,12.89,32.67,22.9,47.24,8.62,12.55,17.75,24.76,26.4,37.3,5,7.29,8.73,15.25,9.78,24.21.5,4.29-.77,8.34-1.75,12.42a22.37,22.37,0,0,1-1.65,4.76c-3.74,7.49-4,15.1-1.76,23.12a52,52,0,0,1,2,19.69,14,14,0,0,1-1.66,5.6c-.52.91-1,1.85-.19,2.84a2.81,2.81,0,0,0,2.84.77c2.86-.51,4.77-2.38,6.45-4.6,2.65-3.52,3-7.79,4-11.87a52.45,52.45,0,0,1,3.79-11.7c.56-1.15,1.18-2.55,2.8-2.36s2.06,1.54,2.31,2.85c1.61,8.55,4.92,16.68,6.26,25.3a34.19,34.19,0,0,1,.2,6.71c-.28,7.09-.61,14.19-.87,21.28a7.82,7.82,0,0,0,.39,2.76c.69,1.91,1.89,3.78,4,3.88s2.59-2.15,3-3.82c2.1-8.16,2.64-16.59,3.94-24.89.16-1,.27-2,.45-3,.25-1.33.59-2.71,2.25-2.78s2.54,1.09,3,2.51a60.53,60.53,0,0,1,1.81,11.5c.56,5.66-.72,11.16-1.37,16.72-.09.8-.69,1.85.14,2.34s1.74-.3,2.55-.74a1.07,1.07,0,0,0,.41-.38c3-4.66,8.48-7.07,11-12.18a6.67,6.67,0,0,1,2.34-2.38c4.13-2.76,5.76-6.52,5.53-11.48-.31-6.81,0-13.64-.41-20.46a33.77,33.77,0,0,0-4.31-14.66,186.24,186.24,0,0,1-18.59-44.65c-1.58-6.07-4.8-11.74-7.5-17.49-7.31-15.54-12.29-31.9-17.16-48.31C361,518.86,349.74,495,336.43,472c-5.15-8.89-10.56-17.61-15.14-26.85-3.27-6.6-4.79-13.54-6.29-20.55a398.81,398.81,0,0,0-19.13-64.45c-2.32-5.82-4.81-11.56-7.4-17.26a41,41,0,0,0-18.94-20c-16.76-8.69-32.91-18.52-49.84-26.92a40,40,0,0,1-5.73-3.51c-5-3.61-7.93-8.31-7.87-14.69.08-8.69-.29-17.38.59-26.06a10.74,10.74,0,0,1,3.2-6.94c16.29-15.89,24.73-35.71,27.93-57.78,2.08-14.4,2.09-29-3.37-42.9a49.12,49.12,0,0,0-13.58-19.62c-5.74-4.93-11.6-9.78-18.5-13.08A59.55,59.55,0,0,0,177,105.27c-8.59-.07-17.22-.51-25.65,1.7-19,5-32.5,16.43-38.74,35.16a74.4,74.4,0,0,0-2.45,39c.65,3.11.88,6.3,1.51,9.41,1.11,5.5-.74,10.13-3.91,14.41a95.23,95.23,0,0,0-6.68,10.7c-1.12,2-.49,3.46,1,5,1.67,1.69,2.81.38,4.13-.42,2-1.22,4-2.44,6.06-3.52a18.22,18.22,0,0,1,13.35-1.49c1.72.44,3.44.89,5.11,1.48A364.9,364.9,0,0,0,169.17,228c8,1.91,13.07,6.78,16.22,14.09,1.08,2.48,1,5.14,1.23,7.71,2.4,31,4.1,61.93,3.38,93,0,1.06-.1,2.13,0,3.23m0,.36v.22m0-.58v.36M94.06,391.3a92.35,92.35,0,0,0,3,21.94c4.09,16.19,9,32.12,19,45.78,10.2,13.83,23.11,22.17,41.25,19.16,9.73-1.61,15.31-6,13.15-17.17-2.34-12.09-5.53-24-6.19-36.43-.63-11.75-1.81-23.47-.69-35.25,1.27-13.28-1.05-26.15-5.54-38.53-2.58-7.12-8.52-11.18-16-12a33.18,33.18,0,0,0-22.7,5.63C103.11,355.78,94.55,371.4,94.06,391.3Zm180,.11c.18-13.19-4.25-24.77-12.32-35-7.29-9.25-16.21-16-28.34-17.47-7-.88-13.36.13-18.69,5.26-1.61,1.54-1.36,2.12.6,2.68,13.92,4,19.5,18.2,18.29,29.37a6.82,6.82,0,0,0,.49,3.28,48.68,48.68,0,0,1,3.42,17.52c.1,8-1.87,15.32-13.12,16.43a30.82,30.82,0,0,1-16.55-3.27c-3-1.45-3-1.46-3.2,2-.68,12.41-1.57,24.79-4.5,36.94a116.31,116.31,0,0,0-2.83,15.14c-.76,7.24,2.9,10.87,9.1,12.86a35.23,35.23,0,0,0,17.73,1.18c11.9-2.35,20.73-9.43,27.78-19,6.28-8.52,10.47-18.08,13.89-28,4.44-13,7.95-26.11,8.19-39.92ZM230.1,644c-2.55.91-3.17,2.34-2.77,4.68a11.12,11.12,0,0,1-2.66,9.12c-1.23,1.52-2.54,2-4.4,1.19a50.77,50.77,0,0,0-9.47-2.48c-1.26-.27-2.73-.51-3.44,1-3,6.59-7.35,12.55-9.2,19.76C195.66,687,195,697,194.5,707c-.16,3.36.15,3.53,3.48,2.48,21.21-6.68,32.19-24.9,28.13-46.75-.25-1.33-.19-2.37.92-3.24a6.57,6.57,0,0,0,1.65-2.56C230.67,652.81,230.25,648.52,230.1,644Zm-89.21.61c-.4,5.07-.67,10,2.43,14,1.58,2,1.54,3.62,1.2,5.81-1.56,10,0,19.66,5.43,28.28s13.55,13.72,23.1,16.82c2.15.7,3,.08,2.86-2.13q-.49-7.41-1-14.82c-.81-12.51-5.2-23.81-11.54-34.48a2.78,2.78,0,0,0-3.44-1.55c-2.55.61-5.12,1.14-7.61,1.9-4.55,1.39-6.34.61-8-3.92a10.29,10.29,0,0,1-.67-6c.51-2.27-.42-3.38-2.76-3.9Zm45.31-291a21.15,21.15,0,0,0,.45-5.83c-.56-11.21.3-22.43.43-33.64.17-15.73-1-31.39-2.42-47-.57-6.42-.22-13-1.64-19.25-1.65-7.32-4.46-14-12.8-16.17-13.67-3.53-27.3-7.19-40.56-12.08-7.94-2.93-15.21-2-21.79,3.59,4.26-1.38,8.45-2.91,13.07-2.54,8.84.71,16.21,5.44,24.08,8.78a1.31,1.31,0,0,1,.77,1.38,1.4,1.4,0,0,1-1.3,1.28c-1.66.23-3.33.48-5,.55A133.84,133.84,0,0,0,114,236.53c-1.49.35-2.09,1-1.76,2.53s1.28,1.95,2.69,1.65c.46-.1.91-.22,1.37-.31,15.62-3.07,31.31-5.2,47.32-4.16,9.9.65,14.07,3.55,15,12,1.69,14.76,2.87,29.57,3.65,44.41.43,8,.46,16.07.7,24.1.33,10.83.52,21.71-1.43,32.43-1.36,7.46-4.76,14-11.71,17.56-3.24,1.65-4.27,3.26-3.36,6.5a5.2,5.2,0,0,1,.09,1.11c.16,1.65.88,2.18,2.4,1.26a56.51,56.51,0,0,0,8.78-6c3.2-2.85,3.77-7,5.93-10.38a18,18,0,0,0,2.44-5.65m0,0v-.07M153,610.09c1.32-1.06,1.29-1.07,2.71-4,3.65-7.42,6.57-15.06,7.53-23.35.8-6.86-1.5-10.5-7.9-13-4.12-1.63-8.05-1-12.05.21-1,.29-2,.9-2.86-.07s-.11-1.91.39-2.79a16.62,16.62,0,0,0,1.86-10,6,6,0,0,0-3.49-5.06c-5.35-2.64-10.36-2-14.68,2.2-7,6.75-9.75,15.15-9,24.67.56,6.83,4.4,11.29,10,12.33a7.38,7.38,0,0,0,8.67-5.3,19.76,19.76,0,0,0,1-6c-.18-3.55,1.64-5.12,4.67-6,1.26-.34,2.5-.74,3.78-1,8.46-1.9,15,3.27,15,11.88a58.74,58.74,0,0,1-5.19,22.81C153.17,608.33,152.26,609.07,153,610.09Zm102.55-34.4c-.43-8.21-2.94-15.54-9-21.38-3.69-3.54-7.85-4.77-12.83-3.07-4,1.37-5.53,3.15-5.57,7.34a15.75,15.75,0,0,0,2.17,8.86c.45.72.89,1.53.28,2.34s-1.65.56-2.57.32a44.21,44.21,0,0,0-5.17-1.25c-9.35-1.56-16.25,5.08-15.12,14.35,1.08,8.88,4.47,16.94,8.41,24.83.3.6.52,1.83,1.39,1.39,1.05-.53.08-1.46-.21-2.14a58.33,58.33,0,0,1-5.06-23.12,11.24,11.24,0,0,1,11.43-11.71,21.73,21.73,0,0,1,9.7,2.46,3.81,3.81,0,0,1,2.2,3.89,25.33,25.33,0,0,0,1.13,7.18,7.43,7.43,0,0,0,8.47,5.26,10.88,10.88,0,0,0,8.14-5.8,19.35,19.35,0,0,0,2.24-9.75ZM149.24,628.27c-4.92-.1-8.46,3.21-8.54,8-.06,4.1,3.41,7.31,8.08,7.45,4.86.15,9.31-3.62,9.45-8C158.35,631.88,154.06,628.36,149.24,628.27Zm72.28,0c-5,0-9.41,3.43-9.36,7.31.06,4.24,4.39,8.12,9.09,8.12s8.39-3.11,8.45-7.1a8,8,0,0,0-7.65-8.33h-.53ZM136.73,229.2c-4.09-1.92-8-4.21-12.56-5.1a20.19,20.19,0,0,0-10.49.43c-1.74.59-4,.58-4.94,2.25-.69,1.28,1.24,2.54,1.46,4a1.38,1.38,0,0,1,.08.27c.24,2.75,1.77,2.89,4.06,2.31A168.4,168.4,0,0,1,136.73,229.2Zm2.42,385c-5.42-.18-9.27,3-8.4,7.17a10.14,10.14,0,0,0,6.16,7.76c2.48,1,3.79.41,4.72-2.17.81-2.28,1.45-4.62,2.38-6.85,2.07-5,1.73-5.59-3.74-5.91C139.9,614.18,139.52,614.2,139.15,614.2Zm92.5-.16c-1.64.3-3.3.55-4.94.92-1.2.27-1.78,1-1.12,2.26a51.4,51.4,0,0,1,4,10.74,2.12,2.12,0,0,0,2.48,1.66l.08,0c3.64-.49,7.75-5.6,7.49-9.39s-3.21-6-8-6.21Zm-7.37,36.05c.19-2.36-.63-3.52-3.19-3.3a10.08,10.08,0,0,1-7.26-2.32c-1-.75-1.58-.85-2,.55-.6,2.15-1.31,4.27-2,6.38-.38,1.13-.14,1.63,1.15,1.88a62.69,62.69,0,0,1,8.65,2.11c2.34.82,3.34-.14,4-2A24.68,24.68,0,0,0,224.28,650.09Zm-77.49-.31c.1,5.25,1.49,6.31,6.15,5.06l.81-.22c2.27-.76,5.65-.24,6.65-2s-1.22-4.42-1.66-6.79a1.62,1.62,0,0,0-.08-.27c-.27-1.64-.92-2.06-2.36-.89a9.14,9.14,0,0,1-6.48,2.14c-2.59-.22-3.33,1-3,3Z"/><path class="cls-2" d="M6.36,562.76c-5.18,4.37-9.81,8.8-10.4,15.88a33.87,33.87,0,0,1-1.83,7c-.33,1.05-.9,2.31-2.36,1.74-1.23-.47-.94-1.61-.73-2.66,3.22-16.35,7-32.54,13.77-47.85A119.09,119.09,0,0,1,12.54,522a126.21,126.21,0,0,0,15.23-34.51c.76-2.87,2-5.61,2.53-8.57.22-1.21.3-3,2.18-2.57,1.52.37,1.19,2,1,3.12a114.91,114.91,0,0,1-4.74,18.16c-1.38,3.93-2.73,7.88-2.51,12.25,2.32-5.58,4.63-11.17,7-16.74s4.68-11.42,7.31-17c1.56-3.3,4.74-5.2,7.7-7.14a1.93,1.93,0,0,1,2.58.26c.85.9.55,1.9.16,2.88-2.16,5.38-4.49,10.69-6.89,16-4.81,10.55-8.53,21.56-13.66,32a2,2,0,0,0-.22,2.15c3.09-3.25,6.18-6.21,7.59-10.58,3.77-11.67,8-23.15,14.13-33.84,1.81-3.17,3.78-6.24,5.83-9.26,1.56-2.31,3.51-2.61,5.8-1.19s1.66,3.16.75,5.11C59.47,482.94,53.62,492.91,50.2,504a29.11,29.11,0,0,0-1.2,4.87c2.94-5.6,6.36-10.89,9.59-16.29a66,66,0,0,1,4-5.77,1.83,1.83,0,0,1,2.44-.86l.17.09a2,2,0,0,1,.55,2.74c-.77,1.49-1.64,2.94-2.49,4.39A182,182,0,0,0,44.17,537c-.9,3.26-.2,6.63-1,10.2,3.55-2.72,4.88-6.28,6-10a4.3,4.3,0,0,1,.4-1c.8-1.27.57-4,2.92-3.2,1.95.71.68,2.79.29,4.22a36.63,36.63,0,0,1-6.51,12.56c-6.47,8.67-12.63,17.6-17.41,27.38a29,29,0,0,1-2.58,4c-.5.7-1.22,1.27-2.15.69s-.77-1.47-.4-2.25c2.49-5.22,4.16-10.82,7.63-15.59,2.41-3.32,4.47-6.89,6.73-10.33,1-1.52,1-3.13.69-5.12a6.91,6.91,0,0,0-2.36,3.11c-7.79,15.15-17.53,29.16-25.81,44-2.55,4.58-5,9.23-7.31,13.9-1.43,2.85-7.66,5.08-10.45,3.58-1.61-.86-2-3-.55-5.2,1.66-2.51,2.74-5.32,4.31-7.86,5.62-9.09,7.23-19.31,8.57-29.63C5.55,567.88,6,565.32,6.36,562.76Zm27.88-62.93c-8.75,5.51-22.38,37.07-19.68,45.76,8.22-14.65,16.57-29,19.68-45.76Zm-13.68-6.55C12.82,507.4,3.53,520.75.78,537.9c2.31-3.28,6.09-4.27,6.78-8a58.24,58.24,0,0,1,6.12-17.06c2.28-4.28,4.33-8.68,6.52-13a8.45,8.45,0,0,0,.36-6.56Z"/><path class="cls-2" d="M195.56,190.09c-5.38.21-10.6-1-15.85-1.79a5.27,5.27,0,0,0-3.23.33c-7.72,3.57-15.2,3.06-22.35-1.61a14.15,14.15,0,0,1-6.13-8c-.51-1.77-1.21-2.34-2.94-1.61-7.6,3.21-14.22.1-20.31-3.83s-6.56-10.55-6.38-17a21.18,21.18,0,0,1,5.27-14.16,4.45,4.45,0,0,0,1-2.27c1.79-11.27,9-17.21,19.52-19.79a21.94,21.94,0,0,0,9.07-4.11,13.89,13.89,0,0,1,6.65-2.81c9-1.5,17.72-.58,25.6,4.48a7.8,7.8,0,0,0,5.85,1,27.71,27.71,0,0,1,17.29,3.1,5.08,5.08,0,0,1,1.84,1.26c2.73,4,7.24,5.82,10.58,9,6.05,5.73,9.28,12.8,7.93,21.4a6.5,6.5,0,0,0,.43,3.54c4.18,10.69,0,22-10.13,27.18A51.32,51.32,0,0,1,195.56,190.09Zm-27.5-74.23c-7.16,0-10.37.51-13.5,3a24.73,24.73,0,0,1-9.81,4.46c-8.78,2.2-15.27,7-17,16.52a8.3,8.3,0,0,1-1.73,3.8c-4.5,5.5-5.06,11.91-4.34,18.59.41,3.85,1.81,7.38,5.36,9.37a38.89,38.89,0,0,0,7.75,3.22c6.52,2,14.07-1.22,15.93-6.92a9.17,9.17,0,0,1,5.94-6.14c5-1.91,9.06-4.83,11.09-10a2.78,2.78,0,0,1,2.55-1.87c7.14-.57,13.49-2.86,18.21-8.6.61-.74,1.43-1.4,2.38-.54.77.7.43,1.57-.07,2.3a19,19,0,0,1-1.58,2c-4.48,4.86-10.38,6.82-16.65,7.89a3.62,3.62,0,0,0-3,2.06,16.88,16.88,0,0,1-8.78,8.31c-3.93,1.57-7.08,3.63-8.12,8a3.58,3.58,0,0,1-1.07,1.63c-1.64,1.53-1.4,3.24-.81,5.15,3.32,10.7,21.78,12.56,27.13,5.5.93-1.23,2-2.23,3.72-2,8.64,1,16.21-1.9,21.56-8.34A32.09,32.09,0,0,1,217.78,163c.78-.28,1.5-.74,2.26-1.1a10,10,0,0,0,4.26-4.3c4.61-8,.32-18.06-4.84-22.73-3.63-3.28-8.34-5.29-11.33-9.42a6,6,0,0,0-2.62-1.55c-4.39-1.78-8.91-2.84-13.67-2a10.91,10.91,0,0,1-8.23-1.54C178.72,117.34,173.36,115.36,168.06,115.86Z"/><path class="cls-1" d="M313.26,463.27a4.92,4.92,0,0,1,4.11,2,11.89,11.89,0,0,1,1.91,3.09c2.38,7.46,7.78,12.9,12.4,18.85,15.69,20.18,27.61,42.19,33.09,67.39,1.61,7.41,2.57,14.91,3.64,22.4a47,47,0,0,0,8.2,21c3.47,4.88,6.54,10,9.56,15.17,1.15,2,1.88,3.92.37,6a6.63,6.63,0,0,1-6.49,3.07,9.37,9.37,0,0,1-3.18-1c-3.27-1.79-6.52-2.83-10.42-2-3.33.69-5.43-1.26-6.64-5.77a62.79,62.79,0,0,0-9.4-19.32c-5-7.24-10.56-14-15.26-21.49a370.56,370.56,0,0,1-22.75-41.52c-3.16-6.82-3.75-14.24-5.33-21.44a74.75,74.75,0,0,0-12.68-28.15c-2.62-3.61-2.21-6.79,1.43-9.43a13.21,13.21,0,0,1,7-2.65,5.25,5.25,0,0,0,4.37-2.52A8,8,0,0,1,313.26,463.27ZM380.75,619c2.64,0,4-1.89,2.83-3.91-2.7-4.58-5.09-9.34-8.32-13.62A52.68,52.68,0,0,1,365,575.77c-.37-3.06-.81-6.11-1.26-9.16-3.09-20.89-10.36-40.16-21.13-58.37-8.19-13.84-20.53-24.79-27-39.79-1.12-2.61-3.93-2.67-5.58-.13a9.33,9.33,0,0,1-8.16,4.49,6.41,6.41,0,0,0-2.14.61c-2.81,1.19-3.56,2.76-2.41,5.54a54.56,54.56,0,0,0,3.17,6.24,82.55,82.55,0,0,1,10.28,27.11c1,5.6,1.68,11.29,4.07,16.56a356.31,356.31,0,0,0,22,40.64C346,584.28,359,596.75,363.51,614.3c.44,1.74,2,2.16,3.62,1.71,3.39-.91,6.46,0,9.44,1.55A8.83,8.83,0,0,0,380.75,619Z"/><path class="cls-1" d="M170.79,829.57c0-15.61.52-31.22,1.21-46.81a279.72,279.72,0,0,1,6.59-49.4,17.9,17.9,0,0,1,2.74-7c1.34-1.78,3-3.17,5.4-3s3,2.26,3.74,4.07c4,10.17,6,20.82,7.36,31.6,2.12,16.61,3.66,33.26,3.32,50-.15,7.75-.73,15.5-.82,23.25-.09,6.91.26,13.82.36,20.73a22.08,22.08,0,0,1-.36,3.89,1.53,1.53,0,0,1-1.48,1.44c-.89,0-1.32-.57-1.67-1.28a9.8,9.8,0,0,1-.61-4.12c-.32-11.79.28-23.56.64-35.33a340.33,340.33,0,0,0-5.14-71.47,103.28,103.28,0,0,0-4.63-16.74c-.3-.83-.42-2-1.56-2.09s-1.54,1-2,1.76a23.47,23.47,0,0,0-2.13,6.94c-3.93,18.24-5.63,36.72-6.37,55.35-.46,11.58-.44,23.17-.8,34.76a231.52,231.52,0,0,0,.64,28,8.09,8.09,0,0,1,.06,1.39c-.13,1-.36,2.16-1.63,2.31s-1.76-1-1.88-2c-.38-3.15-.84-6.31-.92-9.48C170.69,840.8,170.79,835.18,170.79,829.57Z"/><path class="cls-1" d="M314.48,499.36c.17-2.17.48-4.31,2.69-5.23,2.45-1,4.14.62,5.56,2.25,16.85,19.19,31.15,39.7,34.56,66,1,7.4,2.44,14.73,3.68,22.1.29,1.73.43,3.52-1.44,4.41s-3-.62-4-1.76c-6.6-7.11-11.3-15.53-16.36-23.71a194.74,194.74,0,0,1-22.81-52.77A95.63,95.63,0,0,1,314.48,499.36Zm42.56,85c.21-.41.37-.57.36-.71-1.37-13.59-3.58-27-7.86-40-5.77-17.53-17.45-31.36-29-45.27-.56-.67-1.26-1.67-2.32-1s-.72,1.81-.62,2.84c.76,8.07,3.14,15.74,5.83,23.31,5.95,16.73,14.36,32.23,23.72,47.24A113,113,0,0,0,357,584.33Z"/><path class="cls-2" d="M59.23,0h682c12.89,0,23.33,13.76,23.33,30.74h0c0,17-10.44,30.74-23.33,30.74h-682c-12.88,0-23.33-13.76-23.33-30.74h0C35.9,13.76,46.35,0,59.23,0Z"/><text class="cls-3" transform="translate(530.88 449.98)">Daños a la piel</text><text class="cls-4" transform="translate(530.88 474.5)">-Hiperpigmentación</text><text class="cls-4" transform="translate(530.88 499.02)">-Lesiones cutáneas</text><text class="cls-4" transform="translate(530.88 523.54)">-Hipe</text><text class="cls-5" transform="translate(578.93 523.54)">r</text><text class="cls-4" transform="translate(585 523.54)">queratosis</text><text class="cls-6" transform="translate(521 618.08)">Cáncer de vejiga</text><text class="cls-7" transform="translate(455.83 387.87)">Cáncer al pulmón</text><g class="cls-8"><text class="cls-9" transform="translate(400.28 289.29)">Enfermedades ca</text><text class="cls-10" transform="translate(556.32 289.29)">r</text><text class="cls-9" transform="translate(562.45 289.29)">diovascula</text><text class="cls-10" transform="translate(656.14 289.29)">r</text><text class="cls-9" transform="translate(662.27 289.29)">es</text></g><g class="cls-8"><text class="cls-11" transform="translate(425.56 159.09)">Efectos en el desar</text><text class="cls-12" transform="translate(592.21 159.09)">r</text><text class="cls-11" transform="translate(598.23 159.09)">ollo cognitivo</text></g><line class="cls-13" x1="415.84" y1="156.53" x2="204" y2="173.28"/><line class="cls-14" x1="391" y1="286.28" x2="194" y2="366.28"/><line class="cls-14" x1="449.16" y1="385.08" x2="271.98" y2="412.02"/><line class="cls-14" x1="510.36" y1="462.28" x2="369.25" y2="539.81"/><line class="cls-14" x1="510.12" y1="614.27" x2="227.85" y2="669.22"/><text class="cls-15" transform="translate(314.48 44.53)">ARSÉNICO</text></svg>