<svg id="Capa_1" data-name="Capa 1" xmlns="http://www.w3.org/2000/svg" viewBox="0 0 800 800"><defs><style>.cls-1,.cls-4,.cls-5,.cls-6{fill:#063f5c;}.cls-2{fill:#f27f0c;}.cls-3,.cls-4,.cls-5,.cls-6,.cls-7,.cls-9{isolation:isolate;}.cls-3,.cls-4,.cls-7{font-size:21px;}.cls-3,.cls-7,.cls-9{fill:#102228;}.cls-3,.cls-4,.cls-5,.cls-6,.cls-7{font-family:HelveticaNeueLTStd-Lt, Helvetica Neue LT Std;}.cls-5,.cls-6{font-size:19.22px;}.cls-5{letter-spacing:-0.05em;}.cls-7{letter-spacing:-0.02em;}.cls-8{fill:none;stroke:#063f5c;stroke-miterlimit:10;stroke-width:2px;}.cls-9{font-size:36px;font-family:HelveticaNeueLTStd-Bd, Helvetica Neue LT Std;}</style></defs><path class="cls-1" d="M194.15,334.23c1.32-3.21,2.49-6.43,4.57-9.22a7.87,7.87,0,0,1,9.23-2.57c2.69,1.21,2.45,3.64,2.48,6,0,1.23-1.3,2.84.72,3.65,1.79.71,3.11,0,4.45-1.32,6.34-6.31,13.94-8.5,22.83-7.26,14.16,2,24,10.3,31.95,21.29,10.82,14.87,12.74,31.53,9.51,49.19a192.53,192.53,0,0,1-12.45,40.1A67.5,67.5,0,0,1,256.05,452c-1.58,1.83-1.87,3.17-.79,5.58a43.76,43.76,0,0,1,.57,36c-9.09,21.57-25.14,35.15-48.17,40-6.44,1.36-13,.44-19.57.25-5.13-.15-10.27-.4-15.36.68-7.3,1.56-12.79,7.7-12.08,14,.37,3.32,1.23,6.36,4.62,8.41,5.64,3.42,5.85,9.21,5.13,15-1.11,8.74-4.56,16.73-8.36,24.59-.61,1.27-2.24,2.54-.64,4.26s3.18,1.92,5.46,1a53,53,0,0,1,32.14-3c4.19.92,8.45,1.48,12.49,3,2.65,1,4.27-1,5.92-2.32s0-2.76-.6-4c-3.5-7.37-6.58-14.87-7.84-23-2-12.74,6.42-21.16,19.21-19.08,2.15.35,1.87-.5,1.63-1.89A46.77,46.77,0,0,1,229,546c-.41-7.73,9.43-13.1,15.42-11.14a24,24,0,0,1,14.22,12.32c4,7.59,5.79,15.64,3,24.09-1.79,5.49-5.39,9.37-11.3,10.55a10.64,10.64,0,0,1-12.7-8.05l0-.14c-.28-1.17-.49-2.37-.71-3.57-.88-4.69-4.51-7.2-10-6.9a8,8,0,0,0-7.41,7.84c-.28,8.11,2.17,15.67,5.17,23.08.77,1.89,2.23,1,3.33.53,6.15-2.5,11.95-1.25,17.53,1.63,6.82,3.51,9.86,12.94,6.38,19.85a33.15,33.15,0,0,1-12.82,14.15,2.73,2.73,0,0,0-1.65,2.89c.56,5.65-.17,11-3.58,15.75a3.3,3.3,0,0,0-.22,2.71c3.8,22.91-9.91,43.64-32.43,48.78-2.68.61-3.4,1.82-3,4.24a11.58,11.58,0,0,1,0,5.55c-.65,2.05-1.73,2.31-3.17.77-.58-.62-1.07-1.3-1.65-1.91-1.74-1.8-3.62-2.16-5.71-.54-1,.74-2,1.42-3,2.08-2.19,1.41-3.77.73-4.17-1.87a15.4,15.4,0,0,1-.28-4.74c.35-2.25-.38-3-2.57-3.63-12.9-3.51-23-10.77-28.87-23a41.33,41.33,0,0,1-3.39-25.16,5.72,5.72,0,0,0-.88-4.44,20.35,20.35,0,0,1-2.94-12.89c.17-2.23-.09-3.56-2.4-4.86-6-3.39-10.83-8.52-12.88-15-3.28-10.41,1.74-19.92,15.1-21.16a20.58,20.58,0,0,1,9.9,1.48c1.83.77,2.67.2,3.37-1.56a71.77,71.77,0,0,0,4.89-18.37,13.85,13.85,0,0,0-.6-7.19,7.7,7.7,0,0,0-8.85-4.7c-.92.18-1.81.47-2.73.63-3.17.56-5,2.22-5.09,5.63a17.62,17.62,0,0,1-.62,3.3c-2,8.63-11.32,11.9-18.39,6.49-5.42-4.16-7.24-10-7-16.35a33.41,33.41,0,0,1,8.39-21.81,22.89,22.89,0,0,1,7.91-5.64c5.3-2.42,9.9-1.05,14,2.31,3.89,3.14,4,7.57,3.18,12.09-.09.55-.29,1.09-.36,1.64s-.57,1.53.16,1.75a4.77,4.77,0,0,0,2.42-.34c.87-.24.76-1,.55-1.61-2.37-6.9-1.29-14.13-1.6-21.16-.5-11.2,4.21-20.7,12.14-28.56a52.13,52.13,0,0,1,12.07-9.06c6.12-3.28,10.24-8.59,14.33-14,3.67-4.83,6.67-10.19,11.33-14.23a1.37,1.37,0,0,0,.5-1.86,1.48,1.48,0,0,0-.25-.31c-3.8-4.42-3.23-9.57-2.29-14.68,1.53-8.36,3.44-16.66,4.86-25,1.45-8.58,1.43-17.31,2.1-26a3.81,3.81,0,0,0-2-3.71,71.86,71.86,0,0,1-8.71-7.06,15.71,15.71,0,0,1-4.94-8.61,4.25,4.25,0,0,0-2-2.91c-4.45-3.08-7.54-6.79-5.4-13.15-4.07,1.93-7.11,4.48-10.77,5.86-.79.3-.76,1.21-.8,2-1,19.54-1,39.05,2.29,58.42,1.13,6.72,2.75,13.36,4.08,20.06a26.34,26.34,0,0,1,.63,7.51c-.63,7.08-5.34,10.89-11.49,12.64-14.5,4.15-27.71,1.38-39.28-8.54-11.22-9.62-17.88-22.08-22.69-35.79-4.23-12-8-24.16-9.21-36.91C93,362,102.29,342.84,122.42,329a33.5,33.5,0,0,1,23.29-5.6c9.32,1.15,16.45,6,19.77,15.21,1.27,3.5,2.06,7.18,3,10.79.91,3.35,2.11,3.92,4.85,1.71a24.29,24.29,0,0,0,9.15-16.2c1.86-14.89,1.64-29.88,1-44.82-.71-18.29-1.56-36.59-4.33-54.74-.71-4.67-2-6-6.43-7.29-8.58-2.49-17.26-1.42-25.91-.86a207.57,207.57,0,0,0-25.78,3.7c-4,.77-4.07.69-3,4.77a62.66,62.66,0,0,0,2,6.73,9.13,9.13,0,0,0,8.73,6.29c7.41.41,14.45-1.64,21.56-3.18,3.83-.83,7.63-1.86,11.48-2.57,3.15-.59,4.2.34,4.19,3.48,0,6.16.55,12.35-.54,18.47-1,5.45-3.27,10-8.28,13-4.56,2.77-9.3,5.18-14,7.71-14.64,7.9-29.39,15.61-43.85,23.83C91.5,314,85.88,321.05,82,329.63c-13,28.8-21.62,58.9-27.94,89.77-1.7,8.3-6,15.7-10.44,22.86A458.84,458.84,0,0,0,13,500.55C6.78,515,2.42,530.1-2.06,545.15a280.1,280.1,0,0,1-13.5,35.05c-3.37,7.48-6.79,14.92-8.82,23C-27.5,615.6-33.2,627-39.58,638a43.72,43.72,0,0,0-5.68,22.24c0,5.61.06,11.23-.06,16.84a10.48,10.48,0,0,0,4.3,8.69c.94.76,2.18,1.39,2.73,2.38,2.78,5,7.81,8,11.21,12.38a5,5,0,0,0,1.16,1.19c.7.43,1.54,1.1,2.32.7,1-.49.37-1.51.23-2.27-1.51-8.44-2.12-16.88-.29-25.35.19-1,.44-2,.73-3,.46-1.41,1.25-2.63,2.91-2.61,1.85,0,2.18,1.54,2.38,3,.91,6.29,1.78,12.58,2.65,18.88a44.3,44.3,0,0,0,2.1,10.13c1.26,3.27,2.93,3.52,5.31.93a7.08,7.08,0,0,0,1.71-5.45c-.34-7.93-.74-15.87-.93-23.81-.11-4.62,1.17-9.07,2.46-13.46,1.43-4.85,2.74-9.72,3.82-14.65.33-1.52.54-3.45,2.46-3.71,2.15-.3,2.7,1.76,3.34,3.21,2.27,5.07,3.32,10.5,4.43,15.91a16.93,16.93,0,0,0,4.83,9,8.67,8.67,0,0,0,3.58,2.13c1.29.38,2.63.62,3.68-.47s.2-2.24-.33-3.32c-2.59-5.36-1.78-11-1-16.53.65-4.8,1.74-9.56,2.77-14.31a19.82,19.82,0,0,0-.59-10.74c-1.68-5.14-3.89-10.08-5.07-15.43-1.47-6.73-.22-12.94,2.13-19.18,3.7-9.76,10.1-17.88,16-26.24,7.37-10.35,15.12-20.43,21.92-31.2A177.71,177.71,0,0,0,77.9,487.54c3-10.5,8.17-20.07,14.41-29,2.28-3.27,3.94-7,7.2-9.58,1-.81,1.94-1.93,3.42-1.43s1.35,1.88,1.65,3a284.94,284.94,0,0,1,8.14,48.9c1.13,14.4-.28,28.54-6,42.06-7.08,16.6-14,33.34-19.13,50.61-7.23,24.15-15.55,48-19.13,73.17-1.71,12-1.47,24-1,36.09.69,18.31,2.24,36.56,3.83,54.81,1.22,14.05,2.24,28.13,4,42.13,2.11,16.7,4.35,33.37,8.6,49.7.32,1.2.35,2.37-1.1,2.69s-2.28-.7-2.56-2c-1.2-5.58-2.42-11.15-3.47-16.75-4.26-22.72-6.6-45.66-8.55-68.68-1.9-22.54-3.71-45.07-4.77-67.67C62.62,678.06,65.17,661,69,643.91c6.72-30,16.61-59,27.75-87.6,3.59-9.23,7.64-18.29,10.46-27.8a70.58,70.58,0,0,0,2.44-25,301.47,301.47,0,0,0-7.25-47.34c-.24-1.05,0-2.72-1.12-3-1.33-.3-1.76,1.42-2.48,2.32a104,104,0,0,0-19.08,38.1c-5.14,18.92-14.53,35.74-25.35,51.93C47.23,556.17,38.87,566,32.19,576.89c-3.5,5.72-7.06,11.43-9.72,17.66a25.73,25.73,0,0,0,.47,21.52c4.5,9.76,5.37,19.39,2.15,29.63-1.45,4.63-1.62,9.56-1.51,14.45a14,14,0,0,0,1.77,7c1.87,3.27.42,6.56-3.29,7.66s-6.69-.22-9.35-2.48a18,18,0,0,1-6.18-10.1c-1-4.91-1.88-9.87-4-15.12-1.39,7.7-4.41,14.43-5.24,21.69-1,8.4.15,16.79.42,25.18.14,4.09.23,8-3.08,11.15-3.83,3.66-8.08,3.11-10.53-1.62-1.31-2.53-1.68-5.34-2.11-8.11-.83-5.35-1.57-10.72-2.46-16.87a41.8,41.8,0,0,0,0,15.53c.44,2.48.9,5,1.32,7.45a4.18,4.18,0,0,1-3.07,5,4.27,4.27,0,0,1-2.1,0,6.78,6.78,0,0,1-4.2-2.1c-3.29-4.29-8.35-6.9-11-11.8a12,12,0,0,0-3.61-3.86,13.75,13.75,0,0,1-5.82-11.3,246.77,246.77,0,0,1,.62-25.22c.55-6.12,3.22-11.5,6.14-16.73a166.41,166.41,0,0,0,16.13-39c1.85-7.07,5.72-13.39,8.47-20.14C-11.32,561.17-6,545.68-1.26,530c8.6-28.18,21-54.6,36.15-79.74,5-8.18,9.26-16.66,13.44-25.23,2.93-6,3.89-12.49,5.21-18.87A405,405,0,0,1,76.91,331.9a98.85,98.85,0,0,1,4.84-9.79c4.4-7.95,10.93-13.54,19-17.6,17.14-8.59,33.49-18.65,50.61-27.25a34.15,34.15,0,0,0,6.4-4.53,7.5,7.5,0,0,0,2.67-4.19,88.37,88.37,0,0,0,2.22-19.45c0-2.09-.61-2.48-2.68-2-9.12,1.93-18.09,4.63-27.48,5.34-8.15.61-13.5-2.64-16.12-10.37-2.09-6.14-3-12.54-4.32-18.85A14.82,14.82,0,0,0,106.7,214a36.08,36.08,0,0,1-4.74-5.14,5,5,0,0,1-.63-5.31,36.81,36.81,0,0,1,5.11-9.93,57.66,57.66,0,0,0,4.37-7.17c2-3.58,2.09-7.17,1.12-11.08-3.86-15.68-3.82-31.28,1.35-46.72,4.29-12.8,11.84-23.24,23.39-30.18,7.24-4.35,15-7.6,23.78-8.57,13.74-1.53,27.17-1.31,40.41,3,15.64,5.15,28.21,14.42,37.21,28.21,5.16,7.9,7.39,17,8.2,26.27a118.28,118.28,0,0,1-7.46,53.94,95.83,95.83,0,0,1-20.93,32.23,10.09,10.09,0,0,0-3.21,6.61c-.54,8.68-.93,17.36-.67,26.06.18,6,3.81,9.82,8.65,12.54,6.84,3.84,13.9,7.3,20.79,11.07,11.31,6.2,22.43,12.75,34,18.54,8,4,13.49,10.36,17.33,18.13,7.6,15.37,13.23,31.54,18.35,47.87a414.21,414.21,0,0,1,10.23,41.37c2.14,10.55,7.18,19.92,12.63,28.9a463.41,463.41,0,0,1,31.82,62.09c5.34,12.79,8.76,26.24,13.28,39.31,5.56,16.09,11,32.21,18.55,47.52,1.58,3.2,2.18,6.75,3.16,10.16a153.52,153.52,0,0,0,13.87,32.43c4,7.18,7.13,14.47,7.32,23,.17,7,.29,14,.23,21a13.25,13.25,0,0,1-5.71,10.77,15.34,15.34,0,0,0-4.1,4.54c-2.79,4.63-7.58,7.35-10.92,11.46a6.27,6.27,0,0,1-3.48,1.73c-3.59.87-6.07-1.51-5.48-5.14.88-5.43,2.3-10.81,2-16.38a28.56,28.56,0,0,0-.74-5.6c-1,6.25-1.87,12.51-2.89,18.74-.44,2.68-1,5.34-3,7.42-2.39,2.51-5.25,2.71-8,.63a10.53,10.53,0,0,1-4.26-10.1c.73-6.71.18-13.46.9-20.17.47-4.32-.41-8.58-1.49-12.75-1.34-5.15-2.8-10.27-4.29-15.7a64.73,64.73,0,0,0-3.4,12.83A19.22,19.22,0,0,1,363,674.29c-2.8,2.44-6,3.86-9.82,2.66-3.21-1-5-4.2-3.49-6.76,3.12-5.19,2.36-10.7,1.68-16.12-.74-5.92-2.09-11.77-3.22-17.64a13.56,13.56,0,0,1,.43-6.63,92.1,92.1,0,0,1,3.59-10.33c4.44-10.15,3.07-19.69-2.27-29.21-6.43-11.46-14.26-21.91-21.87-32.56-10.61-14.84-20.84-30-27.33-47.2-3.23-8.56-5.49-17.49-8.73-26a90,90,0,0,0-13.42-24.19c-.48-.61-.77-1.81-1.76-1.52s-.78,1.43-.93,2.2A390.33,390.33,0,0,0,270,499.78a84.25,84.25,0,0,0,1.31,25.1c1.44,7,4.14,13.57,6.81,20.16,8.66,21.31,16.7,42.85,23.33,64.89a431.56,431.56,0,0,1,13.2,56.19c1.68,10.38,1.5,20.86,1.1,31.34q-.62,16-1.82,31.9c-1.32,17.61-2.88,35.2-4.48,52.79a547.17,547.17,0,0,1-8.51,58.51c-.9,4.49-1.93,9-3,13.41-.29,1.24-.63,2.92-2.39,2.5s-1.69-1.9-1.26-3.42c3.81-13.63,5.93-27.58,8-41.54,3.4-22.66,4.9-45.51,6.89-68.32,1.5-17.23,2.45-34.48,3.15-51.76s-2.69-34.21-6.38-51c-2.71-12.36-7.5-24.09-10.7-36.29-5.76-22-14.58-42.8-23.06-63.77a78.67,78.67,0,0,1-5.7-26.17c-.87-19.79,2.84-39.08,7-58.3.26-1.21.53-2.34,2.11-2.57s2.55.79,3.45,1.91a112.57,112.57,0,0,1,20.42,40.55c4.75,17.15,12.9,32.67,22.9,47.24,8.63,12.55,17.75,24.76,26.41,37.3,5,7.29,8.73,15.25,9.77,24.21.51,4.29-.76,8.34-1.74,12.42a22.37,22.37,0,0,1-1.65,4.76c-3.75,7.49-4,15.1-1.77,23.13a51.56,51.56,0,0,1,2,19.68,14,14,0,0,1-1.66,5.6c-.52.91-1,1.85-.19,2.84a2.81,2.81,0,0,0,2.84.77c2.87-.51,4.78-2.38,6.45-4.6,2.65-3.52,3-7.79,4-11.87a52.28,52.28,0,0,1,3.79-11.7c.56-1.15,1.17-2.55,2.79-2.36s2.07,1.55,2.31,2.85c1.62,8.55,4.93,16.68,6.26,25.3a34.19,34.19,0,0,1,.21,6.71c-.29,7.09-.62,14.19-.87,21.28a7.39,7.39,0,0,0,.39,2.76c.69,1.91,1.88,3.78,4,3.88s2.6-2.15,3-3.81c2.11-8.17,2.65-16.6,3.94-24.9.16-1,.27-2,.46-3,.24-1.32.59-2.71,2.25-2.78s2.54,1.09,3,2.51a59.27,59.27,0,0,1,1.85,11.61c.57,5.66-.72,11.17-1.36,16.72-.09.81-.69,1.85.13,2.34s1.75-.3,2.56-.74a1.07,1.07,0,0,0,.41-.38c3-4.66,8.48-7.07,11-12.18a6.7,6.7,0,0,1,2.35-2.38c4.13-2.75,5.76-6.52,5.53-11.48-.31-6.81,0-13.64-.42-20.46A33.43,33.43,0,0,0,416,642.39a185.2,185.2,0,0,1-18.58-44.66c-1.58-6.07-4.8-11.74-7.5-17.49-7.31-15.54-12.29-31.9-17.16-48.31-7.58-25.51-18.84-49.39-32.15-72.36-5.15-8.89-10.56-17.61-15.14-26.85-3.27-6.6-4.79-13.54-6.29-20.55A397.38,397.38,0,0,0,300,347.72c-2.31-5.82-4.81-11.56-7.39-17.26a41,41,0,0,0-18.94-20c-16.77-8.69-32.92-18.52-49.84-26.92a40.92,40.92,0,0,1-5.74-3.5c-5-3.61-7.93-8.32-7.87-14.7.09-8.69-.28-17.38.6-26.06a10.68,10.68,0,0,1,3.19-6.94c16.29-15.89,24.74-35.71,27.93-57.78,2.08-14.4,2.1-29-3.37-42.89A49,49,0,0,0,225,112.06c-5.74-4.93-11.61-9.78-18.5-13.08a59.39,59.39,0,0,0-25.39-6.15c-8.6-.06-17.22-.51-25.66,1.7-19,5-32.49,16.43-38.73,35.16a74.29,74.29,0,0,0-2.45,39c.64,3.11.88,6.3,1.51,9.41,1.1,5.5-.74,10.13-3.92,14.42a95.1,95.1,0,0,0-6.68,10.69c-1.11,2-.48,3.46,1,5,1.67,1.69,2.8.38,4.13-.42,2-1.22,4-2.44,6.06-3.52a18.2,18.2,0,0,1,13.34-1.49c1.72.44,3.45.89,5.12,1.48a364.9,364.9,0,0,0,38.44,11.34c8,1.91,13.07,6.78,16.22,14.09,1.07,2.48,1,5.14,1.22,7.72,2.41,30.94,4.1,61.92,3.39,93a31.63,31.63,0,0,0,0,3.23m0,.36v.23m0-.59V334m-95.9,44.86a91.27,91.27,0,0,0,3,21.94c4.09,16.19,9,32.12,19,45.78,10.2,13.83,23.12,22.17,41.26,19.16,9.73-1.61,15.3-6,13.15-17.17-2.34-12.09-5.53-24-6.2-36.43-.62-11.75-1.8-23.47-.68-35.25,1.26-13.28-1-26.15-5.54-38.53-2.58-7.12-8.52-11.18-16-12A33,33,0,0,0,123.56,332c-16.28,11.34-24.84,27-25.33,46.86Zm180,.11c.19-13.19-4.24-24.77-12.32-35-7.29-9.25-16.21-16-28.33-17.47-7-.88-13.37.13-18.7,5.26-1.6,1.54-1.35,2.12.61,2.68,13.91,4,19.5,18.2,18.29,29.37a6.63,6.63,0,0,0,.49,3.29,48.63,48.63,0,0,1,3.42,17.51c.1,8-1.87,15.32-13.13,16.43A31,31,0,0,1,212,397.78c-3-1.45-3-1.47-3.19,2-.69,12.41-1.57,24.79-4.5,36.94a114.65,114.65,0,0,0-2.83,15.14c-.76,7.24,2.9,10.87,9.09,12.87a35.38,35.38,0,0,0,17.74,1.17c11.89-2.35,20.72-9.42,27.78-19,6.28-8.52,10.46-18.08,13.89-28,4.44-13,7.94-26.12,8.22-39.9ZM234.27,631.53c-2.56.9-3.18,2.33-2.78,4.67a11.11,11.11,0,0,1-2.65,9.12c-1.24,1.52-2.54,2-4.4,1.2A49.82,49.82,0,0,0,215,644c-1.26-.27-2.73-.51-3.45,1-3,6.59-7.34,12.55-9.19,19.76-2.5,9.77-3.18,19.7-3.66,29.68-.16,3.36.15,3.53,3.48,2.48,21.2-6.68,32.18-24.9,28.12-46.75-.24-1.33-.19-2.37.92-3.24a6.79,6.79,0,0,0,1.66-2.56C234.83,640.38,234.42,636.08,234.27,631.53Zm-89.21.6c-.4,5.07-.67,10,2.42,14,1.58,2,1.55,3.62,1.2,5.82-1.56,10,0,19.65,5.43,28.27s13.56,13.72,23.1,16.82c2.16.7,3,.08,2.87-2.13q-.51-7.41-1-14.82c-.82-12.51-5.2-23.81-11.54-34.48a2.79,2.79,0,0,0-3.45-1.55c-2.54.61-5.11,1.14-7.61,1.9-4.55,1.39-6.33.61-8-3.92a10.38,10.38,0,0,1-.68-6C148.33,633.76,147.4,632.65,145.06,632.13Zm45.31-291a21.15,21.15,0,0,0,.45-5.83c-.57-11.21.3-22.43.42-33.64.18-15.73-1-31.39-2.42-47-.57-6.42-.22-12.95-1.64-19.25-1.65-7.32-4.46-14-12.79-16.17-13.67-3.53-27.3-7.19-40.56-12.08-7.94-2.93-15.22-2-21.8,3.59,4.26-1.38,8.46-2.91,13.07-2.54,8.85.71,16.21,5.44,24.08,8.78a1.29,1.29,0,0,1,.77,1.38,1.39,1.39,0,0,1-1.29,1.28,49.62,49.62,0,0,1-5,.55,134.24,134.24,0,0,0-25.44,4c-1.49.36-2.09,1-1.77,2.53s1.28,2,2.7,1.65c.45-.1.91-.22,1.37-.31,15.62-3.07,31.3-5.2,47.32-4.16,9.89.65,14.07,3.55,15,12,1.69,14.77,2.87,29.57,3.66,44.41.43,8,.46,16.07.7,24.1.32,10.83.52,21.71-1.43,32.43-1.36,7.46-4.76,14-11.72,17.56-3.24,1.65-4.26,3.26-3.36,6.5a6,6,0,0,1,.1,1.11c.15,1.65.87,2.18,2.4,1.26a56.51,56.51,0,0,0,8.78-6c3.2-2.85,3.76-7,5.92-10.38a17.74,17.74,0,0,0,2.44-5.65m0,0v-.07M157.19,597.65c1.32-1.06,1.29-1.07,2.72-4,3.65-7.42,6.57-15.06,7.53-23.35.79-6.86-1.51-10.5-7.9-13-4.13-1.63-8.06-1-12,.21-1,.29-2,.9-2.87-.07s-.1-1.91.4-2.79a16.7,16.7,0,0,0,1.85-10,5.94,5.94,0,0,0-3.48-5.06c-5.36-2.64-10.36-2-14.68,2.21-7,6.74-9.75,15.14-9,24.66.56,6.83,4.39,11.3,10,12.33a7.37,7.37,0,0,0,8.67-5.3,19.76,19.76,0,0,0,1-6c-.19-3.55,1.64-5.12,4.66-6,1.26-.34,2.51-.74,3.78-1,8.46-1.9,15,3.27,15,11.89a59.05,59.05,0,0,1-5.19,22.8C157.33,595.9,156.43,596.63,157.19,597.65Zm102.56-34.4c-.43-8.21-2.94-15.54-9-21.38-3.69-3.54-7.84-4.77-12.83-3.07-4,1.37-5.52,3.16-5.56,7.34a15.91,15.91,0,0,0,2.16,8.86c.46.72.9,1.53.29,2.34s-1.65.56-2.57.32a44.7,44.7,0,0,0-5.17-1.25c-9.35-1.56-16.26,5.08-15.12,14.35,1.08,8.88,4.46,16.94,8.4,24.83.3.61.53,1.83,1.39,1.39,1-.53.09-1.46-.2-2.14a58.33,58.33,0,0,1-5.06-23.12c.05-6.77,4.73-11.56,11.42-11.7a21.5,21.5,0,0,1,9.71,2.45,3.83,3.83,0,0,1,2.2,3.89,25,25,0,0,0,1.13,7.18,7.42,7.42,0,0,0,8.47,5.26,10.88,10.88,0,0,0,8.14-5.8A19.42,19.42,0,0,0,259.75,563.25ZM153.4,615.83c-4.91-.1-8.46,3.21-8.53,8-.07,4.11,3.41,7.31,8.08,7.46,4.86.14,9.3-3.63,9.45-8C162.52,619.45,158.23,615.92,153.4,615.83Zm72.29,0c-5,0-9.42,3.43-9.36,7.31.06,4.24,4.39,8.12,9.08,8.12s8.39-3.11,8.45-7.1a8,8,0,0,0-7.65-8.33h-.52Zm-84.8-399.06c-4.09-1.92-8-4.21-12.55-5.1a20.23,20.23,0,0,0-10.5.43c-1.73.59-4,.58-4.94,2.25-.69,1.28,1.24,2.54,1.47,4,0,.1.07.18.08.27.23,2.75,1.77,2.89,4.06,2.31a166.69,166.69,0,0,1,22.38-4.17Zm2.43,385c-5.43-.18-9.28,3-8.41,7.17a10.16,10.16,0,0,0,6.16,7.76c2.48,1,3.8.41,4.72-2.17.82-2.28,1.45-4.62,2.38-6.85,2.08-5,1.73-5.59-3.74-5.91-.37,0-.74,0-1.11,0Zm92.5-.16c-1.65.3-3.31.55-4.94.92-1.2.27-1.78,1-1.12,2.26a51.4,51.4,0,0,1,4,10.74,2.12,2.12,0,0,0,2.5,1.66h.05c3.65-.49,7.76-5.61,7.5-9.39s-3.21-6-8-6.19Zm-7.38,36c.2-2.36-.62-3.52-3.18-3.3A10.08,10.08,0,0,1,218,632c-.94-.75-1.57-.85-2,.56-.6,2.14-1.31,4.26-2,6.37-.37,1.14-.13,1.63,1.15,1.89a61.39,61.39,0,0,1,8.66,2.1c2.33.82,3.33-.14,4-2a25.85,25.85,0,0,0,.63-3.27ZM151,637.34c.1,5.25,1.49,6.32,6.15,5.06.27-.07.54-.13.81-.22,2.26-.76,5.65-.24,6.65-2s-1.23-4.42-1.66-6.79a2.76,2.76,0,0,1-.08-.27c-.28-1.64-.92-2.06-2.36-.89a9.1,9.1,0,0,1-6.48,2.14C151.39,634.15,150.66,635.39,151,637.34Z"/><path class="cls-2" d="M10.53,550.32C5.34,554.69.71,559.12.12,566.2a32.66,32.66,0,0,1-1.83,7c-.32,1-.89,2.31-2.36,1.74-1.22-.47-.93-1.61-.72-2.66C-1.57,556,2.18,539.77,9,524.46a119.91,119.91,0,0,1,7.74-14.93A126.12,126.12,0,0,0,31.94,475c.76-2.87,2-5.61,2.53-8.57.21-1.21.3-3,2.17-2.57,1.53.37,1.2,2,1,3.12a116.29,116.29,0,0,1-4.74,18.16c-1.38,3.93-2.73,7.88-2.52,12.25,2.33-5.58,4.63-11.17,7-16.73s4.68-11.43,7.32-17c1.55-3.29,4.73-5.19,7.7-7.14a1.89,1.89,0,0,1,2.57.26c.85.9.56,1.9.16,2.88-2.15,5.39-4.48,10.69-6.88,16-4.81,10.55-8.53,21.56-13.67,32a2.06,2.06,0,0,0-.21,2.15c3.09-3.25,6.18-6.21,7.59-10.58,3.76-11.67,8-23.15,14.13-33.84,1.81-3.16,3.78-6.24,5.82-9.26,1.57-2.31,3.51-2.61,5.81-1.19s1.65,3.16.75,5.11c-4.84,10.41-10.69,20.38-14.12,31.43a31.48,31.48,0,0,0-1.2,4.87c3-5.6,6.36-10.89,9.6-16.29a63.88,63.88,0,0,1,4-5.77c.65-.87,1.58-1.41,2.67-.67A1.94,1.94,0,0,1,70,476.3l0,.06c-.77,1.49-1.63,2.94-2.48,4.39A181.2,181.2,0,0,0,48.4,524.58c-.9,3.26-.2,6.63-1,10.2,3.55-2.72,4.87-6.28,6-10a5.09,5.09,0,0,1,.4-1c.81-1.28.58-4.06,2.93-3.21,2,.71.68,2.79.29,4.23a36.9,36.9,0,0,1-6.51,12.56C44,546,37.85,554.91,33.06,564.69a28,28,0,0,1-2.57,4c-.5.7-1.22,1.27-2.15.69a1.59,1.59,0,0,1-.43-2.21l0,0c2.48-5.22,4.16-10.82,7.62-15.59,2.42-3.32,4.48-6.89,6.74-10.33,1-1.52,1-3.13.69-5.12a6.91,6.91,0,0,0-2.36,3.11c-7.79,15.15-17.53,29.16-25.81,44-2.55,4.57-5,9.22-7.31,13.89C6.07,600-.15,602.2-2.95,600.7c-1.61-.86-2-3.05-.54-5.2,1.66-2.51,2.74-5.32,4.31-7.86,5.62-9.09,7.23-19.31,8.57-29.63C9.72,555.44,10.15,552.88,10.53,550.32Zm27.88-62.93C29.65,492.9,16,524.46,18.73,533.15,26.94,518.51,35.29,504.18,38.41,487.39Zm-13.69-6.54C17,495,7.7,508.31,4.94,525.46c2.31-3.28,6.1-4.27,6.78-8a58.93,58.93,0,0,1,6.12-17.06c2.29-4.28,4.34-8.68,6.52-13A8.34,8.34,0,0,0,24.72,480.85Z"/><path class="cls-2" d="M199.73,177.65c-5.39.21-10.6-1-15.86-1.78a5.16,5.16,0,0,0-3.22.32c-7.72,3.57-15.2,3.06-22.35-1.61a14.19,14.19,0,0,1-6.19-8.06c-.51-1.77-1.2-2.34-2.94-1.61-7.59,3.21-14.22.1-20.31-3.82s-6.55-10.55-6.38-17a21.29,21.29,0,0,1,5.28-14.16,4.63,4.63,0,0,0,1-2.26c1.78-11.28,9-17.21,19.52-19.8a21.94,21.94,0,0,0,9.07-4.11A13.8,13.8,0,0,1,164,101c9.06-1.49,17.73-.58,25.6,4.48a7.8,7.8,0,0,0,5.85,1,27.82,27.82,0,0,1,17.35,3.11,5,5,0,0,1,1.83,1.26c2.73,4,7.24,5.82,10.58,9,6.06,5.73,9.29,12.8,7.93,21.4a6.5,6.5,0,0,0,.44,3.54c4.17,10.69,0,21.95-10.13,27.18A51.34,51.34,0,0,1,199.73,177.65Zm-27.51-74.23c-7.15,0-10.36.52-13.49,3a24.5,24.5,0,0,1-9.82,4.46c-8.77,2.2-15.26,7-17,16.52a8.18,8.18,0,0,1-1.72,3.8c-4.51,5.5-5.07,11.91-4.35,18.59.42,3.85,1.82,7.38,5.37,9.37A39.06,39.06,0,0,0,139,162.4c6.52,2,14.06-1.22,15.93-6.92a9.17,9.17,0,0,1,5.94-6.14c4.95-1.91,9.06-4.83,11.09-10a2.75,2.75,0,0,1,2.55-1.86c7.14-.58,13.48-2.87,18.2-8.61.62-.74,1.44-1.4,2.39-.54.77.7.42,1.57-.07,2.3a19,19,0,0,1-1.58,2c-4.49,4.86-10.39,6.82-16.65,7.89a3.58,3.58,0,0,0-3,2.06,16.93,16.93,0,0,1-8.79,8.31c-3.92,1.57-7.07,3.63-8.12,8a3.56,3.56,0,0,1-1.06,1.63c-1.64,1.53-1.4,3.24-.81,5.15,3.31,10.7,21.77,12.57,27.13,5.5.93-1.23,2-2.23,3.71-2,8.65,1,16.21-1.9,21.57-8.34A32.14,32.14,0,0,1,222,150.66a21.57,21.57,0,0,0,2.27-1.1,10,10,0,0,0,4.26-4.3c4.6-8,.31-18.06-4.85-22.73-3.63-3.28-8.33-5.29-11.32-9.42a6,6,0,0,0-2.63-1.55c-4.38-1.78-8.9-2.84-13.67-2a11,11,0,0,1-8.23-1.53C182.89,104.9,177.53,102.93,172.22,103.42Z"/><path class="cls-1" d="M317.42,450.83a4.93,4.93,0,0,1,4.12,2,11.86,11.86,0,0,1,1.9,3.09c2.38,7.46,7.78,12.9,12.41,18.85C351.54,495,363.46,517,368.93,542.18c1.61,7.41,2.58,14.91,3.64,22.4a47.06,47.06,0,0,0,8.2,20.95c3.48,4.88,6.54,10,9.56,15.17,1.16,2,1.89,3.93.38,6a6.62,6.62,0,0,1-6.49,3.07,9.15,9.15,0,0,1-3.18-1c-3.28-1.79-6.52-2.83-10.43-2-3.32.69-5.42-1.26-6.64-5.77a63,63,0,0,0-9.39-19.32c-5-7.24-10.56-14-15.26-21.49a366.51,366.51,0,0,1-22.75-41.52c-3.16-6.82-3.75-14.24-5.33-21.44A74.72,74.72,0,0,0,298.56,469c-2.62-3.61-2.21-6.79,1.42-9.43a13.21,13.21,0,0,1,7-2.65,5.25,5.25,0,0,0,4.37-2.52A8,8,0,0,1,317.42,450.83ZM384.91,606.6c2.65,0,4-1.89,2.83-3.91-2.7-4.58-5.09-9.34-8.31-13.62a52.63,52.63,0,0,1-10.26-25.74c-.37-3.06-.82-6.11-1.27-9.16a159.45,159.45,0,0,0-21.12-58.37c-8.19-13.8-20.53-24.8-27-39.8-1.12-2.61-3.93-2.67-5.58-.13a9.29,9.29,0,0,1-8.15,4.49,6.23,6.23,0,0,0-2.15.61c-2.8,1.19-3.56,2.76-2.4,5.54a54.56,54.56,0,0,0,3.17,6.24A82.58,82.58,0,0,1,315,499.87c1,5.6,1.68,11.29,4.06,16.56a357.88,357.88,0,0,0,22,40.64c9.14,14.77,22.14,27.25,26.63,44.8.45,1.74,2,2.15,3.63,1.7,3.39-.91,6.46,0,9.43,1.55A8.77,8.77,0,0,0,384.91,606.6Z"/><path class="cls-1" d="M175,817.13c0-15.61.52-31.21,1.2-46.81a280.67,280.67,0,0,1,6.6-49.4,17.9,17.9,0,0,1,2.74-7c1.33-1.78,3-3.17,5.4-3s3,2.27,3.74,4.07c4,10.17,6,20.82,7.36,31.6,2.11,16.61,3.66,33.26,3.32,50-.16,7.75-.73,15.5-.83,23.25-.08,6.91.26,13.82.37,20.73a23.07,23.07,0,0,1-.36,3.89A1.54,1.54,0,0,1,203,846h0a1.81,1.81,0,0,1-1.66-1.28,9.64,9.64,0,0,1-.61-4.12c-.32-11.79.28-23.56.64-35.33a341,341,0,0,0-5.14-71.47A102,102,0,0,0,191.6,717c-.3-.83-.41-2-1.56-2.09s-1.54,1-2,1.76a23.49,23.49,0,0,0-2.14,6.94c-3.93,18.24-5.63,36.72-6.36,55.35-.46,11.58-.45,23.17-.8,34.76a227.5,227.5,0,0,0,.64,28,6.54,6.54,0,0,1,.05,1.4c-.12,1-.36,2.15-1.63,2.3s-1.75-1-1.88-2c-.38-3.15-.84-6.31-.92-9.48C174.85,828.36,175,822.74,175,817.13Z"/><path class="cls-1" d="M318.65,486.92c.17-2.17.47-4.31,2.69-5.23,2.44-1,4.13.62,5.56,2.25,16.85,19.19,31.14,39.7,34.56,66,1,7.4,2.43,14.73,3.67,22.1.3,1.73.44,3.52-1.43,4.41s-3-.61-4-1.76c-6.6-7.11-11.31-15.52-16.36-23.71a194.74,194.74,0,0,1-22.81-52.77A91.68,91.68,0,0,1,318.65,486.92Zm42.55,85c.22-.41.38-.57.36-.71-1.36-13.59-3.57-27-7.85-40-5.77-17.54-17.46-31.37-29-45.28-.55-.67-1.25-1.67-2.32-1s-.71,1.82-.62,2.84c.77,8.07,3.15,15.74,5.84,23.32,5.94,16.72,14.35,32.22,23.72,47.23a113.22,113.22,0,0,0,9.87,13.57Z"/><path class="cls-1" d="M190-508.34c1.33-3.2,2.49-6.42,4.57-9.21a7.88,7.88,0,0,1,9.23-2.57c2.7,1.21,2.45,3.64,2.48,6,0,1.23-1.3,2.84.73,3.64,1.79.71,3.1,0,4.45-1.31,6.34-6.31,13.93-8.5,22.82-7.27,14.16,2,24,10.31,32,21.3,10.82,14.87,12.73,31.53,9.51,49.19-2.54,13.88-7.05,27.14-12.46,40.1a67.6,67.6,0,0,1-11.39,17.93c-1.57,1.82-1.87,3.17-.78,5.58,5.29,11.84,5.6,24,.57,36-9.1,21.57-25.15,35.15-48.17,40-6.45,1.36-13,.44-19.57.25-5.14-.15-10.28-.4-15.37.68-7.29,1.55-12.79,7.7-12.08,14,.38,3.32,1.23,6.36,4.62,8.41,5.65,3.42,5.86,9.21,5.13,15-1.11,8.74-4.56,16.73-8.36,24.59-.61,1.27-2.24,2.54-.63,4.26s3.17,1.92,5.45,1a53,53,0,0,1,32.14-2.88c4.2.92,8.46,1.48,12.5,3,2.64,1,4.26-1,5.91-2.31s0-2.76-.59-4c-3.51-7.37-6.59-14.87-7.85-23-2-12.74,6.42-21.17,19.21-19.08,2.15.35,1.88-.5,1.63-1.89a45,45,0,0,1-.77-5.54c-.41-7.73,9.43-13.11,15.42-11.14a24,24,0,0,1,14.22,12.32c4,7.59,5.8,15.64,3,24.09-1.79,5.49-5.39,9.37-11.3,10.55a10.63,10.63,0,0,1-12.69-8l0-.15c-.29-1.18-.5-2.38-.72-3.57-.88-4.69-4.5-7.2-10-6.9a8.05,8.05,0,0,0-7.42,7.84c-.27,8.11,2.17,15.67,5.17,23.08.77,1.89,2.23,1,3.34.52,6.14-2.49,11.94-1.24,17.53,1.64,6.81,3.51,9.86,12.94,6.37,19.85A33.1,33.1,0,0,1,235-212.3a2.73,2.73,0,0,0-1.65,2.89c.56,5.65-.17,11-3.58,15.75a3.38,3.38,0,0,0-.22,2.71c3.81,22.91-9.9,43.64-32.43,48.78-2.68.61-3.4,1.82-3,4.23a11.87,11.87,0,0,1,0,5.56c-.66,2-1.73,2.31-3.18.77-.57-.62-1.07-1.3-1.65-1.91-1.74-1.8-3.61-2.16-5.71-.54-1,.74-2,1.42-3,2.08-2.18,1.41-3.76.73-4.17-1.88a15.65,15.65,0,0,1-.28-4.73c.35-2.25-.37-3-2.57-3.63-12.89-3.51-23-10.77-28.86-23a41.25,41.25,0,0,1-3.4-25.16,5.72,5.72,0,0,0-.87-4.44,20.29,20.29,0,0,1-2.94-12.89c.16-2.23-.09-3.56-2.41-4.86-6-3.39-10.83-8.53-12.88-15-3.28-10.41,1.74-19.92,15.1-21.16a20.58,20.58,0,0,1,9.9,1.48c1.83.77,2.68.2,3.37-1.56a71.37,71.37,0,0,0,4.89-18.37,13.85,13.85,0,0,0-.59-7.19,7.7,7.7,0,0,0-8.86-4.7c-.91.17-1.81.47-2.73.63-3.16.56-5,2.22-5.09,5.62a16.24,16.24,0,0,1-.62,3.31c-2,8.63-11.32,11.9-18.38,6.49-5.43-4.16-7.24-10-7-16.36a33.4,33.4,0,0,1,8.38-21.81,23.09,23.09,0,0,1,7.91-5.63c5.31-2.42,9.9-1.05,14.05,2.3,3.9,3.15,4,7.58,3.18,12.1-.09.55-.29,1.09-.36,1.64s-.57,1.53.16,1.75a4.81,4.81,0,0,0,2.43-.34c.87-.24.76-1,.54-1.61-2.37-6.91-1.29-14.13-1.6-21.16-.5-11.2,4.21-20.7,12.14-28.57a52.65,52.65,0,0,1,12.08-9.05c6.11-3.29,10.24-8.59,14.33-14,3.66-4.83,6.67-10.19,11.32-14.23a1.37,1.37,0,0,0,.5-1.86,1.48,1.48,0,0,0-.25-.31c-3.79-4.42-3.23-9.57-2.29-14.68,1.54-8.36,3.45-16.66,4.86-25,1.45-8.58,1.43-17.31,2.11-26a3.84,3.84,0,0,0-2-3.71,71,71,0,0,1-8.7-7.06,15.65,15.65,0,0,1-4.94-8.61,4.34,4.34,0,0,0-2-2.92c-4.45-3.08-7.55-6.78-5.41-13.14-4.07,1.93-7.1,4.48-10.77,5.86-.79.3-.75,1.21-.79,2-1,19.54-1,39.05,2.28,58.42,1.13,6.72,2.75,13.36,4.08,20.06a26.71,26.71,0,0,1,.64,7.51c-.63,7.07-5.35,10.89-11.49,12.64-14.51,4.15-27.72,1.38-39.28-8.54-11.22-9.62-17.88-22.08-22.7-35.79-4.23-12-8-24.16-9.21-36.91-2.39-24.49,6.87-43.67,27-57.48a33.53,33.53,0,0,1,23.3-5.6c9.31,1.15,16.44,6,19.77,15.21,1.26,3.5,2,7.18,3,10.79.9,3.35,2.1,3.92,4.85,1.71a24.24,24.24,0,0,0,9.14-16.2c1.86-14.89,1.64-29.88,1.06-44.82-.72-18.29-1.57-36.6-4.33-54.74-.71-4.68-2-6-6.44-7.29-8.58-2.49-17.26-1.42-25.9-.86a209.6,209.6,0,0,0-25.79,3.69c-4,.78-4.07.7-3,4.78a68.39,68.39,0,0,0,2,6.73,9.14,9.14,0,0,0,8.74,6.29c7.41.4,14.44-1.64,21.55-3.18,3.84-.83,7.63-1.86,11.49-2.57,3.14-.59,4.19.34,4.18,3.48,0,6.16.55,12.35-.54,18.47-1,5.45-3.27,10-8.27,13-4.57,2.78-9.31,5.19-14,7.72-14.65,7.9-29.4,15.6-43.85,23.83-8.06,4.59-13.68,11.62-17.55,20.2-13,28.79-21.62,58.9-27.93,89.77-1.7,8.3-6,15.7-10.45,22.85A460,460,0,0,0,8.85-342C2.61-327.54-1.74-312.45-6.22-297.4a278.87,278.87,0,0,1-13.51,35c-3.37,7.49-6.79,14.93-8.82,23-3.12,12.43-8.81,23.85-15.2,34.87a43.72,43.72,0,0,0-5.68,22.24c0,5.61.06,11.23,0,16.83a10.42,10.42,0,0,0,4.3,8.7c.94.76,2.17,1.39,2.72,2.38,2.78,5,7.82,8,11.21,12.38A4.9,4.9,0,0,0-30-140.81c.7.43,1.53,1.1,2.31.7,1-.49.37-1.51.23-2.28-1.51-8.43-2.12-16.87-.28-25.34q.29-1.52.72-3c.46-1.41,1.25-2.64,2.91-2.61,1.85,0,2.18,1.54,2.39,3,.91,6.29,1.77,12.58,2.64,18.88A44.84,44.84,0,0,0-17-141.38c1.27,3.27,2.93,3.51,5.32.93A7.09,7.09,0,0,0-10-145.9c-.34-7.93-.74-15.87-.93-23.81-.11-4.62,1.18-9.07,2.47-13.46C-7-188-5.72-192.89-4.64-197.82c.33-1.52.55-3.45,2.46-3.71,2.16-.3,2.7,1.76,3.35,3.21,2.26,5.07,3.31,10.5,4.43,15.91a16.8,16.8,0,0,0,4.83,9A8.67,8.67,0,0,0,14-171.26c1.3.38,2.63.62,3.68-.48s.2-2.23-.32-3.31c-2.59-5.36-1.79-11-1-16.53.65-4.8,1.73-9.56,2.76-14.31a20,20,0,0,0-.58-10.74c-1.69-5.14-3.9-10.08-5.07-15.43C12-238.79,13.24-245,15.6-251.24c3.69-9.77,10.1-17.88,16-26.24,7.37-10.35,15.12-20.44,21.92-31.2A177.93,177.93,0,0,0,73.74-355c3-10.49,8.17-20.07,14.4-29,2.29-3.27,3.94-7,7.21-9.58,1-.81,1.93-1.93,3.41-1.43s1.35,1.88,1.65,3a284.94,284.94,0,0,1,8.14,48.9c1.14,14.4-.28,28.54-6,42.06-7.08,16.6-14,33.33-19.14,50.61-7.22,24.15-15.54,48-19.13,73.17-1.71,12-1.47,24-1,36.09.69,18.31,2.24,36.56,3.83,54.81,1.23,14,2.24,28.13,4,42.13,2.14,16.69,4.37,33.36,8.63,49.68.31,1.2.34,2.37-1.11,2.69s-2.28-.7-2.56-2C74.87.54,73.64-5,72.59-10.63,68.34-33.35,66-56.3,64.05-79.31c-1.9-22.54-3.72-45.07-4.77-67.67-.82-17.53,1.73-34.64,5.54-51.68,6.71-30,16.6-59,27.74-87.6,3.59-9.23,7.65-18.29,10.46-27.8a70.81,70.81,0,0,0,2.45-25,302.64,302.64,0,0,0-7.25-47.34c-.24-1.05,0-2.73-1.13-3-1.33-.3-1.76,1.41-2.47,2.31A104.07,104.07,0,0,0,75.53-349C70.39-330,61-313.23,50.18-297,43.06-286.39,34.7-276.61,28-265.67A144.51,144.51,0,0,0,18.29-248a25.73,25.73,0,0,0,.47,21.52c4.49,9.76,5.37,19.39,2.15,29.63-1.46,4.63-1.63,9.56-1.52,14.45a14.25,14.25,0,0,0,1.77,7c1.88,3.27.42,6.56-3.28,7.66s-6.69-.22-9.35-2.48a17.83,17.83,0,0,1-6.18-10.1c-1-4.91-1.88-9.88-4-15.12C-3-187.78-6-181-6.88-173.79c-1,8.4.15,16.78.43,25.17.13,4.1.22,8-3.09,11.15-3.83,3.66-8.08,3.12-10.52-1.61a25.92,25.92,0,0,1-2.12-8.11c-.83-5.35-1.56-10.72-2.45-16.87a41.33,41.33,0,0,0,0,15.52c.44,2.49.9,5,1.32,7.46a4.17,4.17,0,0,1-3.07,5,4.11,4.11,0,0,1-2.09,0,6.77,6.77,0,0,1-4.2-2.11c-3.3-4.28-8.36-6.9-11-11.79a12,12,0,0,0-3.61-3.86A13.74,13.74,0,0,1-53-165.11c-.08-8.41-.14-16.83.62-25.22.55-6.12,3.22-11.5,6.14-16.73a166.41,166.41,0,0,0,16.13-39c1.85-7.08,5.72-13.39,8.48-20.14,6.19-15.16,11.48-30.65,16.25-46.29,8.6-28.18,21-54.6,36.15-79.74,5-8.18,9.26-16.66,13.45-25.23,2.93-6,3.88-12.49,5.2-18.87a406,406,0,0,1,23.37-74.26,104.83,104.83,0,0,1,4.84-9.8c4.4-7.94,10.94-13.53,19-17.59,17.13-8.59,33.48-18.65,50.61-27.25a34.08,34.08,0,0,0,6.39-4.53,7.53,7.53,0,0,0,2.67-4.19,88.46,88.46,0,0,0,2.22-19.46c0-2.08-.6-2.47-2.67-2-9.13,1.93-18.1,4.63-27.48,5.34-8.16.61-13.5-2.64-16.13-10.38-2.08-6.13-3-12.53-4.31-18.84a14.88,14.88,0,0,0-5.36-9.21,36.62,36.62,0,0,1-4.74-5.14,5,5,0,0,1-.63-5.31,36.81,36.81,0,0,1,5.11-9.93,55.9,55.9,0,0,0,4.37-7.18c2-3.57,2.09-7.16,1.13-11.07-3.86-15.68-3.83-31.28,1.35-46.72,4.29-12.8,11.84-23.24,23.38-30.18,7.24-4.35,15-7.6,23.79-8.57,13.73-1.53,27.17-1.31,40.4,3,15.65,5.15,28.22,14.42,37.21,28.2,5.17,7.91,7.39,17,8.2,26.28a118.43,118.43,0,0,1-7.45,53.94A95.9,95.9,0,0,1,213.75-609a10.06,10.06,0,0,0-3.22,6.61c-.54,8.68-.93,17.36-.66,26,.18,6,3.81,9.83,8.64,12.55,6.85,3.84,13.91,7.3,20.79,11.07,11.31,6.2,22.43,12.75,34,18.54,8,4,13.49,10.36,17.33,18.13,7.6,15.37,13.24,31.53,18.35,47.87a413.53,413.53,0,0,1,10.23,41.37c2.15,10.55,7.19,19.92,12.64,28.89a466.43,466.43,0,0,1,31.81,62.1C369-323,372.42-309.58,377-296.51c5.56,16.08,11,32.21,18.54,47.52,1.58,3.2,2.19,6.75,3.16,10.16a153.15,153.15,0,0,0,13.87,32.42c4,7.18,7.13,14.48,7.33,23,.16,7,.29,14,.22,21a13.24,13.24,0,0,1-5.71,10.77,15.75,15.75,0,0,0-4.1,4.54c-2.78,4.63-7.57,7.35-10.92,11.46a6.21,6.21,0,0,1-3.47,1.73c-3.59.87-6.08-1.51-5.49-5.14.88-5.43,2.3-10.81,2-16.38a29.33,29.33,0,0,0-.74-5.6c-1,6.25-1.88,12.5-2.9,18.74-.44,2.68-1,5.34-3,7.42-2.4,2.51-5.25,2.71-8,.63a10.56,10.56,0,0,1-4.27-10.1c.73-6.72.18-13.46.91-20.17.47-4.32-.41-8.58-1.5-12.75-1.34-5.15-2.79-10.27-4.28-15.7a64.76,64.76,0,0,0-3.41,12.83,19.22,19.22,0,0,1-6.36,11.86c-2.79,2.44-6,3.86-9.82,2.66-3.21-1-5-4.2-3.48-6.76,3.11-5.19,2.35-10.7,1.67-16.12-.74-5.92-2.09-11.77-3.21-17.64a13.59,13.59,0,0,1,.42-6.64,89.37,89.37,0,0,1,3.6-10.32c4.43-10.15,3.07-19.69-2.27-29.21-6.43-11.46-14.26-21.91-21.88-32.56-10.61-14.84-20.84-30-27.33-47.2-3.22-8.57-5.48-17.49-8.73-26a89.5,89.5,0,0,0-13.42-24.2c-.48-.6-.77-1.8-1.75-1.51s-.78,1.43-.94,2.2c-2.52,12.84-4.64,25.74-5.88,38.79a84.24,84.24,0,0,0,1.31,25.1c1.45,6.95,4.14,13.57,6.81,20.16,8.66,21.31,16.7,42.85,23.34,64.89a434.84,434.84,0,0,1,13.2,56.19c1.67,10.38,1.5,20.86,1.09,31.33q-.62,16-1.82,31.91c-1.32,17.61-2.87,35.2-4.47,52.79A549.74,549.74,0,0,1,296.75-1.9c-.9,4.49-1.93,9-3,13.41-.29,1.24-.63,2.91-2.38,2.5s-1.69-1.9-1.27-3.42C293.87-3.07,296-17,298.09-31c3.4-22.66,4.9-45.51,6.89-68.32,1.5-17.23,2.46-34.48,3.16-51.76s-2.69-34.21-6.39-51c-2.71-12.36-7.49-24.09-10.69-36.3-5.76-22-14.59-42.79-23.07-63.76a78.46,78.46,0,0,1-5.69-26.17c-.87-19.8,2.83-39.08,6.95-58.3.26-1.21.53-2.34,2.11-2.57s2.55.79,3.45,1.91a112.75,112.75,0,0,1,20.43,40.55c4.74,17.15,12.89,32.67,22.9,47.24,8.62,12.55,17.75,24.76,26.4,37.3,5,7.29,8.73,15.25,9.78,24.21.5,4.29-.77,8.34-1.75,12.42a22.37,22.37,0,0,1-1.65,4.76c-3.74,7.49-4,15.1-1.76,23.12a52,52,0,0,1,2,19.69,14,14,0,0,1-1.66,5.6c-.52.91-1,1.85-.19,2.84a2.81,2.81,0,0,0,2.84.77c2.86-.51,4.77-2.38,6.45-4.6,2.65-3.52,3-7.79,4-11.87a52.45,52.45,0,0,1,3.79-11.7c.56-1.15,1.18-2.55,2.8-2.36s2.06,1.54,2.31,2.85c1.61,8.55,4.92,16.68,6.26,25.3a34.19,34.19,0,0,1,.2,6.71c-.28,7.09-.61,14.19-.87,21.28a7.82,7.82,0,0,0,.39,2.76c.69,1.91,1.89,3.78,4,3.88s2.59-2.15,3-3.82c2.1-8.16,2.64-16.59,3.94-24.89.16-1,.27-2,.45-3.05.25-1.33.59-2.71,2.25-2.78s2.54,1.09,3,2.51A60.14,60.14,0,0,1,395.94-157c.56,5.66-.72,11.16-1.37,16.72-.09.8-.69,1.85.14,2.34s1.74-.3,2.55-.74a1.07,1.07,0,0,0,.41-.38c3-4.66,8.48-7.07,11-12.18a6.67,6.67,0,0,1,2.34-2.38c4.13-2.76,5.76-6.52,5.53-11.48-.31-6.81,0-13.64-.41-20.46a33.77,33.77,0,0,0-4.31-14.66,186.24,186.24,0,0,1-18.59-44.65c-1.58-6.07-4.8-11.74-7.5-17.49-7.31-15.54-12.29-31.9-17.16-48.31C361-336.14,349.74-360,336.43-383c-5.15-8.89-10.56-17.61-15.14-26.85-3.27-6.6-4.79-13.54-6.29-20.55a398.81,398.81,0,0,0-19.13-64.45c-2.32-5.82-4.81-11.56-7.4-17.26a41,41,0,0,0-18.94-20c-16.76-8.69-32.91-18.52-49.84-26.92a40,40,0,0,1-5.73-3.51c-5-3.61-7.93-8.31-7.87-14.69.08-8.69-.29-17.38.59-26.06a10.74,10.74,0,0,1,3.2-6.94c16.29-15.89,24.73-35.71,27.93-57.78,2.08-14.4,2.09-29-3.37-42.9a49.12,49.12,0,0,0-13.58-19.62c-5.74-4.93-11.6-9.78-18.5-13.08A59.55,59.55,0,0,0,177-749.73c-8.59-.07-17.22-.51-25.65,1.7-19,5-32.5,16.43-38.74,35.16a74.4,74.4,0,0,0-2.45,39c.65,3.11.88,6.3,1.51,9.41,1.11,5.5-.74,10.13-3.91,14.41a95.23,95.23,0,0,0-6.68,10.7c-1.12,2-.49,3.46,1,5,1.67,1.69,2.81.38,4.13-.42,2-1.22,4-2.44,6.06-3.52a18.22,18.22,0,0,1,13.35-1.49c1.72.44,3.44.89,5.11,1.48A364.9,364.9,0,0,0,169.17-627c8,1.91,13.07,6.78,16.22,14.09,1.08,2.48,1,5.14,1.23,7.71,2.4,30.95,4.1,61.93,3.38,93,0,1.06-.1,2.13,0,3.23m0,.36v.22m0-.58v.36M94.06-463.7a92.35,92.35,0,0,0,3,21.94c4.09,16.19,9,32.12,19,45.78,10.2,13.83,23.11,22.17,41.25,19.16,9.73-1.61,15.31-6,13.15-17.17-2.34-12.09-5.53-24-6.19-36.43-.63-11.75-1.81-23.47-.69-35.25,1.27-13.28-1.05-26.15-5.54-38.53-2.58-7.12-8.52-11.18-16-12a33.18,33.18,0,0,0-22.7,5.63C103.11-499.22,94.55-483.6,94.06-463.7Zm180,.11c.18-13.19-4.25-24.77-12.32-35-7.29-9.25-16.21-15.95-28.34-17.47-7-.88-13.36.13-18.69,5.26-1.61,1.54-1.36,2.12.6,2.68,13.92,4,19.5,18.2,18.29,29.37a6.82,6.82,0,0,0,.49,3.28,48.68,48.68,0,0,1,3.42,17.52c.1,8-1.87,15.32-13.12,16.43a30.82,30.82,0,0,1-16.55-3.27c-3-1.45-3-1.46-3.2,2-.68,12.41-1.57,24.79-4.5,36.94a116.31,116.31,0,0,0-2.83,15.14c-.76,7.24,2.9,10.87,9.1,12.86a35.23,35.23,0,0,0,17.73,1.18c11.9-2.35,20.73-9.43,27.78-19,6.28-8.52,10.47-18.08,13.89-28,4.44-13,7.95-26.11,8.19-39.92ZM230.1-211c-2.55.91-3.17,2.34-2.77,4.68a11.12,11.12,0,0,1-2.66,9.12c-1.23,1.52-2.54,2-4.4,1.19a50.77,50.77,0,0,0-9.47-2.48c-1.26-.27-2.73-.51-3.44,1-3,6.59-7.35,12.55-9.2,19.76C195.66-168,195-158,194.5-148c-.16,3.36.15,3.53,3.48,2.48,21.21-6.68,32.19-24.9,28.13-46.75-.25-1.33-.19-2.37.92-3.24a6.57,6.57,0,0,0,1.65-2.56C230.67-202.19,230.25-206.48,230.1-211Zm-89.21.61c-.4,5.07-.67,10,2.43,14,1.58,2,1.54,3.62,1.2,5.81-1.56,10,0,19.66,5.43,28.28s13.55,13.72,23.1,16.82c2.15.7,3,.08,2.86-2.13q-.49-7.41-1-14.82c-.81-12.51-5.2-23.81-11.54-34.48a2.78,2.78,0,0,0-3.44-1.55c-2.55.61-5.12,1.14-7.61,1.9-4.55,1.39-6.34.61-8-3.92a10.29,10.29,0,0,1-.67-6.05c.51-2.27-.42-3.38-2.76-3.9Zm45.31-291a21.15,21.15,0,0,0,.45-5.83c-.56-11.21.3-22.43.43-33.64.17-15.73-1-31.39-2.42-47-.57-6.42-.22-12.95-1.64-19.25-1.65-7.32-4.46-14-12.8-16.17-13.67-3.53-27.3-7.19-40.56-12.08-7.94-2.93-15.21-2-21.79,3.59,4.26-1.38,8.45-2.91,13.07-2.54,8.84.71,16.21,5.44,24.08,8.78a1.31,1.31,0,0,1,.77,1.38,1.4,1.4,0,0,1-1.3,1.28c-1.66.23-3.33.48-5,.55A133.84,133.84,0,0,0,114-618.47c-1.49.35-2.09,1-1.76,2.53a1.94,1.94,0,0,0,2.69,1.65c.46-.1.91-.22,1.37-.31,15.62-3.07,31.31-5.2,47.32-4.16,9.9.65,14.07,3.55,15,12,1.69,14.76,2.87,29.57,3.65,44.41.43,8,.46,16.07.7,24.1.33,10.83.52,21.71-1.43,32.43-1.36,7.46-4.76,14-11.71,17.56-3.24,1.65-4.27,3.26-3.36,6.5a5.2,5.2,0,0,1,.09,1.11c.16,1.65.88,2.18,2.4,1.26a56.51,56.51,0,0,0,8.78-6c3.2-2.85,3.77-7,5.93-10.38a18,18,0,0,0,2.44-5.65m0,0v-.07M153-244.91c1.32-1.06,1.29-1.07,2.71-4,3.65-7.42,6.57-15.06,7.53-23.35.8-6.86-1.5-10.5-7.9-13-4.12-1.63-8.05-1-12.05.21-1,.29-2,.9-2.86-.07s-.11-1.91.39-2.79a16.62,16.62,0,0,0,1.86-10,6,6,0,0,0-3.49-5.06c-5.35-2.64-10.36-2-14.68,2.2-7,6.75-9.75,15.15-9,24.67.56,6.83,4.4,11.29,10,12.33a7.38,7.38,0,0,0,8.67-5.3,19.76,19.76,0,0,0,1-6c-.18-3.55,1.64-5.12,4.67-5.95,1.26-.34,2.5-.74,3.78-1,8.46-1.9,15,3.27,15,11.88a58.74,58.74,0,0,1-5.19,22.81C153.17-246.67,152.26-245.93,153-244.91Zm102.55-34.4c-.43-8.21-2.94-15.54-9-21.38-3.69-3.54-7.85-4.77-12.83-3.07-4,1.37-5.53,3.15-5.57,7.34a15.75,15.75,0,0,0,2.17,8.86c.45.72.89,1.53.28,2.34s-1.65.56-2.57.32a44.21,44.21,0,0,0-5.17-1.25c-9.35-1.56-16.25,5.08-15.12,14.35,1.08,8.88,4.47,16.94,8.41,24.83.3.6.52,1.83,1.39,1.39,1.05-.53.08-1.46-.21-2.14a58.33,58.33,0,0,1-5.06-23.12,11.24,11.24,0,0,1,11.43-11.71,21.73,21.73,0,0,1,9.7,2.46,3.81,3.81,0,0,1,2.2,3.89,25.33,25.33,0,0,0,1.13,7.18,7.43,7.43,0,0,0,8.47,5.26,10.88,10.88,0,0,0,8.14-5.8,19.35,19.35,0,0,0,2.24-9.75ZM149.24-226.73c-4.92-.1-8.46,3.21-8.54,8-.06,4.1,3.41,7.31,8.08,7.45,4.86.15,9.31-3.62,9.45-8C158.35-223.12,154.06-226.64,149.24-226.73Zm72.28,0c-5,0-9.41,3.43-9.36,7.31.06,4.24,4.39,8.12,9.09,8.12s8.39-3.11,8.45-7.1a8,8,0,0,0-7.65-8.33h-.53ZM136.73-625.8c-4.09-1.92-8-4.21-12.56-5.1a20.19,20.19,0,0,0-10.49.43c-1.74.59-4,.58-4.94,2.25-.69,1.28,1.24,2.54,1.46,4a1.38,1.38,0,0,1,.08.27c.24,2.75,1.77,2.89,4.06,2.31A168.4,168.4,0,0,1,136.73-625.8Zm2.42,385c-5.42-.18-9.27,3-8.4,7.17a10.14,10.14,0,0,0,6.16,7.76c2.48,1,3.79.41,4.72-2.17.81-2.28,1.45-4.62,2.38-6.85,2.07-5,1.73-5.59-3.74-5.91-.37,0-.75,0-1.12,0Zm92.5-.16c-1.64.3-3.3.55-4.94.92-1.2.27-1.78,1-1.12,2.26a51.4,51.4,0,0,1,4,10.74,2.12,2.12,0,0,0,2.48,1.66l.08,0c3.64-.49,7.75-5.6,7.49-9.39s-3.21-6-8-6.21Zm-7.37,36.05c.19-2.36-.63-3.52-3.19-3.3a10.08,10.08,0,0,1-7.26-2.32c-1-.75-1.58-.85-2,.55-.6,2.15-1.31,4.27-2,6.38-.38,1.13-.14,1.63,1.15,1.88a62.69,62.69,0,0,1,8.65,2.11c2.34.82,3.34-.14,4-2a24.68,24.68,0,0,0,.65-3.3Zm-77.49-.31c.1,5.25,1.49,6.31,6.15,5.06l.81-.22c2.27-.76,5.65-.24,6.65-2s-1.22-4.42-1.66-6.79a1.62,1.62,0,0,0-.08-.27c-.27-1.64-.92-2.06-2.36-.89a9.14,9.14,0,0,1-6.48,2.14c-2.59-.22-3.33,1-3,3Z"/><path class="cls-1" d="M170.79-25.43c0-15.61.52-31.22,1.21-46.81a279.72,279.72,0,0,1,6.59-49.4,17.9,17.9,0,0,1,2.74-7c1.34-1.78,3-3.17,5.4-3s3,2.26,3.74,4.07c4,10.17,6,20.82,7.36,31.6,2.12,16.61,3.66,33.26,3.32,50-.15,7.75-.73,15.5-.82,23.25-.09,6.91.26,13.82.36,20.73a22.26,22.26,0,0,1-.36,4,1.53,1.53,0,0,1-1.48,1.44c-.89,0-1.32-.57-1.67-1.28A9.85,9.85,0,0,1,196.57-2c-.32-11.79.28-23.56.64-35.33a340.33,340.33,0,0,0-5.14-71.47,103.28,103.28,0,0,0-4.63-16.74c-.3-.83-.42-2-1.56-2.09s-1.54.95-2,1.76a23.47,23.47,0,0,0-2.13,6.94c-3.93,18.24-5.63,36.72-6.37,55.35-.46,11.58-.44,23.17-.8,34.76a231.52,231.52,0,0,0,.64,28,8.09,8.09,0,0,1,.06,1.39c-.13,1.05-.36,2.16-1.63,2.31s-1.76-1-1.88-2c-.38-3.15-.84-6.31-.92-9.48C170.69-14.2,170.79-19.82,170.79-25.43Z"/><path class="cls-2" d="M59,0H741.77c12.9,0,23.36,13.82,23.36,30.87h0c0,17.05-10.46,30.88-23.36,30.88H59c-12.9,0-23.35-13.83-23.35-30.88h0C35.64,13.82,46.09,0,59,0Z"/><text class="cls-3" transform="translate(439.33 214.71)">Irritación del estómago</text><text class="cls-4" transform="translate(439.33 237.77)">-</text><text class="cls-5" transform="translate(446.44 237.77)">V</text><text class="cls-3" transform="translate(456.78 237.77)">ómitos</text><text class="cls-6" transform="translate(439.33 260.83)">-Diar</text><text class="cls-7" transform="translate(479.19 260.83)">r</text><text class="cls-4" transform="translate(484.9 260.83)">ea</text><text class="cls-3" transform="translate(439.33 283.9)">-Muerte</text><text class="cls-3" transform="translate(481.65 581.32)">Acomulación y daño a <tspan x="0" y="25.2">los riñones</tspan></text><text class="cls-3" transform="translate(467.09 388.71)">Aumento de la fragilidad <tspan x="0" y="25.2">de los huesos</tspan></text><line class="cls-8" x1="434.38" y1="222.48" x2="254.86" y2="466.52"/><line class="cls-8" x1="462.94" y1="384.24" x2="344.59" y2="486.83"/><line class="cls-8" x1="476.62" y1="576.68" x2="257.92" y2="549.84"/><text class="cls-9" transform="translate(321.64 45.11)">CADMIO</text></svg>