<svg id="Capa_1" data-name="Capa 1" xmlns="http://www.w3.org/2000/svg" viewBox="0 0 800 800"><defs><style>.cls-1,.cls-7,.cls-8,.cls-9{fill:#063f5c;}.cls-2{fill:#f27f0c;}.cls-10,.cls-11,.cls-12,.cls-15,.cls-16,.cls-17,.cls-18,.cls-19,.cls-3,.cls-4,.cls-5,.cls-6,.cls-7,.cls-8,.cls-9{isolation:isolate;}.cls-3,.cls-4,.cls-5,.cls-6,.cls-7,.cls-8,.cls-9{font-size:19.79px;}.cls-11,.cls-12,.cls-15,.cls-16,.cls-17,.cls-18,.cls-3,.cls-4,.cls-5,.cls-6,.cls-7,.cls-8,.cls-9{font-family:HelveticaNeueLTStd-Lt, Helvetica Neue LT Std;}.cls-3{letter-spacing:-0.09em;}.cls-5{letter-spacing:0.02em;}.cls-6,.cls-9{letter-spacing:-0.02em;}.cls-8{letter-spacing:-0.11em;}.cls-11,.cls-12{font-size:19.93px;}.cls-12{letter-spacing:-0.02em;}.cls-13,.cls-14{fill:none;stroke-miterlimit:10;stroke-width:2px;}.cls-13{stroke:#f27f0c;}.cls-14{stroke:#063f5c;}.cls-15,.cls-16{font-size:19.93px;}.cls-16{letter-spacing:-0.02em;}.cls-17,.cls-18{font-size:20.03px;}.cls-18{letter-spacing:-0.02em;}.cls-19{font-size:36px;font-family:HelveticaNeueLTStd-Bd, Helvetica Neue LT Std;}</style></defs><path class="cls-1" d="M613.77-508.87c1.32-3.21,2.49-6.43,4.57-9.22a7.9,7.9,0,0,1,9.23-2.57c2.69,1.21,2.45,3.64,2.48,6,0,1.22-1.3,2.83.73,3.64,1.78.71,3.1,0,4.45-1.31,6.33-6.32,13.93-8.51,22.82-7.27,14.16,2,24,10.31,32,21.29,10.83,14.87,12.74,31.54,9.51,49.2A192.63,192.63,0,0,1,687.11-409a67.6,67.6,0,0,1-11.39,17.93c-1.58,1.83-1.87,3.17-.79,5.59a43.76,43.76,0,0,1,.57,36c-9.09,21.58-25.14,35.15-48.17,40-6.44,1.36-13,.43-19.57.24-5.13-.15-10.27-.4-15.36.68-7.3,1.56-12.79,7.7-12.08,14,.37,3.31,1.23,6.35,4.62,8.4,5.64,3.42,5.86,9.22,5.13,15-1.11,8.74-4.56,16.72-8.36,24.58-.61,1.27-2.24,2.54-.64,4.26s3.18,1.92,5.46,1a53.09,53.09,0,0,1,32.14-2.88c4.19.92,8.46,1.48,12.49,3,2.65,1,4.27-1,5.92-2.32s0-2.76-.6-4c-3.5-7.37-6.58-14.87-7.84-23-2-12.74,6.42-21.16,19.21-19.07,2.15.35,1.87-.51,1.63-1.89a45,45,0,0,1-.77-5.54c-.41-7.74,9.43-13.11,15.42-11.14A24,24,0,0,1,678.3-295.9c4,7.6,5.79,15.64,3,24.09-1.79,5.49-5.39,9.37-11.3,10.55a10.63,10.63,0,0,1-12.7-8l0-.14c-.28-1.18-.49-2.38-.71-3.58-.88-4.68-4.51-7.2-10-6.9a8,8,0,0,0-7.41,7.84c-.27,8.11,2.17,15.67,5.17,23.08.77,1.89,2.23,1,3.33.53,6.15-2.5,12-1.25,17.54,1.63C672-243.33,675-233.9,671.56-227a33.19,33.19,0,0,1-12.82,14.14,2.73,2.73,0,0,0-1.65,2.89c.56,5.65-.17,11-3.58,15.76a3.27,3.27,0,0,0-.22,2.7c3.8,22.91-9.9,43.64-32.43,48.78-2.68.61-3.4,1.82-3,4.24a11.58,11.58,0,0,1,0,5.55c-.65,2-1.73,2.31-3.17.77-.58-.61-1.07-1.3-1.65-1.91-1.74-1.8-3.62-2.16-5.71-.54-1,.74-2,1.42-3,2.08-2.19,1.41-3.76.74-4.17-1.87a15.4,15.4,0,0,1-.28-4.74c.35-2.25-.37-3-2.57-3.63-12.9-3.5-23-10.77-28.87-23a41.29,41.29,0,0,1-3.39-25.15,5.71,5.71,0,0,0-.88-4.45,20.35,20.35,0,0,1-2.94-12.89c.17-2.23-.09-3.55-2.4-4.85-6-3.39-10.83-8.53-12.88-15-3.28-10.41,1.74-19.92,15.1-21.15a20.46,20.46,0,0,1,9.9,1.47c1.83.77,2.68.2,3.37-1.56a71.77,71.77,0,0,0,4.89-18.37,13.82,13.82,0,0,0-.6-7.18,7.71,7.71,0,0,0-8.85-4.71c-.92.18-1.81.47-2.73.63-3.17.56-5,2.22-5.09,5.63a16.14,16.14,0,0,1-.62,3.3c-2,8.64-11.32,11.9-18.39,6.49-5.42-4.15-7.24-10-7-16.35a33.41,33.41,0,0,1,8.39-21.81,22.89,22.89,0,0,1,7.91-5.64c5.3-2.41,9.9-1,14,2.31,3.89,3.14,4,7.57,3.18,12.09-.09.55-.29,1.09-.36,1.64s-.57,1.53.16,1.75a4.77,4.77,0,0,0,2.42-.34c.88-.24.77-1,.55-1.61-2.37-6.9-1.29-14.12-1.6-21.16-.5-11.2,4.21-20.7,12.14-28.56a52.1,52.1,0,0,1,12.07-9c6.12-3.29,10.25-8.6,14.33-14,3.67-4.83,6.67-10.19,11.33-14.23a1.37,1.37,0,0,0,.5-1.86,1.48,1.48,0,0,0-.25-.31c-3.79-4.42-3.23-9.57-2.29-14.68,1.53-8.36,3.45-16.66,4.86-25,1.45-8.58,1.43-17.31,2.1-26a3.82,3.82,0,0,0-2-3.71,71,71,0,0,1-8.7-7.06,15.66,15.66,0,0,1-4.95-8.61,4.32,4.32,0,0,0-2-2.91c-4.46-3.08-7.55-6.78-5.41-13.15-4.07,1.93-7.11,4.48-10.77,5.87-.79.29-.76,1.21-.8,2-1,19.55-1,39.06,2.29,58.42,1.13,6.73,2.75,13.37,4.08,20.06a26.34,26.34,0,0,1,.63,7.51c-.63,7.08-5.34,10.89-11.49,12.65-14.5,4.14-27.71,1.37-39.28-8.54-11.22-9.62-17.87-22.09-22.69-35.8-4.23-12-8-24.16-9.21-36.9-2.39-24.5,6.87-43.68,27-57.49a33.5,33.5,0,0,1,23.29-5.59c9.32,1.14,16.45,6,19.77,15.2,1.27,3.51,2.06,7.19,3,10.79.9,3.35,2.1,3.93,4.84,1.71a24.29,24.29,0,0,0,9.15-16.2c1.86-14.89,1.64-29.87,1-44.82-.71-18.29-1.56-36.59-4.32-54.73-.72-4.68-2-6-6.44-7.3-8.58-2.48-17.26-1.42-25.91-.85a207.54,207.54,0,0,0-25.78,3.69c-4,.77-4.07.69-3,4.78a68.2,68.2,0,0,0,2,6.72,9.15,9.15,0,0,0,8.73,6.3c7.41.4,14.45-1.64,21.56-3.19,3.83-.83,7.63-1.85,11.48-2.57,3.15-.58,4.2.34,4.19,3.48,0,6.16.55,12.35-.54,18.47-1,5.46-3.27,10-8.28,13-4.56,2.77-9.3,5.18-14,7.71-14.64,7.9-29.39,15.61-43.85,23.84-8.06,4.58-13.68,11.61-17.54,20.19-13,28.8-21.62,58.9-27.94,89.77-1.7,8.3-6.05,15.7-10.44,22.86a458.84,458.84,0,0,0-30.62,58.29c-6,14.33-10.42,29.42-14.86,44.48a279.41,279.41,0,0,1-13.5,35c-3.37,7.48-6.79,14.92-8.82,23-3.12,12.42-8.82,23.84-15.2,34.86a43.78,43.78,0,0,0-5.68,22.25c0,5.61.06,11.22-.06,16.83a10.45,10.45,0,0,0,4.3,8.69c.94.77,2.18,1.39,2.73,2.38,2.78,5,7.81,8,11.21,12.38a4.73,4.73,0,0,0,1.17,1.19c.69.44,1.53,1.1,2.31.7,1-.49.37-1.51.23-2.27-1.51-8.44-2.12-16.88-.29-25.35.19-1,.44-2,.73-3,.46-1.4,1.25-2.63,2.91-2.61,1.85,0,2.18,1.55,2.38,3,.91,6.29,1.78,12.58,2.65,18.88a44.84,44.84,0,0,0,2.1,10.13c1.26,3.27,2.93,3.52,5.31.93a7.06,7.06,0,0,0,1.71-5.44c-.34-7.94-.74-15.87-.93-23.81-.11-4.63,1.17-9.08,2.46-13.47,1.43-4.85,2.74-9.72,3.82-14.65.33-1.52.54-3.45,2.46-3.71,2.16-.3,2.7,1.76,3.34,3.21,2.27,5.08,3.32,10.51,4.44,15.91a16.85,16.85,0,0,0,4.82,9,8.67,8.67,0,0,0,3.58,2.13c1.3.38,2.63.62,3.68-.47s.2-2.24-.33-3.32c-2.59-5.36-1.78-11-1-16.52.65-4.81,1.74-9.57,2.77-14.31a20,20,0,0,0-.58-10.75c-1.69-5.14-3.9-10.08-5.07-15.43-1.48-6.73-.23-12.94,2.13-19.17,3.69-9.77,10.09-17.89,16-26.24,7.37-10.36,15.12-20.44,21.92-31.21a177.54,177.54,0,0,0,20.26-46.34c3-10.5,8.17-20.07,14.41-29,2.28-3.27,3.94-7,7.2-9.58,1-.81,1.94-1.93,3.42-1.42s1.35,1.87,1.65,3a285,285,0,0,1,8.14,48.89c1.14,14.4-.28,28.54-6.05,42.06-7.08,16.6-14,33.34-19.13,50.61-7.22,24.15-15.55,48-19.13,73.17-1.71,12-1.47,24-1,36.09.69,18.31,2.24,36.56,3.83,54.81,1.22,14.06,2.24,28.13,4,42.13,2.14,16.69,4.38,33.36,8.63,49.68.32,1.21.35,2.38-1.1,2.69s-2.28-.7-2.56-2c-1.2-5.57-2.42-11.14-3.47-16.75-4.25-22.71-6.6-45.66-8.54-68.68-1.91-22.53-3.72-45.07-4.78-67.66-.82-17.54,1.73-34.65,5.54-51.69,6.72-30,16.61-59,27.75-87.59,3.59-9.23,7.64-18.3,10.46-27.81a70.58,70.58,0,0,0,2.44-25A301.73,301.73,0,0,0,522-386.94c-.25-1.05,0-2.72-1.13-3-1.33-.31-1.76,1.41-2.48,2.31a104.13,104.13,0,0,0-19.08,38.09c-5.14,18.93-14.52,35.75-25.35,51.93-7.12,10.66-15.48,20.43-22.16,31.37-3.5,5.73-7.06,11.43-9.72,17.67a25.71,25.71,0,0,0,.48,21.51c4.49,9.76,5.36,19.39,2.14,29.63-1.45,4.64-1.62,9.57-1.51,14.46a14,14,0,0,0,1.77,7c1.87,3.27.42,6.56-3.29,7.67s-6.69-.22-9.35-2.49a17.86,17.86,0,0,1-6.18-10.1c-1-4.91-1.88-9.87-4-15.12-1.39,7.7-4.41,14.43-5.24,21.69-1,8.4.15,16.79.42,25.18.14,4.09.23,8-3.08,11.15-3.83,3.66-8.08,3.11-10.53-1.62a26.12,26.12,0,0,1-2.11-8.1c-.83-5.36-1.57-10.72-2.46-16.88a41.8,41.8,0,0,0,0,15.53c.44,2.48.9,5,1.32,7.45a4.18,4.18,0,0,1-3.07,5,4.27,4.27,0,0,1-2.1,0,6.78,6.78,0,0,1-4.2-2.1c-3.29-4.29-8.35-6.9-11-11.8a12,12,0,0,0-3.61-3.86,13.72,13.72,0,0,1-5.82-11.29c-.08-8.42-.14-16.84.62-25.23.55-6.11,3.22-11.49,6.14-16.73a166.59,166.59,0,0,0,16.13-39c1.85-7.07,5.72-13.39,8.47-20.13,6.2-15.16,11.49-30.66,16.26-46.3,8.6-28.18,21-54.6,36.15-79.74,5-8.21,9.34-16.67,13.57-25.21,2.92-6,3.88-12.49,5.2-18.87a404.86,404.86,0,0,1,23.37-74.25,100.11,100.11,0,0,1,4.84-9.8c4.4-8,10.93-13.54,19-17.6,17.14-8.59,33.49-18.64,50.62-27.25a34.08,34.08,0,0,0,6.39-4.53,7.48,7.48,0,0,0,2.67-4.18A88.39,88.39,0,0,0,582.3-594c0-2.09-.61-2.48-2.68-2-9.12,1.93-18.09,4.63-27.48,5.34C544-590,538.64-593.31,536-601c-2.09-6.14-3-12.54-4.32-18.85a14.82,14.82,0,0,0-5.35-9.21,36.08,36.08,0,0,1-4.74-5.14,5,5,0,0,1-.63-5.31,36.81,36.81,0,0,1,5.11-9.93,57.66,57.66,0,0,0,4.37-7.17c2-3.58,2.09-7.17,1.12-11.08-3.86-15.68-3.82-31.27,1.36-46.72,4.29-12.8,11.83-23.24,23.38-30.18,7.24-4.35,15-7.59,23.79-8.57,13.73-1.52,27.17-1.31,40.4,3,15.64,5.15,28.21,14.42,37.21,28.21,5.16,7.9,7.39,17,8.2,26.27a118.28,118.28,0,0,1-7.46,53.94,96.1,96.1,0,0,1-20.92,32.24,10,10,0,0,0-3.22,6.6c-.54,8.68-.93,17.36-.67,26.06.18,6,3.82,9.83,8.65,12.54,6.84,3.84,13.9,7.3,20.79,11.07,11.31,6.2,22.43,12.75,34,18.54,8,4,13.49,10.37,17.33,18.13,7.6,15.37,13.23,31.54,18.35,47.87A413.62,413.62,0,0,1,743-427.32c2.15,10.56,7.18,19.92,12.63,28.9a463.41,463.41,0,0,1,31.82,62.09c5.34,12.79,8.76,26.24,13.28,39.31,5.56,16.09,11,32.22,18.55,47.52,1.58,3.2,2.19,6.75,3.16,10.16a153,153,0,0,0,13.87,32.43c4,7.18,7.13,14.48,7.33,23,.16,7,.28,14,.22,21a13.24,13.24,0,0,1-5.71,10.76,15.5,15.5,0,0,0-4.1,4.55c-2.79,4.62-7.58,7.34-10.92,11.45a6.16,6.16,0,0,1-3.48,1.74c-3.59.86-6.07-1.51-5.48-5.15.88-5.43,2.3-10.8,2-16.38a28.56,28.56,0,0,0-.74-5.6c-1,6.25-1.87,12.51-2.89,18.75-.44,2.67-1,5.33-3,7.41-2.39,2.51-5.25,2.72-8,.63a10.56,10.56,0,0,1-4.26-10.1c.73-6.71.18-13.46.91-20.17.46-4.31-.41-8.57-1.5-12.75-1.34-5.15-2.8-10.27-4.28-15.7A65.45,65.45,0,0,0,789-180.64a19.29,19.29,0,0,1-6.36,11.87c-2.8,2.43-6,3.85-9.82,2.65-3.21-1-5-4.19-3.49-6.76,3.12-5.19,2.36-10.7,1.68-16.11-.74-5.93-2.09-11.77-3.22-17.65a13.56,13.56,0,0,1,.43-6.63,92.1,92.1,0,0,1,3.59-10.33c4.44-10.15,3.07-19.69-2.27-29.21-6.43-11.46-14.26-21.91-21.87-32.56-10.61-14.84-20.84-30-27.33-47.2-3.23-8.56-5.48-17.49-8.73-26.05a90,90,0,0,0-13.42-24.19c-.48-.61-.77-1.8-1.76-1.51s-.78,1.42-.93,2.2a390.14,390.14,0,0,0-5.88,38.78,84.24,84.24,0,0,0,1.31,25.1c1.44,6.95,4.14,13.57,6.81,20.16,8.66,21.31,16.7,42.85,23.33,64.89A434.53,434.53,0,0,1,734.18-177c1.68,10.38,1.5,20.86,1.1,31.34q-.62,16-1.82,31.9C732.14-96.15,730.58-78.56,729-61a549.74,549.74,0,0,1-8.52,58.51c-.9,4.49-1.93,9-3,13.41-.29,1.25-.63,2.92-2.39,2.5s-1.69-1.9-1.26-3.42c3.81-13.62,5.93-27.58,8-41.53,3.4-22.66,4.9-45.52,6.89-68.33,1.5-17.22,2.45-34.48,3.15-51.76s-2.68-34.21-6.38-51c-2.71-12.37-7.5-24.1-10.7-36.3-5.76-22-14.58-42.8-23.06-63.77a78.67,78.67,0,0,1-5.7-26.17c-.87-19.79,2.84-39.08,7-58.29.26-1.22.53-2.35,2.11-2.58s2.55.79,3.45,1.91A112.66,112.66,0,0,1,719-347.28c4.75,17.16,12.9,32.68,22.9,47.24,8.63,12.56,17.76,24.77,26.41,37.3,5,7.29,8.73,15.26,9.78,24.22.5,4.28-.77,8.33-1.75,12.41a22.37,22.37,0,0,1-1.65,4.76c-3.75,7.49-4,15.1-1.77,23.13a52,52,0,0,1,2,19.68,14.15,14.15,0,0,1-1.67,5.6c-.52.91-1,1.85-.18,2.84a2.79,2.79,0,0,0,2.83.77c2.87-.51,4.78-2.38,6.45-4.6,2.65-3.52,3-7.79,4-11.86a52.36,52.36,0,0,1,3.79-11.71c.56-1.14,1.18-2.55,2.79-2.36s2.07,1.55,2.31,2.85c1.62,8.55,4.93,16.68,6.26,25.3a34.19,34.19,0,0,1,.21,6.71c-.29,7.1-.61,14.19-.87,21.29a7.34,7.34,0,0,0,.39,2.75c.69,1.91,1.88,3.78,4,3.88s2.6-2.14,3-3.81c2.11-8.17,2.65-16.6,4-24.9.15-1,.26-2,.45-3.05.24-1.32.59-2.7,2.25-2.78s2.54,1.09,3,2.52a59.17,59.17,0,0,1,1.85,11.6c.57,5.66-.72,11.17-1.36,16.73-.09.8-.69,1.84.13,2.33s1.75-.3,2.56-.74a1,1,0,0,0,.41-.37c3-4.66,8.48-7.07,11-12.19a6.78,6.78,0,0,1,2.35-2.38c4.13-2.75,5.76-6.52,5.53-11.48-.31-6.81,0-13.63-.42-20.46a33.46,33.46,0,0,0-4.31-14.65A186.54,186.54,0,0,1,817-245.37c-1.58-6.07-4.8-11.74-7.5-17.49-7.31-15.54-12.29-31.9-17.16-48.3-7.58-25.52-18.84-49.39-32.15-72.36-5.15-8.9-10.56-17.62-15.14-26.86-3.27-6.6-4.79-13.53-6.29-20.55a398.81,398.81,0,0,0-19.13-64.45c-2.32-5.81-4.82-11.56-7.4-17.26a41.18,41.18,0,0,0-18.94-20c-16.77-8.69-32.92-18.52-49.84-26.92a40.92,40.92,0,0,1-5.74-3.5c-5-3.61-7.93-8.32-7.86-14.7.08-8.68-.29-17.37.59-26a10.73,10.73,0,0,1,3.19-7c16.29-15.89,24.74-35.71,27.93-57.78,2.08-14.4,2.1-29-3.37-42.89A48.83,48.83,0,0,0,644.65-731c-5.74-4.94-11.61-9.79-18.5-13.08a59.22,59.22,0,0,0-25.39-6.16c-8.6-.06-17.22-.5-25.66,1.71-19,5-32.49,16.43-38.73,35.15a74.5,74.5,0,0,0-2.45,39c.64,3.1.88,6.29,1.51,9.41,1.1,5.49-.74,10.12-3.92,14.41a93.6,93.6,0,0,0-6.67,10.69c-1.12,2-.49,3.46,1,5,1.67,1.7,2.8.39,4.13-.42,2-1.21,4-2.44,6.06-3.52a18.25,18.25,0,0,1,13.34-1.48c1.72.43,3.45.88,5.12,1.48a364.85,364.85,0,0,0,38.44,11.33c8,1.91,13.07,6.78,16.22,14.09,1.07,2.48,1,5.15,1.22,7.72,2.41,30.95,4.11,61.93,3.39,93,0,1.06-.1,2.13,0,3.23m0,.36v.23m0-.59v.36m-95.9,44.86a91.27,91.27,0,0,0,3,21.94c4.09,16.19,9,32.12,19,45.78,10.2,13.84,23.12,22.17,41.26,19.16,9.73-1.61,15.3-6,13.15-17.17-2.34-12.09-5.53-24-6.19-36.43-.63-11.74-1.81-23.46-.69-35.25,1.27-13.27-1-26.14-5.54-38.53-2.58-7.12-8.52-11.18-16-12a33,33,0,0,0-22.69,5.63c-16.26,11.33-24.82,26.95-25.31,46.85Zm180,.11c.18-13.18-4.25-24.76-12.32-35-7.3-9.24-16.21-16-28.34-17.47-7-.88-13.37.13-18.7,5.26-1.6,1.54-1.35,2.12.61,2.69,13.91,4,19.5,18.19,18.29,29.36a6.86,6.86,0,0,0,.49,3.29,48.63,48.63,0,0,1,3.42,17.51c.1,8-1.87,15.32-13.13,16.44a31,31,0,0,1-16.55-3.27c-3-1.45-3-1.47-3.19,2-.69,12.41-1.57,24.79-4.5,36.94a114.65,114.65,0,0,0-2.83,15.14c-.76,7.25,2.9,10.87,9.09,12.87a35.38,35.38,0,0,0,17.74,1.17c11.89-2.35,20.72-9.42,27.78-19,6.28-8.52,10.47-18.08,13.89-28,4.39-13,7.93-26.14,8.22-39.95Zm-44,252.54c-2.55.9-3.18,2.33-2.78,4.67a11.11,11.11,0,0,1-2.65,9.12c-1.23,1.52-2.54,2-4.4,1.2a50,50,0,0,0-9.47-2.49c-1.26-.26-2.73-.51-3.44,1-3,6.6-7.35,12.55-9.2,19.76-2.5,9.77-3.18,19.7-3.66,29.69-.16,3.35.15,3.52,3.48,2.47C643-152.8,654-171,649.89-192.86c-.24-1.34-.19-2.38.92-3.25a6.67,6.67,0,0,0,1.66-2.55C654.46-202.72,654-207,653.89-211.57Zm-89.21.6c-.4,5.07-.67,10,2.42,14,1.58,2,1.55,3.63,1.21,5.82-1.57,10,0,19.65,5.42,28.27s13.56,13.72,23.1,16.82c2.16.7,3,.08,2.87-2.13q-.51-7.41-1-14.82c-.82-12.51-5.2-23.81-11.54-34.48a2.8,2.8,0,0,0-3.45-1.55c-2.54.62-5.11,1.14-7.61,1.9-4.54,1.39-6.33.62-8-3.92a10.38,10.38,0,0,1-.68-6c.58-2.28-.42-3.39-2.74-3.94ZM610-502a21.15,21.15,0,0,0,.45-5.83c-.57-11.2.3-22.42.42-33.64.18-15.73-1-31.38-2.42-47-.57-6.42-.22-13-1.64-19.25-1.64-7.32-4.46-14-12.79-16.17-13.67-3.52-27.3-7.19-40.56-12.08-7.94-2.92-15.22-2-21.8,3.59,4.26-1.38,8.46-2.91,13.07-2.54,8.85.72,16.21,5.44,24.09,8.78a1.28,1.28,0,0,1,.76,1.38,1.39,1.39,0,0,1-1.29,1.28c-1.66.24-3.33.48-5,.56A133.64,133.64,0,0,0,537.83-619c-1.49.36-2.09,1-1.76,2.54s1.27,1.94,2.69,1.64c.46-.1.91-.21,1.37-.3,15.62-3.08,31.3-5.21,47.32-4.16,9.89.64,14.07,3.55,15,12,1.69,14.76,2.87,29.56,3.65,44.41.43,8,.46,16.06.7,24.1.32,10.82.52,21.7-1.43,32.42-1.36,7.46-4.76,14-11.71,17.56-3.25,1.65-4.27,3.26-3.36,6.5a6.92,6.92,0,0,1,.09,1.11c.16,1.65.87,2.18,2.4,1.26a56.51,56.51,0,0,0,8.78-6c3.2-2.85,3.76-7,5.92-10.38a17.43,17.43,0,0,0,2.44-5.65m0,0V-502M576.82-245.45c1.31-1.05,1.28-1.07,2.71-4,3.65-7.42,6.57-15.06,7.53-23.35.79-6.86-1.5-10.5-7.9-13-4.13-1.62-8.06-1-12,.21-1,.29-2,.9-2.87-.07s-.1-1.91.4-2.79a16.55,16.55,0,0,0,1.85-10,6,6,0,0,0-3.48-5.06c-5.36-2.64-10.36-1.95-14.68,2.21-7,6.74-9.75,15.14-9,24.67.56,6.82,4.4,11.29,10,12.32a7.39,7.39,0,0,0,8.68-5.29,20,20,0,0,0,1-6c-.19-3.55,1.64-5.12,4.66-6,1.26-.34,2.51-.74,3.79-1,8.45-1.9,15,3.27,15,11.89a58.87,58.87,0,0,1-5.19,22.8C577-247.2,576.05-246.47,576.82-245.45Zm102.55-34.4c-.43-8.21-2.94-15.54-9-21.38-3.69-3.53-7.84-4.77-12.83-3.07-4,1.37-5.52,3.16-5.56,7.34a15.82,15.82,0,0,0,2.16,8.86c.46.72.9,1.54.29,2.34s-1.65.56-2.57.32c-1.71-.45-3.43-.95-5.17-1.25-9.35-1.56-16.26,5.08-15.12,14.35,1.08,8.88,4.47,16.95,8.4,24.84.3.6.53,1.82,1.39,1.39s.09-1.46-.2-2.15a58.33,58.33,0,0,1-5.06-23.12c0-6.77,4.73-11.56,11.42-11.7a21.76,21.76,0,0,1,9.71,2.45,3.83,3.83,0,0,1,2.2,3.89,25,25,0,0,0,1.13,7.18A7.4,7.4,0,0,0,669-264.3a10.88,10.88,0,0,0,8.14-5.8A19.45,19.45,0,0,0,679.37-279.85ZM573-227.27c-4.91-.1-8.46,3.21-8.53,8-.07,4.11,3.41,7.32,8.08,7.46,4.86.15,9.31-3.63,9.45-8C582.14-223.65,577.85-227.17,573-227.27Zm72.29,0c-5,0-9.41,3.42-9.36,7.3.06,4.25,4.39,8.12,9.08,8.12s8.39-3.1,8.45-7.1a7.92,7.92,0,0,0-7.53-8.31c-.2,0-.41,0-.62,0Zm-84.8-399.07c-4.09-1.92-8-4.21-12.55-5.1a20.09,20.09,0,0,0-10.49.44c-1.74.58-4,.57-4.94,2.24-.69,1.28,1.23,2.54,1.46,4,0,.09.07.17.08.26.23,2.75,1.77,2.89,4.06,2.31a168.52,168.52,0,0,1,22.4-4.15Zm2.43,385c-5.43-.18-9.27,3-8.41,7.18a10.18,10.18,0,0,0,6.16,7.76c2.48,1,3.8.4,4.72-2.18.82-2.27,1.45-4.62,2.38-6.85,2.08-5,1.73-5.59-3.74-5.91-.35,0-.72,0-1.09,0Zm92.5-.15c-1.65.29-3.31.54-4.94.91-1.2.27-1.78,1-1.12,2.26a51.4,51.4,0,0,1,4,10.74,2.12,2.12,0,0,0,2.5,1.66h0c3.65-.49,7.76-5.61,7.5-9.39s-3.19-6-8-6.17Zm-7.37,36c.19-2.36-.63-3.52-3.19-3.3a10.12,10.12,0,0,1-7.27-2.32c-.94-.74-1.57-.85-2,.56-.6,2.14-1.31,4.26-2,6.38-.38,1.13-.14,1.63,1.14,1.88a61.42,61.42,0,0,1,8.66,2.11c2.33.82,3.33-.15,4-2a27.09,27.09,0,0,0,.68-3.22Zm-77.49-.3c.1,5.24,1.49,6.31,6.15,5,.27-.07.54-.13.81-.22,2.26-.76,5.65-.23,6.65-2s-1.23-4.42-1.66-6.79a2.58,2.58,0,0,1-.08-.26c-.28-1.65-.92-2.07-2.36-.9a9.1,9.1,0,0,1-6.48,2.14c-2.59-.17-3.31,1.06-3,3Z"/><path class="cls-1" d="M594.58-26c0-15.61.52-31.21,1.2-46.81a279.5,279.5,0,0,1,6.6-49.39,17.9,17.9,0,0,1,2.74-7c1.33-1.78,3-3.17,5.4-3s3,2.27,3.74,4.07c4,10.17,6,20.82,7.36,31.6,2.11,16.61,3.66,33.26,3.32,50-.16,7.75-.73,15.5-.83,23.25-.08,6.91.27,13.82.37,20.73a23.07,23.07,0,0,1-.36,3.89,1.54,1.54,0,0,1-1.49,1.44A1.81,1.81,0,0,1,621,1.51a9.71,9.71,0,0,1-.61-4.13c-.32-11.78.28-23.55.64-35.33a340.9,340.9,0,0,0-5.14-71.46,101.29,101.29,0,0,0-4.63-16.74c-.31-.83-.42-2.06-1.57-2.1s-1.54,1-2,1.76a23.79,23.79,0,0,0-2.14,6.94c-3.93,18.24-5.63,36.72-6.36,55.35-.46,11.58-.45,23.17-.8,34.76a227.5,227.5,0,0,0,.64,28A6.55,6.55,0,0,1,599,0c-.12,1.05-.36,2.15-1.63,2.3s-1.75-1-1.87-2c-.39-3.15-.84-6.31-.93-9.47C594.47-14.74,594.58-20.35,594.58-26Z"/><path class="cls-1" d="M621.82,334.23c1.33-3.21,2.49-6.43,4.57-9.22a7.88,7.88,0,0,1,9.23-2.57c2.7,1.21,2.45,3.64,2.48,6,0,1.23-1.3,2.84.73,3.65,1.79.71,3.1,0,4.45-1.32,6.34-6.31,13.93-8.5,22.82-7.26,14.16,2,24,10.3,32,21.29,10.82,14.87,12.73,31.53,9.51,49.19-2.54,13.88-7.05,27.14-12.46,40.1A67.47,67.47,0,0,1,683.72,452c-1.58,1.83-1.87,3.17-.79,5.58,5.3,11.84,5.61,24,.58,36-9.1,21.57-25.15,35.15-48.18,40-6.44,1.36-13,.44-19.56.25-5.14-.15-10.28-.4-15.37.68-7.3,1.56-12.79,7.7-12.08,14,.38,3.32,1.23,6.36,4.62,8.41,5.65,3.42,5.86,9.21,5.13,15-1.11,8.74-4.56,16.73-8.36,24.59-.61,1.27-2.24,2.54-.63,4.26s3.17,1.92,5.45,1a53,53,0,0,1,32.14-2.88c4.2.92,8.46,1.48,12.5,3,2.64,1,4.26-1,5.91-2.32s0-2.76-.59-4c-3.51-7.37-6.59-14.87-7.85-23-2-12.74,6.42-21.16,19.21-19.08,2.15.35,1.87-.5,1.63-1.89a45,45,0,0,1-.77-5.54c-.41-7.73,9.43-13.1,15.42-11.14a24,24,0,0,1,14.22,12.32c4,7.59,5.8,15.64,3,24.09-1.79,5.49-5.39,9.37-11.3,10.55a10.6,10.6,0,0,1-12.68-8,1,1,0,0,1,0-.17c-.29-1.17-.5-2.37-.72-3.57-.88-4.69-4.51-7.2-10-6.9a8.05,8.05,0,0,0-7.42,7.84c-.27,8.11,2.17,15.67,5.17,23.08.77,1.89,2.23,1,3.34.53,6.14-2.5,11.94-1.25,17.53,1.63,6.81,3.51,9.86,12.94,6.37,19.85a33.15,33.15,0,0,1-12.82,14.15,2.73,2.73,0,0,0-1.65,2.89c.56,5.65-.17,11-3.58,15.75a3.38,3.38,0,0,0-.22,2.71c3.81,22.91-9.9,43.64-32.43,48.78-2.68.61-3.4,1.82-3,4.24a11.83,11.83,0,0,1,0,5.55c-.66,2-1.73,2.31-3.18.77-.57-.62-1.07-1.3-1.65-1.91-1.74-1.8-3.62-2.16-5.71-.54-1,.74-2,1.42-3,2.08-2.18,1.41-3.76.73-4.17-1.87A15.77,15.77,0,0,1,608,704c.35-2.25-.37-3-2.57-3.63-12.89-3.51-23-10.77-28.87-23a41.33,41.33,0,0,1-3.39-25.16,5.72,5.72,0,0,0-.87-4.44,20.29,20.29,0,0,1-2.94-12.89c.16-2.23-.09-3.56-2.41-4.86-6-3.39-10.83-8.52-12.88-15-3.28-10.41,1.74-19.92,15.1-21.16a20.58,20.58,0,0,1,9.9,1.48c1.83.77,2.68.2,3.37-1.56a71.37,71.37,0,0,0,4.89-18.37,14.06,14.06,0,0,0-.59-7.19,7.7,7.7,0,0,0-8.86-4.7c-.91.18-1.81.47-2.73.63-3.16.56-5,2.22-5.09,5.63a16.85,16.85,0,0,1-.62,3.3c-2,8.63-11.32,11.9-18.39,6.49-5.42-4.16-7.23-10-7-16.35a33.35,33.35,0,0,1,8.38-21.81,23.11,23.11,0,0,1,7.91-5.64c5.3-2.42,9.9-1,14,2.31,3.9,3.14,4,7.57,3.18,12.09-.09.55-.29,1.09-.36,1.64s-.57,1.53.16,1.75a4.81,4.81,0,0,0,2.43-.34c.87-.24.76-1,.54-1.61-2.37-6.9-1.29-14.13-1.6-21.16-.5-11.2,4.21-20.7,12.14-28.56A52.4,52.4,0,0,1,603,492.83c6.11-3.28,10.24-8.59,14.33-14C621,474,624,468.64,628.61,464.6a1.37,1.37,0,0,0,.5-1.86,1.48,1.48,0,0,0-.25-.31c-3.79-4.42-3.23-9.57-2.29-14.68,1.53-8.36,3.45-16.66,4.86-25,1.45-8.58,1.43-17.31,2.11-26a3.84,3.84,0,0,0-2-3.71,71,71,0,0,1-8.7-7.06,15.65,15.65,0,0,1-4.94-8.61,4.25,4.25,0,0,0-2-2.91c-4.45-3.08-7.55-6.79-5.41-13.15-4.07,1.93-7.1,4.48-10.77,5.86-.79.3-.75,1.21-.79,2-1,19.54-1,39.05,2.28,58.42,1.13,6.72,2.75,13.36,4.08,20.06a26.71,26.71,0,0,1,.64,7.51c-.64,7.08-5.35,10.89-11.5,12.64-14.5,4.15-27.71,1.38-39.27-8.54-11.23-9.62-17.88-22.08-22.7-35.79-4.23-12-8-24.16-9.21-36.91-2.39-24.49,6.87-43.67,27-57.48a33.53,33.53,0,0,1,23.3-5.6c9.31,1.15,16.44,6,19.77,15.21,1.26,3.5,2,7.18,3,10.79.9,3.35,2.1,3.92,4.85,1.71a24.24,24.24,0,0,0,9.14-16.2c1.93-15,1.69-30,1.13-44.92-.72-18.29-1.57-36.59-4.33-54.74-.71-4.67-2-6-6.44-7.29-8.58-2.49-17.26-1.42-25.9-.86a207.46,207.46,0,0,0-25.79,3.7c-4,.77-4.07.69-3,4.77a68.39,68.39,0,0,0,2,6.73,9.14,9.14,0,0,0,8.74,6.29c7.41.41,14.44-1.64,21.55-3.18,3.84-.83,7.63-1.86,11.49-2.57,3.14-.59,4.19.34,4.18,3.48,0,6.16.55,12.35-.54,18.47-1,5.45-3.27,10-8.27,13-4.57,2.77-9.31,5.18-14,7.71-14.65,7.9-29.4,15.61-43.85,23.83-8.06,4.59-13.69,11.62-17.55,20.2-13,28.8-21.62,58.9-27.94,89.77-1.69,8.3-6,15.7-10.44,22.86a458.84,458.84,0,0,0-30.62,58.29c-6.24,14.46-10.6,29.55-15.07,44.6a280.16,280.16,0,0,1-13.51,35c-3.37,7.48-6.79,14.92-8.82,23-3.12,12.43-8.81,23.85-15.2,34.87a43.72,43.72,0,0,0-5.68,22.24c0,5.61.06,11.23-.05,16.84a10.44,10.44,0,0,0,4.3,8.69c.94.76,2.17,1.39,2.72,2.38,2.78,5,7.82,7.95,11.21,12.38a4.9,4.9,0,0,0,1.17,1.19c.7.43,1.53,1.1,2.31.7,1-.49.37-1.51.23-2.27-1.51-8.44-2.12-16.88-.28-25.35a26.17,26.17,0,0,1,.72-3c.46-1.41,1.25-2.63,2.91-2.61,1.85,0,2.18,1.54,2.39,3,.91,6.29,1.77,12.58,2.64,18.88a44.84,44.84,0,0,0,2.1,10.13c1.27,3.27,2.93,3.52,5.32.93a7.09,7.09,0,0,0,1.7-5.45c-.34-7.93-.74-15.87-.93-23.81-.11-4.62,1.17-9.07,2.47-13.46,1.42-4.85,2.73-9.72,3.81-14.65.33-1.52.55-3.45,2.46-3.71,2.16-.3,2.7,1.76,3.35,3.21,2.26,5.07,3.31,10.5,4.43,15.91a16.8,16.8,0,0,0,4.83,9,8.69,8.69,0,0,0,3.57,2.13c1.3.38,2.63.62,3.68-.47s.2-2.24-.32-3.32c-2.6-5.36-1.79-11-1-16.53.65-4.8,1.73-9.56,2.76-14.31a20,20,0,0,0-.58-10.74c-1.69-5.14-3.9-10.08-5.07-15.43-1.48-6.73-.23-12.94,2.13-19.18,3.69-9.76,10.1-17.88,16-26.24,7.37-10.35,15.12-20.43,21.92-31.2a178,178,0,0,0,20.27-46.34c3-10.5,8.17-20.07,14.4-29,2.29-3.27,3.94-7,7.21-9.58,1-.81,1.93-1.93,3.41-1.43s1.35,1.88,1.65,3a284.94,284.94,0,0,1,8.14,48.9c1.14,14.4-.28,28.54-6,42.06-7.08,16.6-14,33.34-19.14,50.61-7.22,24.15-15.54,48-19.13,73.17-1.71,12-1.47,24-1,36.09.69,18.31,2.24,36.56,3.83,54.81,1.23,14,2.24,28.13,4,42.13,2.14,16.69,4.37,33.36,8.63,49.68.31,1.2.34,2.37-1.11,2.69s-2.28-.7-2.56-2c-1.19-5.58-2.42-11.15-3.47-16.75-4.25-22.72-6.6-45.66-8.54-68.68-1.9-22.54-3.72-45.07-4.77-67.67-.82-17.53,1.73-34.64,5.54-51.68,6.71-30,16.6-59,27.74-87.6C528,547.07,532,538,534.86,528.5a70.81,70.81,0,0,0,2.45-25,302.64,302.64,0,0,0-7.25-47.34c-.24-1.05,0-2.72-1.13-3-1.33-.3-1.76,1.42-2.47,2.32a104.07,104.07,0,0,0-19.09,38.09c-5.14,18.92-14.52,35.74-25.35,51.93-7.12,10.65-15.48,20.43-22.16,31.37-3.5,5.72-7.05,11.43-9.71,17.66a25.73,25.73,0,0,0,.47,21.52c4.49,9.76,5.37,19.39,2.15,29.63-1.46,4.63-1.63,9.56-1.52,14.45a14.25,14.25,0,0,0,1.77,7c1.88,3.27.42,6.56-3.28,7.66s-6.7-.22-9.35-2.48a17.83,17.83,0,0,1-6.18-10.1c-1-4.91-1.88-9.87-4-15.12-1.39,7.7-4.41,14.43-5.24,21.69-1,8.4.15,16.79.43,25.18.13,4.09.22,8-3.09,11.15-3.83,3.66-8.08,3.11-10.52-1.62a25.92,25.92,0,0,1-2.12-8.11c-.83-5.35-1.56-10.72-2.45-16.87a41.38,41.38,0,0,0,0,15.53c.44,2.48.9,5,1.32,7.45a4.18,4.18,0,0,1-3.07,5,4.27,4.27,0,0,1-2.1,0,6.76,6.76,0,0,1-4.19-2.1c-3.3-4.29-8.36-6.9-11-11.8a12,12,0,0,0-3.61-3.86,13.75,13.75,0,0,1-5.82-11.3c-.08-8.41-.14-16.83.62-25.22.55-6.12,3.22-11.5,6.14-16.73a166.41,166.41,0,0,0,16.13-39c1.85-7.07,5.72-13.39,8.48-20.14,6.19-15.16,11.48-30.65,16.25-46.29,8.6-28.18,20.95-54.6,36.15-79.74,5-8.18,9.26-16.66,13.45-25.23,2.93-6,3.88-12.49,5.2-18.87A406.75,406.75,0,0,1,504.54,332a101.1,101.1,0,0,1,4.84-9.79c4.4-8,10.94-13.54,19-17.6,17.13-8.59,33.48-18.65,50.61-27.25a34.08,34.08,0,0,0,6.39-4.53,7.5,7.5,0,0,0,2.67-4.19,88.37,88.37,0,0,0,2.22-19.45c0-2.09-.6-2.48-2.67-2-9.13,1.93-18.1,4.63-27.48,5.34-8.16.61-13.5-2.64-16.13-10.37-2.08-6.14-3-12.54-4.31-18.85A14.92,14.92,0,0,0,534.4,214a36.62,36.62,0,0,1-4.74-5.14,5,5,0,0,1-.63-5.31,36.81,36.81,0,0,1,5.11-9.93,55.78,55.78,0,0,0,4.37-7.17c2-3.58,2.09-7.17,1.13-11.08-3.86-15.68-3.83-31.28,1.35-46.72,4.29-12.8,11.84-23.24,23.38-30.18,7.24-4.35,15-7.6,23.79-8.57,13.73-1.53,27.17-1.31,40.4,3,15.65,5.15,28.21,14.42,37.21,28.21,5.17,7.9,7.39,17,8.2,26.27a118.43,118.43,0,0,1-7.45,53.94,95.93,95.93,0,0,1-20.93,32.23,10.06,10.06,0,0,0-3.22,6.61c-.54,8.68-.93,17.36-.67,26.06.19,6,3.82,9.82,8.65,12.54,6.85,3.84,13.91,7.3,20.79,11.07,11.31,6.2,22.43,12.75,34,18.54,8,4,13.49,10.36,17.33,18.13,7.6,15.37,13.24,31.54,18.35,47.87A414.73,414.73,0,0,1,751,415.78c2.15,10.55,7.18,19.92,12.64,28.9a465.13,465.13,0,0,1,31.81,62.09c5.34,12.79,8.76,26.24,13.29,39.31,5.56,16.09,11,32.21,18.54,47.52,1.58,3.2,2.19,6.75,3.16,10.16a153.52,153.52,0,0,0,13.87,32.43c4,7.18,7.13,14.47,7.33,23,.16,7,.29,14,.22,21A13.24,13.24,0,0,1,846.15,691a15.75,15.75,0,0,0-4.1,4.54c-2.78,4.63-7.57,7.35-10.92,11.46a6.21,6.21,0,0,1-3.47,1.73c-3.59.87-6.08-1.51-5.49-5.14.88-5.43,2.3-10.81,2-16.38a28.57,28.57,0,0,0-.75-5.6c-1,6.25-1.87,12.51-2.89,18.74-.44,2.68-1,5.34-3,7.42-2.39,2.51-5.25,2.71-8,.63a10.53,10.53,0,0,1-4.27-10.1c.73-6.71.18-13.46.91-20.17.47-4.32-.41-8.58-1.5-12.75-1.34-5.15-2.8-10.27-4.28-15.7A65.21,65.21,0,0,0,797,662.45a19.22,19.22,0,0,1-6.36,11.86c-2.8,2.44-6,3.86-9.82,2.66-3.21-1-5-4.2-3.49-6.76,3.12-5.19,2.36-10.7,1.68-16.12-.74-5.92-2.09-11.77-3.21-17.64a13.55,13.55,0,0,1,.42-6.63,90.19,90.19,0,0,1,3.6-10.33c4.43-10.15,3.07-19.69-2.27-29.21-6.43-11.46-14.26-21.91-21.88-32.56-10.61-14.84-20.84-30-27.33-47.2-3.22-8.56-5.48-17.49-8.73-26a90,90,0,0,0-13.42-24.19c-.48-.61-.77-1.81-1.75-1.52s-.78,1.43-.94,2.2c-2.52,12.85-4.64,25.75-5.88,38.79a84.25,84.25,0,0,0,1.31,25.1c1.45,7,4.14,13.57,6.81,20.16,8.66,21.31,16.7,42.85,23.34,64.89a434.84,434.84,0,0,1,13.2,56.19c1.67,10.38,1.5,20.86,1.09,31.34q-.61,16-1.82,31.9c-1.32,17.61-2.87,35.2-4.47,52.79a549.74,549.74,0,0,1-8.52,58.51c-.9,4.49-1.93,9-3,13.41-.29,1.24-.63,2.92-2.38,2.5s-1.69-1.9-1.27-3.42c3.81-13.63,5.93-27.58,8-41.54,3.4-22.66,4.9-45.51,6.89-68.32,1.5-17.23,2.46-34.48,3.16-51.76s-2.69-34.21-6.39-51c-2.71-12.36-7.49-24.09-10.69-36.29-5.76-22-14.59-42.8-23.07-63.77a78.46,78.46,0,0,1-5.69-26.17c-.87-19.79,2.83-39.08,7-58.3.26-1.21.53-2.34,2.11-2.57s2.55.79,3.45,1.91a112.75,112.75,0,0,1,20.43,40.55C731.82,513,740,528.49,750,543.06c8.62,12.55,17.75,24.76,26.4,37.3,5,7.29,8.73,15.25,9.78,24.21.5,4.29-.77,8.34-1.75,12.42a22.37,22.37,0,0,1-1.65,4.76c-3.74,7.49-4,15.1-1.76,23.13a52,52,0,0,1,2,19.68,14.14,14.14,0,0,1-1.66,5.6c-.52.91-1,1.85-.19,2.84a2.81,2.81,0,0,0,2.84.77c2.86-.51,4.77-2.38,6.45-4.6,2.64-3.52,3-7.79,4-11.87a52.45,52.45,0,0,1,3.79-11.7c.56-1.15,1.18-2.55,2.8-2.36s2.06,1.55,2.31,2.85c1.61,8.55,4.92,16.68,6.26,25.3a34.19,34.19,0,0,1,.2,6.71c-.29,7.09-.61,14.19-.87,21.28a7.82,7.82,0,0,0,.39,2.76c.69,1.91,1.89,3.78,4,3.88s2.59-2.15,3-3.81c2.11-8.17,2.65-16.6,4-24.9.16-1,.27-2,.45-3,.25-1.32.59-2.71,2.25-2.78s2.54,1.09,3,2.51a60,60,0,0,1,1.84,11.61c.57,5.66-.71,11.17-1.36,16.72-.09.81-.69,1.85.14,2.34s1.74-.3,2.55-.74a1.07,1.07,0,0,0,.41-.38c3-4.66,8.48-7.07,11-12.18A6.92,6.92,0,0,1,843,689c4.13-2.75,5.76-6.52,5.53-11.48-.31-6.81,0-13.64-.42-20.46a33.58,33.58,0,0,0-4.3-14.65,186.31,186.31,0,0,1-18.59-44.66c-1.58-6.07-4.8-11.74-7.5-17.49-7.31-15.54-12.29-31.9-17.16-48.31-7.58-25.51-18.84-49.39-32.15-72.36-5.15-8.89-10.56-17.61-15.14-26.85-3.27-6.6-4.79-13.54-6.29-20.55a398.81,398.81,0,0,0-19.13-64.45c-2.32-5.82-4.81-11.56-7.4-17.26a41,41,0,0,0-18.94-20c-16.76-8.69-32.91-18.52-49.84-26.92a41.4,41.4,0,0,1-5.73-3.5c-5-3.61-7.93-8.32-7.87-14.7.08-8.69-.29-17.38.59-26.06a10.74,10.74,0,0,1,3.2-6.94c16.29-15.89,24.73-35.71,27.92-57.78,2.09-14.4,2.1-29-3.37-42.89a49.1,49.1,0,0,0-13.57-19.63c-5.74-4.93-11.61-9.78-18.5-13.08a59.35,59.35,0,0,0-25.39-6.15c-8.59-.06-17.22-.51-25.65,1.7-19,5-32.5,16.43-38.74,35.16a74.4,74.4,0,0,0-2.45,39c.65,3.11.88,6.3,1.51,9.41,1.11,5.5-.74,10.13-3.91,14.42A93.68,93.68,0,0,0,533,203.24c-1.12,2-.49,3.46,1,5,1.67,1.69,2.81.38,4.13-.42,2-1.22,4-2.44,6.06-3.52a18.22,18.22,0,0,1,13.35-1.49c1.72.44,3.44.89,5.11,1.48A365.79,365.79,0,0,0,601,215.61c8,1.91,13.07,6.78,16.22,14.09,1.07,2.48,1,5.14,1.23,7.72,2.4,30.94,4.1,61.92,3.38,93,0,1.06-.1,2.13,0,3.23m0,.36v.23m-.05-.59V334m-95.9,44.86a91.84,91.84,0,0,0,3,21.94c4.09,16.19,9,32.12,19,45.78,10.2,13.83,23.11,22.17,41.25,19.16,9.73-1.61,15.31-6,13.15-17.17-2.34-12.09-5.53-24-6.19-36.43-.63-11.75-1.81-23.47-.69-35.25,1.27-13.28-1-26.15-5.54-38.53-2.58-7.12-8.52-11.18-16-12a33.08,33.08,0,0,0-22.7,5.64c-16.16,11.33-24.77,27-25.26,46.85Zm180,.11c.18-13.19-4.25-24.77-12.32-35-7.29-9.25-16.21-16-28.34-17.47-7-.88-13.36.13-18.69,5.26-1.61,1.54-1.36,2.12.6,2.68,13.92,4,19.5,18.2,18.29,29.37a6.86,6.86,0,0,0,.49,3.29,48.59,48.59,0,0,1,3.42,17.51c.1,8-1.87,15.32-13.12,16.43a30.91,30.91,0,0,1-16.55-3.26c-3-1.45-3-1.47-3.2,2-.68,12.41-1.57,24.79-4.5,36.94a116.31,116.31,0,0,0-2.83,15.14c-.76,7.24,2.9,10.87,9.09,12.87A35.42,35.42,0,0,0,656,465.89c11.9-2.35,20.72-9.42,27.78-19,6.28-8.52,10.47-18.08,13.89-28,4.42-13,7.93-26.11,8.21-39.89ZM661.94,631.53c-2.55.9-3.17,2.33-2.77,4.67a11.12,11.12,0,0,1-2.66,9.12c-1.23,1.52-2.54,2-4.4,1.2a50,50,0,0,0-9.47-2.49c-1.26-.27-2.73-.51-3.44,1-3,6.59-7.35,12.55-9.2,19.76-2.5,9.77-3.18,19.7-3.66,29.68-.16,3.36.15,3.53,3.48,2.48C651,690.3,662,672.08,658,650.23c-.25-1.33-.19-2.37.91-3.24a6.71,6.71,0,0,0,1.66-2.56C662.51,640.38,662.09,636.08,661.94,631.53Zm-89.21.6c-.4,5.07-.67,10,2.42,14,1.59,2,1.55,3.62,1.21,5.82-1.56,10,0,19.65,5.43,28.27s13.55,13.72,23.1,16.82c2.15.7,3,.08,2.86-2.13q-.5-7.41-1-14.82c-.81-12.51-5.2-23.81-11.54-34.48a2.78,2.78,0,0,0-3.44-1.55c-2.55.61-5.12,1.14-7.61,1.9-4.55,1.39-6.34.61-8-3.92a10.29,10.29,0,0,1-.67-6C576,633.76,575.07,632.65,572.73,632.13ZM618,341.1a21.15,21.15,0,0,0,.45-5.83c-.56-11.21.3-22.43.43-33.64.17-15.73-1-31.39-2.42-47-.57-6.42-.23-12.95-1.64-19.25-1.65-7.32-4.46-14-12.8-16.17-13.67-3.53-27.3-7.19-40.56-12.08-7.94-2.93-15.21-2-21.8,3.59,4.27-1.38,8.46-2.91,13.08-2.54,8.84.71,16.2,5.44,24.08,8.78a1.31,1.31,0,0,1,.77,1.38,1.4,1.4,0,0,1-1.3,1.28,49.62,49.62,0,0,1-5,.55,134.47,134.47,0,0,0-25.45,4c-1.49.36-2.09,1-1.76,2.53s1.28,2,2.69,1.65c.46-.1.91-.22,1.37-.31,15.62-3.07,31.31-5.2,47.32-4.16,9.9.65,14.07,3.55,15,12,1.69,14.77,2.87,29.57,3.65,44.41.43,8,.46,16.07.7,24.1.33,10.83.52,21.71-1.43,32.43-1.36,7.46-4.76,14-11.71,17.56-3.24,1.65-4.27,3.26-3.36,6.5a5.2,5.2,0,0,1,.09,1.11c.16,1.65.88,2.18,2.4,1.26a56.51,56.51,0,0,0,8.78-6c3.2-2.85,3.77-7,5.93-10.38a18,18,0,0,0,2.43-5.65m0,0v-.07m-33.07,256.5c1.32-1.06,1.29-1.07,2.71-4,3.65-7.42,6.57-15.06,7.53-23.35.8-6.86-1.5-10.5-7.9-13-4.12-1.63-8.05-1-12.05.21-1,.29-2,.9-2.86-.07s-.11-1.91.39-2.79a16.62,16.62,0,0,0,1.86-10,6,6,0,0,0-3.49-5.06c-5.35-2.64-10.36-2-14.68,2.21-7,6.74-9.75,15.14-9,24.66.56,6.83,4.4,11.3,10,12.33a7.38,7.38,0,0,0,8.67-5.3,19.76,19.76,0,0,0,1-6c-.18-3.55,1.64-5.12,4.67-6,1.26-.34,2.5-.74,3.78-1,8.45-1.9,15,3.27,15,11.89a58.65,58.65,0,0,1-5.19,22.8C585,595.9,584.1,596.63,584.87,597.65Zm102.55-34.4c-.43-8.21-2.94-15.54-9-21.38-3.69-3.54-7.85-4.77-12.83-3.07-4,1.37-5.53,3.16-5.57,7.34a15.91,15.91,0,0,0,2.16,8.86c.46.72.9,1.53.29,2.34s-1.65.56-2.57.32a44.21,44.21,0,0,0-5.17-1.25c-9.35-1.56-16.25,5.08-15.12,14.35,1.08,8.88,4.47,16.94,8.41,24.83.3.61.52,1.83,1.39,1.39s.08-1.46-.21-2.14a58.33,58.33,0,0,1-5.06-23.12A11.23,11.23,0,0,1,655.57,560a21.72,21.72,0,0,1,9.7,2.45,3.83,3.83,0,0,1,2.2,3.89,25,25,0,0,0,1.13,7.18,7.42,7.42,0,0,0,8.4,5.26,10.88,10.88,0,0,0,8.14-5.8A19.36,19.36,0,0,0,687.42,563.25ZM581.08,615.83c-4.92-.1-8.46,3.21-8.54,8-.06,4.11,3.41,7.31,8.08,7.46,4.86.14,9.31-3.63,9.45-8C590.19,619.45,585.9,615.92,581.08,615.83Zm72.28,0c-5,0-9.41,3.43-9.36,7.31.06,4.24,4.39,8.12,9.09,8.12s8.39-3.11,8.45-7.1a8,8,0,0,0-7.65-8.33h-.53ZM568.57,216.76c-4.09-1.92-8.05-4.21-12.56-5.1a20.19,20.19,0,0,0-10.49.43c-1.74.59-4,.58-4.94,2.25-.69,1.28,1.24,2.54,1.46,4,0,.1.07.18.08.27.24,2.75,1.77,2.89,4.06,2.31A168.4,168.4,0,0,1,568.57,216.76Zm2.42,385c-5.42-.18-9.27,3-8.4,7.17a10.14,10.14,0,0,0,6.16,7.76c2.47,1,3.79.41,4.72-2.17.81-2.28,1.45-4.62,2.38-6.85,2.07-5,1.73-5.59-3.74-5.91-.38,0-.75,0-1.11,0Zm92.5-.16c-1.64.3-3.31.55-4.94.92-1.2.27-1.78,1-1.12,2.26a51.4,51.4,0,0,1,4,10.74,2.12,2.12,0,0,0,2.49,1.66H664c3.64-.49,7.75-5.61,7.49-9.39s-3.21-6-8-6.18Zm-7.37,36c.19-2.36-.63-3.52-3.19-3.3a10.16,10.16,0,0,1-7.27-2.32c-.94-.75-1.57-.85-2,.56-.6,2.14-1.31,4.26-2,6.37-.38,1.14-.14,1.63,1.15,1.89a61.25,61.25,0,0,1,8.65,2.1c2.33.82,3.34-.14,4-2a25.63,25.63,0,0,0,.66-3.25Zm-77.49-.31c.1,5.25,1.49,6.32,6.15,5.06.27-.07.55-.13.81-.22,2.27-.76,5.65-.24,6.65-2s-1.22-4.42-1.66-6.79a1.62,1.62,0,0,0-.08-.27c-.27-1.64-.92-2.06-2.36-.89a9.1,9.1,0,0,1-6.48,2.14c-2.59-.17-3.33,1.07-3,3Z"/><path class="cls-2" d="M438.2,550.32c-5.18,4.37-9.82,8.8-10.4,15.88a33.87,33.87,0,0,1-1.83,7c-.33,1-.9,2.31-2.37,1.74-1.22-.47-.93-1.61-.72-2.66,3.22-16.35,7-32.54,13.77-47.85a119.85,119.85,0,0,1,7.73-14.93A126,126,0,0,0,459.61,475c.76-2.87,2-5.61,2.53-8.57.22-1.21.3-3,2.18-2.57,1.52.37,1.19,2,1,3.12a114.91,114.91,0,0,1-4.74,18.16c-1.38,3.93-2.73,7.88-2.51,12.25,2.32-5.58,4.63-11.17,7-16.73s4.68-11.43,7.31-17c1.56-3.29,4.74-5.19,7.7-7.14a1.93,1.93,0,0,1,2.58.26c.85.9.55,1.9.16,2.88-2.16,5.39-4.49,10.69-6.89,16-4.81,10.55-8.53,21.56-13.66,32a2,2,0,0,0-.22,2.15c3.09-3.25,6.18-6.21,7.59-10.58,3.77-11.67,8-23.15,14.13-33.84,1.81-3.16,3.78-6.24,5.82-9.26,1.57-2.31,3.52-2.61,5.81-1.19s1.65,3.16.75,5.11c-4.84,10.41-10.69,20.38-14.12,31.43a30.35,30.35,0,0,0-1.19,4.87c2.94-5.6,6.36-10.89,9.59-16.29a66,66,0,0,1,4-5.77c.65-.87,1.59-1.41,2.68-.67a2,2,0,0,1,.55,2.74c-.77,1.49-1.64,2.94-2.49,4.39A182,182,0,0,0,476,524.53c-.9,3.26-.2,6.63-1,10.2,3.55-2.72,4.88-6.28,6-10a4,4,0,0,1,.4-1c.8-1.28.57-4.06,2.92-3.21,1.95.71.68,2.79.29,4.23a36.9,36.9,0,0,1-6.51,12.56c-6.47,8.66-12.63,17.59-17.41,27.37a29,29,0,0,1-2.58,4c-.5.7-1.22,1.27-2.15.69s-.77-1.47-.4-2.25c2.49-5.22,4.16-10.82,7.63-15.59,2.41-3.32,4.47-6.89,6.73-10.33,1-1.52,1-3.13.69-5.12a6.91,6.91,0,0,0-2.36,3.11c-7.79,15.15-17.53,29.16-25.81,44-2.55,4.57-5,9.22-7.31,13.89-1.43,2.85-7.66,5.08-10.45,3.58-1.61-.86-2-3-.55-5.2,1.66-2.51,2.74-5.32,4.31-7.86,5.62-9.09,7.23-19.31,8.57-29.63C437.39,555.44,437.82,552.88,438.2,550.32Zm27.88-38.93c-8.75,5.51-22.38,37.07-19.68,45.76,8.22-14.64,16.6-29,19.68-45.76Zm-13.69-6.54c-7.73,14.11-17,27.46-19.77,44.61,2.31-3.28,6.09-4.27,6.78-8a58.24,58.24,0,0,1,6.12-17.06c2.28-4.28,4.33-8.68,6.52-13A8.34,8.34,0,0,0,452.39,504.85Z"/><path class="cls-2" d="M627.4,177.65c-5.38.21-10.6-1-15.86-1.78a5.16,5.16,0,0,0-3.22.32c-7.72,3.57-15.2,3.06-22.35-1.61a14.13,14.13,0,0,1-6.18-8.06c-.51-1.77-1.21-2.34-2.94-1.61-7.6,3.21-14.23.1-20.31-3.82s-6.56-10.55-6.38-17a21.25,21.25,0,0,1,5.27-14.16,4.54,4.54,0,0,0,1-2.26c1.79-11.28,9.05-17.21,19.52-19.8a21.94,21.94,0,0,0,9.07-4.11,13.89,13.89,0,0,1,6.65-2.81c9.05-1.49,17.72-.58,25.6,4.48a7.79,7.79,0,0,0,5.84,1,27.75,27.75,0,0,1,17.35,3.11,5.08,5.08,0,0,1,1.84,1.26c2.72,4,7.24,5.82,10.58,9,6,5.73,9.28,12.8,7.93,21.4a6.5,6.5,0,0,0,.43,3.54c4.18,10.69,0,21.95-10.13,27.18A51.34,51.34,0,0,1,627.4,177.65Zm-27.5-74.23c-7.16,0-10.37.52-13.5,3a24.6,24.6,0,0,1-9.81,4.46c-8.78,2.2-15.27,7-17,16.52a8.3,8.3,0,0,1-1.73,3.8c-4.5,5.5-5.06,11.91-4.34,18.59.41,3.85,1.81,7.38,5.36,9.37a38.89,38.89,0,0,0,7.75,3.22c6.52,2,14.07-1.22,15.93-6.92a9.17,9.17,0,0,1,5.94-6.14c5-1.91,9.06-4.83,11.09-10a2.76,2.76,0,0,1,2.55-1.86c7.14-.58,13.49-2.87,18.21-8.61.61-.74,1.43-1.4,2.38-.54.77.7.43,1.57-.07,2.3a19,19,0,0,1-1.58,2c-4.48,4.86-10.38,6.82-16.65,7.89a3.62,3.62,0,0,0-3,2.06,16.88,16.88,0,0,1-8.78,8.31c-3.93,1.57-7.08,3.63-8.12,8a3.58,3.58,0,0,1-1.07,1.63c-1.64,1.53-1.4,3.24-.81,5.15,3.32,10.7,21.78,12.57,27.13,5.5.93-1.23,2-2.23,3.72-2,8.64,1,16.21-1.9,21.56-8.34a32.14,32.14,0,0,1,14.52-10.17,21.57,21.57,0,0,0,2.27-1.1,9.94,9.94,0,0,0,4.26-4.3c4.61-8,.32-18.06-4.85-22.73-3.62-3.28-8.33-5.29-11.32-9.42a6.14,6.14,0,0,0-2.62-1.55c-4.39-1.78-8.91-2.84-13.67-2a11,11,0,0,1-8.23-1.53C610.56,104.9,605.2,102.93,599.9,103.42Z"/><path class="cls-1" d="M745.09,450.83a4.93,4.93,0,0,1,4.12,2,12.17,12.17,0,0,1,1.91,3.09c2.38,7.46,7.78,12.9,12.4,18.85C779.21,495,791.13,517,796.61,542.18c1.61,7.41,2.57,14.91,3.64,22.4a46.85,46.85,0,0,0,8.2,20.95c3.47,4.88,6.54,10,9.56,15.17,1.15,2,1.88,3.93.37,6a6.62,6.62,0,0,1-6.49,3.07,9.37,9.37,0,0,1-3.18-1c-3.27-1.79-6.52-2.83-10.42-2-3.33.69-5.43-1.26-6.64-5.77a62.79,62.79,0,0,0-9.4-19.32c-5-7.24-10.56-14-15.26-21.49a370.56,370.56,0,0,1-22.75-41.52c-3.16-6.82-3.75-14.24-5.33-21.44A74.72,74.72,0,0,0,726.23,469c-2.62-3.61-2.21-6.79,1.43-9.43a13.21,13.21,0,0,1,7-2.65A5.25,5.25,0,0,0,739,454.4,8,8,0,0,1,745.09,450.83Zm67.5,155.77c2.64,0,4-1.89,2.83-3.91-2.7-4.58-5.09-9.34-8.32-13.62a52.63,52.63,0,0,1-10.26-25.74c-.37-3.06-.81-6.11-1.26-9.16-3.09-20.89-10.36-40.16-21.13-58.37-8.19-13.8-20.53-24.8-27-39.8-1.12-2.61-3.93-2.67-5.58-.13a9.33,9.33,0,0,1-8.16,4.49,6.41,6.41,0,0,0-2.14.61c-2.81,1.19-3.57,2.76-2.41,5.54a54.56,54.56,0,0,0,3.17,6.24,82.55,82.55,0,0,1,10.28,27.11c1,5.6,1.68,11.29,4.06,16.56a357.88,357.88,0,0,0,22,40.64c9.15,14.77,22.14,27.25,26.64,44.8.44,1.74,2,2.15,3.62,1.7,3.39-.91,6.46,0,9.44,1.55A8.65,8.65,0,0,0,812.59,606.6Z"/><path class="cls-1" d="M602.63,817.13c0-15.61.52-31.21,1.21-46.81a279.72,279.72,0,0,1,6.59-49.4,17.9,17.9,0,0,1,2.74-7c1.33-1.78,3-3.17,5.4-3s3,2.27,3.74,4.07c4,10.17,6,20.82,7.36,31.6,2.11,16.61,3.66,33.26,3.32,50-.15,7.75-.73,15.5-.82,23.25-.09,6.91.26,13.82.36,20.73a22.08,22.08,0,0,1-.36,3.89,1.53,1.53,0,0,1-1.48,1.44c-.89,0-1.32-.57-1.67-1.28a9.8,9.8,0,0,1-.61-4.12c-.32-11.79.28-23.56.64-35.33a340.33,340.33,0,0,0-5.14-71.47,102.83,102.83,0,0,0-4.63-16.7c-.31-.83-.42-2-1.56-2.09s-1.55,1-2,1.76a23.47,23.47,0,0,0-2.13,6.94c-3.93,18.24-5.63,36.72-6.37,55.35-.46,11.58-.44,23.17-.8,34.76a231.52,231.52,0,0,0,.64,28,7.26,7.26,0,0,1,.06,1.4c-.13,1-.36,2.15-1.63,2.3s-1.76-1-1.88-2c-.38-3.15-.84-6.31-.93-9.48C602.53,828.36,602.63,822.74,602.63,817.13Z"/><path class="cls-1" d="M746.32,486.92c.17-2.17.48-4.31,2.69-5.23,2.44-1,4.14.62,5.56,2.25,16.85,19.19,31.15,39.7,34.56,66,1,7.4,2.43,14.73,3.68,22.1.29,1.73.43,3.52-1.44,4.41s-3-.61-4-1.76c-6.6-7.11-11.3-15.52-16.36-23.71a194.74,194.74,0,0,1-22.81-52.77A95.63,95.63,0,0,1,746.32,486.92Zm42.56,85c.21-.41.37-.57.36-.71-1.37-13.59-3.58-27-7.86-40-5.77-17.54-17.46-31.37-29-45.28-.56-.67-1.26-1.67-2.32-1s-.72,1.82-.62,2.84c.76,8.07,3.14,15.74,5.83,23.32,6,16.72,14.36,32.22,23.72,47.23a113.38,113.38,0,0,0,9.89,13.57Z"/><path class="cls-2" d="M59.17,0H741.4c12.89,0,23.34,13.87,23.34,31h0c0,17.11-10.45,31-23.34,31H59.17C46.28,62,35.84,48.08,35.84,31h0C35.84,13.87,46.28,0,59.17,0Z"/><text class="cls-3" transform="translate(160.52 137.04)">T</text><text class="cls-4" transform="translate(169.69 137.04)">rasto</text><text class="cls-5" transform="translate(212.58 137.04)">r</text><text class="cls-4" transform="translate(219.16 137.04)">nos neu</text><text class="cls-6" transform="translate(287.32 137.04)">r</text><text class="cls-4" transform="translate(293.2 137.04)">ológicos</text><text class="cls-7" transform="translate(214.75 164.78)">-</text><text class="cls-8" transform="translate(222.07 164.78)">T</text><text class="cls-7" transform="translate(230.88 164.78)">emblo</text><text class="cls-9" transform="translate(283.66 164.78)">r</text><text class="cls-7" transform="translate(289.53 164.78)">es</text><text class="cls-7" transform="translate(214.69 188.53)">-Insomnio</text><text class="cls-7" transform="translate(214.72 212.27)">-Pé</text><text class="cls-9" transform="translate(244.77 212.27)">r</text><text class="cls-7" transform="translate(250.64 212.27)">dida de memoria</text><text class="cls-7" transform="translate(214.51 236.01)">-Cefalea</text><text class="cls-7" transform="translate(214.57 261.21)">-</text><text class="cls-8" transform="translate(221.89 261.21)">T</text><text class="cls-7" transform="translate(230.69 261.21)">oxicidad en el <tspan x="0" y="23.74">sistema nervioso central</tspan></text><g class="cls-10"><text class="cls-11" transform="translate(81.69 480.54)">Insufuciencia </text><text class="cls-12" transform="translate(197.97 480.54)">r</text><text class="cls-11" transform="translate(203.89 480.54)">enal</text></g><line class="cls-13" x1="351.32" y1="179.69" x2="552.29" y2="145.55"/><line class="cls-14" x1="249.92" y1="477.48" x2="523.39" y2="558.92"/><g class="cls-10"><text class="cls-15" transform="translate(125.79 604.99)">Cor</text><text class="cls-16" transform="translate(157.18 604.99)">r</text><text class="cls-15" transform="translate(163.09 604.99)">osión en la piel</text></g><g class="cls-10"><text class="cls-17" transform="translate(176.66 376.08)">Cor</text><text class="cls-18" transform="translate(208.21 376.08)">r</text><text class="cls-17" transform="translate(214.16 376.08)">osión en los pulmones</text></g><line class="cls-14" x1="420.56" y1="376.08" x2="524.72" y2="396.37"/><line class="cls-14" x1="299.12" y1="605.04" x2="382.85" y2="640.68"/><text class="cls-19" transform="translate(308.88 43.42)">MERCURIO</text></svg>