<svg id="Capa_1" data-name="Capa 1" xmlns="http://www.w3.org/2000/svg" viewBox="0 0 800 800"><defs><style>.cls-1,.cls-5,.cls-6,.cls-7{fill:#063f5c;}.cls-2{fill:#f27f0c;}.cls-10,.cls-11,.cls-12,.cls-13,.cls-14,.cls-15,.cls-18,.cls-3,.cls-4,.cls-5,.cls-6,.cls-7,.cls-8,.cls-9{isolation:isolate;}.cls-3,.cls-4,.cls-5,.cls-6,.cls-7{font-size:19.49px;}.cls-11,.cls-12,.cls-13,.cls-14,.cls-15,.cls-3,.cls-4,.cls-5,.cls-6,.cls-7,.cls-8,.cls-9{font-family:HelveticaNeueLTStd-Lt, Helvetica Neue LT Std;}.cls-4{letter-spacing:-0.02em;}.cls-6{letter-spacing:-0.09em;}.cls-7{letter-spacing:0.02em;}.cls-8{font-size:20.34px;}.cls-9{font-size:20.67px;}.cls-11,.cls-12{font-size:20.4px;}.cls-12{letter-spacing:-0.02em;}.cls-13,.cls-14,.cls-15{font-size:19.05px;}.cls-13{letter-spacing:-0.11em;}.cls-15{letter-spacing:-0.02em;}.cls-16,.cls-17{fill:none;stroke-miterlimit:10;stroke-width:2px;}.cls-16{stroke:#063f5c;}.cls-17{stroke:#f27f0c;}.cls-18{font-size:36px;font-family:HelveticaNeueLTStd-Bd, Helvetica Neue LT Std;}</style></defs><path class="cls-1" d="M617.77,346.13c1.32-3.21,2.49-6.43,4.57-9.22a7.9,7.9,0,0,1,9.23-2.57c2.69,1.21,2.45,3.64,2.48,6,0,1.22-1.3,2.83.73,3.64,1.78.71,3.1,0,4.45-1.31,6.33-6.32,13.93-8.51,22.82-7.27,14.16,2,24,10.31,32,21.29,10.83,14.87,12.74,31.54,9.51,49.2A192.63,192.63,0,0,1,691.11,446a67.6,67.6,0,0,1-11.39,17.93c-1.58,1.83-1.87,3.17-.79,5.59a43.76,43.76,0,0,1,.57,36c-9.09,21.58-25.14,35.15-48.17,40-6.44,1.36-13,.43-19.57.24-5.13-.15-10.27-.4-15.36.68-7.3,1.56-12.79,7.7-12.08,14,.37,3.31,1.23,6.35,4.62,8.4,5.64,3.42,5.86,9.22,5.13,15-1.11,8.74-4.56,16.72-8.36,24.58-.61,1.27-2.24,2.54-.64,4.26s3.18,1.92,5.46,1a53.09,53.09,0,0,1,32.14-2.88c4.19.92,8.46,1.48,12.49,3,2.65,1,4.27-1,5.92-2.32s0-2.76-.6-4c-3.5-7.37-6.58-14.87-7.84-23-2-12.74,6.42-21.16,19.21-19.07,2.15.35,1.87-.51,1.63-1.89a45,45,0,0,1-.77-5.54c-.41-7.74,9.43-13.11,15.42-11.14A24,24,0,0,1,682.3,559.1c4,7.6,5.79,15.64,3,24.09-1.79,5.49-5.39,9.37-11.3,10.55a10.63,10.63,0,0,1-12.7-8l0-.14c-.28-1.18-.49-2.38-.71-3.58-.88-4.68-4.51-7.2-10-6.9a8,8,0,0,0-7.41,7.84c-.27,8.11,2.17,15.67,5.17,23.08.77,1.89,2.23,1,3.33.53,6.15-2.5,12-1.25,17.54,1.63C676,611.67,679,621.1,675.56,628a33.19,33.19,0,0,1-12.82,14.14,2.73,2.73,0,0,0-1.65,2.89c.56,5.65-.17,11-3.58,15.76a3.27,3.27,0,0,0-.22,2.7c3.8,22.91-9.9,43.64-32.43,48.78-2.68.61-3.4,1.82-3,4.24a11.58,11.58,0,0,1,0,5.55c-.65,2-1.73,2.31-3.17.77-.58-.61-1.07-1.3-1.65-1.91-1.74-1.8-3.62-2.16-5.71-.54-1,.74-2,1.42-3,2.08-2.19,1.41-3.76.74-4.17-1.87a15.4,15.4,0,0,1-.28-4.74c.35-2.25-.37-3-2.57-3.63-12.9-3.5-23-10.77-28.87-23a41.29,41.29,0,0,1-3.39-25.15,5.71,5.71,0,0,0-.88-4.45,20.35,20.35,0,0,1-2.94-12.89c.17-2.23-.09-3.55-2.4-4.85-6-3.39-10.83-8.53-12.88-15-3.28-10.41,1.74-19.92,15.1-21.15a20.46,20.46,0,0,1,9.9,1.47c1.83.77,2.68.2,3.37-1.56a71.77,71.77,0,0,0,4.89-18.37,13.82,13.82,0,0,0-.6-7.18,7.71,7.71,0,0,0-8.85-4.71c-.92.18-1.81.47-2.73.63-3.17.56-5,2.22-5.09,5.63a16.14,16.14,0,0,1-.62,3.3c-2,8.64-11.32,11.9-18.39,6.49-5.42-4.15-7.24-10-7-16.35a33.41,33.41,0,0,1,8.39-21.81,22.89,22.89,0,0,1,7.91-5.64c5.3-2.41,9.9-1,14,2.31,3.89,3.14,4,7.57,3.18,12.09-.09.55-.29,1.09-.36,1.64s-.57,1.53.16,1.75a4.77,4.77,0,0,0,2.42-.34c.88-.24.77-1,.55-1.61-2.37-6.9-1.29-14.12-1.6-21.16-.5-11.2,4.21-20.7,12.14-28.56a52.59,52.59,0,0,1,12.07-9c6.12-3.29,10.25-8.6,14.33-14,3.67-4.83,6.67-10.19,11.33-14.23a1.37,1.37,0,0,0,.5-1.86,1.48,1.48,0,0,0-.25-.31c-3.79-4.42-3.23-9.57-2.29-14.68,1.53-8.36,3.45-16.66,4.86-25,1.45-8.58,1.43-17.31,2.1-26a3.82,3.82,0,0,0-2-3.71,71,71,0,0,1-8.7-7.06,15.66,15.66,0,0,1-4.95-8.61,4.32,4.32,0,0,0-2-2.91c-4.46-3.08-7.55-6.78-5.41-13.15-4.07,1.93-7.11,4.48-10.77,5.87-.79.29-.76,1.21-.8,2-1,19.55-1,39.06,2.29,58.42,1.13,6.73,2.75,13.37,4.08,20.06a26.34,26.34,0,0,1,.63,7.51c-.63,7.08-5.34,10.89-11.49,12.65-14.5,4.14-27.71,1.37-39.28-8.54-11.22-9.62-17.87-22.09-22.69-35.8-4.23-12-8-24.16-9.21-36.9-2.39-24.5,6.87-43.68,27-57.49a33.5,33.5,0,0,1,23.29-5.59c9.32,1.14,16.45,6,19.77,15.2,1.27,3.51,2.06,7.19,3,10.79.9,3.35,2.1,3.93,4.84,1.71a24.29,24.29,0,0,0,9.15-16.2c1.86-14.89,1.64-29.87,1-44.82-.71-18.29-1.56-36.59-4.32-54.73-.72-4.68-2-6-6.44-7.3-8.58-2.48-17.26-1.42-25.91-.85a207.54,207.54,0,0,0-25.78,3.69c-4,.77-4.07.69-3,4.78a68.2,68.2,0,0,0,2,6.72,9.15,9.15,0,0,0,8.73,6.3c7.41.4,14.45-1.64,21.56-3.19,3.83-.83,7.63-1.85,11.48-2.57,3.15-.58,4.2.34,4.19,3.48,0,6.16.55,12.35-.54,18.47-1,5.46-3.27,10-8.28,13-4.56,2.77-9.3,5.18-14,7.71-14.64,7.9-29.39,15.61-43.85,23.84C514.9,326,509.28,333,505.42,341.61c-13,28.8-21.62,58.9-27.94,89.77-1.7,8.3-6.05,15.7-10.44,22.86a458.84,458.84,0,0,0-30.62,58.29c-6,14.38-10.42,29.47-14.86,44.53a279.41,279.41,0,0,1-13.5,35c-3.37,7.48-6.79,14.92-8.82,23-3.12,12.42-8.82,23.84-15.2,34.86a43.78,43.78,0,0,0-5.68,22.25c0,5.61.06,11.22-.06,16.83a10.45,10.45,0,0,0,4.3,8.69c.94.77,2.18,1.39,2.73,2.38,2.78,5,7.81,7.95,11.21,12.38a4.73,4.73,0,0,0,1.17,1.19c.69.44,1.53,1.1,2.31.7,1-.49.37-1.51.23-2.27-1.51-8.44-2.12-16.88-.29-25.35.19-1,.44-2,.73-3,.46-1.4,1.25-2.63,2.91-2.61,1.85,0,2.18,1.55,2.38,3,.91,6.29,1.78,12.58,2.65,18.88a44.84,44.84,0,0,0,2.1,10.13c1.26,3.27,2.93,3.52,5.31.93a7.06,7.06,0,0,0,1.71-5.44c-.34-7.94-.74-15.87-.93-23.81-.11-4.63,1.17-9.08,2.46-13.47,1.43-4.85,2.74-9.72,3.82-14.65.33-1.52.54-3.45,2.46-3.71,2.16-.3,2.7,1.76,3.34,3.21,2.27,5.08,3.32,10.51,4.44,15.91a16.85,16.85,0,0,0,4.82,9,8.67,8.67,0,0,0,3.58,2.13c1.3.38,2.63.62,3.68-.47s.2-2.24-.33-3.32c-2.59-5.36-1.78-11-1-16.52.65-4.81,1.74-9.57,2.77-14.31a20,20,0,0,0-.58-10.75c-1.69-5.14-3.9-10.08-5.07-15.43-1.48-6.73-.23-12.94,2.13-19.17,3.69-9.77,10.09-17.89,16-26.24,7.37-10.36,15.12-20.44,21.92-31.21a177.54,177.54,0,0,0,20.26-46.34c3-10.5,8.17-20.07,14.41-29,2.28-3.27,3.94-7,7.2-9.58,1-.81,1.94-1.93,3.42-1.42s1.35,1.87,1.65,3a285,285,0,0,1,8.14,48.89c1.14,14.4-.28,28.54-6.05,42.06-7.08,16.6-14,33.34-19.13,50.61-7.22,24.15-15.55,48-19.13,73.17-1.71,12-1.47,24-1,36.09.69,18.31,2.24,36.56,3.83,54.81,1.22,14.06,2.24,28.13,4,42.13,2.14,16.69,4.38,33.36,8.63,49.68.32,1.21.35,2.38-1.1,2.69s-2.28-.7-2.56-2c-1.2-5.57-2.42-11.14-3.47-16.75-4.25-22.71-6.6-45.66-8.54-68.68-1.91-22.53-3.72-45.07-4.78-67.66-.82-17.54,1.73-34.65,5.54-51.69,6.72-30,16.61-59,27.75-87.59,3.59-9.23,7.64-18.3,10.46-27.81a70.58,70.58,0,0,0,2.44-25A301.73,301.73,0,0,0,526,468.06c-.25-1.05,0-2.72-1.13-3-1.33-.31-1.76,1.41-2.48,2.31a104.13,104.13,0,0,0-19.08,38.09c-5.14,18.93-14.52,35.75-25.35,51.93-7.12,10.66-15.48,20.43-22.16,31.37-3.5,5.73-7.06,11.43-9.72,17.67a25.71,25.71,0,0,0,.48,21.51c4.49,9.76,5.36,19.39,2.14,29.63-1.45,4.64-1.62,9.57-1.51,14.46a14,14,0,0,0,1.77,7c1.87,3.27.42,6.56-3.29,7.67s-6.69-.22-9.35-2.49a17.86,17.86,0,0,1-6.18-10.1c-1-4.91-1.88-9.87-4-15.12-1.39,7.7-4.41,14.43-5.24,21.69-1,8.4.15,16.79.42,25.18.14,4.09.23,8-3.08,11.15-3.83,3.66-8.08,3.11-10.53-1.62a26.12,26.12,0,0,1-2.11-8.1c-.83-5.36-1.57-10.72-2.46-16.88a41.8,41.8,0,0,0,0,15.53c.44,2.48.9,5,1.32,7.45a4.18,4.18,0,0,1-3.07,5,4.27,4.27,0,0,1-2.1,0,6.78,6.78,0,0,1-4.2-2.1c-3.29-4.29-8.35-6.9-11-11.8a12,12,0,0,0-3.61-3.86,13.72,13.72,0,0,1-5.82-11.29c-.08-8.42-.14-16.84.62-25.23.55-6.11,3.22-11.49,6.14-16.73a166.41,166.41,0,0,0,16.13-39c1.85-7.07,5.72-13.39,8.47-20.13,6.2-15.16,11.49-30.66,16.26-46.3,8.6-28.18,21-54.6,36.15-79.74,5-8.21,9.34-16.67,13.57-25.21,2.92-6,3.88-12.49,5.2-18.87a404.86,404.86,0,0,1,23.37-74.25,100.11,100.11,0,0,1,4.84-9.8c4.4-7.95,10.93-13.54,19-17.6,17.14-8.59,33.49-18.64,50.62-27.25a34.08,34.08,0,0,0,6.39-4.53,7.48,7.48,0,0,0,2.67-4.18A88.39,88.39,0,0,0,586.3,261c0-2.09-.61-2.48-2.68-2-9.12,1.93-18.09,4.63-27.48,5.34C548,265,542.64,261.69,540,254c-2.09-6.14-3-12.54-4.32-18.85a14.82,14.82,0,0,0-5.35-9.21,36.08,36.08,0,0,1-4.74-5.14,5,5,0,0,1-.63-5.31,36.81,36.81,0,0,1,5.11-9.93,57.66,57.66,0,0,0,4.37-7.17c2-3.58,2.09-7.17,1.12-11.08-3.86-15.68-3.82-31.27,1.36-46.72,4.29-12.8,11.83-23.24,23.38-30.18,7.24-4.35,15-7.59,23.79-8.57,13.73-1.52,27.17-1.31,40.4,3,15.64,5.15,28.21,14.42,37.21,28.21,5.16,7.9,7.39,17,8.2,26.27a118.28,118.28,0,0,1-7.46,53.94,96.1,96.1,0,0,1-20.92,32.24,10,10,0,0,0-3.22,6.6c-.54,8.68-.93,17.36-.67,26.06.18,6,3.82,9.83,8.65,12.54,6.84,3.84,13.9,7.3,20.79,11.07,11.31,6.2,22.43,12.75,34,18.54,8,4,13.49,10.37,17.33,18.13,7.6,15.37,13.23,31.54,18.35,47.87A413.62,413.62,0,0,1,747,427.68c2.15,10.56,7.18,19.92,12.63,28.9a463.41,463.41,0,0,1,31.82,62.09c5.34,12.79,8.76,26.24,13.28,39.31,5.56,16.09,11,32.22,18.55,47.52,1.58,3.2,2.19,6.75,3.16,10.16a153,153,0,0,0,13.87,32.43c4,7.18,7.13,14.48,7.33,23,.16,7,.28,14,.22,21a13.24,13.24,0,0,1-5.71,10.76,15.5,15.5,0,0,0-4.1,4.55c-2.79,4.62-7.58,7.34-10.92,11.45a6.16,6.16,0,0,1-3.48,1.74c-3.59.86-6.07-1.51-5.48-5.15.88-5.43,2.3-10.8,2-16.38a28.56,28.56,0,0,0-.74-5.6c-1,6.25-1.87,12.51-2.89,18.75-.44,2.67-1,5.33-3,7.41-2.39,2.51-5.25,2.72-8,.63a10.56,10.56,0,0,1-4.26-10.1c.73-6.71.18-13.46.91-20.17.46-4.31-.41-8.57-1.5-12.75-1.34-5.15-2.8-10.27-4.28-15.7A65.45,65.45,0,0,0,793,674.36a19.29,19.29,0,0,1-6.36,11.87c-2.8,2.43-6,3.85-9.82,2.65-3.21-1-5-4.19-3.49-6.76,3.12-5.19,2.36-10.7,1.68-16.11-.74-5.93-2.09-11.77-3.22-17.65a13.56,13.56,0,0,1,.43-6.63,92.1,92.1,0,0,1,3.59-10.33c4.44-10.15,3.07-19.69-2.27-29.21-6.43-11.46-14.26-21.91-21.87-32.56-10.61-14.84-20.84-30-27.33-47.2-3.23-8.56-5.48-17.49-8.73-26a90,90,0,0,0-13.42-24.19c-.48-.61-.77-1.8-1.76-1.51s-.78,1.42-.93,2.2a390.14,390.14,0,0,0-5.88,38.78,84.25,84.25,0,0,0,1.31,25.1c1.44,7,4.14,13.57,6.81,20.16,8.66,21.31,16.7,42.85,23.33,64.89A433.8,433.8,0,0,1,738.18,678c1.68,10.38,1.5,20.86,1.1,31.34q-.62,16-1.82,31.9c-1.32,17.62-2.88,35.21-4.47,52.79a549.74,549.74,0,0,1-8.52,58.51c-.9,4.49-1.93,9-3,13.41-.29,1.25-.63,2.92-2.39,2.5s-1.69-1.9-1.26-3.42c3.81-13.62,5.93-27.58,8-41.53,3.4-22.66,4.9-45.52,6.89-68.33,1.5-17.22,2.45-34.48,3.15-51.76s-2.68-34.21-6.38-51c-2.71-12.37-7.5-24.1-10.7-36.3-5.76-22-14.58-42.8-23.06-63.77a78.67,78.67,0,0,1-5.7-26.17c-.87-19.79,2.84-39.08,7-58.29.26-1.22.53-2.35,2.11-2.58s2.55.79,3.45,1.91A112.71,112.71,0,0,1,723,507.72c4.75,17.16,12.9,32.68,22.9,47.24,8.63,12.56,17.76,24.77,26.41,37.3,5,7.29,8.73,15.26,9.78,24.22.5,4.28-.77,8.33-1.75,12.41a22.37,22.37,0,0,1-1.65,4.76c-3.75,7.49-4,15.1-1.77,23.13a52,52,0,0,1,2,19.68,14.15,14.15,0,0,1-1.67,5.6c-.52.91-1,1.85-.18,2.84a2.79,2.79,0,0,0,2.83.77c2.87-.51,4.78-2.38,6.45-4.6,2.65-3.52,3-7.79,4-11.86a52.36,52.36,0,0,1,3.79-11.71c.56-1.14,1.18-2.55,2.79-2.36s2.07,1.55,2.31,2.85c1.62,8.55,4.93,16.68,6.26,25.3a34.19,34.19,0,0,1,.21,6.71c-.29,7.1-.61,14.19-.87,21.29a7.34,7.34,0,0,0,.39,2.75c.69,1.91,1.88,3.78,4,3.88s2.6-2.14,3-3.81c2.11-8.17,2.65-16.6,4-24.9.15-1,.26-2,.45-3.05.24-1.32.59-2.7,2.25-2.78s2.54,1.09,3,2.52a59.17,59.17,0,0,1,1.85,11.6c.57,5.66-.72,11.17-1.36,16.73-.09.8-.69,1.84.13,2.33s1.75-.3,2.56-.74a1,1,0,0,0,.41-.37c3-4.66,8.48-7.07,11-12.19a6.78,6.78,0,0,1,2.35-2.38c4.13-2.75,5.76-6.52,5.53-11.48-.31-6.81,0-13.63-.42-20.46a33.46,33.46,0,0,0-4.31-14.65A186.54,186.54,0,0,1,821,609.63c-1.58-6.07-4.8-11.74-7.5-17.49-7.31-15.54-12.29-31.9-17.16-48.3-7.58-25.52-18.84-49.39-32.15-72.36-5.15-8.9-10.56-17.62-15.14-26.86-3.27-6.6-4.79-13.53-6.29-20.55a398.81,398.81,0,0,0-19.13-64.45c-2.32-5.81-4.82-11.56-7.4-17.26a41.18,41.18,0,0,0-18.94-20c-16.77-8.69-32.92-18.52-49.84-26.92a40.92,40.92,0,0,1-5.74-3.5c-5-3.61-7.93-8.32-7.86-14.7.08-8.68-.29-17.37.59-26a10.73,10.73,0,0,1,3.19-7c16.29-15.89,24.74-35.71,27.93-57.78,2.08-14.4,2.1-29-3.37-42.89A48.83,48.83,0,0,0,648.65,124c-5.74-4.94-11.61-9.79-18.5-13.08a59.22,59.22,0,0,0-25.39-6.16c-8.6-.06-17.22-.5-25.66,1.71-19,5-32.49,16.43-38.73,35.15a74.5,74.5,0,0,0-2.45,39c.64,3.1.88,6.29,1.51,9.41,1.1,5.49-.74,10.12-3.92,14.41a93.6,93.6,0,0,0-6.67,10.69c-1.12,2-.49,3.46,1,5,1.67,1.7,2.8.39,4.13-.42,2-1.21,4-2.44,6.06-3.52a18.25,18.25,0,0,1,13.34-1.48c1.72.43,3.45.88,5.12,1.48a364.85,364.85,0,0,0,38.44,11.33c8,1.91,13.07,6.78,16.22,14.09,1.07,2.48,1,5.15,1.22,7.72,2.41,30.95,4.11,61.93,3.39,93,0,1.06-.1,2.13,0,3.23m0,.36v.23m0-.59v.36m-95.9,44.86a91.27,91.27,0,0,0,3,21.94c4.09,16.19,9,32.12,19,45.78,10.2,13.84,23.12,22.17,41.26,19.16,9.73-1.61,15.3-6,13.15-17.17-2.34-12.09-5.53-24-6.19-36.43-.63-11.74-1.81-23.46-.69-35.25,1.27-13.27-1-26.14-5.54-38.53-2.58-7.12-8.52-11.18-16-12a33,33,0,0,0-22.69,5.63c-16.26,11.33-24.82,26.95-25.31,46.85Zm180,.11c.18-13.18-4.25-24.76-12.32-35-7.3-9.24-16.21-15.95-28.34-17.47-7-.88-13.37.13-18.7,5.26-1.6,1.54-1.35,2.12.61,2.69,13.91,4,19.5,18.19,18.29,29.36a6.86,6.86,0,0,0,.49,3.29,48.63,48.63,0,0,1,3.42,17.51c.1,8-1.87,15.32-13.13,16.44a31,31,0,0,1-16.55-3.27c-3-1.45-3-1.47-3.19,2-.69,12.41-1.57,24.79-4.5,36.94a114.65,114.65,0,0,0-2.83,15.14c-.76,7.25,2.9,10.87,9.09,12.87a35.38,35.38,0,0,0,17.74,1.17c11.89-2.35,20.72-9.42,27.78-19,6.28-8.52,10.47-18.08,13.89-28,4.39-13,7.93-26.14,8.22-39.95Zm-44,252.54c-2.55.9-3.18,2.33-2.78,4.67a11.11,11.11,0,0,1-2.65,9.12c-1.23,1.52-2.54,2-4.4,1.2a50,50,0,0,0-9.47-2.49c-1.26-.26-2.73-.51-3.44,1-3,6.6-7.35,12.55-9.2,19.76-2.5,9.77-3.18,19.7-3.66,29.69-.16,3.35.15,3.52,3.48,2.47C647,702.2,658,684,653.89,662.14c-.24-1.34-.19-2.38.92-3.25a6.67,6.67,0,0,0,1.66-2.55C658.46,652.28,658,648,657.89,643.43Zm-89.21.6c-.4,5.07-.67,10,2.42,14,1.58,2,1.55,3.63,1.21,5.82-1.57,10,0,19.65,5.42,28.27s13.56,13.72,23.1,16.82c2.16.7,3,.08,2.87-2.13q-.51-7.41-1-14.82c-.82-12.51-5.2-23.81-11.54-34.48a2.8,2.8,0,0,0-3.45-1.55c-2.54.62-5.11,1.14-7.61,1.9-4.54,1.39-6.33.62-8-3.92a10.38,10.38,0,0,1-.68-6c.58-2.28-.42-3.39-2.74-3.94ZM614,353a21.15,21.15,0,0,0,.45-5.83c-.57-11.2.3-22.42.42-33.64.18-15.73-1-31.38-2.42-47-.57-6.42-.22-12.95-1.64-19.25-1.64-7.32-4.46-14-12.79-16.17-13.67-3.52-27.3-7.19-40.56-12.08-7.94-2.92-15.22-2-21.8,3.59,4.26-1.38,8.46-2.91,13.07-2.54,8.85.72,16.21,5.44,24.09,8.78a1.28,1.28,0,0,1,.76,1.38,1.39,1.39,0,0,1-1.29,1.28c-1.66.24-3.33.48-5,.56A133.64,133.64,0,0,0,541.83,236c-1.49.36-2.09,1-1.76,2.54s1.27,1.94,2.69,1.64c.46-.1.91-.21,1.37-.3,15.62-3.08,31.3-5.21,47.32-4.16,9.89.64,14.07,3.55,15,12,1.69,14.76,2.87,29.56,3.65,44.41.43,8,.46,16.06.7,24.1.32,10.82.52,21.7-1.43,32.42-1.36,7.46-4.76,14-11.71,17.56-3.25,1.65-4.27,3.26-3.36,6.5a6.92,6.92,0,0,1,.09,1.11c.16,1.65.87,2.18,2.4,1.26a56.51,56.51,0,0,0,8.78-6c3.2-2.85,3.76-7,5.92-10.38a17.43,17.43,0,0,0,2.44-5.65m0,0V353M580.82,609.55c1.31-1,1.28-1.07,2.71-4,3.65-7.42,6.57-15.06,7.53-23.35.79-6.86-1.5-10.5-7.9-13-4.13-1.62-8.06-1-12,.21-1,.29-2,.9-2.87-.07s-.1-1.91.4-2.79a16.55,16.55,0,0,0,1.85-10,6,6,0,0,0-3.48-5.06c-5.36-2.64-10.36-2-14.68,2.21-7,6.74-9.75,15.14-9,24.67.56,6.82,4.4,11.29,10,12.32a7.39,7.39,0,0,0,8.68-5.29,20.39,20.39,0,0,0,1-6c-.19-3.55,1.64-5.12,4.66-6,1.26-.34,2.51-.74,3.79-1,8.45-1.9,15,3.27,15,11.89a58.87,58.87,0,0,1-5.19,22.8C581,607.8,580.05,608.53,580.82,609.55Zm102.55-34.4c-.43-8.21-2.94-15.54-9-21.38-3.69-3.53-7.84-4.77-12.83-3.07-4,1.37-5.52,3.16-5.56,7.34a15.82,15.82,0,0,0,2.16,8.86c.46.72.9,1.54.29,2.34s-1.65.56-2.57.32c-1.71-.45-3.43-.95-5.17-1.25-9.35-1.56-16.26,5.08-15.12,14.35,1.08,8.88,4.47,17,8.4,24.84.3.6.53,1.82,1.39,1.39s.09-1.46-.2-2.15a58.33,58.33,0,0,1-5.06-23.12c0-6.77,4.73-11.56,11.42-11.7a21.76,21.76,0,0,1,9.71,2.45,3.83,3.83,0,0,1,2.2,3.89,25,25,0,0,0,1.13,7.18A7.4,7.4,0,0,0,673,590.7a10.88,10.88,0,0,0,8.14-5.8,19.45,19.45,0,0,0,2.23-9.75ZM577,627.73c-4.91-.1-8.46,3.21-8.53,8-.07,4.11,3.41,7.32,8.08,7.46,4.86.15,9.31-3.63,9.45-8C586.14,631.35,581.85,627.83,577,627.73Zm72.29,0c-5,0-9.41,3.42-9.36,7.3.06,4.25,4.39,8.12,9.08,8.12s8.39-3.1,8.45-7.1a7.92,7.92,0,0,0-7.53-8.31c-.2,0-.41,0-.62,0Zm-84.8-399.07c-4.09-1.92-8-4.21-12.55-5.1a20.09,20.09,0,0,0-10.49.44c-1.74.58-4,.57-4.94,2.24-.69,1.28,1.23,2.54,1.46,4,0,.09.07.17.08.26.23,2.75,1.77,2.89,4.06,2.31a168.52,168.52,0,0,1,22.4-4.15Zm2.43,385c-5.43-.18-9.27,3-8.41,7.18a10.18,10.18,0,0,0,6.16,7.76c2.48,1,3.8.4,4.72-2.18.82-2.27,1.45-4.62,2.38-6.85,2.08-5,1.73-5.59-3.74-5.91-.35,0-.72,0-1.09,0Zm92.5-.15c-1.65.29-3.31.54-4.94.91-1.2.27-1.78,1-1.12,2.26a51.4,51.4,0,0,1,4,10.74,2.12,2.12,0,0,0,2.5,1.66h0c3.65-.49,7.76-5.61,7.5-9.39s-3.19-6-8-6.17Zm-7.37,36c.19-2.36-.63-3.52-3.19-3.3a10.12,10.12,0,0,1-7.27-2.32c-.94-.74-1.57-.85-2,.56-.6,2.14-1.31,4.26-2,6.38-.38,1.13-.14,1.63,1.14,1.88a61.42,61.42,0,0,1,8.66,2.11c2.33.82,3.33-.15,4-2.05a27.09,27.09,0,0,0,.68-3.22Zm-77.49-.3c.1,5.24,1.49,6.31,6.15,5,.27-.07.54-.13.81-.22,2.26-.76,5.65-.23,6.65-2s-1.23-4.42-1.66-6.79a2.58,2.58,0,0,1-.08-.26c-.28-1.65-.92-2.07-2.36-.9a9.1,9.1,0,0,1-6.48,2.14c-2.59-.12-3.31,1.11-3,3.07Z"/><path class="cls-2" d="M434.15,562.22c-5.19,4.37-9.82,8.8-10.41,15.88a32.66,32.66,0,0,1-1.83,7c-.32,1-.89,2.31-2.36,1.75-1.22-.48-.93-1.61-.72-2.67,3.22-16.34,7-32.53,13.77-47.85a118.51,118.51,0,0,1,7.73-14.93,126.32,126.32,0,0,0,15.23-34.5c.76-2.87,2-5.62,2.53-8.58.22-1.21.3-3,2.17-2.56,1.53.36,1.2,1.95,1,3.12A114.79,114.79,0,0,1,456.52,497c-1.38,3.93-2.73,7.89-2.52,12.25,2.33-5.58,4.63-11.16,7-16.73s4.69-11.42,7.32-17c1.56-3.29,4.74-5.19,7.7-7.14a1.89,1.89,0,0,1,2.57.27c.85.9.56,1.89.16,2.88-2.15,5.38-4.48,10.68-6.88,16-4.81,10.54-8.53,21.55-13.67,32a2.06,2.06,0,0,0-.21,2.15c3.09-3.25,6.18-6.21,7.59-10.58,3.76-11.67,8-23.15,14.13-33.84,1.81-3.16,3.78-6.24,5.82-9.26,1.57-2.3,3.51-2.6,5.81-1.18s1.65,3.16.75,5.1c-4.84,10.42-10.69,20.38-14.12,31.43a31.32,31.32,0,0,0-1.2,4.88c3-5.61,6.36-10.9,9.6-16.3a67.19,67.19,0,0,1,4-5.76c.65-.88,1.58-1.42,2.67-.68a2,2,0,0,1,.56,2.74c-.78,1.5-1.64,2.94-2.49,4.39A181.47,181.47,0,0,0,472,536.43c-.9,3.26-.2,6.63-1,10.21,3.55-2.72,4.87-6.29,6-10a5.09,5.09,0,0,1,.4-1c.81-1.28.58-4,2.93-3.21,1.95.71.68,2.8.29,4.23a36.9,36.9,0,0,1-6.51,12.56c-6.47,8.67-12.63,17.6-17.42,27.38a29.91,29.91,0,0,1-2.57,4c-.5.71-1.22,1.27-2.15.69s-.77-1.47-.4-2.25c2.49-5.22,4.16-10.82,7.62-15.58,2.42-3.33,4.48-6.9,6.74-10.33,1-1.53,1-3.14.69-5.13a6.91,6.91,0,0,0-2.36,3.11c-7.79,15.16-17.53,29.16-25.81,44-2.55,4.57-5,9.22-7.31,13.89-1.43,2.85-7.66,5.08-10.46,3.58-1.6-.86-2-3.05-.54-5.2,1.66-2.51,2.74-5.32,4.31-7.86,5.62-9.09,7.23-19.31,8.57-29.63C433.34,567.34,433.77,564.78,434.15,562.22ZM462,523.3c-8.75,5.5-22.39,37.06-19.68,45.75C450.57,554.41,458.91,540.08,462,523.3Zm-13.69-6.55c-7.73,14.11-17,27.46-19.77,44.61,2.31-3.27,6.09-4.26,6.77-8a58.49,58.49,0,0,1,6.13-17.05c2.28-4.29,4.33-8.69,6.52-13a8.32,8.32,0,0,0,.38-6.56Z"/><path class="cls-2" d="M623.35,189.55c-5.39.22-10.6-1-15.86-1.78a5.16,5.16,0,0,0-3.22.32c-7.72,3.57-15.2,3.06-22.35-1.6a14.23,14.23,0,0,1-6.19-8.06c-.51-1.78-1.2-2.35-2.93-1.62-7.6,3.21-14.23.1-20.32-3.82s-6.55-10.55-6.38-17a21.29,21.29,0,0,1,5.28-14.16,4.63,4.63,0,0,0,1-2.26c1.79-11.28,9-17.21,19.52-19.8a21.94,21.94,0,0,0,9.07-4.11,13.79,13.79,0,0,1,6.64-2.8c9.06-1.5,17.73-.59,25.6,4.48a7.8,7.8,0,0,0,5.85,1,27.69,27.69,0,0,1,17.35,3.11,4.9,4.9,0,0,1,1.83,1.25c2.73,4,7.24,5.82,10.58,9,6.06,5.74,9.29,12.8,7.93,21.41a6.6,6.6,0,0,0,.44,3.54,21.18,21.18,0,0,1-10.13,27.17A51.34,51.34,0,0,1,623.35,189.55Zm-27.5-74.23c-7.16,0-10.37.52-13.5,3a24.5,24.5,0,0,1-9.82,4.46c-8.77,2.21-15.26,7-17,16.53a8.28,8.28,0,0,1-1.72,3.8c-4.51,5.49-5.07,11.91-4.35,18.58.42,3.85,1.82,7.38,5.37,9.37a38.89,38.89,0,0,0,7.75,3.22c6.52,2,14.06-1.21,15.93-6.92a9.16,9.16,0,0,1,5.94-6.13c5-1.92,9.06-4.84,11.09-10a2.75,2.75,0,0,1,2.55-1.86c7.14-.58,13.48-2.87,18.2-8.6.62-.75,1.44-1.4,2.39-.55.77.7.42,1.58-.07,2.3a19,19,0,0,1-1.58,2c-4.49,4.86-10.39,6.82-16.65,7.9a3.58,3.58,0,0,0-3,2,16.86,16.86,0,0,1-8.79,8.31c-3.92,1.58-7.07,3.64-8.11,8a3.72,3.72,0,0,1-1.07,1.62c-1.64,1.53-1.4,3.24-.81,5.15,3.31,10.7,21.77,12.57,27.13,5.51.93-1.24,2-2.24,3.72-2,8.64,1,16.2-1.9,21.56-8.34a32,32,0,0,1,14.52-10.16,23.81,23.81,0,0,0,2.27-1.11,9.92,9.92,0,0,0,4.26-4.29c4.61-8,.31-18.07-4.85-22.74-3.63-3.28-8.33-5.29-11.32-9.41a6,6,0,0,0-2.62-1.56c-4.39-1.78-8.91-2.84-13.68-2a11,11,0,0,1-8.23-1.53C606.51,116.8,601.15,114.83,595.85,115.32Z"/><path class="cls-1" d="M741,462.73a4.93,4.93,0,0,1,4.12,2,11.75,11.75,0,0,1,1.9,3.1c2.38,7.45,7.78,12.9,12.41,18.85,15.69,20.17,27.61,42.18,33.08,67.38,1.61,7.41,2.58,14.92,3.64,22.41a47,47,0,0,0,8.2,20.94c3.48,4.89,6.54,10,9.56,15.17,1.16,2,1.89,3.93.38,6a6.66,6.66,0,0,1-6.49,3.07,9.37,9.37,0,0,1-3.18-1c-3.27-1.8-6.52-2.84-10.43-2-3.32.7-5.42-1.26-6.63-5.77a63.36,63.36,0,0,0-9.4-19.32c-5-7.24-10.56-14-15.26-21.49a366.51,366.51,0,0,1-22.75-41.52c-3.16-6.81-3.75-14.24-5.33-21.43A74.72,74.72,0,0,0,722.14,481c-2.62-3.61-2.21-6.79,1.43-9.43a13.12,13.12,0,0,1,7-2.64,5.29,5.29,0,0,0,4.37-2.53A8,8,0,0,1,741,462.73ZM808.53,618.5c2.65,0,4-1.89,2.83-3.91-2.7-4.58-5.09-9.34-8.31-13.62a52.63,52.63,0,0,1-10.26-25.74c-.37-3.06-.82-6.11-1.27-9.16A159.63,159.63,0,0,0,770.4,507.7c-8.19-13.84-20.53-24.79-27-39.79-1.13-2.61-3.94-2.66-5.59-.13a9.32,9.32,0,0,1-8.15,4.5,6.17,6.17,0,0,0-2.14.6c-2.81,1.19-3.57,2.77-2.41,5.54a53.75,53.75,0,0,0,3.17,6.24,82.55,82.55,0,0,1,10.28,27.11c1,5.6,1.68,11.29,4.06,16.56a354.75,354.75,0,0,0,22,40.64c9.15,14.77,22.14,27.25,26.63,44.8.45,1.74,2,2.15,3.63,1.71,3.39-.91,6.46,0,9.43,1.54A8.75,8.75,0,0,0,808.53,618.5Z"/><path class="cls-1" d="M598.58,829c0-15.61.52-31.21,1.2-46.81a279.5,279.5,0,0,1,6.6-49.39,17.9,17.9,0,0,1,2.74-7c1.33-1.78,3-3.17,5.4-3s3,2.27,3.74,4.07c4,10.17,6,20.82,7.36,31.6,2.11,16.61,3.66,33.26,3.32,50-.16,7.75-.73,15.5-.83,23.25-.08,6.91.27,13.82.37,20.73a23.07,23.07,0,0,1-.36,3.89,1.54,1.54,0,0,1-1.49,1.44,1.81,1.81,0,0,1-1.66-1.27,9.71,9.71,0,0,1-.61-4.13c-.32-11.78.28-23.55.64-35.33a340.9,340.9,0,0,0-5.14-71.46,101.29,101.29,0,0,0-4.63-16.74c-.31-.83-.42-2.06-1.57-2.1s-1.54,1-2,1.76a23.79,23.79,0,0,0-2.14,6.94c-3.93,18.24-5.63,36.72-6.36,55.35-.46,11.58-.45,23.17-.8,34.76a227.5,227.5,0,0,0,.64,28,6.55,6.55,0,0,1,0,1.4c-.12,1-.36,2.15-1.63,2.3s-1.75-1-1.87-2c-.39-3.15-.84-6.31-.93-9.47C598.47,840.26,598.58,834.65,598.58,829Z"/><path class="cls-1" d="M742.27,498.82c.17-2.17.47-4.31,2.69-5.22,2.44-1,4.13.62,5.56,2.24,16.85,19.19,31.14,39.7,34.56,66,1,7.4,2.43,14.74,3.67,22.1.3,1.73.44,3.52-1.43,4.41s-3-.61-4-1.76c-6.6-7.11-11.31-15.52-16.36-23.71a194.12,194.12,0,0,1-22.81-52.77A91.68,91.68,0,0,1,742.27,498.82Zm42.55,85c.22-.41.38-.57.37-.7-1.37-13.6-3.58-27-7.86-40-5.77-17.54-17.46-31.37-29-45.28-.55-.66-1.25-1.67-2.32-1s-.71,1.81-.62,2.83c.77,8.07,3.15,15.75,5.84,23.32,5.94,16.72,14.36,32.22,23.72,47.23a113.77,113.77,0,0,0,9.87,13.62Z"/><path class="cls-2" d="M59.18,0H741.59c12.89,0,23.34,11.47,23.34,25.62h0c0,14.15-10.45,25.62-23.34,25.62H59.18c-12.89,0-23.34-11.47-23.34-25.62h0C35.84,11.46,46.29,0,59.18,0Z"/><text class="cls-3" transform="translate(42.6 151.45)">Da침os ce</text><text class="cls-4" transform="translate(122.39 151.45)">r</text><text class="cls-3" transform="translate(128.18 151.45)">ebrales y al sistema nervioso central</text><text class="cls-5" transform="translate(286.73 176.38)">-Coma</text><text class="cls-5" transform="translate(286.73 199.76)">-Convulsiones</text><text class="cls-5" transform="translate(204.43 223.15)">-Discapacidad intelectual</text><text class="cls-5" transform="translate(205.14 246.54)">-</text><text class="cls-6" transform="translate(212.35 246.54)">T</text><text class="cls-5" transform="translate(221.38 246.54)">rasto</text><text class="cls-7" transform="translate(263.61 246.54)">r</text><text class="cls-5" transform="translate(270.1 246.54)">nos de comportamiento</text><text class="cls-5" transform="translate(286.73 269.92)">-Muerte</text><text class="cls-8" transform="translate(237.93 421.5)">Anemia</text><text class="cls-9" transform="translate(212.35 331.77)">Hipertensi칩n</text><g class="cls-10"><text class="cls-11" transform="translate(142.41 515.81)">Disfunci칩n </text><text class="cls-12" transform="translate(239.49 515.81)">r</text><text class="cls-11" transform="translate(245.54 515.81)">enal</text></g><g class="cls-10"><text class="cls-13" transform="translate(28.38 635.82)">T</text><text class="cls-14" transform="translate(36.86 635.82)">oxicidad en los 칩rganos </text><text class="cls-15" transform="translate(236.94 635.82)">r</text><text class="cls-14" transform="translate(242.6 635.82)">ep</text><text class="cls-15" transform="translate(263.42 635.82)">r</text><text class="cls-14" transform="translate(269.08 635.82)">oducto</text><text class="cls-15" transform="translate(326.96 635.82)">r</text><text class="cls-14" transform="translate(332.61 635.82)">es</text></g><line class="cls-16" x1="363.16" y1="635.44" x2="611.26" y2="696.26"/><line class="cls-16" x1="290.44" y1="510.98" x2="541.24" y2="574.58"/><line class="cls-17" x1="315.64" y1="418.82" x2="464.2" y2="493.22"/><line class="cls-16" x1="331.72" y1="327.37" x2="613.97" y2="373.1"/><line class="cls-17" x1="425.32" y1="168.74" x2="554.68" y2="135.14"/><text class="cls-18" transform="translate(340.03 40.53)">PLOMO</text></svg>