<?xml version="1.0" encoding="UTF-8"?>
<svg id="Capa_2" data-name="Capa 2" xmlns="http://www.w3.org/2000/svg" viewBox="0 0 1224 926.72">
  <defs>
    <style>
      .cls-1 {
        letter-spacing: -.04em;
      }

      .cls-2, .cls-3, .cls-4, .cls-5, .cls-6, .cls-7, .cls-8, .cls-9, .cls-10, .cls-11, .cls-12, .cls-13, .cls-14, .cls-15, .cls-16, .cls-17, .cls-18, .cls-19, .cls-20, .cls-21 {
        stroke-miterlimit: 10;
      }

      .cls-2, .cls-6, .cls-14, .cls-18, .cls-20 {
        stroke-width: 1.41px;
      }

      .cls-2, .cls-16 {
        fill: #ef0f0f;
        stroke: #ef0f0f;
      }

      .cls-3, .cls-6, .cls-11 {
        fill: #00ffce;
        stroke: #00ffce;
      }

      .cls-22 {
        font-family: HelveticaNeueLTStd-Cn, 'Helvetica Neue LT Std';
        font-size: 30px;
      }

      .cls-4, .cls-5, .cls-7, .cls-9, .cls-13, .cls-15 {
        fill: none;
        stroke: #000;
      }

      .cls-23 {
        font-size: 17px;
      }

      .cls-23, .cls-24 {
        font-family: HelveticaNeueLTStd-MdCn, 'Helvetica Neue LT Std';
        font-weight: 500;
      }

      .cls-5 {
        stroke-width: 1.46px;
      }

      .cls-25 {
        letter-spacing: 0em;
      }

      .cls-7 {
        stroke-width: .8px;
      }

      .cls-8, .cls-12, .cls-14 {
        fill: #190fed;
        stroke: #190fed;
      }

      .cls-26 {
        letter-spacing: -.01em;
      }

      .cls-9, .cls-11, .cls-12, .cls-17, .cls-19 {
        stroke-width: .65px;
      }

      .cls-10, .cls-18, .cls-19 {
        fill: #efa80a;
        stroke: #efa80a;
      }

      .cls-27 {
        letter-spacing: 0em;
      }

      .cls-28 {
        letter-spacing: -.02em;
      }

      .cls-29 {
        letter-spacing: -.04em;
      }

      .cls-24 {
        font-size: 23.96px;
      }

      .cls-30 {
        letter-spacing: 0em;
      }

      .cls-13 {
        stroke-width: 1.23px;
      }

      .cls-15 {
        stroke-width: .95px;
      }

      .cls-31 {
        letter-spacing: 0em;
      }

      .cls-32 {
        font-size: 11.68px;
      }

      .cls-32, .cls-33 {
        font-family: MyriadPro-Regular, 'Myriad Pro';
      }

      .cls-17, .cls-20, .cls-21 {
        fill: #15ea52;
        stroke: #15ea52;
      }

      .cls-34 {
        letter-spacing: -.01em;
      }

      .cls-35 {
        opacity: .6;
      }

      .cls-33 {
        font-size: 18px;
      }
    </style>
  </defs>
  <text class="cls-23" transform="translate(143.91 61.19)"><tspan x="0" y="0">Las Condes</tspan></text>
  <text class="cls-23" transform="translate(453.68 61.19)"><tspan x="0" y="0">Macul</tspan></text>
  <text class="cls-23" transform="translate(730.46 61.19)"><tspan x="0" y="0">Peñalolen</tspan></text>
  <text class="cls-23" transform="translate(1028.16 61.19)"><tspan x="0" y="0">Puente</tspan><tspan class="cls-1" x="45.32" y="0"> </tspan><tspan class="cls-25" x="48.77" y="0">Alto</tspan></text>
  <circle class="cls-10" cx="602.69" cy="768.44" r="12.89"/>
  <circle class="cls-5" cx="602.69" cy="572.41" r="175.28"/>
  <circle class="cls-5" cx="602.69" cy="572.41" r="139.26"/>
  <circle class="cls-5" cx="602.69" cy="572.41" r="95.54"/>
  <circle class="cls-5" cx="602.69" cy="572.41" r="65.02"/>
  <circle class="cls-13" cx="602.69" cy="572.41" r="36.93"/>
  <text class="cls-22" transform="translate(550.17 372.44)"><tspan x="0" y="0">La Florida</tspan></text>
  <polyline class="cls-4" points="602.69 382.79 602.69 572.41 726.62 448.48"/>
  <polyline class="cls-4" points="768.63 629 602.69 572.41 602.69 747.69"/>
  <path class="cls-4" d="m602.69,572.41h-175.28,175.28Z"/>
  <line class="cls-4" x1="602.69" y1="572.41" x2="478.76" y2="448.48"/>
  <circle class="cls-16" cx="465.88" cy="433.15" r="12.89"/>
  <circle class="cls-21" cx="790.86" cy="635.04" r="12.89"/>
  <circle class="cls-3" cx="410.16" cy="572.41" r="12.89"/>
  <circle class="cls-8" cx="743.35" cy="429.77" r="12.89"/>
  <text class="cls-33" transform="translate(609.57 528.85)"><tspan x="0" y="0">2</tspan></text>
  <text class="cls-33" transform="translate(609.57 500.77)"><tspan x="0" y="0">4</tspan></text>
  <text class="cls-33" transform="translate(609.57 463.37)"><tspan x="0" y="0">6</tspan></text>
  <text class="cls-33" transform="translate(609.57 423.15)"><tspan x="0" y="0">8</tspan></text>
  <text class="cls-33" transform="translate(604.95 390.51)"><tspan x="0" y="0">10</tspan></text>
  <circle class="cls-19" cx="169.57" cy="325.74" r="8.36"/>
  <circle class="cls-15" cx="169.57" cy="197.61" r="113.7"/>
  <circle class="cls-15" cx="169.57" cy="197.61" r="90.33"/>
  <circle class="cls-15" cx="169.57" cy="197.61" r="61.97"/>
  <circle class="cls-15" cx="169.57" cy="197.61" r="42.17"/>
  <circle class="cls-7" cx="169.57" cy="197.61" r="23.96"/>
  <polyline class="cls-9" points="169.57 74.61 169.57 197.61 249.96 117.22"/>
  <polyline class="cls-9" points="277.21 234.32 169.57 197.61 169.57 311.31"/>
  <path class="cls-9" d="m169.57,197.61H55.87h113.7Z"/>
  <line class="cls-9" x1="169.57" y1="197.61" x2="89.17" y2="117.22"/>
  <circle class="cls-16" cx="80.81" cy="107.27" r="8.36"/>
  <circle class="cls-17" cx="291.62" cy="238.23" r="8.36"/>
  <circle class="cls-11" cx="44.67" cy="197.61" r="8.36"/>
  <circle class="cls-12" cx="260.81" cy="105.08" r="8.36"/>
  <text class="cls-32" transform="translate(174.02 169.35)"><tspan x="0" y="0">2</tspan></text>
  <text class="cls-32" transform="translate(174.02 151.14)"><tspan x="0" y="0">4</tspan></text>
  <text class="cls-32" transform="translate(174.02 126.87)"><tspan x="0" y="0">6</tspan></text>
  <text class="cls-32" transform="translate(174.02 100.78)"><tspan x="0" y="0">8</tspan></text>
  <text class="cls-32" transform="translate(171.03 79.61)"><tspan x="0" y="0">10</tspan></text>
  <circle class="cls-19" cx="467.29" cy="325.74" r="8.36"/>
  <circle class="cls-15" cx="467.29" cy="197.61" r="113.7"/>
  <circle class="cls-15" cx="467.29" cy="197.61" r="90.33"/>
  <circle class="cls-15" cx="467.29" cy="197.61" r="61.97"/>
  <circle class="cls-15" cx="467.29" cy="197.61" r="42.17"/>
  <circle class="cls-7" cx="467.29" cy="197.61" r="23.96"/>
  <polyline class="cls-9" points="467.29 74.61 467.29 197.61 547.68 117.22"/>
  <polyline class="cls-9" points="574.93 234.32 467.29 197.61 467.29 311.31"/>
  <path class="cls-9" d="m467.29,197.61h-113.7,113.7Z"/>
  <line class="cls-9" x1="467.29" y1="197.61" x2="386.9" y2="117.22"/>
  <circle class="cls-16" cx="378.54" cy="107.27" r="8.36"/>
  <circle class="cls-17" cx="589.35" cy="238.23" r="8.36"/>
  <circle class="cls-11" cx="342.4" cy="197.61" r="8.36"/>
  <circle class="cls-12" cx="558.53" cy="105.08" r="8.36"/>
  <text class="cls-32" transform="translate(471.75 169.35)"><tspan x="0" y="0">2</tspan></text>
  <text class="cls-32" transform="translate(471.75 151.14)"><tspan x="0" y="0">4</tspan></text>
  <text class="cls-32" transform="translate(471.75 126.87)"><tspan x="0" y="0">6</tspan></text>
  <text class="cls-32" transform="translate(471.75 100.78)"><tspan x="0" y="0">8</tspan></text>
  <text class="cls-32" transform="translate(468.76 79.61)"><tspan x="0" y="0">10</tspan></text>
  <circle class="cls-19" cx="747.43" cy="325.74" r="8.36"/>
  <circle class="cls-15" cx="747.43" cy="197.61" r="113.7"/>
  <circle class="cls-15" cx="747.43" cy="197.61" r="90.33"/>
  <circle class="cls-15" cx="747.43" cy="197.61" r="61.97"/>
  <circle class="cls-15" cx="747.43" cy="197.61" r="42.17"/>
  <circle class="cls-7" cx="747.43" cy="197.61" r="23.96"/>
  <polyline class="cls-9" points="747.43 74.61 747.43 197.61 827.82 117.22"/>
  <polyline class="cls-9" points="855.08 234.32 747.43 197.61 747.43 311.31"/>
  <path class="cls-9" d="m747.43,197.61h-113.7,113.7Z"/>
  <line class="cls-9" x1="747.43" y1="197.61" x2="667.04" y2="117.22"/>
  <circle class="cls-16" cx="658.68" cy="107.27" r="8.36"/>
  <circle class="cls-17" cx="869.49" cy="238.23" r="8.36"/>
  <circle class="cls-11" cx="622.54" cy="197.61" r="8.36"/>
  <circle class="cls-12" cx="838.68" cy="105.08" r="8.36"/>
  <text class="cls-32" transform="translate(751.89 169.35)"><tspan x="0" y="0">2</tspan></text>
  <text class="cls-32" transform="translate(751.89 151.14)"><tspan x="0" y="0">4</tspan></text>
  <text class="cls-32" transform="translate(751.89 126.87)"><tspan x="0" y="0">6</tspan></text>
  <text class="cls-32" transform="translate(751.89 100.78)"><tspan x="0" y="0">8</tspan></text>
  <text class="cls-32" transform="translate(748.9 79.61)"><tspan x="0" y="0">10</tspan></text>
  <circle class="cls-19" cx="1053.11" cy="320.64" r="8.36"/>
  <circle class="cls-15" cx="1053.11" cy="192.5" r="113.7"/>
  <circle class="cls-15" cx="1053.11" cy="192.5" r="90.33"/>
  <circle class="cls-15" cx="1053.11" cy="192.5" r="61.97"/>
  <circle class="cls-15" cx="1053.11" cy="192.5" r="42.17"/>
  <circle class="cls-7" cx="1053.11" cy="192.5" r="23.96"/>
  <polyline class="cls-9" points="1053.11 69.5 1053.11 192.5 1133.5 112.11"/>
  <polyline class="cls-9" points="1160.75 229.21 1053.11 192.5 1053.11 306.2"/>
  <path class="cls-9" d="m1053.11,192.5h-113.7,113.7Z"/>
  <line class="cls-9" x1="1053.11" y1="192.5" x2="972.72" y2="112.11"/>
  <circle class="cls-16" cx="964.36" cy="102.17" r="8.36"/>
  <circle class="cls-17" cx="1175.16" cy="233.13" r="8.36"/>
  <circle class="cls-11" cx="928.22" cy="192.5" r="8.36"/>
  <circle class="cls-12" cx="1144.35" cy="99.98" r="8.36"/>
  <text class="cls-32" transform="translate(1057.56 164.25)"><tspan x="0" y="0">2</tspan></text>
  <text class="cls-32" transform="translate(1057.56 146.03)"><tspan x="0" y="0">4</tspan></text>
  <text class="cls-32" transform="translate(1057.56 121.77)"><tspan x="0" y="0">6</tspan></text>
  <text class="cls-32" transform="translate(1057.56 95.68)"><tspan x="0" y="0">8</tspan></text>
  <text class="cls-32" transform="translate(1054.57 74.51)"><tspan x="0" y="0">10</tspan></text>
  <circle cx="545.28" cy="429.77" r="3.05"/>
  <circle cx="734.91" cy="494.64" r="3.05"/>
  <circle cx="578.98" cy="596.04" r="3.05"/>
  <circle cx="594.3" cy="568.81" r="3.05"/>
  <circle cx="685.66" cy="645.65" r="3.05"/>
  <circle cx="118.89" cy="107.27" r="2.16"/>
  <circle cx="264.17" cy="169.51" r="2.16"/>
  <circle cx="200.99" cy="229.87" r="2.16"/>
  <circle cx="153.11" cy="219.41" r="2.16"/>
  <circle cx="161.05" cy="194.03" r="2.16"/>
  <circle cx="438.81" cy="131.17" r="2.16"/>
  <circle cx="559.78" cy="165.2" r="2.16"/>
  <circle cx="475.65" cy="210.28" r="2.16"/>
  <path d="m463.52,204.68c0-1.19-.97-2.16-2.16-2.16s-2.16.97-2.16,2.16.97,2.16,2.16,2.16,2.16-.97,2.16-2.16Z"/>
  <path d="m464.71,195.91c0-1.19-.97-2.16-2.16-2.16s-2.16.97-2.16,2.16.97,2.16,2.16,2.16,2.16-.97,2.16-2.16Z"/>
  <circle cx="696.17" cy="102.96" r="2.16"/>
  <circle cx="820" cy="184.14" r="2.16"/>
  <circle cx="766.65" cy="223.72" r="2.16"/>
  <circle cx="737.27" cy="208.12" r="2.16"/>
  <circle cx="739.43" cy="194.48" r="2.16"/>
  <circle cx="1078.31" cy="226.66" r="2.16"/>
  <circle cx="1041.79" cy="205.02" r="2.16"/>
  <circle cx="1047.4" cy="190.34" r="2.16"/>
  <circle cx="1020.17" cy="113.35" r="2.16"/>
  <circle cx="1136.9" cy="165.5" r="2.16"/>
  <polygon class="cls-35" points="545.28 429.77 734.91 494.64 685.66 645.65 578.98 596.04 594.3 568.81 545.28 429.77"/>
  <polygon class="cls-35" points="118.89 107.27 264.17 169.51 200.99 229.87 153.11 219.41 161.05 194.03 118.89 107.27"/>
  <polygon class="cls-35" points="438.81 131.17 559.78 165.2 475.65 210.28 461.36 204.68 463.52 195.91 438.81 131.17"/>
  <polygon class="cls-35" points="696.17 102.96 820 184.14 766.65 223.72 737.27 208.12 739.43 194.48 696.17 102.96"/>
  <polygon class="cls-35" points="1020.17 113.35 1136.9 165.5 1078.31 226.66 1041.79 205.02 1047.4 190.34 1020.17 113.35"/>
  <text class="cls-24" transform="translate(64.68 851.74)"><tspan x="0" y="0">% Pa</tspan><tspan class="cls-26" x="47.01" y="0">r</tspan><tspan class="cls-31" x="54.27" y="0">ques Urbanos</tspan></text>
  <text class="cls-24" transform="translate(302.48 851.73)"><tspan x="0" y="0">% Plazas</tspan></text>
  <text class="cls-24" transform="translate(448.58 851.73)"><tspan x="0" y="0">% Bosques</tspan></text>
  <text class="cls-24" transform="translate(607.9 851.74)"><tspan x="0" y="0">%</tspan><tspan class="cls-29" x="18.18" y="0"> </tspan><tspan x="23.05" y="0">Á</tspan><tspan class="cls-30" x="35.48" y="0">r</tspan><tspan class="cls-27" x="42.89" y="0">eas</tspan><tspan class="cls-29" x="75.28" y="0"> </tspan><tspan class="cls-28" x="80.14" y="0">V</tspan><tspan class="cls-27" x="91.24" y="0">e</tspan><tspan class="cls-30" x="102.33" y="0">r</tspan><tspan x="109.73" y="0">des Pri</tspan><tspan class="cls-34" x="173.15" y="0">v</tspan><tspan class="cls-27" x="183.07" y="0">adas</tspan></text>
  <text class="cls-24" transform="translate(907.46 851.74)"><tspan x="0" y="0">%</tspan><tspan class="cls-29" x="18.18" y="0"> </tspan><tspan x="23.05" y="0">Á</tspan><tspan class="cls-30" x="35.48" y="0">r</tspan><tspan class="cls-27" x="42.89" y="0">eas</tspan><tspan class="cls-29" x="75.28" y="0"> </tspan><tspan class="cls-28" x="80.14" y="0">V</tspan><tspan class="cls-27" x="91.24" y="0">e</tspan><tspan class="cls-30" x="102.33" y="0">r</tspan><tspan x="109.73" y="0">des Públicas</tspan></text>
  <circle class="cls-2" cx="263.82" cy="845.26" r="11.34"/>
  <circle class="cls-14" cx="404.52" cy="845.26" r="11.34"/>
  <circle class="cls-20" cx="568.23" cy="845.26" r="11.34"/>
  <circle class="cls-18" cx="858.46" cy="845.26" r="11.34"/>
  <circle class="cls-6" cx="1155.47" cy="845.26" r="11.34"/>
</svg>