<?xml version="1.0" encoding="utf-8"?>
<!-- Generator: Adobe Illustrator 22.0.1, SVG Export Plug-In . SVG Version: 6.00 Build 0)  -->
<svg version="1.1" id="Capa_1" xmlns="http://www.w3.org/2000/svg" xmlns:xlink="http://www.w3.org/1999/xlink" x="0px" y="0px"
	 viewBox="0 0 100 100" style="enable-background:new 0 0 100 100;" xml:space="preserve">
<g>
	<path d="M15.6,9.7c-0.2,0.4,0.1,0.7,0.5,1c-0.3,0-0.4,0-0.6,0c-0.8,0-0.9,0.1-0.7,0.9c0.2,0.7,0.4,1.5,0.6,2.2c0.2,1,0.5,2,1.1,2.9
		c0.7,1.1,1.4,2.2,2.2,3.2c0.7,0.9,1.6,1.7,2.3,2.6c0.6,0.7,1.3,1.1,2.1,1.2c0.8,0.1,1.6,0.1,2.4-0.1c2.4-0.6,4.7-1.3,7.1-1.9
		c0.3-0.1,0.6-0.1,0.8,0c6.7,2.3,13.6,3.6,20.7,4.1c1.1,0.1,2.1,0,3.2,0c0,0.1,0,0.1,0,0.2l-0.1,0.1c-0.7,0.6-1.4,1.1-2.1,1.7
		c-0.1,0.1-0.2,0.4-0.3,0.5c-0.2,0.8-0.3,1.6-0.5,2.4c-0.1,0.4-0.2,0.8-0.4,1.2c-0.3,0.7-0.1,1,0.6,0.9c0.6-0.1,1.2-0.3,1.6-0.7
		c1.4-1,2.7-2.1,4.1-3.1c0.2-0.1,0.3-0.2,0.5-0.4c0.2,1.6,0.1,3.1,0.9,4.6c0.4-0.4,0.7-0.6,0.9-1c1.3-2.1,2.3-4.3,2.8-6.7
		c0.1-0.5,0.3-0.7,0.7-0.8c2.7-0.6,5.3-1.1,8-1.8c7.6-1.9,14.7-5.1,21.1-9.7c1.6-1.1,3.1-2.3,4.7-3.4V0H8.2c2.1,3.3,4.5,6.5,7.2,9.4
		C15.5,9.5,15.6,9.6,15.6,9.7z"/>
	<path d="M35.1,96.5c2.5-1,5.1-2.1,7.6-3.2c7.2-3.2,13.6-7.6,19.1-13.2c1.6-1.6,3.1-3.2,4.6-4.8c0.5,0.2,0.9,0.5,1.4,0.6
		c1.3,0.3,2.7,0.6,4,0.9c0.3,0.1,0.7,0,1,0.1c0.5,0,0.7-0.2,0.7-0.7c0-0.4-0.1-0.8-0.2-1.2c-0.5-1.9-1.3-3.7-2.2-5.5
		c-0.1-0.3-0.1-0.4,0-0.7c1.9-3.3,3.8-6.5,5.5-9.8c2.2-4.1,4.1-8.4,5.4-12.9c0.9-3.2,1.6-6.4,1.5-9.8c0-1.1-0.1-2.1-0.7-3.1
		c-0.6-1.1-1.4-1.3-2.4-0.5c-0.6,0.5-1.1,1-1.5,1.6c-0.7,0.9-1.4,1.8-2.1,2.7c-0.1,0.1-0.2,0.2-0.4,0.2c-0.1-0.1-0.2-0.3-0.2-0.4
		c0-0.5,0-1.1,0.2-1.5c0.5-1.1,1.1-2.1,1.7-3.1c0.3-0.6,0.8-1.1,1.1-1.7c0.3-0.5,0.1-0.9-0.5-1.1c-0.3-0.1-0.7-0.1-1-0.1
		c-0.8,0.1-1.7,0.2-2.5,0.5c-3.5,1.4-6.8,3.4-9.8,5.7c-4.3,3.3-8.6,6.7-13.1,9.7C44,50.7,35.6,56,27.3,61.4
		c-1.2,0.7-2.4,0.9-3.7,0.3c-0.4-0.2-0.9-0.4-1.4-0.6c-2.5-1.2-5.1-2.4-7.6-3.6c-1-0.5-2.1-0.8-3.2-1.1c-0.4-0.1-0.9-0.1-1.1,0.1
		C9,58.6,3.3,68,2.8,68.8C2.7,69,2.7,69.1,3,69.2c0.2,0,0.3,0,0.5,0c1.6,0.2,3.3,0.4,4.9,0.6c0.3,0,0.6,0.2,0.9,0.3v0.1
		c-1.6,0.9-3.1,1.8-4.8,2.5c-1.5,0.7-3,1.3-4.6,1.8V100h34.3c0.1-0.8,0.2-1.7,0.3-2.6C34.5,96.9,34.7,96.7,35.1,96.5z M69.4,36.2
		c0.9-0.1,1.7,0.4,1.8,1.3c0.1,0.9-0.4,1.7-1.3,1.8c-0.8,0.1-1.6-0.4-1.8-1.3C68,37.2,68.5,36.3,69.4,36.2z"/>
	<path d="M98.1,20c-1.1,0.7-2.2,1.4-3.2,2.2c-0.9,0.7-1.7,1.6-2.6,2.3c-0.7,0.6-1.1,1.3-1.2,2.1C91,27.4,91,28.2,91.2,29
		c0.6,2.4,1.3,4.7,1.9,7.1c0.1,0.3,0.1,0.6,0,0.8c-2.3,6.7-3.6,13.6-4.1,20.7c-0.1,1.1,0,2.1,0,3.2c-0.1,0-0.1,0-0.2,0l-0.1-0.1
		c-0.6-0.7-1.1-1.4-1.7-2.1c-0.1-0.1-0.4-0.2-0.5-0.3c-0.8-0.2-1.6-0.3-2.4-0.5c-0.4-0.1-0.8-0.2-1.2-0.4c-0.7-0.3-1-0.1-0.9,0.6
		c0.1,0.6,0.3,1.2,0.7,1.6c1,1.4,2.1,2.7,3.1,4.1c0.1,0.2,0.2,0.3,0.4,0.5c-1.6,0.2-3.1,0.1-4.6,0.9c0.4,0.4,0.6,0.7,1,0.9
		c2.1,1.3,4.3,2.3,6.7,2.8c0.5,0.1,0.7,0.3,0.8,0.7c0.6,2.7,1.1,5.3,1.8,8c1.7,6.7,4.3,13,8.1,18.8V19.1
		C99.3,19.3,98.7,19.6,98.1,20z"/>
</g>
<path d="M85.7,100c-1.9-2-3.7-4.1-5.6-6.1c-2.6-2.8-5.4-5.2-8.7-7.3c-0.7-0.4-1.6-0.7-2.4-0.9c-0.3-0.1-0.7-0.1-1-0.1
	c-0.6,0-0.8,0.4-0.6,1c0.2,0.6,0.6,1.2,0.8,1.9c0.4,1.1,0.9,2.2,1.2,3.3c0.1,0.5,0,1,0,1.5c0,0.1-0.2,0.2-0.3,0.3
	c-0.1-0.1-0.2-0.2-0.3-0.3c-0.6-1-1.1-2-1.6-3c-0.4-0.6-0.8-1.3-1.2-1.8c-0.8-0.9-1.6-1.8-2.4-0.9c-0.7,0.9-2.3,6.9-1.6,12.3
	L85.7,100L85.7,100z M74.3,94.9c0.3-0.8,1.2-1.3,2-1s1.2,1.2,0.9,2c-0.3,0.8-1.2,1.2-2,0.9C74.4,96.6,74,95.7,74.3,94.9z"/>
<path d="M16.4,51.8c2.8,1.1,5.8,1.8,8.8,2.1c0.7,0.1,1.3-0.1,2-0.2c0.3,0,0.5-0.2,0.7-0.3c0.4-0.2,0.5-0.6,0.1-0.9
	c-0.4-0.4-0.8-0.7-1.2-1.1c-0.7-0.6-1.4-1.3-2-2c-0.3-0.3-0.4-0.7-0.5-1.1c0-0.1,0-0.2,0.1-0.3c0.1,0,0.2,0,0.3,0.1
	c0.8,0.5,1.5,1.1,2.3,1.6c0.5,0.3,1,0.6,1.5,0.8c0.9,0.4,1.5,0,1.7-0.9s0-1.7-0.2-2.5c-0.7-2.6-1.9-4.9-3.4-7.2c-2-3.2-4.4-6-7-8.7
	c-2.1-2.1-4.3-4.2-6.5-6.3c-0.2-0.2-0.2-0.3-0.2-0.5c0.3-1.5,0.5-3.1,0.5-4.7c0-0.3-0.1-0.6-0.1-0.9c-0.1-0.4-0.3-0.5-0.7-0.4
	c-0.3,0.1-0.5,0.1-0.8,0.3c-1,0.5-2,1-2.9,1.6c-0.3,0.2-0.6,0.5-0.9,0.8c-1.5-0.9-3.1-1.8-4.6-2.6c-1.1-0.6-2.2-1.2-3.3-1.7V46
	c1.4,0.4,2.8,0.8,4.1,1.3C8.3,48.6,12.3,50.3,16.4,51.8z M18.8,48c0.7-0.1,1.3,0.4,1.4,1.1c0.1,0.7-0.4,1.3-1.1,1.4
	c-0.7,0.1-1.3-0.4-1.4-1.1C17.6,48.7,18.1,48,18.8,48z"/>
</svg>
