<?xml version="1.0" encoding="UTF-8" standalone="no"?>
<!DOCTYPE svg PUBLIC "-//W3C//DTD SVG 1.1//EN" "http://www.w3.org/Graphics/SVG/1.1/DTD/svg11.dtd">
<svg xmlns="http://www.w3.org/2000/svg" version="1.1" viewBox="0 0 1080 1080">
<g stroke-width="2.00" fill="none" stroke-linecap="butt">
<path stroke="#808080" vector-effect="non-scaling-stroke" d="
  M 334.26 118.37
  A 0.16 0.16 0.0 0 1 334.53 118.42
  L 344.40 147.89
  A 0.16 0.16 0.0 0 0 344.56 148.00
  L 348.48 148.00
  A 0.16 0.16 0.0 0 0 348.63 147.89
  L 358.43 118.99
  A 0.16 0.16 0.0 0 1 358.70 118.94
  L 358.96 119.21
  A 0.16 0.16 0.0 0 1 359.00 119.32
  L 359.00 147.84
  A 0.16 0.16 0.0 0 0 359.16 148.00
  L 363.38 148.00
  A 0.16 0.16 0.0 0 0 363.54 147.84
  L 363.36 112.16
  A 0.16 0.16 0.0 0 0 363.20 112.00
  L 357.38 112.00
  A 0.16 0.16 0.0 0 0 357.23 112.11
  L 346.88 142.54
  A 0.16 0.16 0.0 0 1 346.58 142.53
  L 336.63 112.17
  A 0.16 0.16 0.0 0 0 336.48 112.06
  L 329.90 111.97
  A 0.16 0.16 0.0 0 0 329.74 112.13
  L 329.74 147.85
  A 0.16 0.16 0.0 0 0 329.90 148.01
  L 333.84 148.00
  A 0.16 0.16 0.0 0 0 334.00 147.84
  L 334.00 118.70
  A 0.16 0.16 0.0 0 1 334.04 118.59
  L 334.26 118.37"
/>
<path stroke="#808080" vector-effect="non-scaling-stroke" d="
  M 501.05 131.26
  C 509.70 130.19 513.49 120.31 506.76 114.49
  C 502.18 110.54 488.12 112.00 482.19 112.01
  A 0.45 0.44 -90.0 0 0 481.75 112.46
  L 481.75 147.38
  A 0.62 0.62 0.0 0 0 482.37 148.00
  L 485.77 148.00
  A 0.53 0.52 0.0 0 0 486.30 147.48
  L 486.23 132.61
  A 0.64 0.64 0.0 0 1 486.89 131.96
  L 494.24 132.12
  Q 497.00 132.18 498.51 134.48
  L 507.15 147.59
  A 0.91 0.91 0.0 0 0 507.91 148.00
  L 512.19 148.01
  Q 512.91 148.01 512.55 147.39
  Q 508.93 141.18 504.74 135.45
  C 503.71 134.04 502.05 133.07 500.88 131.70
  Q 500.56 131.32 501.05 131.26"
/>
<path stroke="#808080" vector-effect="non-scaling-stroke" d="
  M 618.09 144.89
  C 623.22 150.88 631.22 148.73 634.37 142.19
  C 637.39 135.93 636.80 126.74 630.28 122.98
  C 626.60 120.86 621.84 121.28 618.90 124.39
  Q 618.20 125.13 618.20 124.11
  L 618.27 112.51
  A 0.51 0.51 0.0 0 0 617.76 112.00
  L 614.54 112.00
  A 0.72 0.72 0.0 0 0 613.82 112.72
  L 613.75 147.37
  A 0.63 0.63 0.0 0 0 614.38 148.00
  L 617.37 148.00
  A 0.56 0.55 87.2 0 0 617.92 147.39
  L 617.70 145.06
  Q 617.64 144.36 618.09 144.89"
/>
<path stroke="#808080" vector-effect="non-scaling-stroke" d="
  M 645.9687 112.2402
  A 0.27 0.27 0.0 0 0 645.6949 111.9740
  L 641.9353 112.0265
  A 0.27 0.27 0.0 0 0 641.6691 112.3002
  L 641.7313 116.7598
  A 0.27 0.27 0.0 0 0 642.0051 117.0260
  L 645.7647 116.9735
  A 0.27 0.27 0.0 0 0 646.0309 116.6998
  L 645.9687 112.2402"
/>
<path stroke="#808080" vector-effect="non-scaling-stroke" d="
  M 657.01 112.26
  A 0.26 0.26 0.0 0 0 656.75 112.00
  L 653.01 112.00
  A 0.26 0.26 0.0 0 0 652.75 112.26
  L 652.75 147.74
  A 0.26 0.26 0.0 0 0 653.01 148.00
  L 656.75 148.00
  A 0.26 0.26 0.0 0 0 657.01 147.74
  L 657.01 112.26"
/>
<path stroke="#808080" vector-effect="non-scaling-stroke" d="
  M 667.9608 112.2328
  A 0.27 0.27 0.0 0 0 667.6861 111.9676
  L 663.9267 112.0332
  A 0.27 0.27 0.0 0 0 663.6614 112.3079
  L 663.7392 116.7672
  A 0.27 0.27 0.0 0 0 664.0139 117.0324
  L 667.7733 116.9668
  A 0.27 0.27 0.0 0 0 668.0386 116.6921
  L 667.9608 112.2328"
/>
<path stroke="#808080" vector-effect="non-scaling-stroke" d="
  M 691.51 145.30
  L 691.50 147.49
  A 0.50 0.50 0.0 0 0 692.00 148.00
  L 694.75 148.00
  A 0.50 0.50 0.0 0 0 695.25 147.50
  L 695.25 112.50
  A 0.50 0.50 0.0 0 0 694.75 112.00
  L 691.62 112.00
  A 0.63 0.63 0.0 0 0 690.99 112.64
  L 691.24 123.30
  Q 691.29 125.32 689.87 123.88
  Q 687.09 121.06 682.88 121.60
  C 669.94 123.25 670.10 145.11 681.81 148.19
  Q 687.05 149.57 691.13 145.15
  Q 691.52 144.73 691.51 145.30"
/>
<path stroke="#808080" vector-effect="non-scaling-stroke" d="
  M 746.78 145.31
  L 746.74 147.49
  A 0.50 0.50 0.0 0 0 747.24 148.00
  L 750.00 148.00
  A 0.50 0.50 0.0 0 0 750.50 147.50
  L 750.50 112.50
  A 0.50 0.50 0.0 0 0 750.00 112.00
  L 747.00 112.00
  A 0.50 0.50 0.0 0 0 746.50 112.50
  L 746.50 124.49
  Q 746.50 125.17 746.01 124.69
  C 740.34 119.12 732.09 121.64 729.50 128.51
  C 726.98 135.19 728.52 144.21 735.34 147.51
  Q 740.84 150.17 746.36 145.12
  Q 746.80 144.72 746.78 145.31"
/>
<path stroke="#808080" vector-effect="non-scaling-stroke" d="
  M 577.25 121.50
  L 577.25 113.52
  Q 577.25 112.90 576.73 113.23
  L 573.37 115.35
  A 0.86 0.85 73.9 0 0 572.98 116.07
  L 573.04 121.32
  A 0.69 0.68 90.0 0 1 572.36 122.01
  L 570.38 122.00
  A 0.57 0.56 88.6 0 0 569.81 122.61
  L 569.95 124.77
  A 0.51 0.51 0.0 0 0 570.46 125.25
  L 572.50 125.25
  A 0.53 0.52 -89.5 0 1 573.02 125.79
  Q 572.78 136.00 573.30 143.94
  C 573.60 148.36 577.73 148.56 581.79 148.21
  A 0.50 0.49 -5.5 0 0 582.25 147.66
  L 582.00 145.14
  A 0.56 0.55 1.4 0 0 581.54 144.66
  L 578.08 144.08
  A 0.89 0.89 0.0 0 1 577.34 143.20
  L 577.21 125.90
  A 0.64 0.64 0.0 0 1 577.85 125.26
  L 581.25 125.25
  A 0.50 0.50 0.0 0 0 581.75 124.75
  L 581.75 122.63
  A 0.63 0.62 90.0 0 0 581.13 122.00
  L 577.75 122.00
  A 0.50 0.50 0.0 0 1 577.25 121.50"
/>
<path stroke="#808080" vector-effect="non-scaling-stroke" d="
  M 387.71 145.47
  L 388.18 147.43
  A 0.75 0.75 0.0 0 0 388.91 148.00
  L 392.13 148.00
  A 0.41 0.40 81.0 0 0 392.51 147.47
  C 389.45 137.88 396.19 122.05 383.23 121.63
  C 377.58 121.45 371.88 122.41 370.32 128.77
  A 0.54 0.54 0.0 0 0 370.75 129.43
  L 373.71 129.96
  A 0.51 0.50 11.1 0 0 374.30 129.57
  Q 375.45 124.05 383.26 125.35
  Q 385.98 125.81 386.93 128.40
  Q 387.37 129.61 387.21 131.18
  A 0.77 0.75 -2.7 0 1 386.60 131.84
  C 381.07 132.94 369.57 132.81 369.24 140.74
  Q 368.97 146.92 375.58 148.06
  Q 381.27 149.04 386.78 145.12
  A 0.60 0.60 0.0 0 1 387.71 145.47"
/>
<path stroke="#808080" vector-effect="non-scaling-stroke" d="
  M 445.3764 132.6922
  A 10.77 10.77 0.0 0 0 434.6818 121.8472
  L 432.7019 121.8334
  A 10.77 10.77 0.0 0 0 421.8570 132.5280
  L 421.8236 137.3078
  A 10.77 10.77 0.0 0 0 432.5182 148.1528
  L 434.4981 148.1666
  A 10.77 10.77 0.0 0 0 445.3430 137.4720
  L 445.3764 132.6922"
/>
<path stroke="#808080" vector-effect="non-scaling-stroke" d="
  M 454.25 125.20
  L 454.25 122.63
  A 0.63 0.62 90.0 0 0 453.63 122.00
  L 451.00 122.00
  A 0.50 0.50 0.0 0 0 450.50 122.50
  L 450.50 147.37
  A 0.63 0.62 90.0 0 0 451.12 148.00
  L 454.10 148.00
  A 0.64 0.64 0.0 0 0 454.74 147.36
  C 454.75 143.10 452.24 121.49 462.45 126.75
  A 0.42 0.42 0.0 0 0 463.04 126.53
  L 464.18 123.48
  A 0.65 0.64 -64.7 0 0 463.91 122.70
  C 459.23 119.94 457.64 122.34 454.64 125.37
  Q 454.25 125.76 454.25 125.20"
/>
<path stroke="#808080" vector-effect="non-scaling-stroke" d="
  M 520.81 136.00
  L 538.72 136.00
  A 0.52 0.51 1.8 0 0 539.24 135.52
  C 539.92 126.69 533.75 120.13 524.98 121.85
  C 510.93 124.61 512.71 151.98 531.11 148.04
  Q 537.03 146.78 539.06 140.66
  A 0.50 0.50 0.0 0 0 538.64 140.00
  L 535.36 139.67
  A 0.63 0.62 13.3 0 0 534.71 140.07
  C 531.31 148.57 520.47 145.02 520.31 136.50
  A 0.50 0.49 -0.6 0 1 520.81 136.00"
/>
<path stroke="#808080" vector-effect="non-scaling-stroke" d="
  M 548.49 124.94
  L 548.51 122.63
  A 0.63 0.63 0.0 0 0 547.88 122.00
  L 545.25 122.00
  A 0.50 0.50 0.0 0 0 544.75 122.50
  L 544.75 147.50
  A 0.50 0.50 0.0 0 0 545.25 148.00
  L 548.47 148.00
  A 0.51 0.51 0.0 0 0 548.98 147.49
  C 549.01 142.72 548.02 133.16 549.74 129.11
  C 551.87 124.06 561.19 123.84 561.21 130.07
  Q 561.23 138.74 561.34 147.46
  A 0.55 0.55 0.0 0 0 561.89 148.00
  L 564.95 148.00
  A 0.52 0.52 0.0 0 0 565.47 147.48
  Q 565.55 139.86 565.48 132.23
  C 565.43 127.00 564.66 122.94 559.16 121.85
  Q 553.28 120.69 548.88 125.11
  Q 548.48 125.51 548.49 124.94"
/>
<path stroke="#808080" vector-effect="non-scaling-stroke" d="
  M 589.83 129.43
  C 591.42 123.04 603.52 123.41 602.69 131.20
  A 0.71 0.68 -3.7 0 1 602.14 131.80
  C 598.15 132.63 591.61 132.95 588.38 134.86
  C 582.20 138.52 584.35 147.17 591.26 148.19
  Q 597.47 149.10 602.41 144.98
  A 0.45 0.45 0.0 0 1 603.13 145.21
  L 603.74 147.56
  A 0.60 0.59 82.3 0 0 604.31 148.00
  L 607.70 148.00
  A 0.38 0.37 81.2 0 0 608.06 147.50
  C 604.49 137.39 613.60 117.78 592.76 122.03
  Q 587.23 123.16 585.66 128.85
  A 0.49 0.48 12.0 0 0 586.06 129.46
  L 589.12 129.91
  A 0.64 0.64 0.0 0 0 589.83 129.43"
/>
<path stroke="#808080" vector-effect="non-scaling-stroke" d="
  M 706.05 129.54
  C 707.71 122.85 720.21 123.59 718.86 131.26
  A 0.75 0.75 0.0 0 1 718.27 131.86
  C 714.29 132.64 707.94 132.98 704.74 134.81
  C 698.59 138.31 700.47 147.06 707.27 148.18
  Q 713.62 149.22 718.89 144.88
  A 0.36 0.36 0.0 0 1 719.47 145.09
  L 719.92 147.41
  A 0.74 0.73 84.2 0 0 720.64 148.00
  L 723.96 148.00
  A 0.38 0.38 0.0 0 0 724.32 147.49
  C 720.43 136.95 730.14 120.27 710.78 121.69
  Q 704.36 122.16 701.86 128.73
  A 0.52 0.52 0.0 0 0 702.26 129.43
  L 705.44 129.94
  A 0.54 0.54 0.0 0 0 706.05 129.54"
/>
<path stroke="#808080" vector-effect="non-scaling-stroke" d="
  M 407.58 142.41
  Q 407.47 142.72 407.36 142.41
  L 400.43 122.60
  A 0.90 0.90 0.0 0 0 399.58 121.99
  L 396.37 122.00
  A 0.49 0.49 0.0 0 0 395.91 122.66
  Q 400.11 133.90 404.35 145.06
  Q 405.46 147.97 404.90 150.01
  Q 403.61 154.68 398.02 154.14
  A 0.43 0.43 0.0 0 0 397.55 154.61
  L 397.82 157.51
  A 0.69 0.68 -87.8 0 0 398.38 158.12
  Q 405.01 159.26 407.53 152.75
  Q 413.34 137.78 418.81 122.64
  A 0.48 0.48 0.0 0 0 418.36 122.00
  L 415.52 122.00
  A 0.97 0.97 0.0 0 0 414.61 122.64
  L 407.58 142.41"
/>
<path stroke="#808080" vector-effect="non-scaling-stroke" d="
  M 646.01 122.26
  A 0.26 0.26 0.0 0 0 645.75 122.00
  L 642.01 122.00
  A 0.26 0.26 0.0 0 0 641.75 122.26
  L 641.75 147.74
  A 0.26 0.26 0.0 0 0 642.01 148.00
  L 645.75 148.00
  A 0.26 0.26 0.0 0 0 646.01 147.74
  L 646.01 122.26"
/>
<path stroke="#808080" vector-effect="non-scaling-stroke" d="
  M 668.01 122.26
  A 0.26 0.26 0.0 0 0 667.75 122.00
  L 664.01 122.00
  A 0.26 0.26 0.0 0 0 663.75 122.26
  L 663.75 147.74
  A 0.26 0.26 0.0 0 0 664.01 148.00
  L 667.75 148.00
  A 0.26 0.26 0.0 0 0 668.01 147.74
  L 668.01 122.26"
/>
<path stroke="#d3d3d3" vector-effect="non-scaling-stroke" d="
  M 278.08 546.68
  C 287.04 677.35 388.47 778.50 517.53 791.42
  Q 527.41 792.41 537.51 792.43
  Q 634.71 792.59 709.09 731.69
  C 754.94 694.14 787.04 639.74 798.93 581.73
  C 831.03 425.16 718.76 277.47 559.99 265.35
  C 401.93 253.29 267.23 388.33 278.08 546.68"
/>
<path stroke="#808080" vector-effect="non-scaling-stroke" d="
  M 107.06 864.22
  C 111.17 865.70 123.29 866.44 120.73 873.83
  C 118.16 881.24 103.14 879.15 101.74 870.68
  A 0.58 0.57 82.9 0 0 101.13 870.20
  L 98.09 870.44
  A 0.66 0.66 0.0 0 0 97.48 871.14
  C 98.43 885.25 123.35 886.60 125.18 872.99
  C 127.27 857.51 101.96 864.63 103.22 854.15
  Q 103.51 851.76 105.75 850.87
  C 110.50 848.97 119.04 848.91 119.85 855.73
  A 0.66 0.65 86.1 0 0 120.51 856.31
  L 123.70 856.24
  A 0.59 0.58 86.4 0 0 124.27 855.59
  C 123.01 843.59 103.11 842.04 99.35 852.28
  C 97.00 858.69 101.26 862.14 107.06 864.22"
/>
<path stroke="#808080" vector-effect="non-scaling-stroke" d="
  M 163.26 846.28
  A 0.26 0.26 0.0 0 0 163.00 846.02
  L 159.50 846.02
  A 0.26 0.26 0.0 0 0 159.24 846.28
  L 159.24 881.72
  A 0.26 0.26 0.0 0 0 159.50 881.98
  L 163.00 881.98
  A 0.26 0.26 0.0 0 0 163.26 881.72
  L 163.26 846.28"
/>
<path stroke="#808080" vector-effect="non-scaling-stroke" d="
  M 271.2633 846.3128
  A 0.27 0.27 0.0 0 0 270.9962 846.0400
  L 267.1964 846.0002
  A 0.27 0.27 0.0 0 0 266.9236 846.2674
  L 266.8767 850.7472
  A 0.27 0.27 0.0 0 0 267.1438 851.0200
  L 270.9436 851.0598
  A 0.27 0.27 0.0 0 0 271.2164 850.7926
  L 271.2633 846.3128"
/>
<path stroke="#808080" vector-effect="non-scaling-stroke" d="
  M 334.99 846.31
  A 0.31 0.31 0.0 0 0 334.68 846.00
  L 331.06 846.00
  A 0.31 0.31 0.0 0 0 330.75 846.31
  L 330.75 881.69
  A 0.31 0.31 0.0 0 0 331.06 882.00
  L 334.68 882.00
  A 0.31 0.31 0.0 0 0 334.99 881.69
  L 334.99 846.31"
/>
<path stroke="#808080" vector-effect="non-scaling-stroke" d="
  M 822.75 852.81
  L 822.75 881.37
  A 0.63 0.63 0.0 0 0 823.38 882.00
  L 826.62 882.00
  A 0.63 0.63 0.0 0 0 827.25 881.37
  L 827.25 846.50
  A 0.50 0.50 0.0 0 0 826.75 846.00
  L 821.66 846.00
  A 0.89 0.88 9.1 0 0 820.82 846.60
  L 810.67 876.43
  Q 810.49 876.93 810.33 876.43
  L 800.51 846.63
  A 0.93 0.92 -9.1 0 0 799.63 846.00
  L 794.10 846.00
  A 0.60 0.60 0.0 0 0 793.50 846.60
  L 793.48 881.36
  A 0.64 0.64 0.0 0 0 794.12 882.00
  L 797.12 882.00
  A 0.63 0.63 0.0 0 0 797.75 881.37
  L 797.75 852.51
  A 0.26 0.25 -88.9 0 1 798.01 852.25
  C 798.33 852.26 807.12 878.83 808.00 881.44
  A 0.79 0.78 80.6 0 0 808.74 881.98
  L 811.70 882.01
  A 0.86 0.85 9.6 0 0 812.51 881.44
  L 822.24 853.00
  A 0.33 0.13 -74.2 0 1 822.42 852.76
  L 822.67 852.73
  A 0.08 0.07 86.8 0 1 822.75 852.81"
/>
<path stroke="#808080" vector-effect="non-scaling-stroke" d="
  M 838.5483 846.2694
  A 0.27 0.27 0.0 0 0 838.2769 846.0008
  L 834.7570 846.0192
  A 0.27 0.27 0.0 0 0 834.4884 846.2907
  L 834.5117 850.7306
  A 0.27 0.27 0.0 0 0 834.7831 850.9992
  L 838.3030 850.9808
  A 0.27 0.27 0.0 0 0 838.5716 850.7093
  L 838.5483 846.2694"
/>
<path stroke="#808080" vector-effect="non-scaling-stroke" d="
  M 919.84 846.32
  C 918.88 848.29 917.88 850.41 917.13 852.47
  A 0.42 0.42 0.0 0 0 917.54 853.03
  L 919.80 852.92
  A 1.09 1.07 -72.0 0 0 920.61 852.50
  L 925.03 846.71
  Q 925.57 846.00 924.68 846.00
  L 920.35 846.00
  A 0.58 0.57 -76.4 0 0 919.84 846.32"
/>
<path stroke="#808080" vector-effect="non-scaling-stroke" d="
  M 347.06 859.25
  L 350.50 859.25
  A 0.50 0.50 0.0 0 0 351.00 858.75
  L 351.00 856.62
  A 0.62 0.62 0.0 0 0 350.38 856.00
  L 347.00 856.00
  A 0.50 0.50 0.0 0 1 346.50 855.50
  L 346.50 847.52
  Q 346.50 846.91 345.98 847.22
  L 342.96 849.06
  A 0.96 0.94 -15.9 0 0 342.50 849.87
  L 342.50 855.37
  A 0.63 0.63 0.0 0 1 341.87 856.00
  L 339.75 856.00
  A 0.51 0.50 -89.4 0 0 339.25 856.50
  L 339.24 858.60
  A 0.63 0.63 0.0 0 0 339.85 859.23
  L 341.90 859.28
  A 0.64 0.64 0.0 0 1 342.53 859.92
  Q 342.39 874.07 342.55 877.94
  C 342.76 882.75 347.49 882.24 350.93 882.25
  A 0.55 0.54 87.2 0 0 351.47 881.64
  L 351.13 878.76
  A 0.55 0.55 0.0 0 0 350.41 878.31
  Q 346.73 879.49 346.53 876.01
  Q 346.35 872.93 346.55 859.75
  A 0.51 0.51 0.0 0 1 347.06 859.25"
/>
<path stroke="#808080" vector-effect="non-scaling-stroke" d="
  M 148.69 879.22
  L 149.15 881.43
  A 0.73 0.72 -5.9 0 0 149.86 882.00
  L 153.14 882.00
  A 0.45 0.44 79.2 0 0 153.55 881.39
  C 150.40 873.51 157.37 856.32 144.48 855.74
  C 138.66 855.48 133.03 856.18 131.31 862.76
  A 0.57 0.57 0.0 0 0 131.76 863.46
  L 134.71 863.97
  A 0.51 0.51 0.0 0 0 135.30 863.57
  Q 136.43 858.12 144.07 859.24
  Q 146.62 859.62 147.74 861.94
  Q 148.38 863.28 148.21 865.17
  A 0.65 0.65 0.0 0 1 147.70 865.75
  C 142.68 866.88 133.25 866.91 130.96 871.97
  Q 129.28 875.68 131.20 878.72
  C 134.80 884.42 143.59 882.57 147.99 878.97
  A 0.44 0.43 64.4 0 1 148.69 879.22"
/>
<path stroke="#808080" vector-effect="non-scaling-stroke" d="
  M 174.14 859.19
  L 174.15 856.62
  A 0.60 0.60 0.0 0 0 173.56 856.02
  L 170.87 855.99
  A 0.63 0.63 0.0 0 0 170.23 856.63
  L 170.41 881.33
  A 0.68 0.68 0.0 0 0 171.09 882.00
  L 173.87 882.00
  A 0.63 0.63 0.0 0 0 174.50 881.36
  Q 174.41 869.00 174.58 865.82
  C 174.93 859.14 184.56 856.44 185.54 863.01
  Q 186.03 866.33 185.73 881.46
  A 0.53 0.53 0.0 0 0 186.26 882.00
  L 189.44 882.00
  A 0.47 0.47 0.0 0 0 189.91 881.50
  Q 189.45 873.85 190.03 866.22
  C 190.35 862.03 191.84 859.43 196.26 859.36
  Q 200.23 859.30 200.76 862.75
  Q 201.33 866.55 200.96 881.36
  A 0.62 0.62 0.0 0 0 201.58 882.00
  L 204.59 882.00
  A 0.64 0.63 0.0 0 0 205.23 881.37
  C 205.27 875.94 206.41 864.54 204.31 859.82
  C 201.56 853.68 193.00 854.75 189.61 859.83
  A 0.29 0.29 0.0 0 1 189.13 859.83
  C 185.40 854.07 178.49 854.40 174.57 859.35
  Q 174.14 859.90 174.14 859.19"
/>
<path stroke="#808080" vector-effect="non-scaling-stroke" d="
  M 233.8975 866.8246
  A 10.81 10.81 0.0 0 0 223.2203 855.8833
  L 221.2005 855.8586
  A 10.81 10.81 0.0 0 0 210.2592 866.5358
  L 210.2025 871.1754
  A 10.81 10.81 0.0 0 0 220.8797 882.1167
  L 222.8995 882.1414
  A 10.81 10.81 0.0 0 0 233.8408 871.4642
  L 233.8975 866.8246"
/>
<path stroke="#808080" vector-effect="non-scaling-stroke" d="
  M 243.24 858.94
  L 243.26 856.63
  A 0.63 0.63 0.0 0 0 242.63 856.00
  L 240.00 856.00
  A 0.50 0.50 0.0 0 0 239.50 856.50
  L 239.50 881.38
  A 0.62 0.62 0.0 0 0 240.12 882.00
  L 243.11 882.00
  A 0.64 0.64 0.0 0 0 243.75 881.36
  C 243.73 875.70 241.62 861.84 248.22 859.70
  C 252.36 858.36 255.87 860.35 255.92 865.02
  Q 256.00 873.24 256.02 881.48
  A 0.52 0.51 90.0 0 0 256.53 882.00
  L 259.72 882.00
  A 0.52 0.52 0.0 0 0 260.24 881.48
  C 260.24 875.98 261.51 863.42 258.88 859.11
  C 255.72 853.93 247.75 855.04 243.63 859.11
  Q 243.23 859.51 243.24 858.94"
/>
<path stroke="#808080" vector-effect="non-scaling-stroke" d="
  M 290.56 855.85
  C 273.25 853.12 272.54 880.66 286.27 882.17
  Q 296.58 883.30 298.94 873.67
  A 0.59 0.58 10.8 0 0 298.45 872.96
  L 295.38 872.55
  A 0.51 0.50 -82.4 0 0 294.82 872.98
  Q 294.10 877.74 290.02 878.73
  C 278.55 881.51 277.47 857.35 289.94 859.34
  C 292.38 859.73 293.66 861.55 294.31 863.75
  A 0.72 0.71 -12.9 0 0 295.11 864.25
  L 297.98 863.74
  A 0.57 0.56 -11.1 0 0 298.44 863.06
  C 297.50 858.94 294.78 856.52 290.56 855.85"
/>
<path stroke="#808080" vector-effect="non-scaling-stroke" d="
  M 386.74 859.47
  L 386.76 856.63
  A 0.63 0.63 0.0 0 0 386.13 856.00
  L 383.50 856.00
  A 0.50 0.50 0.0 0 0 383.00 856.50
  L 383.00 881.50
  A 0.50 0.50 0.0 0 0 383.50 882.00
  L 386.74 882.00
  A 0.54 0.53 89.5 0 0 387.27 881.45
  C 387.14 876.29 384.45 856.83 394.92 860.67
  A 0.61 0.60 18.7 0 0 395.70 860.29
  L 396.68 857.35
  A 0.64 0.64 0.0 0 0 396.34 856.56
  Q 390.05 853.70 387.32 859.60
  Q 386.73 860.87 386.74 859.47"
/>
<path stroke="#808080" vector-effect="non-scaling-stroke" d="
  M 403.22 863.57
  C 404.83 857.12 416.91 857.22 416.18 865.16
  A 0.69 0.69 0.0 0 1 415.64 865.78
  C 411.55 866.68 403.25 867.02 400.40 869.99
  C 396.26 874.31 398.40 880.73 404.18 882.12
  Q 410.44 883.62 415.99 878.87
  A 0.40 0.40 0.0 0 1 416.64 879.09
  L 417.08 881.29
  A 0.75 0.75 0.0 0 0 417.79 881.89
  L 421.11 882.03
  A 0.49 0.48 -8.2 0 0 421.59 881.39
  C 418.75 873.36 425.09 856.03 412.23 855.67
  C 406.50 855.52 401.00 856.29 399.30 862.75
  A 0.57 0.57 0.0 0 0 399.75 863.46
  L 402.62 863.95
  A 0.52 0.52 0.0 0 0 403.22 863.57"
/>
<path stroke="#808080" vector-effect="non-scaling-stroke" d="
  M 849.24 858.94
  L 849.26 856.63
  A 0.63 0.63 0.0 0 0 848.63 856.00
  L 846.00 856.00
  A 0.50 0.50 0.0 0 0 845.50 856.50
  L 845.50 881.38
  A 0.62 0.62 0.0 0 0 846.12 882.00
  L 849.11 882.00
  A 0.64 0.64 0.0 0 0 849.75 881.36
  C 849.72 875.24 847.18 860.11 855.82 859.30
  Q 861.69 858.76 861.82 865.02
  Q 861.99 873.24 862.02 881.48
  A 0.52 0.51 90.0 0 0 862.53 882.00
  L 865.71 882.00
  A 0.51 0.51 0.0 0 0 866.22 881.49
  Q 866.29 873.56 866.23 865.62
  C 866.19 860.70 864.99 856.85 859.93 855.85
  Q 854.03 854.68 849.63 859.11
  Q 849.23 859.51 849.24 858.94"
/>
<path stroke="#808080" vector-effect="non-scaling-stroke" d="
  M 876.81 870.00
  L 894.73 870.00
  A 0.51 0.51 0.0 0 0 895.24 869.53
  C 896.52 852.86 874.64 850.15 871.86 866.68
  C 869.18 882.61 889.70 888.78 895.06 874.68
  A 0.51 0.50 13.4 0 0 894.64 874.00
  L 891.40 873.66
  A 0.74 0.73 12.5 0 0 890.63 874.15
  C 887.62 882.53 876.76 879.16 876.33 870.51
  A 0.48 0.48 0.0 0 1 876.81 870.00"
/>
<path stroke="#808080" vector-effect="non-scaling-stroke" d="
  M 904.23 859.20
  L 904.26 856.63
  A 0.63 0.63 0.0 0 0 903.63 856.00
  L 901.00 856.00
  A 0.50 0.50 0.0 0 0 900.50 856.50
  L 900.50 881.37
  A 0.63 0.62 90.0 0 0 901.12 882.00
  L 904.10 882.00
  A 0.64 0.64 0.0 0 0 904.74 881.36
  C 904.75 877.45 902.13 855.62 912.46 860.76
  A 0.43 0.43 0.0 0 0 913.05 860.53
  L 914.19 857.52
  A 0.66 0.65 -64.2 0 0 913.92 856.73
  C 909.22 853.88 907.66 856.43 904.64 859.38
  Q 904.23 859.78 904.23 859.20"
/>
<path stroke="#808080" vector-effect="non-scaling-stroke" d="
  M 945.43 878.97
  L 945.86 881.30
  A 0.88 0.88 0.0 0 0 946.72 882.01
  L 949.89 882.00
  A 0.46 0.45 79.3 0 0 950.31 881.38
  C 947.22 873.47 953.91 856.66 941.73 855.77
  C 935.68 855.33 929.65 856.22 927.90 862.91
  A 0.41 0.40 11.7 0 0 928.23 863.41
  L 931.53 863.96
  A 0.51 0.51 0.0 0 0 932.11 863.55
  Q 933.13 857.98 941.27 859.39
  Q 943.87 859.85 944.71 862.35
  Q 945.12 863.57 944.91 865.21
  A 0.74 0.73 88.4 0 1 944.32 865.84
  C 940.32 866.64 933.93 866.98 930.73 868.81
  C 924.77 872.22 926.39 881.11 933.07 882.14
  Q 939.75 883.17 944.86 878.77
  Q 945.31 878.38 945.43 878.97"
/>
<path stroke="#808080" vector-effect="non-scaling-stroke" d="
  M 271.25 856.50
  A 0.51 0.51 0.0 0 0 270.74 855.99
  L 267.28 855.99
  A 0.51 0.51 0.0 0 0 266.77 856.50
  L 266.77 881.48
  A 0.51 0.51 0.0 0 0 267.28 881.99
  L 270.74 881.99
  A 0.51 0.51 0.0 0 0 271.25 881.48
  L 271.25 856.50"
/>
<path stroke="#808080" vector-effect="non-scaling-stroke" d="
  M 319.93 878.99
  L 319.70 881.31
  A 0.63 0.62 -87.1 0 0 320.32 882.00
  L 323.01 882.00
  A 0.51 0.51 0.0 0 0 323.52 881.49
  L 323.51 856.60
  A 0.61 0.60 0.0 0 0 322.90 856.00
  L 320.05 856.00
  A 0.53 0.53 0.0 0 0 319.52 856.53
  Q 319.49 863.51 319.51 870.50
  C 319.52 876.68 314.04 881.34 308.58 877.23
  Q 307.13 876.14 307.12 874.33
  L 306.96 856.51
  A 0.52 0.52 0.0 0 0 306.44 856.00
  L 303.43 856.00
  A 0.63 0.62 0.5 0 0 302.80 856.61
  C 302.57 865.41 301.71 878.45 305.83 880.68
  Q 313.55 884.86 319.31 878.71
  Q 320.03 877.93 319.93 878.99"
/>
<path stroke="#808080" vector-effect="non-scaling-stroke" d="
  M 372.55 878.53
  L 372.33 881.25
  A 0.61 0.61 0.0 0 0 372.92 881.92
  L 375.60 882.02
  A 0.62 0.62 0.0 0 0 376.25 881.40
  L 376.25 856.62
  A 0.62 0.62 0.0 0 0 375.63 856.00
  L 372.42 856.00
  A 0.57 0.57 0.0 0 0 371.85 856.60
  C 372.09 860.94 372.99 873.12 370.14 876.41
  C 366.58 880.52 359.68 879.08 359.54 872.99
  Q 359.48 870.43 359.49 856.53
  A 0.54 0.53 0.6 0 0 358.96 856.00
  L 356.10 855.99
  A 0.63 0.63 0.0 0 0 355.47 856.62
  Q 355.49 864.62 355.52 872.63
  C 355.54 877.79 356.80 881.18 362.08 882.12
  Q 368.26 883.22 371.90 878.28
  Q 372.65 877.27 372.55 878.53"
/>
<path stroke="#808080" vector-effect="non-scaling-stroke" d="
  M 838.4778 856.2765
  A 0.27 0.27 0.0 0 0 838.2073 856.0070
  L 834.7473 856.0130
  A 0.27 0.27 0.0 0 0 834.4778 856.2835
  L 834.5222 881.7235
  A 0.27 0.27 0.0 0 0 834.7927 881.9930
  L 838.2527 881.9870
  A 0.27 0.27 0.0 0 0 838.5222 881.7165
  L 838.4778 856.2765"
/>
<path stroke="#808080" vector-effect="non-scaling-stroke" d="
  M 921.51 856.28
  A 0.26 0.26 0.0 0 0 921.25 856.02
  L 917.75 856.02
  A 0.26 0.26 0.0 0 0 917.49 856.28
  L 917.49 881.72
  A 0.26 0.26 0.0 0 0 917.75 881.98
  L 921.25 881.98
  A 0.26 0.26 0.0 0 0 921.51 881.72
  L 921.51 856.28"
/>
<path stroke="#808080" vector-effect="non-scaling-stroke" d="
  M 498.74 127.76
  C 505.60 127.70 508.52 118.63 501.29 116.56
  C 496.88 115.30 489.78 116.00 486.75 116.10
  A 0.52 0.52 0.0 0 0 486.25 116.62
  L 486.25 127.20
  A 0.52 0.52 0.0 0 0 486.76 127.72
  Q 492.78 127.81 498.74 127.76"
/>
<path stroke="#808080" vector-effect="non-scaling-stroke" d="
  M 624.4859 145.0351
  A 10.00 7.13 91.8 0 0 631.9265 135.2640
  A 10.00 7.13 91.8 0 0 625.1141 125.0449
  A 10.00 7.13 91.8 0 0 617.6735 134.8160
  A 10.00 7.13 91.8 0 0 624.4859 145.0351"
/>
<path stroke="#808080" vector-effect="non-scaling-stroke" d="
  M 684.7278 145.0574
  A 10.04 7.15 88.7 0 0 691.6482 134.8578
  A 10.04 7.15 88.7 0 0 684.2722 124.9826
  A 10.04 7.15 88.7 0 0 677.3518 135.1822
  A 10.04 7.15 88.7 0 0 684.7278 145.0574"
/>
<path stroke="#808080" vector-effect="non-scaling-stroke" d="
  M 739.9953 145.0370
  A 10.04 7.14 88.6 0 0 746.8879 134.8256
  A 10.04 7.14 88.6 0 0 739.5047 124.9630
  A 10.04 7.14 88.6 0 0 732.6121 135.1744
  A 10.04 7.14 88.6 0 0 739.9953 145.0370"
/>
<path stroke="#808080" vector-effect="non-scaling-stroke" d="
  M 373.90 139.83
  Q 373.55 141.27 374.14 142.65
  Q 375.14 144.97 377.67 145.02
  Q 387.75 145.20 387.23 135.58
  A 0.48 0.47 82.3 0 0 386.66 135.14
  L 376.57 137.23
  Q 374.41 137.68 373.90 139.83"
/>
<path stroke="#808080" vector-effect="non-scaling-stroke" d="
  M 433.5625 145.0400
  A 10.02 7.78 90.1 0 0 441.3600 135.0336
  A 10.02 7.78 90.1 0 0 433.5975 125.0000
  A 10.02 7.78 90.1 0 0 425.8000 135.0064
  A 10.02 7.78 90.1 0 0 433.5625 145.0400"
/>
<path stroke="#808080" vector-effect="non-scaling-stroke" d="
  M 520.74 130.04
  Q 519.22 132.61 522.21 132.53
  L 533.28 132.24
  Q 535.60 132.18 534.64 130.06
  C 531.49 123.12 524.50 123.68 520.74 130.04"
/>
<path stroke="#808080" vector-effect="non-scaling-stroke" d="
  M 589.69 139.19
  C 586.59 147.83 604.66 147.01 602.60 135.60
  A 0.51 0.50 -10.7 0 0 602.00 135.20
  L 591.91 137.26
  Q 590.26 137.60 589.69 139.19"
/>
<path stroke="#808080" vector-effect="non-scaling-stroke" d="
  M 705.78 139.57
  C 703.19 146.37 719.10 148.74 718.87 135.59
  A 0.44 0.44 0.0 0 0 718.34 135.17
  L 708.59 137.19
  Q 706.53 137.61 705.78 139.57"
/>
<path stroke="#535353" vector-effect="non-scaling-stroke" d="
  M 545.99 348.55
  C 641.40 352.26 715.05 423.01 722.45 518.03
  C 727.17 578.62 697.70 640.30 648.58 675.85
  Q 594.05 715.31 524.93 709.84
  Q 514.43 709.01 495.46 704.60
  A 0.70 0.69 16.6 0 0 494.65 705.03
  L 469.71 773.50
  A 1.04 1.04 0.0 0 0 470.40 774.85
  C 547.27 797.35 628.42 782.34 692.64 735.11
  C 757.75 687.23 797.06 609.70 796.91 528.73
  C 796.66 391.66 690.83 279.76 554.39 272.26
  A 1.65 1.65 0.0 0 0 552.65 273.74
  L 545.21 347.65
  A 0.82 0.81 -86.1 0 0 545.99 348.55"
/>
<path stroke="#d3d3d3" vector-effect="non-scaling-stroke" d="
  M 436.80 669.76
  C 552.94 757.78 716.72 674.23 717.60 530.08
  C 718.12 444.03 654.36 368.25 568.91 355.78
  C 473.23 341.81 384.16 407.08 369.72 503.24
  C 360.25 566.27 385.61 630.97 436.80 669.76"
/>
<path stroke="#808080" vector-effect="non-scaling-stroke" d="
  M 136.03 877.70
  Q 137.52 879.07 139.54 879.02
  Q 148.66 878.78 148.24 869.75
  A 0.55 0.55 0.0 0 0 147.60 869.23
  Q 142.97 870.00 138.47 871.11
  C 135.12 871.93 133.13 875.04 136.03 877.70"
/>
<path stroke="#808080" vector-effect="non-scaling-stroke" d="
  M 222.0625 879.0200
  A 10.01 7.80 90.1 0 0 229.8800 869.0236
  A 10.01 7.80 90.1 0 0 222.0975 859.0000
  A 10.01 7.80 90.1 0 0 214.2800 868.9964
  A 10.01 7.80 90.1 0 0 222.0625 879.0200"
/>
<path stroke="#808080" vector-effect="non-scaling-stroke" d="
  M 403.68 872.49
  C 397.68 878.86 417.09 884.21 416.22 869.54
  A 0.44 0.44 0.0 0 0 415.69 869.14
  C 412.78 869.78 405.58 870.47 403.68 872.49"
/>
<path stroke="#808080" vector-effect="non-scaling-stroke" d="
  M 876.99 866.35
  C 880.69 865.81 885.78 866.64 890.21 866.45
  A 0.56 0.56 0.0 0 0 890.75 865.92
  C 891.25 857.46 877.21 856.54 876.53 865.93
  A 0.40 0.40 0.0 0 0 876.99 866.35"
/>
<path stroke="#808080" vector-effect="non-scaling-stroke" d="
  M 933.53 878.20
  C 940.69 880.98 944.98 876.53 944.87 869.61
  A 0.43 0.43 0.0 0 0 944.36 869.20
  C 940.90 869.89 932.28 870.26 931.49 874.53
  Q 930.99 877.21 933.53 878.20"
/>
</g>
<path fill="#ffffff" d="
  M 0.00 0.00
  L 1080.00 0.00
  L 1080.00 1080.00
  L 0.00 1080.00
  L 0.00 0.00
  Z
  M 334.26 118.37
  A 0.16 0.16 0.0 0 1 334.53 118.42
  L 344.40 147.89
  A 0.16 0.16 0.0 0 0 344.56 148.00
  L 348.48 148.00
  A 0.16 0.16 0.0 0 0 348.63 147.89
  L 358.43 118.99
  A 0.16 0.16 0.0 0 1 358.70 118.94
  L 358.96 119.21
  A 0.16 0.16 0.0 0 1 359.00 119.32
  L 359.00 147.84
  A 0.16 0.16 0.0 0 0 359.16 148.00
  L 363.38 148.00
  A 0.16 0.16 0.0 0 0 363.54 147.84
  L 363.36 112.16
  A 0.16 0.16 0.0 0 0 363.20 112.00
  L 357.38 112.00
  A 0.16 0.16 0.0 0 0 357.23 112.11
  L 346.88 142.54
  A 0.16 0.16 0.0 0 1 346.58 142.53
  L 336.63 112.17
  A 0.16 0.16 0.0 0 0 336.48 112.06
  L 329.90 111.97
  A 0.16 0.16 0.0 0 0 329.74 112.13
  L 329.74 147.85
  A 0.16 0.16 0.0 0 0 329.90 148.01
  L 333.84 148.00
  A 0.16 0.16 0.0 0 0 334.00 147.84
  L 334.00 118.70
  A 0.16 0.16 0.0 0 1 334.04 118.59
  L 334.26 118.37
  Z
  M 501.05 131.26
  C 509.70 130.19 513.49 120.31 506.76 114.49
  C 502.18 110.54 488.12 112.00 482.19 112.01
  A 0.45 0.44 -90.0 0 0 481.75 112.46
  L 481.75 147.38
  A 0.62 0.62 0.0 0 0 482.37 148.00
  L 485.77 148.00
  A 0.53 0.52 0.0 0 0 486.30 147.48
  L 486.23 132.61
  A 0.64 0.64 0.0 0 1 486.89 131.96
  L 494.24 132.12
  Q 497.00 132.18 498.51 134.48
  L 507.15 147.59
  A 0.91 0.91 0.0 0 0 507.91 148.00
  L 512.19 148.01
  Q 512.91 148.01 512.55 147.39
  Q 508.93 141.18 504.74 135.45
  C 503.71 134.04 502.05 133.07 500.88 131.70
  Q 500.56 131.32 501.05 131.26
  Z
  M 618.09 144.89
  C 623.22 150.88 631.22 148.73 634.37 142.19
  C 637.39 135.93 636.80 126.74 630.28 122.98
  C 626.60 120.86 621.84 121.28 618.90 124.39
  Q 618.20 125.13 618.20 124.11
  L 618.27 112.51
  A 0.51 0.51 0.0 0 0 617.76 112.00
  L 614.54 112.00
  A 0.72 0.72 0.0 0 0 613.82 112.72
  L 613.75 147.37
  A 0.63 0.63 0.0 0 0 614.38 148.00
  L 617.37 148.00
  A 0.56 0.55 87.2 0 0 617.92 147.39
  L 617.70 145.06
  Q 617.64 144.36 618.09 144.89
  Z
  M 645.9687 112.2402
  A 0.27 0.27 0.0 0 0 645.6949 111.9740
  L 641.9353 112.0265
  A 0.27 0.27 0.0 0 0 641.6691 112.3002
  L 641.7313 116.7598
  A 0.27 0.27 0.0 0 0 642.0051 117.0260
  L 645.7647 116.9735
  A 0.27 0.27 0.0 0 0 646.0309 116.6998
  L 645.9687 112.2402
  Z
  M 657.01 112.26
  A 0.26 0.26 0.0 0 0 656.75 112.00
  L 653.01 112.00
  A 0.26 0.26 0.0 0 0 652.75 112.26
  L 652.75 147.74
  A 0.26 0.26 0.0 0 0 653.01 148.00
  L 656.75 148.00
  A 0.26 0.26 0.0 0 0 657.01 147.74
  L 657.01 112.26
  Z
  M 667.9608 112.2328
  A 0.27 0.27 0.0 0 0 667.6861 111.9676
  L 663.9267 112.0332
  A 0.27 0.27 0.0 0 0 663.6614 112.3079
  L 663.7392 116.7672
  A 0.27 0.27 0.0 0 0 664.0139 117.0324
  L 667.7733 116.9668
  A 0.27 0.27 0.0 0 0 668.0386 116.6921
  L 667.9608 112.2328
  Z
  M 691.51 145.30
  L 691.50 147.49
  A 0.50 0.50 0.0 0 0 692.00 148.00
  L 694.75 148.00
  A 0.50 0.50 0.0 0 0 695.25 147.50
  L 695.25 112.50
  A 0.50 0.50 0.0 0 0 694.75 112.00
  L 691.62 112.00
  A 0.63 0.63 0.0 0 0 690.99 112.64
  L 691.24 123.30
  Q 691.29 125.32 689.87 123.88
  Q 687.09 121.06 682.88 121.60
  C 669.94 123.25 670.10 145.11 681.81 148.19
  Q 687.05 149.57 691.13 145.15
  Q 691.52 144.73 691.51 145.30
  Z
  M 746.78 145.31
  L 746.74 147.49
  A 0.50 0.50 0.0 0 0 747.24 148.00
  L 750.00 148.00
  A 0.50 0.50 0.0 0 0 750.50 147.50
  L 750.50 112.50
  A 0.50 0.50 0.0 0 0 750.00 112.00
  L 747.00 112.00
  A 0.50 0.50 0.0 0 0 746.50 112.50
  L 746.50 124.49
  Q 746.50 125.17 746.01 124.69
  C 740.34 119.12 732.09 121.64 729.50 128.51
  C 726.98 135.19 728.52 144.21 735.34 147.51
  Q 740.84 150.17 746.36 145.12
  Q 746.80 144.72 746.78 145.31
  Z
  M 577.25 121.50
  L 577.25 113.52
  Q 577.25 112.90 576.73 113.23
  L 573.37 115.35
  A 0.86 0.85 73.9 0 0 572.98 116.07
  L 573.04 121.32
  A 0.69 0.68 90.0 0 1 572.36 122.01
  L 570.38 122.00
  A 0.57 0.56 88.6 0 0 569.81 122.61
  L 569.95 124.77
  A 0.51 0.51 0.0 0 0 570.46 125.25
  L 572.50 125.25
  A 0.53 0.52 -89.5 0 1 573.02 125.79
  Q 572.78 136.00 573.30 143.94
  C 573.60 148.36 577.73 148.56 581.79 148.21
  A 0.50 0.49 -5.5 0 0 582.25 147.66
  L 582.00 145.14
  A 0.56 0.55 1.4 0 0 581.54 144.66
  L 578.08 144.08
  A 0.89 0.89 0.0 0 1 577.34 143.20
  L 577.21 125.90
  A 0.64 0.64 0.0 0 1 577.85 125.26
  L 581.25 125.25
  A 0.50 0.50 0.0 0 0 581.75 124.75
  L 581.75 122.63
  A 0.63 0.62 90.0 0 0 581.13 122.00
  L 577.75 122.00
  A 0.50 0.50 0.0 0 1 577.25 121.50
  Z
  M 387.71 145.47
  L 388.18 147.43
  A 0.75 0.75 0.0 0 0 388.91 148.00
  L 392.13 148.00
  A 0.41 0.40 81.0 0 0 392.51 147.47
  C 389.45 137.88 396.19 122.05 383.23 121.63
  C 377.58 121.45 371.88 122.41 370.32 128.77
  A 0.54 0.54 0.0 0 0 370.75 129.43
  L 373.71 129.96
  A 0.51 0.50 11.1 0 0 374.30 129.57
  Q 375.45 124.05 383.26 125.35
  Q 385.98 125.81 386.93 128.40
  Q 387.37 129.61 387.21 131.18
  A 0.77 0.75 -2.7 0 1 386.60 131.84
  C 381.07 132.94 369.57 132.81 369.24 140.74
  Q 368.97 146.92 375.58 148.06
  Q 381.27 149.04 386.78 145.12
  A 0.60 0.60 0.0 0 1 387.71 145.47
  Z
  M 445.3764 132.6922
  A 10.77 10.77 0.0 0 0 434.6818 121.8472
  L 432.7019 121.8334
  A 10.77 10.77 0.0 0 0 421.8570 132.5280
  L 421.8236 137.3078
  A 10.77 10.77 0.0 0 0 432.5182 148.1528
  L 434.4981 148.1666
  A 10.77 10.77 0.0 0 0 445.3430 137.4720
  L 445.3764 132.6922
  Z
  M 454.25 125.20
  L 454.25 122.63
  A 0.63 0.62 90.0 0 0 453.63 122.00
  L 451.00 122.00
  A 0.50 0.50 0.0 0 0 450.50 122.50
  L 450.50 147.37
  A 0.63 0.62 90.0 0 0 451.12 148.00
  L 454.10 148.00
  A 0.64 0.64 0.0 0 0 454.74 147.36
  C 454.75 143.10 452.24 121.49 462.45 126.75
  A 0.42 0.42 0.0 0 0 463.04 126.53
  L 464.18 123.48
  A 0.65 0.64 -64.7 0 0 463.91 122.70
  C 459.23 119.94 457.64 122.34 454.64 125.37
  Q 454.25 125.76 454.25 125.20
  Z
  M 520.81 136.00
  L 538.72 136.00
  A 0.52 0.51 1.8 0 0 539.24 135.52
  C 539.92 126.69 533.75 120.13 524.98 121.85
  C 510.93 124.61 512.71 151.98 531.11 148.04
  Q 537.03 146.78 539.06 140.66
  A 0.50 0.50 0.0 0 0 538.64 140.00
  L 535.36 139.67
  A 0.63 0.62 13.3 0 0 534.71 140.07
  C 531.31 148.57 520.47 145.02 520.31 136.50
  A 0.50 0.49 -0.6 0 1 520.81 136.00
  Z
  M 548.49 124.94
  L 548.51 122.63
  A 0.63 0.63 0.0 0 0 547.88 122.00
  L 545.25 122.00
  A 0.50 0.50 0.0 0 0 544.75 122.50
  L 544.75 147.50
  A 0.50 0.50 0.0 0 0 545.25 148.00
  L 548.47 148.00
  A 0.51 0.51 0.0 0 0 548.98 147.49
  C 549.01 142.72 548.02 133.16 549.74 129.11
  C 551.87 124.06 561.19 123.84 561.21 130.07
  Q 561.23 138.74 561.34 147.46
  A 0.55 0.55 0.0 0 0 561.89 148.00
  L 564.95 148.00
  A 0.52 0.52 0.0 0 0 565.47 147.48
  Q 565.55 139.86 565.48 132.23
  C 565.43 127.00 564.66 122.94 559.16 121.85
  Q 553.28 120.69 548.88 125.11
  Q 548.48 125.51 548.49 124.94
  Z
  M 589.83 129.43
  C 591.42 123.04 603.52 123.41 602.69 131.20
  A 0.71 0.68 -3.7 0 1 602.14 131.80
  C 598.15 132.63 591.61 132.95 588.38 134.86
  C 582.20 138.52 584.35 147.17 591.26 148.19
  Q 597.47 149.10 602.41 144.98
  A 0.45 0.45 0.0 0 1 603.13 145.21
  L 603.74 147.56
  A 0.60 0.59 82.3 0 0 604.31 148.00
  L 607.70 148.00
  A 0.38 0.37 81.2 0 0 608.06 147.50
  C 604.49 137.39 613.60 117.78 592.76 122.03
  Q 587.23 123.16 585.66 128.85
  A 0.49 0.48 12.0 0 0 586.06 129.46
  L 589.12 129.91
  A 0.64 0.64 0.0 0 0 589.83 129.43
  Z
  M 706.05 129.54
  C 707.71 122.85 720.21 123.59 718.86 131.26
  A 0.75 0.75 0.0 0 1 718.27 131.86
  C 714.29 132.64 707.94 132.98 704.74 134.81
  C 698.59 138.31 700.47 147.06 707.27 148.18
  Q 713.62 149.22 718.89 144.88
  A 0.36 0.36 0.0 0 1 719.47 145.09
  L 719.92 147.41
  A 0.74 0.73 84.2 0 0 720.64 148.00
  L 723.96 148.00
  A 0.38 0.38 0.0 0 0 724.32 147.49
  C 720.43 136.95 730.14 120.27 710.78 121.69
  Q 704.36 122.16 701.86 128.73
  A 0.52 0.52 0.0 0 0 702.26 129.43
  L 705.44 129.94
  A 0.54 0.54 0.0 0 0 706.05 129.54
  Z
  M 407.58 142.41
  Q 407.47 142.72 407.36 142.41
  L 400.43 122.60
  A 0.90 0.90 0.0 0 0 399.58 121.99
  L 396.37 122.00
  A 0.49 0.49 0.0 0 0 395.91 122.66
  Q 400.11 133.90 404.35 145.06
  Q 405.46 147.97 404.90 150.01
  Q 403.61 154.68 398.02 154.14
  A 0.43 0.43 0.0 0 0 397.55 154.61
  L 397.82 157.51
  A 0.69 0.68 -87.8 0 0 398.38 158.12
  Q 405.01 159.26 407.53 152.75
  Q 413.34 137.78 418.81 122.64
  A 0.48 0.48 0.0 0 0 418.36 122.00
  L 415.52 122.00
  A 0.97 0.97 0.0 0 0 414.61 122.64
  L 407.58 142.41
  Z
  M 646.01 122.26
  A 0.26 0.26 0.0 0 0 645.75 122.00
  L 642.01 122.00
  A 0.26 0.26 0.0 0 0 641.75 122.26
  L 641.75 147.74
  A 0.26 0.26 0.0 0 0 642.01 148.00
  L 645.75 148.00
  A 0.26 0.26 0.0 0 0 646.01 147.74
  L 646.01 122.26
  Z
  M 668.01 122.26
  A 0.26 0.26 0.0 0 0 667.75 122.00
  L 664.01 122.00
  A 0.26 0.26 0.0 0 0 663.75 122.26
  L 663.75 147.74
  A 0.26 0.26 0.0 0 0 664.01 148.00
  L 667.75 148.00
  A 0.26 0.26 0.0 0 0 668.01 147.74
  L 668.01 122.26
  Z
  M 278.08 546.68
  C 287.04 677.35 388.47 778.50 517.53 791.42
  Q 527.41 792.41 537.51 792.43
  Q 634.71 792.59 709.09 731.69
  C 754.94 694.14 787.04 639.74 798.93 581.73
  C 831.03 425.16 718.76 277.47 559.99 265.35
  C 401.93 253.29 267.23 388.33 278.08 546.68
  Z
  M 107.06 864.22
  C 111.17 865.70 123.29 866.44 120.73 873.83
  C 118.16 881.24 103.14 879.15 101.74 870.68
  A 0.58 0.57 82.9 0 0 101.13 870.20
  L 98.09 870.44
  A 0.66 0.66 0.0 0 0 97.48 871.14
  C 98.43 885.25 123.35 886.60 125.18 872.99
  C 127.27 857.51 101.96 864.63 103.22 854.15
  Q 103.51 851.76 105.75 850.87
  C 110.50 848.97 119.04 848.91 119.85 855.73
  A 0.66 0.65 86.1 0 0 120.51 856.31
  L 123.70 856.24
  A 0.59 0.58 86.4 0 0 124.27 855.59
  C 123.01 843.59 103.11 842.04 99.35 852.28
  C 97.00 858.69 101.26 862.14 107.06 864.22
  Z
  M 163.26 846.28
  A 0.26 0.26 0.0 0 0 163.00 846.02
  L 159.50 846.02
  A 0.26 0.26 0.0 0 0 159.24 846.28
  L 159.24 881.72
  A 0.26 0.26 0.0 0 0 159.50 881.98
  L 163.00 881.98
  A 0.26 0.26 0.0 0 0 163.26 881.72
  L 163.26 846.28
  Z
  M 271.2633 846.3128
  A 0.27 0.27 0.0 0 0 270.9962 846.0400
  L 267.1964 846.0002
  A 0.27 0.27 0.0 0 0 266.9236 846.2674
  L 266.8767 850.7472
  A 0.27 0.27 0.0 0 0 267.1438 851.0200
  L 270.9436 851.0598
  A 0.27 0.27 0.0 0 0 271.2164 850.7926
  L 271.2633 846.3128
  Z
  M 334.99 846.31
  A 0.31 0.31 0.0 0 0 334.68 846.00
  L 331.06 846.00
  A 0.31 0.31 0.0 0 0 330.75 846.31
  L 330.75 881.69
  A 0.31 0.31 0.0 0 0 331.06 882.00
  L 334.68 882.00
  A 0.31 0.31 0.0 0 0 334.99 881.69
  L 334.99 846.31
  Z
  M 822.75 852.81
  L 822.75 881.37
  A 0.63 0.63 0.0 0 0 823.38 882.00
  L 826.62 882.00
  A 0.63 0.63 0.0 0 0 827.25 881.37
  L 827.25 846.50
  A 0.50 0.50 0.0 0 0 826.75 846.00
  L 821.66 846.00
  A 0.89 0.88 9.1 0 0 820.82 846.60
  L 810.67 876.43
  Q 810.49 876.93 810.33 876.43
  L 800.51 846.63
  A 0.93 0.92 -9.1 0 0 799.63 846.00
  L 794.10 846.00
  A 0.60 0.60 0.0 0 0 793.50 846.60
  L 793.48 881.36
  A 0.64 0.64 0.0 0 0 794.12 882.00
  L 797.12 882.00
  A 0.63 0.63 0.0 0 0 797.75 881.37
  L 797.75 852.51
  A 0.26 0.25 -88.9 0 1 798.01 852.25
  C 798.33 852.26 807.12 878.83 808.00 881.44
  A 0.79 0.78 80.6 0 0 808.74 881.98
  L 811.70 882.01
  A 0.86 0.85 9.6 0 0 812.51 881.44
  L 822.24 853.00
  A 0.33 0.13 -74.2 0 1 822.42 852.76
  L 822.67 852.73
  A 0.08 0.07 86.8 0 1 822.75 852.81
  Z
  M 838.5483 846.2694
  A 0.27 0.27 0.0 0 0 838.2769 846.0008
  L 834.7570 846.0192
  A 0.27 0.27 0.0 0 0 834.4884 846.2907
  L 834.5117 850.7306
  A 0.27 0.27 0.0 0 0 834.7831 850.9992
  L 838.3030 850.9808
  A 0.27 0.27 0.0 0 0 838.5716 850.7093
  L 838.5483 846.2694
  Z
  M 919.84 846.32
  C 918.88 848.29 917.88 850.41 917.13 852.47
  A 0.42 0.42 0.0 0 0 917.54 853.03
  L 919.80 852.92
  A 1.09 1.07 -72.0 0 0 920.61 852.50
  L 925.03 846.71
  Q 925.57 846.00 924.68 846.00
  L 920.35 846.00
  A 0.58 0.57 -76.4 0 0 919.84 846.32
  Z
  M 347.06 859.25
  L 350.50 859.25
  A 0.50 0.50 0.0 0 0 351.00 858.75
  L 351.00 856.62
  A 0.62 0.62 0.0 0 0 350.38 856.00
  L 347.00 856.00
  A 0.50 0.50 0.0 0 1 346.50 855.50
  L 346.50 847.52
  Q 346.50 846.91 345.98 847.22
  L 342.96 849.06
  A 0.96 0.94 -15.9 0 0 342.50 849.87
  L 342.50 855.37
  A 0.63 0.63 0.0 0 1 341.87 856.00
  L 339.75 856.00
  A 0.51 0.50 -89.4 0 0 339.25 856.50
  L 339.24 858.60
  A 0.63 0.63 0.0 0 0 339.85 859.23
  L 341.90 859.28
  A 0.64 0.64 0.0 0 1 342.53 859.92
  Q 342.39 874.07 342.55 877.94
  C 342.76 882.75 347.49 882.24 350.93 882.25
  A 0.55 0.54 87.2 0 0 351.47 881.64
  L 351.13 878.76
  A 0.55 0.55 0.0 0 0 350.41 878.31
  Q 346.73 879.49 346.53 876.01
  Q 346.35 872.93 346.55 859.75
  A 0.51 0.51 0.0 0 1 347.06 859.25
  Z
  M 148.69 879.22
  L 149.15 881.43
  A 0.73 0.72 -5.9 0 0 149.86 882.00
  L 153.14 882.00
  A 0.45 0.44 79.2 0 0 153.55 881.39
  C 150.40 873.51 157.37 856.32 144.48 855.74
  C 138.66 855.48 133.03 856.18 131.31 862.76
  A 0.57 0.57 0.0 0 0 131.76 863.46
  L 134.71 863.97
  A 0.51 0.51 0.0 0 0 135.30 863.57
  Q 136.43 858.12 144.07 859.24
  Q 146.62 859.62 147.74 861.94
  Q 148.38 863.28 148.21 865.17
  A 0.65 0.65 0.0 0 1 147.70 865.75
  C 142.68 866.88 133.25 866.91 130.96 871.97
  Q 129.28 875.68 131.20 878.72
  C 134.80 884.42 143.59 882.57 147.99 878.97
  A 0.44 0.43 64.4 0 1 148.69 879.22
  Z
  M 174.14 859.19
  L 174.15 856.62
  A 0.60 0.60 0.0 0 0 173.56 856.02
  L 170.87 855.99
  A 0.63 0.63 0.0 0 0 170.23 856.63
  L 170.41 881.33
  A 0.68 0.68 0.0 0 0 171.09 882.00
  L 173.87 882.00
  A 0.63 0.63 0.0 0 0 174.50 881.36
  Q 174.41 869.00 174.58 865.82
  C 174.93 859.14 184.56 856.44 185.54 863.01
  Q 186.03 866.33 185.73 881.46
  A 0.53 0.53 0.0 0 0 186.26 882.00
  L 189.44 882.00
  A 0.47 0.47 0.0 0 0 189.91 881.50
  Q 189.45 873.85 190.03 866.22
  C 190.35 862.03 191.84 859.43 196.26 859.36
  Q 200.23 859.30 200.76 862.75
  Q 201.33 866.55 200.96 881.36
  A 0.62 0.62 0.0 0 0 201.58 882.00
  L 204.59 882.00
  A 0.64 0.63 0.0 0 0 205.23 881.37
  C 205.27 875.94 206.41 864.54 204.31 859.82
  C 201.56 853.68 193.00 854.75 189.61 859.83
  A 0.29 0.29 0.0 0 1 189.13 859.83
  C 185.40 854.07 178.49 854.40 174.57 859.35
  Q 174.14 859.90 174.14 859.19
  Z
  M 233.8975 866.8246
  A 10.81 10.81 0.0 0 0 223.2203 855.8833
  L 221.2005 855.8586
  A 10.81 10.81 0.0 0 0 210.2592 866.5358
  L 210.2025 871.1754
  A 10.81 10.81 0.0 0 0 220.8797 882.1167
  L 222.8995 882.1414
  A 10.81 10.81 0.0 0 0 233.8408 871.4642
  L 233.8975 866.8246
  Z
  M 243.24 858.94
  L 243.26 856.63
  A 0.63 0.63 0.0 0 0 242.63 856.00
  L 240.00 856.00
  A 0.50 0.50 0.0 0 0 239.50 856.50
  L 239.50 881.38
  A 0.62 0.62 0.0 0 0 240.12 882.00
  L 243.11 882.00
  A 0.64 0.64 0.0 0 0 243.75 881.36
  C 243.73 875.70 241.62 861.84 248.22 859.70
  C 252.36 858.36 255.87 860.35 255.92 865.02
  Q 256.00 873.24 256.02 881.48
  A 0.52 0.51 90.0 0 0 256.53 882.00
  L 259.72 882.00
  A 0.52 0.52 0.0 0 0 260.24 881.48
  C 260.24 875.98 261.51 863.42 258.88 859.11
  C 255.72 853.93 247.75 855.04 243.63 859.11
  Q 243.23 859.51 243.24 858.94
  Z
  M 290.56 855.85
  C 273.25 853.12 272.54 880.66 286.27 882.17
  Q 296.58 883.30 298.94 873.67
  A 0.59 0.58 10.8 0 0 298.45 872.96
  L 295.38 872.55
  A 0.51 0.50 -82.4 0 0 294.82 872.98
  Q 294.10 877.74 290.02 878.73
  C 278.55 881.51 277.47 857.35 289.94 859.34
  C 292.38 859.73 293.66 861.55 294.31 863.75
  A 0.72 0.71 -12.9 0 0 295.11 864.25
  L 297.98 863.74
  A 0.57 0.56 -11.1 0 0 298.44 863.06
  C 297.50 858.94 294.78 856.52 290.56 855.85
  Z
  M 386.74 859.47
  L 386.76 856.63
  A 0.63 0.63 0.0 0 0 386.13 856.00
  L 383.50 856.00
  A 0.50 0.50 0.0 0 0 383.00 856.50
  L 383.00 881.50
  A 0.50 0.50 0.0 0 0 383.50 882.00
  L 386.74 882.00
  A 0.54 0.53 89.5 0 0 387.27 881.45
  C 387.14 876.29 384.45 856.83 394.92 860.67
  A 0.61 0.60 18.7 0 0 395.70 860.29
  L 396.68 857.35
  A 0.64 0.64 0.0 0 0 396.34 856.56
  Q 390.05 853.70 387.32 859.60
  Q 386.73 860.87 386.74 859.47
  Z
  M 403.22 863.57
  C 404.83 857.12 416.91 857.22 416.18 865.16
  A 0.69 0.69 0.0 0 1 415.64 865.78
  C 411.55 866.68 403.25 867.02 400.40 869.99
  C 396.26 874.31 398.40 880.73 404.18 882.12
  Q 410.44 883.62 415.99 878.87
  A 0.40 0.40 0.0 0 1 416.64 879.09
  L 417.08 881.29
  A 0.75 0.75 0.0 0 0 417.79 881.89
  L 421.11 882.03
  A 0.49 0.48 -8.2 0 0 421.59 881.39
  C 418.75 873.36 425.09 856.03 412.23 855.67
  C 406.50 855.52 401.00 856.29 399.30 862.75
  A 0.57 0.57 0.0 0 0 399.75 863.46
  L 402.62 863.95
  A 0.52 0.52 0.0 0 0 403.22 863.57
  Z
  M 849.24 858.94
  L 849.26 856.63
  A 0.63 0.63 0.0 0 0 848.63 856.00
  L 846.00 856.00
  A 0.50 0.50 0.0 0 0 845.50 856.50
  L 845.50 881.38
  A 0.62 0.62 0.0 0 0 846.12 882.00
  L 849.11 882.00
  A 0.64 0.64 0.0 0 0 849.75 881.36
  C 849.72 875.24 847.18 860.11 855.82 859.30
  Q 861.69 858.76 861.82 865.02
  Q 861.99 873.24 862.02 881.48
  A 0.52 0.51 90.0 0 0 862.53 882.00
  L 865.71 882.00
  A 0.51 0.51 0.0 0 0 866.22 881.49
  Q 866.29 873.56 866.23 865.62
  C 866.19 860.70 864.99 856.85 859.93 855.85
  Q 854.03 854.68 849.63 859.11
  Q 849.23 859.51 849.24 858.94
  Z
  M 876.81 870.00
  L 894.73 870.00
  A 0.51 0.51 0.0 0 0 895.24 869.53
  C 896.52 852.86 874.64 850.15 871.86 866.68
  C 869.18 882.61 889.70 888.78 895.06 874.68
  A 0.51 0.50 13.4 0 0 894.64 874.00
  L 891.40 873.66
  A 0.74 0.73 12.5 0 0 890.63 874.15
  C 887.62 882.53 876.76 879.16 876.33 870.51
  A 0.48 0.48 0.0 0 1 876.81 870.00
  Z
  M 904.23 859.20
  L 904.26 856.63
  A 0.63 0.63 0.0 0 0 903.63 856.00
  L 901.00 856.00
  A 0.50 0.50 0.0 0 0 900.50 856.50
  L 900.50 881.37
  A 0.63 0.62 90.0 0 0 901.12 882.00
  L 904.10 882.00
  A 0.64 0.64 0.0 0 0 904.74 881.36
  C 904.75 877.45 902.13 855.62 912.46 860.76
  A 0.43 0.43 0.0 0 0 913.05 860.53
  L 914.19 857.52
  A 0.66 0.65 -64.2 0 0 913.92 856.73
  C 909.22 853.88 907.66 856.43 904.64 859.38
  Q 904.23 859.78 904.23 859.20
  Z
  M 945.43 878.97
  L 945.86 881.30
  A 0.88 0.88 0.0 0 0 946.72 882.01
  L 949.89 882.00
  A 0.46 0.45 79.3 0 0 950.31 881.38
  C 947.22 873.47 953.91 856.66 941.73 855.77
  C 935.68 855.33 929.65 856.22 927.90 862.91
  A 0.41 0.40 11.7 0 0 928.23 863.41
  L 931.53 863.96
  A 0.51 0.51 0.0 0 0 932.11 863.55
  Q 933.13 857.98 941.27 859.39
  Q 943.87 859.85 944.71 862.35
  Q 945.12 863.57 944.91 865.21
  A 0.74 0.73 88.4 0 1 944.32 865.84
  C 940.32 866.64 933.93 866.98 930.73 868.81
  C 924.77 872.22 926.39 881.11 933.07 882.14
  Q 939.75 883.17 944.86 878.77
  Q 945.31 878.38 945.43 878.97
  Z
  M 271.25 856.50
  A 0.51 0.51 0.0 0 0 270.74 855.99
  L 267.28 855.99
  A 0.51 0.51 0.0 0 0 266.77 856.50
  L 266.77 881.48
  A 0.51 0.51 0.0 0 0 267.28 881.99
  L 270.74 881.99
  A 0.51 0.51 0.0 0 0 271.25 881.48
  L 271.25 856.50
  Z
  M 319.93 878.99
  L 319.70 881.31
  A 0.63 0.62 -87.1 0 0 320.32 882.00
  L 323.01 882.00
  A 0.51 0.51 0.0 0 0 323.52 881.49
  L 323.51 856.60
  A 0.61 0.60 0.0 0 0 322.90 856.00
  L 320.05 856.00
  A 0.53 0.53 0.0 0 0 319.52 856.53
  Q 319.49 863.51 319.51 870.50
  C 319.52 876.68 314.04 881.34 308.58 877.23
  Q 307.13 876.14 307.12 874.33
  L 306.96 856.51
  A 0.52 0.52 0.0 0 0 306.44 856.00
  L 303.43 856.00
  A 0.63 0.62 0.5 0 0 302.80 856.61
  C 302.57 865.41 301.71 878.45 305.83 880.68
  Q 313.55 884.86 319.31 878.71
  Q 320.03 877.93 319.93 878.99
  Z
  M 372.55 878.53
  L 372.33 881.25
  A 0.61 0.61 0.0 0 0 372.92 881.92
  L 375.60 882.02
  A 0.62 0.62 0.0 0 0 376.25 881.40
  L 376.25 856.62
  A 0.62 0.62 0.0 0 0 375.63 856.00
  L 372.42 856.00
  A 0.57 0.57 0.0 0 0 371.85 856.60
  C 372.09 860.94 372.99 873.12 370.14 876.41
  C 366.58 880.52 359.68 879.08 359.54 872.99
  Q 359.48 870.43 359.49 856.53
  A 0.54 0.53 0.6 0 0 358.96 856.00
  L 356.10 855.99
  A 0.63 0.63 0.0 0 0 355.47 856.62
  Q 355.49 864.62 355.52 872.63
  C 355.54 877.79 356.80 881.18 362.08 882.12
  Q 368.26 883.22 371.90 878.28
  Q 372.65 877.27 372.55 878.53
  Z
  M 838.4778 856.2765
  A 0.27 0.27 0.0 0 0 838.2073 856.0070
  L 834.7473 856.0130
  A 0.27 0.27 0.0 0 0 834.4778 856.2835
  L 834.5222 881.7235
  A 0.27 0.27 0.0 0 0 834.7927 881.9930
  L 838.2527 881.9870
  A 0.27 0.27 0.0 0 0 838.5222 881.7165
  L 838.4778 856.2765
  Z
  M 921.51 856.28
  A 0.26 0.26 0.0 0 0 921.25 856.02
  L 917.75 856.02
  A 0.26 0.26 0.0 0 0 917.49 856.28
  L 917.49 881.72
  A 0.26 0.26 0.0 0 0 917.75 881.98
  L 921.25 881.98
  A 0.26 0.26 0.0 0 0 921.51 881.72
  L 921.51 856.28
  Z"
/>
<path fill="#000000" d="
  M 334.26 118.37
  L 334.04 118.59
  A 0.16 0.16 0.0 0 0 334.00 118.70
  L 334.00 147.84
  A 0.16 0.16 0.0 0 1 333.84 148.00
  L 329.90 148.01
  A 0.16 0.16 0.0 0 1 329.74 147.85
  L 329.74 112.13
  A 0.16 0.16 0.0 0 1 329.90 111.97
  L 336.48 112.06
  A 0.16 0.16 0.0 0 1 336.63 112.17
  L 346.58 142.53
  A 0.16 0.16 0.0 0 0 346.88 142.54
  L 357.23 112.11
  A 0.16 0.16 0.0 0 1 357.38 112.00
  L 363.20 112.00
  A 0.16 0.16 0.0 0 1 363.36 112.16
  L 363.54 147.84
  A 0.16 0.16 0.0 0 1 363.38 148.00
  L 359.16 148.00
  A 0.16 0.16 0.0 0 1 359.00 147.84
  L 359.00 119.32
  A 0.16 0.16 0.0 0 0 358.96 119.21
  L 358.70 118.94
  A 0.16 0.16 0.0 0 0 358.43 118.99
  L 348.63 147.89
  A 0.16 0.16 0.0 0 1 348.48 148.00
  L 344.56 148.00
  A 0.16 0.16 0.0 0 1 344.40 147.89
  L 334.53 118.42
  A 0.16 0.16 0.0 0 0 334.26 118.37
  Z"
/>
<path fill="#000000" d="
  M 500.88 131.70
  C 502.05 133.07 503.71 134.04 504.74 135.45
  Q 508.93 141.18 512.55 147.39
  Q 512.91 148.01 512.19 148.01
  L 507.91 148.00
  A 0.91 0.91 0.0 0 1 507.15 147.59
  L 498.51 134.48
  Q 497.00 132.18 494.24 132.12
  L 486.89 131.96
  A 0.64 0.64 0.0 0 0 486.23 132.61
  L 486.30 147.48
  A 0.53 0.52 0.0 0 1 485.77 148.00
  L 482.37 148.00
  A 0.62 0.62 0.0 0 1 481.75 147.38
  L 481.75 112.46
  A 0.45 0.44 -90.0 0 1 482.19 112.01
  C 488.12 112.00 502.18 110.54 506.76 114.49
  C 513.49 120.31 509.70 130.19 501.05 131.26
  Q 500.56 131.32 500.88 131.70
  Z
  M 498.74 127.76
  C 505.60 127.70 508.52 118.63 501.29 116.56
  C 496.88 115.30 489.78 116.00 486.75 116.10
  A 0.52 0.52 0.0 0 0 486.25 116.62
  L 486.25 127.20
  A 0.52 0.52 0.0 0 0 486.76 127.72
  Q 492.78 127.81 498.74 127.76
  Z"
/>
<path fill="#000000" d="
  M 617.70 145.06
  L 617.92 147.39
  A 0.56 0.55 87.2 0 1 617.37 148.00
  L 614.38 148.00
  A 0.63 0.63 0.0 0 1 613.75 147.37
  L 613.82 112.72
  A 0.72 0.72 0.0 0 1 614.54 112.00
  L 617.76 112.00
  A 0.51 0.51 0.0 0 1 618.27 112.51
  L 618.20 124.11
  Q 618.20 125.13 618.90 124.39
  C 621.84 121.28 626.60 120.86 630.28 122.98
  C 636.80 126.74 637.39 135.93 634.37 142.19
  C 631.22 148.73 623.22 150.88 618.09 144.89
  Q 617.64 144.36 617.70 145.06
  Z
  M 624.4859 145.0351
  A 10.00 7.13 91.8 0 0 631.9265 135.2640
  A 10.00 7.13 91.8 0 0 625.1141 125.0449
  A 10.00 7.13 91.8 0 0 617.6735 134.8160
  A 10.00 7.13 91.8 0 0 624.4859 145.0351
  Z"
/>
<rect fill="#000000" x="-2.15" y="-2.50" transform="translate(643.85,114.50) rotate(-0.8)" width="4.30" height="5.00" rx="0.27"/>
<rect fill="#000000" x="652.75" y="112.00" width="4.26" height="36.00" rx="0.26"/>
<rect fill="#000000" x="-2.15" y="-2.50" transform="translate(665.85,114.50) rotate(-1.0)" width="4.30" height="5.00" rx="0.27"/>
<path fill="#000000" d="
  M 691.13 145.15
  Q 687.05 149.57 681.81 148.19
  C 670.10 145.11 669.94 123.25 682.88 121.60
  Q 687.09 121.06 689.87 123.88
  Q 691.29 125.32 691.24 123.30
  L 690.99 112.64
  A 0.63 0.63 0.0 0 1 691.62 112.00
  L 694.75 112.00
  A 0.50 0.50 0.0 0 1 695.25 112.50
  L 695.25 147.50
  A 0.50 0.50 0.0 0 1 694.75 148.00
  L 692.00 148.00
  A 0.50 0.50 0.0 0 1 691.50 147.49
  L 691.51 145.30
  Q 691.52 144.73 691.13 145.15
  Z
  M 684.7278 145.0574
  A 10.04 7.15 88.7 0 0 691.6482 134.8578
  A 10.04 7.15 88.7 0 0 684.2722 124.9826
  A 10.04 7.15 88.7 0 0 677.3518 135.1822
  A 10.04 7.15 88.7 0 0 684.7278 145.0574
  Z"
/>
<path fill="#000000" d="
  M 746.36 145.12
  Q 740.84 150.17 735.34 147.51
  C 728.52 144.21 726.98 135.19 729.50 128.51
  C 732.09 121.64 740.34 119.12 746.01 124.69
  Q 746.50 125.17 746.50 124.49
  L 746.50 112.50
  A 0.50 0.50 0.0 0 1 747.00 112.00
  L 750.00 112.00
  A 0.50 0.50 0.0 0 1 750.50 112.50
  L 750.50 147.50
  A 0.50 0.50 0.0 0 1 750.00 148.00
  L 747.24 148.00
  A 0.50 0.50 0.0 0 1 746.74 147.49
  L 746.78 145.31
  Q 746.80 144.72 746.36 145.12
  Z
  M 739.9953 145.0370
  A 10.04 7.14 88.6 0 0 746.8879 134.8256
  A 10.04 7.14 88.6 0 0 739.5047 124.9630
  A 10.04 7.14 88.6 0 0 732.6121 135.1744
  A 10.04 7.14 88.6 0 0 739.9953 145.0370
  Z"
/>
<path fill="#000000" d="
  M 577.75 122.00
  L 581.13 122.00
  A 0.63 0.62 -90.0 0 1 581.75 122.63
  L 581.75 124.75
  A 0.50 0.50 0.0 0 1 581.25 125.25
  L 577.85 125.26
  A 0.64 0.64 0.0 0 0 577.21 125.90
  L 577.34 143.20
  A 0.89 0.89 0.0 0 0 578.08 144.08
  L 581.54 144.66
  A 0.56 0.55 1.4 0 1 582.00 145.14
  L 582.25 147.66
  A 0.50 0.49 -5.5 0 1 581.79 148.21
  C 577.73 148.56 573.60 148.36 573.30 143.94
  Q 572.78 136.00 573.02 125.79
  A 0.53 0.52 -89.5 0 0 572.50 125.25
  L 570.46 125.25
  A 0.51 0.51 0.0 0 1 569.95 124.77
  L 569.81 122.61
  A 0.57 0.56 88.6 0 1 570.38 122.00
  L 572.36 122.01
  A 0.69 0.68 90.0 0 0 573.04 121.32
  L 572.98 116.07
  A 0.86 0.85 73.9 0 1 573.37 115.35
  L 576.73 113.23
  Q 577.25 112.90 577.25 113.52
  L 577.25 121.50
  A 0.50 0.50 0.0 0 0 577.75 122.00
  Z"
/>
<path fill="#ffffff" d="
  M 501.29 116.56
  C 508.52 118.63 505.60 127.70 498.74 127.76
  Q 492.78 127.81 486.76 127.72
  A 0.52 0.52 0.0 0 1 486.25 127.20
  L 486.25 116.62
  A 0.52 0.52 0.0 0 1 486.75 116.10
  C 489.78 116.00 496.88 115.30 501.29 116.56
  Z"
/>
<path fill="#000000" d="
  M 387.71 145.47
  A 0.60 0.60 0.0 0 0 386.78 145.12
  Q 381.27 149.04 375.58 148.06
  Q 368.97 146.92 369.24 140.74
  C 369.57 132.81 381.07 132.94 386.60 131.84
  A 0.77 0.75 -2.7 0 0 387.21 131.18
  Q 387.37 129.61 386.93 128.40
  Q 385.98 125.81 383.26 125.35
  Q 375.45 124.05 374.30 129.57
  A 0.51 0.50 11.1 0 1 373.71 129.96
  L 370.75 129.43
  A 0.54 0.54 0.0 0 1 370.32 128.77
  C 371.88 122.41 377.58 121.45 383.23 121.63
  C 396.19 122.05 389.45 137.88 392.51 147.47
  A 0.41 0.40 81.0 0 1 392.13 148.00
  L 388.91 148.00
  A 0.75 0.75 0.0 0 1 388.18 147.43
  L 387.71 145.47
  Z
  M 373.90 139.83
  Q 373.55 141.27 374.14 142.65
  Q 375.14 144.97 377.67 145.02
  Q 387.75 145.20 387.23 135.58
  A 0.48 0.47 82.3 0 0 386.66 135.14
  L 376.57 137.23
  Q 374.41 137.68 373.90 139.83
  Z"
/>
<path fill="#000000" d="
  M 445.3430 137.4720
  A 10.77 10.77 0.0 0 1 434.4981 148.1666
  L 432.5182 148.1528
  A 10.77 10.77 0.0 0 1 421.8236 137.3078
  L 421.8570 132.5280
  A 10.77 10.77 0.0 0 1 432.7019 121.8334
  L 434.6818 121.8472
  A 10.77 10.77 0.0 0 1 445.3764 132.6922
  L 445.3430 137.4720
  Z
  M 433.5625 145.0400
  A 10.02 7.78 90.1 0 0 441.3600 135.0336
  A 10.02 7.78 90.1 0 0 433.5975 125.0000
  A 10.02 7.78 90.1 0 0 425.8000 135.0064
  A 10.02 7.78 90.1 0 0 433.5625 145.0400
  Z"
/>
<path fill="#000000" d="
  M 454.64 125.37
  C 457.64 122.34 459.23 119.94 463.91 122.70
  A 0.65 0.64 -64.7 0 1 464.18 123.48
  L 463.04 126.53
  A 0.42 0.42 0.0 0 1 462.45 126.75
  C 452.24 121.49 454.75 143.10 454.74 147.36
  A 0.64 0.64 0.0 0 1 454.10 148.00
  L 451.12 148.00
  A 0.63 0.62 -90.0 0 1 450.50 147.37
  L 450.50 122.50
  A 0.50 0.50 0.0 0 1 451.00 122.00
  L 453.63 122.00
  A 0.63 0.62 -90.0 0 1 454.25 122.63
  L 454.25 125.20
  Q 454.25 125.76 454.64 125.37
  Z"
/>
<path fill="#000000" d="
  M 520.31 136.50
  C 520.47 145.02 531.31 148.57 534.71 140.07
  A 0.63 0.62 13.3 0 1 535.36 139.67
  L 538.64 140.00
  A 0.50 0.50 0.0 0 1 539.06 140.66
  Q 537.03 146.78 531.11 148.04
  C 512.71 151.98 510.93 124.61 524.98 121.85
  C 533.75 120.13 539.92 126.69 539.24 135.52
  A 0.52 0.51 1.8 0 1 538.72 136.00
  L 520.81 136.00
  A 0.50 0.49 -0.6 0 0 520.31 136.50
  Z
  M 520.74 130.04
  Q 519.22 132.61 522.21 132.53
  L 533.28 132.24
  Q 535.60 132.18 534.64 130.06
  C 531.49 123.12 524.50 123.68 520.74 130.04
  Z"
/>
<path fill="#000000" d="
  M 548.88 125.11
  Q 553.28 120.69 559.16 121.85
  C 564.66 122.94 565.43 127.00 565.48 132.23
  Q 565.55 139.86 565.47 147.48
  A 0.52 0.52 0.0 0 1 564.95 148.00
  L 561.89 148.00
  A 0.55 0.55 0.0 0 1 561.34 147.46
  Q 561.23 138.74 561.21 130.07
  C 561.19 123.84 551.87 124.06 549.74 129.11
  C 548.02 133.16 549.01 142.72 548.98 147.49
  A 0.51 0.51 0.0 0 1 548.47 148.00
  L 545.25 148.00
  A 0.50 0.50 0.0 0 1 544.75 147.50
  L 544.75 122.50
  A 0.50 0.50 0.0 0 1 545.25 122.00
  L 547.88 122.00
  A 0.63 0.63 0.0 0 1 548.51 122.63
  L 548.49 124.94
  Q 548.48 125.51 548.88 125.11
  Z"
/>
<path fill="#000000" d="
  M 602.69 131.20
  C 603.52 123.41 591.42 123.04 589.83 129.43
  A 0.64 0.64 0.0 0 1 589.12 129.91
  L 586.06 129.46
  A 0.49 0.48 12.0 0 1 585.66 128.85
  Q 587.23 123.16 592.76 122.03
  C 613.60 117.78 604.49 137.39 608.06 147.50
  A 0.38 0.37 81.2 0 1 607.70 148.00
  L 604.31 148.00
  A 0.60 0.59 82.3 0 1 603.74 147.56
  L 603.13 145.21
  A 0.45 0.45 0.0 0 0 602.41 144.98
  Q 597.47 149.10 591.26 148.19
  C 584.35 147.17 582.20 138.52 588.38 134.86
  C 591.61 132.95 598.15 132.63 602.14 131.80
  A 0.71 0.68 -3.7 0 0 602.69 131.20
  Z
  M 589.69 139.19
  C 586.59 147.83 604.66 147.01 602.60 135.60
  A 0.51 0.50 -10.7 0 0 602.00 135.20
  L 591.91 137.26
  Q 590.26 137.60 589.69 139.19
  Z"
/>
<path fill="#000000" d="
  M 718.86 131.26
  C 720.21 123.59 707.71 122.85 706.05 129.54
  A 0.54 0.54 0.0 0 1 705.44 129.94
  L 702.26 129.43
  A 0.52 0.52 0.0 0 1 701.86 128.73
  Q 704.36 122.16 710.78 121.69
  C 730.14 120.27 720.43 136.95 724.32 147.49
  A 0.38 0.38 0.0 0 1 723.96 148.00
  L 720.64 148.00
  A 0.74 0.73 84.2 0 1 719.92 147.41
  L 719.47 145.09
  A 0.36 0.36 0.0 0 0 718.89 144.88
  Q 713.62 149.22 707.27 148.18
  C 700.47 147.06 698.59 138.31 704.74 134.81
  C 707.94 132.98 714.29 132.64 718.27 131.86
  A 0.75 0.75 0.0 0 0 718.86 131.26
  Z
  M 705.78 139.57
  C 703.19 146.37 719.10 148.74 718.87 135.59
  A 0.44 0.44 0.0 0 0 718.34 135.17
  L 708.59 137.19
  Q 706.53 137.61 705.78 139.57
  Z"
/>
<path fill="#000000" d="
  M 407.58 142.41
  L 414.61 122.64
  A 0.97 0.97 0.0 0 1 415.52 122.00
  L 418.36 122.00
  A 0.48 0.48 0.0 0 1 418.81 122.64
  Q 413.34 137.78 407.53 152.75
  Q 405.01 159.26 398.38 158.12
  A 0.69 0.68 -87.8 0 1 397.82 157.51
  L 397.55 154.61
  A 0.43 0.43 0.0 0 1 398.02 154.14
  Q 403.61 154.68 404.90 150.01
  Q 405.46 147.97 404.35 145.06
  Q 400.11 133.90 395.91 122.66
  A 0.49 0.49 0.0 0 1 396.37 122.00
  L 399.58 121.99
  A 0.90 0.90 0.0 0 1 400.43 122.60
  L 407.36 142.41
  Q 407.47 142.72 407.58 142.41
  Z"
/>
<rect fill="#000000" x="641.75" y="122.00" width="4.26" height="26.00" rx="0.26"/>
<rect fill="#000000" x="663.75" y="122.00" width="4.26" height="26.00" rx="0.26"/>
<ellipse fill="#ffffff" cx="0.00" cy="0.00" transform="translate(433.58,135.02) rotate(90.1)" rx="10.02" ry="7.78"/>
<path fill="#ffffff" d="
  M 520.74 130.04
  C 524.50 123.68 531.49 123.12 534.64 130.06
  Q 535.60 132.18 533.28 132.24
  L 522.21 132.53
  Q 519.22 132.61 520.74 130.04
  Z"
/>
<ellipse fill="#ffffff" cx="0.00" cy="0.00" transform="translate(624.80,135.04) rotate(91.8)" rx="10.00" ry="7.13"/>
<ellipse fill="#ffffff" cx="0.00" cy="0.00" transform="translate(684.50,135.02) rotate(88.7)" rx="10.04" ry="7.15"/>
<ellipse fill="#ffffff" cx="0.00" cy="0.00" transform="translate(739.75,135.00) rotate(88.6)" rx="10.04" ry="7.14"/>
<path fill="#ffffff" d="
  M 373.90 139.83
  Q 374.41 137.68 376.57 137.23
  L 386.66 135.14
  A 0.48 0.47 82.3 0 1 387.23 135.58
  Q 387.75 145.20 377.67 145.02
  Q 375.14 144.97 374.14 142.65
  Q 373.55 141.27 373.90 139.83
  Z"
/>
<path fill="#ffffff" d="
  M 589.69 139.19
  Q 590.26 137.60 591.91 137.26
  L 602.00 135.20
  A 0.51 0.50 -10.7 0 1 602.60 135.60
  C 604.66 147.01 586.59 147.83 589.69 139.19
  Z"
/>
<path fill="#ffffff" d="
  M 705.78 139.57
  Q 706.53 137.61 708.59 137.19
  L 718.34 135.17
  A 0.44 0.44 0.0 0 1 718.87 135.59
  C 719.10 148.74 703.19 146.37 705.78 139.57
  Z"
/>
<path fill="#a6a6a6" d="
  M 517.53 791.42
  C 388.47 778.50 287.04 677.35 278.08 546.68
  C 267.23 388.33 401.93 253.29 559.99 265.35
  C 718.76 277.47 831.03 425.16 798.93 581.73
  C 787.04 639.74 754.94 694.14 709.09 731.69
  Q 634.71 792.59 537.51 792.43
  Q 527.41 792.41 517.53 791.42
  Z
  M 545.99 348.55
  C 641.40 352.26 715.05 423.01 722.45 518.03
  C 727.17 578.62 697.70 640.30 648.58 675.85
  Q 594.05 715.31 524.93 709.84
  Q 514.43 709.01 495.46 704.60
  A 0.70 0.69 16.6 0 0 494.65 705.03
  L 469.71 773.50
  A 1.04 1.04 0.0 0 0 470.40 774.85
  C 547.27 797.35 628.42 782.34 692.64 735.11
  C 757.75 687.23 797.06 609.70 796.91 528.73
  C 796.66 391.66 690.83 279.76 554.39 272.26
  A 1.65 1.65 0.0 0 0 552.65 273.74
  L 545.21 347.65
  A 0.82 0.81 -86.1 0 0 545.99 348.55
  Z
  M 436.80 669.76
  C 552.94 757.78 716.72 674.23 717.60 530.08
  C 718.12 444.03 654.36 368.25 568.91 355.78
  C 473.23 341.81 384.16 407.08 369.72 503.24
  C 360.25 566.27 385.61 630.97 436.80 669.76
  Z"
/>
<path fill="#000000" d="
  M 545.99 348.55
  A 0.82 0.81 -86.1 0 1 545.21 347.65
  L 552.65 273.74
  A 1.65 1.65 0.0 0 1 554.39 272.26
  C 690.83 279.76 796.66 391.66 796.91 528.73
  C 797.06 609.70 757.75 687.23 692.64 735.11
  C 628.42 782.34 547.27 797.35 470.40 774.85
  A 1.04 1.04 0.0 0 1 469.71 773.50
  L 494.65 705.03
  A 0.70 0.69 16.6 0 1 495.46 704.60
  Q 514.43 709.01 524.93 709.84
  Q 594.05 715.31 648.58 675.85
  C 697.70 640.30 727.17 578.62 722.45 518.03
  C 715.05 423.01 641.40 352.26 545.99 348.55
  Z"
/>
<path fill="#ffffff" d="
  M 717.60 530.08
  C 716.72 674.23 552.94 757.78 436.80 669.76
  C 385.61 630.97 360.25 566.27 369.72 503.24
  C 384.16 407.08 473.23 341.81 568.91 355.78
  C 654.36 368.25 718.12 444.03 717.60 530.08
  Z"
/>
<path fill="#000000" d="
  M 107.06 864.22
  C 101.26 862.14 97.00 858.69 99.35 852.28
  C 103.11 842.04 123.01 843.59 124.27 855.59
  A 0.59 0.58 86.4 0 1 123.70 856.24
  L 120.51 856.31
  A 0.66 0.65 86.1 0 1 119.85 855.73
  C 119.04 848.91 110.50 848.97 105.75 850.87
  Q 103.51 851.76 103.22 854.15
  C 101.96 864.63 127.27 857.51 125.18 872.99
  C 123.35 886.60 98.43 885.25 97.48 871.14
  A 0.66 0.66 0.0 0 1 98.09 870.44
  L 101.13 870.20
  A 0.58 0.57 82.9 0 1 101.74 870.68
  C 103.14 879.15 118.16 881.24 120.73 873.83
  C 123.29 866.44 111.17 865.70 107.06 864.22
  Z"
/>
<rect fill="#000000" x="159.24" y="846.02" width="4.02" height="35.96" rx="0.26"/>
<rect fill="#000000" x="-2.17" y="-2.51" transform="translate(269.07,848.53) rotate(0.6)" width="4.34" height="5.02" rx="0.27"/>
<rect fill="#000000" x="330.75" y="846.00" width="4.24" height="36.00" rx="0.31"/>
<path fill="#000000" d="
  M 822.67 852.73
  L 822.42 852.76
  A 0.33 0.13 -74.2 0 0 822.24 853.00
  L 812.51 881.44
  A 0.86 0.85 9.6 0 1 811.70 882.01
  L 808.74 881.98
  A 0.79 0.78 80.6 0 1 808.00 881.44
  C 807.12 878.83 798.33 852.26 798.01 852.25
  A 0.26 0.25 -88.9 0 0 797.75 852.51
  L 797.75 881.37
  A 0.63 0.63 0.0 0 1 797.12 882.00
  L 794.12 882.00
  A 0.64 0.64 0.0 0 1 793.48 881.36
  L 793.50 846.60
  A 0.60 0.60 0.0 0 1 794.10 846.00
  L 799.63 846.00
  A 0.93 0.92 -9.1 0 1 800.51 846.63
  L 810.33 876.43
  Q 810.49 876.93 810.67 876.43
  L 820.82 846.60
  A 0.89 0.88 9.1 0 1 821.66 846.00
  L 826.75 846.00
  A 0.50 0.50 0.0 0 1 827.25 846.50
  L 827.25 881.37
  A 0.63 0.63 0.0 0 1 826.62 882.00
  L 823.38 882.00
  A 0.63 0.63 0.0 0 1 822.75 881.37
  L 822.75 852.81
  A 0.08 0.07 86.8 0 0 822.67 852.73
  Z"
/>
<rect fill="#000000" x="-2.03" y="-2.49" transform="translate(836.53,848.50) rotate(-0.3)" width="4.06" height="4.98" rx="0.27"/>
<path fill="#000000" d="
  M 917.13 852.47
  C 917.88 850.41 918.88 848.29 919.84 846.32
  A 0.58 0.57 -76.4 0 1 920.35 846.00
  L 924.68 846.00
  Q 925.57 846.00 925.03 846.71
  L 920.61 852.50
  A 1.09 1.07 -72.0 0 1 919.80 852.92
  L 917.54 853.03
  A 0.42 0.42 0.0 0 1 917.13 852.47
  Z"
/>
<path fill="#000000" d="
  M 346.55 859.75
  Q 346.35 872.93 346.53 876.01
  Q 346.73 879.49 350.41 878.31
  A 0.55 0.55 0.0 0 1 351.13 878.76
  L 351.47 881.64
  A 0.55 0.54 87.2 0 1 350.93 882.25
  C 347.49 882.24 342.76 882.75 342.55 877.94
  Q 342.39 874.07 342.53 859.92
  A 0.64 0.64 0.0 0 0 341.90 859.28
  L 339.85 859.23
  A 0.63 0.63 0.0 0 1 339.24 858.60
  L 339.25 856.50
  A 0.51 0.50 -89.4 0 1 339.75 856.00
  L 341.87 856.00
  A 0.63 0.63 0.0 0 0 342.50 855.37
  L 342.50 849.87
  A 0.96 0.94 -15.9 0 1 342.96 849.06
  L 345.98 847.22
  Q 346.50 846.91 346.50 847.52
  L 346.50 855.50
  A 0.50 0.50 0.0 0 0 347.00 856.00
  L 350.38 856.00
  A 0.62 0.62 0.0 0 1 351.00 856.62
  L 351.00 858.75
  A 0.50 0.50 0.0 0 1 350.50 859.25
  L 347.06 859.25
  A 0.51 0.51 0.0 0 0 346.55 859.75
  Z"
/>
<path fill="#000000" d="
  M 147.99 878.97
  C 143.59 882.57 134.80 884.42 131.20 878.72
  Q 129.28 875.68 130.96 871.97
  C 133.25 866.91 142.68 866.88 147.70 865.75
  A 0.65 0.65 0.0 0 0 148.21 865.17
  Q 148.38 863.28 147.74 861.94
  Q 146.62 859.62 144.07 859.24
  Q 136.43 858.12 135.30 863.57
  A 0.51 0.51 0.0 0 1 134.71 863.97
  L 131.76 863.46
  A 0.57 0.57 0.0 0 1 131.31 862.76
  C 133.03 856.18 138.66 855.48 144.48 855.74
  C 157.37 856.32 150.40 873.51 153.55 881.39
  A 0.45 0.44 79.2 0 1 153.14 882.00
  L 149.86 882.00
  A 0.73 0.72 -5.9 0 1 149.15 881.43
  L 148.69 879.22
  A 0.44 0.43 64.4 0 0 147.99 878.97
  Z
  M 136.03 877.70
  Q 137.52 879.07 139.54 879.02
  Q 148.66 878.78 148.24 869.75
  A 0.55 0.55 0.0 0 0 147.60 869.23
  Q 142.97 870.00 138.47 871.11
  C 135.12 871.93 133.13 875.04 136.03 877.70
  Z"
/>
<path fill="#000000" d="
  M 174.57 859.35
  C 178.49 854.40 185.40 854.07 189.13 859.83
  A 0.29 0.29 0.0 0 0 189.61 859.83
  C 193.00 854.75 201.56 853.68 204.31 859.82
  C 206.41 864.54 205.27 875.94 205.23 881.37
  A 0.64 0.63 0.0 0 1 204.59 882.00
  L 201.58 882.00
  A 0.62 0.62 0.0 0 1 200.96 881.36
  Q 201.33 866.55 200.76 862.75
  Q 200.23 859.30 196.26 859.36
  C 191.84 859.43 190.35 862.03 190.03 866.22
  Q 189.45 873.85 189.91 881.50
  A 0.47 0.47 0.0 0 1 189.44 882.00
  L 186.26 882.00
  A 0.53 0.53 0.0 0 1 185.73 881.46
  Q 186.03 866.33 185.54 863.01
  C 184.56 856.44 174.93 859.14 174.58 865.82
  Q 174.41 869.00 174.50 881.36
  A 0.63 0.63 0.0 0 1 173.87 882.00
  L 171.09 882.00
  A 0.68 0.68 0.0 0 1 170.41 881.33
  L 170.23 856.63
  A 0.63 0.63 0.0 0 1 170.87 855.99
  L 173.56 856.02
  A 0.60 0.60 0.0 0 1 174.15 856.62
  L 174.14 859.19
  Q 174.14 859.90 174.57 859.35
  Z"
/>
<path fill="#000000" d="
  M 233.8408 871.4642
  A 10.81 10.81 0.0 0 1 222.8995 882.1414
  L 220.8797 882.1167
  A 10.81 10.81 0.0 0 1 210.2025 871.1754
  L 210.2592 866.5358
  A 10.81 10.81 0.0 0 1 221.2005 855.8586
  L 223.2203 855.8833
  A 10.81 10.81 0.0 0 1 233.8975 866.8246
  L 233.8408 871.4642
  Z
  M 222.0625 879.0200
  A 10.01 7.80 90.1 0 0 229.8800 869.0236
  A 10.01 7.80 90.1 0 0 222.0975 859.0000
  A 10.01 7.80 90.1 0 0 214.2800 868.9964
  A 10.01 7.80 90.1 0 0 222.0625 879.0200
  Z"
/>
<path fill="#000000" d="
  M 243.63 859.11
  C 247.75 855.04 255.72 853.93 258.88 859.11
  C 261.51 863.42 260.24 875.98 260.24 881.48
  A 0.52 0.52 0.0 0 1 259.72 882.00
  L 256.53 882.00
  A 0.52 0.51 -90.0 0 1 256.02 881.48
  Q 256.00 873.24 255.92 865.02
  C 255.87 860.35 252.36 858.36 248.22 859.70
  C 241.62 861.84 243.73 875.70 243.75 881.36
  A 0.64 0.64 0.0 0 1 243.11 882.00
  L 240.12 882.00
  A 0.62 0.62 0.0 0 1 239.50 881.38
  L 239.50 856.50
  A 0.50 0.50 0.0 0 1 240.00 856.00
  L 242.63 856.00
  A 0.63 0.63 0.0 0 1 243.26 856.63
  L 243.24 858.94
  Q 243.23 859.51 243.63 859.11
  Z"
/>
<path fill="#000000" d="
  M 286.27 882.17
  C 272.54 880.66 273.25 853.12 290.56 855.85
  C 294.78 856.52 297.50 858.94 298.44 863.06
  A 0.57 0.56 -11.1 0 1 297.98 863.74
  L 295.11 864.25
  A 0.72 0.71 -12.9 0 1 294.31 863.75
  C 293.66 861.55 292.38 859.73 289.94 859.34
  C 277.47 857.35 278.55 881.51 290.02 878.73
  Q 294.10 877.74 294.82 872.98
  A 0.51 0.50 -82.4 0 1 295.38 872.55
  L 298.45 872.96
  A 0.59 0.58 10.8 0 1 298.94 873.67
  Q 296.58 883.30 286.27 882.17
  Z"
/>
<path fill="#000000" d="
  M 387.32 859.60
  Q 390.05 853.70 396.34 856.56
  A 0.64 0.64 0.0 0 1 396.68 857.35
  L 395.70 860.29
  A 0.61 0.60 18.7 0 1 394.92 860.67
  C 384.45 856.83 387.14 876.29 387.27 881.45
  A 0.54 0.53 89.5 0 1 386.74 882.00
  L 383.50 882.00
  A 0.50 0.50 0.0 0 1 383.00 881.50
  L 383.00 856.50
  A 0.50 0.50 0.0 0 1 383.50 856.00
  L 386.13 856.00
  A 0.63 0.63 0.0 0 1 386.76 856.63
  L 386.74 859.47
  Q 386.73 860.87 387.32 859.60
  Z"
/>
<path fill="#000000" d="
  M 416.18 865.16
  C 416.91 857.22 404.83 857.12 403.22 863.57
  A 0.52 0.52 0.0 0 1 402.62 863.95
  L 399.75 863.46
  A 0.57 0.57 0.0 0 1 399.30 862.75
  C 401.00 856.29 406.50 855.52 412.23 855.67
  C 425.09 856.03 418.75 873.36 421.59 881.39
  A 0.49 0.48 -8.2 0 1 421.11 882.03
  L 417.79 881.89
  A 0.75 0.75 0.0 0 1 417.08 881.29
  L 416.64 879.09
  A 0.40 0.40 0.0 0 0 415.99 878.87
  Q 410.44 883.62 404.18 882.12
  C 398.40 880.73 396.26 874.31 400.40 869.99
  C 403.25 867.02 411.55 866.68 415.64 865.78
  A 0.69 0.69 0.0 0 0 416.18 865.16
  Z
  M 403.68 872.49
  C 397.68 878.86 417.09 884.21 416.22 869.54
  A 0.44 0.44 0.0 0 0 415.69 869.14
  C 412.78 869.78 405.58 870.47 403.68 872.49
  Z"
/>
<path fill="#000000" d="
  M 849.63 859.11
  Q 854.03 854.68 859.93 855.85
  C 864.99 856.85 866.19 860.70 866.23 865.62
  Q 866.29 873.56 866.22 881.49
  A 0.51 0.51 0.0 0 1 865.71 882.00
  L 862.53 882.00
  A 0.52 0.51 -90.0 0 1 862.02 881.48
  Q 861.99 873.24 861.82 865.02
  Q 861.69 858.76 855.82 859.30
  C 847.18 860.11 849.72 875.24 849.75 881.36
  A 0.64 0.64 0.0 0 1 849.11 882.00
  L 846.12 882.00
  A 0.62 0.62 0.0 0 1 845.50 881.38
  L 845.50 856.50
  A 0.50 0.50 0.0 0 1 846.00 856.00
  L 848.63 856.00
  A 0.63 0.63 0.0 0 1 849.26 856.63
  L 849.24 858.94
  Q 849.23 859.51 849.63 859.11
  Z"
/>
<path fill="#000000" d="
  M 876.33 870.51
  C 876.76 879.16 887.62 882.53 890.63 874.15
  A 0.74 0.73 12.5 0 1 891.40 873.66
  L 894.64 874.00
  A 0.51 0.50 13.4 0 1 895.06 874.68
  C 889.70 888.78 869.18 882.61 871.86 866.68
  C 874.64 850.15 896.52 852.86 895.24 869.53
  A 0.51 0.51 0.0 0 1 894.73 870.00
  L 876.81 870.00
  A 0.48 0.48 0.0 0 0 876.33 870.51
  Z
  M 876.99 866.35
  C 880.69 865.81 885.78 866.64 890.21 866.45
  A 0.56 0.56 0.0 0 0 890.75 865.92
  C 891.25 857.46 877.21 856.54 876.53 865.93
  A 0.40 0.40 0.0 0 0 876.99 866.35
  Z"
/>
<path fill="#000000" d="
  M 904.64 859.38
  C 907.66 856.43 909.22 853.88 913.92 856.73
  A 0.66 0.65 -64.2 0 1 914.19 857.52
  L 913.05 860.53
  A 0.43 0.43 0.0 0 1 912.46 860.76
  C 902.13 855.62 904.75 877.45 904.74 881.36
  A 0.64 0.64 0.0 0 1 904.10 882.00
  L 901.12 882.00
  A 0.63 0.62 -90.0 0 1 900.50 881.37
  L 900.50 856.50
  A 0.50 0.50 0.0 0 1 901.00 856.00
  L 903.63 856.00
  A 0.63 0.63 0.0 0 1 904.26 856.63
  L 904.23 859.20
  Q 904.23 859.78 904.64 859.38
  Z"
/>
<path fill="#000000" d="
  M 945.43 878.97
  Q 945.31 878.38 944.86 878.77
  Q 939.75 883.17 933.07 882.14
  C 926.39 881.11 924.77 872.22 930.73 868.81
  C 933.93 866.98 940.32 866.64 944.32 865.84
  A 0.74 0.73 88.4 0 0 944.91 865.21
  Q 945.12 863.57 944.71 862.35
  Q 943.87 859.85 941.27 859.39
  Q 933.13 857.98 932.11 863.55
  A 0.51 0.51 0.0 0 1 931.53 863.96
  L 928.23 863.41
  A 0.41 0.40 11.7 0 1 927.90 862.91
  C 929.65 856.22 935.68 855.33 941.73 855.77
  C 953.91 856.66 947.22 873.47 950.31 881.38
  A 0.46 0.45 79.3 0 1 949.89 882.00
  L 946.72 882.01
  A 0.88 0.88 0.0 0 1 945.86 881.30
  L 945.43 878.97
  Z
  M 933.53 878.20
  C 940.69 880.98 944.98 876.53 944.87 869.61
  A 0.43 0.43 0.0 0 0 944.36 869.20
  C 940.90 869.89 932.28 870.26 931.49 874.53
  Q 930.99 877.21 933.53 878.20
  Z"
/>
<rect fill="#000000" x="266.77" y="855.99" width="4.48" height="26.00" rx="0.51"/>
<path fill="#000000" d="
  M 319.31 878.71
  Q 313.55 884.86 305.83 880.68
  C 301.71 878.45 302.57 865.41 302.80 856.61
  A 0.63 0.62 0.5 0 1 303.43 856.00
  L 306.44 856.00
  A 0.52 0.52 0.0 0 1 306.96 856.51
  L 307.12 874.33
  Q 307.13 876.14 308.58 877.23
  C 314.04 881.34 319.52 876.68 319.51 870.50
  Q 319.49 863.51 319.52 856.53
  A 0.53 0.53 0.0 0 1 320.05 856.00
  L 322.90 856.00
  A 0.61 0.60 0.0 0 1 323.51 856.60
  L 323.52 881.49
  A 0.51 0.51 0.0 0 1 323.01 882.00
  L 320.32 882.00
  A 0.63 0.62 -87.1 0 1 319.70 881.31
  L 319.93 878.99
  Q 320.03 877.93 319.31 878.71
  Z"
/>
<path fill="#000000" d="
  M 372.55 878.53
  Q 372.65 877.27 371.90 878.28
  Q 368.26 883.22 362.08 882.12
  C 356.80 881.18 355.54 877.79 355.52 872.63
  Q 355.49 864.62 355.47 856.62
  A 0.63 0.63 0.0 0 1 356.10 855.99
  L 358.96 856.00
  A 0.54 0.53 0.6 0 1 359.49 856.53
  Q 359.48 870.43 359.54 872.99
  C 359.68 879.08 366.58 880.52 370.14 876.41
  C 372.99 873.12 372.09 860.94 371.85 856.60
  A 0.57 0.57 0.0 0 1 372.42 856.00
  L 375.63 856.00
  A 0.62 0.62 0.0 0 1 376.25 856.62
  L 376.25 881.40
  A 0.62 0.62 0.0 0 1 375.60 882.02
  L 372.92 881.92
  A 0.61 0.61 0.0 0 1 372.33 881.25
  L 372.55 878.53
  Z"
/>
<rect fill="#000000" x="-2.00" y="-12.99" transform="translate(836.50,869.00) rotate(-0.1)" width="4.00" height="25.98" rx="0.27"/>
<rect fill="#000000" x="917.49" y="856.02" width="4.02" height="25.96" rx="0.26"/>
<ellipse fill="#ffffff" cx="0.00" cy="0.00" transform="translate(222.08,869.01) rotate(90.1)" rx="10.01" ry="7.80"/>
<path fill="#ffffff" d="
  M 890.21 866.45
  C 885.78 866.64 880.69 865.81 876.99 866.35
  A 0.40 0.40 0.0 0 1 876.53 865.93
  C 877.21 856.54 891.25 857.46 890.75 865.92
  A 0.56 0.56 0.0 0 1 890.21 866.45
  Z"
/>
<path fill="#ffffff" d="
  M 136.03 877.70
  C 133.13 875.04 135.12 871.93 138.47 871.11
  Q 142.97 870.00 147.60 869.23
  A 0.55 0.55 0.0 0 1 148.24 869.75
  Q 148.66 878.78 139.54 879.02
  Q 137.52 879.07 136.03 877.70
  Z"
/>
<path fill="#ffffff" d="
  M 416.22 869.54
  C 417.09 884.21 397.68 878.86 403.68 872.49
  C 405.58 870.47 412.78 869.78 415.69 869.14
  A 0.44 0.44 0.0 0 1 416.22 869.54
  Z"
/>
<path fill="#ffffff" d="
  M 933.53 878.20
  Q 930.99 877.21 931.49 874.53
  C 932.28 870.26 940.90 869.89 944.36 869.20
  A 0.43 0.43 0.0 0 1 944.87 869.61
  C 944.98 876.53 940.69 880.98 933.53 878.20
  Z"
/>
</svg>
