<svg xmlns="http://www.w3.org/2000/svg" viewBox="0 0 1080 1080"><g fill="none" stroke-width="2"><path stroke="#b0f280" d="m249.56 0-3.31.54" vector-effect="non-scaling-stroke"/><path stroke="#a0a0a0" d="m246.25.54-2.03.3a.62.62 0 0 0-.53.61c-.08 8.61.14 18.52 5.12 24.5q4.83 5.8 12.58 12.06 5.43 4.39 7.24 7.07c3.21 4.75 6.21 14.12 2.95 19.63q-2.41 4.07-3.85 5.52c-10.56 10.69-23.56 26.42-27.11 40.85-3.03 12.28 1.93 27.97 13.31 34.75 8.63 5.14 18.02 9.26 24.57 17.17q9.27 11.17 14.87 24.51c2.86 6.8 2.41 11.55-.3 18.07-6.47 15.54-11.38 32.66-12.26 49.67-.92 17.68-1.81 35.41-.67 53.09q.87 13.52-.3 27.3" vector-effect="non-scaling-stroke"/><path stroke="#b0f280" d="M279.84 335.64q-1.66 3.04-1.3 6.86" vector-effect="non-scaling-stroke"/><path stroke="#a0a0a0" d="M278.54 342.5c-1.11 17.67-10.48 31.99-16.08 48.06-2.21 6.35-5.68 15.26-5.5 21.96q.02.5-.29.11-14.46-17.91-18.78-22.28c-9.23-9.34-15.46-10.49-25.32-.79q-13.14 12.92-21.32 27.8c-5.9 10.73-8.6 19.91 2.42 27.91 7.57 5.51 14.5 9.71 23.47 11.48q8.23 1.63 15.73 5a1.48 1.46-78.6 0 1 .86 1.31c.07 4.49 1.7 14.63-3.48 16.68-6.26 2.49-11.14 5.66-12.51 12.37-1.99 9.66 6.35 19.13 15.3 21.59q7.7 2.12 20.46 2.74a1.7 1.69 63.6 0 1 .91.31c9.12 6.56 7.27 11.34 7.65 20.97q.13 3.38-1.69.53-2.81-4.39-6.37-7.79" vector-effect="non-scaling-stroke"/><path stroke="#e18080" d="M254 530.46q-2.51-2.86-6.25-3.75" vector-effect="non-scaling-stroke"/><path stroke="#a0a0a0" d="M247.75 526.71q-9.73-5.05-20.67-4.34c-5.41.34-11.49 1.36-16.79.24-7.01-1.48-15.96-.39-21.05 5.25-9.12 10.08-.99 37.83 16.03 32.73 7.45-2.23 13.75-5.36 22.21-5.35a1.26 1.23-22.4 0 1 .87.35q2.6 2.61 2.33 6.19a1.37 1.36-8.5 0 1-.88 1.18q-10.25 3.87-18.89 10.12" vector-effect="non-scaling-stroke"/><path stroke="#e18080" d="M210.91 573.08q-8.87 5.01-15.07 13.14" vector-effect="non-scaling-stroke"/><path stroke="#a0a0a0" d="M195.84 586.22c-6.2 5.24-15.64 18.63-11.8 27.24 4.4 9.86 21.9 25.14 32.91 14.24 10.28-10.17 13.76-23.22 19.83-35.4q.65-1.32 2.72-1.51" vector-effect="non-scaling-stroke"/><path stroke="#e18080" d="M239.5 590.79h1.75" vector-effect="non-scaling-stroke"/><path stroke="#a0a0a0" d="M241.25 590.79q3.14-.13 2.78 2.97-1.06 9.03-4.2 17.55-2.07 5.61-7.63 23.75c-1.45 4.72-5.06 9.86-8.02 13.96q-11.05 15.28-16.66 26.52c-4.8 9.61-7.01 19.1-2.27 29" vector-effect="non-scaling-stroke"/><path stroke="#e18080" d="M205.25 704.54q2.44 6.37 7.75 10.67" vector-effect="non-scaling-stroke"/><path stroke="#a0a0a0" d="M213 715.21c7.45 4.99 14.9 7.1 23.06 2.72" vector-effect="non-scaling-stroke"/><path stroke="#e18080" d="M236.06 717.93q4.21-.09 7.48-2.68" vector-effect="non-scaling-stroke"/><path stroke="#a0a0a0" d="M243.54 715.25q5.55-3.79 11.47-6.24a1.62 1.62 0 0 1 2.24 1.51q-.03 7.73-4.12 13.84-3.38 5.04-3.39 5.06c-3.37 7.05-.8 18.34 7.65 20.26 6.5 1.48 20.9-5.18 27.11-7.92q5.51-2.42 8.65 1.35a1.78 1.78 0 0 1-.39 2.63q-14.68 9.68-31.76 9.05" vector-effect="non-scaling-stroke"/><path stroke="#b0f280" d="M261 754.79q-4.31-.1-7.75 2.5" vector-effect="non-scaling-stroke"/><path stroke="#e18080" d="M253.25 757.29c-4.84-.1-10.18.27-9.61 6.73.23 2.63 2.34 4.85 4.11 6.77" vector-effect="non-scaling-stroke"/><path stroke="#a0a0a0" d="M247.75 770.79c.58 11.55-.73 20.8 7.25 29.75" vector-effect="non-scaling-stroke"/><path stroke="#b0f280" d="M255 800.54q2.37 6.58 9.54 4.96" vector-effect="non-scaling-stroke"/><path stroke="#e18080" d="m264.54 805.5 2.62-.57a1.06 1.03-30.7 0 1 .87.21l3.97 3.32" vector-effect="non-scaling-stroke"/><path stroke="#a0a0a0" d="M272 808.46c-9.65 1.82-13.81 8.92-13.3 18.27.51 9.32 4.15 18.02 15.11 18.17 6.45.09 7.7-3.05 9.18-9 1.34-5.34 2.83-8.86 6.8-13.07 3.36-3.55 6.37-7.79 11.35-9.12 7.63-2.03 12.56-6.11 10.32-14.96" vector-effect="non-scaling-stroke"/><path stroke="#e18080" d="M311.46 798.75q-.33-5.28-4.64-7.58" vector-effect="non-scaling-stroke"/><path stroke="#a0a0a0" d="M306.82 791.17q-5.07-5.44-11.99-6.82c-3.82-.76-11.31-1.63-12.22-6.21a1.78 1.77-11.5 0 1 1.38-2.08c9.66-2.04 17.54-.71 26.9-.77 4.08-.03 10.34 3.06 15.37 4.66q9 2.86 16.54 10.52c2.52 2.55 4.66 6.82 6.76 9q6.68 6.94 16.52 5.45 5.26-.79 6.96-4.15c5.73-11.34 10.34-20.5 22.9-25.23 4.19-1.58 13.9-1.28 14.15-7.72.21-5.4-4.11-5.84-8.96-6.93-10.74-2.4-21.89-3.69-32.27-6.66-13.04-3.72-25.48-7.49-38.81-8.85a1.14 1.13 1.8 0 1-1.02-1.08q-.27-6.32-.98-12.56c-1.22-10.8-9.43-22.44-16.44-30.26-5.54-6.18-8.96-10.45-13.27-15.92-9.75-12.39-20.99-24.22-28.75-37.65q-1.45-2.51-4.09-5.61-5.29-6.2-7.84-14.13c-1.39-4.33 2.61-11.34 5.02-14.88 14.83-21.68 31.55-42.04 34.45-69.17.8-7.52 3.46-16 5.57-22.99q6.74-22.31 14.38-44.32c8.83-25.46 16.17-49.99 17.85-76.65.97-15.44 4.94-31.17 8.9-46.1 1.18-4.41 2.45-10 1.93-13.57-.65-4.45-5.46-10.16-7.18-13.23-2.54-4.55-6.32-10.25-6.79-15.51q-1.07-11.96-.08-24.75 1.14-14.67-3.13-28.9c-1.92-6.42-2.25-10.98-1.26-17.04 2.03-12.56 4.06-23.85 3.94-36.16-.11-10.89-.04-23.5-1.68-35.11q-.59-4.15-2.69-8.74c-5.49-12.05-12.42-26.74-8.93-41.32 4.08-17.06 11.61-32.82 20.08-48.8q7.33-13.83 12.32-28.67c4.52-13.45 4.5-27.45 5.61-41.23a.52.52 0 0 0-.46-.56l-4.2-.47" vector-effect="non-scaling-stroke"/><path stroke="#a0a0a0" d="m371.56 0-2.6.53a.63.62 84.5 0 0-.5.62c-.02 14.62-.92 29.9-4.51 44.12-.36 1.46-1.48 3.4-2.45 4.55q-9.7 11.51-14.67 23.5-9.12 21.98-20.08 54.43-1.11 3.3.41 6.39 6.29 12.87 13.25 25.38c3.18 5.7 3.09 11.48 3.56 18.67 1.17 18.03-2.63 36.28-7.06 53.83-3.09 12.24 1.62 23.3 6.92 34.71q1.09 2.32 1.11 4.72c.13 11.79-1.67 23.77-2.56 35.55q-.38 5.09 1.88 8.47 9.03 13.45 13.65 25.87 2.2 5.91-1.14 10.67c-6.27 8.94-11.98 17.75-11.8 28.48.46 27.92-.87 54.73-9.37 82.68-5.25 17.25-13.37 31.73-19.53 46.6q-9.86 23.78-8.55 50.06c.26 5.09-5.66 10.77-8.73 14.48-5.02 6.08-7.56 13.34-10.56 20.49q-1.47 3.51-3.8 6.36c-6.14 7.52-13.09 14.7-18.33 22.69a1.83 1.81 42.5 0 0 .1 2.12c8.25 10.39 16.35 20.26 24.14 31.49q11.15 16.08 23.08 31.58c11.59 15.04 19.03 27.22 24.36 44.65.7 2.27 2.03 3.98 4.58 4.55q12.32 2.74 24.64 5.51c11.71 2.63 31.66 3.34 45.3 5.97 15.06 2.9 29.06 8.04 43.27 13.68a1.57 1.56 48.9 0 0 .96.07c5.27-1.28 2.14-8.7-.51-10.27q-8.14-4.82-13.64-12.22c-8.53-11.49-4.48-25.86-2.69-38.73 1.22-8.78.91-15.19-1.63-23.02-1.89-5.85-6.86-10.24-7.14-16.34q-.35-7.38 6.36-11.61 7.49-4.71 23.34-13.96c5.64-3.29 5.98-8.95 9.2-13.98q5.37-8.4 13.51-14.31c5.51-4 3.08-8.36 3.54-13.84q.82-9.84 8.55-15.68c5.31-4.01 11.02-2.67 14.61-9.7q8.82-17.24 11.53-21.77 18.94-31.68 48.65-58.14 5.2-4.63 6.23-6.57c9.71-18.27-26.64-25.82-37.13-26.62-2.19-.17-5.58-.94-6.95-2.07q-13.39-11-27.02-21.69c-7.17-5.63-4.92-18.5-4.38-26.43 1.11-16.53 3.09-28.16 15.1-39.69 7.12-6.83 15.14-8.54 22.22-13.81q1.99-1.48 7.71-7.74 11.43-12.52 27.11-19.1c5.71-2.39 13.56-3.91 18.83-5.55 3.36-1.05 4.57-3.9 4.74-7.44q1.24-25.96 3.19-51.88c.22-2.81.38-7 2.1-8.8q11.94-12.53 11.06-29.92c-.05-.91.38-2.24.57-3.06a1.48 1.48 0 0 1 1.63-1.14c19.08 2.48 37.65 19.96 52.91-3.54 3.69-5.7-.22-13.48-6.51-14.53-8.19-1.36-11.85 5.56-18.4 7.86-15.83 5.57-34.28-11.82-45.26-23.46-1.87-1.98-3.71-4.96-3.36-7.4q1.46-10.13 8.22-47.05c.31-1.71.79-7.7 1.94-9.01 5.93-6.73 17.02-8.25 24.93-4.48 5.63 2.68 9.18 9.25 14.95 11.38q19.05 7.04 38.32 13.48c5.68 1.89 10.22-1.15 14.51-5.16q13.56-12.67 22.08-29.2a.93.91 44.3 0 0-.02-.88c-2.73-4.8-6.46-9.72-8.2-14.37-1.94-5.2-3.73-13.18-1.76-18.56 2.89-7.91 11.29-12.91 10.42-22.5-1.1-12.21-17.35-20.66-11.33-33.86C713.51 6.46 723-.21 733.63 8.81q2.38 2.02 4.77 4.02c30.1 25.16 67.99 2.53 96.34-10.31 1.65-.75 3.47-.91 5.25-1.48q.55-.18-.02-.23L831.06 0M251.54 152.51c-12.36-3.77-17.1 8.26-18.78 17.99-2.64 15.3-6.55 29.77-7.25 46.03-.48 11.32 1.41 22.66 5.42 32.5 5.63 13.78 26.82 15.97 28.27-2.57 1.46-18.65-.11-37.35-.4-56.04-.11-7.46.71-16.08.88-24.65.12-6.16-1.84-11.33-8.14-13.26" vector-effect="non-scaling-stroke"/><path stroke="#e18080" d="M217.03 367.5c2.29 4.58 6.43 8.74 11.97 6.96" vector-effect="non-scaling-stroke"/><path stroke="#a0a0a0" d="M229 374.46q8.39-.98 10.76-2.45 11.61-7.23 14.98-20.03 2.7-10.25-3.85-15.33c-8.58-6.65-22.13-3.17-29.43 4.3-6.19 6.35-10.03 18.25-4.43 26.55" vector-effect="non-scaling-stroke"/><path stroke="#812021" d="M229 374.46c2.77-4.04 5.04-8.23 2.84-12.07-4.43-7.7-14.19-2.52-14.81 5.11" vector-effect="non-scaling-stroke"/><path stroke="#e18080" d="M640.593 449.87a26.86 25.07 90.1 0 0 25.117-26.816 26.86 25.07 90.1 0 0-25.023-26.904 26.86 25.07 90.1 0 0-25.117 26.816 26.86 25.07 90.1 0 0 25.023 26.904" vector-effect="non-scaling-stroke"/><path stroke="gray" d="M700.89 413.73a1.38 1.38 0 0 1-.04-2.48q4.61-2.38 6.64 1.7a.86.86 0 0 0 .83.47l2.83-.22a.55.54 84.5 0 0 .5-.61c-.73-6.05-10.05-7.21-13.74-3.52-2.34 2.34-2.01 6.03.66 8.05 2.29 1.73 5.79 2.15 8.57 3.15a1.8 1.8 0 0 1 .66 2.97c-2.64 2.63-6.86 2.09-8-1.83a.63.61-10.6 0 0-.66-.44l-3.03.3a.48.48 0 0 0-.43.56c1.14 6.41 9.4 8.49 14 5.13 3.05-2.23 3.63-7.01.5-9.6-2.35-1.94-6.44-2.28-9.29-3.63M735.75 407.7a.44.44 0 0 0-.44-.44h-3.12a.44.44 0 0 0-.44.44v19.88a.44.44 0 0 0 .44.44h3.12a.44.44 0 0 0 .44-.44V407.7M934.41 426.28c.86.56 1.58 1.46 2.6 1.7 10.05 2.37 11.05-16.3.59-15.1-1.11.13-1.86.94-2.86 1.41a.36.36 0 0 1-.51-.33l.07-6.09a.61.61 0 0 0-.61-.62h-2.7a.51.5-90 0 0-.5.51l-.02 19.72a.52.52 0 0 0 .52.52h2.62a.63.62-10.5 0 0 .59-.85l-.2-.54q-.32-.8.41-.33M974.51 426.59l-.21.56a.63.62 10.5 0 0 .59.85h2.61a.5.5 0 0 0 .5-.5v-19.63a.62.62 0 0 0-.62-.62h-2.76a.63.62 90 0 0-.62.63l.01 6.08q0 .69-.53.25c-2.51-2.1-5.88-1.97-8.05.6-4.96 5.91.27 18.3 8.7 11.5q.71-.57.38.28M724.28 427.01q1.54 1.63 3.9.91a.49.48 76.9 0 0 .34-.56q-.91-4.63-.7-9.36c.32-7.36-9.8-6.49-12.49-1.81a.51.51 0 0 0 .32.75l2.34.58a.87.87 0 0 0 .95-.37c1.5-2.24 5.86-1.56 5.01.84a.89.87 4.5 0 1-.68.57q-4.92.9-6.45 1.75c-5.5 3.05.43 11.11 7.06 6.65a.32.32 0 0 1 .4.05M743.25 414.27v-.64a.62.62 0 0 0-.62-.63h-2.51a.63.62 90 0 0-.62.63v13.87a.5.5 0 0 0 .5.5h2.97a.51.51 0 0 0 .51-.52c-.03-3.86-1.3-12.32 3.73-11.59a.99.97-7.9 0 1 .74.55c1.21 2.55.47 7.03.63 11.04a.55.54-1.1 0 0 .55.52h2.85a.51.51 0 0 0 .51-.53c-.09-3.13-1.09-10.75 2.86-11.73a1.72 1.71 82.9 0 1 2.13 1.66l.03 9.97a.64.63 0 0 0 .64.63h2.91a.57.57 0 0 0 .57-.6c-.19-3.41.5-9.46-.67-12.13-1.62-3.72-5.75-2.76-8.41-.63a.55.54 47.1 0 1-.72-.03q-3.99-3.77-8.04-.1-.55.49-.54-.24M780.12 420.53a7.78 7.78 0 0 0-7.78-7.78 7.78 7.78 0 0 0-7.78 7.78 7.78 7.78 0 0 0 7.78 7.78 7.78 7.78 0 0 0 7.78-7.78M786.75 414.52v-.89a.62.62 0 0 0-.62-.63h-2.51a.63.62 90 0 0-.62.63v13.87a.5.5 0 0 0 .5.5h2.96a.52.52 0 0 0 .52-.52c0-3.17-1.44-12.92 4.28-11.58a1.62 1.61-84.3 0 1 1.25 1.54l.25 10.05a.53.52-.6 0 0 .53.51h2.89a.67.66-.8 0 0 .67-.68l-.35-11.49a1.46 1.44 21 0 0-.45-1q-4.43-4.26-8.76-.07-.55.53-.54-.24M804.3 421.75h8.46a.61.6-86.2 0 0 .6-.53c1.21-9.25-11.01-11.99-13.3-3.14-2.48 9.58 8.96 14.36 13.14 6.33a.43.43 0 0 0-.32-.62l-2.81-.46a.8.8 0 0 0-.84.44c-1.41 2.98-5.06 1.37-5.38-1.51a.46.45 86.6 0 1 .45-.51M820.25 414.52v-.77a.75.75 0 0 0-.75-.75h-2.22a.54.54 0 0 0-.54.54l.02 13.84a.62.62 0 0 0 .62.62h2.7a.56.56 0 0 0 .56-.61c-.17-2.48-1.22-12.63 3.94-10.8a.59.58-70.2 0 0 .75-.36l.85-2.36a.59.58 20.7 0 0-.34-.74q-3.34-1.29-5.1 1.54-.49.78-.49-.15M836.6 426.93q1.34 1.8 3.88.97a.5.5 0 0 0 .32-.59c-1.1-4.57 1.51-13.7-4.76-14.48-3.4-.42-6.66-.05-8.36 3.28a.57.56-61 0 0 .21.74q2.4 1.47 3.91-.41a1.7 1.63-78.3 0 1 .83-.57q2.25-.7 3.67 1.15a.96.96 0 0 1-.6 1.54c-3.21.53-10.77 1.77-8.24 7.1 1.57 3.31 5.85 3.3 8.41 1.18a.5.5 0 0 1 .73.09M852.46 424.32c-1.07 1.75-4.93 1.71-5.65-.61a.6.6 0 0 0-.62-.42l-2.59.24a.99.99 0 0 0-.6 1.7c9.09 8.84 19.22-3.57 10-6.03q-2.63-.7-5.37-1.5a.91.91 0 0 1-.19-1.67q2.83-1.6 4.87.88a.85.84 65.5 0 0 .79.3l2.15-.35a.57.56-6.6 0 0 .48-.6c-.36-4.69-13-5.38-12.41 1.66.28 3.35 5.87 4.41 8.45 4.87a1.02 1.02 0 0 1 .69 1.53M876.62 426.93q1.26 1.82 3.71.94a.59.59 0 0 0 .38-.66c-.87-4.49 1.58-13.94-4.98-14.44-3.39-.26-6.55.08-8.06 3.48a.56.56 0 0 0 .39.78l2.17.48a.95.94-64.5 0 0 .95-.34q2.2-2.79 5.13-.33a.91.9 57 0 1-.33 1.56c-2.49.72-7.38 1.11-8.5 3.58-2.38 5.23 4.54 8.25 8.4 4.86a.5.5 0 0 1 .74.09M887.52 414.65l.18-.96a.59.59 0 0 0-.58-.69h-2.62a.5.5 0 0 0-.5.5v19.75a.5.5 0 0 0 .5.5h2.9a.52.52 0 0 0 .52-.53l-.13-6.33a.33.33 0 0 1 .55-.26c6.83 5.98 11.8-3.57 9.53-9.5-1.72-4.46-6.25-6.03-9.81-2.21q-.72.77-.54-.27M905.32 414.74l-.1-1.15a.65.64-2.4 0 0-.65-.59h-2.35a.53.52 90 0 0-.52.53l.07 13.86a.62.62 0 0 0 .62.61h2.69a.56.56 0 0 0 .56-.61c-.16-2.34-1.27-12.65 3.96-10.76a.56.56 0 0 0 .72-.34l.86-2.43a.56.55 21.7 0 0-.31-.7q-3.35-1.43-5.11 1.67a.24.23-33.3 0 1-.44-.09M927.61 420.53a7.78 7.78 0 0 0-7.78-7.78 7.78 7.78 0 0 0-7.78 7.78 7.78 7.78 0 0 0 7.78 7.78 7.78 7.78 0 0 0 7.78-7.78" vector-effect="non-scaling-stroke"/><path stroke="gray" d="M956.69 426.99q1.57 1.69 4.09.9a.47.46 70.3 0 0 .29-.62c-1.94-4.7 2.28-12.8-4.57-14.2q-6.05-1.24-8.68 3.14a.51.51 0 0 0 .33.76l2.39.5a.91.9-66.2 0 0 .94-.37c1.5-2.19 5.84-1.46 4.97.86a.94.93 2.9 0 1-.66.59q-2.13.52-4.29.97c-8.82 1.8-1.97 13.02 4.51 7.43a.5.5 0 0 1 .68.04M990.28 427q1.64 1.63 4.06.9a.45.44-20.6 0 0 .28-.6c-2.04-4.7 2.25-12.83-4.62-14.23q-6.05-1.24-8.68 3.11a.51.51 0 0 0 .31.76l2.36.58a.89.88-65.9 0 0 .96-.37c1.5-2.26 5.86-1.52 5 .82a.93.9 3.3 0 1-.67.58c-2.86.64-8.2 1.12-8.47 4.9-.37 5.19 5.66 5.79 9.06 3.51a.32.32 0 0 1 .41.04M1006.33 424.16c-.99 2.12-4.73 1.66-5.67-.46a.68.66 74.9 0 0-.68-.4l-3.15.27a.59.58-21.2 0 0-.42.94q3.94 5.16 9.84 3.39c2.32-.69 4.31-2.41 4.06-4.93-.38-3.81-5.99-4.44-9.06-5.3a.85.85 0 0 1-.18-1.56q2.99-1.66 5.05.86a.84.83-26.2 0 0 .84.28l2.41-.56a.47.47 0 0 0 .29-.71c-3.1-4.72-13.55-4.79-12.53 2.56a1.45 1.4-73 0 0 .43.84q3.19 3.05 7.83 3.23a1.09 1.09 0 0 1 .94 1.55" vector-effect="non-scaling-stroke"/><path stroke="#b0f280" d="M640.79 540.05a26.86 25.08 89.7 0 0 24.94-26.991 26.86 25.08 89.7 0 0-25.22-26.729 26.86 25.08 89.7 0 0-24.94 26.991 26.86 25.08 89.7 0 0 25.22 26.729" vector-effect="non-scaling-stroke"/><path stroke="gray" d="M744.56 493.47q-.37 1.46-1.24 2.68a.5.49-63.5 0 0 .25.77c2.09.67 4.2-2.25 5.35-3.67q.45-.54-.26-.53l-3.28.09a.87.87 0 0 0-.82.66M748.89 514.25a.4.4 0 0 1 .38.26l1.56 4.23a.4.4 0 0 0 .38.26h3.66a.4.4 0 0 0 .37-.55l-7.98-19.95a.4.4 0 0 0-.37-.25h-3.78a.4.4 0 0 0-.37.25l-7.78 19.95a.4.4 0 0 0 .38.55h3.56a.4.4 0 0 0 .38-.26l1.54-4.23a.4.4 0 0 1 .38-.26h7.69M829.46 510.99c2.8.5 6.58.45 8.82-1.26 3.09-2.35 3.17-8.02-.26-10.27-2.63-1.72-9.59-1.29-12.78-1.19a.5.49-1.8 0 0-.48.5l.01 19.71a.52.51 90 0 0 .51.52h3.18a.53.52-89.4 0 0 .52-.52l.04-7.12a.38.37-84.9 0 1 .44-.37M920.24 498.732a.52.52 0 0 0-.526-.513l-2.96.042a.52.52 0 0 0-.513.527l.038 2.72a.52.52 0 0 0 .527.513l2.96-.042a.52.52 0 0 0 .513-.527l-.038-2.72M934.26 517.81l-.01.56a.62.62 0 0 0 .62.63h2.63a.5.5 0 0 0 .5-.5v-19.62a.63.63 0 0 0-.63-.63h-2.77a.64.64 0 0 0-.64.65l.13 6.12q.01.44-.36.21c-14.11-8.6-12.81 21.81.1 12.35q.44-.32.43.23M873.2 507.75c.13 3.99-1.78 14.33 6.55 11.14a.71.71 0 0 0 .45-.75l-.27-1.96a.48.47-15.9 0 0-.67-.37c-3.18 1.47-2-6.62-1.99-8.04a.53.52-89.4 0 1 .52-.52h1.59a.63.63 0 0 0 .63-.64l-.04-1.86a.78.77 88.9 0 0-.78-.76l-1.44.01a.5.5 0 0 1-.5-.5v-4.01q0-.7-.6-.35l-2.96 1.72a.89.89 0 0 0-.45.85l.13 1.71a.51.51 0 0 1-.47.55l-.93.09a.57.57 0 0 0-.52.59l.07 2.11a.5.5 0 0 0 .49.49h.68a.51.51 0 0 1 .51.5M760.78 505.41q.6-.42.29-.71a1.14.06 43.6 0 0-.82-.7H758a.5.5 0 0 0-.5.5v13.87a.63.63 0 0 0 .63.63h2.69a.57.57 0 0 0 .57-.6c-.17-3.28-.95-12.82 3.97-10.81a.58.58 0 0 0 .78-.37l.69-2.28a.64.64 0 0 0-.33-.77q-1.92-.91-3.75.06a1.15 1.12 85.3 0 0-.58.7q-.24.83-1.18 1-1.28.23-.21-.52M772.21 512.79l8.58-.15a.62.61 1.5 0 0 .61-.57q.48-5.71-4.07-7.7c-9.96-4.35-13.59 13.03-4.15 14.71q5.53.98 7.96-3.46a.47.47 0 0 0-.18-.63q-2.86-1.65-4.53.75a1.22 1.2-73.1 0 1-.95.52q-3.12.14-3.66-3a.4.4 0 0 1 .39-.47M793.25 517.96q1.59 1.67 3.99.95a.46.46 0 0 0 .28-.66c-2.37-4.56 2.71-12.12-4.28-14.15q-5.12-1.49-8.67 2.41a.94.94 0 0 0 .53 1.56l2.05.37a.79.79 0 0 0 .79-.33c1.45-2.13 5.92-1.58 5 .87a.91.89 3.9 0 1-.67.57q-4.64.93-5.77 1.46c-6.16 2.87-.81 11.03 5.12 7.5q.56-.33 1.16-.64a.4.4 0 0 1 .47.09M809.09 514.19c1.49 2.19-3.6 3.56-5.49.53a.84.84 0 0 0-.78-.4l-2.38.18a1.05 1.04-25.1 0 0-.65 1.79c8.94 8.68 19.1-3.44 10.15-6.02q-2.88-.83-5.82-1.67a.77.77 0 0 1-.18-1.41q2.95-1.73 5.21.74a.87.86-26.5 0 0 .82.27l2.3-.48a.48.47 77.1 0 0 .36-.58c-1.27-5.06-14.86-5.05-12.17 3.14a1.57 1.54-82.8 0 0 .63.83q3.24 2.11 7.13 2.55a1.24 1.22-13 0 1 .87.53M847.5 505.28v-.66a.63.62 0 0 0-.63-.62h-2.37a.5.49-90 0 0-.49.5l-.02 13.96a.54.54 0 0 0 .54.54h2.79a.57.57 0 0 0 .57-.62c-.22-3.06-1-12.93 4.1-10.81a.47.47 0 0 0 .63-.3l.7-2.27a.73.72 19.5 0 0-.43-.89q-3.11-1.23-4.72 1.37-.67 1.07-.67-.2M869.86 511.53a7.78 7.78 0 0 0-7.78-7.78 7.78 7.78 0 0 0-7.78 7.78 7.78 7.78 0 0 0 7.78 7.78 7.78 7.78 0 0 0 7.78-7.78M886.05 512.75h8.46a.61.6-86.2 0 0 .6-.53c1.26-9.21-10.99-12.01-13.31-3.14-2.48 9.45 8.84 14.42 13.13 6.45a.46.46 0 0 0-.31-.66l-2.76-.58a.74.74 0 0 0-.83.43c-1.31 3.03-5.17 1.37-5.44-1.45a.47.46 87.2 0 1 .46-.52M908.31 517.56c.85 3.96-3.5 6.31-5.54 3.39a1.17 1.16-13.5 0 0-.79-.48l-2.97-.41a.59.58 3.5 0 0-.66.58c0 4.25 5.57 4.77 8.83 4.25 4.34-.69 5-3.53 5.04-7.62q.07-6.34.03-12.7a.62.61 87.4 0 0-.66-.61l-2.79.2q-1.23.08-.24.78.21.15.24.43.05.66-.47.26c-10.23-7.78-14.8 10.68-5.88 13.1q2.8.76 5.36-1.34a.31.31 0 0 1 .5.17M950.34 518q1.39 1.62 3.72.9a.62.61 76.2 0 0 .42-.7c-.64-3.43.25-9.29-1.1-11.91-2.08-4.07-10.2-3.35-11.98.99a.56.55 16.5 0 0 .41.75l2.53.5a.63.63 0 0 0 .71-.39c.84-2.12 4.22-1.9 5.05.34a.76.75 75 0 1-.58 1.01c-2.53.45-6.79 1.13-8.13 3.36-3.31 5.51 4.56 7.76 8.52 5.09a.33.33 0 0 1 .43.06M969.68 506.92c-6.54-9.44-22.46 3.73-4.4 6.8a1.29 1.23 75 0 1 .8.49c1.46 1.94-3.45 3.63-5.4.6a.87.87 0 0 0-.8-.4l-3.11.24a.52.52 0 0 0-.38.83c7.55 10.11 19.73-2.04 11.08-4.89q-3.06-1.02-6.23-1.92a.87.87 0 0 1-.13-1.63q2.97-1.38 5.07.89a.88.88 0 0 0 .86.27l2.36-.55a.47.47 0 0 0 .28-.73M920.25 504.53a.52.52 0 0 0-.52-.52h-2.96a.52.52 0 0 0-.52.52v13.96a.52.52 0 0 0 .52.52h2.96a.52.52 0 0 0 .52-.52v-13.96" vector-effect="non-scaling-stroke"/><path stroke="#a0a0a0" d="M799.42 759.77c2.8.4 5.96-3.77 7.82-6.15 5.11-6.54 10.53-11.87 17.38-16.6 3.28-2.27 6.19-5.01 7.37-8.31q3.99-11.17 7.82-22.39c1.22-3.56 2.97-9.52-3.04-9.6a1.31 1.3-64.7 0 0-.88.32q-20.1 17.69-34.86 40.04c-2.91 4.39-11.55 21.26-1.61 22.69M856.46 737.34q19.28 1.15 39.09.85c3.23-.05 5.37.28 7.55-2.57 3.69-4.83 7.23-17.9-3.91-16.56q-23.29 2.79-43.24 16.43a1.01 1.01 0 0 0 .51 1.85" vector-effect="non-scaling-stroke"/><path stroke="#b0f280" d="M399.04 801.5q-6.73-1.78-10.56 3.52" vector-effect="non-scaling-stroke"/><path stroke="#a0a0a0" d="M388.48 805.02q-1.98 1.41-3.98 1.27" vector-effect="non-scaling-stroke"/><path stroke="#e18080" d="M384.5 806.29c-7.68-3.09-9.25.27-9.54 7.21" vector-effect="non-scaling-stroke"/><path stroke="#a0a0a0" d="M374.96 813.5c-5.12 7.8-4.72 16.58.96 23.81 3.69 4.68 18.1 6.82 23.33 7.25 7.17.6 16.64-1.02 24.96-1.06a1.11 1.11 0 0 1 .85.37q.77.85.92 1.75a1.07 1.06 74.3 0 1-.64 1.15q-13.56 5.69-19.61 18.13c-2.61 5.39-2.99 12.82-3.97 19.06a.85.85 0 0 1-.55.66q-1.91.69-3.96.62-12.81-.41-25.08-4.02c-1.9-.55-4.56-.74-6.41.11q-22.11 10.11-29.03 13.4c-5.9 2.82-12 10.24-10.23 17.06 1.16 4.48 6.91 9.49 11.91 6.89 2.65-1.38 8.16-3.85 10.97-2.18" vector-effect="non-scaling-stroke"/><path stroke="#b0f280" d="M349.38 916.5q3.24 2.62 8.06 4.39" vector-effect="non-scaling-stroke"/><path stroke="#a0a0a0" d="m357.44 920.89 1.79.94a1.58 1.58 0 0 1 .67.67c5.58 10.56 9.43 21.16 22.9 19.01 6.74-1.08 10.56-13.29 11.99-19.51a.32.32 0 0 1 .6-.05q4.47 10.82 9.67 21.21c2.56 5.11 10.61 16.76 16.01 18.26 4.84 1.35 11.51-7.18 13.54-11.33q1.35-2.77 4.1-9.76" vector-effect="non-scaling-stroke"/><path stroke="#b0f280" d="M438.71 940.33q3.96 5.52 10 8.42" vector-effect="non-scaling-stroke"/><path stroke="#a0a0a0" d="M448.71 948.75c6.6 5.21 14.01 13.41 22.9 11.85 8.51-1.49 11.27-8.81 7.43-16.43q-5.93-11.75-11.84-21.31c-13.37-21.62-15.08-47.2-11.71-71.94.81-5.97-1.09-10.84.17-17.03q3.56-17.44 6.73-34.96c.54-2.99.69-4.57-2.55-5.79q-15.34-5.79-30.17-12.76c-3.26-1.53-13.84-6.31-16.34-2.58-6.5 9.69 1.96 19.9-14.29 23.7" vector-effect="non-scaling-stroke"/><path stroke="#509320" d="M448.71 948.75q7.38-7.1 3.62-15.82c-1.84-4.28-9.78-3.08-11.84.35q-1.56 2.6-1.78 7.05M357.44 920.89q3.68-2.55 5-6.74c3.65-11.56-14.09-13.25-14.24-2.97q-.03 2.68 1.18 5.32" vector-effect="non-scaling-stroke"/><path stroke="#812021" d="M374.96 813.5c2.17 8.88 15.41 2.64 9.54-7.21" vector-effect="non-scaling-stroke"/><path stroke="#509320" d="M388.48 805.02q-.99 6.11 3.9 8.96c6.06 3.54 13.21-6.66 6.66-12.48" vector-effect="non-scaling-stroke"/><path stroke="#a0a0a0" d="M318.04 802.8c3.57 11.52 27 6.67 24.73-5.59-2.66-14.33-29.95-11.24-24.73 5.59M350 810.04c-8.77 3.22-5.73 11.54-12.53 15.78a1 .98-49.2 0 1-.89.07q-11.49-4.82-14.36-6.33c-4.91-2.57-7.31-1.26-9.72 3.49q-5.52 10.91-11.28 21.69c-7.26 13.62-11.6 26.66-2.86 40.88 3.13 5.09 15.11 12.2 21.23 10.27 9.57-3.02 6.14-15.43 6.34-22.7a.97.96-16.5 0 1 .43-.78c4.46-3.08 10.38-2.89 15.09-5.69 15.7-9.32 26.84-27.01 21.83-45.73q-.16-.58-1.32-1.74" vector-effect="non-scaling-stroke"/><path stroke="#e18080" d="M361.96 819.25c5.39-8.87-4.85-14.56-11.96-9.21" vector-effect="non-scaling-stroke"/><path stroke="#812021" d="m361.96 819.25-4.42 2.12a1.32 1.31 40.6 0 1-.95.07c-5.68-1.73-6.22-6.25-6.59-11.4" vector-effect="non-scaling-stroke"/><path stroke="#a0a0a0" d="M490.88 933.13q9.74 9.24 19.55 18.46c7.29 6.84 12.4-8.98 19.58-8.12q17.87 2.13 26.54-12.17c1.88-3.11 3.56-4.05 6.95-4.55 12.53-1.83 24.51-1.73 36.49-4 4.4-.84 4.48-7.53 1.09-9.37-11.45-6.19-30.64-6.45-44.85-6.48q-11.93-.02-17.25-1.05c-20.31-3.94-36.6-16.78-42.13-37.38q-2.63-9.84-2.58-12.48c.06-2.65-.43-14.61-3.05-15.75q-6.97-3.04-17.13-3.67a.6.6 0 0 0-.62.45c-2.93 12.18-3.59 24.82-4.93 37.23-2.43 22.47 6.02 43.39 22.34 58.88M384.426 872.749a11.82 9.86 78.9 0 0 7.4-13.497 11.82 9.86 78.9 0 0-11.952-9.7 11.82 9.86 78.9 0 0-7.4 13.496 11.82 9.86 78.9 0 0 11.952 9.7" vector-effect="non-scaling-stroke"/><path stroke="#509320" d="m263.56 0-1.02.35a.81.81 0 0 0-.52.62c-1.91 10.66-13.31 7.63-15.77-.43" vector-effect="non-scaling-stroke"/><path stroke="#a0a0a0" d="M315.56 0q14.13.63 28.25 0" vector-effect="non-scaling-stroke"/><path stroke="#812021" d="M306.82 791.17q-7.42-.23-8.67 5.64-.47 2.21.87 4.1c5.02 7.09 9.41 3.78 12.44-2.16M272 808.46c13.27 5.25 10.62-16.44 2.68-12.11q-3.09 1.68-5.64 4.15" vector-effect="non-scaling-stroke"/><path stroke="#509320" d="M269.04 800.5c1.2-11.21-12.83-13.92-13.53-4.27q-.23 3.16-.51 4.31" vector-effect="non-scaling-stroke"/><path stroke="#812021" d="M247.75 770.79q4.22-.97 7.63-2.89" vector-effect="non-scaling-stroke"/><path stroke="#509320" d="M255.38 767.9q2.56 5.08 7.06 1.53 5.31-4.19 2.88-11.25a1.49 1.49 0 0 0-.57-.75l-3.75-2.64" vector-effect="non-scaling-stroke"/><path stroke="#812021" d="M243.54 715.25c.67-5.6-1.74-8.97-7.68-8.23a2.15 2.15 0 0 0-1.87 1.89q-.57 5.01 2.07 9.02M213 715.21l.28-.66a.86.85-54.7 0 0-.15-.9q-3.61-4.01-6.04-8.82a.81.81 0 0 0-.82-.43l-1.02.14M241.25 590.79q4.04-.43 5.29-4.04" vector-effect="non-scaling-stroke"/><path stroke="#509320" d="M246.54 586.75c1.01 2.89 3.91 6.65 7.47 5.82a1.46 1.45-78 0 0 .84-.55q3.52-4.77.89-10.31a1.72 1.67-89.2 0 0-.72-.76q-4.18-2.31-7.98.8" vector-effect="non-scaling-stroke"/><path stroke="#812021" d="m247.04 581.75-4.39-7.2" vector-effect="non-scaling-stroke"/><path stroke="#509320" d="M242.65 574.55c6.41-10.43-16.95-14.91-7.53 1.65a.6.59 73.7 0 0 .53.3h.31" vector-effect="non-scaling-stroke"/><path stroke="#812021" d="M235.96 576.5c-2.06 3.15-3.12 7.38-.61 10.67 1.28 1.67 2.56 3.78 4.15 3.62M195.84 586.22q9.11-4.78 15.07-13.14M247.75 526.71q-1.47 2.72-3 5.47c-3.62 6.51 5.33 12.33 9.21 7.01q2.93-4.01-.43-7.35a.63.62 38.7 0 1-.09-.79q.24-.37.56-.59" vector-effect="non-scaling-stroke"/><path stroke="#509320" d="M278.54 342.5c2.55 2.31 3.9 5.14 7.78 5.63 6.34.81 9.44-7.45 5.28-11.7q-4.75-4.86-11.76-.79M336.095 45.827a7.69 6.18 91.6 0 0 6.393-7.514 7.69 6.18 91.6 0 0-5.963-7.86 7.69 6.18 91.6 0 0-6.393 7.514 7.69 6.18 91.6 0 0 5.963 7.86M329.635 75.897a6.99 6.46 71.7 0 0 3.938-8.665 6.99 6.46 71.7 0 0-8.328-4.608 6.99 6.46 71.7 0 0-3.938 8.664 6.99 6.46 71.7 0 0 8.328 4.609M316.78 105.486a7.69 6.27 83.2 0 0 5.316-8.378 7.69 6.27 83.2 0 0-7.137-6.894 7.69 6.27 83.2 0 0-5.315 8.378 7.69 6.27 83.2 0 0 7.137 6.894M275.344 97.912a6.94 6.59 7.3 0 0-6.047-7.419 6.94 6.59 7.3 0 0-7.72 5.655 6.94 6.59 7.3 0 0 6.046 7.419 6.94 6.59 7.3 0 0 7.72-5.655M291.75 121.02c-3.63-3.91-11.74 2.69-10.13 7.3 3.78 10.87 16.68-.24 10.13-7.3M270.065 139.501a6.55 5.78 39.9 0 0-1.317-8.635 6.55 5.78 39.9 0 0-8.733.232 6.55 5.78 39.9 0 0 1.317 8.636 6.55 5.78 39.9 0 0 8.733-.233M300.44 216.69q-3.2 5.14.45 10.79 2.6 4 6.31.96c9.56-7.82-2.05-19.32-6.76-11.75M316.393 276.027a7.21 6.21 109 0 0 8.219-4.795 7.21 6.21 109 0 0-3.525-8.84 7.21 6.21 109 0 0-8.219 4.796 7.21 6.21 109 0 0 3.525 8.84M285.4 276.19c2.8 4.05 7.34 2.61 9.63-.68 2.7-3.88-.01-12.71-6-11.03-3.71 1.05-5.63 8.84-3.63 11.71M325.036 302.805a6.52 5.78 39.7 0 0-1.324-8.612 6.52 5.78 39.7 0 0-8.709.282 6.52 5.78 39.7 0 0 1.325 8.612 6.52 5.78 39.7 0 0 8.709-.282M291.73 319.292a6.81 6.26 87.3 0 0 5.933-7.097 6.81 6.26 87.3 0 0-6.574-6.507 6.81 6.26 87.3 0 0-5.932 7.097 6.81 6.26 87.3 0 0 6.574 6.507M306.802 355.43a6.63 5.42 72.7 0 0 3.203-7.942 6.63 5.42 72.7 0 0-7.147-4.718 6.63 5.42 72.7 0 0-3.203 7.942 6.63 5.42 72.7 0 0 7.147 4.718" vector-effect="non-scaling-stroke"/><path stroke="#812021" d="M293.912 365.803a6.91 5.77 82 0 0 4.752-7.646 6.91 5.77 82 0 0-6.676-6.04 6.91 5.77 82 0 0-4.752 7.646 6.91 5.77 82 0 0 6.676 6.04" vector-effect="non-scaling-stroke"/><path stroke="#509320" d="M329.556 373.481a6.99 5.84 92.9 0 0 6.187-6.685 6.99 5.84 92.9 0 0-5.48-7.277 6.99 5.84 92.9 0 0-6.185 6.685 6.99 5.84 92.9 0 0 5.478 7.277" vector-effect="non-scaling-stroke"/><path stroke="#812021" d="M216.738 422.913a7.07 5.84 82.7 0 0 4.895-7.755 7.07 5.84 82.7 0 0-6.691-6.27 7.07 5.84 82.7 0 0-4.895 7.754 7.07 5.84 82.7 0 0 6.691 6.27" vector-effect="non-scaling-stroke"/><path stroke="#509320" d="M321.173 438.152a7.29 6.38 58 0 0 1.548-9.563 7.29 6.38 58 0 0-9.274-2.801 7.29 6.38 58 0 0-1.548 9.563 7.29 6.38 58 0 0 9.274 2.801" vector-effect="non-scaling-stroke"/><path stroke="#812021" d="M281.21 450.25c-3.25-.36-7.14-.21-8.88 3-4.07 7.46 9.91 17.27 13.67 3.04" vector-effect="non-scaling-stroke"/><path stroke="#509320" d="M286 456.29c6.2 2.7 9.87-2.48 8.17-8.23-2.62-8.86-10.59-2.36-12.96 2.19" vector-effect="non-scaling-stroke"/><path stroke="#917301" d="M286 456.29q-1.98-3.37-4.79-6.04" vector-effect="non-scaling-stroke"/><path stroke="#509320" d="M316.279 465.775a4.89 4.89 0 0 0-5.306-4.436l-.836.074a4.89 4.89 0 0 0-4.436 5.306l.3 3.366a4.89 4.89 0 0 0 5.306 4.436l.836-.074a4.89 4.89 0 0 0 4.436-5.306l-.3-3.366M283.414 489.985a6.55 5.53 82.6 0 0 4.64-7.207 6.55 5.53 82.6 0 0-6.328-5.783 6.55 5.53 82.6 0 0-4.64 7.207 6.55 5.53 82.6 0 0 6.328 5.783" vector-effect="non-scaling-stroke"/><path stroke="#812021" d="M290.806 517.014a6.21 5.01 75.2 0 0 3.258-7.284 6.21 5.01 75.2 0 0-6.43-4.724 6.21 5.01 75.2 0 0-3.258 7.284 6.21 5.01 75.2 0 0 6.43 4.724M265.84 511.313a5.07 5.07 0 0 0-7.164-.3l-.619.568a5.07 5.07 0 0 0-.3 7.164l1.124 1.222a5.07 5.07 0 0 0 7.163.3l.619-.568a5.07 5.07 0 0 0 .3-7.164l-1.124-1.222" vector-effect="non-scaling-stroke"/><path stroke="#509320" d="M296.886 537.573a6.62 6.11 22.5 0 0-3.778-8.178 6.62 6.11 22.5 0 0-8.454 3.112 6.62 6.11 22.5 0 0 3.778 8.178 6.62 6.11 22.5 0 0 8.454-3.112" vector-effect="non-scaling-stroke"/><path stroke="#812021" d="M285.727 556.247a5.94 4.91 73.9 0 0 3.07-7.069 5.94 4.91 73.9 0 0-6.364-4.345 5.94 4.91 73.9 0 0-3.07 7.069 5.94 4.91 73.9 0 0 6.364 4.345M271.406 568.734a7.21 5.78 83.5 0 0 4.927-7.818 7.21 5.78 83.5 0 0-6.56-6.51 7.21 5.78 83.5 0 0-4.926 7.818 7.21 5.78 83.5 0 0 6.56 6.51M264.75 586.21c-4.33 3.48-7.07 6.54-5.54 12.04" vector-effect="non-scaling-stroke"/><path stroke="#509320" d="M259.21 598.25q-6.15.12-6.28 6.29a1.51 1.47 28.1 0 0 .29.91c4.22 5.94 11.04 5.25 13.33-2.03" vector-effect="non-scaling-stroke"/><path stroke="#812021" d="M266.55 603.42q5.35-3.3 6.99-9.42" vector-effect="non-scaling-stroke"/><path stroke="#509320" d="M273.54 594q3.48-2.79 5.14-7.06a1.65 1.6 50.1 0 0 .07-.95c-2.06-8.76-13.38-12.46-14 .22" vector-effect="non-scaling-stroke"/><path stroke="#917301" d="M273.54 594q-3.38-5.02-8.79-7.79M266.55 603.42l-7.34-5.17" vector-effect="non-scaling-stroke"/><path stroke="#509320" d="M249.344 628.76a7.7 6.14 85.8 0 0 5.56-8.13 7.7 6.14 85.8 0 0-6.688-7.23 7.7 6.14 85.8 0 0-5.56 8.13 7.7 6.14 85.8 0 0 6.688 7.23" vector-effect="non-scaling-stroke"/><path stroke="#812021" d="M242.726 656.204a6.29 5.2 75.3 0 0 3.434-7.403 6.29 5.2 75.3 0 0-6.626-4.765 6.29 5.2 75.3 0 0-3.434 7.404 6.29 5.2 75.3 0 0 6.626 4.764M262.15 672.236a6.17 5.4 93.9 0 0 5.808-5.789 6.17 5.4 93.9 0 0-4.968-6.523 6.17 5.4 93.9 0 0-5.808 5.789 6.17 5.4 93.9 0 0 4.968 6.523M250.311 679.55a5.39 4.51 82.2 0 0 3.737-5.952 5.39 4.51 82.2 0 0-5.2-4.728 5.39 4.51 82.2 0 0-3.736 5.952 5.39 4.51 82.2 0 0 5.2 4.728M287.14 684.129a6.39 5.93 28.6 0 0-2.771-8.265 6.39 5.93 28.6 0 0-8.45 2.147 6.39 5.93 28.6 0 0 2.772 8.265 6.39 5.93 28.6 0 0 8.45-2.147M227.106 688.732a5.57 4.57 98.3 0 0 5.326-4.852 5.57 4.57 98.3 0 0-3.718-6.172 5.57 4.57 98.3 0 0-5.326 4.852 5.57 4.57 98.3 0 0 3.718 6.172M272.836 703.013a6.28 5.46 70.6 0 0 3.064-7.737 6.28 5.46 70.6 0 0-7.236-4.11 6.28 5.46 70.6 0 0-3.064 7.738 6.28 5.46 70.6 0 0 7.236 4.11M266.477 722.984a5.6 4.82 49.9 0 0 .08-7.389 5.6 4.82 49.9 0 0-7.294-1.179 5.6 4.82 49.9 0 0-.08 7.389 5.6 4.82 49.9 0 0 7.294 1.179" vector-effect="non-scaling-stroke"/><path stroke="#509320" d="M310.61 737.4c-3.33 7.87 9.83 13.63 12.71 4.39 3.46-11.13-9.38-12.25-12.71-4.39M392.164 761.538a7.55 7.02-44.4 0 0-10.306.266 7.55 7.02-44.4 0 0-.482 10.298 7.55 7.02-44.4 0 0 10.306-.266 7.55 7.02-44.4 0 0 .482-10.298M362.15 765.61q-8.19 3.8-4.55 11.07 1.13 2.24 3.51 3.26 8.52 3.64 9.52-6.56" vector-effect="non-scaling-stroke"/><path stroke="#812021" d="M370.63 773.38c2.33-2.37 5.4-5.81 4.3-9.33-1.93-6.19-11.39-6.04-12.78 1.56" vector-effect="non-scaling-stroke"/><path stroke="#917301" d="M370.63 773.38q-7.31-.61-8.48-7.77" vector-effect="non-scaling-stroke"/><path stroke="#812021" d="M304.306 773.895a7.08 5.64 80.6 0 0 4.408-7.906 7.08 5.64 80.6 0 0-6.72-6.064 7.08 5.64 80.6 0 0-4.408 7.906 7.08 5.64 80.6 0 0 6.72 6.064" vector-effect="non-scaling-stroke"/><path stroke="#509320" d="M330.555 772.717a5.87 5.87 0 0 0-3.11-7.697l-1.547-.656a5.87 5.87 0 0 0-7.697 3.11l-.836 1.97a5.87 5.87 0 0 0 3.11 7.696l1.547.657a5.87 5.87 0 0 0 7.697-3.11l.836-1.97" vector-effect="non-scaling-stroke"/><path stroke="#812021" d="M333.94 782.06c5 3.99 10.85-4.09 8.62-8.91-1.6-3.45-6.17-5.68-9.76-3.28a1.23 1.21-11.3 0 0-.52.77c-1 5.09-3.46 7.35 1.66 11.42M349.72 793.366a6.28 5.53 82.5 0 0 4.663-6.948 6.28 5.53 82.5 0 0-6.303-5.504 6.28 5.53 82.5 0 0-4.663 6.948 6.28 5.53 82.5 0 0 6.303 5.504" vector-effect="non-scaling-stroke"/><path stroke="#509320" d="M245.49 209.65c8.24 5.62 17.8-8.7 4.4-12.79-6.28-1.92-9.35 9.41-4.4 12.79" vector-effect="non-scaling-stroke"/><path stroke="gray" d="M937.794 425.248a4.8 3.3 88.4 0 0 3.165-4.89 4.8 3.3 88.4 0 0-3.433-4.706 4.8 3.3 88.4 0 0-3.165 4.89 4.8 3.3 88.4 0 0 3.433 4.706M970.713 425.26a4.79 3.33 90.8 0 0 3.397-4.743 4.79 3.33 90.8 0 0-3.263-4.837 4.79 3.33 90.8 0 0-3.397 4.743 4.79 3.33 90.8 0 0 3.263 4.837M720.02 425.26c2.6.87 4.4-1.27 3.99-3.74a.55.55 0 0 0-.6-.46c-1.42.15-4.76.69-4.63 2.58a1.85 1.84 7.7 0 0 1.24 1.62M772.408 425.13a4.58 3.67 89.4 0 0 3.622-4.618 4.58 3.67 89.4 0 0-3.718-4.542 4.58 3.67 89.4 0 0-3.622 4.618 4.58 3.67 89.4 0 0 3.718 4.542M809.5 418.7c.16-3.42-3.37-3.56-5.51-1.23a1.03 1.03 0 0 0 .75 1.73l4.2.03a.56.55-87.8 0 0 .56-.53M831.32 422.61c-1.75 3.63 5.98 4.29 4.92-1.22a.49.49 0 0 0-.61-.38l-3.53.96a1.2 1.19 5.4 0 0-.78.64M871.32 422.61c-1.75 3.63 5.98 4.29 4.92-1.22a.49.49 0 0 0-.61-.38l-3.53.96a1.2 1.19 5.4 0 0-.78.64M891.07 425.348a4.75 3.31 91.7 0 0 3.448-4.65 4.75 3.31 91.7 0 0-3.167-4.846 4.75 3.31 91.7 0 0-3.45 4.65 4.75 3.31 91.7 0 0 3.168 4.846M919.932 425.12a4.58 3.67 89.1 0 0 3.597-4.638 4.58 3.67 89.1 0 0-3.74-4.521 4.58 3.67 89.1 0 0-3.598 4.637 4.58 3.67 89.1 0 0 3.74 4.521M951.42 422.84c-1.06 3.64 6.03 3.76 5.07-1.45a.51.51 0 0 0-.65-.4l-3.69 1.11a1.11 1.09-89.8 0 0-.73.74M985.56 424.99c2.62 1.54 4.91-.81 4.45-3.47a.55.55 0 0 0-.6-.46c-1.5.16-4.77.65-4.62 2.68a1.59 1.57-76.9 0 0 .77 1.25M742.42 510.32a.33.33 0 0 0 .32.44l4.5-.03a.33.33 0 0 0 .31-.44l-2.3-6.26a.33.33 0 0 0-.62 0l-2.21 6.29M834.3 502.24q-2.36-.69-4.76-.35a.63.63 0 0 0-.54.62v4.61a.55.54 2.9 0 0 .49.54q2.54.3 5.04-.31c2.53-.62 2.31-4.36-.23-5.11M930.688 516.24a4.78 3.33 91.1 0 0 3.421-4.716 4.78 3.33 91.1 0 0-3.237-4.843 4.78 3.33 91.1 0 0-3.421 4.715 4.78 3.33 91.1 0 0 3.237 4.843M777.5 509.75c.21-3.86-5.71-3.89-5.5-.01a.54.53 88.3 0 0 .53.51h4.43a.54.53 1.7 0 0 .54-.5M787.92 513.84c-1.09 3.74 6.03 3.56 5.07-1.46a.51.5-13.4 0 0-.64-.39l-3.7 1.11a1.11 1.09-89.8 0 0-.73.74M862.19 516.13a4.58 3.67 89 0 0 3.59-4.644 4.58 3.67 89 0 0-3.75-4.515 4.58 3.67 89 0 0-3.59 4.643 4.58 3.67 89 0 0 3.75 4.515M891.35 509.62c-.27-3.68-5.22-3.91-5.76.11a.46.45-86.1 0 0 .45.52h4.72a.59.59 0 0 0 .59-.63M905.042 515.78a4.56 3.31 90.1 0 0 3.318-4.554 4.56 3.31 90.1 0 0-3.302-4.566 4.56 3.31 90.1 0 0-3.318 4.554 4.56 3.31 90.1 0 0 3.302 4.566M945.07 513.62c-1.79 3.69 6.03 4.17 4.92-1.23a.5.5 0 0 0-.62-.38l-3.52.96a1.2 1.19-84.4 0 0-.78.65" vector-effect="non-scaling-stroke"/><path stroke="#917301" d="M242.65 574.55q-4-.36-6.69 1.95M247.04 581.75l-.5 5M255.38 767.9q2.55-6.36-2.13-10.61" vector-effect="non-scaling-stroke"/><path stroke="#812021" d="M455.36 929.54c9.28 1.01 8.35-10.31 3.32-14.5a1.29 1.23 61.5 0 0-.9-.29c-9.41.63-12.82 13.65-2.42 14.79" vector-effect="non-scaling-stroke"/><path stroke="#509320" d="M341.4 798.79a6.91 6.91 0 0 0-6.91-6.91 6.91 6.91 0 0 0-6.91 6.91 6.91 6.91 0 0 0 6.91 6.91 6.91 6.91 0 0 0 6.91-6.91" vector-effect="non-scaling-stroke"/><path stroke="#917301" d="M269.04 800.5q-1.62 3.03-4.5 5" vector-effect="non-scaling-stroke"/><path stroke="#509320" d="M349.41 838.048a7.12 6.49 93.3 0 0 6.89-6.734 7.12 6.49 93.3 0 0-6.07-7.482 7.12 6.49 93.3 0 0-6.89 6.734 7.12 6.49 93.3 0 0 6.07 7.482M324.24 838.76c-4.86 4.76 2.6 14.01 8.32 11.31 9.61-4.54 3.17-22.54-8.32-11.31" vector-effect="non-scaling-stroke"/></g><path fill="#fff" d="M0 0h249.56l-3.31.54-2.03.3a.62.62 0 0 0-.53.61c-.08 8.61.14 18.52 5.12 24.5q4.83 5.8 12.58 12.06 5.43 4.39 7.24 7.07c3.21 4.75 6.21 14.12 2.95 19.63q-2.41 4.07-3.85 5.52c-10.56 10.69-23.56 26.42-27.11 40.85-3.03 12.28 1.93 27.97 13.31 34.75 8.63 5.14 18.02 9.26 24.57 17.17q9.27 11.17 14.87 24.51c2.86 6.8 2.41 11.55-.3 18.07-6.47 15.54-11.38 32.66-12.26 49.67-.92 17.68-1.81 35.41-.67 53.09q.87 13.52-.3 27.3-1.66 3.04-1.3 6.86c-1.11 17.67-10.48 31.99-16.08 48.06-2.21 6.35-5.68 15.26-5.5 21.96q.02.5-.29.11-14.46-17.91-18.78-22.28c-9.23-9.34-15.46-10.49-25.32-.79q-13.14 12.92-21.32 27.8c-5.9 10.73-8.6 19.91 2.42 27.91 7.57 5.51 14.5 9.71 23.47 11.48q8.23 1.63 15.73 5a1.48 1.46-78.6 0 1 .86 1.31c.07 4.49 1.7 14.63-3.48 16.68-6.26 2.49-11.14 5.66-12.51 12.37-1.99 9.66 6.35 19.13 15.3 21.59q7.7 2.12 20.46 2.74a1.7 1.69 63.6 0 1 .91.31c9.12 6.56 7.27 11.34 7.65 20.97q.13 3.38-1.69.53-2.81-4.39-6.37-7.79-2.51-2.86-6.25-3.75-9.73-5.05-20.67-4.34c-5.41.34-11.49 1.36-16.79.24-7.01-1.48-15.96-.39-21.05 5.25-9.12 10.08-.99 37.83 16.03 32.73 7.45-2.23 13.75-5.36 22.21-5.35a1.26 1.23-22.4 0 1 .87.35q2.6 2.61 2.33 6.19a1.37 1.36-8.5 0 1-.88 1.18q-10.25 3.87-18.89 10.12-8.87 5.01-15.07 13.14c-6.2 5.24-15.64 18.63-11.8 27.24 4.4 9.86 21.9 25.14 32.91 14.24 10.28-10.17 13.76-23.22 19.83-35.4q.65-1.32 2.72-1.51h1.75q3.14-.13 2.78 2.97-1.06 9.03-4.2 17.55-2.07 5.61-7.63 23.75c-1.45 4.72-5.06 9.86-8.02 13.96q-11.05 15.28-16.66 26.52c-4.8 9.61-7.01 19.1-2.27 29q2.44 6.37 7.75 10.67c7.45 4.99 14.9 7.1 23.06 2.72q4.21-.09 7.48-2.68 5.55-3.79 11.47-6.24a1.62 1.62 0 0 1 2.24 1.51q-.03 7.73-4.12 13.84-3.38 5.04-3.39 5.06c-3.37 7.05-.8 18.34 7.65 20.26 6.5 1.48 20.9-5.18 27.11-7.92q5.51-2.42 8.65 1.35a1.78 1.78 0 0 1-.39 2.63q-14.68 9.68-31.76 9.05-4.31-.1-7.75 2.5c-4.84-.1-10.18.27-9.61 6.73.23 2.63 2.34 4.85 4.11 6.77.58 11.55-.73 20.8 7.25 29.75q2.37 6.58 9.54 4.96l2.62-.57a1.06 1.03-30.7 0 1 .87.21l3.97 3.32c-9.65 1.82-13.81 8.92-13.3 18.27.51 9.32 4.15 18.02 15.11 18.17 6.45.09 7.7-3.05 9.18-9 1.34-5.34 2.83-8.86 6.8-13.07 3.36-3.55 6.37-7.79 11.35-9.12 7.63-2.03 12.56-6.11 10.32-14.96q-.33-5.28-4.64-7.58-5.07-5.44-11.99-6.82c-3.82-.76-11.31-1.63-12.22-6.21a1.78 1.77-11.5 0 1 1.38-2.08c9.66-2.04 17.54-.71 26.9-.77 4.08-.03 10.34 3.06 15.37 4.66q9 2.86 16.54 10.52c2.52 2.55 4.66 6.82 6.76 9q6.68 6.94 16.52 5.45 5.26-.79 6.96-4.15c5.73-11.34 10.34-20.5 22.9-25.23 4.19-1.58 13.9-1.28 14.15-7.72.21-5.4-4.11-5.84-8.96-6.93-10.74-2.4-21.89-3.69-32.27-6.66-13.04-3.72-25.48-7.49-38.81-8.85a1.14 1.13 1.8 0 1-1.02-1.08q-.27-6.32-.98-12.56c-1.22-10.8-9.43-22.44-16.44-30.26-5.54-6.18-8.96-10.45-13.27-15.92-9.75-12.39-20.99-24.22-28.75-37.65q-1.45-2.51-4.09-5.61-5.29-6.2-7.84-14.13c-1.39-4.33 2.61-11.34 5.02-14.88 14.83-21.68 31.55-42.04 34.45-69.17.8-7.52 3.46-16 5.57-22.99q6.74-22.31 14.38-44.32c8.83-25.46 16.17-49.99 17.85-76.65.97-15.44 4.94-31.17 8.9-46.1 1.18-4.41 2.45-10 1.93-13.57-.65-4.45-5.46-10.16-7.18-13.23-2.54-4.55-6.32-10.25-6.79-15.51q-1.07-11.96-.08-24.75 1.14-14.67-3.13-28.9c-1.92-6.42-2.25-10.98-1.26-17.04 2.03-12.56 4.06-23.85 3.94-36.16-.11-10.89-.04-23.5-1.68-35.11q-.59-4.15-2.69-8.74c-5.49-12.05-12.42-26.74-8.93-41.32 4.08-17.06 11.61-32.82 20.08-48.8q7.33-13.83 12.32-28.67c4.52-13.45 4.5-27.45 5.61-41.23a.52.52 0 0 0-.46-.56l-4.2-.47h20.25l-2.6.53a.63.62 84.5 0 0-.5.62c-.02 14.62-.92 29.9-4.51 44.12-.36 1.46-1.48 3.4-2.45 4.55q-9.7 11.51-14.67 23.5-9.12 21.98-20.08 54.43-1.11 3.3.41 6.39 6.29 12.87 13.25 25.38c3.18 5.7 3.09 11.48 3.56 18.67 1.17 18.03-2.63 36.28-7.06 53.83-3.09 12.24 1.62 23.3 6.92 34.71q1.09 2.32 1.11 4.72c.13 11.79-1.67 23.77-2.56 35.55q-.38 5.09 1.88 8.47 9.03 13.45 13.65 25.87 2.2 5.91-1.14 10.67c-6.27 8.94-11.98 17.75-11.8 28.48.46 27.92-.87 54.73-9.37 82.68-5.25 17.25-13.37 31.73-19.53 46.6q-9.86 23.78-8.55 50.06c.26 5.09-5.66 10.77-8.73 14.48-5.02 6.08-7.56 13.34-10.56 20.49q-1.47 3.51-3.8 6.36c-6.14 7.52-13.09 14.7-18.33 22.69a1.83 1.81 42.5 0 0 .1 2.12c8.25 10.39 16.35 20.26 24.14 31.49q11.15 16.08 23.08 31.58c11.59 15.04 19.03 27.22 24.36 44.65.7 2.27 2.03 3.98 4.58 4.55q12.32 2.74 24.64 5.51c11.71 2.63 31.66 3.34 45.3 5.97 15.06 2.9 29.06 8.04 43.27 13.68a1.57 1.56 48.9 0 0 .96.07c5.27-1.28 2.14-8.7-.51-10.27q-8.14-4.82-13.64-12.22c-8.53-11.49-4.48-25.86-2.69-38.73 1.22-8.78.91-15.19-1.63-23.02-1.89-5.85-6.86-10.24-7.14-16.34q-.35-7.38 6.36-11.61 7.49-4.71 23.34-13.96c5.64-3.29 5.98-8.95 9.2-13.98q5.37-8.4 13.51-14.31c5.51-4 3.08-8.36 3.54-13.84q.82-9.84 8.55-15.68c5.31-4.01 11.02-2.67 14.61-9.7q8.82-17.24 11.53-21.77 18.94-31.68 48.65-58.14 5.2-4.63 6.23-6.57c9.71-18.27-26.64-25.82-37.13-26.62-2.19-.17-5.58-.94-6.95-2.07q-13.39-11-27.02-21.69c-7.17-5.63-4.92-18.5-4.38-26.43 1.11-16.53 3.09-28.16 15.1-39.69 7.12-6.83 15.14-8.54 22.22-13.81q1.99-1.48 7.71-7.74 11.43-12.52 27.11-19.1c5.71-2.39 13.56-3.91 18.83-5.55 3.36-1.05 4.57-3.9 4.74-7.44q1.24-25.96 3.19-51.88c.22-2.81.38-7 2.1-8.8q11.94-12.53 11.06-29.92c-.05-.91.38-2.24.57-3.06a1.48 1.48 0 0 1 1.63-1.14c19.08 2.48 37.65 19.96 52.91-3.54 3.69-5.7-.22-13.48-6.51-14.53-8.19-1.36-11.85 5.56-18.4 7.86-15.83 5.57-34.28-11.82-45.26-23.46-1.87-1.98-3.71-4.96-3.36-7.4q1.46-10.13 8.22-47.05c.31-1.71.79-7.7 1.94-9.01 5.93-6.73 17.02-8.25 24.93-4.48 5.63 2.68 9.18 9.25 14.95 11.38q19.05 7.04 38.32 13.48c5.68 1.89 10.22-1.15 14.51-5.16q13.56-12.67 22.08-29.2a.93.91 44.3 0 0-.02-.88c-2.73-4.8-6.46-9.72-8.2-14.37-1.94-5.2-3.73-13.18-1.76-18.56 2.89-7.91 11.29-12.91 10.42-22.5-1.1-12.21-17.35-20.66-11.33-33.86C713.51 6.46 723-.21 733.63 8.81q2.38 2.02 4.77 4.02c30.1 25.16 67.99 2.53 96.34-10.31 1.65-.75 3.47-.91 5.25-1.48q.55-.18-.02-.23L831.06 0H1080v1080H0V0Zm251.54 152.51c-12.36-3.77-17.1 8.26-18.78 17.99-2.64 15.3-6.55 29.77-7.25 46.03-.48 11.32 1.41 22.66 5.42 32.5 5.63 13.78 26.82 15.97 28.27-2.57 1.46-18.65-.11-37.35-.4-56.04-.11-7.46.71-16.08.88-24.65.12-6.16-1.84-11.33-8.14-13.26ZM217.03 367.5c2.29 4.58 6.43 8.74 11.97 6.96q8.39-.98 10.76-2.45 11.61-7.23 14.98-20.03 2.7-10.25-3.85-15.33c-8.58-6.65-22.13-3.17-29.43 4.3-6.19 6.35-10.03 18.25-4.43 26.55Zm423.563 82.37a26.86 25.07 90.1 0 0 25.117-26.816 26.86 25.07 90.1 0 0-25.023-26.904 26.86 25.07 90.1 0 0-25.117 26.816 26.86 25.07 90.1 0 0 25.023 26.904Zm60.297-36.14a1.38 1.38 0 0 1-.04-2.48q4.61-2.38 6.64 1.7a.86.86 0 0 0 .83.47l2.83-.22a.55.54 84.5 0 0 .5-.61c-.73-6.05-10.05-7.21-13.74-3.52-2.34 2.34-2.01 6.03.66 8.05 2.29 1.73 5.79 2.15 8.57 3.15a1.8 1.8 0 0 1 .66 2.97c-2.64 2.63-6.86 2.09-8-1.83a.63.61-10.6 0 0-.66-.44l-3.03.3a.48.48 0 0 0-.43.56c1.14 6.41 9.4 8.49 14 5.13 3.05-2.23 3.63-7.01.5-9.6-2.35-1.94-6.44-2.28-9.29-3.63Zm34.86-6.03a.44.44 0 0 0-.44-.44h-3.12a.44.44 0 0 0-.44.44v19.88a.44.44 0 0 0 .44.44h3.12a.44.44 0 0 0 .44-.44V407.7Zm198.66 18.58c.86.56 1.58 1.46 2.6 1.7 10.05 2.37 11.05-16.3.59-15.1-1.11.13-1.86.94-2.86 1.41a.36.36 0 0 1-.51-.33l.07-6.09a.61.61 0 0 0-.61-.62h-2.7a.51.5-90 0 0-.5.51l-.02 19.72a.52.52 0 0 0 .52.52h2.62a.63.62-10.5 0 0 .59-.85l-.2-.54q-.32-.8.41-.33Zm40.1.31-.21.56a.63.62 10.5 0 0 .59.85h2.61a.5.5 0 0 0 .5-.5v-19.63a.62.62 0 0 0-.62-.62h-2.76a.63.62 90 0 0-.62.63l.01 6.08q0 .69-.53.25c-2.51-2.1-5.88-1.97-8.05.6-4.96 5.91.27 18.3 8.7 11.5q.71-.57.38.28Zm-250.23.42q1.54 1.63 3.9.91a.49.48 76.9 0 0 .34-.56q-.91-4.63-.7-9.36c.32-7.36-9.8-6.49-12.49-1.81a.51.51 0 0 0 .32.75l2.34.58a.87.87 0 0 0 .95-.37c1.5-2.24 5.86-1.56 5.01.84a.89.87 4.5 0 1-.68.57q-4.92.9-6.45 1.75c-5.5 3.05.43 11.11 7.06 6.65a.32.32 0 0 1 .4.05Zm18.97-12.74v-.64a.62.62 0 0 0-.62-.63h-2.51a.63.62 90 0 0-.62.63v13.87a.5.5 0 0 0 .5.5h2.97a.51.51 0 0 0 .51-.52c-.03-3.86-1.3-12.32 3.73-11.59a.99.97-7.9 0 1 .74.55c1.21 2.55.47 7.03.63 11.04a.55.54-1.1 0 0 .55.52h2.85a.51.51 0 0 0 .51-.53c-.09-3.13-1.09-10.75 2.86-11.73a1.72 1.71 82.9 0 1 2.13 1.66l.03 9.97a.64.63 0 0 0 .64.63h2.91a.57.57 0 0 0 .57-.6c-.19-3.41.5-9.46-.67-12.13-1.62-3.72-5.75-2.76-8.41-.63a.55.54 47.1 0 1-.72-.03q-3.99-3.77-8.04-.1-.55.49-.54-.24Zm36.87 6.26a7.78 7.78 0 0 0-7.78-7.78 7.78 7.78 0 0 0-7.78 7.78 7.78 7.78 0 0 0 7.78 7.78 7.78 7.78 0 0 0 7.78-7.78Zm6.63-6.01v-.89a.62.62 0 0 0-.62-.63h-2.51a.63.62 90 0 0-.62.63v13.87a.5.5 0 0 0 .5.5h2.96a.52.52 0 0 0 .52-.52c0-3.17-1.44-12.92 4.28-11.58a1.62 1.61-84.3 0 1 1.25 1.54l.25 10.05a.53.52-.6 0 0 .53.51h2.89a.67.66-.8 0 0 .67-.68l-.35-11.49a1.46 1.44 21 0 0-.45-1q-4.43-4.26-8.76-.07-.55.53-.54-.24Zm17.55 7.23h8.46a.61.6-86.2 0 0 .6-.53c1.21-9.25-11.01-11.99-13.3-3.14-2.48 9.58 8.96 14.36 13.14 6.33a.43.43 0 0 0-.32-.62l-2.81-.46a.8.8 0 0 0-.84.44c-1.41 2.98-5.06 1.37-5.38-1.51a.46.45 86.6 0 1 .45-.51Zm15.95-7.23v-.77a.75.75 0 0 0-.75-.75h-2.22a.54.54 0 0 0-.54.54l.02 13.84a.62.62 0 0 0 .62.62h2.7a.56.56 0 0 0 .56-.61c-.17-2.48-1.22-12.63 3.94-10.8a.59.58-70.2 0 0 .75-.36l.85-2.36a.59.58 20.7 0 0-.34-.74q-3.34-1.29-5.1 1.54-.49.78-.49-.15Zm16.35 12.41q1.34 1.8 3.88.97a.5.5 0 0 0 .32-.59c-1.1-4.57 1.51-13.7-4.76-14.48-3.4-.42-6.66-.05-8.36 3.28a.57.56-61 0 0 .21.74q2.4 1.47 3.91-.41a1.7 1.63-78.3 0 1 .83-.57q2.25-.7 3.67 1.15a.96.96 0 0 1-.6 1.54c-3.21.53-10.77 1.77-8.24 7.1 1.57 3.31 5.85 3.3 8.41 1.18a.5.5 0 0 1 .73.09Zm15.86-2.61c-1.07 1.75-4.93 1.71-5.65-.61a.6.6 0 0 0-.62-.42l-2.59.24a.99.99 0 0 0-.6 1.7c9.09 8.84 19.22-3.57 10-6.03q-2.63-.7-5.37-1.5a.91.91 0 0 1-.19-1.67q2.83-1.6 4.87.88a.85.84 65.5 0 0 .79.3l2.15-.35a.57.56-6.6 0 0 .48-.6c-.36-4.69-13-5.38-12.41 1.66.28 3.35 5.87 4.41 8.45 4.87a1.02 1.02 0 0 1 .69 1.53Zm24.16 2.61q1.26 1.82 3.71.94a.59.59 0 0 0 .38-.66c-.87-4.49 1.58-13.94-4.98-14.44-3.39-.26-6.55.08-8.06 3.48a.56.56 0 0 0 .39.78l2.17.48a.95.94-64.5 0 0 .95-.34q2.2-2.79 5.13-.33a.91.9 57 0 1-.33 1.56c-2.49.72-7.38 1.11-8.5 3.58-2.38 5.23 4.54 8.25 8.4 4.86a.5.5 0 0 1 .74.09Zm10.9-12.28.18-.96a.59.59 0 0 0-.58-.69h-2.62a.5.5 0 0 0-.5.5v19.75a.5.5 0 0 0 .5.5h2.9a.52.52 0 0 0 .52-.53l-.13-6.33a.33.33 0 0 1 .55-.26c6.83 5.98 11.8-3.57 9.53-9.5-1.72-4.46-6.25-6.03-9.81-2.21q-.72.77-.54-.27Zm17.8.09-.1-1.15a.65.64-2.4 0 0-.65-.59h-2.35a.53.52 90 0 0-.52.53l.07 13.86a.62.62 0 0 0 .62.61h2.69a.56.56 0 0 0 .56-.61c-.16-2.34-1.27-12.65 3.96-10.76a.56.56 0 0 0 .72-.34l.86-2.43a.56.55 21.7 0 0-.31-.7q-3.35-1.43-5.11 1.67a.24.23-33.3 0 1-.44-.09Zm22.29 5.79a7.78 7.78 0 0 0-7.78-7.78 7.78 7.78 0 0 0-7.78 7.78 7.78 7.78 0 0 0 7.78 7.78 7.78 7.78 0 0 0 7.78-7.78Zm29.08 6.46q1.57 1.69 4.09.9a.47.46 70.3 0 0 .29-.62c-1.94-4.7 2.28-12.8-4.57-14.2q-6.05-1.24-8.68 3.14a.51.51 0 0 0 .33.76l2.39.5a.91.9-66.2 0 0 .94-.37c1.5-2.19 5.84-1.46 4.97.86a.94.93 2.9 0 1-.66.59q-2.13.52-4.29.97c-8.82 1.8-1.97 13.02 4.51 7.43a.5.5 0 0 1 .68.04Zm33.59.01q1.64 1.63 4.06.9a.45.44-20.6 0 0 .28-.6c-2.04-4.7 2.25-12.83-4.62-14.23q-6.05-1.24-8.68 3.11a.51.51 0 0 0 .31.76l2.36.58a.89.88-65.9 0 0 .96-.37c1.5-2.26 5.86-1.52 5 .82a.93.9 3.3 0 1-.67.58c-2.86.64-8.2 1.12-8.47 4.9-.37 5.19 5.66 5.79 9.06 3.51a.32.32 0 0 1 .41.04Zm16.05-2.84c-.99 2.12-4.73 1.66-5.67-.46a.68.66 74.9 0 0-.68-.4l-3.15.27a.59.58-21.2 0 0-.42.94q3.94 5.16 9.84 3.39c2.32-.69 4.31-2.41 4.06-4.93-.38-3.81-5.99-4.44-9.06-5.3a.85.85 0 0 1-.18-1.56q2.99-1.66 5.05.86a.84.83-26.2 0 0 .84.28l2.41-.56a.47.47 0 0 0 .29-.71c-3.1-4.72-13.55-4.79-12.53 2.56a1.45 1.4-73 0 0 .43.84q3.19 3.05 7.83 3.23a1.09 1.09 0 0 1 .94 1.55ZM640.79 540.05a26.86 25.08 89.7 0 0 24.94-26.991 26.86 25.08 89.7 0 0-25.22-26.729 26.86 25.08 89.7 0 0-24.94 26.991 26.86 25.08 89.7 0 0 25.22 26.729Zm103.77-46.58q-.37 1.46-1.24 2.68a.5.49-63.5 0 0 .25.77c2.09.67 4.2-2.25 5.35-3.67q.45-.54-.26-.53l-3.28.09a.87.87 0 0 0-.82.66Zm4.33 20.78a.4.4 0 0 1 .38.26l1.56 4.23a.4.4 0 0 0 .38.26h3.66a.4.4 0 0 0 .37-.55l-7.98-19.95a.4.4 0 0 0-.37-.25h-3.78a.4.4 0 0 0-.37.25l-7.78 19.95a.4.4 0 0 0 .38.55h3.56a.4.4 0 0 0 .38-.26l1.54-4.23a.4.4 0 0 1 .38-.26h7.69Zm80.57-3.26c2.8.5 6.58.45 8.82-1.26 3.09-2.35 3.17-8.02-.26-10.27-2.63-1.72-9.59-1.29-12.78-1.19a.5.49-1.8 0 0-.48.5l.01 19.71a.52.51 90 0 0 .51.52h3.18a.53.52-89.4 0 0 .52-.52l.04-7.12a.38.37-84.9 0 1 .44-.37Zm90.78-12.258a.52.52 0 0 0-.526-.513l-2.96.042a.52.52 0 0 0-.513.527l.038 2.72a.52.52 0 0 0 .527.513l2.96-.042a.52.52 0 0 0 .513-.527l-.038-2.72Zm14.02 19.078-.01.56a.62.62 0 0 0 .62.63h2.63a.5.5 0 0 0 .5-.5v-19.62a.63.63 0 0 0-.63-.63h-2.77a.64.64 0 0 0-.64.65l.13 6.12q.01.44-.36.21c-14.11-8.6-12.81 21.81.1 12.35q.44-.32.43.23Zm-61.06-10.06c.13 3.99-1.78 14.33 6.55 11.14a.71.71 0 0 0 .45-.75l-.27-1.96a.48.47-15.9 0 0-.67-.37c-3.18 1.47-2-6.62-1.99-8.04a.53.52-89.4 0 1 .52-.52h1.59a.63.63 0 0 0 .63-.64l-.04-1.86a.78.77 88.9 0 0-.78-.76l-1.44.01a.5.5 0 0 1-.5-.5v-4.01q0-.7-.6-.35l-2.96 1.72a.89.89 0 0 0-.45.85l.13 1.71a.51.51 0 0 1-.47.55l-.93.09a.57.57 0 0 0-.52.59l.07 2.11a.5.5 0 0 0 .49.49h.68a.51.51 0 0 1 .51.5Zm-112.42-2.34q.6-.42.29-.71a1.14.06 43.6 0 0-.82-.7H758a.5.5 0 0 0-.5.5v13.87a.63.63 0 0 0 .63.63h2.69a.57.57 0 0 0 .57-.6c-.17-3.28-.95-12.82 3.97-10.81a.58.58 0 0 0 .78-.37l.69-2.28a.64.64 0 0 0-.33-.77q-1.92-.91-3.75.06a1.15 1.12 85.3 0 0-.58.7q-.24.83-1.18 1-1.28.23-.21-.52Zm11.43 7.38 8.58-.15a.62.61 1.5 0 0 .61-.57q.48-5.71-4.07-7.7c-9.96-4.35-13.59 13.03-4.15 14.71q5.53.98 7.96-3.46a.47.47 0 0 0-.18-.63q-2.86-1.65-4.53.75a1.22 1.2-73.1 0 1-.95.52q-3.12.14-3.66-3a.4.4 0 0 1 .39-.47Zm21.04 5.17q1.59 1.67 3.99.95a.46.46 0 0 0 .28-.66c-2.37-4.56 2.71-12.12-4.28-14.15q-5.12-1.49-8.67 2.41a.94.94 0 0 0 .53 1.56l2.05.37a.79.79 0 0 0 .79-.33c1.45-2.13 5.92-1.58 5 .87a.91.89 3.9 0 1-.67.57q-4.64.93-5.77 1.46c-6.16 2.87-.81 11.03 5.12 7.5q.56-.33 1.16-.64a.4.4 0 0 1 .47.09Zm15.84-3.77c1.49 2.19-3.6 3.56-5.49.53a.84.84 0 0 0-.78-.4l-2.38.18a1.05 1.04-25.1 0 0-.65 1.79c8.94 8.68 19.1-3.44 10.15-6.02q-2.88-.83-5.82-1.67a.77.77 0 0 1-.18-1.41q2.95-1.73 5.21.74a.87.86-26.5 0 0 .82.27l2.3-.48a.48.47 77.1 0 0 .36-.58c-1.27-5.06-14.86-5.05-12.17 3.14a1.57 1.54-82.8 0 0 .63.83q3.24 2.11 7.13 2.55a1.24 1.22-13 0 1 .87.53Zm38.41-8.91v-.66a.63.62 0 0 0-.63-.62h-2.37a.5.49-90 0 0-.49.5l-.02 13.96a.54.54 0 0 0 .54.54h2.79a.57.57 0 0 0 .57-.62c-.22-3.06-1-12.93 4.1-10.81a.47.47 0 0 0 .63-.3l.7-2.27a.73.72 19.5 0 0-.43-.89q-3.11-1.23-4.72 1.37-.67 1.07-.67-.2Zm22.36 6.25a7.78 7.78 0 0 0-7.78-7.78 7.78 7.78 0 0 0-7.78 7.78 7.78 7.78 0 0 0 7.78 7.78 7.78 7.78 0 0 0 7.78-7.78Zm16.19 1.22h8.46a.61.6-86.2 0 0 .6-.53c1.26-9.21-10.99-12.01-13.31-3.14-2.48 9.45 8.84 14.42 13.13 6.45a.46.46 0 0 0-.31-.66l-2.76-.58a.74.74 0 0 0-.83.43c-1.31 3.03-5.17 1.37-5.44-1.45a.47.46 87.2 0 1 .46-.52Zm22.26 4.81c.85 3.96-3.5 6.31-5.54 3.39a1.17 1.16-13.5 0 0-.79-.48l-2.97-.41a.59.58 3.5 0 0-.66.58c0 4.25 5.57 4.77 8.83 4.25 4.34-.69 5-3.53 5.04-7.62q.07-6.34.03-12.7a.62.61 87.4 0 0-.66-.61l-2.79.2q-1.23.08-.24.78.21.15.24.43.05.66-.47.26c-10.23-7.78-14.8 10.68-5.88 13.1q2.8.76 5.36-1.34a.31.31 0 0 1 .5.17Zm42.03.44q1.39 1.62 3.72.9a.62.61 76.2 0 0 .42-.7c-.64-3.43.25-9.29-1.1-11.91-2.08-4.07-10.2-3.35-11.98.99a.56.55 16.5 0 0 .41.75l2.53.5a.63.63 0 0 0 .71-.39c.84-2.12 4.22-1.9 5.05.34a.76.75 75 0 1-.58 1.01c-2.53.45-6.79 1.13-8.13 3.36-3.31 5.51 4.56 7.76 8.52 5.09a.33.33 0 0 1 .43.06Zm19.34-11.08c-6.54-9.44-22.46 3.73-4.4 6.8a1.29 1.23 75 0 1 .8.49c1.46 1.94-3.45 3.63-5.4.6a.87.87 0 0 0-.8-.4l-3.11.24a.52.52 0 0 0-.38.83c7.55 10.11 19.73-2.04 11.08-4.89q-3.06-1.02-6.23-1.92a.87.87 0 0 1-.13-1.63q2.97-1.38 5.07.89a.88.88 0 0 0 .86.27l2.36-.55a.47.47 0 0 0 .28-.73Zm-49.43-2.39a.52.52 0 0 0-.52-.52h-2.96a.52.52 0 0 0-.52.52v13.96a.52.52 0 0 0 .52.52h2.96a.52.52 0 0 0 .52-.52v-13.96ZM799.42 759.77c2.8.4 5.96-3.77 7.82-6.15 5.11-6.54 10.53-11.87 17.38-16.6 3.28-2.27 6.19-5.01 7.37-8.31q3.99-11.17 7.82-22.39c1.22-3.56 2.97-9.52-3.04-9.6a1.31 1.3-64.7 0 0-.88.32q-20.1 17.69-34.86 40.04c-2.91 4.39-11.55 21.26-1.61 22.69Zm57.04-22.43q19.28 1.15 39.09.85c3.23-.05 5.37.28 7.55-2.57 3.69-4.83 7.23-17.9-3.91-16.56q-23.29 2.79-43.24 16.43a1.01 1.01 0 0 0 .51 1.85ZM399.04 801.5q-6.73-1.78-10.56 3.52-1.98 1.41-3.98 1.27c-7.68-3.09-9.25.27-9.54 7.21-5.12 7.8-4.72 16.58.96 23.81 3.69 4.68 18.1 6.82 23.33 7.25 7.17.6 16.64-1.02 24.96-1.06a1.11 1.11 0 0 1 .85.37q.77.85.92 1.75a1.07 1.06 74.3 0 1-.64 1.15q-13.56 5.69-19.61 18.13c-2.61 5.39-2.99 12.82-3.97 19.06a.85.85 0 0 1-.55.66q-1.91.69-3.96.62-12.81-.41-25.08-4.02c-1.9-.55-4.56-.74-6.41.11q-22.11 10.11-29.03 13.4c-5.9 2.82-12 10.24-10.23 17.06 1.16 4.48 6.91 9.49 11.91 6.89 2.65-1.38 8.16-3.85 10.97-2.18q3.24 2.62 8.06 4.39l1.79.94a1.58 1.58 0 0 1 .67.67c5.58 10.56 9.43 21.16 22.9 19.01 6.74-1.08 10.56-13.29 11.99-19.51a.32.32 0 0 1 .6-.05q4.47 10.82 9.67 21.21c2.56 5.11 10.61 16.76 16.01 18.26 4.84 1.35 11.51-7.18 13.54-11.33q1.35-2.77 4.1-9.76 3.96 5.52 10 8.42c6.6 5.21 14.01 13.41 22.9 11.85 8.51-1.49 11.27-8.81 7.43-16.43q-5.93-11.75-11.84-21.31c-13.37-21.62-15.08-47.2-11.71-71.94.81-5.97-1.09-10.84.17-17.03q3.56-17.44 6.73-34.96c.54-2.99.69-4.57-2.55-5.79q-15.34-5.79-30.17-12.76c-3.26-1.53-13.84-6.31-16.34-2.58-6.5 9.69 1.96 19.9-14.29 23.7Zm-81 1.3c3.57 11.52 27 6.67 24.73-5.59-2.66-14.33-29.95-11.24-24.73 5.59Zm31.96 7.24c-8.77 3.22-5.73 11.54-12.53 15.78a1 .98-49.2 0 1-.89.07q-11.49-4.82-14.36-6.33c-4.91-2.57-7.31-1.26-9.72 3.49q-5.52 10.91-11.28 21.69c-7.26 13.62-11.6 26.66-2.86 40.88 3.13 5.09 15.11 12.2 21.23 10.27 9.57-3.02 6.14-15.43 6.34-22.7a.97.96-16.5 0 1 .43-.78c4.46-3.08 10.38-2.89 15.09-5.69 15.7-9.32 26.84-27.01 21.83-45.73q-.16-.58-1.32-1.74c5.39-8.87-4.85-14.56-11.96-9.21Zm140.88 123.09q9.74 9.24 19.55 18.46c7.29 6.84 12.4-8.98 19.58-8.12q17.87 2.13 26.54-12.17c1.88-3.11 3.56-4.05 6.95-4.55 12.53-1.83 24.51-1.73 36.49-4 4.4-.84 4.48-7.53 1.09-9.37-11.45-6.19-30.64-6.45-44.85-6.48q-11.93-.02-17.25-1.05c-20.31-3.94-36.6-16.78-42.13-37.38q-2.63-9.84-2.58-12.48c.06-2.65-.43-14.61-3.05-15.75q-6.97-3.04-17.13-3.67a.6.6 0 0 0-.62.45c-2.93 12.18-3.59 24.82-4.93 37.23-2.43 22.47 6.02 43.39 22.34 58.88Zm-106.454-60.381a11.82 9.86 78.9 0 0 7.4-13.497 11.82 9.86 78.9 0 0-11.952-9.7 11.82 9.86 78.9 0 0-7.4 13.496 11.82 9.86 78.9 0 0 11.952 9.7Z"/><path fill="#60e500" d="M249.56 0h14l-1.02.35a.81.81 0 0 0-.52.62c-1.91 10.66-13.31 7.63-15.77-.43l3.31-.54Z"/><path fill="#404040" d="M263.56 0h52q14.13.63 28.25 0h7.5l4.2.47a.52.52 0 0 1 .46.56c-1.11 13.78-1.09 27.78-5.61 41.23q-4.99 14.84-12.32 28.67c-8.47 15.98-16 31.74-20.08 48.8-3.49 14.58 3.44 29.27 8.93 41.32q2.1 4.59 2.69 8.74c1.64 11.61 1.57 24.22 1.68 35.11.12 12.31-1.91 23.6-3.94 36.16-.99 6.06-.66 10.62 1.26 17.04q4.27 14.23 3.13 28.9-.99 12.79.08 24.75c.47 5.26 4.25 10.96 6.79 15.51 1.72 3.07 6.53 8.78 7.18 13.23.52 3.57-.75 9.16-1.93 13.57-3.96 14.93-7.93 30.66-8.9 46.1-1.68 26.66-9.02 51.19-17.85 76.65q-7.64 22.01-14.38 44.32c-2.11 6.99-4.77 15.47-5.57 22.99-2.9 27.13-19.62 47.49-34.45 69.17-2.41 3.54-6.41 10.55-5.02 14.88q2.55 7.93 7.84 14.13 2.64 3.1 4.09 5.61c7.76 13.43 19 25.26 28.75 37.65 4.31 5.47 7.73 9.74 13.27 15.92 7.01 7.82 15.22 19.46 16.44 30.26q.71 6.24.98 12.56a1.14 1.13 1.8 0 0 1.02 1.08c13.33 1.36 25.77 5.13 38.81 8.85 10.38 2.97 21.53 4.26 32.27 6.66 4.85 1.09 9.17 1.53 8.96 6.93-.25 6.44-9.96 6.14-14.15 7.72-12.56 4.73-17.17 13.89-22.9 25.23q-1.7 3.36-6.96 4.15-9.84 1.49-16.52-5.45c-2.1-2.18-4.24-6.45-6.76-9q-7.54-7.66-16.54-10.52c-5.03-1.6-11.29-4.69-15.37-4.66-9.36.06-17.24-1.27-26.9.77a1.78 1.77-11.5 0 0-1.38 2.08c.91 4.58 8.4 5.45 12.22 6.21q6.92 1.38 11.99 6.82-7.42-.23-8.67 5.64-.47 2.21.87 4.1c5.02 7.09 9.41 3.78 12.44-2.16 2.24 8.85-2.69 12.93-10.32 14.96-4.98 1.33-7.99 5.57-11.35 9.12-3.97 4.21-5.46 7.73-6.8 13.07-1.48 5.95-2.73 9.09-9.18 9-10.96-.15-14.6-8.85-15.11-18.17-.51-9.35 3.65-16.45 13.3-18.27 13.27 5.25 10.62-16.44 2.68-12.11q-3.09 1.68-5.64 4.15c1.2-11.21-12.83-13.92-13.53-4.27q-.23 3.16-.51 4.31c-7.98-8.95-6.67-18.2-7.25-29.75q4.22-.97 7.63-2.89 2.56 5.08 7.06 1.53 5.31-4.19 2.88-11.25a1.49 1.49 0 0 0-.57-.75l-3.75-2.64q17.08.63 31.76-9.05a1.78 1.78 0 0 0 .39-2.63q-3.14-3.77-8.65-1.35c-6.21 2.74-20.61 9.4-27.11 7.92-8.45-1.92-11.02-13.21-7.65-20.26q.01-.02 3.39-5.06 4.09-6.11 4.12-13.84a1.62 1.62 0 0 0-2.24-1.51q-5.92 2.45-11.47 6.24c.67-5.6-1.74-8.97-7.68-8.23a2.15 2.15 0 0 0-1.87 1.89q-.57 5.01 2.07 9.02c-8.16 4.38-15.61 2.27-23.06-2.72l.28-.66a.86.85-54.7 0 0-.15-.9q-3.61-4.01-6.04-8.82a.81.81 0 0 0-.82-.43l-1.02.14c-4.74-9.9-2.53-19.39 2.27-29q5.61-11.24 16.66-26.52c2.96-4.1 6.57-9.24 8.02-13.96q5.56-18.14 7.63-23.75 3.14-8.52 4.2-17.55.36-3.1-2.78-2.97 4.04-.43 5.29-4.04c1.01 2.89 3.91 6.65 7.47 5.82a1.46 1.45-78 0 0 .84-.55q3.52-4.77.89-10.31a1.72 1.67-89.2 0 0-.72-.76q-4.18-2.31-7.98.8l-4.39-7.2c6.41-10.43-16.95-14.91-7.53 1.65a.6.59 73.7 0 0 .53.3h.31c-2.06 3.15-3.12 7.38-.61 10.67 1.28 1.67 2.56 3.78 4.15 3.62q-2.07.19-2.72 1.51c-6.07 12.18-9.55 25.23-19.83 35.4-11.01 10.9-28.51-4.38-32.91-14.24-3.84-8.61 5.6-22 11.8-27.24q9.11-4.78 15.07-13.14 8.64-6.25 18.89-10.12a1.37 1.36-8.5 0 0 .88-1.18q.27-3.58-2.33-6.19a1.26 1.23-22.4 0 0-.87-.35c-8.46-.01-14.76 3.12-22.21 5.35-17.02 5.1-25.15-22.65-16.03-32.73 5.09-5.64 14.04-6.73 21.05-5.25 5.3 1.12 11.38.1 16.79-.24q10.94-.71 20.67 4.34-1.47 2.72-3 5.47c-3.62 6.51 5.33 12.33 9.21 7.01q2.93-4.01-.43-7.35a.63.62 38.7 0 1-.09-.79q.24-.37.56-.59 3.56 3.4 6.37 7.79 1.82 2.85 1.69-.53c-.38-9.63 1.47-14.41-7.65-20.97a1.7 1.69 63.6 0 0-.91-.31q-12.76-.62-20.46-2.74c-8.95-2.46-17.29-11.93-15.3-21.59 1.37-6.71 6.25-9.88 12.51-12.37 5.18-2.05 3.55-12.19 3.48-16.68a1.48 1.46-78.6 0 0-.86-1.31q-7.5-3.37-15.73-5c-8.97-1.77-15.9-5.97-23.47-11.48-11.02-8-8.32-17.18-2.42-27.91q8.18-14.88 21.32-27.8c9.86-9.7 16.09-8.55 25.32.79q4.32 4.37 18.78 22.28.31.39.29-.11c-.18-6.7 3.29-15.61 5.5-21.96 5.6-16.07 14.97-30.39 16.08-48.06 2.55 2.31 3.9 5.14 7.78 5.63 6.34.81 9.44-7.45 5.28-11.7q-4.75-4.86-11.76-.79 1.17-13.78.3-27.3c-1.14-17.68-.25-35.41.67-53.09.88-17.01 5.79-34.13 12.26-49.67 2.71-6.52 3.16-11.27.3-18.07q-5.6-13.34-14.87-24.51c-6.55-7.91-15.94-12.03-24.57-17.17-11.38-6.78-16.34-22.47-13.31-34.75 3.55-14.43 16.55-30.16 27.11-40.85q1.44-1.45 3.85-5.52c3.26-5.51.26-14.88-2.95-19.63q-1.81-2.68-7.24-7.07-7.75-6.26-12.58-12.06c-4.98-5.98-5.2-15.89-5.12-24.5a.62.62 0 0 1 .53-.61l2.03-.3c2.46 8.06 13.86 11.09 15.77.43a.81.81 0 0 1 .52-.62l1.02-.35Zm72.535 45.827a7.69 6.18 91.6 0 0 6.393-7.514 7.69 6.18 91.6 0 0-5.963-7.86 7.69 6.18 91.6 0 0-6.393 7.514 7.69 6.18 91.6 0 0 5.963 7.86Zm-6.46 30.07a6.99 6.46 71.7 0 0 3.938-8.665 6.99 6.46 71.7 0 0-8.328-4.608 6.99 6.46 71.7 0 0-3.938 8.664 6.99 6.46 71.7 0 0 8.328 4.609Zm-12.854 29.589a7.69 6.27 83.2 0 0 5.315-8.378 7.69 6.27 83.2 0 0-7.137-6.894 7.69 6.27 83.2 0 0-5.315 8.378 7.69 6.27 83.2 0 0 7.137 6.894Zm-41.437-7.574a6.94 6.59 7.3 0 0-6.047-7.419 6.94 6.59 7.3 0 0-7.72 5.655 6.94 6.59 7.3 0 0 6.046 7.419 6.94 6.59 7.3 0 0 7.72-5.655Zm16.406 23.108c-3.63-3.91-11.74 2.69-10.13 7.3 3.78 10.87 16.68-.24 10.13-7.3Zm-21.685 18.481a6.55 5.78 39.9 0 0-1.317-8.635 6.55 5.78 39.9 0 0-8.733.232 6.55 5.78 39.9 0 0 1.317 8.636 6.55 5.78 39.9 0 0 8.733-.233Zm30.375 77.189q-3.2 5.14.45 10.79 2.6 4 6.31.96c9.56-7.82-2.05-19.32-6.76-11.75Zm15.953 59.337a7.21 6.21 109 0 0 8.219-4.795 7.21 6.21 109 0 0-3.525-8.84 7.21 6.21 109 0 0-8.219 4.796 7.21 6.21 109 0 0 3.525 8.84Zm-30.993.163c2.8 4.05 7.34 2.61 9.63-.68 2.7-3.88-.01-12.71-6-11.03-3.71 1.05-5.63 8.84-3.63 11.71Zm39.637 26.615a6.52 5.78 39.7 0 0-1.325-8.612 6.52 5.78 39.7 0 0-8.709.282 6.52 5.78 39.7 0 0 1.325 8.612 6.52 5.78 39.7 0 0 8.709-.282Zm-33.306 16.487a6.81 6.26 87.3 0 0 5.932-7.097 6.81 6.26 87.3 0 0-6.574-6.507 6.81 6.26 87.3 0 0-5.932 7.097 6.81 6.26 87.3 0 0 6.574 6.507Zm15.07 36.138a6.63 5.42 72.7 0 0 3.204-7.942 6.63 5.42 72.7 0 0-7.147-4.718 6.63 5.42 72.7 0 0-3.203 7.942 6.63 5.42 72.7 0 0 7.147 4.718Zm-12.89 10.373a6.91 5.77 82 0 0 4.753-7.646 6.91 5.77 82 0 0-6.676-6.04 6.91 5.77 82 0 0-4.752 7.646 6.91 5.77 82 0 0 6.676 6.04Zm35.645 7.678a6.99 5.84 92.9 0 0 6.187-6.685 6.99 5.84 92.9 0 0-5.48-7.277 6.99 5.84 92.9 0 0-6.185 6.685 6.99 5.84 92.9 0 0 5.478 7.277Zm-112.818 49.432a7.07 5.84 82.7 0 0 4.895-7.755 7.07 5.84 82.7 0 0-6.691-6.27 7.07 5.84 82.7 0 0-4.895 7.754 7.07 5.84 82.7 0 0 6.691 6.27Zm104.435 15.24a7.29 6.38 58 0 0 1.548-9.564 7.29 6.38 58 0 0-9.274-2.801 7.29 6.38 58 0 0-1.548 9.563 7.29 6.38 58 0 0 9.274 2.801ZM281.21 450.25c-3.25-.36-7.14-.21-8.88 3-4.07 7.46 9.91 17.27 13.67 3.04 6.2 2.7 9.87-2.48 8.17-8.23-2.62-8.86-10.59-2.36-12.96 2.19Zm35.069 15.525a4.89 4.89 0 0 0-5.306-4.436l-.836.074a4.89 4.89 0 0 0-4.436 5.306l.3 3.366a4.89 4.89 0 0 0 5.306 4.436l.836-.074a4.89 4.89 0 0 0 4.436-5.306l-.3-3.366Zm-32.865 24.21a6.55 5.53 82.6 0 0 4.64-7.207 6.55 5.53 82.6 0 0-6.328-5.783 6.55 5.53 82.6 0 0-4.64 7.207 6.55 5.53 82.6 0 0 6.328 5.783Zm7.392 27.029a6.21 5.01 75.2 0 0 3.258-7.284 6.21 5.01 75.2 0 0-6.43-4.724 6.21 5.01 75.2 0 0-3.258 7.284 6.21 5.01 75.2 0 0 6.43 4.724Zm-24.967-5.701a5.07 5.07 0 0 0-7.163-.3l-.619.568a5.07 5.07 0 0 0-.3 7.164l1.124 1.222a5.07 5.07 0 0 0 7.163.3l.619-.568a5.07 5.07 0 0 0 .3-7.164l-1.124-1.222Zm31.047 26.26a6.62 6.11 22.5 0 0-3.778-8.178 6.62 6.11 22.5 0 0-8.454 3.112 6.62 6.11 22.5 0 0 3.778 8.178 6.62 6.11 22.5 0 0 8.454-3.112Zm-11.159 18.674a5.94 4.91 73.9 0 0 3.07-7.069 5.94 4.91 73.9 0 0-6.364-4.345 5.94 4.91 73.9 0 0-3.07 7.069 5.94 4.91 73.9 0 0 6.364 4.345Zm-14.32 12.487a7.21 5.78 83.5 0 0 4.926-7.818 7.21 5.78 83.5 0 0-6.56-6.51 7.21 5.78 83.5 0 0-4.926 7.818 7.21 5.78 83.5 0 0 6.56 6.51Zm-6.657 17.476c-4.33 3.48-7.07 6.54-5.54 12.04q-6.15.12-6.28 6.29a1.51 1.47 28.1 0 0 .29.91c4.22 5.94 11.04 5.25 13.33-2.03q5.35-3.3 6.99-9.42 3.48-2.79 5.14-7.06a1.65 1.6 50.1 0 0 .07-.95c-2.06-8.76-13.38-12.46-14 .22Zm-15.406 42.55a7.7 6.14 85.8 0 0 5.56-8.13 7.7 6.14 85.8 0 0-6.688-7.23 7.7 6.14 85.8 0 0-5.56 8.13 7.7 6.14 85.8 0 0 6.688 7.23Zm-6.618 27.444a6.29 5.2 75.3 0 0 3.434-7.403 6.29 5.2 75.3 0 0-6.626-4.765 6.29 5.2 75.3 0 0-3.434 7.404 6.29 5.2 75.3 0 0 6.626 4.764Zm19.424 16.032a6.17 5.4 93.9 0 0 5.808-5.789 6.17 5.4 93.9 0 0-4.968-6.523 6.17 5.4 93.9 0 0-5.808 5.789 6.17 5.4 93.9 0 0 4.968 6.523Zm-11.838 7.314a5.39 4.51 82.2 0 0 3.736-5.952 5.39 4.51 82.2 0 0-5.2-4.728 5.39 4.51 82.2 0 0-3.736 5.952 5.39 4.51 82.2 0 0 5.2 4.728Zm36.828 4.579a6.39 5.93 28.6 0 0-2.771-8.265 6.39 5.93 28.6 0 0-8.45 2.147 6.39 5.93 28.6 0 0 2.772 8.265 6.39 5.93 28.6 0 0 8.45-2.147Zm-60.034 4.603a5.57 4.57 98.3 0 0 5.326-4.852 5.57 4.57 98.3 0 0-3.718-6.172 5.57 4.57 98.3 0 0-5.326 4.852 5.57 4.57 98.3 0 0 3.718 6.172Zm45.73 14.281a6.28 5.46 70.6 0 0 3.064-7.737 6.28 5.46 70.6 0 0-7.236-4.11 6.28 5.46 70.6 0 0-3.064 7.738 6.28 5.46 70.6 0 0 7.236 4.11Zm-6.359 19.97a5.6 4.82 49.9 0 0 .08-7.388 5.6 4.82 49.9 0 0-7.294-1.179 5.6 4.82 49.9 0 0-.08 7.389 5.6 4.82 49.9 0 0 7.294 1.179ZM310.61 737.4c-3.33 7.87 9.83 13.63 12.71 4.39 3.46-11.13-9.38-12.25-12.71-4.39Zm81.554 24.138a7.55 7.02-44.4 0 0-10.306.266 7.55 7.02-44.4 0 0-.482 10.298 7.55 7.02-44.4 0 0 10.306-.266 7.55 7.02-44.4 0 0 .482-10.298Zm-30.014 4.072q-8.19 3.8-4.55 11.07 1.13 2.24 3.51 3.26 8.52 3.64 9.52-6.56c2.33-2.37 5.4-5.81 4.3-9.33-1.93-6.19-11.39-6.04-12.78 1.56Zm-57.844 8.285a7.08 5.64 80.6 0 0 4.408-7.906 7.08 5.64 80.6 0 0-6.72-6.064 7.08 5.64 80.6 0 0-4.408 7.906 7.08 5.64 80.6 0 0 6.72 6.064Zm26.249-1.178a5.87 5.87 0 0 0-3.11-7.697l-1.547-.656a5.87 5.87 0 0 0-7.697 3.11l-.836 1.97a5.87 5.87 0 0 0 3.11 7.696l1.547.657a5.87 5.87 0 0 0 7.697-3.11l.836-1.97Zm3.385 9.343c5 3.99 10.85-4.09 8.62-8.91-1.6-3.45-6.17-5.68-9.76-3.28a1.23 1.21-11.3 0 0-.52.77c-1 5.09-3.46 7.35 1.66 11.42Zm15.78 11.306a6.28 5.53 82.5 0 0 4.663-6.948 6.28 5.53 82.5 0 0-6.303-5.504 6.28 5.53 82.5 0 0-4.663 6.948 6.28 5.53 82.5 0 0 6.303 5.504Z"/><path fill="#fff" d="M315.56 0h28.25q-14.12.63-28.25 0Z"/><path fill="#404040" d="M371.56 0h459.5l8.91.81q.57.05.02.23c-1.78.57-3.6.73-5.25 1.48-28.35 12.84-66.24 35.47-96.34 10.31q-2.39-2-4.77-4.02c-10.63-9.02-20.12-2.35-24.97 8.3-6.02 13.2 10.23 21.65 11.33 33.86.87 9.59-7.53 14.59-10.42 22.5-1.97 5.38-.18 13.36 1.76 18.56 1.74 4.65 5.47 9.57 8.2 14.37a.93.91 44.3 0 1 .02.88q-8.52 16.53-22.08 29.2c-4.29 4.01-8.83 7.05-14.51 5.16q-19.27-6.44-38.32-13.48c-5.77-2.13-9.32-8.7-14.95-11.38-7.91-3.77-19-2.25-24.93 4.48-1.15 1.31-1.63 7.3-1.94 9.01q-6.76 36.92-8.22 47.05c-.35 2.44 1.49 5.42 3.36 7.4 10.98 11.64 29.43 29.03 45.26 23.46 6.55-2.3 10.21-9.22 18.4-7.86 6.29 1.05 10.2 8.83 6.51 14.53-15.26 23.5-33.83 6.02-52.91 3.54a1.48 1.48 0 0 0-1.63 1.14c-.19.82-.62 2.15-.57 3.06q.88 17.39-11.06 29.92c-1.72 1.8-1.88 5.99-2.1 8.8q-1.95 25.92-3.19 51.88c-.17 3.54-1.38 6.39-4.74 7.44-5.27 1.64-13.12 3.16-18.83 5.55q-15.68 6.58-27.11 19.1-5.72 6.26-7.71 7.74c-7.08 5.27-15.1 6.98-22.22 13.81-12.01 11.53-13.99 23.16-15.1 39.69-.54 7.93-2.79 20.8 4.38 26.43q13.63 10.69 27.02 21.69c1.37 1.13 4.76 1.9 6.95 2.07 10.49.8 46.84 8.35 37.13 26.62q-1.03 1.94-6.23 6.57-29.71 26.46-48.65 58.14-2.71 4.53-11.53 21.77c-3.59 7.03-9.3 5.69-14.61 9.7q-7.73 5.84-8.55 15.68c-.46 5.48 1.97 9.84-3.54 13.84q-8.14 5.91-13.51 14.31c-3.22 5.03-3.56 10.69-9.2 13.98q-15.85 9.25-23.34 13.96-6.71 4.23-6.36 11.61c.28 6.1 5.25 10.49 7.14 16.34 2.54 7.83 2.85 14.24 1.63 23.02-1.79 12.87-5.84 27.24 2.69 38.73q5.5 7.4 13.64 12.22c2.65 1.57 5.78 8.99.51 10.27a1.57 1.56 48.9 0 1-.96-.07c-14.21-5.64-28.21-10.78-43.27-13.68-13.64-2.63-33.59-3.34-45.3-5.97q-12.32-2.77-24.64-5.51c-2.55-.57-3.88-2.28-4.58-4.55-5.33-17.43-12.77-29.61-24.36-44.65q-11.93-15.5-23.08-31.58c-7.79-11.23-15.89-21.1-24.14-31.49a1.83 1.81 42.5 0 1-.1-2.12c5.24-7.99 12.19-15.17 18.33-22.69q2.33-2.85 3.8-6.36c3-7.15 5.54-14.41 10.56-20.49 3.07-3.71 8.99-9.39 8.73-14.48q-1.31-26.28 8.55-50.06c6.16-14.87 14.28-29.35 19.53-46.6 8.5-27.95 9.83-54.76 9.37-82.68-.18-10.73 5.53-19.54 11.8-28.48q3.34-4.76 1.14-10.67-4.62-12.42-13.65-25.87-2.26-3.38-1.88-8.47c.89-11.78 2.69-23.76 2.56-35.55q-.02-2.4-1.11-4.72c-5.3-11.41-10.01-22.47-6.92-34.71 4.43-17.55 8.23-35.8 7.06-53.83-.47-7.19-.38-12.97-3.56-18.67q-6.96-12.51-13.25-25.38-1.52-3.09-.41-6.39 10.96-32.45 20.08-54.43 4.97-11.99 14.67-23.5c.97-1.15 2.09-3.09 2.45-4.55 3.59-14.22 4.49-29.5 4.51-44.12a.63.62 84.5 0 1 .5-.62l2.6-.53Z"/><ellipse fill="#60e500" rx="7.69" ry="6.18" transform="rotate(91.6 149.61 182.594)"/><ellipse fill="#60e500" rx="6.99" ry="6.46" transform="rotate(71.7 115.793 261.216)"/><ellipse fill="#60e500" rx="7.69" ry="6.27" transform="rotate(83.2 102.83 226.811)"/><ellipse fill="#60e500" rx="6.94" ry="6.59" transform="rotate(7.3 -626.302 2152.736)"/><path fill="#60e500" d="M281.62 128.32c-1.61-4.61 6.5-11.21 10.13-7.3 6.55 7.06-6.35 18.17-10.13 7.3Z"/><ellipse fill="#60e500" rx="6.55" ry="5.78" transform="rotate(39.9 -53.853 432.737)"/><path fill="#404040" d="M251.54 152.51c6.3 1.93 8.26 7.1 8.14 13.26-.17 8.57-.99 17.19-.88 24.65.29 18.69 1.86 37.39.4 56.04-1.45 18.54-22.64 16.35-28.27 2.57-4.01-9.84-5.9-21.18-5.42-32.5.7-16.26 4.61-30.73 7.25-46.03 1.68-9.73 6.42-21.76 18.78-17.99Zm-6.05 57.14c8.24 5.62 17.8-8.7 4.4-12.79-6.28-1.92-9.35 9.41-4.4 12.79Z"/><path fill="#60e500" d="M249.89 196.86c13.4 4.09 3.84 18.41-4.4 12.79-4.95-3.38-1.88-14.71 4.4-12.79ZM300.44 216.69c4.71-7.57 16.32 3.93 6.76 11.75q-3.71 3.04-6.31-.96-3.65-5.65-.45-10.79Z"/><ellipse fill="#60e500" rx="7.21" ry="6.21" transform="rotate(109 63.357 248.283)"/><path fill="#60e500" d="M295.03 275.51c-2.29 3.29-6.83 4.73-9.63.68-2-2.87-.08-10.66 3.63-11.71 5.99-1.68 8.7 7.15 6 11.03Z"/><ellipse fill="#60e500" rx="6.52" ry="5.78" transform="rotate(39.7 -253.61 592.55)"/><ellipse fill="#60e500" rx="6.81" ry="6.26" transform="rotate(87.3 -18.082 308.983)"/><path fill="#404040" d="M229 374.46c2.77-4.04 5.04-8.23 2.84-12.07-4.43-7.7-14.19-2.52-14.81 5.11-5.6-8.3-1.76-20.2 4.43-26.55 7.3-7.47 20.85-10.95 29.43-4.3q6.55 5.08 3.85 15.33-3.37 12.8-14.98 20.03-2.37 1.47-10.76 2.45Z"/><path fill="#60e500" d="M278.54 342.5q-.36-3.82 1.3-6.86 7.01-4.07 11.76.79c4.16 4.25 1.06 12.51-5.28 11.7-3.88-.49-5.23-3.32-7.78-5.63Z"/><ellipse fill="#60e500" rx="6.63" ry="5.42" transform="rotate(72.7 -84.772 381.659)"/><ellipse fill="#c20001" rx="6.91" ry="5.77" transform="rotate(82 -59.993 347.98)"/><path fill="#c20001" d="M229 374.46c-5.54 1.78-9.68-2.38-11.97-6.96.62-7.63 10.38-12.81 14.81-5.11 2.2 3.84-.07 8.03-2.84 12.07Z"/><ellipse fill="#60e500" rx="6.99" ry="5.84" transform="rotate(92.9 -9.247 340.06)"/><ellipse fill="#c20001" rx="26.86" ry="25.07" transform="rotate(90.1 109.184 531.266)"/><path d="M700.89 413.73c2.85 1.35 6.94 1.69 9.29 3.63 3.13 2.59 2.55 7.37-.5 9.6-4.6 3.36-12.86 1.28-14-5.13a.48.48 0 0 1 .43-.56l3.03-.3a.63.61-10.6 0 1 .66.44c1.14 3.92 5.36 4.46 8 1.83a1.8 1.8 0 0 0-.66-2.97c-2.78-1-6.28-1.42-8.57-3.15-2.67-2.02-3-5.71-.66-8.05 3.69-3.69 13.01-2.53 13.74 3.52a.55.54 84.5 0 1-.5.61l-2.83.22a.86.86 0 0 1-.83-.47q-2.03-4.08-6.64-1.7a1.38 1.38 0 0 0 .04 2.48Z"/><rect width="4" height="20.76" x="731.75" y="407.26" rx=".44"/><path d="m934 426.61.2.54a.63.62-10.5 0 1-.59.85h-2.62a.52.52 0 0 1-.52-.52l.02-19.72a.51.5-90 0 1 .5-.51h2.7a.61.61 0 0 1 .61.62l-.07 6.09a.36.36 0 0 0 .51.33c1-.47 1.75-1.28 2.86-1.41 10.46-1.2 9.46 17.47-.59 15.1-1.02-.24-1.74-1.14-2.6-1.7q-.73-.47-.41.33Zm3.794-1.362a4.8 3.3 88.4 0 0 3.165-4.89 4.8 3.3 88.4 0 0-3.433-4.706 4.8 3.3 88.4 0 0-3.165 4.89 4.8 3.3 88.4 0 0 3.433 4.706ZM974.13 426.31c-8.43 6.8-13.66-5.59-8.7-11.5 2.17-2.57 5.54-2.7 8.05-.6q.53.44.53-.25l-.01-6.08a.63.62-90 0 1 .62-.63h2.76a.62.62 0 0 1 .62.62v19.63a.5.5 0 0 1-.5.5h-2.61a.63.62 10.5 0 1-.59-.85l.21-.56q.33-.85-.38-.28Zm-3.417-1.05a4.79 3.33 90.8 0 0 3.397-4.743 4.79 3.33 90.8 0 0-3.263-4.837 4.79 3.33 90.8 0 0-3.397 4.743 4.79 3.33 90.8 0 0 3.263 4.837Z"/><ellipse fill="#c20001" rx="7.07" ry="5.84" transform="rotate(82.7 -128.368 330.577)"/><path d="M723.88 426.96c-6.63 4.46-12.56-3.6-7.06-6.65q1.53-.85 6.45-1.75a.89.87 4.5 0 0 .68-.57c.85-2.4-3.51-3.08-5.01-.84a.87.87 0 0 1-.95.37l-2.34-.58a.51.51 0 0 1-.32-.75c2.69-4.68 12.81-5.55 12.49 1.81q-.21 4.73.7 9.36a.49.48 76.9 0 1-.34.56q-2.36.72-3.9-.91a.32.32 0 0 0-.4-.05Zm-3.86-1.7c2.6.87 4.4-1.27 3.99-3.74a.55.55 0 0 0-.6-.46c-1.42.15-4.76.69-4.63 2.58a1.85 1.84 7.7 0 0 1.24 1.62ZM743.79 414.51q4.05-3.67 8.04.1a.55.54 47.1 0 0 .72.03c2.66-2.13 6.79-3.09 8.41.63 1.17 2.67.48 8.72.67 12.13a.57.57 0 0 1-.57.6h-2.91a.64.63 0 0 1-.64-.63l-.03-9.97a1.72 1.71 82.9 0 0-2.13-1.66c-3.95.98-2.95 8.6-2.86 11.73a.51.51 0 0 1-.51.53h-2.85a.55.54-1.1 0 1-.55-.52c-.16-4.01.58-8.49-.63-11.04a.99.97-7.9 0 0-.74-.55c-5.03-.73-3.76 7.73-3.73 11.59a.51.51 0 0 1-.51.52H740a.5.5 0 0 1-.5-.5v-13.87a.63.62-90 0 1 .62-.63h2.51a.62.62 0 0 1 .62.63v.64q-.01.73.54.24ZM780.12 420.53a7.78 7.78 0 0 1-7.78 7.78 7.78 7.78 0 0 1-7.78-7.78 7.78 7.78 0 0 1 7.78-7.78 7.78 7.78 0 0 1 7.78 7.78Zm-7.712 4.6a4.58 3.67 89.4 0 0 3.622-4.618 4.58 3.67 89.4 0 0-3.718-4.542 4.58 3.67 89.4 0 0-3.622 4.618 4.58 3.67 89.4 0 0 3.718 4.542ZM787.29 414.76q4.33-4.19 8.76.07a1.46 1.44 21 0 1 .45 1l.35 11.49a.67.66-.8 0 1-.67.68h-2.89a.53.52-.6 0 1-.53-.51l-.25-10.05a1.62 1.61-84.3 0 0-1.25-1.54c-5.72-1.34-4.28 8.41-4.28 11.58a.52.52 0 0 1-.52.52h-2.96a.5.5 0 0 1-.5-.5v-13.87a.63.62-90 0 1 .62-.63h2.51a.62.62 0 0 1 .62.63v.89q-.01.77.54.24ZM803.85 422.26c.32 2.88 3.97 4.49 5.38 1.51a.8.8 0 0 1 .84-.44l2.81.46a.43.43 0 0 1 .32.62c-4.18 8.03-15.62 3.25-13.14-6.33 2.29-8.85 14.51-6.11 13.3 3.14a.61.6-86.2 0 1-.6.53h-8.46a.46.45 86.6 0 0-.45.51Zm5.65-3.56c.16-3.42-3.37-3.56-5.51-1.23a1.03 1.03 0 0 0 .75 1.73l4.2.03a.56.55-87.8 0 0 .56-.53ZM820.74 414.67q1.76-2.83 5.1-1.54a.59.58 20.7 0 1 .34.74l-.85 2.36a.59.58-70.2 0 1-.75.36c-5.16-1.83-4.11 8.32-3.94 10.8a.56.56 0 0 1-.56.61h-2.7a.62.62 0 0 1-.62-.62l-.02-13.84a.54.54 0 0 1 .54-.54h2.22a.75.75 0 0 1 .75.75v.77q0 .93.49.15ZM835.87 426.84c-2.56 2.12-6.84 2.13-8.41-1.18-2.53-5.33 5.03-6.57 8.24-7.1a.96.96 0 0 0 .6-1.54q-1.42-1.85-3.67-1.15a1.7 1.63-78.3 0 0-.83.57q-1.51 1.88-3.91.41a.57.56-61 0 1-.21-.74c1.7-3.33 4.96-3.7 8.36-3.28 6.27.78 3.66 9.91 4.76 14.48a.5.5 0 0 1-.32.59q-2.54.83-3.88-.97a.5.5 0 0 0-.73-.09Zm-4.55-4.23c-1.75 3.63 5.98 4.29 4.92-1.22a.49.49 0 0 0-.61-.38l-3.53.96a1.2 1.19 5.4 0 0-.78.64ZM852.46 424.32a1.02 1.02 0 0 0-.69-1.53c-2.58-.46-8.17-1.52-8.45-4.87-.59-7.04 12.05-6.35 12.41-1.66a.57.56-6.6 0 1-.48.6l-2.15.35a.85.84 65.5 0 1-.79-.3q-2.04-2.48-4.87-.88a.91.91 0 0 0 .19 1.67q2.74.8 5.37 1.5c9.22 2.46-.91 14.87-10 6.03a.99.99 0 0 1 .6-1.7l2.59-.24a.6.6 0 0 1 .62.42c.72 2.32 4.58 2.36 5.65.61ZM875.88 426.84c-3.86 3.39-10.78.37-8.4-4.86 1.12-2.47 6.01-2.86 8.5-3.58a.91.9 57 0 0 .33-1.56q-2.93-2.46-5.13.33a.95.94-64.5 0 1-.95.34l-2.17-.48a.56.56 0 0 1-.39-.78c1.51-3.4 4.67-3.74 8.06-3.48 6.56.5 4.11 9.95 4.98 14.44a.59.59 0 0 1-.38.66q-2.45.88-3.71-.94a.5.5 0 0 0-.74-.09Zm-4.56-4.23c-1.75 3.63 5.98 4.29 4.92-1.22a.49.49 0 0 0-.61-.38l-3.53.96a1.2 1.19 5.4 0 0-.78.64ZM888.06 414.92c3.56-3.82 8.09-2.25 9.81 2.21 2.27 5.93-2.7 15.48-9.53 9.5a.33.33 0 0 0-.55.26l.13 6.33a.52.52 0 0 1-.52.53h-2.9a.5.5 0 0 1-.5-.5V413.5a.5.5 0 0 1 .5-.5h2.62a.59.59 0 0 1 .58.69l-.18.96q-.18 1.04.54.27Zm3.01 10.428a4.75 3.31 91.7 0 0 3.448-4.65 4.75 3.31 91.7 0 0-3.167-4.846 4.75 3.31 91.7 0 0-3.45 4.65 4.75 3.31 91.7 0 0 3.168 4.846ZM905.32 414.74a.24.23-33.3 0 0 .44.09q1.76-3.1 5.11-1.67a.56.55 21.7 0 1 .31.7l-.86 2.43a.56.56 0 0 1-.72.34c-5.23-1.89-4.12 8.42-3.96 10.76a.56.56 0 0 1-.56.61h-2.69a.62.62 0 0 1-.62-.61l-.07-13.86a.53.52 90 0 1 .52-.53h2.35a.65.64-2.4 0 1 .65.59l.1 1.15ZM927.61 420.53a7.78 7.78 0 0 1-7.78 7.78 7.78 7.78 0 0 1-7.78-7.78 7.78 7.78 0 0 1 7.78-7.78 7.78 7.78 0 0 1 7.78 7.78Zm-7.678 4.59a4.58 3.67 89.1 0 0 3.597-4.638 4.58 3.67 89.1 0 0-3.74-4.521 4.58 3.67 89.1 0 0-3.598 4.637 4.58 3.67 89.1 0 0 3.74 4.521ZM956.01 426.95c-6.48 5.59-13.33-5.63-4.51-7.43q2.16-.45 4.29-.97a.94.93 2.9 0 0 .66-.59c.87-2.32-3.47-3.05-4.97-.86a.91.9-66.2 0 1-.94.37l-2.39-.5a.51.51 0 0 1-.33-.76q2.63-4.38 8.68-3.14c6.85 1.4 2.63 9.5 4.57 14.2a.47.46 70.3 0 1-.29.62q-2.52.79-4.09-.9a.5.5 0 0 0-.68-.04Zm-4.59-4.11c-1.06 3.64 6.03 3.76 5.07-1.45a.51.51 0 0 0-.65-.4l-3.69 1.11a1.11 1.09-89.8 0 0-.73.74ZM989.87 426.96c-3.4 2.28-9.43 1.68-9.06-3.51.27-3.78 5.61-4.26 8.47-4.9a.93.9 3.3 0 0 .67-.58c.86-2.34-3.5-3.08-5-.82a.89.88-65.9 0 1-.96.37l-2.36-.58a.51.51 0 0 1-.31-.76q2.63-4.35 8.68-3.11c6.87 1.4 2.58 9.53 4.62 14.23a.45.44-20.6 0 1-.28.6q-2.42.73-4.06-.9a.32.32 0 0 0-.41-.04Zm-4.31-1.97c2.62 1.54 4.91-.81 4.45-3.47a.55.55 0 0 0-.6-.46c-1.5.16-4.77.65-4.62 2.68a1.59 1.57-76.9 0 0 .77 1.25ZM1006.33 424.16a1.09 1.09 0 0 0-.94-1.55q-4.64-.18-7.83-3.23a1.45 1.4-73 0 1-.43-.84c-1.02-7.35 9.43-7.28 12.53-2.56a.47.47 0 0 1-.29.71l-2.41.56a.84.83-26.2 0 1-.84-.28q-2.06-2.52-5.05-.86a.85.85 0 0 0 .18 1.56c3.07.86 8.68 1.49 9.06 5.3.25 2.52-1.74 4.24-4.06 4.93q-5.9 1.77-9.84-3.39a.59.58-21.2 0 1 .42-.94l3.15-.27a.68.66 74.9 0 1 .68.4c.94 2.12 4.68 2.58 5.67.46Z"/><path fill="#fff" d="M803.99 417.47c2.14-2.33 5.67-2.19 5.51 1.23a.56.55-87.8 0 1-.56.53l-4.2-.03a1.03 1.03 0 0 1-.75-1.73Z"/><ellipse fill="#fff" rx="4.8" ry="3.3" transform="rotate(88.4 252.65 692.333)"/><ellipse fill="#fff" rx="4.79" ry="3.33" transform="rotate(90.8 278.07 688.895)"/><ellipse fill="#fff" rx="4.58" ry="3.67" transform="rotate(89.4 173.691 600.52)"/><ellipse fill="#fff" rx="4.75" ry="3.31" transform="rotate(91.7 241.454 642.876)"/><ellipse fill="#fff" rx="4.58" ry="3.67" transform="rotate(89.1 246.33 677.482)"/><path fill="#fff" d="M720.02 425.26a1.85 1.84 7.7 0 1-1.24-1.62c-.13-1.89 3.21-2.43 4.63-2.58a.55.55 0 0 1 .6.46c.41 2.47-1.39 4.61-3.99 3.74ZM836.24 421.39c1.06 5.51-6.67 4.85-4.92 1.22a1.2 1.19 5.4 0 1 .78-.64l3.53-.96a.49.49 0 0 1 .61.38ZM876.24 421.39c1.06 5.51-6.67 4.85-4.92 1.22a1.2 1.19 5.4 0 1 .78-.64l3.53-.96a.49.49 0 0 1 .61.38ZM956.49 421.39c.96 5.21-6.13 5.09-5.07 1.45a1.11 1.09-89.8 0 1 .73-.74l3.69-1.11a.51.51 0 0 1 .65.4ZM985.56 424.99a1.59 1.57-76.9 0 1-.77-1.25c-.15-2.03 3.12-2.52 4.62-2.68a.55.55 0 0 1 .6.46c.46 2.66-1.83 5.01-4.45 3.47Z"/><ellipse fill="#60e500" rx="7.29" ry="6.38" transform="rotate(58 -230.992 502.206)"/><path fill="#60e500" d="M286 456.29q-1.98-3.37-4.79-6.04c2.37-4.55 10.34-11.05 12.96-2.19 1.7 5.75-1.97 10.93-8.17 8.23Z"/><path fill="#c20001" d="M281.21 450.25q2.81 2.67 4.79 6.04c-3.76 14.23-17.74 4.42-13.67-3.04 1.74-3.21 5.63-3.36 8.88-3Z"/><rect width="10.62" height="13.16" x="-5.31" y="-6.58" fill="#60e500" rx="4.89" transform="rotate(-5.1 5409.043 -3259.219)"/><ellipse fill="#60e500" rx="6.55" ry="5.53" transform="rotate(82.6 -133.888 402.566)"/><ellipse fill="#60e500" rx="26.86" ry="25.08" transform="rotate(89.7 62.383 578.602)"/><path d="m745.38 492.81 3.28-.09q.71-.01.26.53c-1.15 1.42-3.26 4.34-5.35 3.67a.5.49-63.5 0 1-.25-.77q.87-1.22 1.24-2.68a.87.87 0 0 1 .82-.66ZM748.89 514.25h-7.69a.4.4 0 0 0-.38.26l-1.54 4.23a.4.4 0 0 1-.38.26h-3.56a.4.4 0 0 1-.38-.55l7.78-19.95a.4.4 0 0 1 .37-.25h3.78a.4.4 0 0 1 .37.25l7.98 19.95a.4.4 0 0 1-.37.55h-3.66a.4.4 0 0 1-.38-.26l-1.56-4.23a.4.4 0 0 0-.38-.26Zm-6.47-3.93a.33.33 0 0 0 .32.44l4.5-.03a.33.33 0 0 0 .31-.44l-2.3-6.26a.33.33 0 0 0-.62 0l-2.21 6.29ZM829.46 510.99a.38.37-84.9 0 0-.44.37l-.04 7.12a.53.52-89.4 0 1-.52.52h-3.18a.52.51-90 0 1-.51-.52l-.01-19.71a.5.49-1.8 0 1 .48-.5c3.19-.1 10.15-.53 12.78 1.19 3.43 2.25 3.35 7.92.26 10.27-2.24 1.71-6.02 1.76-8.82 1.26Zm4.84-8.75q-2.36-.69-4.76-.35a.63.63 0 0 0-.54.62v4.61a.55.54 2.9 0 0 .49.54q2.54.3 5.04-.31c2.53-.62 2.31-4.36-.23-5.11Z"/><rect width="4" height="3.76" x="-2" y="-1.88" rx=".52" transform="rotate(-.8 36277.005 -65514.4)"/><path d="M933.83 517.58c-12.91 9.46-14.21-20.95-.1-12.35q.37.23.36-.21l-.13-6.12a.64.64 0 0 1 .64-.65h2.77a.63.63 0 0 1 .63.63v19.62a.5.5 0 0 1-.5.5h-2.63a.62.62 0 0 1-.62-.63l.01-.56q.01-.55-.43-.23Zm-3.142-1.34a4.78 3.33 91.1 0 0 3.421-4.716 4.78 3.33 91.1 0 0-3.237-4.843 4.78 3.33 91.1 0 0-3.421 4.715 4.78 3.33 91.1 0 0 3.237 4.843ZM872.69 507.25h-.68a.5.5 0 0 1-.49-.49l-.07-2.11a.57.57 0 0 1 .52-.59l.93-.09a.51.51 0 0 0 .47-.55l-.13-1.71a.89.89 0 0 1 .45-.85l2.96-1.72q.6-.35.6.35v4.01a.5.5 0 0 0 .5.5l1.44-.01a.78.77 88.9 0 1 .78.76l.04 1.86a.63.63 0 0 1-.63.64h-1.59a.53.52-89.4 0 0-.52.52c-.01 1.42-1.19 9.51 1.99 8.04a.48.47-15.9 0 1 .67.37l.27 1.96a.71.71 0 0 1-.45.75c-8.33 3.19-6.42-7.15-6.55-11.14a.51.51 0 0 0-.51-.5Z"/><path fill="#fff" d="M834.3 502.24c2.54.75 2.76 4.49.23 5.11q-2.5.61-5.04.31a.55.54 2.9 0 1-.49-.54v-4.61a.63.63 0 0 1 .54-.62q2.4-.34 4.76.35ZM742.42 510.32l2.21-6.29a.33.33 0 0 1 .62 0l2.3 6.26a.33.33 0 0 1-.31.44l-4.5.03a.33.33 0 0 1-.32-.44Z"/><path d="M760.99 505.93q.94-.17 1.18-1a1.15 1.12 85.3 0 1 .58-.7q1.83-.97 3.75-.06a.64.64 0 0 1 .33.77l-.69 2.28a.58.58 0 0 1-.78.37c-4.92-2.01-4.14 7.53-3.97 10.81a.57.57 0 0 1-.57.6h-2.69a.63.63 0 0 1-.63-.63V504.5a.5.5 0 0 1 .5-.5h2.25a1.14.06 43.6 0 1 .82.7q.31.29-.29.71-1.07.75.21.52ZM771.82 513.26q.54 3.14 3.66 3a1.22 1.2-73.1 0 0 .95-.52q1.67-2.4 4.53-.75a.47.47 0 0 1 .18.63q-2.43 4.44-7.96 3.46c-9.44-1.68-5.81-19.06 4.15-14.71q4.55 1.99 4.07 7.7a.62.61 1.5 0 1-.61.57l-8.58.15a.4.4 0 0 0-.39.47Zm5.68-3.51c.21-3.86-5.71-3.89-5.5-.01a.54.53 88.3 0 0 .53.51h4.43a.54.53 1.7 0 0 .54-.5ZM792.78 517.87q-.6.31-1.16.64c-5.93 3.53-11.28-4.63-5.12-7.5q1.13-.53 5.77-1.46a.91.89 3.9 0 0 .67-.57c.92-2.45-3.55-3-5-.87a.79.79 0 0 1-.79.33l-2.05-.37a.94.94 0 0 1-.53-1.56q3.55-3.9 8.67-2.41c6.99 2.03 1.91 9.59 4.28 14.15a.46.46 0 0 1-.28.66q-2.4.72-3.99-.95a.4.4 0 0 0-.47-.09Zm-4.86-4.03c-1.09 3.74 6.03 3.56 5.07-1.46a.51.5-13.4 0 0-.64-.39l-3.7 1.11a1.11 1.09-89.8 0 0-.73.74ZM803.6 514.72c1.89 3.03 6.98 1.66 5.49-.53a1.24 1.22-13 0 0-.87-.53q-3.89-.44-7.13-2.55a1.57 1.54-82.8 0 1-.63-.83c-2.69-8.19 10.9-8.2 12.17-3.14a.48.47 77.1 0 1-.36.58l-2.3.48a.87.86-26.5 0 1-.82-.27q-2.26-2.47-5.21-.74a.77.77 0 0 0 .18 1.41q2.94.84 5.82 1.67c8.95 2.58-1.21 14.7-10.15 6.02a1.05 1.04-25.1 0 1 .65-1.79l2.38-.18a.84.84 0 0 1 .78.4ZM848.17 505.48q1.61-2.6 4.72-1.37a.73.72 19.5 0 1 .43.89l-.7 2.27a.47.47 0 0 1-.63.3c-5.1-2.12-4.32 7.75-4.1 10.81a.57.57 0 0 1-.57.62h-2.79a.54.54 0 0 1-.54-.54l.02-13.96a.5.49-90 0 1 .49-.5h2.37a.63.62 0 0 1 .63.62v.66q0 1.27.67.2ZM869.86 511.53a7.78 7.78 0 0 1-7.78 7.78 7.78 7.78 0 0 1-7.78-7.78 7.78 7.78 0 0 1 7.78-7.78 7.78 7.78 0 0 1 7.78 7.78Zm-7.67 4.6a4.58 3.67 89 0 0 3.59-4.644 4.58 3.67 89 0 0-3.75-4.515 4.58 3.67 89 0 0-3.59 4.643 4.58 3.67 89 0 0 3.75 4.515ZM885.59 513.27c.27 2.82 4.13 4.48 5.44 1.45a.74.74 0 0 1 .83-.43l2.76.58a.46.46 0 0 1 .31.66c-4.29 7.97-15.61 3-13.13-6.45 2.32-8.87 14.57-6.07 13.31 3.14a.61.6-86.2 0 1-.6.53h-8.46a.47.46 87.2 0 0-.46.52Zm5.76-3.65c-.27-3.68-5.22-3.91-5.76.11a.46.45-86.1 0 0 .45.52h4.72a.59.59 0 0 0 .59-.63ZM907.81 517.39q-2.56 2.1-5.36 1.34c-8.92-2.42-4.35-20.88 5.88-13.1q.52.4.47-.26-.03-.28-.24-.43-.99-.7.24-.78l2.79-.2a.62.61 87.4 0 1 .66.61q.04 6.36-.03 12.7c-.04 4.09-.7 6.93-5.04 7.62-3.26.52-8.83 0-8.83-4.25a.59.58 3.5 0 1 .66-.58l2.97.41a1.17 1.16-13.5 0 1 .79.48c2.04 2.92 6.39.57 5.54-3.39a.31.31 0 0 0-.5-.17Zm-2.768-1.61a4.56 3.31 90.1 0 0 3.318-4.554 4.56 3.31 90.1 0 0-3.302-4.566 4.56 3.31 90.1 0 0-3.318 4.554 4.56 3.31 90.1 0 0 3.302 4.566ZM949.91 517.94c-3.96 2.67-11.83.42-8.52-5.09 1.34-2.23 5.6-2.91 8.13-3.36a.76.75 75 0 0 .58-1.01c-.83-2.24-4.21-2.46-5.05-.34a.63.63 0 0 1-.71.39l-2.53-.5a.56.55 16.5 0 1-.41-.75c1.78-4.34 9.9-5.06 11.98-.99 1.35 2.62.46 8.48 1.1 11.91a.62.61 76.2 0 1-.42.7q-2.33.72-3.72-.9a.33.33 0 0 0-.43-.06Zm-4.84-4.32c-1.79 3.69 6.03 4.17 4.92-1.23a.5.5 0 0 0-.62-.38l-3.52.96a1.2 1.19-84.4 0 0-.78.65ZM965.28 513.72c-18.06-3.07-2.14-16.24 4.4-6.8a.47.47 0 0 1-.28.73l-2.36.55a.88.88 0 0 1-.86-.27q-2.1-2.27-5.07-.89a.87.87 0 0 0 .13 1.63q3.17.9 6.23 1.92c8.65 2.85-3.53 15-11.08 4.89a.52.52 0 0 1 .38-.83l3.11-.24a.87.87 0 0 1 .8.4c1.95 3.03 6.86 1.34 5.4-.6a1.29 1.23 75 0 0-.8-.49Z"/><rect width="4" height="15" x="916.25" y="504.01" rx=".52"/><ellipse fill="#c20001" rx="6.21" ry="5.01" transform="rotate(75.2 -187.17 443.285)"/><path fill="#fff" d="M772 509.74c-.21-3.88 5.71-3.85 5.5.01a.54.53 1.7 0 1-.54.5h-4.43a.54.53 88.3 0 1-.53-.51ZM885.59 509.73c.54-4.02 5.49-3.79 5.76-.11a.59.59 0 0 1-.59.63h-4.72a.46.45-86.1 0 1-.45-.52Z"/><ellipse fill="#fff" rx="4.56" ry="3.31" transform="rotate(90.1 197.36 707.346)"/><ellipse fill="#fff" rx="4.78" ry="3.33" transform="rotate(91.1 214.523 712.27)"/><ellipse fill="#fff" rx="4.58" ry="3.67" transform="rotate(89 170.776 694.42)"/><rect width="10.98" height="11.8" x="-5.49" y="-5.9" fill="#c20001" rx="5.07" transform="rotate(-42.6 792.454 -78.64)"/><path fill="#fff" d="M792.99 512.38c.96 5.02-6.16 5.2-5.07 1.46a1.11 1.09-89.8 0 1 .73-.74l3.7-1.11a.51.5-13.4 0 1 .64.39ZM949.99 512.39c1.11 5.4-6.71 4.92-4.92 1.23a1.2 1.19-84.4 0 1 .78-.65l3.52-.96a.5.5 0 0 1 .62.38Z"/><path fill="#c20001" d="M247.75 526.71q3.74.89 6.25 3.75-.32.22-.56.59a.63.62 38.7 0 0 .09.79q3.36 3.34.43 7.35c-3.88 5.32-12.83-.5-9.21-7.01q1.53-2.75 3-5.47Z"/><ellipse fill="#60e500" rx="6.62" ry="6.11" transform="rotate(22.5 -1199.529 998.42)"/><ellipse fill="#c20001" rx="5.94" ry="4.91" transform="rotate(73.9 -223.92 464.106)"/><ellipse fill="#c20001" rx="7.21" ry="5.78" transform="rotate(83.5 -179.298 432.37)"/><path fill="#60e500" d="M242.65 574.55q-4-.36-6.69 1.95h-.31a.6.59 73.7 0 1-.53-.3c-9.42-16.56 13.94-12.08 7.53-1.65Z"/><path fill="#c20001" d="M210.91 573.08q-5.96 8.36-15.07 13.14 6.2-8.13 15.07-13.14ZM242.65 574.55l4.39 7.2-.5 5q-1.25 3.61-5.29 4.04h-1.75c-1.59.16-2.87-1.95-4.15-3.62-2.51-3.29-1.45-7.52.61-10.67q2.69-2.31 6.69-1.95Z"/><path fill="#60e500" d="M273.54 594q-3.38-5.02-8.79-7.79c.62-12.68 11.94-8.98 14-.22a1.65 1.6 50.1 0 1-.07.95q-1.66 4.27-5.14 7.06ZM246.54 586.75l.5-5q3.8-3.11 7.98-.8a1.72 1.67-89.2 0 1 .72.76q2.63 5.54-.89 10.31a1.46 1.45-78 0 1-.84.55c-3.56.83-6.46-2.93-7.47-5.82Z"/><path fill="#c20001" d="M264.75 586.21q5.41 2.77 8.79 7.79-1.64 6.12-6.99 9.42l-7.34-5.17c-1.53-5.5 1.21-8.56 5.54-12.04Z"/><path fill="#60e500" d="m259.21 598.25 7.34 5.17c-2.29 7.28-9.11 7.97-13.33 2.03a1.51 1.47 28.1 0 1-.29-.91q.13-6.17 6.28-6.29Z"/><ellipse fill="#60e500" rx="7.7" ry="6.14" transform="rotate(85.8 -209.79 444.4)"/><ellipse fill="#c20001" rx="6.29" ry="5.2" transform="rotate(75.3 -300.773 481.335)"/><ellipse fill="#c20001" rx="6.17" ry="5.4" transform="rotate(93.9 -179.824 455.68)"/><ellipse fill="#c20001" rx="5.39" ry="4.51" transform="rotate(82.2 -261.64 480.154)"/><ellipse fill="#c20001" rx="6.39" ry="5.93" transform="rotate(28.6 -1195.207 892.778)"/><ellipse fill="#c20001" rx="5.57" ry="4.57" transform="rotate(98.3 -181.435 440.147)"/><ellipse fill="#c20001" rx="6.28" ry="5.46" transform="rotate(70.6 -356.893 539.742)"/><path fill="#404040" d="M799.42 759.77c-9.94-1.43-1.3-18.3 1.61-22.69q14.76-22.35 34.86-40.04a1.31 1.3-64.7 0 1 .88-.32c6.01.08 4.26 6.04 3.04 9.6q-3.83 11.22-7.82 22.39c-1.18 3.3-4.09 6.04-7.37 8.31-6.85 4.73-12.27 10.06-17.38 16.6-1.86 2.38-5.02 6.55-7.82 6.15Z"/><path fill="#c20001" d="M213 715.21q-5.31-4.3-7.75-10.67l1.02-.14a.81.81 0 0 1 .82.43q2.43 4.81 6.04 8.82a.86.85-54.7 0 1 .15.9l-.28.66ZM243.54 715.25q-3.27 2.59-7.48 2.68-2.64-4.01-2.07-9.02a2.15 2.15 0 0 1 1.87-1.89c5.94-.74 8.35 2.63 7.68 8.23Z"/><ellipse fill="#c20001" rx="5.6" ry="4.82" transform="rotate(49.9 -640.953 641.857)"/><path fill="#404040" d="M856.46 737.34a1.01 1.01 0 0 1-.51-1.85q19.95-13.64 43.24-16.43c11.14-1.34 7.6 11.73 3.91 16.56-2.18 2.85-4.32 2.52-7.55 2.57q-19.81.3-39.09-.85Z"/><path fill="#60e500" d="M323.32 741.79c-2.88 9.24-16.04 3.48-12.71-4.39 3.33-7.86 16.17-6.74 12.71 4.39ZM261 754.79l3.75 2.64a1.49 1.49 0 0 1 .57.75q2.43 7.06-2.88 11.25-4.5 3.55-7.06-1.53 2.55-6.36-2.13-10.61 3.44-2.6 7.75-2.5Z"/><path fill="#c20001" d="M253.25 757.29q4.68 4.25 2.13 10.61-3.41 1.92-7.63 2.89c-1.77-1.92-3.88-4.14-4.11-6.77-.57-6.46 4.77-6.83 9.61-6.73Z"/><ellipse fill="#60e500" rx="7.55" ry="7.02" transform="rotate(-44.4 1132.903 -90.465)"/><path fill="#c20001" d="M370.63 773.38q-7.31-.61-8.48-7.77c1.39-7.6 10.85-7.75 12.78-1.56 1.1 3.52-1.97 6.96-4.3 9.33Z"/><ellipse fill="#c20001" rx="7.08" ry="5.64" transform="rotate(80.6 -300.58 562.186)"/><rect width="13.42" height="13.88" x="-6.71" y="-6.94" fill="#60e500" rx="5.87" transform="rotate(23 -1733.01 1181.697)"/><path fill="#60e500" d="M362.15 765.61q1.17 7.16 8.48 7.77-1 10.2-9.52 6.56-2.38-1.02-3.51-3.26-3.64-7.27 4.55-11.07Z"/><path fill="#c20001" d="M333.94 782.06c-5.12-4.07-2.66-6.33-1.66-11.42a1.23 1.21-11.3 0 1 .52-.77c3.59-2.4 8.16-.17 9.76 3.28 2.23 4.82-3.62 12.9-8.62 8.91Z"/><path fill="#404040" d="M448.71 948.75q7.38-7.1 3.62-15.82c-1.84-4.28-9.78-3.08-11.84.35q-1.56 2.6-1.78 7.05-2.75 6.99-4.1 9.76c-2.03 4.15-8.7 12.68-13.54 11.33-5.4-1.5-13.45-13.15-16.01-18.26q-5.2-10.39-9.67-21.21a.32.32 0 0 0-.6.05c-1.43 6.22-5.25 18.43-11.99 19.51-13.47 2.15-17.32-8.45-22.9-19.01a1.58 1.58 0 0 0-.67-.67l-1.79-.94q3.68-2.55 5-6.74c3.65-11.56-14.09-13.25-14.24-2.97q-.03 2.68 1.18 5.32c-2.81-1.67-8.32.8-10.97 2.18-5 2.6-10.75-2.41-11.91-6.89-1.77-6.82 4.33-14.24 10.23-17.06q6.92-3.29 29.03-13.4c1.85-.85 4.51-.66 6.41-.11q12.27 3.61 25.08 4.02 2.05.07 3.96-.62a.85.85 0 0 0 .55-.66c.98-6.24 1.36-13.67 3.97-19.06q6.05-12.44 19.61-18.13a1.07 1.06 74.3 0 0 .64-1.15q-.15-.9-.92-1.75a1.11 1.11 0 0 0-.85-.37c-8.32.04-17.79 1.66-24.96 1.06-5.23-.43-19.64-2.57-23.33-7.25-5.68-7.23-6.08-16.01-.96-23.81 2.17 8.88 15.41 2.64 9.54-7.21q2 .14 3.98-1.27-.99 6.11 3.9 8.96c6.06 3.54 13.21-6.66 6.66-12.48 16.25-3.8 7.79-14.01 14.29-23.7 2.5-3.73 13.08 1.05 16.34 2.58q14.83 6.97 30.17 12.76c3.24 1.22 3.09 2.8 2.55 5.79q-3.17 17.52-6.73 34.96c-1.26 6.19.64 11.06-.17 17.03-3.37 24.74-1.66 50.32 11.71 71.94q5.91 9.56 11.84 21.31c3.84 7.62 1.08 14.94-7.43 16.43-8.89 1.56-16.3-6.64-22.9-11.85Zm6.65-19.21c9.28 1.01 8.35-10.31 3.32-14.5a1.29 1.23 61.5 0 0-.9-.29c-9.41.63-12.82 13.65-2.42 14.79Z"/><ellipse fill="#c20001" rx="6.28" ry="5.53" transform="rotate(82.5 -274.33 592.492)"/><path fill="#404040" d="M342.77 797.21c2.27 12.26-21.16 17.11-24.73 5.59-5.22-16.83 22.07-19.92 24.73-5.59Zm-1.37 1.58a6.91 6.91 0 0 0-6.91-6.91 6.91 6.91 0 0 0-6.91 6.91 6.91 6.91 0 0 0 6.91 6.91 6.91 6.91 0 0 0 6.91-6.91Z"/><path fill="#60e500" d="M269.04 800.5q-1.62 3.03-4.5 5-7.17 1.62-9.54-4.96.28-1.15.51-4.31c.7-9.65 14.73-6.94 13.53 4.27Z"/><path fill="#c20001" d="M306.82 791.17q4.31 2.3 4.64 7.58c-3.03 5.94-7.42 9.25-12.44 2.16q-1.34-1.89-.87-4.1 1.25-5.87 8.67-5.64Z"/><circle cx="334.49" cy="798.79" r="6.91" fill="#60e500"/><path fill="#c20001" d="m272 808.46-3.97-3.32a1.06 1.03-30.7 0 0-.87-.21l-2.62.57q2.88-1.97 4.5-5 2.55-2.47 5.64-4.15c7.94-4.33 10.59 17.36-2.68 12.11Z"/><path fill="#60e500" d="M399.04 801.5c6.55 5.82-.6 16.02-6.66 12.48q-4.89-2.85-3.9-8.96 3.83-5.3 10.56-3.52Z"/><path fill="#c20001" d="M384.5 806.29c5.87 9.85-7.37 16.09-9.54 7.21.29-6.94 1.86-10.3 9.54-7.21ZM361.96 819.25l-4.42 2.12a1.32 1.31 40.6 0 1-.95.07c-5.68-1.73-6.22-6.25-6.59-11.4 7.11-5.35 17.35.34 11.96 9.21Z"/><path fill="#404040" d="M350 810.04c.37 5.15.91 9.67 6.59 11.4a1.32 1.31 40.6 0 0 .95-.07l4.42-2.12q1.16 1.16 1.32 1.74c5.01 18.72-6.13 36.41-21.83 45.73-4.71 2.8-10.63 2.61-15.09 5.69a.97.96-16.5 0 0-.43.78c-.2 7.27 3.23 19.68-6.34 22.7-6.12 1.93-18.1-5.18-21.23-10.27-8.74-14.22-4.4-27.26 2.86-40.88q5.76-10.78 11.28-21.69c2.41-4.75 4.81-6.06 9.72-3.49q2.87 1.51 14.36 6.33a1 .98-49.2 0 0 .89-.07c6.8-4.24 3.76-12.56 12.53-15.78Zm-.59 28.008a7.12 6.49 93.3 0 0 6.89-6.734 7.12 6.49 93.3 0 0-6.07-7.482 7.12 6.49 93.3 0 0-6.89 6.734 7.12 6.49 93.3 0 0 6.07 7.482Zm-25.17.712c-4.86 4.76 2.6 14.01 8.32 11.31 9.61-4.54 3.17-22.54-8.32-11.31Z"/><ellipse fill="#60e500" rx="7.12" ry="6.49" transform="rotate(93.3 -217.294 580.585)"/><path fill="#60e500" d="M332.56 850.07c-5.72 2.7-13.18-6.55-8.32-11.31 11.49-11.23 17.93 6.77 8.32 11.31Z"/><path fill="#404040" d="M490.88 933.13c-16.32-15.49-24.77-36.41-22.34-58.88 1.34-12.41 2-25.05 4.93-37.23a.6.6 0 0 1 .62-.45q10.16.63 17.13 3.67c2.62 1.14 3.11 13.1 3.05 15.75q-.05 2.64 2.58 12.48c5.53 20.6 21.82 33.44 42.13 37.38q5.32 1.03 17.25 1.05c14.21.03 33.4.29 44.85 6.48 3.39 1.84 3.31 8.53-1.09 9.37-11.98 2.27-23.96 2.17-36.49 4-3.39.5-5.07 1.44-6.95 4.55q-8.67 14.3-26.54 12.17c-7.18-.86-12.29 14.96-19.58 8.12q-9.81-9.22-19.55-18.46Z"/><ellipse fill="#404040" rx="11.82" ry="9.86" transform="rotate(78.9 -332.184 662.78)"/><path fill="#60e500" d="M357.44 920.89q-4.82-1.77-8.06-4.39-1.21-2.64-1.18-5.32c.15-10.28 17.89-8.59 14.24 2.97q-1.32 4.19-5 6.74Z"/><path fill="#c20001" d="M455.36 929.54c-10.4-1.14-6.99-14.16 2.42-14.79a1.29 1.23 61.5 0 1 .9.29c5.03 4.19 5.96 15.51-3.32 14.5Z"/><path fill="#60e500" d="M448.71 948.75q-6.04-2.9-10-8.42.22-4.45 1.78-7.05c2.06-3.43 10-4.63 11.84-.35q3.76 8.72-3.62 15.82Z"/></svg>