<?xml version="1.0" encoding="utf-8"?>
<!-- Generator: Adobe Illustrator 22.0.1, SVG Export Plug-In . SVG Version: 6.00 Build 0)  -->
<svg version="1.1"
	 id="Capa_1" mapsvg:geoViewBox="-169.110266 83.600842 190.486279 -58.508473" xmlns:dc="http://purl.org/dc/elements/1.1/" xmlns:mapsvg="http://mapsvg.com" xmlns:rdf="http://www.w3.org/1999/02/22-rdf-syntax-ns#" xmlns:svg="http://www.w3.org/2000/svg"
	 xmlns="http://www.w3.org/2000/svg" xmlns:xlink="http://www.w3.org/1999/xlink" x="0px" y="0px" viewBox="0 0 500 500"
	 style="enable-background:new 0 0 500 500;" xml:space="preserve">
<style type="text/css">
	.st0{fill:#EEEEEE;}
	.st1{fill:#FFFFFF;stroke:#000000;stroke-width:0.75;stroke-miterlimit:10;}
	.st2{fill:none;stroke:#000000;stroke-width:0.5;stroke-miterlimit:10;}
	.st3{font-family:'ArialMT';}
	.st4{font-size:16px;}
</style>
<rect class="st0" width="500" height="500"/>
<g>
	<path id="AW" class="st1" d="M252.2-185.7v0.2l-0.4-0.1l-0.5-0.5l-0.5-0.4l0.1-0.4l0.1-0.1l0.5,0.4l0.5,0.6L252.2-185.7z"/>
	<path id="BQ" class="st1" d="M265-183.3l-0.4,0.9l-0.2-0.4v-0.7l-0.2-0.3l-0.3-0.2l-0.2-0.3v-0.4l1.2,0.5L265-183.3L265-183.3z"/>
	<path id="BR" class="st1" d="M349.6-101.2l0.3,0.1l0.5,0.1l1.2,0.3l1.5,0.4l0.5-0.1l0.3-0.3l0.1-0.6l0.1-0.5l-0.4-0.5l-0.5-0.5
		l-0.4-0.6l-0.5-0.2l0.1-0.3l0.4-0.4l0.4-0.2l0.2-0.2l0.2-0.8l0.1-0.2h0.2h0.2l0.4,0.2l1.3,0.6l0.5-0.1l2.1-0.2l0.3-0.4l0.5-0.1
		l0.7-0.4h0.3l0.3,0.1l0.4-0.1l0.5-0.4h0.2l0.1,0.4l0.4,0.4l0.4,0.4l0.2,0.1l0.6-0.1l0.4,0.1l0.2,0.4v0.3l0.3,0.3h0.4l0.2,0.1
		l0.4,0.2l0.3,0.4l0.6,0.3l1.1,0.4h0.5l0.5,0.1l0.3,0.1l0.3-0.2l1.1-0.6l0.5-0.4l0.4-0.3l0.3-0.3l0.2-0.1l0.1,0.2l0.1,0.2l0.4,0.1
		l0.9,0.3l0.5,0.1l0.5-0.2l0.5-0.4l0.3-0.1l0.4,0.4l0.3,0.5l0.2,0.2l0.4-0.1l0.7,0.1l0.5,0.2h0.4l0.5-0.2l0.3-0.5l0.6-0.4l0.6-0.4
		l0.4-0.5l0.5-0.8l0.2-0.4v-0.5l0.7-1.6l0.3-0.3l0.2-0.5l0.3-0.6v-0.5l0.2-0.5l0.5-0.5l0.4-0.3l0.5-0.7l0.4-0.6l0.9-1.4l0.1-0.5
		l0.4-0.3l0.1-0.4l0.4-0.4l0.4-0.3l0.2-0.5l0.3-0.5l0.6-0.4l0.3-0.2l0.7-1.3l0.1-0.5h0.6l1,0.6l0.8,1l1.1,3.2l0.2,3l0.5,1.5l1.3,3.2
		l0.1,0.6l0.2,0.7l0.4,0.7l0.5,1.3v0.3L395-103h0.5l0.4,0.2l0.3,0.8l0.4,0.5l0.5,0.7l1.2,0.3l0.9,0.1l1,0.5l0.7,0.5l0.5,1.8
		l-0.2,1.2l0.1,0.8l-0.3,0.3l-0.8,0.5l-0.2,0.3l-1.7,1.4l-0.4,0.6l-0.9,0.9l-0.9,1.6l-1.4,1.5l-0.5,0.4l-0.7,0.1l-0.5,0.3l-1,1.3
		l-1.4,0.4l-0.1,0.7l-0.8,1.6l-0.7,0.9l-0.5,0.3l-1.1,1.6l-0.2,0.7v1.3l-0.7,0.7l-0.8,0.5l-0.1,1.1l-0.4,0.4l-0.3,0.3l-1.6-0.3
		l-2.4,1.2l-0.8,0.3l2.7,0.1l0.9,0.6l1.9-0.4l2.3-1.4l0.9-0.3l1.8-1l0.7-0.6l1.4-0.8l0.3-0.4l0.7-0.4l0.4,0.5v0.3l-0.6,0.5l0.2,0.4
		l0.4,0.5l0.2,0.6l0.1,0.5l0.3,0.9l0.8,1.2v0.4l-0.1,0.5l0.4,0.5l0.4,0.3l1.4,1.3l1.1-0.7l0.6-0.2l0.5-0.3l0.9-0.2l0.7,0.3l1.4,0.5
		l1-0.5l2.1-1l-0.6,1.8l-0.5,1.6l-0.4,0.6l-0.4,1.8l-0.4,0.5l-0.3,0.5l0.5-0.2l-1.3-0.2l0.5-0.7l0.4-1.2l1.5-3.2l0.5-0.3l1.3-0.4
		l2.2-2.6h0.8l0.5,0.6l0.5,0.4l0.1-0.7l0.7-0.3l-0.8-0.4l-0.1-0.4l-0.1-0.5L411-77l-0.3-0.6l1.1-0.8l-0.1-0.6l0.4-0.5l0.5-0.5
		l0.5-0.3l0.1-0.5l0.4-0.2l0.3-0.1l0.5,0.5l0.6-0.5l0.5-0.2l0.3,0.1l0.4,0.3l0.4,0.1l0.3-0.1l0.7-0.4l0.6,0.6l0.3,0.1l-0.1-0.4
		l-0.2-0.3l0.2-0.3l0.3-0.2l1,0.2l0.5,0.3l0.5,0.5h0.8l0.6-0.1l0.4,0.3h0.6l0.3,0.5l1,0.6l0.2,0.5l0.7,0.2l0.7,0.3l0.7,0.1l0.8-0.1
		v0.5l0.5,0.2l0.7-0.1l0.5,0.6l1.4,0.5l1,0.7l0.6-0.1l0.7,0.2l0.8,1.6l0.2,1.2l0.4-0.2l0.4-0.5l0.5-0.9l0.8-0.3l0.4,0.4l0.8,0.5
		l0.7,0.6l0.3,0.4l0.5,0.1l-0.5,0.5l0.5-0.1l0.5-0.4l0.5,0.7l0.4,0.8l0.1,0.8l-0.4,0.5l-0.3,0.3v0.4l-0.4,0.1l-0.4,0.2l0.5,0.5
		l0.3,0.4l0.6-1.1l0.5-0.3l0.6-0.2l0.4,0.7l0.1,0.7l-1.1,0.3v0.5l-0.3,0.4l-0.2,0.4l-0.2,0.8l-0.2,0.6l-0.6,2.9v0.5l0.7-0.5l1.4-1.4
		l0.5-1.5l0.5-1.5l0.6-0.5h0.4l0.5,0.2v0.5l-0.1,0.3l-0.6,0.7l-0.3,0.5l0.3,0.5l1.4-1.3l0.6-0.5l0.5,0.1l1-0.5l2.1-0.1l0.2-0.6
		l0.5-0.3l1.2,0.1l2.3,0.6l0.8,0.5l1.2,0.5l0.6,0.5l2.6,1l1.9,0.1l0.9-0.5l1.2,0.5l0.6,0.5l1.3,0.3l1.3,0.2l0.9-0.4l2.4-0.1l3.1-0.5
		l1.8,0.1l2.1,0.4l1.4,0.9l1.3,0.5l0.7,0.5l1.2,0.5l2.5,1.4l0.9,0.8l1.6,1.2l1.6,0.5l0.9,1.2l0.7,0.5l1.7,2l1.9,1.4l1.3,1.4l2.4,0.9
		l1,1.5l1.7,0.2l0.7,0.2l0.9,0.6l1.2,0.4l1.5-0.1l1.7,0.1l1.4-0.3l3.2,0.5l0.5,0.3l0.7,0.6l1.2,2.4l0.7,2.6l0.5,2l0.8,1.6l0.5,3
		l0.4,0.9v0.7l0.4,0.2l0.2,2l-0.1,0.8l-0.3,1.1v0.5l0.1,0.3l-0.2,0.5v0.5l0.4,0.9v0.7l-0.5,0.9l-0.5,2.4l-1.4,4l-1.4,2.3l-2,2.3
		l-1.3,1.3l-0.5,0.1l-0.5-0.3l0.4,0.6l-0.3,0.5l-1.3,1.7l-1.3,1.2l-1.4,2l-0.1,0.1L500.9-6l-1,0.6l-1.3,1.2l-1.1,1.7l-0.3,0.3
		l-0.5-0.1v0.9l-1,1.4l-0.2,0.2v-0.5l0.2-0.3l0.1-0.4v-0.4l-0.3,0.5l-0.6,1.1l0.2,0.8l-0.5,1.2L493,5.6l-2.1,2.8l-0.5,0.9l-1.7,2
		l-1.2,0.9h-0.4l-0.4-0.1l-0.2-1.5l-1-0.9l-0.3-0.2l-0.4,1l-0.4,0.3l-0.5,0.1l0.5,0.5l0.2,0.5l-0.5,1v0.9l-0.9,1l-0.5,0.7l-0.3,0.9
		l-0.2,0.8l0.5-0.3l0.2,0.2l0.2,0.3l-0.1,0.4l-0.3,0.7l0.1,1.8l-0.1,0.5l0.3,0.5l0.5-0.9l0.2,0.2l-0.9,4.9l0.4,2.2l0.1,2.5l0.4,2.4
		l0.5,2.2V35l-0.6,2.5l-0.8,2.5l-0.5,2.1l-0.3,2.2l-0.3,1.1l-0.1,1.1l0.4,2.6l0.1,0.5l-0.9,1.2l-1,0.5l-0.5,0.5l-1.3,2.1l-0.7,3.1
		v1.4l0.4,3.4l-0.3,1.4l-0.4,0.9l-0.5,0.6l-1.2,0.7l-1.1,1.8l-0.5,1.9l-0.7,0.7l-0.2,1.1l-0.6,1.2l-1.5,1.7l-1,0.5l-0.5,0.5l-0.3,1
		l-1,1.7l-0.7,2.2l0.2,0.7v0.1l0.3,2.5l-0.1,0.6l-0.9,0.7l-3.5,1.3l-0.9,0.5l-2.1,2.3l-0.1,0.5l0.1,0.7l0.4,0.5l-0.4,0.5l-0.5,0.8
		l-0.6-0.1H456l-1.9,0.3l-1-0.1l-0.5-0.2l-0.5-0.4l-0.2-0.5l0.3-0.6l-0.2-0.4h-0.5l-0.5,0.2l-0.1,0.4v0.3l0.2,0.4l0.1,0.5l-0.3,0.5
		l-1.1,0.1l-1.3,0.4l-1.5,0.2l-1.3,0.3l-0.5-0.4l0.5-0.2l0.8,0.1l0.9-0.3l-0.2-0.4l-1.3-0.5l-1.4,0.3l-0.7,0.5l-1.7-0.1l-2.1,0.5
		l-0.4,0.5l0.1,0.8l0.4,0.2l0.4,0.4l-0.4,0.4l-0.4,0.2l-2.2,0.4l-2,1.6l-0.8,0.2l-0.7,0.7l-0.1,0.6l-0.3,0.4h-0.5l-1.1-0.4h-1.4
		l-1,0.3l-5,2.6l-1.8,1.1l-2.1,2.2l-3.4,2.4l-1.8,1.4l-0.4,0.4h-0.3l-0.5,0.3l0.2,0.3h0.4l-0.2,0.8l-0.7,0.5l-1.4,1.5l-0.3-0.1
		l0.5-0.8h-0.6l-1-0.3l-0.5,0.4l0.3,0.8l-0.4,0.4H410l-0.6-0.1l-0.6-0.5l0.3,1l1.4,0.3l0.5,0.3l0.2,0.4l-1.1,1.8l-0.9,0.3l-0.1,0.3
		h0.5l0.3,0.5l-0.4,2.1l-0.5,0.4h-0.3l-0.3,0.4l0.4,0.6l0.4,0.5l-0.1,1l-0.2,0.8v0.7l0.5,1.4l0.2,1.5l0.2,0.5l0.1,0.6l-0.3,0.5
		l0.2,0.9l-0.5,1.5l0.3,2.3l-0.1,2.2l-0.2,1.2l-0.4,0.9l-0.8,1.2v1.2l-1.7,1.1l-1.9,1.4l-1.7,1.8l-1.9,2.5l-2.2,3.8l-2,5.5l-2.4,4.2
		l-1,1.5l-1.4,1.7l-1.7,2l-2.3,2l-2.5,1.8l-0.9,0.8l-0.9,1.1l-0.2-0.5l0.2-0.7l-0.1-0.5v-0.7l0.5-0.2l0.8,0.5l0.4-0.4l0.3-0.3
		l0.9-0.2l1.8-1.9l1.4-0.7l0.7-1.2l0.1-0.6v-1.3l0.5-0.4l1,0.1l0.2-0.4l-0.1-0.5l0.2-0.9l1.3-0.8l0.6-1l-0.2-2.4l0.3-0.1l0.5,0.4
		l0.3-0.2l0.3-1.1l-0.1-0.5l-0.6-0.2l-2.2,1.2l-0.7-0.1l-0.1-0.9l-1.1-0.5l-0.5-0.8l-0.1-0.5l-0.4-0.2v0.9l0.1,0.9l1,1.1l-0.3,0.5
		l-0.5,0.5l-0.3,1.1v1.4l-0.3-0.5l-0.4-0.3l-0.1,1.5l-0.6,0.5l-0.2,0.5l0.2,0.6l-0.4,0.5l-1.6,1.3l-1.6,0.8l-0.4,0.4l-0.2,0.9
		l-0.3,1l-0.7,0.8l-0.5,1.7v0.7l0.2,1.1l0.3,0.7l-0.5,0.5l-0.6,0.9l-0.5,1.1l-1.3,3.9l-1.1,2.3l-0.8,1.2l-1.2,1.3l-3.4,3.1h-0.2
		l-0.5-0.3l-0.5-0.3l-0.1-0.2l-0.1-0.3l0.1-1.1v-3l0.2-0.5l0.2-0.4l0.6-0.5l0.6-0.7l0.7-1l0.6-0.7l-0.3-0.5l-0.5-0.5l-1-0.4l-1-0.7
		l-0.8-0.9l-0.4-0.9l-0.4-1l-0.4-0.8l-0.1-0.4l0.3-0.2L370,169l-0.4-0.4l-0.5-0.2l-0.9-0.3l-0.9-0.5l-1.2-1l-0.8-1.1l-0.4-0.7
		l-0.5-0.5l-2.3-0.8l-1.1-1l-0.5,0.3l-0.6-0.3l-0.6-0.5l-0.2-0.4l-0.3-0.4l-0.3-0.5l-0.2-0.5l-0.6-0.7l-0.8-0.8l-0.4-0.2l-0.2,0.1
		l-0.2,0.3l-0.1,0.3l-0.3,0.2l-0.4,0.4l-0.4,0.5l-0.5,0.3l-0.6,0.1h-0.4l-0.1-0.2v-0.6l0.2-1.4l-0.4-0.5l-0.5-0.5l-0.5-0.7l-1.7-1.6
		l-2.3-2.3l-0.8-0.7l-0.8-0.1l-0.7,0.1l-0.6,0.3l-0.5,1.1l-0.2,0.2h-1.3l-1.3-0.2l-0.5-0.6l0.4-0.5l1.2-0.9l0.6-0.8l0.1-0.7l0.5-0.6
		l1-0.5l1.2-1.1l1.3-1.5l0.8-1.2l0.3-0.7l0.5-0.5l0.7-0.4l0.6-0.8l0.5-1.3l0.7-1l0.9-0.7l0.5-0.6l0.1-0.5l0.3-0.3l0.5-0.2l0.2-0.3
		v-0.4l0.1-0.3l0.3-0.2l0.4,0.1l0.5,0.3h0.4l0.1-0.4l-0.2-0.4l-0.5-0.5l0.2-0.5l1.1-0.7l0.8-0.3l0.5-0.5l0.5-0.7l0.8-0.5l1.1-0.3
		l0.3-0.3v0.1l0.2-0.3l0.6-0.2l0.4-0.4l0.1-0.5l0.2-0.5l0.4-0.5l0.4-0.2l0.5,0.1l0.5-0.2l0.4-0.5l0.5-0.2h0.5l0.3-0.1l0.9-0.2
		l0.5-0.4l0.5-0.8l0.4-0.3l0.4,0.2l0.5-0.3l0.8-0.7h0.2l0.6-0.4l0.6-1.2l0.3-0.8l-0.1-0.6l-0.2-0.5l0.1-0.7l0.2-1.9l0.1-0.8l0.4-0.5
		v-0.5l-0.5-1.2l-0.5-1.1l-0.3-1.8l-0.2-0.6l-0.5-0.2l-0.5-0.5l-0.5-0.1l-0.3-0.2l-0.3-0.2l-0.4,0.1l-0.4,0.4h-0.6l-0.4,0.2
		l-0.5,0.3l-0.5-0.2l-0.3-0.3h-0.6v-1.2l1.1-1.8l0.3-0.8l-0.1-0.5l0.3-1.6l0.7-2.8l0.3-1.8l-0.3-0.9v-0.3l0.4-0.5l0.2-0.2l-1-0.6
		l-0.5-0.5l-0.7-0.5l-0.7-0.4l-0.4,0.2l-0.4,0.2l-0.7,0.3l-0.8,0.5l-0.5,0.2l-0.7,0.2l-0.8,0.2l-0.7-0.1l-0.6-0.1l-0.4-0.4l-0.2-0.7
		v-0.6l-0.1-0.9l-0.5-0.5l-0.2-0.4v-0.5l0.1-0.5l0.1-0.4l-0.1-0.5l-0.2-0.4l0.1-0.5l-0.1-0.8l-0.3-0.5l-0.2-0.5v-0.5l-0.2-0.5v-0.6
		l0.2-0.5l0.1-0.5l-0.2-0.5l-0.5-0.3l-0.4-0.6l-0.1-0.8l-0.4-0.5l-0.4-0.4h-0.5l-0.6-0.2h-0.5h-0.9l-0.5-0.1l-0.2-0.3l-0.5-0.4
		l-0.4-0.7l-0.4-0.2l-0.5,0.2l-0.2,0.3l-0.2,0.4l-0.4,0.5h-0.5l-0.5,0.3h-0.5l-0.7,0.1l-0.7-0.2l-0.8-0.3l-0.7-0.2l-0.7,0.2
		l-0.5-0.2l-0.6-0.1l-0.7-0.1l-0.5-0.5l-0.6-0.3l-0.4,0.1l-0.5,0.3l-0.5-0.1l-0.5-0.2l-0.2-0.5l0.1-0.4l0.1-0.4l0.2-0.5l-0.1-0.5
		l0.1-0.5l0.1-0.4l0.1-0.5l-0.1-0.4v-0.5l-0.1-0.4l-0.1-0.5l0.3-0.6l0.3-0.5l-0.2-0.5l0.1-0.3l0.2-0.5l0.3-0.6v-1.1l-0.2-0.6
		l-0.3-0.2l-0.1-0.2l0.1-0.3l-0.1-0.3l-0.1-0.3l0.1-0.3l-0.2-0.5l-0.4-0.1l-0.1-0.1l-0.1-0.5l-0.1-0.6l0.1-0.5l-0.2-0.4l-0.3-0.3
		l-0.3-0.5l-0.3-0.4l-0.1-0.5l-0.2-0.5l0.5-0.1l0.2-0.4l0.4-0.5l0.5-0.1l0.5-0.2l0.2-0.4l-1.3-1.2l-0.8-0.7l0.5-1l0.7-1.6l0.7-1.5
		l0.5-1.2l0.2-0.2l0.5-0.1l-0.1-0.6v-0.4h-0.4l0.5-1.4l0.6-2.1l0.5-1.5l0.2-0.3l0.4-0.1l0.1-0.2l-0.5-0.3l-0.3-0.5l-0.5-1.4
		l-0.9-2.2l-0.1-0.8l-0.4-0.5l-0.5,0.2l-0.6-0.2l-1.6-1.2l-1.1-0.6l-0.4-0.4l-0.2-1.2l-0.4-1.4l-0.2-1.6l0.1-0.4l0.9-1.3v-0.6
		l0.1-0.5v-0.5H336l-0.4,0.2l-0.5,0.2h-0.3l-3.2-0.1L328,37l-3-0.1l-2.6-0.1l-0.1-1.1l-0.2-1.8l-0.1-1.3l-0.2-2l-1.1-1.3l-1.2-1.4
		l-0.4-0.4h1.4h1l-0.2-3.7l-0.3-0.4l-0.3-1.2l-0.2-0.6l-0.5-0.5l-0.1-0.6l0.1-0.4l0.3-0.3l0.2-0.6l-0.1-0.6l-0.3-0.6l-0.4-0.5
		l-0.6-0.4l-1-0.6l-1.4-0.8l-1.3-0.5l-0.4,0.1l-2.2,0.2l-0.7,0.1l-0.5-0.1H310l-0.6-0.5l-0.5-0.5l-1.2-1.3l-0.2-0.6l-0.5-0.2
		l-0.6,0.1l-0.7-0.1l-1.4-0.5l-1.3-0.5h-0.6l0.1,1l-0.9-0.8l-0.5-0.4l-0.2-0.5l-0.2-0.6h-0.2l-0.5,0.1l-0.5,0.3l-0.7-0.2l-0.9-0.5
		l-0.5-0.5L297,9.1l-0.8-0.4l-0.7-0.1l-1.2,0.5l-0.9-0.2L292,8.7l-1.4-0.3l-0.5-0.9L289.8,7l-0.7-0.4l-0.6-0.5l-0.7-0.6l-0.3-0.1
		l-0.6-0.2l-0.6-0.3l-0.1-0.5L286,3.9l-0.1-0.2L285.5,3l-0.2-0.1L285.1,3l-0.2,0.1L284.7,3V2.7l0.1-0.5l-0.3-0.5L284,1.2l-0.3-0.5
		V0.2l-0.1-0.4l-0.3-0.2l-0.1-0.4v-0.5l0.2-0.5l0.4-0.6l-0.1-1l-0.5-1.4l-0.3-1l-0.1-0.6l0.1-0.5l0.3-0.5l0.6-1.1l0.1-0.8l-0.2-0.9
		v-0.7l0.2-0.5l-0.2-0.6l-0.5-0.6h-0.3l-0.5,0.2l-0.5,0.5l-0.6,0.1l-0.5-0.3l-1.6,0.1l-2.6,0.3l-1,0.4l-0.6,0.2l-0.7,0.1l-1.2,0.5
		l-2.9,2.3l-0.6,0.4l-0.7,0.1l-0.4,0.3l-0.6,0.3l-1.3,0.9L266-5.5l-0.5,0.6H265l-0.4-0.2L263.4-5l-0.6,0.2l-0.6,0.6L261.5-3
		l-0.4,0.4l-0.6,0.3L259.8-2l-0.9,0.4h-0.5L258-1.5l-0.4-0.2l-0.1-0.5L257-2.5l-1.2-0.1l-1.7-0.3l-1.6,0.1h-0.9h-0.7L249.6-3h-0.9
		l-0.8,0.4l-1.2,0.5L246.2-2h-0.4l-0.4-0.1l-0.5-0.3L244.3-3l-0.5,0.3l-0.3,0.2v-1.3v-2v-1.7v-1.4v-1.6v-1.1l0.4-0.5l0.2-0.5
		l-0.3-0.6l0.1-0.6l0.2-0.5l0.2-0.4l-0.5,0.2l-0.2,0.1l-0.3,0.3l-0.6,0.5l-0.5,0.5l-0.5,0.4l-0.6,0.7l-0.5,0.4l-0.5,0.3l-0.9,0.9
		l-0.8,0.2l-2.1,0.1h-2.2h-2h-0.3v-0.7l0.1-0.5l-0.6-0.5l-0.1-0.6l-0.2-0.5l-0.2-0.5l-0.5-0.4l-0.6-0.2l-1.1-0.3l-1.6-0.4h-1.5h-1.4
		l0.9-1.1l0.9-1.1v-1l-0.7-0.8l-0.4-0.5l-0.6-0.7l-0.7-0.5L223-21v-0.6l-0.1-0.3l-0.3-0.2l-0.3-0.3l-0.4-0.3l-0.5-0.4v-0.4l-0.2-0.4
		l-0.3-0.5v-0.4l-0.3-0.5l-0.3-0.4L220-26l-0.5-0.4v-0.3l0.3-0.2l0.1-0.4v-0.4l-0.4-0.2L219-28l-0.5-0.6l-0.4-0.4l-0.3-0.2l-0.2-0.2
		l0.2-0.2l0.2-0.2l0.1-0.4l-0.1-0.4v-0.3l0.3-0.1l0.3,0.1l0.3-0.2l0.4-0.1l0.5-0.1l0.2-0.2v-0.4l-0.3-0.7l-0.3-0.3l-0.1-0.5l0.2-0.8
		l0.2-0.5l0.5-0.5l1.4-1.2l1.4-0.8l0.6-0.1l0.5-0.3l0.3-0.5l0.1-0.5l-0.1-0.5l-0.3-0.6l-0.3-0.8l-0.2-0.5l0.2-0.5l0.4-0.7l0.7-1.1
		l0.6-1.2l0.1-0.4l0.1-0.7L226-47l0.2-0.8l-0.1-0.3l0.2-0.3l0.5-0.2l1-0.2l0.7-0.5l1.1-0.8l0.9-0.9l0.7-0.3l1.4-0.8l0.7-0.5l0.3-0.2
		l0.7-0.4l1.4-0.1l1.1-0.1l0.6-0.3l0.9-0.1l0.6-0.3h0.7l1.3-0.3l0.5-0.5l0.4-0.5l0.5-0.5l0.6-0.1l0.6,0.1h0.8l1-0.1l0.5,0.4l0.2,0.4
		l0.5,1.6h0.5l0.5-0.1l0.5,0.4h0.4l0.3-0.2l0.1-0.5l0.1-0.3l0.3-1.5l0.5-2.5l0.5-2.3l0.5-2.5l0.5-2.6l0.5-2.7l0.4-2.2l0.4-1.9
		l0.2-1.2l0.4-1.5l0.1-1.4l0.1-0.4l-0.1-0.4l-0.3-0.5v-0.2v-0.3v-0.3l-0.3-0.3l-0.3-0.2l-0.2-0.2l-0.1-0.3l-0.2-0.3l-0.1-0.4
		l-0.2-0.3l-0.1-0.4l0.2-0.3l0.1-0.4l-0.1-0.3l-0.1-0.4l-0.2-0.4l-0.3-0.2l-0.6-0.2l-0.6-0.5l-0.7-0.5l-0.9-0.9l-0.2-0.5v-1.2v-1.3
		l0.1-2v-1l0.5-0.1h0.5l0.5-0.1l0.5-0.1l0.4-0.2l0.3-0.2l0.4-0.1h0.3l0.3-0.2l0.3-0.2l0.3-0.1l0.5-0.1l0.4,0.3l0.2,0.3l0.3,0.1h0.3
		h0.2l0.2,0.2h0.2h0.3h0.3l0.1-0.1v-0.1l-0.1-0.2l-0.1-0.2l0.1-0.3V-93v-0.5l-0.3-0.3l-0.3-0.5l-0.3-0.4L254-95l-0.4-0.1l-0.3,0.2
		H253l-0.2-0.2h-0.4l-0.4-0.1l-0.4-0.1l-0.7,0.1l-0.3-0.1h-0.4l-0.5,0.2V-97v-1.8v-1.3h0.4l0.5-0.2h0.7l0.5-0.3h0.3l0.5,0.1l0.5,0.3
		h0.5h1.4h1.6h1.8h1.8h1.5h0.5l-0.3-0.5l-0.4-0.5l0.1-0.5l0.2-0.5l0.2-0.2l0.5,0.3l0.4,0.7l0.4,0.5l0.4,0.3h0.4l0.5-0.1l0.5-0.2
		l0.8-1l0.8-0.8l0.4-0.3l0.5-0.3l0.4-0.1h0.5l0.4,0.3l0.3,0.4l0.9,1.4l0.6,1.1l0.2,0.6v1.6v1.4l0.1,0.2l0.1,0.1l1.4-0.4l2,1.7
		l1.4,1.3l0.6,0.5l0.4,0.1l0.8-0.1l1-0.2l0.5-0.2l0.5-0.4l0.9-0.5l0.7-0.3h0.3l0.3,0.1l0.6,0.4l0.4,0.6l-0.3,0.7l0.1,0.5h0.6
		l0.5-0.7l0.4-0.6l0.7-0.5l0.7-0.7l0.5-0.6l0.6-0.4l0.9-0.5l0.7-0.3h0.6l0.5-0.3l0.6-0.5l0.5-0.5l0.3-0.2l0.6,0.1l0.7-0.1l0.7-0.5
		l0.7-0.7l0.4-1.2l0.3-1l0.2-0.2l0.3-0.2l0.3-0.1l0.7-0.1l1.3-0.5l0.8-0.5l0.8-0.1l0.3-0.2l0.3-0.5l0.2-0.9l-0.1-0.5l-1.4-0.2h-1
		l-1.6-0.2l-0.7-0.2l-0.2-0.2v-0.2l0.2-0.4l0.2-0.7l-0.2-1l-0.8-1.5l-0.5-1.5l-0.1-1.1v-1.1l0.1-0.7l-0.5-0.5l-2.3-1.8l-0.8-0.8
		l-0.3-0.6l-0.9-1.1l0.2-0.4h0.5l0.5,0.3l0.4,0.6l0.3,0.1h0.4h2.1l0.5,0.1l0.3,0.2l0.3,0.3l0.4,0.7l0.4,0.4h0.8h1.3l0.7-0.1l0.5,0.2
		l0.5,0.2l1.1-0.4h0.3l0.4,0.2l1.2,1.3l0.7,0.5l0.5,0.7h0.8l0.7-0.6l0.2-2l0.2-0.6l0.4-0.2h0.5l0.5-0.4l0.5-0.5l0.5-0.2l2,0.5
		l0.5-0.2l2-0.5l2-0.7l0.5-0.9l0.8-0.3l0.6-0.6l0.5,0.1h0.8l0.5-0.1l0.3-0.1l0.3-0.3l0.5-0.8l0.5-0.4l0.7-0.4l0.5-0.4l0.4-0.5
		l0.2-0.5v-0.4l-0.3-0.6l-0.3-0.6l-0.3-0.2l-0.3-0.1l0.7-0.2l0.5,0.2h0.9l0.4-0.2l0.5,0.1l0.7-0.5l0.5,0.2h0.3l0.3,0.4l0.2,0.4
		l0.6,0.5l-0.1,0.7l-0.1,0.6l-0.1,0.7v0.5l-0.3,0.5l-0.5,0.5l-0.1,0.2l-0.1,0.3l0.3,0.2l0.5,0.1h0.6l0.5,0.2h0.5l0.6,0.5l0.4,0.3
		v0.2L327-120l-0.1,0.5l0.2,0.3l0.2,0.2l0.5,1.1l0.3,0.4l0.2,0.1l0.1,0.2l-0.2,0.4l-0.2,0.5l-0.5,0.5l-0.1,0.4l-0.4,0.3l-0.9,0.6
		l0.2,1v0.5v0.4l-0.4,0.5l-0.5,1.4l-0.2,0.7l-0.2,1.7v0.5l0.3,0.7l0.5,1.7l0.3,0.3l0.7,0.4l0.1,1.2l-0.1,1.2v0.5l0.1,0.2l0.4,0.1
		l0.3,0.2v0.4v0.4l0.5,0.2l0.5,0.1l0.5,0.5l0.8,0.8l0.3,0.2l0.2,0.4l0.6,0.6l1,0.3l1,0.3l0.4,0.5l0.5,0.4h0.3l0.3-0.1l0.5-0.3
		l0.4-0.3h0.6h0.7l0.1-0.2l0.1-0.3l-0.2-0.7l0.3-0.2l0.6-0.1l0.1-0.4l0.1-0.2l0.2-0.3h0.2l0.3,0.1l0.4,0.1l0.5,0.1l0.3,0.3h0.4h0.5
		l0.2-0.2l0.1-0.3l0.1-0.5h0.3l0.5-0.1l0.6-0.3h0.8h0.7l0.4-0.2l0.4-0.4l0.6-1l0.4-0.3l0.4-0.2h0.4l0.6-0.2l0.5-0.3l0.2,0.1l0.5,0.5
		l0.2,0.1h0.3l1,0.3l0.5-0.1l0.5-0.2l0.5-0.1l0.4,0.1l0.3-0.2L349.6-101.2L349.6-101.2z M396.6-101.1l-0.7,0.4l-0.5-0.1l-0.4-0.9
		l0.1-0.7l0.5-0.3l0.5,0.1l0.2,0.1l0.4,1.3L396.6-101.1z M397.7-89.5l-0.8,0.3l-0.2-0.3v-1L397-91l1.1-0.2l0.1-0.2l0.3-0.1l0.2,0.4
		v0.5L397.7-89.5L397.7-89.5z M395.6-87.6l-0.1,1.1l-1.4-0.5l0.1-1.2l0.6-0.4l0.5-0.6l0.2-0.7v-1l0.2-0.2l0.2-0.1l0.2,0.1l0.1,1.5
		l0.1,0.9L395.6-87.6L395.6-87.6z M400.8-88.6l0.3,0.4l-1.1,1.5l-0.6,0.3l-0.6,0.1l-0.8-0.5h-1.4l-0.5-0.1v-0.7l0.5-0.7h1.1l1.9-0.6
		L400.8-88.6L400.8-88.6z M403.1-85.7l-2,0.3l-0.9-0.4l0.2-0.4l0.7-0.5l0.8-0.4l0.7-0.2l0.8,0.2l0.2,0.5l-0.1,0.5L403.1-85.7
		L403.1-85.7z M393.9-85.5l-2.1,1.4l-0.7-0.5l-0.2-0.3l0.1-0.3v-0.1l0.3-0.5l1.2-0.5l0.5-0.1l0.7,0.1l0.1,0.4L393.9-85.5L393.9-85.5
		z M401.6-84.8h0.7l1-0.2l0.6-0.4l0.7-0.1h0.7l2.5,0.4l1.5,0.1l0.5,0.1l0.5,0.2l0.4,0.2l0.1,0.5l-0.4,0.6l-0.3,0.7l-0.3,1l-0.2,0.2
		l-0.4-0.1l0.2,0.9l-0.1,0.4l-0.2,0.4l-0.4,0.7l-0.6,0.9l-0.2,0.2l-0.5,0.3l0.1,0.2l0.1,0.4l0.2,0.4l-0.2,0.5l-0.7,0.7l-0.5,0.2
		l-0.4,0.1l-0.4-0.1l-0.6-0.7l-0.1,0.5l-0.2,0.5l-0.2,0.3h-0.8l-0.5-0.3l-0.7-0.4l0,0.9L402-74l-0.5,0.2l-0.7,0.1l-0.5,0.3l-0.8-0.2
		l-0.7-0.5h-0.5l-0.4,0.4l-1.7,0.1l-0.8,0.4l-0.5-0.1l-0.7-0.7l-0.1-0.5l-0.5-0.9l-0.4-1.1l-0.3-1l0.3-0.8h0.5l0.5,0.1l0.1-0.1v-0.3
		l-0.1-0.3h-0.7l-0.5-0.5l-0.1-0.8l0.1-1.6l0.1-0.4l0.4-0.5l0.1-0.5l-0.1-0.5l0.2-0.8l0.4-0.7l1.4-0.9l1.6-0.3L401.6-84.8
		L401.6-84.8z M384.9-75.7l-0.8,0.2l1-1.9l0.9-0.9V-80l1-1.5l0.9-0.6l1.3-0.2l0.7,0.9l-0.9,2.7h-0.3l-1.2,1.4l-1.4,1L384.9-75.7z
		 M437.7-76.6l-0.5,0.4L437-76l-0.4-0.2l0.1-0.2h0.1l0.1-0.6l0.7,0.1L437.7-76.6L437.7-76.6z M440.6-64.3l-0.7,0.7l0.3-0.9l-0.1-0.6
		l0.1-0.5l0.5-0.5l0.2-0.1v0.5v0.2L440.6-64.3L440.6-64.3z M484.4,13.2l-0.3,0.2V13l0.8-0.6l0.1-0.7l0.4,0.4l0.1,0.4v0.2L484.4,13.2
		L484.4,13.2z M483.1,16.1l-0.3,0.5l-0.3-0.1l-0.1-0.3l-0.2-0.3l0.1-0.3l0.2-0.1h0.5L483.1,16.1L483.1,16.1z M443.4,93.2l0.3,0.2
		h-0.5l-0.5,0.2l-0.7,0.2l-0.3-0.4l0.6-0.5l0.3-0.4l0.2,0.1l0.2,0.3L443.4,93.2L443.4,93.2z M434.9,99.3v0.5l-0.4-0.2l-0.8,0.2
		l-0.3-0.4l1.2-1.4l0.3,0.2l0.2,0.3l0.1,0.4l-0.1,0.3L434.9,99.3L434.9,99.3z M409.6,120.3l-0.2,0.1l-0.5-1.1l1-1l0.4,0.5l-0.3,0.8
		l-0.3,0.5L409.6,120.3L409.6,120.3z M410.4,131.9l-0.5,0.4l0.1-2l0.3-0.7l0.3-0.5l0.4-0.3l0.3,0.5l-0.3,1l-0.6,1.2L410.4,131.9
		L410.4,131.9z"/>
	<path id="CL" d="M272.7,86.2l1.4,1.4l-0.6,2l-1,3.2l-0.7,2.5l-0.1,0.4l-0.2,0.5l-1.6,0.7l-2.3,1l-1.3,0.5l-1.5,0.7l-0.4,0.5
		l-0.5,0.3l-0.5,0.4l-0.2,0.5l-0.5,0.3l-0.5,1v0.7l0.3,0.5l0.5,0.2l0.2,0.6l0.2,0.5l0.4,0.4l-0.1,0.3l-0.3,0.2l-0.5,0.1l-0.4,0.6
		l-0.4,1.5l-0.1,0.5l0.5,1.4l0.3,0.7l0.6,2.7l0.1,0.7l-0.9,1.1l-0.4,0.6l-0.1,0.5v0.5l0.1,0.4l0.7,1.3l0.8,1.2l0.5,0.6v0.8l-0.2,0.5
		l-0.5,0.2l-1,0.4l-0.5,0.5l-0.5,0.1L261,122l-0.5,0.1l-0.5,0.4l-0.2,0.8l-0.5,1.4l-0.5,0.4l-0.4,1l-0.5,1.4l0.1,0.5l-0.2,0.6
		l-0.5,0.5l-0.7,0.8l-0.5,0.8l-0.2,0.3l-0.4,0.1l-0.3,0.7l-1,1.1l-0.3,1.3l-0.4,0.7l-0.1,1.3l-0.5,2.3l-0.1,0.5l-0.5,0.4l-0.7,0.9
		l-0.3,0.6l0.4,1.9l0.5,2v0.9L252,147l-0.1,0.5l0.3,0.2l0.5,0.2l0.2,0.5l-0.4,0.4l-0.2,0.6l-0.4,0.6l-1.1,0.3l-0.4-0.3l-0.1,0.2
		l0.1,0.5l-0.3,0.5l-0.5,1.5l-0.4,1.4l-0.2,0.6l0.1,0.5l0.2,0.3v0.3L249,156l-0.3,0.5l-0.3,0.1l-0.4-0.2l-0.4,0.3l-0.1,0.6l-0.2,0.8
		l-0.1,1l-0.2,1.3l0.5,0.9l0.5,1.5l0.5,0.4h0.5l0.4,0.4l0.2,0.4l-0.3,0.6l-0.5,0.1l-0.1,0.4l0.2,0.8l0.2,0.8l0.5,0.4l0.2,1.1
		l0.5,0.4l-0.1,1.4l0.5,1.6l0.5,0.5l0.3,0.2l-0.2,0.7l-0.4,0.5l-0.1,0.9l0.2,0.6l0.5,0.6l0.4,0.1l0.5-0.3l0.5,0.3l0.1,0.5l0.1,0.5
		l-0.3,0.6l-0.4,1.2l-0.1,1.2l0.1,1.8l0.2,1.4v0.9v0.4l-0.2,0.3l-0.5,0.2l-0.5,0.1L251,185l-0.1,0.5l-0.3,0.7l-0.3,0.5l-0.5,0.8
		l-0.4,0.8l-0.3,0.5v0.4l-0.2,0.7l-0.2,0.6l-0.5,2.1l-0.5,0.5l-0.5,0.2l-0.3,0.3l0.2,0.5l0.5,0.2l0.2,0.5l-0.1,0.7l0.3,0.6v0.8
		l0.3,1.5l-0.3,1l0.1,0.9v0.8l-0.4,0.6l-0.8,0.1l-0.5,0.6l-0.7,0.6l-0.1,0.5l-0.1,0.5l-0.3,0.2H245l-0.4,0.1l-0.5,0.6l-0.6,0.4
		l-0.1,0.5l0.1,0.6l-0.3,0.4l-0.4,0.7l-0.3,0.8l0.3,0.7l0.3,1.3v0.5l-0.4,1.1l-0.3,0.7l0.3,0.9l0.3,0.5l-0.2,1.1l-0.2,0.7l0.2,1.3
		l0.5,1.4l0.5,1.3l0.1,1.4l0.1,1.2l0.3,1.3l0.5,0.5l0.4,0.5l-0.1,0.6l-0.3,0.7l-0.5,0.5l-1,0.2l-0.8,0.5l-0.6,0.4l-0.5,0.5l-0.4,0.5
		l-0.2,0.5l0.1,2.2l-0.1,0.8l-0.4,1.1l-0.4,0.9l-0.2,0.3v0.4l-0.1,0.4l-0.4,0.1l-0.5-0.2l-0.3,0.1l-0.2,0.3l0.2,0.7l0.2,1.3l0.3,0.5
		l-0.1,0.5l0.1,0.5l-0.4,0.7h-0.5l-0.3,0.3l-0.1,0.5l0.1,0.6l0.6,0.5l0.2,0.4l-0.1,0.5l-0.5,0.2l-0.3,0.4l-0.3,0.8l-0.4,1l-0.4,0.7
		l-0.1,1l0.5,1.1l-0.1,1v3l-0.1,1l0.2,1.7l-0.2,0.5l-0.1,0.5l0.5,1.3l0.5,2l0.2,0.8l-0.1,0.5l-0.7,0.5l-0.6,0.2l-0.4-0.4l-0.3,0.2
		l0.2,0.5l-0.4,0.5l-0.1,0.5l0.4,0.6l0.2,1.2l-0.4,0.5l-0.3,0.5l0.1,0.7l0.1,1.4l-0.3,2.2l0.4,0.8l0.4,0.4l1.2,0.5l0.9,0.2l0.3,0.7
		l-0.1,0.6l-0.5,0.3l-0.6,0.3v1l0.5,0.9l0.6,0.6l0.1,0.6v0.6l-0.5,0.5l0.6,1.1l0.3,0.7l-0.3,0.5l-0.4,0.9l-0.4,0.5v0.5l-0.2,1v0.9
		l0.1,0.5l3.8,0.5l0.9,0.2l0.5,0.5l-0.1,0.7l-0.5,0.7l-0.3,1.4l-0.7,0.3l-0.7-0.4l-0.8,0.1l-0.7,0.1h-1l-1.4,0.2l-0.8-0.2l-0.1,0.5
		l0.3,0.9l1.7,0.3l1.6,0.5l0.5,1l0.6,1.1l0.7,0.6v1.1l-1.1,1.2l-0.1,0.8l-1.4,0.3l-0.4,0.5l-0.2,1.5l0.2,1.3l0.5,0.5l0.4,0.8l-0.4,1
		l-1,0.6l-0.5,0.6l0.4,0.5l0.5,0.8l0.1,0.5l0.3,1.2l0.3,1.6v0.8l-0.3,0.6l-0.9,0.9l-0.6,0.5l-0.1,1.2l-0.1,0.9l0.1,0.8l0.5,0.6v0.6
		l-0.5,0.1l-0.5,0.3l-0.5,1.2l-1.4,1.2l-0.5,0.5v0.9l-0.5,1.3L233,321l-0.4,1.1l0.1,1.1l0.8,0.5l0.6,1.1l0.3,1.4l-0.5,1.5l-1.1,0.6
		l-0.6,0.6l-0.2,0.5l0.2,1.6l-0.1,0.8l-0.2,0.7l0.1,0.5l-0.6,0.6l-1.1,0.5l-0.9,0.4L229,335l-0.5,1l-0.5,1.1l0.1,1.3l-2.4,0.2
		l-0.2,1l-0.5,0.8l-0.2,1.4l0.5,1.4l0.3,1.2l-0.5,1.4l0.2,1.4l0.1,1.1l0.9,1.3l0.5,1.5l0.3,1.4l0.2,1l0.3,0.6l0.4,0.7l0.2,0.8
		l0.5,0.3l1-0.7l0.7-0.5l0.5-0.2l1.4,0.1l0.8-0.5l0.4,0.1l0.5,0.3l0.4,0.5l0.3,1.3l0.2,1.4l-0.3,1.4l-0.4,0.4l-0.1,0.5l0.1,0.9
		l0.5,0.6v0.9l-0.5,2.1l-0.3,0.9l0.5,1l0.5,0.9l1,0.6l0.8,0.9l0.5,0.7l-0.1,1l0.4,0.3h1.5h2.3l3.6,0.1l3.5,0.1l4,0.1l1.9,0.8
		l1.7,0.7h2.2l2.2,0.9l1.6,0.6l1,0.2l1,0.2l0.1,0.8l-4.2-1.2l-1-0.6l-0.8-0.1l-1.5,0.8l-0.9,1.9l-0.5,0.5l-1.1,0.5L253,377l-3.7,1.8
		L248,379l-0.9,0.5l-0.9,0.7l-0.4,1.5l0.1,0.9l-1,3.3l-0.3,1.9v1l0.3,1.5l-0.4,2.7l-0.6,0.5l-1.6,0.7l-1.1-0.5l-1.9-0.5l-1.4-1
		l-1.7-0.7l-0.5-0.5l-1.5-2.1l-0.2-0.7l-0.1-0.9l0.8-1.3l0.5-0.1h1.3l1.1-0.2l0.7,0.6l0.2,1.4l-0.3,0.7l-0.3,0.5l0.1,0.4l0.7-0.5
		l0.4-3.2l2.6-1.6l0.8-0.9l0.8-1.4l0.1-0.5l0.1-0.5l-0.5-0.5l-1.3-0.5l-3.9,3l-1.7,0.8l-1.2,0.9l-1.4,1.5l-0.3,0.5l-0.3,1l-0.2,1.2
		l-1.4-0.5l-2.1-1.6L229,386l0.5-0.8l0.6-0.7v-2.3l0.2-0.8l0.5-0.6l0.8-0.7l0.4-0.2l0.4,0.3v0.5h1.4l2.5-2.1l1.1-0.1l1.4,0.5
		l1.5-0.3l0.3-0.2l0.4-0.5l-1.2-0.5l-1.1-0.3l-3.2-0.2l-0.7,0.2l-0.9,1.1l-0.3-0.3l-0.2-0.5l-1.1-0.4l-0.5,0.1l-0.5,0.5l0.1,0.8
		l-0.3,0.9l-1,0.9l-0.6,1.4v1.1l-0.1,0.5l-0.3,0.3l-0.5,0.4l-1.6-0.3l-0.9-1.2l-0.4-0.8l-1.1-0.8l2.3-1l0.8-0.6l0.7-1.4l0.5-0.8
		l-0.4-0.5H228v0.9l-0.5,0.7l-1.1-0.4l-1.5,1.2l-1-0.3l-1.5,0.4l-0.7-0.6l-0.2-0.8l0.3-0.8l-0.3-1.4L221,375l-0.5,0.1l-0.2-0.8
		l-0.5-1.4l-0.2-0.4l-0.2-0.6l0.3-0.2l0.5,0.2l0.5,0.5l0.7,0.1l1.5,0.9l0.6-0.2l0.4-0.2l0.1-0.8v-0.7h0.3l0.9,0.9l0.5-0.1l1,0.3
		l0.5-0.1l0.9-0.4l1.4-1l0.7-1.1l0.4-0.2l0.5,0.2l0.3,0.3v0.7l0.4,0.7l0.5,0.5l0.1,0.7l-0.1,0.6l-0.8,0.9l-0.2,0.4l0.3,0.4l0.4-0.2
		l0.5-0.5l0.3-0.6l0.1-0.4V373v-0.5l-0.7-1.6l-0.1-0.4v-0.7l0.8-0.7l0.2-0.5v-1l-0.4-0.7l-1.6-1.6l-2.8-1.6l-0.4,0.2l-0.2,0.3
		l0.3,0.2l0.4,0.1l2.4,1.4l0.6,0.8l0.5,0.2l0.5,0.5l-0.1,0.7l-2.5,0.7l-2,1.6l-1.4,1l-1-0.4l-0.5-1l-0.5-1.3l-0.8-0.7l-0.5,0.1
		l-0.4-0.2l-0.3-0.4l-0.6,0.4l-1.4-0.9l-0.4-0.4l1-1.3l1.1,0.5l0.3-3.5l-0.4-0.8l-1.4-0.9l-0.7,0.1l-0.9-0.1l-0.6-0.4l-0.7-0.2
		l-0.6-0.3l-0.8-0.5l-1-0.3l-1.3-2.2l-0.5-1.2l-0.3-1.3h2l1.2-0.2l0.3-0.5l-0.4-1l-0.5-0.8l0.5-0.7l0.6-0.5l0.6,0.3l1.5,1.3l0.3,0.8
		l1.1,2.6l0.3,0.3l0.1,0.3l2.3,1.4h0.3l-0.2-1.3l0.6-1.6l0.6-0.5h0.3v-0.3l-0.6-0.7l0.3-0.9H224l-0.5,0.6l-1.1,2.9l-0.6,0.5
		l-0.9-1.4l-0.5-1l-0.3-0.4l0.1-1.4l1.8,0.3l-0.6-0.5l-2.1-0.8l-0.5-0.5l-0.4-0.2l-0.7-1l-0.9-0.8l1.4-1.5l0.7-1.1l2.3,0.5l0.5-0.4
		l-0.4-0.8l-0.5,0.3l-0.7-0.5l-1.2-1.4v-0.7l0.2-1.4l0.5-0.3l1-0.3l1.1,0.5l0.5,0.4l0.5-0.2l-0.5-1l-0.7-0.4l-0.8-0.7l0.1-0.8
		l0.3-0.6l0.2-0.7l0.1-1l-0.1-0.8l0.3-0.4l0.4-0.2v0l-0.7,0.1l-0.3,1l-0.1,0.9l-0.5,0.7l-0.2,0.8l-0.1,1l-0.3,1.1l-0.6-0.5l-0.4-0.5
		l-0.2-0.3l0.1-0.5l-0.2-3.5v-2.9l0.3-2.3l0.9-0.9l0.4-0.3l0.4,0.1h0.5l0.4-0.4l-1.3-0.5l-0.7,0.3l-0.5,0.5l-1-0.4l-0.2-1.2l-0.6-1
		L217,325l0.1-1.8l1.4,0.2l1.2,0.4h3l2.4,1.8l1.1-0.3l-0.1-0.4l-0.8-0.5l-0.5-1l-0.3-0.3l-0.2-0.6l-0.1-0.7l-0.6-2.5l-0.3,0.1
		l-0.3,0.9l-0.5,1.4l-0.7,0.7l-1.1,0.3l-1.1,0.2l-0.9-0.3l-0.2-0.6v-0.7l-0.4-0.4l-1.1-0.3l-0.3-0.2l-0.4-0.6l0.5-1l0.5-0.5l0.5,0.1
		l0.5,0.3l0.6,0.7l0.6,0.2l0.7-0.6l0.1-0.4l-0.5-0.3l-0.4-0.1l-0.6-0.3l-1.2-1.2l0.6-1.2l1.4-1.4l0.5-0.3l-0.4-1.1l0.5-1.2l-0.5-1
		l-0.8-1.1l-1.1-0.3l-0.3,0.3v0.5l0.2,0.4l-0.1,0.3h-0.3l-1.4-0.3l-0.9-0.7l-1.4-0.6l-0.2-0.5l-0.2-0.7l0.5-1.3h-0.3l-1,1L211,308
		l-1.1,0.2l-0.5,0.4l-0.2,0.4l0.3,0.2l0.6,0.1l0.5,1.3l-0.1,0.5l-0.2,0.4l-0.5,0.1l-1.1-0.8l-0.5-1V309l0.4-1.1l1.7-1.4l0.5-0.6
		l1-0.6l1.3-1.4l1.2-0.8l-0.5-0.7l-0.5-1l0.1-1.4l2.3-0.5l1,0.3h1.3l0.7-0.4l0.5-0.1l1.1-0.4l0.5-0.5l0.1-0.5v-0.4l-0.1-0.5
		l-0.2-1.2l0.2-0.4l0.5-0.5l0.6-0.2h0.3l0.7,0.5l-0.2,0.6l-0.3,0.7l-0.6,2.9l-0.3,0.6l-0.5,0.5l0.3,1.2l-0.5,0.8l-2.1,0.9l-0.3,0.1
		l0.2,0.4l1.2-0.1l0.9-0.2l0.9-0.7l0.3-1.2l0.4-2.3l0.5-0.3l0.6-0.1l0.3,0.5l-0.1,1.2v1.2l-0.8,3.3l-0.9,1.4l-0.1,0.4v0.5l0.7-0.1
		l0.5-0.7l0.5-0.9l0.5-1.3l-0.1-0.9l0.1-0.5l0.2-1.9l0.3-1v-1.4l-0.5-0.5l-0.7-0.3l-0.2-0.8l0.4-1.6h1.4l1.3-1.1l0.8-0.4l0.5,0.1
		l1.7,1.1h0.4l-0.1-0.4l-0.3-0.3l-0.6-0.4l-1.3-1.1l-1.6-0.2l0.3-1.4l0.4-1.4l0.8-0.2l1.4-0.5l2.6-2l0.5-1.5l0.1-1.7l-1.3-0.5
		l-1.4-1.1l-1.1-0.5l-0.9-0.7l0.2-1.1l0.1-1.8l1.2-0.4l0.5-2.4l-0.8-1.8l0.2-1.4l1-1.2l0.2-0.8l0.3-0.9l0.9-0.1V269l-0.1-0.9l-0.6-1
		V266l0.5-1.7l0.9,0.1l0.2-0.1l-0.6-1l-0.5-1.1l0.1-0.5l0.5-0.4l0.5-0.2l0.6,0.5l0.9,1.8l0.1-0.5L233,261l-0.3-2.3l-1,0.3l-0.9-0.2
		l-0.4-0.4l-0.4-0.5l0.3-0.6l0.3-0.5l0.6-0.6l1.4-0.2l1-0.7l0.4-1.5l-0.3,0.2l-0.5,1.4l-0.9,0.5l-0.5-0.1l-0.5-0.3l-1-1.2l-0.5-0.3
		h-0.5l-0.5,0.3l-1.2,2.1l-0.5,0.4l-2.2,0.2l-0.8-0.3l-0.8-0.4l0.1-0.5l0.3-0.5l0.5-0.3v-0.3l-0.6-0.1l-0.7-0.5l-0.4-0.7l-0.2-1.3
		l-0.7-2l-0.1-1.4l0.5-1l1-4.1l0.4-2.1l0.5-1.8v-1.2l1.4-1.1l0.5-0.6l1.3-3.6l0.2-1.9l-1.9-5.9l-0.3-1.1l-0.1-1.4l0.5-2.3l0.1-0.9
		l-0.4-1.3l-1.1-2v-1l0.5-1.1l-0.5-1.4l0.2-0.8l0.3-0.6l1.7,0.4l0.8-0.2l0.5-0.4l0.4-1.1l0.2-1.7l0.1-0.7l0.2-1.1l0.8-0.5l0.3-1
		l0.7-1.4l0.7-3.9l0.7-1l0.7-1.1l-0.3-1.6l0.5-0.7l0.5-0.5l0.4-1l0.5-0.9l1.3-1.4l0.3-1.6l1-2.8l0.2-1.8l0.3-1.2l-0.1-1.1l0.5-1.4
		l0.5-1.2l0.2-0.6l1.3-1.5l0.2-1.2l-0.5-0.8v-1.3l-0.4-1.7l0.8-0.6l0.4-0.5l1.1-2.8l-0.1-1.1l0.3-1.4l-0.7-1.6l-0.1-3.6l-0.4-2.7
		l-0.6-2.9l0.1-1.6l-0.4-2V152l0.3-2.6l2.1-1.6l0.4-1.8l0.3-2.4l-0.1-1.8L242,141l-1-1.4l-0.3-2.3l0.2-0.6l0.8-0.6l0.6-0.9l0.3-1.4
		l0.6-1.1l0.3-2.7l0.5-2.2l0.3-0.7l0.8-0.9l0.2-0.3l0.1-0.7v-1.7l0.1-1l0.6-2l0.1-0.9l0.7-2.1l0.2-1.4l0.3-0.8l-0.1-0.9l0.2-2
		l-0.5-1.1l-0.1-0.6l0.6-2l0.5-0.5l0.6-0.9l0.3-1.1l0.1-0.6l-0.9-3.2l-0.1-1.1l0.2-2.6l0.3-1.7l-0.1-1.4l0.1-0.7l0.2-0.9l0.6-1.1
		l0.1-0.7l-0.2-0.3l-0.7-0.4l-0.5-0.9v-0.9l0.2-0.7v-1l0.9-0.2l0.5-0.5l0.5-1l0.5-2.4l0.3-3l0.4-1.8l0.3-0.9l0.2-1.8l0.4-1.2
		l0.1-1.1l-0.1-0.8l-0.8-4.2v-1.5l0.4-2.4v-3.4l-0.1-0.8l-0.3-0.7l-0.1-1l-0.5-1.7l-0.5-3.5v-1.9l-0.2-1.5l-0.5-0.5l0.3-0.1l0.7-0.1
		h0.7l1-0.4l1-0.6l0.6-0.9l0.3-0.8v-0.7l-0.3-0.9l-0.1-0.6l0.4-0.3l0.9-0.1l0.7-0.6l0.5-0.5l0.1,0.9l1.1,1.2l0.4,1.4l0.3,0.2
		l1.4,0.7v0.2l-0.2,0.3l-0.2,0.4l0.2,0.5l0.3,0.6l0.1,0.6l0.2,0.6l0.2,0.9l0.1,0.8l0.4,1.3l0.1,0.8v0.5l0.3,0.5l0.5,0.5l0.7,0.5
		l0.6,0.6l0.5,0.5l0.5,0.4l0.5,0.4l0.2,0.2l0.1,0.2l-0.2,0.2l-0.6,0.8l-0.9,1.3v0.2l0.9,0.9l0.2,0.4v0.5l-0.3,0.6l-1,0.2l-0.2,0.2
		v0.2l0.2,0.3V65l0.4,0.7L263,66l-0.4,0.3v0.3l0.1,0.4l0.4,0.3l1.4,1l0.1,0.1v0.1l-0.5,0.6l-0.1,0.4v0.6l0.1,0.5l0.2,0.2L265,71
		l0.9,1.4l0.9,1.4V75l0.1,1.4l0.5,1.1l0.1,0.9l0.2,1l0.6,0.6l0.3,1.2l0.1,0.6v0.5l0.5,1.3l0.1,1.1l-0.1,0.8V86l0.1,0.4l0.5,0.3
		l0.2,0.2l0.6,0.1h1l1.6-0.3L272.7,86.2L272.7,86.2z M-47.1,122.2l-1.2,0.3V122l0.3-0.5l0.9,0.3h0.4L-47.1,122.2z M184.5,179.2
		l-1.4,0.2l-0.1-0.1l0.1-0.2l0.3-0.3l0.4-0.4h0.1h0.2l0.2,0.1l0.4,0.3l0.1,0.2v0.1L184.5,179.2L184.5,179.2z M222.8,273.3l-0.5,0.2
		l-0.5,0.1l-0.5-0.2h-1l-0.9-0.5l-0.9-0.5l-0.3-0.4l0.1-0.5l0.6-1.1l0.6-2.1l0.4-3l-0.4-1.1v-0.5l0.2-0.5l0.1-0.5l-0.1-0.5l0.1-0.5
		l0.6-1.2l0.1-0.5v-0.5l0.3-1.2l-0.1-0.4l-0.3-0.4l0.2-0.3l2.3,0.8l1.5,0.2l0.1,0.9l0.3,0.7l0.2,1.2l0.3,0.3l-0.1,0.9l-0.7,0.4
		l0.1,0.8l0.5,0.7l-0.6,0.3l-0.6,0.2l-0.2,0.2l-0.5,0.2l-0.5,0.5l0.2,0.4l0.7,0.8l0.8,0.6l0.5,0.9l0.5,0.9l-0.3,0.6l-0.5,0.8
		l-0.8,0.5l-0.7,0.4l0.1,1.4L222.8,273.3L222.8,273.3z M215.9,276l-1.1,0.2l-0.3-0.3v-0.3l0.2-0.2l0.5-0.2l0.4,0.2l0.2,0.3
		L215.9,276L215.9,276L215.9,276z M222.4,278.3l0.2,0.5l-0.4,0.1l-0.5-0.1l-0.3,0.5l-0.1,0.1L220,279l-0.2-0.2v-0.5l1.4-0.1l0.8-0.4
		l0.1,0.1L222.4,278.3L222.4,278.3z M223,284.3l-0.4,0.5l-0.6,0.1l-0.9,0.5l-0.1,0.5l-0.1,0.5l0.6,0.7l0.3,0.8l0.4,1.2l0.3,1.2v0.4
		l0.1,0.6l0.5,0.9v0.5l-0.1,0.5l-0.2,0.7l-0.2,0.1l-0.5,0.1v0.5l-0.1,0.2l-1.3,0.1l-0.6-0.2l0.1-1.4l-0.8-0.5l-0.5-0.9l-0.6-1.6
		l-0.5-0.5l-0.6-1.3l-0.9-1.1l1.1-0.7l-0.2-1.2l0.6-0.4l0.9-0.5l0.6,0.4l0.6-0.1l0.3-0.3l-0.1-1.2l0.2-0.9l0.6-0.5l0.7-0.1l0.3,0.5
		l0.4,0.5l0.9,0.5v0.5L223,284.3L223,284.3z M228.7,288.4l-1.8,0.8L226,289l-0.4-0.6l-0.2-0.5l-0.2-0.9l0.3-0.5l0.7-0.7l0.3-0.5
		l0.1-0.5v-0.5l0.1-0.5l0.4-0.2l1.4,0.5l1.4,0.8l0.5,0.5l0.1,0.5l-0.6,1l-0.4,0.8L228.7,288.4L228.7,288.4z M223.7,288.9l-0.3,0.1
		h-0.2l-0.3-0.4l-0.1-0.5l-0.5-0.7l-0.2-0.4v-0.5l0.3-0.5l0.5-0.2h0.3l0.4,0.7l0.1,0.7l0.1,0.8L223.7,288.9L223.7,288.9z
		 M213.1,289.6l-0.2,0.2l-0.3-0.1l-0.2-0.4l-0.1-0.5l0.3-0.2h0.2l0.3,0.3l0.1,0.5L213.1,289.6L213.1,289.6z M218.6,298.2l-0.5,0.5
		l-0.7,0.3l-0.7-0.4l-0.9,0.2l-0.1-0.8l0.4-0.7l0.6-0.8l0.5-1.1l-0.1-1.5l0.4-0.4l0.2-0.5l0.8-0.4l0.2,1.1l-0.3,2l0.5,1.2l0.1,0.4
		l-0.1,0.5L218.6,298.2L218.6,298.2z M212.6,321.9l-0.5,0.2l-0.1-0.4l-0.5-0.6l0.5-0.4l0.9-0.5l0.6,0.1l0.6,0.4l0.1,0.4l-1,0.5
		l-0.3,0.3H212.6L212.6,321.9z M216.7,330.5l-0.2,0.3l-0.9-0.2l-1.6,0.3l-0.7-1.1l-0.3-1.6l-0.2-0.4l-0.4-0.9l-0.2-0.6l-0.5-1
		l-0.2-1l-0.1-0.3l0.4-0.6l1.7-0.5l0.6-0.9l0.5,0.1l-0.2,1.9l0.3,0.6l0.5,0.5l0.1,0.2l0.1,0.7l0.3,1.1l0.4,0.5l0.1,0.3v0.3l-0.1,0.4
		L216.7,330.5L216.7,330.5z M209.5,332.5h-0.8l-0.2-2.1l1-3l0.1-1.1l-0.4-0.8l-0.2-0.7l0.1-0.3l1.3-0.5l0.4,0.6l0.5,1.6l0.9,2.3v2.3
		l-0.5,0.5l-1.6,0.5L209.5,332.5z M217.3,336.9l0.1,1.7l-0.1,1.7l-0.3,2.1l0.1,0.5l0.4,0.1l0.1,0.3l-0.1,1.1l-0.2,0.9l-0.4,0.7
		l-0.2,0.8l-0.2,0.2l-0.8,0.2l-0.5-0.1l-0.4-1l-0.1-0.6v-0.8l-0.5-1v-0.4l0.2-0.7l0.4-0.4l0.1-1.1l0.2-0.3l0.5-0.5l0.1-0.2v-0.2
		h-0.2l-1.6,1.3l-0.2,0.4l-0.1,0.5v1.7l-0.3,1L213,345h-0.7l-1-0.1l-1.2-0.9l-0.7,0.3l-0.2-1.1l0.4-0.9l1.4,0.1l0.3-1.5l-0.5-0.4
		l-0.5-0.6l-0.3-0.5l0.3-0.5l0.8-0.6l0.5-0.1l0.4,0.4l1-0.3l-0.1-1l-0.9-0.5l0.2-0.7l1.1-0.7l0.6-0.7v-0.8l-0.3-0.8l0.1-0.4l0.5-0.6
		l0.8-0.4l0.4,0.1l0.7,0.5l0.6,0.1l0.2,0.2l0.1,0.5L217.3,336.9L217.3,336.9z M212.6,333.3l-0.1,0.9l-1.1,1.8l-1,1.1l-0.9,0.8H209
		l-0.5-0.4l0.5-0.6l0.6-0.6l-0.2-0.8l-0.2-0.3l-0.3-0.1l-0.5-0.5l0.2-0.6l0.3-0.3l0.4-0.3l0.4,0.2l1.4-0.5l0.5-0.4l0.9-0.1
		L212.6,333.3L212.6,333.3z M213,350.3l-1.4,1l-0.5-0.4H210l0.3-1l0.1-0.7l0.2-0.3l0.1-0.6l0.4-1.2l0.9,0.4l0.6,0.1l0.9,0.4l1,0.3
		l0.3,1l-1,0.5L213,350.3L213,350.3z M211.1,354.9l-0.2,1.1l-0.6-0.1l-0.2-0.3l-0.1-0.7l-0.2-0.4l0.3-0.7l0.2-0.8l-0.1-0.6h0.9
		l1.1,0.2l0.3,0.2l-0.4,0.5l-0.4,0.3l-0.7,0.2L211.1,354.9L211.1,354.9z M216.7,362.1v1l-0.3,0.4l-0.2,0.1l-0.5-0.3h-0.3l-0.5,0.5
		l-0.5,0.3l-0.6-0.1l-0.8-0.4l-0.7,1.5l-0.4,0.5l-0.7,0.7l-0.1-0.8l0.5-1.3l0.2-0.8l0.5-1.3l0.9,0.5l1.2-0.5l1.1-0.9h1l0.3,0.5
		L216.7,362.1L216.7,362.1z M214.7,366.4l0.4,2.3l0.3,0.4l0.8,0.2l0.8,1.2v0.4l-1,2.1l-0.2,1.4l-1.2-0.1l-0.5-1.4l-0.7-1.4l-0.3-1.6
		l-0.5-1.4l0.7-0.8l0.7,0.2v-1.1L214.7,366.4L214.7,366.4z M219.9,370.1l-0.3,0.2l-0.8-0.3l-0.5-0.3l-0.6-0.6l-0.1-0.6l-0.3-0.8h0.2
		l0.6,0.3l0.3,0.3l0.4,0.5l1.1,0.7l0.2,0.2v0.3L219.9,370.1L219.9,370.1z M261.8,379v3.7v3.7v3.4v3.5v3.4v3.5l-0.1,4v3h-1.2
		l-0.3,0.3l-1.8,0.5l-3.1-0.6l-0.8-0.6l-1-1.4l-0.4,0.4l-1,0.5l-1,0.5l-0.8,0.1l-0.7-0.5l-0.2-0.3l-0.2-0.1l-1.6,0.7l-1.8-0.8
		l-1.4-0.5l-2.3-0.3l-1.6-1l-3,0.1l-0.5-0.4l-0.2-1l0.2-0.5l0.6-0.3l0.2-0.5l0.6,0.1l0.8,0.7h0.3l0.5-0.6l0.8-0.5l0.3-0.1l1.5,0.7
		l0.6-0.1l0.9-0.4l0.2-0.3l0.2-0.5l0.3-0.3l0.7-0.2l0.7,0.3l0.1,0.9l-0.1,0.9l1,0.3h1.2l0.8,0.4l0.1-0.5l-1.3-1.4l-0.5-0.9l-0.7-0.5
		l-0.9-0.3l-0.8-1.7l0.1-1.4l-0.1-1.4l1.7-0.8l-0.4-1.3l0.5-0.9l0.6-0.4l0.6,3.4l0.5,1.2l-0.6,0.3h-1.3l0.7,1.7l1.2,0.5l1,1.3v0.9
		l0.5,0.5h1.4l0.9-0.2l0.5-0.6l0.5-0.2l0.9,0.7l1.5,0.5l0.5,0.4l0.3,0.6v0.7l0.1,0.4l0.5-0.2l0.6-1l0.3-0.4l0.4-0.2l0.3-0.2v-0.3
		l-1.2-0.7l-6-3.2l-0.7-1.3l-0.5-1.6v-1.6l0.5-0.5l1.1-0.6l2-0.9l2.3-1.3l0.3-0.3v-0.8l-0.3-0.5l-0.9-0.4l-0.9-0.1h-0.9l-0.9,0.2
		l-1.6,0.9l-0.9-0.1L249,388l-0.6-0.9l-0.4-1.3V385l0.1-0.7l0.4-0.7l0.5-0.4h0.5l0.5-0.2l0.3-0.3l0.3-0.4l-0.1-0.3l-0.2-0.3
		l-0.7-0.5l-0.3-0.5l-0.6-0.8l0.4-0.3l1.1-0.1l0.8,0.5l0.7,0.6h0.5l0.4-0.3l0.9-0.8l0.7-1.1l0.7-1.2l0.5-0.7l0.6-0.1l1.9,2.3
		l0.6,0.1l2.2-1.3l0.3,0.1l0.7,0.6L261.8,379L261.8,379z M218.1,382.5L218.1,382.5l0.4,0.1l0.5,0.2l1.6,0.3l1.4,0.6l0.7,0.5l1,0.2
		l0.8,0.7l0.4,0.2l0.5,0.1l1.1,1.3l0.1,0.2l1.2,1l0.1,0.2L227,388l-1.4-0.5h-0.7l-0.5-0.2l-0.1-0.1l-0.1-0.6l-0.2-0.3l-1.4-1.4
		l-0.5-0.3l-1-0.3l-1.1,0.2l-0.7-0.2l-0.3,0.1l-1.1-1.1l-1.1-0.9l-0.5-1.1l-0.7-0.8v-0.3l0.4-0.2l0.7,0.5l0.7,0.8l0.4,0.3
		L218.1,382.5L218.1,382.5z M229.2,389.5l0.2,1l0.1,0.2l0.5-0.2l0.9-0.1l1.5,0.4l0.2,0.2l0.6,1.2l0.5,0.5l0.8,1.1l-0.7,0.7l-0.5,1
		v0.5l-0.3,0.3l-0.5,0.3l-0.7,0.6l-0.9,0.1l-0.8,0.3l-0.4,0.3h-0.3l-0.3-0.2l-0.3-0.3l-0.1-0.4l0.5-0.3l0.7-1.1l0.1-1.2l-0.8-0.2
		l-0.5,0.2h-0.4l-0.5-0.4l-0.3,0.5l-0.1,0.5l0.1,0.8l-0.1,0.3l-0.3,0.2l-0.7-0.3l-0.7-0.5l-0.1-0.3l0.2-1.1v-0.5l-0.2-0.8l-0.1-0.1
		h-0.3l-0.8,0.2l-0.8-1l-0.5-1.1l-1.5-0.3l1.2-1.5l1.8-0.2l0.6,0.7l2,0.5l-0.1-0.8V389l0.3-0.4h0.2l0.3,0.3l0.4,0.1l0.2,0.3
		L229.2,389.5L229.2,389.5z M240.8,396.5l1.7,1h1.1v0.6l0.1,1.1l-0.2,0.5l-0.5,0.5l-0.3,0.6l-0.2,0.1l-1.3-0.8l-1.3-1.1l-0.6,0.2
		l-0.8-0.3l-0.7,0.1l-0.5,0.6l-1,0.4l-0.2-1.2l-0.9-1.2l-0.9-0.9l0.5-1.4l0.5-0.2l0.5-0.5l2.3,0.5l1.2,0.5L240.8,396.5z
		 M243.9,407.4l0.4,0.8l0.1,0.2l0.9,0.4l0.5-0.2l1-0.1l0.6-0.4l0.9-0.2l1,2.1l-0.1,0.6l-0.8,0.7l-0.5,0.2l-0.5-0.2v-0.4l-0.1-0.3
		l-0.4-0.4h-0.4l-0.5,0.3h-0.3l-0.5-0.4l-0.9-0.3l-0.2-0.3V409l-0.2-0.2l-1-0.7l-0.6-0.6l-0.5-0.1l-0.2,0.1l-0.2,0.3l-0.5,0.3
		l-0.2-0.1l-0.2-0.2l-0.1-0.4l0.2-0.6l0.3-0.1l1.4,0.1l0.8,0.3L243.9,407.4L243.9,407.4z M253.6,408.2l6.1,1.3l1.9-0.8h1.4l0.5,1.1
		L262,411l-0.1,0.4l0.2,0.3l1.5,0.2l0.4,0.4l0.4,0.5l-0.3,0.7v0.4l0.2,0.4l1.2,1.1l0.5,0.5l0.3,0.5l0.1,0.9v0.7l-0.3,0.1l-0.5-0.3
		l-0.5-0.5l-0.5-1.1l-0.4-0.2l-1-0.2l-1-0.5h-0.7l-0.7-0.2l-0.6,0.2l-0.2-0.4l-0.3-0.7v-0.3l0.4-1.1v-0.3h-0.2l-0.7,0.3l-0.3-0.2
		l-0.8-0.8l-0.4-0.2l-0.8-0.1l-0.5,1.4v0.4l0.5,0.9l0.9,1.4h-0.5l-1.3-0.5l-0.4-0.3l-0.4-0.7l-0.8-0.5l-0.3-0.3L254,413v-0.9
		l-0.2-0.2l-1.1,0.3l-0.2-0.2l-0.1-0.4l-0.2-0.2l-0.7-0.4l-0.1-0.2l0.3-0.3l0.2-0.6l0.3-2.3L253.6,408.2L253.6,408.2z M273.6,411.2
		l-0.2,0.5l-0.5,0.6l-0.6,0.5l-0.6,0.2l-0.5-0.3l-0.3-0.5l-0.1-0.5l-0.2-0.3l-0.3-0.1H270l-0.4,0.2l-0.8,0.7l-0.4,0.2h-0.3l-2.3-0.5
		l-0.2-0.2l-0.3-0.5l-0.3-1.4l-1-1.2l1.4-0.7h1.8l3.4,0.5l1.4,0.1l1.1,1.2l0.2,0.7L273.6,411.2L273.6,411.2z M278.2,412.2l-0.6,0.5
		h-0.5l-0.2-0.2l-0.1-0.3l0.1-0.3l0.2-0.3l0.5-0.4l0.2-0.1l0.6,0.4L278.2,412.2z M271.9,419.5l-0.3,0.1l-0.2-0.3l-0.3-0.2l-1.3-0.4
		v-0.3l0.1-0.4l0.3-0.3l0.5-0.3l0.4-0.7l0.2,0.1l0.2,0.3l0.3,1l0.4,0.7v0.3L271.9,419.5L271.9,419.5z M269.8,421.1h-0.3l-0.6-0.3
		l-1-0.1l-0.1-0.1v-0.2l0.1-0.2l0.5-0.2l1.6,0.1l0.2,0.1l0.1,0.2l-0.3,0.5L269.8,421.1L269.8,421.1z"/>
	<path id="CW" class="st1" d="M260.8-182.6l-0.4,0.1l-1.4-0.7l-1.2-1.2v-0.6l0.3,0.1l0.3,0.3l0.5,0.8l1.4,0.5L260.8-182.6z"/>
	<path id="EC" class="st1" d="M211.2-90.1l-0.5,0.3h-0.5l-0.6,0.1l-0.8-0.3h-0.4l-0.1,0.3l0.5,0.4l0.5,0.4l0.2,0.5l0.3,0.6l0.7,0.7
		l0.5,0.4v0.3l-0.2,0.5v0.4l0.3,1.8l-0.2,0.1h-0.3h-0.3l-0.3-0.2l0-0.2l-0.1,0.3l-0.2,0.8l-0.5,1.9l-0.5,1.6l-0.5,0.5l-0.8,0.9
		l-1.1,1.3l-1.5,1.8l-1.2,0.8l-0.9,0.6l-1.1,0.7l-1.4,1l-1.5,0.5l-2.2,0.8L195-70l-1.1,0.4l-1.2,0.4l-1.5,0.5l-0.6,0.5l-1,1.2
		l-0.5,0.5l-0.5,0.5l-0.1,0.3l0.1,0.2l0.2,0.3v0.3l-0.3,0.2h-0.3l-0.1-0.1l-0.1-0.3l-0.3-0.3l-0.3-0.1l-0.2,0.1v0.3l-0.4,1.3v0.6
		l-0.2,0.3v0.5l-0.4,0.5l-0.2,0.5l-0.1,0.4l-0.3,0.3l-0.1,0.5l-0.3,0.9l-0.4,0.7l-0.3,0.6v0.5l0.2,0.3l0.1,0.3l-0.2,0.5l-0.1,0.4
		l-0.5,0.3l-0.9,0.5l-0.4,0.4l-0.2,0.5l0.1,0.4v0.3l-0.5,0.1l-0.2,0.3l-0.3,0.5l-0.4,0.2l-0.8-0.3h-0.6l-0.5-0.2l-0.5-0.6l-0.5-0.5
		l-0.4-0.7l-0.1-1l-0.5-0.3l-0.5-0.4l-0.5,0.1l-0.6,0.1l-0.4-0.3l-0.9-0.5l-0.7-0.5l-0.5-0.3l-0.5,0.1l-0.3,0.3l-0.5,0.5l-0.7,0.4
		h-0.3l-0.5-0.3l-0.1-0.3l0.4-0.5l0.7-1h-0.7l-0.3-0.3v-0.4l-0.1-0.4l0.2-0.5l0.4-0.3l0.6,0.2h0.5l0.3-0.5l0.3-0.2l0.3-0.2l0.1-0.2
		l-0.3-0.7l-0.1-0.4l0.1-0.2v-0.5v-0.3l-0.2-0.3v-0.5l-0.2-0.2l-0.1-0.3v-0.3l-0.2-0.2l-0.2-0.2l0.2-0.1l1.1-0.4l0.5-0.4l0.5-0.4
		l0.5-0.5l0.4-0.5l0.7-2.3l0.7-1.5l-0.1-0.7l-0.5-1l-0.1-1.4l0.1-0.5l-0.1-0.4l-0.4,0.6l0.1,2.1l-0.4,0.9l-0.5,0.3l-0.3-0.2l0.2-1.5
		l-0.4,0.3l-0.5,1.1l-0.9,0.8l-0.1,0.3l-0.2,0.4l-0.7-0.3l-0.5-0.4l-1.8-1.7l-1.2-0.4l-0.7-0.6l-0.2-0.3l-0.1-0.4l0.7-0.4l0.7-0.5
		l0.1-1.1v-0.8l-0.5-1.4l0.3-1.9l-0.2-0.7l-0.6-1.5l0.5-0.8l1.6-0.5l0.5-0.4l0.4-1.3l0.4-0.7l0.7,0.3h0.5l-0.8-0.3l-0.6-1.1
		l-0.1-0.5l1.3-1.5l0.6-0.4l0.8-0.8l1.6-1l0.2-1.9l-0.3-1.4l-0.2-1.4l0.4-0.4l1-0.2l0.8-0.5l0.5-0.5l1,0.1l1.1-0.6l1.8-0.4l2.5-0.7
		l0.5-0.7l-0.3-1.2l0.3,0.2l0.7,0.5l0.5,0.5l0.7,0.4l0.5,0.3l1.5,1.2l1,0.5l1.1,0.5l1.5,0.5l1-0.1l0.2,0.5l0.2,0.5l0.4,0.3l0.5,0.2
		l0.4,0.1l0.1,0.1L195-94l0.2,0.3l0.8,0.3l1,0.1l0.4-0.1l0.8,0.5l0.6,0.2l0.7,0.2l0.5,0.1l0.2-0.1l0.1-0.2h0.4l0.5,0.2h0.8l0.5-0.2
		l0.1-0.4v-0.5l0.2-0.2l0.6-0.4l0.3,0.1l1.5,0.7l0.4,0.3l0.4,0.5l0.7,0.7l0.8,0.5l1.2,0.2l1.2,0.7L211.2-90.1L211.2-90.1z
		 M183.7-100.4l-0.5,0.1l-0.2-0.4l0.5-0.5l0.2-0.1V-100.4z M174.4-68.4l-0.2,0.3h-0.7l-0.2-0.1v-0.4l0.2-1.1l0.2-0.5l0.6-0.5
		l0.5-0.2h0.6l0.6,0.4l-0.8,0.7l-0.5,0.1l-0.2,0.1L174.4-68.4L174.4-68.4z"/>
	<path id="FK" class="st1" d="M336.1,362.1l1.2,0.7l1.4-0.3l0.6,0.2l0.4,0.6l-0.2,0.5l-0.5-0.1l-0.4,0.2l0.1,0.7l0.3,0.3l1.5,0.8
		l0.3,0.1l-0.1-0.4l-0.3-0.5l-0.1-0.6l0.3-0.5l0.4-0.2l1.7-0.3l0.5,0.3l0.9,1.4l-0.8,0.2l-0.4,0.6l0.7,0.3l0.5,0.4l-0.3,0.6
		l-0.1,0.3l-1.3,0.5l-1.1,0.3l-0.5,0.7l-0.9,0.5l-2.6,0.9l0.3,0.7v0.4l-0.1,0.9l-3.6-1.1l-0.5,0.1l1,1.9l-0.7,0.4l-0.7-0.3l-0.6,0.2
		l-0.5,1.4l-1-0.9l-0.9-1.3V372l0.8-1.4l-0.3-0.5l2-1.8l0.4-0.5l0.6-0.3l0.6-0.1l0.3-0.3l-0.1-0.5l-0.3-0.7v-1.2l1.6-1.6l-0.3-1.1
		L336.1,362.1L336.1,362.1z M326.5,363.6h-1.1l-0.2-0.4v-1l0.8-0.1l0.8,0.5l-0.1,0.5L326.5,363.6L326.5,363.6z M325.2,364.4l1.1,0.3
		l1-0.8l0.7-0.3l0.5,0.2l0.4,0.5l0.5-0.1l1.6-0.5l0.2,0.2l0.6-0.6l0.5,0.3l0.4,0.5l-0.2,0.6l-0.5,0.4l-0.3,0.5l-0.4,0.5l-0.5,0.5
		l-0.5,0.6l-1.1,1.5l-1.5,2l-0.5,0.2l-1.1,0.1l-0.5-0.2l-0.4,0.1l-0.4,1.1l-0.5,0.8L324,373l-0.5,0.1l-0.3,0.1l-0.2,0.3l-1.4-0.1
		l-1-0.5l-1.2-1.1l1.5-1.4l1.3,0.1l1.1-0.9l0.9-0.5l0.4-0.5l0.4-0.4v-0.5l-0.3-0.2h-0.4l-0.4,0.2L323,368l-0.6-0.5l0.5-0.2h0.5
		l1.4-0.5l0.3-0.2l-0.5-0.7l-0.8-0.5l-0.7-0.7l-0.1-0.3v-0.5l-0.4-0.8h0.4l0.5,0.5L325.2,364.4L325.2,364.4z M319.6,368.3l0.5,0.2
		l0.5-0.1l-0.3,1.3l-0.3,0.6l-0.6-0.1l-0.6-0.8l-0.2-0.5l0.7-0.3L319.6,368.3z M339.3,371.1l0.1,1.1l-0.6-0.4l-0.2-0.5l0.4-0.4h0.3
		L339.3,371.1L339.3,371.1z M329.8,373.8l-0.5,0.3l-0.1-0.1l-0.2-0.5v-0.6l-0.1-0.3l0.3,0.1l0.5,0.5L329.8,373.8L329.8,373.8z"/>
	<path id="GF" class="st1" d="M390.8-121.6l-0.3,0.2l-0.6,0.4l-0.3,0.5l-0.2,0.5l-0.4,0.3l-0.4,0.4l-0.1,0.3l-0.4,0.3l-0.1,0.5
		l-0.9,1.4l-0.4,0.6l-0.5,0.7l-0.4,0.3l-0.5,0.5l-0.2,0.5v0.5l-0.3,0.6l-0.2,0.5l-0.3,0.3l-0.7,1.6v0.5l-0.2,0.4l-0.5,0.8l-0.4,0.5
		l-0.6,0.4l-0.6,0.4l-0.3,0.5l-0.5,0.2h-0.4l-0.5-0.2l-0.7-0.1l-0.4,0.1l-0.2-0.2l-0.3-0.5l-0.4-0.4l-0.3,0.1l-0.5,0.4l-0.6,0.2
		l-0.5-0.1l-0.9-0.3l-0.4-0.1l-0.1-0.2l-0.1-0.2l-0.2,0.1l-0.3,0.3l-0.4,0.3l-0.5,0.4l-1.1,0.6l0.3-0.2l-0.3-0.1l-0.5-0.1h-0.5
		l-1.1-0.4l-0.6-0.3l-0.3-0.4l-0.3-0.2l-0.2-0.1l0.1-0.1l0.3-0.1h0.3l0.4-0.5l0.6-0.4l1.1-1.9l0.5-0.8l0.1-0.5l0.1-0.9l-0.3-1.1
		l0.1-0.3l1-1.4l0.5-0.7v-0.6l0.1-0.5l-0.1-0.3l-0.2-0.1l-0.4-0.5l-0.3-0.5l-0.6-0.5l-0.5-0.5l-0.7-1.2l0.1-0.6l-0.2-0.3l-0.2-0.3
		v-0.3l-0.2-0.7l-0.2-0.7l-0.1-0.5l0.2-0.7l-0.1-0.8l-0.3-0.5l-0.1-0.6l0.1-0.6l0.2-0.4v-0.5l0.9-1.4l0.7-0.7l0.6-0.5l0.5-0.4l0.7-2
		l0.5-0.7l0.5-0.1l3,1.6l1.4,0.2l2.8,0.9l1,1.2l2.3,1.9l1.3,0.6v0.5l-0.3,0.8l0.8-0.7l1.3,1.1l0.4,0.5l0.4,1l-0.1,0.6l-0.2,0.4v0.3
		l0.4-0.4l0.2-0.3l0.1-0.6l0.3-0.8h0.4l0.4,0.5l0.6,2.2l0.3,0.5l0.1,0.7v0.3L390.8-121.6z"/>
	<path id="GS" class="st1" d="M501.4,397l0.7,0.6l0.6-0.5l0.6,0.1l0.4,0.2l0.4,0.1h0.5l0.7,1.1l-0.3,0.9l0.8-0.2l0.7,0.8l0.4-0.1
		l0.2-0.4l0.5-0.4l0.3,0.5l0.4,0.9l0.5,0.3l0.5,1l0.4,1.3l0.3,0.2h0.5l0.5-0.2l-0.2,1.1l0.1,1l0.9,0.7l-0.5,0.4l-0.5,0.5l-1.1,0.5
		l-0.3-0.2l-1-1l-0.5-1.2l-1-1.6l-0.2-0.5l-0.3-0.3l-0.9-0.2l-0.8-0.4l-0.7-0.8l-0.2-0.5l-0.3-0.4h-0.9l-0.5-0.4l-0.5-0.5l-2.6-1.5
		l-1,0.2l-0.5-0.5V397l0.5-0.5l-2.3-0.2l-0.8-0.3l0.5-0.2h3.1l1.2-0.1l0.1,0.4l1,0.6L501.4,397L501.4,397z M583.7,456.7v0.8
		l-1.2-0.7l-0.3-0.4l0.4-0.5h0.7l0.2,0.3L583.7,456.7L583.7,456.7z"/>
	<path id="GY" class="st1" d="M348.7-132.9l-0.4,0.5l-0.1,0.3l-0.3,0.5l-0.2,0.3l0.3,0.6h0.4l0.1,0.1l0.1,0.1v0.2l-0.1,0.1l-0.4,0.2
		l-0.3,0.4v0.5l-0.2,0.2L347-129h-1.2h-0.6l-0.5,0.1l-0.3,0.3l-0.4,0.2h-0.3l-0.3,0.4l-0.3,0.5l0.1,0.3l0.3,0.5l0.2,0.5l-0.2,0.7
		l-0.3,0.5l-0.2,0.5l-0.2,0.8l-0.5,0.9l-0.4,0.5v0.5l0.2,0.7l0.9,1.1l0.3,0.5l0.3,0.8l0.8,0.6l0.5,0.5l-0.1,0.7l0.1,0.2l0.4,0.2
		l0.4,0.1h0.5l0.4-0.1l0.1-0.1h0.9l0.1,0.2l0.1,1v0.5l0.2,0.2l0.1,0.3v0.3v0.5l0.2,0.3v0.6l0.1,0.2l0.3,0.2l0.4,0.5l0.1,0.1l0.1,0.2
		l0.3,0.6l0.2,0.2h0.1v0.2l0.2,0.5l0.1,0.2l0.3,0.5l0.1,0.5l0.4,0.5l0.4,0.4l0.2,0.4l0.5,0.8l0.5,0.6l0.5,0.2l0.5,0.1l0.3,0.3
		l0.3,0.3l-0.4,0.1l-0.3,0.2l-0.4-0.1l-0.5,0.1l-0.5,0.2l-0.5,0.1l-1-0.3h-0.3l-0.2-0.1l-0.5-0.5l-0.2-0.1l-0.5,0.3l-0.6,0.2h-0.4
		l-0.4,0.2l-0.4,0.3l-0.6,1l-0.4,0.4l-0.4,0.2H345h-1l-0.6,0.3l-0.5,0.1h-0.3l-0.1,0.5l-0.1,0.3l-0.2,0.2h-0.5h-0.4l-0.3-0.3
		l-0.5-0.1l-0.4-0.1l-0.3-0.1h-0.2l-0.2,0.3l-0.1,0.2l-0.1,0.4l-0.6,0.1l-0.3,0.2l0.2,0.7l-0.1,0.3l-0.1,0.2h-0.7H337l-0.4,0.3
		l-0.5,0.3l-0.3,0.1h-0.3l-0.5-0.4l-0.4-0.5l-1-0.3l-1-0.3l-0.6-0.6l-0.2-0.4l-0.3-0.2l-0.8-0.8l-0.5-0.5l-0.5-0.2l-0.5-0.2v-0.4
		v-0.4l-0.3-0.2l-0.4-0.1l-0.1-0.2v-0.5l0.1-1.2l-0.1-1.2l-0.7-0.4l-0.3-0.3l-0.5-1.7l-0.3-0.7v-0.5l0.2-1.7l0.2-0.7l0.5-1.4
		l0.4-0.5v-0.4v-0.5l-0.2-0.9l0.9-0.6l0.4-0.3l0.1-0.4l0.5-0.5l0.2-0.5l0.2-0.4l-0.1-0.2l-0.2-0.1l-0.3-0.4l-0.5-1.1l-0.2-0.2
		l-0.2-0.3l0.1-0.5l0.2-0.5v-0.2l-0.4-0.3l-0.6-0.5h-0.5l-0.5-0.2h-0.6l-0.5-0.1l-0.3-0.2l0.1-0.3l0.1-0.2l0.5-0.5l0.3-0.5v-0.5
		l0.1-0.7l0.1-0.6l0.1-0.7l-0.6-0.5l-0.2-0.4l-0.3-0.4h-0.3l-0.5-0.2l-0.7,0.5l-0.5-0.1l-0.4,0.2h-0.9l-0.5-0.2l-0.7,0.2l-1.6-1.8
		l-1.6-1.8l-1.6-1.8l-0.1-0.3l0.6-0.8l0.6-0.6l0.5-0.4l0.3-0.3l-0.2-1.3v-0.5l-0.3-0.5l-0.2-0.5l0.2-0.5l0.3-0.4l0.3-0.1l0.7-0.1
		l0.5-0.1l0.2-0.2l0.3-0.2h0.4l0.8,0.2l0.4-0.3l0.6-0.4l1.4-0.6l0.4-0.5l0.3-0.7v-0.4l-0.2-0.1l-0.4-0.1h-0.5l-0.5,0.2l-0.5-0.1
		l-0.4-0.5v-0.4l0.2-0.5l-0.1-0.4l-0.7-1v-0.3l0.5-0.5l0.3-0.4l0.5-0.9l0.4-0.3l1-0.1l0.3-0.2l0.5-0.5l0.8-0.5l1.1-0.5l0.4-0.8
		l0.2-0.3l0.9-0.5l0.2-0.3v-0.2l-1.4-1.9l0.3,0.1l1.1,1.2l0.6,0.3h0.1v-0.3l0.5,0.1l1.4,0.8l2.1,1.4l3,2.6l0.8,1l0.5,0.5l0.9,1.1
		l0.3,0.5v2.2l-0.8,1.4l-0.2,1.1v1.4l-0.5,0.8l0.6-0.5l0.2-1.4l0.5-0.8l0.6-0.9l0.9-0.2l1,0.4l0.8,0.1l0.7,0.3l1.4,1.4l1.4,1.1
		l0.5,0.9l1.5,0.5l0.9,0.7l0.3,0.6l0.2,1.6L348.7-132.9L348.7-132.9z"/>
	<path id="PE" class="st1" d="M252.6-58l-0.1,0.5l-0.3,0.2h-0.4l-0.5-0.4l-0.5,0.1h-0.5l-0.6-0.5l-0.2-0.4l-0.5-0.4l-1,0.1h-0.8
		l-0.6-0.1l-0.6,0.1l-0.5,0.5l-0.4,0.5l-0.5,0.5l-1.3,0.3h-0.7l-0.6,0.3l-0.9,0.1l-0.6,0.3l-1.1,0.1l-1.4,0.1l-0.7,0.4l-0.3,0.2
		l-0.7,0.5l-1.4,0.8l-0.7,0.3l-0.9,0.9l-1.1,0.8l-0.7,0.5l-1,0.2l-0.5,0.2l-0.2,0.3l0.1,0.3l-0.2,0.8l-0.3,1.4l-0.1,0.7l-0.1,0.4
		l-0.6,1.2l-0.7,1.1l-0.4,0.7l-0.2,0.5l0.2,0.5l0.3,0.8l0.3,0.6l0.1,0.5l-0.1,0.5l-0.3,0.5l-0.5,0.3l-0.6,0.1l-1.4,0.8l-1.4,1.2
		l-0.5,0.5l-0.2,0.5l-0.2,0.8l0.1,0.5l0.3,0.3l0.3,0.7v0.4l-0.2,0.2H223l-0.4,0.1l-0.3,0.2H222l-0.3,0.1v0.3l0.1,0.4v0.4l-0.2,0.2
		l-0.2,0.2l0.2,0.2l0.3,0.2l0.4,0.4l0.5,0.6l0.5,0.1l0.4,0.2v0.4l-0.1,0.4l-0.3,0.2v0.3l0.5,0.4l0.3,0.3l0.3,0.4l0.3,0.5v0.4
		l0.3,0.5l0.2,0.4v0.4l0.5,0.4l0.4,0.3l0.3,0.3l0.3,0.2l0.1,0.3v0.4l0.5,0.6L228-23l0.6,0.7l0.4,0.5l0.7,0.8v1l-0.9,1.1l-0.9,1.1
		h1.4h1.5l1.6,0.4l1.1,0.3l0.6,0.2l0.5,0.4l0.2,0.5l0.2,0.5l0.1,0.6l0.6,0.5l-0.1,0.5v0.7h0.3h2h2.2l2.1-0.1l0.8-0.2l0.9-0.9
		l0.5-0.3l0.5-0.5l0.6-0.7l0.5-0.4l0.5-0.5l0.6-0.5l0.3-0.3l0.2-0.1l0.5-0.2l-0.2,0.4l-0.2,0.5l-0.1,0.6l0.3,0.6l-0.2,0.5l-0.4,0.5
		v1.2v1.6v1.4v1.7v2v1.3l0.4-0.3l0.5-0.3l0.6,0.6l0.5,0.3l0.4,0.1h0.4l0.5-0.1l1.2-0.5l0.8-0.4h0.9l1.3,0.2h0.7l1,1.6l0.7,1.3
		l0.8,1.4l0.6,1.1l1,1.7l0.8,1.4l0.9,1.5l1,1.8l-0.4,0.5l-0.3,0.4v0.6l-0.4,0.4L261,6.8l-0.5,0.5l-0.4,0.5v0.6l0.1,3.2l-0.1,0.9
		l-0.3,0.7l-0.3,0.4l-0.2,0.3l0.4,0.7l0.4,1.5l0.3,0.3l0.4,0.6l0.2,0.6l-0.1,0.2l-0.7,0.3l-0.3,0.3l-0.1,0.9l-0.3,0.3l-0.5,0.5
		l-0.4,0.5l-0.3,0.4l-0.3,0.2l-0.1,0.5l-0.2,0.5l-0.6,0.4l-0.1,0.7v0.6l0.4,0.6l1.1,1.3l0.1,0.3l-0.6,0.7l-0.4,0.5l-0.9,1.6v0.3
		l0.2,0.7l1.4,3.2l0.2,0.3l0.5,0.3h0.6l1,0.4l0.5,0.4l0.1,0.2l-0.1,0.1l-0.5,0.3l-0.6,0.4l-0.2,0.4v0.5l0.1,0.8l-0.3,0.3l-0.6,0.3
		l-0.5,0.5L258,39l-0.9,1.1l-0.3,0.3l-0.1,0.4l-0.5,0.1l-0.9,0.7l-0.2,0.4l0.2,0.4l0.5,0.3l0.4,0.5l0.1,0.5v0.4l0,0l-0.5,0.5
		l-0.7,0.6l-0.9,0.1l-0.4,0.3l0.1,0.6l0.3,0.9v0.7l-0.3,0.8l-0.6,0.9l-1,0.6l-1,0.4h-0.7l-0.7,0.1l-0.3,0.1l-0.5-0.5l-2.4-1.8
		l-0.9-1l-0.9-0.5l-2.2-1.5l-0.2-0.5l-0.3-1.5l-0.3-0.5l-0.7-0.5l-1.8-0.7l-0.7-0.4l-0.7-0.7l-1.1-0.5l-1.2-1l-0.7-0.8l-0.8-0.5
		l-2.4-0.7l-1.3-0.7l-2.3-1.1l-1-0.6l-2.5-0.8l-0.7-0.4l-2.4-1.9l-1.7-0.6l-1.4-1.1l-4.2-2.3l-0.6-0.7l-0.6-1.1l-0.9-0.6l-1.1-1.5
		l-1.5-0.9l-1.5-1.2l-0.5-1.1l-1-1.4l-0.3-0.7l-0.9-0.7l-0.1-1.4l-0.6-0.6l0.5-0.4l0.5-0.2l0.5-2.3l-0.3-1.1l-1.5-2l-0.5-1l-0.4-1.3
		l-0.6-0.7L202,5.2l-0.5-1.4l-1.3-1l-0.4-0.4l-0.2-0.5l-0.7-0.4V0.4l-0.5-2l-0.7-1l-2.4-1.9v-0.7l-0.2-1.4L194.6-8l-2.7-4.4
		l-0.7-1.4l-0.7-2.2l-0.6-1.2l-0.7-2.2l-1-1.6l-0.6-1.4l-0.7-1.8l-0.1-0.9l-1.3-1.6l-0.6-1.4l-1.2-1.3l-1.2-0.9l-0.5-0.6l-1.6-3.2
		l-0.2-0.9l-1.1-1.7L178-38l-0.7-1l-0.9-0.9l-5.3-2.8l-1.9-1.2l-0.6-0.5l-0.3-0.9l0.1-0.5l0.5-0.5l0.7,0.4l0.5-0.2l0.4-0.6v-0.9
		l-0.5-1.2l-1.7-2.3l0.1-0.5l0.4-0.5l-0.6-1.1l-0.7-0.9l-0.4-0.7l0.4-2.6l0.4-0.6l2.6-2.7l0.7-1.2l1.1-0.7l1.2-1.1l1.4-0.8l0.2,0.2
		l0.2,0.2v0.3l0.1,0.3l0.2,0.2v0.5l0.2,0.3v0.3v0.5l-0.1,0.2l0.1,0.4L175-61l-0.1,0.2l-0.3,0.2l-0.3,0.2l-0.3,0.5h-0.5l-0.6-0.2
		l-0.4,0.3l-0.2,0.5l0.1,0.4v0.4l0.3,0.3h0.7l-0.7,1l-0.4,0.5l0.1,0.3l0.5,0.3h0.3l0.7-0.4l0.5-0.5l0.3-0.3l0.5-0.1l0.5,0.3l0.7,0.5
		l0.9,0.5l0.4,0.3l0.6-0.1l0.5-0.1l0.5,0.4l0.5,0.3l0.1,1l0.4,0.7l0.5,0.5l0.5,0.6l0.5,0.2h0.6l0.8,0.3l0.4-0.2l0.3-0.5l0.2-0.3
		l0.5-0.1v-0.3l-0.1-0.4l0.2-0.5l0.4-0.4l0.9-0.5l0.5-0.3l0.1-0.4l0.2-0.5l-0.1-0.3l-0.2-0.3v-0.5l0.3-0.6l0.4-0.7l0.3-0.9l0.1-0.5
		l0.3-0.3l0.1-0.4l0.2-0.5l0.4-0.5v-0.5l0.2-0.3v-0.6l0.4-1.3v-0.3l0.2-0.1l0.3,0.1l0.3,0.3l0.1,0.3l0.1,0.1h0.3l0.3-0.2v-0.3
		l-0.2-0.3l-0.1-0.2l0.1-0.3l0.5-0.5l0.5-0.5l1-1.2l0.6-0.5l1.5-0.5l1.2-0.4l1.1-0.4l1.5-0.5l2.2-0.8l1.5-0.5l1.4-1l1.1-0.7l0.9-0.6
		l1.2-0.8l1.5-1.8l1.1-1.3l0.8-0.9l0.5-0.5l0.5-1.6l0.5-1.8l0.2-0.8l0.1-0.3l0.2,0.1l0.3,0.2h0.3h0.3l0.2-0.1L213-85v-0.4l0.2-0.5
		v-0.3l-0.5-0.4l-0.7-0.7l-0.3-0.6l-0.2-0.5l-0.5-0.4l-0.5-0.4l0.1-0.3h0.4l0.8,0.3l0.6-0.1h0.5l0.5-0.3l0.5-0.5h0.3l0.4,0.1
		l0.6,0.5l0.4,0.3l0.5,0.3l0.5,0.1h0.4h0.3l0.2,0.4l0.2,0.5l0.5,0.3l0.5,0.3l0.5,0.5l0.3,0.3l0.4,0.4l0.4,0.5l0.4,0.8l0.2,0.5
		l0.2,0.3v0.4l0.4,0.5l0.3,0.4l0.5,0.2l1,0.3l0.5,0.5l0.5,0.2l0.5,0.5l0.5,0.2h0.5l0.5,0.3l0.5,0.5l0.3,0.6l0.5,0.4l0.2,0.6
		l-0.3,0.8l0.2,0.5l0.5,0.4l0.7,0.4l0.6-0.1l0.4,0.1l0.2,0.4l0.1,0.4l0.3,0.9l0.2,0.6l-0.3,0.5l-0.1,0.4l0.2,0.5l0.6,0.3l0.6,0.2
		l0.4,0.5l0.5,0.1h0.5l0.7-0.1l0.5-0.3l0.3-0.1l0.3,0.1l0.6,0.2l0.8,0.3L235-72l0.6-0.1l0.6-0.2l0.6-0.5h0.5l0.4-0.3l0.5-0.5
		l0.5-0.5l0.4-0.1l0.6,0.2l0.8,0.4L241-73l0.4,0.1l0.4,0.3h0.7l0.8-0.2l0.6-0.5l0.6-0.2l0.5-0.2l0.5,0.1l1.6,0.9l0.5,0.5l0.5,0.1
		l0.5,0.3l0.7,0.3l0.5,0.3l0.5,0.2l0.4,0.4l0.6,0.3l0.5,0.2L252-70v0.2l-0.1,0.2l-0.5,0.9l-1.1,1.7l-1,1.5l-1.5,2.4l-0.9,1.4
		l0.2,0.1l1.4,0.5h0.4l0.5-0.2l0.4-0.3h0.3l0.3,0.2l0.5,0.3l0.4,0.8l0.3,0.5l0.5,0.4l0.6,0.5L252.6-58z"/>
	<path id="SR" class="st1" d="M371.8-131.4l-0.6,0.5l-0.7,0.7l-0.9,1.4v0.5l-0.2,0.4l-0.1,0.6l0.1,0.6l0.3,0.5l0.1,0.8l-0.2,0.7
		l0.1,0.5l0.2,0.7l0.2,0.7v0.3l0.2,0.3l0.2,0.3l-0.1,0.6l0.7,1.2l0.5,0.5l0.6,0.5l0.3,0.5l0.4,0.5l0.2,0.1l0.1,0.3l-0.1,0.5v0.6
		l-0.5,0.7l-1,1.4l-0.1,0.3l0.3,1.1l-0.1,0.9l-0.1,0.5l-0.5,0.8L370-109l-0.6,0.4l-0.4,0.5h-0.3l-0.3,0.1l-0.1,0.1h-0.4l-0.3-0.3
		v-0.3l-0.2-0.4L367-109l-0.6,0.1l-0.2-0.1l-0.4-0.4l-0.4-0.4l-0.1-0.4h-0.2l-0.5,0.4l-0.4,0.1l-0.3-0.1h-0.3l-0.7,0.4l-0.5,0.1
		l-0.3,0.4l-2.1,0.2l-0.5,0.1l-1.3-0.6l-0.4-0.2h0.2h-0.2l-0.1,0.2l-0.2,0.8l-0.2,0.2l-0.4,0.2l-0.4,0.3l-0.1,0.3l0.5,0.2l0.4,0.6
		l0.5,0.5l0.4,0.5l-0.1,0.5L358-105l-0.3,0.3l-0.5,0.1l-1.5-0.4l-1.2-0.3l-0.5-0.1l-0.3-0.1l-0.3-0.3l-0.3-0.3l-0.5-0.1l-0.5-0.2
		l-0.5-0.6l-0.5-0.8l-0.2-0.4l-0.4-0.4l-0.4-0.5l-0.1-0.5l-0.3-0.5l0.3,0.1l-0.2-0.5v-0.2h-0.1l-0.2-0.2l-0.3-0.6l-0.1-0.2l-0.1-0.1
		l-0.4-0.5l-0.3-0.2l-0.1-0.2v-0.6l-0.2-0.3v-0.5v-0.3l-0.1-0.3l-0.2-0.2v-0.5l-0.1-1l-0.1-0.2h-0.9l-0.1,0.1l-0.4,0.1h-0.5
		l-0.4-0.1l-0.4-0.2l-0.1-0.2l0.1-0.7l-0.5-0.5l-0.8-0.6l-0.3-0.8l-0.3-0.5l-0.9-1.1l-0.2-0.7v-0.5l0.4-0.5l0.5-0.9l0.2-0.8l0.2-0.4
		l0.3-0.5l0.2-0.7l-0.2-0.5l-0.3-0.5l-0.1-0.3l0.3-0.5l0.3-0.4h0.3l0.4-0.2l0.3-0.3l0.5-0.1h0.6h1.2l0.6-0.1l0.2-0.2v-0.5l0.3-0.4
		l0.4-0.2l0.1-0.1v-0.2l-0.1-0.1l-0.1-0.1H348l-0.3-0.6l0.2-0.3l0.3-0.5l0.1-0.3l0.4-0.5l0.1,0.2l0.3-0.9v-0.7l0.3-0.7l0.4-0.8
		l0.6-0.5l3.8,0.5l1.7,0.4l2.3,0.7l0.4,0.7v-0.7l-0.1-0.7l0.6-0.5l1.4-0.2l2.1,0.3l1.7-0.3h2.3l3.6,0.6l1.6,0.4l0.6,0.4l0.1,0.6
		l-0.1,0.8l-0.3,0.8L371.8-131.4z"/>
	<path id="TT" class="st1" d="M321.6-175.8l-0.5,0.1l0.1-0.3l0.7-0.5l1.1-0.4h0.3l-0.2,0.5L321.6-175.8z M319.7-167.8l-1.3,0.5
		l-3.2,0.1l-1.4-0.2l-1,0.1l1.9-0.9l0.2-0.4l0.8-0.1l0.2-0.1l0.3-2.1l-0.1-0.5l-0.2-0.3l-0.4-0.2l-0.7-0.3l-0.1-0.2l0.5-0.3l1-0.1
		l0.7-0.3l1.5-0.1l0.7-0.2l1.3-0.1l-0.6,1l-0.3,0.4l0.1,0.9l-0.2,0.5l0.2,0.7l0.4,0.5l-0.3,0.5v0.7V-167.8L319.7-167.8z"/>
	<path id="UY" class="st1" d="M377.7,180.1l-0.4,0.4l-0.4,0.6l-0.5,1.5l-1.6,2.1l-0.4,1.2l-1.7,1.3l-1.2,1.4h-0.8l-0.7,0.6l-4.1,1.8
		l-1.4-0.4h-1.1l-1-0.8l-2.3-0.3l-1.4,0.4l-1.9,0.9h-0.5l-0.5-0.1l-1.1-0.4l-0.5-0.8l-3-0.9l-2.4-2.1H346l-2.2,0.3l-0.4-0.3
		l-0.2-0.5l-0.5-0.7l-1.9-1.8l-1.4-1.8l-0.3-1.8l0.2-1.9l0.5-2.3l-0.1-0.7l0.5-0.4l0.5-0.1l0.5-0.5l0.5-0.9l0.1-0.6l-0.4-1.3
		l-0.3-1.7l-0.3-0.8l0.6-1.4v-0.6l-0.4-0.5l-0.1-0.6l0.2-0.6v-0.5l-0.2-0.5l0.2-0.5l0.5-0.4l0.5-0.5l0.3-0.7l0.2-0.5V161l-0.2-0.4
		l-0.4-0.4l0.2-0.7l0.6-1.1l0.5-0.9l0.2-0.8V156l-0.2-0.5l0.1-0.4l0.4-0.2l0.2-0.5l-0.1-1.3l-0.5-1.1l0.3-0.8l0.9-1l0.5-0.8v-0.6
		l0.3-0.4l0.5,0.6l1.3,0.2h1.3l0.2-0.2l0.5-1.1l0.6-0.3l0.7-0.1l0.8,0.1l0.8,0.7l2.3,2.3l1.7,1.6l0.5,0.7l0.5,0.5l0.4,0.5l-0.2,1.4
		v0.6l0.1,0.2h0.4l0.6-0.1l0.5-0.3l0.4-0.5l0.4-0.4l0.3-0.2l0.1-0.3l0.2-0.3l0.2-0.1l0.4,0.2l0.8,0.8l0.6,0.7l0.2,0.5l0.3,0.5
		l0.3,0.4l0.2,0.4l0.6,0.5l0.6,0.3l0.5-0.3l1.1,1l2.3,0.8l0.5,0.5l0.4,0.7l0.8,1.1l1.2,1l0.9,0.5l0.9,0.3l0.5,0.2l0.4,0.4l0.5,0.4
		l0.4,0.2l0.1,0.4l0.4,0.8l0.4,1l0.4,0.9l0.8,0.9l1,0.7l1,0.4l0.5,0.5l0.3,0.5l-0.6,0.7l-0.7,1l-0.6,0.7l-0.6,0.5l-0.2,0.4l-0.2,0.5
		v3l-0.1,1.1l0.1,0.3l0.1,0.2l0.5,0.3L377.7,180.1L377.7,180.1z"/>
	<path id="VE" class="st1" d="M327.3-155.7l1.4,1.9v0.2l-0.2,0.3l-0.9,0.5l-0.2,0.2l-0.4,0.8l-1.1,0.5l-0.7,0.5l-0.5,0.5l-0.3,0.2
		l-1,0.1l-0.4,0.3l-0.5,0.9l-0.3,0.4l-0.5,0.5v0.3l0.7,1l0.1,0.4l-0.2,0.5v0.4l0.4,0.5l0.5,0.1l0.5-0.2h0.5l0.4,0.1l0.2,0.1v0.4
		l-0.3,0.7l-0.4,0.5l-1.4,0.6l-0.6,0.4l-0.4,0.3l-0.8-0.2h-0.4l-0.3,0.2l-0.2,0.2l-0.5,0.1l-0.7,0.1l-0.3,0.1l-0.3,0.4l-0.2,0.5
		l0.2,0.5l0.3,0.5v0.5l0.2,1.3l-0.3,0.3l-0.5,0.4l-0.6,0.6l-0.6,0.8l0.1,0.3l1.6,1.8l1.6,1.8l1.6,1.8l0.3,0.1l0.3,0.2l0.3,0.6
		l0.3,0.6v0.4l-0.2,0.5l-0.4,0.5l-0.5,0.4L321-127l-0.5,0.4l-0.5,0.8l-0.3,0.3l-0.3,0.1l-0.5,0.1h-0.8l-0.5-0.1l-0.6,0.6l-0.8,0.3
		l-0.5,0.9l-2,0.7l-2,0.5l-0.5,0.2l-2-0.5l-0.5,0.2l-0.5,0.5l-0.5,0.4h-0.5l-0.4,0.2l-0.2,0.6l-0.2,2l-0.7,0.6h-0.8l-0.5-0.7
		l-0.7-0.5l-1.2-1.3l-0.4-0.2h-0.3l-1.1,0.4l-0.5-0.2l-0.5-0.2l-0.7,0.1h-1.3h-0.8l-0.4-0.4l-0.4-0.7l-0.3-0.3l-0.3-0.2l-0.5-0.1
		h-2.1h-0.4l-0.3-0.1l-0.4-0.6l-0.5-0.3h-0.5l-0.2,0.4l0.9,1.1l0.3,0.6l0.8,0.8l2.3,1.8l0.5,0.5l-0.1,0.7v1.1l0.1,1.1l0.5,1.5
		l0.8,1.5l0.2,1l-0.2,0.7l-0.2,0.4v0.2l0.2,0.2l0.7,0.2l1.6,0.2h1l1.4,0.2l0.1,0.5l-0.2,0.9l-0.3,0.5l-0.3,0.2l-0.8,0.1l-0.8,0.5
		l-1.3,0.5l-0.7,0.1l-0.3,0.1l-0.3,0.2l-0.2,0.2l-0.3,1l-0.4,1.2l-0.7,0.7l-0.7,0.5l-0.7,0.1l-0.6-0.1l-0.3,0.2l-0.5,0.5l-0.6,0.5
		l-0.5,0.3h0l-0.7,0.3l-0.9,0.5l-0.6,0.4l-0.5,0.6l-0.7,0.7l-0.7,0.5l-0.4,0.6l-0.5,0.7h-0.6l-0.1-0.5l0.3-0.7l-0.4-0.6l-0.6-0.4
		l-0.3-0.1H284l-0.7,0.3l-0.9,0.5l-0.5,0.4l-0.5,0.2l-1,0.2l-0.8,0.1l-0.4-0.1l-0.6-0.5l-1.4-1.3l-2-1.7L275-101l0.1-0.5l-0.4-0.7
		l-0.2-0.8l-0.2-0.3l-0.1-0.6l-0.5-1.1l-0.4-0.9l-0.4-0.5l0.1-0.4l-0.1-0.4l-0.3-0.3l-0.4-1l0.1-0.5l-0.1-0.5l-0.4-0.3l-0.5-0.4
		l-0.6-0.6l-0.7-0.6l-0.4-0.3l-0.3-0.1l-0.2-0.6l-0.2-0.2l-0.4-0.1l-0.7-0.3l-0.7,0.3v-0.5l0.2-0.3l2.4-2.3l1.3-1l0.1-0.2l0.1-0.3
		l0.1-0.4l-0.3-0.4l-1.2-1.7l-0.4-0.4l-0.4-0.3l-0.5-0.7l-0.5-1.7l-0.4-0.8l-0.1-0.6v-0.7l-0.2-0.5l-0.3-0.4v-1.2l0.3-2l0.1-1.5
		l-0.2-1.1l0.3-0.8l0.7-0.5l0.4-0.8l0.1-1.2l0.5-0.9l0.8-0.7l0.3-0.7L270-138l-0.1-0.5l-0.6-0.5l-1.2-0.4h-1l-0.6,0.4l-1.5,0.4
		l-2.5,0.3h-2l-1.5-0.3l-1.2,0.1L257-138l-0.5,0.1l-0.4-0.3l-0.4-0.1l-0.5,0.2l-0.1-0.1l-1.2-1.4l-1.1-1.4l-1.3-1.5l-1.4-1.8
		l-0.3-0.1h-0.5H249l-0.9-0.2l-0.6-0.3l-0.5-0.3l-0.9-0.4l-0.6-0.1L245-145l-1.5,0.6l-0.9,0.1h-0.7l-1.8-0.3l-1.3-0.1l-1.4,0.2
		l-0.6,0.1l-0.9-0.4l-0.6-0.5l-0.5-1.2l-0.4-0.9l-0.6-0.2l-0.7-0.2l-0.4-0.3l-0.2-0.5l-0.1-0.7l0.1-1.1l0.1-0.4l0.1-1.2l0.5-0.6
		l0.3-0.3l-0.1-0.5l-0.2-1l-0.2-0.7l-0.8-0.8l-1.1-1.1l-0.5-1.7l-0.5-2l-0.5-0.2l-0.4,0.1l-0.5-0.1l-0.4-0.8l-0.4-0.2l-0.6,0.3
		l-0.5,0.2l-1.1,0.2l-0.2-0.2l0.1-0.3l0.5-0.7l0.5-0.9l0.6-0.8l0.5-0.9l0.5-0.9l0.3-1.8l0.2-1.3l0.5-2.3l1-1.8l0.4-0.8l0.9-1.1
		l0.5-0.6l0.5-0.5l1.5-0.6l1.8-3.2l0.5-0.5l1.8-0.5l1.4-0.4l1-0.4l0.4-0.2l0.3-0.1l-0.2,0.4l-0.5,0.5l-0.5,0.3l-2.9,0.7l-0.3,0.2
		l-0.4,0.3v0.6l0.1,0.5l0.8,1.7l0.4,0.5l1.2,0.9l-0.3,0.1h-0.5l0.3,1.3l0.7,0.8v0.5l-0.5,1.6l-1,1l-0.7,1.2l-0.5,0.5l-1.2,2.3
		l0.9,1.4l0.1,0.7l0.8,1l0.5,0.3l0.4,0.4l-0.2,0.6l0.3,0.9l0.4,0.5l0.5,0.2h0.6l1.8-0.6l0.5-0.3l0.3-0.5l0.9-1l0.1-1.3l0.2-1.5
		l-0.2-1l-1-1.4l-0.5-1l-0.9-0.9l-0.5-1.5l-0.3-0.5l-0.2-0.7l-0.2-1.2l0.6-0.5l-0.1-1l1.5-0.3l3.3-1.6l2.1-0.4l2.3-0.9l0.5-0.5
		l0.5-0.7l0.4-0.1l1.3,0.6l0.6-0.3l0.3-0.5l-0.4-1h-0.7l-2.2,0.4l-0.2-0.5v-0.4l-0.5-1.2l0.3-0.9l0.4-0.7l0.6-0.3l0.9-0.4l0.7,0.5
		l0.5,0.5l0.2,0.5l0.2,1.3l0.4,1.3l0.4,0.9l0.6,0.6h0.5l0.4-0.1l2.3-0.2l1.4,0.5l1.7,0.2l1.6,0.9l1.6,1.2l0.5,0.8l0.2,0.8l0.4,0.5
		l-0.4,0.5l0.2,0.9l0.5,0.9l0.7,0.6l2.1,0.2l2.2-0.4l3.4-0.4l1.1-0.3l5.6-0.2l1.1,0.5l0.1,0.5v0.4l1.8,1.6l1.4,0.2l1.3,0.5l1.3,0.3
		l1.4,0.4l0.8-0.1l0.6-0.2h0.7l5.1-2.8l2.7,0.1l0.5-0.2l0.4-0.3l-1-0.5l-2.3-0.2l-0.7,0.3l-0.4-0.7h0.7l2.5-0.3l2.9,0.2l2.3-0.5
		l1.2-0.1l0.7,0.1l1.9-0.4l3.5,0.4l2.8-0.4l-0.4,0.5l-0.9,0.3l-1.4,0.1l-1.1,0.6l-2.3-0.1l-1.7,0.3l0.5,0.2v0.7l0.3,0.2h0.3l0.5,0.5
		l0.2,0.4l0.2,0.7l-0.3,0.7l-0.4,0.4l0.7-0.1l0.4-0.4l-0.1-0.4l0.1-0.5l0.4,0.1l0.3,0.2l0.9,2l0.6,1h0.2h0.2l0.2-0.2l0.3-0.5
		l0.3,0.3l0.2,0.1h0.2l-0.1-0.5l0.2-0.5l-0.1-0.2h0.3l0.4,0.1l0.5,0.2l0.8,0.6l0.5,0.6l0.1,0.4l0.2,0.2l0.4,0.2l0.2,0.4v-0.5
		l-0.2-0.4l-0.1-0.5h1.1l0.3-0.6l0.5,0.4l1.5,1.6l0.5,0.3l1.7,0.3l1.1,0.8l0.6,0.7l-0.4,0.7l-1,0.4l-0.4,0.5l-0.3,0.5v0.5l-0.3,0.5
		v0.2l-0.2,0.7l-0.4,0.9l-0.5,1h-2.8l0.7,0.4l0.6,0.3l1.1,0.7l0.8-0.6h1.2l1.3-0.6l0.5-0.1l2.4,0.4l0.5-0.5l0.5-0.2l1.4,0.1
		L327.3-155.7L327.3-155.7z M298.1-175.5l0.3,1l-0.1,0.2l-0.7,0.7l-0.5,0.1h-0.5l-0.4-0.1l-0.5-0.5l-0.5,0.1l-1.1-0.2l-0.3-0.2
		l0.5-0.5l0.7-0.2l0.3-0.1l0.2,0.4l0.5,0.3h0.6l0.2-0.5l0.9-0.7L298.1-175.5L298.1-175.5z M287.7-173.7l-0.5,0.2l-0.7-0.2l-0.4-0.3
		l0.3-0.3h0.6l0.5,0.4L287.7-173.7z M321.1-160.2l-0.9,0.3v-0.2l0.3-0.4l0.5-0.1l0.2-0.1l0.3-0.1h0.2l0.2,0.1l-0.5,0.2L321.1-160.2
		L321.1-160.2z M319.8-158.1l-0.5,0.2l-0.1-0.7l0.2-0.2l0.8-0.6l0.2-0.1l0.2,0.1v0.2l0.4,0.3l-0.1,0.4l-0.5,0.4L319.8-158.1
		L319.8-158.1z"/>
	<path id="AR" class="st1" d="M307.2,81.3l0.2,0.2v0.3l0.6,0.5l1.3,0.7l1.2,1.4l1.1,2.1l1.1,1.5l1,1l0.9,0.7l0.8,0.5l0.5,0.4
		l0.1,0.3l0.8,0.5l1.4,0.8l0.9,0.8l0.4,0.8l1.4,0.8l2.5,0.9l1.8,0.5h1.2l1.6,0.7l2.2,1.4l1.4,1l0.5,0.5l1.4,0.9l3.5,1.9l1.5,0.5
		l0.7,0.5l0.5,0.5l0.5,0.2l0.5-0.2l0.9,0.2l1.4,0.6l1.1,0.7l1.4,1.6l0.5,0.6l0.2,0.5l-0.1,0.5l-0.5,0.5l-0.7,0.5l-0.2,0.3v0.3
		l-0.2,0.5l-0.6,1l-0.2,0.5v0.4l-0.4,0.4l-1.1,0.7l-0.2,0.4l-0.1,0.4l-0.1,0.2l-0.2,0.1l-0.2,0.4l-0.2,0.6v0.8l0.1,1v0.4l-0.3,0.2
		l-0.1,0.3l-0.1,0.5l-0.2,0.4l-0.4,0.2l-0.1,0.3l0.1,0.3l-0.3,0.3l-0.6,0.3l-0.4,0.4l-0.2,0.5l-0.4,0.5l-0.5,0.5l-0.2,0.5l0.3,1
		l3.3-0.4l2.7,0.4l3.2,1l2.2,0.4l1.1-0.3h0.8l0.5,0.4l0.7,0.1l0.8-0.2l0.7,0.2l0.5,0.5l0.5-0.2l0.5-0.8l0.5-0.6l0.6-0.4l0.7-0.1
		l0.9,0.2l0.7,0.3l0.5,0.5h0.5l0.6-0.5l0.3-0.6v-0.7l0.3-0.5l0.5-0.3l0.4-0.4l0.2-0.5l0.6-0.3l1.1-0.1l0.5-0.3l0.1-0.4l0.3-0.4
		l0.5-0.4l0.4-0.4l0.2-0.5l0.4-0.3l0.5-0.1l0.5-1l0.6-1.9l0.4-2.5l0.1-3.6h0.6l0.3,0.3l0.5,0.2l0.5-0.3l0.4-0.2h0.6l0.4-0.4l0.4-0.1
		l0.3,0.2l0.3,0.2l0.5,0.1l0.5,0.5l0.5,0.2l0.2,0.6l0.3,1.8l0.5,1.1l0.5,1.2v0.5l-0.4,0.5l-0.1,0.8l-0.2,1.9l-0.1,0.7l0.2,0.5
		l0.1,0.6l-0.3,0.8l-0.6,1.2l-0.6,0.4h-0.2l-0.8,0.7l-0.5,0.3l-0.4-0.2l-0.4,0.3l-0.5,0.8l-0.5,0.4l-0.9,0.2l-0.3,0.1h-0.5l-0.5,0.2
		l-0.4,0.5l-0.5,0.2l-0.5-0.1l-0.4,0.2l-0.4,0.5l0.1,0.1l-0.1,0.5l-0.4,0.4l-0.6,0.2l-0.2,0.3v0.4l-0.3,0.3l-1.1,0.3l-0.8,0.5
		l-0.5,0.7l-0.5,0.5l-0.8,0.3l-1.1,0.7l-0.2,0.5l0.5,0.5l0.2,0.4l-0.1,0.4h-0.4l-0.5-0.3l-0.4-0.1l-0.3,0.2l-0.1,0.3v0.4l-0.2,0.3
		l-0.5,0.2l-0.3,0.3l-0.1,0.5l-0.5,0.6l-0.9,0.7l-0.7,1l-0.5,1.3l-0.6,0.8l-0.7,0.4l-0.5,0.5l-0.3,0.7l-0.8,1.2l-1.3,1.5l-1.2,1.1
		l-1,0.5l-0.5,0.6l-0.1,0.7l-0.6,0.8l-1.2,0.9l-0.4,0.5l-0.3,0.4v0.6l-0.5,0.8l-0.9,1l-0.3,0.8l0.5,1.1l0.1,1.3l-0.2,0.5l-0.4,0.2
		l-0.1,0.4l0.2,0.5v0.6l-0.2,0.8l-0.5,0.9l-0.6,1l-0.2,0.7l0.4,0.4l0.2,0.4v0.4l-0.2,0.5l-0.3,0.7l-0.4,0.5l-0.5,0.4l-0.2,0.5
		l0.2,0.5v0.5l-0.2,0.6l0.1,0.6l0.4,0.5v0.6l-0.6,1.4l-0.2,0.8l0.4,3.5l-0.2,0.5l-0.4,0.5H340l-0.5-0.1l-0.4,0.4l-0.3,1.5l-0.7,3.4
		l0.1,0.8l0.5,1.4l0.2,0.8l0.2,0.6l0.1,1.2l-0.4,0.5l-0.3,0.1l-0.4,0.3l0.5,1.4l0.4,0.7l1,1.4l4,2l1.6,1.2l1.9,1.5l1,1.6l0.1,1.4
		l-1.4,2l-0.2,1.7l0.3,1.2l0.5,1.1l1.4,1.4l1.1,0.5l1.4-0.1l0.3,0.4l0.2,0.4l0.2,2.9v1.1l-0.5,1l-2.7,4.6l-2.3,2.9l-0.8,1.5
		l-0.3,1.7l-0.7,0.8l-4.1,2.5l-6.3,2.3l-5.1,1.2l-1.2,0.4l-8.2,1.4l-1.6,0.2l-2.1-0.1l-1.7,0.2l-1.9-0.4l-1.6-0.5l-0.9-1l-1.1-0.1
		l-0.3,0.5l0.5,1.4l-0.3,1.6l0.4,0.9l0.6,0.2l0.6,0.5l0.5,0.6l-1,0.1l0.4,0.5l0.5,0.3l-0.1,1.1l-0.4,2.5l-0.9,0.5l-0.3,0.2l-0.3,0.5
		l-0.6,2.4l-0.2,1.6l0.3,1l1.1,2.2l-0.5,1.4l-0.7,0.7l-3.1,1.5l-1.3,0.6l-1.9,0.5l-3.1,0.1l-1.2-0.1l-2.6-1.4l-2-0.8l-1.8-0.7
		l-1.7-0.5l0.3-0.2l0.1-0.4l-0.5-0.2l-0.4-0.1l-1.2,0.7l-0.5,0.7l-0.2,0.6v1.6l0.2,1.4l0.8,3.3l0.1,1.8l-0.4,2.3l0.5,1.4l0.6,0.6
		l1.5,0.6l0.5,0.5l0.6-0.1l0.2,0.2l-0.1,0.3l-0.4,0.5v0.6l1.2,0.2l1.2-0.1l1.3-0.3l0.3-0.5v-0.9l-1.4-0.2l0.2-0.4l1.1-0.4l1.4-0.6
		l0.7-0.1l0.5,0.4l0.4,0.4l0.5,1l0.3,1.3v1.5l-0.2,1.4l-0.2,0.5l-0.4,0.6l-2.6,0.8l-0.7-0.2l-0.7-1.1l-0.2-1.2l-0.5-0.7l-1.3-0.6
		l-1.3,0.2l-1.3,1.1l-1.2,0.4l-0.5,1l3,1.5l1.4,0.5h0.5l0.5,0.2l-0.5,0.5l-0.5,0.4l-2.2,0.8l-1,0.5l-1.1,1.1l-1.5,2.3l-0.5,0.5
		l-0.3,0.6l-0.2,1.6l0.5,2.7l-0.5,1.2l0.4,1.3l-0.2,0.9l-0.5,1.3l-2.2,2l0.7,1.4l0.7,0.8l-0.1,0.7l-0.3,0.6h-0.9l-3.2-0.5l-1.2,0.7
		l-1.1,0.9l-0.3,0.5l-0.4,0.3l-2.3,0.5l-0.5,0.4l-2.4,3.4l-1,2.2l-1.3,2.1l-0.4,0.9l-0.1,1.3l0.2,1.1l0.2,0.8l0.5,1.1l0.9,1.3l4.6,5
		l1,0.5l5,0.5l1.1,0.7l0.6,1.1l0.3,1l-0.3,2.5l-0.3,0.8l-0.5,0.7l-1.2,0.9l-1.4,0.5l0.4,0.4l0.5-0.1l1.3-0.3l0.5,0.3l0.4,1l-0.8,0.4
		l-0.3,0.5l-0.5,0.7l-2.9,3l-1.5,0.9l-1.4,1.2l-1.9,1.2l-0.7,0.7l-1,1.4l-1.5,1.6l-1.6,3.4l-0.1,0.6l0.3,0.5l-0.9,6l-0.4,0.7
		l-0.6,0.7l-1.7,1.3l-0.8,0.2l-1.1-0.7l-0.6-0.7l-0.6-1.3l-0.7-1.4v0.5l0.3,0.8l-0.2,0.8l-1.9,0.4l-0.5,0.4l1.7-0.2l1.2,0.3l0.5,0.3
		l0.5,0.6l0.4,0.8l-0.4,0.5l-0.9,0.4l-1.3,0.6l-1.4,1.2l-0.8,1.4l-0.4,1l-0.4,2l-0.1,1.4l-0.6,1l-0.9,0.9l0.1,0.2l0.6-0.5l0.5-0.2
		l0.5,1.3l0.6,2.5l0.3,1.7v0.5l-0.2,0.7l-1.2,0.2h-1.1l-0.8,0.3l0.5,0.3l0.7-0.1l1,0.7l1.1-0.4l0.5,0.5l0.4,0.5l1.7,3.7l1.5,2.3
		l0.7,1.4l-0.4,0.6l-0.1-0.8l-1-0.2l-1-0.2l-1.6-0.6l-2.2-0.9h-2.2l-1.7-0.7l-1.9-0.8l-4-0.1l-3.5-0.1l-3.6-0.1h-2.3h-1.5l-0.4-0.3
		l0.1-1l-0.5-0.7l-0.8-0.9l-1-0.6l-0.5-0.9l-0.5-1l0.3-0.9l0.5-2.1V362l-0.5-0.6l-0.1-0.9l0.1-0.5l0.4-0.4l0.3-1.4l-0.2-1.4
		l-0.3-1.3l-0.4-0.5l-0.5-0.3l-0.4-0.1l-0.8,0.5l-1.4-0.1l-0.5,0.2l-0.7,0.5l-1,0.7l-0.5-0.3l-0.2-0.8l-0.4-0.7l-0.3-0.6l-0.2-1
		l-0.3-1.4l-0.5-1.5l-0.9-1.3l-0.1-1.1l-0.2-1.4l0.5-1.4l-0.3-1.2l-0.5-1.4l0.2-1.4l0.5-0.8l0.2-1l2.4-0.2l-0.1-1.3l0.5-1.1l0.5-1
		l0.4-0.5l0.9-0.4l1.1-0.5l0.6-0.6l0.3-0.5l0.2-0.7l0.1-0.8l-0.2-1.6l0.2-0.5l0.6-0.6l1.1-0.6l0.5-1.5l-0.3-1.4l-0.6-1.1l-0.8-0.5
		l-0.1-1.1l0.4-1.1l0.5-1.1l0.5-1.3v-0.9l0.5-0.5l1.4-1.2l0.5-1.2l0.5-0.3l0.5-0.1V314l-0.5-0.6l-0.1-0.8l0.1-0.9l0.1-1.2l0.6-0.5
		l0.9-0.9l0.3-0.6v-0.8l-0.3-1.6l-0.3-1.2l-0.1-0.5l-0.5-0.8l-0.4-0.5l0.5-0.6l1-0.6l0.4-1l-0.4-0.8l-0.5-0.5l-0.2-1.3l0.2-1.5
		l0.4-0.5l1.4-0.3l0.1-0.8l1.1-1.2v-1l-0.7-0.6l-0.6-1.1l-0.5-1l-1.6-0.5l-1.7-0.3l-0.3-0.9l0.1-0.5l0.8,0.2l1.4-0.2h1l0.7-0.1
		l0.8-0.1l0.7,0.4l0.7-0.3l0.3-1.4l0.5-0.7l0.1-0.7l-0.5-0.5l-0.9-0.2l-3.8-0.5l-0.1-0.5v-0.9l0.2-1V281l0.4-0.5l0.4-0.9l0.3-0.5
		l-0.3-0.7l-0.6-1.1l0.5-0.5v-0.6l-0.1-0.6l-0.6-0.6l-0.5-0.9v-1l0.6-0.3l0.5-0.3l0.1-0.6l-0.3-0.7l-0.9-0.2l-1.2-0.5l-0.4-0.4
		l-0.4-0.8l0.3-2.2l-0.1-1.4l-0.1-0.7l0.3-0.5l0.4-0.5l-0.2-1.2l-0.4-0.6l0.1-0.5l0.4-0.5l0.3-0.6l0.3-0.2l0.4,0.4l0.6-0.2l0.7-0.5
		l0.1-0.5l-0.2-0.8l-0.5-2l-0.5-1.3l0.1-0.5l0.2-0.5l-0.2-1.7l0.1-1v-3l0.1-1l-0.5-1.1l0.1-1l0.4-0.7l0.4-1l0.3-0.8l0.3-0.4l0.5-0.2
		l0.1-0.5l-0.2-0.4l-0.6-0.5l-0.1-0.6l0.1-0.5l0.3-0.3h0.5l0.4-0.7l0.1-0.9l0.1-0.5l-0.3-0.5l-0.2-1.3l-0.2-0.7l0.2-0.3l0.3-0.1
		l0.5,0.2l0.4-0.1l0.1-0.4v-0.4l0.2-0.3l0.4-0.9l0.4-1.1l0.1-0.8l-0.1-2.2l0.2-0.5l0.4-0.5l0.5-0.5l0.6-0.4l0.8-0.5l1-0.2l0.5-0.5
		l0.3-0.7l0.1-0.6l-0.4-0.5l-0.5-0.5l-0.3-1.3l-0.1-1.2l-0.1-1.4l-0.5-1.3l-0.5-1.4L242,216l0.2-0.7l0.2-1.1l-0.3-0.5l-0.3-0.9
		l0.3-0.7l0.4-1.1v-0.5l-0.3-1.3l-0.3-0.7l0.3-0.8l0.4-0.7l0.3-0.4l-0.1-0.6l0.1-0.5l0.6-0.4l0.5-0.6l0.4-0.1h0.5l0.3-0.2l0.1-0.5
		l0.1-0.5l0.7-0.6l0.5-0.6l0.8-0.1l0.4-0.6v-0.8l-0.1-0.9l0.3-1l-0.3-1.5v-0.8l-0.3-0.6l0.1-0.7l-0.2-0.5l-0.5-0.2l-0.2-0.5l0.3-0.3
		l0.5-0.2l0.5-0.5l0.5-2.1l0.2-0.6l0.2-0.7V189l0.3-0.5l0.4-0.8l0.5-0.8l0.3-0.5l0.3-0.7l0.1-0.5l0.4-0.2l0.5-0.1l0.5-0.2l0.2-0.3
		V184v-0.9l-0.2-1.4l-0.1-1.8l0.1-1.2l0.4-1.2l0.3-0.6l-0.1-0.5l-0.1-0.5l-0.5-0.3l-0.5,0.3l-0.4-0.1l-0.5-0.6l-0.2-0.6l0.1-0.9
		l0.4-0.5l0.2-0.7l-0.3-0.2l-0.5-0.5l-0.5-1.6l0.1-1.4l-0.5-0.4l-0.2-1.1l-0.5-0.4l-0.2-0.8l-0.2-0.8l0.1-0.4l0.5-0.1l0.3-0.6
		l-0.2-0.4l-0.4-0.4H248l-0.5-0.4l-0.5-1.5l-0.5-0.9l0.2-1.3l0.1-1l0.2-0.8l0.1-0.6l0.4-0.3l0.4,0.2l0.3-0.1l0.3-0.5l0.3-0.4v-0.3
		l-0.2-0.3l-0.1-0.5l0.2-0.6l0.4-1.4l0.5-1.5l0.3-0.5l-0.1-0.5l0.1-0.2l0.4,0.3l1.1-0.3l0.4-0.6l0.2-0.6l0.4-0.4l-0.2-0.5l-0.5-0.2
		l-0.3-0.2l0.1-0.5l0.2-1.3V145l-0.5-2l-0.4-1.9l0.3-0.6l0.7-0.9l0.5-0.4l0.1-0.5l0.5-2.3l0.1-1.3l0.4-0.7l0.3-1.3l1-1.1l0.3-0.7
		l0.4-0.1l0.2-0.3l0.5-0.8l0.7-0.8l0.5-0.5l0.2-0.6l0.3-0.9l0.5-1.4l0.4-1l0.5-0.4l0.5-1.4l0.2-0.8l0.5-0.4l0.5-0.1l0.5,0.4l0.5-0.1
		l0.5-0.5l1-0.4l0.5-0.2l0.2-0.5V120l-0.5-0.6l-0.8-1.2l-0.7-1.3l-0.1-0.4V116l0.1-0.5l0.4-0.6l0.9-1.1l-0.1-0.7l-0.6-2.7l-0.3-0.7
		l-0.5-1.4l0.1-0.5l0.4-1.5l0.4-0.6l0.5-0.1l0.3-0.2l0.1-0.3l-0.4-0.4l-0.2-0.5l-0.2-0.6l-0.5-0.2l-0.3-0.5v-0.7l0.5-1l0.5-0.3
		l0.2-0.5l0.5-0.4l0.5-0.3l0.4-0.5l1.5-0.7l1.3-0.5l2.3-1l1.6-0.7l0.2-0.5l0.1-0.4l0.7-2.5l1-3.2l0.6-2l-1.4-1.4l0.3-0.4l0.8-1
		l0.2-0.8l0.4-0.4l1.4-0.8l0.3-0.5l0.1-0.6l0.3-0.5l0.5-0.1l1-0.4l1.1-0.4l0.4-0.5l0.3-0.9l0.3-1l0.2-0.2h0.4l0.5,0.3l0.3,0.4
		l1.5,1.2l0.7,0.6l0.6,0.1l1.3-0.1h0.3h3.2l0.5,0.1l1.2,0.3l0.6,0.2l0.5,0.1l0.7,0.4l0.6,1.2l0.4,0.9l0.3,0.8l0.5,1.4l0.4,0.5
		l0.1-0.3l0.4-1.5l0.5-0.9l0.6-1l1.2-2.4l0.5-0.4l0.5-0.2h0.4l0.4,0.2h0.5l0.4-0.2h3.1h3.2h0.1l0.2,0.5l0.5,0.9l0.6,0.5L307.2,81.3
		L307.2,81.3z M313.1,231.2l0.1,0.6l-0.4-0.1l-0.9-0.6l-0.4-0.5l-0.1-0.3l1,0.3l0.5,0.3L313.1,231.2L313.1,231.2z M261.7,407.3v-3
		l0.1-4v-3.5v-3.4v-3.5v-3.4v-3.7V379l0.5,0.5l1.8,2.5l0.5,1.1l0.3,1.3l-0.7-0.8l-0.7,0.5l-0.4,0.7l-0.3,0.8v0.5l0.3,0.5l0.7,0.5
		l1.8,0.2l0.1,0.2l1,3.2l0.5,0.7l0.6,0.5l1.4,1.6l1.4,1.7l1.6,1.6l1.7,1.3l1.5,1l1.4,1.2l1.6,1.6l1.7,1.2l1.8,0.8l1.9,0.7l2.9-0.3
		l0.9,0.1l0.5,0.5l-0.5,1.4l-0.7,1.2l-1,0.5l-1,0.2H284l-1-0.2l-0.8,0.1l-0.8,0.5l-0.8,0.3h-0.9l-0.8,0.5l-0.8,0.3l-0.9-0.3
		l-2.3-1.2l-1.5-0.3l-5.1-0.5l-1.6-0.3l-1.6-0.4h-0.8L263,407h-1L261.7,407.3L261.7,407.3z M292.8,405.5l0.8,0.3l1.6-0.3h0.9
		l0.4,0.1l0.2,0.2l1.2-0.3h0.5l-0.1,0.5l-1.1,0.5l-0.5-0.3l-2.3,0.1l-1,0.5h-0.5l-1,0.8l-0.7-0.5l-0.2-0.5l0.5-0.7h0.5l0.4-0.3
		L292.8,405.5L292.8,405.5z"/>
	<path id="BO" class="st1" d="M341.3,65.6l0.2-1.4l-0.2-1.2l-0.2-0.3l-2.3-1.4l-2-1.3l-2.6-1.6l-3.4,0.1l-3.5,0.1l-3.3,0.7l-3.3,0.7
		l-1.5,0.4l-3.2,0.7l-1.9,0.3l-0.5,1.4l-0.7,2l-0.7,1.2l-0.8,1.2l-1.2,1.7V71v2l-0.8,2.8l-0.7,2.3l-0.7,2.3l-0.5,1.6l-0.2,0.5
		l-0.1-0.1l-0.6-0.5l-0.5-0.9l-0.2-0.5h-0.1h-3.2h-3.1l-0.4,0.2h-0.5l-0.4-0.2h-0.4l-0.5,0.2l-0.5,0.4l-1.2,2.4l-0.5,1l-0.5,0.9
		l-0.4,1.5l-0.1,0.3l-0.4-0.5l-0.5-1.4l-0.3-0.8l-0.4-0.9l-0.6-1.2l-0.7-0.4l-0.5-0.1l-0.6-0.2l-1.2-0.3l-0.5-0.1h-3.2h-0.3
		l-1.3,0.1l-0.6-0.1l-0.7-0.6l-1.5-1.2l-0.3-0.4l-0.5-0.3h0l-0.2,0.2l-0.3,1l-0.3,0.9l-0.4,0.5l-1.1,0.4l-1,0.4l-0.5,0.1l-0.3,0.5
		l-0.1,0.6l-0.3,0.5l-1.4,0.8l-0.4,0.4l-0.2,0.8l-0.8,1l-0.3,0.4l-1.3,0.3l-1.6,0.3h-1l-0.6-0.1l-0.2-0.2l-0.5-0.3l-0.1-0.4v-0.5
		l0.1-0.8l-0.1-1.1l-0.5-1.3v-0.5l-0.1-0.6l-0.3-1.2l-0.6-0.6l-0.2-1l-0.1-0.9l-0.5-1.1l-0.1-1.4V75l-0.9-1.4l-0.9-1.4l-0.7-0.2
		l-0.2-0.2l-0.1-0.5v-0.6l0.1-0.4l0.5-0.6v-0.1l-0.1-0.2l-1.4-1l-0.4-0.3l-0.1-0.4v-0.3l0.4-0.3l0.2-0.3l-0.4-0.7v-0.6l-0.2-0.3V65
		l0.2-0.2l1-0.2L262,64v-0.5l-0.2-0.4l-0.9-0.9V62l1.1-1l0.6-0.8l0.2-0.2l-0.1-0.2l-0.2-0.2l-0.5-0.4l-0.5-0.4l-0.5-0.5l-0.6-0.6
		l-0.7-0.5l-0.5-0.5l-0.3-0.5v-0.5l-0.1-0.8l-0.4-1.3l-0.1-0.8l-0.2-0.9l-0.2-0.6l-0.1-0.6l-0.3-0.6l-0.2-0.5l0.2-0.4l0.2-0.3v-0.2
		l-1.4-0.7l-0.3-0.2l-0.4-1.4l-1.1-1.2l-0.1-0.9l0,0v-0.4l-0.1-0.5l-0.4-0.5l-0.5-0.3l-0.2-0.4l0.2-0.4l0.9-0.7l0.5-0.1l0.1-0.4
		l0.3-0.3l0.9-1.1l0.5-0.7l0.5-0.5l0.6-0.3l0.3-0.3l-0.1-0.8v-0.5l0.2-0.4l0.6-0.4l0.5-0.3l0.1-0.1l-0.1-0.2l-0.5-0.4l-1-0.4h-0.6
		l-0.5-0.3l-0.2-0.3l-1.4-3.2l-0.2-0.7v-0.3l0.9-1.6l0.4-0.5l0.6-0.7l-0.1-0.3l-1.1-1.3l-0.4-0.6v-0.6l0.1-0.7l0.6-0.4l0.2-0.5
		l0.1-0.5l0.3-0.2l0.3-0.4l0.4-0.5l0.5-0.5l0.3-0.3l0.1-0.9l0.3-0.3L259,18l0.1-0.2l-0.2-0.6l-0.4-0.6l-0.3-0.3l-0.4-1.5l-0.4-0.7
		l0.2-0.3l0.3-0.4l0.3-0.7l0.1-0.9l-0.1-3.2v0.1l0.4-0.5l0.5-0.5l0.5-0.2l0.4-0.4V6.6l0.3-0.4l0.4-0.5l-1-1.8l-0.9-1.5L258.4,1
		l-1-1.7l-0.6-1.1L256-3.2l-0.7-1.3l-1-1.6h0.9L257-6l1.7,0.3l1.2,0.1l0.5,0.3l0.1,0.5l0.4,0.2l0.4-0.1h0.5l0.9-0.5l0.7-0.3l0.6-0.4
		l0.4-0.4l0.8-1.2l0.6-0.6l0.6-0.2l1.2-0.1l0.4,0.2h0.5l0.5-0.6l0.6-0.7l1.3-0.9l0.6-0.3l0.4-0.3l0.7-0.1l0.6-0.4l2.9-2.3l1.2-0.5
		l0.7-0.1l0.6-0.2l1-0.4l2.6-0.3l1.6-0.1l0.5,0.3l0.6-0.1l0.5-0.5l0.5-0.2h0.3l0.5,0.6l0.2,0.6l-0.2,0.5v0.7l0.2,0.9l-0.1,0.8
		l-0.6,1.1l-0.3,0.5l-0.1,0.5l0.1,0.6l0.3,1l0.5,1.4l0.1,1L286.2-5L286-4.4V-4l0.1,0.4l0.3,0.2l0.1,0.4v0.5l0.3,0.5l0.5,0.5l0.3,0.5
		l-0.1,0.5v0.3l0.2,0.1l0.2-0.1l0.2-0.1l0.2,0.1l0.4,0.7l0.1,0.2l0.2,0.5l0.1,0.5l0.6,0.3l0.6,0.2l0.4,0.2l0.7,0.6l0.6,0.5l0.7,0.4
		l0.3,0.5l0.5,0.9l1.3,0.4l1.4,0.2l0.9,0.2l1.2-0.5l0.7,0.1l0.8,0.4l0.4,0.2l0.5,0.5l0.9,0.5l0.7,0.2l0.5-0.4l0.5-0.1l0.4,0.1
		l0.2,0.6l0.2,0.5l0.5,0.4l0.9,0.8l0.5,0.4h0.6l1.3,0.5l1.4,0.5l0.7,0.1l0.6-0.1l0.5,0.2l0.2,0.6l1.2,1.3l0.5,0.5l0.6,0.5h1.6
		l0.5,0.1l0.7-0.1l2.2-0.2l0.4-0.1l1,0.4l1.4,0.8l1,0.6l0.6,0.4l0.4,0.5l0.3,0.6l0.1,0.6l-0.2,0.6l-0.3,0.3l-0.1,0.4l0.1,0.6
		l0.5,0.5l0.2,0.6l0.3,1.2l0.3,0.4l0.2,3.7h-1h-1.4l0.4,0.4l1.2,1.4l1.1,1.3l0.2,2l0.1,1.3l0.2,1.8l0.1,1.1l2.6,0.1l3,0.1l3.6,0.1
		l3.2,0.1h0.3l0.5-0.2L339,35h0.2v0.5l-0.1,0.5v0.6l-0.9,1.3l-0.1,0.4l0.2,1.6l0.4,1.4l0.2,1.2l0.4,0.4l1.1,0.6l1.6,1.2l0.6,0.2
		l0.5-0.2l0.4,0.5l0.1,0.8l0.9,2.2l0.5,1.4l0.3,0.5l0.5,0.3l-0.1,0.2l-0.4,0.1l-0.2,0.3l-0.5,1.5l-0.6,2.1l-0.5,1.4h0.4l0,0l0.1,0.6
		l-0.5,0.1l-0.2,0.2l-0.5,1.2l-0.7,1.5l-0.7,1.6l-0.5,1l0.8,0.7l1.3,1.2l-0.2,0.4l-0.5,0.2l-0.5,0.1l-0.4,0.5L341.3,65.6L341.3,65.6
		z"/>
	<path id="PY" class="st1" d="M341.3,65.6l0.2,0.5l0.1,0.5l0.3,0.4l0.3,0.5l0.3,0.3l0.2,0.4l-0.1,0.5l0.1,0.6l0.1,0.5l0.1,0.1
		l0.4,0.1l0.2,0.5l-0.1,0.3l0.1,0.3l0.1,0.3l-0.1,0.3l0.1,0.2l0.3,0.2l0.3,0.6v1.1l-0.3,0.6l-0.2,0.5l-0.1,0.3l0.2,0.5l-0.3,0.5
		l-0.3,0.6l0.1,0.5l0.1,0.4v0.5l0.1,0.4l-0.1,0.5l-0.1,0.4l-0.1,0.5l0.1,0.5L343,81l-0.1,0.4l-0.1,0.4l0.3,0.5l0.5,0.2l0.5,0.1
		l0.5-0.3l0.4-0.1l0.6,0.3l0.5,0.5l0.7,0.1l0.6,0.1l0.5,0.1l0.7-0.2l0.7,0.2l0.8,0.3l0.7,0.2l0.7-0.1h0.5l0.5-0.3h0.5l0.4-0.5
		l0.3-0.4l0.2-0.3l0.5-0.2l0.4,0.2l0.4,0.7l0.5,0.4l0.3,0.3l0.5,0.2h0.9h0.5l0.6,0.2h0.5l0.4,0.4l0.4,0.5l0.1,0.8l0.4,0.6l0.5,0.3
		l0.2,0.5l-0.1,0.5l-0.2,0.5v0.6l0.2,0.5v0.5l0.2,0.5l0.3,0.5l0.1,0.8l-0.1,0.5l0.2,0.4l0.1,0.5l-0.1,0.4l-0.1,0.5v0.5l0.2,0.4
		l0.5,0.5l0.1,0.9v0.6l0.2,0.7l0.4,0.4l0.6,0.1l0.7,0.1l0.8-0.2l0.7-0.2l0.5-0.2l0.8-0.5l0.7-0.3l0.4-0.2l0.4-0.2l0.7,0.4l0.7,0.5
		l0.5,0.5l1,0.6l-0.2,0.2l-0.4,0.5v0.6l0.3,0.9l-0.3,1.8l-0.7,2.8l-0.3,1.6l0.1,0.5l-0.3,0.8l-1.1,1.8v1.2l-0.1,3.6L368,117
		l-0.6,1.9l-0.5,1l-0.5,0.1l-0.4,0.3l-0.2,0.5l-0.4,0.4l-0.5,0.4l-0.3,0.4l-0.1,0.4l-0.5,0.3l-1.1,0.1l-0.6,0.3l-0.2,0.5l-0.4,0.4
		l-0.5,0.3l-0.3,0.5v0.7l-0.3,0.5l-0.6,0.5h-0.5L359,126l-0.7-0.3l-0.9-0.2l-0.7,0.1l-0.6,0.4l-0.5,0.6l-0.5,0.8l-0.5,0.2l-0.5-0.5
		l-0.7-0.2l-0.8,0.2l-0.7-0.1l-0.5-0.4h-0.8l-1.1,0.3l-2.2-0.4l-3.2-1L341,124l-3.3,0.4l-0.3-1l0.2-0.5l0.5-0.5l0.4-0.5l0.2-0.5
		l0.4-0.4l0.6-0.3l0.3-0.3l-0.1-0.3l0.1-0.3l0.4-0.2l0.2-0.4l0.1-0.5l0.1-0.3l0.3-0.2v-0.4l-0.1-1V116l0.2-0.6l0.2-0.4l0.2-0.1
		l0.1-0.2l0.1-0.4l0.2-0.4l1.1-0.7l0.4-0.4v-0.4l0.2-0.5l0.6-1l0.2-0.5v-0.3l0.2-0.3l0.7-0.5l0.5-0.5l0.1-0.5l-0.2-0.5l-0.5-0.6
		l-1.4-1.6l-1.1-0.7l-1.4-0.6l-0.9-0.2l-0.5,0.2l-0.5-0.2l-0.5-0.5l-0.7-0.5l-1.5-0.5l-3.5-1.9l-1.4-0.9l-0.5-0.5l-1.4-1l-2.2-1.4
		l-1.6-0.7H325l-1.8-0.5l-2.5-0.9l-1.4-0.8l-0.4-0.8l-0.9-0.8l-1.4-0.8l-0.8-0.5l-0.1-0.3l-0.5-0.4l-0.8-0.5l-0.9-0.7l-1-1l-1.1-1.5
		l-1.1-2.1l-1.2-1.4l-1.3-0.7l-0.6-0.5v-0.3l-0.2-0.2l0.2-0.5l0.5-1.6l0.7-2.3l0.7-2.3l0.8-2.8v-2v-2.1l1.2-1.7l0.8-1.2l0.7-1.2
		l0.7-2l0.5-1.4l1.9-0.3l3.2-0.7l1.5-0.4l3.3-0.7l3.3-0.7l3.5-0.1l3.4-0.1l2.6,1.6l2,1.3l2.3,1.4L341,62l0.2,1.2L341.3,65.6z"/>
</g>
<line class="st2" x1="38" y1="250" x2="504.7" y2="250"/>
<text transform="matrix(1 0 0 1 8.1991 253.6)" class="st3 st4">40</text>
</svg>
