<?xml version="1.0" encoding="UTF-8"?>
<svg xmlns="http://www.w3.org/2000/svg" viewBox="0 0 774.06 586.28">
  <defs>
    <style>
      .cls-1 {
        letter-spacing: 0em;
      }

      .cls-2 {
        fill: #fff;
        stroke: #1d1d1b;
        stroke-miterlimit: 10;
        stroke-width: 3px;
      }

      .cls-3 {
        letter-spacing: 0em;
      }

      .cls-4 {
        letter-spacing: 0em;
      }

      .cls-5 {
        font-size: 27.19px;
      }

      .cls-5, .cls-6 {
        font-family: Montserrat-Bold, Montserrat;
        font-weight: 700;
      }

      .cls-7 {
        letter-spacing: -.02em;
      }

      .cls-6 {
        font-size: 20px;
      }

      .cls-8 {
        letter-spacing: -.02em;
      }

      .cls-9 {
        letter-spacing: 0em;
      }

      .cls-10 {
        letter-spacing: 0em;
      }

      .cls-11 {
        letter-spacing: 0em;
      }

      .cls-12 {
        letter-spacing: 0em;
      }

      .cls-13 {
        letter-spacing: 0em;
      }

      .cls-14 {
        letter-spacing: 0em;
      }

      .cls-15 {
        letter-spacing: 0em;
      }

      .cls-16 {
        letter-spacing: 0em;
      }

      .cls-17 {
        letter-spacing: 0em;
      }

      .cls-18 {
        letter-spacing: 0em;
      }

      .cls-19 {
        letter-spacing: 0em;
      }

      .cls-20 {
        letter-spacing: -.01em;
      }

      .cls-21 {
        letter-spacing: -.01em;
      }

      .cls-22 {
        letter-spacing: -.02em;
      }
    </style>
  </defs>
  <g id="Capa_2" data-name="Capa 2">
    <g>
      <rect class="cls-2" x="56.02" y="248.85" width="645.47" height="71.33"/>
      <polyline class="cls-2" points="687.24 248.17 686.54 212.57 747.27 275.39 687.24 364.73 684.45 319.36"/>
    </g>
    <circle class="cls-2" cx="83.29" cy="281.53" r="50.87"/>
    <circle class="cls-2" cx="638.1" cy="281.53" r="50.87"/>
    <circle class="cls-2" cx="194.02" cy="281.53" r="50.87"/>
    <circle class="cls-2" cx="528.81" cy="281.53" r="50.87"/>
    <circle class="cls-2" cx="417.13" cy="281.53" r="50.87"/>
    <circle class="cls-2" cx="306.16" cy="281.53" r="50.87"/>
  </g>
  <g id="Capa_3" data-name="Capa 3">
    <text class="cls-5" transform="translate(51.42 291.36)"><tspan x="0" y="0">1962</tspan></text>
    <text class="cls-5" transform="translate(164.66 291.36)"><tspan x="0" y="0">19</tspan><tspan class="cls-3" x="27.98" y="0">9</tspan><tspan x="45.19" y="0">7</tspan></text>
    <text class="cls-5" transform="translate(272.03 291.36)"><tspan class="cls-19" x="0" y="0">2</tspan><tspan x="15.99" y="0">008</tspan></text>
    <text class="cls-5" transform="translate(388.01 292.04)"><tspan class="cls-19" x="0" y="0">2</tspan><tspan class="cls-1" x="15.99" y="0">0</tspan><tspan class="cls-10" x="34.29" y="0">11</tspan></text>
    <text class="cls-5" transform="translate(495.05 291.36)"><tspan class="cls-19" x="0" y="0">2</tspan><tspan class="cls-1" x="15.99" y="0">0</tspan><tspan class="cls-19" x="34.29" y="0">2</tspan><tspan x="50.28" y="0">0</tspan></text>
    <text class="cls-5" transform="translate(609.59 291.36)"><tspan class="cls-19" x="0" y="0">2</tspan><tspan class="cls-1" x="15.99" y="0">0</tspan><tspan class="cls-10" x="34.29" y="0">21</tspan></text>
    <text class="cls-6" transform="translate(41.49 185.87)"><tspan x="0" y="0">Re</tspan><tspan class="cls-15" x="27.32" y="0">f</tspan><tspan class="cls-4" x="34.92" y="0">o</tspan><tspan class="cls-16" x="48.02" y="0">r</tspan><tspan x="56.56" y="0">ma</tspan><tspan class="cls-12" x="0" y="21">a</tspan><tspan class="cls-4" x="12.46" y="21">g</tspan><tspan class="cls-15" x="26.46" y="21">r</tspan><tspan x="34.94" y="21">a</tspan><tspan class="cls-16" x="47.28" y="21">r</tspan><tspan x="55.82" y="21">ia</tspan></text>
    <text class="cls-6" transform="translate(128.05 372.18)"><tspan class="cls-14" x="0" y="0">A</tspan><tspan class="cls-4" x="15.22" y="0">gotamien</tspan><tspan class="cls-8" x="116.8" y="0">t</tspan><tspan x="125.16" y="0">o</tspan><tspan x="2.92" y="21">de la cue</tspan><tspan class="cls-12" x="97.24" y="21">n</tspan><tspan x="111.18" y="21">ca</tspan><tspan x="12.52" y="42">de </tspan><tspan class="cls-21" x="44.64" y="42">P</tspan><tspan x="59.06" y="42">e</tspan><tspan class="cls-7" x="71.68" y="42">t</tspan><tspan x="80.04" y="42">o</tspan><tspan class="cls-13" x="93.14" y="42">r</tspan><tspan x="101.58" y="42">ca</tspan></text>
    <text class="cls-6" transform="translate(282.23 165.81)"><tspan x="0" y="0">Inicio</tspan><tspan x="-11.84" y="21">pe</tspan><tspan class="cls-16" x="14.58" y="21">r</tspan><tspan class="cls-4" x="23.12" y="21">iodo</tspan><tspan x="-5.9" y="42">sequía</tspan></text>
    <text class="cls-6" transform="translate(359.17 372.18)"><tspan x="0" y="0">Se aprue</tspan><tspan class="cls-18" x="92.16" y="0">b</tspan><tspan x="105.78" y="0">a</tspan><tspan x="-4.9" y="21">licit</tspan><tspan class="cls-9" x="33.68" y="21">a</tspan><tspan x="46.14" y="21">ción de</tspan><tspan x="-22.96" y="42">camio</tspan><tspan class="cls-12" x="41.3" y="42">n</tspan><tspan class="cls-4" x="55.24" y="42">es aljibe</tspan></text>
    <text class="cls-6" transform="translate(462.82 165.68)"><tspan class="cls-20" x="0" y="0">P</tspan><tspan class="cls-18" x="14.44" y="0">r</tspan><tspan class="cls-22" x="22.88" y="0">o</tspan><tspan x="35.68" y="0">vi</tspan><tspan class="cls-9" x="53.66" y="0">n</tspan><tspan x="67.6" y="0">cia es</tspan><tspan x="-4.55" y="21">de</tspan><tspan class="cls-17" x="21.91" y="21">c</tspan><tspan class="cls-4" x="33.65" y="21">la</tspan><tspan class="cls-15" x="52.01" y="21">r</tspan><tspan class="cls-9" x="60.49" y="21">a</tspan><tspan x="72.95" y="21">da en</tspan><tspan class="cls-9" x="3.99" y="42">m</tspan><tspan x="25.09" y="42">eg</tspan><tspan class="cls-12" x="51.71" y="42">a</tspan><tspan class="cls-4" x="64.17" y="42">equía</tspan></text>
    <text class="cls-6" transform="translate(577.52 369.73)"><tspan x="0" y="0">Gobie</tspan><tspan class="cls-16" x="60.96" y="0">r</tspan><tspan class="cls-12" x="69.5" y="0">n</tspan><tspan class="cls-4" x="83.44" y="0">o</tspan><tspan x="-16.32" y="21">publica plan</tspan><tspan x="-30.55" y="42">de e</tspan><tspan class="cls-12" x="14.19" y="42">m</tspan><tspan class="cls-4" x="35.29" y="42">e</tspan><tspan class="cls-18" x="47.91" y="42">r</tspan><tspan x="56.35" y="42">ge</tspan><tspan class="cls-9" x="82.97" y="42">n</tspan><tspan x="96.91" y="42">cia</tspan><tspan class="cls-15" x="2.2" y="63">c</tspan><tspan class="cls-4" x="13.88" y="63">ont</tspan><tspan class="cls-11" x="49.5" y="63">r</tspan><tspan x="57.98" y="63">a la</tspan><tspan class="cls-12" x="-16.33" y="84">m</tspan><tspan class="cls-4" x="4.77" y="84">egasequía</tspan></text>
  </g>
</svg>